G04 #@! TF.GenerationSoftware,KiCad,Pcbnew,5.0.2-bee76a0~70~ubuntu18.04.1*
G04 #@! TF.CreationDate,2019-04-11T23:01:23-04:00*
G04 #@! TF.ProjectId,interface_rev2,696e7465-7266-4616-9365-5f726576322e,rev?*
G04 #@! TF.SameCoordinates,Original*
G04 #@! TF.FileFunction,Copper,L2,Bot*
G04 #@! TF.FilePolarity,Positive*
%FSLAX46Y46*%
G04 Gerber Fmt 4.6, Leading zero omitted, Abs format (unit mm)*
G04 Created by KiCad (PCBNEW 5.0.2-bee76a0~70~ubuntu18.04.1) date Thu 11 Apr 2019 11:01:23 PM EDT*
%MOMM*%
%LPD*%
G01*
G04 APERTURE LIST*
G04 #@! TA.AperFunction,ComponentPad*
%ADD10C,1.524000*%
G04 #@! TD*
G04 #@! TA.AperFunction,ComponentPad*
%ADD11C,3.000000*%
G04 #@! TD*
G04 #@! TA.AperFunction,ComponentPad*
%ADD12C,2.750000*%
G04 #@! TD*
G04 #@! TA.AperFunction,ComponentPad*
%ADD13C,1.500000*%
G04 #@! TD*
G04 #@! TA.AperFunction,ComponentPad*
%ADD14C,2.000000*%
G04 #@! TD*
G04 #@! TA.AperFunction,ComponentPad*
%ADD15C,1.300000*%
G04 #@! TD*
G04 #@! TA.AperFunction,ComponentPad*
%ADD16C,1.700000*%
G04 #@! TD*
G04 #@! TA.AperFunction,Conductor*
%ADD17C,2.000000*%
G04 #@! TD*
G04 #@! TA.AperFunction,ViaPad*
%ADD18C,0.800000*%
G04 #@! TD*
G04 #@! TA.AperFunction,Conductor*
%ADD19C,0.152400*%
G04 #@! TD*
G04 #@! TA.AperFunction,Conductor*
%ADD20C,0.254000*%
G04 #@! TD*
G04 APERTURE END LIST*
D10*
G04 #@! TO.P,J1,2*
G04 #@! TO.N,/BOTS->ESTOP*
X116459000Y-109804200D03*
G04 #@! TO.P,J1,1*
G04 #@! TO.N,/ESTOP->HVD*
X116459000Y-112801400D03*
G04 #@! TD*
D11*
G04 #@! TO.P,J3,1*
G04 #@! TO.N,/IS->BOTS*
X181895000Y-107696500D03*
G04 #@! TO.P,J3,9*
G04 #@! TO.N,/BSPD->IS*
X179895000Y-111696500D03*
G04 #@! TO.P,J3,16*
G04 #@! TO.N,/Throttle2-*
X181895000Y-115696500D03*
G04 #@! TO.P,J3,2*
G04 #@! TO.N,/IS->BOTS*
X177895000Y-107696500D03*
G04 #@! TO.P,J3,3*
G04 #@! TO.N,/BOTS->ESTOP*
X173895000Y-107696500D03*
G04 #@! TO.P,J3,5*
G04 #@! TO.N,/GND*
X165895000Y-107696500D03*
G04 #@! TO.P,J3,4*
G04 #@! TO.N,/ESTOP->HVD*
X169895000Y-107696500D03*
G04 #@! TO.P,J3,6*
G04 #@! TO.N,/12V*
X161895000Y-107696500D03*
G04 #@! TO.P,J3,7*
G04 #@! TO.N,/GND*
X157895000Y-107696500D03*
G04 #@! TO.P,J3,8*
G04 #@! TO.N,/12V*
X153895000Y-107696500D03*
G04 #@! TO.P,J3,15*
G04 #@! TO.N,/CANH*
X155895000Y-111696500D03*
G04 #@! TO.P,J3,14*
G04 #@! TO.N,/CANL*
X159895000Y-111696500D03*
G04 #@! TO.P,J3,12*
G04 #@! TO.N,/SCL*
X167895000Y-111696500D03*
G04 #@! TO.P,J3,13*
G04 #@! TO.N,/GND*
X163895000Y-111696500D03*
G04 #@! TO.P,J3,11*
G04 #@! TO.N,/SDA*
X171895000Y-111696500D03*
G04 #@! TO.P,J3,10*
G04 #@! TO.N,/BSPD->IS*
X175895000Y-111696500D03*
G04 #@! TO.P,J3,22*
G04 #@! TO.N,/CANL*
X157895000Y-115696500D03*
G04 #@! TO.P,J3,21*
G04 #@! TO.N,/Throttle1+*
X161895000Y-115696500D03*
G04 #@! TO.P,J3,20*
G04 #@! TO.N,/Throttle1_Sense*
X165895000Y-115696500D03*
G04 #@! TO.P,J3,19*
G04 #@! TO.N,/Throttle1-*
X169895000Y-115696500D03*
G04 #@! TO.P,J3,18*
G04 #@! TO.N,/Throttle2+*
X173895000Y-115696500D03*
G04 #@! TO.P,J3,17*
G04 #@! TO.N,/Throttle2_Sense*
X177895000Y-115696500D03*
G04 #@! TO.P,J3,23*
G04 #@! TO.N,/CANH*
X153895000Y-115696500D03*
G04 #@! TD*
D12*
G04 #@! TO.P,U1,14*
G04 #@! TO.N,Net-(U1-Pad14)*
X191490500Y-86220500D03*
G04 #@! TO.P,U1,13*
G04 #@! TO.N,Net-(U1-Pad13)*
X177590500Y-86220500D03*
D13*
G04 #@! TO.P,U1,8*
G04 #@! TO.N,/GND*
X188980500Y-90640500D03*
G04 #@! TO.P,U1,6*
G04 #@! TO.N,/MOSI*
X186440500Y-90640500D03*
G04 #@! TO.P,U1,4*
G04 #@! TO.N,/SCK*
X183900500Y-90640500D03*
G04 #@! TO.P,U1,2*
G04 #@! TO.N,/CANH*
X181360500Y-90640500D03*
G04 #@! TO.P,U1,7*
G04 #@! TO.N,/5V*
X187710500Y-88100500D03*
G04 #@! TO.P,U1,5*
G04 #@! TO.N,/MISO*
X185170500Y-88100500D03*
G04 #@! TO.P,U1,3*
G04 #@! TO.N,/RESET*
X182630500Y-88100500D03*
G04 #@! TO.P,U1,1*
G04 #@! TO.N,/CANL*
X180090500Y-88100500D03*
G04 #@! TO.P,U1,10*
G04 #@! TO.N,/LED1*
X188550500Y-81470500D03*
G04 #@! TO.P,U1,9*
G04 #@! TO.N,Net-(U1-Pad9)*
X191090500Y-81470500D03*
G04 #@! TO.P,U1,11*
G04 #@! TO.N,Net-(U1-Pad11)*
X180530500Y-81470500D03*
G04 #@! TO.P,U1,12*
G04 #@! TO.N,/LED2*
X177990500Y-81470500D03*
G04 #@! TD*
D14*
G04 #@! TO.P,J5,21*
G04 #@! TO.N,N/C*
X182689500Y-123507500D03*
D15*
G04 #@! TO.P,J5,20*
G04 #@! TO.N,/LED2*
X157159500Y-124247500D03*
G04 #@! TO.P,J5,19*
G04 #@! TO.N,/LED1*
X158429500Y-121707500D03*
G04 #@! TO.P,J5,18*
G04 #@! TO.N,/Throttle2-*
X159699500Y-124247500D03*
G04 #@! TO.P,J5,17*
G04 #@! TO.N,/Throttle2_Sense*
X160969500Y-121707500D03*
G04 #@! TO.P,J5,16*
G04 #@! TO.N,/Throttle2+*
X162239500Y-124247500D03*
G04 #@! TO.P,J5,15*
G04 #@! TO.N,/Throttle1-*
X163509500Y-121707500D03*
G04 #@! TO.P,J5,14*
G04 #@! TO.N,/Throttle1_Sense*
X164779500Y-124247500D03*
G04 #@! TO.P,J5,13*
G04 #@! TO.N,/Throttle1+*
X166049500Y-121707500D03*
G04 #@! TO.P,J5,12*
G04 #@! TO.N,/CANL*
X167319500Y-124247500D03*
G04 #@! TO.P,J5,11*
G04 #@! TO.N,/CANH*
X168589500Y-121707500D03*
G04 #@! TO.P,J5,10*
G04 #@! TO.N,/RESET*
X169859500Y-124247500D03*
G04 #@! TO.P,J5,9*
G04 #@! TO.N,/SCK*
X171129500Y-121707500D03*
G04 #@! TO.P,J5,8*
G04 #@! TO.N,/MISO*
X172399500Y-124247500D03*
G04 #@! TO.P,J5,6*
G04 #@! TO.N,/5V*
X174939500Y-124247500D03*
G04 #@! TO.P,J5,4*
G04 #@! TO.N,/Drive_Select_Sense*
X177479500Y-124247500D03*
G04 #@! TO.P,J5,2*
G04 #@! TO.N,/12V*
X180019500Y-124247500D03*
G04 #@! TO.P,J5,7*
G04 #@! TO.N,/MOSI*
X173669500Y-121707500D03*
G04 #@! TO.P,J5,1*
G04 #@! TO.N,/GND*
X181289500Y-121707500D03*
G04 #@! TO.P,J5,3*
G04 #@! TO.N,/Drive_Select+*
X178749500Y-121707500D03*
G04 #@! TO.P,J5,5*
G04 #@! TO.N,/Drive_Select-*
X176209500Y-121707500D03*
G04 #@! TD*
D16*
G04 #@! TO.P,J2,8*
G04 #@! TO.N,Net-(J2-Pad8)*
X120626500Y-118865000D03*
G04 #@! TO.P,J2,7*
G04 #@! TO.N,/Drive_Select-*
X120626500Y-121365000D03*
G04 #@! TO.P,J2,6*
G04 #@! TO.N,/Drive_Select_Sense*
X120626500Y-123865000D03*
G04 #@! TO.P,J2,5*
G04 #@! TO.N,/Drive_Select+*
X120626500Y-126365000D03*
G04 #@! TO.P,J2,4*
G04 #@! TO.N,/SCL*
X123126500Y-118865000D03*
G04 #@! TO.P,J2,3*
G04 #@! TO.N,/SDA*
X123126500Y-121365000D03*
G04 #@! TO.P,J2,2*
G04 #@! TO.N,/5V*
X123126500Y-123865000D03*
D17*
G04 #@! TD*
G04 #@! TO.N,/GND*
G04 #@! TO.C,J2*
G36*
X123751004Y-125516204D02*
X123775273Y-125519804D01*
X123799071Y-125525765D01*
X123822171Y-125534030D01*
X123844349Y-125544520D01*
X123865393Y-125557133D01*
X123885098Y-125571747D01*
X123903277Y-125588223D01*
X123919753Y-125606402D01*
X123934367Y-125626107D01*
X123946980Y-125647151D01*
X123957470Y-125669329D01*
X123965735Y-125692429D01*
X123971696Y-125716227D01*
X123975296Y-125740496D01*
X123976500Y-125765000D01*
X123976500Y-126965000D01*
X123975296Y-126989504D01*
X123971696Y-127013773D01*
X123965735Y-127037571D01*
X123957470Y-127060671D01*
X123946980Y-127082849D01*
X123934367Y-127103893D01*
X123919753Y-127123598D01*
X123903277Y-127141777D01*
X123885098Y-127158253D01*
X123865393Y-127172867D01*
X123844349Y-127185480D01*
X123822171Y-127195970D01*
X123799071Y-127204235D01*
X123775273Y-127210196D01*
X123751004Y-127213796D01*
X123726500Y-127215000D01*
X122526500Y-127215000D01*
X122501996Y-127213796D01*
X122477727Y-127210196D01*
X122453929Y-127204235D01*
X122430829Y-127195970D01*
X122408651Y-127185480D01*
X122387607Y-127172867D01*
X122367902Y-127158253D01*
X122349723Y-127141777D01*
X122333247Y-127123598D01*
X122318633Y-127103893D01*
X122306020Y-127082849D01*
X122295530Y-127060671D01*
X122287265Y-127037571D01*
X122281304Y-127013773D01*
X122277704Y-126989504D01*
X122276500Y-126965000D01*
X122276500Y-125765000D01*
X122277704Y-125740496D01*
X122281304Y-125716227D01*
X122287265Y-125692429D01*
X122295530Y-125669329D01*
X122306020Y-125647151D01*
X122318633Y-125626107D01*
X122333247Y-125606402D01*
X122349723Y-125588223D01*
X122367902Y-125571747D01*
X122387607Y-125557133D01*
X122408651Y-125544520D01*
X122430829Y-125534030D01*
X122453929Y-125525765D01*
X122477727Y-125519804D01*
X122501996Y-125516204D01*
X122526500Y-125515000D01*
X123726500Y-125515000D01*
X123751004Y-125516204D01*
X123751004Y-125516204D01*
G37*
D16*
G04 #@! TO.P,J2,1*
G04 #@! TO.N,/GND*
X123126500Y-126365000D03*
G04 #@! TD*
D14*
G04 #@! TO.P,J4,5*
G04 #@! TO.N,N/C*
X140147500Y-84669500D03*
D15*
G04 #@! TO.P,J4,4*
G04 #@! TO.N,Net-(J4-Pad4)*
X134937500Y-85709500D03*
G04 #@! TO.P,J4,2*
G04 #@! TO.N,/IS->BOTS*
X137477500Y-85709500D03*
G04 #@! TO.P,J4,1*
G04 #@! TO.N,/BOTS->ESTOP*
X138747500Y-83169500D03*
G04 #@! TO.P,J4,3*
G04 #@! TO.N,/ESTOP->HVD*
X136207500Y-83169500D03*
G04 #@! TD*
D18*
G04 #@! TO.N,/ESTOP->HVD*
X136194800Y-102997000D03*
X136144000Y-106095800D03*
G04 #@! TO.N,/GND*
X182753000Y-97383600D03*
X182676800Y-101879400D03*
X187274200Y-101955600D03*
X187299600Y-97561400D03*
X182702200Y-98755200D03*
X182626000Y-100279200D03*
X187325000Y-98755200D03*
X187325000Y-100177600D03*
G04 #@! TO.N,/5V*
X157073600Y-125907800D03*
G04 #@! TO.N,/SCL*
X135001000Y-109093000D03*
X137363200Y-109093000D03*
G04 #@! TO.N,/Drive_Select+*
X154990800Y-118567200D03*
X127050800Y-120700800D03*
X163562858Y-118140166D03*
G04 #@! TO.N,/Drive_Select_Sense*
X168579800Y-125206200D03*
X158750000Y-125780800D03*
G04 #@! TO.N,/Drive_Select-*
X155295600Y-119684800D03*
X125399800Y-120878600D03*
X162763200Y-119024400D03*
G04 #@! TO.N,/CANL*
X149631400Y-101422200D03*
X149555200Y-105752810D03*
G04 #@! TO.N,/CANH*
X151307800Y-101371400D03*
X149199600Y-107721400D03*
G04 #@! TO.N,/LED1*
X147472400Y-100558600D03*
X147167600Y-105752810D03*
X149987000Y-116763800D03*
X149682200Y-119786400D03*
G04 #@! TO.N,/LED2*
X148463000Y-101422200D03*
X148386800Y-105752810D03*
X151206200Y-117652800D03*
X150393400Y-121742200D03*
G04 #@! TD*
D19*
G04 #@! TO.N,/ESTOP->HVD*
X136194800Y-102997000D02*
X136194800Y-106045000D01*
X136194800Y-106045000D02*
X136144000Y-106095800D01*
G04 #@! TO.N,/5V*
X187710500Y-88100500D02*
X187710500Y-92578500D01*
X185518410Y-116695399D02*
X184863505Y-117350303D01*
X187710500Y-92578500D02*
X185518410Y-94770590D01*
X185518410Y-94770590D02*
X185518410Y-116695399D01*
X184863505Y-117350303D02*
X184863505Y-117371095D01*
X182962580Y-119272020D02*
X175088580Y-119272020D01*
X184863505Y-117371095D02*
X182962580Y-119272020D01*
X174939500Y-119421100D02*
X174939500Y-124247500D01*
X175088580Y-119272020D02*
X174939500Y-119421100D01*
X157622801Y-126457001D02*
X157073600Y-125907800D01*
X174939500Y-124247500D02*
X172729999Y-126457001D01*
X172729999Y-126457001D02*
X157622801Y-126457001D01*
G04 #@! TO.N,/SCL*
X135001000Y-109093000D02*
X137363200Y-109093000D01*
G04 #@! TO.N,/Drive_Select+*
X155270200Y-118287800D02*
X154990800Y-118567200D01*
X123667077Y-124991201D02*
X127050800Y-121607478D01*
X120626500Y-126365000D02*
X122000299Y-124991201D01*
X122000299Y-124991201D02*
X123667077Y-124991201D01*
X127050800Y-121607478D02*
X127050800Y-120700800D01*
X161975800Y-118287800D02*
X155270200Y-118287800D01*
X161975800Y-118287800D02*
X163415224Y-118287800D01*
X163415224Y-118287800D02*
X163562858Y-118140166D01*
G04 #@! TO.N,/Drive_Select_Sense*
X168579800Y-125206200D02*
X159324600Y-125206200D01*
X159324600Y-125206200D02*
X158750000Y-125780800D01*
G04 #@! TO.N,/Drive_Select-*
X121476499Y-120515001D02*
X120626500Y-121365000D01*
X121752701Y-120238799D02*
X121476499Y-120515001D01*
X124194314Y-120238799D02*
X121752701Y-120238799D01*
X124834115Y-120878600D02*
X124194314Y-120238799D01*
X125399800Y-120878600D02*
X124834115Y-120878600D01*
X155295600Y-119684800D02*
X156337000Y-118643400D01*
X156337000Y-118643400D02*
X158851600Y-118643400D01*
X158851600Y-118643400D02*
X158854790Y-118640210D01*
X158854790Y-118640210D02*
X161327432Y-118640210D01*
X161327432Y-118640210D02*
X161813222Y-119126000D01*
X162661600Y-119126000D02*
X162763200Y-119024400D01*
X161813222Y-119126000D02*
X162661600Y-119126000D01*
G04 #@! TO.N,/CANL*
X149631400Y-105676610D02*
X149555200Y-105752810D01*
X149631400Y-101422200D02*
X148815410Y-102238190D01*
X148815410Y-105013020D02*
X149555200Y-105752810D01*
X148815410Y-102238190D02*
X148815410Y-105013020D01*
G04 #@! TO.N,/CANH*
X151307800Y-101371400D02*
X150545800Y-102133400D01*
X150545800Y-102133400D02*
X149529800Y-102133400D01*
X149529800Y-102133400D02*
X149174200Y-102489000D01*
X149599599Y-107321401D02*
X149199600Y-107721400D01*
X150231401Y-106689599D02*
X149599599Y-107321401D01*
X150231401Y-105428233D02*
X150231401Y-106689599D01*
X149174200Y-104371032D02*
X150231401Y-105428233D01*
X149174200Y-102489000D02*
X149174200Y-104371032D01*
G04 #@! TO.N,/MOSI*
X186440500Y-90640500D02*
X186440500Y-93315100D01*
X186440500Y-93315100D02*
X185166000Y-94589600D01*
X185166000Y-116549426D02*
X182795817Y-118919610D01*
X185166000Y-94589600D02*
X185166000Y-116549426D01*
X182795817Y-118919610D02*
X174678990Y-118919610D01*
X173669500Y-119929100D02*
X173669500Y-121707500D01*
X174678990Y-118919610D02*
X173669500Y-119929100D01*
G04 #@! TO.N,/MISO*
X172399500Y-120300482D02*
X172399500Y-124247500D01*
X174189962Y-118510020D02*
X172399500Y-120300482D01*
X175558420Y-118510020D02*
X174189962Y-118510020D01*
X185170500Y-88100500D02*
X185170500Y-94023110D01*
X185170500Y-94023110D02*
X184807210Y-94386400D01*
X184807210Y-94386400D02*
X184807210Y-116409834D01*
X184807210Y-116409834D02*
X182649844Y-118567200D01*
X182649844Y-118567200D02*
X175615600Y-118567200D01*
X175615600Y-118567200D02*
X175558420Y-118510020D01*
G04 #@! TO.N,/SCK*
X174043990Y-118157610D02*
X171246800Y-120954800D01*
X182561051Y-118157610D02*
X174043990Y-118157610D01*
X171246800Y-120954800D02*
X171246800Y-121590200D01*
X183900500Y-91701160D02*
X183362600Y-92239060D01*
X171246800Y-121590200D02*
X171129500Y-121707500D01*
X183900500Y-90640500D02*
X183900500Y-91701160D01*
X183362600Y-92239060D02*
X183362600Y-93151418D01*
X183362600Y-93151418D02*
X184454800Y-94243618D01*
X184454800Y-94243618D02*
X184454800Y-116263861D01*
X184454800Y-116263861D02*
X182561051Y-118157610D01*
G04 #@! TO.N,/RESET*
X169859500Y-121606722D02*
X173661022Y-117805200D01*
X169859500Y-124247500D02*
X169859500Y-121606722D01*
X182415078Y-117805200D02*
X184073800Y-116146478D01*
X173661022Y-117805200D02*
X182415078Y-117805200D01*
X182321200Y-92608400D02*
X182321200Y-91059000D01*
X184073800Y-94361000D02*
X182321200Y-92608400D01*
X184073800Y-116146478D02*
X184073800Y-94361000D01*
X182630500Y-90749700D02*
X182321200Y-91059000D01*
X182630500Y-88100500D02*
X182630500Y-90749700D01*
G04 #@! TO.N,/LED1*
X147472400Y-105448010D02*
X147167600Y-105752810D01*
X149987000Y-116763800D02*
X149987000Y-119481600D01*
X149987000Y-119481600D02*
X149682200Y-119786400D01*
X147472400Y-100558600D02*
X147472400Y-101447600D01*
X147472400Y-101447600D02*
X148107400Y-102082600D01*
X148107400Y-104813010D02*
X147167600Y-105752810D01*
X148107400Y-102082600D02*
X148107400Y-104813010D01*
G04 #@! TO.N,/LED2*
X148463000Y-105676610D02*
X148386800Y-105752810D01*
X148463000Y-101422200D02*
X148463000Y-105676610D01*
X151206200Y-117652800D02*
X150339410Y-118519590D01*
X150339410Y-118519590D02*
X150339410Y-119253000D01*
X150393400Y-119306990D02*
X150393400Y-121742200D01*
X150339410Y-119253000D02*
X150393400Y-119306990D01*
G04 #@! TD*
D20*
G04 #@! TO.N,/GND*
G36*
X194423451Y-76767846D02*
X194856260Y-76894583D01*
X195243962Y-77124978D01*
X195575547Y-77457971D01*
X195732611Y-77696223D01*
X195921646Y-78020504D01*
X195938535Y-78045695D01*
X195954329Y-78071602D01*
X196676451Y-79104087D01*
X196733997Y-79176255D01*
X197579829Y-80110093D01*
X197599635Y-80129374D01*
X197645967Y-80174479D01*
X198602171Y-80994941D01*
X198675857Y-81050530D01*
X199708075Y-81731954D01*
X200123786Y-82045568D01*
X200404960Y-82398180D01*
X200589609Y-82809636D01*
X200669344Y-83272748D01*
X200661018Y-83550735D01*
X196837162Y-119932301D01*
X196723535Y-120416751D01*
X196514592Y-120816422D01*
X196212825Y-121151568D01*
X195821411Y-121411623D01*
X195555997Y-121519480D01*
X195144145Y-121662343D01*
X195115154Y-121674489D01*
X195085717Y-121685454D01*
X193934966Y-122198528D01*
X193934960Y-122198530D01*
X193853184Y-122241336D01*
X192775809Y-122894595D01*
X192722742Y-122931520D01*
X192700044Y-122947313D01*
X191713038Y-123730451D01*
X191644477Y-123792249D01*
X190763407Y-124692918D01*
X190717809Y-124745800D01*
X190703133Y-124762821D01*
X189941894Y-125766813D01*
X189907060Y-125819304D01*
X189890856Y-125843721D01*
X189273000Y-126915184D01*
X188985047Y-127349085D01*
X188650056Y-127651032D01*
X188250498Y-127860184D01*
X187791828Y-127968019D01*
X187545136Y-127976367D01*
X108274850Y-128675199D01*
X107762512Y-128639039D01*
X107334670Y-128496408D01*
X106955742Y-128251859D01*
X106635864Y-127905972D01*
X106497585Y-127679993D01*
X106493755Y-127672628D01*
X106481500Y-127652296D01*
X106470520Y-127631272D01*
X105818267Y-126553286D01*
X105765620Y-126477471D01*
X104997739Y-125507840D01*
X104700721Y-125080116D01*
X104543690Y-124657348D01*
X104496730Y-124208808D01*
X104565316Y-123745649D01*
X104668110Y-123465843D01*
X106922327Y-118569615D01*
X119141500Y-118569615D01*
X119141500Y-119160385D01*
X119367578Y-119706185D01*
X119776393Y-120115000D01*
X119367578Y-120523815D01*
X119141500Y-121069615D01*
X119141500Y-121660385D01*
X119367578Y-122206185D01*
X119776393Y-122615000D01*
X119367578Y-123023815D01*
X119141500Y-123569615D01*
X119141500Y-124160385D01*
X119367578Y-124706185D01*
X119776393Y-125115000D01*
X119367578Y-125523815D01*
X119141500Y-126069615D01*
X119141500Y-126660385D01*
X119367578Y-127206185D01*
X119785315Y-127623922D01*
X120331115Y-127850000D01*
X120921885Y-127850000D01*
X121467685Y-127623922D01*
X121673366Y-127418241D01*
X121738173Y-127574699D01*
X121916802Y-127753327D01*
X122150191Y-127850000D01*
X122840750Y-127850000D01*
X122999500Y-127691250D01*
X122999500Y-126492000D01*
X123253500Y-126492000D01*
X123253500Y-127691250D01*
X123412250Y-127850000D01*
X124102809Y-127850000D01*
X124336198Y-127753327D01*
X124514827Y-127574699D01*
X124611500Y-127341310D01*
X124611500Y-126650750D01*
X124452750Y-126492000D01*
X123253500Y-126492000D01*
X122999500Y-126492000D01*
X122979500Y-126492000D01*
X122979500Y-126238000D01*
X122999500Y-126238000D01*
X122999500Y-126218000D01*
X123253500Y-126218000D01*
X123253500Y-126238000D01*
X124452750Y-126238000D01*
X124611500Y-126079250D01*
X124611500Y-125388690D01*
X124514827Y-125155301D01*
X124511796Y-125152270D01*
X127504169Y-122159898D01*
X127563545Y-122120224D01*
X127603220Y-122060847D01*
X127603224Y-122060843D01*
X127710261Y-121900651D01*
X127720736Y-121884974D01*
X127762000Y-121677524D01*
X127762000Y-121677520D01*
X127775932Y-121607478D01*
X127762000Y-121537436D01*
X127762000Y-121453311D01*
X127928231Y-121287080D01*
X128085800Y-120906674D01*
X128085800Y-120494926D01*
X127928231Y-120114520D01*
X127637080Y-119823369D01*
X127256674Y-119665800D01*
X126844926Y-119665800D01*
X126464520Y-119823369D01*
X126173369Y-120114520D01*
X126151713Y-120166802D01*
X125986080Y-120001169D01*
X125605674Y-119843600D01*
X125193926Y-119843600D01*
X124918845Y-119957542D01*
X124746738Y-119785435D01*
X124707060Y-119726053D01*
X124471810Y-119568863D01*
X124444549Y-119563440D01*
X124611500Y-119160385D01*
X124611500Y-118671278D01*
X141060000Y-118671278D01*
X141060000Y-119321722D01*
X141308914Y-119922653D01*
X141768847Y-120382586D01*
X142369778Y-120631500D01*
X143020222Y-120631500D01*
X143621153Y-120382586D01*
X144081086Y-119922653D01*
X144222799Y-119580526D01*
X148647200Y-119580526D01*
X148647200Y-119992274D01*
X148804769Y-120372680D01*
X149095920Y-120663831D01*
X149476326Y-120821400D01*
X149682201Y-120821400D01*
X149682201Y-120989688D01*
X149515969Y-121155920D01*
X149358400Y-121536326D01*
X149358400Y-121948074D01*
X149515969Y-122328480D01*
X149807120Y-122619631D01*
X150187526Y-122777200D01*
X150599274Y-122777200D01*
X150979680Y-122619631D01*
X151270831Y-122328480D01*
X151428400Y-121948074D01*
X151428400Y-121536326D01*
X151270831Y-121155920D01*
X151104600Y-120989689D01*
X151104600Y-119377031D01*
X151118532Y-119306989D01*
X151104600Y-119236948D01*
X151104600Y-119236944D01*
X151063336Y-119029494D01*
X151050610Y-119010448D01*
X151050610Y-118814178D01*
X151176988Y-118687800D01*
X151412074Y-118687800D01*
X151792480Y-118530231D01*
X152083631Y-118239080D01*
X152241200Y-117858674D01*
X152241200Y-117446926D01*
X152083631Y-117066520D01*
X151792480Y-116775369D01*
X151412074Y-116617800D01*
X151022000Y-116617800D01*
X151022000Y-116557926D01*
X150864431Y-116177520D01*
X150573280Y-115886369D01*
X150192874Y-115728800D01*
X149781126Y-115728800D01*
X149400720Y-115886369D01*
X149109569Y-116177520D01*
X148952000Y-116557926D01*
X148952000Y-116969674D01*
X149109569Y-117350080D01*
X149275800Y-117516311D01*
X149275801Y-118834460D01*
X149095920Y-118908969D01*
X148804769Y-119200120D01*
X148647200Y-119580526D01*
X144222799Y-119580526D01*
X144330000Y-119321722D01*
X144330000Y-118671278D01*
X144081086Y-118070347D01*
X143621153Y-117610414D01*
X143020222Y-117361500D01*
X142369778Y-117361500D01*
X141768847Y-117610414D01*
X141308914Y-118070347D01*
X141060000Y-118671278D01*
X124611500Y-118671278D01*
X124611500Y-118569615D01*
X124385422Y-118023815D01*
X123967685Y-117606078D01*
X123421885Y-117380000D01*
X122831115Y-117380000D01*
X122285315Y-117606078D01*
X121876500Y-118014893D01*
X121467685Y-117606078D01*
X120921885Y-117380000D01*
X120331115Y-117380000D01*
X119785315Y-117606078D01*
X119367578Y-118023815D01*
X119141500Y-118569615D01*
X106922327Y-118569615D01*
X108440626Y-115271822D01*
X151760000Y-115271822D01*
X151760000Y-116121178D01*
X152085034Y-116905880D01*
X152685620Y-117506466D01*
X153470322Y-117831500D01*
X154262789Y-117831500D01*
X154113369Y-117980920D01*
X153955800Y-118361326D01*
X153955800Y-118773074D01*
X154113369Y-119153480D01*
X154312798Y-119352909D01*
X154260600Y-119478926D01*
X154260600Y-119890674D01*
X154418169Y-120271080D01*
X154709320Y-120562231D01*
X155089726Y-120719800D01*
X155501474Y-120719800D01*
X155881880Y-120562231D01*
X156173031Y-120271080D01*
X156330600Y-119890674D01*
X156330600Y-119655589D01*
X156631589Y-119354600D01*
X158781559Y-119354600D01*
X158851600Y-119368532D01*
X158921641Y-119354600D01*
X158921646Y-119354600D01*
X158937683Y-119351410D01*
X161032844Y-119351410D01*
X161260800Y-119579366D01*
X161300476Y-119638746D01*
X161359855Y-119678422D01*
X161359857Y-119678424D01*
X161430138Y-119725384D01*
X161535726Y-119795936D01*
X161743176Y-119837200D01*
X161743180Y-119837200D01*
X161813222Y-119851132D01*
X161883264Y-119837200D01*
X162112289Y-119837200D01*
X162176920Y-119901831D01*
X162557326Y-120059400D01*
X162969074Y-120059400D01*
X163349480Y-119901831D01*
X163640631Y-119610680D01*
X163798200Y-119230274D01*
X163798200Y-119162960D01*
X164149138Y-119017597D01*
X164440289Y-118726446D01*
X164597858Y-118346040D01*
X164597858Y-117934292D01*
X164440289Y-117553886D01*
X164149138Y-117262735D01*
X163768732Y-117105166D01*
X163505680Y-117105166D01*
X163704966Y-116905880D01*
X163895000Y-116447097D01*
X164085034Y-116905880D01*
X164685620Y-117506466D01*
X165470322Y-117831500D01*
X166319678Y-117831500D01*
X167104380Y-117506466D01*
X167704966Y-116905880D01*
X167895000Y-116447097D01*
X168085034Y-116905880D01*
X168685620Y-117506466D01*
X169470322Y-117831500D01*
X170319678Y-117831500D01*
X171104380Y-117506466D01*
X171704966Y-116905880D01*
X171895000Y-116447097D01*
X172085034Y-116905880D01*
X172685620Y-117506466D01*
X172875370Y-117585063D01*
X169579849Y-120880584D01*
X169317394Y-120618129D01*
X168845102Y-120422500D01*
X168333898Y-120422500D01*
X167861606Y-120618129D01*
X167500129Y-120979606D01*
X167319500Y-121415685D01*
X167138871Y-120979606D01*
X166777394Y-120618129D01*
X166305102Y-120422500D01*
X165793898Y-120422500D01*
X165321606Y-120618129D01*
X164960129Y-120979606D01*
X164779500Y-121415685D01*
X164598871Y-120979606D01*
X164237394Y-120618129D01*
X163765102Y-120422500D01*
X163253898Y-120422500D01*
X162781606Y-120618129D01*
X162420129Y-120979606D01*
X162239500Y-121415685D01*
X162058871Y-120979606D01*
X161697394Y-120618129D01*
X161225102Y-120422500D01*
X160713898Y-120422500D01*
X160241606Y-120618129D01*
X159880129Y-120979606D01*
X159699500Y-121415685D01*
X159518871Y-120979606D01*
X159157394Y-120618129D01*
X158685102Y-120422500D01*
X158173898Y-120422500D01*
X157701606Y-120618129D01*
X157340129Y-120979606D01*
X157144500Y-121451898D01*
X157144500Y-121963102D01*
X157340129Y-122435394D01*
X157701606Y-122796871D01*
X158173898Y-122992500D01*
X158685102Y-122992500D01*
X159157394Y-122796871D01*
X159518871Y-122435394D01*
X159699500Y-121999315D01*
X159880129Y-122435394D01*
X160241606Y-122796871D01*
X160713898Y-122992500D01*
X161225102Y-122992500D01*
X161697394Y-122796871D01*
X162058871Y-122435394D01*
X162239500Y-121999315D01*
X162420129Y-122435394D01*
X162781606Y-122796871D01*
X163253898Y-122992500D01*
X163765102Y-122992500D01*
X164237394Y-122796871D01*
X164598871Y-122435394D01*
X164779500Y-121999315D01*
X164960129Y-122435394D01*
X165321606Y-122796871D01*
X165793898Y-122992500D01*
X166305102Y-122992500D01*
X166777394Y-122796871D01*
X167138871Y-122435394D01*
X167319500Y-121999315D01*
X167500129Y-122435394D01*
X167861606Y-122796871D01*
X168333898Y-122992500D01*
X168845102Y-122992500D01*
X169148301Y-122866912D01*
X169148300Y-123151214D01*
X169131606Y-123158129D01*
X168770129Y-123519606D01*
X168589500Y-123955685D01*
X168408871Y-123519606D01*
X168047394Y-123158129D01*
X167575102Y-122962500D01*
X167063898Y-122962500D01*
X166591606Y-123158129D01*
X166230129Y-123519606D01*
X166049500Y-123955685D01*
X165868871Y-123519606D01*
X165507394Y-123158129D01*
X165035102Y-122962500D01*
X164523898Y-122962500D01*
X164051606Y-123158129D01*
X163690129Y-123519606D01*
X163509500Y-123955685D01*
X163328871Y-123519606D01*
X162967394Y-123158129D01*
X162495102Y-122962500D01*
X161983898Y-122962500D01*
X161511606Y-123158129D01*
X161150129Y-123519606D01*
X160969500Y-123955685D01*
X160788871Y-123519606D01*
X160427394Y-123158129D01*
X159955102Y-122962500D01*
X159443898Y-122962500D01*
X158971606Y-123158129D01*
X158610129Y-123519606D01*
X158429500Y-123955685D01*
X158248871Y-123519606D01*
X157887394Y-123158129D01*
X157415102Y-122962500D01*
X156903898Y-122962500D01*
X156431606Y-123158129D01*
X156070129Y-123519606D01*
X155874500Y-123991898D01*
X155874500Y-124503102D01*
X156070129Y-124975394D01*
X156306212Y-125211477D01*
X156196169Y-125321520D01*
X156038600Y-125701926D01*
X156038600Y-126113674D01*
X156196169Y-126494080D01*
X156487320Y-126785231D01*
X156867726Y-126942800D01*
X157092049Y-126942800D01*
X157110055Y-126969747D01*
X157345305Y-127126937D01*
X157552755Y-127168201D01*
X157552759Y-127168201D01*
X157622801Y-127182133D01*
X157692843Y-127168201D01*
X172659958Y-127168201D01*
X172729999Y-127182133D01*
X172800040Y-127168201D01*
X172800045Y-127168201D01*
X173007495Y-127126937D01*
X173242745Y-126969747D01*
X173282423Y-126910365D01*
X174667204Y-125525585D01*
X174683898Y-125532500D01*
X175195102Y-125532500D01*
X175667394Y-125336871D01*
X176028871Y-124975394D01*
X176209500Y-124539315D01*
X176390129Y-124975394D01*
X176751606Y-125336871D01*
X177223898Y-125532500D01*
X177735102Y-125532500D01*
X178207394Y-125336871D01*
X178568871Y-124975394D01*
X178749500Y-124539315D01*
X178930129Y-124975394D01*
X179291606Y-125336871D01*
X179763898Y-125532500D01*
X180275102Y-125532500D01*
X180747394Y-125336871D01*
X181108871Y-124975394D01*
X181304500Y-124503102D01*
X181304500Y-124434739D01*
X181763347Y-124893586D01*
X182364278Y-125142500D01*
X183014722Y-125142500D01*
X183615653Y-124893586D01*
X184075586Y-124433653D01*
X184324500Y-123832722D01*
X184324500Y-123182278D01*
X184075586Y-122581347D01*
X183615653Y-122121414D01*
X183014722Y-121872500D01*
X182586200Y-121872500D01*
X182557583Y-121378072D01*
X182419111Y-121043771D01*
X182188516Y-120988090D01*
X181469105Y-121707500D01*
X181483248Y-121721643D01*
X181303643Y-121901248D01*
X181289500Y-121887105D01*
X180570090Y-122606516D01*
X180625771Y-122837111D01*
X181108578Y-123005122D01*
X181128355Y-123003977D01*
X181054500Y-123182278D01*
X181054500Y-123465235D01*
X180747394Y-123158129D01*
X180275102Y-122962500D01*
X179763898Y-122962500D01*
X179291606Y-123158129D01*
X178930129Y-123519606D01*
X178749500Y-123955685D01*
X178568871Y-123519606D01*
X178207394Y-123158129D01*
X177735102Y-122962500D01*
X177223898Y-122962500D01*
X176751606Y-123158129D01*
X176390129Y-123519606D01*
X176209500Y-123955685D01*
X176028871Y-123519606D01*
X175667394Y-123158129D01*
X175650700Y-123151214D01*
X175650700Y-122866912D01*
X175953898Y-122992500D01*
X176465102Y-122992500D01*
X176937394Y-122796871D01*
X177298871Y-122435394D01*
X177479500Y-121999315D01*
X177660129Y-122435394D01*
X178021606Y-122796871D01*
X178493898Y-122992500D01*
X179005102Y-122992500D01*
X179477394Y-122796871D01*
X179838871Y-122435394D01*
X180019272Y-121999866D01*
X180021417Y-122036928D01*
X180159889Y-122371229D01*
X180390484Y-122426910D01*
X181109895Y-121707500D01*
X180390484Y-120988090D01*
X180159889Y-121043771D01*
X180025460Y-121430074D01*
X179838871Y-120979606D01*
X179667749Y-120808484D01*
X180570090Y-120808484D01*
X181289500Y-121527895D01*
X182008910Y-120808484D01*
X181953229Y-120577889D01*
X181470422Y-120409878D01*
X180960072Y-120439417D01*
X180625771Y-120577889D01*
X180570090Y-120808484D01*
X179667749Y-120808484D01*
X179477394Y-120618129D01*
X179005102Y-120422500D01*
X178493898Y-120422500D01*
X178021606Y-120618129D01*
X177660129Y-120979606D01*
X177479500Y-121415685D01*
X177298871Y-120979606D01*
X176937394Y-120618129D01*
X176465102Y-120422500D01*
X175953898Y-120422500D01*
X175650700Y-120548088D01*
X175650700Y-119983220D01*
X182892539Y-119983220D01*
X182962580Y-119997152D01*
X183032621Y-119983220D01*
X183032626Y-119983220D01*
X183240076Y-119941956D01*
X183475326Y-119784766D01*
X183515004Y-119725384D01*
X184569110Y-118671278D01*
X191460000Y-118671278D01*
X191460000Y-119321722D01*
X191708914Y-119922653D01*
X192168847Y-120382586D01*
X192769778Y-120631500D01*
X193420222Y-120631500D01*
X194021153Y-120382586D01*
X194481086Y-119922653D01*
X194730000Y-119321722D01*
X194730000Y-118671278D01*
X194481086Y-118070347D01*
X194021153Y-117610414D01*
X193420222Y-117361500D01*
X192769778Y-117361500D01*
X192168847Y-117610414D01*
X191708914Y-118070347D01*
X191460000Y-118671278D01*
X184569110Y-118671278D01*
X185316872Y-117923517D01*
X185376251Y-117883841D01*
X185415927Y-117824462D01*
X185415929Y-117824460D01*
X185457800Y-117761796D01*
X185971776Y-117247822D01*
X186031156Y-117208145D01*
X186070832Y-117148766D01*
X186070834Y-117148764D01*
X186188345Y-116972897D01*
X186188345Y-116972896D01*
X186188346Y-116972895D01*
X186229610Y-116765445D01*
X186229610Y-116765442D01*
X186243542Y-116695400D01*
X186229610Y-116625358D01*
X186229610Y-111786740D01*
X186335000Y-111786740D01*
X186335000Y-112606260D01*
X186648616Y-113363396D01*
X187228104Y-113942884D01*
X187985240Y-114256500D01*
X188804760Y-114256500D01*
X189561896Y-113942884D01*
X190141384Y-113363396D01*
X190455000Y-112606260D01*
X190455000Y-111786740D01*
X190141384Y-111029604D01*
X189561896Y-110450116D01*
X188804760Y-110136500D01*
X187985240Y-110136500D01*
X187228104Y-110450116D01*
X186648616Y-111029604D01*
X186335000Y-111786740D01*
X186229610Y-111786740D01*
X186229610Y-100571278D01*
X189960000Y-100571278D01*
X189960000Y-101221722D01*
X190208914Y-101822653D01*
X190668847Y-102282586D01*
X191269778Y-102531500D01*
X191920222Y-102531500D01*
X192521153Y-102282586D01*
X192981086Y-101822653D01*
X193230000Y-101221722D01*
X193230000Y-100571278D01*
X192981086Y-99970347D01*
X192521153Y-99510414D01*
X191920222Y-99261500D01*
X191269778Y-99261500D01*
X190668847Y-99510414D01*
X190208914Y-99970347D01*
X189960000Y-100571278D01*
X186229610Y-100571278D01*
X186229610Y-95065178D01*
X188163867Y-93130922D01*
X188223246Y-93091246D01*
X188262922Y-93031867D01*
X188262924Y-93031865D01*
X188380435Y-92855998D01*
X188380435Y-92855997D01*
X188380436Y-92855996D01*
X188421700Y-92648546D01*
X188421700Y-92648543D01*
X188435632Y-92578501D01*
X188421700Y-92508459D01*
X188421700Y-91911726D01*
X188775671Y-92037701D01*
X189325948Y-92009730D01*
X189704423Y-91852960D01*
X189772412Y-91612017D01*
X188980500Y-90820105D01*
X188966358Y-90834248D01*
X188786753Y-90654643D01*
X188800895Y-90640500D01*
X189160105Y-90640500D01*
X189952017Y-91432412D01*
X190192960Y-91364423D01*
X190377701Y-90845329D01*
X190349730Y-90295052D01*
X190192960Y-89916577D01*
X189952017Y-89848588D01*
X189160105Y-90640500D01*
X188800895Y-90640500D01*
X188786753Y-90626358D01*
X188966358Y-90446753D01*
X188980500Y-90460895D01*
X189772412Y-89668983D01*
X189704423Y-89428040D01*
X189185329Y-89243299D01*
X188635052Y-89271270D01*
X188421700Y-89359644D01*
X188421700Y-89305025D01*
X188495040Y-89274647D01*
X188884647Y-88885040D01*
X189095500Y-88375994D01*
X189095500Y-87825006D01*
X188884647Y-87315960D01*
X188495040Y-86926353D01*
X187985994Y-86715500D01*
X187435006Y-86715500D01*
X186925960Y-86926353D01*
X186536353Y-87315960D01*
X186440500Y-87547370D01*
X186344647Y-87315960D01*
X185955040Y-86926353D01*
X185445994Y-86715500D01*
X184895006Y-86715500D01*
X184385960Y-86926353D01*
X183996353Y-87315960D01*
X183900500Y-87547370D01*
X183804647Y-87315960D01*
X183415040Y-86926353D01*
X182905994Y-86715500D01*
X182355006Y-86715500D01*
X181845960Y-86926353D01*
X181456353Y-87315960D01*
X181360500Y-87547370D01*
X181264647Y-87315960D01*
X180875040Y-86926353D01*
X180365994Y-86715500D01*
X179815006Y-86715500D01*
X179508482Y-86842466D01*
X179600500Y-86620314D01*
X179600500Y-85820686D01*
X189480500Y-85820686D01*
X189480500Y-86620314D01*
X189786504Y-87359073D01*
X190351927Y-87924496D01*
X191090686Y-88230500D01*
X191890314Y-88230500D01*
X192629073Y-87924496D01*
X193194496Y-87359073D01*
X193500500Y-86620314D01*
X193500500Y-85820686D01*
X193194496Y-85081927D01*
X192629073Y-84516504D01*
X191890314Y-84210500D01*
X191090686Y-84210500D01*
X190351927Y-84516504D01*
X189786504Y-85081927D01*
X189480500Y-85820686D01*
X179600500Y-85820686D01*
X179294496Y-85081927D01*
X178729073Y-84516504D01*
X177990314Y-84210500D01*
X177190686Y-84210500D01*
X176451927Y-84516504D01*
X175886504Y-85081927D01*
X175580500Y-85820686D01*
X175580500Y-86620314D01*
X175886504Y-87359073D01*
X176451927Y-87924496D01*
X177190686Y-88230500D01*
X177990314Y-88230500D01*
X178705500Y-87934260D01*
X178705500Y-88375994D01*
X178916353Y-88885040D01*
X179305960Y-89274647D01*
X179815006Y-89485500D01*
X180365994Y-89485500D01*
X180875040Y-89274647D01*
X181264647Y-88885040D01*
X181360500Y-88653630D01*
X181456353Y-88885040D01*
X181845960Y-89274647D01*
X181919300Y-89305026D01*
X181919300Y-89372849D01*
X181635994Y-89255500D01*
X181085006Y-89255500D01*
X180575960Y-89466353D01*
X180186353Y-89855960D01*
X179975500Y-90365006D01*
X179975500Y-90915994D01*
X180186353Y-91425040D01*
X180575960Y-91814647D01*
X181085006Y-92025500D01*
X181610000Y-92025500D01*
X181610000Y-92538358D01*
X181596068Y-92608400D01*
X181610000Y-92678441D01*
X181610000Y-92678445D01*
X181651264Y-92885895D01*
X181651265Y-92885896D01*
X181768776Y-93061764D01*
X181768778Y-93061766D01*
X181808454Y-93121145D01*
X181867834Y-93160822D01*
X183362601Y-94655590D01*
X183362600Y-106144754D01*
X183104380Y-105886534D01*
X182319678Y-105561500D01*
X181470322Y-105561500D01*
X180685620Y-105886534D01*
X180085034Y-106487120D01*
X179895000Y-106945903D01*
X179704966Y-106487120D01*
X179104380Y-105886534D01*
X178319678Y-105561500D01*
X177470322Y-105561500D01*
X176685620Y-105886534D01*
X176085034Y-106487120D01*
X175895000Y-106945903D01*
X175704966Y-106487120D01*
X175104380Y-105886534D01*
X174319678Y-105561500D01*
X173470322Y-105561500D01*
X172685620Y-105886534D01*
X172085034Y-106487120D01*
X171895000Y-106945903D01*
X171704966Y-106487120D01*
X171104380Y-105886534D01*
X170319678Y-105561500D01*
X169470322Y-105561500D01*
X168685620Y-105886534D01*
X168085034Y-106487120D01*
X167899180Y-106935812D01*
X167727739Y-106521918D01*
X167408970Y-106362135D01*
X166074605Y-107696500D01*
X167408970Y-109030865D01*
X167727739Y-108871082D01*
X167894457Y-108445785D01*
X168085034Y-108905880D01*
X168685620Y-109506466D01*
X169470322Y-109831500D01*
X170319678Y-109831500D01*
X171104380Y-109506466D01*
X171704966Y-108905880D01*
X171895000Y-108447097D01*
X172085034Y-108905880D01*
X172685620Y-109506466D01*
X173470322Y-109831500D01*
X174319678Y-109831500D01*
X175104380Y-109506466D01*
X175704966Y-108905880D01*
X175895000Y-108447097D01*
X176085034Y-108905880D01*
X176685620Y-109506466D01*
X177470322Y-109831500D01*
X178319678Y-109831500D01*
X179104380Y-109506466D01*
X179704966Y-108905880D01*
X179895000Y-108447097D01*
X180085034Y-108905880D01*
X180685620Y-109506466D01*
X181470322Y-109831500D01*
X182319678Y-109831500D01*
X183104380Y-109506466D01*
X183362600Y-109248246D01*
X183362600Y-114144754D01*
X183104380Y-113886534D01*
X182319678Y-113561500D01*
X181470322Y-113561500D01*
X180685620Y-113886534D01*
X180085034Y-114487120D01*
X179895000Y-114945903D01*
X179704966Y-114487120D01*
X179104380Y-113886534D01*
X178319678Y-113561500D01*
X177470322Y-113561500D01*
X176685620Y-113886534D01*
X176085034Y-114487120D01*
X175895000Y-114945903D01*
X175704966Y-114487120D01*
X175104380Y-113886534D01*
X174319678Y-113561500D01*
X173470322Y-113561500D01*
X172685620Y-113886534D01*
X172085034Y-114487120D01*
X171895000Y-114945903D01*
X171704966Y-114487120D01*
X171104380Y-113886534D01*
X170319678Y-113561500D01*
X169470322Y-113561500D01*
X168685620Y-113886534D01*
X168085034Y-114487120D01*
X167895000Y-114945903D01*
X167704966Y-114487120D01*
X167104380Y-113886534D01*
X166319678Y-113561500D01*
X165470322Y-113561500D01*
X164685620Y-113886534D01*
X164085034Y-114487120D01*
X163895000Y-114945903D01*
X163704966Y-114487120D01*
X163104380Y-113886534D01*
X162319678Y-113561500D01*
X161470322Y-113561500D01*
X160685620Y-113886534D01*
X160085034Y-114487120D01*
X159895000Y-114945903D01*
X159704966Y-114487120D01*
X159104380Y-113886534D01*
X158319678Y-113561500D01*
X157470322Y-113561500D01*
X156685620Y-113886534D01*
X156085034Y-114487120D01*
X155895000Y-114945903D01*
X155704966Y-114487120D01*
X155104380Y-113886534D01*
X154319678Y-113561500D01*
X153470322Y-113561500D01*
X152685620Y-113886534D01*
X152085034Y-114487120D01*
X151760000Y-115271822D01*
X108440626Y-115271822D01*
X111495271Y-108637043D01*
X112318800Y-108637043D01*
X112318800Y-109091757D01*
X112492811Y-109511858D01*
X112814342Y-109833389D01*
X113062392Y-109936134D01*
X112738852Y-110259674D01*
X112458500Y-110936503D01*
X112458500Y-111669097D01*
X112738852Y-112345926D01*
X113256874Y-112863948D01*
X113933703Y-113144300D01*
X114666297Y-113144300D01*
X115062000Y-112980394D01*
X115062000Y-113079281D01*
X115274680Y-113592737D01*
X115667663Y-113985720D01*
X116181119Y-114198400D01*
X116736881Y-114198400D01*
X117250337Y-113985720D01*
X117643320Y-113592737D01*
X117856000Y-113079281D01*
X117856000Y-112980394D01*
X118251703Y-113144300D01*
X118984297Y-113144300D01*
X119661126Y-112863948D01*
X120179148Y-112345926D01*
X120410770Y-111786740D01*
X145335000Y-111786740D01*
X145335000Y-112606260D01*
X145648616Y-113363396D01*
X146228104Y-113942884D01*
X146985240Y-114256500D01*
X147804760Y-114256500D01*
X148561896Y-113942884D01*
X149141384Y-113363396D01*
X149455000Y-112606260D01*
X149455000Y-111786740D01*
X149241714Y-111271822D01*
X153760000Y-111271822D01*
X153760000Y-112121178D01*
X154085034Y-112905880D01*
X154685620Y-113506466D01*
X155470322Y-113831500D01*
X156319678Y-113831500D01*
X157104380Y-113506466D01*
X157704966Y-112905880D01*
X157895000Y-112447097D01*
X158085034Y-112905880D01*
X158685620Y-113506466D01*
X159470322Y-113831500D01*
X160319678Y-113831500D01*
X161104380Y-113506466D01*
X161400376Y-113210470D01*
X162560635Y-113210470D01*
X162720418Y-113529239D01*
X163511187Y-113839223D01*
X164360387Y-113822997D01*
X165069582Y-113529239D01*
X165229365Y-113210470D01*
X163895000Y-111876105D01*
X162560635Y-113210470D01*
X161400376Y-113210470D01*
X161704966Y-112905880D01*
X161890820Y-112457188D01*
X162062261Y-112871082D01*
X162381030Y-113030865D01*
X163715395Y-111696500D01*
X164074605Y-111696500D01*
X165408970Y-113030865D01*
X165727739Y-112871082D01*
X165894457Y-112445785D01*
X166085034Y-112905880D01*
X166685620Y-113506466D01*
X167470322Y-113831500D01*
X168319678Y-113831500D01*
X169104380Y-113506466D01*
X169704966Y-112905880D01*
X169895000Y-112447097D01*
X170085034Y-112905880D01*
X170685620Y-113506466D01*
X171470322Y-113831500D01*
X172319678Y-113831500D01*
X173104380Y-113506466D01*
X173704966Y-112905880D01*
X173895000Y-112447097D01*
X174085034Y-112905880D01*
X174685620Y-113506466D01*
X175470322Y-113831500D01*
X176319678Y-113831500D01*
X177104380Y-113506466D01*
X177704966Y-112905880D01*
X177895000Y-112447097D01*
X178085034Y-112905880D01*
X178685620Y-113506466D01*
X179470322Y-113831500D01*
X180319678Y-113831500D01*
X181104380Y-113506466D01*
X181704966Y-112905880D01*
X182030000Y-112121178D01*
X182030000Y-111271822D01*
X181704966Y-110487120D01*
X181104380Y-109886534D01*
X180319678Y-109561500D01*
X179470322Y-109561500D01*
X178685620Y-109886534D01*
X178085034Y-110487120D01*
X177895000Y-110945903D01*
X177704966Y-110487120D01*
X177104380Y-109886534D01*
X176319678Y-109561500D01*
X175470322Y-109561500D01*
X174685620Y-109886534D01*
X174085034Y-110487120D01*
X173895000Y-110945903D01*
X173704966Y-110487120D01*
X173104380Y-109886534D01*
X172319678Y-109561500D01*
X171470322Y-109561500D01*
X170685620Y-109886534D01*
X170085034Y-110487120D01*
X169895000Y-110945903D01*
X169704966Y-110487120D01*
X169104380Y-109886534D01*
X168319678Y-109561500D01*
X167470322Y-109561500D01*
X166685620Y-109886534D01*
X166085034Y-110487120D01*
X165899180Y-110935812D01*
X165727739Y-110521918D01*
X165408970Y-110362135D01*
X164074605Y-111696500D01*
X163715395Y-111696500D01*
X162381030Y-110362135D01*
X162062261Y-110521918D01*
X161895543Y-110947215D01*
X161704966Y-110487120D01*
X161400376Y-110182530D01*
X162560635Y-110182530D01*
X163895000Y-111516895D01*
X165229365Y-110182530D01*
X165069582Y-109863761D01*
X164278813Y-109553777D01*
X163429613Y-109570003D01*
X162720418Y-109863761D01*
X162560635Y-110182530D01*
X161400376Y-110182530D01*
X161104380Y-109886534D01*
X160319678Y-109561500D01*
X159470322Y-109561500D01*
X158685620Y-109886534D01*
X158085034Y-110487120D01*
X157895000Y-110945903D01*
X157704966Y-110487120D01*
X157104380Y-109886534D01*
X156319678Y-109561500D01*
X155470322Y-109561500D01*
X154685620Y-109886534D01*
X154085034Y-110487120D01*
X153760000Y-111271822D01*
X149241714Y-111271822D01*
X149141384Y-111029604D01*
X148561896Y-110450116D01*
X147804760Y-110136500D01*
X146985240Y-110136500D01*
X146228104Y-110450116D01*
X145648616Y-111029604D01*
X145335000Y-111786740D01*
X120410770Y-111786740D01*
X120459500Y-111669097D01*
X120459500Y-110936503D01*
X120179148Y-110259674D01*
X119855608Y-109936134D01*
X120103658Y-109833389D01*
X120425189Y-109511858D01*
X120599200Y-109091757D01*
X120599200Y-108887126D01*
X133966000Y-108887126D01*
X133966000Y-109298874D01*
X134123569Y-109679280D01*
X134414720Y-109970431D01*
X134795126Y-110128000D01*
X135206874Y-110128000D01*
X135587280Y-109970431D01*
X135753511Y-109804200D01*
X136610689Y-109804200D01*
X136776920Y-109970431D01*
X137157326Y-110128000D01*
X137569074Y-110128000D01*
X137949480Y-109970431D01*
X138240631Y-109679280D01*
X138398200Y-109298874D01*
X138398200Y-108887126D01*
X138240631Y-108506720D01*
X137949480Y-108215569D01*
X137569074Y-108058000D01*
X137157326Y-108058000D01*
X136776920Y-108215569D01*
X136610689Y-108381800D01*
X135753511Y-108381800D01*
X135587280Y-108215569D01*
X135206874Y-108058000D01*
X134795126Y-108058000D01*
X134414720Y-108215569D01*
X134123569Y-108506720D01*
X133966000Y-108887126D01*
X120599200Y-108887126D01*
X120599200Y-108637043D01*
X120425189Y-108216942D01*
X120103658Y-107895411D01*
X119683557Y-107721400D01*
X119228843Y-107721400D01*
X118808742Y-107895411D01*
X118487211Y-108216942D01*
X118313200Y-108637043D01*
X118313200Y-109091757D01*
X118466269Y-109461300D01*
X118251703Y-109461300D01*
X117856000Y-109625206D01*
X117856000Y-109526319D01*
X117643320Y-109012863D01*
X117250337Y-108619880D01*
X116736881Y-108407200D01*
X116181119Y-108407200D01*
X115667663Y-108619880D01*
X115274680Y-109012863D01*
X115062000Y-109526319D01*
X115062000Y-109625206D01*
X114666297Y-109461300D01*
X114451731Y-109461300D01*
X114604800Y-109091757D01*
X114604800Y-108637043D01*
X114430789Y-108216942D01*
X114109258Y-107895411D01*
X113689157Y-107721400D01*
X113234443Y-107721400D01*
X112814342Y-107895411D01*
X112492811Y-108216942D01*
X112318800Y-108637043D01*
X111495271Y-108637043D01*
X112760040Y-105889926D01*
X135109000Y-105889926D01*
X135109000Y-106301674D01*
X135266569Y-106682080D01*
X135557720Y-106973231D01*
X135938126Y-107130800D01*
X136349874Y-107130800D01*
X136730280Y-106973231D01*
X137021431Y-106682080D01*
X137179000Y-106301674D01*
X137179000Y-105889926D01*
X137036930Y-105546936D01*
X146132600Y-105546936D01*
X146132600Y-105958684D01*
X146290169Y-106339090D01*
X146581320Y-106630241D01*
X146961726Y-106787810D01*
X147373474Y-106787810D01*
X147753880Y-106630241D01*
X147777200Y-106606921D01*
X147800520Y-106630241D01*
X148180926Y-106787810D01*
X148592674Y-106787810D01*
X148971000Y-106631103D01*
X149104500Y-106686400D01*
X148993726Y-106686400D01*
X148613320Y-106843969D01*
X148322169Y-107135120D01*
X148164600Y-107515526D01*
X148164600Y-107927274D01*
X148322169Y-108307680D01*
X148613320Y-108598831D01*
X148993726Y-108756400D01*
X149405474Y-108756400D01*
X149785880Y-108598831D01*
X150077031Y-108307680D01*
X150234600Y-107927274D01*
X150234600Y-107692188D01*
X150654966Y-107271822D01*
X151760000Y-107271822D01*
X151760000Y-108121178D01*
X152085034Y-108905880D01*
X152685620Y-109506466D01*
X153470322Y-109831500D01*
X154319678Y-109831500D01*
X155104380Y-109506466D01*
X155400376Y-109210470D01*
X156560635Y-109210470D01*
X156720418Y-109529239D01*
X157511187Y-109839223D01*
X158360387Y-109822997D01*
X159069582Y-109529239D01*
X159229365Y-109210470D01*
X157895000Y-107876105D01*
X156560635Y-109210470D01*
X155400376Y-109210470D01*
X155704966Y-108905880D01*
X155890820Y-108457188D01*
X156062261Y-108871082D01*
X156381030Y-109030865D01*
X157715395Y-107696500D01*
X158074605Y-107696500D01*
X159408970Y-109030865D01*
X159727739Y-108871082D01*
X159894457Y-108445785D01*
X160085034Y-108905880D01*
X160685620Y-109506466D01*
X161470322Y-109831500D01*
X162319678Y-109831500D01*
X163104380Y-109506466D01*
X163400376Y-109210470D01*
X164560635Y-109210470D01*
X164720418Y-109529239D01*
X165511187Y-109839223D01*
X166360387Y-109822997D01*
X167069582Y-109529239D01*
X167229365Y-109210470D01*
X165895000Y-107876105D01*
X164560635Y-109210470D01*
X163400376Y-109210470D01*
X163704966Y-108905880D01*
X163890820Y-108457188D01*
X164062261Y-108871082D01*
X164381030Y-109030865D01*
X165715395Y-107696500D01*
X164381030Y-106362135D01*
X164062261Y-106521918D01*
X163895543Y-106947215D01*
X163704966Y-106487120D01*
X163400376Y-106182530D01*
X164560635Y-106182530D01*
X165895000Y-107516895D01*
X167229365Y-106182530D01*
X167069582Y-105863761D01*
X166278813Y-105553777D01*
X165429613Y-105570003D01*
X164720418Y-105863761D01*
X164560635Y-106182530D01*
X163400376Y-106182530D01*
X163104380Y-105886534D01*
X162319678Y-105561500D01*
X161470322Y-105561500D01*
X160685620Y-105886534D01*
X160085034Y-106487120D01*
X159899180Y-106935812D01*
X159727739Y-106521918D01*
X159408970Y-106362135D01*
X158074605Y-107696500D01*
X157715395Y-107696500D01*
X156381030Y-106362135D01*
X156062261Y-106521918D01*
X155895543Y-106947215D01*
X155704966Y-106487120D01*
X155400376Y-106182530D01*
X156560635Y-106182530D01*
X157895000Y-107516895D01*
X159229365Y-106182530D01*
X159069582Y-105863761D01*
X158278813Y-105553777D01*
X157429613Y-105570003D01*
X156720418Y-105863761D01*
X156560635Y-106182530D01*
X155400376Y-106182530D01*
X155104380Y-105886534D01*
X154319678Y-105561500D01*
X153470322Y-105561500D01*
X152685620Y-105886534D01*
X152085034Y-106487120D01*
X151760000Y-107271822D01*
X150654966Y-107271822D01*
X150684768Y-107242021D01*
X150744147Y-107202345D01*
X150783823Y-107142966D01*
X150783825Y-107142964D01*
X150901336Y-106967096D01*
X150901337Y-106967095D01*
X150942601Y-106759645D01*
X150942601Y-106759641D01*
X150956533Y-106689599D01*
X150942601Y-106619557D01*
X150942601Y-105498274D01*
X150956533Y-105428233D01*
X150942601Y-105358191D01*
X150942601Y-105358187D01*
X150901337Y-105150737D01*
X150861092Y-105090507D01*
X150783825Y-104974868D01*
X150783821Y-104974864D01*
X150744146Y-104915487D01*
X150684770Y-104875813D01*
X149885400Y-104076444D01*
X149885400Y-102844600D01*
X150475759Y-102844600D01*
X150545800Y-102858532D01*
X150615841Y-102844600D01*
X150615846Y-102844600D01*
X150823296Y-102803336D01*
X151058546Y-102646146D01*
X151098224Y-102586764D01*
X151278588Y-102406400D01*
X151513674Y-102406400D01*
X151894080Y-102248831D01*
X152185231Y-101957680D01*
X152342800Y-101577274D01*
X152342800Y-101165526D01*
X152185231Y-100785120D01*
X151894080Y-100493969D01*
X151513674Y-100336400D01*
X151101926Y-100336400D01*
X150721520Y-100493969D01*
X150444200Y-100771289D01*
X150217680Y-100544769D01*
X149837274Y-100387200D01*
X149425526Y-100387200D01*
X149047200Y-100543907D01*
X148668874Y-100387200D01*
X148507400Y-100387200D01*
X148507400Y-100352726D01*
X148349831Y-99972320D01*
X148058680Y-99681169D01*
X147678274Y-99523600D01*
X147266526Y-99523600D01*
X146886120Y-99681169D01*
X146594969Y-99972320D01*
X146437400Y-100352726D01*
X146437400Y-100764474D01*
X146594969Y-101144880D01*
X146761201Y-101311112D01*
X146761201Y-101377554D01*
X146747268Y-101447600D01*
X146802465Y-101725096D01*
X146919976Y-101900964D01*
X146919979Y-101900967D01*
X146959655Y-101960346D01*
X147019034Y-102000022D01*
X147396200Y-102377189D01*
X147396201Y-104518420D01*
X147196811Y-104717810D01*
X146961726Y-104717810D01*
X146581320Y-104875379D01*
X146290169Y-105166530D01*
X146132600Y-105546936D01*
X137036930Y-105546936D01*
X137021431Y-105509520D01*
X136906000Y-105394089D01*
X136906000Y-103749511D01*
X137072231Y-103583280D01*
X137229800Y-103202874D01*
X137229800Y-102791126D01*
X137072231Y-102410720D01*
X136781080Y-102119569D01*
X136400674Y-101962000D01*
X135988926Y-101962000D01*
X135608520Y-102119569D01*
X135317369Y-102410720D01*
X135159800Y-102791126D01*
X135159800Y-103202874D01*
X135317369Y-103583280D01*
X135483600Y-103749511D01*
X135483601Y-105292488D01*
X135266569Y-105509520D01*
X135109000Y-105889926D01*
X112760040Y-105889926D01*
X115208739Y-100571278D01*
X142560000Y-100571278D01*
X142560000Y-101221722D01*
X142808914Y-101822653D01*
X143268847Y-102282586D01*
X143869778Y-102531500D01*
X144520222Y-102531500D01*
X145121153Y-102282586D01*
X145581086Y-101822653D01*
X145830000Y-101221722D01*
X145830000Y-100571278D01*
X145581086Y-99970347D01*
X145121153Y-99510414D01*
X144520222Y-99261500D01*
X143869778Y-99261500D01*
X143268847Y-99510414D01*
X142808914Y-99970347D01*
X142560000Y-100571278D01*
X115208739Y-100571278D01*
X119150374Y-92009930D01*
X119413483Y-91587577D01*
X119739648Y-91276119D01*
X120133023Y-91055560D01*
X120581612Y-90936378D01*
X120933486Y-90921000D01*
X121278422Y-90930713D01*
X121308309Y-90929676D01*
X121338188Y-90929964D01*
X122596360Y-90862976D01*
X122688041Y-90852291D01*
X123927895Y-90628140D01*
X123927898Y-90628140D01*
X124017517Y-90606048D01*
X125219502Y-90228269D01*
X125264292Y-90211033D01*
X125305645Y-90195120D01*
X126450804Y-89669672D01*
X126504849Y-89640635D01*
X126532115Y-89625986D01*
X127602388Y-88961154D01*
X127633657Y-88938892D01*
X127677581Y-88907623D01*
X128656089Y-88113893D01*
X128688640Y-88083911D01*
X128723980Y-88051360D01*
X129595292Y-87141250D01*
X129625585Y-87105342D01*
X129654811Y-87070700D01*
X130405185Y-86058561D01*
X130455391Y-85981108D01*
X131072993Y-84882904D01*
X131113097Y-84799769D01*
X131579480Y-83654207D01*
X131805731Y-83185189D01*
X132096539Y-82840482D01*
X132463933Y-82578929D01*
X132902508Y-82410156D01*
X133176786Y-82363947D01*
X135401318Y-82158417D01*
X135118129Y-82441606D01*
X134922500Y-82913898D01*
X134922500Y-83425102D01*
X135118129Y-83897394D01*
X135479606Y-84258871D01*
X135951898Y-84454500D01*
X136463102Y-84454500D01*
X136935394Y-84258871D01*
X137296871Y-83897394D01*
X137477500Y-83461315D01*
X137658129Y-83897394D01*
X138019606Y-84258871D01*
X138491898Y-84454500D01*
X138512500Y-84454500D01*
X138512500Y-84927235D01*
X138205394Y-84620129D01*
X137733102Y-84424500D01*
X137221898Y-84424500D01*
X136749606Y-84620129D01*
X136388129Y-84981606D01*
X136207500Y-85417685D01*
X136026871Y-84981606D01*
X135665394Y-84620129D01*
X135193102Y-84424500D01*
X134681898Y-84424500D01*
X134209606Y-84620129D01*
X133848129Y-84981606D01*
X133652500Y-85453898D01*
X133652500Y-85965102D01*
X133848129Y-86437394D01*
X134209606Y-86798871D01*
X134681898Y-86994500D01*
X135193102Y-86994500D01*
X135665394Y-86798871D01*
X136026871Y-86437394D01*
X136207500Y-86001315D01*
X136388129Y-86437394D01*
X136749606Y-86798871D01*
X137221898Y-86994500D01*
X137733102Y-86994500D01*
X138205394Y-86798871D01*
X138566871Y-86437394D01*
X138762500Y-85965102D01*
X138762500Y-85596739D01*
X139221347Y-86055586D01*
X139822278Y-86304500D01*
X140472722Y-86304500D01*
X141073653Y-86055586D01*
X141533586Y-85595653D01*
X141782500Y-84994722D01*
X141782500Y-84344278D01*
X141533586Y-83743347D01*
X141073653Y-83283414D01*
X140472722Y-83034500D01*
X140032500Y-83034500D01*
X140032500Y-82913898D01*
X139836871Y-82441606D01*
X139475394Y-82080129D01*
X139003102Y-81884500D01*
X138491898Y-81884500D01*
X138019606Y-82080129D01*
X137658129Y-82441606D01*
X137477500Y-82877685D01*
X137296871Y-82441606D01*
X136935394Y-82080129D01*
X136810150Y-82028251D01*
X145828687Y-81195006D01*
X176605500Y-81195006D01*
X176605500Y-81745994D01*
X176816353Y-82255040D01*
X177205960Y-82644647D01*
X177715006Y-82855500D01*
X178265994Y-82855500D01*
X178775040Y-82644647D01*
X179164647Y-82255040D01*
X179260500Y-82023630D01*
X179356353Y-82255040D01*
X179745960Y-82644647D01*
X180255006Y-82855500D01*
X180805994Y-82855500D01*
X181315040Y-82644647D01*
X181704647Y-82255040D01*
X181915500Y-81745994D01*
X181915500Y-81195006D01*
X187165500Y-81195006D01*
X187165500Y-81745994D01*
X187376353Y-82255040D01*
X187765960Y-82644647D01*
X188275006Y-82855500D01*
X188825994Y-82855500D01*
X189335040Y-82644647D01*
X189724647Y-82255040D01*
X189820500Y-82023630D01*
X189916353Y-82255040D01*
X190305960Y-82644647D01*
X190815006Y-82855500D01*
X191365994Y-82855500D01*
X191875040Y-82644647D01*
X192264647Y-82255040D01*
X192475500Y-81745994D01*
X192475500Y-81195006D01*
X192264647Y-80685960D01*
X191875040Y-80296353D01*
X191365994Y-80085500D01*
X190815006Y-80085500D01*
X190305960Y-80296353D01*
X189916353Y-80685960D01*
X189820500Y-80917370D01*
X189724647Y-80685960D01*
X189335040Y-80296353D01*
X188825994Y-80085500D01*
X188275006Y-80085500D01*
X187765960Y-80296353D01*
X187376353Y-80685960D01*
X187165500Y-81195006D01*
X181915500Y-81195006D01*
X181704647Y-80685960D01*
X181315040Y-80296353D01*
X180805994Y-80085500D01*
X180255006Y-80085500D01*
X179745960Y-80296353D01*
X179356353Y-80685960D01*
X179260500Y-80917370D01*
X179164647Y-80685960D01*
X178775040Y-80296353D01*
X178265994Y-80085500D01*
X177715006Y-80085500D01*
X177205960Y-80296353D01*
X176816353Y-80685960D01*
X176605500Y-81195006D01*
X145828687Y-81195006D01*
X193926135Y-76751164D01*
X194423451Y-76767846D01*
X194423451Y-76767846D01*
G37*
X194423451Y-76767846D02*
X194856260Y-76894583D01*
X195243962Y-77124978D01*
X195575547Y-77457971D01*
X195732611Y-77696223D01*
X195921646Y-78020504D01*
X195938535Y-78045695D01*
X195954329Y-78071602D01*
X196676451Y-79104087D01*
X196733997Y-79176255D01*
X197579829Y-80110093D01*
X197599635Y-80129374D01*
X197645967Y-80174479D01*
X198602171Y-80994941D01*
X198675857Y-81050530D01*
X199708075Y-81731954D01*
X200123786Y-82045568D01*
X200404960Y-82398180D01*
X200589609Y-82809636D01*
X200669344Y-83272748D01*
X200661018Y-83550735D01*
X196837162Y-119932301D01*
X196723535Y-120416751D01*
X196514592Y-120816422D01*
X196212825Y-121151568D01*
X195821411Y-121411623D01*
X195555997Y-121519480D01*
X195144145Y-121662343D01*
X195115154Y-121674489D01*
X195085717Y-121685454D01*
X193934966Y-122198528D01*
X193934960Y-122198530D01*
X193853184Y-122241336D01*
X192775809Y-122894595D01*
X192722742Y-122931520D01*
X192700044Y-122947313D01*
X191713038Y-123730451D01*
X191644477Y-123792249D01*
X190763407Y-124692918D01*
X190717809Y-124745800D01*
X190703133Y-124762821D01*
X189941894Y-125766813D01*
X189907060Y-125819304D01*
X189890856Y-125843721D01*
X189273000Y-126915184D01*
X188985047Y-127349085D01*
X188650056Y-127651032D01*
X188250498Y-127860184D01*
X187791828Y-127968019D01*
X187545136Y-127976367D01*
X108274850Y-128675199D01*
X107762512Y-128639039D01*
X107334670Y-128496408D01*
X106955742Y-128251859D01*
X106635864Y-127905972D01*
X106497585Y-127679993D01*
X106493755Y-127672628D01*
X106481500Y-127652296D01*
X106470520Y-127631272D01*
X105818267Y-126553286D01*
X105765620Y-126477471D01*
X104997739Y-125507840D01*
X104700721Y-125080116D01*
X104543690Y-124657348D01*
X104496730Y-124208808D01*
X104565316Y-123745649D01*
X104668110Y-123465843D01*
X106922327Y-118569615D01*
X119141500Y-118569615D01*
X119141500Y-119160385D01*
X119367578Y-119706185D01*
X119776393Y-120115000D01*
X119367578Y-120523815D01*
X119141500Y-121069615D01*
X119141500Y-121660385D01*
X119367578Y-122206185D01*
X119776393Y-122615000D01*
X119367578Y-123023815D01*
X119141500Y-123569615D01*
X119141500Y-124160385D01*
X119367578Y-124706185D01*
X119776393Y-125115000D01*
X119367578Y-125523815D01*
X119141500Y-126069615D01*
X119141500Y-126660385D01*
X119367578Y-127206185D01*
X119785315Y-127623922D01*
X120331115Y-127850000D01*
X120921885Y-127850000D01*
X121467685Y-127623922D01*
X121673366Y-127418241D01*
X121738173Y-127574699D01*
X121916802Y-127753327D01*
X122150191Y-127850000D01*
X122840750Y-127850000D01*
X122999500Y-127691250D01*
X122999500Y-126492000D01*
X123253500Y-126492000D01*
X123253500Y-127691250D01*
X123412250Y-127850000D01*
X124102809Y-127850000D01*
X124336198Y-127753327D01*
X124514827Y-127574699D01*
X124611500Y-127341310D01*
X124611500Y-126650750D01*
X124452750Y-126492000D01*
X123253500Y-126492000D01*
X122999500Y-126492000D01*
X122979500Y-126492000D01*
X122979500Y-126238000D01*
X122999500Y-126238000D01*
X122999500Y-126218000D01*
X123253500Y-126218000D01*
X123253500Y-126238000D01*
X124452750Y-126238000D01*
X124611500Y-126079250D01*
X124611500Y-125388690D01*
X124514827Y-125155301D01*
X124511796Y-125152270D01*
X127504169Y-122159898D01*
X127563545Y-122120224D01*
X127603220Y-122060847D01*
X127603224Y-122060843D01*
X127710261Y-121900651D01*
X127720736Y-121884974D01*
X127762000Y-121677524D01*
X127762000Y-121677520D01*
X127775932Y-121607478D01*
X127762000Y-121537436D01*
X127762000Y-121453311D01*
X127928231Y-121287080D01*
X128085800Y-120906674D01*
X128085800Y-120494926D01*
X127928231Y-120114520D01*
X127637080Y-119823369D01*
X127256674Y-119665800D01*
X126844926Y-119665800D01*
X126464520Y-119823369D01*
X126173369Y-120114520D01*
X126151713Y-120166802D01*
X125986080Y-120001169D01*
X125605674Y-119843600D01*
X125193926Y-119843600D01*
X124918845Y-119957542D01*
X124746738Y-119785435D01*
X124707060Y-119726053D01*
X124471810Y-119568863D01*
X124444549Y-119563440D01*
X124611500Y-119160385D01*
X124611500Y-118671278D01*
X141060000Y-118671278D01*
X141060000Y-119321722D01*
X141308914Y-119922653D01*
X141768847Y-120382586D01*
X142369778Y-120631500D01*
X143020222Y-120631500D01*
X143621153Y-120382586D01*
X144081086Y-119922653D01*
X144222799Y-119580526D01*
X148647200Y-119580526D01*
X148647200Y-119992274D01*
X148804769Y-120372680D01*
X149095920Y-120663831D01*
X149476326Y-120821400D01*
X149682201Y-120821400D01*
X149682201Y-120989688D01*
X149515969Y-121155920D01*
X149358400Y-121536326D01*
X149358400Y-121948074D01*
X149515969Y-122328480D01*
X149807120Y-122619631D01*
X150187526Y-122777200D01*
X150599274Y-122777200D01*
X150979680Y-122619631D01*
X151270831Y-122328480D01*
X151428400Y-121948074D01*
X151428400Y-121536326D01*
X151270831Y-121155920D01*
X151104600Y-120989689D01*
X151104600Y-119377031D01*
X151118532Y-119306989D01*
X151104600Y-119236948D01*
X151104600Y-119236944D01*
X151063336Y-119029494D01*
X151050610Y-119010448D01*
X151050610Y-118814178D01*
X151176988Y-118687800D01*
X151412074Y-118687800D01*
X151792480Y-118530231D01*
X152083631Y-118239080D01*
X152241200Y-117858674D01*
X152241200Y-117446926D01*
X152083631Y-117066520D01*
X151792480Y-116775369D01*
X151412074Y-116617800D01*
X151022000Y-116617800D01*
X151022000Y-116557926D01*
X150864431Y-116177520D01*
X150573280Y-115886369D01*
X150192874Y-115728800D01*
X149781126Y-115728800D01*
X149400720Y-115886369D01*
X149109569Y-116177520D01*
X148952000Y-116557926D01*
X148952000Y-116969674D01*
X149109569Y-117350080D01*
X149275800Y-117516311D01*
X149275801Y-118834460D01*
X149095920Y-118908969D01*
X148804769Y-119200120D01*
X148647200Y-119580526D01*
X144222799Y-119580526D01*
X144330000Y-119321722D01*
X144330000Y-118671278D01*
X144081086Y-118070347D01*
X143621153Y-117610414D01*
X143020222Y-117361500D01*
X142369778Y-117361500D01*
X141768847Y-117610414D01*
X141308914Y-118070347D01*
X141060000Y-118671278D01*
X124611500Y-118671278D01*
X124611500Y-118569615D01*
X124385422Y-118023815D01*
X123967685Y-117606078D01*
X123421885Y-117380000D01*
X122831115Y-117380000D01*
X122285315Y-117606078D01*
X121876500Y-118014893D01*
X121467685Y-117606078D01*
X120921885Y-117380000D01*
X120331115Y-117380000D01*
X119785315Y-117606078D01*
X119367578Y-118023815D01*
X119141500Y-118569615D01*
X106922327Y-118569615D01*
X108440626Y-115271822D01*
X151760000Y-115271822D01*
X151760000Y-116121178D01*
X152085034Y-116905880D01*
X152685620Y-117506466D01*
X153470322Y-117831500D01*
X154262789Y-117831500D01*
X154113369Y-117980920D01*
X153955800Y-118361326D01*
X153955800Y-118773074D01*
X154113369Y-119153480D01*
X154312798Y-119352909D01*
X154260600Y-119478926D01*
X154260600Y-119890674D01*
X154418169Y-120271080D01*
X154709320Y-120562231D01*
X155089726Y-120719800D01*
X155501474Y-120719800D01*
X155881880Y-120562231D01*
X156173031Y-120271080D01*
X156330600Y-119890674D01*
X156330600Y-119655589D01*
X156631589Y-119354600D01*
X158781559Y-119354600D01*
X158851600Y-119368532D01*
X158921641Y-119354600D01*
X158921646Y-119354600D01*
X158937683Y-119351410D01*
X161032844Y-119351410D01*
X161260800Y-119579366D01*
X161300476Y-119638746D01*
X161359855Y-119678422D01*
X161359857Y-119678424D01*
X161430138Y-119725384D01*
X161535726Y-119795936D01*
X161743176Y-119837200D01*
X161743180Y-119837200D01*
X161813222Y-119851132D01*
X161883264Y-119837200D01*
X162112289Y-119837200D01*
X162176920Y-119901831D01*
X162557326Y-120059400D01*
X162969074Y-120059400D01*
X163349480Y-119901831D01*
X163640631Y-119610680D01*
X163798200Y-119230274D01*
X163798200Y-119162960D01*
X164149138Y-119017597D01*
X164440289Y-118726446D01*
X164597858Y-118346040D01*
X164597858Y-117934292D01*
X164440289Y-117553886D01*
X164149138Y-117262735D01*
X163768732Y-117105166D01*
X163505680Y-117105166D01*
X163704966Y-116905880D01*
X163895000Y-116447097D01*
X164085034Y-116905880D01*
X164685620Y-117506466D01*
X165470322Y-117831500D01*
X166319678Y-117831500D01*
X167104380Y-117506466D01*
X167704966Y-116905880D01*
X167895000Y-116447097D01*
X168085034Y-116905880D01*
X168685620Y-117506466D01*
X169470322Y-117831500D01*
X170319678Y-117831500D01*
X171104380Y-117506466D01*
X171704966Y-116905880D01*
X171895000Y-116447097D01*
X172085034Y-116905880D01*
X172685620Y-117506466D01*
X172875370Y-117585063D01*
X169579849Y-120880584D01*
X169317394Y-120618129D01*
X168845102Y-120422500D01*
X168333898Y-120422500D01*
X167861606Y-120618129D01*
X167500129Y-120979606D01*
X167319500Y-121415685D01*
X167138871Y-120979606D01*
X166777394Y-120618129D01*
X166305102Y-120422500D01*
X165793898Y-120422500D01*
X165321606Y-120618129D01*
X164960129Y-120979606D01*
X164779500Y-121415685D01*
X164598871Y-120979606D01*
X164237394Y-120618129D01*
X163765102Y-120422500D01*
X163253898Y-120422500D01*
X162781606Y-120618129D01*
X162420129Y-120979606D01*
X162239500Y-121415685D01*
X162058871Y-120979606D01*
X161697394Y-120618129D01*
X161225102Y-120422500D01*
X160713898Y-120422500D01*
X160241606Y-120618129D01*
X159880129Y-120979606D01*
X159699500Y-121415685D01*
X159518871Y-120979606D01*
X159157394Y-120618129D01*
X158685102Y-120422500D01*
X158173898Y-120422500D01*
X157701606Y-120618129D01*
X157340129Y-120979606D01*
X157144500Y-121451898D01*
X157144500Y-121963102D01*
X157340129Y-122435394D01*
X157701606Y-122796871D01*
X158173898Y-122992500D01*
X158685102Y-122992500D01*
X159157394Y-122796871D01*
X159518871Y-122435394D01*
X159699500Y-121999315D01*
X159880129Y-122435394D01*
X160241606Y-122796871D01*
X160713898Y-122992500D01*
X161225102Y-122992500D01*
X161697394Y-122796871D01*
X162058871Y-122435394D01*
X162239500Y-121999315D01*
X162420129Y-122435394D01*
X162781606Y-122796871D01*
X163253898Y-122992500D01*
X163765102Y-122992500D01*
X164237394Y-122796871D01*
X164598871Y-122435394D01*
X164779500Y-121999315D01*
X164960129Y-122435394D01*
X165321606Y-122796871D01*
X165793898Y-122992500D01*
X166305102Y-122992500D01*
X166777394Y-122796871D01*
X167138871Y-122435394D01*
X167319500Y-121999315D01*
X167500129Y-122435394D01*
X167861606Y-122796871D01*
X168333898Y-122992500D01*
X168845102Y-122992500D01*
X169148301Y-122866912D01*
X169148300Y-123151214D01*
X169131606Y-123158129D01*
X168770129Y-123519606D01*
X168589500Y-123955685D01*
X168408871Y-123519606D01*
X168047394Y-123158129D01*
X167575102Y-122962500D01*
X167063898Y-122962500D01*
X166591606Y-123158129D01*
X166230129Y-123519606D01*
X166049500Y-123955685D01*
X165868871Y-123519606D01*
X165507394Y-123158129D01*
X165035102Y-122962500D01*
X164523898Y-122962500D01*
X164051606Y-123158129D01*
X163690129Y-123519606D01*
X163509500Y-123955685D01*
X163328871Y-123519606D01*
X162967394Y-123158129D01*
X162495102Y-122962500D01*
X161983898Y-122962500D01*
X161511606Y-123158129D01*
X161150129Y-123519606D01*
X160969500Y-123955685D01*
X160788871Y-123519606D01*
X160427394Y-123158129D01*
X159955102Y-122962500D01*
X159443898Y-122962500D01*
X158971606Y-123158129D01*
X158610129Y-123519606D01*
X158429500Y-123955685D01*
X158248871Y-123519606D01*
X157887394Y-123158129D01*
X157415102Y-122962500D01*
X156903898Y-122962500D01*
X156431606Y-123158129D01*
X156070129Y-123519606D01*
X155874500Y-123991898D01*
X155874500Y-124503102D01*
X156070129Y-124975394D01*
X156306212Y-125211477D01*
X156196169Y-125321520D01*
X156038600Y-125701926D01*
X156038600Y-126113674D01*
X156196169Y-126494080D01*
X156487320Y-126785231D01*
X156867726Y-126942800D01*
X157092049Y-126942800D01*
X157110055Y-126969747D01*
X157345305Y-127126937D01*
X157552755Y-127168201D01*
X157552759Y-127168201D01*
X157622801Y-127182133D01*
X157692843Y-127168201D01*
X172659958Y-127168201D01*
X172729999Y-127182133D01*
X172800040Y-127168201D01*
X172800045Y-127168201D01*
X173007495Y-127126937D01*
X173242745Y-126969747D01*
X173282423Y-126910365D01*
X174667204Y-125525585D01*
X174683898Y-125532500D01*
X175195102Y-125532500D01*
X175667394Y-125336871D01*
X176028871Y-124975394D01*
X176209500Y-124539315D01*
X176390129Y-124975394D01*
X176751606Y-125336871D01*
X177223898Y-125532500D01*
X177735102Y-125532500D01*
X178207394Y-125336871D01*
X178568871Y-124975394D01*
X178749500Y-124539315D01*
X178930129Y-124975394D01*
X179291606Y-125336871D01*
X179763898Y-125532500D01*
X180275102Y-125532500D01*
X180747394Y-125336871D01*
X181108871Y-124975394D01*
X181304500Y-124503102D01*
X181304500Y-124434739D01*
X181763347Y-124893586D01*
X182364278Y-125142500D01*
X183014722Y-125142500D01*
X183615653Y-124893586D01*
X184075586Y-124433653D01*
X184324500Y-123832722D01*
X184324500Y-123182278D01*
X184075586Y-122581347D01*
X183615653Y-122121414D01*
X183014722Y-121872500D01*
X182586200Y-121872500D01*
X182557583Y-121378072D01*
X182419111Y-121043771D01*
X182188516Y-120988090D01*
X181469105Y-121707500D01*
X181483248Y-121721643D01*
X181303643Y-121901248D01*
X181289500Y-121887105D01*
X180570090Y-122606516D01*
X180625771Y-122837111D01*
X181108578Y-123005122D01*
X181128355Y-123003977D01*
X181054500Y-123182278D01*
X181054500Y-123465235D01*
X180747394Y-123158129D01*
X180275102Y-122962500D01*
X179763898Y-122962500D01*
X179291606Y-123158129D01*
X178930129Y-123519606D01*
X178749500Y-123955685D01*
X178568871Y-123519606D01*
X178207394Y-123158129D01*
X177735102Y-122962500D01*
X177223898Y-122962500D01*
X176751606Y-123158129D01*
X176390129Y-123519606D01*
X176209500Y-123955685D01*
X176028871Y-123519606D01*
X175667394Y-123158129D01*
X175650700Y-123151214D01*
X175650700Y-122866912D01*
X175953898Y-122992500D01*
X176465102Y-122992500D01*
X176937394Y-122796871D01*
X177298871Y-122435394D01*
X177479500Y-121999315D01*
X177660129Y-122435394D01*
X178021606Y-122796871D01*
X178493898Y-122992500D01*
X179005102Y-122992500D01*
X179477394Y-122796871D01*
X179838871Y-122435394D01*
X180019272Y-121999866D01*
X180021417Y-122036928D01*
X180159889Y-122371229D01*
X180390484Y-122426910D01*
X181109895Y-121707500D01*
X180390484Y-120988090D01*
X180159889Y-121043771D01*
X180025460Y-121430074D01*
X179838871Y-120979606D01*
X179667749Y-120808484D01*
X180570090Y-120808484D01*
X181289500Y-121527895D01*
X182008910Y-120808484D01*
X181953229Y-120577889D01*
X181470422Y-120409878D01*
X180960072Y-120439417D01*
X180625771Y-120577889D01*
X180570090Y-120808484D01*
X179667749Y-120808484D01*
X179477394Y-120618129D01*
X179005102Y-120422500D01*
X178493898Y-120422500D01*
X178021606Y-120618129D01*
X177660129Y-120979606D01*
X177479500Y-121415685D01*
X177298871Y-120979606D01*
X176937394Y-120618129D01*
X176465102Y-120422500D01*
X175953898Y-120422500D01*
X175650700Y-120548088D01*
X175650700Y-119983220D01*
X182892539Y-119983220D01*
X182962580Y-119997152D01*
X183032621Y-119983220D01*
X183032626Y-119983220D01*
X183240076Y-119941956D01*
X183475326Y-119784766D01*
X183515004Y-119725384D01*
X184569110Y-118671278D01*
X191460000Y-118671278D01*
X191460000Y-119321722D01*
X191708914Y-119922653D01*
X192168847Y-120382586D01*
X192769778Y-120631500D01*
X193420222Y-120631500D01*
X194021153Y-120382586D01*
X194481086Y-119922653D01*
X194730000Y-119321722D01*
X194730000Y-118671278D01*
X194481086Y-118070347D01*
X194021153Y-117610414D01*
X193420222Y-117361500D01*
X192769778Y-117361500D01*
X192168847Y-117610414D01*
X191708914Y-118070347D01*
X191460000Y-118671278D01*
X184569110Y-118671278D01*
X185316872Y-117923517D01*
X185376251Y-117883841D01*
X185415927Y-117824462D01*
X185415929Y-117824460D01*
X185457800Y-117761796D01*
X185971776Y-117247822D01*
X186031156Y-117208145D01*
X186070832Y-117148766D01*
X186070834Y-117148764D01*
X186188345Y-116972897D01*
X186188345Y-116972896D01*
X186188346Y-116972895D01*
X186229610Y-116765445D01*
X186229610Y-116765442D01*
X186243542Y-116695400D01*
X186229610Y-116625358D01*
X186229610Y-111786740D01*
X186335000Y-111786740D01*
X186335000Y-112606260D01*
X186648616Y-113363396D01*
X187228104Y-113942884D01*
X187985240Y-114256500D01*
X188804760Y-114256500D01*
X189561896Y-113942884D01*
X190141384Y-113363396D01*
X190455000Y-112606260D01*
X190455000Y-111786740D01*
X190141384Y-111029604D01*
X189561896Y-110450116D01*
X188804760Y-110136500D01*
X187985240Y-110136500D01*
X187228104Y-110450116D01*
X186648616Y-111029604D01*
X186335000Y-111786740D01*
X186229610Y-111786740D01*
X186229610Y-100571278D01*
X189960000Y-100571278D01*
X189960000Y-101221722D01*
X190208914Y-101822653D01*
X190668847Y-102282586D01*
X191269778Y-102531500D01*
X191920222Y-102531500D01*
X192521153Y-102282586D01*
X192981086Y-101822653D01*
X193230000Y-101221722D01*
X193230000Y-100571278D01*
X192981086Y-99970347D01*
X192521153Y-99510414D01*
X191920222Y-99261500D01*
X191269778Y-99261500D01*
X190668847Y-99510414D01*
X190208914Y-99970347D01*
X189960000Y-100571278D01*
X186229610Y-100571278D01*
X186229610Y-95065178D01*
X188163867Y-93130922D01*
X188223246Y-93091246D01*
X188262922Y-93031867D01*
X188262924Y-93031865D01*
X188380435Y-92855998D01*
X188380435Y-92855997D01*
X188380436Y-92855996D01*
X188421700Y-92648546D01*
X188421700Y-92648543D01*
X188435632Y-92578501D01*
X188421700Y-92508459D01*
X188421700Y-91911726D01*
X188775671Y-92037701D01*
X189325948Y-92009730D01*
X189704423Y-91852960D01*
X189772412Y-91612017D01*
X188980500Y-90820105D01*
X188966358Y-90834248D01*
X188786753Y-90654643D01*
X188800895Y-90640500D01*
X189160105Y-90640500D01*
X189952017Y-91432412D01*
X190192960Y-91364423D01*
X190377701Y-90845329D01*
X190349730Y-90295052D01*
X190192960Y-89916577D01*
X189952017Y-89848588D01*
X189160105Y-90640500D01*
X188800895Y-90640500D01*
X188786753Y-90626358D01*
X188966358Y-90446753D01*
X188980500Y-90460895D01*
X189772412Y-89668983D01*
X189704423Y-89428040D01*
X189185329Y-89243299D01*
X188635052Y-89271270D01*
X188421700Y-89359644D01*
X188421700Y-89305025D01*
X188495040Y-89274647D01*
X188884647Y-88885040D01*
X189095500Y-88375994D01*
X189095500Y-87825006D01*
X188884647Y-87315960D01*
X188495040Y-86926353D01*
X187985994Y-86715500D01*
X187435006Y-86715500D01*
X186925960Y-86926353D01*
X186536353Y-87315960D01*
X186440500Y-87547370D01*
X186344647Y-87315960D01*
X185955040Y-86926353D01*
X185445994Y-86715500D01*
X184895006Y-86715500D01*
X184385960Y-86926353D01*
X183996353Y-87315960D01*
X183900500Y-87547370D01*
X183804647Y-87315960D01*
X183415040Y-86926353D01*
X182905994Y-86715500D01*
X182355006Y-86715500D01*
X181845960Y-86926353D01*
X181456353Y-87315960D01*
X181360500Y-87547370D01*
X181264647Y-87315960D01*
X180875040Y-86926353D01*
X180365994Y-86715500D01*
X179815006Y-86715500D01*
X179508482Y-86842466D01*
X179600500Y-86620314D01*
X179600500Y-85820686D01*
X189480500Y-85820686D01*
X189480500Y-86620314D01*
X189786504Y-87359073D01*
X190351927Y-87924496D01*
X191090686Y-88230500D01*
X191890314Y-88230500D01*
X192629073Y-87924496D01*
X193194496Y-87359073D01*
X193500500Y-86620314D01*
X193500500Y-85820686D01*
X193194496Y-85081927D01*
X192629073Y-84516504D01*
X191890314Y-84210500D01*
X191090686Y-84210500D01*
X190351927Y-84516504D01*
X189786504Y-85081927D01*
X189480500Y-85820686D01*
X179600500Y-85820686D01*
X179294496Y-85081927D01*
X178729073Y-84516504D01*
X177990314Y-84210500D01*
X177190686Y-84210500D01*
X176451927Y-84516504D01*
X175886504Y-85081927D01*
X175580500Y-85820686D01*
X175580500Y-86620314D01*
X175886504Y-87359073D01*
X176451927Y-87924496D01*
X177190686Y-88230500D01*
X177990314Y-88230500D01*
X178705500Y-87934260D01*
X178705500Y-88375994D01*
X178916353Y-88885040D01*
X179305960Y-89274647D01*
X179815006Y-89485500D01*
X180365994Y-89485500D01*
X180875040Y-89274647D01*
X181264647Y-88885040D01*
X181360500Y-88653630D01*
X181456353Y-88885040D01*
X181845960Y-89274647D01*
X181919300Y-89305026D01*
X181919300Y-89372849D01*
X181635994Y-89255500D01*
X181085006Y-89255500D01*
X180575960Y-89466353D01*
X180186353Y-89855960D01*
X179975500Y-90365006D01*
X179975500Y-90915994D01*
X180186353Y-91425040D01*
X180575960Y-91814647D01*
X181085006Y-92025500D01*
X181610000Y-92025500D01*
X181610000Y-92538358D01*
X181596068Y-92608400D01*
X181610000Y-92678441D01*
X181610000Y-92678445D01*
X181651264Y-92885895D01*
X181651265Y-92885896D01*
X181768776Y-93061764D01*
X181768778Y-93061766D01*
X181808454Y-93121145D01*
X181867834Y-93160822D01*
X183362601Y-94655590D01*
X183362600Y-106144754D01*
X183104380Y-105886534D01*
X182319678Y-105561500D01*
X181470322Y-105561500D01*
X180685620Y-105886534D01*
X180085034Y-106487120D01*
X179895000Y-106945903D01*
X179704966Y-106487120D01*
X179104380Y-105886534D01*
X178319678Y-105561500D01*
X177470322Y-105561500D01*
X176685620Y-105886534D01*
X176085034Y-106487120D01*
X175895000Y-106945903D01*
X175704966Y-106487120D01*
X175104380Y-105886534D01*
X174319678Y-105561500D01*
X173470322Y-105561500D01*
X172685620Y-105886534D01*
X172085034Y-106487120D01*
X171895000Y-106945903D01*
X171704966Y-106487120D01*
X171104380Y-105886534D01*
X170319678Y-105561500D01*
X169470322Y-105561500D01*
X168685620Y-105886534D01*
X168085034Y-106487120D01*
X167899180Y-106935812D01*
X167727739Y-106521918D01*
X167408970Y-106362135D01*
X166074605Y-107696500D01*
X167408970Y-109030865D01*
X167727739Y-108871082D01*
X167894457Y-108445785D01*
X168085034Y-108905880D01*
X168685620Y-109506466D01*
X169470322Y-109831500D01*
X170319678Y-109831500D01*
X171104380Y-109506466D01*
X171704966Y-108905880D01*
X171895000Y-108447097D01*
X172085034Y-108905880D01*
X172685620Y-109506466D01*
X173470322Y-109831500D01*
X174319678Y-109831500D01*
X175104380Y-109506466D01*
X175704966Y-108905880D01*
X175895000Y-108447097D01*
X176085034Y-108905880D01*
X176685620Y-109506466D01*
X177470322Y-109831500D01*
X178319678Y-109831500D01*
X179104380Y-109506466D01*
X179704966Y-108905880D01*
X179895000Y-108447097D01*
X180085034Y-108905880D01*
X180685620Y-109506466D01*
X181470322Y-109831500D01*
X182319678Y-109831500D01*
X183104380Y-109506466D01*
X183362600Y-109248246D01*
X183362600Y-114144754D01*
X183104380Y-113886534D01*
X182319678Y-113561500D01*
X181470322Y-113561500D01*
X180685620Y-113886534D01*
X180085034Y-114487120D01*
X179895000Y-114945903D01*
X179704966Y-114487120D01*
X179104380Y-113886534D01*
X178319678Y-113561500D01*
X177470322Y-113561500D01*
X176685620Y-113886534D01*
X176085034Y-114487120D01*
X175895000Y-114945903D01*
X175704966Y-114487120D01*
X175104380Y-113886534D01*
X174319678Y-113561500D01*
X173470322Y-113561500D01*
X172685620Y-113886534D01*
X172085034Y-114487120D01*
X171895000Y-114945903D01*
X171704966Y-114487120D01*
X171104380Y-113886534D01*
X170319678Y-113561500D01*
X169470322Y-113561500D01*
X168685620Y-113886534D01*
X168085034Y-114487120D01*
X167895000Y-114945903D01*
X167704966Y-114487120D01*
X167104380Y-113886534D01*
X166319678Y-113561500D01*
X165470322Y-113561500D01*
X164685620Y-113886534D01*
X164085034Y-114487120D01*
X163895000Y-114945903D01*
X163704966Y-114487120D01*
X163104380Y-113886534D01*
X162319678Y-113561500D01*
X161470322Y-113561500D01*
X160685620Y-113886534D01*
X160085034Y-114487120D01*
X159895000Y-114945903D01*
X159704966Y-114487120D01*
X159104380Y-113886534D01*
X158319678Y-113561500D01*
X157470322Y-113561500D01*
X156685620Y-113886534D01*
X156085034Y-114487120D01*
X155895000Y-114945903D01*
X155704966Y-114487120D01*
X155104380Y-113886534D01*
X154319678Y-113561500D01*
X153470322Y-113561500D01*
X152685620Y-113886534D01*
X152085034Y-114487120D01*
X151760000Y-115271822D01*
X108440626Y-115271822D01*
X111495271Y-108637043D01*
X112318800Y-108637043D01*
X112318800Y-109091757D01*
X112492811Y-109511858D01*
X112814342Y-109833389D01*
X113062392Y-109936134D01*
X112738852Y-110259674D01*
X112458500Y-110936503D01*
X112458500Y-111669097D01*
X112738852Y-112345926D01*
X113256874Y-112863948D01*
X113933703Y-113144300D01*
X114666297Y-113144300D01*
X115062000Y-112980394D01*
X115062000Y-113079281D01*
X115274680Y-113592737D01*
X115667663Y-113985720D01*
X116181119Y-114198400D01*
X116736881Y-114198400D01*
X117250337Y-113985720D01*
X117643320Y-113592737D01*
X117856000Y-113079281D01*
X117856000Y-112980394D01*
X118251703Y-113144300D01*
X118984297Y-113144300D01*
X119661126Y-112863948D01*
X120179148Y-112345926D01*
X120410770Y-111786740D01*
X145335000Y-111786740D01*
X145335000Y-112606260D01*
X145648616Y-113363396D01*
X146228104Y-113942884D01*
X146985240Y-114256500D01*
X147804760Y-114256500D01*
X148561896Y-113942884D01*
X149141384Y-113363396D01*
X149455000Y-112606260D01*
X149455000Y-111786740D01*
X149241714Y-111271822D01*
X153760000Y-111271822D01*
X153760000Y-112121178D01*
X154085034Y-112905880D01*
X154685620Y-113506466D01*
X155470322Y-113831500D01*
X156319678Y-113831500D01*
X157104380Y-113506466D01*
X157704966Y-112905880D01*
X157895000Y-112447097D01*
X158085034Y-112905880D01*
X158685620Y-113506466D01*
X159470322Y-113831500D01*
X160319678Y-113831500D01*
X161104380Y-113506466D01*
X161400376Y-113210470D01*
X162560635Y-113210470D01*
X162720418Y-113529239D01*
X163511187Y-113839223D01*
X164360387Y-113822997D01*
X165069582Y-113529239D01*
X165229365Y-113210470D01*
X163895000Y-111876105D01*
X162560635Y-113210470D01*
X161400376Y-113210470D01*
X161704966Y-112905880D01*
X161890820Y-112457188D01*
X162062261Y-112871082D01*
X162381030Y-113030865D01*
X163715395Y-111696500D01*
X164074605Y-111696500D01*
X165408970Y-113030865D01*
X165727739Y-112871082D01*
X165894457Y-112445785D01*
X166085034Y-112905880D01*
X166685620Y-113506466D01*
X167470322Y-113831500D01*
X168319678Y-113831500D01*
X169104380Y-113506466D01*
X169704966Y-112905880D01*
X169895000Y-112447097D01*
X170085034Y-112905880D01*
X170685620Y-113506466D01*
X171470322Y-113831500D01*
X172319678Y-113831500D01*
X173104380Y-113506466D01*
X173704966Y-112905880D01*
X173895000Y-112447097D01*
X174085034Y-112905880D01*
X174685620Y-113506466D01*
X175470322Y-113831500D01*
X176319678Y-113831500D01*
X177104380Y-113506466D01*
X177704966Y-112905880D01*
X177895000Y-112447097D01*
X178085034Y-112905880D01*
X178685620Y-113506466D01*
X179470322Y-113831500D01*
X180319678Y-113831500D01*
X181104380Y-113506466D01*
X181704966Y-112905880D01*
X182030000Y-112121178D01*
X182030000Y-111271822D01*
X181704966Y-110487120D01*
X181104380Y-109886534D01*
X180319678Y-109561500D01*
X179470322Y-109561500D01*
X178685620Y-109886534D01*
X178085034Y-110487120D01*
X177895000Y-110945903D01*
X177704966Y-110487120D01*
X177104380Y-109886534D01*
X176319678Y-109561500D01*
X175470322Y-109561500D01*
X174685620Y-109886534D01*
X174085034Y-110487120D01*
X173895000Y-110945903D01*
X173704966Y-110487120D01*
X173104380Y-109886534D01*
X172319678Y-109561500D01*
X171470322Y-109561500D01*
X170685620Y-109886534D01*
X170085034Y-110487120D01*
X169895000Y-110945903D01*
X169704966Y-110487120D01*
X169104380Y-109886534D01*
X168319678Y-109561500D01*
X167470322Y-109561500D01*
X166685620Y-109886534D01*
X166085034Y-110487120D01*
X165899180Y-110935812D01*
X165727739Y-110521918D01*
X165408970Y-110362135D01*
X164074605Y-111696500D01*
X163715395Y-111696500D01*
X162381030Y-110362135D01*
X162062261Y-110521918D01*
X161895543Y-110947215D01*
X161704966Y-110487120D01*
X161400376Y-110182530D01*
X162560635Y-110182530D01*
X163895000Y-111516895D01*
X165229365Y-110182530D01*
X165069582Y-109863761D01*
X164278813Y-109553777D01*
X163429613Y-109570003D01*
X162720418Y-109863761D01*
X162560635Y-110182530D01*
X161400376Y-110182530D01*
X161104380Y-109886534D01*
X160319678Y-109561500D01*
X159470322Y-109561500D01*
X158685620Y-109886534D01*
X158085034Y-110487120D01*
X157895000Y-110945903D01*
X157704966Y-110487120D01*
X157104380Y-109886534D01*
X156319678Y-109561500D01*
X155470322Y-109561500D01*
X154685620Y-109886534D01*
X154085034Y-110487120D01*
X153760000Y-111271822D01*
X149241714Y-111271822D01*
X149141384Y-111029604D01*
X148561896Y-110450116D01*
X147804760Y-110136500D01*
X146985240Y-110136500D01*
X146228104Y-110450116D01*
X145648616Y-111029604D01*
X145335000Y-111786740D01*
X120410770Y-111786740D01*
X120459500Y-111669097D01*
X120459500Y-110936503D01*
X120179148Y-110259674D01*
X119855608Y-109936134D01*
X120103658Y-109833389D01*
X120425189Y-109511858D01*
X120599200Y-109091757D01*
X120599200Y-108887126D01*
X133966000Y-108887126D01*
X133966000Y-109298874D01*
X134123569Y-109679280D01*
X134414720Y-109970431D01*
X134795126Y-110128000D01*
X135206874Y-110128000D01*
X135587280Y-109970431D01*
X135753511Y-109804200D01*
X136610689Y-109804200D01*
X136776920Y-109970431D01*
X137157326Y-110128000D01*
X137569074Y-110128000D01*
X137949480Y-109970431D01*
X138240631Y-109679280D01*
X138398200Y-109298874D01*
X138398200Y-108887126D01*
X138240631Y-108506720D01*
X137949480Y-108215569D01*
X137569074Y-108058000D01*
X137157326Y-108058000D01*
X136776920Y-108215569D01*
X136610689Y-108381800D01*
X135753511Y-108381800D01*
X135587280Y-108215569D01*
X135206874Y-108058000D01*
X134795126Y-108058000D01*
X134414720Y-108215569D01*
X134123569Y-108506720D01*
X133966000Y-108887126D01*
X120599200Y-108887126D01*
X120599200Y-108637043D01*
X120425189Y-108216942D01*
X120103658Y-107895411D01*
X119683557Y-107721400D01*
X119228843Y-107721400D01*
X118808742Y-107895411D01*
X118487211Y-108216942D01*
X118313200Y-108637043D01*
X118313200Y-109091757D01*
X118466269Y-109461300D01*
X118251703Y-109461300D01*
X117856000Y-109625206D01*
X117856000Y-109526319D01*
X117643320Y-109012863D01*
X117250337Y-108619880D01*
X116736881Y-108407200D01*
X116181119Y-108407200D01*
X115667663Y-108619880D01*
X115274680Y-109012863D01*
X115062000Y-109526319D01*
X115062000Y-109625206D01*
X114666297Y-109461300D01*
X114451731Y-109461300D01*
X114604800Y-109091757D01*
X114604800Y-108637043D01*
X114430789Y-108216942D01*
X114109258Y-107895411D01*
X113689157Y-107721400D01*
X113234443Y-107721400D01*
X112814342Y-107895411D01*
X112492811Y-108216942D01*
X112318800Y-108637043D01*
X111495271Y-108637043D01*
X112760040Y-105889926D01*
X135109000Y-105889926D01*
X135109000Y-106301674D01*
X135266569Y-106682080D01*
X135557720Y-106973231D01*
X135938126Y-107130800D01*
X136349874Y-107130800D01*
X136730280Y-106973231D01*
X137021431Y-106682080D01*
X137179000Y-106301674D01*
X137179000Y-105889926D01*
X137036930Y-105546936D01*
X146132600Y-105546936D01*
X146132600Y-105958684D01*
X146290169Y-106339090D01*
X146581320Y-106630241D01*
X146961726Y-106787810D01*
X147373474Y-106787810D01*
X147753880Y-106630241D01*
X147777200Y-106606921D01*
X147800520Y-106630241D01*
X148180926Y-106787810D01*
X148592674Y-106787810D01*
X148971000Y-106631103D01*
X149104500Y-106686400D01*
X148993726Y-106686400D01*
X148613320Y-106843969D01*
X148322169Y-107135120D01*
X148164600Y-107515526D01*
X148164600Y-107927274D01*
X148322169Y-108307680D01*
X148613320Y-108598831D01*
X148993726Y-108756400D01*
X149405474Y-108756400D01*
X149785880Y-108598831D01*
X150077031Y-108307680D01*
X150234600Y-107927274D01*
X150234600Y-107692188D01*
X150654966Y-107271822D01*
X151760000Y-107271822D01*
X151760000Y-108121178D01*
X152085034Y-108905880D01*
X152685620Y-109506466D01*
X153470322Y-109831500D01*
X154319678Y-109831500D01*
X155104380Y-109506466D01*
X155400376Y-109210470D01*
X156560635Y-109210470D01*
X156720418Y-109529239D01*
X157511187Y-109839223D01*
X158360387Y-109822997D01*
X159069582Y-109529239D01*
X159229365Y-109210470D01*
X157895000Y-107876105D01*
X156560635Y-109210470D01*
X155400376Y-109210470D01*
X155704966Y-108905880D01*
X155890820Y-108457188D01*
X156062261Y-108871082D01*
X156381030Y-109030865D01*
X157715395Y-107696500D01*
X158074605Y-107696500D01*
X159408970Y-109030865D01*
X159727739Y-108871082D01*
X159894457Y-108445785D01*
X160085034Y-108905880D01*
X160685620Y-109506466D01*
X161470322Y-109831500D01*
X162319678Y-109831500D01*
X163104380Y-109506466D01*
X163400376Y-109210470D01*
X164560635Y-109210470D01*
X164720418Y-109529239D01*
X165511187Y-109839223D01*
X166360387Y-109822997D01*
X167069582Y-109529239D01*
X167229365Y-109210470D01*
X165895000Y-107876105D01*
X164560635Y-109210470D01*
X163400376Y-109210470D01*
X163704966Y-108905880D01*
X163890820Y-108457188D01*
X164062261Y-108871082D01*
X164381030Y-109030865D01*
X165715395Y-107696500D01*
X164381030Y-106362135D01*
X164062261Y-106521918D01*
X163895543Y-106947215D01*
X163704966Y-106487120D01*
X163400376Y-106182530D01*
X164560635Y-106182530D01*
X165895000Y-107516895D01*
X167229365Y-106182530D01*
X167069582Y-105863761D01*
X166278813Y-105553777D01*
X165429613Y-105570003D01*
X164720418Y-105863761D01*
X164560635Y-106182530D01*
X163400376Y-106182530D01*
X163104380Y-105886534D01*
X162319678Y-105561500D01*
X161470322Y-105561500D01*
X160685620Y-105886534D01*
X160085034Y-106487120D01*
X159899180Y-106935812D01*
X159727739Y-106521918D01*
X159408970Y-106362135D01*
X158074605Y-107696500D01*
X157715395Y-107696500D01*
X156381030Y-106362135D01*
X156062261Y-106521918D01*
X155895543Y-106947215D01*
X155704966Y-106487120D01*
X155400376Y-106182530D01*
X156560635Y-106182530D01*
X157895000Y-107516895D01*
X159229365Y-106182530D01*
X159069582Y-105863761D01*
X158278813Y-105553777D01*
X157429613Y-105570003D01*
X156720418Y-105863761D01*
X156560635Y-106182530D01*
X155400376Y-106182530D01*
X155104380Y-105886534D01*
X154319678Y-105561500D01*
X153470322Y-105561500D01*
X152685620Y-105886534D01*
X152085034Y-106487120D01*
X151760000Y-107271822D01*
X150654966Y-107271822D01*
X150684768Y-107242021D01*
X150744147Y-107202345D01*
X150783823Y-107142966D01*
X150783825Y-107142964D01*
X150901336Y-106967096D01*
X150901337Y-106967095D01*
X150942601Y-106759645D01*
X150942601Y-106759641D01*
X150956533Y-106689599D01*
X150942601Y-106619557D01*
X150942601Y-105498274D01*
X150956533Y-105428233D01*
X150942601Y-105358191D01*
X150942601Y-105358187D01*
X150901337Y-105150737D01*
X150861092Y-105090507D01*
X150783825Y-104974868D01*
X150783821Y-104974864D01*
X150744146Y-104915487D01*
X150684770Y-104875813D01*
X149885400Y-104076444D01*
X149885400Y-102844600D01*
X150475759Y-102844600D01*
X150545800Y-102858532D01*
X150615841Y-102844600D01*
X150615846Y-102844600D01*
X150823296Y-102803336D01*
X151058546Y-102646146D01*
X151098224Y-102586764D01*
X151278588Y-102406400D01*
X151513674Y-102406400D01*
X151894080Y-102248831D01*
X152185231Y-101957680D01*
X152342800Y-101577274D01*
X152342800Y-101165526D01*
X152185231Y-100785120D01*
X151894080Y-100493969D01*
X151513674Y-100336400D01*
X151101926Y-100336400D01*
X150721520Y-100493969D01*
X150444200Y-100771289D01*
X150217680Y-100544769D01*
X149837274Y-100387200D01*
X149425526Y-100387200D01*
X149047200Y-100543907D01*
X148668874Y-100387200D01*
X148507400Y-100387200D01*
X148507400Y-100352726D01*
X148349831Y-99972320D01*
X148058680Y-99681169D01*
X147678274Y-99523600D01*
X147266526Y-99523600D01*
X146886120Y-99681169D01*
X146594969Y-99972320D01*
X146437400Y-100352726D01*
X146437400Y-100764474D01*
X146594969Y-101144880D01*
X146761201Y-101311112D01*
X146761201Y-101377554D01*
X146747268Y-101447600D01*
X146802465Y-101725096D01*
X146919976Y-101900964D01*
X146919979Y-101900967D01*
X146959655Y-101960346D01*
X147019034Y-102000022D01*
X147396200Y-102377189D01*
X147396201Y-104518420D01*
X147196811Y-104717810D01*
X146961726Y-104717810D01*
X146581320Y-104875379D01*
X146290169Y-105166530D01*
X146132600Y-105546936D01*
X137036930Y-105546936D01*
X137021431Y-105509520D01*
X136906000Y-105394089D01*
X136906000Y-103749511D01*
X137072231Y-103583280D01*
X137229800Y-103202874D01*
X137229800Y-102791126D01*
X137072231Y-102410720D01*
X136781080Y-102119569D01*
X136400674Y-101962000D01*
X135988926Y-101962000D01*
X135608520Y-102119569D01*
X135317369Y-102410720D01*
X135159800Y-102791126D01*
X135159800Y-103202874D01*
X135317369Y-103583280D01*
X135483600Y-103749511D01*
X135483601Y-105292488D01*
X135266569Y-105509520D01*
X135109000Y-105889926D01*
X112760040Y-105889926D01*
X115208739Y-100571278D01*
X142560000Y-100571278D01*
X142560000Y-101221722D01*
X142808914Y-101822653D01*
X143268847Y-102282586D01*
X143869778Y-102531500D01*
X144520222Y-102531500D01*
X145121153Y-102282586D01*
X145581086Y-101822653D01*
X145830000Y-101221722D01*
X145830000Y-100571278D01*
X145581086Y-99970347D01*
X145121153Y-99510414D01*
X144520222Y-99261500D01*
X143869778Y-99261500D01*
X143268847Y-99510414D01*
X142808914Y-99970347D01*
X142560000Y-100571278D01*
X115208739Y-100571278D01*
X119150374Y-92009930D01*
X119413483Y-91587577D01*
X119739648Y-91276119D01*
X120133023Y-91055560D01*
X120581612Y-90936378D01*
X120933486Y-90921000D01*
X121278422Y-90930713D01*
X121308309Y-90929676D01*
X121338188Y-90929964D01*
X122596360Y-90862976D01*
X122688041Y-90852291D01*
X123927895Y-90628140D01*
X123927898Y-90628140D01*
X124017517Y-90606048D01*
X125219502Y-90228269D01*
X125264292Y-90211033D01*
X125305645Y-90195120D01*
X126450804Y-89669672D01*
X126504849Y-89640635D01*
X126532115Y-89625986D01*
X127602388Y-88961154D01*
X127633657Y-88938892D01*
X127677581Y-88907623D01*
X128656089Y-88113893D01*
X128688640Y-88083911D01*
X128723980Y-88051360D01*
X129595292Y-87141250D01*
X129625585Y-87105342D01*
X129654811Y-87070700D01*
X130405185Y-86058561D01*
X130455391Y-85981108D01*
X131072993Y-84882904D01*
X131113097Y-84799769D01*
X131579480Y-83654207D01*
X131805731Y-83185189D01*
X132096539Y-82840482D01*
X132463933Y-82578929D01*
X132902508Y-82410156D01*
X133176786Y-82363947D01*
X135401318Y-82158417D01*
X135118129Y-82441606D01*
X134922500Y-82913898D01*
X134922500Y-83425102D01*
X135118129Y-83897394D01*
X135479606Y-84258871D01*
X135951898Y-84454500D01*
X136463102Y-84454500D01*
X136935394Y-84258871D01*
X137296871Y-83897394D01*
X137477500Y-83461315D01*
X137658129Y-83897394D01*
X138019606Y-84258871D01*
X138491898Y-84454500D01*
X138512500Y-84454500D01*
X138512500Y-84927235D01*
X138205394Y-84620129D01*
X137733102Y-84424500D01*
X137221898Y-84424500D01*
X136749606Y-84620129D01*
X136388129Y-84981606D01*
X136207500Y-85417685D01*
X136026871Y-84981606D01*
X135665394Y-84620129D01*
X135193102Y-84424500D01*
X134681898Y-84424500D01*
X134209606Y-84620129D01*
X133848129Y-84981606D01*
X133652500Y-85453898D01*
X133652500Y-85965102D01*
X133848129Y-86437394D01*
X134209606Y-86798871D01*
X134681898Y-86994500D01*
X135193102Y-86994500D01*
X135665394Y-86798871D01*
X136026871Y-86437394D01*
X136207500Y-86001315D01*
X136388129Y-86437394D01*
X136749606Y-86798871D01*
X137221898Y-86994500D01*
X137733102Y-86994500D01*
X138205394Y-86798871D01*
X138566871Y-86437394D01*
X138762500Y-85965102D01*
X138762500Y-85596739D01*
X139221347Y-86055586D01*
X139822278Y-86304500D01*
X140472722Y-86304500D01*
X141073653Y-86055586D01*
X141533586Y-85595653D01*
X141782500Y-84994722D01*
X141782500Y-84344278D01*
X141533586Y-83743347D01*
X141073653Y-83283414D01*
X140472722Y-83034500D01*
X140032500Y-83034500D01*
X140032500Y-82913898D01*
X139836871Y-82441606D01*
X139475394Y-82080129D01*
X139003102Y-81884500D01*
X138491898Y-81884500D01*
X138019606Y-82080129D01*
X137658129Y-82441606D01*
X137477500Y-82877685D01*
X137296871Y-82441606D01*
X136935394Y-82080129D01*
X136810150Y-82028251D01*
X145828687Y-81195006D01*
X176605500Y-81195006D01*
X176605500Y-81745994D01*
X176816353Y-82255040D01*
X177205960Y-82644647D01*
X177715006Y-82855500D01*
X178265994Y-82855500D01*
X178775040Y-82644647D01*
X179164647Y-82255040D01*
X179260500Y-82023630D01*
X179356353Y-82255040D01*
X179745960Y-82644647D01*
X180255006Y-82855500D01*
X180805994Y-82855500D01*
X181315040Y-82644647D01*
X181704647Y-82255040D01*
X181915500Y-81745994D01*
X181915500Y-81195006D01*
X187165500Y-81195006D01*
X187165500Y-81745994D01*
X187376353Y-82255040D01*
X187765960Y-82644647D01*
X188275006Y-82855500D01*
X188825994Y-82855500D01*
X189335040Y-82644647D01*
X189724647Y-82255040D01*
X189820500Y-82023630D01*
X189916353Y-82255040D01*
X190305960Y-82644647D01*
X190815006Y-82855500D01*
X191365994Y-82855500D01*
X191875040Y-82644647D01*
X192264647Y-82255040D01*
X192475500Y-81745994D01*
X192475500Y-81195006D01*
X192264647Y-80685960D01*
X191875040Y-80296353D01*
X191365994Y-80085500D01*
X190815006Y-80085500D01*
X190305960Y-80296353D01*
X189916353Y-80685960D01*
X189820500Y-80917370D01*
X189724647Y-80685960D01*
X189335040Y-80296353D01*
X188825994Y-80085500D01*
X188275006Y-80085500D01*
X187765960Y-80296353D01*
X187376353Y-80685960D01*
X187165500Y-81195006D01*
X181915500Y-81195006D01*
X181704647Y-80685960D01*
X181315040Y-80296353D01*
X180805994Y-80085500D01*
X180255006Y-80085500D01*
X179745960Y-80296353D01*
X179356353Y-80685960D01*
X179260500Y-80917370D01*
X179164647Y-80685960D01*
X178775040Y-80296353D01*
X178265994Y-80085500D01*
X177715006Y-80085500D01*
X177205960Y-80296353D01*
X176816353Y-80685960D01*
X176605500Y-81195006D01*
X145828687Y-81195006D01*
X193926135Y-76751164D01*
X194423451Y-76767846D01*
G04 #@! TD*
M02*
