G04 #@! TF.GenerationSoftware,KiCad,Pcbnew,5.0.2-bee76a0~70~ubuntu16.04.1*
G04 #@! TF.CreationDate,2019-03-18T14:36:24-04:00*
G04 #@! TF.ProjectId,BMS_peripheral,424d535f-7065-4726-9970-686572616c2e,rev?*
G04 #@! TF.SameCoordinates,Original*
G04 #@! TF.FileFunction,Copper,L1,Top*
G04 #@! TF.FilePolarity,Positive*
%FSLAX46Y46*%
G04 Gerber Fmt 4.6, Leading zero omitted, Abs format (unit mm)*
G04 Created by KiCad (PCBNEW 5.0.2-bee76a0~70~ubuntu16.04.1) date Mon 18 Mar 2019 02:36:24 PM EDT*
%MOMM*%
%LPD*%
G01*
G04 APERTURE LIST*
G04 #@! TA.AperFunction,ComponentPad*
%ADD10C,2.000000*%
G04 #@! TD*
G04 #@! TA.AperFunction,ComponentPad*
%ADD11C,1.300000*%
G04 #@! TD*
G04 #@! TA.AperFunction,SMDPad,CuDef*
%ADD12R,0.700000X1.300000*%
G04 #@! TD*
G04 #@! TA.AperFunction,SMDPad,CuDef*
%ADD13R,1.000000X1.250000*%
G04 #@! TD*
G04 #@! TA.AperFunction,SMDPad,CuDef*
%ADD14R,0.900000X0.800000*%
G04 #@! TD*
G04 #@! TA.AperFunction,SMDPad,CuDef*
%ADD15R,3.800000X2.000000*%
G04 #@! TD*
G04 #@! TA.AperFunction,SMDPad,CuDef*
%ADD16R,1.500000X2.000000*%
G04 #@! TD*
G04 #@! TA.AperFunction,SMDPad,CuDef*
%ADD17R,1.200000X0.300000*%
G04 #@! TD*
G04 #@! TA.AperFunction,SMDPad,CuDef*
%ADD18R,0.250000X1.500000*%
G04 #@! TD*
G04 #@! TA.AperFunction,SMDPad,CuDef*
%ADD19R,1.200000X1.200000*%
G04 #@! TD*
G04 #@! TA.AperFunction,SMDPad,CuDef*
%ADD20R,0.650000X1.060000*%
G04 #@! TD*
G04 #@! TA.AperFunction,SMDPad,CuDef*
%ADD21R,1.300000X0.700000*%
G04 #@! TD*
G04 #@! TA.AperFunction,SMDPad,CuDef*
%ADD22R,1.250000X1.000000*%
G04 #@! TD*
G04 #@! TA.AperFunction,SMDPad,CuDef*
%ADD23R,0.650000X0.400000*%
G04 #@! TD*
G04 #@! TA.AperFunction,SMDPad,CuDef*
%ADD24R,0.400000X0.650000*%
G04 #@! TD*
G04 #@! TA.AperFunction,SMDPad,CuDef*
%ADD25R,1.200000X0.400000*%
G04 #@! TD*
G04 #@! TA.AperFunction,SMDPad,CuDef*
%ADD26R,0.400000X1.200000*%
G04 #@! TD*
G04 #@! TA.AperFunction,WasherPad*
%ADD27R,3.400000X2.000000*%
G04 #@! TD*
G04 #@! TA.AperFunction,ComponentPad*
%ADD28R,1.900000X1.900000*%
G04 #@! TD*
G04 #@! TA.AperFunction,ComponentPad*
%ADD29C,1.900000*%
G04 #@! TD*
G04 #@! TA.AperFunction,ViaPad*
%ADD30C,0.800000*%
G04 #@! TD*
G04 #@! TA.AperFunction,Conductor*
%ADD31C,0.250000*%
G04 #@! TD*
G04 #@! TA.AperFunction,Conductor*
%ADD32C,0.254000*%
G04 #@! TD*
G04 #@! TA.AperFunction,Conductor*
%ADD33C,0.508000*%
G04 #@! TD*
G04 APERTURE END LIST*
D10*
G04 #@! TO.P,J3,17*
G04 #@! TO.N,N/C*
X83798000Y-37462000D03*
D11*
G04 #@! TO.P,J3,16*
G04 #@! TO.N,/MODULE5_TEMP2*
X83058000Y-57912000D03*
G04 #@! TO.P,J3,15*
G04 #@! TO.N,/CELL4_VOLT*
X85598000Y-56642000D03*
G04 #@! TO.P,J3,14*
G04 #@! TO.N,/MODULE5_TEMP1*
X83058000Y-55372000D03*
G04 #@! TO.P,J3,13*
G04 #@! TO.N,/MODULE4_TEMP2*
X85598000Y-54102000D03*
G04 #@! TO.P,J3,12*
G04 #@! TO.N,/CELL3_VOLT*
X83058000Y-52832000D03*
G04 #@! TO.P,J3,11*
G04 #@! TO.N,/MODULE4_TEMP1*
X85598000Y-51562000D03*
G04 #@! TO.P,J3,10*
G04 #@! TO.N,/MODULE3_TEMP2*
X83058000Y-50292000D03*
G04 #@! TO.P,J3,9*
G04 #@! TO.N,/CELL2_VOLT*
X85598000Y-49022000D03*
G04 #@! TO.P,J3,8*
G04 #@! TO.N,/MODULE3_TEMP1*
X83058000Y-47752000D03*
G04 #@! TO.P,J3,6*
G04 #@! TO.N,/CELL1_VOLT*
X83058000Y-45212000D03*
G04 #@! TO.P,J3,4*
G04 #@! TO.N,GND*
X83058000Y-42672000D03*
G04 #@! TO.P,J3,2*
G04 #@! TO.N,/CELL0_VOLT*
X83058000Y-40132000D03*
G04 #@! TO.P,J3,7*
G04 #@! TO.N,/MODULE2_TEMP2*
X85598000Y-46482000D03*
G04 #@! TO.P,J3,1*
G04 #@! TO.N,/MODULE1_TEMP1*
X85598000Y-38862000D03*
G04 #@! TO.P,J3,3*
G04 #@! TO.N,/MODULE1_TEMP2*
X85598000Y-41402000D03*
G04 #@! TO.P,J3,5*
G04 #@! TO.N,/MODULE2_TEMP1*
X85598000Y-43942000D03*
G04 #@! TD*
D12*
G04 #@! TO.P,R4,1*
G04 #@! TO.N,Net-(D4-Pad1)*
X112369600Y-56921400D03*
G04 #@! TO.P,R4,2*
G04 #@! TO.N,/CELL4_VOLT*
X110469600Y-56921400D03*
G04 #@! TD*
D13*
G04 #@! TO.P,C3,2*
G04 #@! TO.N,Net-(C3-Pad2)*
X110522000Y-45593000D03*
G04 #@! TO.P,C3,1*
G04 #@! TO.N,Net-(C2-Pad2)*
X112522000Y-45593000D03*
G04 #@! TD*
D14*
G04 #@! TO.P,Q9,1*
G04 #@! TO.N,Net-(Q9-Pad1)*
X156229000Y-40895000D03*
G04 #@! TO.P,Q9,2*
G04 #@! TO.N,/CELL8_VOLT*
X158229000Y-41945000D03*
G04 #@! TO.P,Q9,3*
G04 #@! TO.N,Net-(D9-Pad2)*
X158229000Y-39845000D03*
G04 #@! TD*
G04 #@! TO.P,Q8,3*
G04 #@! TO.N,Net-(D8-Pad2)*
X157975000Y-46613000D03*
G04 #@! TO.P,Q8,2*
G04 #@! TO.N,/CELL7_VOLT*
X157975000Y-48713000D03*
G04 #@! TO.P,Q8,1*
G04 #@! TO.N,Net-(Q8-Pad1)*
X155975000Y-47663000D03*
G04 #@! TD*
G04 #@! TO.P,Q6,3*
G04 #@! TO.N,Net-(D6-Pad2)*
X158097000Y-60496000D03*
G04 #@! TO.P,Q6,2*
G04 #@! TO.N,/CELL5_VOLT*
X158097000Y-62596000D03*
G04 #@! TO.P,Q6,1*
G04 #@! TO.N,Net-(Q6-Pad1)*
X156097000Y-61546000D03*
G04 #@! TD*
G04 #@! TO.P,Q10,3*
G04 #@! TO.N,Net-(D10-Pad2)*
X155997000Y-32852500D03*
G04 #@! TO.P,Q10,2*
G04 #@! TO.N,/CELL9_VOLT*
X155997000Y-34952500D03*
G04 #@! TO.P,Q10,1*
G04 #@! TO.N,Net-(Q10-Pad1)*
X153997000Y-33902500D03*
G04 #@! TD*
G04 #@! TO.P,Q5,1*
G04 #@! TO.N,Net-(Q5-Pad1)*
X120746500Y-61714000D03*
G04 #@! TO.P,Q5,2*
G04 #@! TO.N,/CELL4_VOLT*
X118746500Y-60664000D03*
G04 #@! TO.P,Q5,3*
G04 #@! TO.N,Net-(D5-Pad2)*
X118746500Y-62764000D03*
G04 #@! TD*
G04 #@! TO.P,Q7,1*
G04 #@! TO.N,Net-(Q7-Pad1)*
X156075000Y-54724000D03*
G04 #@! TO.P,Q7,2*
G04 #@! TO.N,/CELL6_VOLT*
X158075000Y-55774000D03*
G04 #@! TO.P,Q7,3*
G04 #@! TO.N,Net-(D7-Pad2)*
X158075000Y-53674000D03*
G04 #@! TD*
G04 #@! TO.P,Q2,3*
G04 #@! TO.N,Net-(D2-Pad2)*
X118541500Y-41594000D03*
G04 #@! TO.P,Q2,2*
G04 #@! TO.N,/CELL1_VOLT*
X118541500Y-39494000D03*
G04 #@! TO.P,Q2,1*
G04 #@! TO.N,Net-(Q2-Pad1)*
X120541500Y-40544000D03*
G04 #@! TD*
G04 #@! TO.P,Q1,1*
G04 #@! TO.N,Net-(Q1-Pad1)*
X120446500Y-33934000D03*
G04 #@! TO.P,Q1,2*
G04 #@! TO.N,/CELL0_VOLT*
X118446500Y-32884000D03*
G04 #@! TO.P,Q1,3*
G04 #@! TO.N,Net-(D1-Pad2)*
X118446500Y-34984000D03*
G04 #@! TD*
G04 #@! TO.P,Q3,1*
G04 #@! TO.N,Net-(Q3-Pad1)*
X120646500Y-47644000D03*
G04 #@! TO.P,Q3,2*
G04 #@! TO.N,/CELL2_VOLT*
X118646500Y-46594000D03*
G04 #@! TO.P,Q3,3*
G04 #@! TO.N,Net-(D3-Pad2)*
X118646500Y-48694000D03*
G04 #@! TD*
D15*
G04 #@! TO.P,Q11,4*
G04 #@! TO.N,Net-(C15-Pad1)*
X137000000Y-32500000D03*
D16*
G04 #@! TO.P,Q11,2*
X137000000Y-38800000D03*
G04 #@! TO.P,Q11,3*
G04 #@! TO.N,/VREG*
X139300000Y-38800000D03*
G04 #@! TO.P,Q11,1*
G04 #@! TO.N,Net-(Q11-Pad1)*
X134700000Y-38800000D03*
G04 #@! TD*
D17*
G04 #@! TO.P,T1,9*
G04 #@! TO.N,/IMB*
X72754677Y-51787043D03*
G04 #@! TO.P,T1,1*
G04 #@! TO.N,Net-(J1-Pad1)*
X63954677Y-42897043D03*
G04 #@! TO.P,T1,2*
G04 #@! TO.N,Net-(T1-Pad2)*
X63954677Y-44167043D03*
G04 #@! TO.P,T1,3*
G04 #@! TO.N,Net-(J1-Pad2)*
X63954677Y-45437043D03*
G04 #@! TO.P,T1,4*
G04 #@! TO.N,N/C*
X63954677Y-46707043D03*
G04 #@! TO.P,T1,5*
X63954677Y-47977043D03*
G04 #@! TO.P,T1,6*
G04 #@! TO.N,Net-(J2-Pad1)*
X63954677Y-49247043D03*
G04 #@! TO.P,T1,7*
G04 #@! TO.N,Net-(T1-Pad7)*
X63954677Y-50517043D03*
G04 #@! TO.P,T1,8*
G04 #@! TO.N,Net-(J2-Pad2)*
X63954677Y-51787043D03*
G04 #@! TO.P,T1,10*
G04 #@! TO.N,Net-(C19-Pad1)*
X72754677Y-50517043D03*
G04 #@! TO.P,T1,11*
G04 #@! TO.N,/IPB*
X72754677Y-49247043D03*
G04 #@! TO.P,T1,12*
G04 #@! TO.N,N/C*
X72754677Y-47977043D03*
G04 #@! TO.P,T1,13*
X72754677Y-46707043D03*
G04 #@! TO.P,T1,14*
G04 #@! TO.N,/IMA*
X72754677Y-45437043D03*
G04 #@! TO.P,T1,15*
G04 #@! TO.N,Net-(C18-Pad1)*
X72754677Y-44167043D03*
G04 #@! TO.P,T1,16*
G04 #@! TO.N,/IPA*
X72754677Y-42897043D03*
G04 #@! TD*
D11*
G04 #@! TO.P,J4,5*
G04 #@! TO.N,/CELL6_VOLT*
X201168000Y-54864000D03*
G04 #@! TO.P,J4,3*
G04 #@! TO.N,/MODULE9_TEMP1*
X201168000Y-57404000D03*
G04 #@! TO.P,J4,1*
G04 #@! TO.N,/MODULE9_TEMP2*
X201168000Y-59944000D03*
G04 #@! TO.P,J4,7*
G04 #@! TO.N,/MODULE8_TEMP1*
X201168000Y-52324000D03*
G04 #@! TO.P,J4,2*
G04 #@! TO.N,/CELL8_VOLT*
X203708000Y-58674000D03*
G04 #@! TO.P,J4,4*
G04 #@! TO.N,/MODULE10_TEMP2*
X203708000Y-56134000D03*
G04 #@! TO.P,J4,6*
G04 #@! TO.N,/MODULE8_TEMP2*
X203708000Y-53594000D03*
G04 #@! TO.P,J4,8*
G04 #@! TO.N,/CELL5_VOLT*
X203708000Y-51054000D03*
G04 #@! TO.P,J4,9*
G04 #@! TO.N,/MODULE7_TEMP2*
X201168000Y-49784000D03*
G04 #@! TO.P,J4,10*
G04 #@! TO.N,/MODULE7_TEMP1*
X203708000Y-48514000D03*
G04 #@! TO.P,J4,11*
G04 #@! TO.N,/CELL7_VOLT*
X201168000Y-47244000D03*
G04 #@! TO.P,J4,12*
G04 #@! TO.N,/MODULE6_TEMP2*
X203708000Y-45974000D03*
G04 #@! TO.P,J4,13*
G04 #@! TO.N,/MODULE6_TEMP1*
X201168000Y-44704000D03*
G04 #@! TO.P,J4,14*
G04 #@! TO.N,/CELL9_VOLT*
X203708000Y-43434000D03*
G04 #@! TO.P,J4,15*
G04 #@! TO.N,/MODULE10_TEMP1*
X201168000Y-42164000D03*
G04 #@! TO.P,J4,16*
G04 #@! TO.N,/CELL10_VOLT*
X203708000Y-40894000D03*
G04 #@! TO.P,J4,17*
G04 #@! TO.N,/V+*
X201168000Y-39624000D03*
G04 #@! TO.P,J4,18*
G04 #@! TO.N,/VREG*
X203708000Y-38354000D03*
G04 #@! TO.P,J4,19*
G04 #@! TO.N,GND*
X201168000Y-37084000D03*
G04 #@! TO.P,J4,20*
G04 #@! TO.N,Net-(J4-Pad20)*
X203708000Y-35814000D03*
D10*
G04 #@! TO.P,J4,21*
G04 #@! TO.N,N/C*
X202968000Y-61344000D03*
G04 #@! TD*
D18*
G04 #@! TO.P,U1,25*
G04 #@! TO.N,/~DIS~1*
X146339000Y-48037500D03*
G04 #@! TO.P,U1,1*
G04 #@! TO.N,Net-(C11-Pad1)*
X134839000Y-55502500D03*
G04 #@! TO.P,U1,2*
G04 #@! TO.N,Net-(C1-Pad1)*
X135339000Y-55502500D03*
G04 #@! TO.P,U1,3*
G04 #@! TO.N,Net-(U1-Pad3)*
X135839000Y-55502500D03*
G04 #@! TO.P,U1,4*
G04 #@! TO.N,Net-(C1-Pad1)*
X136339000Y-55502500D03*
G04 #@! TO.P,U1,5*
G04 #@! TO.N,/~DIS~10*
X136839000Y-55502500D03*
G04 #@! TO.P,U1,6*
G04 #@! TO.N,Net-(C1-Pad2)*
X137339000Y-55502500D03*
G04 #@! TO.P,U1,7*
G04 #@! TO.N,/~DIS~9*
X137839000Y-55502500D03*
G04 #@! TO.P,U1,8*
G04 #@! TO.N,Net-(C2-Pad2)*
X138339000Y-55502500D03*
G04 #@! TO.P,U1,9*
G04 #@! TO.N,/~DIS~8*
X138839000Y-55502500D03*
G04 #@! TO.P,U1,10*
G04 #@! TO.N,Net-(C3-Pad2)*
X139339000Y-55502500D03*
G04 #@! TO.P,U1,11*
G04 #@! TO.N,/~DIS~7*
X139839000Y-55502500D03*
G04 #@! TO.P,U1,12*
G04 #@! TO.N,Net-(C4-Pad2)*
X140339000Y-55502500D03*
G04 #@! TO.P,U1,13*
G04 #@! TO.N,/~DIS~6*
X140839000Y-55502500D03*
G04 #@! TO.P,U1,14*
G04 #@! TO.N,Net-(C5-Pad2)*
X141339000Y-55502500D03*
G04 #@! TO.P,U1,15*
G04 #@! TO.N,Net-(U1-Pad15)*
X141839000Y-55502500D03*
G04 #@! TO.P,U1,16*
G04 #@! TO.N,Net-(C5-Pad2)*
X142339000Y-55502500D03*
G04 #@! TO.P,U1,17*
G04 #@! TO.N,/~DIS~5*
X142839000Y-55502500D03*
G04 #@! TO.P,U1,18*
G04 #@! TO.N,Net-(C6-Pad2)*
X143339000Y-55502500D03*
G04 #@! TO.P,U1,19*
G04 #@! TO.N,/~DIS~4*
X143839000Y-55502500D03*
G04 #@! TO.P,U1,20*
G04 #@! TO.N,Net-(C7-Pad2)*
X144339000Y-55502500D03*
G04 #@! TO.P,U1,21*
G04 #@! TO.N,/~DIS~3*
X144839000Y-55502500D03*
G04 #@! TO.P,U1,22*
G04 #@! TO.N,Net-(C8-Pad2)*
X145339000Y-55502500D03*
G04 #@! TO.P,U1,23*
G04 #@! TO.N,/~DIS~2*
X145839000Y-55502500D03*
G04 #@! TO.P,U1,24*
G04 #@! TO.N,Net-(C10-Pad1)*
X146339000Y-55502500D03*
G04 #@! TO.P,U1,26*
G04 #@! TO.N,Net-(C10-Pad2)*
X145839000Y-48037500D03*
G04 #@! TO.P,U1,27*
G04 #@! TO.N,/TEMP_SENSE*
X145339000Y-48037500D03*
G04 #@! TO.P,U1,28*
G04 #@! TO.N,Net-(U1-Pad28)*
X144839000Y-48037500D03*
G04 #@! TO.P,U1,29*
G04 #@! TO.N,Net-(U1-Pad29)*
X144339000Y-48037500D03*
G04 #@! TO.P,U1,30*
G04 #@! TO.N,GND*
X143839000Y-48037500D03*
G04 #@! TO.P,U1,31*
G04 #@! TO.N,Net-(U1-Pad31)*
X143339000Y-48037500D03*
G04 #@! TO.P,U1,32*
G04 #@! TO.N,/SDA*
X142839000Y-48037500D03*
G04 #@! TO.P,U1,33*
G04 #@! TO.N,/SCL*
X142339000Y-48037500D03*
G04 #@! TO.P,U1,34*
G04 #@! TO.N,Net-(C12-Pad1)*
X141839000Y-48037500D03*
G04 #@! TO.P,U1,35*
G04 #@! TO.N,Net-(C13-Pad1)*
X141339000Y-48037500D03*
G04 #@! TO.P,U1,36*
G04 #@! TO.N,GND*
X140839000Y-48037500D03*
G04 #@! TO.P,U1,37*
G04 #@! TO.N,/VREG*
X140339000Y-48037500D03*
G04 #@! TO.P,U1,38*
G04 #@! TO.N,Net-(Q11-Pad1)*
X139839000Y-48037500D03*
G04 #@! TO.P,U1,39*
G04 #@! TO.N,Net-(U1-Pad39)*
X139339000Y-48037500D03*
G04 #@! TO.P,U1,40*
G04 #@! TO.N,/VREG*
X138839000Y-48037500D03*
G04 #@! TO.P,U1,41*
G04 #@! TO.N,/IMA*
X138339000Y-48037500D03*
G04 #@! TO.P,U1,42*
G04 #@! TO.N,/IPA*
X137839000Y-48037500D03*
G04 #@! TO.P,U1,43*
G04 #@! TO.N,Net-(U1-Pad43)*
X137339000Y-48037500D03*
G04 #@! TO.P,U1,44*
G04 #@! TO.N,Net-(U1-Pad44)*
X136839000Y-48037500D03*
G04 #@! TO.P,U1,45*
G04 #@! TO.N,Net-(R43-Pad1)*
X136339000Y-48037500D03*
G04 #@! TO.P,U1,46*
G04 #@! TO.N,Net-(R43-Pad2)*
X135839000Y-48037500D03*
G04 #@! TO.P,U1,47*
G04 #@! TO.N,/IMB*
X135339000Y-48037500D03*
G04 #@! TO.P,U1,48*
G04 #@! TO.N,/IPB*
X134839000Y-48037500D03*
G04 #@! TD*
D13*
G04 #@! TO.P,C1,1*
G04 #@! TO.N,Net-(C1-Pad1)*
X113200000Y-32950000D03*
G04 #@! TO.P,C1,2*
G04 #@! TO.N,Net-(C1-Pad2)*
X111200000Y-32950000D03*
G04 #@! TD*
D12*
G04 #@! TO.P,R1,2*
G04 #@! TO.N,/CELL1_VOLT*
X110750000Y-34950000D03*
G04 #@! TO.P,R1,1*
G04 #@! TO.N,Net-(D1-Pad1)*
X112650000Y-34950000D03*
G04 #@! TD*
G04 #@! TO.P,R21,1*
G04 #@! TO.N,/~DIS~10*
X124000000Y-33950000D03*
G04 #@! TO.P,R21,2*
G04 #@! TO.N,Net-(Q1-Pad1)*
X122100000Y-33950000D03*
G04 #@! TD*
G04 #@! TO.P,R31,1*
G04 #@! TO.N,/CELL0_VOLT*
X116700000Y-32900000D03*
G04 #@! TO.P,R31,2*
G04 #@! TO.N,Net-(C1-Pad1)*
X114800000Y-32900000D03*
G04 #@! TD*
D19*
G04 #@! TO.P,D1,2*
G04 #@! TO.N,Net-(D1-Pad2)*
X116500000Y-34900000D03*
G04 #@! TO.P,D1,1*
G04 #@! TO.N,Net-(D1-Pad1)*
X114300000Y-34900000D03*
G04 #@! TD*
D20*
G04 #@! TO.P,U2,1*
G04 #@! TO.N,/SCL*
X135750000Y-63750000D03*
G04 #@! TO.P,U2,2*
G04 #@! TO.N,GND*
X136700000Y-63750000D03*
G04 #@! TO.P,U2,3*
G04 #@! TO.N,/SDA*
X137650000Y-63750000D03*
G04 #@! TO.P,U2,4*
G04 #@! TO.N,/VREG*
X137650000Y-61550000D03*
G04 #@! TO.P,U2,5*
G04 #@! TO.N,GND*
X135750000Y-61550000D03*
G04 #@! TD*
D21*
G04 #@! TO.P,R58,1*
G04 #@! TO.N,/VREF2*
X195326000Y-32258000D03*
G04 #@! TO.P,R58,2*
G04 #@! TO.N,/MODULE6_TEMP1*
X195326000Y-34158000D03*
G04 #@! TD*
G04 #@! TO.P,R70,2*
G04 #@! TO.N,/MODULE7_TEMP1*
X192532000Y-34158000D03*
G04 #@! TO.P,R70,1*
G04 #@! TO.N,/VREF2*
X192532000Y-32258000D03*
G04 #@! TD*
G04 #@! TO.P,R77,1*
G04 #@! TO.N,/VREF2*
X189992000Y-32390000D03*
G04 #@! TO.P,R77,2*
G04 #@! TO.N,/MODULE8_TEMP1*
X189992000Y-34290000D03*
G04 #@! TD*
G04 #@! TO.P,R50,1*
G04 #@! TO.N,/VREF2*
X197300000Y-41000000D03*
G04 #@! TO.P,R50,2*
G04 #@! TO.N,/MODULE5_TEMP1*
X197300000Y-42900000D03*
G04 #@! TD*
G04 #@! TO.P,R54,2*
G04 #@! TO.N,/MODULE5_TEMP2*
X197104000Y-38862000D03*
G04 #@! TO.P,R54,1*
G04 #@! TO.N,/VREF2*
X197104000Y-36962000D03*
G04 #@! TD*
G04 #@! TO.P,R66,1*
G04 #@! TO.N,/VREF2*
X194564000Y-35946000D03*
G04 #@! TO.P,R66,2*
G04 #@! TO.N,/MODULE6_TEMP2*
X194564000Y-37846000D03*
G04 #@! TD*
G04 #@! TO.P,R74,2*
G04 #@! TO.N,/MODULE7_TEMP2*
X192024000Y-38288000D03*
G04 #@! TO.P,R74,1*
G04 #@! TO.N,/VREF2*
X192024000Y-36388000D03*
G04 #@! TD*
G04 #@! TO.P,R80,1*
G04 #@! TO.N,/VREF2*
X189484000Y-36454000D03*
G04 #@! TO.P,R80,2*
G04 #@! TO.N,/MODULE8_TEMP2*
X189484000Y-38354000D03*
G04 #@! TD*
D13*
G04 #@! TO.P,C22,1*
G04 #@! TO.N,/VREG*
X192627000Y-49022000D03*
G04 #@! TO.P,C22,2*
G04 #@! TO.N,GND*
X190627000Y-49022000D03*
G04 #@! TD*
G04 #@! TO.P,C2,1*
G04 #@! TO.N,Net-(C1-Pad2)*
X113093500Y-38989000D03*
G04 #@! TO.P,C2,2*
G04 #@! TO.N,Net-(C2-Pad2)*
X111093500Y-38989000D03*
G04 #@! TD*
G04 #@! TO.P,C4,2*
G04 #@! TO.N,Net-(C4-Pad2)*
X111250000Y-53600000D03*
G04 #@! TO.P,C4,1*
G04 #@! TO.N,Net-(C3-Pad2)*
X113250000Y-53600000D03*
G04 #@! TD*
G04 #@! TO.P,C5,1*
G04 #@! TO.N,Net-(C4-Pad2)*
X113250000Y-60650000D03*
G04 #@! TO.P,C5,2*
G04 #@! TO.N,Net-(C5-Pad2)*
X111250000Y-60650000D03*
G04 #@! TD*
D19*
G04 #@! TO.P,D2,2*
G04 #@! TO.N,Net-(D2-Pad2)*
X116563500Y-42608500D03*
G04 #@! TO.P,D2,1*
G04 #@! TO.N,Net-(D2-Pad1)*
X114363500Y-42608500D03*
G04 #@! TD*
D12*
G04 #@! TO.P,R2,1*
G04 #@! TO.N,Net-(D2-Pad1)*
X112517000Y-42735500D03*
G04 #@! TO.P,R2,2*
G04 #@! TO.N,/CELL2_VOLT*
X110617000Y-42735500D03*
G04 #@! TD*
G04 #@! TO.P,R22,1*
G04 #@! TO.N,/~DIS~9*
X124250000Y-40650000D03*
G04 #@! TO.P,R22,2*
G04 #@! TO.N,Net-(Q2-Pad1)*
X122350000Y-40650000D03*
G04 #@! TD*
G04 #@! TO.P,R32,2*
G04 #@! TO.N,Net-(C1-Pad2)*
X114800000Y-38989000D03*
G04 #@! TO.P,R32,1*
G04 #@! TO.N,/CELL1_VOLT*
X116700000Y-38989000D03*
G04 #@! TD*
D19*
G04 #@! TO.P,D3,2*
G04 #@! TO.N,Net-(D3-Pad2)*
X116700000Y-48650000D03*
G04 #@! TO.P,D3,1*
G04 #@! TO.N,Net-(D3-Pad1)*
X114500000Y-48650000D03*
G04 #@! TD*
D12*
G04 #@! TO.P,R3,1*
G04 #@! TO.N,Net-(D3-Pad1)*
X112700000Y-48650000D03*
G04 #@! TO.P,R3,2*
G04 #@! TO.N,/CELL3_VOLT*
X110800000Y-48650000D03*
G04 #@! TD*
G04 #@! TO.P,R23,2*
G04 #@! TO.N,Net-(Q3-Pad1)*
X122500000Y-47550000D03*
G04 #@! TO.P,R23,1*
G04 #@! TO.N,/~DIS~8*
X124400000Y-47550000D03*
G04 #@! TD*
G04 #@! TO.P,R33,1*
G04 #@! TO.N,/CELL2_VOLT*
X116136500Y-45593000D03*
G04 #@! TO.P,R33,2*
G04 #@! TO.N,Net-(C2-Pad2)*
X114236500Y-45593000D03*
G04 #@! TD*
D14*
G04 #@! TO.P,Q4,3*
G04 #@! TO.N,Net-(D4-Pad2)*
X118650000Y-55950000D03*
G04 #@! TO.P,Q4,2*
G04 #@! TO.N,/CELL3_VOLT*
X118650000Y-53850000D03*
G04 #@! TO.P,Q4,1*
G04 #@! TO.N,Net-(Q4-Pad1)*
X120650000Y-54900000D03*
G04 #@! TD*
D12*
G04 #@! TO.P,R24,1*
G04 #@! TO.N,/~DIS~7*
X124350000Y-55050000D03*
G04 #@! TO.P,R24,2*
G04 #@! TO.N,Net-(Q4-Pad1)*
X122450000Y-55050000D03*
G04 #@! TD*
G04 #@! TO.P,R34,2*
G04 #@! TO.N,Net-(C3-Pad2)*
X114950000Y-53850000D03*
G04 #@! TO.P,R34,1*
G04 #@! TO.N,/CELL3_VOLT*
X116850000Y-53850000D03*
G04 #@! TD*
D19*
G04 #@! TO.P,D4,2*
G04 #@! TO.N,Net-(D4-Pad2)*
X116509800Y-56870600D03*
G04 #@! TO.P,D4,1*
G04 #@! TO.N,Net-(D4-Pad1)*
X114309800Y-56870600D03*
G04 #@! TD*
G04 #@! TO.P,D5,2*
G04 #@! TO.N,Net-(D5-Pad2)*
X116804800Y-63220600D03*
G04 #@! TO.P,D5,1*
G04 #@! TO.N,Net-(D5-Pad1)*
X114604800Y-63220600D03*
G04 #@! TD*
D12*
G04 #@! TO.P,R5,1*
G04 #@! TO.N,Net-(D5-Pad1)*
X112877600Y-63296800D03*
G04 #@! TO.P,R5,2*
G04 #@! TO.N,/CELL5_VOLT*
X110977600Y-63296800D03*
G04 #@! TD*
G04 #@! TO.P,R25,1*
G04 #@! TO.N,/~DIS~6*
X124300000Y-61850000D03*
G04 #@! TO.P,R25,2*
G04 #@! TO.N,Net-(Q5-Pad1)*
X122400000Y-61850000D03*
G04 #@! TD*
G04 #@! TO.P,R35,2*
G04 #@! TO.N,Net-(C4-Pad2)*
X114950000Y-60650000D03*
G04 #@! TO.P,R35,1*
G04 #@! TO.N,/CELL4_VOLT*
X116850000Y-60650000D03*
G04 #@! TD*
D13*
G04 #@! TO.P,C11,1*
G04 #@! TO.N,Net-(C11-Pad1)*
X129050000Y-50650000D03*
G04 #@! TO.P,C11,2*
G04 #@! TO.N,GND*
X131050000Y-50650000D03*
G04 #@! TD*
D12*
G04 #@! TO.P,R42,1*
G04 #@! TO.N,/V+*
X131760000Y-52832000D03*
G04 #@! TO.P,R42,2*
G04 #@! TO.N,Net-(C11-Pad1)*
X129860000Y-52832000D03*
G04 #@! TD*
D21*
G04 #@! TO.P,R45,1*
G04 #@! TO.N,/VREG*
X132397500Y-61282500D03*
G04 #@! TO.P,R45,2*
G04 #@! TO.N,/SDA*
X132397500Y-63182500D03*
G04 #@! TD*
G04 #@! TO.P,R47,2*
G04 #@! TO.N,/VREG*
X140144500Y-61854000D03*
G04 #@! TO.P,R47,1*
G04 #@! TO.N,/SCL*
X140144500Y-63754000D03*
G04 #@! TD*
G04 #@! TO.P,R43,1*
G04 #@! TO.N,Net-(R43-Pad1)*
X131572000Y-46736000D03*
G04 #@! TO.P,R43,2*
G04 #@! TO.N,Net-(R43-Pad2)*
X131572000Y-48636000D03*
G04 #@! TD*
G04 #@! TO.P,R44,2*
G04 #@! TO.N,GND*
X128778000Y-48636000D03*
G04 #@! TO.P,R44,1*
G04 #@! TO.N,Net-(R43-Pad1)*
X128778000Y-46736000D03*
G04 #@! TD*
D22*
G04 #@! TO.P,C14,2*
G04 #@! TO.N,GND*
X133000000Y-41600000D03*
G04 #@! TO.P,C14,1*
G04 #@! TO.N,/VREG*
X133000000Y-43600000D03*
G04 #@! TD*
G04 #@! TO.P,C15,1*
G04 #@! TO.N,Net-(C15-Pad1)*
X135000000Y-41650000D03*
G04 #@! TO.P,C15,2*
G04 #@! TO.N,GND*
X135000000Y-43650000D03*
G04 #@! TD*
D21*
G04 #@! TO.P,R46,1*
G04 #@! TO.N,/V+*
X139450000Y-43600000D03*
G04 #@! TO.P,R46,2*
G04 #@! TO.N,Net-(C15-Pad1)*
X139450000Y-41700000D03*
G04 #@! TD*
D22*
G04 #@! TO.P,C12,2*
G04 #@! TO.N,GND*
X144850000Y-41550000D03*
G04 #@! TO.P,C12,1*
G04 #@! TO.N,Net-(C12-Pad1)*
X144850000Y-43550000D03*
G04 #@! TD*
G04 #@! TO.P,C13,1*
G04 #@! TO.N,Net-(C13-Pad1)*
X142700000Y-43550000D03*
G04 #@! TO.P,C13,2*
G04 #@! TO.N,GND*
X142700000Y-41550000D03*
G04 #@! TD*
D13*
G04 #@! TO.P,C6,1*
G04 #@! TO.N,Net-(C5-Pad2)*
X164020500Y-62738000D03*
G04 #@! TO.P,C6,2*
G04 #@! TO.N,Net-(C6-Pad2)*
X166020500Y-62738000D03*
G04 #@! TD*
G04 #@! TO.P,C7,2*
G04 #@! TO.N,Net-(C7-Pad2)*
X165550000Y-55850000D03*
G04 #@! TO.P,C7,1*
G04 #@! TO.N,Net-(C6-Pad2)*
X163550000Y-55850000D03*
G04 #@! TD*
G04 #@! TO.P,C8,1*
G04 #@! TO.N,Net-(C7-Pad2)*
X163350000Y-48700000D03*
G04 #@! TO.P,C8,2*
G04 #@! TO.N,Net-(C8-Pad2)*
X165350000Y-48700000D03*
G04 #@! TD*
G04 #@! TO.P,C9,1*
G04 #@! TO.N,Net-(C8-Pad2)*
X163750000Y-41950000D03*
G04 #@! TO.P,C9,2*
G04 #@! TO.N,Net-(C10-Pad1)*
X165750000Y-41950000D03*
G04 #@! TD*
G04 #@! TO.P,C10,2*
G04 #@! TO.N,Net-(C10-Pad2)*
X163848800Y-35458400D03*
G04 #@! TO.P,C10,1*
G04 #@! TO.N,Net-(C10-Pad1)*
X161848800Y-35458400D03*
G04 #@! TD*
D12*
G04 #@! TO.P,R10,2*
G04 #@! TO.N,/CELL10_VOLT*
X163950000Y-32850000D03*
G04 #@! TO.P,R10,1*
G04 #@! TO.N,Net-(D10-Pad1)*
X162050000Y-32850000D03*
G04 #@! TD*
G04 #@! TO.P,R30,1*
G04 #@! TO.N,/~DIS~1*
X150350000Y-33900000D03*
G04 #@! TO.P,R30,2*
G04 #@! TO.N,Net-(Q10-Pad1)*
X152250000Y-33900000D03*
G04 #@! TD*
G04 #@! TO.P,R40,2*
G04 #@! TO.N,Net-(C10-Pad1)*
X160020000Y-35407600D03*
G04 #@! TO.P,R40,1*
G04 #@! TO.N,/CELL9_VOLT*
X158120000Y-35407600D03*
G04 #@! TD*
D21*
G04 #@! TO.P,R41,1*
G04 #@! TO.N,/CELL10_VOLT*
X165950000Y-33050000D03*
G04 #@! TO.P,R41,2*
G04 #@! TO.N,Net-(C10-Pad2)*
X165950000Y-34950000D03*
G04 #@! TD*
D12*
G04 #@! TO.P,R9,2*
G04 #@! TO.N,/CELL9_VOLT*
X165950000Y-39900000D03*
G04 #@! TO.P,R9,1*
G04 #@! TO.N,Net-(D9-Pad1)*
X164050000Y-39900000D03*
G04 #@! TD*
G04 #@! TO.P,R29,1*
G04 #@! TO.N,/~DIS~2*
X152650000Y-40750000D03*
G04 #@! TO.P,R29,2*
G04 #@! TO.N,Net-(Q9-Pad1)*
X154550000Y-40750000D03*
G04 #@! TD*
G04 #@! TO.P,R39,1*
G04 #@! TO.N,/CELL8_VOLT*
X160050000Y-41900000D03*
G04 #@! TO.P,R39,2*
G04 #@! TO.N,Net-(C8-Pad2)*
X161950000Y-41900000D03*
G04 #@! TD*
G04 #@! TO.P,R8,1*
G04 #@! TO.N,Net-(D8-Pad1)*
X163957000Y-46164500D03*
G04 #@! TO.P,R8,2*
G04 #@! TO.N,/CELL8_VOLT*
X165857000Y-46164500D03*
G04 #@! TD*
G04 #@! TO.P,R28,2*
G04 #@! TO.N,Net-(Q8-Pad1)*
X154300000Y-47700000D03*
G04 #@! TO.P,R28,1*
G04 #@! TO.N,/~DIS~3*
X152400000Y-47700000D03*
G04 #@! TD*
G04 #@! TO.P,R38,1*
G04 #@! TO.N,/CELL7_VOLT*
X159900000Y-48750000D03*
G04 #@! TO.P,R38,2*
G04 #@! TO.N,Net-(C7-Pad2)*
X161800000Y-48750000D03*
G04 #@! TD*
G04 #@! TO.P,R7,1*
G04 #@! TO.N,Net-(D7-Pad1)*
X164000000Y-53850000D03*
G04 #@! TO.P,R7,2*
G04 #@! TO.N,/CELL7_VOLT*
X165900000Y-53850000D03*
G04 #@! TD*
G04 #@! TO.P,R27,1*
G04 #@! TO.N,/~DIS~4*
X152550000Y-54650000D03*
G04 #@! TO.P,R27,2*
G04 #@! TO.N,Net-(Q7-Pad1)*
X154450000Y-54650000D03*
G04 #@! TD*
G04 #@! TO.P,R37,2*
G04 #@! TO.N,Net-(C6-Pad2)*
X161800000Y-55800000D03*
G04 #@! TO.P,R37,1*
G04 #@! TO.N,/CELL6_VOLT*
X159900000Y-55800000D03*
G04 #@! TD*
G04 #@! TO.P,R6,1*
G04 #@! TO.N,Net-(D6-Pad1)*
X164150000Y-60550000D03*
G04 #@! TO.P,R6,2*
G04 #@! TO.N,/CELL6_VOLT*
X166050000Y-60550000D03*
G04 #@! TD*
G04 #@! TO.P,R26,2*
G04 #@! TO.N,Net-(Q6-Pad1)*
X154450000Y-61600000D03*
G04 #@! TO.P,R26,1*
G04 #@! TO.N,/~DIS~5*
X152550000Y-61600000D03*
G04 #@! TD*
G04 #@! TO.P,R36,1*
G04 #@! TO.N,/CELL5_VOLT*
X160000000Y-62550000D03*
G04 #@! TO.P,R36,2*
G04 #@! TO.N,Net-(C5-Pad2)*
X161900000Y-62550000D03*
G04 #@! TD*
D19*
G04 #@! TO.P,D6,1*
G04 #@! TO.N,Net-(D6-Pad1)*
X162369500Y-59944000D03*
G04 #@! TO.P,D6,2*
G04 #@! TO.N,Net-(D6-Pad2)*
X160169500Y-59944000D03*
G04 #@! TD*
G04 #@! TO.P,D7,2*
G04 #@! TO.N,Net-(D7-Pad2)*
X160150000Y-53750000D03*
G04 #@! TO.P,D7,1*
G04 #@! TO.N,Net-(D7-Pad1)*
X162350000Y-53750000D03*
G04 #@! TD*
G04 #@! TO.P,D8,1*
G04 #@! TO.N,Net-(D8-Pad1)*
X162242500Y-46101000D03*
G04 #@! TO.P,D8,2*
G04 #@! TO.N,Net-(D8-Pad2)*
X160042500Y-46101000D03*
G04 #@! TD*
G04 #@! TO.P,D9,2*
G04 #@! TO.N,Net-(D9-Pad2)*
X160150000Y-39950000D03*
G04 #@! TO.P,D9,1*
G04 #@! TO.N,Net-(D9-Pad1)*
X162350000Y-39950000D03*
G04 #@! TD*
G04 #@! TO.P,D10,2*
G04 #@! TO.N,Net-(D10-Pad2)*
X158150000Y-32850000D03*
G04 #@! TO.P,D10,1*
G04 #@! TO.N,Net-(D10-Pad1)*
X160350000Y-32850000D03*
G04 #@! TD*
D22*
G04 #@! TO.P,C21,1*
G04 #@! TO.N,/VREG*
X56769000Y-28829000D03*
G04 #@! TO.P,C21,2*
G04 #@! TO.N,GND*
X56769000Y-30829000D03*
G04 #@! TD*
D21*
G04 #@! TO.P,R49,2*
G04 #@! TO.N,/MODULE1_TEMP1*
X63627000Y-30231000D03*
G04 #@! TO.P,R49,1*
G04 #@! TO.N,/VREF2*
X63627000Y-32131000D03*
G04 #@! TD*
D12*
G04 #@! TO.P,R53,1*
G04 #@! TO.N,/VREF2*
X67437000Y-30861000D03*
G04 #@! TO.P,R53,2*
G04 #@! TO.N,/MODULE1_TEMP2*
X65537000Y-30861000D03*
G04 #@! TD*
G04 #@! TO.P,R65,2*
G04 #@! TO.N,/MODULE2_TEMP2*
X69723000Y-29337000D03*
G04 #@! TO.P,R65,1*
G04 #@! TO.N,/VREF2*
X71623000Y-29337000D03*
G04 #@! TD*
G04 #@! TO.P,R73,1*
G04 #@! TO.N,/VREF2*
X67945000Y-25273000D03*
G04 #@! TO.P,R73,2*
G04 #@! TO.N,/MODULE3_TEMP2*
X66045000Y-25273000D03*
G04 #@! TD*
G04 #@! TO.P,R79,1*
G04 #@! TO.N,/VREF2*
X67686000Y-23114000D03*
G04 #@! TO.P,R79,2*
G04 #@! TO.N,/MODULE4_TEMP2*
X65786000Y-23114000D03*
G04 #@! TD*
G04 #@! TO.P,R57,2*
G04 #@! TO.N,/MODULE2_TEMP1*
X65791000Y-28575000D03*
G04 #@! TO.P,R57,1*
G04 #@! TO.N,/VREF2*
X67691000Y-28575000D03*
G04 #@! TD*
G04 #@! TO.P,R69,1*
G04 #@! TO.N,/VREF2*
X71623000Y-26797000D03*
G04 #@! TO.P,R69,2*
G04 #@! TO.N,/MODULE3_TEMP1*
X69723000Y-26797000D03*
G04 #@! TD*
G04 #@! TO.P,R76,1*
G04 #@! TO.N,/VREF2*
X71247000Y-24257000D03*
G04 #@! TO.P,R76,2*
G04 #@! TO.N,/MODULE4_TEMP1*
X69347000Y-24257000D03*
G04 #@! TD*
D13*
G04 #@! TO.P,C23,1*
G04 #@! TO.N,/VREG*
X64127380Y-69405500D03*
G04 #@! TO.P,C23,2*
G04 #@! TO.N,GND*
X62127380Y-69405500D03*
G04 #@! TD*
D22*
G04 #@! TO.P,C24,1*
G04 #@! TO.N,/TEMP_SENSE*
X69367380Y-61463500D03*
G04 #@! TO.P,C24,2*
G04 #@! TO.N,GND*
X69367380Y-59463500D03*
G04 #@! TD*
D21*
G04 #@! TO.P,R82,1*
G04 #@! TO.N,/TEMP_SENSE*
X67267380Y-61563500D03*
G04 #@! TO.P,R82,2*
G04 #@! TO.N,Net-(R82-Pad2)*
X67267380Y-59663500D03*
G04 #@! TD*
D12*
G04 #@! TO.P,R55,2*
G04 #@! TO.N,/MODULE9_TEMP2*
X72133380Y-69850000D03*
G04 #@! TO.P,R55,1*
G04 #@! TO.N,/VREF2*
X74033380Y-69850000D03*
G04 #@! TD*
G04 #@! TO.P,R67,1*
G04 #@! TO.N,/VREF2*
X74033380Y-66357500D03*
G04 #@! TO.P,R67,2*
G04 #@! TO.N,/MODULE10_TEMP2*
X72133380Y-66357500D03*
G04 #@! TD*
G04 #@! TO.P,R75,2*
G04 #@! TO.N,Net-(R75-Pad2)*
X75811380Y-62801500D03*
G04 #@! TO.P,R75,1*
G04 #@! TO.N,/VREF2*
X77711380Y-62801500D03*
G04 #@! TD*
G04 #@! TO.P,R81,1*
G04 #@! TO.N,/VREF2*
X74033380Y-60515500D03*
G04 #@! TO.P,R81,2*
G04 #@! TO.N,Net-(R81-Pad2)*
X72133380Y-60515500D03*
G04 #@! TD*
D21*
G04 #@! TO.P,R51,1*
G04 #@! TO.N,/VREF2*
X69117380Y-70863500D03*
G04 #@! TO.P,R51,2*
G04 #@! TO.N,/MODULE9_TEMP1*
X69117380Y-68963500D03*
G04 #@! TD*
D12*
G04 #@! TO.P,R59,1*
G04 #@! TO.N,/VREF2*
X78033880Y-68516500D03*
G04 #@! TO.P,R59,2*
G04 #@! TO.N,/MODULE10_TEMP1*
X76133880Y-68516500D03*
G04 #@! TD*
G04 #@! TO.P,R71,2*
G04 #@! TO.N,Net-(R71-Pad2)*
X75943380Y-64833500D03*
G04 #@! TO.P,R71,1*
G04 #@! TO.N,/VREF2*
X77843380Y-64833500D03*
G04 #@! TD*
G04 #@! TO.P,R78,1*
G04 #@! TO.N,/VREF2*
X73901380Y-63309500D03*
G04 #@! TO.P,R78,2*
G04 #@! TO.N,Net-(R78-Pad2)*
X72001380Y-63309500D03*
G04 #@! TD*
D13*
G04 #@! TO.P,C16,1*
G04 #@! TO.N,Net-(C16-Pad1)*
X76854000Y-40686500D03*
G04 #@! TO.P,C16,2*
G04 #@! TO.N,GND*
X78854000Y-40686500D03*
G04 #@! TD*
D12*
G04 #@! TO.P,R61,1*
G04 #@! TO.N,/IPA*
X73154000Y-40736500D03*
G04 #@! TO.P,R61,2*
G04 #@! TO.N,Net-(C16-Pad1)*
X75054000Y-40736500D03*
G04 #@! TD*
D13*
G04 #@! TO.P,C17,2*
G04 #@! TO.N,GND*
X77104000Y-47486500D03*
G04 #@! TO.P,C17,1*
G04 #@! TO.N,Net-(C17-Pad1)*
X75104000Y-47486500D03*
G04 #@! TD*
G04 #@! TO.P,C18,1*
G04 #@! TO.N,Net-(C18-Pad1)*
X75104000Y-43186500D03*
G04 #@! TO.P,C18,2*
G04 #@! TO.N,GND*
X77104000Y-43186500D03*
G04 #@! TD*
D12*
G04 #@! TO.P,R62,2*
G04 #@! TO.N,/IMA*
X75054000Y-45386500D03*
G04 #@! TO.P,R62,1*
G04 #@! TO.N,Net-(C16-Pad1)*
X76954000Y-45386500D03*
G04 #@! TD*
G04 #@! TO.P,R63,1*
G04 #@! TO.N,/IPB*
X75154000Y-49536500D03*
G04 #@! TO.P,R63,2*
G04 #@! TO.N,Net-(C17-Pad1)*
X77054000Y-49536500D03*
G04 #@! TD*
D13*
G04 #@! TO.P,C19,1*
G04 #@! TO.N,Net-(C19-Pad1)*
X75204000Y-51586500D03*
G04 #@! TO.P,C19,2*
G04 #@! TO.N,GND*
X77204000Y-51586500D03*
G04 #@! TD*
D12*
G04 #@! TO.P,R64,1*
G04 #@! TO.N,Net-(C17-Pad1)*
X75454000Y-53886500D03*
G04 #@! TO.P,R64,2*
G04 #@! TO.N,/IMB*
X73554000Y-53886500D03*
G04 #@! TD*
D23*
G04 #@! TO.P,U4,1*
G04 #@! TO.N,Net-(R82-Pad2)*
X63464400Y-60487800D03*
G04 #@! TO.P,U4,3*
G04 #@! TO.N,Net-(U4-Pad3)*
X63464400Y-61787800D03*
G04 #@! TO.P,U4,2*
G04 #@! TO.N,GND*
X63464400Y-61137800D03*
G04 #@! TO.P,U4,4*
G04 #@! TO.N,Net-(R82-Pad2)*
X65364400Y-61787800D03*
G04 #@! TO.P,U4,5*
G04 #@! TO.N,/VREG*
X65364400Y-60487800D03*
G04 #@! TD*
D24*
G04 #@! TO.P,U3,1*
G04 #@! TO.N,/VREF2*
X142845000Y-38100000D03*
G04 #@! TO.P,U3,3*
G04 #@! TO.N,Net-(C12-Pad1)*
X144145000Y-38100000D03*
G04 #@! TO.P,U3,2*
G04 #@! TO.N,GND*
X143495000Y-38100000D03*
G04 #@! TO.P,U3,4*
G04 #@! TO.N,/VREF2*
X144145000Y-36200000D03*
G04 #@! TO.P,U3,5*
G04 #@! TO.N,/VREG*
X142845000Y-36200000D03*
G04 #@! TD*
D25*
G04 #@! TO.P,U5,1*
G04 #@! TO.N,/MODULE1_TEMP1*
X63814000Y-29019500D03*
G04 #@! TO.P,U5,2*
G04 #@! TO.N,/MODULE1_TEMP2*
X63814000Y-28384500D03*
G04 #@! TO.P,U5,3*
G04 #@! TO.N,/MODULE2_TEMP1*
X63814000Y-27749500D03*
G04 #@! TO.P,U5,4*
G04 #@! TO.N,/MODULE2_TEMP2*
X63814000Y-27114500D03*
G04 #@! TO.P,U5,5*
G04 #@! TO.N,/MODULE3_TEMP1*
X63814000Y-26479500D03*
G04 #@! TO.P,U5,6*
G04 #@! TO.N,/MODULE3_TEMP2*
X63814000Y-25844500D03*
G04 #@! TO.P,U5,7*
G04 #@! TO.N,/MODULE4_TEMP1*
X63814000Y-25209500D03*
G04 #@! TO.P,U5,8*
G04 #@! TO.N,/MODULE4_TEMP2*
X63814000Y-24574500D03*
G04 #@! TO.P,U5,9*
G04 #@! TO.N,Net-(U4-Pad3)*
X58614000Y-24574500D03*
G04 #@! TO.P,U5,10*
G04 #@! TO.N,GND*
X58614000Y-25209500D03*
G04 #@! TO.P,U5,11*
X58614000Y-25844500D03*
G04 #@! TO.P,U5,12*
X58614000Y-26479500D03*
G04 #@! TO.P,U5,13*
X58614000Y-27114500D03*
G04 #@! TO.P,U5,14*
G04 #@! TO.N,/SDA*
X58614000Y-27749500D03*
G04 #@! TO.P,U5,15*
G04 #@! TO.N,/SCL*
X58614000Y-28384500D03*
G04 #@! TO.P,U5,16*
G04 #@! TO.N,/VREG*
X58614000Y-29019500D03*
G04 #@! TD*
D26*
G04 #@! TO.P,U6,16*
G04 #@! TO.N,/VREG*
X195389500Y-46097500D03*
G04 #@! TO.P,U6,15*
G04 #@! TO.N,/SCL*
X194754500Y-46097500D03*
G04 #@! TO.P,U6,14*
G04 #@! TO.N,/SDA*
X194119500Y-46097500D03*
G04 #@! TO.P,U6,13*
G04 #@! TO.N,/VREG*
X193484500Y-46097500D03*
G04 #@! TO.P,U6,12*
G04 #@! TO.N,GND*
X192849500Y-46097500D03*
G04 #@! TO.P,U6,11*
X192214500Y-46097500D03*
G04 #@! TO.P,U6,10*
X191579500Y-46097500D03*
G04 #@! TO.P,U6,9*
G04 #@! TO.N,Net-(U4-Pad3)*
X190944500Y-46097500D03*
G04 #@! TO.P,U6,8*
G04 #@! TO.N,/MODULE8_TEMP2*
X190944500Y-40897500D03*
G04 #@! TO.P,U6,7*
G04 #@! TO.N,/MODULE8_TEMP1*
X191579500Y-40897500D03*
G04 #@! TO.P,U6,6*
G04 #@! TO.N,/MODULE7_TEMP2*
X192214500Y-40897500D03*
G04 #@! TO.P,U6,5*
G04 #@! TO.N,/MODULE7_TEMP1*
X192849500Y-40897500D03*
G04 #@! TO.P,U6,4*
G04 #@! TO.N,/MODULE6_TEMP2*
X193484500Y-40897500D03*
G04 #@! TO.P,U6,3*
G04 #@! TO.N,/MODULE6_TEMP1*
X194119500Y-40897500D03*
G04 #@! TO.P,U6,2*
G04 #@! TO.N,/MODULE5_TEMP2*
X194754500Y-40897500D03*
G04 #@! TO.P,U6,1*
G04 #@! TO.N,/MODULE5_TEMP1*
X195389500Y-40897500D03*
G04 #@! TD*
D25*
G04 #@! TO.P,U7,1*
G04 #@! TO.N,/MODULE9_TEMP1*
X69529000Y-67691000D03*
G04 #@! TO.P,U7,2*
G04 #@! TO.N,/MODULE9_TEMP2*
X69529000Y-67056000D03*
G04 #@! TO.P,U7,3*
G04 #@! TO.N,/MODULE10_TEMP1*
X69529000Y-66421000D03*
G04 #@! TO.P,U7,4*
G04 #@! TO.N,/MODULE10_TEMP2*
X69529000Y-65786000D03*
G04 #@! TO.P,U7,5*
G04 #@! TO.N,Net-(R71-Pad2)*
X69529000Y-65151000D03*
G04 #@! TO.P,U7,6*
G04 #@! TO.N,Net-(R75-Pad2)*
X69529000Y-64516000D03*
G04 #@! TO.P,U7,7*
G04 #@! TO.N,Net-(R78-Pad2)*
X69529000Y-63881000D03*
G04 #@! TO.P,U7,8*
G04 #@! TO.N,Net-(R81-Pad2)*
X69529000Y-63246000D03*
G04 #@! TO.P,U7,9*
G04 #@! TO.N,Net-(U4-Pad3)*
X64329000Y-63246000D03*
G04 #@! TO.P,U7,10*
G04 #@! TO.N,GND*
X64329000Y-63881000D03*
G04 #@! TO.P,U7,11*
X64329000Y-64516000D03*
G04 #@! TO.P,U7,12*
G04 #@! TO.N,/VREG*
X64329000Y-65151000D03*
G04 #@! TO.P,U7,13*
G04 #@! TO.N,GND*
X64329000Y-65786000D03*
G04 #@! TO.P,U7,14*
G04 #@! TO.N,/SDA*
X64329000Y-66421000D03*
G04 #@! TO.P,U7,15*
G04 #@! TO.N,/SCL*
X64329000Y-67056000D03*
G04 #@! TO.P,U7,16*
G04 #@! TO.N,/VREG*
X64329000Y-67691000D03*
G04 #@! TD*
D27*
G04 #@! TO.P,J1,*
G04 #@! TO.N,*
X47431960Y-45057060D03*
X47431960Y-36675060D03*
D28*
G04 #@! TO.P,J1,1*
G04 #@! TO.N,Net-(J1-Pad1)*
X60131960Y-42771060D03*
D29*
G04 #@! TO.P,J1,2*
G04 #@! TO.N,Net-(J1-Pad2)*
X60131960Y-38961060D03*
G04 #@! TD*
G04 #@! TO.P,J2,2*
G04 #@! TO.N,Net-(J2-Pad2)*
X60154820Y-51996340D03*
D28*
G04 #@! TO.P,J2,1*
G04 #@! TO.N,Net-(J2-Pad1)*
X60154820Y-55806340D03*
D27*
G04 #@! TO.P,J2,*
G04 #@! TO.N,*
X47454820Y-49710340D03*
X47454820Y-58092340D03*
G04 #@! TD*
D30*
G04 #@! TO.N,GND*
X77216000Y-53276500D03*
X78486000Y-47688500D03*
X78486000Y-43370500D03*
X78740000Y-39052500D03*
X65905380Y-64579500D03*
X132588000Y-40132000D03*
X132588000Y-50800000D03*
X58293000Y-30607000D03*
X57277000Y-25273000D03*
X61587380Y-61023500D03*
X62095380Y-67881500D03*
X144953847Y-39704153D03*
X143764000Y-50038000D03*
X141224000Y-50292000D03*
X136906000Y-65278000D03*
X134112000Y-61468000D03*
X189411050Y-48895000D03*
X134874000Y-44958000D03*
X69207380Y-57721500D03*
G04 #@! TO.N,/VREG*
X195326000Y-44196000D03*
X193548000Y-44450000D03*
X142494000Y-34544000D03*
X139700000Y-50038000D03*
X133096000Y-44958000D03*
X56769000Y-27305000D03*
X65397380Y-59245500D03*
X65651380Y-69405500D03*
X66921380Y-65849500D03*
X138874500Y-60896500D03*
X130619500Y-61277500D03*
G04 #@! TO.N,/TEMP_SENSE*
X142566000Y-46164500D03*
X71577200Y-58648600D03*
G04 #@! TO.N,Net-(D1-Pad2)*
X94284800Y-28321000D03*
G04 #@! TO.N,Net-(D2-Pad2)*
X94132400Y-38785800D03*
G04 #@! TO.N,Net-(D3-Pad2)*
X94081600Y-48971200D03*
G04 #@! TO.N,Net-(D4-Pad2)*
X94157800Y-59334400D03*
G04 #@! TO.N,Net-(D5-Pad2)*
X94132400Y-69443600D03*
G04 #@! TO.N,Net-(D6-Pad2)*
X182118000Y-68643500D03*
G04 #@! TO.N,Net-(D7-Pad2)*
X182118000Y-58356500D03*
G04 #@! TO.N,Net-(D8-Pad2)*
X180467000Y-48641000D03*
G04 #@! TO.N,Net-(D9-Pad2)*
X182118000Y-37642800D03*
G04 #@! TO.N,Net-(D10-Pad2)*
X181991000Y-27000200D03*
G04 #@! TO.N,/MODULE2_TEMP2*
X70416847Y-30665847D03*
G04 #@! TO.N,/CELL1_VOLT*
X94132400Y-27127200D03*
G04 #@! TO.N,/CELL2_VOLT*
X94107000Y-37414200D03*
G04 #@! TO.N,/CELL3_VOLT*
X94081600Y-47726600D03*
G04 #@! TO.N,/MODULE5_TEMP1*
X169164000Y-22828510D03*
G04 #@! TO.N,/CELL4_VOLT*
X94157800Y-57810400D03*
G04 #@! TO.N,/MODULE5_TEMP2*
X198755000Y-38100000D03*
G04 #@! TO.N,/CELL6_VOLT*
X182181500Y-70040500D03*
G04 #@! TO.N,/MODULE9_TEMP1*
X70858380Y-71183500D03*
G04 #@! TO.N,/CELL8_VOLT*
X182118000Y-49085500D03*
X185293000Y-51117500D03*
G04 #@! TO.N,/CELL5_VOLT*
X198374000Y-61722000D03*
X94234000Y-64617600D03*
X94132400Y-68351400D03*
G04 #@! TO.N,/CELL7_VOLT*
X182143400Y-59969400D03*
G04 #@! TO.N,/MODULE10_TEMP1*
X76446380Y-70548500D03*
G04 #@! TO.N,/CELL9_VOLT*
X188028858Y-29649142D03*
X182118000Y-38836600D03*
G04 #@! TO.N,/CELL10_VOLT*
X188036200Y-27889200D03*
X182295800Y-32131000D03*
G04 #@! TO.N,/V+*
X139700000Y-45339000D03*
G04 #@! TO.N,/SDA*
X194183000Y-47879000D03*
X142189200Y-52603400D03*
X137957000Y-65303400D03*
X136880600Y-72935000D03*
X141808200Y-61061600D03*
G04 #@! TO.N,/SCL*
X134620000Y-66294000D03*
X194437000Y-43434000D03*
X142367000Y-51181000D03*
X140274904Y-66233904D03*
X138303000Y-72923400D03*
X141055800Y-59309000D03*
G04 #@! TO.N,/VREF2*
X67183000Y-32639000D03*
X64812000Y-33147000D03*
X79621380Y-68389500D03*
X79240380Y-64833500D03*
X63500000Y-33655000D03*
X68666360Y-52552600D03*
G04 #@! TO.N,/IPA*
X137414000Y-45466000D03*
X73152000Y-38481000D03*
G04 #@! TO.N,/IMA*
X138430000Y-45720000D03*
X137858500Y-23558500D03*
G04 #@! TO.N,/IPB*
X135895076Y-71028551D03*
X136728200Y-53619400D03*
G04 #@! TO.N,/IMB*
X138125200Y-70154800D03*
X138125200Y-53213000D03*
G04 #@! TO.N,Net-(U4-Pad3)*
X58801000Y-23622000D03*
X189738000Y-45593000D03*
G04 #@! TD*
D31*
G04 #@! TO.N,Net-(C1-Pad1)*
X114750000Y-32950000D02*
X114800000Y-32900000D01*
X113200000Y-32950000D02*
X114750000Y-32950000D01*
X135339000Y-54502500D02*
X135339000Y-55502500D01*
X135414001Y-54427499D02*
X135339000Y-54502500D01*
X136224001Y-54427499D02*
X135414001Y-54427499D01*
X136339000Y-54542498D02*
X136224001Y-54427499D01*
X136339000Y-55502500D02*
X136339000Y-54542498D01*
X115225001Y-33325001D02*
X114800000Y-32900000D01*
X115639999Y-35825001D02*
X115225001Y-35410003D01*
X119040501Y-35825001D02*
X115639999Y-35825001D01*
X119671499Y-33273999D02*
X119671499Y-35194003D01*
X119671499Y-35194003D02*
X119040501Y-35825001D01*
X121391508Y-31553990D02*
X119671499Y-33273999D01*
X115225001Y-35410003D02*
X115225001Y-33325001D01*
X125027401Y-31553991D02*
X121391508Y-31553990D01*
X135339000Y-55502500D02*
X135339000Y-56462502D01*
X135339000Y-56462502D02*
X135224001Y-56577501D01*
X135224001Y-56577501D02*
X132015501Y-56577501D01*
X132015501Y-56577501D02*
X127311990Y-51873990D01*
X127311990Y-51873990D02*
X127311990Y-33838580D01*
X127311990Y-33838580D02*
X125027401Y-31553991D01*
G04 #@! TO.N,Net-(C1-Pad2)*
X111200000Y-33825000D02*
X111974999Y-34599999D01*
X111200000Y-32950000D02*
X111200000Y-33825000D01*
X113030000Y-37377001D02*
X111974999Y-36322000D01*
X111974999Y-34599999D02*
X111974999Y-36322000D01*
X137339000Y-56598912D02*
X137339000Y-55502500D01*
D32*
X113093500Y-38989000D02*
X114800000Y-38989000D01*
X113093500Y-37440501D02*
X113093500Y-38989000D01*
X113030000Y-37377001D02*
X113093500Y-37440501D01*
X114800000Y-38689000D02*
X114800000Y-38989000D01*
X115960500Y-37528500D02*
X114800000Y-38689000D01*
X123888500Y-37528500D02*
X115960500Y-37528500D01*
X124460000Y-38100000D02*
X123888500Y-37528500D01*
X137339000Y-56598912D02*
X137339000Y-56601740D01*
X137339000Y-56601740D02*
X136461219Y-57479521D01*
X131762500Y-57479521D02*
X131457021Y-57479521D01*
X136461219Y-57479521D02*
X132080000Y-57479521D01*
X132080000Y-57479521D02*
X131762500Y-57479521D01*
X126212600Y-39852600D02*
X125933200Y-39573200D01*
X126212600Y-52222400D02*
X126212600Y-39852600D01*
X131469721Y-57479521D02*
X126212600Y-52222400D01*
D31*
X124460000Y-38100000D02*
X125933200Y-39573200D01*
D32*
X132080000Y-57479521D02*
X131469721Y-57479521D01*
G04 #@! TO.N,Net-(C2-Pad2)*
X111093500Y-39868000D02*
X111093500Y-38989000D01*
X116211056Y-40420011D02*
X111645511Y-40420011D01*
X116410066Y-40221001D02*
X116211056Y-40420011D01*
X111645511Y-40420011D02*
X111093500Y-39868000D01*
X119596001Y-40221001D02*
X116410066Y-40221001D01*
X119761000Y-42735500D02*
X119761000Y-40386000D01*
X119761000Y-40386000D02*
X119596001Y-40221001D01*
X114236500Y-45293000D02*
X114236500Y-45593000D01*
X114840500Y-44689000D02*
X114236500Y-45293000D01*
X114236500Y-45593000D02*
X112522000Y-45593000D01*
X114840500Y-44689000D02*
X114886500Y-44689000D01*
X114886500Y-44689000D02*
X115697000Y-43878500D01*
X118618000Y-43878500D02*
X119761000Y-42735500D01*
D31*
X138339000Y-55502500D02*
X138339000Y-56578500D01*
D32*
X138339000Y-56578500D02*
X138339000Y-56885873D01*
X115697000Y-43878500D02*
X118414800Y-43878500D01*
X118414800Y-43878500D02*
X118618000Y-43878500D01*
X125275990Y-46104190D02*
X123050300Y-43878500D01*
X123050300Y-43878500D02*
X122567700Y-43878500D01*
X138293010Y-56931863D02*
X136837333Y-58387541D01*
X136837333Y-58387541D02*
X131080907Y-58387541D01*
X122567700Y-43878500D02*
X118414800Y-43878500D01*
X131080907Y-58387541D02*
X125275990Y-52582624D01*
X125275990Y-52582624D02*
X125275990Y-46104190D01*
D31*
G04 #@! TO.N,Net-(C3-Pad2)*
X114700000Y-53600000D02*
X114950000Y-53850000D01*
X113250000Y-53600000D02*
X114700000Y-53600000D01*
X139339000Y-56911730D02*
X139339000Y-55502500D01*
X114950000Y-53550000D02*
X115795000Y-52705000D01*
X114950000Y-53850000D02*
X114950000Y-53550000D01*
D32*
X114135500Y-52615500D02*
X115125500Y-51625500D01*
X119634000Y-50095102D02*
X119634000Y-48242898D01*
X113250000Y-53475000D02*
X114109500Y-52615500D01*
X114109500Y-52615500D02*
X114135500Y-52615500D01*
X113250000Y-53600000D02*
X113250000Y-53475000D01*
X115125500Y-51625500D02*
X118103602Y-51625500D01*
X118103602Y-51625500D02*
X119634000Y-50095102D01*
X119634000Y-48242898D02*
X119016102Y-47625000D01*
X119016102Y-47625000D02*
X117856000Y-47625000D01*
X110522000Y-46472000D02*
X110522000Y-45593000D01*
X111176510Y-47126510D02*
X110522000Y-46472000D01*
X117357510Y-47126510D02*
X111176510Y-47126510D01*
X117856000Y-47625000D02*
X117357510Y-47126510D01*
X139339000Y-57170007D02*
X137213447Y-59295561D01*
X139339000Y-56911730D02*
X139339000Y-57170007D01*
D31*
X115795000Y-52705000D02*
X122605800Y-52705000D01*
D32*
X124114232Y-52705000D02*
X122605800Y-52705000D01*
X130704793Y-59295561D02*
X124114232Y-52705000D01*
X131114800Y-59295561D02*
X130704793Y-59295561D01*
X137213447Y-59295561D02*
X131114800Y-59295561D01*
D31*
G04 #@! TO.N,Net-(C4-Pad2)*
X113250000Y-60650000D02*
X114950000Y-60650000D01*
X137985500Y-67183000D02*
X131218002Y-67183000D01*
D32*
X137985500Y-67183000D02*
X139827000Y-67183000D01*
X139827000Y-67183000D02*
X140401770Y-67183000D01*
D31*
X131218002Y-67183000D02*
X123977400Y-59942398D01*
D32*
X123494800Y-59739198D02*
X123291600Y-59942398D01*
X123494800Y-59459798D02*
X123494800Y-59739198D01*
X123647200Y-59891598D02*
X123596400Y-59942398D01*
X123647200Y-59612198D02*
X123647200Y-59891598D01*
D31*
X123647200Y-59612198D02*
X123494800Y-59459798D01*
X123977400Y-59942398D02*
X123647200Y-59612198D01*
D32*
X123291600Y-59942398D02*
X123596400Y-59942398D01*
X123596400Y-59942398D02*
X123977400Y-59942398D01*
D31*
X123494800Y-59459798D02*
X123291600Y-59256598D01*
D32*
X123291600Y-59055000D02*
X123291600Y-59942398D01*
X123291600Y-59256598D02*
X123291600Y-59055000D01*
X111250000Y-54479000D02*
X111250000Y-53600000D01*
X123291600Y-59055000D02*
X123291600Y-54302998D01*
X117805200Y-54584600D02*
X117398800Y-54991000D01*
X116648238Y-54991000D02*
X116362227Y-55277011D01*
X119307199Y-54584600D02*
X117805200Y-54584600D01*
X123061601Y-54072999D02*
X119818800Y-54072999D01*
X119818800Y-54072999D02*
X119307199Y-54584600D01*
X117398800Y-54991000D02*
X116648238Y-54991000D01*
X116362227Y-55277011D02*
X112048011Y-55277011D01*
X123291600Y-54302998D02*
X123061601Y-54072999D01*
X112048011Y-55277011D02*
X111250000Y-54479000D01*
X120956402Y-59942398D02*
X123291600Y-59942398D01*
X119888000Y-61010800D02*
X120956402Y-59942398D01*
X119838302Y-61010800D02*
X119888000Y-61010800D01*
X119458101Y-61391001D02*
X119838302Y-61010800D01*
X118110000Y-61391001D02*
X119458101Y-61391001D01*
X117874000Y-61627001D02*
X118110000Y-61391001D01*
X115627001Y-61627001D02*
X117874000Y-61627001D01*
X114950000Y-60950000D02*
X115627001Y-61627001D01*
X114950000Y-60650000D02*
X114950000Y-60950000D01*
X140339000Y-57509600D02*
X140339000Y-55502500D01*
X139827000Y-67183000D02*
X141478000Y-67183000D01*
X142989211Y-60159811D02*
X140339000Y-57509600D01*
X141478000Y-67183000D02*
X142989211Y-65671789D01*
X142989211Y-65671789D02*
X142989211Y-60159811D01*
G04 #@! TO.N,Net-(C5-Pad2)*
X142339000Y-54498500D02*
X142196500Y-54356000D01*
X142339000Y-55502500D02*
X142339000Y-54498500D01*
X141339000Y-54498500D02*
X141339000Y-55502500D01*
X141481500Y-54356000D02*
X141339000Y-54498500D01*
X142196500Y-54356000D02*
X141481500Y-54356000D01*
D31*
X111250000Y-60650000D02*
X111250000Y-61525000D01*
D32*
X163832500Y-62550000D02*
X164020500Y-62738000D01*
X161900000Y-62550000D02*
X163832500Y-62550000D01*
X161031101Y-59016999D02*
X161353500Y-59339398D01*
X158137399Y-59016999D02*
X161031101Y-59016999D01*
X156972000Y-60182398D02*
X158137399Y-59016999D01*
X161900000Y-61646000D02*
X161900000Y-62550000D01*
X161353500Y-61099500D02*
X161900000Y-61646000D01*
X161353500Y-59339398D02*
X161353500Y-61099500D01*
X144970500Y-66611500D02*
X143004000Y-68578000D01*
X156972000Y-61849000D02*
X156972000Y-60182398D01*
X156504601Y-62577001D02*
X151654801Y-62577001D01*
X156972000Y-61849000D02*
X156972000Y-62109602D01*
X156972000Y-62109602D02*
X156504601Y-62577001D01*
X149004999Y-62577001D02*
X144970500Y-66611500D01*
X151257000Y-62424601D02*
X151104600Y-62577001D01*
X151257000Y-62179200D02*
X151257000Y-62424601D01*
X151654801Y-62577001D02*
X151257000Y-62179200D01*
X151654801Y-62577001D02*
X151104600Y-62577001D01*
X151104600Y-62577001D02*
X149004999Y-62577001D01*
X116684189Y-62081011D02*
X118081189Y-62081011D01*
X118081189Y-62081011D02*
X118237000Y-61925200D01*
X119346302Y-61925200D02*
X119938800Y-62517698D01*
X118237000Y-61925200D02*
X119346302Y-61925200D01*
X111806011Y-62081011D02*
X111726400Y-62001400D01*
X116684189Y-62081011D02*
X111806011Y-62081011D01*
D31*
X111250000Y-61525000D02*
X111726400Y-62001400D01*
D32*
X119938800Y-62517698D02*
X119947098Y-62517698D01*
X126007400Y-68578000D02*
X126085600Y-68578000D01*
X119947098Y-62517698D02*
X126007400Y-68578000D01*
D31*
X126085600Y-68578000D02*
X143004000Y-68578000D01*
D32*
X142339000Y-56506500D02*
X142265400Y-56580100D01*
X142339000Y-55502500D02*
X142339000Y-56506500D01*
X142265400Y-56580100D02*
X142265400Y-58013600D01*
X144018000Y-59766200D02*
X148844000Y-59766200D01*
X142265400Y-58013600D02*
X144018000Y-59766200D01*
X151257000Y-62179200D02*
X148844000Y-59766200D01*
D31*
G04 #@! TO.N,Net-(C6-Pad2)*
X161850000Y-55850000D02*
X161800000Y-55800000D01*
X163550000Y-55850000D02*
X161850000Y-55850000D01*
D32*
X143339000Y-55502500D02*
X143339000Y-56364434D01*
X143339000Y-55502500D02*
X143339000Y-57410800D01*
X143339000Y-57410800D02*
X144297400Y-58369200D01*
X150415802Y-58369200D02*
X151536400Y-57248602D01*
X144297400Y-58369200D02*
X150415802Y-58369200D01*
D31*
X152473202Y-56311800D02*
X151536400Y-57248602D01*
D32*
X166020500Y-62738000D02*
X166774500Y-62738000D01*
X170301991Y-59210509D02*
X182597491Y-59210509D01*
X166774500Y-62738000D02*
X170301991Y-59210509D01*
X182597491Y-59210509D02*
X183134000Y-58674000D01*
X183134000Y-58674000D02*
X183134000Y-58039000D01*
X164450499Y-57629499D02*
X163550000Y-56729000D01*
X163550000Y-56729000D02*
X163550000Y-55850000D01*
X182724499Y-57629499D02*
X164450499Y-57629499D01*
X183134000Y-58039000D02*
X182724499Y-57629499D01*
X153227001Y-55558001D02*
X152473202Y-56311800D01*
X153227001Y-54284397D02*
X153227001Y-55558001D01*
X161077001Y-52888399D02*
X160436402Y-52247800D01*
X155263598Y-52247800D02*
X153227001Y-54284397D01*
X161077001Y-54777001D02*
X161077001Y-52888399D01*
X160436402Y-52247800D02*
X155263598Y-52247800D01*
X161800000Y-55500000D02*
X161077001Y-54777001D01*
X161800000Y-55800000D02*
X161800000Y-55500000D01*
D31*
G04 #@! TO.N,Net-(C7-Pad2)*
X163300000Y-48750000D02*
X163350000Y-48700000D01*
X161800000Y-48750000D02*
X163300000Y-48750000D01*
X166300000Y-55850000D02*
X168148000Y-54002000D01*
X165550000Y-55850000D02*
X166300000Y-55850000D01*
X168148000Y-54002000D02*
X168148000Y-53086000D01*
X168148000Y-53086000D02*
X165608000Y-50546000D01*
X163350000Y-48825000D02*
X163350000Y-48700000D01*
X165071000Y-50546000D02*
X163350000Y-48825000D01*
X165608000Y-50546000D02*
X165071000Y-50546000D01*
X144339000Y-56502500D02*
X144339000Y-55502500D01*
X153035000Y-52197000D02*
X149860000Y-55372000D01*
X154178000Y-52197000D02*
X157099000Y-49276000D01*
X153035000Y-52197000D02*
X154178000Y-52197000D01*
X157099000Y-49276000D02*
X157099000Y-48133000D01*
D32*
X161800000Y-48450000D02*
X161800000Y-48750000D01*
X161122999Y-47772999D02*
X161800000Y-48450000D01*
X157289500Y-47942500D02*
X158686500Y-47942500D01*
X157099000Y-48133000D02*
X157289500Y-47942500D01*
X158686500Y-47942500D02*
X158856001Y-47772999D01*
X158856001Y-47772999D02*
X161122999Y-47772999D01*
X148132800Y-57099200D02*
X149860000Y-55372000D01*
X144935700Y-57099200D02*
X148132800Y-57099200D01*
D31*
X144935700Y-57099200D02*
X144339000Y-56502500D01*
G04 #@! TO.N,Net-(C8-Pad2)*
X163750000Y-42075000D02*
X163750000Y-41950000D01*
X163700000Y-41900000D02*
X163750000Y-41950000D01*
X161950000Y-41900000D02*
X163700000Y-41900000D01*
X146789001Y-54896001D02*
X149996002Y-51689000D01*
X145339000Y-56502500D02*
X145414001Y-56577501D01*
X146789001Y-56512501D02*
X146789001Y-54896001D01*
X146724001Y-56577501D02*
X146789001Y-56512501D01*
X145414001Y-56577501D02*
X146724001Y-56577501D01*
X145339000Y-55502500D02*
X145339000Y-56502500D01*
X151896002Y-51689000D02*
X153525011Y-50059991D01*
X149996002Y-51689000D02*
X151896002Y-51689000D01*
X165172500Y-43497500D02*
X163750000Y-42075000D01*
D32*
X182845001Y-44161001D02*
X182181500Y-43497500D01*
X177605962Y-43497500D02*
X165172500Y-43497500D01*
X182845001Y-49434461D02*
X182845001Y-44161001D01*
X165350000Y-48700000D02*
X166104000Y-48700000D01*
X166104000Y-48700000D02*
X167216501Y-49812501D01*
X182181500Y-43497500D02*
X177605962Y-43497500D01*
X182466961Y-49812501D02*
X182845001Y-49434461D01*
X167216501Y-49812501D02*
X182466961Y-49812501D01*
D31*
X153525011Y-50059991D02*
X153527011Y-46672500D01*
D32*
X153527011Y-46543500D02*
X153527011Y-46672500D01*
X153842511Y-46228000D02*
X153527011Y-46543500D01*
X158686601Y-47340001D02*
X157090603Y-47340001D01*
X155978602Y-46228000D02*
X153842511Y-46228000D01*
X158719102Y-47307500D02*
X158686601Y-47340001D01*
X157090603Y-47340001D02*
X155978602Y-46228000D01*
X164082500Y-47307500D02*
X158719102Y-47307500D01*
X165350000Y-48575000D02*
X164082500Y-47307500D01*
X165350000Y-48700000D02*
X165350000Y-48575000D01*
D31*
G04 #@! TO.N,Net-(C10-Pad1)*
X165750000Y-41825000D02*
X165750000Y-41950000D01*
X164849999Y-40924999D02*
X165750000Y-41825000D01*
X146339000Y-55502500D02*
X146339000Y-54638910D01*
X146339000Y-54638910D02*
X150235900Y-50742010D01*
X150235900Y-50742010D02*
X151579402Y-50742010D01*
X151579402Y-50742010D02*
X153075001Y-49246411D01*
X153075001Y-49246411D02*
X153075001Y-45678589D01*
X153075001Y-45678589D02*
X157828591Y-40924999D01*
X161798000Y-35407600D02*
X161848800Y-35458400D01*
X160020000Y-35407600D02*
X161798000Y-35407600D01*
X157828591Y-40924999D02*
X158267400Y-40924999D01*
X158267400Y-40924999D02*
X157873997Y-40924999D01*
X158267400Y-40924999D02*
X164849999Y-40924999D01*
D32*
X157004798Y-39326802D02*
X157004798Y-40055800D01*
X160020000Y-36311600D02*
X157004798Y-39326802D01*
X160020000Y-35407600D02*
X160020000Y-36311600D01*
D31*
X157873997Y-40924999D02*
X157004798Y-40055800D01*
G04 #@! TO.N,Net-(C10-Pad2)*
X165441600Y-35458400D02*
X165950000Y-34950000D01*
X163848800Y-35458400D02*
X165441600Y-35458400D01*
X147639990Y-35025008D02*
X150533998Y-32131000D01*
X145839000Y-47037500D02*
X147639990Y-45236510D01*
X145839000Y-48037500D02*
X145839000Y-47037500D01*
X147639990Y-45236510D02*
X147639990Y-35025008D01*
X150533998Y-32131000D02*
X153840498Y-32131000D01*
X153840498Y-32131000D02*
X155534499Y-33825001D01*
X155534499Y-33825001D02*
X162356800Y-33825001D01*
X162356800Y-33825001D02*
X162356800Y-33827001D01*
D32*
X163848800Y-34579400D02*
X163848800Y-35458400D01*
X163096401Y-33827001D02*
X163848800Y-34579400D01*
X162356800Y-33827001D02*
X163096401Y-33827001D01*
D31*
G04 #@! TO.N,GND*
X143500000Y-39450000D02*
X143500000Y-39075000D01*
X144850000Y-40800000D02*
X143500000Y-39450000D01*
X144850000Y-41550000D02*
X144850000Y-40800000D01*
X143500000Y-39075000D02*
X143500000Y-38350000D01*
X143500000Y-40000000D02*
X143500000Y-39075000D01*
X142700000Y-40800000D02*
X143500000Y-40000000D01*
X142700000Y-41550000D02*
X142700000Y-40800000D01*
X142700000Y-41550000D02*
X144850000Y-41550000D01*
X77204000Y-51586500D02*
X77204000Y-53264500D01*
X77204000Y-53264500D02*
X77216000Y-53276500D01*
X77104000Y-47486500D02*
X78284000Y-47486500D01*
X78284000Y-47486500D02*
X78486000Y-47688500D01*
X77104000Y-43186500D02*
X78302000Y-43186500D01*
X78302000Y-43186500D02*
X78486000Y-43370500D01*
X78854000Y-40686500D02*
X78854000Y-39166500D01*
X78854000Y-39166500D02*
X78740000Y-39052500D01*
X58803000Y-25820000D02*
X58803000Y-25185000D01*
X58803000Y-25820000D02*
X58803000Y-26455000D01*
X58803000Y-27090000D02*
X58803000Y-26455000D01*
D32*
X64267380Y-64538500D02*
X65864380Y-64538500D01*
X65864380Y-64538500D02*
X65905380Y-64579500D01*
X64267380Y-63903500D02*
X64267380Y-64538500D01*
D31*
X191590000Y-45900000D02*
X192225000Y-45900000D01*
X192225000Y-45900000D02*
X192860000Y-45900000D01*
X135000000Y-43650000D02*
X135344000Y-43650000D01*
X133000000Y-41600000D02*
X133000000Y-40544000D01*
X133000000Y-40544000D02*
X132588000Y-40132000D01*
X131050000Y-50650000D02*
X132438000Y-50650000D01*
X132438000Y-50650000D02*
X132588000Y-50800000D01*
X56769000Y-30829000D02*
X58071000Y-30829000D01*
X58071000Y-30829000D02*
X58293000Y-30607000D01*
X58803000Y-25185000D02*
X57365000Y-25185000D01*
X57365000Y-25185000D02*
X57277000Y-25273000D01*
X61707380Y-61143500D02*
X61587380Y-61023500D01*
X64267380Y-65808500D02*
X64086380Y-65808500D01*
X63517380Y-64538500D02*
X64267380Y-64538500D01*
X63111380Y-64944500D02*
X63517380Y-64538500D01*
X62127380Y-69405500D02*
X62127380Y-67913500D01*
X62127380Y-67913500D02*
X62095380Y-67881500D01*
X144850000Y-41550000D02*
X144850000Y-39808000D01*
X144850000Y-39808000D02*
X144953847Y-39704153D01*
X143839000Y-48037500D02*
X143839000Y-49963000D01*
X143839000Y-49963000D02*
X143764000Y-50038000D01*
X140839000Y-48037500D02*
X140839000Y-49907000D01*
X140839000Y-49907000D02*
X141224000Y-50292000D01*
X136700000Y-63750000D02*
X136700000Y-65072000D01*
X136700000Y-65072000D02*
X136906000Y-65278000D01*
X135750000Y-61550000D02*
X134194000Y-61550000D01*
X134194000Y-61550000D02*
X134112000Y-61468000D01*
X191590000Y-46650000D02*
X191590000Y-45900000D01*
X191590000Y-47184000D02*
X191590000Y-46650000D01*
X190627000Y-48147000D02*
X191590000Y-47184000D01*
X190627000Y-49022000D02*
X190627000Y-48147000D01*
X190627000Y-49022000D02*
X189538050Y-49022000D01*
X189538050Y-49022000D02*
X189411050Y-48895000D01*
X135000000Y-43650000D02*
X135000000Y-44832000D01*
X135000000Y-44832000D02*
X134874000Y-44958000D01*
X129241999Y-49699999D02*
X129709999Y-49699999D01*
X128778000Y-48636000D02*
X128778000Y-49236000D01*
X128778000Y-49236000D02*
X129241999Y-49699999D01*
X129709999Y-49699999D02*
X130302000Y-50292000D01*
X130692000Y-50292000D02*
X131050000Y-50650000D01*
X130302000Y-50292000D02*
X130692000Y-50292000D01*
X69367380Y-59463500D02*
X69367380Y-57881500D01*
X69367380Y-57881500D02*
X69207380Y-57721500D01*
X63111380Y-65402500D02*
X63111380Y-64944500D01*
X63517380Y-65808500D02*
X63111380Y-65402500D01*
X64267380Y-65808500D02*
X63517380Y-65808500D01*
D32*
X61701680Y-61137800D02*
X61587380Y-61023500D01*
X63464400Y-61137800D02*
X61701680Y-61137800D01*
D31*
G04 #@! TO.N,Net-(C11-Pad1)*
X129260000Y-52832000D02*
X129860000Y-52832000D01*
X129050000Y-52622000D02*
X129260000Y-52832000D01*
X129050000Y-50650000D02*
X129050000Y-52622000D01*
X129860000Y-53132000D02*
X129860000Y-52832000D01*
X132230500Y-55502500D02*
X129860000Y-53132000D01*
X133350000Y-55502500D02*
X132230500Y-55502500D01*
X134839000Y-55502500D02*
X133350000Y-55502500D01*
G04 #@! TO.N,Net-(C12-Pad1)*
X141839000Y-47037500D02*
X141839000Y-48037500D01*
X144850000Y-43550000D02*
X144725000Y-43550000D01*
X144625000Y-38350000D02*
X146050000Y-39775000D01*
X144150000Y-38350000D02*
X144625000Y-38350000D01*
X144975000Y-43550000D02*
X144850000Y-43550000D01*
X146050000Y-42475000D02*
X144975000Y-43550000D01*
X146050000Y-39775000D02*
X146050000Y-42475000D01*
D32*
X141839000Y-46736000D02*
X141839000Y-45800238D01*
D31*
X141839000Y-46736000D02*
X141839000Y-47037500D01*
D32*
X142810738Y-44828500D02*
X143446500Y-44828500D01*
X141839000Y-45800238D02*
X142810738Y-44828500D01*
D31*
X144725000Y-43550000D02*
X143446500Y-44828500D01*
G04 #@! TO.N,Net-(C13-Pad1)*
X141339000Y-47037500D02*
X141339000Y-48037500D01*
X141339000Y-45661000D02*
X141339000Y-47037500D01*
X142700000Y-44300000D02*
X141339000Y-45661000D01*
X142700000Y-43550000D02*
X142700000Y-44300000D01*
G04 #@! TO.N,/VREG*
X133125000Y-43600000D02*
X133000000Y-43600000D01*
X142375000Y-36150000D02*
X142850000Y-36150000D01*
X141700000Y-36150000D02*
X142375000Y-36150000D01*
X139300000Y-38550000D02*
X141700000Y-36150000D01*
X139300000Y-38800000D02*
X139300000Y-38550000D01*
D32*
X64127380Y-67853500D02*
X64267380Y-67713500D01*
X64127380Y-69405500D02*
X64127380Y-67853500D01*
D31*
X56935000Y-28995000D02*
X58803000Y-28995000D01*
X56769000Y-28829000D02*
X56935000Y-28995000D01*
X142850000Y-35900000D02*
X142850000Y-36150000D01*
X195400000Y-45900000D02*
X195400000Y-44270000D01*
X195400000Y-44270000D02*
X195326000Y-44196000D01*
X193495000Y-45900000D02*
X193495000Y-44503000D01*
X193495000Y-44503000D02*
X193548000Y-44450000D01*
X142850000Y-36150000D02*
X142850000Y-34900000D01*
X142850000Y-34900000D02*
X142494000Y-34544000D01*
X140339000Y-48037500D02*
X140339000Y-49399000D01*
X140339000Y-49399000D02*
X139700000Y-50038000D01*
X138839000Y-49177000D02*
X139700000Y-50038000D01*
X138839000Y-48037500D02*
X138839000Y-49177000D01*
X133000000Y-43600000D02*
X133000000Y-44862000D01*
X133000000Y-44862000D02*
X133096000Y-44958000D01*
X56769000Y-28829000D02*
X56769000Y-27305000D01*
X65349380Y-59293500D02*
X65397380Y-59245500D01*
X64127380Y-69405500D02*
X65651380Y-69405500D01*
X66102378Y-65849500D02*
X66921380Y-65849500D01*
X64267380Y-65173500D02*
X65426378Y-65173500D01*
X65426378Y-65173500D02*
X66102378Y-65849500D01*
X137650000Y-61550000D02*
X138221000Y-61550000D01*
X138221000Y-61550000D02*
X138874500Y-60896500D01*
X139832000Y-61854000D02*
X138874500Y-60896500D01*
X140144500Y-61854000D02*
X139832000Y-61854000D01*
X193495000Y-46650000D02*
X193495000Y-45900000D01*
X193495000Y-47279000D02*
X193495000Y-46650000D01*
X192627000Y-48147000D02*
X193495000Y-47279000D01*
X192627000Y-49022000D02*
X192627000Y-48147000D01*
D32*
X130624500Y-61282500D02*
X130619500Y-61277500D01*
X132397500Y-61282500D02*
X130624500Y-61282500D01*
X65364400Y-59278480D02*
X65397380Y-59245500D01*
X65364400Y-60487800D02*
X65364400Y-59278480D01*
D31*
G04 #@! TO.N,Net-(C15-Pad1)*
X139150000Y-41700000D02*
X139450000Y-41700000D01*
X137000000Y-39550000D02*
X139150000Y-41700000D01*
X137000000Y-38800000D02*
X137000000Y-39550000D01*
X137000000Y-40050000D02*
X137000000Y-38800000D01*
X137000000Y-40525000D02*
X137000000Y-40050000D01*
X135875000Y-41650000D02*
X137000000Y-40525000D01*
X135000000Y-41650000D02*
X135875000Y-41650000D01*
X139400000Y-41650000D02*
X139450000Y-41700000D01*
X135000000Y-41650000D02*
X139400000Y-41650000D01*
G04 #@! TO.N,Net-(C16-Pad1)*
X76804000Y-40736500D02*
X76854000Y-40686500D01*
X75054000Y-40736500D02*
X76804000Y-40736500D01*
X76954000Y-45086500D02*
X76954000Y-45386500D01*
X76200000Y-44332500D02*
X76954000Y-45086500D01*
X76200000Y-42215500D02*
X76200000Y-44332500D01*
X76854000Y-41561500D02*
X76200000Y-42215500D01*
X76854000Y-40686500D02*
X76854000Y-41561500D01*
G04 #@! TO.N,Net-(C17-Pad1)*
X77029000Y-49536500D02*
X77054000Y-49536500D01*
X75104000Y-47611500D02*
X77029000Y-49536500D01*
X75104000Y-47486500D02*
X75104000Y-47611500D01*
X75454000Y-52986500D02*
X76200000Y-52240500D01*
X75454000Y-53886500D02*
X75454000Y-52986500D01*
X77054000Y-49836500D02*
X77054000Y-49536500D01*
X76200000Y-50690500D02*
X77054000Y-49836500D01*
X76200000Y-52240500D02*
X76200000Y-50690500D01*
G04 #@! TO.N,Net-(C18-Pad1)*
X75104000Y-43311500D02*
X75104000Y-43186500D01*
X74248457Y-44167043D02*
X75104000Y-43311500D01*
X72754677Y-44167043D02*
X74248457Y-44167043D01*
G04 #@! TO.N,Net-(C19-Pad1)*
X75204000Y-51461500D02*
X75204000Y-51586500D01*
X74259543Y-50517043D02*
X75204000Y-51461500D01*
X72754677Y-50517043D02*
X74259543Y-50517043D01*
D32*
G04 #@! TO.N,/TEMP_SENSE*
X69267380Y-61563500D02*
X69367380Y-61463500D01*
X67267380Y-61563500D02*
X69267380Y-61563500D01*
D31*
X69367380Y-61463500D02*
X69492380Y-61463500D01*
X145339000Y-46787000D02*
X145339000Y-48037500D01*
X144653000Y-46101000D02*
X145339000Y-46787000D01*
D32*
X142629500Y-46101000D02*
X142566000Y-46164500D01*
X144653000Y-46101000D02*
X142629500Y-46101000D01*
X69492380Y-61463500D02*
X70855840Y-60100040D01*
X70855840Y-59369960D02*
X71577200Y-58648600D01*
X70855840Y-60100040D02*
X70855840Y-59369960D01*
D31*
G04 #@! TO.N,Net-(D1-Pad1)*
X114250000Y-34950000D02*
X114300000Y-34900000D01*
X112650000Y-34950000D02*
X114250000Y-34950000D01*
G04 #@! TO.N,Net-(D1-Pad2)*
X118362500Y-34900000D02*
X118446500Y-34984000D01*
X116500000Y-34900000D02*
X118362500Y-34900000D01*
X115824000Y-34224000D02*
X116500000Y-34900000D01*
D32*
X115824000Y-32335398D02*
X111492102Y-28003500D01*
X115824000Y-34224000D02*
X115824000Y-32335398D01*
X94684799Y-27921001D02*
X111409603Y-27921001D01*
X111409603Y-27921001D02*
X111492102Y-28003500D01*
X94284800Y-28321000D02*
X94684799Y-27921001D01*
G04 #@! TO.N,Net-(D2-Pad1)*
X114236500Y-42735500D02*
X114363500Y-42608500D01*
X112517000Y-42735500D02*
X114236500Y-42735500D01*
G04 #@! TO.N,Net-(D2-Pad2)*
X116563500Y-41754500D02*
X116563500Y-42608500D01*
X116724000Y-41594000D02*
X116563500Y-41754500D01*
X118541500Y-41594000D02*
X116724000Y-41594000D01*
X115897010Y-41711342D02*
X115897010Y-41983010D01*
X105622679Y-36687199D02*
X109937490Y-41002010D01*
X93758039Y-36687199D02*
X105622679Y-36687199D01*
X116522500Y-42608500D02*
X116563500Y-42608500D01*
X115187679Y-41002010D02*
X115897010Y-41711342D01*
X93379999Y-37065239D02*
X93758039Y-36687199D01*
X115897010Y-41983010D02*
X116522500Y-42608500D01*
X109937490Y-41002010D02*
X115187679Y-41002010D01*
X93379999Y-38033399D02*
X93379999Y-37065239D01*
X94132400Y-38785800D02*
X93379999Y-38033399D01*
D31*
G04 #@! TO.N,Net-(D3-Pad2)*
X118602500Y-48650000D02*
X118646500Y-48694000D01*
X116700000Y-48650000D02*
X118602500Y-48650000D01*
D32*
X116484520Y-47580520D02*
X116700000Y-47796000D01*
X110801120Y-47580520D02*
X116484520Y-47580520D01*
X110185200Y-46964600D02*
X110801120Y-47580520D01*
X94081600Y-48971200D02*
X93354599Y-48244199D01*
X93354599Y-48244199D02*
X93354599Y-47377639D01*
X116700000Y-47796000D02*
X116700000Y-48650000D01*
X93354599Y-47377639D02*
X93767638Y-46964600D01*
X93767638Y-46964600D02*
X110185200Y-46964600D01*
D31*
G04 #@! TO.N,Net-(D3-Pad1)*
X112700000Y-48650000D02*
X114500000Y-48650000D01*
G04 #@! TO.N,Net-(D4-Pad2)*
X118600000Y-55900000D02*
X118650000Y-55950000D01*
D32*
X118650000Y-56604000D02*
X118650000Y-55950000D01*
X118383400Y-56870600D02*
X118650000Y-56604000D01*
X116509800Y-56870600D02*
X118383400Y-56870600D01*
X116509800Y-57724600D02*
X116509800Y-56870600D01*
X115299999Y-58934401D02*
X116509800Y-57724600D01*
X94557799Y-58934401D02*
X115299999Y-58934401D01*
X94157800Y-59334400D02*
X94557799Y-58934401D01*
G04 #@! TO.N,Net-(D4-Pad1)*
X114259000Y-56921400D02*
X114309800Y-56870600D01*
X112369600Y-56921400D02*
X114259000Y-56921400D01*
D31*
G04 #@! TO.N,Net-(D5-Pad2)*
X118682500Y-62700000D02*
X118746500Y-62764000D01*
D32*
X94132400Y-69443600D02*
X94532399Y-69043601D01*
X111835799Y-69043601D02*
X111734600Y-69043601D01*
X116804800Y-63220600D02*
X116804800Y-64074600D01*
X116804800Y-64074600D02*
X111835799Y-69043601D01*
X94532399Y-69043601D02*
X111734600Y-69043601D01*
X118289900Y-63220600D02*
X118746500Y-62764000D01*
X116804800Y-63220600D02*
X118289900Y-63220600D01*
G04 #@! TO.N,Net-(D5-Pad1)*
X114528600Y-63296800D02*
X114604800Y-63220600D01*
X112877600Y-63296800D02*
X114528600Y-63296800D01*
G04 #@! TO.N,Net-(D6-Pad1)*
X162975500Y-60550000D02*
X162369500Y-59944000D01*
X164150000Y-60550000D02*
X162975500Y-60550000D01*
D31*
G04 #@! TO.N,Net-(D6-Pad2)*
X159617500Y-60496000D02*
X160169500Y-59944000D01*
X158097000Y-60496000D02*
X159617500Y-60496000D01*
X160169500Y-60794000D02*
X160169500Y-59944000D01*
X160244501Y-60869001D02*
X160169500Y-60794000D01*
D32*
X182118000Y-68643500D02*
X181718001Y-69043499D01*
X160244501Y-60869001D02*
X161163000Y-61787500D01*
X166804897Y-69043499D02*
X167195500Y-69043499D01*
X161163000Y-63401602D02*
X166804897Y-69043499D01*
X161163000Y-61787500D02*
X161163000Y-63401602D01*
X181718001Y-69043499D02*
X167195500Y-69043499D01*
D31*
G04 #@! TO.N,Net-(D7-Pad1)*
X163900000Y-53750000D02*
X164000000Y-53850000D01*
X162350000Y-53750000D02*
X163900000Y-53750000D01*
G04 #@! TO.N,Net-(D7-Pad2)*
X160074000Y-53674000D02*
X160150000Y-53750000D01*
X158075000Y-53674000D02*
X160074000Y-53674000D01*
D32*
X182118000Y-58356500D02*
X181718001Y-58756499D01*
X160577001Y-54177001D02*
X160150000Y-53750000D01*
X160577001Y-56134935D02*
X160577001Y-54177001D01*
X162608066Y-58166000D02*
X160577001Y-56134935D01*
X168173400Y-58756499D02*
X166782699Y-58756499D01*
X166192200Y-58166000D02*
X162608066Y-58166000D01*
X181718001Y-58756499D02*
X168173400Y-58756499D01*
X166782699Y-58756499D02*
X166192200Y-58166000D01*
X168173400Y-58756499D02*
X167976499Y-58756499D01*
D31*
G04 #@! TO.N,Net-(D8-Pad2)*
X157975000Y-46613000D02*
X157975000Y-45733000D01*
X157975000Y-45733000D02*
X158369000Y-45339000D01*
D32*
X159530500Y-46613000D02*
X160042500Y-46101000D01*
X157975000Y-46613000D02*
X159530500Y-46613000D01*
X164402602Y-45021500D02*
X164973000Y-45591898D01*
X158686500Y-45021500D02*
X164402602Y-45021500D01*
X158369000Y-45339000D02*
X158686500Y-45021500D01*
X164973000Y-45591898D02*
X164973000Y-46863000D01*
X164973000Y-46863000D02*
X165544500Y-47434500D01*
X165544500Y-47434500D02*
X166052500Y-47434500D01*
X167259000Y-48641000D02*
X180467000Y-48641000D01*
X166052500Y-47434500D02*
X167259000Y-48641000D01*
G04 #@! TO.N,Net-(D8-Pad1)*
X162306000Y-46164500D02*
X162242500Y-46101000D01*
X163957000Y-46164500D02*
X162306000Y-46164500D01*
D31*
G04 #@! TO.N,Net-(D9-Pad2)*
X160045000Y-39845000D02*
X160150000Y-39950000D01*
X158229000Y-39845000D02*
X160045000Y-39845000D01*
X164660001Y-38924999D02*
X160325001Y-38924999D01*
X164725001Y-38989999D02*
X164660001Y-38924999D01*
X160150000Y-39100000D02*
X160150000Y-39950000D01*
X164725001Y-40163591D02*
X164725001Y-38989999D01*
X165436411Y-40875001D02*
X164725001Y-40163591D01*
X160325001Y-38924999D02*
X160150000Y-39100000D01*
X168865499Y-40875001D02*
X165436411Y-40875001D01*
D32*
X178885799Y-40875001D02*
X168865499Y-40875001D01*
X182118000Y-37642800D02*
X178885799Y-40875001D01*
D31*
G04 #@! TO.N,Net-(D9-Pad1)*
X164000000Y-39950000D02*
X164050000Y-39900000D01*
X162350000Y-39950000D02*
X164000000Y-39950000D01*
G04 #@! TO.N,Net-(D10-Pad1)*
X160350000Y-32850000D02*
X162050000Y-32850000D01*
G04 #@! TO.N,Net-(D10-Pad2)*
X158147500Y-32852500D02*
X158150000Y-32850000D01*
X155997000Y-32852500D02*
X158147500Y-32852500D01*
X158150000Y-32000000D02*
X158150000Y-32850000D01*
X159670000Y-30480000D02*
X159162000Y-30988000D01*
X168719500Y-30480000D02*
X159670000Y-30480000D01*
X159162000Y-30988000D02*
X158150000Y-32000000D01*
X178511200Y-30480000D02*
X181991000Y-27000200D01*
X168719500Y-30480000D02*
X178511200Y-30480000D01*
D32*
G04 #@! TO.N,Net-(J1-Pad2)*
X64808677Y-45437043D02*
X65392300Y-44853420D01*
X65392300Y-44853420D02*
X65392300Y-41910000D01*
X62443360Y-38961060D02*
X60131960Y-38961060D01*
X65392300Y-41910000D02*
X62443360Y-38961060D01*
D31*
G04 #@! TO.N,Net-(J1-Pad1)*
X60257943Y-42897043D02*
X60131960Y-42771060D01*
X63954677Y-42897043D02*
X60257943Y-42897043D01*
G04 #@! TO.N,Net-(J2-Pad1)*
X63954677Y-49247043D02*
X64404677Y-49247043D01*
D32*
X60154820Y-55806340D02*
X63705740Y-55806340D01*
X63705740Y-55806340D02*
X66339720Y-53172360D01*
X66339720Y-53172360D02*
X66339720Y-50182780D01*
X65403983Y-49247043D02*
X63954677Y-49247043D01*
X66339720Y-50182780D02*
X65403983Y-49247043D01*
D31*
G04 #@! TO.N,Net-(J2-Pad2)*
X60364117Y-51787043D02*
X60154820Y-51996340D01*
X63954677Y-51787043D02*
X60364117Y-51787043D01*
G04 #@! TO.N,/MODULE2_TEMP1*
X65791000Y-28275000D02*
X65791000Y-28575000D01*
X63803000Y-27725000D02*
X64941000Y-27725000D01*
X64941000Y-27725000D02*
X65791000Y-28575000D01*
X66421000Y-30105000D02*
X65791000Y-29475000D01*
X66421000Y-31877000D02*
X66421000Y-30105000D01*
X66003000Y-32295000D02*
X66421000Y-31877000D01*
X66834999Y-33364001D02*
X66003000Y-32532002D01*
X65791000Y-29475000D02*
X65791000Y-28575000D01*
X66003000Y-32532002D02*
X66003000Y-32295000D01*
D32*
X85598000Y-43942000D02*
X87884000Y-41656000D01*
X87884000Y-41656000D02*
X87884000Y-36830000D01*
X84418001Y-33364001D02*
X81407000Y-33364001D01*
X87884000Y-36830000D02*
X84418001Y-33364001D01*
D31*
X81407000Y-33364001D02*
X66834999Y-33364001D01*
G04 #@! TO.N,/MODULE1_TEMP2*
X64553000Y-28360000D02*
X64897000Y-28704000D01*
X63803000Y-28360000D02*
X64553000Y-28360000D01*
X64897000Y-28704000D02*
X64897000Y-29321000D01*
X65537000Y-29961000D02*
X65537000Y-30861000D01*
X64897000Y-29321000D02*
X65537000Y-29961000D01*
X65537000Y-31761000D02*
X65537000Y-30861000D01*
X65537000Y-33495000D02*
X65537000Y-31761000D01*
X66078000Y-34036000D02*
X65537000Y-33495000D01*
X72313002Y-34036000D02*
X66078000Y-34036000D01*
D32*
X86575001Y-40424999D02*
X85598000Y-41402000D01*
X86575001Y-37172001D02*
X86575001Y-40424999D01*
X83439000Y-34036000D02*
X86575001Y-37172001D01*
X72313002Y-34036000D02*
X83439000Y-34036000D01*
D31*
G04 #@! TO.N,/MODULE1_TEMP1*
X63803000Y-30055000D02*
X63627000Y-30231000D01*
X63803000Y-28995000D02*
X63803000Y-30055000D01*
X63627000Y-30231000D02*
X63327000Y-30231000D01*
X63327000Y-30231000D02*
X62611000Y-30947000D01*
X62611000Y-30947000D02*
X62611000Y-32890180D01*
X83693000Y-38862000D02*
X85598000Y-38862000D01*
D32*
X64140080Y-35433000D02*
X79883000Y-35433000D01*
X83312000Y-38862000D02*
X83693000Y-38862000D01*
X62611000Y-33903920D02*
X64140080Y-35433000D01*
X79883000Y-35433000D02*
X83312000Y-38862000D01*
X62611000Y-32890180D02*
X62611000Y-33903920D01*
D31*
G04 #@! TO.N,/MODULE2_TEMP2*
X68707000Y-28321000D02*
X69723000Y-29337000D01*
X68707000Y-27813000D02*
X68707000Y-28321000D01*
X67984000Y-27090000D02*
X68707000Y-27813000D01*
X63803000Y-27090000D02*
X67984000Y-27090000D01*
D32*
X69723000Y-29337000D02*
X69723000Y-29972000D01*
X69723000Y-29972000D02*
X70416847Y-30665847D01*
D31*
G04 #@! TO.N,/CELL0_VOLT*
X118430500Y-32900000D02*
X118446500Y-32884000D01*
X116700000Y-32900000D02*
X118430500Y-32900000D01*
X116700000Y-32900000D02*
X116700000Y-32600000D01*
X116700000Y-32900000D02*
X116700000Y-31044998D01*
D32*
X85129039Y-44919001D02*
X86435998Y-44919001D01*
X84035001Y-43824963D02*
X85129039Y-44919001D01*
X84035001Y-41109001D02*
X84035001Y-43824963D01*
X83058000Y-40132000D02*
X84035001Y-41109001D01*
X86435998Y-44919001D02*
X88238499Y-43116500D01*
X116700000Y-25069500D02*
X116700000Y-32900000D01*
X88519000Y-42835999D02*
X88519000Y-23812500D01*
X114174530Y-22544030D02*
X116700000Y-25069500D01*
X88238499Y-43116500D02*
X88519000Y-42835999D01*
X88519000Y-23812500D02*
X89787470Y-22544030D01*
X89787470Y-22544030D02*
X114174530Y-22544030D01*
D31*
G04 #@! TO.N,/CELL1_VOLT*
X118535500Y-39500000D02*
X118541500Y-39494000D01*
X110648000Y-35052000D02*
X110750000Y-34950000D01*
X109474000Y-35052000D02*
X110648000Y-35052000D01*
X110750000Y-35850000D02*
X110750000Y-34950000D01*
X111975001Y-37075001D02*
X110750000Y-35850000D01*
D32*
X109474000Y-35052000D02*
X99508038Y-35052000D01*
X99508038Y-35052000D02*
X93506999Y-29050961D01*
X111975001Y-39584103D02*
X111975001Y-37075001D01*
X112356899Y-39966001D02*
X111975001Y-39584103D01*
X116022999Y-39966001D02*
X112356899Y-39966001D01*
X116700000Y-39289000D02*
X116022999Y-39966001D01*
X116700000Y-38989000D02*
X116700000Y-39289000D01*
X118036500Y-38989000D02*
X118541500Y-39494000D01*
X116700000Y-38989000D02*
X118036500Y-38989000D01*
X93506999Y-27752601D02*
X94132400Y-27127200D01*
X93506999Y-29050961D02*
X93506999Y-27752601D01*
D31*
G04 #@! TO.N,/MODULE3_TEMP1*
X69723000Y-26797000D02*
X68453000Y-26797000D01*
X68111000Y-26455000D02*
X63803000Y-26455000D01*
X68453000Y-26797000D02*
X68111000Y-26455000D01*
D32*
X81661000Y-46355000D02*
X83058000Y-47752000D01*
X81661000Y-37973000D02*
X81661000Y-46355000D01*
X63990220Y-35941000D02*
X79629000Y-35941000D01*
X79629000Y-35941000D02*
X81661000Y-37973000D01*
X62103000Y-34053780D02*
X63990220Y-35941000D01*
X62103000Y-33018590D02*
X62103000Y-34053780D01*
D31*
X62103000Y-29977687D02*
X62103000Y-33018590D01*
X63803000Y-26455000D02*
X63211240Y-26455000D01*
X63211240Y-26455000D02*
X62611000Y-27055240D01*
X62611000Y-27055240D02*
X62611000Y-29469687D01*
X62611000Y-29469687D02*
X62103000Y-29977687D01*
G04 #@! TO.N,/CELL2_VOLT*
X118640500Y-46600000D02*
X118646500Y-46594000D01*
D32*
X110013000Y-42735500D02*
X108933500Y-41656000D01*
X110617000Y-42735500D02*
X110013000Y-42735500D01*
X108933500Y-41656000D02*
X107442000Y-41656000D01*
X118646500Y-45940000D02*
X118646500Y-46594000D01*
X118299500Y-45593000D02*
X118646500Y-45940000D01*
X116136500Y-45593000D02*
X118299500Y-45593000D01*
X111596480Y-41456020D02*
X110617000Y-42435500D01*
X114999622Y-41456020D02*
X111596480Y-41456020D01*
X116136500Y-45593000D02*
X116136500Y-45893000D01*
X115357000Y-46672500D02*
X111887898Y-46672500D01*
X111887898Y-46672500D02*
X111506000Y-46290602D01*
X111506000Y-46290602D02*
X111506000Y-44895398D01*
X110617000Y-42435500D02*
X110617000Y-42735500D01*
X111506000Y-44895398D02*
X112332398Y-44069000D01*
X115443000Y-41899398D02*
X114999622Y-41456020D01*
X112332398Y-44069000D02*
X114691602Y-44069000D01*
X114691602Y-44069000D02*
X115443000Y-43317602D01*
X116136500Y-45893000D02*
X115357000Y-46672500D01*
X115443000Y-43317602D02*
X115443000Y-41899398D01*
X98348800Y-41656000D02*
X98552000Y-41656000D01*
X94107000Y-37414200D02*
X98348800Y-41656000D01*
X107442000Y-41656000D02*
X98552000Y-41656000D01*
D31*
G04 #@! TO.N,/MODULE3_TEMP2*
X65498000Y-25820000D02*
X66045000Y-25273000D01*
X63803000Y-25820000D02*
X65498000Y-25820000D01*
D32*
X81153000Y-48387000D02*
X83058000Y-50292000D01*
X79248000Y-36449000D02*
X81153000Y-38354000D01*
X63832740Y-36449000D02*
X79248000Y-36449000D01*
X61537010Y-34153270D02*
X63832740Y-36449000D01*
X81153000Y-38354000D02*
X81153000Y-48387000D01*
D31*
X61537010Y-29905326D02*
X61537233Y-29905103D01*
X61537233Y-29905103D02*
X61849000Y-29591000D01*
X61537010Y-34153270D02*
X61537010Y-29905326D01*
D32*
X63803000Y-25820000D02*
X63207000Y-25820000D01*
X63207000Y-25820000D02*
X62103000Y-26924000D01*
X62103000Y-29338449D02*
X61922009Y-29519440D01*
X62103000Y-26924000D02*
X62103000Y-29338449D01*
D31*
X61922009Y-29519440D02*
X61537233Y-29905103D01*
G04 #@! TO.N,/MODULE4_TEMP1*
X68747000Y-24257000D02*
X69347000Y-24257000D01*
X65481000Y-24257000D02*
X68747000Y-24257000D01*
X63803000Y-25185000D02*
X64553000Y-25185000D01*
D32*
X80645000Y-49324962D02*
X80645000Y-38608000D01*
X82374038Y-51054000D02*
X81866038Y-50546000D01*
X81866038Y-50546000D02*
X80645000Y-49324962D01*
X84678762Y-51562000D02*
X85598000Y-51562000D01*
X84385763Y-51269001D02*
X84678762Y-51562000D01*
X82589039Y-51269001D02*
X84385763Y-51269001D01*
X81866038Y-50546000D02*
X82589039Y-51269001D01*
X80645000Y-38608000D02*
X79248000Y-37211000D01*
X60980031Y-33802031D02*
X60980031Y-33655000D01*
X60986031Y-33808031D02*
X60980031Y-33802031D01*
D31*
X60980031Y-33655000D02*
X60978031Y-33800031D01*
D32*
X60986031Y-34341431D02*
X63855600Y-37211000D01*
X60986031Y-33808031D02*
X60986031Y-34341431D01*
X79248000Y-37211000D02*
X63855600Y-37211000D01*
D31*
X63803000Y-25185000D02*
X63047350Y-25185000D01*
D32*
X61467999Y-26764351D02*
X61467999Y-27178000D01*
D31*
X61465998Y-29337592D02*
X61087000Y-29716590D01*
D32*
X61467999Y-27178000D02*
X61467999Y-29333218D01*
D31*
X60980031Y-33655000D02*
X60978031Y-31223969D01*
X61088410Y-29718000D02*
X61294542Y-29509048D01*
X61294542Y-29509048D02*
X61467999Y-29335591D01*
D32*
X63047350Y-25185000D02*
X61467999Y-26764351D01*
D31*
X61467999Y-29335591D02*
X61467999Y-29333218D01*
D32*
X61467999Y-26767181D02*
X61467999Y-27178000D01*
D31*
X60978031Y-29828379D02*
X61088410Y-29718000D01*
X60978031Y-31223969D02*
X60978031Y-29828379D01*
X61467999Y-29333218D02*
X61465998Y-29335229D01*
X61465998Y-29335229D02*
X61465998Y-29337592D01*
D32*
X65367999Y-24370001D02*
X65367999Y-24675001D01*
X65481000Y-24257000D02*
X65367999Y-24370001D01*
X64833500Y-25209500D02*
X63941000Y-25209500D01*
X65367999Y-24675001D02*
X64833500Y-25209500D01*
D31*
G04 #@! TO.N,/CELL3_VOLT*
X116850000Y-53850000D02*
X118650000Y-53850000D01*
X116850000Y-54150000D02*
X116850000Y-53850000D01*
X116174999Y-54825001D02*
X116850000Y-54150000D01*
X113260003Y-54825001D02*
X116174999Y-54825001D01*
X110800000Y-48650000D02*
X110800000Y-50911410D01*
X110800000Y-50911410D02*
X112268000Y-52379410D01*
X112268000Y-52379410D02*
X112268000Y-54216999D01*
X112268000Y-54216999D02*
X112776000Y-54724999D01*
X112776000Y-54724999D02*
X113160001Y-54724999D01*
X113160001Y-54724999D02*
X113260003Y-54825001D01*
D32*
X95005000Y-48650000D02*
X111116000Y-48650000D01*
X94081600Y-47726600D02*
X95005000Y-48650000D01*
D31*
G04 #@! TO.N,/MODULE4_TEMP2*
X60579000Y-29588180D02*
X60706000Y-29461180D01*
X60706000Y-29461180D02*
X60706000Y-29464000D01*
X60706000Y-29464000D02*
X60528021Y-29641979D01*
X60528021Y-29641979D02*
X60528021Y-34112021D01*
X60528021Y-34112021D02*
X60532021Y-34112021D01*
X65186000Y-23114000D02*
X65786000Y-23114000D01*
X64839000Y-23114000D02*
X65186000Y-23114000D01*
D32*
X85598000Y-53182762D02*
X85598000Y-54102000D01*
X84138249Y-51723011D02*
X85598000Y-53182762D01*
X82203011Y-51723011D02*
X84138249Y-51723011D01*
X80137000Y-49784000D02*
X80264000Y-49784000D01*
X80137000Y-38862000D02*
X80137000Y-49784000D01*
X80264000Y-49784000D02*
X82203011Y-51723011D01*
X60532021Y-34112021D02*
X60532021Y-34601161D01*
X60532021Y-34601161D02*
X63649860Y-37719000D01*
X63649860Y-37719000D02*
X78994000Y-37719000D01*
X78994000Y-37719000D02*
X80137000Y-38862000D01*
D31*
X60706000Y-29461180D02*
X61015989Y-29151191D01*
X61015989Y-29151191D02*
X61015988Y-26577122D01*
D32*
X63941000Y-24012000D02*
X63941000Y-24574500D01*
X64839000Y-23114000D02*
X63941000Y-24012000D01*
X62738000Y-24574500D02*
X61017988Y-26294512D01*
X63941000Y-24574500D02*
X62738000Y-24574500D01*
X61017988Y-26575122D02*
X61015988Y-26577122D01*
X61017988Y-26294512D02*
X61017988Y-26575122D01*
D31*
G04 #@! TO.N,/MODULE5_TEMP1*
X197050000Y-42900000D02*
X197300000Y-42900000D01*
X195400000Y-41250000D02*
X197050000Y-42900000D01*
X195400000Y-40900000D02*
X195400000Y-41250000D01*
X169164000Y-22669500D02*
X169164000Y-22828510D01*
X169418000Y-22923500D02*
X169164000Y-22828510D01*
X170714501Y-24220001D02*
X169418000Y-22923500D01*
X181574411Y-24220001D02*
X170714501Y-24220001D01*
X188342410Y-30988000D02*
X181574411Y-24220001D01*
X195641002Y-30988000D02*
X188342410Y-30988000D01*
X197300000Y-42900000D02*
X197766410Y-42900000D01*
X199930011Y-40736399D02*
X199930011Y-35277009D01*
X197766410Y-42900000D02*
X199930011Y-40736399D01*
X199930011Y-35277009D02*
X195641002Y-30988000D01*
G04 #@! TO.N,/CELL4_VOLT*
X118732500Y-60650000D02*
X118746500Y-60664000D01*
X116850000Y-60650000D02*
X118732500Y-60650000D01*
X116850000Y-60650000D02*
X116850000Y-60950000D01*
X116850000Y-60650000D02*
X116850000Y-60350000D01*
D32*
X110469600Y-56621400D02*
X110469600Y-56921400D01*
X111147401Y-55943599D02*
X110469600Y-56621400D01*
X117088268Y-55943599D02*
X111147401Y-55943599D01*
X119358202Y-55219600D02*
X117812267Y-55219600D01*
X117812267Y-55219600D02*
X117088268Y-55943599D01*
X119427001Y-55288399D02*
X119358202Y-55219600D01*
X119427001Y-57168999D02*
X119427001Y-55288399D01*
X116850000Y-59746000D02*
X119427001Y-57168999D01*
X116850000Y-60650000D02*
X116850000Y-59746000D01*
X94767400Y-58420000D02*
X94157800Y-57810400D01*
X108367000Y-58420000D02*
X94767400Y-58420000D01*
X109865600Y-56921400D02*
X108367000Y-58420000D01*
X110469600Y-56921400D02*
X109865600Y-56921400D01*
D31*
G04 #@! TO.N,/MODULE5_TEMP2*
X196204000Y-38862000D02*
X197104000Y-38862000D01*
X196053000Y-38862000D02*
X196204000Y-38862000D01*
X194765000Y-40150000D02*
X196053000Y-38862000D01*
X194765000Y-40900000D02*
X194765000Y-40150000D01*
X197104000Y-38862000D02*
X197993000Y-38862000D01*
X197993000Y-38862000D02*
X198755000Y-38100000D01*
G04 #@! TO.N,/CELL6_VOLT*
X159874000Y-55774000D02*
X159900000Y-55800000D01*
X158075000Y-55774000D02*
X159874000Y-55774000D01*
X159900000Y-56100000D02*
X159900000Y-55800000D01*
X166050000Y-60550000D02*
X166050000Y-60850000D01*
D32*
X165193499Y-63624601D02*
X165193499Y-60802501D01*
X169485397Y-67916499D02*
X165193499Y-63624601D01*
X182466961Y-67916499D02*
X169485397Y-67916499D01*
X182845001Y-68294539D02*
X182466961Y-67916499D01*
X165446000Y-60550000D02*
X166050000Y-60550000D01*
X182845001Y-69376999D02*
X182845001Y-68294539D01*
X165193499Y-60802501D02*
X165446000Y-60550000D01*
X182181500Y-70040500D02*
X182845001Y-69376999D01*
X166050000Y-60550000D02*
X166050000Y-60250000D01*
X166050000Y-60250000D02*
X164753400Y-58953400D01*
X162753400Y-58953400D02*
X161188400Y-57388400D01*
X164753400Y-58953400D02*
X162753400Y-58953400D01*
D31*
X161188400Y-57388400D02*
X159900000Y-56100000D01*
D32*
G04 #@! TO.N,/MODULE9_TEMP1*
X69117380Y-67863500D02*
X69267380Y-67713500D01*
X69117380Y-68963500D02*
X69117380Y-67863500D01*
D31*
X70858380Y-70404500D02*
X70858380Y-71183500D01*
X69117380Y-68963500D02*
X69417380Y-68963500D01*
X69417380Y-68963500D02*
X70858380Y-70404500D01*
G04 #@! TO.N,/MODULE9_TEMP2*
X69267380Y-67078500D02*
X70017380Y-67078500D01*
D32*
X76795341Y-71275501D02*
X77208380Y-70862462D01*
X76097419Y-71275501D02*
X76795341Y-71275501D01*
X72133380Y-69550000D02*
X72810381Y-68872999D01*
X72133380Y-69850000D02*
X72133380Y-69550000D01*
X72810381Y-68872999D02*
X74644981Y-68872999D01*
X74644981Y-68872999D02*
X75681870Y-69909888D01*
X75681870Y-69909888D02*
X75681870Y-70859952D01*
X75681870Y-70859952D02*
X76097419Y-71275501D01*
X77208380Y-68389500D02*
X77208380Y-68262500D01*
X77208380Y-70862462D02*
X77208380Y-68389500D01*
D31*
X201168000Y-60931238D02*
X201200000Y-60899238D01*
X201200000Y-60899238D02*
X201200000Y-59980000D01*
X162452490Y-74123990D02*
X162471980Y-74104500D01*
D32*
X160464500Y-72136000D02*
X160693100Y-72364600D01*
X135862248Y-72745600D02*
X136471848Y-72136000D01*
X97716990Y-72799590D02*
X97770980Y-72745600D01*
X97713800Y-72796400D02*
X97716990Y-72799590D01*
X136471848Y-72136000D02*
X160464500Y-72136000D01*
X97770980Y-72745600D02*
X135862248Y-72745600D01*
D31*
X160693100Y-72364600D02*
X162452490Y-74123990D01*
D32*
X95275400Y-72796400D02*
X95554800Y-72796400D01*
X95554800Y-72796400D02*
X97713800Y-72796400D01*
X189219840Y-74104500D02*
X201168000Y-62156340D01*
X188808360Y-74104500D02*
X189219840Y-74104500D01*
D31*
X162471980Y-74104500D02*
X188808360Y-74104500D01*
X201168000Y-62156340D02*
X201168000Y-60931238D01*
D32*
X81600040Y-71755000D02*
X82641440Y-72796400D01*
X77650340Y-66982340D02*
X79692500Y-66982340D01*
X79692500Y-66982340D02*
X81600040Y-68889880D01*
X82641440Y-72796400D02*
X95554800Y-72796400D01*
X77208380Y-68389500D02*
X77208380Y-67424300D01*
X81600040Y-68889880D02*
X81600040Y-71755000D01*
X77208380Y-67424300D02*
X77650340Y-66982340D01*
X72133380Y-68946000D02*
X72133380Y-69850000D01*
X72133380Y-68906778D02*
X72133380Y-68946000D01*
X70282602Y-67056000D02*
X72133380Y-68906778D01*
X69529000Y-67056000D02*
X70282602Y-67056000D01*
D31*
G04 #@! TO.N,/MODULE6_TEMP1*
X194130000Y-40148590D02*
X194130000Y-40900000D01*
X195799991Y-38478599D02*
X194130000Y-40148590D01*
X195799991Y-34509991D02*
X195799991Y-38478599D01*
X195326000Y-34158000D02*
X195448000Y-34158000D01*
X195448000Y-34158000D02*
X195799991Y-34509991D01*
X189657970Y-44276030D02*
X192197970Y-44276030D01*
X194130000Y-42344000D02*
X194130000Y-40900000D01*
X188686050Y-49873640D02*
X188686050Y-45247950D01*
X200280762Y-44740000D02*
X198628000Y-46392762D01*
X201200000Y-44740000D02*
X200280762Y-44740000D01*
X198628000Y-46392762D02*
X198628000Y-48514000D01*
X192197970Y-44276030D02*
X194130000Y-42344000D01*
X188686050Y-45247950D02*
X189657970Y-44276030D01*
X198628000Y-48514000D02*
X196850000Y-50292000D01*
X196850000Y-50292000D02*
X189104410Y-50292000D01*
X189104410Y-50292000D02*
X188686050Y-49873640D01*
G04 #@! TO.N,/CELL8_VOLT*
X160050000Y-42200000D02*
X160050000Y-41900000D01*
X161538000Y-43688000D02*
X160050000Y-42200000D01*
X164592000Y-43688000D02*
X162814000Y-43688000D01*
X165862000Y-44958000D02*
X164592000Y-43688000D01*
X161538000Y-43688000D02*
X162814000Y-43688000D01*
X162814000Y-43688000D02*
X163238000Y-43688000D01*
X203090001Y-58060001D02*
X203090001Y-57548001D01*
X203740000Y-58710000D02*
X203090001Y-58060001D01*
X160005000Y-41945000D02*
X160050000Y-41900000D01*
X158229000Y-41945000D02*
X160005000Y-41945000D01*
D32*
X165862000Y-45255500D02*
X165862000Y-44958000D01*
X165857000Y-45260500D02*
X165862000Y-45255500D01*
X165857000Y-46164500D02*
X165857000Y-45260500D01*
X167767000Y-46164500D02*
X165857000Y-46164500D01*
X168783000Y-47180500D02*
X167767000Y-46164500D01*
X180213000Y-47180500D02*
X168783000Y-47180500D01*
X182118000Y-49085500D02*
X180213000Y-47180500D01*
X190246000Y-56070500D02*
X189928500Y-55753000D01*
D31*
X203090001Y-57548001D02*
X201612500Y-56070500D01*
D32*
X201612500Y-56070500D02*
X190246000Y-56070500D01*
X185293000Y-51117500D02*
X189928500Y-55753000D01*
X189928500Y-55753000D02*
X190050501Y-55875001D01*
D31*
G04 #@! TO.N,/MODULE7_TEMP2*
X192225000Y-38489000D02*
X192024000Y-38288000D01*
X192225000Y-40900000D02*
X192225000Y-38489000D01*
X192225000Y-42217000D02*
X192225000Y-40900000D01*
X191516000Y-42926000D02*
X192225000Y-42217000D01*
X188468000Y-42926000D02*
X191516000Y-42926000D01*
X187336020Y-44057980D02*
X188468000Y-42926000D01*
X188470820Y-51816000D02*
X187336020Y-50681200D01*
X187336020Y-50681200D02*
X187336020Y-44057980D01*
X200518001Y-50433999D02*
X199136000Y-51816000D01*
X201168000Y-49784000D02*
X200518001Y-50433999D01*
X199136000Y-51816000D02*
X188470820Y-51816000D01*
G04 #@! TO.N,/MODULE7_TEMP1*
X192532000Y-34158000D02*
X192908000Y-34158000D01*
X192860000Y-39952000D02*
X192860000Y-40900000D01*
X193294000Y-35520000D02*
X193294000Y-39370000D01*
X192532000Y-34158000D02*
X192532000Y-34758000D01*
X192532000Y-34758000D02*
X193294000Y-35520000D01*
X192860000Y-39804000D02*
X192860000Y-39952000D01*
X193294000Y-39370000D02*
X192860000Y-39804000D01*
X188722000Y-51308000D02*
X187786030Y-50372030D01*
X198268998Y-51308000D02*
X188722000Y-51308000D01*
X187786030Y-50372030D02*
X187786030Y-44623970D01*
X189033990Y-43376010D02*
X191702400Y-43376010D01*
X187786030Y-44623970D02*
X189033990Y-43376010D01*
X192860000Y-42218410D02*
X192860000Y-40900000D01*
X191702400Y-43376010D02*
X192860000Y-42218410D01*
X199462798Y-50114200D02*
X199462798Y-49812802D01*
X199462798Y-50114200D02*
X198268998Y-51308000D01*
X200725600Y-48550000D02*
X201168000Y-48550000D01*
X199462798Y-49812802D02*
X200725600Y-48550000D01*
X203740000Y-48550000D02*
X201168000Y-48550000D01*
G04 #@! TO.N,/CELL5_VOLT*
X159954000Y-62596000D02*
X160000000Y-62550000D01*
X158097000Y-62596000D02*
X159954000Y-62596000D01*
X160000000Y-62550000D02*
X160000000Y-62850000D01*
X158097000Y-65677000D02*
X158097000Y-62596000D01*
X154743990Y-69030010D02*
X158097000Y-65677000D01*
X160000000Y-63450000D02*
X160210500Y-63660500D01*
X160000000Y-62550000D02*
X160000000Y-63450000D01*
X160210500Y-63660500D02*
X160210500Y-70104000D01*
X160210500Y-70104000D02*
X163131500Y-73025000D01*
D32*
X122250200Y-69030010D02*
X121109609Y-70170601D01*
D31*
X122250200Y-69030010D02*
X154743990Y-69030010D01*
D32*
X94132400Y-68351400D02*
X93370400Y-69113400D01*
X93370400Y-69113400D02*
X93370400Y-69764201D01*
X93370400Y-69764201D02*
X93776800Y-70170601D01*
X121109609Y-70170601D02*
X93776800Y-70170601D01*
X110977600Y-63296800D02*
X95554800Y-63296800D01*
X95554800Y-63296800D02*
X94716600Y-64135000D01*
X94716600Y-64135000D02*
X94234000Y-64617600D01*
X94843600Y-64008000D02*
X94716600Y-64135000D01*
X187636685Y-73025000D02*
X187048140Y-73025000D01*
X198374000Y-62287685D02*
X187636685Y-73025000D01*
X198374000Y-61722000D02*
X198374000Y-62287685D01*
D31*
X163131500Y-73025000D02*
X187048140Y-73025000D01*
G04 #@! TO.N,/MODULE6_TEMP2*
X193495000Y-40150000D02*
X193495000Y-40900000D01*
X193495000Y-39931000D02*
X193495000Y-40150000D01*
X194564000Y-37846000D02*
X194564000Y-38862000D01*
X194564000Y-38862000D02*
X193495000Y-39931000D01*
X200370000Y-46010000D02*
X203740000Y-46010000D01*
X199390000Y-46990000D02*
X200370000Y-46010000D01*
X199390000Y-48768000D02*
X199390000Y-46990000D01*
X197358000Y-50800000D02*
X199390000Y-48768000D01*
X188976000Y-50800000D02*
X197358000Y-50800000D01*
X193495000Y-42219820D02*
X191888800Y-43826020D01*
X193495000Y-40900000D02*
X193495000Y-42219820D01*
X191888800Y-43826020D02*
X189345980Y-43826020D01*
X189345980Y-43826020D02*
X188236040Y-44935960D01*
X188236040Y-44935960D02*
X188236040Y-50060040D01*
X188236040Y-50060040D02*
X188976000Y-50800000D01*
G04 #@! TO.N,/MODULE8_TEMP1*
X190754000Y-35052000D02*
X189992000Y-34290000D01*
X190754000Y-38862000D02*
X190754000Y-35052000D01*
X191590000Y-40900000D02*
X191590000Y-39698000D01*
X191590000Y-39698000D02*
X190754000Y-38862000D01*
X201200000Y-52360000D02*
X188378410Y-52360000D01*
X188378410Y-52360000D02*
X186886010Y-50867600D01*
X186886010Y-50867600D02*
X186886010Y-43112400D01*
X186886010Y-43112400D02*
X187834410Y-42164000D01*
X191590000Y-41650000D02*
X191590000Y-40900000D01*
X191076000Y-42164000D02*
X191590000Y-41650000D01*
X187834410Y-42164000D02*
X191076000Y-42164000D01*
G04 #@! TO.N,/CELL7_VOLT*
X159863000Y-48713000D02*
X159900000Y-48750000D01*
X157975000Y-48713000D02*
X159863000Y-48713000D01*
X166156000Y-53594000D02*
X165900000Y-53850000D01*
X165900000Y-52950000D02*
X163496000Y-50546000D01*
X165900000Y-53850000D02*
X165900000Y-52950000D01*
X159900000Y-49050000D02*
X159900000Y-48750000D01*
X161396000Y-50546000D02*
X159900000Y-49050000D01*
X163496000Y-50546000D02*
X161396000Y-50546000D01*
D32*
X182709085Y-59969400D02*
X182143400Y-59969400D01*
X165900000Y-53850000D02*
X165900000Y-54150000D01*
X165900000Y-54150000D02*
X165296000Y-54754000D01*
X165296000Y-54754000D02*
X164996000Y-54754000D01*
X183826685Y-58851800D02*
X182709085Y-59969400D01*
X164722999Y-56976199D02*
X164744400Y-56997600D01*
X164996000Y-54754000D02*
X164722999Y-55027001D01*
X164744400Y-56997600D02*
X183090085Y-56997600D01*
X164722999Y-55027001D02*
X164722999Y-56976199D01*
X183090085Y-56997600D02*
X183826685Y-57734200D01*
X183826685Y-57734200D02*
X183826685Y-58851800D01*
D31*
G04 #@! TO.N,/MODULE8_TEMP2*
X190955000Y-39825000D02*
X189484000Y-38354000D01*
X190955000Y-40900000D02*
X190955000Y-39825000D01*
X190955000Y-40900000D02*
X188462000Y-40900000D01*
X188462000Y-40900000D02*
X186436000Y-42926000D01*
X186436000Y-42926000D02*
X186436000Y-51054000D01*
X189012000Y-53630000D02*
X203740000Y-53630000D01*
X186436000Y-51054000D02*
X189012000Y-53630000D01*
D32*
G04 #@! TO.N,/MODULE10_TEMP1*
X69267380Y-66443500D02*
X70028446Y-66443500D01*
D31*
X76133880Y-68516500D02*
X76133880Y-70236000D01*
X76133880Y-70236000D02*
X76446380Y-70548500D01*
D32*
X75529880Y-68516500D02*
X75021880Y-68008500D01*
X76133880Y-68516500D02*
X75529880Y-68516500D01*
X70383000Y-66421000D02*
X69529000Y-66421000D01*
X71970500Y-68008500D02*
X70383000Y-66421000D01*
X75021880Y-68008500D02*
X71970500Y-68008500D01*
D31*
G04 #@! TO.N,/CELL9_VOLT*
X203200000Y-39624000D02*
X202438000Y-40386000D01*
X202438000Y-42168000D02*
X203740000Y-43470000D01*
X202438000Y-40386000D02*
X202438000Y-42168000D01*
X203708000Y-39624000D02*
X203200000Y-39624000D01*
X203949002Y-39624000D02*
X203708000Y-39624000D01*
X203708000Y-39624000D02*
X204216000Y-39624000D01*
X188976000Y-28702000D02*
X188028858Y-29649142D01*
X165950000Y-39900000D02*
X165950000Y-39000000D01*
X165950000Y-39000000D02*
X164542000Y-37592000D01*
X157664900Y-34952500D02*
X158120000Y-35407600D01*
X155997000Y-34952500D02*
X157664900Y-34952500D01*
D32*
X182845001Y-37293839D02*
X182152562Y-36601400D01*
X182845001Y-38109599D02*
X182845001Y-37293839D01*
X182118000Y-38836600D02*
X182845001Y-38109599D01*
X182152562Y-36601400D02*
X172161200Y-36601400D01*
X168862600Y-39900000D02*
X165950000Y-39900000D01*
X172161200Y-36601400D02*
X168862600Y-39900000D01*
X162675801Y-35999003D02*
X162675801Y-34685201D01*
X164268798Y-37592000D02*
X162675801Y-35999003D01*
X164542000Y-37592000D02*
X164268798Y-37592000D01*
X158120000Y-35107600D02*
X158120000Y-35407600D01*
X158950589Y-34277011D02*
X158120000Y-35107600D01*
X162267611Y-34277011D02*
X158950589Y-34277011D01*
X162675801Y-34685201D02*
X162267611Y-34277011D01*
X199232520Y-33528000D02*
X194406520Y-28702000D01*
X203829920Y-33528000D02*
X199232520Y-33528000D01*
D31*
X188976000Y-28702000D02*
X194406520Y-28702000D01*
D32*
X205221840Y-34919920D02*
X203829920Y-33528000D01*
X205221840Y-38618160D02*
X205221840Y-34919920D01*
D31*
X204216000Y-39624000D02*
X205221840Y-38618160D01*
D32*
G04 #@! TO.N,/MODULE10_TEMP2*
X70021380Y-65808500D02*
X69267380Y-65808500D01*
X70980380Y-65808500D02*
X70021380Y-65808500D01*
X71529380Y-66357500D02*
X70980380Y-65808500D01*
X72133380Y-66357500D02*
X71529380Y-66357500D01*
D31*
X72912880Y-67437000D02*
X72133380Y-66657500D01*
X72133380Y-66657500D02*
X72133380Y-66357500D01*
D32*
X160662067Y-71666100D02*
X160883600Y-71666100D01*
X136220200Y-71678800D02*
X160649367Y-71678800D01*
X160649367Y-71678800D02*
X160662067Y-71666100D01*
X135636000Y-72263000D02*
X136220200Y-71678800D01*
D31*
X160883600Y-71666100D02*
X162750500Y-73533000D01*
D32*
X95910400Y-72263000D02*
X135636000Y-72263000D01*
X95631000Y-72263000D02*
X95910400Y-72263000D01*
X204406500Y-59834780D02*
X205143100Y-59098180D01*
X205143100Y-59098180D02*
X205143100Y-57573100D01*
X205143100Y-57573100D02*
X204696060Y-57126060D01*
D31*
X203740000Y-56170000D02*
X204696060Y-57126060D01*
D32*
X199778620Y-62130940D02*
X188376560Y-73533000D01*
D31*
X162750500Y-73533000D02*
X188376560Y-73533000D01*
D32*
X84010500Y-72263000D02*
X95910400Y-72263000D01*
X80177640Y-66296540D02*
X82756390Y-68875290D01*
X77541120Y-66296540D02*
X80177640Y-66296540D01*
X82756390Y-71008890D02*
X84010500Y-72263000D01*
X76936600Y-66901060D02*
X77541120Y-66296540D01*
X82756390Y-68875290D02*
X82756390Y-71008890D01*
X75775820Y-66901060D02*
X76936600Y-66901060D01*
X75239880Y-67437000D02*
X75775820Y-66901060D01*
X72912880Y-67437000D02*
X75239880Y-67437000D01*
X203250800Y-59834780D02*
X204406500Y-59834780D01*
X199778620Y-60071000D02*
X199778620Y-62130940D01*
X199778620Y-59936380D02*
X199778620Y-60071000D01*
D31*
X199778620Y-59537600D02*
X199778620Y-60071000D01*
X200642220Y-58674000D02*
X199778620Y-59537600D01*
X202031600Y-58674000D02*
X200642220Y-58674000D01*
X203192380Y-59834780D02*
X202031600Y-58674000D01*
X203250800Y-59834780D02*
X203192380Y-59834780D01*
G04 #@! TO.N,/CELL10_VOLT*
X165750000Y-32850000D02*
X165950000Y-33050000D01*
X163950000Y-32850000D02*
X165750000Y-32850000D01*
X165950000Y-33050000D02*
X168816500Y-33050000D01*
X181376800Y-33050000D02*
X182295800Y-32131000D01*
X168816500Y-33050000D02*
X181376800Y-33050000D01*
X203740000Y-40930000D02*
X205320900Y-39349100D01*
D32*
X199547480Y-33042860D02*
X194393820Y-27889200D01*
X203986847Y-33042860D02*
X199547480Y-33042860D01*
D31*
X188036200Y-27889200D02*
X194393820Y-27889200D01*
D32*
X205320900Y-39349100D02*
X205675850Y-38994150D01*
X205675850Y-38994150D02*
X205675850Y-34731863D01*
X205675850Y-34731863D02*
X203986847Y-33042860D01*
D31*
G04 #@! TO.N,/V+*
X139450000Y-44200000D02*
X139450000Y-43600000D01*
X130880998Y-49530000D02*
X129753001Y-48402003D01*
X131760000Y-52832000D02*
X132360000Y-52832000D01*
X135222001Y-45683001D02*
X136193002Y-44712000D01*
X132588000Y-49530000D02*
X130880998Y-49530000D01*
X133313001Y-50255001D02*
X132588000Y-49530000D01*
X133313001Y-51878999D02*
X133313001Y-50255001D01*
X129753001Y-48402003D02*
X129753001Y-48025999D01*
X138938000Y-44712000D02*
X139450000Y-44200000D01*
X129753001Y-48025999D02*
X129138003Y-47411001D01*
X129138003Y-47411001D02*
X127867999Y-47411001D01*
X127762000Y-47305002D02*
X127762000Y-46166998D01*
X127867999Y-47411001D02*
X127762000Y-47305002D01*
X127762000Y-46166998D02*
X128245997Y-45683001D01*
X136193002Y-44712000D02*
X138938000Y-44712000D01*
X132360000Y-52832000D02*
X133313001Y-51878999D01*
X128245997Y-45683001D02*
X135222001Y-45683001D01*
D32*
X139450000Y-45089000D02*
X139700000Y-45339000D01*
X139450000Y-43600000D02*
X139450000Y-45089000D01*
D31*
G04 #@! TO.N,Net-(Q11-Pad1)*
X131572000Y-42024002D02*
X132022999Y-42475001D01*
X131572000Y-39624000D02*
X131572000Y-42024002D01*
X132396000Y-38800000D02*
X131572000Y-39624000D01*
X134700000Y-38800000D02*
X132396000Y-38800000D01*
X132022999Y-42475001D02*
X140963501Y-42475001D01*
X140963501Y-42475001D02*
X141732000Y-43243500D01*
X141732000Y-43243500D02*
X141732000Y-44513500D01*
X140716000Y-46160500D02*
X139839000Y-47037500D01*
X141732000Y-44513500D02*
X140716000Y-45529500D01*
X139839000Y-47037500D02*
X139839000Y-48037500D01*
X140716000Y-45529500D02*
X140716000Y-46160500D01*
G04 #@! TO.N,/~DIS~10*
X136839000Y-55502500D02*
X136839000Y-56462502D01*
X136839000Y-56462502D02*
X136659502Y-56642000D01*
X124000000Y-34850000D02*
X124000000Y-33950000D01*
X126746000Y-37596000D02*
X124000000Y-34850000D01*
X126746000Y-52070000D02*
X126746000Y-37596000D01*
X131703511Y-57027511D02*
X126746000Y-52070000D01*
X136273991Y-57027511D02*
X131703511Y-57027511D01*
X136839000Y-56462502D02*
X136273991Y-57027511D01*
G04 #@! TO.N,Net-(Q1-Pad1)*
X122084000Y-33934000D02*
X122100000Y-33950000D01*
X120446500Y-33934000D02*
X122084000Y-33934000D01*
G04 #@! TO.N,/~DIS~9*
X124250000Y-41827000D02*
X124250000Y-40650000D01*
X137839000Y-55502500D02*
X137839000Y-56642000D01*
D32*
X137839000Y-56743806D02*
X136649276Y-57933531D01*
X137839000Y-56642000D02*
X137839000Y-56743806D01*
X124250000Y-43528800D02*
X124510800Y-43789600D01*
X124250000Y-42900600D02*
X124250000Y-43528800D01*
X124409200Y-43688000D02*
X124510800Y-43789600D01*
D31*
X124250000Y-42900600D02*
X124250000Y-41827000D01*
D32*
X132156200Y-57933531D02*
X131268964Y-57933531D01*
X136649276Y-57933531D02*
X132156200Y-57933531D01*
X126065833Y-52730400D02*
X125730000Y-52394567D01*
X131268964Y-57933531D02*
X126065833Y-52730400D01*
X125730000Y-52394567D02*
X125730000Y-45008800D01*
X125730000Y-45008800D02*
X125374400Y-44653200D01*
X124510800Y-43789600D02*
X125374400Y-44653200D01*
D31*
G04 #@! TO.N,Net-(Q2-Pad1)*
X122244000Y-40544000D02*
X122350000Y-40650000D01*
X120541500Y-40544000D02*
X122244000Y-40544000D01*
D32*
G04 #@! TO.N,/~DIS~8*
X138839000Y-57027940D02*
X137025390Y-58841551D01*
X138839000Y-55502500D02*
X138839000Y-57027940D01*
D31*
X124400000Y-50952400D02*
X124400000Y-47550000D01*
D32*
X131622800Y-58841551D02*
X130892850Y-58841551D01*
X130892850Y-58841551D02*
X124400000Y-52348701D01*
X137025390Y-58841551D02*
X131622800Y-58841551D01*
X124400000Y-52348701D02*
X124400000Y-51943000D01*
X124400000Y-50952400D02*
X124400000Y-51943000D01*
D31*
G04 #@! TO.N,Net-(Q3-Pad1)*
X122406000Y-47644000D02*
X122500000Y-47550000D01*
X120646500Y-47644000D02*
X122406000Y-47644000D01*
G04 #@! TO.N,Net-(Q4-Pad1)*
X122300000Y-54900000D02*
X122450000Y-55050000D01*
X120650000Y-54900000D02*
X122300000Y-54900000D01*
G04 #@! TO.N,/~DIS~7*
X139839000Y-57138000D02*
X139839000Y-55502500D01*
D32*
X139793010Y-57247490D02*
X139793010Y-57358064D01*
X139839000Y-57201500D02*
X139793010Y-57247490D01*
X139839000Y-57138000D02*
X139839000Y-57201500D01*
X139793010Y-57358064D02*
X137401504Y-59749571D01*
X124954000Y-55050000D02*
X124350000Y-55050000D01*
X129653571Y-59749571D02*
X124954000Y-55050000D01*
X137401504Y-59749571D02*
X129653571Y-59749571D01*
D31*
G04 #@! TO.N,/~DIS~6*
X124900000Y-61850000D02*
X130042500Y-66992500D01*
X130042500Y-66992500D02*
X130048000Y-66992500D01*
X130048000Y-66992500D02*
X131127500Y-68072000D01*
X124300000Y-61850000D02*
X124900000Y-61850000D01*
X131127500Y-68072000D02*
X139827000Y-68072000D01*
D32*
X140839000Y-55502500D02*
X140839000Y-57323800D01*
X143443221Y-66386179D02*
X141757400Y-68072000D01*
X140839000Y-57323800D02*
X143443221Y-59928021D01*
X143443221Y-59928021D02*
X143443221Y-66386179D01*
X141757400Y-68072000D02*
X139827000Y-68072000D01*
D31*
G04 #@! TO.N,Net-(Q5-Pad1)*
X122264000Y-61714000D02*
X122400000Y-61850000D01*
X120746500Y-61714000D02*
X122264000Y-61714000D01*
D32*
G04 #@! TO.N,/~DIS~5*
X150952200Y-59098200D02*
X152550000Y-60696000D01*
X144162800Y-59098200D02*
X150952200Y-59098200D01*
X152550000Y-60696000D02*
X152550000Y-61600000D01*
X142884990Y-57820390D02*
X144162800Y-59098200D01*
X142884990Y-56552490D02*
X142884990Y-57820390D01*
X142839000Y-56506500D02*
X142884990Y-56552490D01*
X142839000Y-55502500D02*
X142839000Y-56506500D01*
D31*
G04 #@! TO.N,Net-(Q6-Pad1)*
X156043000Y-61600000D02*
X156097000Y-61546000D01*
X154450000Y-61600000D02*
X156043000Y-61600000D01*
G04 #@! TO.N,Net-(Q7-Pad1)*
X156001000Y-54650000D02*
X156075000Y-54724000D01*
X154450000Y-54650000D02*
X156001000Y-54650000D01*
G04 #@! TO.N,/~DIS~4*
X152550000Y-54650000D02*
X152550000Y-55550000D01*
X152550000Y-55550000D02*
X151026200Y-57073800D01*
D32*
X143839000Y-55502500D02*
X143839000Y-56996400D01*
X143839000Y-56996400D02*
X144627600Y-57785000D01*
X150315000Y-57785000D02*
X150746800Y-57353200D01*
X144627600Y-57785000D02*
X150315000Y-57785000D01*
X150746800Y-57353200D02*
X151026200Y-57073800D01*
D31*
G04 #@! TO.N,/~DIS~3*
X144839000Y-54502500D02*
X144839000Y-55502500D01*
X149811500Y-42003498D02*
X152063998Y-39751000D01*
X149811500Y-49530000D02*
X149811500Y-42003498D01*
X149811500Y-49530000D02*
X144839000Y-54502500D01*
X153236002Y-39751000D02*
X153670000Y-40184998D01*
X152063998Y-39751000D02*
X153236002Y-39751000D01*
X153670000Y-40184998D02*
X153670000Y-43815000D01*
X152400000Y-45085000D02*
X152400000Y-47700000D01*
X153670000Y-43815000D02*
X152400000Y-45085000D01*
G04 #@! TO.N,Net-(Q8-Pad1)*
X155938000Y-47700000D02*
X155975000Y-47663000D01*
X154300000Y-47700000D02*
X155938000Y-47700000D01*
G04 #@! TO.N,Net-(Q9-Pad1)*
X156084000Y-40750000D02*
X156229000Y-40895000D01*
X154550000Y-40750000D02*
X156084000Y-40750000D01*
G04 #@! TO.N,/~DIS~2*
X152650000Y-42168000D02*
X152650000Y-40750000D01*
X145839000Y-55502500D02*
X145839000Y-54502500D01*
X145839000Y-54502500D02*
X149606000Y-50735500D01*
X149606000Y-50735500D02*
X149606000Y-50673000D01*
X149606000Y-50673000D02*
X150876000Y-49403000D01*
X150876000Y-49403000D02*
X150876000Y-43942000D01*
X150876000Y-43942000D02*
X152650000Y-42168000D01*
G04 #@! TO.N,/~DIS~1*
X149750000Y-33900000D02*
X150350000Y-33900000D01*
X148090000Y-35560000D02*
X148090000Y-46728000D01*
X148090000Y-35560000D02*
X149750000Y-33900000D01*
X148090000Y-46728000D02*
X146780500Y-48037500D01*
X146780500Y-48037500D02*
X146526500Y-48037500D01*
D32*
X146339000Y-48037500D02*
X146780500Y-48037500D01*
D31*
G04 #@! TO.N,Net-(Q10-Pad1)*
X153994500Y-33900000D02*
X153997000Y-33902500D01*
X152250000Y-33900000D02*
X153994500Y-33900000D01*
G04 #@! TO.N,Net-(R43-Pad2)*
X135839000Y-47077498D02*
X135839000Y-48037500D01*
X135497502Y-46736000D02*
X135839000Y-47077498D01*
X133772000Y-46736000D02*
X135497502Y-46736000D01*
X131572000Y-48636000D02*
X131872000Y-48636000D01*
X131872000Y-48636000D02*
X133772000Y-46736000D01*
G04 #@! TO.N,Net-(R43-Pad1)*
X136339000Y-46941088D02*
X135625912Y-46228000D01*
X136339000Y-48037500D02*
X136339000Y-46941088D01*
X132472000Y-46736000D02*
X131572000Y-46736000D01*
X132980000Y-46228000D02*
X132472000Y-46736000D01*
X135625912Y-46228000D02*
X132980000Y-46228000D01*
X131572000Y-46736000D02*
X128778000Y-46736000D01*
G04 #@! TO.N,/SDA*
X137650000Y-63750000D02*
X137650000Y-63228000D01*
X64267380Y-66443500D02*
X65018790Y-66443500D01*
X65018790Y-66443500D02*
X67264370Y-68689080D01*
X137650000Y-63259998D02*
X137650000Y-63750000D01*
X142839000Y-48037500D02*
X142839000Y-50186002D01*
X59553000Y-27725000D02*
X58803000Y-27725000D01*
D32*
X54450829Y-22894999D02*
X54357414Y-22988414D01*
X59630001Y-23375039D02*
X59149961Y-22894999D01*
X59630001Y-27647999D02*
X59630001Y-23375039D01*
X59553000Y-27725000D02*
X59630001Y-27647999D01*
X59149961Y-22894999D02*
X54450829Y-22894999D01*
D31*
X53268990Y-24074010D02*
X54357414Y-22988414D01*
X67264370Y-68689080D02*
X67264370Y-71437500D01*
X67264370Y-71710492D02*
X67264370Y-71437500D01*
D32*
X133301500Y-63182500D02*
X132397500Y-63182500D01*
X133492000Y-62992000D02*
X134620000Y-62992000D01*
X133492000Y-62992000D02*
X133301500Y-63182500D01*
X134620000Y-62992000D02*
X134874000Y-62738000D01*
D31*
X137160000Y-62738000D02*
X134874000Y-62738000D01*
X137650000Y-63228000D02*
X137160000Y-62738000D01*
D32*
X137650000Y-63750000D02*
X138229000Y-63750000D01*
X143094001Y-50441003D02*
X142925800Y-50272802D01*
X143094001Y-51698599D02*
X143094001Y-50441003D01*
D31*
X142839000Y-50186002D02*
X142925800Y-50272802D01*
D32*
X142189200Y-52603400D02*
X143094001Y-51698599D01*
X137650000Y-64534000D02*
X137972800Y-64856800D01*
X137650000Y-63750000D02*
X137650000Y-64534000D01*
X137972800Y-65287600D02*
X137957000Y-65303400D01*
X137972800Y-64856800D02*
X137972800Y-65287600D01*
X135996315Y-73253600D02*
X73253600Y-73253600D01*
X136314915Y-72935000D02*
X135996315Y-73253600D01*
X136880600Y-72935000D02*
X136314915Y-72935000D01*
X141251200Y-62837800D02*
X139141200Y-62837800D01*
X138229000Y-63750000D02*
X139141200Y-62837800D01*
X141808200Y-61061600D02*
X141808200Y-62280800D01*
X141808200Y-62280800D02*
X141251200Y-62837800D01*
X62943380Y-66443500D02*
X53268990Y-56769110D01*
X53268990Y-56769110D02*
X53268990Y-56093360D01*
D31*
X53268990Y-56093360D02*
X53268990Y-24074010D01*
D32*
X64267380Y-66443500D02*
X62943380Y-66443500D01*
X68807478Y-73253600D02*
X67264370Y-71710492D01*
X73253600Y-73253600D02*
X68807478Y-73253600D01*
D31*
X194130000Y-47826000D02*
X194183000Y-47879000D01*
X194130000Y-45900000D02*
X194130000Y-47826000D01*
D32*
G04 #@! TO.N,/SCL*
X64267380Y-67078500D02*
X63513380Y-67078500D01*
D31*
X62816380Y-67078500D02*
X61587380Y-65849500D01*
X64267380Y-67078500D02*
X62816380Y-67078500D01*
X134620000Y-66294000D02*
X134620000Y-64262000D01*
X135132000Y-63750000D02*
X135750000Y-63750000D01*
X134620000Y-64262000D02*
X135132000Y-63750000D01*
X140144500Y-64354000D02*
X140144500Y-63754000D01*
X140444500Y-63754000D02*
X140144500Y-63754000D01*
X194437000Y-44380002D02*
X194437000Y-43434000D01*
X194765000Y-45900000D02*
X194765000Y-44708002D01*
X194765000Y-44708002D02*
X194437000Y-44380002D01*
X142339000Y-48037500D02*
X142339000Y-51153000D01*
X142339000Y-51153000D02*
X142367000Y-51181000D01*
X66667380Y-68728500D02*
X65017380Y-67078500D01*
X65017380Y-67078500D02*
X64267380Y-67078500D01*
D32*
X58803000Y-28360000D02*
X59560066Y-28360000D01*
X59560066Y-28360000D02*
X60084011Y-27836056D01*
X60084011Y-27836056D02*
X60084011Y-23183001D01*
X60084011Y-23183001D02*
X59182000Y-22280990D01*
X59182000Y-22280990D02*
X54422772Y-22280990D01*
X54422772Y-22280990D02*
X52705000Y-23998762D01*
D31*
X66667380Y-71945500D02*
X66667380Y-68728500D01*
D32*
X140274904Y-63884404D02*
X140144500Y-63754000D01*
X140274904Y-66233904D02*
X140274904Y-63884404D01*
D31*
X135750000Y-63750000D02*
X135750000Y-65405000D01*
D32*
X135750000Y-65405000D02*
X135750000Y-66103200D01*
X135750000Y-66103200D02*
X136347200Y-66700400D01*
X136347200Y-66700400D02*
X138709400Y-66700400D01*
X139525300Y-65884500D02*
X139525300Y-64973200D01*
X138709400Y-66700400D02*
X139525300Y-65884500D01*
D31*
X139525300Y-64973200D02*
X140144500Y-64354000D01*
X137033000Y-73729010D02*
X137497390Y-73729010D01*
X137497390Y-73729010D02*
X138303000Y-72923400D01*
D32*
X141048500Y-63754000D02*
X140144500Y-63754000D01*
X141630400Y-63754000D02*
X141048500Y-63754000D01*
X142535201Y-60712639D02*
X142535201Y-62849199D01*
X142535201Y-62849199D02*
X141630400Y-63754000D01*
X141664962Y-59842400D02*
X142535201Y-60712639D01*
X141589200Y-59842400D02*
X141664962Y-59842400D01*
X141055800Y-59309000D02*
X141589200Y-59842400D01*
X61694060Y-65956180D02*
X61688980Y-65956180D01*
D31*
X61783390Y-66045510D02*
X61694060Y-65956180D01*
X61694060Y-65956180D02*
X61587380Y-65849500D01*
D32*
X61688980Y-65956180D02*
X52705000Y-56972200D01*
X52705000Y-56972200D02*
X52705000Y-56413400D01*
X52705000Y-23998762D02*
X52705000Y-56413400D01*
X68450890Y-73729010D02*
X66667380Y-71945500D01*
X137033000Y-73729010D02*
X68450890Y-73729010D01*
D31*
G04 #@! TO.N,/VREF2*
X192400000Y-32390000D02*
X192532000Y-32258000D01*
X189992000Y-32390000D02*
X192400000Y-32390000D01*
X192532000Y-32258000D02*
X195326000Y-32258000D01*
X194564000Y-35346000D02*
X194056000Y-34838000D01*
X194564000Y-35946000D02*
X194564000Y-35346000D01*
X195026000Y-32258000D02*
X195326000Y-32258000D01*
X194056000Y-33228000D02*
X195026000Y-32258000D01*
X194056000Y-34838000D02*
X194056000Y-33228000D01*
X192024000Y-35788000D02*
X191262000Y-35026000D01*
X192024000Y-36388000D02*
X192024000Y-35788000D01*
X190292000Y-32390000D02*
X189992000Y-32390000D01*
X191262000Y-33360000D02*
X190292000Y-32390000D01*
X191262000Y-35026000D02*
X191262000Y-33360000D01*
X197104000Y-36362000D02*
X196596000Y-35854000D01*
X197104000Y-36962000D02*
X197104000Y-36362000D01*
X195626000Y-32258000D02*
X195326000Y-32258000D01*
X196596000Y-33228000D02*
X195626000Y-32258000D01*
X196596000Y-35854000D02*
X196596000Y-33228000D01*
X189484000Y-35854000D02*
X188722000Y-35092000D01*
X189484000Y-36454000D02*
X189484000Y-35854000D01*
X189692000Y-32390000D02*
X189992000Y-32390000D01*
X188722000Y-33360000D02*
X189692000Y-32390000D01*
X188722000Y-35092000D02*
X188722000Y-33360000D01*
X197600000Y-41000000D02*
X197300000Y-41000000D01*
X142850000Y-37625000D02*
X143391000Y-37084000D01*
X142850000Y-38350000D02*
X142850000Y-37625000D01*
X144150000Y-36400000D02*
X144150000Y-36150000D01*
X143466000Y-37084000D02*
X144150000Y-36400000D01*
X143391000Y-37084000D02*
X143466000Y-37084000D01*
X71247000Y-24557000D02*
X71247000Y-24257000D01*
X70531000Y-25273000D02*
X71247000Y-24557000D01*
X67945000Y-25273000D02*
X70531000Y-25273000D01*
X71247000Y-23957000D02*
X71247000Y-24257000D01*
X71623000Y-24633000D02*
X71247000Y-24257000D01*
X71623000Y-26797000D02*
X71623000Y-24633000D01*
X71623000Y-28437000D02*
X71623000Y-26797000D01*
X71623000Y-29337000D02*
X71623000Y-28437000D01*
X67437000Y-28829000D02*
X67691000Y-28575000D01*
X67437000Y-30861000D02*
X67437000Y-28829000D01*
D32*
X77843380Y-65133500D02*
X77843380Y-64833500D01*
X76619380Y-66357500D02*
X77843380Y-65133500D01*
X74033380Y-66357500D02*
X76619380Y-66357500D01*
X77777380Y-64899500D02*
X77843380Y-64833500D01*
X73901380Y-60647500D02*
X74033380Y-60515500D01*
X73901380Y-63309500D02*
X73901380Y-60647500D01*
X74637380Y-60515500D02*
X75399380Y-61277500D01*
X74033380Y-60515500D02*
X74637380Y-60515500D01*
X77711380Y-62501500D02*
X77711380Y-62801500D01*
X76487380Y-61277500D02*
X77711380Y-62501500D01*
X75399380Y-61277500D02*
X76487380Y-61277500D01*
X77711380Y-64701500D02*
X77843380Y-64833500D01*
X77711380Y-62801500D02*
X77711380Y-64701500D01*
X67183000Y-31115000D02*
X67437000Y-30861000D01*
X67183000Y-32639000D02*
X67183000Y-31115000D01*
D31*
X67437000Y-31161000D02*
X67437000Y-30861000D01*
X63627000Y-32131000D02*
X63796000Y-32131000D01*
X63796000Y-32131000D02*
X64812000Y-33147000D01*
X74033380Y-60215500D02*
X74033380Y-60515500D01*
X68037000Y-30861000D02*
X69053000Y-31877000D01*
X67437000Y-30861000D02*
X68037000Y-30861000D01*
X69053000Y-31877000D02*
X70231000Y-31877000D01*
X71623000Y-30485000D02*
X71623000Y-29337000D01*
X70231000Y-31877000D02*
X71623000Y-30485000D01*
X78033880Y-65024000D02*
X77843380Y-64833500D01*
X69117380Y-71463500D02*
X69853380Y-72199500D01*
X69117380Y-70863500D02*
X69117380Y-71463500D01*
X74033380Y-70750000D02*
X74593880Y-71310500D01*
X74033380Y-69850000D02*
X74033380Y-70750000D01*
X199480001Y-37751999D02*
X199480001Y-40549999D01*
X199030000Y-41000000D02*
X197300000Y-41000000D01*
X198004000Y-36962000D02*
X198009000Y-36957000D01*
X199480001Y-40549999D02*
X199030000Y-41000000D01*
X197104000Y-36962000D02*
X198004000Y-36962000D01*
X199103001Y-37374999D02*
X199480001Y-37751999D01*
X199045999Y-37374999D02*
X199103001Y-37374999D01*
X198628000Y-36957000D02*
X199045999Y-37374999D01*
X198009000Y-36957000D02*
X198628000Y-36957000D01*
X78033880Y-68516500D02*
X79494380Y-68516500D01*
X79494380Y-68516500D02*
X79621380Y-68389500D01*
X79240380Y-64833500D02*
X77843380Y-64833500D01*
D32*
X69117380Y-71467500D02*
X69117380Y-70863500D01*
X63500000Y-32258000D02*
X63627000Y-32131000D01*
X63500000Y-33655000D02*
X63500000Y-32258000D01*
X71620380Y-72199500D02*
X72890380Y-72199500D01*
D31*
X69853380Y-72199500D02*
X71620380Y-72199500D01*
D32*
X74033380Y-71056500D02*
X74033380Y-69850000D01*
X72890380Y-72199500D02*
X74033380Y-71056500D01*
D31*
X78033880Y-70167500D02*
X78033880Y-68516500D01*
D32*
X78033880Y-71437500D02*
X78033880Y-70167500D01*
X77398880Y-72072500D02*
X78033880Y-71437500D01*
X75303380Y-72072500D02*
X77398880Y-72072500D01*
X74593880Y-71363000D02*
X75303380Y-72072500D01*
X74593880Y-71310500D02*
X74593880Y-71363000D01*
D31*
X144150000Y-34290000D02*
X144150000Y-36150000D01*
X68953380Y-71027500D02*
X69117380Y-70863500D01*
X68332000Y-23068000D02*
X70358000Y-23068000D01*
X68286000Y-23114000D02*
X68332000Y-23068000D01*
X67686000Y-23114000D02*
X68286000Y-23114000D01*
X70358000Y-23068000D02*
X71247000Y-23957000D01*
X144625000Y-36150000D02*
X144150000Y-36150000D01*
X156104989Y-24670011D02*
X144625000Y-36150000D01*
X181388011Y-24670011D02*
X156104989Y-24670011D01*
X189992000Y-32390000D02*
X189092000Y-32390000D01*
X188833000Y-32131000D02*
X188833000Y-32115000D01*
X189092000Y-32390000D02*
X188833000Y-32131000D01*
X188833000Y-32115000D02*
X181388011Y-24670011D01*
D32*
X73723500Y-29337000D02*
X74676000Y-29337000D01*
X71623000Y-29337000D02*
X73723500Y-29337000D01*
X74676000Y-29337000D02*
X81922980Y-22090020D01*
X81922980Y-22090020D02*
X98798020Y-22090020D01*
X98798020Y-22090020D02*
X113220500Y-22090020D01*
X113220500Y-22090020D02*
X121475500Y-22090020D01*
X121475500Y-22090020D02*
X135183520Y-22090020D01*
X137379001Y-24285501D02*
X140115999Y-24285501D01*
X135183520Y-22090020D02*
X137379001Y-24285501D01*
X144150000Y-28319502D02*
X140115999Y-24285501D01*
X144150000Y-36150000D02*
X144150000Y-28319502D01*
X74033380Y-57919620D02*
X68666360Y-52552600D01*
X74033380Y-60515500D02*
X74033380Y-57919620D01*
D31*
G04 #@! TO.N,/IPA*
X72754677Y-41135823D02*
X73154000Y-40736500D01*
X72754677Y-42897043D02*
X72754677Y-41135823D01*
X137414000Y-45777002D02*
X137414000Y-45466000D01*
X137839000Y-48037500D02*
X137839000Y-46202002D01*
X137839000Y-46202002D02*
X137414000Y-45777002D01*
X73154000Y-40436500D02*
X73154000Y-40736500D01*
D32*
X73154000Y-40257000D02*
X73154000Y-40736500D01*
X73152000Y-40734500D02*
X73154000Y-40736500D01*
X73152000Y-38481000D02*
X73152000Y-40734500D01*
D31*
G04 #@! TO.N,/IMA*
X75003457Y-45437043D02*
X75054000Y-45386500D01*
X72754677Y-45437043D02*
X75003457Y-45437043D01*
X75054000Y-45386500D02*
X75054000Y-45686500D01*
X138339000Y-48037500D02*
X138339000Y-45811000D01*
X138339000Y-45811000D02*
X138430000Y-45720000D01*
D32*
X71691500Y-22098000D02*
X72153490Y-21636010D01*
X71437500Y-22098000D02*
X71691500Y-22098000D01*
X121793000Y-21636010D02*
X121966010Y-21636010D01*
X72153490Y-21636010D02*
X121793000Y-21636010D01*
X121793000Y-21636010D02*
X135936010Y-21636010D01*
X135936010Y-21636010D02*
X137858500Y-23558500D01*
D31*
X64516000Y-22098000D02*
X71437500Y-22098000D01*
X64262000Y-22352000D02*
X64516000Y-22098000D01*
X64262000Y-22352000D02*
X63754000Y-22860000D01*
D32*
X70715123Y-45437043D02*
X71900677Y-45437043D01*
X60561978Y-26052022D02*
X60561978Y-28846022D01*
X60561978Y-28846022D02*
X60076011Y-29331989D01*
X63754000Y-22860000D02*
X60561978Y-26052022D01*
X71900677Y-45437043D02*
X72754677Y-45437043D01*
X60076011Y-34797931D02*
X70715123Y-45437043D01*
X60076011Y-29331989D02*
X60076011Y-34797931D01*
D31*
G04 #@! TO.N,/IPB*
X74864543Y-49247043D02*
X75154000Y-49536500D01*
X72754677Y-49247043D02*
X74864543Y-49247043D01*
X134839000Y-49037500D02*
X134839000Y-48037500D01*
X72754677Y-49247043D02*
X72304677Y-49247043D01*
D32*
X74466898Y-56432898D02*
X74676000Y-56642000D01*
D31*
X134839000Y-49250600D02*
X134839000Y-49037500D01*
X134839000Y-49437315D02*
X134839000Y-49250600D01*
D32*
X107975400Y-71805800D02*
X89839800Y-71805800D01*
X135895076Y-71028551D02*
X135895076Y-71114924D01*
X89839800Y-71805800D02*
X74968999Y-56934999D01*
X135895076Y-71114924D02*
X135229600Y-71780400D01*
X74968999Y-56934999D02*
X74676000Y-56642000D01*
X135229600Y-71780400D02*
X108000800Y-71780400D01*
X108000800Y-71780400D02*
X107975400Y-71805800D01*
X136721315Y-53619400D02*
X134839000Y-51737085D01*
X134839000Y-51737085D02*
X134839000Y-49250600D01*
X136728200Y-53619400D02*
X136721315Y-53619400D01*
D31*
X71374000Y-49777720D02*
X71374000Y-53340000D01*
D32*
X74676000Y-56642000D02*
X71882000Y-53848000D01*
D31*
X72754677Y-49247043D02*
X71904677Y-49247043D01*
X71904677Y-49247043D02*
X71374000Y-49777720D01*
X71882000Y-53848000D02*
X71374000Y-53340000D01*
G04 #@! TO.N,/IMB*
X73554000Y-54186500D02*
X73554000Y-53886500D01*
D32*
X105054400Y-71323200D02*
X91389200Y-71323200D01*
D31*
X135077200Y-70281800D02*
X137998200Y-70281800D01*
X134035800Y-71323200D02*
X135077200Y-70281800D01*
D32*
X73554000Y-54790500D02*
X73554000Y-53886500D01*
X91389200Y-71323200D02*
X75565000Y-55499000D01*
D31*
X137998200Y-70281800D02*
X138125200Y-70154800D01*
D32*
X74262500Y-55499000D02*
X73554000Y-54790500D01*
X75565000Y-55499000D02*
X74262500Y-55499000D01*
D31*
X105054400Y-71323200D02*
X134035800Y-71323200D01*
D32*
X135339000Y-50426800D02*
X135339000Y-48037500D01*
X138125200Y-53213000D02*
X135339000Y-50426800D01*
D31*
X72754677Y-51787043D02*
X73631043Y-51787043D01*
X73554000Y-53886500D02*
X73554000Y-52938000D01*
X73914000Y-52578000D02*
X73914000Y-52070000D01*
X73554000Y-52938000D02*
X73914000Y-52578000D01*
X73631043Y-51787043D02*
X73914000Y-52070000D01*
D32*
G04 #@! TO.N,Net-(R71-Pad2)*
X69267380Y-65173500D02*
X74917380Y-65173500D01*
X75257380Y-64833500D02*
X75943380Y-64833500D01*
X74917380Y-65173500D02*
X75257380Y-64833500D01*
G04 #@! TO.N,Net-(R75-Pad2)*
X75811380Y-63101500D02*
X75811380Y-62801500D01*
X74374380Y-64538500D02*
X75811380Y-63101500D01*
X69267380Y-64538500D02*
X74374380Y-64538500D01*
G04 #@! TO.N,Net-(R78-Pad2)*
X71407380Y-63903500D02*
X72001380Y-63309500D01*
X69267380Y-63903500D02*
X71407380Y-63903500D01*
G04 #@! TO.N,Net-(R81-Pad2)*
X72133380Y-60815500D02*
X72133380Y-60515500D01*
X69680380Y-63268500D02*
X72133380Y-60815500D01*
X69267380Y-63268500D02*
X69680380Y-63268500D01*
G04 #@! TO.N,Net-(R82-Pad2)*
X66967380Y-59663500D02*
X67267380Y-59663500D01*
D31*
X67267380Y-59063500D02*
X66687380Y-58483500D01*
X67267380Y-59663500D02*
X67267380Y-59063500D01*
X66687380Y-58483500D02*
X64127380Y-58483500D01*
D32*
X64064400Y-60487800D02*
X63464400Y-60487800D01*
X65364400Y-61787800D02*
X64064400Y-60487800D01*
X63182500Y-58483500D02*
X64127380Y-58483500D01*
X63464400Y-60487800D02*
X62885400Y-60487800D01*
X62885400Y-60487800D02*
X62611000Y-60213400D01*
X62611000Y-60213400D02*
X62611000Y-59055000D01*
X62611000Y-59055000D02*
X63182500Y-58483500D01*
D31*
G04 #@! TO.N,Net-(U4-Pad3)*
X58803000Y-23624000D02*
X58801000Y-23622000D01*
X190955000Y-45900000D02*
X190045000Y-45900000D01*
X190045000Y-45900000D02*
X189738000Y-45593000D01*
X53719000Y-27757998D02*
X55822998Y-25654000D01*
X55753000Y-25723998D02*
X55822998Y-25654000D01*
X53719000Y-30984590D02*
X53721000Y-30984590D01*
X53721000Y-30984590D02*
X53719000Y-27757998D01*
D32*
X61281418Y-61793500D02*
X61287118Y-61787800D01*
X61287118Y-61787800D02*
X63464400Y-61787800D01*
X53721000Y-54233082D02*
X61281418Y-61793500D01*
X53721000Y-30984590D02*
X53721000Y-54233082D01*
X64267380Y-62011780D02*
X64267380Y-63268500D01*
X64043400Y-61787800D02*
X64267380Y-62011780D01*
X63464400Y-61787800D02*
X64043400Y-61787800D01*
X58801000Y-23622000D02*
X58737500Y-23685500D01*
X58741000Y-23689000D02*
X58741000Y-24574500D01*
X58737500Y-23685500D02*
X58741000Y-23689000D01*
X57887000Y-24574500D02*
X57760000Y-24447500D01*
X58741000Y-24574500D02*
X57887000Y-24574500D01*
X57029498Y-24447500D02*
X55753000Y-25723998D01*
X57760000Y-24447500D02*
X57029498Y-24447500D01*
G04 #@! TD*
D33*
G04 #@! TO.N,Net-(C15-Pad1)*
G36*
X136688471Y-24852207D02*
X136738068Y-24926434D01*
X137032131Y-25122920D01*
X137291445Y-25174501D01*
X137379000Y-25191917D01*
X137466555Y-25174501D01*
X139747764Y-25174501D01*
X143256000Y-28682738D01*
X143256000Y-33662684D01*
X143152220Y-33558904D01*
X142725136Y-33382000D01*
X142262864Y-33382000D01*
X141835780Y-33558904D01*
X141508904Y-33885780D01*
X141332000Y-34312864D01*
X141332000Y-34775136D01*
X141508904Y-35202220D01*
X141576811Y-35270127D01*
X141353910Y-35314465D01*
X141060509Y-35510509D01*
X141011023Y-35584570D01*
X139572522Y-37023072D01*
X138550000Y-37023072D01*
X138252683Y-37082212D01*
X138000629Y-37250629D01*
X137832212Y-37502683D01*
X137773072Y-37800000D01*
X137773072Y-39800000D01*
X137832212Y-40097317D01*
X138000629Y-40349371D01*
X138055448Y-40386000D01*
X135944552Y-40386000D01*
X135999371Y-40349371D01*
X136167788Y-40097317D01*
X136226928Y-39800000D01*
X136226928Y-37800000D01*
X136167788Y-37502683D01*
X135999371Y-37250629D01*
X135747317Y-37082212D01*
X135450000Y-37023072D01*
X133950000Y-37023072D01*
X133652683Y-37082212D01*
X133400629Y-37250629D01*
X133232212Y-37502683D01*
X133173072Y-37800000D01*
X133173072Y-37913000D01*
X132483356Y-37913000D01*
X132396000Y-37895624D01*
X132308644Y-37913000D01*
X132308640Y-37913000D01*
X132049910Y-37964465D01*
X131756509Y-38160509D01*
X131707023Y-38234570D01*
X131006572Y-38935022D01*
X130932509Y-38984509D01*
X130736465Y-39277911D01*
X130685000Y-39536641D01*
X130685000Y-39536644D01*
X130667624Y-39624000D01*
X130685000Y-39711356D01*
X130685000Y-40386000D01*
X128198990Y-40386000D01*
X128198990Y-33925940D01*
X128216367Y-33838580D01*
X128147525Y-33492490D01*
X128076119Y-33385623D01*
X127951481Y-33199089D01*
X127877420Y-33149603D01*
X125716378Y-30988562D01*
X125666892Y-30914501D01*
X125592831Y-30865015D01*
X125373490Y-30718456D01*
X125027401Y-30649615D01*
X124995225Y-30656015D01*
X124639605Y-30300395D01*
X124557202Y-30245335D01*
X124460000Y-30226000D01*
X119485210Y-30226000D01*
X118364000Y-29104790D01*
X118364000Y-22979020D01*
X134815285Y-22979020D01*
X136688471Y-24852207D01*
X136688471Y-24852207D01*
G37*
X136688471Y-24852207D02*
X136738068Y-24926434D01*
X137032131Y-25122920D01*
X137291445Y-25174501D01*
X137379000Y-25191917D01*
X137466555Y-25174501D01*
X139747764Y-25174501D01*
X143256000Y-28682738D01*
X143256000Y-33662684D01*
X143152220Y-33558904D01*
X142725136Y-33382000D01*
X142262864Y-33382000D01*
X141835780Y-33558904D01*
X141508904Y-33885780D01*
X141332000Y-34312864D01*
X141332000Y-34775136D01*
X141508904Y-35202220D01*
X141576811Y-35270127D01*
X141353910Y-35314465D01*
X141060509Y-35510509D01*
X141011023Y-35584570D01*
X139572522Y-37023072D01*
X138550000Y-37023072D01*
X138252683Y-37082212D01*
X138000629Y-37250629D01*
X137832212Y-37502683D01*
X137773072Y-37800000D01*
X137773072Y-39800000D01*
X137832212Y-40097317D01*
X138000629Y-40349371D01*
X138055448Y-40386000D01*
X135944552Y-40386000D01*
X135999371Y-40349371D01*
X136167788Y-40097317D01*
X136226928Y-39800000D01*
X136226928Y-37800000D01*
X136167788Y-37502683D01*
X135999371Y-37250629D01*
X135747317Y-37082212D01*
X135450000Y-37023072D01*
X133950000Y-37023072D01*
X133652683Y-37082212D01*
X133400629Y-37250629D01*
X133232212Y-37502683D01*
X133173072Y-37800000D01*
X133173072Y-37913000D01*
X132483356Y-37913000D01*
X132396000Y-37895624D01*
X132308644Y-37913000D01*
X132308640Y-37913000D01*
X132049910Y-37964465D01*
X131756509Y-38160509D01*
X131707023Y-38234570D01*
X131006572Y-38935022D01*
X130932509Y-38984509D01*
X130736465Y-39277911D01*
X130685000Y-39536641D01*
X130685000Y-39536644D01*
X130667624Y-39624000D01*
X130685000Y-39711356D01*
X130685000Y-40386000D01*
X128198990Y-40386000D01*
X128198990Y-33925940D01*
X128216367Y-33838580D01*
X128147525Y-33492490D01*
X128076119Y-33385623D01*
X127951481Y-33199089D01*
X127877420Y-33149603D01*
X125716378Y-30988562D01*
X125666892Y-30914501D01*
X125592831Y-30865015D01*
X125373490Y-30718456D01*
X125027401Y-30649615D01*
X124995225Y-30656015D01*
X124639605Y-30300395D01*
X124557202Y-30245335D01*
X124460000Y-30226000D01*
X119485210Y-30226000D01*
X118364000Y-29104790D01*
X118364000Y-22979020D01*
X134815285Y-22979020D01*
X136688471Y-24852207D01*
G04 #@! TD*
M02*
