G04 #@! TF.GenerationSoftware,KiCad,Pcbnew,5.0.2-bee76a0~70~ubuntu16.04.1*
G04 #@! TF.CreationDate,2019-03-18T14:36:24-04:00*
G04 #@! TF.ProjectId,BMS_peripheral,424d535f-7065-4726-9970-686572616c2e,rev?*
G04 #@! TF.SameCoordinates,Original*
G04 #@! TF.FileFunction,Paste,Top*
G04 #@! TF.FilePolarity,Positive*
%FSLAX46Y46*%
G04 Gerber Fmt 4.6, Leading zero omitted, Abs format (unit mm)*
G04 Created by KiCad (PCBNEW 5.0.2-bee76a0~70~ubuntu16.04.1) date Mon 18 Mar 2019 02:36:24 PM EDT*
%MOMM*%
%LPD*%
G01*
G04 APERTURE LIST*
%ADD10R,0.700000X1.300000*%
%ADD11R,1.000000X1.250000*%
%ADD12R,0.900000X0.800000*%
%ADD13R,3.800000X2.000000*%
%ADD14R,1.500000X2.000000*%
%ADD15R,1.200000X0.300000*%
%ADD16R,0.250000X1.500000*%
%ADD17R,1.200000X1.200000*%
%ADD18R,0.650000X1.060000*%
%ADD19R,1.300000X0.700000*%
%ADD20R,1.250000X1.000000*%
%ADD21R,0.650000X0.400000*%
%ADD22R,0.400000X0.650000*%
%ADD23R,1.200000X0.400000*%
%ADD24R,0.400000X1.200000*%
G04 APERTURE END LIST*
D10*
G04 #@! TO.C,R4*
X112369600Y-56921400D03*
X110469600Y-56921400D03*
G04 #@! TD*
D11*
G04 #@! TO.C,C3*
X110522000Y-45593000D03*
X112522000Y-45593000D03*
G04 #@! TD*
D12*
G04 #@! TO.C,Q9*
X156229000Y-40895000D03*
X158229000Y-41945000D03*
X158229000Y-39845000D03*
G04 #@! TD*
G04 #@! TO.C,Q8*
X157975000Y-46613000D03*
X157975000Y-48713000D03*
X155975000Y-47663000D03*
G04 #@! TD*
G04 #@! TO.C,Q6*
X158097000Y-60496000D03*
X158097000Y-62596000D03*
X156097000Y-61546000D03*
G04 #@! TD*
G04 #@! TO.C,Q10*
X155997000Y-32852500D03*
X155997000Y-34952500D03*
X153997000Y-33902500D03*
G04 #@! TD*
G04 #@! TO.C,Q5*
X120746500Y-61714000D03*
X118746500Y-60664000D03*
X118746500Y-62764000D03*
G04 #@! TD*
G04 #@! TO.C,Q7*
X156075000Y-54724000D03*
X158075000Y-55774000D03*
X158075000Y-53674000D03*
G04 #@! TD*
G04 #@! TO.C,Q2*
X118541500Y-41594000D03*
X118541500Y-39494000D03*
X120541500Y-40544000D03*
G04 #@! TD*
G04 #@! TO.C,Q1*
X120446500Y-33934000D03*
X118446500Y-32884000D03*
X118446500Y-34984000D03*
G04 #@! TD*
G04 #@! TO.C,Q3*
X120646500Y-47644000D03*
X118646500Y-46594000D03*
X118646500Y-48694000D03*
G04 #@! TD*
D13*
G04 #@! TO.C,Q11*
X137000000Y-32500000D03*
D14*
X137000000Y-38800000D03*
X139300000Y-38800000D03*
X134700000Y-38800000D03*
G04 #@! TD*
D15*
G04 #@! TO.C,T1*
X72754677Y-51787043D03*
X63954677Y-42897043D03*
X63954677Y-44167043D03*
X63954677Y-45437043D03*
X63954677Y-46707043D03*
X63954677Y-47977043D03*
X63954677Y-49247043D03*
X63954677Y-50517043D03*
X63954677Y-51787043D03*
X72754677Y-50517043D03*
X72754677Y-49247043D03*
X72754677Y-47977043D03*
X72754677Y-46707043D03*
X72754677Y-45437043D03*
X72754677Y-44167043D03*
X72754677Y-42897043D03*
G04 #@! TD*
D16*
G04 #@! TO.C,U1*
X146339000Y-48037500D03*
X134839000Y-55502500D03*
X135339000Y-55502500D03*
X135839000Y-55502500D03*
X136339000Y-55502500D03*
X136839000Y-55502500D03*
X137339000Y-55502500D03*
X137839000Y-55502500D03*
X138339000Y-55502500D03*
X138839000Y-55502500D03*
X139339000Y-55502500D03*
X139839000Y-55502500D03*
X140339000Y-55502500D03*
X140839000Y-55502500D03*
X141339000Y-55502500D03*
X141839000Y-55502500D03*
X142339000Y-55502500D03*
X142839000Y-55502500D03*
X143339000Y-55502500D03*
X143839000Y-55502500D03*
X144339000Y-55502500D03*
X144839000Y-55502500D03*
X145339000Y-55502500D03*
X145839000Y-55502500D03*
X146339000Y-55502500D03*
X145839000Y-48037500D03*
X145339000Y-48037500D03*
X144839000Y-48037500D03*
X144339000Y-48037500D03*
X143839000Y-48037500D03*
X143339000Y-48037500D03*
X142839000Y-48037500D03*
X142339000Y-48037500D03*
X141839000Y-48037500D03*
X141339000Y-48037500D03*
X140839000Y-48037500D03*
X140339000Y-48037500D03*
X139839000Y-48037500D03*
X139339000Y-48037500D03*
X138839000Y-48037500D03*
X138339000Y-48037500D03*
X137839000Y-48037500D03*
X137339000Y-48037500D03*
X136839000Y-48037500D03*
X136339000Y-48037500D03*
X135839000Y-48037500D03*
X135339000Y-48037500D03*
X134839000Y-48037500D03*
G04 #@! TD*
D11*
G04 #@! TO.C,C1*
X113200000Y-32950000D03*
X111200000Y-32950000D03*
G04 #@! TD*
D10*
G04 #@! TO.C,R1*
X110750000Y-34950000D03*
X112650000Y-34950000D03*
G04 #@! TD*
G04 #@! TO.C,R21*
X124000000Y-33950000D03*
X122100000Y-33950000D03*
G04 #@! TD*
G04 #@! TO.C,R31*
X116700000Y-32900000D03*
X114800000Y-32900000D03*
G04 #@! TD*
D17*
G04 #@! TO.C,D1*
X116500000Y-34900000D03*
X114300000Y-34900000D03*
G04 #@! TD*
D18*
G04 #@! TO.C,U2*
X135750000Y-63750000D03*
X136700000Y-63750000D03*
X137650000Y-63750000D03*
X137650000Y-61550000D03*
X135750000Y-61550000D03*
G04 #@! TD*
D19*
G04 #@! TO.C,R58*
X195326000Y-32258000D03*
X195326000Y-34158000D03*
G04 #@! TD*
G04 #@! TO.C,R70*
X192532000Y-34158000D03*
X192532000Y-32258000D03*
G04 #@! TD*
G04 #@! TO.C,R77*
X189992000Y-32390000D03*
X189992000Y-34290000D03*
G04 #@! TD*
G04 #@! TO.C,R50*
X197300000Y-41000000D03*
X197300000Y-42900000D03*
G04 #@! TD*
G04 #@! TO.C,R54*
X197104000Y-38862000D03*
X197104000Y-36962000D03*
G04 #@! TD*
G04 #@! TO.C,R66*
X194564000Y-35946000D03*
X194564000Y-37846000D03*
G04 #@! TD*
G04 #@! TO.C,R74*
X192024000Y-38288000D03*
X192024000Y-36388000D03*
G04 #@! TD*
G04 #@! TO.C,R80*
X189484000Y-36454000D03*
X189484000Y-38354000D03*
G04 #@! TD*
D11*
G04 #@! TO.C,C22*
X192627000Y-49022000D03*
X190627000Y-49022000D03*
G04 #@! TD*
G04 #@! TO.C,C2*
X113093500Y-38989000D03*
X111093500Y-38989000D03*
G04 #@! TD*
G04 #@! TO.C,C4*
X111250000Y-53600000D03*
X113250000Y-53600000D03*
G04 #@! TD*
G04 #@! TO.C,C5*
X113250000Y-60650000D03*
X111250000Y-60650000D03*
G04 #@! TD*
D17*
G04 #@! TO.C,D2*
X116563500Y-42608500D03*
X114363500Y-42608500D03*
G04 #@! TD*
D10*
G04 #@! TO.C,R2*
X112517000Y-42735500D03*
X110617000Y-42735500D03*
G04 #@! TD*
G04 #@! TO.C,R22*
X124250000Y-40650000D03*
X122350000Y-40650000D03*
G04 #@! TD*
G04 #@! TO.C,R32*
X114800000Y-38989000D03*
X116700000Y-38989000D03*
G04 #@! TD*
D17*
G04 #@! TO.C,D3*
X116700000Y-48650000D03*
X114500000Y-48650000D03*
G04 #@! TD*
D10*
G04 #@! TO.C,R3*
X112700000Y-48650000D03*
X110800000Y-48650000D03*
G04 #@! TD*
G04 #@! TO.C,R23*
X122500000Y-47550000D03*
X124400000Y-47550000D03*
G04 #@! TD*
G04 #@! TO.C,R33*
X116136500Y-45593000D03*
X114236500Y-45593000D03*
G04 #@! TD*
D12*
G04 #@! TO.C,Q4*
X118650000Y-55950000D03*
X118650000Y-53850000D03*
X120650000Y-54900000D03*
G04 #@! TD*
D10*
G04 #@! TO.C,R24*
X124350000Y-55050000D03*
X122450000Y-55050000D03*
G04 #@! TD*
G04 #@! TO.C,R34*
X114950000Y-53850000D03*
X116850000Y-53850000D03*
G04 #@! TD*
D17*
G04 #@! TO.C,D4*
X116509800Y-56870600D03*
X114309800Y-56870600D03*
G04 #@! TD*
G04 #@! TO.C,D5*
X116804800Y-63220600D03*
X114604800Y-63220600D03*
G04 #@! TD*
D10*
G04 #@! TO.C,R5*
X112877600Y-63296800D03*
X110977600Y-63296800D03*
G04 #@! TD*
G04 #@! TO.C,R25*
X124300000Y-61850000D03*
X122400000Y-61850000D03*
G04 #@! TD*
G04 #@! TO.C,R35*
X114950000Y-60650000D03*
X116850000Y-60650000D03*
G04 #@! TD*
D11*
G04 #@! TO.C,C11*
X129050000Y-50650000D03*
X131050000Y-50650000D03*
G04 #@! TD*
D10*
G04 #@! TO.C,R42*
X131760000Y-52832000D03*
X129860000Y-52832000D03*
G04 #@! TD*
D19*
G04 #@! TO.C,R45*
X132397500Y-61282500D03*
X132397500Y-63182500D03*
G04 #@! TD*
G04 #@! TO.C,R47*
X140144500Y-61854000D03*
X140144500Y-63754000D03*
G04 #@! TD*
G04 #@! TO.C,R43*
X131572000Y-46736000D03*
X131572000Y-48636000D03*
G04 #@! TD*
G04 #@! TO.C,R44*
X128778000Y-48636000D03*
X128778000Y-46736000D03*
G04 #@! TD*
D20*
G04 #@! TO.C,C14*
X133000000Y-41600000D03*
X133000000Y-43600000D03*
G04 #@! TD*
G04 #@! TO.C,C15*
X135000000Y-41650000D03*
X135000000Y-43650000D03*
G04 #@! TD*
D19*
G04 #@! TO.C,R46*
X139450000Y-43600000D03*
X139450000Y-41700000D03*
G04 #@! TD*
D20*
G04 #@! TO.C,C12*
X144850000Y-41550000D03*
X144850000Y-43550000D03*
G04 #@! TD*
G04 #@! TO.C,C13*
X142700000Y-43550000D03*
X142700000Y-41550000D03*
G04 #@! TD*
D11*
G04 #@! TO.C,C6*
X164020500Y-62738000D03*
X166020500Y-62738000D03*
G04 #@! TD*
G04 #@! TO.C,C7*
X165550000Y-55850000D03*
X163550000Y-55850000D03*
G04 #@! TD*
G04 #@! TO.C,C8*
X163350000Y-48700000D03*
X165350000Y-48700000D03*
G04 #@! TD*
G04 #@! TO.C,C9*
X163750000Y-41950000D03*
X165750000Y-41950000D03*
G04 #@! TD*
G04 #@! TO.C,C10*
X163848800Y-35458400D03*
X161848800Y-35458400D03*
G04 #@! TD*
D10*
G04 #@! TO.C,R10*
X163950000Y-32850000D03*
X162050000Y-32850000D03*
G04 #@! TD*
G04 #@! TO.C,R30*
X150350000Y-33900000D03*
X152250000Y-33900000D03*
G04 #@! TD*
G04 #@! TO.C,R40*
X160020000Y-35407600D03*
X158120000Y-35407600D03*
G04 #@! TD*
D19*
G04 #@! TO.C,R41*
X165950000Y-33050000D03*
X165950000Y-34950000D03*
G04 #@! TD*
D10*
G04 #@! TO.C,R9*
X165950000Y-39900000D03*
X164050000Y-39900000D03*
G04 #@! TD*
G04 #@! TO.C,R29*
X152650000Y-40750000D03*
X154550000Y-40750000D03*
G04 #@! TD*
G04 #@! TO.C,R39*
X160050000Y-41900000D03*
X161950000Y-41900000D03*
G04 #@! TD*
G04 #@! TO.C,R8*
X163957000Y-46164500D03*
X165857000Y-46164500D03*
G04 #@! TD*
G04 #@! TO.C,R28*
X154300000Y-47700000D03*
X152400000Y-47700000D03*
G04 #@! TD*
G04 #@! TO.C,R38*
X159900000Y-48750000D03*
X161800000Y-48750000D03*
G04 #@! TD*
G04 #@! TO.C,R7*
X164000000Y-53850000D03*
X165900000Y-53850000D03*
G04 #@! TD*
G04 #@! TO.C,R27*
X152550000Y-54650000D03*
X154450000Y-54650000D03*
G04 #@! TD*
G04 #@! TO.C,R37*
X161800000Y-55800000D03*
X159900000Y-55800000D03*
G04 #@! TD*
G04 #@! TO.C,R6*
X164150000Y-60550000D03*
X166050000Y-60550000D03*
G04 #@! TD*
G04 #@! TO.C,R26*
X154450000Y-61600000D03*
X152550000Y-61600000D03*
G04 #@! TD*
G04 #@! TO.C,R36*
X160000000Y-62550000D03*
X161900000Y-62550000D03*
G04 #@! TD*
D17*
G04 #@! TO.C,D6*
X162369500Y-59944000D03*
X160169500Y-59944000D03*
G04 #@! TD*
G04 #@! TO.C,D7*
X160150000Y-53750000D03*
X162350000Y-53750000D03*
G04 #@! TD*
G04 #@! TO.C,D8*
X162242500Y-46101000D03*
X160042500Y-46101000D03*
G04 #@! TD*
G04 #@! TO.C,D9*
X160150000Y-39950000D03*
X162350000Y-39950000D03*
G04 #@! TD*
G04 #@! TO.C,D10*
X158150000Y-32850000D03*
X160350000Y-32850000D03*
G04 #@! TD*
D20*
G04 #@! TO.C,C21*
X56769000Y-28829000D03*
X56769000Y-30829000D03*
G04 #@! TD*
D19*
G04 #@! TO.C,R49*
X63627000Y-30231000D03*
X63627000Y-32131000D03*
G04 #@! TD*
D10*
G04 #@! TO.C,R53*
X67437000Y-30861000D03*
X65537000Y-30861000D03*
G04 #@! TD*
G04 #@! TO.C,R65*
X69723000Y-29337000D03*
X71623000Y-29337000D03*
G04 #@! TD*
G04 #@! TO.C,R73*
X67945000Y-25273000D03*
X66045000Y-25273000D03*
G04 #@! TD*
G04 #@! TO.C,R79*
X67686000Y-23114000D03*
X65786000Y-23114000D03*
G04 #@! TD*
G04 #@! TO.C,R57*
X65791000Y-28575000D03*
X67691000Y-28575000D03*
G04 #@! TD*
G04 #@! TO.C,R69*
X71623000Y-26797000D03*
X69723000Y-26797000D03*
G04 #@! TD*
G04 #@! TO.C,R76*
X71247000Y-24257000D03*
X69347000Y-24257000D03*
G04 #@! TD*
D11*
G04 #@! TO.C,C23*
X64127380Y-69405500D03*
X62127380Y-69405500D03*
G04 #@! TD*
D20*
G04 #@! TO.C,C24*
X69367380Y-61463500D03*
X69367380Y-59463500D03*
G04 #@! TD*
D19*
G04 #@! TO.C,R82*
X67267380Y-61563500D03*
X67267380Y-59663500D03*
G04 #@! TD*
D10*
G04 #@! TO.C,R55*
X72133380Y-69850000D03*
X74033380Y-69850000D03*
G04 #@! TD*
G04 #@! TO.C,R67*
X74033380Y-66357500D03*
X72133380Y-66357500D03*
G04 #@! TD*
G04 #@! TO.C,R75*
X75811380Y-62801500D03*
X77711380Y-62801500D03*
G04 #@! TD*
G04 #@! TO.C,R81*
X74033380Y-60515500D03*
X72133380Y-60515500D03*
G04 #@! TD*
D19*
G04 #@! TO.C,R51*
X69117380Y-70863500D03*
X69117380Y-68963500D03*
G04 #@! TD*
D10*
G04 #@! TO.C,R59*
X78033880Y-68516500D03*
X76133880Y-68516500D03*
G04 #@! TD*
G04 #@! TO.C,R71*
X75943380Y-64833500D03*
X77843380Y-64833500D03*
G04 #@! TD*
G04 #@! TO.C,R78*
X73901380Y-63309500D03*
X72001380Y-63309500D03*
G04 #@! TD*
D11*
G04 #@! TO.C,C16*
X76854000Y-40686500D03*
X78854000Y-40686500D03*
G04 #@! TD*
D10*
G04 #@! TO.C,R61*
X73154000Y-40736500D03*
X75054000Y-40736500D03*
G04 #@! TD*
D11*
G04 #@! TO.C,C17*
X77104000Y-47486500D03*
X75104000Y-47486500D03*
G04 #@! TD*
G04 #@! TO.C,C18*
X75104000Y-43186500D03*
X77104000Y-43186500D03*
G04 #@! TD*
D10*
G04 #@! TO.C,R62*
X75054000Y-45386500D03*
X76954000Y-45386500D03*
G04 #@! TD*
G04 #@! TO.C,R63*
X75154000Y-49536500D03*
X77054000Y-49536500D03*
G04 #@! TD*
D11*
G04 #@! TO.C,C19*
X75204000Y-51586500D03*
X77204000Y-51586500D03*
G04 #@! TD*
D10*
G04 #@! TO.C,R64*
X75454000Y-53886500D03*
X73554000Y-53886500D03*
G04 #@! TD*
D21*
G04 #@! TO.C,U4*
X63464400Y-60487800D03*
X63464400Y-61787800D03*
X63464400Y-61137800D03*
X65364400Y-61787800D03*
X65364400Y-60487800D03*
G04 #@! TD*
D22*
G04 #@! TO.C,U3*
X142845000Y-38100000D03*
X144145000Y-38100000D03*
X143495000Y-38100000D03*
X144145000Y-36200000D03*
X142845000Y-36200000D03*
G04 #@! TD*
D23*
G04 #@! TO.C,U5*
X63814000Y-29019500D03*
X63814000Y-28384500D03*
X63814000Y-27749500D03*
X63814000Y-27114500D03*
X63814000Y-26479500D03*
X63814000Y-25844500D03*
X63814000Y-25209500D03*
X63814000Y-24574500D03*
X58614000Y-24574500D03*
X58614000Y-25209500D03*
X58614000Y-25844500D03*
X58614000Y-26479500D03*
X58614000Y-27114500D03*
X58614000Y-27749500D03*
X58614000Y-28384500D03*
X58614000Y-29019500D03*
G04 #@! TD*
D24*
G04 #@! TO.C,U6*
X195389500Y-46097500D03*
X194754500Y-46097500D03*
X194119500Y-46097500D03*
X193484500Y-46097500D03*
X192849500Y-46097500D03*
X192214500Y-46097500D03*
X191579500Y-46097500D03*
X190944500Y-46097500D03*
X190944500Y-40897500D03*
X191579500Y-40897500D03*
X192214500Y-40897500D03*
X192849500Y-40897500D03*
X193484500Y-40897500D03*
X194119500Y-40897500D03*
X194754500Y-40897500D03*
X195389500Y-40897500D03*
G04 #@! TD*
D23*
G04 #@! TO.C,U7*
X69529000Y-67691000D03*
X69529000Y-67056000D03*
X69529000Y-66421000D03*
X69529000Y-65786000D03*
X69529000Y-65151000D03*
X69529000Y-64516000D03*
X69529000Y-63881000D03*
X69529000Y-63246000D03*
X64329000Y-63246000D03*
X64329000Y-63881000D03*
X64329000Y-64516000D03*
X64329000Y-65151000D03*
X64329000Y-65786000D03*
X64329000Y-66421000D03*
X64329000Y-67056000D03*
X64329000Y-67691000D03*
G04 #@! TD*
M02*
