M48
INCH,TZ
T1C0.0157
T2C0.0400
T3C0.0472
%
G90
G05
T1
X14260Y-12140
X16580Y-12430
X17240Y-13013
X17240Y-15070
X17250Y-16810
X18410Y-17340
X18660Y-14270
X18671Y-14664
X18970Y-16690
X19624Y-17166
X19890Y-13350
X20110Y-17110
X20220Y-16720
X20540Y-14397
X22070Y-13840
X22080Y-14300
X22230Y-10900
X23620Y-14960
X26540Y-15980
X26940Y-15800
X27300Y-12585
X27440Y-11490
X27490Y-12970
X27570Y-15410
X27964Y-15420
X28030Y-14790
X28372Y-13202
X28690Y-14620
X28770Y-10810
X28950Y-14260
X28970Y-14870
X29330Y-15840
X30030Y-11090
X31890Y-16650
X31900Y-17080
X31910Y-17540
T2
X23860Y-15940
X23860Y-16940
X24860Y-15940
X24860Y-16940
X25860Y-15940
X25860Y-16940
T3
X34625Y-14191
X34625Y-15175
X35609Y-14191
X35609Y-15175
X36594Y-14191
X36594Y-15175
X31350Y-14191
X31350Y-15175
X32334Y-14191
X32334Y-15175
X15246Y-13697
X15246Y-14681
X15246Y-15666
X15246Y-16650
X16230Y-13697
X16230Y-14681
X16230Y-15666
X16230Y-16650
T0
M30
