G04 #@! TF.GenerationSoftware,KiCad,Pcbnew,5.0.0-fee4fd1~66~ubuntu18.04.1*
G04 #@! TF.CreationDate,2018-12-05T21:06:15-05:00*
G04 #@! TF.ProjectId,Steering2,5374656572696E67322E6B696361645F,rev?*
G04 #@! TF.SameCoordinates,Original*
G04 #@! TF.FileFunction,Copper,L1,Top,Signal*
G04 #@! TF.FilePolarity,Positive*
%FSLAX46Y46*%
G04 Gerber Fmt 4.6, Leading zero omitted, Abs format (unit mm)*
G04 Created by KiCad (PCBNEW 5.0.0-fee4fd1~66~ubuntu18.04.1) date Wed Dec  5 21:06:15 2018*
%MOMM*%
%LPD*%
G01*
G04 APERTURE LIST*
G04 #@! TA.AperFunction,SMDPad,CuDef*
%ADD10R,1.060000X0.650000*%
G04 #@! TD*
G04 #@! TA.AperFunction,SMDPad,CuDef*
%ADD11R,1.300000X0.700000*%
G04 #@! TD*
G04 #@! TA.AperFunction,ComponentPad*
%ADD12R,1.700000X1.700000*%
G04 #@! TD*
G04 #@! TA.AperFunction,ComponentPad*
%ADD13C,1.700000*%
G04 #@! TD*
G04 #@! TA.AperFunction,SMDPad,CuDef*
%ADD14R,1.600000X0.550000*%
G04 #@! TD*
G04 #@! TA.AperFunction,SMDPad,CuDef*
%ADD15R,0.550000X1.600000*%
G04 #@! TD*
G04 #@! TA.AperFunction,SMDPad,CuDef*
%ADD16R,1.250000X1.000000*%
G04 #@! TD*
G04 #@! TA.AperFunction,SMDPad,CuDef*
%ADD17R,1.600000X1.000000*%
G04 #@! TD*
G04 #@! TA.AperFunction,SMDPad,CuDef*
%ADD18R,1.000000X1.250000*%
G04 #@! TD*
G04 #@! TA.AperFunction,SMDPad,CuDef*
%ADD19R,1.200000X1.200000*%
G04 #@! TD*
G04 #@! TA.AperFunction,SMDPad,CuDef*
%ADD20R,1.778000X2.159000*%
G04 #@! TD*
G04 #@! TA.AperFunction,SMDPad,CuDef*
%ADD21R,2.500000X0.900000*%
G04 #@! TD*
G04 #@! TA.AperFunction,ComponentPad*
%ADD22C,1.400000*%
G04 #@! TD*
G04 #@! TA.AperFunction,ComponentPad*
%ADD23R,1.400000X1.400000*%
G04 #@! TD*
G04 #@! TA.AperFunction,SMDPad,CuDef*
%ADD24R,3.300000X8.200000*%
G04 #@! TD*
G04 #@! TA.AperFunction,SMDPad,CuDef*
%ADD25R,0.700000X1.300000*%
G04 #@! TD*
G04 #@! TA.AperFunction,Conductor*
%ADD26C,0.100000*%
G04 #@! TD*
G04 #@! TA.AperFunction,SMDPad,CuDef*
%ADD27C,0.875000*%
G04 #@! TD*
G04 #@! TA.AperFunction,SMDPad,CuDef*
%ADD28R,1.550000X0.600000*%
G04 #@! TD*
G04 #@! TA.AperFunction,SMDPad,CuDef*
%ADD29R,1.200000X1.400000*%
G04 #@! TD*
G04 #@! TA.AperFunction,ViaPad*
%ADD30C,0.800000*%
G04 #@! TD*
G04 #@! TA.AperFunction,Conductor*
%ADD31C,0.152400*%
G04 #@! TD*
G04 #@! TA.AperFunction,Conductor*
%ADD32C,0.254000*%
G04 #@! TD*
G04 APERTURE END LIST*
D10*
G04 #@! TO.P,U2,1*
G04 #@! TO.N,GND*
X71102400Y-32903200D03*
G04 #@! TO.P,U2,2*
G04 #@! TO.N,Net-(C5-Pad2)*
X71102400Y-31953200D03*
G04 #@! TO.P,U2,3*
G04 #@! TO.N,/12V_Fused*
X71102400Y-31003200D03*
G04 #@! TO.P,U2,4*
G04 #@! TO.N,Net-(R18-Pad1)*
X68902400Y-31003200D03*
G04 #@! TO.P,U2,6*
G04 #@! TO.N,Net-(C5-Pad1)*
X68902400Y-32903200D03*
G04 #@! TO.P,U2,5*
G04 #@! TO.N,Net-(R17-Pad1)*
X68902400Y-31953200D03*
G04 #@! TD*
D11*
G04 #@! TO.P,R10,2*
G04 #@! TO.N,GND*
X43764200Y-43596600D03*
G04 #@! TO.P,R10,1*
G04 #@! TO.N,/B3_In*
X43764200Y-41696600D03*
G04 #@! TD*
D12*
G04 #@! TO.P,J3,1*
G04 #@! TO.N,/CANH*
X79629000Y-38544500D03*
D13*
G04 #@! TO.P,J3,2*
G04 #@! TO.N,/CANL*
X82129000Y-38544500D03*
G04 #@! TO.P,J3,3*
G04 #@! TO.N,+12V*
X79629000Y-36044500D03*
G04 #@! TO.P,J3,4*
G04 #@! TO.N,GND*
X82129000Y-36044500D03*
G04 #@! TD*
D14*
G04 #@! TO.P,IC1,1*
G04 #@! TO.N,/MISO*
X54440400Y-39426800D03*
G04 #@! TO.P,IC1,2*
G04 #@! TO.N,/MOSI*
X54440400Y-38626800D03*
G04 #@! TO.P,IC1,3*
G04 #@! TO.N,Net-(IC1-Pad3)*
X54440400Y-37826800D03*
G04 #@! TO.P,IC1,4*
G04 #@! TO.N,VCC*
X54440400Y-37026800D03*
G04 #@! TO.P,IC1,5*
G04 #@! TO.N,GND*
X54440400Y-36226800D03*
G04 #@! TO.P,IC1,6*
G04 #@! TO.N,/TXCAN*
X54440400Y-35426800D03*
G04 #@! TO.P,IC1,7*
G04 #@! TO.N,/RXCAN*
X54440400Y-34626800D03*
G04 #@! TO.P,IC1,8*
G04 #@! TO.N,Net-(IC1-Pad8)*
X54440400Y-33826800D03*
D15*
G04 #@! TO.P,IC1,9*
G04 #@! TO.N,Net-(IC1-Pad9)*
X52990400Y-32376800D03*
G04 #@! TO.P,IC1,10*
G04 #@! TO.N,Net-(C8-Pad1)*
X52190400Y-32376800D03*
G04 #@! TO.P,IC1,11*
G04 #@! TO.N,Net-(C6-Pad1)*
X51390400Y-32376800D03*
G04 #@! TO.P,IC1,12*
G04 #@! TO.N,/SCK*
X50590400Y-32376800D03*
G04 #@! TO.P,IC1,13*
G04 #@! TO.N,/P_LED_1*
X49790400Y-32376800D03*
G04 #@! TO.P,IC1,14*
G04 #@! TO.N,/P_LED_2*
X48990400Y-32376800D03*
G04 #@! TO.P,IC1,15*
G04 #@! TO.N,/P_LED_3*
X48190400Y-32376800D03*
G04 #@! TO.P,IC1,16*
G04 #@! TO.N,/B1_In*
X47390400Y-32376800D03*
D14*
G04 #@! TO.P,IC1,17*
G04 #@! TO.N,/B2_In*
X45940400Y-33826800D03*
G04 #@! TO.P,IC1,18*
G04 #@! TO.N,Net-(IC1-Pad18)*
X45940400Y-34626800D03*
G04 #@! TO.P,IC1,19*
G04 #@! TO.N,Net-(C2-Pad1)*
X45940400Y-35426800D03*
G04 #@! TO.P,IC1,20*
G04 #@! TO.N,GND*
X45940400Y-36226800D03*
G04 #@! TO.P,IC1,21*
G04 #@! TO.N,Net-(IC1-Pad21)*
X45940400Y-37026800D03*
G04 #@! TO.P,IC1,22*
G04 #@! TO.N,Net-(IC1-Pad22)*
X45940400Y-37826800D03*
G04 #@! TO.P,IC1,23*
G04 #@! TO.N,Net-(IC1-Pad23)*
X45940400Y-38626800D03*
G04 #@! TO.P,IC1,24*
G04 #@! TO.N,/B3_In*
X45940400Y-39426800D03*
D15*
G04 #@! TO.P,IC1,25*
G04 #@! TO.N,/B4_In*
X47390400Y-40876800D03*
G04 #@! TO.P,IC1,26*
G04 #@! TO.N,/LED_Driver1*
X48190400Y-40876800D03*
G04 #@! TO.P,IC1,27*
G04 #@! TO.N,/LED_Driver2*
X48990400Y-40876800D03*
G04 #@! TO.P,IC1,28*
G04 #@! TO.N,/LED_Driver3*
X49790400Y-40876800D03*
G04 #@! TO.P,IC1,29*
G04 #@! TO.N,Net-(IC1-Pad29)*
X50590400Y-40876800D03*
G04 #@! TO.P,IC1,30*
G04 #@! TO.N,Net-(IC1-Pad30)*
X51390400Y-40876800D03*
G04 #@! TO.P,IC1,31*
G04 #@! TO.N,/RESET*
X52190400Y-40876800D03*
G04 #@! TO.P,IC1,32*
G04 #@! TO.N,Net-(IC1-Pad32)*
X52990400Y-40876800D03*
G04 #@! TD*
D16*
G04 #@! TO.P,C1,1*
G04 #@! TO.N,VCC*
X58013600Y-35626800D03*
G04 #@! TO.P,C1,2*
G04 #@! TO.N,GND*
X58013600Y-37626800D03*
G04 #@! TD*
G04 #@! TO.P,C2,1*
G04 #@! TO.N,Net-(C2-Pad1)*
X43815000Y-35798000D03*
G04 #@! TO.P,C2,2*
G04 #@! TO.N,GND*
X43815000Y-33798000D03*
G04 #@! TD*
D17*
G04 #@! TO.P,C3,1*
G04 #@! TO.N,/12V_Fused*
X73964800Y-29287600D03*
G04 #@! TO.P,C3,2*
G04 #@! TO.N,GND*
X73964800Y-26287600D03*
G04 #@! TD*
D16*
G04 #@! TO.P,C4,2*
G04 #@! TO.N,GND*
X68529200Y-40868600D03*
G04 #@! TO.P,C4,1*
G04 #@! TO.N,VCC*
X68529200Y-42868600D03*
G04 #@! TD*
D18*
G04 #@! TO.P,C5,2*
G04 #@! TO.N,Net-(C5-Pad2)*
X70986400Y-29057600D03*
G04 #@! TO.P,C5,1*
G04 #@! TO.N,Net-(C5-Pad1)*
X68986400Y-29057600D03*
G04 #@! TD*
G04 #@! TO.P,C6,1*
G04 #@! TO.N,Net-(C6-Pad1)*
X52746400Y-26085800D03*
G04 #@! TO.P,C6,2*
G04 #@! TO.N,GND*
X54746400Y-26085800D03*
G04 #@! TD*
D16*
G04 #@! TO.P,C7,1*
G04 #@! TO.N,Net-(C11-Pad1)*
X60051900Y-34617206D03*
G04 #@! TO.P,C7,2*
G04 #@! TO.N,GND*
X60051900Y-36617206D03*
G04 #@! TD*
G04 #@! TO.P,C8,2*
G04 #@! TO.N,GND*
X54762400Y-28108400D03*
G04 #@! TO.P,C8,1*
G04 #@! TO.N,Net-(C8-Pad1)*
X54762400Y-30108400D03*
G04 #@! TD*
G04 #@! TO.P,C11,1*
G04 #@! TO.N,Net-(C11-Pad1)*
X61956900Y-34617206D03*
G04 #@! TO.P,C11,2*
G04 #@! TO.N,GND*
X61956900Y-36617206D03*
G04 #@! TD*
G04 #@! TO.P,C12,2*
G04 #@! TO.N,GND*
X63861900Y-36601206D03*
G04 #@! TO.P,C12,1*
G04 #@! TO.N,Net-(C11-Pad1)*
X63861900Y-34601206D03*
G04 #@! TD*
D19*
G04 #@! TO.P,D1,2*
G04 #@! TO.N,Net-(D1-Pad2)*
X69545200Y-35374400D03*
G04 #@! TO.P,D1,1*
G04 #@! TO.N,GND*
X69545200Y-37574400D03*
G04 #@! TD*
G04 #@! TO.P,D2,1*
G04 #@! TO.N,GND*
X58216800Y-26433600D03*
G04 #@! TO.P,D2,2*
G04 #@! TO.N,Net-(D2-Pad2)*
X58216800Y-28633600D03*
G04 #@! TD*
G04 #@! TO.P,D4,2*
G04 #@! TO.N,Net-(D4-Pad2)*
X44348400Y-30124400D03*
G04 #@! TO.P,D4,1*
G04 #@! TO.N,GND*
X42148400Y-30124400D03*
G04 #@! TD*
G04 #@! TO.P,D5,1*
G04 #@! TO.N,GND*
X42148400Y-26187400D03*
G04 #@! TO.P,D5,2*
G04 #@! TO.N,Net-(D5-Pad2)*
X44348400Y-26187400D03*
G04 #@! TD*
G04 #@! TO.P,D6,2*
G04 #@! TO.N,Net-(D6-Pad2)*
X44348400Y-28168600D03*
G04 #@! TO.P,D6,1*
G04 #@! TO.N,GND*
X42148400Y-28168600D03*
G04 #@! TD*
D20*
G04 #@! TO.P,D7,2*
G04 #@! TO.N,GND*
X71882000Y-37084000D03*
G04 #@! TO.P,D7,1*
G04 #@! TO.N,+12V*
X75946000Y-37084000D03*
G04 #@! TD*
D21*
G04 #@! TO.P,F1,1*
G04 #@! TO.N,+12V*
X75844400Y-34165200D03*
G04 #@! TO.P,F1,2*
G04 #@! TO.N,/12V_Fused*
X75844400Y-31265200D03*
G04 #@! TD*
D22*
G04 #@! TO.P,J4,6*
G04 #@! TO.N,GND*
X65684400Y-40487600D03*
G04 #@! TO.P,J4,5*
G04 #@! TO.N,/RESET*
X65684400Y-43027600D03*
G04 #@! TO.P,J4,4*
G04 #@! TO.N,/MOSI*
X63144400Y-40487600D03*
G04 #@! TO.P,J4,3*
G04 #@! TO.N,/SCK*
X63144400Y-43027600D03*
G04 #@! TO.P,J4,2*
G04 #@! TO.N,VCC*
X60604400Y-40487600D03*
D23*
G04 #@! TO.P,J4,1*
G04 #@! TO.N,/MISO*
X60604400Y-43027600D03*
G04 #@! TD*
D24*
G04 #@! TO.P,L1,1*
G04 #@! TO.N,Net-(C5-Pad2)*
X65799200Y-29413200D03*
G04 #@! TO.P,L1,2*
G04 #@! TO.N,Net-(C11-Pad1)*
X61099200Y-29413200D03*
G04 #@! TD*
D11*
G04 #@! TO.P,R1,1*
G04 #@! TO.N,VCC*
X43764200Y-39136400D03*
G04 #@! TO.P,R1,2*
G04 #@! TO.N,Net-(C2-Pad1)*
X43764200Y-37236400D03*
G04 #@! TD*
G04 #@! TO.P,R2,2*
G04 #@! TO.N,/RESET*
X57810400Y-42352000D03*
G04 #@! TO.P,R2,1*
G04 #@! TO.N,VCC*
X57810400Y-40452000D03*
G04 #@! TD*
D25*
G04 #@! TO.P,R3,2*
G04 #@! TO.N,/LED_Driver1*
X85943400Y-44119800D03*
G04 #@! TO.P,R3,1*
G04 #@! TO.N,/LED1_Out*
X87843400Y-44119800D03*
G04 #@! TD*
G04 #@! TO.P,R4,1*
G04 #@! TO.N,/P_LED_1*
X47940000Y-26187400D03*
G04 #@! TO.P,R4,2*
G04 #@! TO.N,Net-(D5-Pad2)*
X46040000Y-26187400D03*
G04 #@! TD*
G04 #@! TO.P,R5,1*
G04 #@! TO.N,/P_LED_2*
X47940000Y-28219400D03*
G04 #@! TO.P,R5,2*
G04 #@! TO.N,Net-(D6-Pad2)*
X46040000Y-28219400D03*
G04 #@! TD*
G04 #@! TO.P,R6,2*
G04 #@! TO.N,Net-(D4-Pad2)*
X46055200Y-30200600D03*
G04 #@! TO.P,R6,1*
G04 #@! TO.N,/P_LED_3*
X47955200Y-30200600D03*
G04 #@! TD*
D11*
G04 #@! TO.P,R7,1*
G04 #@! TO.N,/CANH*
X78333600Y-40655200D03*
G04 #@! TO.P,R7,2*
G04 #@! TO.N,/CANL*
X78333600Y-42555200D03*
G04 #@! TD*
D25*
G04 #@! TO.P,R8,2*
G04 #@! TO.N,GND*
X37927200Y-31470600D03*
G04 #@! TO.P,R8,1*
G04 #@! TO.N,/B1_In*
X39827200Y-31470600D03*
G04 #@! TD*
G04 #@! TO.P,R9,1*
G04 #@! TO.N,/LED2_Out*
X84516000Y-43002200D03*
G04 #@! TO.P,R9,2*
G04 #@! TO.N,/LED_Driver2*
X82616000Y-43002200D03*
G04 #@! TD*
G04 #@! TO.P,R11,1*
G04 #@! TO.N,/LED3_Out*
X84490600Y-40995600D03*
G04 #@! TO.P,R11,2*
G04 #@! TO.N,/LED_Driver3*
X82590600Y-40995600D03*
G04 #@! TD*
D11*
G04 #@! TO.P,R12,2*
G04 #@! TO.N,Net-(D2-Pad2)*
X58115200Y-30469800D03*
G04 #@! TO.P,R12,1*
G04 #@! TO.N,VCC*
X58115200Y-32369800D03*
G04 #@! TD*
G04 #@! TO.P,R13,1*
G04 #@! TO.N,/B2_In*
X36220400Y-31785600D03*
G04 #@! TO.P,R13,2*
G04 #@! TO.N,GND*
X36220400Y-29885600D03*
G04 #@! TD*
D25*
G04 #@! TO.P,R14,1*
G04 #@! TO.N,/B4_In*
X45811400Y-44094400D03*
G04 #@! TO.P,R14,2*
G04 #@! TO.N,GND*
X47711400Y-44094400D03*
G04 #@! TD*
D11*
G04 #@! TO.P,R16,2*
G04 #@! TO.N,Net-(D1-Pad2)*
X73304400Y-33070800D03*
G04 #@! TO.P,R16,1*
G04 #@! TO.N,/12V_Fused*
X73304400Y-31170800D03*
G04 #@! TD*
G04 #@! TO.P,R17,2*
G04 #@! TO.N,/12V_Fused*
X76301600Y-29296400D03*
G04 #@! TO.P,R17,1*
G04 #@! TO.N,Net-(R17-Pad1)*
X76301600Y-27396400D03*
G04 #@! TD*
D25*
G04 #@! TO.P,R19,1*
G04 #@! TO.N,Net-(C11-Pad1)*
X65902800Y-35001200D03*
G04 #@! TO.P,R19,2*
G04 #@! TO.N,Net-(R18-Pad1)*
X67802800Y-35001200D03*
G04 #@! TD*
D26*
G04 #@! TO.N,VCC*
G04 #@! TO.C,R20*
G36*
X57009091Y-33511253D02*
X57030326Y-33514403D01*
X57051150Y-33519619D01*
X57071362Y-33526851D01*
X57090768Y-33536030D01*
X57109181Y-33547066D01*
X57126424Y-33559854D01*
X57142330Y-33574270D01*
X57156746Y-33590176D01*
X57169534Y-33607419D01*
X57180570Y-33625832D01*
X57189749Y-33645238D01*
X57196981Y-33665450D01*
X57202197Y-33686274D01*
X57205347Y-33707509D01*
X57206400Y-33728950D01*
X57206400Y-34241450D01*
X57205347Y-34262891D01*
X57202197Y-34284126D01*
X57196981Y-34304950D01*
X57189749Y-34325162D01*
X57180570Y-34344568D01*
X57169534Y-34362981D01*
X57156746Y-34380224D01*
X57142330Y-34396130D01*
X57126424Y-34410546D01*
X57109181Y-34423334D01*
X57090768Y-34434370D01*
X57071362Y-34443549D01*
X57051150Y-34450781D01*
X57030326Y-34455997D01*
X57009091Y-34459147D01*
X56987650Y-34460200D01*
X56550150Y-34460200D01*
X56528709Y-34459147D01*
X56507474Y-34455997D01*
X56486650Y-34450781D01*
X56466438Y-34443549D01*
X56447032Y-34434370D01*
X56428619Y-34423334D01*
X56411376Y-34410546D01*
X56395470Y-34396130D01*
X56381054Y-34380224D01*
X56368266Y-34362981D01*
X56357230Y-34344568D01*
X56348051Y-34325162D01*
X56340819Y-34304950D01*
X56335603Y-34284126D01*
X56332453Y-34262891D01*
X56331400Y-34241450D01*
X56331400Y-33728950D01*
X56332453Y-33707509D01*
X56335603Y-33686274D01*
X56340819Y-33665450D01*
X56348051Y-33645238D01*
X56357230Y-33625832D01*
X56368266Y-33607419D01*
X56381054Y-33590176D01*
X56395470Y-33574270D01*
X56411376Y-33559854D01*
X56428619Y-33547066D01*
X56447032Y-33536030D01*
X56466438Y-33526851D01*
X56486650Y-33519619D01*
X56507474Y-33514403D01*
X56528709Y-33511253D01*
X56550150Y-33510200D01*
X56987650Y-33510200D01*
X57009091Y-33511253D01*
X57009091Y-33511253D01*
G37*
D27*
G04 #@! TD*
G04 #@! TO.P,R20,1*
G04 #@! TO.N,VCC*
X56768900Y-33985200D03*
D26*
G04 #@! TO.N,Net-(C11-Pad1)*
G04 #@! TO.C,R20*
G36*
X58584091Y-33511253D02*
X58605326Y-33514403D01*
X58626150Y-33519619D01*
X58646362Y-33526851D01*
X58665768Y-33536030D01*
X58684181Y-33547066D01*
X58701424Y-33559854D01*
X58717330Y-33574270D01*
X58731746Y-33590176D01*
X58744534Y-33607419D01*
X58755570Y-33625832D01*
X58764749Y-33645238D01*
X58771981Y-33665450D01*
X58777197Y-33686274D01*
X58780347Y-33707509D01*
X58781400Y-33728950D01*
X58781400Y-34241450D01*
X58780347Y-34262891D01*
X58777197Y-34284126D01*
X58771981Y-34304950D01*
X58764749Y-34325162D01*
X58755570Y-34344568D01*
X58744534Y-34362981D01*
X58731746Y-34380224D01*
X58717330Y-34396130D01*
X58701424Y-34410546D01*
X58684181Y-34423334D01*
X58665768Y-34434370D01*
X58646362Y-34443549D01*
X58626150Y-34450781D01*
X58605326Y-34455997D01*
X58584091Y-34459147D01*
X58562650Y-34460200D01*
X58125150Y-34460200D01*
X58103709Y-34459147D01*
X58082474Y-34455997D01*
X58061650Y-34450781D01*
X58041438Y-34443549D01*
X58022032Y-34434370D01*
X58003619Y-34423334D01*
X57986376Y-34410546D01*
X57970470Y-34396130D01*
X57956054Y-34380224D01*
X57943266Y-34362981D01*
X57932230Y-34344568D01*
X57923051Y-34325162D01*
X57915819Y-34304950D01*
X57910603Y-34284126D01*
X57907453Y-34262891D01*
X57906400Y-34241450D01*
X57906400Y-33728950D01*
X57907453Y-33707509D01*
X57910603Y-33686274D01*
X57915819Y-33665450D01*
X57923051Y-33645238D01*
X57932230Y-33625832D01*
X57943266Y-33607419D01*
X57956054Y-33590176D01*
X57970470Y-33574270D01*
X57986376Y-33559854D01*
X58003619Y-33547066D01*
X58022032Y-33536030D01*
X58041438Y-33526851D01*
X58061650Y-33519619D01*
X58082474Y-33514403D01*
X58103709Y-33511253D01*
X58125150Y-33510200D01*
X58562650Y-33510200D01*
X58584091Y-33511253D01*
X58584091Y-33511253D01*
G37*
D27*
G04 #@! TD*
G04 #@! TO.P,R20,2*
G04 #@! TO.N,Net-(C11-Pad1)*
X58343900Y-33985200D03*
D28*
G04 #@! TO.P,U1,1*
G04 #@! TO.N,/TXCAN*
X70604400Y-40208200D03*
G04 #@! TO.P,U1,2*
G04 #@! TO.N,GND*
X70604400Y-41478200D03*
G04 #@! TO.P,U1,3*
G04 #@! TO.N,VCC*
X70604400Y-42748200D03*
G04 #@! TO.P,U1,4*
G04 #@! TO.N,/RXCAN*
X70604400Y-44018200D03*
G04 #@! TO.P,U1,5*
G04 #@! TO.N,Net-(U1-Pad5)*
X76004400Y-44018200D03*
G04 #@! TO.P,U1,6*
G04 #@! TO.N,/CANL*
X76004400Y-42748200D03*
G04 #@! TO.P,U1,7*
G04 #@! TO.N,/CANH*
X76004400Y-41478200D03*
G04 #@! TO.P,U1,8*
G04 #@! TO.N,GND*
X76004400Y-40208200D03*
G04 #@! TD*
D29*
G04 #@! TO.P,Y1,1*
G04 #@! TO.N,Net-(C6-Pad1)*
X51270000Y-28059200D03*
G04 #@! TO.P,Y1,2*
G04 #@! TO.N,GND*
X51270000Y-30259200D03*
G04 #@! TO.P,Y1,3*
G04 #@! TO.N,Net-(C8-Pad1)*
X52870000Y-30259200D03*
G04 #@! TO.P,Y1,4*
G04 #@! TO.N,GND*
X52870000Y-28059200D03*
G04 #@! TD*
D12*
G04 #@! TO.P,J1,1*
G04 #@! TO.N,/LED3_Out*
X87947500Y-38544500D03*
D13*
G04 #@! TO.P,J1,2*
G04 #@! TO.N,/LED2_Out*
X90447500Y-38544500D03*
G04 #@! TO.P,J1,3*
G04 #@! TO.N,/LED1_Out*
X92947500Y-38544500D03*
G04 #@! TO.P,J1,4*
G04 #@! TO.N,GND*
X87947500Y-36044500D03*
G04 #@! TO.P,J1,5*
X90447500Y-36044500D03*
G04 #@! TO.P,J1,6*
X92947500Y-36044500D03*
G04 #@! TD*
D12*
G04 #@! TO.P,J2,1*
G04 #@! TO.N,/B4_In*
X41224200Y-42291000D03*
D13*
G04 #@! TO.P,J2,2*
G04 #@! TO.N,/B3_In*
X41224200Y-39791000D03*
G04 #@! TO.P,J2,3*
G04 #@! TO.N,/B2_In*
X41224200Y-37291000D03*
G04 #@! TO.P,J2,4*
G04 #@! TO.N,/B1_In*
X41224200Y-34791000D03*
G04 #@! TO.P,J2,5*
G04 #@! TO.N,VCC*
X38724200Y-42291000D03*
G04 #@! TO.P,J2,6*
X38724200Y-39791000D03*
G04 #@! TO.P,J2,7*
X38724200Y-37291000D03*
G04 #@! TO.P,J2,8*
X38724200Y-34791000D03*
G04 #@! TD*
D25*
G04 #@! TO.P,R18,1*
G04 #@! TO.N,Net-(R18-Pad1)*
X67838400Y-37109400D03*
G04 #@! TO.P,R18,2*
G04 #@! TO.N,GND*
X65938400Y-37109400D03*
G04 #@! TD*
D30*
G04 #@! TO.N,VCC*
X47424959Y-37245394D03*
X43789600Y-38277800D03*
G04 #@! TO.N,GND*
X73583800Y-37769800D03*
X73075800Y-27457400D03*
X72064764Y-33531848D03*
X47396400Y-36245800D03*
X74498200Y-40233600D03*
X52171600Y-36569194D03*
X59994800Y-37998400D03*
X46761402Y-44043600D03*
X43789600Y-33053000D03*
X42113200Y-31572200D03*
X43815000Y-42697400D03*
X36220400Y-30835598D03*
X67411600Y-40589200D03*
X71196200Y-37566600D03*
X68427600Y-40132000D03*
X73533000Y-36220400D03*
X72872600Y-37134800D03*
X56464200Y-27686000D03*
G04 #@! TO.N,Net-(C5-Pad1)*
X69824600Y-32943800D03*
X69697600Y-29184600D03*
G04 #@! TO.N,/TXCAN*
X56083200Y-36322000D03*
X70027800Y-39141400D03*
G04 #@! TO.N,/RXCAN*
X71027456Y-39167706D03*
X56057800Y-35153600D03*
G04 #@! TO.N,/SCK*
X51358800Y-42468800D03*
X50520600Y-33909000D03*
G04 #@! TO.N,/LED_Driver3*
X81000600Y-42291000D03*
X51079400Y-43459400D03*
G04 #@! TO.N,/LED_Driver2*
X81026000Y-43383200D03*
X49844027Y-43600735D03*
G04 #@! TO.N,/LED_Driver1*
X81051400Y-44551600D03*
X48183800Y-42392600D03*
G04 #@! TO.N,Net-(R17-Pad1)*
X69342000Y-31965900D03*
X76276200Y-28168600D03*
G04 #@! TD*
D31*
G04 #@! TO.N,VCC*
X68945000Y-42748200D02*
X68529200Y-43164000D01*
D32*
X58013600Y-35229900D02*
X56768900Y-33985200D01*
X56768900Y-33716100D02*
X58115200Y-32369800D01*
X56768900Y-33985200D02*
X56768900Y-33716100D01*
X55494400Y-37026800D02*
X54440400Y-37026800D01*
D31*
X68529200Y-43164000D02*
X68404200Y-43164000D01*
X47990644Y-37245394D02*
X47424959Y-37245394D01*
X53269406Y-37245394D02*
X47990644Y-37245394D01*
X53488000Y-37026800D02*
X53269406Y-37245394D01*
X54440400Y-37026800D02*
X53488000Y-37026800D01*
X60604400Y-40487600D02*
X57846000Y-40487600D01*
X55392800Y-37026800D02*
X54440400Y-37026800D01*
X57810400Y-40452000D02*
X57810400Y-39444400D01*
X57810400Y-39444400D02*
X55392800Y-37026800D01*
X43764200Y-39136400D02*
X43764200Y-38303200D01*
X43764200Y-38303200D02*
X43789600Y-38277800D01*
X42919115Y-38582600D02*
X43223915Y-38277800D01*
X38724200Y-38582600D02*
X42919115Y-38582600D01*
X38724200Y-38582600D02*
X38724200Y-42291000D01*
X43223915Y-38277800D02*
X43789600Y-38277800D01*
X38724200Y-34791000D02*
X38724200Y-38582600D01*
X68649600Y-42748200D02*
X68529200Y-42868600D01*
X70604400Y-42748200D02*
X68649600Y-42748200D01*
X67242400Y-41706800D02*
X68404200Y-42868600D01*
X68404200Y-42868600D02*
X68529200Y-42868600D01*
X60604400Y-40487600D02*
X61580601Y-39511399D01*
X64120601Y-40019023D02*
X64120601Y-40956177D01*
X61580601Y-39511399D02*
X63612977Y-39511399D01*
X64871224Y-41706800D02*
X67242400Y-41706800D01*
X63612977Y-39511399D02*
X64120601Y-40019023D01*
X64120601Y-40956177D02*
X64871224Y-41706800D01*
D32*
X57888600Y-35626800D02*
X58013600Y-35626800D01*
X56466399Y-37049001D02*
X57888600Y-35626800D01*
X55516601Y-37049001D02*
X56466399Y-37049001D01*
X55494400Y-37026800D02*
X55516601Y-37049001D01*
G04 #@! TO.N,GND*
X71102400Y-32903200D02*
X71436116Y-32903200D01*
X71436116Y-32903200D02*
X72064764Y-33531848D01*
D31*
X42148400Y-26939800D02*
X42148400Y-28168600D01*
X42148400Y-26187400D02*
X42148400Y-26939800D01*
X42148400Y-28921000D02*
X42148400Y-30124400D01*
X42148400Y-28168600D02*
X42148400Y-28921000D01*
X53273200Y-27656000D02*
X52870000Y-28059200D01*
X54713200Y-28059200D02*
X54762400Y-28108400D01*
X52870000Y-28059200D02*
X54713200Y-28059200D01*
X45940400Y-36226800D02*
X47377400Y-36226800D01*
X47377400Y-36226800D02*
X47396400Y-36245800D01*
X52870000Y-28159200D02*
X52870000Y-28059200D01*
X51270000Y-29759200D02*
X52870000Y-28159200D01*
X51270000Y-30259200D02*
X51270000Y-29759200D01*
D32*
X76004400Y-40208200D02*
X74523600Y-40208200D01*
X74523600Y-40208200D02*
X74498200Y-40233600D01*
X61972900Y-36601206D02*
X61956900Y-36617206D01*
X63861900Y-36601206D02*
X61972900Y-36601206D01*
X60051900Y-36617206D02*
X61956900Y-36617206D01*
X58013600Y-36872800D02*
X58013600Y-37626800D01*
X58269194Y-36617206D02*
X58013600Y-36872800D01*
X60051900Y-36617206D02*
X58269194Y-36617206D01*
X54440400Y-36226800D02*
X52513994Y-36226800D01*
X52513994Y-36226800D02*
X52171600Y-36569194D01*
X58013600Y-37626800D02*
X59623200Y-37626800D01*
X59623200Y-37626800D02*
X59994800Y-37998400D01*
X69545200Y-37574400D02*
X69545200Y-38049200D01*
X65430206Y-36601206D02*
X65938400Y-37109400D01*
X63861900Y-36601206D02*
X65430206Y-36601206D01*
D31*
X47711400Y-44094400D02*
X46812202Y-44094400D01*
X46812202Y-44094400D02*
X46761402Y-44043600D01*
X43815000Y-33798000D02*
X43815000Y-33078400D01*
X43815000Y-33078400D02*
X43789600Y-33053000D01*
X42148400Y-30124400D02*
X42148400Y-31537000D01*
X43764200Y-43596600D02*
X43764200Y-42748200D01*
X43764200Y-42748200D02*
X43815000Y-42697400D01*
X37927200Y-31170600D02*
X37927200Y-31470600D01*
X36220400Y-29885600D02*
X36642200Y-29885600D01*
X37338200Y-30581600D02*
X36474398Y-30581600D01*
X37338200Y-30581600D02*
X37927200Y-31170600D01*
X36474398Y-30581600D02*
X36220400Y-30835598D01*
X36642200Y-29885600D02*
X37338200Y-30581600D01*
X54746400Y-28092400D02*
X54762400Y-28108400D01*
X54746400Y-26085800D02*
X54746400Y-28092400D01*
X54762400Y-28108400D02*
X56041800Y-28108400D01*
X56041800Y-28108400D02*
X56464200Y-27686000D01*
X57029885Y-27686000D02*
X56464200Y-27686000D01*
X57716800Y-27686000D02*
X57029885Y-27686000D01*
X58216800Y-27186000D02*
X57716800Y-27686000D01*
X58216800Y-26433600D02*
X58216800Y-27186000D01*
X73447400Y-27457400D02*
X73075800Y-27457400D01*
X73964800Y-26940000D02*
X73447400Y-27457400D01*
X73964800Y-26287600D02*
X73964800Y-26940000D01*
G04 #@! TO.N,Net-(C2-Pad1)*
X44186200Y-35426800D02*
X43815000Y-35798000D01*
X45940400Y-35426800D02*
X44186200Y-35426800D01*
X43815000Y-37185600D02*
X43764200Y-37236400D01*
X43815000Y-35798000D02*
X43815000Y-37185600D01*
D32*
G04 #@! TO.N,Net-(C5-Pad2)*
X70318400Y-31953200D02*
X70245399Y-31880199D01*
X71205600Y-29182600D02*
X71205600Y-29057600D01*
X70245399Y-31880199D02*
X70245399Y-30142801D01*
X71102400Y-31953200D02*
X70318400Y-31953200D01*
X70780199Y-30142801D02*
X70986400Y-29936600D01*
X70986400Y-29936600D02*
X70986400Y-29057600D01*
X70245399Y-30142801D02*
X70780199Y-30142801D01*
X68355001Y-26857399D02*
X65799200Y-29413200D01*
X69665199Y-26857399D02*
X68355001Y-26857399D01*
X70986400Y-28178600D02*
X69665199Y-26857399D01*
X70986400Y-29057600D02*
X70986400Y-28178600D01*
D31*
G04 #@! TO.N,Net-(C5-Pad1)*
X69037200Y-29006800D02*
X68986400Y-29057600D01*
X69113400Y-29184600D02*
X68986400Y-29057600D01*
X69697600Y-29184600D02*
X69113400Y-29184600D01*
X69784000Y-32903200D02*
X69824600Y-32943800D01*
X68902400Y-32903200D02*
X69784000Y-32903200D01*
G04 #@! TO.N,Net-(C6-Pad1)*
X51270000Y-28159200D02*
X51270000Y-28059200D01*
X50393799Y-29035401D02*
X51270000Y-28159200D01*
X50393799Y-31180161D02*
X50393799Y-29035401D01*
X50449039Y-31235401D02*
X50393799Y-31180161D01*
X51201401Y-31235401D02*
X50449039Y-31235401D01*
X51390400Y-32376800D02*
X51390400Y-31424400D01*
X51390400Y-31424400D02*
X51201401Y-31235401D01*
X52746400Y-26210800D02*
X52746400Y-26085800D01*
X51270000Y-27687200D02*
X52746400Y-26210800D01*
X51270000Y-28059200D02*
X51270000Y-27687200D01*
D32*
G04 #@! TO.N,Net-(C11-Pad1)*
X59419894Y-33985200D02*
X60051900Y-34617206D01*
X58343900Y-33985200D02*
X59419894Y-33985200D01*
D31*
G04 #@! TO.N,Net-(C8-Pad1)*
X52190400Y-31038800D02*
X52870000Y-30359200D01*
X52870000Y-30359200D02*
X52870000Y-30259200D01*
X52190400Y-32376800D02*
X52190400Y-31038800D01*
X54611600Y-30259200D02*
X54762400Y-30108400D01*
X52870000Y-30259200D02*
X54611600Y-30259200D01*
D32*
G04 #@! TO.N,Net-(D1-Pad2)*
X70399200Y-35374400D02*
X69545200Y-35374400D01*
X71604800Y-35374400D02*
X70399200Y-35374400D01*
X73304400Y-33674800D02*
X71604800Y-35374400D01*
X73304400Y-33070800D02*
X73304400Y-33674800D01*
G04 #@! TO.N,Net-(D2-Pad2)*
X58216800Y-30368200D02*
X58115200Y-30469800D01*
X58216800Y-28633600D02*
X58216800Y-30368200D01*
D31*
G04 #@! TO.N,Net-(D4-Pad2)*
X44424600Y-30200600D02*
X44348400Y-30124400D01*
X46055200Y-30200600D02*
X44424600Y-30200600D01*
G04 #@! TO.N,Net-(D5-Pad2)*
X45537600Y-26187400D02*
X44348400Y-26187400D01*
X46040000Y-26187400D02*
X45537600Y-26187400D01*
G04 #@! TO.N,Net-(D6-Pad2)*
X44399200Y-28219400D02*
X44348400Y-28168600D01*
X46040000Y-28219400D02*
X44399200Y-28219400D01*
G04 #@! TO.N,/MISO*
X54440400Y-39854200D02*
X54440400Y-39426800D01*
X58474011Y-41430611D02*
X56016811Y-41430611D01*
X60071000Y-43027600D02*
X58474011Y-41430611D01*
X56016811Y-41430611D02*
X54440400Y-39854200D01*
X60604400Y-43027600D02*
X60071000Y-43027600D01*
G04 #@! TO.N,/MOSI*
X63144400Y-40487600D02*
X61969572Y-41662428D01*
X61969572Y-41662428D02*
X59340828Y-41662428D01*
X55516601Y-39655363D02*
X55516601Y-38750601D01*
X55392800Y-38626800D02*
X54440400Y-38626800D01*
X56939439Y-41078201D02*
X55516601Y-39655363D01*
X55516601Y-38750601D02*
X55392800Y-38626800D01*
X58756601Y-41078201D02*
X56939439Y-41078201D01*
X59340828Y-41662428D02*
X58756601Y-41078201D01*
G04 #@! TO.N,/TXCAN*
X70027800Y-39631600D02*
X70604400Y-40208200D01*
X70027800Y-39141400D02*
X70027800Y-39631600D01*
X54383400Y-35483800D02*
X54440400Y-35426800D01*
X54689199Y-35675599D02*
X54440400Y-35426800D01*
X55188000Y-35426800D02*
X54440400Y-35426800D01*
X56083200Y-36322000D02*
X55188000Y-35426800D01*
G04 #@! TO.N,/RXCAN*
X71136068Y-39167706D02*
X71027456Y-39167706D01*
X71655601Y-39687239D02*
X71136068Y-39167706D01*
X71655601Y-43441999D02*
X71655601Y-39687239D01*
X70604400Y-44018200D02*
X71079400Y-44018200D01*
X71079400Y-44018200D02*
X71655601Y-43441999D01*
X54440399Y-34626799D02*
X54440400Y-34626800D01*
X54433800Y-34620200D02*
X54440400Y-34626800D01*
X55531000Y-34626800D02*
X54440400Y-34626800D01*
X56057800Y-35153600D02*
X55531000Y-34626800D01*
G04 #@! TO.N,/SCK*
X53246211Y-44356211D02*
X51358800Y-42468800D01*
X63144400Y-43027600D02*
X61815789Y-44356211D01*
X61815789Y-44356211D02*
X53246211Y-44356211D01*
X50590400Y-32376800D02*
X50590400Y-33839200D01*
X50590400Y-33839200D02*
X50520600Y-33909000D01*
G04 #@! TO.N,/P_LED_1*
X47940000Y-25887400D02*
X47940000Y-26187400D01*
X48442400Y-26187400D02*
X47940000Y-26187400D01*
X49790400Y-27535400D02*
X48442400Y-26187400D01*
X49790400Y-32376800D02*
X49790400Y-27535400D01*
G04 #@! TO.N,/P_LED_2*
X48442400Y-28219400D02*
X47940000Y-28219400D01*
X48990400Y-28767400D02*
X48442400Y-28219400D01*
X48990400Y-32376800D02*
X48990400Y-28767400D01*
G04 #@! TO.N,/P_LED_3*
X48190400Y-30435800D02*
X47955200Y-30200600D01*
X48190400Y-32376800D02*
X48190400Y-30435800D01*
G04 #@! TO.N,/LED_Driver3*
X49826294Y-40912694D02*
X49790400Y-40876800D01*
X49860200Y-40946600D02*
X49790400Y-40876800D01*
X49790400Y-42170400D02*
X51079400Y-43459400D01*
X49790400Y-40876800D02*
X49790400Y-42170400D01*
X81566285Y-42291000D02*
X81000600Y-42291000D01*
X81595200Y-42291000D02*
X81566285Y-42291000D01*
X82590600Y-41295600D02*
X81595200Y-42291000D01*
X82590600Y-40995600D02*
X82590600Y-41295600D01*
G04 #@! TO.N,/LED_Driver2*
X48990400Y-41829200D02*
X48996600Y-41835400D01*
X48990400Y-40876800D02*
X48990400Y-41829200D01*
X48996600Y-41835400D02*
X48996600Y-42753308D01*
X48996600Y-42753308D02*
X49844027Y-43600735D01*
X81407000Y-43002200D02*
X81026000Y-43383200D01*
X82616000Y-43002200D02*
X81407000Y-43002200D01*
G04 #@! TO.N,/LED_Driver1*
X48195563Y-40881963D02*
X48190400Y-40876800D01*
X48183800Y-40883400D02*
X48190400Y-40876800D01*
X48183800Y-42392600D02*
X48183800Y-40883400D01*
X81483200Y-44119800D02*
X81051400Y-44551600D01*
X85943400Y-44119800D02*
X81483200Y-44119800D01*
G04 #@! TO.N,/B1_In*
X41224200Y-34791000D02*
X41224200Y-33588919D01*
X47390400Y-32376800D02*
X41224200Y-32376800D01*
X41224200Y-33588919D02*
X41224200Y-32376800D01*
X40329600Y-31470600D02*
X39827200Y-31470600D01*
X41224200Y-32365200D02*
X40329600Y-31470600D01*
X41224200Y-32376800D02*
X41224200Y-32365200D01*
G04 #@! TO.N,/B2_In*
X39850401Y-35917201D02*
X39850401Y-34302801D01*
X41224200Y-37291000D02*
X39850401Y-35917201D01*
X44988000Y-33826800D02*
X45940400Y-33826800D01*
X44716201Y-34098599D02*
X44988000Y-33826800D01*
X44716201Y-34518961D02*
X44716201Y-34098599D01*
X44660961Y-34574201D02*
X44716201Y-34518961D01*
X43107777Y-34574201D02*
X44660961Y-34574201D01*
X41764777Y-35917201D02*
X43107777Y-34574201D01*
X39850401Y-35917201D02*
X41764777Y-35917201D01*
X39212399Y-33664799D02*
X39850401Y-34302801D01*
X37597199Y-33664799D02*
X39212399Y-33664799D01*
X36220400Y-32288000D02*
X37597199Y-33664799D01*
X36220400Y-31785600D02*
X36220400Y-32288000D01*
G04 #@! TO.N,/B3_In*
X45940400Y-39426800D02*
X45940400Y-40628200D01*
X43129800Y-41696600D02*
X43764200Y-41696600D01*
X41224200Y-39791000D02*
X43129800Y-41696600D01*
X43764200Y-41194200D02*
X44330200Y-40628200D01*
X44330200Y-40628200D02*
X45940400Y-40628200D01*
X43764200Y-41696600D02*
X43764200Y-41194200D01*
G04 #@! TO.N,/B4_In*
X46963000Y-40876800D02*
X46945800Y-40894000D01*
X47390400Y-40876800D02*
X46963000Y-40876800D01*
X46945800Y-40894000D02*
X46253400Y-40894000D01*
X45811400Y-41336000D02*
X45811400Y-44094400D01*
X46253400Y-40894000D02*
X45811400Y-41336000D01*
X41224200Y-43293400D02*
X41224200Y-42291000D01*
X42153601Y-44222801D02*
X41960800Y-44030000D01*
X45811400Y-44094400D02*
X45309000Y-44094400D01*
X45309000Y-44094400D02*
X45180599Y-44222801D01*
X42025200Y-44094400D02*
X41960800Y-44030000D01*
X45180599Y-44222801D02*
X42153601Y-44222801D01*
X41960800Y-44030000D02*
X41224200Y-43293400D01*
G04 #@! TO.N,/RESET*
X61525361Y-44003801D02*
X58740601Y-44003801D01*
X61580601Y-43948561D02*
X61525361Y-44003801D01*
X61580601Y-42549781D02*
X61580601Y-43948561D01*
X62352191Y-41778191D02*
X61580601Y-42549781D01*
X64434991Y-41778191D02*
X62352191Y-41778191D01*
X65684400Y-43027600D02*
X64434991Y-41778191D01*
X57810400Y-43073600D02*
X57810400Y-42352000D01*
X58740601Y-44003801D02*
X57810400Y-43073600D01*
X57810400Y-42352000D02*
X52713200Y-42352000D01*
X52190400Y-41829200D02*
X52190400Y-40876800D01*
X52713200Y-42352000D02*
X52190400Y-41829200D01*
G04 #@! TO.N,/LED3_Out*
X84490600Y-40695600D02*
X84490600Y-40995600D01*
X86641700Y-38544500D02*
X84490600Y-40695600D01*
X87947500Y-38544500D02*
X86641700Y-38544500D01*
G04 #@! TO.N,/LED2_Out*
X85989800Y-43002200D02*
X84516000Y-43002200D01*
X90447500Y-38544500D02*
X85989800Y-43002200D01*
G04 #@! TO.N,/LED1_Out*
X92947500Y-38715700D02*
X92947500Y-38544500D01*
X87843400Y-43819800D02*
X92947500Y-38715700D01*
X87843400Y-44119800D02*
X87843400Y-43819800D01*
G04 #@! TO.N,/CANH*
X78333600Y-41157600D02*
X78333600Y-40655200D01*
X78013000Y-41478200D02*
X78333600Y-41157600D01*
X76004400Y-41478200D02*
X78013000Y-41478200D01*
X78626600Y-38544500D02*
X79629000Y-38544500D01*
X78333600Y-38837500D02*
X78626600Y-38544500D01*
X78333600Y-40655200D02*
X78333600Y-38837500D01*
G04 #@! TO.N,/CANL*
X78140600Y-42748200D02*
X78333600Y-42555200D01*
X76004400Y-42748200D02*
X78140600Y-42748200D01*
X81841900Y-38544500D02*
X82129000Y-38544500D01*
X78333600Y-42052800D02*
X81841900Y-38544500D01*
X78333600Y-42555200D02*
X78333600Y-42052800D01*
D32*
G04 #@! TO.N,Net-(R17-Pad1)*
X76352400Y-27345600D02*
X76301600Y-27396400D01*
D31*
X76276200Y-27421800D02*
X76301600Y-27396400D01*
X76276200Y-28168600D02*
X76276200Y-27421800D01*
X69329300Y-31953200D02*
X69342000Y-31965900D01*
X68902400Y-31953200D02*
X69329300Y-31953200D01*
D32*
G04 #@! TO.N,Net-(R18-Pad1)*
X67802800Y-34097200D02*
X67802800Y-35001200D01*
X67802800Y-31318800D02*
X67802800Y-34097200D01*
X68118400Y-31003200D02*
X67802800Y-31318800D01*
X68902400Y-31003200D02*
X68118400Y-31003200D01*
X67838400Y-35036800D02*
X67802800Y-35001200D01*
X67838400Y-37109400D02*
X67838400Y-35036800D01*
G04 #@! TD*
G04 #@! TO.N,/12V_Fused*
G36*
X75571918Y-28928029D02*
X75689920Y-29046031D01*
X76070326Y-29203600D01*
X76482074Y-29203600D01*
X76862480Y-29046031D01*
X76892914Y-29015597D01*
X76983022Y-31673800D01*
X74477946Y-31673800D01*
X72617570Y-31522959D01*
X72235134Y-31403448D01*
X72230557Y-31380435D01*
X72090209Y-31170391D01*
X71880165Y-31030043D01*
X71632400Y-30980760D01*
X71007399Y-30980760D01*
X71007399Y-30874536D01*
X71077516Y-30860589D01*
X71274549Y-30728936D01*
X71785476Y-30708499D01*
X71833652Y-30696896D01*
X71886948Y-30650712D01*
X73066860Y-28831681D01*
X75571918Y-28928029D01*
X75571918Y-28928029D01*
G37*
X75571918Y-28928029D02*
X75689920Y-29046031D01*
X76070326Y-29203600D01*
X76482074Y-29203600D01*
X76862480Y-29046031D01*
X76892914Y-29015597D01*
X76983022Y-31673800D01*
X74477946Y-31673800D01*
X72617570Y-31522959D01*
X72235134Y-31403448D01*
X72230557Y-31380435D01*
X72090209Y-31170391D01*
X71880165Y-31030043D01*
X71632400Y-30980760D01*
X71007399Y-30980760D01*
X71007399Y-30874536D01*
X71077516Y-30860589D01*
X71274549Y-30728936D01*
X71785476Y-30708499D01*
X71833652Y-30696896D01*
X71886948Y-30650712D01*
X73066860Y-28831681D01*
X75571918Y-28928029D01*
G04 #@! TO.N,+12V*
G36*
X77105898Y-33805253D02*
X78187459Y-35034300D01*
X78226824Y-35064399D01*
X78280040Y-35077370D01*
X80492600Y-35125469D01*
X80492600Y-37049765D01*
X80479000Y-37047060D01*
X78779000Y-37047060D01*
X78706267Y-37061527D01*
X78590774Y-37058640D01*
X78541947Y-37067089D01*
X78513478Y-37082474D01*
X76921094Y-38227000D01*
X75158600Y-38227000D01*
X75158600Y-35915600D01*
X75145192Y-35858804D01*
X74599800Y-34768020D01*
X74599800Y-33710683D01*
X77105898Y-33805253D01*
X77105898Y-33805253D01*
G37*
X77105898Y-33805253D02*
X78187459Y-35034300D01*
X78226824Y-35064399D01*
X78280040Y-35077370D01*
X80492600Y-35125469D01*
X80492600Y-37049765D01*
X80479000Y-37047060D01*
X78779000Y-37047060D01*
X78706267Y-37061527D01*
X78590774Y-37058640D01*
X78541947Y-37067089D01*
X78513478Y-37082474D01*
X76921094Y-38227000D01*
X75158600Y-38227000D01*
X75158600Y-35915600D01*
X75145192Y-35858804D01*
X74599800Y-34768020D01*
X74599800Y-33710683D01*
X77105898Y-33805253D01*
G04 #@! TO.N,Net-(C11-Pad1)*
G36*
X62941219Y-33987402D02*
X62951728Y-34035828D01*
X62979968Y-34076546D01*
X63021641Y-34103358D01*
X63068200Y-34112200D01*
X63905673Y-34112200D01*
X64149200Y-34160640D01*
X64753226Y-34160640D01*
X65392519Y-34360419D01*
X65430400Y-34366200D01*
X66217800Y-34366200D01*
X66217800Y-35602247D01*
X64738765Y-35505788D01*
X64734665Y-35503049D01*
X64486900Y-35453766D01*
X63941090Y-35453766D01*
X59461100Y-35161593D01*
X59446320Y-29323689D01*
X59464240Y-29233600D01*
X59464240Y-28033600D01*
X59442781Y-27925718D01*
X59440821Y-27151338D01*
X59464240Y-27033600D01*
X59464240Y-25833600D01*
X59437140Y-25697357D01*
X59436898Y-25602000D01*
X62795808Y-25602000D01*
X62941219Y-33987402D01*
X62941219Y-33987402D01*
G37*
X62941219Y-33987402D02*
X62951728Y-34035828D01*
X62979968Y-34076546D01*
X63021641Y-34103358D01*
X63068200Y-34112200D01*
X63905673Y-34112200D01*
X64149200Y-34160640D01*
X64753226Y-34160640D01*
X65392519Y-34360419D01*
X65430400Y-34366200D01*
X66217800Y-34366200D01*
X66217800Y-35602247D01*
X64738765Y-35505788D01*
X64734665Y-35503049D01*
X64486900Y-35453766D01*
X63941090Y-35453766D01*
X59461100Y-35161593D01*
X59446320Y-29323689D01*
X59464240Y-29233600D01*
X59464240Y-28033600D01*
X59442781Y-27925718D01*
X59440821Y-27151338D01*
X59464240Y-27033600D01*
X59464240Y-25833600D01*
X59437140Y-25697357D01*
X59436898Y-25602000D01*
X62795808Y-25602000D01*
X62941219Y-33987402D01*
G04 #@! TO.N,GND*
G36*
X73992556Y-35838459D02*
X74038475Y-38272174D01*
X72979599Y-38227115D01*
X72969667Y-38227081D01*
X71580913Y-38276679D01*
X71233330Y-38132706D01*
X70821582Y-38132706D01*
X70559382Y-38241312D01*
X70233674Y-38106400D01*
X69821926Y-38106400D01*
X69441520Y-38263969D01*
X69150369Y-38555120D01*
X68992800Y-38935526D01*
X68992800Y-39347274D01*
X69150369Y-39727680D01*
X69206669Y-39783980D01*
X69181960Y-39908200D01*
X69181960Y-40508200D01*
X69215000Y-40674305D01*
X69215000Y-40894000D01*
X69224667Y-40942601D01*
X69252197Y-40983803D01*
X69276659Y-41002902D01*
X69530659Y-41155302D01*
X69601144Y-41173296D01*
X70036658Y-41155640D01*
X70944402Y-41155640D01*
X70944401Y-41800760D01*
X69829400Y-41800760D01*
X69635808Y-41839267D01*
X69508854Y-41553620D01*
X69480281Y-41513135D01*
X69438390Y-41486665D01*
X69392800Y-41478200D01*
X68019588Y-41478200D01*
X67794823Y-41253435D01*
X67755146Y-41194054D01*
X67519896Y-41036864D01*
X67312446Y-40995600D01*
X67312441Y-40995600D01*
X67242400Y-40981668D01*
X67172359Y-40995600D01*
X65165813Y-40995600D01*
X64928687Y-40758474D01*
X65018835Y-38630972D01*
X68684157Y-38557174D01*
X68732553Y-38546531D01*
X68773192Y-38518177D01*
X68799887Y-38476429D01*
X68808473Y-38424519D01*
X68789192Y-37993916D01*
X68835840Y-37759400D01*
X68835840Y-36855400D01*
X70739000Y-36855400D01*
X70787601Y-36845733D01*
X70828803Y-36818203D01*
X70856333Y-36777001D01*
X70865962Y-36731497D01*
X70880477Y-36136400D01*
X71529757Y-36136400D01*
X71604800Y-36151327D01*
X71679843Y-36136400D01*
X71679848Y-36136400D01*
X71902117Y-36092188D01*
X72154171Y-35923771D01*
X72196683Y-35860147D01*
X72231711Y-35825119D01*
X73992556Y-35838459D01*
X73992556Y-35838459D01*
G37*
X73992556Y-35838459D02*
X74038475Y-38272174D01*
X72979599Y-38227115D01*
X72969667Y-38227081D01*
X71580913Y-38276679D01*
X71233330Y-38132706D01*
X70821582Y-38132706D01*
X70559382Y-38241312D01*
X70233674Y-38106400D01*
X69821926Y-38106400D01*
X69441520Y-38263969D01*
X69150369Y-38555120D01*
X68992800Y-38935526D01*
X68992800Y-39347274D01*
X69150369Y-39727680D01*
X69206669Y-39783980D01*
X69181960Y-39908200D01*
X69181960Y-40508200D01*
X69215000Y-40674305D01*
X69215000Y-40894000D01*
X69224667Y-40942601D01*
X69252197Y-40983803D01*
X69276659Y-41002902D01*
X69530659Y-41155302D01*
X69601144Y-41173296D01*
X70036658Y-41155640D01*
X70944402Y-41155640D01*
X70944401Y-41800760D01*
X69829400Y-41800760D01*
X69635808Y-41839267D01*
X69508854Y-41553620D01*
X69480281Y-41513135D01*
X69438390Y-41486665D01*
X69392800Y-41478200D01*
X68019588Y-41478200D01*
X67794823Y-41253435D01*
X67755146Y-41194054D01*
X67519896Y-41036864D01*
X67312446Y-40995600D01*
X67312441Y-40995600D01*
X67242400Y-40981668D01*
X67172359Y-40995600D01*
X65165813Y-40995600D01*
X64928687Y-40758474D01*
X65018835Y-38630972D01*
X68684157Y-38557174D01*
X68732553Y-38546531D01*
X68773192Y-38518177D01*
X68799887Y-38476429D01*
X68808473Y-38424519D01*
X68789192Y-37993916D01*
X68835840Y-37759400D01*
X68835840Y-36855400D01*
X70739000Y-36855400D01*
X70787601Y-36845733D01*
X70828803Y-36818203D01*
X70856333Y-36777001D01*
X70865962Y-36731497D01*
X70880477Y-36136400D01*
X71529757Y-36136400D01*
X71604800Y-36151327D01*
X71679843Y-36136400D01*
X71679848Y-36136400D01*
X71902117Y-36092188D01*
X72154171Y-35923771D01*
X72196683Y-35860147D01*
X72231711Y-35825119D01*
X73992556Y-35838459D01*
G04 #@! TD*
M02*
