G04 #@! TF.GenerationSoftware,KiCad,Pcbnew,5.0.2-bee76a0~70~ubuntu18.04.1*
G04 #@! TF.CreationDate,2019-04-22T12:09:22-04:00*
G04 #@! TF.ProjectId,TSAL,5453414c-2e6b-4696-9361-645f70636258,rev?*
G04 #@! TF.SameCoordinates,Original*
G04 #@! TF.FileFunction,Legend,Top*
G04 #@! TF.FilePolarity,Positive*
%FSLAX46Y46*%
G04 Gerber Fmt 4.6, Leading zero omitted, Abs format (unit mm)*
G04 Created by KiCad (PCBNEW 5.0.2-bee76a0~70~ubuntu18.04.1) date Mon 22 Apr 2019 12:09:22 PM EDT*
%MOMM*%
%LPD*%
G01*
G04 APERTURE LIST*
%ADD10C,0.150000*%
%ADD11C,0.300000*%
%ADD12C,0.200000*%
%ADD13C,0.120000*%
%ADD14C,0.100000*%
%ADD15C,0.400000*%
G04 APERTURE END LIST*
D10*
X162933809Y-75018380D02*
X163505238Y-75018380D01*
X163219523Y-76018380D02*
X163219523Y-75018380D01*
X163790952Y-75970761D02*
X163933809Y-76018380D01*
X164171904Y-76018380D01*
X164267142Y-75970761D01*
X164314761Y-75923142D01*
X164362380Y-75827904D01*
X164362380Y-75732666D01*
X164314761Y-75637428D01*
X164267142Y-75589809D01*
X164171904Y-75542190D01*
X163981428Y-75494571D01*
X163886190Y-75446952D01*
X163838571Y-75399333D01*
X163790952Y-75304095D01*
X163790952Y-75208857D01*
X163838571Y-75113619D01*
X163886190Y-75066000D01*
X163981428Y-75018380D01*
X164219523Y-75018380D01*
X164362380Y-75066000D01*
X164743333Y-75732666D02*
X165219523Y-75732666D01*
X164648095Y-76018380D02*
X164981428Y-75018380D01*
X165314761Y-76018380D01*
X166124285Y-76018380D02*
X165648095Y-76018380D01*
X165648095Y-75018380D01*
X167171904Y-74970761D02*
X166314761Y-76256476D01*
X167457619Y-75732666D02*
X167933809Y-75732666D01*
X167362380Y-76018380D02*
X167695714Y-75018380D01*
X168029047Y-76018380D01*
X168362380Y-76018380D02*
X168362380Y-75018380D01*
X169314761Y-76018380D02*
X168838571Y-76018380D01*
X168838571Y-75018380D01*
X170981428Y-76018380D02*
X170648095Y-75542190D01*
X170410000Y-76018380D02*
X170410000Y-75018380D01*
X170790952Y-75018380D01*
X170886190Y-75066000D01*
X170933809Y-75113619D01*
X170981428Y-75208857D01*
X170981428Y-75351714D01*
X170933809Y-75446952D01*
X170886190Y-75494571D01*
X170790952Y-75542190D01*
X170410000Y-75542190D01*
X171790952Y-75970761D02*
X171695714Y-76018380D01*
X171505238Y-76018380D01*
X171410000Y-75970761D01*
X171362380Y-75875523D01*
X171362380Y-75494571D01*
X171410000Y-75399333D01*
X171505238Y-75351714D01*
X171695714Y-75351714D01*
X171790952Y-75399333D01*
X171838571Y-75494571D01*
X171838571Y-75589809D01*
X171362380Y-75685047D01*
X172171904Y-75351714D02*
X172410000Y-76018380D01*
X172648095Y-75351714D01*
X173029047Y-75923142D02*
X173076666Y-75970761D01*
X173029047Y-76018380D01*
X172981428Y-75970761D01*
X173029047Y-75923142D01*
X173029047Y-76018380D01*
X174219523Y-75113619D02*
X174267142Y-75066000D01*
X174362380Y-75018380D01*
X174600476Y-75018380D01*
X174695714Y-75066000D01*
X174743333Y-75113619D01*
X174790952Y-75208857D01*
X174790952Y-75304095D01*
X174743333Y-75446952D01*
X174171904Y-76018380D01*
X174790952Y-76018380D01*
X159933809Y-77144571D02*
X160076666Y-77192190D01*
X160124285Y-77239809D01*
X160171904Y-77335047D01*
X160171904Y-77477904D01*
X160124285Y-77573142D01*
X160076666Y-77620761D01*
X159981428Y-77668380D01*
X159600476Y-77668380D01*
X159600476Y-76668380D01*
X159933809Y-76668380D01*
X160029047Y-76716000D01*
X160076666Y-76763619D01*
X160124285Y-76858857D01*
X160124285Y-76954095D01*
X160076666Y-77049333D01*
X160029047Y-77096952D01*
X159933809Y-77144571D01*
X159600476Y-77144571D01*
X160600476Y-77668380D02*
X160600476Y-77001714D01*
X160600476Y-77192190D02*
X160648095Y-77096952D01*
X160695714Y-77049333D01*
X160790952Y-77001714D01*
X160886190Y-77001714D01*
X161124285Y-77001714D02*
X161362380Y-77668380D01*
X161600476Y-77001714D02*
X161362380Y-77668380D01*
X161267142Y-77906476D01*
X161219523Y-77954095D01*
X161124285Y-78001714D01*
X162410000Y-77620761D02*
X162314761Y-77668380D01*
X162124285Y-77668380D01*
X162029047Y-77620761D01*
X161981428Y-77573142D01*
X161933809Y-77477904D01*
X161933809Y-77192190D01*
X161981428Y-77096952D01*
X162029047Y-77049333D01*
X162124285Y-77001714D01*
X162314761Y-77001714D01*
X162410000Y-77049333D01*
X163219523Y-77620761D02*
X163124285Y-77668380D01*
X162933809Y-77668380D01*
X162838571Y-77620761D01*
X162790952Y-77525523D01*
X162790952Y-77144571D01*
X162838571Y-77049333D01*
X162933809Y-77001714D01*
X163124285Y-77001714D01*
X163219523Y-77049333D01*
X163267142Y-77144571D01*
X163267142Y-77239809D01*
X162790952Y-77335047D01*
X164457619Y-77668380D02*
X164457619Y-76668380D01*
X164790952Y-77382666D01*
X165124285Y-76668380D01*
X165124285Y-77668380D01*
X166029047Y-77668380D02*
X166029047Y-77144571D01*
X165981428Y-77049333D01*
X165886190Y-77001714D01*
X165695714Y-77001714D01*
X165600476Y-77049333D01*
X166029047Y-77620761D02*
X165933809Y-77668380D01*
X165695714Y-77668380D01*
X165600476Y-77620761D01*
X165552857Y-77525523D01*
X165552857Y-77430285D01*
X165600476Y-77335047D01*
X165695714Y-77287428D01*
X165933809Y-77287428D01*
X166029047Y-77239809D01*
X166505238Y-77001714D02*
X166505238Y-77668380D01*
X166505238Y-77096952D02*
X166552857Y-77049333D01*
X166648095Y-77001714D01*
X166790952Y-77001714D01*
X166886190Y-77049333D01*
X166933809Y-77144571D01*
X166933809Y-77668380D01*
X167410000Y-77001714D02*
X167410000Y-77668380D01*
X167410000Y-77096952D02*
X167457619Y-77049333D01*
X167552857Y-77001714D01*
X167695714Y-77001714D01*
X167790952Y-77049333D01*
X167838571Y-77144571D01*
X167838571Y-77668380D01*
X168362380Y-77620761D02*
X168362380Y-77668380D01*
X168314761Y-77763619D01*
X168267142Y-77811238D01*
X169552857Y-76668380D02*
X169552857Y-77477904D01*
X169600476Y-77573142D01*
X169648095Y-77620761D01*
X169743333Y-77668380D01*
X169933809Y-77668380D01*
X170029047Y-77620761D01*
X170076666Y-77573142D01*
X170124285Y-77477904D01*
X170124285Y-76668380D01*
X170457619Y-77001714D02*
X170838571Y-77001714D01*
X170600476Y-76668380D02*
X170600476Y-77525523D01*
X170648095Y-77620761D01*
X170743333Y-77668380D01*
X170838571Y-77668380D01*
X171124285Y-77620761D02*
X171219523Y-77668380D01*
X171410000Y-77668380D01*
X171505238Y-77620761D01*
X171552857Y-77525523D01*
X171552857Y-77477904D01*
X171505238Y-77382666D01*
X171410000Y-77335047D01*
X171267142Y-77335047D01*
X171171904Y-77287428D01*
X171124285Y-77192190D01*
X171124285Y-77144571D01*
X171171904Y-77049333D01*
X171267142Y-77001714D01*
X171410000Y-77001714D01*
X171505238Y-77049333D01*
X172410000Y-77668380D02*
X172410000Y-77144571D01*
X172362380Y-77049333D01*
X172267142Y-77001714D01*
X172076666Y-77001714D01*
X171981428Y-77049333D01*
X172410000Y-77620761D02*
X172314761Y-77668380D01*
X172076666Y-77668380D01*
X171981428Y-77620761D01*
X171933809Y-77525523D01*
X171933809Y-77430285D01*
X171981428Y-77335047D01*
X172076666Y-77287428D01*
X172314761Y-77287428D01*
X172410000Y-77239809D01*
X172790952Y-77001714D02*
X173029047Y-77668380D01*
X173267142Y-77001714D01*
X174933809Y-76716000D02*
X174838571Y-76668380D01*
X174695714Y-76668380D01*
X174552857Y-76716000D01*
X174457619Y-76811238D01*
X174410000Y-76906476D01*
X174362380Y-77096952D01*
X174362380Y-77239809D01*
X174410000Y-77430285D01*
X174457619Y-77525523D01*
X174552857Y-77620761D01*
X174695714Y-77668380D01*
X174790952Y-77668380D01*
X174933809Y-77620761D01*
X174981428Y-77573142D01*
X174981428Y-77239809D01*
X174790952Y-77239809D01*
X175838571Y-77001714D02*
X175838571Y-77668380D01*
X175410000Y-77001714D02*
X175410000Y-77525523D01*
X175457619Y-77620761D01*
X175552857Y-77668380D01*
X175695714Y-77668380D01*
X175790952Y-77620761D01*
X175838571Y-77573142D01*
X176314761Y-77001714D02*
X176314761Y-78001714D01*
X176314761Y-77049333D02*
X176410000Y-77001714D01*
X176600476Y-77001714D01*
X176695714Y-77049333D01*
X176743333Y-77096952D01*
X176790952Y-77192190D01*
X176790952Y-77477904D01*
X176743333Y-77573142D01*
X176695714Y-77620761D01*
X176600476Y-77668380D01*
X176410000Y-77668380D01*
X176314761Y-77620761D01*
X177076666Y-77001714D02*
X177457619Y-77001714D01*
X177219523Y-76668380D02*
X177219523Y-77525523D01*
X177267142Y-77620761D01*
X177362380Y-77668380D01*
X177457619Y-77668380D01*
X178219523Y-77668380D02*
X178219523Y-77144571D01*
X178171904Y-77049333D01*
X178076666Y-77001714D01*
X177886190Y-77001714D01*
X177790952Y-77049333D01*
X178219523Y-77620761D02*
X178124285Y-77668380D01*
X177886190Y-77668380D01*
X177790952Y-77620761D01*
X177743333Y-77525523D01*
X177743333Y-77430285D01*
X177790952Y-77335047D01*
X177886190Y-77287428D01*
X178124285Y-77287428D01*
X178219523Y-77239809D01*
X166910000Y-78318380D02*
X167005238Y-78318380D01*
X167100476Y-78366000D01*
X167148095Y-78413619D01*
X167195714Y-78508857D01*
X167243333Y-78699333D01*
X167243333Y-78937428D01*
X167195714Y-79127904D01*
X167148095Y-79223142D01*
X167100476Y-79270761D01*
X167005238Y-79318380D01*
X166910000Y-79318380D01*
X166814761Y-79270761D01*
X166767142Y-79223142D01*
X166719523Y-79127904D01*
X166671904Y-78937428D01*
X166671904Y-78699333D01*
X166719523Y-78508857D01*
X166767142Y-78413619D01*
X166814761Y-78366000D01*
X166910000Y-78318380D01*
X168100476Y-78651714D02*
X168100476Y-79318380D01*
X167862380Y-78270761D02*
X167624285Y-78985047D01*
X168243333Y-78985047D01*
X169338571Y-78270761D02*
X168481428Y-79556476D01*
X169624285Y-78413619D02*
X169671904Y-78366000D01*
X169767142Y-78318380D01*
X170005238Y-78318380D01*
X170100476Y-78366000D01*
X170148095Y-78413619D01*
X170195714Y-78508857D01*
X170195714Y-78604095D01*
X170148095Y-78746952D01*
X169576666Y-79318380D01*
X170195714Y-79318380D01*
X170814761Y-78318380D02*
X170910000Y-78318380D01*
X171005238Y-78366000D01*
X171052857Y-78413619D01*
X171100476Y-78508857D01*
X171148095Y-78699333D01*
X171148095Y-78937428D01*
X171100476Y-79127904D01*
X171052857Y-79223142D01*
X171005238Y-79270761D01*
X170910000Y-79318380D01*
X170814761Y-79318380D01*
X170719523Y-79270761D01*
X170671904Y-79223142D01*
X170624285Y-79127904D01*
X170576666Y-78937428D01*
X170576666Y-78699333D01*
X170624285Y-78508857D01*
X170671904Y-78413619D01*
X170719523Y-78366000D01*
X170814761Y-78318380D01*
D11*
X172033428Y-109390571D02*
X171319142Y-109390571D01*
X171319142Y-107890571D01*
X172319142Y-107890571D02*
X172819142Y-109390571D01*
X173319142Y-107890571D01*
X164536571Y-109390571D02*
X164536571Y-107890571D01*
X164536571Y-108604857D02*
X165393714Y-108604857D01*
X165393714Y-109390571D02*
X165393714Y-107890571D01*
X165893714Y-107890571D02*
X166393714Y-109390571D01*
X166893714Y-107890571D01*
D12*
X168656000Y-92964000D02*
X168656000Y-110236000D01*
X168656000Y-92964000D02*
X168656000Y-80264000D01*
D11*
X164017142Y-112530571D02*
X164160000Y-112530571D01*
X164302857Y-112602000D01*
X164374285Y-112673428D01*
X164445714Y-112816285D01*
X164517142Y-113102000D01*
X164517142Y-113459142D01*
X164445714Y-113744857D01*
X164374285Y-113887714D01*
X164302857Y-113959142D01*
X164160000Y-114030571D01*
X164017142Y-114030571D01*
X163874285Y-113959142D01*
X163802857Y-113887714D01*
X163731428Y-113744857D01*
X163660000Y-113459142D01*
X163660000Y-113102000D01*
X163731428Y-112816285D01*
X163802857Y-112673428D01*
X163874285Y-112602000D01*
X164017142Y-112530571D01*
X165160000Y-113887714D02*
X165231428Y-113959142D01*
X165160000Y-114030571D01*
X165088571Y-113959142D01*
X165160000Y-113887714D01*
X165160000Y-114030571D01*
X166588571Y-112530571D02*
X165874285Y-112530571D01*
X165802857Y-113244857D01*
X165874285Y-113173428D01*
X166017142Y-113102000D01*
X166374285Y-113102000D01*
X166517142Y-113173428D01*
X166588571Y-113244857D01*
X166660000Y-113387714D01*
X166660000Y-113744857D01*
X166588571Y-113887714D01*
X166517142Y-113959142D01*
X166374285Y-114030571D01*
X166017142Y-114030571D01*
X165874285Y-113959142D01*
X165802857Y-113887714D01*
X167588571Y-112530571D02*
X167731428Y-112530571D01*
X167874285Y-112602000D01*
X167945714Y-112673428D01*
X168017142Y-112816285D01*
X168088571Y-113102000D01*
X168088571Y-113459142D01*
X168017142Y-113744857D01*
X167945714Y-113887714D01*
X167874285Y-113959142D01*
X167731428Y-114030571D01*
X167588571Y-114030571D01*
X167445714Y-113959142D01*
X167374285Y-113887714D01*
X167302857Y-113744857D01*
X167231428Y-113459142D01*
X167231428Y-113102000D01*
X167302857Y-112816285D01*
X167374285Y-112673428D01*
X167445714Y-112602000D01*
X167588571Y-112530571D01*
X169017142Y-112530571D02*
X169160000Y-112530571D01*
X169302857Y-112602000D01*
X169374285Y-112673428D01*
X169445714Y-112816285D01*
X169517142Y-113102000D01*
X169517142Y-113459142D01*
X169445714Y-113744857D01*
X169374285Y-113887714D01*
X169302857Y-113959142D01*
X169160000Y-114030571D01*
X169017142Y-114030571D01*
X168874285Y-113959142D01*
X168802857Y-113887714D01*
X168731428Y-113744857D01*
X168660000Y-113459142D01*
X168660000Y-113102000D01*
X168731428Y-112816285D01*
X168802857Y-112673428D01*
X168874285Y-112602000D01*
X169017142Y-112530571D01*
X170445714Y-112530571D02*
X170588571Y-112530571D01*
X170731428Y-112602000D01*
X170802857Y-112673428D01*
X170874285Y-112816285D01*
X170945714Y-113102000D01*
X170945714Y-113459142D01*
X170874285Y-113744857D01*
X170802857Y-113887714D01*
X170731428Y-113959142D01*
X170588571Y-114030571D01*
X170445714Y-114030571D01*
X170302857Y-113959142D01*
X170231428Y-113887714D01*
X170160000Y-113744857D01*
X170088571Y-113459142D01*
X170088571Y-113102000D01*
X170160000Y-112816285D01*
X170231428Y-112673428D01*
X170302857Y-112602000D01*
X170445714Y-112530571D01*
X172731428Y-114030571D02*
X172731428Y-113030571D01*
X172731428Y-112530571D02*
X172660000Y-112602000D01*
X172731428Y-112673428D01*
X172802857Y-112602000D01*
X172731428Y-112530571D01*
X172731428Y-112673428D01*
X173445714Y-113030571D02*
X173445714Y-114030571D01*
X173445714Y-113173428D02*
X173517142Y-113102000D01*
X173660000Y-113030571D01*
X173874285Y-113030571D01*
X174017142Y-113102000D01*
X174088571Y-113244857D01*
X174088571Y-114030571D01*
X162560000Y-111252000D02*
X175260000Y-111252000D01*
X162560000Y-75184000D02*
X162560000Y-111838421D01*
X175260000Y-75184000D02*
X175260000Y-111838421D01*
X175260000Y-111252000D02*
X174133496Y-111838421D01*
X175260000Y-111252000D02*
X174133496Y-110665579D01*
X162560000Y-111252000D02*
X163686504Y-111838421D01*
X162560000Y-111252000D02*
X163686504Y-110665579D01*
D13*
G04 #@! TO.C,U1*
X148214000Y-89592000D02*
X148214000Y-90692000D01*
X148484000Y-89592000D02*
X148214000Y-89592000D01*
X148484000Y-88092000D02*
X148484000Y-89592000D01*
X141854000Y-89592000D02*
X141854000Y-92422000D01*
X141584000Y-89592000D02*
X141854000Y-89592000D01*
X141584000Y-88092000D02*
X141584000Y-89592000D01*
G04 #@! TO.C,Q2*
X183840000Y-86104000D02*
X184770000Y-86104000D01*
X187000000Y-86104000D02*
X186070000Y-86104000D01*
X187000000Y-86104000D02*
X187000000Y-83944000D01*
X183840000Y-86104000D02*
X183840000Y-84644000D01*
G04 #@! TO.C,C2*
X153250000Y-90940000D02*
X153250000Y-89940000D01*
X151550000Y-89940000D02*
X151550000Y-90940000D01*
G04 #@! TO.C,C3*
X179744000Y-87638000D02*
X179744000Y-88638000D01*
X181444000Y-88638000D02*
X181444000Y-87638000D01*
G04 #@! TO.C,C4*
X152900000Y-93638000D02*
X151900000Y-93638000D01*
X151900000Y-95338000D02*
X152900000Y-95338000D01*
D14*
G04 #@! TO.C,D1*
X148686000Y-97652000D02*
X148336000Y-97652000D01*
X148336000Y-97652000D02*
X147986000Y-97652000D01*
X148686000Y-97302000D02*
X148336000Y-97652000D01*
X148636000Y-97302000D02*
X148686000Y-97302000D01*
X148686000Y-97302000D02*
X148636000Y-97302000D01*
X147986000Y-97302000D02*
X148636000Y-97302000D01*
X148036000Y-97352000D02*
X147986000Y-97302000D01*
X148336000Y-97652000D02*
X148036000Y-97352000D01*
D13*
X147636000Y-99252000D02*
X149036000Y-99252000D01*
X149036000Y-99252000D02*
X149036000Y-96452000D01*
X147636000Y-99252000D02*
X147636000Y-96452000D01*
D10*
G04 #@! TO.C,J1*
X188832000Y-87738000D02*
X183532000Y-87738000D01*
X188832000Y-99968000D02*
X183532000Y-99968000D01*
X188832000Y-87738000D02*
X188832000Y-99968000D01*
X183532000Y-87738000D02*
X183532000Y-99968000D01*
G04 #@! TO.C,J2*
X134740000Y-84492000D02*
X131430000Y-84492000D01*
X131430000Y-84492000D02*
X131430000Y-92292000D01*
X131430000Y-92292000D02*
X134740000Y-92292000D01*
X134740000Y-95892000D02*
X140462000Y-95892000D01*
X134740000Y-80892000D02*
X140462000Y-80892000D01*
X134740000Y-95892000D02*
X134740000Y-80892000D01*
X140462000Y-95892000D02*
X140462000Y-80892000D01*
D13*
G04 #@! TO.C,J3*
X132218000Y-107534000D02*
X140978000Y-107534000D01*
X140978000Y-107534000D02*
X140978000Y-101294000D01*
X140978000Y-101294000D02*
X132218000Y-101294000D01*
X132218000Y-101294000D02*
X132218000Y-107534000D01*
X140978000Y-105814000D02*
X141448000Y-105814000D01*
X141448000Y-105814000D02*
X141448000Y-105514000D01*
X141448000Y-105514000D02*
X140978000Y-105514000D01*
X140978000Y-105514000D02*
X140978000Y-105814000D01*
X140978000Y-103314000D02*
X141448000Y-103314000D01*
X141448000Y-103314000D02*
X141448000Y-103014000D01*
X141448000Y-103014000D02*
X140978000Y-103014000D01*
X140978000Y-103014000D02*
X140978000Y-103314000D01*
X142748000Y-107064000D02*
X143048000Y-107664000D01*
X143048000Y-107664000D02*
X142448000Y-107664000D01*
X142448000Y-107664000D02*
X142748000Y-107064000D01*
G04 #@! TO.C,Q1*
X182936000Y-97792000D02*
X182936000Y-99252000D01*
X179776000Y-97792000D02*
X179776000Y-99952000D01*
X179776000Y-97792000D02*
X180706000Y-97792000D01*
X182936000Y-97792000D02*
X182006000Y-97792000D01*
G04 #@! TO.C,R1*
X144307000Y-93608000D02*
X145507000Y-93608000D01*
X145507000Y-95368000D02*
X144307000Y-95368000D01*
G04 #@! TO.C,R2*
X142783000Y-97037000D02*
X143983000Y-97037000D01*
X143983000Y-98797000D02*
X142783000Y-98797000D01*
G04 #@! TO.C,R3*
X184820000Y-81416000D02*
X186020000Y-81416000D01*
X186020000Y-83176000D02*
X184820000Y-83176000D01*
G04 #@! TO.C,R4*
X143120000Y-77632000D02*
X143120000Y-78832000D01*
X141360000Y-78832000D02*
X141360000Y-77632000D01*
G04 #@! TO.C,R5*
X146440000Y-78832000D02*
X146440000Y-77632000D01*
X148200000Y-77632000D02*
X148200000Y-78832000D01*
G04 #@! TO.C,R6*
X151520000Y-78832000D02*
X151520000Y-77632000D01*
X153280000Y-77632000D02*
X153280000Y-78832000D01*
G04 #@! TO.C,R7*
X157852000Y-82712000D02*
X157852000Y-83912000D01*
X156092000Y-83912000D02*
X156092000Y-82712000D01*
G04 #@! TO.C,R8*
X157852000Y-89824000D02*
X157852000Y-91024000D01*
X156092000Y-91024000D02*
X156092000Y-89824000D01*
G04 #@! TO.C,R9*
X155864000Y-104276000D02*
X157064000Y-104276000D01*
X157064000Y-106036000D02*
X155864000Y-106036000D01*
G04 #@! TO.C,R10*
X157852000Y-94904000D02*
X157852000Y-96104000D01*
X156092000Y-96104000D02*
X156092000Y-94904000D01*
G04 #@! TO.C,R11*
X157852000Y-99034000D02*
X157852000Y-100234000D01*
X156092000Y-100234000D02*
X156092000Y-99034000D01*
G04 #@! TO.C,R12*
X145932000Y-106772000D02*
X145932000Y-105572000D01*
X147692000Y-105572000D02*
X147692000Y-106772000D01*
G04 #@! TO.C,R13*
X180756000Y-100720000D02*
X181956000Y-100720000D01*
X181956000Y-102480000D02*
X180756000Y-102480000D01*
G04 #@! TO.C,R14*
X148752000Y-101736000D02*
X149952000Y-101736000D01*
X149952000Y-103496000D02*
X148752000Y-103496000D01*
G04 #@! TO.C,U2*
X151500000Y-99146000D02*
X153300000Y-99146000D01*
X153300000Y-95926000D02*
X150850000Y-95926000D01*
D10*
G04 #@! TO.C,U3*
X165100000Y-90805000D02*
X172212000Y-90805000D01*
X165100000Y-94869000D02*
X165100000Y-90805000D01*
X172212000Y-94869000D02*
X165100000Y-94869000D01*
X172212000Y-90805000D02*
X172212000Y-94869000D01*
D15*
X165200000Y-90805000D02*
G75*
G03X165200000Y-90805000I-100000J0D01*
G01*
G04 #@! TO.C,U1*
D10*
X144018095Y-80224380D02*
X144018095Y-81033904D01*
X144065714Y-81129142D01*
X144113333Y-81176761D01*
X144208571Y-81224380D01*
X144399047Y-81224380D01*
X144494285Y-81176761D01*
X144541904Y-81129142D01*
X144589523Y-81033904D01*
X144589523Y-80224380D01*
X145589523Y-81224380D02*
X145018095Y-81224380D01*
X145303809Y-81224380D02*
X145303809Y-80224380D01*
X145208571Y-80367238D01*
X145113333Y-80462476D01*
X145018095Y-80510095D01*
G04 #@! TO.C,Q2*
X182530761Y-86653619D02*
X182435523Y-86606000D01*
X182340285Y-86510761D01*
X182197428Y-86367904D01*
X182102190Y-86320285D01*
X182006952Y-86320285D01*
X182054571Y-86558380D02*
X181959333Y-86510761D01*
X181864095Y-86415523D01*
X181816476Y-86225047D01*
X181816476Y-85891714D01*
X181864095Y-85701238D01*
X181959333Y-85606000D01*
X182054571Y-85558380D01*
X182245047Y-85558380D01*
X182340285Y-85606000D01*
X182435523Y-85701238D01*
X182483142Y-85891714D01*
X182483142Y-86225047D01*
X182435523Y-86415523D01*
X182340285Y-86510761D01*
X182245047Y-86558380D01*
X182054571Y-86558380D01*
X182864095Y-85653619D02*
X182911714Y-85606000D01*
X183006952Y-85558380D01*
X183245047Y-85558380D01*
X183340285Y-85606000D01*
X183387904Y-85653619D01*
X183435523Y-85748857D01*
X183435523Y-85844095D01*
X183387904Y-85986952D01*
X182816476Y-86558380D01*
X183435523Y-86558380D01*
G04 #@! TO.C,C2*
X152233333Y-88241142D02*
X152185714Y-88288761D01*
X152042857Y-88336380D01*
X151947619Y-88336380D01*
X151804761Y-88288761D01*
X151709523Y-88193523D01*
X151661904Y-88098285D01*
X151614285Y-87907809D01*
X151614285Y-87764952D01*
X151661904Y-87574476D01*
X151709523Y-87479238D01*
X151804761Y-87384000D01*
X151947619Y-87336380D01*
X152042857Y-87336380D01*
X152185714Y-87384000D01*
X152233333Y-87431619D01*
X152614285Y-87431619D02*
X152661904Y-87384000D01*
X152757142Y-87336380D01*
X152995238Y-87336380D01*
X153090476Y-87384000D01*
X153138095Y-87431619D01*
X153185714Y-87526857D01*
X153185714Y-87622095D01*
X153138095Y-87764952D01*
X152566666Y-88336380D01*
X153185714Y-88336380D01*
G04 #@! TO.C,C3*
X180427333Y-85955142D02*
X180379714Y-86002761D01*
X180236857Y-86050380D01*
X180141619Y-86050380D01*
X179998761Y-86002761D01*
X179903523Y-85907523D01*
X179855904Y-85812285D01*
X179808285Y-85621809D01*
X179808285Y-85478952D01*
X179855904Y-85288476D01*
X179903523Y-85193238D01*
X179998761Y-85098000D01*
X180141619Y-85050380D01*
X180236857Y-85050380D01*
X180379714Y-85098000D01*
X180427333Y-85145619D01*
X180760666Y-85050380D02*
X181379714Y-85050380D01*
X181046380Y-85431333D01*
X181189238Y-85431333D01*
X181284476Y-85478952D01*
X181332095Y-85526571D01*
X181379714Y-85621809D01*
X181379714Y-85859904D01*
X181332095Y-85955142D01*
X181284476Y-86002761D01*
X181189238Y-86050380D01*
X180903523Y-86050380D01*
X180808285Y-86002761D01*
X180760666Y-85955142D01*
G04 #@! TO.C,C4*
X152233333Y-93345142D02*
X152185714Y-93392761D01*
X152042857Y-93440380D01*
X151947619Y-93440380D01*
X151804761Y-93392761D01*
X151709523Y-93297523D01*
X151661904Y-93202285D01*
X151614285Y-93011809D01*
X151614285Y-92868952D01*
X151661904Y-92678476D01*
X151709523Y-92583238D01*
X151804761Y-92488000D01*
X151947619Y-92440380D01*
X152042857Y-92440380D01*
X152185714Y-92488000D01*
X152233333Y-92535619D01*
X153090476Y-92773714D02*
X153090476Y-93440380D01*
X152852380Y-92392761D02*
X152614285Y-93107047D01*
X153233333Y-93107047D01*
G04 #@! TO.C,D1*
X147597904Y-95364380D02*
X147597904Y-94364380D01*
X147836000Y-94364380D01*
X147978857Y-94412000D01*
X148074095Y-94507238D01*
X148121714Y-94602476D01*
X148169333Y-94792952D01*
X148169333Y-94935809D01*
X148121714Y-95126285D01*
X148074095Y-95221523D01*
X147978857Y-95316761D01*
X147836000Y-95364380D01*
X147597904Y-95364380D01*
X149121714Y-95364380D02*
X148550285Y-95364380D01*
X148836000Y-95364380D02*
X148836000Y-94364380D01*
X148740761Y-94507238D01*
X148645523Y-94602476D01*
X148550285Y-94650095D01*
G04 #@! TO.C,F1*
X141398666Y-100004571D02*
X141065333Y-100004571D01*
X141065333Y-100528380D02*
X141065333Y-99528380D01*
X141541523Y-99528380D01*
X142446285Y-100528380D02*
X141874857Y-100528380D01*
X142160571Y-100528380D02*
X142160571Y-99528380D01*
X142065333Y-99671238D01*
X141970095Y-99766476D01*
X141874857Y-99814095D01*
G04 #@! TO.C,J1*
X187626666Y-86320380D02*
X187626666Y-87034666D01*
X187579047Y-87177523D01*
X187483809Y-87272761D01*
X187340952Y-87320380D01*
X187245714Y-87320380D01*
X188626666Y-87320380D02*
X188055238Y-87320380D01*
X188340952Y-87320380D02*
X188340952Y-86320380D01*
X188245714Y-86463238D01*
X188150476Y-86558476D01*
X188055238Y-86606095D01*
X184594476Y-88352380D02*
X184404000Y-88352380D01*
X184308761Y-88400000D01*
X184261142Y-88447619D01*
X184165904Y-88590476D01*
X184118285Y-88780952D01*
X184118285Y-89161904D01*
X184165904Y-89257142D01*
X184213523Y-89304761D01*
X184308761Y-89352380D01*
X184499238Y-89352380D01*
X184594476Y-89304761D01*
X184642095Y-89257142D01*
X184689714Y-89161904D01*
X184689714Y-88923809D01*
X184642095Y-88828571D01*
X184594476Y-88780952D01*
X184499238Y-88733333D01*
X184308761Y-88733333D01*
X184213523Y-88780952D01*
X184165904Y-88828571D01*
X184118285Y-88923809D01*
X188245714Y-101544380D02*
X187674285Y-101544380D01*
X187960000Y-101544380D02*
X187960000Y-100544380D01*
X187864761Y-100687238D01*
X187769523Y-100782476D01*
X187674285Y-100830095D01*
G04 #@! TO.C,J2*
X133016666Y-94956380D02*
X133016666Y-95670666D01*
X132969047Y-95813523D01*
X132873809Y-95908761D01*
X132730952Y-95956380D01*
X132635714Y-95956380D01*
X133445238Y-95051619D02*
X133492857Y-95004000D01*
X133588095Y-94956380D01*
X133826190Y-94956380D01*
X133921428Y-95004000D01*
X133969047Y-95051619D01*
X134016666Y-95146857D01*
X134016666Y-95242095D01*
X133969047Y-95384952D01*
X133397619Y-95956380D01*
X134016666Y-95956380D01*
G04 #@! TO.C,J3*
D13*
X137909333Y-108273904D02*
X137909333Y-108845333D01*
X137871238Y-108959619D01*
X137795047Y-109035809D01*
X137680761Y-109073904D01*
X137604571Y-109073904D01*
X138214095Y-108273904D02*
X138709333Y-108273904D01*
X138442666Y-108578666D01*
X138556952Y-108578666D01*
X138633142Y-108616761D01*
X138671238Y-108654857D01*
X138709333Y-108731047D01*
X138709333Y-108921523D01*
X138671238Y-108997714D01*
X138633142Y-109035809D01*
X138556952Y-109073904D01*
X138328380Y-109073904D01*
X138252190Y-109035809D01*
X138214095Y-108997714D01*
G04 #@! TO.C,Q1*
D10*
X178593761Y-100115619D02*
X178498523Y-100068000D01*
X178403285Y-99972761D01*
X178260428Y-99829904D01*
X178165190Y-99782285D01*
X178069952Y-99782285D01*
X178117571Y-100020380D02*
X178022333Y-99972761D01*
X177927095Y-99877523D01*
X177879476Y-99687047D01*
X177879476Y-99353714D01*
X177927095Y-99163238D01*
X178022333Y-99068000D01*
X178117571Y-99020380D01*
X178308047Y-99020380D01*
X178403285Y-99068000D01*
X178498523Y-99163238D01*
X178546142Y-99353714D01*
X178546142Y-99687047D01*
X178498523Y-99877523D01*
X178403285Y-99972761D01*
X178308047Y-100020380D01*
X178117571Y-100020380D01*
X179498523Y-100020380D02*
X178927095Y-100020380D01*
X179212809Y-100020380D02*
X179212809Y-99020380D01*
X179117571Y-99163238D01*
X179022333Y-99258476D01*
X178927095Y-99306095D01*
G04 #@! TO.C,R1*
X142200333Y-94813380D02*
X141867000Y-94337190D01*
X141628904Y-94813380D02*
X141628904Y-93813380D01*
X142009857Y-93813380D01*
X142105095Y-93861000D01*
X142152714Y-93908619D01*
X142200333Y-94003857D01*
X142200333Y-94146714D01*
X142152714Y-94241952D01*
X142105095Y-94289571D01*
X142009857Y-94337190D01*
X141628904Y-94337190D01*
X143152714Y-94813380D02*
X142581285Y-94813380D01*
X142867000Y-94813380D02*
X142867000Y-93813380D01*
X142771761Y-93956238D01*
X142676523Y-94051476D01*
X142581285Y-94099095D01*
G04 #@! TO.C,R2*
X145756333Y-98369380D02*
X145423000Y-97893190D01*
X145184904Y-98369380D02*
X145184904Y-97369380D01*
X145565857Y-97369380D01*
X145661095Y-97417000D01*
X145708714Y-97464619D01*
X145756333Y-97559857D01*
X145756333Y-97702714D01*
X145708714Y-97797952D01*
X145661095Y-97845571D01*
X145565857Y-97893190D01*
X145184904Y-97893190D01*
X146137285Y-97464619D02*
X146184904Y-97417000D01*
X146280142Y-97369380D01*
X146518238Y-97369380D01*
X146613476Y-97417000D01*
X146661095Y-97464619D01*
X146708714Y-97559857D01*
X146708714Y-97655095D01*
X146661095Y-97797952D01*
X146089666Y-98369380D01*
X146708714Y-98369380D01*
G04 #@! TO.C,R3*
X182713333Y-82367380D02*
X182380000Y-81891190D01*
X182141904Y-82367380D02*
X182141904Y-81367380D01*
X182522857Y-81367380D01*
X182618095Y-81415000D01*
X182665714Y-81462619D01*
X182713333Y-81557857D01*
X182713333Y-81700714D01*
X182665714Y-81795952D01*
X182618095Y-81843571D01*
X182522857Y-81891190D01*
X182141904Y-81891190D01*
X183046666Y-81367380D02*
X183665714Y-81367380D01*
X183332380Y-81748333D01*
X183475238Y-81748333D01*
X183570476Y-81795952D01*
X183618095Y-81843571D01*
X183665714Y-81938809D01*
X183665714Y-82176904D01*
X183618095Y-82272142D01*
X183570476Y-82319761D01*
X183475238Y-82367380D01*
X183189523Y-82367380D01*
X183094285Y-82319761D01*
X183046666Y-82272142D01*
G04 #@! TO.C,R4*
X142073333Y-76144380D02*
X141740000Y-75668190D01*
X141501904Y-76144380D02*
X141501904Y-75144380D01*
X141882857Y-75144380D01*
X141978095Y-75192000D01*
X142025714Y-75239619D01*
X142073333Y-75334857D01*
X142073333Y-75477714D01*
X142025714Y-75572952D01*
X141978095Y-75620571D01*
X141882857Y-75668190D01*
X141501904Y-75668190D01*
X142930476Y-75477714D02*
X142930476Y-76144380D01*
X142692380Y-75096761D02*
X142454285Y-75811047D01*
X143073333Y-75811047D01*
G04 #@! TO.C,R5*
X147153333Y-76144380D02*
X146820000Y-75668190D01*
X146581904Y-76144380D02*
X146581904Y-75144380D01*
X146962857Y-75144380D01*
X147058095Y-75192000D01*
X147105714Y-75239619D01*
X147153333Y-75334857D01*
X147153333Y-75477714D01*
X147105714Y-75572952D01*
X147058095Y-75620571D01*
X146962857Y-75668190D01*
X146581904Y-75668190D01*
X148058095Y-75144380D02*
X147581904Y-75144380D01*
X147534285Y-75620571D01*
X147581904Y-75572952D01*
X147677142Y-75525333D01*
X147915238Y-75525333D01*
X148010476Y-75572952D01*
X148058095Y-75620571D01*
X148105714Y-75715809D01*
X148105714Y-75953904D01*
X148058095Y-76049142D01*
X148010476Y-76096761D01*
X147915238Y-76144380D01*
X147677142Y-76144380D01*
X147581904Y-76096761D01*
X147534285Y-76049142D01*
G04 #@! TO.C,R6*
X152233333Y-76144380D02*
X151900000Y-75668190D01*
X151661904Y-76144380D02*
X151661904Y-75144380D01*
X152042857Y-75144380D01*
X152138095Y-75192000D01*
X152185714Y-75239619D01*
X152233333Y-75334857D01*
X152233333Y-75477714D01*
X152185714Y-75572952D01*
X152138095Y-75620571D01*
X152042857Y-75668190D01*
X151661904Y-75668190D01*
X153090476Y-75144380D02*
X152900000Y-75144380D01*
X152804761Y-75192000D01*
X152757142Y-75239619D01*
X152661904Y-75382476D01*
X152614285Y-75572952D01*
X152614285Y-75953904D01*
X152661904Y-76049142D01*
X152709523Y-76096761D01*
X152804761Y-76144380D01*
X152995238Y-76144380D01*
X153090476Y-76096761D01*
X153138095Y-76049142D01*
X153185714Y-75953904D01*
X153185714Y-75715809D01*
X153138095Y-75620571D01*
X153090476Y-75572952D01*
X152995238Y-75525333D01*
X152804761Y-75525333D01*
X152709523Y-75572952D01*
X152661904Y-75620571D01*
X152614285Y-75715809D01*
G04 #@! TO.C,R7*
X156805333Y-81224380D02*
X156472000Y-80748190D01*
X156233904Y-81224380D02*
X156233904Y-80224380D01*
X156614857Y-80224380D01*
X156710095Y-80272000D01*
X156757714Y-80319619D01*
X156805333Y-80414857D01*
X156805333Y-80557714D01*
X156757714Y-80652952D01*
X156710095Y-80700571D01*
X156614857Y-80748190D01*
X156233904Y-80748190D01*
X157138666Y-80224380D02*
X157805333Y-80224380D01*
X157376761Y-81224380D01*
G04 #@! TO.C,R8*
X156805333Y-88336380D02*
X156472000Y-87860190D01*
X156233904Y-88336380D02*
X156233904Y-87336380D01*
X156614857Y-87336380D01*
X156710095Y-87384000D01*
X156757714Y-87431619D01*
X156805333Y-87526857D01*
X156805333Y-87669714D01*
X156757714Y-87764952D01*
X156710095Y-87812571D01*
X156614857Y-87860190D01*
X156233904Y-87860190D01*
X157376761Y-87764952D02*
X157281523Y-87717333D01*
X157233904Y-87669714D01*
X157186285Y-87574476D01*
X157186285Y-87526857D01*
X157233904Y-87431619D01*
X157281523Y-87384000D01*
X157376761Y-87336380D01*
X157567238Y-87336380D01*
X157662476Y-87384000D01*
X157710095Y-87431619D01*
X157757714Y-87526857D01*
X157757714Y-87574476D01*
X157710095Y-87669714D01*
X157662476Y-87717333D01*
X157567238Y-87764952D01*
X157376761Y-87764952D01*
X157281523Y-87812571D01*
X157233904Y-87860190D01*
X157186285Y-87955428D01*
X157186285Y-88145904D01*
X157233904Y-88241142D01*
X157281523Y-88288761D01*
X157376761Y-88336380D01*
X157567238Y-88336380D01*
X157662476Y-88288761D01*
X157710095Y-88241142D01*
X157757714Y-88145904D01*
X157757714Y-87955428D01*
X157710095Y-87860190D01*
X157662476Y-87812571D01*
X157567238Y-87764952D01*
G04 #@! TO.C,R9*
X156297333Y-107258380D02*
X155964000Y-106782190D01*
X155725904Y-107258380D02*
X155725904Y-106258380D01*
X156106857Y-106258380D01*
X156202095Y-106306000D01*
X156249714Y-106353619D01*
X156297333Y-106448857D01*
X156297333Y-106591714D01*
X156249714Y-106686952D01*
X156202095Y-106734571D01*
X156106857Y-106782190D01*
X155725904Y-106782190D01*
X156773523Y-107258380D02*
X156964000Y-107258380D01*
X157059238Y-107210761D01*
X157106857Y-107163142D01*
X157202095Y-107020285D01*
X157249714Y-106829809D01*
X157249714Y-106448857D01*
X157202095Y-106353619D01*
X157154476Y-106306000D01*
X157059238Y-106258380D01*
X156868761Y-106258380D01*
X156773523Y-106306000D01*
X156725904Y-106353619D01*
X156678285Y-106448857D01*
X156678285Y-106686952D01*
X156725904Y-106782190D01*
X156773523Y-106829809D01*
X156868761Y-106877428D01*
X157059238Y-106877428D01*
X157154476Y-106829809D01*
X157202095Y-106782190D01*
X157249714Y-106686952D01*
G04 #@! TO.C,R10*
X156329142Y-93416380D02*
X155995809Y-92940190D01*
X155757714Y-93416380D02*
X155757714Y-92416380D01*
X156138666Y-92416380D01*
X156233904Y-92464000D01*
X156281523Y-92511619D01*
X156329142Y-92606857D01*
X156329142Y-92749714D01*
X156281523Y-92844952D01*
X156233904Y-92892571D01*
X156138666Y-92940190D01*
X155757714Y-92940190D01*
X157281523Y-93416380D02*
X156710095Y-93416380D01*
X156995809Y-93416380D02*
X156995809Y-92416380D01*
X156900571Y-92559238D01*
X156805333Y-92654476D01*
X156710095Y-92702095D01*
X157900571Y-92416380D02*
X157995809Y-92416380D01*
X158091047Y-92464000D01*
X158138666Y-92511619D01*
X158186285Y-92606857D01*
X158233904Y-92797333D01*
X158233904Y-93035428D01*
X158186285Y-93225904D01*
X158138666Y-93321142D01*
X158091047Y-93368761D01*
X157995809Y-93416380D01*
X157900571Y-93416380D01*
X157805333Y-93368761D01*
X157757714Y-93321142D01*
X157710095Y-93225904D01*
X157662476Y-93035428D01*
X157662476Y-92797333D01*
X157710095Y-92606857D01*
X157757714Y-92511619D01*
X157805333Y-92464000D01*
X157900571Y-92416380D01*
G04 #@! TO.C,R11*
X156329142Y-102626380D02*
X155995809Y-102150190D01*
X155757714Y-102626380D02*
X155757714Y-101626380D01*
X156138666Y-101626380D01*
X156233904Y-101674000D01*
X156281523Y-101721619D01*
X156329142Y-101816857D01*
X156329142Y-101959714D01*
X156281523Y-102054952D01*
X156233904Y-102102571D01*
X156138666Y-102150190D01*
X155757714Y-102150190D01*
X157281523Y-102626380D02*
X156710095Y-102626380D01*
X156995809Y-102626380D02*
X156995809Y-101626380D01*
X156900571Y-101769238D01*
X156805333Y-101864476D01*
X156710095Y-101912095D01*
X158233904Y-102626380D02*
X157662476Y-102626380D01*
X157948190Y-102626380D02*
X157948190Y-101626380D01*
X157852952Y-101769238D01*
X157757714Y-101864476D01*
X157662476Y-101912095D01*
G04 #@! TO.C,R12*
X145915142Y-109037380D02*
X145581809Y-108561190D01*
X145343714Y-109037380D02*
X145343714Y-108037380D01*
X145724666Y-108037380D01*
X145819904Y-108085000D01*
X145867523Y-108132619D01*
X145915142Y-108227857D01*
X145915142Y-108370714D01*
X145867523Y-108465952D01*
X145819904Y-108513571D01*
X145724666Y-108561190D01*
X145343714Y-108561190D01*
X146867523Y-109037380D02*
X146296095Y-109037380D01*
X146581809Y-109037380D02*
X146581809Y-108037380D01*
X146486571Y-108180238D01*
X146391333Y-108275476D01*
X146296095Y-108323095D01*
X147248476Y-108132619D02*
X147296095Y-108085000D01*
X147391333Y-108037380D01*
X147629428Y-108037380D01*
X147724666Y-108085000D01*
X147772285Y-108132619D01*
X147819904Y-108227857D01*
X147819904Y-108323095D01*
X147772285Y-108465952D01*
X147200857Y-109037380D01*
X147819904Y-109037380D01*
G04 #@! TO.C,R13*
X180459142Y-103830380D02*
X180125809Y-103354190D01*
X179887714Y-103830380D02*
X179887714Y-102830380D01*
X180268666Y-102830380D01*
X180363904Y-102878000D01*
X180411523Y-102925619D01*
X180459142Y-103020857D01*
X180459142Y-103163714D01*
X180411523Y-103258952D01*
X180363904Y-103306571D01*
X180268666Y-103354190D01*
X179887714Y-103354190D01*
X181411523Y-103830380D02*
X180840095Y-103830380D01*
X181125809Y-103830380D02*
X181125809Y-102830380D01*
X181030571Y-102973238D01*
X180935333Y-103068476D01*
X180840095Y-103116095D01*
X181744857Y-102830380D02*
X182363904Y-102830380D01*
X182030571Y-103211333D01*
X182173428Y-103211333D01*
X182268666Y-103258952D01*
X182316285Y-103306571D01*
X182363904Y-103401809D01*
X182363904Y-103639904D01*
X182316285Y-103735142D01*
X182268666Y-103782761D01*
X182173428Y-103830380D01*
X181887714Y-103830380D01*
X181792476Y-103782761D01*
X181744857Y-103735142D01*
G04 #@! TO.C,R14*
X148709142Y-104592380D02*
X148375809Y-104116190D01*
X148137714Y-104592380D02*
X148137714Y-103592380D01*
X148518666Y-103592380D01*
X148613904Y-103640000D01*
X148661523Y-103687619D01*
X148709142Y-103782857D01*
X148709142Y-103925714D01*
X148661523Y-104020952D01*
X148613904Y-104068571D01*
X148518666Y-104116190D01*
X148137714Y-104116190D01*
X149661523Y-104592380D02*
X149090095Y-104592380D01*
X149375809Y-104592380D02*
X149375809Y-103592380D01*
X149280571Y-103735238D01*
X149185333Y-103830476D01*
X149090095Y-103878095D01*
X150518666Y-103925714D02*
X150518666Y-104592380D01*
X150280571Y-103544761D02*
X150042476Y-104259047D01*
X150661523Y-104259047D01*
G04 #@! TO.C,U2*
X152654095Y-99528380D02*
X152654095Y-100337904D01*
X152701714Y-100433142D01*
X152749333Y-100480761D01*
X152844571Y-100528380D01*
X153035047Y-100528380D01*
X153130285Y-100480761D01*
X153177904Y-100433142D01*
X153225523Y-100337904D01*
X153225523Y-99528380D01*
X153654095Y-99623619D02*
X153701714Y-99576000D01*
X153796952Y-99528380D01*
X154035047Y-99528380D01*
X154130285Y-99576000D01*
X154177904Y-99623619D01*
X154225523Y-99718857D01*
X154225523Y-99814095D01*
X154177904Y-99956952D01*
X153606476Y-100528380D01*
X154225523Y-100528380D01*
G04 #@! TO.C,U3*
X165100095Y-95210380D02*
X165100095Y-96019904D01*
X165147714Y-96115142D01*
X165195333Y-96162761D01*
X165290571Y-96210380D01*
X165481047Y-96210380D01*
X165576285Y-96162761D01*
X165623904Y-96115142D01*
X165671523Y-96019904D01*
X165671523Y-95210380D01*
X166052476Y-95210380D02*
X166671523Y-95210380D01*
X166338190Y-95591333D01*
X166481047Y-95591333D01*
X166576285Y-95638952D01*
X166623904Y-95686571D01*
X166671523Y-95781809D01*
X166671523Y-96019904D01*
X166623904Y-96115142D01*
X166576285Y-96162761D01*
X166481047Y-96210380D01*
X166195333Y-96210380D01*
X166100095Y-96162761D01*
X166052476Y-96115142D01*
G04 #@! TO.C,U4*
X177800095Y-92162380D02*
X177800095Y-92971904D01*
X177847714Y-93067142D01*
X177895333Y-93114761D01*
X177990571Y-93162380D01*
X178181047Y-93162380D01*
X178276285Y-93114761D01*
X178323904Y-93067142D01*
X178371523Y-92971904D01*
X178371523Y-92162380D01*
X179276285Y-92495714D02*
X179276285Y-93162380D01*
X179038190Y-92114761D02*
X178800095Y-92829047D01*
X179419142Y-92829047D01*
G04 #@! TD*
M02*
