G04 #@! TF.GenerationSoftware,KiCad,Pcbnew,5.0.0-fee4fd1~66~ubuntu18.04.1*
G04 #@! TF.CreationDate,2019-04-08T23:07:45-04:00*
G04 #@! TF.ProjectId,IMD_v1,494D445F76312E6B696361645F706362,rev?*
G04 #@! TF.SameCoordinates,Original*
G04 #@! TF.FileFunction,Soldermask,Top*
G04 #@! TF.FilePolarity,Negative*
%FSLAX46Y46*%
G04 Gerber Fmt 4.6, Leading zero omitted, Abs format (unit mm)*
G04 Created by KiCad (PCBNEW 5.0.0-fee4fd1~66~ubuntu18.04.1) date Mon Apr  8 23:07:45 2019*
%MOMM*%
%LPD*%
G01*
G04 APERTURE LIST*
%ADD10R,1.400000X2.000000*%
%ADD11C,2.200000*%
%ADD12R,1.650000X1.400000*%
%ADD13R,2.178000X2.559000*%
%ADD14R,1.600000X1.600000*%
%ADD15R,1.200000X1.300000*%
%ADD16R,1.300000X2.900000*%
%ADD17C,1.700000*%
%ADD18C,1.797000*%
%ADD19C,2.381000*%
%ADD20R,1.300000X1.200000*%
%ADD21R,1.700000X1.100000*%
%ADD22R,1.100000X1.700000*%
%ADD23R,1.050000X1.460000*%
%ADD24R,0.750000X2.000000*%
G04 APERTURE END LIST*
D10*
G04 #@! TO.C,C2*
X118149500Y-73977500D03*
X115149500Y-73977500D03*
G04 #@! TD*
D11*
G04 #@! TO.C,K1*
X104013000Y-69977000D03*
X104013000Y-80137000D03*
X104013000Y-87757000D03*
X111633000Y-69977000D03*
G04 #@! TD*
D12*
G04 #@! TO.C,C1*
X105600500Y-63595000D03*
X105600500Y-61595000D03*
G04 #@! TD*
D13*
G04 #@! TO.C,D1*
X95440500Y-68961000D03*
X99504500Y-68961000D03*
G04 #@! TD*
D14*
G04 #@! TO.C,D2*
X105473500Y-59880500D03*
X103273500Y-59880500D03*
G04 #@! TD*
D15*
G04 #@! TO.C,D3*
X108907000Y-67500500D03*
X106807000Y-67500500D03*
G04 #@! TD*
D14*
G04 #@! TO.C,D4*
X101600000Y-77978000D03*
X101600000Y-80178000D03*
G04 #@! TD*
D16*
G04 #@! TO.C,F1*
X102256000Y-66738500D03*
X105156000Y-66738500D03*
G04 #@! TD*
D17*
G04 #@! TO.C,J1*
X95504000Y-86614000D03*
X95504000Y-84074000D03*
X98044000Y-85344000D03*
X98044000Y-87884000D03*
G04 #@! TD*
D18*
G04 #@! TO.C,J2*
X96520000Y-94488000D03*
X100020000Y-94488000D03*
D19*
X98270000Y-92258000D03*
G04 #@! TD*
D20*
G04 #@! TO.C,Q1*
X102777000Y-99314000D03*
X100677000Y-100264000D03*
X100677000Y-98364000D03*
G04 #@! TD*
G04 #@! TO.C,Q2*
X98078000Y-99819500D03*
X98078000Y-97919500D03*
X95978000Y-98869500D03*
G04 #@! TD*
D21*
G04 #@! TO.C,R1*
X103251000Y-61531500D03*
X103251000Y-63431500D03*
G04 #@! TD*
D22*
G04 #@! TO.C,R2*
X106870500Y-65468500D03*
X108770500Y-65468500D03*
G04 #@! TD*
D21*
G04 #@! TO.C,R3*
X108839000Y-63751500D03*
X108839000Y-61851500D03*
G04 #@! TD*
G04 #@! TO.C,R4*
X110680500Y-67625000D03*
X110680500Y-65725000D03*
G04 #@! TD*
D22*
G04 #@! TO.C,R5*
X116393000Y-67945000D03*
X114493000Y-67945000D03*
G04 #@! TD*
G04 #@! TO.C,R6*
X114432000Y-99568000D03*
X116332000Y-99568000D03*
G04 #@! TD*
G04 #@! TO.C,R7*
X114495500Y-94488000D03*
X116395500Y-94488000D03*
G04 #@! TD*
G04 #@! TO.C,R8*
X118234500Y-69977000D03*
X116334500Y-69977000D03*
G04 #@! TD*
G04 #@! TO.C,R9*
X112585500Y-92011500D03*
X110685500Y-92011500D03*
G04 #@! TD*
G04 #@! TO.C,R10*
X116334500Y-71882000D03*
X118234500Y-71882000D03*
G04 #@! TD*
D21*
G04 #@! TO.C,R11*
X101409500Y-71056500D03*
X101409500Y-72956500D03*
G04 #@! TD*
G04 #@! TO.C,R12*
X101409500Y-76322000D03*
X101409500Y-74422000D03*
G04 #@! TD*
D22*
G04 #@! TO.C,R13*
X116459000Y-97091500D03*
X114559000Y-97091500D03*
G04 #@! TD*
D18*
G04 #@! TO.C,U1*
X106934000Y-95405000D03*
X106934000Y-91905000D03*
D19*
X104704000Y-93655000D03*
D18*
X106934000Y-98905000D03*
X106934000Y-102405000D03*
X106934000Y-105905000D03*
G04 #@! TD*
D23*
G04 #@! TO.C,U2*
X116522500Y-91757500D03*
X114622500Y-91757500D03*
X114622500Y-89557500D03*
X115572500Y-89557500D03*
X116522500Y-89557500D03*
G04 #@! TD*
G04 #@! TO.C,U3*
X115064500Y-78252500D03*
X116014500Y-78252500D03*
X116964500Y-78252500D03*
X116964500Y-76052500D03*
X115064500Y-76052500D03*
G04 #@! TD*
D24*
G04 #@! TO.C,U4*
X113676000Y-86239000D03*
X114326000Y-86239000D03*
X114976000Y-86239000D03*
X115626000Y-86239000D03*
X116276000Y-86239000D03*
X116926000Y-86239000D03*
X117576000Y-86239000D03*
X118226000Y-86239000D03*
X118226000Y-80639000D03*
X117576000Y-80639000D03*
X116926000Y-80639000D03*
X116276000Y-80639000D03*
X115626000Y-80639000D03*
X114976000Y-80639000D03*
X114326000Y-80639000D03*
X113676000Y-80639000D03*
G04 #@! TD*
M02*
