G04 #@! TF.GenerationSoftware,KiCad,Pcbnew,5.0.0-fee4fd1~66~ubuntu18.04.1*
G04 #@! TF.CreationDate,2019-04-11T10:46:02-04:00*
G04 #@! TF.ProjectId,IMD_v1,494D445F76312E6B696361645F706362,rev?*
G04 #@! TF.SameCoordinates,Original*
G04 #@! TF.FileFunction,Legend,Top*
G04 #@! TF.FilePolarity,Positive*
%FSLAX46Y46*%
G04 Gerber Fmt 4.6, Leading zero omitted, Abs format (unit mm)*
G04 Created by KiCad (PCBNEW 5.0.0-fee4fd1~66~ubuntu18.04.1) date Thu Apr 11 10:46:02 2019*
%MOMM*%
%LPD*%
G01*
G04 APERTURE LIST*
%ADD10C,0.121000*%
%ADD11C,0.184500*%
%ADD12C,0.200000*%
%ADD13C,0.120000*%
%ADD14C,0.100000*%
%ADD15C,0.150000*%
G04 APERTURE END LIST*
D10*
X97966452Y-78367190D02*
X97482452Y-78367190D01*
X97966452Y-78136714D02*
X97482452Y-78136714D01*
X97828166Y-77975380D01*
X97482452Y-77814047D01*
X97966452Y-77814047D01*
X97966452Y-77583571D02*
X97482452Y-77583571D01*
X97482452Y-77468333D01*
X97505500Y-77399190D01*
X97551595Y-77353095D01*
X97597690Y-77330047D01*
X97689880Y-77307000D01*
X97759023Y-77307000D01*
X97851214Y-77330047D01*
X97897309Y-77353095D01*
X97943404Y-77399190D01*
X97966452Y-77468333D01*
X97966452Y-77583571D01*
X97966452Y-76500333D02*
X97966452Y-76730809D01*
X97482452Y-76730809D01*
X97828166Y-76362047D02*
X97828166Y-76131571D01*
X97966452Y-76408142D02*
X97482452Y-76246809D01*
X97966452Y-76085476D01*
X97482452Y-75993285D02*
X97482452Y-75716714D01*
X97966452Y-75855000D02*
X97482452Y-75855000D01*
X97920357Y-75278809D02*
X97943404Y-75301857D01*
X97966452Y-75371000D01*
X97966452Y-75417095D01*
X97943404Y-75486238D01*
X97897309Y-75532333D01*
X97851214Y-75555380D01*
X97759023Y-75578428D01*
X97689880Y-75578428D01*
X97597690Y-75555380D01*
X97551595Y-75532333D01*
X97505500Y-75486238D01*
X97482452Y-75417095D01*
X97482452Y-75371000D01*
X97505500Y-75301857D01*
X97528547Y-75278809D01*
X97966452Y-75071380D02*
X97482452Y-75071380D01*
X97712928Y-75071380D02*
X97712928Y-74794809D01*
X97966452Y-74794809D02*
X97482452Y-74794809D01*
X98329452Y-79139285D02*
X98675166Y-79139285D01*
X98744309Y-79162333D01*
X98790404Y-79208428D01*
X98813452Y-79277571D01*
X98813452Y-79323666D01*
X98813452Y-78701380D02*
X98559928Y-78701380D01*
X98513833Y-78724428D01*
X98490785Y-78770523D01*
X98490785Y-78862714D01*
X98513833Y-78908809D01*
X98790404Y-78701380D02*
X98813452Y-78747476D01*
X98813452Y-78862714D01*
X98790404Y-78908809D01*
X98744309Y-78931857D01*
X98698214Y-78931857D01*
X98652119Y-78908809D01*
X98629071Y-78862714D01*
X98629071Y-78747476D01*
X98606023Y-78701380D01*
X98813452Y-78470904D02*
X98490785Y-78470904D01*
X98536880Y-78470904D02*
X98513833Y-78447857D01*
X98490785Y-78401761D01*
X98490785Y-78332619D01*
X98513833Y-78286523D01*
X98559928Y-78263476D01*
X98813452Y-78263476D01*
X98559928Y-78263476D02*
X98513833Y-78240428D01*
X98490785Y-78194333D01*
X98490785Y-78125190D01*
X98513833Y-78079095D01*
X98559928Y-78056047D01*
X98813452Y-78056047D01*
X98813452Y-77825571D02*
X98490785Y-77825571D01*
X98329452Y-77825571D02*
X98352500Y-77848619D01*
X98375547Y-77825571D01*
X98352500Y-77802523D01*
X98329452Y-77825571D01*
X98375547Y-77825571D01*
X98790404Y-77410714D02*
X98813452Y-77456809D01*
X98813452Y-77549000D01*
X98790404Y-77595095D01*
X98744309Y-77618142D01*
X98559928Y-77618142D01*
X98513833Y-77595095D01*
X98490785Y-77549000D01*
X98490785Y-77456809D01*
X98513833Y-77410714D01*
X98559928Y-77387666D01*
X98606023Y-77387666D01*
X98652119Y-77618142D01*
X98790404Y-76834523D02*
X98813452Y-76765380D01*
X98813452Y-76650142D01*
X98790404Y-76604047D01*
X98767357Y-76581000D01*
X98721261Y-76557952D01*
X98675166Y-76557952D01*
X98629071Y-76581000D01*
X98606023Y-76604047D01*
X98582976Y-76650142D01*
X98559928Y-76742333D01*
X98536880Y-76788428D01*
X98513833Y-76811476D01*
X98467738Y-76834523D01*
X98421642Y-76834523D01*
X98375547Y-76811476D01*
X98352500Y-76788428D01*
X98329452Y-76742333D01*
X98329452Y-76627095D01*
X98352500Y-76557952D01*
X98813452Y-76143095D02*
X98559928Y-76143095D01*
X98513833Y-76166142D01*
X98490785Y-76212238D01*
X98490785Y-76304428D01*
X98513833Y-76350523D01*
X98790404Y-76143095D02*
X98813452Y-76189190D01*
X98813452Y-76304428D01*
X98790404Y-76350523D01*
X98744309Y-76373571D01*
X98698214Y-76373571D01*
X98652119Y-76350523D01*
X98629071Y-76304428D01*
X98629071Y-76189190D01*
X98606023Y-76143095D01*
X98490785Y-75912619D02*
X98813452Y-75912619D01*
X98536880Y-75912619D02*
X98513833Y-75889571D01*
X98490785Y-75843476D01*
X98490785Y-75774333D01*
X98513833Y-75728238D01*
X98559928Y-75705190D01*
X98813452Y-75705190D01*
X98490785Y-75543857D02*
X98490785Y-75359476D01*
X98329452Y-75474714D02*
X98744309Y-75474714D01*
X98790404Y-75451666D01*
X98813452Y-75405571D01*
X98813452Y-75359476D01*
X98813452Y-75198142D02*
X98490785Y-75198142D01*
X98329452Y-75198142D02*
X98352500Y-75221190D01*
X98375547Y-75198142D01*
X98352500Y-75175095D01*
X98329452Y-75198142D01*
X98375547Y-75198142D01*
X98813452Y-74760238D02*
X98559928Y-74760238D01*
X98513833Y-74783285D01*
X98490785Y-74829380D01*
X98490785Y-74921571D01*
X98513833Y-74967666D01*
X98790404Y-74760238D02*
X98813452Y-74806333D01*
X98813452Y-74921571D01*
X98790404Y-74967666D01*
X98744309Y-74990714D01*
X98698214Y-74990714D01*
X98652119Y-74967666D01*
X98629071Y-74921571D01*
X98629071Y-74806333D01*
X98606023Y-74760238D01*
X98490785Y-74322333D02*
X98882595Y-74322333D01*
X98928690Y-74345380D01*
X98951738Y-74368428D01*
X98974785Y-74414523D01*
X98974785Y-74483666D01*
X98951738Y-74529761D01*
X98790404Y-74322333D02*
X98813452Y-74368428D01*
X98813452Y-74460619D01*
X98790404Y-74506714D01*
X98767357Y-74529761D01*
X98721261Y-74552809D01*
X98582976Y-74552809D01*
X98536880Y-74529761D01*
X98513833Y-74506714D01*
X98490785Y-74460619D01*
X98490785Y-74368428D01*
X98513833Y-74322333D01*
X98813452Y-74022714D02*
X98790404Y-74068809D01*
X98767357Y-74091857D01*
X98721261Y-74114904D01*
X98582976Y-74114904D01*
X98536880Y-74091857D01*
X98513833Y-74068809D01*
X98490785Y-74022714D01*
X98490785Y-73953571D01*
X98513833Y-73907476D01*
X98536880Y-73884428D01*
X98582976Y-73861380D01*
X98721261Y-73861380D01*
X98767357Y-73884428D01*
X98790404Y-73907476D01*
X98813452Y-73953571D01*
X98813452Y-74022714D01*
D11*
X96278000Y-80341285D02*
X96230761Y-80411571D01*
X96230761Y-80517000D01*
X96278000Y-80622428D01*
X96372476Y-80692714D01*
X96466952Y-80727857D01*
X96655904Y-80763000D01*
X96797619Y-80763000D01*
X96986571Y-80727857D01*
X97081047Y-80692714D01*
X97175523Y-80622428D01*
X97222761Y-80517000D01*
X97222761Y-80446714D01*
X97175523Y-80341285D01*
X97128285Y-80306142D01*
X96797619Y-80306142D01*
X96797619Y-80446714D01*
X97222761Y-79568142D02*
X96750380Y-79814142D01*
X97222761Y-79989857D02*
X96230761Y-79989857D01*
X96230761Y-79708714D01*
X96278000Y-79638428D01*
X96325238Y-79603285D01*
X96419714Y-79568142D01*
X96561428Y-79568142D01*
X96655904Y-79603285D01*
X96703142Y-79638428D01*
X96750380Y-79708714D01*
X96750380Y-79989857D01*
X96703142Y-79251857D02*
X96703142Y-79005857D01*
X97222761Y-78900428D02*
X97222761Y-79251857D01*
X96230761Y-79251857D01*
X96230761Y-78900428D01*
X96703142Y-78584142D02*
X96703142Y-78338142D01*
X97222761Y-78232714D02*
X97222761Y-78584142D01*
X96230761Y-78584142D01*
X96230761Y-78232714D01*
X97222761Y-77916428D02*
X96230761Y-77916428D01*
X97222761Y-77494714D01*
X96230761Y-77494714D01*
X96703142Y-76581000D02*
X96703142Y-76018714D01*
X96986571Y-76018714D02*
X96986571Y-76581000D01*
X96278000Y-74718428D02*
X96230761Y-74788714D01*
X96230761Y-74894142D01*
X96278000Y-74999571D01*
X96372476Y-75069857D01*
X96466952Y-75105000D01*
X96655904Y-75140142D01*
X96797619Y-75140142D01*
X96986571Y-75105000D01*
X97081047Y-75069857D01*
X97175523Y-74999571D01*
X97222761Y-74894142D01*
X97222761Y-74823857D01*
X97175523Y-74718428D01*
X97128285Y-74683285D01*
X96797619Y-74683285D01*
X96797619Y-74823857D01*
X96230761Y-74226428D02*
X96230761Y-74085857D01*
X96278000Y-74015571D01*
X96372476Y-73945285D01*
X96561428Y-73910142D01*
X96892095Y-73910142D01*
X97081047Y-73945285D01*
X97175523Y-74015571D01*
X97222761Y-74085857D01*
X97222761Y-74226428D01*
X97175523Y-74296714D01*
X97081047Y-74367000D01*
X96892095Y-74402142D01*
X96561428Y-74402142D01*
X96372476Y-74367000D01*
X96278000Y-74296714D01*
X96230761Y-74226428D01*
X96230761Y-73453285D02*
X96230761Y-73312714D01*
X96278000Y-73242428D01*
X96372476Y-73172142D01*
X96561428Y-73137000D01*
X96892095Y-73137000D01*
X97081047Y-73172142D01*
X97175523Y-73242428D01*
X97222761Y-73312714D01*
X97222761Y-73453285D01*
X97175523Y-73523571D01*
X97081047Y-73593857D01*
X96892095Y-73629000D01*
X96561428Y-73629000D01*
X96372476Y-73593857D01*
X96278000Y-73523571D01*
X96230761Y-73453285D01*
X97222761Y-72820714D02*
X96230761Y-72820714D01*
X96230761Y-72645000D01*
X96278000Y-72539571D01*
X96372476Y-72469285D01*
X96466952Y-72434142D01*
X96655904Y-72399000D01*
X96797619Y-72399000D01*
X96986571Y-72434142D01*
X97081047Y-72469285D01*
X97175523Y-72539571D01*
X97222761Y-72645000D01*
X97222761Y-72820714D01*
D12*
X101935000Y-108738000D02*
X101935000Y-104738000D01*
X110935000Y-58738000D02*
X110935000Y-62738000D01*
X101935000Y-62738000D02*
G75*
G02X97935000Y-66738000I-4000000J0D01*
G01*
X97935000Y-66738000D02*
X93935000Y-66738000D01*
X97935000Y-100738000D02*
G75*
G02X101935000Y-104738000I0J-4000000D01*
G01*
X110935000Y-104738000D02*
G75*
G02X114935000Y-100738000I4000000J0D01*
G01*
X110935000Y-108738000D02*
X110935000Y-104738000D01*
X114935000Y-66738000D02*
X118935000Y-66738000D01*
X114935000Y-100738000D02*
X118935000Y-100738000D01*
X114935000Y-66738000D02*
G75*
G02X110935000Y-62738000I0J4000000D01*
G01*
X97935000Y-100738000D02*
X93935000Y-100738000D01*
X101935000Y-58738000D02*
X101935000Y-62738000D01*
D13*
G04 #@! TO.C,C2*
X115649500Y-74997500D02*
X117649500Y-74997500D01*
X117649500Y-72957500D02*
X115649500Y-72957500D01*
G04 #@! TO.C,K1*
X102673000Y-68647000D02*
X102673000Y-89087000D01*
X102673000Y-89087000D02*
X112973000Y-89087000D01*
X102673000Y-68647000D02*
X112973000Y-68647000D01*
X112973000Y-68647000D02*
X112973000Y-89087000D01*
G04 #@! TO.C,C1*
X104750500Y-62095000D02*
X104750500Y-63095000D01*
X106450500Y-63095000D02*
X106450500Y-62095000D01*
D12*
G04 #@! TO.C,D1*
X96872500Y-67961000D02*
X97972500Y-68861000D01*
X96872500Y-69661000D02*
X96872500Y-67961000D01*
X97972500Y-68861000D02*
X96872500Y-69661000D01*
X97972500Y-69661000D02*
X97972500Y-67961000D01*
D13*
X100647500Y-70294500D02*
X100647500Y-67627500D01*
X100647500Y-67627500D02*
X97472500Y-67627500D01*
X100647500Y-70294500D02*
X97472500Y-70294500D01*
G04 #@! TO.C,D2*
X106173500Y-60580500D02*
X103373500Y-60580500D01*
X106173500Y-59180500D02*
X103373500Y-59180500D01*
X106173500Y-60580500D02*
X106173500Y-59180500D01*
D14*
X104573500Y-59880500D02*
X104273500Y-60180500D01*
X104273500Y-60180500D02*
X104223500Y-60230500D01*
X104223500Y-60230500D02*
X104223500Y-59580500D01*
X104223500Y-59530500D02*
X104223500Y-59580500D01*
X104223500Y-59580500D02*
X104223500Y-59530500D01*
X104223500Y-59530500D02*
X104573500Y-59880500D01*
X104573500Y-59880500D02*
X104573500Y-60230500D01*
X104573500Y-59530500D02*
X104573500Y-59880500D01*
D13*
G04 #@! TO.C,D3*
X109457000Y-68300500D02*
X109457000Y-66700500D01*
X109457000Y-66700500D02*
X106857000Y-66700500D01*
X109457000Y-68300500D02*
X106857000Y-68300500D01*
D14*
G04 #@! TO.C,D4*
X101950000Y-79278000D02*
X101600000Y-79278000D01*
X101600000Y-79278000D02*
X101250000Y-79278000D01*
X101950000Y-78928000D02*
X101600000Y-79278000D01*
X101900000Y-78928000D02*
X101950000Y-78928000D01*
X101950000Y-78928000D02*
X101900000Y-78928000D01*
X101250000Y-78928000D02*
X101900000Y-78928000D01*
X101300000Y-78978000D02*
X101250000Y-78928000D01*
X101600000Y-79278000D02*
X101300000Y-78978000D01*
D13*
X100900000Y-80878000D02*
X102300000Y-80878000D01*
X102300000Y-80878000D02*
X102300000Y-78078000D01*
X100900000Y-80878000D02*
X100900000Y-78078000D01*
G04 #@! TO.C,F1*
X104706000Y-68218500D02*
X102706000Y-68218500D01*
X102706000Y-65258500D02*
X104706000Y-65258500D01*
D15*
G04 #@! TO.C,J1*
X94124000Y-90824000D02*
X99424000Y-90824000D01*
X94124000Y-81134000D02*
X99424000Y-81134000D01*
X94124000Y-90824000D02*
X94124000Y-81134000D01*
X99424000Y-90824000D02*
X99424000Y-81134000D01*
D13*
G04 #@! TO.C,Q1*
X102487000Y-100894000D02*
X101027000Y-100894000D01*
X102487000Y-97734000D02*
X100327000Y-97734000D01*
X102487000Y-97734000D02*
X102487000Y-98664000D01*
X102487000Y-100894000D02*
X102487000Y-99964000D01*
G04 #@! TO.C,Q2*
X96268000Y-97289500D02*
X96268000Y-98219500D01*
X96268000Y-100449500D02*
X96268000Y-99519500D01*
X96268000Y-100449500D02*
X98428000Y-100449500D01*
X96268000Y-97289500D02*
X97728000Y-97289500D01*
G04 #@! TO.C,R1*
X102371000Y-63081500D02*
X102371000Y-61881500D01*
X104131000Y-61881500D02*
X104131000Y-63081500D01*
G04 #@! TO.C,R2*
X108420500Y-66348500D02*
X107220500Y-66348500D01*
X107220500Y-64588500D02*
X108420500Y-64588500D01*
G04 #@! TO.C,R3*
X109719000Y-62201500D02*
X109719000Y-63401500D01*
X107959000Y-63401500D02*
X107959000Y-62201500D01*
G04 #@! TO.C,R4*
X111560500Y-66075000D02*
X111560500Y-67275000D01*
X109800500Y-67275000D02*
X109800500Y-66075000D01*
G04 #@! TO.C,R5*
X114843000Y-67065000D02*
X116043000Y-67065000D01*
X116043000Y-68825000D02*
X114843000Y-68825000D01*
G04 #@! TO.C,R6*
X115982000Y-100448000D02*
X114782000Y-100448000D01*
X114782000Y-98688000D02*
X115982000Y-98688000D01*
G04 #@! TO.C,R7*
X116045500Y-95368000D02*
X114845500Y-95368000D01*
X114845500Y-93608000D02*
X116045500Y-93608000D01*
G04 #@! TO.C,R8*
X116684500Y-69097000D02*
X117884500Y-69097000D01*
X117884500Y-70857000D02*
X116684500Y-70857000D01*
G04 #@! TO.C,R9*
X111035500Y-91131500D02*
X112235500Y-91131500D01*
X112235500Y-92891500D02*
X111035500Y-92891500D01*
G04 #@! TO.C,R10*
X117884500Y-72762000D02*
X116684500Y-72762000D01*
X116684500Y-71002000D02*
X117884500Y-71002000D01*
G04 #@! TO.C,R11*
X100529500Y-72606500D02*
X100529500Y-71406500D01*
X102289500Y-71406500D02*
X102289500Y-72606500D01*
G04 #@! TO.C,R12*
X102289500Y-74772000D02*
X102289500Y-75972000D01*
X100529500Y-75972000D02*
X100529500Y-74772000D01*
G04 #@! TO.C,R13*
X114909000Y-96211500D02*
X116109000Y-96211500D01*
X116109000Y-97971500D02*
X114909000Y-97971500D01*
D15*
G04 #@! TO.C,U1*
X109354000Y-101055000D02*
X112664000Y-101055000D01*
X112664000Y-101055000D02*
X112664000Y-93255000D01*
X112664000Y-93255000D02*
X109354000Y-93255000D01*
X109354000Y-89655000D02*
X103632000Y-89655000D01*
X109354000Y-108155000D02*
X103632000Y-108155000D01*
X109354000Y-89655000D02*
X109354000Y-108155000D01*
X103632000Y-89655000D02*
X103632000Y-108155000D01*
D13*
G04 #@! TO.C,U2*
X117182500Y-91557500D02*
X117182500Y-89107500D01*
X113962500Y-89757500D02*
X113962500Y-91557500D01*
G04 #@! TO.C,U3*
X117624500Y-78052500D02*
X117624500Y-76252500D01*
X114404500Y-76252500D02*
X114404500Y-78702500D01*
D15*
G04 #@! TO.C,U4*
X118451000Y-81739000D02*
X113451000Y-81739000D01*
X113451000Y-85139000D02*
X113451000Y-81739000D01*
X113521000Y-82804000D02*
X114283000Y-82804000D01*
X114283000Y-82804000D02*
X114283000Y-84074000D01*
X114283000Y-84074000D02*
X113521000Y-84074000D01*
X118451000Y-85139000D02*
X118451000Y-81739000D01*
X118451000Y-85139000D02*
X113451000Y-85139000D01*
G04 #@! TO.C,J2*
X100965000Y-97028000D02*
X95885000Y-97028000D01*
X95885000Y-97028000D02*
X95885000Y-93218000D01*
X100965000Y-93218000D02*
X100965000Y-97028000D01*
X95885000Y-93218000D02*
X95885000Y-91948000D01*
X95885000Y-91948000D02*
X100965000Y-91948000D01*
X100965000Y-91948000D02*
X100965000Y-93218000D01*
G04 #@! TO.C,C2*
X114085642Y-74207666D02*
X114133261Y-74255285D01*
X114180880Y-74398142D01*
X114180880Y-74493380D01*
X114133261Y-74636238D01*
X114038023Y-74731476D01*
X113942785Y-74779095D01*
X113752309Y-74826714D01*
X113609452Y-74826714D01*
X113418976Y-74779095D01*
X113323738Y-74731476D01*
X113228500Y-74636238D01*
X113180880Y-74493380D01*
X113180880Y-74398142D01*
X113228500Y-74255285D01*
X113276119Y-74207666D01*
X113276119Y-73826714D02*
X113228500Y-73779095D01*
X113180880Y-73683857D01*
X113180880Y-73445761D01*
X113228500Y-73350523D01*
X113276119Y-73302904D01*
X113371357Y-73255285D01*
X113466595Y-73255285D01*
X113609452Y-73302904D01*
X114180880Y-73874333D01*
X114180880Y-73255285D01*
G04 #@! TO.C,K1*
X114965380Y-80215095D02*
X113965380Y-80215095D01*
X114965380Y-79643666D02*
X114393952Y-80072238D01*
X113965380Y-79643666D02*
X114536809Y-80215095D01*
X114965380Y-78691285D02*
X114965380Y-79262714D01*
X114965380Y-78977000D02*
X113965380Y-78977000D01*
X114108238Y-79072238D01*
X114203476Y-79167476D01*
X114251095Y-79262714D01*
G04 #@! TO.C,C1*
X107735642Y-62841166D02*
X107783261Y-62888785D01*
X107830880Y-63031642D01*
X107830880Y-63126880D01*
X107783261Y-63269738D01*
X107688023Y-63364976D01*
X107592785Y-63412595D01*
X107402309Y-63460214D01*
X107259452Y-63460214D01*
X107068976Y-63412595D01*
X106973738Y-63364976D01*
X106878500Y-63269738D01*
X106830880Y-63126880D01*
X106830880Y-63031642D01*
X106878500Y-62888785D01*
X106926119Y-62841166D01*
X107830880Y-61888785D02*
X107830880Y-62460214D01*
X107830880Y-62174500D02*
X106830880Y-62174500D01*
X106973738Y-62269738D01*
X107068976Y-62364976D01*
X107116595Y-62460214D01*
G04 #@! TO.C,D1*
X100988904Y-69413380D02*
X100988904Y-68413380D01*
X101227000Y-68413380D01*
X101369857Y-68461000D01*
X101465095Y-68556238D01*
X101512714Y-68651476D01*
X101560333Y-68841952D01*
X101560333Y-68984809D01*
X101512714Y-69175285D01*
X101465095Y-69270523D01*
X101369857Y-69365761D01*
X101227000Y-69413380D01*
X100988904Y-69413380D01*
X102512714Y-69413380D02*
X101941285Y-69413380D01*
X102227000Y-69413380D02*
X102227000Y-68413380D01*
X102131761Y-68556238D01*
X102036523Y-68651476D01*
X101941285Y-68699095D01*
G04 #@! TO.C,D2*
X107767380Y-60428095D02*
X106767380Y-60428095D01*
X106767380Y-60190000D01*
X106815000Y-60047142D01*
X106910238Y-59951904D01*
X107005476Y-59904285D01*
X107195952Y-59856666D01*
X107338809Y-59856666D01*
X107529285Y-59904285D01*
X107624523Y-59951904D01*
X107719761Y-60047142D01*
X107767380Y-60190000D01*
X107767380Y-60428095D01*
X106862619Y-59475714D02*
X106815000Y-59428095D01*
X106767380Y-59332857D01*
X106767380Y-59094761D01*
X106815000Y-58999523D01*
X106862619Y-58951904D01*
X106957857Y-58904285D01*
X107053095Y-58904285D01*
X107195952Y-58951904D01*
X107767380Y-59523333D01*
X107767380Y-58904285D01*
G04 #@! TO.C,D3*
X107118904Y-69552880D02*
X107118904Y-68552880D01*
X107357000Y-68552880D01*
X107499857Y-68600500D01*
X107595095Y-68695738D01*
X107642714Y-68790976D01*
X107690333Y-68981452D01*
X107690333Y-69124309D01*
X107642714Y-69314785D01*
X107595095Y-69410023D01*
X107499857Y-69505261D01*
X107357000Y-69552880D01*
X107118904Y-69552880D01*
X108023666Y-68552880D02*
X108642714Y-68552880D01*
X108309380Y-68933833D01*
X108452238Y-68933833D01*
X108547476Y-68981452D01*
X108595095Y-69029071D01*
X108642714Y-69124309D01*
X108642714Y-69362404D01*
X108595095Y-69457642D01*
X108547476Y-69505261D01*
X108452238Y-69552880D01*
X108166523Y-69552880D01*
X108071285Y-69505261D01*
X108023666Y-69457642D01*
G04 #@! TO.C,D4*
X104020880Y-78843095D02*
X103020880Y-78843095D01*
X103020880Y-78605000D01*
X103068500Y-78462142D01*
X103163738Y-78366904D01*
X103258976Y-78319285D01*
X103449452Y-78271666D01*
X103592309Y-78271666D01*
X103782785Y-78319285D01*
X103878023Y-78366904D01*
X103973261Y-78462142D01*
X104020880Y-78605000D01*
X104020880Y-78843095D01*
X103354214Y-77414523D02*
X104020880Y-77414523D01*
X102973261Y-77652619D02*
X103687547Y-77890714D01*
X103687547Y-77271666D01*
G04 #@! TO.C,F1*
X103372666Y-64417071D02*
X103039333Y-64417071D01*
X103039333Y-64940880D02*
X103039333Y-63940880D01*
X103515523Y-63940880D01*
X104420285Y-64940880D02*
X103848857Y-64940880D01*
X104134571Y-64940880D02*
X104134571Y-63940880D01*
X104039333Y-64083738D01*
X103944095Y-64178976D01*
X103848857Y-64226595D01*
G04 #@! TO.C,J1*
X96821666Y-81367380D02*
X96821666Y-82081666D01*
X96774047Y-82224523D01*
X96678809Y-82319761D01*
X96535952Y-82367380D01*
X96440714Y-82367380D01*
X97821666Y-82367380D02*
X97250238Y-82367380D01*
X97535952Y-82367380D02*
X97535952Y-81367380D01*
X97440714Y-81510238D01*
X97345476Y-81605476D01*
X97250238Y-81653095D01*
X100393476Y-90209714D02*
X100393476Y-90876380D01*
X100155380Y-89828761D02*
X99917285Y-90543047D01*
X100536333Y-90543047D01*
X95789714Y-80716380D02*
X95218285Y-80716380D01*
X95504000Y-80716380D02*
X95504000Y-79716380D01*
X95408761Y-79859238D01*
X95313523Y-79954476D01*
X95218285Y-80002095D01*
G04 #@! TO.C,Q1*
X101631761Y-97361619D02*
X101536523Y-97314000D01*
X101441285Y-97218761D01*
X101298428Y-97075904D01*
X101203190Y-97028285D01*
X101107952Y-97028285D01*
X101155571Y-97266380D02*
X101060333Y-97218761D01*
X100965095Y-97123523D01*
X100917476Y-96933047D01*
X100917476Y-96599714D01*
X100965095Y-96409238D01*
X101060333Y-96314000D01*
X101155571Y-96266380D01*
X101346047Y-96266380D01*
X101441285Y-96314000D01*
X101536523Y-96409238D01*
X101584142Y-96599714D01*
X101584142Y-96933047D01*
X101536523Y-97123523D01*
X101441285Y-97218761D01*
X101346047Y-97266380D01*
X101155571Y-97266380D01*
X102536523Y-97266380D02*
X101965095Y-97266380D01*
X102250809Y-97266380D02*
X102250809Y-96266380D01*
X102155571Y-96409238D01*
X102060333Y-96504476D01*
X101965095Y-96552095D01*
G04 #@! TO.C,Q2*
X96932761Y-101917119D02*
X96837523Y-101869500D01*
X96742285Y-101774261D01*
X96599428Y-101631404D01*
X96504190Y-101583785D01*
X96408952Y-101583785D01*
X96456571Y-101821880D02*
X96361333Y-101774261D01*
X96266095Y-101679023D01*
X96218476Y-101488547D01*
X96218476Y-101155214D01*
X96266095Y-100964738D01*
X96361333Y-100869500D01*
X96456571Y-100821880D01*
X96647047Y-100821880D01*
X96742285Y-100869500D01*
X96837523Y-100964738D01*
X96885142Y-101155214D01*
X96885142Y-101488547D01*
X96837523Y-101679023D01*
X96742285Y-101774261D01*
X96647047Y-101821880D01*
X96456571Y-101821880D01*
X97266095Y-100917119D02*
X97313714Y-100869500D01*
X97408952Y-100821880D01*
X97647047Y-100821880D01*
X97742285Y-100869500D01*
X97789904Y-100917119D01*
X97837523Y-101012357D01*
X97837523Y-101107595D01*
X97789904Y-101250452D01*
X97218476Y-101821880D01*
X97837523Y-101821880D01*
G04 #@! TO.C,R1*
X102115880Y-62076666D02*
X101639690Y-62410000D01*
X102115880Y-62648095D02*
X101115880Y-62648095D01*
X101115880Y-62267142D01*
X101163500Y-62171904D01*
X101211119Y-62124285D01*
X101306357Y-62076666D01*
X101449214Y-62076666D01*
X101544452Y-62124285D01*
X101592071Y-62171904D01*
X101639690Y-62267142D01*
X101639690Y-62648095D01*
X102115880Y-61124285D02*
X102115880Y-61695714D01*
X102115880Y-61410000D02*
X101115880Y-61410000D01*
X101258738Y-61505238D01*
X101353976Y-61600476D01*
X101401595Y-61695714D01*
G04 #@! TO.C,R2*
X106304380Y-65317666D02*
X105828190Y-65651000D01*
X106304380Y-65889095D02*
X105304380Y-65889095D01*
X105304380Y-65508142D01*
X105352000Y-65412904D01*
X105399619Y-65365285D01*
X105494857Y-65317666D01*
X105637714Y-65317666D01*
X105732952Y-65365285D01*
X105780571Y-65412904D01*
X105828190Y-65508142D01*
X105828190Y-65889095D01*
X105399619Y-64936714D02*
X105352000Y-64889095D01*
X105304380Y-64793857D01*
X105304380Y-64555761D01*
X105352000Y-64460523D01*
X105399619Y-64412904D01*
X105494857Y-64365285D01*
X105590095Y-64365285D01*
X105732952Y-64412904D01*
X106304380Y-64984333D01*
X106304380Y-64365285D01*
G04 #@! TO.C,R3*
X108735833Y-61094880D02*
X108402500Y-60618690D01*
X108164404Y-61094880D02*
X108164404Y-60094880D01*
X108545357Y-60094880D01*
X108640595Y-60142500D01*
X108688214Y-60190119D01*
X108735833Y-60285357D01*
X108735833Y-60428214D01*
X108688214Y-60523452D01*
X108640595Y-60571071D01*
X108545357Y-60618690D01*
X108164404Y-60618690D01*
X109069166Y-60094880D02*
X109688214Y-60094880D01*
X109354880Y-60475833D01*
X109497738Y-60475833D01*
X109592976Y-60523452D01*
X109640595Y-60571071D01*
X109688214Y-60666309D01*
X109688214Y-60904404D01*
X109640595Y-60999642D01*
X109592976Y-61047261D01*
X109497738Y-61094880D01*
X109212023Y-61094880D01*
X109116785Y-61047261D01*
X109069166Y-60999642D01*
G04 #@! TO.C,R4*
X112782880Y-66968666D02*
X112306690Y-67302000D01*
X112782880Y-67540095D02*
X111782880Y-67540095D01*
X111782880Y-67159142D01*
X111830500Y-67063904D01*
X111878119Y-67016285D01*
X111973357Y-66968666D01*
X112116214Y-66968666D01*
X112211452Y-67016285D01*
X112259071Y-67063904D01*
X112306690Y-67159142D01*
X112306690Y-67540095D01*
X112116214Y-66111523D02*
X112782880Y-66111523D01*
X111735261Y-66349619D02*
X112449547Y-66587714D01*
X112449547Y-65968666D01*
G04 #@! TO.C,R5*
X118562380Y-68048166D02*
X118086190Y-68381500D01*
X118562380Y-68619595D02*
X117562380Y-68619595D01*
X117562380Y-68238642D01*
X117610000Y-68143404D01*
X117657619Y-68095785D01*
X117752857Y-68048166D01*
X117895714Y-68048166D01*
X117990952Y-68095785D01*
X118038571Y-68143404D01*
X118086190Y-68238642D01*
X118086190Y-68619595D01*
X117562380Y-67143404D02*
X117562380Y-67619595D01*
X118038571Y-67667214D01*
X117990952Y-67619595D01*
X117943333Y-67524357D01*
X117943333Y-67286261D01*
X117990952Y-67191023D01*
X118038571Y-67143404D01*
X118133809Y-67095785D01*
X118371904Y-67095785D01*
X118467142Y-67143404D01*
X118514761Y-67191023D01*
X118562380Y-67286261D01*
X118562380Y-67524357D01*
X118514761Y-67619595D01*
X118467142Y-67667214D01*
G04 #@! TO.C,R6*
X118117880Y-99861666D02*
X117641690Y-100195000D01*
X118117880Y-100433095D02*
X117117880Y-100433095D01*
X117117880Y-100052142D01*
X117165500Y-99956904D01*
X117213119Y-99909285D01*
X117308357Y-99861666D01*
X117451214Y-99861666D01*
X117546452Y-99909285D01*
X117594071Y-99956904D01*
X117641690Y-100052142D01*
X117641690Y-100433095D01*
X117117880Y-99004523D02*
X117117880Y-99195000D01*
X117165500Y-99290238D01*
X117213119Y-99337857D01*
X117355976Y-99433095D01*
X117546452Y-99480714D01*
X117927404Y-99480714D01*
X118022642Y-99433095D01*
X118070261Y-99385476D01*
X118117880Y-99290238D01*
X118117880Y-99099761D01*
X118070261Y-99004523D01*
X118022642Y-98956904D01*
X117927404Y-98909285D01*
X117689309Y-98909285D01*
X117594071Y-98956904D01*
X117546452Y-99004523D01*
X117498833Y-99099761D01*
X117498833Y-99290238D01*
X117546452Y-99385476D01*
X117594071Y-99433095D01*
X117689309Y-99480714D01*
G04 #@! TO.C,R7*
X118310880Y-94527666D02*
X117834690Y-94861000D01*
X118310880Y-95099095D02*
X117310880Y-95099095D01*
X117310880Y-94718142D01*
X117358500Y-94622904D01*
X117406119Y-94575285D01*
X117501357Y-94527666D01*
X117644214Y-94527666D01*
X117739452Y-94575285D01*
X117787071Y-94622904D01*
X117834690Y-94718142D01*
X117834690Y-95099095D01*
X117310880Y-94194333D02*
X117310880Y-93527666D01*
X118310880Y-93956238D01*
G04 #@! TO.C,R8*
X114514333Y-70175380D02*
X114181000Y-69699190D01*
X113942904Y-70175380D02*
X113942904Y-69175380D01*
X114323857Y-69175380D01*
X114419095Y-69223000D01*
X114466714Y-69270619D01*
X114514333Y-69365857D01*
X114514333Y-69508714D01*
X114466714Y-69603952D01*
X114419095Y-69651571D01*
X114323857Y-69699190D01*
X113942904Y-69699190D01*
X115085761Y-69603952D02*
X114990523Y-69556333D01*
X114942904Y-69508714D01*
X114895285Y-69413476D01*
X114895285Y-69365857D01*
X114942904Y-69270619D01*
X114990523Y-69223000D01*
X115085761Y-69175380D01*
X115276238Y-69175380D01*
X115371476Y-69223000D01*
X115419095Y-69270619D01*
X115466714Y-69365857D01*
X115466714Y-69413476D01*
X115419095Y-69508714D01*
X115371476Y-69556333D01*
X115276238Y-69603952D01*
X115085761Y-69603952D01*
X114990523Y-69651571D01*
X114942904Y-69699190D01*
X114895285Y-69794428D01*
X114895285Y-69984904D01*
X114942904Y-70080142D01*
X114990523Y-70127761D01*
X115085761Y-70175380D01*
X115276238Y-70175380D01*
X115371476Y-70127761D01*
X115419095Y-70080142D01*
X115466714Y-69984904D01*
X115466714Y-69794428D01*
X115419095Y-69699190D01*
X115371476Y-69651571D01*
X115276238Y-69603952D01*
G04 #@! TO.C,R9*
X111656833Y-89606380D02*
X111323500Y-89130190D01*
X111085404Y-89606380D02*
X111085404Y-88606380D01*
X111466357Y-88606380D01*
X111561595Y-88654000D01*
X111609214Y-88701619D01*
X111656833Y-88796857D01*
X111656833Y-88939714D01*
X111609214Y-89034952D01*
X111561595Y-89082571D01*
X111466357Y-89130190D01*
X111085404Y-89130190D01*
X112133023Y-89606380D02*
X112323500Y-89606380D01*
X112418738Y-89558761D01*
X112466357Y-89511142D01*
X112561595Y-89368285D01*
X112609214Y-89177809D01*
X112609214Y-88796857D01*
X112561595Y-88701619D01*
X112513976Y-88654000D01*
X112418738Y-88606380D01*
X112228261Y-88606380D01*
X112133023Y-88654000D01*
X112085404Y-88701619D01*
X112037785Y-88796857D01*
X112037785Y-89034952D01*
X112085404Y-89130190D01*
X112133023Y-89177809D01*
X112228261Y-89225428D01*
X112418738Y-89225428D01*
X112513976Y-89177809D01*
X112561595Y-89130190D01*
X112609214Y-89034952D01*
G04 #@! TO.C,R10*
X114879380Y-72207357D02*
X114403190Y-72540690D01*
X114879380Y-72778785D02*
X113879380Y-72778785D01*
X113879380Y-72397833D01*
X113927000Y-72302595D01*
X113974619Y-72254976D01*
X114069857Y-72207357D01*
X114212714Y-72207357D01*
X114307952Y-72254976D01*
X114355571Y-72302595D01*
X114403190Y-72397833D01*
X114403190Y-72778785D01*
X114879380Y-71254976D02*
X114879380Y-71826404D01*
X114879380Y-71540690D02*
X113879380Y-71540690D01*
X114022238Y-71635928D01*
X114117476Y-71731166D01*
X114165095Y-71826404D01*
X113879380Y-70635928D02*
X113879380Y-70540690D01*
X113927000Y-70445452D01*
X113974619Y-70397833D01*
X114069857Y-70350214D01*
X114260333Y-70302595D01*
X114498428Y-70302595D01*
X114688904Y-70350214D01*
X114784142Y-70397833D01*
X114831761Y-70445452D01*
X114879380Y-70540690D01*
X114879380Y-70635928D01*
X114831761Y-70731166D01*
X114784142Y-70778785D01*
X114688904Y-70826404D01*
X114498428Y-70874023D01*
X114260333Y-70874023D01*
X114069857Y-70826404D01*
X113974619Y-70778785D01*
X113927000Y-70731166D01*
X113879380Y-70635928D01*
G04 #@! TO.C,R11*
X103893880Y-73032857D02*
X103417690Y-73366190D01*
X103893880Y-73604285D02*
X102893880Y-73604285D01*
X102893880Y-73223333D01*
X102941500Y-73128095D01*
X102989119Y-73080476D01*
X103084357Y-73032857D01*
X103227214Y-73032857D01*
X103322452Y-73080476D01*
X103370071Y-73128095D01*
X103417690Y-73223333D01*
X103417690Y-73604285D01*
X103893880Y-72080476D02*
X103893880Y-72651904D01*
X103893880Y-72366190D02*
X102893880Y-72366190D01*
X103036738Y-72461428D01*
X103131976Y-72556666D01*
X103179595Y-72651904D01*
X103893880Y-71128095D02*
X103893880Y-71699523D01*
X103893880Y-71413809D02*
X102893880Y-71413809D01*
X103036738Y-71509047D01*
X103131976Y-71604285D01*
X103179595Y-71699523D01*
G04 #@! TO.C,R12*
X104020880Y-76144357D02*
X103544690Y-76477690D01*
X104020880Y-76715785D02*
X103020880Y-76715785D01*
X103020880Y-76334833D01*
X103068500Y-76239595D01*
X103116119Y-76191976D01*
X103211357Y-76144357D01*
X103354214Y-76144357D01*
X103449452Y-76191976D01*
X103497071Y-76239595D01*
X103544690Y-76334833D01*
X103544690Y-76715785D01*
X104020880Y-75191976D02*
X104020880Y-75763404D01*
X104020880Y-75477690D02*
X103020880Y-75477690D01*
X103163738Y-75572928D01*
X103258976Y-75668166D01*
X103306595Y-75763404D01*
X103116119Y-74811023D02*
X103068500Y-74763404D01*
X103020880Y-74668166D01*
X103020880Y-74430071D01*
X103068500Y-74334833D01*
X103116119Y-74287214D01*
X103211357Y-74239595D01*
X103306595Y-74239595D01*
X103449452Y-74287214D01*
X104020880Y-74858642D01*
X104020880Y-74239595D01*
G04 #@! TO.C,R13*
X118313380Y-97734357D02*
X117837190Y-98067690D01*
X118313380Y-98305785D02*
X117313380Y-98305785D01*
X117313380Y-97924833D01*
X117361000Y-97829595D01*
X117408619Y-97781976D01*
X117503857Y-97734357D01*
X117646714Y-97734357D01*
X117741952Y-97781976D01*
X117789571Y-97829595D01*
X117837190Y-97924833D01*
X117837190Y-98305785D01*
X118313380Y-96781976D02*
X118313380Y-97353404D01*
X118313380Y-97067690D02*
X117313380Y-97067690D01*
X117456238Y-97162928D01*
X117551476Y-97258166D01*
X117599095Y-97353404D01*
X117313380Y-96448642D02*
X117313380Y-95829595D01*
X117694333Y-96162928D01*
X117694333Y-96020071D01*
X117741952Y-95924833D01*
X117789571Y-95877214D01*
X117884809Y-95829595D01*
X118122904Y-95829595D01*
X118218142Y-95877214D01*
X118265761Y-95924833D01*
X118313380Y-96020071D01*
X118313380Y-96305785D01*
X118265761Y-96401023D01*
X118218142Y-96448642D01*
G04 #@! TO.C,U1*
X102322380Y-95376904D02*
X103131904Y-95376904D01*
X103227142Y-95329285D01*
X103274761Y-95281666D01*
X103322380Y-95186428D01*
X103322380Y-94995952D01*
X103274761Y-94900714D01*
X103227142Y-94853095D01*
X103131904Y-94805476D01*
X102322380Y-94805476D01*
X103322380Y-93805476D02*
X103322380Y-94376904D01*
X103322380Y-94091190D02*
X102322380Y-94091190D01*
X102465238Y-94186428D01*
X102560476Y-94281666D01*
X102608095Y-94376904D01*
G04 #@! TO.C,U2*
X112169880Y-91271904D02*
X112979404Y-91271904D01*
X113074642Y-91224285D01*
X113122261Y-91176666D01*
X113169880Y-91081428D01*
X113169880Y-90890952D01*
X113122261Y-90795714D01*
X113074642Y-90748095D01*
X112979404Y-90700476D01*
X112169880Y-90700476D01*
X112265119Y-90271904D02*
X112217500Y-90224285D01*
X112169880Y-90129047D01*
X112169880Y-89890952D01*
X112217500Y-89795714D01*
X112265119Y-89748095D01*
X112360357Y-89700476D01*
X112455595Y-89700476D01*
X112598452Y-89748095D01*
X113169880Y-90319523D01*
X113169880Y-89700476D01*
G04 #@! TO.C,U3*
X112566880Y-77914404D02*
X113376404Y-77914404D01*
X113471642Y-77866785D01*
X113519261Y-77819166D01*
X113566880Y-77723928D01*
X113566880Y-77533452D01*
X113519261Y-77438214D01*
X113471642Y-77390595D01*
X113376404Y-77342976D01*
X112566880Y-77342976D01*
X112566880Y-76962023D02*
X112566880Y-76342976D01*
X112947833Y-76676309D01*
X112947833Y-76533452D01*
X112995452Y-76438214D01*
X113043071Y-76390595D01*
X113138309Y-76342976D01*
X113376404Y-76342976D01*
X113471642Y-76390595D01*
X113519261Y-76438214D01*
X113566880Y-76533452D01*
X113566880Y-76819166D01*
X113519261Y-76914404D01*
X113471642Y-76962023D01*
G04 #@! TO.C,U4*
X118149619Y-82423095D02*
X117340095Y-82423095D01*
X117244857Y-82470714D01*
X117197238Y-82518333D01*
X117149619Y-82613571D01*
X117149619Y-82804047D01*
X117197238Y-82899285D01*
X117244857Y-82946904D01*
X117340095Y-82994523D01*
X118149619Y-82994523D01*
X117816285Y-83899285D02*
X117149619Y-83899285D01*
X118197238Y-83661190D02*
X117482952Y-83423095D01*
X117482952Y-84042142D01*
G04 #@! TO.C,J2*
X98091666Y-93440380D02*
X98091666Y-94154666D01*
X98044047Y-94297523D01*
X97948809Y-94392761D01*
X97805952Y-94440380D01*
X97710714Y-94440380D01*
X98520238Y-93535619D02*
X98567857Y-93488000D01*
X98663095Y-93440380D01*
X98901190Y-93440380D01*
X98996428Y-93488000D01*
X99044047Y-93535619D01*
X99091666Y-93630857D01*
X99091666Y-93726095D01*
X99044047Y-93868952D01*
X98472619Y-94440380D01*
X99091666Y-94440380D01*
G04 #@! TD*
M02*
