G04 #@! TF.GenerationSoftware,KiCad,Pcbnew,5.0.0-fee4fd1~66~ubuntu18.04.1*
G04 #@! TF.CreationDate,2019-04-08T23:07:45-04:00*
G04 #@! TF.ProjectId,IMD_v1,494D445F76312E6B696361645F706362,rev?*
G04 #@! TF.SameCoordinates,Original*
G04 #@! TF.FileFunction,Copper,L2,Bot,Signal*
G04 #@! TF.FilePolarity,Positive*
%FSLAX46Y46*%
G04 Gerber Fmt 4.6, Leading zero omitted, Abs format (unit mm)*
G04 Created by KiCad (PCBNEW 5.0.0-fee4fd1~66~ubuntu18.04.1) date Mon Apr  8 23:07:45 2019*
%MOMM*%
%LPD*%
G01*
G04 APERTURE LIST*
G04 #@! TA.AperFunction,ComponentPad*
%ADD10C,1.800000*%
G04 #@! TD*
G04 #@! TA.AperFunction,ComponentPad*
%ADD11C,1.300000*%
G04 #@! TD*
G04 #@! TA.AperFunction,ComponentPad*
%ADD12C,1.397000*%
G04 #@! TD*
G04 #@! TA.AperFunction,ComponentPad*
%ADD13C,1.981000*%
G04 #@! TD*
G04 #@! TA.AperFunction,ViaPad*
%ADD14C,0.800000*%
G04 #@! TD*
G04 #@! TA.AperFunction,ViaPad*
%ADD15C,0.609600*%
G04 #@! TD*
G04 #@! TA.AperFunction,Conductor*
%ADD16C,0.250000*%
G04 #@! TD*
G04 #@! TA.AperFunction,Conductor*
%ADD17C,0.152400*%
G04 #@! TD*
G04 #@! TA.AperFunction,Conductor*
%ADD18C,0.254000*%
G04 #@! TD*
G04 APERTURE END LIST*
D10*
G04 #@! TO.P,K1,1*
G04 #@! TO.N,Net-(D3-Pad2)*
X104013000Y-69977000D03*
G04 #@! TO.P,K1,2*
G04 #@! TO.N,Net-(J2-Pad2)*
X104013000Y-80137000D03*
G04 #@! TO.P,K1,3*
G04 #@! TO.N,Net-(J2-Pad1)*
X104013000Y-87757000D03*
G04 #@! TO.P,K1,5*
G04 #@! TO.N,/12V_Fused*
X111633000Y-69977000D03*
G04 #@! TD*
D11*
G04 #@! TO.P,J1,3*
G04 #@! TO.N,/IMD_Status_Output*
X95504000Y-86614000D03*
G04 #@! TO.P,J1,1*
G04 #@! TO.N,GND*
X95504000Y-84074000D03*
G04 #@! TO.P,J1,2*
G04 #@! TO.N,+12V*
X98044000Y-85344000D03*
G04 #@! TO.P,J1,4*
G04 #@! TO.N,GND*
X98044000Y-87884000D03*
G04 #@! TD*
D12*
G04 #@! TO.P,J2,2*
G04 #@! TO.N,Net-(J2-Pad2)*
X96520000Y-94488000D03*
G04 #@! TO.P,J2,1*
G04 #@! TO.N,Net-(J2-Pad1)*
X100020000Y-94488000D03*
D13*
G04 #@! TO.P,J2,*
G04 #@! TO.N,*
X98270000Y-92258000D03*
G04 #@! TD*
D12*
G04 #@! TO.P,U1,2*
G04 #@! TO.N,GND*
X106934000Y-95405000D03*
G04 #@! TO.P,U1,1*
G04 #@! TO.N,Net-(R9-Pad1)*
X106934000Y-91905000D03*
D13*
G04 #@! TO.P,U1,*
G04 #@! TO.N,*
X104704000Y-93655000D03*
D12*
G04 #@! TO.P,U1,3*
G04 #@! TO.N,/12V_Fused*
X106934000Y-98905000D03*
G04 #@! TO.P,U1,4*
G04 #@! TO.N,GND*
X106934000Y-102405000D03*
G04 #@! TO.P,U1,5*
X106934000Y-105905000D03*
G04 #@! TD*
D14*
G04 #@! TO.N,/12V_Fused*
X103632000Y-64643000D03*
X114263000Y-69977000D03*
X100229500Y-73695986D03*
X103886000Y-66865500D03*
X107569000Y-68580000D03*
X112903000Y-90551000D03*
X112903000Y-93599000D03*
G04 #@! TO.N,GND*
X99172287Y-98843408D03*
X102616000Y-102108000D03*
X117475000Y-94488000D03*
X115149500Y-72467000D03*
X111948346Y-68010654D03*
X106934000Y-61214000D03*
X116874161Y-88161977D03*
X97032000Y-71882000D03*
G04 #@! TO.N,+12V*
X97042407Y-70867102D03*
X94742000Y-80518000D03*
G04 #@! TO.N,Net-(D3-Pad2)*
X102616000Y-90678000D03*
X102616000Y-92964000D03*
D15*
G04 #@! TO.N,Net-(D4-Pad1)*
X100584000Y-88563592D03*
X96266000Y-90297000D03*
D14*
G04 #@! TO.N,/IMD_Status_Output*
X99314000Y-97853500D03*
X104738000Y-71311452D03*
X110908000Y-75311000D03*
X113130653Y-77323234D03*
X103124000Y-71871000D03*
X102325000Y-84455000D03*
X100330000Y-84582000D03*
D15*
G04 #@! TO.N,/12V_Fused*
X110871000Y-82042000D03*
X112141000Y-82042000D03*
G04 #@! TO.N,Net-(R3-Pad2)*
X113538000Y-74321000D03*
X117094000Y-75057000D03*
G04 #@! TO.N,Net-(R9-Pad1)*
X113485200Y-92075000D03*
X117983000Y-92329000D03*
D14*
G04 #@! TO.N,/delay_side_out*
X113665000Y-78168500D03*
X114173000Y-87757000D03*
X111511815Y-79756000D03*
X112134826Y-87376000D03*
G04 #@! TD*
D16*
G04 #@! TO.N,/12V_Fused*
X114173000Y-69977000D02*
X114263000Y-69977000D01*
X111633000Y-69977000D02*
X114263000Y-69977000D01*
X100229500Y-73695986D02*
X100229500Y-69956315D01*
X100229500Y-69956315D02*
X103320315Y-66865500D01*
X103320315Y-66865500D02*
X103886000Y-66865500D01*
X103632000Y-64643000D02*
X107569000Y-68580000D01*
X112903000Y-90551000D02*
X112903000Y-93599000D01*
G04 #@! TO.N,GND*
X117475000Y-94488000D02*
X116078000Y-94488000D01*
X114681000Y-93091000D02*
X114624097Y-93034097D01*
X116078000Y-94488000D02*
X114624097Y-93034097D01*
X113919000Y-76708000D02*
X114484685Y-76708000D01*
G04 #@! TO.N,+12V*
X96476722Y-70867102D02*
X96475620Y-70866000D01*
X94742000Y-80518000D02*
X94742000Y-79952315D01*
X96476722Y-70867102D02*
X97042407Y-70867102D01*
X94742000Y-72601824D02*
X96476722Y-70867102D01*
X94742000Y-79952315D02*
X94742000Y-72601824D01*
G04 #@! TO.N,Net-(D3-Pad2)*
X102616000Y-90678000D02*
X102616000Y-92964000D01*
G04 #@! TO.N,Net-(D4-Pad1)*
X98850592Y-90297000D02*
X96266000Y-90297000D01*
X100584000Y-88563592D02*
X98850592Y-90297000D01*
G04 #@! TO.N,/IMD_Status_Output*
X94854001Y-97140001D02*
X94854001Y-87263999D01*
X94854001Y-87263999D02*
X95504000Y-86614000D01*
X95567500Y-97853500D02*
X94854001Y-97140001D01*
X99314000Y-97853500D02*
X95567500Y-97853500D01*
X104648000Y-71202001D02*
X104648000Y-71221452D01*
X104648000Y-71221452D02*
X104738000Y-71311452D01*
X110908000Y-75311000D02*
X113040499Y-77443499D01*
X113250918Y-77443499D02*
X113130653Y-77323234D01*
X113284000Y-77443499D02*
X113250918Y-77443499D01*
X113040499Y-77443499D02*
X113284000Y-77443499D01*
X103683548Y-71311452D02*
X103124000Y-71871000D01*
X104738000Y-71311452D02*
X103683548Y-71311452D01*
X101759315Y-84455000D02*
X101632315Y-84582000D01*
X102325000Y-84455000D02*
X101759315Y-84455000D01*
X101632315Y-84582000D02*
X100330000Y-84582000D01*
G04 #@! TO.N,/12V_Fused*
X110871000Y-82042000D02*
X112141000Y-82042000D01*
G04 #@! TO.N,Net-(R3-Pad2)*
X113969052Y-74321000D02*
X114959052Y-75311000D01*
X113538000Y-74321000D02*
X113969052Y-74321000D01*
X114959052Y-75311000D02*
X116713000Y-75311000D01*
X116713000Y-75311000D02*
X116967000Y-75311000D01*
D17*
X116967000Y-75311000D02*
X117094000Y-75184000D01*
X117094000Y-75184000D02*
X117094000Y-75057000D01*
D16*
G04 #@! TO.N,Net-(R9-Pad1)*
X113789999Y-92379799D02*
X117932201Y-92379799D01*
X113485200Y-92075000D02*
X113789999Y-92379799D01*
D17*
X117932201Y-92379799D02*
X117983000Y-92329000D01*
D16*
G04 #@! TO.N,/delay_side_out*
X113099315Y-78168500D02*
X111511815Y-79756000D01*
X113665000Y-78168500D02*
X113099315Y-78168500D01*
X113792000Y-87376000D02*
X114173000Y-87757000D01*
X112134826Y-87376000D02*
X113792000Y-87376000D01*
G04 #@! TD*
D18*
G04 #@! TO.N,GND*
G36*
X115590756Y-59543391D02*
X116219730Y-59740500D01*
X116796224Y-60060055D01*
X117296682Y-60489001D01*
X117700669Y-61009818D01*
X117991682Y-61601233D01*
X118160112Y-62247848D01*
X118200000Y-62766238D01*
X118200001Y-91401652D01*
X118169938Y-91389200D01*
X117796062Y-91389200D01*
X117450646Y-91532276D01*
X117363123Y-91619799D01*
X114313882Y-91619799D01*
X114281924Y-91542646D01*
X114017554Y-91278276D01*
X113750183Y-91167528D01*
X113780431Y-91137280D01*
X113938000Y-90756874D01*
X113938000Y-90345126D01*
X113780431Y-89964720D01*
X113489280Y-89673569D01*
X113108874Y-89516000D01*
X112697126Y-89516000D01*
X112316720Y-89673569D01*
X112025569Y-89964720D01*
X111868000Y-90345126D01*
X111868000Y-90756874D01*
X112025569Y-91137280D01*
X112143000Y-91254711D01*
X112143001Y-92895288D01*
X112025569Y-93012720D01*
X111868000Y-93393126D01*
X111868000Y-93804874D01*
X112025569Y-94185280D01*
X112316720Y-94476431D01*
X112697126Y-94634000D01*
X113108874Y-94634000D01*
X113489280Y-94476431D01*
X113780431Y-94185280D01*
X113938000Y-93804874D01*
X113938000Y-93393126D01*
X113835488Y-93145639D01*
X113864846Y-93139799D01*
X117484626Y-93139799D01*
X117796062Y-93268800D01*
X118169938Y-93268800D01*
X118200001Y-93256348D01*
X118200001Y-104700759D01*
X118129609Y-105393759D01*
X117932499Y-106022734D01*
X117612945Y-106599224D01*
X117184002Y-107099680D01*
X116663182Y-107503669D01*
X116071767Y-107794682D01*
X115425153Y-107963112D01*
X114906762Y-108003000D01*
X97972231Y-108003000D01*
X97279241Y-107932609D01*
X96650266Y-107735499D01*
X96073776Y-107415945D01*
X95573320Y-106987002D01*
X95169331Y-106466182D01*
X94878318Y-105874767D01*
X94709888Y-105228153D01*
X94672173Y-104738000D01*
X95548050Y-104738000D01*
X95664876Y-105475608D01*
X96003917Y-106141014D01*
X96531986Y-106669083D01*
X97197392Y-107008124D01*
X97935000Y-107124950D01*
X98672608Y-107008124D01*
X99004163Y-106839188D01*
X106179417Y-106839188D01*
X106241071Y-107074800D01*
X106741480Y-107250927D01*
X107271199Y-107222148D01*
X107626929Y-107074800D01*
X107688583Y-106839188D01*
X106934000Y-106084605D01*
X106179417Y-106839188D01*
X99004163Y-106839188D01*
X99338014Y-106669083D01*
X99866083Y-106141014D01*
X100084431Y-105712480D01*
X105588073Y-105712480D01*
X105616852Y-106242199D01*
X105764200Y-106597929D01*
X105999812Y-106659583D01*
X106754395Y-105905000D01*
X107113605Y-105905000D01*
X107868188Y-106659583D01*
X108103800Y-106597929D01*
X108279927Y-106097520D01*
X108251148Y-105567801D01*
X108103800Y-105212071D01*
X107868188Y-105150417D01*
X107113605Y-105905000D01*
X106754395Y-105905000D01*
X105999812Y-105150417D01*
X105764200Y-105212071D01*
X105588073Y-105712480D01*
X100084431Y-105712480D01*
X100205124Y-105475608D01*
X100285076Y-104970812D01*
X106179417Y-104970812D01*
X106934000Y-105725395D01*
X107688583Y-104970812D01*
X107627662Y-104738000D01*
X112548050Y-104738000D01*
X112664876Y-105475608D01*
X113003917Y-106141014D01*
X113531986Y-106669083D01*
X114197392Y-107008124D01*
X114935000Y-107124950D01*
X115672608Y-107008124D01*
X116338014Y-106669083D01*
X116866083Y-106141014D01*
X117205124Y-105475608D01*
X117321950Y-104738000D01*
X117205124Y-104000392D01*
X116866083Y-103334986D01*
X116338014Y-102806917D01*
X115672608Y-102467876D01*
X114935000Y-102351050D01*
X114197392Y-102467876D01*
X113531986Y-102806917D01*
X113003917Y-103334986D01*
X112664876Y-104000392D01*
X112548050Y-104738000D01*
X107627662Y-104738000D01*
X107626929Y-104735200D01*
X107126520Y-104559073D01*
X106596801Y-104587852D01*
X106241071Y-104735200D01*
X106179417Y-104970812D01*
X100285076Y-104970812D01*
X100321950Y-104738000D01*
X100205124Y-104000392D01*
X99868225Y-103339188D01*
X106179417Y-103339188D01*
X106241071Y-103574800D01*
X106741480Y-103750927D01*
X107271199Y-103722148D01*
X107626929Y-103574800D01*
X107688583Y-103339188D01*
X106934000Y-102584605D01*
X106179417Y-103339188D01*
X99868225Y-103339188D01*
X99866083Y-103334986D01*
X99338014Y-102806917D01*
X98672608Y-102467876D01*
X97935000Y-102351050D01*
X97197392Y-102467876D01*
X96531986Y-102806917D01*
X96003917Y-103334986D01*
X95664876Y-104000392D01*
X95548050Y-104738000D01*
X94672173Y-104738000D01*
X94670000Y-104709762D01*
X94670000Y-102212480D01*
X105588073Y-102212480D01*
X105616852Y-102742199D01*
X105764200Y-103097929D01*
X105999812Y-103159583D01*
X106754395Y-102405000D01*
X107113605Y-102405000D01*
X107868188Y-103159583D01*
X108103800Y-103097929D01*
X108279927Y-102597520D01*
X108251148Y-102067801D01*
X108103800Y-101712071D01*
X107868188Y-101650417D01*
X107113605Y-102405000D01*
X106754395Y-102405000D01*
X105999812Y-101650417D01*
X105764200Y-101712071D01*
X105588073Y-102212480D01*
X94670000Y-102212480D01*
X94670000Y-101470812D01*
X106179417Y-101470812D01*
X106934000Y-102225395D01*
X107688583Y-101470812D01*
X107626929Y-101235200D01*
X107126520Y-101059073D01*
X106596801Y-101087852D01*
X106241071Y-101235200D01*
X106179417Y-101470812D01*
X94670000Y-101470812D01*
X94670000Y-98030801D01*
X94977171Y-98337973D01*
X95019571Y-98401429D01*
X95270963Y-98569404D01*
X95492648Y-98613500D01*
X95492653Y-98613500D01*
X95567500Y-98628388D01*
X95642347Y-98613500D01*
X98610289Y-98613500D01*
X98727720Y-98730931D01*
X99108126Y-98888500D01*
X99519874Y-98888500D01*
X99900280Y-98730931D01*
X99991461Y-98639750D01*
X105600500Y-98639750D01*
X105600500Y-99170250D01*
X105803513Y-99660367D01*
X106178633Y-100035487D01*
X106668750Y-100238500D01*
X107199250Y-100238500D01*
X107689367Y-100035487D01*
X108064487Y-99660367D01*
X108267500Y-99170250D01*
X108267500Y-98639750D01*
X108064487Y-98149633D01*
X107689367Y-97774513D01*
X107199250Y-97571500D01*
X106668750Y-97571500D01*
X106178633Y-97774513D01*
X105803513Y-98149633D01*
X105600500Y-98639750D01*
X99991461Y-98639750D01*
X100191431Y-98439780D01*
X100349000Y-98059374D01*
X100349000Y-97647626D01*
X100191431Y-97267220D01*
X99900280Y-96976069D01*
X99519874Y-96818500D01*
X99108126Y-96818500D01*
X98727720Y-96976069D01*
X98610289Y-97093500D01*
X95882302Y-97093500D01*
X95614001Y-96825200D01*
X95614001Y-96339188D01*
X106179417Y-96339188D01*
X106241071Y-96574800D01*
X106741480Y-96750927D01*
X107271199Y-96722148D01*
X107626929Y-96574800D01*
X107688583Y-96339188D01*
X106934000Y-95584605D01*
X106179417Y-96339188D01*
X95614001Y-96339188D01*
X95614001Y-95467855D01*
X95764633Y-95618487D01*
X96254750Y-95821500D01*
X96785250Y-95821500D01*
X97275367Y-95618487D01*
X97650487Y-95243367D01*
X97853500Y-94753250D01*
X97853500Y-94222750D01*
X97664579Y-93766655D01*
X97946668Y-93883500D01*
X98593332Y-93883500D01*
X98875421Y-93766655D01*
X98686500Y-94222750D01*
X98686500Y-94753250D01*
X98889513Y-95243367D01*
X99264633Y-95618487D01*
X99754750Y-95821500D01*
X100285250Y-95821500D01*
X100775367Y-95618487D01*
X101150487Y-95243367D01*
X101353500Y-94753250D01*
X101353500Y-94222750D01*
X101150487Y-93732633D01*
X100775367Y-93357513D01*
X100285250Y-93154500D01*
X99754750Y-93154500D01*
X99614006Y-93212798D01*
X99648032Y-93178772D01*
X99895500Y-92581332D01*
X99895500Y-91934668D01*
X99648032Y-91337228D01*
X99252980Y-90942176D01*
X99398521Y-90844929D01*
X99440923Y-90781470D01*
X99750267Y-90472126D01*
X101581000Y-90472126D01*
X101581000Y-90883874D01*
X101738569Y-91264280D01*
X101856000Y-91381711D01*
X101856001Y-92260288D01*
X101738569Y-92377720D01*
X101581000Y-92758126D01*
X101581000Y-93169874D01*
X101738569Y-93550280D01*
X102029720Y-93841431D01*
X102410126Y-93999000D01*
X102821874Y-93999000D01*
X103078500Y-93892702D01*
X103078500Y-93978332D01*
X103325968Y-94575772D01*
X103783228Y-95033032D01*
X104380668Y-95280500D01*
X105027332Y-95280500D01*
X105624772Y-95033032D01*
X105665604Y-94992200D01*
X105588073Y-95212480D01*
X105616852Y-95742199D01*
X105764200Y-96097929D01*
X105999812Y-96159583D01*
X106754395Y-95405000D01*
X107113605Y-95405000D01*
X107868188Y-96159583D01*
X108103800Y-96097929D01*
X108279927Y-95597520D01*
X108251148Y-95067801D01*
X108103800Y-94712071D01*
X107868188Y-94650417D01*
X107113605Y-95405000D01*
X106754395Y-95405000D01*
X106740253Y-95390858D01*
X106919858Y-95211253D01*
X106934000Y-95225395D01*
X107688583Y-94470812D01*
X107626929Y-94235200D01*
X107126520Y-94059073D01*
X106596801Y-94087852D01*
X106241071Y-94235200D01*
X106179418Y-94470810D01*
X106141298Y-94432690D01*
X106329500Y-93978332D01*
X106329500Y-93331668D01*
X106212655Y-93049579D01*
X106668750Y-93238500D01*
X107199250Y-93238500D01*
X107689367Y-93035487D01*
X108064487Y-92660367D01*
X108267500Y-92170250D01*
X108267500Y-91639750D01*
X108064487Y-91149633D01*
X107689367Y-90774513D01*
X107199250Y-90571500D01*
X106668750Y-90571500D01*
X106178633Y-90774513D01*
X105803513Y-91149633D01*
X105600500Y-91639750D01*
X105600500Y-92170250D01*
X105658798Y-92310994D01*
X105624772Y-92276968D01*
X105027332Y-92029500D01*
X104380668Y-92029500D01*
X103783228Y-92276968D01*
X103548801Y-92511395D01*
X103493431Y-92377720D01*
X103376000Y-92260289D01*
X103376000Y-91381711D01*
X103493431Y-91264280D01*
X103651000Y-90883874D01*
X103651000Y-90472126D01*
X103493431Y-90091720D01*
X103202280Y-89800569D01*
X102821874Y-89643000D01*
X102410126Y-89643000D01*
X102029720Y-89800569D01*
X101738569Y-90091720D01*
X101581000Y-90472126D01*
X99750267Y-90472126D01*
X100719002Y-89503392D01*
X100770938Y-89503392D01*
X101116354Y-89360316D01*
X101380724Y-89095946D01*
X101523800Y-88750530D01*
X101523800Y-88376654D01*
X101380724Y-88031238D01*
X101116354Y-87766868D01*
X100770938Y-87623792D01*
X100397062Y-87623792D01*
X100051646Y-87766868D01*
X99787276Y-88031238D01*
X99644200Y-88376654D01*
X99644200Y-88428590D01*
X98535791Y-89537000D01*
X96835078Y-89537000D01*
X96798354Y-89500276D01*
X96452938Y-89357200D01*
X96079062Y-89357200D01*
X95733646Y-89500276D01*
X95614001Y-89619921D01*
X95614001Y-88783016D01*
X97324590Y-88783016D01*
X97380271Y-89013611D01*
X97863078Y-89181622D01*
X98373428Y-89152083D01*
X98707729Y-89013611D01*
X98763410Y-88783016D01*
X98044000Y-88063605D01*
X97324590Y-88783016D01*
X95614001Y-88783016D01*
X95614001Y-87899000D01*
X95759602Y-87899000D01*
X96231894Y-87703371D01*
X96232187Y-87703078D01*
X96746378Y-87703078D01*
X96775917Y-88213428D01*
X96914389Y-88547729D01*
X97144984Y-88603410D01*
X97864395Y-87884000D01*
X98223605Y-87884000D01*
X98943016Y-88603410D01*
X99173611Y-88547729D01*
X99341622Y-88064922D01*
X99312083Y-87554572D01*
X99269460Y-87451670D01*
X102478000Y-87451670D01*
X102478000Y-88062330D01*
X102711690Y-88626507D01*
X103143493Y-89058310D01*
X103707670Y-89292000D01*
X104318330Y-89292000D01*
X104882507Y-89058310D01*
X105314310Y-88626507D01*
X105548000Y-88062330D01*
X105548000Y-87451670D01*
X105431381Y-87170126D01*
X111099826Y-87170126D01*
X111099826Y-87581874D01*
X111257395Y-87962280D01*
X111548546Y-88253431D01*
X111928952Y-88411000D01*
X112340700Y-88411000D01*
X112721106Y-88253431D01*
X112838537Y-88136000D01*
X113209711Y-88136000D01*
X113295569Y-88343280D01*
X113586720Y-88634431D01*
X113967126Y-88792000D01*
X114378874Y-88792000D01*
X114759280Y-88634431D01*
X115050431Y-88343280D01*
X115208000Y-87962874D01*
X115208000Y-87551126D01*
X115050431Y-87170720D01*
X114759280Y-86879569D01*
X114378874Y-86722000D01*
X114181183Y-86722000D01*
X114088537Y-86660096D01*
X113866852Y-86616000D01*
X113866847Y-86616000D01*
X113792000Y-86601112D01*
X113717153Y-86616000D01*
X112838537Y-86616000D01*
X112721106Y-86498569D01*
X112340700Y-86341000D01*
X111928952Y-86341000D01*
X111548546Y-86498569D01*
X111257395Y-86789720D01*
X111099826Y-87170126D01*
X105431381Y-87170126D01*
X105314310Y-86887493D01*
X104882507Y-86455690D01*
X104318330Y-86222000D01*
X103707670Y-86222000D01*
X103143493Y-86455690D01*
X102711690Y-86887493D01*
X102478000Y-87451670D01*
X99269460Y-87451670D01*
X99173611Y-87220271D01*
X98943016Y-87164590D01*
X98223605Y-87884000D01*
X97864395Y-87884000D01*
X97144984Y-87164590D01*
X96914389Y-87220271D01*
X96746378Y-87703078D01*
X96232187Y-87703078D01*
X96593371Y-87341894D01*
X96789000Y-86869602D01*
X96789000Y-86358398D01*
X96593371Y-85886106D01*
X96231894Y-85524629D01*
X95796366Y-85344228D01*
X95833428Y-85342083D01*
X96167729Y-85203611D01*
X96195549Y-85088398D01*
X96759000Y-85088398D01*
X96759000Y-85599602D01*
X96954629Y-86071894D01*
X97316106Y-86433371D01*
X97751634Y-86613772D01*
X97714572Y-86615917D01*
X97380271Y-86754389D01*
X97324590Y-86984984D01*
X98044000Y-87704395D01*
X98763410Y-86984984D01*
X98707729Y-86754389D01*
X98321426Y-86619960D01*
X98771894Y-86433371D01*
X99133371Y-86071894D01*
X99329000Y-85599602D01*
X99329000Y-85088398D01*
X99133371Y-84616106D01*
X98893391Y-84376126D01*
X99295000Y-84376126D01*
X99295000Y-84787874D01*
X99452569Y-85168280D01*
X99743720Y-85459431D01*
X100124126Y-85617000D01*
X100535874Y-85617000D01*
X100916280Y-85459431D01*
X101033711Y-85342000D01*
X101557468Y-85342000D01*
X101632315Y-85356888D01*
X101707162Y-85342000D01*
X101707167Y-85342000D01*
X101744090Y-85334655D01*
X102119126Y-85490000D01*
X102530874Y-85490000D01*
X102911280Y-85332431D01*
X103202431Y-85041280D01*
X103360000Y-84660874D01*
X103360000Y-84249126D01*
X103202431Y-83868720D01*
X102911280Y-83577569D01*
X102530874Y-83420000D01*
X102119126Y-83420000D01*
X101738720Y-83577569D01*
X101605603Y-83710686D01*
X101462778Y-83739096D01*
X101338704Y-83822000D01*
X101033711Y-83822000D01*
X100916280Y-83704569D01*
X100535874Y-83547000D01*
X100124126Y-83547000D01*
X99743720Y-83704569D01*
X99452569Y-83995720D01*
X99295000Y-84376126D01*
X98893391Y-84376126D01*
X98771894Y-84254629D01*
X98299602Y-84059000D01*
X97788398Y-84059000D01*
X97316106Y-84254629D01*
X96954629Y-84616106D01*
X96759000Y-85088398D01*
X96195549Y-85088398D01*
X96223410Y-84973016D01*
X95504000Y-84253605D01*
X95489858Y-84267748D01*
X95310252Y-84088142D01*
X95324395Y-84074000D01*
X95683605Y-84074000D01*
X96403016Y-84793410D01*
X96633611Y-84737729D01*
X96801622Y-84254922D01*
X96772083Y-83744572D01*
X96633611Y-83410271D01*
X96403016Y-83354590D01*
X95683605Y-84074000D01*
X95324395Y-84074000D01*
X95310252Y-84059858D01*
X95489858Y-83880252D01*
X95504000Y-83894395D01*
X96223410Y-83174984D01*
X96167729Y-82944389D01*
X95684922Y-82776378D01*
X95174572Y-82805917D01*
X94840271Y-82944389D01*
X94784590Y-83174982D01*
X94670000Y-83060392D01*
X94670000Y-81855062D01*
X109931200Y-81855062D01*
X109931200Y-82228938D01*
X110074276Y-82574354D01*
X110338646Y-82838724D01*
X110684062Y-82981800D01*
X111057938Y-82981800D01*
X111403354Y-82838724D01*
X111440078Y-82802000D01*
X111571922Y-82802000D01*
X111608646Y-82838724D01*
X111954062Y-82981800D01*
X112327938Y-82981800D01*
X112673354Y-82838724D01*
X112937724Y-82574354D01*
X113080800Y-82228938D01*
X113080800Y-81855062D01*
X112937724Y-81509646D01*
X112673354Y-81245276D01*
X112327938Y-81102200D01*
X111954062Y-81102200D01*
X111608646Y-81245276D01*
X111571922Y-81282000D01*
X111440078Y-81282000D01*
X111403354Y-81245276D01*
X111057938Y-81102200D01*
X110684062Y-81102200D01*
X110338646Y-81245276D01*
X110074276Y-81509646D01*
X109931200Y-81855062D01*
X94670000Y-81855062D01*
X94670000Y-81553000D01*
X94947874Y-81553000D01*
X95328280Y-81395431D01*
X95619431Y-81104280D01*
X95777000Y-80723874D01*
X95777000Y-80312126D01*
X95619431Y-79931720D01*
X95519381Y-79831670D01*
X102478000Y-79831670D01*
X102478000Y-80442330D01*
X102711690Y-81006507D01*
X103143493Y-81438310D01*
X103707670Y-81672000D01*
X104318330Y-81672000D01*
X104882507Y-81438310D01*
X105314310Y-81006507D01*
X105548000Y-80442330D01*
X105548000Y-79831670D01*
X105314310Y-79267493D01*
X104882507Y-78835690D01*
X104318330Y-78602000D01*
X103707670Y-78602000D01*
X103143493Y-78835690D01*
X102711690Y-79267493D01*
X102478000Y-79831670D01*
X95519381Y-79831670D01*
X95502000Y-79814289D01*
X95502000Y-75105126D01*
X109873000Y-75105126D01*
X109873000Y-75516874D01*
X110030569Y-75897280D01*
X110321720Y-76188431D01*
X110702126Y-76346000D01*
X110868199Y-76346000D01*
X112127011Y-77604813D01*
X112253222Y-77909514D01*
X112268361Y-77924653D01*
X111472014Y-78721000D01*
X111305941Y-78721000D01*
X110925535Y-78878569D01*
X110634384Y-79169720D01*
X110476815Y-79550126D01*
X110476815Y-79961874D01*
X110634384Y-80342280D01*
X110925535Y-80633431D01*
X111305941Y-80791000D01*
X111717689Y-80791000D01*
X112098095Y-80633431D01*
X112389246Y-80342280D01*
X112546815Y-79961874D01*
X112546815Y-79795801D01*
X113232845Y-79109772D01*
X113459126Y-79203500D01*
X113870874Y-79203500D01*
X114251280Y-79045931D01*
X114542431Y-78754780D01*
X114700000Y-78374374D01*
X114700000Y-77962626D01*
X114542431Y-77582220D01*
X114251280Y-77291069D01*
X114165653Y-77255601D01*
X114165653Y-77117360D01*
X114008084Y-76736954D01*
X113716933Y-76445803D01*
X113336527Y-76288234D01*
X112960036Y-76288234D01*
X111943000Y-75271199D01*
X111943000Y-75105126D01*
X111785431Y-74724720D01*
X111494280Y-74433569D01*
X111113874Y-74276000D01*
X110702126Y-74276000D01*
X110321720Y-74433569D01*
X110030569Y-74724720D01*
X109873000Y-75105126D01*
X95502000Y-75105126D01*
X95502000Y-73490112D01*
X99194500Y-73490112D01*
X99194500Y-73901860D01*
X99352069Y-74282266D01*
X99643220Y-74573417D01*
X100023626Y-74730986D01*
X100435374Y-74730986D01*
X100815780Y-74573417D01*
X101106931Y-74282266D01*
X101168318Y-74134062D01*
X112598200Y-74134062D01*
X112598200Y-74507938D01*
X112741276Y-74853354D01*
X113005646Y-75117724D01*
X113351062Y-75260800D01*
X113724938Y-75260800D01*
X113802092Y-75228842D01*
X114368725Y-75795475D01*
X114411123Y-75858929D01*
X114474576Y-75901327D01*
X114474578Y-75901329D01*
X114486258Y-75909133D01*
X114662515Y-76026904D01*
X114884200Y-76071000D01*
X114884204Y-76071000D01*
X114959051Y-76085888D01*
X115033898Y-76071000D01*
X117041852Y-76071000D01*
X117263537Y-76026904D01*
X117353692Y-75966664D01*
X117626354Y-75853724D01*
X117890724Y-75589354D01*
X118033800Y-75243938D01*
X118033800Y-74870062D01*
X117890724Y-74524646D01*
X117626354Y-74260276D01*
X117280938Y-74117200D01*
X116907062Y-74117200D01*
X116561646Y-74260276D01*
X116297276Y-74524646D01*
X116286360Y-74551000D01*
X115273854Y-74551000D01*
X114559383Y-73836529D01*
X114516981Y-73773071D01*
X114265589Y-73605096D01*
X114122764Y-73576686D01*
X114070354Y-73524276D01*
X113724938Y-73381200D01*
X113351062Y-73381200D01*
X113005646Y-73524276D01*
X112741276Y-73788646D01*
X112598200Y-74134062D01*
X101168318Y-74134062D01*
X101264500Y-73901860D01*
X101264500Y-73490112D01*
X101106931Y-73109706D01*
X100989500Y-72992275D01*
X100989500Y-71665126D01*
X102089000Y-71665126D01*
X102089000Y-72076874D01*
X102246569Y-72457280D01*
X102537720Y-72748431D01*
X102918126Y-72906000D01*
X103329874Y-72906000D01*
X103710280Y-72748431D01*
X104001431Y-72457280D01*
X104124061Y-72161224D01*
X104151720Y-72188883D01*
X104532126Y-72346452D01*
X104943874Y-72346452D01*
X105324280Y-72188883D01*
X105615431Y-71897732D01*
X105773000Y-71517326D01*
X105773000Y-71105578D01*
X105615431Y-70725172D01*
X105438045Y-70547786D01*
X105548000Y-70282330D01*
X105548000Y-69671670D01*
X110098000Y-69671670D01*
X110098000Y-70282330D01*
X110331690Y-70846507D01*
X110763493Y-71278310D01*
X111327670Y-71512000D01*
X111938330Y-71512000D01*
X112502507Y-71278310D01*
X112934310Y-70846507D01*
X112979669Y-70737000D01*
X113559289Y-70737000D01*
X113676720Y-70854431D01*
X114057126Y-71012000D01*
X114468874Y-71012000D01*
X114849280Y-70854431D01*
X115140431Y-70563280D01*
X115298000Y-70182874D01*
X115298000Y-69771126D01*
X115140431Y-69390720D01*
X114849280Y-69099569D01*
X114468874Y-68942000D01*
X114057126Y-68942000D01*
X113676720Y-69099569D01*
X113559289Y-69217000D01*
X112979669Y-69217000D01*
X112934310Y-69107493D01*
X112502507Y-68675690D01*
X111938330Y-68442000D01*
X111327670Y-68442000D01*
X110763493Y-68675690D01*
X110331690Y-69107493D01*
X110098000Y-69671670D01*
X105548000Y-69671670D01*
X105314310Y-69107493D01*
X104882507Y-68675690D01*
X104318330Y-68442000D01*
X103707670Y-68442000D01*
X103143493Y-68675690D01*
X102711690Y-69107493D01*
X102478000Y-69671670D01*
X102478000Y-70282330D01*
X102711690Y-70846507D01*
X102764724Y-70899541D01*
X102537720Y-70993569D01*
X102246569Y-71284720D01*
X102089000Y-71665126D01*
X100989500Y-71665126D01*
X100989500Y-70271116D01*
X103453846Y-67806772D01*
X103680126Y-67900500D01*
X104091874Y-67900500D01*
X104472280Y-67742931D01*
X104763431Y-67451780D01*
X104921000Y-67071374D01*
X104921000Y-67006801D01*
X106534000Y-68619802D01*
X106534000Y-68785874D01*
X106691569Y-69166280D01*
X106982720Y-69457431D01*
X107363126Y-69615000D01*
X107774874Y-69615000D01*
X108155280Y-69457431D01*
X108446431Y-69166280D01*
X108604000Y-68785874D01*
X108604000Y-68374126D01*
X108446431Y-67993720D01*
X108155280Y-67702569D01*
X107774874Y-67545000D01*
X107608802Y-67545000D01*
X104667000Y-64603199D01*
X104667000Y-64437126D01*
X104509431Y-64056720D01*
X104218280Y-63765569D01*
X103837874Y-63608000D01*
X103426126Y-63608000D01*
X103045720Y-63765569D01*
X102754569Y-64056720D01*
X102597000Y-64437126D01*
X102597000Y-64848874D01*
X102754569Y-65229280D01*
X103045720Y-65520431D01*
X103426126Y-65678000D01*
X103592199Y-65678000D01*
X103744699Y-65830500D01*
X103680126Y-65830500D01*
X103299720Y-65988069D01*
X103166603Y-66121186D01*
X103023778Y-66149596D01*
X103023776Y-66149597D01*
X103023777Y-66149597D01*
X102835841Y-66275171D01*
X102835839Y-66275173D01*
X102772386Y-66317571D01*
X102729988Y-66381024D01*
X99745028Y-69365986D01*
X99681572Y-69408386D01*
X99639172Y-69471842D01*
X99639171Y-69471843D01*
X99513597Y-69659778D01*
X99454612Y-69956315D01*
X99469501Y-70031167D01*
X99469500Y-72992275D01*
X99352069Y-73109706D01*
X99194500Y-73490112D01*
X95502000Y-73490112D01*
X95502000Y-72916625D01*
X96610253Y-71808374D01*
X96836533Y-71902102D01*
X97248281Y-71902102D01*
X97628687Y-71744533D01*
X97919838Y-71453382D01*
X98077407Y-71072976D01*
X98077407Y-70661228D01*
X97919838Y-70280822D01*
X97628687Y-69989671D01*
X97248281Y-69832102D01*
X96836533Y-69832102D01*
X96456127Y-69989671D01*
X96324658Y-70121140D01*
X96179083Y-70150097D01*
X95927691Y-70318071D01*
X95880855Y-70388166D01*
X94670000Y-71599022D01*
X94670000Y-62775230D01*
X94673781Y-62738000D01*
X95548050Y-62738000D01*
X95664876Y-63475608D01*
X96003917Y-64141014D01*
X96531986Y-64669083D01*
X97197392Y-65008124D01*
X97935000Y-65124950D01*
X98672608Y-65008124D01*
X99338014Y-64669083D01*
X99866083Y-64141014D01*
X100205124Y-63475608D01*
X100321950Y-62738000D01*
X112548050Y-62738000D01*
X112664876Y-63475608D01*
X113003917Y-64141014D01*
X113531986Y-64669083D01*
X114197392Y-65008124D01*
X114935000Y-65124950D01*
X115672608Y-65008124D01*
X116338014Y-64669083D01*
X116866083Y-64141014D01*
X117205124Y-63475608D01*
X117321950Y-62738000D01*
X117205124Y-62000392D01*
X116866083Y-61334986D01*
X116338014Y-60806917D01*
X115672608Y-60467876D01*
X114935000Y-60351050D01*
X114197392Y-60467876D01*
X113531986Y-60806917D01*
X113003917Y-61334986D01*
X112664876Y-62000392D01*
X112548050Y-62738000D01*
X100321950Y-62738000D01*
X100205124Y-62000392D01*
X99866083Y-61334986D01*
X99338014Y-60806917D01*
X98672608Y-60467876D01*
X97935000Y-60351050D01*
X97197392Y-60467876D01*
X96531986Y-60806917D01*
X96003917Y-61334986D01*
X95664876Y-62000392D01*
X95548050Y-62738000D01*
X94673781Y-62738000D01*
X94740391Y-62082244D01*
X94937500Y-61453270D01*
X95257055Y-60876776D01*
X95686001Y-60376318D01*
X96206818Y-59972331D01*
X96798233Y-59681318D01*
X97444848Y-59512888D01*
X97963238Y-59473000D01*
X114897770Y-59473000D01*
X115590756Y-59543391D01*
X115590756Y-59543391D01*
G37*
X115590756Y-59543391D02*
X116219730Y-59740500D01*
X116796224Y-60060055D01*
X117296682Y-60489001D01*
X117700669Y-61009818D01*
X117991682Y-61601233D01*
X118160112Y-62247848D01*
X118200000Y-62766238D01*
X118200001Y-91401652D01*
X118169938Y-91389200D01*
X117796062Y-91389200D01*
X117450646Y-91532276D01*
X117363123Y-91619799D01*
X114313882Y-91619799D01*
X114281924Y-91542646D01*
X114017554Y-91278276D01*
X113750183Y-91167528D01*
X113780431Y-91137280D01*
X113938000Y-90756874D01*
X113938000Y-90345126D01*
X113780431Y-89964720D01*
X113489280Y-89673569D01*
X113108874Y-89516000D01*
X112697126Y-89516000D01*
X112316720Y-89673569D01*
X112025569Y-89964720D01*
X111868000Y-90345126D01*
X111868000Y-90756874D01*
X112025569Y-91137280D01*
X112143000Y-91254711D01*
X112143001Y-92895288D01*
X112025569Y-93012720D01*
X111868000Y-93393126D01*
X111868000Y-93804874D01*
X112025569Y-94185280D01*
X112316720Y-94476431D01*
X112697126Y-94634000D01*
X113108874Y-94634000D01*
X113489280Y-94476431D01*
X113780431Y-94185280D01*
X113938000Y-93804874D01*
X113938000Y-93393126D01*
X113835488Y-93145639D01*
X113864846Y-93139799D01*
X117484626Y-93139799D01*
X117796062Y-93268800D01*
X118169938Y-93268800D01*
X118200001Y-93256348D01*
X118200001Y-104700759D01*
X118129609Y-105393759D01*
X117932499Y-106022734D01*
X117612945Y-106599224D01*
X117184002Y-107099680D01*
X116663182Y-107503669D01*
X116071767Y-107794682D01*
X115425153Y-107963112D01*
X114906762Y-108003000D01*
X97972231Y-108003000D01*
X97279241Y-107932609D01*
X96650266Y-107735499D01*
X96073776Y-107415945D01*
X95573320Y-106987002D01*
X95169331Y-106466182D01*
X94878318Y-105874767D01*
X94709888Y-105228153D01*
X94672173Y-104738000D01*
X95548050Y-104738000D01*
X95664876Y-105475608D01*
X96003917Y-106141014D01*
X96531986Y-106669083D01*
X97197392Y-107008124D01*
X97935000Y-107124950D01*
X98672608Y-107008124D01*
X99004163Y-106839188D01*
X106179417Y-106839188D01*
X106241071Y-107074800D01*
X106741480Y-107250927D01*
X107271199Y-107222148D01*
X107626929Y-107074800D01*
X107688583Y-106839188D01*
X106934000Y-106084605D01*
X106179417Y-106839188D01*
X99004163Y-106839188D01*
X99338014Y-106669083D01*
X99866083Y-106141014D01*
X100084431Y-105712480D01*
X105588073Y-105712480D01*
X105616852Y-106242199D01*
X105764200Y-106597929D01*
X105999812Y-106659583D01*
X106754395Y-105905000D01*
X107113605Y-105905000D01*
X107868188Y-106659583D01*
X108103800Y-106597929D01*
X108279927Y-106097520D01*
X108251148Y-105567801D01*
X108103800Y-105212071D01*
X107868188Y-105150417D01*
X107113605Y-105905000D01*
X106754395Y-105905000D01*
X105999812Y-105150417D01*
X105764200Y-105212071D01*
X105588073Y-105712480D01*
X100084431Y-105712480D01*
X100205124Y-105475608D01*
X100285076Y-104970812D01*
X106179417Y-104970812D01*
X106934000Y-105725395D01*
X107688583Y-104970812D01*
X107627662Y-104738000D01*
X112548050Y-104738000D01*
X112664876Y-105475608D01*
X113003917Y-106141014D01*
X113531986Y-106669083D01*
X114197392Y-107008124D01*
X114935000Y-107124950D01*
X115672608Y-107008124D01*
X116338014Y-106669083D01*
X116866083Y-106141014D01*
X117205124Y-105475608D01*
X117321950Y-104738000D01*
X117205124Y-104000392D01*
X116866083Y-103334986D01*
X116338014Y-102806917D01*
X115672608Y-102467876D01*
X114935000Y-102351050D01*
X114197392Y-102467876D01*
X113531986Y-102806917D01*
X113003917Y-103334986D01*
X112664876Y-104000392D01*
X112548050Y-104738000D01*
X107627662Y-104738000D01*
X107626929Y-104735200D01*
X107126520Y-104559073D01*
X106596801Y-104587852D01*
X106241071Y-104735200D01*
X106179417Y-104970812D01*
X100285076Y-104970812D01*
X100321950Y-104738000D01*
X100205124Y-104000392D01*
X99868225Y-103339188D01*
X106179417Y-103339188D01*
X106241071Y-103574800D01*
X106741480Y-103750927D01*
X107271199Y-103722148D01*
X107626929Y-103574800D01*
X107688583Y-103339188D01*
X106934000Y-102584605D01*
X106179417Y-103339188D01*
X99868225Y-103339188D01*
X99866083Y-103334986D01*
X99338014Y-102806917D01*
X98672608Y-102467876D01*
X97935000Y-102351050D01*
X97197392Y-102467876D01*
X96531986Y-102806917D01*
X96003917Y-103334986D01*
X95664876Y-104000392D01*
X95548050Y-104738000D01*
X94672173Y-104738000D01*
X94670000Y-104709762D01*
X94670000Y-102212480D01*
X105588073Y-102212480D01*
X105616852Y-102742199D01*
X105764200Y-103097929D01*
X105999812Y-103159583D01*
X106754395Y-102405000D01*
X107113605Y-102405000D01*
X107868188Y-103159583D01*
X108103800Y-103097929D01*
X108279927Y-102597520D01*
X108251148Y-102067801D01*
X108103800Y-101712071D01*
X107868188Y-101650417D01*
X107113605Y-102405000D01*
X106754395Y-102405000D01*
X105999812Y-101650417D01*
X105764200Y-101712071D01*
X105588073Y-102212480D01*
X94670000Y-102212480D01*
X94670000Y-101470812D01*
X106179417Y-101470812D01*
X106934000Y-102225395D01*
X107688583Y-101470812D01*
X107626929Y-101235200D01*
X107126520Y-101059073D01*
X106596801Y-101087852D01*
X106241071Y-101235200D01*
X106179417Y-101470812D01*
X94670000Y-101470812D01*
X94670000Y-98030801D01*
X94977171Y-98337973D01*
X95019571Y-98401429D01*
X95270963Y-98569404D01*
X95492648Y-98613500D01*
X95492653Y-98613500D01*
X95567500Y-98628388D01*
X95642347Y-98613500D01*
X98610289Y-98613500D01*
X98727720Y-98730931D01*
X99108126Y-98888500D01*
X99519874Y-98888500D01*
X99900280Y-98730931D01*
X99991461Y-98639750D01*
X105600500Y-98639750D01*
X105600500Y-99170250D01*
X105803513Y-99660367D01*
X106178633Y-100035487D01*
X106668750Y-100238500D01*
X107199250Y-100238500D01*
X107689367Y-100035487D01*
X108064487Y-99660367D01*
X108267500Y-99170250D01*
X108267500Y-98639750D01*
X108064487Y-98149633D01*
X107689367Y-97774513D01*
X107199250Y-97571500D01*
X106668750Y-97571500D01*
X106178633Y-97774513D01*
X105803513Y-98149633D01*
X105600500Y-98639750D01*
X99991461Y-98639750D01*
X100191431Y-98439780D01*
X100349000Y-98059374D01*
X100349000Y-97647626D01*
X100191431Y-97267220D01*
X99900280Y-96976069D01*
X99519874Y-96818500D01*
X99108126Y-96818500D01*
X98727720Y-96976069D01*
X98610289Y-97093500D01*
X95882302Y-97093500D01*
X95614001Y-96825200D01*
X95614001Y-96339188D01*
X106179417Y-96339188D01*
X106241071Y-96574800D01*
X106741480Y-96750927D01*
X107271199Y-96722148D01*
X107626929Y-96574800D01*
X107688583Y-96339188D01*
X106934000Y-95584605D01*
X106179417Y-96339188D01*
X95614001Y-96339188D01*
X95614001Y-95467855D01*
X95764633Y-95618487D01*
X96254750Y-95821500D01*
X96785250Y-95821500D01*
X97275367Y-95618487D01*
X97650487Y-95243367D01*
X97853500Y-94753250D01*
X97853500Y-94222750D01*
X97664579Y-93766655D01*
X97946668Y-93883500D01*
X98593332Y-93883500D01*
X98875421Y-93766655D01*
X98686500Y-94222750D01*
X98686500Y-94753250D01*
X98889513Y-95243367D01*
X99264633Y-95618487D01*
X99754750Y-95821500D01*
X100285250Y-95821500D01*
X100775367Y-95618487D01*
X101150487Y-95243367D01*
X101353500Y-94753250D01*
X101353500Y-94222750D01*
X101150487Y-93732633D01*
X100775367Y-93357513D01*
X100285250Y-93154500D01*
X99754750Y-93154500D01*
X99614006Y-93212798D01*
X99648032Y-93178772D01*
X99895500Y-92581332D01*
X99895500Y-91934668D01*
X99648032Y-91337228D01*
X99252980Y-90942176D01*
X99398521Y-90844929D01*
X99440923Y-90781470D01*
X99750267Y-90472126D01*
X101581000Y-90472126D01*
X101581000Y-90883874D01*
X101738569Y-91264280D01*
X101856000Y-91381711D01*
X101856001Y-92260288D01*
X101738569Y-92377720D01*
X101581000Y-92758126D01*
X101581000Y-93169874D01*
X101738569Y-93550280D01*
X102029720Y-93841431D01*
X102410126Y-93999000D01*
X102821874Y-93999000D01*
X103078500Y-93892702D01*
X103078500Y-93978332D01*
X103325968Y-94575772D01*
X103783228Y-95033032D01*
X104380668Y-95280500D01*
X105027332Y-95280500D01*
X105624772Y-95033032D01*
X105665604Y-94992200D01*
X105588073Y-95212480D01*
X105616852Y-95742199D01*
X105764200Y-96097929D01*
X105999812Y-96159583D01*
X106754395Y-95405000D01*
X107113605Y-95405000D01*
X107868188Y-96159583D01*
X108103800Y-96097929D01*
X108279927Y-95597520D01*
X108251148Y-95067801D01*
X108103800Y-94712071D01*
X107868188Y-94650417D01*
X107113605Y-95405000D01*
X106754395Y-95405000D01*
X106740253Y-95390858D01*
X106919858Y-95211253D01*
X106934000Y-95225395D01*
X107688583Y-94470812D01*
X107626929Y-94235200D01*
X107126520Y-94059073D01*
X106596801Y-94087852D01*
X106241071Y-94235200D01*
X106179418Y-94470810D01*
X106141298Y-94432690D01*
X106329500Y-93978332D01*
X106329500Y-93331668D01*
X106212655Y-93049579D01*
X106668750Y-93238500D01*
X107199250Y-93238500D01*
X107689367Y-93035487D01*
X108064487Y-92660367D01*
X108267500Y-92170250D01*
X108267500Y-91639750D01*
X108064487Y-91149633D01*
X107689367Y-90774513D01*
X107199250Y-90571500D01*
X106668750Y-90571500D01*
X106178633Y-90774513D01*
X105803513Y-91149633D01*
X105600500Y-91639750D01*
X105600500Y-92170250D01*
X105658798Y-92310994D01*
X105624772Y-92276968D01*
X105027332Y-92029500D01*
X104380668Y-92029500D01*
X103783228Y-92276968D01*
X103548801Y-92511395D01*
X103493431Y-92377720D01*
X103376000Y-92260289D01*
X103376000Y-91381711D01*
X103493431Y-91264280D01*
X103651000Y-90883874D01*
X103651000Y-90472126D01*
X103493431Y-90091720D01*
X103202280Y-89800569D01*
X102821874Y-89643000D01*
X102410126Y-89643000D01*
X102029720Y-89800569D01*
X101738569Y-90091720D01*
X101581000Y-90472126D01*
X99750267Y-90472126D01*
X100719002Y-89503392D01*
X100770938Y-89503392D01*
X101116354Y-89360316D01*
X101380724Y-89095946D01*
X101523800Y-88750530D01*
X101523800Y-88376654D01*
X101380724Y-88031238D01*
X101116354Y-87766868D01*
X100770938Y-87623792D01*
X100397062Y-87623792D01*
X100051646Y-87766868D01*
X99787276Y-88031238D01*
X99644200Y-88376654D01*
X99644200Y-88428590D01*
X98535791Y-89537000D01*
X96835078Y-89537000D01*
X96798354Y-89500276D01*
X96452938Y-89357200D01*
X96079062Y-89357200D01*
X95733646Y-89500276D01*
X95614001Y-89619921D01*
X95614001Y-88783016D01*
X97324590Y-88783016D01*
X97380271Y-89013611D01*
X97863078Y-89181622D01*
X98373428Y-89152083D01*
X98707729Y-89013611D01*
X98763410Y-88783016D01*
X98044000Y-88063605D01*
X97324590Y-88783016D01*
X95614001Y-88783016D01*
X95614001Y-87899000D01*
X95759602Y-87899000D01*
X96231894Y-87703371D01*
X96232187Y-87703078D01*
X96746378Y-87703078D01*
X96775917Y-88213428D01*
X96914389Y-88547729D01*
X97144984Y-88603410D01*
X97864395Y-87884000D01*
X98223605Y-87884000D01*
X98943016Y-88603410D01*
X99173611Y-88547729D01*
X99341622Y-88064922D01*
X99312083Y-87554572D01*
X99269460Y-87451670D01*
X102478000Y-87451670D01*
X102478000Y-88062330D01*
X102711690Y-88626507D01*
X103143493Y-89058310D01*
X103707670Y-89292000D01*
X104318330Y-89292000D01*
X104882507Y-89058310D01*
X105314310Y-88626507D01*
X105548000Y-88062330D01*
X105548000Y-87451670D01*
X105431381Y-87170126D01*
X111099826Y-87170126D01*
X111099826Y-87581874D01*
X111257395Y-87962280D01*
X111548546Y-88253431D01*
X111928952Y-88411000D01*
X112340700Y-88411000D01*
X112721106Y-88253431D01*
X112838537Y-88136000D01*
X113209711Y-88136000D01*
X113295569Y-88343280D01*
X113586720Y-88634431D01*
X113967126Y-88792000D01*
X114378874Y-88792000D01*
X114759280Y-88634431D01*
X115050431Y-88343280D01*
X115208000Y-87962874D01*
X115208000Y-87551126D01*
X115050431Y-87170720D01*
X114759280Y-86879569D01*
X114378874Y-86722000D01*
X114181183Y-86722000D01*
X114088537Y-86660096D01*
X113866852Y-86616000D01*
X113866847Y-86616000D01*
X113792000Y-86601112D01*
X113717153Y-86616000D01*
X112838537Y-86616000D01*
X112721106Y-86498569D01*
X112340700Y-86341000D01*
X111928952Y-86341000D01*
X111548546Y-86498569D01*
X111257395Y-86789720D01*
X111099826Y-87170126D01*
X105431381Y-87170126D01*
X105314310Y-86887493D01*
X104882507Y-86455690D01*
X104318330Y-86222000D01*
X103707670Y-86222000D01*
X103143493Y-86455690D01*
X102711690Y-86887493D01*
X102478000Y-87451670D01*
X99269460Y-87451670D01*
X99173611Y-87220271D01*
X98943016Y-87164590D01*
X98223605Y-87884000D01*
X97864395Y-87884000D01*
X97144984Y-87164590D01*
X96914389Y-87220271D01*
X96746378Y-87703078D01*
X96232187Y-87703078D01*
X96593371Y-87341894D01*
X96789000Y-86869602D01*
X96789000Y-86358398D01*
X96593371Y-85886106D01*
X96231894Y-85524629D01*
X95796366Y-85344228D01*
X95833428Y-85342083D01*
X96167729Y-85203611D01*
X96195549Y-85088398D01*
X96759000Y-85088398D01*
X96759000Y-85599602D01*
X96954629Y-86071894D01*
X97316106Y-86433371D01*
X97751634Y-86613772D01*
X97714572Y-86615917D01*
X97380271Y-86754389D01*
X97324590Y-86984984D01*
X98044000Y-87704395D01*
X98763410Y-86984984D01*
X98707729Y-86754389D01*
X98321426Y-86619960D01*
X98771894Y-86433371D01*
X99133371Y-86071894D01*
X99329000Y-85599602D01*
X99329000Y-85088398D01*
X99133371Y-84616106D01*
X98893391Y-84376126D01*
X99295000Y-84376126D01*
X99295000Y-84787874D01*
X99452569Y-85168280D01*
X99743720Y-85459431D01*
X100124126Y-85617000D01*
X100535874Y-85617000D01*
X100916280Y-85459431D01*
X101033711Y-85342000D01*
X101557468Y-85342000D01*
X101632315Y-85356888D01*
X101707162Y-85342000D01*
X101707167Y-85342000D01*
X101744090Y-85334655D01*
X102119126Y-85490000D01*
X102530874Y-85490000D01*
X102911280Y-85332431D01*
X103202431Y-85041280D01*
X103360000Y-84660874D01*
X103360000Y-84249126D01*
X103202431Y-83868720D01*
X102911280Y-83577569D01*
X102530874Y-83420000D01*
X102119126Y-83420000D01*
X101738720Y-83577569D01*
X101605603Y-83710686D01*
X101462778Y-83739096D01*
X101338704Y-83822000D01*
X101033711Y-83822000D01*
X100916280Y-83704569D01*
X100535874Y-83547000D01*
X100124126Y-83547000D01*
X99743720Y-83704569D01*
X99452569Y-83995720D01*
X99295000Y-84376126D01*
X98893391Y-84376126D01*
X98771894Y-84254629D01*
X98299602Y-84059000D01*
X97788398Y-84059000D01*
X97316106Y-84254629D01*
X96954629Y-84616106D01*
X96759000Y-85088398D01*
X96195549Y-85088398D01*
X96223410Y-84973016D01*
X95504000Y-84253605D01*
X95489858Y-84267748D01*
X95310252Y-84088142D01*
X95324395Y-84074000D01*
X95683605Y-84074000D01*
X96403016Y-84793410D01*
X96633611Y-84737729D01*
X96801622Y-84254922D01*
X96772083Y-83744572D01*
X96633611Y-83410271D01*
X96403016Y-83354590D01*
X95683605Y-84074000D01*
X95324395Y-84074000D01*
X95310252Y-84059858D01*
X95489858Y-83880252D01*
X95504000Y-83894395D01*
X96223410Y-83174984D01*
X96167729Y-82944389D01*
X95684922Y-82776378D01*
X95174572Y-82805917D01*
X94840271Y-82944389D01*
X94784590Y-83174982D01*
X94670000Y-83060392D01*
X94670000Y-81855062D01*
X109931200Y-81855062D01*
X109931200Y-82228938D01*
X110074276Y-82574354D01*
X110338646Y-82838724D01*
X110684062Y-82981800D01*
X111057938Y-82981800D01*
X111403354Y-82838724D01*
X111440078Y-82802000D01*
X111571922Y-82802000D01*
X111608646Y-82838724D01*
X111954062Y-82981800D01*
X112327938Y-82981800D01*
X112673354Y-82838724D01*
X112937724Y-82574354D01*
X113080800Y-82228938D01*
X113080800Y-81855062D01*
X112937724Y-81509646D01*
X112673354Y-81245276D01*
X112327938Y-81102200D01*
X111954062Y-81102200D01*
X111608646Y-81245276D01*
X111571922Y-81282000D01*
X111440078Y-81282000D01*
X111403354Y-81245276D01*
X111057938Y-81102200D01*
X110684062Y-81102200D01*
X110338646Y-81245276D01*
X110074276Y-81509646D01*
X109931200Y-81855062D01*
X94670000Y-81855062D01*
X94670000Y-81553000D01*
X94947874Y-81553000D01*
X95328280Y-81395431D01*
X95619431Y-81104280D01*
X95777000Y-80723874D01*
X95777000Y-80312126D01*
X95619431Y-79931720D01*
X95519381Y-79831670D01*
X102478000Y-79831670D01*
X102478000Y-80442330D01*
X102711690Y-81006507D01*
X103143493Y-81438310D01*
X103707670Y-81672000D01*
X104318330Y-81672000D01*
X104882507Y-81438310D01*
X105314310Y-81006507D01*
X105548000Y-80442330D01*
X105548000Y-79831670D01*
X105314310Y-79267493D01*
X104882507Y-78835690D01*
X104318330Y-78602000D01*
X103707670Y-78602000D01*
X103143493Y-78835690D01*
X102711690Y-79267493D01*
X102478000Y-79831670D01*
X95519381Y-79831670D01*
X95502000Y-79814289D01*
X95502000Y-75105126D01*
X109873000Y-75105126D01*
X109873000Y-75516874D01*
X110030569Y-75897280D01*
X110321720Y-76188431D01*
X110702126Y-76346000D01*
X110868199Y-76346000D01*
X112127011Y-77604813D01*
X112253222Y-77909514D01*
X112268361Y-77924653D01*
X111472014Y-78721000D01*
X111305941Y-78721000D01*
X110925535Y-78878569D01*
X110634384Y-79169720D01*
X110476815Y-79550126D01*
X110476815Y-79961874D01*
X110634384Y-80342280D01*
X110925535Y-80633431D01*
X111305941Y-80791000D01*
X111717689Y-80791000D01*
X112098095Y-80633431D01*
X112389246Y-80342280D01*
X112546815Y-79961874D01*
X112546815Y-79795801D01*
X113232845Y-79109772D01*
X113459126Y-79203500D01*
X113870874Y-79203500D01*
X114251280Y-79045931D01*
X114542431Y-78754780D01*
X114700000Y-78374374D01*
X114700000Y-77962626D01*
X114542431Y-77582220D01*
X114251280Y-77291069D01*
X114165653Y-77255601D01*
X114165653Y-77117360D01*
X114008084Y-76736954D01*
X113716933Y-76445803D01*
X113336527Y-76288234D01*
X112960036Y-76288234D01*
X111943000Y-75271199D01*
X111943000Y-75105126D01*
X111785431Y-74724720D01*
X111494280Y-74433569D01*
X111113874Y-74276000D01*
X110702126Y-74276000D01*
X110321720Y-74433569D01*
X110030569Y-74724720D01*
X109873000Y-75105126D01*
X95502000Y-75105126D01*
X95502000Y-73490112D01*
X99194500Y-73490112D01*
X99194500Y-73901860D01*
X99352069Y-74282266D01*
X99643220Y-74573417D01*
X100023626Y-74730986D01*
X100435374Y-74730986D01*
X100815780Y-74573417D01*
X101106931Y-74282266D01*
X101168318Y-74134062D01*
X112598200Y-74134062D01*
X112598200Y-74507938D01*
X112741276Y-74853354D01*
X113005646Y-75117724D01*
X113351062Y-75260800D01*
X113724938Y-75260800D01*
X113802092Y-75228842D01*
X114368725Y-75795475D01*
X114411123Y-75858929D01*
X114474576Y-75901327D01*
X114474578Y-75901329D01*
X114486258Y-75909133D01*
X114662515Y-76026904D01*
X114884200Y-76071000D01*
X114884204Y-76071000D01*
X114959051Y-76085888D01*
X115033898Y-76071000D01*
X117041852Y-76071000D01*
X117263537Y-76026904D01*
X117353692Y-75966664D01*
X117626354Y-75853724D01*
X117890724Y-75589354D01*
X118033800Y-75243938D01*
X118033800Y-74870062D01*
X117890724Y-74524646D01*
X117626354Y-74260276D01*
X117280938Y-74117200D01*
X116907062Y-74117200D01*
X116561646Y-74260276D01*
X116297276Y-74524646D01*
X116286360Y-74551000D01*
X115273854Y-74551000D01*
X114559383Y-73836529D01*
X114516981Y-73773071D01*
X114265589Y-73605096D01*
X114122764Y-73576686D01*
X114070354Y-73524276D01*
X113724938Y-73381200D01*
X113351062Y-73381200D01*
X113005646Y-73524276D01*
X112741276Y-73788646D01*
X112598200Y-74134062D01*
X101168318Y-74134062D01*
X101264500Y-73901860D01*
X101264500Y-73490112D01*
X101106931Y-73109706D01*
X100989500Y-72992275D01*
X100989500Y-71665126D01*
X102089000Y-71665126D01*
X102089000Y-72076874D01*
X102246569Y-72457280D01*
X102537720Y-72748431D01*
X102918126Y-72906000D01*
X103329874Y-72906000D01*
X103710280Y-72748431D01*
X104001431Y-72457280D01*
X104124061Y-72161224D01*
X104151720Y-72188883D01*
X104532126Y-72346452D01*
X104943874Y-72346452D01*
X105324280Y-72188883D01*
X105615431Y-71897732D01*
X105773000Y-71517326D01*
X105773000Y-71105578D01*
X105615431Y-70725172D01*
X105438045Y-70547786D01*
X105548000Y-70282330D01*
X105548000Y-69671670D01*
X110098000Y-69671670D01*
X110098000Y-70282330D01*
X110331690Y-70846507D01*
X110763493Y-71278310D01*
X111327670Y-71512000D01*
X111938330Y-71512000D01*
X112502507Y-71278310D01*
X112934310Y-70846507D01*
X112979669Y-70737000D01*
X113559289Y-70737000D01*
X113676720Y-70854431D01*
X114057126Y-71012000D01*
X114468874Y-71012000D01*
X114849280Y-70854431D01*
X115140431Y-70563280D01*
X115298000Y-70182874D01*
X115298000Y-69771126D01*
X115140431Y-69390720D01*
X114849280Y-69099569D01*
X114468874Y-68942000D01*
X114057126Y-68942000D01*
X113676720Y-69099569D01*
X113559289Y-69217000D01*
X112979669Y-69217000D01*
X112934310Y-69107493D01*
X112502507Y-68675690D01*
X111938330Y-68442000D01*
X111327670Y-68442000D01*
X110763493Y-68675690D01*
X110331690Y-69107493D01*
X110098000Y-69671670D01*
X105548000Y-69671670D01*
X105314310Y-69107493D01*
X104882507Y-68675690D01*
X104318330Y-68442000D01*
X103707670Y-68442000D01*
X103143493Y-68675690D01*
X102711690Y-69107493D01*
X102478000Y-69671670D01*
X102478000Y-70282330D01*
X102711690Y-70846507D01*
X102764724Y-70899541D01*
X102537720Y-70993569D01*
X102246569Y-71284720D01*
X102089000Y-71665126D01*
X100989500Y-71665126D01*
X100989500Y-70271116D01*
X103453846Y-67806772D01*
X103680126Y-67900500D01*
X104091874Y-67900500D01*
X104472280Y-67742931D01*
X104763431Y-67451780D01*
X104921000Y-67071374D01*
X104921000Y-67006801D01*
X106534000Y-68619802D01*
X106534000Y-68785874D01*
X106691569Y-69166280D01*
X106982720Y-69457431D01*
X107363126Y-69615000D01*
X107774874Y-69615000D01*
X108155280Y-69457431D01*
X108446431Y-69166280D01*
X108604000Y-68785874D01*
X108604000Y-68374126D01*
X108446431Y-67993720D01*
X108155280Y-67702569D01*
X107774874Y-67545000D01*
X107608802Y-67545000D01*
X104667000Y-64603199D01*
X104667000Y-64437126D01*
X104509431Y-64056720D01*
X104218280Y-63765569D01*
X103837874Y-63608000D01*
X103426126Y-63608000D01*
X103045720Y-63765569D01*
X102754569Y-64056720D01*
X102597000Y-64437126D01*
X102597000Y-64848874D01*
X102754569Y-65229280D01*
X103045720Y-65520431D01*
X103426126Y-65678000D01*
X103592199Y-65678000D01*
X103744699Y-65830500D01*
X103680126Y-65830500D01*
X103299720Y-65988069D01*
X103166603Y-66121186D01*
X103023778Y-66149596D01*
X103023776Y-66149597D01*
X103023777Y-66149597D01*
X102835841Y-66275171D01*
X102835839Y-66275173D01*
X102772386Y-66317571D01*
X102729988Y-66381024D01*
X99745028Y-69365986D01*
X99681572Y-69408386D01*
X99639172Y-69471842D01*
X99639171Y-69471843D01*
X99513597Y-69659778D01*
X99454612Y-69956315D01*
X99469501Y-70031167D01*
X99469500Y-72992275D01*
X99352069Y-73109706D01*
X99194500Y-73490112D01*
X95502000Y-73490112D01*
X95502000Y-72916625D01*
X96610253Y-71808374D01*
X96836533Y-71902102D01*
X97248281Y-71902102D01*
X97628687Y-71744533D01*
X97919838Y-71453382D01*
X98077407Y-71072976D01*
X98077407Y-70661228D01*
X97919838Y-70280822D01*
X97628687Y-69989671D01*
X97248281Y-69832102D01*
X96836533Y-69832102D01*
X96456127Y-69989671D01*
X96324658Y-70121140D01*
X96179083Y-70150097D01*
X95927691Y-70318071D01*
X95880855Y-70388166D01*
X94670000Y-71599022D01*
X94670000Y-62775230D01*
X94673781Y-62738000D01*
X95548050Y-62738000D01*
X95664876Y-63475608D01*
X96003917Y-64141014D01*
X96531986Y-64669083D01*
X97197392Y-65008124D01*
X97935000Y-65124950D01*
X98672608Y-65008124D01*
X99338014Y-64669083D01*
X99866083Y-64141014D01*
X100205124Y-63475608D01*
X100321950Y-62738000D01*
X112548050Y-62738000D01*
X112664876Y-63475608D01*
X113003917Y-64141014D01*
X113531986Y-64669083D01*
X114197392Y-65008124D01*
X114935000Y-65124950D01*
X115672608Y-65008124D01*
X116338014Y-64669083D01*
X116866083Y-64141014D01*
X117205124Y-63475608D01*
X117321950Y-62738000D01*
X117205124Y-62000392D01*
X116866083Y-61334986D01*
X116338014Y-60806917D01*
X115672608Y-60467876D01*
X114935000Y-60351050D01*
X114197392Y-60467876D01*
X113531986Y-60806917D01*
X113003917Y-61334986D01*
X112664876Y-62000392D01*
X112548050Y-62738000D01*
X100321950Y-62738000D01*
X100205124Y-62000392D01*
X99866083Y-61334986D01*
X99338014Y-60806917D01*
X98672608Y-60467876D01*
X97935000Y-60351050D01*
X97197392Y-60467876D01*
X96531986Y-60806917D01*
X96003917Y-61334986D01*
X95664876Y-62000392D01*
X95548050Y-62738000D01*
X94673781Y-62738000D01*
X94740391Y-62082244D01*
X94937500Y-61453270D01*
X95257055Y-60876776D01*
X95686001Y-60376318D01*
X96206818Y-59972331D01*
X96798233Y-59681318D01*
X97444848Y-59512888D01*
X97963238Y-59473000D01*
X114897770Y-59473000D01*
X115590756Y-59543391D01*
G04 #@! TD*
M02*
