M48
INCH,TZ
T1C0.0120
T2C0.0157
T3C0.0300
T4C0.0315
T5C0.0402
T6C0.0512
T7C0.0630
%
G90
G05
T1
X37900Y-35550
X39600Y-34868
X43650Y-32300
X44150Y-32300
X44679Y-36250
X44700Y-29260
X46100Y-29550
X46450Y-36350
T2
X37300Y-31700
X38202Y-28300
X38206Y-27900
X39044Y-38915
X39100Y-38525
X39460Y-29014
X39500Y-33300
X40285Y-33250
X40400Y-35700
X40400Y-36600
X40400Y-40200
X40600Y-28296
X40800Y-25450
X40900Y-26325
X41235Y-28075
X42100Y-24100
X42350Y-27000
X43665Y-29650
X43902Y-31400
X44074Y-26776
X44148Y-34400
X44450Y-35650
X44450Y-36850
X44540Y-30442
X44750Y-30775
X44950Y-34550
X44985Y-27550
X45334Y-28530
X46013Y-34709
X46250Y-37200
T3
X42100Y-41695
T4
X37600Y-33100
X37600Y-34100
X38600Y-33600
X38600Y-34600
T5
X42100Y-36183
X42100Y-37561
X42100Y-38939
X42100Y-40317
X38000Y-37200
X39378Y-37200
T6
X40950Y-27550
X40950Y-31550
X40950Y-34550
X43950Y-27550
T7
X41222Y-36872
X38689Y-36322
T0
M30
