G04 #@! TF.GenerationSoftware,KiCad,Pcbnew,5.0.2-bee76a0~70~ubuntu18.04.1*
G04 #@! TF.CreationDate,2019-02-24T12:00:28-05:00*
G04 #@! TF.ProjectId,interface,696e7465-7266-4616-9365-2e6b69636164,rev?*
G04 #@! TF.SameCoordinates,Original*
G04 #@! TF.FileFunction,Legend,Top*
G04 #@! TF.FilePolarity,Positive*
%FSLAX46Y46*%
G04 Gerber Fmt 4.6, Leading zero omitted, Abs format (unit mm)*
G04 Created by KiCad (PCBNEW 5.0.2-bee76a0~70~ubuntu18.04.1) date Sun 24 Feb 2019 12:00:28 PM EST*
%MOMM*%
%LPD*%
G01*
G04 APERTURE LIST*
%ADD10C,0.300000*%
%ADD11C,0.203200*%
%ADD12C,0.150000*%
%ADD13C,0.120000*%
%ADD14C,0.010000*%
G04 APERTURE END LIST*
D10*
X72453642Y-108795428D02*
X72525071Y-108724000D01*
X72667928Y-108652571D01*
X73025071Y-108652571D01*
X73167928Y-108724000D01*
X73239357Y-108795428D01*
X73310785Y-108938285D01*
X73310785Y-109081142D01*
X73239357Y-109295428D01*
X72382214Y-110152571D01*
X73310785Y-110152571D01*
X73810785Y-108652571D02*
X74739357Y-108652571D01*
X74239357Y-109224000D01*
X74453642Y-109224000D01*
X74596500Y-109295428D01*
X74667928Y-109366857D01*
X74739357Y-109509714D01*
X74739357Y-109866857D01*
X74667928Y-110009714D01*
X74596500Y-110081142D01*
X74453642Y-110152571D01*
X74025071Y-110152571D01*
X73882214Y-110081142D01*
X73810785Y-110009714D01*
X36623571Y-118979071D02*
X35766428Y-118979071D01*
X36195000Y-118979071D02*
X36195000Y-117479071D01*
X36052142Y-117693357D01*
X35909285Y-117836214D01*
X35766428Y-117907642D01*
D11*
X30607604Y-92576952D02*
X31420404Y-92576952D01*
X31420404Y-92770476D01*
X31381700Y-92886590D01*
X31304290Y-92964000D01*
X31226880Y-93002704D01*
X31072061Y-93041409D01*
X30955947Y-93041409D01*
X30801128Y-93002704D01*
X30723719Y-92964000D01*
X30646309Y-92886590D01*
X30607604Y-92770476D01*
X30607604Y-92576952D01*
X30607604Y-93738095D02*
X31033357Y-93738095D01*
X31110766Y-93699390D01*
X31149471Y-93621980D01*
X31149471Y-93467161D01*
X31110766Y-93389752D01*
X30646309Y-93738095D02*
X30607604Y-93660685D01*
X30607604Y-93467161D01*
X30646309Y-93389752D01*
X30723719Y-93351047D01*
X30801128Y-93351047D01*
X30878538Y-93389752D01*
X30917242Y-93467161D01*
X30917242Y-93660685D01*
X30955947Y-93738095D01*
X30646309Y-94086438D02*
X30607604Y-94163847D01*
X30607604Y-94318666D01*
X30646309Y-94396076D01*
X30723719Y-94434780D01*
X30762423Y-94434780D01*
X30839833Y-94396076D01*
X30878538Y-94318666D01*
X30878538Y-94202552D01*
X30917242Y-94125142D01*
X30994652Y-94086438D01*
X31033357Y-94086438D01*
X31110766Y-94125142D01*
X31149471Y-94202552D01*
X31149471Y-94318666D01*
X31110766Y-94396076D01*
X30607604Y-94783123D02*
X31420404Y-94783123D01*
X30607604Y-95131466D02*
X31033357Y-95131466D01*
X31110766Y-95092761D01*
X31149471Y-95015352D01*
X31149471Y-94899238D01*
X31110766Y-94821828D01*
X31072061Y-94783123D01*
X30607604Y-95518514D02*
X31420404Y-95518514D01*
X31110766Y-95518514D02*
X31149471Y-95595923D01*
X31149471Y-95750742D01*
X31110766Y-95828152D01*
X31072061Y-95866857D01*
X30994652Y-95905561D01*
X30762423Y-95905561D01*
X30685014Y-95866857D01*
X30646309Y-95828152D01*
X30607604Y-95750742D01*
X30607604Y-95595923D01*
X30646309Y-95518514D01*
X30607604Y-96370019D02*
X30646309Y-96292609D01*
X30685014Y-96253904D01*
X30762423Y-96215200D01*
X30994652Y-96215200D01*
X31072061Y-96253904D01*
X31110766Y-96292609D01*
X31149471Y-96370019D01*
X31149471Y-96486133D01*
X31110766Y-96563542D01*
X31072061Y-96602247D01*
X30994652Y-96640952D01*
X30762423Y-96640952D01*
X30685014Y-96602247D01*
X30646309Y-96563542D01*
X30607604Y-96486133D01*
X30607604Y-96370019D01*
X30607604Y-97337638D02*
X31033357Y-97337638D01*
X31110766Y-97298933D01*
X31149471Y-97221523D01*
X31149471Y-97066704D01*
X31110766Y-96989295D01*
X30646309Y-97337638D02*
X30607604Y-97260228D01*
X30607604Y-97066704D01*
X30646309Y-96989295D01*
X30723719Y-96950590D01*
X30801128Y-96950590D01*
X30878538Y-96989295D01*
X30917242Y-97066704D01*
X30917242Y-97260228D01*
X30955947Y-97337638D01*
X30607604Y-97724685D02*
X31149471Y-97724685D01*
X30994652Y-97724685D02*
X31072061Y-97763390D01*
X31110766Y-97802095D01*
X31149471Y-97879504D01*
X31149471Y-97956914D01*
X30607604Y-98576190D02*
X31420404Y-98576190D01*
X30646309Y-98576190D02*
X30607604Y-98498780D01*
X30607604Y-98343961D01*
X30646309Y-98266552D01*
X30685014Y-98227847D01*
X30762423Y-98189142D01*
X30994652Y-98189142D01*
X31072061Y-98227847D01*
X31110766Y-98266552D01*
X31149471Y-98343961D01*
X31149471Y-98498780D01*
X31110766Y-98576190D01*
X30607604Y-99969561D02*
X30607604Y-99582514D01*
X31420404Y-99582514D01*
X30646309Y-100550133D02*
X30607604Y-100472723D01*
X30607604Y-100317904D01*
X30646309Y-100240495D01*
X30723719Y-100201790D01*
X31033357Y-100201790D01*
X31110766Y-100240495D01*
X31149471Y-100317904D01*
X31149471Y-100472723D01*
X31110766Y-100550133D01*
X31033357Y-100588838D01*
X30955947Y-100588838D01*
X30878538Y-100201790D01*
X31149471Y-100821066D02*
X31149471Y-101130704D01*
X30607604Y-100937180D02*
X31304290Y-100937180D01*
X31381700Y-100975885D01*
X31420404Y-101053295D01*
X31420404Y-101130704D01*
X31149471Y-101285523D02*
X31149471Y-101595161D01*
X31420404Y-101401638D02*
X30723719Y-101401638D01*
X30646309Y-101440342D01*
X30607604Y-101517752D01*
X30607604Y-101595161D01*
X29185204Y-92460838D02*
X29998004Y-92460838D01*
X29727071Y-92847885D02*
X29185204Y-92847885D01*
X29649661Y-92847885D02*
X29688366Y-92886590D01*
X29727071Y-92964000D01*
X29727071Y-93080114D01*
X29688366Y-93157523D01*
X29610957Y-93196228D01*
X29185204Y-93196228D01*
X29727071Y-93467161D02*
X29727071Y-93776800D01*
X29998004Y-93583276D02*
X29301319Y-93583276D01*
X29223909Y-93621980D01*
X29185204Y-93699390D01*
X29185204Y-93776800D01*
X29223909Y-94357371D02*
X29185204Y-94279961D01*
X29185204Y-94125142D01*
X29223909Y-94047733D01*
X29301319Y-94009028D01*
X29610957Y-94009028D01*
X29688366Y-94047733D01*
X29727071Y-94125142D01*
X29727071Y-94279961D01*
X29688366Y-94357371D01*
X29610957Y-94396076D01*
X29533547Y-94396076D01*
X29456138Y-94009028D01*
X29185204Y-94744419D02*
X29727071Y-94744419D01*
X29572252Y-94744419D02*
X29649661Y-94783123D01*
X29688366Y-94821828D01*
X29727071Y-94899238D01*
X29727071Y-94976647D01*
X29727071Y-95131466D02*
X29727071Y-95441104D01*
X29185204Y-95247580D02*
X29881890Y-95247580D01*
X29959300Y-95286285D01*
X29998004Y-95363695D01*
X29998004Y-95441104D01*
X29185204Y-96060380D02*
X29610957Y-96060380D01*
X29688366Y-96021676D01*
X29727071Y-95944266D01*
X29727071Y-95789447D01*
X29688366Y-95712038D01*
X29223909Y-96060380D02*
X29185204Y-95982971D01*
X29185204Y-95789447D01*
X29223909Y-95712038D01*
X29301319Y-95673333D01*
X29378728Y-95673333D01*
X29456138Y-95712038D01*
X29494842Y-95789447D01*
X29494842Y-95982971D01*
X29533547Y-96060380D01*
X29223909Y-96795771D02*
X29185204Y-96718361D01*
X29185204Y-96563542D01*
X29223909Y-96486133D01*
X29262614Y-96447428D01*
X29340023Y-96408723D01*
X29572252Y-96408723D01*
X29649661Y-96447428D01*
X29688366Y-96486133D01*
X29727071Y-96563542D01*
X29727071Y-96718361D01*
X29688366Y-96795771D01*
X29223909Y-97453752D02*
X29185204Y-97376342D01*
X29185204Y-97221523D01*
X29223909Y-97144114D01*
X29301319Y-97105409D01*
X29610957Y-97105409D01*
X29688366Y-97144114D01*
X29727071Y-97221523D01*
X29727071Y-97376342D01*
X29688366Y-97453752D01*
X29610957Y-97492457D01*
X29533547Y-97492457D01*
X29456138Y-97105409D01*
X29610957Y-98731009D02*
X29572252Y-98847123D01*
X29533547Y-98885828D01*
X29456138Y-98924533D01*
X29340023Y-98924533D01*
X29262614Y-98885828D01*
X29223909Y-98847123D01*
X29185204Y-98769714D01*
X29185204Y-98460076D01*
X29998004Y-98460076D01*
X29998004Y-98731009D01*
X29959300Y-98808419D01*
X29920595Y-98847123D01*
X29843185Y-98885828D01*
X29765776Y-98885828D01*
X29688366Y-98847123D01*
X29649661Y-98808419D01*
X29610957Y-98731009D01*
X29610957Y-98460076D01*
X29185204Y-99388990D02*
X29223909Y-99311580D01*
X29262614Y-99272876D01*
X29340023Y-99234171D01*
X29572252Y-99234171D01*
X29649661Y-99272876D01*
X29688366Y-99311580D01*
X29727071Y-99388990D01*
X29727071Y-99505104D01*
X29688366Y-99582514D01*
X29649661Y-99621219D01*
X29572252Y-99659923D01*
X29340023Y-99659923D01*
X29262614Y-99621219D01*
X29223909Y-99582514D01*
X29185204Y-99505104D01*
X29185204Y-99388990D01*
X29185204Y-100356609D02*
X29610957Y-100356609D01*
X29688366Y-100317904D01*
X29727071Y-100240495D01*
X29727071Y-100085676D01*
X29688366Y-100008266D01*
X29223909Y-100356609D02*
X29185204Y-100279200D01*
X29185204Y-100085676D01*
X29223909Y-100008266D01*
X29301319Y-99969561D01*
X29378728Y-99969561D01*
X29456138Y-100008266D01*
X29494842Y-100085676D01*
X29494842Y-100279200D01*
X29533547Y-100356609D01*
X29185204Y-100743657D02*
X29727071Y-100743657D01*
X29572252Y-100743657D02*
X29649661Y-100782361D01*
X29688366Y-100821066D01*
X29727071Y-100898476D01*
X29727071Y-100975885D01*
X29185204Y-101595161D02*
X29998004Y-101595161D01*
X29223909Y-101595161D02*
X29185204Y-101517752D01*
X29185204Y-101362933D01*
X29223909Y-101285523D01*
X29262614Y-101246819D01*
X29340023Y-101208114D01*
X29572252Y-101208114D01*
X29649661Y-101246819D01*
X29688366Y-101285523D01*
X29727071Y-101362933D01*
X29727071Y-101517752D01*
X29688366Y-101595161D01*
X27995033Y-92905942D02*
X27995033Y-93292990D01*
X27762804Y-92828533D02*
X28575604Y-93099466D01*
X27762804Y-93370400D01*
X27762804Y-93757447D02*
X27801509Y-93680038D01*
X27878919Y-93641333D01*
X28575604Y-93641333D01*
X27801509Y-94376723D02*
X27762804Y-94299314D01*
X27762804Y-94144495D01*
X27801509Y-94067085D01*
X27878919Y-94028380D01*
X28188557Y-94028380D01*
X28265966Y-94067085D01*
X28304671Y-94144495D01*
X28304671Y-94299314D01*
X28265966Y-94376723D01*
X28188557Y-94415428D01*
X28111147Y-94415428D01*
X28033738Y-94028380D01*
X27762804Y-94686361D02*
X28304671Y-95112114D01*
X28304671Y-94686361D02*
X27762804Y-95112114D01*
X28575604Y-95963619D02*
X27762804Y-96157142D01*
X28343376Y-96311961D01*
X27762804Y-96466780D01*
X28575604Y-96660304D01*
X27801509Y-97279580D02*
X27762804Y-97202171D01*
X27762804Y-97047352D01*
X27801509Y-96969942D01*
X27878919Y-96931238D01*
X28188557Y-96931238D01*
X28265966Y-96969942D01*
X28304671Y-97047352D01*
X28304671Y-97202171D01*
X28265966Y-97279580D01*
X28188557Y-97318285D01*
X28111147Y-97318285D01*
X28033738Y-96931238D01*
X28304671Y-97666628D02*
X27762804Y-97666628D01*
X28227261Y-97666628D02*
X28265966Y-97705333D01*
X28304671Y-97782742D01*
X28304671Y-97898857D01*
X28265966Y-97976266D01*
X28188557Y-98014971D01*
X27762804Y-98014971D01*
X27801509Y-98363314D02*
X27762804Y-98440723D01*
X27762804Y-98595542D01*
X27801509Y-98672952D01*
X27878919Y-98711657D01*
X27917623Y-98711657D01*
X27995033Y-98672952D01*
X28033738Y-98595542D01*
X28033738Y-98479428D01*
X28072442Y-98402019D01*
X28149852Y-98363314D01*
X28188557Y-98363314D01*
X28265966Y-98402019D01*
X28304671Y-98479428D01*
X28304671Y-98595542D01*
X28265966Y-98672952D01*
X28304671Y-98943885D02*
X28304671Y-99253523D01*
X28575604Y-99060000D02*
X27878919Y-99060000D01*
X27801509Y-99098704D01*
X27762804Y-99176114D01*
X27762804Y-99253523D01*
X27762804Y-99524457D02*
X28304671Y-99524457D01*
X28149852Y-99524457D02*
X28227261Y-99563161D01*
X28265966Y-99601866D01*
X28304671Y-99679276D01*
X28304671Y-99756685D01*
X28304671Y-100375961D02*
X27762804Y-100375961D01*
X28304671Y-100027619D02*
X27878919Y-100027619D01*
X27801509Y-100066323D01*
X27762804Y-100143733D01*
X27762804Y-100259847D01*
X27801509Y-100337257D01*
X27840214Y-100375961D01*
X28304671Y-100763009D02*
X27491871Y-100763009D01*
X28265966Y-100763009D02*
X28304671Y-100840419D01*
X28304671Y-100995238D01*
X28265966Y-101072647D01*
X28227261Y-101111352D01*
X28149852Y-101150057D01*
X27917623Y-101150057D01*
X27840214Y-101111352D01*
X27801509Y-101072647D01*
X27762804Y-100995238D01*
X27762804Y-100840419D01*
X27801509Y-100763009D01*
X26340404Y-96176495D02*
X26727452Y-95905561D01*
X26340404Y-95712038D02*
X27153204Y-95712038D01*
X27153204Y-96021676D01*
X27114500Y-96099085D01*
X27075795Y-96137790D01*
X26998385Y-96176495D01*
X26882271Y-96176495D01*
X26804861Y-96137790D01*
X26766157Y-96099085D01*
X26727452Y-96021676D01*
X26727452Y-95712038D01*
X26766157Y-96524838D02*
X26766157Y-96795771D01*
X26340404Y-96911885D02*
X26340404Y-96524838D01*
X27153204Y-96524838D01*
X27153204Y-96911885D01*
X27153204Y-97144114D02*
X26340404Y-97415047D01*
X27153204Y-97685980D01*
X27075795Y-97918209D02*
X27114500Y-97956914D01*
X27153204Y-98034323D01*
X27153204Y-98227847D01*
X27114500Y-98305257D01*
X27075795Y-98343961D01*
X26998385Y-98382666D01*
X26920976Y-98382666D01*
X26804861Y-98343961D01*
X26340404Y-97879504D01*
X26340404Y-98382666D01*
D12*
G04 #@! TO.C,J1*
X24257000Y-122490000D02*
X24257000Y-114690000D01*
X18535000Y-122490000D02*
X18535000Y-114690000D01*
X18535000Y-114690000D02*
X24257000Y-114690000D01*
X18535000Y-122490000D02*
X24257000Y-122490000D01*
X15225000Y-122490000D02*
X18535000Y-122490000D01*
X15225000Y-114690000D02*
X15225000Y-122490000D01*
X18535000Y-114690000D02*
X15225000Y-114690000D01*
D13*
G04 #@! TO.C,J2*
X91113500Y-125978500D02*
X91113500Y-123848500D01*
X88963500Y-125978500D02*
X91113500Y-125978500D01*
X93673500Y-117388500D02*
X93673500Y-120098500D01*
X90813500Y-117388500D02*
X93673500Y-117388500D01*
X90813500Y-114518500D02*
X90813500Y-117388500D01*
X84613500Y-114518500D02*
X90813500Y-114518500D01*
X84613500Y-120098500D02*
X84613500Y-114518500D01*
X93673500Y-122808500D02*
X93673500Y-120098500D01*
X90813500Y-122808500D02*
X93673500Y-122808500D01*
X90813500Y-125678500D02*
X90813500Y-122808500D01*
X84613500Y-125678500D02*
X90813500Y-125678500D01*
X84613500Y-120098500D02*
X84613500Y-125678500D01*
D12*
G04 #@! TO.C,J4*
X85946516Y-73600697D02*
X95636516Y-73600697D01*
X85946516Y-68300697D02*
X95636516Y-68300697D01*
X95636516Y-68300697D02*
X95636516Y-73600697D01*
X85946516Y-68300697D02*
X85946516Y-73600697D01*
D14*
G04 #@! TO.C,G\002A\002A\002A*
G36*
X24935132Y-108508075D02*
X24901701Y-108727319D01*
X24836570Y-108907128D01*
X24739374Y-109048053D01*
X24609749Y-109150644D01*
X24469645Y-109209339D01*
X24348595Y-109231425D01*
X24193329Y-109240482D01*
X24018579Y-109237075D01*
X23839076Y-109221770D01*
X23669552Y-109195133D01*
X23583900Y-109175326D01*
X23406100Y-109128072D01*
X23398419Y-108981402D01*
X23395742Y-108899351D01*
X23400780Y-108857339D01*
X23416551Y-108844819D01*
X23436519Y-108848227D01*
X23616415Y-108897407D01*
X23768046Y-108929007D01*
X23909574Y-108946069D01*
X24053800Y-108951602D01*
X24173147Y-108950823D01*
X24256934Y-108944719D01*
X24320332Y-108930636D01*
X24378511Y-108905922D01*
X24409081Y-108889480D01*
X24515822Y-108809841D01*
X24590652Y-108704984D01*
X24637072Y-108567946D01*
X24658506Y-108393219D01*
X24648589Y-108155234D01*
X24592715Y-107938880D01*
X24490881Y-107744151D01*
X24343082Y-107571041D01*
X24149313Y-107419545D01*
X23909571Y-107289654D01*
X23826987Y-107254210D01*
X23768456Y-107233635D01*
X23666470Y-107201354D01*
X23526607Y-107158933D01*
X23354447Y-107107940D01*
X23155567Y-107049942D01*
X22935548Y-106986506D01*
X22699969Y-106919200D01*
X22454408Y-106849592D01*
X22204445Y-106779248D01*
X21955658Y-106709736D01*
X21713628Y-106642623D01*
X21483932Y-106579477D01*
X21272151Y-106521866D01*
X21083862Y-106471355D01*
X20924646Y-106429514D01*
X20800081Y-106397909D01*
X20715746Y-106378107D01*
X20691239Y-106373263D01*
X20476584Y-106352752D01*
X20295103Y-106370412D01*
X20146224Y-106426440D01*
X20029372Y-106521038D01*
X19956189Y-106629200D01*
X19923235Y-106697191D01*
X19902841Y-106755219D01*
X19892606Y-106818340D01*
X19890128Y-106901612D01*
X19893005Y-107020091D01*
X19893150Y-107024370D01*
X19899110Y-107149470D01*
X19909446Y-107241013D01*
X19927873Y-107316235D01*
X19958107Y-107392374D01*
X19984361Y-107447500D01*
X20101284Y-107628824D01*
X20263721Y-107792835D01*
X20468712Y-107937423D01*
X20713299Y-108060476D01*
X20974050Y-108153841D01*
X21158200Y-108208947D01*
X21158200Y-108346173D01*
X21154336Y-108421908D01*
X21144384Y-108471747D01*
X21135091Y-108483400D01*
X21083933Y-108473856D01*
X20997673Y-108448051D01*
X20887691Y-108410229D01*
X20765364Y-108364630D01*
X20642071Y-108315497D01*
X20529190Y-108267071D01*
X20438100Y-108223594D01*
X20437873Y-108223476D01*
X20285288Y-108129911D01*
X20131257Y-108010018D01*
X19987004Y-107874610D01*
X19863750Y-107734502D01*
X19772718Y-107600507D01*
X19754052Y-107564553D01*
X19672744Y-107346910D01*
X19624419Y-107111917D01*
X19610678Y-106874714D01*
X19633125Y-106650440D01*
X19649665Y-106578400D01*
X19717662Y-106404656D01*
X19819376Y-106268440D01*
X19957159Y-106167319D01*
X20105667Y-106106757D01*
X20231273Y-106082344D01*
X20387789Y-106071970D01*
X20557233Y-106075891D01*
X20721618Y-106094364D01*
X20740786Y-106097686D01*
X20804108Y-106111784D01*
X20910556Y-106138574D01*
X21054506Y-106176461D01*
X21230333Y-106223853D01*
X21432413Y-106279155D01*
X21655123Y-106340773D01*
X21892837Y-106407115D01*
X22139932Y-106476585D01*
X22390783Y-106547591D01*
X22639766Y-106618539D01*
X22881258Y-106687834D01*
X23109633Y-106753883D01*
X23319268Y-106815093D01*
X23504538Y-106869869D01*
X23659819Y-106916618D01*
X23779488Y-106953746D01*
X23857919Y-106979660D01*
X23874005Y-106985560D01*
X24148441Y-107113920D01*
X24385101Y-107271516D01*
X24582203Y-107455792D01*
X24737964Y-107664187D01*
X24850600Y-107894145D01*
X24918329Y-108143106D01*
X24939367Y-108408513D01*
X24935132Y-108508075D01*
X24935132Y-108508075D01*
G37*
X24935132Y-108508075D02*
X24901701Y-108727319D01*
X24836570Y-108907128D01*
X24739374Y-109048053D01*
X24609749Y-109150644D01*
X24469645Y-109209339D01*
X24348595Y-109231425D01*
X24193329Y-109240482D01*
X24018579Y-109237075D01*
X23839076Y-109221770D01*
X23669552Y-109195133D01*
X23583900Y-109175326D01*
X23406100Y-109128072D01*
X23398419Y-108981402D01*
X23395742Y-108899351D01*
X23400780Y-108857339D01*
X23416551Y-108844819D01*
X23436519Y-108848227D01*
X23616415Y-108897407D01*
X23768046Y-108929007D01*
X23909574Y-108946069D01*
X24053800Y-108951602D01*
X24173147Y-108950823D01*
X24256934Y-108944719D01*
X24320332Y-108930636D01*
X24378511Y-108905922D01*
X24409081Y-108889480D01*
X24515822Y-108809841D01*
X24590652Y-108704984D01*
X24637072Y-108567946D01*
X24658506Y-108393219D01*
X24648589Y-108155234D01*
X24592715Y-107938880D01*
X24490881Y-107744151D01*
X24343082Y-107571041D01*
X24149313Y-107419545D01*
X23909571Y-107289654D01*
X23826987Y-107254210D01*
X23768456Y-107233635D01*
X23666470Y-107201354D01*
X23526607Y-107158933D01*
X23354447Y-107107940D01*
X23155567Y-107049942D01*
X22935548Y-106986506D01*
X22699969Y-106919200D01*
X22454408Y-106849592D01*
X22204445Y-106779248D01*
X21955658Y-106709736D01*
X21713628Y-106642623D01*
X21483932Y-106579477D01*
X21272151Y-106521866D01*
X21083862Y-106471355D01*
X20924646Y-106429514D01*
X20800081Y-106397909D01*
X20715746Y-106378107D01*
X20691239Y-106373263D01*
X20476584Y-106352752D01*
X20295103Y-106370412D01*
X20146224Y-106426440D01*
X20029372Y-106521038D01*
X19956189Y-106629200D01*
X19923235Y-106697191D01*
X19902841Y-106755219D01*
X19892606Y-106818340D01*
X19890128Y-106901612D01*
X19893005Y-107020091D01*
X19893150Y-107024370D01*
X19899110Y-107149470D01*
X19909446Y-107241013D01*
X19927873Y-107316235D01*
X19958107Y-107392374D01*
X19984361Y-107447500D01*
X20101284Y-107628824D01*
X20263721Y-107792835D01*
X20468712Y-107937423D01*
X20713299Y-108060476D01*
X20974050Y-108153841D01*
X21158200Y-108208947D01*
X21158200Y-108346173D01*
X21154336Y-108421908D01*
X21144384Y-108471747D01*
X21135091Y-108483400D01*
X21083933Y-108473856D01*
X20997673Y-108448051D01*
X20887691Y-108410229D01*
X20765364Y-108364630D01*
X20642071Y-108315497D01*
X20529190Y-108267071D01*
X20438100Y-108223594D01*
X20437873Y-108223476D01*
X20285288Y-108129911D01*
X20131257Y-108010018D01*
X19987004Y-107874610D01*
X19863750Y-107734502D01*
X19772718Y-107600507D01*
X19754052Y-107564553D01*
X19672744Y-107346910D01*
X19624419Y-107111917D01*
X19610678Y-106874714D01*
X19633125Y-106650440D01*
X19649665Y-106578400D01*
X19717662Y-106404656D01*
X19819376Y-106268440D01*
X19957159Y-106167319D01*
X20105667Y-106106757D01*
X20231273Y-106082344D01*
X20387789Y-106071970D01*
X20557233Y-106075891D01*
X20721618Y-106094364D01*
X20740786Y-106097686D01*
X20804108Y-106111784D01*
X20910556Y-106138574D01*
X21054506Y-106176461D01*
X21230333Y-106223853D01*
X21432413Y-106279155D01*
X21655123Y-106340773D01*
X21892837Y-106407115D01*
X22139932Y-106476585D01*
X22390783Y-106547591D01*
X22639766Y-106618539D01*
X22881258Y-106687834D01*
X23109633Y-106753883D01*
X23319268Y-106815093D01*
X23504538Y-106869869D01*
X23659819Y-106916618D01*
X23779488Y-106953746D01*
X23857919Y-106979660D01*
X23874005Y-106985560D01*
X24148441Y-107113920D01*
X24385101Y-107271516D01*
X24582203Y-107455792D01*
X24737964Y-107664187D01*
X24850600Y-107894145D01*
X24918329Y-108143106D01*
X24939367Y-108408513D01*
X24935132Y-108508075D01*
G36*
X24928777Y-106772144D02*
X24909557Y-106781600D01*
X24880680Y-106774847D01*
X24806163Y-106755191D01*
X24689253Y-106723533D01*
X24533199Y-106680775D01*
X24341248Y-106627818D01*
X24116649Y-106565564D01*
X23862648Y-106494916D01*
X23582495Y-106416774D01*
X23279437Y-106332041D01*
X22956721Y-106241619D01*
X22617596Y-106146408D01*
X22298380Y-106056622D01*
X21946626Y-105957615D01*
X21607986Y-105862329D01*
X21285745Y-105771688D01*
X20983185Y-105686615D01*
X20703592Y-105608031D01*
X20450250Y-105536859D01*
X20226443Y-105474021D01*
X20035456Y-105420441D01*
X19880573Y-105377039D01*
X19765078Y-105344740D01*
X19692255Y-105324464D01*
X19665950Y-105317269D01*
X19632784Y-105303032D01*
X19615619Y-105272785D01*
X19609395Y-105212880D01*
X19608800Y-105163192D01*
X19610240Y-105083761D01*
X19617921Y-105044130D01*
X19636883Y-105033310D01*
X19665950Y-105038645D01*
X19697739Y-105047469D01*
X19775159Y-105069148D01*
X19894945Y-105102765D01*
X20053832Y-105147400D01*
X20248554Y-105202135D01*
X20475847Y-105266052D01*
X20732444Y-105338233D01*
X21015081Y-105417758D01*
X21320492Y-105503711D01*
X21645411Y-105595171D01*
X21986574Y-105691221D01*
X22326600Y-105786968D01*
X24930100Y-106520138D01*
X24937778Y-106650869D01*
X24938929Y-106731779D01*
X24928777Y-106772144D01*
X24928777Y-106772144D01*
G37*
X24928777Y-106772144D02*
X24909557Y-106781600D01*
X24880680Y-106774847D01*
X24806163Y-106755191D01*
X24689253Y-106723533D01*
X24533199Y-106680775D01*
X24341248Y-106627818D01*
X24116649Y-106565564D01*
X23862648Y-106494916D01*
X23582495Y-106416774D01*
X23279437Y-106332041D01*
X22956721Y-106241619D01*
X22617596Y-106146408D01*
X22298380Y-106056622D01*
X21946626Y-105957615D01*
X21607986Y-105862329D01*
X21285745Y-105771688D01*
X20983185Y-105686615D01*
X20703592Y-105608031D01*
X20450250Y-105536859D01*
X20226443Y-105474021D01*
X20035456Y-105420441D01*
X19880573Y-105377039D01*
X19765078Y-105344740D01*
X19692255Y-105324464D01*
X19665950Y-105317269D01*
X19632784Y-105303032D01*
X19615619Y-105272785D01*
X19609395Y-105212880D01*
X19608800Y-105163192D01*
X19610240Y-105083761D01*
X19617921Y-105044130D01*
X19636883Y-105033310D01*
X19665950Y-105038645D01*
X19697739Y-105047469D01*
X19775159Y-105069148D01*
X19894945Y-105102765D01*
X20053832Y-105147400D01*
X20248554Y-105202135D01*
X20475847Y-105266052D01*
X20732444Y-105338233D01*
X21015081Y-105417758D01*
X21320492Y-105503711D01*
X21645411Y-105595171D01*
X21986574Y-105691221D01*
X22326600Y-105786968D01*
X24930100Y-106520138D01*
X24937778Y-106650869D01*
X24938929Y-106731779D01*
X24928777Y-106772144D01*
G36*
X24938906Y-104180746D02*
X24936869Y-104360404D01*
X24936843Y-104362250D01*
X24933361Y-104574980D01*
X24929347Y-104743461D01*
X24924358Y-104874240D01*
X24917950Y-104973866D01*
X24909678Y-105048891D01*
X24899099Y-105105861D01*
X24885770Y-105151328D01*
X24882821Y-105159388D01*
X24798656Y-105316421D01*
X24678669Y-105446095D01*
X24532380Y-105538141D01*
X24531155Y-105538687D01*
X24393930Y-105579285D01*
X24221631Y-105598065D01*
X24025007Y-105595143D01*
X23814803Y-105570640D01*
X23616394Y-105528549D01*
X23272305Y-105421690D01*
X22973897Y-105292653D01*
X22721139Y-105141417D01*
X22513998Y-104967964D01*
X22352442Y-104772273D01*
X22306820Y-104698800D01*
X22269135Y-104633100D01*
X22243599Y-104588772D01*
X22237365Y-104578101D01*
X22218569Y-104590610D01*
X22173723Y-104629577D01*
X22122780Y-104676905D01*
X22016908Y-104767273D01*
X21913925Y-104828691D01*
X21800227Y-104865839D01*
X21662207Y-104883398D01*
X21513800Y-104886402D01*
X21437288Y-104885146D01*
X21368653Y-104881914D01*
X21301027Y-104875236D01*
X21227544Y-104863642D01*
X21141337Y-104845664D01*
X21035540Y-104819832D01*
X20903286Y-104784679D01*
X20737707Y-104738733D01*
X20531938Y-104680527D01*
X20472400Y-104663600D01*
X20280891Y-104609094D01*
X20103802Y-104558636D01*
X19947397Y-104514013D01*
X19817936Y-104477013D01*
X19721681Y-104449427D01*
X19664894Y-104433042D01*
X19653250Y-104429606D01*
X19626348Y-104410204D01*
X19612722Y-104365186D01*
X19608806Y-104282389D01*
X19608800Y-104277988D01*
X19610763Y-104201997D01*
X19615818Y-104151879D01*
X19620590Y-104140000D01*
X19647033Y-104146630D01*
X19716401Y-104165419D01*
X19822734Y-104194714D01*
X19960071Y-104232863D01*
X20122452Y-104278211D01*
X20303914Y-104329106D01*
X20399740Y-104356062D01*
X20596560Y-104410902D01*
X20784570Y-104462205D01*
X20956320Y-104508021D01*
X21104357Y-104546397D01*
X21221231Y-104575383D01*
X21299491Y-104593028D01*
X21317201Y-104596296D01*
X21512235Y-104607442D01*
X21683147Y-104574783D01*
X21828456Y-104498995D01*
X21946683Y-104380754D01*
X22008782Y-104280527D01*
X22035341Y-104227350D01*
X22055046Y-104180733D01*
X22069080Y-104131859D01*
X22078623Y-104071913D01*
X22084857Y-103992080D01*
X22088962Y-103883545D01*
X22092119Y-103737491D01*
X22093732Y-103646511D01*
X22102163Y-103162100D01*
X21014232Y-102858894D01*
X20781585Y-102793988D01*
X20558714Y-102731681D01*
X20351535Y-102673637D01*
X20165964Y-102621518D01*
X20007917Y-102576987D01*
X19883311Y-102541708D01*
X19798060Y-102517344D01*
X19767550Y-102508444D01*
X19608800Y-102461199D01*
X19608800Y-102335399D01*
X19613140Y-102255350D01*
X19627891Y-102216712D01*
X19646006Y-102209600D01*
X19675027Y-102216351D01*
X19749715Y-102236010D01*
X19866846Y-102267682D01*
X20023199Y-102310473D01*
X20215549Y-102363488D01*
X20440674Y-102425833D01*
X20695352Y-102496615D01*
X20976359Y-102574938D01*
X21280473Y-102659909D01*
X21604471Y-102750634D01*
X21945130Y-102846218D01*
X22299227Y-102945767D01*
X22300764Y-102946200D01*
X22389568Y-102971180D01*
X22389568Y-103251000D01*
X22385581Y-103275027D01*
X22382142Y-103341618D01*
X22379483Y-103442539D01*
X22377835Y-103569555D01*
X22377400Y-103684135D01*
X22379939Y-103898944D01*
X22387870Y-104070360D01*
X22401667Y-104205556D01*
X22417795Y-104294874D01*
X22486209Y-104497629D01*
X22595013Y-104678404D01*
X22745656Y-104838355D01*
X22939589Y-104978637D01*
X23178261Y-105100406D01*
X23463124Y-105204817D01*
X23614768Y-105248594D01*
X23865604Y-105302172D01*
X24081174Y-105319289D01*
X24261607Y-105299926D01*
X24407028Y-105244065D01*
X24517566Y-105151688D01*
X24547825Y-105111048D01*
X24586224Y-105043999D01*
X24615318Y-104969743D01*
X24636288Y-104880338D01*
X24650318Y-104767837D01*
X24658590Y-104624298D01*
X24662285Y-104441775D01*
X24662780Y-104338561D01*
X24662590Y-104176398D01*
X24661059Y-104057949D01*
X24657515Y-103976133D01*
X24651288Y-103923870D01*
X24641708Y-103894079D01*
X24628103Y-103879678D01*
X24618950Y-103875840D01*
X24574738Y-103862926D01*
X24490079Y-103838746D01*
X24370921Y-103804966D01*
X24223214Y-103763254D01*
X24052909Y-103715278D01*
X23865954Y-103662704D01*
X23668300Y-103607202D01*
X23465896Y-103550438D01*
X23264691Y-103494079D01*
X23070635Y-103439794D01*
X22889678Y-103389249D01*
X22727769Y-103344113D01*
X22590858Y-103306053D01*
X22484895Y-103276736D01*
X22415828Y-103257829D01*
X22389609Y-103251001D01*
X22389568Y-103251000D01*
X22389568Y-102971180D01*
X22654383Y-103045674D01*
X22994201Y-103141196D01*
X23317031Y-103231873D01*
X23619687Y-103316813D01*
X23898984Y-103395125D01*
X24151735Y-103465916D01*
X24374755Y-103528295D01*
X24564857Y-103581370D01*
X24718855Y-103624250D01*
X24833564Y-103656042D01*
X24905796Y-103675856D01*
X24932367Y-103682798D01*
X24932402Y-103682800D01*
X24935784Y-103707099D01*
X24938169Y-103775617D01*
X24939513Y-103881780D01*
X24939773Y-104019014D01*
X24938906Y-104180746D01*
X24938906Y-104180746D01*
G37*
X24938906Y-104180746D02*
X24936869Y-104360404D01*
X24936843Y-104362250D01*
X24933361Y-104574980D01*
X24929347Y-104743461D01*
X24924358Y-104874240D01*
X24917950Y-104973866D01*
X24909678Y-105048891D01*
X24899099Y-105105861D01*
X24885770Y-105151328D01*
X24882821Y-105159388D01*
X24798656Y-105316421D01*
X24678669Y-105446095D01*
X24532380Y-105538141D01*
X24531155Y-105538687D01*
X24393930Y-105579285D01*
X24221631Y-105598065D01*
X24025007Y-105595143D01*
X23814803Y-105570640D01*
X23616394Y-105528549D01*
X23272305Y-105421690D01*
X22973897Y-105292653D01*
X22721139Y-105141417D01*
X22513998Y-104967964D01*
X22352442Y-104772273D01*
X22306820Y-104698800D01*
X22269135Y-104633100D01*
X22243599Y-104588772D01*
X22237365Y-104578101D01*
X22218569Y-104590610D01*
X22173723Y-104629577D01*
X22122780Y-104676905D01*
X22016908Y-104767273D01*
X21913925Y-104828691D01*
X21800227Y-104865839D01*
X21662207Y-104883398D01*
X21513800Y-104886402D01*
X21437288Y-104885146D01*
X21368653Y-104881914D01*
X21301027Y-104875236D01*
X21227544Y-104863642D01*
X21141337Y-104845664D01*
X21035540Y-104819832D01*
X20903286Y-104784679D01*
X20737707Y-104738733D01*
X20531938Y-104680527D01*
X20472400Y-104663600D01*
X20280891Y-104609094D01*
X20103802Y-104558636D01*
X19947397Y-104514013D01*
X19817936Y-104477013D01*
X19721681Y-104449427D01*
X19664894Y-104433042D01*
X19653250Y-104429606D01*
X19626348Y-104410204D01*
X19612722Y-104365186D01*
X19608806Y-104282389D01*
X19608800Y-104277988D01*
X19610763Y-104201997D01*
X19615818Y-104151879D01*
X19620590Y-104140000D01*
X19647033Y-104146630D01*
X19716401Y-104165419D01*
X19822734Y-104194714D01*
X19960071Y-104232863D01*
X20122452Y-104278211D01*
X20303914Y-104329106D01*
X20399740Y-104356062D01*
X20596560Y-104410902D01*
X20784570Y-104462205D01*
X20956320Y-104508021D01*
X21104357Y-104546397D01*
X21221231Y-104575383D01*
X21299491Y-104593028D01*
X21317201Y-104596296D01*
X21512235Y-104607442D01*
X21683147Y-104574783D01*
X21828456Y-104498995D01*
X21946683Y-104380754D01*
X22008782Y-104280527D01*
X22035341Y-104227350D01*
X22055046Y-104180733D01*
X22069080Y-104131859D01*
X22078623Y-104071913D01*
X22084857Y-103992080D01*
X22088962Y-103883545D01*
X22092119Y-103737491D01*
X22093732Y-103646511D01*
X22102163Y-103162100D01*
X21014232Y-102858894D01*
X20781585Y-102793988D01*
X20558714Y-102731681D01*
X20351535Y-102673637D01*
X20165964Y-102621518D01*
X20007917Y-102576987D01*
X19883311Y-102541708D01*
X19798060Y-102517344D01*
X19767550Y-102508444D01*
X19608800Y-102461199D01*
X19608800Y-102335399D01*
X19613140Y-102255350D01*
X19627891Y-102216712D01*
X19646006Y-102209600D01*
X19675027Y-102216351D01*
X19749715Y-102236010D01*
X19866846Y-102267682D01*
X20023199Y-102310473D01*
X20215549Y-102363488D01*
X20440674Y-102425833D01*
X20695352Y-102496615D01*
X20976359Y-102574938D01*
X21280473Y-102659909D01*
X21604471Y-102750634D01*
X21945130Y-102846218D01*
X22299227Y-102945767D01*
X22300764Y-102946200D01*
X22389568Y-102971180D01*
X22389568Y-103251000D01*
X22385581Y-103275027D01*
X22382142Y-103341618D01*
X22379483Y-103442539D01*
X22377835Y-103569555D01*
X22377400Y-103684135D01*
X22379939Y-103898944D01*
X22387870Y-104070360D01*
X22401667Y-104205556D01*
X22417795Y-104294874D01*
X22486209Y-104497629D01*
X22595013Y-104678404D01*
X22745656Y-104838355D01*
X22939589Y-104978637D01*
X23178261Y-105100406D01*
X23463124Y-105204817D01*
X23614768Y-105248594D01*
X23865604Y-105302172D01*
X24081174Y-105319289D01*
X24261607Y-105299926D01*
X24407028Y-105244065D01*
X24517566Y-105151688D01*
X24547825Y-105111048D01*
X24586224Y-105043999D01*
X24615318Y-104969743D01*
X24636288Y-104880338D01*
X24650318Y-104767837D01*
X24658590Y-104624298D01*
X24662285Y-104441775D01*
X24662780Y-104338561D01*
X24662590Y-104176398D01*
X24661059Y-104057949D01*
X24657515Y-103976133D01*
X24651288Y-103923870D01*
X24641708Y-103894079D01*
X24628103Y-103879678D01*
X24618950Y-103875840D01*
X24574738Y-103862926D01*
X24490079Y-103838746D01*
X24370921Y-103804966D01*
X24223214Y-103763254D01*
X24052909Y-103715278D01*
X23865954Y-103662704D01*
X23668300Y-103607202D01*
X23465896Y-103550438D01*
X23264691Y-103494079D01*
X23070635Y-103439794D01*
X22889678Y-103389249D01*
X22727769Y-103344113D01*
X22590858Y-103306053D01*
X22484895Y-103276736D01*
X22415828Y-103257829D01*
X22389609Y-103251001D01*
X22389568Y-103251000D01*
X22389568Y-102971180D01*
X22654383Y-103045674D01*
X22994201Y-103141196D01*
X23317031Y-103231873D01*
X23619687Y-103316813D01*
X23898984Y-103395125D01*
X24151735Y-103465916D01*
X24374755Y-103528295D01*
X24564857Y-103581370D01*
X24718855Y-103624250D01*
X24833564Y-103656042D01*
X24905796Y-103675856D01*
X24932367Y-103682798D01*
X24932402Y-103682800D01*
X24935784Y-103707099D01*
X24938169Y-103775617D01*
X24939513Y-103881780D01*
X24939773Y-104019014D01*
X24938906Y-104180746D01*
G36*
X24942659Y-102155298D02*
X24942252Y-102401662D01*
X24941606Y-102627605D01*
X24940746Y-102828561D01*
X24939700Y-102999962D01*
X24938493Y-103137244D01*
X24937152Y-103235840D01*
X24935703Y-103291183D01*
X24934711Y-103301800D01*
X24907941Y-103295185D01*
X24847725Y-103278175D01*
X24795445Y-103262844D01*
X24664269Y-103223889D01*
X24657485Y-102585653D01*
X24650700Y-101947417D01*
X22199600Y-101257343D01*
X21856193Y-101160682D01*
X21525713Y-101067701D01*
X21211554Y-100979352D01*
X20917112Y-100896589D01*
X20645779Y-100820363D01*
X20400950Y-100751628D01*
X20186021Y-100691337D01*
X20004384Y-100640441D01*
X19859435Y-100599895D01*
X19754567Y-100570649D01*
X19693175Y-100553658D01*
X19678650Y-100549750D01*
X19638446Y-100535781D01*
X19617621Y-100510504D01*
X19609856Y-100459741D01*
X19608800Y-100393016D01*
X19609848Y-100316707D01*
X19612549Y-100266279D01*
X19615150Y-100254124D01*
X19639949Y-100260905D01*
X19710405Y-100280550D01*
X19823282Y-100312150D01*
X19975341Y-100354794D01*
X20163344Y-100407572D01*
X20384052Y-100469575D01*
X20634226Y-100539892D01*
X20910629Y-100617615D01*
X21210023Y-100701831D01*
X21529168Y-100791633D01*
X21864827Y-100886109D01*
X22136100Y-100962483D01*
X24650700Y-101670517D01*
X24657492Y-101035810D01*
X24659995Y-100837123D01*
X24662974Y-100683923D01*
X24666793Y-100570894D01*
X24671822Y-100492723D01*
X24678426Y-100444096D01*
X24686971Y-100419700D01*
X24697826Y-100414220D01*
X24700353Y-100414945D01*
X24746892Y-100430098D01*
X24818124Y-100450701D01*
X24839612Y-100456572D01*
X24942800Y-100484358D01*
X24942800Y-101893079D01*
X24942659Y-102155298D01*
X24942659Y-102155298D01*
G37*
X24942659Y-102155298D02*
X24942252Y-102401662D01*
X24941606Y-102627605D01*
X24940746Y-102828561D01*
X24939700Y-102999962D01*
X24938493Y-103137244D01*
X24937152Y-103235840D01*
X24935703Y-103291183D01*
X24934711Y-103301800D01*
X24907941Y-103295185D01*
X24847725Y-103278175D01*
X24795445Y-103262844D01*
X24664269Y-103223889D01*
X24657485Y-102585653D01*
X24650700Y-101947417D01*
X22199600Y-101257343D01*
X21856193Y-101160682D01*
X21525713Y-101067701D01*
X21211554Y-100979352D01*
X20917112Y-100896589D01*
X20645779Y-100820363D01*
X20400950Y-100751628D01*
X20186021Y-100691337D01*
X20004384Y-100640441D01*
X19859435Y-100599895D01*
X19754567Y-100570649D01*
X19693175Y-100553658D01*
X19678650Y-100549750D01*
X19638446Y-100535781D01*
X19617621Y-100510504D01*
X19609856Y-100459741D01*
X19608800Y-100393016D01*
X19609848Y-100316707D01*
X19612549Y-100266279D01*
X19615150Y-100254124D01*
X19639949Y-100260905D01*
X19710405Y-100280550D01*
X19823282Y-100312150D01*
X19975341Y-100354794D01*
X20163344Y-100407572D01*
X20384052Y-100469575D01*
X20634226Y-100539892D01*
X20910629Y-100617615D01*
X21210023Y-100701831D01*
X21529168Y-100791633D01*
X21864827Y-100886109D01*
X22136100Y-100962483D01*
X24650700Y-101670517D01*
X24657492Y-101035810D01*
X24659995Y-100837123D01*
X24662974Y-100683923D01*
X24666793Y-100570894D01*
X24671822Y-100492723D01*
X24678426Y-100444096D01*
X24686971Y-100419700D01*
X24697826Y-100414220D01*
X24700353Y-100414945D01*
X24746892Y-100430098D01*
X24818124Y-100450701D01*
X24839612Y-100456572D01*
X24942800Y-100484358D01*
X24942800Y-101893079D01*
X24942659Y-102155298D01*
G36*
X24928819Y-99306024D02*
X24925534Y-99399924D01*
X24916863Y-99470037D01*
X24900481Y-99529868D01*
X24874065Y-99592920D01*
X24847716Y-99647515D01*
X24749433Y-99797256D01*
X24620021Y-99909560D01*
X24458762Y-99984582D01*
X24264940Y-100022479D01*
X24037836Y-100023405D01*
X23776733Y-99987518D01*
X23539450Y-99931467D01*
X23393400Y-99891505D01*
X23393400Y-99755152D01*
X23395894Y-99679679D01*
X23402313Y-99630163D01*
X23408219Y-99618800D01*
X23438217Y-99624586D01*
X23504503Y-99639934D01*
X23594147Y-99661822D01*
X23617769Y-99667730D01*
X23849054Y-99717047D01*
X24042970Y-99738172D01*
X24204731Y-99730607D01*
X24339554Y-99693857D01*
X24452655Y-99627424D01*
X24502079Y-99583532D01*
X24577914Y-99492804D01*
X24627481Y-99393040D01*
X24653900Y-99273031D01*
X24660290Y-99121566D01*
X24656783Y-99027565D01*
X24646055Y-98899240D01*
X24627310Y-98800332D01*
X24595489Y-98709543D01*
X24566270Y-98646565D01*
X24449126Y-98464748D01*
X24287342Y-98299967D01*
X24085246Y-98155726D01*
X23847163Y-98035528D01*
X23777554Y-98007759D01*
X23720864Y-97988745D01*
X23620891Y-97957856D01*
X23483330Y-97916703D01*
X23313876Y-97866897D01*
X23118223Y-97810050D01*
X22902065Y-97747774D01*
X22671097Y-97681680D01*
X22431014Y-97613378D01*
X22187510Y-97544482D01*
X21946279Y-97476602D01*
X21713016Y-97411350D01*
X21493415Y-97350337D01*
X21293171Y-97295174D01*
X21117979Y-97247474D01*
X20973533Y-97208848D01*
X20865527Y-97180906D01*
X20802600Y-97165885D01*
X20685341Y-97146208D01*
X20559174Y-97133222D01*
X20485100Y-97130182D01*
X20297651Y-97145762D01*
X20147460Y-97194415D01*
X20032976Y-97277791D01*
X19952647Y-97397541D01*
X19904922Y-97555315D01*
X19888248Y-97752765D01*
X19888200Y-97765148D01*
X19910249Y-97995009D01*
X19976701Y-98202841D01*
X20088018Y-98389149D01*
X20244659Y-98554440D01*
X20447085Y-98699221D01*
X20695757Y-98823996D01*
X20929600Y-98910171D01*
X21145500Y-98979492D01*
X21153118Y-99121346D01*
X21155370Y-99198459D01*
X21153257Y-99249978D01*
X21149059Y-99263200D01*
X21121447Y-99255824D01*
X21056571Y-99235969D01*
X20965417Y-99207047D01*
X20900141Y-99185933D01*
X20581225Y-99063143D01*
X20307541Y-98917241D01*
X20079091Y-98748231D01*
X19895879Y-98556114D01*
X19757905Y-98340893D01*
X19665173Y-98102571D01*
X19617684Y-97841150D01*
X19610890Y-97675700D01*
X19615632Y-97560353D01*
X19626848Y-97447950D01*
X19642187Y-97361570D01*
X19643395Y-97356944D01*
X19713963Y-97180029D01*
X19820521Y-97038930D01*
X19962941Y-96933787D01*
X20067745Y-96887233D01*
X20173168Y-96863140D01*
X20313025Y-96850241D01*
X20472191Y-96848586D01*
X20635538Y-96858222D01*
X20787939Y-96879199D01*
X20816108Y-96884830D01*
X20873316Y-96898718D01*
X20973589Y-96924954D01*
X21111150Y-96961921D01*
X21280221Y-97007997D01*
X21475026Y-97061563D01*
X21689787Y-97121001D01*
X21918726Y-97184690D01*
X22156068Y-97251011D01*
X22396034Y-97318344D01*
X22632848Y-97385070D01*
X22860732Y-97449570D01*
X23073909Y-97510224D01*
X23266603Y-97565413D01*
X23433036Y-97613516D01*
X23567431Y-97652915D01*
X23664010Y-97681990D01*
X23698200Y-97692761D01*
X23996540Y-97810023D01*
X24258022Y-97955328D01*
X24480464Y-98126813D01*
X24661685Y-98322618D01*
X24799504Y-98540879D01*
X24862037Y-98686213D01*
X24891679Y-98775632D01*
X24911091Y-98857048D01*
X24922389Y-98945899D01*
X24927691Y-99057623D01*
X24929041Y-99174834D01*
X24928819Y-99306024D01*
X24928819Y-99306024D01*
G37*
X24928819Y-99306024D02*
X24925534Y-99399924D01*
X24916863Y-99470037D01*
X24900481Y-99529868D01*
X24874065Y-99592920D01*
X24847716Y-99647515D01*
X24749433Y-99797256D01*
X24620021Y-99909560D01*
X24458762Y-99984582D01*
X24264940Y-100022479D01*
X24037836Y-100023405D01*
X23776733Y-99987518D01*
X23539450Y-99931467D01*
X23393400Y-99891505D01*
X23393400Y-99755152D01*
X23395894Y-99679679D01*
X23402313Y-99630163D01*
X23408219Y-99618800D01*
X23438217Y-99624586D01*
X23504503Y-99639934D01*
X23594147Y-99661822D01*
X23617769Y-99667730D01*
X23849054Y-99717047D01*
X24042970Y-99738172D01*
X24204731Y-99730607D01*
X24339554Y-99693857D01*
X24452655Y-99627424D01*
X24502079Y-99583532D01*
X24577914Y-99492804D01*
X24627481Y-99393040D01*
X24653900Y-99273031D01*
X24660290Y-99121566D01*
X24656783Y-99027565D01*
X24646055Y-98899240D01*
X24627310Y-98800332D01*
X24595489Y-98709543D01*
X24566270Y-98646565D01*
X24449126Y-98464748D01*
X24287342Y-98299967D01*
X24085246Y-98155726D01*
X23847163Y-98035528D01*
X23777554Y-98007759D01*
X23720864Y-97988745D01*
X23620891Y-97957856D01*
X23483330Y-97916703D01*
X23313876Y-97866897D01*
X23118223Y-97810050D01*
X22902065Y-97747774D01*
X22671097Y-97681680D01*
X22431014Y-97613378D01*
X22187510Y-97544482D01*
X21946279Y-97476602D01*
X21713016Y-97411350D01*
X21493415Y-97350337D01*
X21293171Y-97295174D01*
X21117979Y-97247474D01*
X20973533Y-97208848D01*
X20865527Y-97180906D01*
X20802600Y-97165885D01*
X20685341Y-97146208D01*
X20559174Y-97133222D01*
X20485100Y-97130182D01*
X20297651Y-97145762D01*
X20147460Y-97194415D01*
X20032976Y-97277791D01*
X19952647Y-97397541D01*
X19904922Y-97555315D01*
X19888248Y-97752765D01*
X19888200Y-97765148D01*
X19910249Y-97995009D01*
X19976701Y-98202841D01*
X20088018Y-98389149D01*
X20244659Y-98554440D01*
X20447085Y-98699221D01*
X20695757Y-98823996D01*
X20929600Y-98910171D01*
X21145500Y-98979492D01*
X21153118Y-99121346D01*
X21155370Y-99198459D01*
X21153257Y-99249978D01*
X21149059Y-99263200D01*
X21121447Y-99255824D01*
X21056571Y-99235969D01*
X20965417Y-99207047D01*
X20900141Y-99185933D01*
X20581225Y-99063143D01*
X20307541Y-98917241D01*
X20079091Y-98748231D01*
X19895879Y-98556114D01*
X19757905Y-98340893D01*
X19665173Y-98102571D01*
X19617684Y-97841150D01*
X19610890Y-97675700D01*
X19615632Y-97560353D01*
X19626848Y-97447950D01*
X19642187Y-97361570D01*
X19643395Y-97356944D01*
X19713963Y-97180029D01*
X19820521Y-97038930D01*
X19962941Y-96933787D01*
X20067745Y-96887233D01*
X20173168Y-96863140D01*
X20313025Y-96850241D01*
X20472191Y-96848586D01*
X20635538Y-96858222D01*
X20787939Y-96879199D01*
X20816108Y-96884830D01*
X20873316Y-96898718D01*
X20973589Y-96924954D01*
X21111150Y-96961921D01*
X21280221Y-97007997D01*
X21475026Y-97061563D01*
X21689787Y-97121001D01*
X21918726Y-97184690D01*
X22156068Y-97251011D01*
X22396034Y-97318344D01*
X22632848Y-97385070D01*
X22860732Y-97449570D01*
X23073909Y-97510224D01*
X23266603Y-97565413D01*
X23433036Y-97613516D01*
X23567431Y-97652915D01*
X23664010Y-97681990D01*
X23698200Y-97692761D01*
X23996540Y-97810023D01*
X24258022Y-97955328D01*
X24480464Y-98126813D01*
X24661685Y-98322618D01*
X24799504Y-98540879D01*
X24862037Y-98686213D01*
X24891679Y-98775632D01*
X24911091Y-98857048D01*
X24922389Y-98945899D01*
X24927691Y-99057623D01*
X24929041Y-99174834D01*
X24928819Y-99306024D01*
G36*
X24942191Y-96905725D02*
X24940341Y-97135485D01*
X24937218Y-97316801D01*
X24932789Y-97450841D01*
X24927021Y-97538776D01*
X24919882Y-97581776D01*
X24915948Y-97586800D01*
X24876557Y-97580971D01*
X24808657Y-97566278D01*
X24776248Y-97558384D01*
X24663401Y-97529969D01*
X24663400Y-96695268D01*
X24663400Y-95860567D01*
X24593550Y-95843095D01*
X24554794Y-95832640D01*
X24472583Y-95809900D01*
X24352350Y-95776397D01*
X24199530Y-95733652D01*
X24019554Y-95683185D01*
X23817857Y-95626518D01*
X23599872Y-95565172D01*
X23469600Y-95528464D01*
X22415500Y-95231305D01*
X22408803Y-96053452D01*
X22406171Y-96301939D01*
X22402657Y-96502201D01*
X22398150Y-96656809D01*
X22392542Y-96768333D01*
X22385721Y-96839342D01*
X22377579Y-96872407D01*
X22373650Y-96875600D01*
X22332543Y-96868740D01*
X22265965Y-96851710D01*
X22246997Y-96846179D01*
X22148800Y-96816758D01*
X22148800Y-95156342D01*
X21621750Y-95008162D01*
X21431224Y-94954588D01*
X21209110Y-94892120D01*
X20972717Y-94825626D01*
X20739357Y-94759976D01*
X20526342Y-94700039D01*
X20497800Y-94692007D01*
X19900900Y-94524032D01*
X19894203Y-95344216D01*
X19891253Y-95606649D01*
X19887099Y-95818450D01*
X19881734Y-95979771D01*
X19875152Y-96090766D01*
X19867346Y-96151588D01*
X19861001Y-96164400D01*
X19821839Y-96158575D01*
X19754094Y-96143890D01*
X19721648Y-96135984D01*
X19608800Y-96107569D01*
X19608800Y-95145384D01*
X19609155Y-94887539D01*
X19610300Y-94676660D01*
X19612363Y-94508918D01*
X19615468Y-94380484D01*
X19619740Y-94287528D01*
X19625304Y-94226221D01*
X19632286Y-94192734D01*
X19640252Y-94183200D01*
X19668471Y-94189946D01*
X19742381Y-94209592D01*
X19858779Y-94241246D01*
X20014462Y-94284020D01*
X20206228Y-94337023D01*
X20430874Y-94399363D01*
X20685197Y-94470153D01*
X20965997Y-94548500D01*
X21270069Y-94633516D01*
X21594211Y-94724309D01*
X21935221Y-94819989D01*
X22289897Y-94919667D01*
X22307252Y-94924549D01*
X24942800Y-95665898D01*
X24942800Y-96626349D01*
X24942191Y-96905725D01*
X24942191Y-96905725D01*
G37*
X24942191Y-96905725D02*
X24940341Y-97135485D01*
X24937218Y-97316801D01*
X24932789Y-97450841D01*
X24927021Y-97538776D01*
X24919882Y-97581776D01*
X24915948Y-97586800D01*
X24876557Y-97580971D01*
X24808657Y-97566278D01*
X24776248Y-97558384D01*
X24663401Y-97529969D01*
X24663400Y-96695268D01*
X24663400Y-95860567D01*
X24593550Y-95843095D01*
X24554794Y-95832640D01*
X24472583Y-95809900D01*
X24352350Y-95776397D01*
X24199530Y-95733652D01*
X24019554Y-95683185D01*
X23817857Y-95626518D01*
X23599872Y-95565172D01*
X23469600Y-95528464D01*
X22415500Y-95231305D01*
X22408803Y-96053452D01*
X22406171Y-96301939D01*
X22402657Y-96502201D01*
X22398150Y-96656809D01*
X22392542Y-96768333D01*
X22385721Y-96839342D01*
X22377579Y-96872407D01*
X22373650Y-96875600D01*
X22332543Y-96868740D01*
X22265965Y-96851710D01*
X22246997Y-96846179D01*
X22148800Y-96816758D01*
X22148800Y-95156342D01*
X21621750Y-95008162D01*
X21431224Y-94954588D01*
X21209110Y-94892120D01*
X20972717Y-94825626D01*
X20739357Y-94759976D01*
X20526342Y-94700039D01*
X20497800Y-94692007D01*
X19900900Y-94524032D01*
X19894203Y-95344216D01*
X19891253Y-95606649D01*
X19887099Y-95818450D01*
X19881734Y-95979771D01*
X19875152Y-96090766D01*
X19867346Y-96151588D01*
X19861001Y-96164400D01*
X19821839Y-96158575D01*
X19754094Y-96143890D01*
X19721648Y-96135984D01*
X19608800Y-96107569D01*
X19608800Y-95145384D01*
X19609155Y-94887539D01*
X19610300Y-94676660D01*
X19612363Y-94508918D01*
X19615468Y-94380484D01*
X19619740Y-94287528D01*
X19625304Y-94226221D01*
X19632286Y-94192734D01*
X19640252Y-94183200D01*
X19668471Y-94189946D01*
X19742381Y-94209592D01*
X19858779Y-94241246D01*
X20014462Y-94284020D01*
X20206228Y-94337023D01*
X20430874Y-94399363D01*
X20685197Y-94470153D01*
X20965997Y-94548500D01*
X21270069Y-94633516D01*
X21594211Y-94724309D01*
X21935221Y-94819989D01*
X22289897Y-94919667D01*
X22307252Y-94924549D01*
X24942800Y-95665898D01*
X24942800Y-96626349D01*
X24942191Y-96905725D01*
G36*
X24939635Y-93511403D02*
X24931478Y-93561152D01*
X24923750Y-93572735D01*
X24897174Y-93565868D01*
X24824974Y-93546118D01*
X24710421Y-93514400D01*
X24556780Y-93471630D01*
X24367321Y-93418723D01*
X24145311Y-93356594D01*
X23894019Y-93286158D01*
X23616711Y-93208330D01*
X23316656Y-93124025D01*
X22997123Y-93034158D01*
X22661378Y-92939646D01*
X22402800Y-92866799D01*
X19900900Y-92161726D01*
X19887546Y-93933092D01*
X19805323Y-93915210D01*
X19728091Y-93895581D01*
X19665950Y-93875792D01*
X19608800Y-93854257D01*
X19608800Y-92823217D01*
X19608906Y-92567149D01*
X19609355Y-92357375D01*
X19610344Y-92189390D01*
X19612069Y-92058689D01*
X19614728Y-91960765D01*
X19618517Y-91891112D01*
X19623634Y-91845227D01*
X19630276Y-91818602D01*
X19638638Y-91806732D01*
X19648919Y-91805113D01*
X19653250Y-91806210D01*
X19683318Y-91814875D01*
X19759029Y-91836367D01*
X19877121Y-91869768D01*
X20034331Y-91914158D01*
X20227398Y-91968618D01*
X20453061Y-92032228D01*
X20708056Y-92104070D01*
X20989123Y-92183224D01*
X21292998Y-92268771D01*
X21616422Y-92359792D01*
X21956130Y-92455367D01*
X22275800Y-92545279D01*
X22627464Y-92644187D01*
X22965803Y-92739369D01*
X23287555Y-92829906D01*
X23589459Y-92914877D01*
X23868252Y-92993366D01*
X24120672Y-93064453D01*
X24343458Y-93127220D01*
X24533349Y-93180746D01*
X24687081Y-93224115D01*
X24801393Y-93256407D01*
X24873024Y-93276703D01*
X24898350Y-93283969D01*
X24925254Y-93303392D01*
X24938881Y-93348434D01*
X24942795Y-93431259D01*
X24942800Y-93435611D01*
X24939635Y-93511403D01*
X24939635Y-93511403D01*
G37*
X24939635Y-93511403D02*
X24931478Y-93561152D01*
X24923750Y-93572735D01*
X24897174Y-93565868D01*
X24824974Y-93546118D01*
X24710421Y-93514400D01*
X24556780Y-93471630D01*
X24367321Y-93418723D01*
X24145311Y-93356594D01*
X23894019Y-93286158D01*
X23616711Y-93208330D01*
X23316656Y-93124025D01*
X22997123Y-93034158D01*
X22661378Y-92939646D01*
X22402800Y-92866799D01*
X19900900Y-92161726D01*
X19887546Y-93933092D01*
X19805323Y-93915210D01*
X19728091Y-93895581D01*
X19665950Y-93875792D01*
X19608800Y-93854257D01*
X19608800Y-92823217D01*
X19608906Y-92567149D01*
X19609355Y-92357375D01*
X19610344Y-92189390D01*
X19612069Y-92058689D01*
X19614728Y-91960765D01*
X19618517Y-91891112D01*
X19623634Y-91845227D01*
X19630276Y-91818602D01*
X19638638Y-91806732D01*
X19648919Y-91805113D01*
X19653250Y-91806210D01*
X19683318Y-91814875D01*
X19759029Y-91836367D01*
X19877121Y-91869768D01*
X20034331Y-91914158D01*
X20227398Y-91968618D01*
X20453061Y-92032228D01*
X20708056Y-92104070D01*
X20989123Y-92183224D01*
X21292998Y-92268771D01*
X21616422Y-92359792D01*
X21956130Y-92455367D01*
X22275800Y-92545279D01*
X22627464Y-92644187D01*
X22965803Y-92739369D01*
X23287555Y-92829906D01*
X23589459Y-92914877D01*
X23868252Y-92993366D01*
X24120672Y-93064453D01*
X24343458Y-93127220D01*
X24533349Y-93180746D01*
X24687081Y-93224115D01*
X24801393Y-93256407D01*
X24873024Y-93276703D01*
X24898350Y-93283969D01*
X24925254Y-93303392D01*
X24938881Y-93348434D01*
X24942795Y-93431259D01*
X24942800Y-93435611D01*
X24939635Y-93511403D01*
G36*
X24942316Y-92140110D02*
X24940937Y-92338824D01*
X24938771Y-92515191D01*
X24935929Y-92663694D01*
X24932518Y-92778811D01*
X24928649Y-92855026D01*
X24924431Y-92886817D01*
X24923750Y-92887414D01*
X24889864Y-92880444D01*
X24825928Y-92863240D01*
X24790400Y-92852875D01*
X24676100Y-92818721D01*
X24663400Y-91985601D01*
X24650700Y-91152480D01*
X23545800Y-90840007D01*
X23317869Y-90775641D01*
X23104972Y-90715704D01*
X22912085Y-90661583D01*
X22744188Y-90614666D01*
X22606257Y-90576343D01*
X22503271Y-90548000D01*
X22440206Y-90531026D01*
X22421850Y-90526566D01*
X22417260Y-90550733D01*
X22413068Y-90619745D01*
X22409410Y-90727649D01*
X22406426Y-90868490D01*
X22404252Y-91036316D01*
X22403025Y-91225172D01*
X22402800Y-91351583D01*
X22402800Y-92177567D01*
X22332950Y-92160664D01*
X22257584Y-92139749D01*
X22205950Y-92122709D01*
X22148800Y-92101657D01*
X22148800Y-90451551D01*
X21977350Y-90401022D01*
X21913340Y-90382512D01*
X21807186Y-90352238D01*
X21665669Y-90312115D01*
X21495569Y-90264059D01*
X21303666Y-90209985D01*
X21096741Y-90151809D01*
X20891500Y-90094229D01*
X20683211Y-90035828D01*
X20489216Y-89981383D01*
X20315223Y-89932500D01*
X20166940Y-89890785D01*
X20050076Y-89857844D01*
X19970339Y-89835282D01*
X19933438Y-89824707D01*
X19932650Y-89824470D01*
X19920456Y-89823409D01*
X19910714Y-89831768D01*
X19903151Y-89854560D01*
X19897493Y-89896795D01*
X19893468Y-89963483D01*
X19890800Y-90059635D01*
X19889217Y-90190262D01*
X19888444Y-90360375D01*
X19888208Y-90574984D01*
X19888200Y-90638188D01*
X19887638Y-90837374D01*
X19886044Y-91019293D01*
X19883554Y-91177991D01*
X19880306Y-91307513D01*
X19876437Y-91401904D01*
X19872084Y-91455208D01*
X19869150Y-91465014D01*
X19835265Y-91458043D01*
X19771330Y-91440835D01*
X19735800Y-91430466D01*
X19621500Y-91396304D01*
X19614847Y-90425744D01*
X19613258Y-90178076D01*
X19612348Y-89976561D01*
X19612301Y-89816553D01*
X19613302Y-89693407D01*
X19615538Y-89602477D01*
X19619191Y-89539120D01*
X19624448Y-89498688D01*
X19631493Y-89476538D01*
X19640512Y-89468023D01*
X19651689Y-89468500D01*
X19652947Y-89468867D01*
X19683102Y-89477489D01*
X19758878Y-89498915D01*
X19876986Y-89532221D01*
X20034139Y-89576483D01*
X20227047Y-89630775D01*
X20452423Y-89694172D01*
X20706978Y-89765751D01*
X20987423Y-89844585D01*
X21290470Y-89929749D01*
X21612831Y-90020320D01*
X21951218Y-90115373D01*
X22237700Y-90195829D01*
X22587689Y-90294140D01*
X22924976Y-90388937D01*
X23246210Y-90479276D01*
X23548037Y-90564211D01*
X23827103Y-90642795D01*
X24080054Y-90714085D01*
X24303539Y-90777134D01*
X24494202Y-90830997D01*
X24648691Y-90874728D01*
X24763653Y-90907383D01*
X24835733Y-90928015D01*
X24860250Y-90935223D01*
X24942800Y-90961339D01*
X24942800Y-91924569D01*
X24942316Y-92140110D01*
X24942316Y-92140110D01*
G37*
X24942316Y-92140110D02*
X24940937Y-92338824D01*
X24938771Y-92515191D01*
X24935929Y-92663694D01*
X24932518Y-92778811D01*
X24928649Y-92855026D01*
X24924431Y-92886817D01*
X24923750Y-92887414D01*
X24889864Y-92880444D01*
X24825928Y-92863240D01*
X24790400Y-92852875D01*
X24676100Y-92818721D01*
X24663400Y-91985601D01*
X24650700Y-91152480D01*
X23545800Y-90840007D01*
X23317869Y-90775641D01*
X23104972Y-90715704D01*
X22912085Y-90661583D01*
X22744188Y-90614666D01*
X22606257Y-90576343D01*
X22503271Y-90548000D01*
X22440206Y-90531026D01*
X22421850Y-90526566D01*
X22417260Y-90550733D01*
X22413068Y-90619745D01*
X22409410Y-90727649D01*
X22406426Y-90868490D01*
X22404252Y-91036316D01*
X22403025Y-91225172D01*
X22402800Y-91351583D01*
X22402800Y-92177567D01*
X22332950Y-92160664D01*
X22257584Y-92139749D01*
X22205950Y-92122709D01*
X22148800Y-92101657D01*
X22148800Y-90451551D01*
X21977350Y-90401022D01*
X21913340Y-90382512D01*
X21807186Y-90352238D01*
X21665669Y-90312115D01*
X21495569Y-90264059D01*
X21303666Y-90209985D01*
X21096741Y-90151809D01*
X20891500Y-90094229D01*
X20683211Y-90035828D01*
X20489216Y-89981383D01*
X20315223Y-89932500D01*
X20166940Y-89890785D01*
X20050076Y-89857844D01*
X19970339Y-89835282D01*
X19933438Y-89824707D01*
X19932650Y-89824470D01*
X19920456Y-89823409D01*
X19910714Y-89831768D01*
X19903151Y-89854560D01*
X19897493Y-89896795D01*
X19893468Y-89963483D01*
X19890800Y-90059635D01*
X19889217Y-90190262D01*
X19888444Y-90360375D01*
X19888208Y-90574984D01*
X19888200Y-90638188D01*
X19887638Y-90837374D01*
X19886044Y-91019293D01*
X19883554Y-91177991D01*
X19880306Y-91307513D01*
X19876437Y-91401904D01*
X19872084Y-91455208D01*
X19869150Y-91465014D01*
X19835265Y-91458043D01*
X19771330Y-91440835D01*
X19735800Y-91430466D01*
X19621500Y-91396304D01*
X19614847Y-90425744D01*
X19613258Y-90178076D01*
X19612348Y-89976561D01*
X19612301Y-89816553D01*
X19613302Y-89693407D01*
X19615538Y-89602477D01*
X19619191Y-89539120D01*
X19624448Y-89498688D01*
X19631493Y-89476538D01*
X19640512Y-89468023D01*
X19651689Y-89468500D01*
X19652947Y-89468867D01*
X19683102Y-89477489D01*
X19758878Y-89498915D01*
X19876986Y-89532221D01*
X20034139Y-89576483D01*
X20227047Y-89630775D01*
X20452423Y-89694172D01*
X20706978Y-89765751D01*
X20987423Y-89844585D01*
X21290470Y-89929749D01*
X21612831Y-90020320D01*
X21951218Y-90115373D01*
X22237700Y-90195829D01*
X22587689Y-90294140D01*
X22924976Y-90388937D01*
X23246210Y-90479276D01*
X23548037Y-90564211D01*
X23827103Y-90642795D01*
X24080054Y-90714085D01*
X24303539Y-90777134D01*
X24494202Y-90830997D01*
X24648691Y-90874728D01*
X24763653Y-90907383D01*
X24835733Y-90928015D01*
X24860250Y-90935223D01*
X24942800Y-90961339D01*
X24942800Y-91924569D01*
X24942316Y-92140110D01*
G36*
X24942267Y-88642172D02*
X24938378Y-88710937D01*
X24931173Y-88760077D01*
X24923750Y-88773501D01*
X24897227Y-88766839D01*
X24824977Y-88747307D01*
X24710178Y-88715788D01*
X24556004Y-88673169D01*
X24365632Y-88620333D01*
X24142239Y-88558166D01*
X23889000Y-88487553D01*
X23609092Y-88409378D01*
X23305689Y-88324526D01*
X22981970Y-88233883D01*
X22641109Y-88138333D01*
X22286282Y-88038760D01*
X22257046Y-88030551D01*
X19609392Y-87287100D01*
X19609096Y-87166450D01*
X19614177Y-87086334D01*
X19631130Y-87049743D01*
X19643796Y-87045800D01*
X19673746Y-87042773D01*
X19750405Y-87033993D01*
X19870062Y-87019907D01*
X20029006Y-87000962D01*
X20223526Y-86977605D01*
X20449910Y-86950286D01*
X20704448Y-86919450D01*
X20983428Y-86885546D01*
X21283140Y-86849022D01*
X21599872Y-86810325D01*
X21854892Y-86779100D01*
X22182148Y-86739017D01*
X22495171Y-86700729D01*
X22790260Y-86664683D01*
X23063714Y-86631330D01*
X23311833Y-86601121D01*
X23530914Y-86574504D01*
X23717258Y-86551929D01*
X23867162Y-86533846D01*
X23976927Y-86520705D01*
X24042851Y-86512956D01*
X24061447Y-86510944D01*
X24042070Y-86504021D01*
X23977148Y-86484325D01*
X23870043Y-86452819D01*
X23724117Y-86410467D01*
X23542734Y-86358231D01*
X23329255Y-86297074D01*
X23087043Y-86227959D01*
X22819460Y-86151850D01*
X22529869Y-86069708D01*
X22221632Y-85982499D01*
X21898112Y-85891183D01*
X21856700Y-85879510D01*
X19621500Y-85249531D01*
X19613819Y-85104131D01*
X19611141Y-85022571D01*
X19616248Y-84981050D01*
X19632193Y-84969030D01*
X19651919Y-84972670D01*
X19682217Y-84981327D01*
X19758134Y-85002791D01*
X19876380Y-85036135D01*
X20033665Y-85080434D01*
X20226697Y-85134763D01*
X20452189Y-85198197D01*
X20706848Y-85269809D01*
X20987386Y-85348676D01*
X21290511Y-85433870D01*
X21612935Y-85524467D01*
X21951366Y-85619541D01*
X22237700Y-85699965D01*
X22587719Y-85798296D01*
X22925060Y-85893120D01*
X23246366Y-85983492D01*
X23548282Y-86068464D01*
X23827453Y-86147091D01*
X24080523Y-86218426D01*
X24304137Y-86281524D01*
X24494938Y-86335437D01*
X24649572Y-86379221D01*
X24764683Y-86411927D01*
X24836914Y-86432611D01*
X24861544Y-86439858D01*
X24912530Y-86459400D01*
X24935775Y-86486312D01*
X24940203Y-86537421D01*
X24937744Y-86583567D01*
X24930100Y-86700740D01*
X22714051Y-86967566D01*
X22385369Y-87007376D01*
X22072116Y-87045774D01*
X21777825Y-87082299D01*
X21506031Y-87116494D01*
X21260269Y-87147897D01*
X21044074Y-87176048D01*
X20860980Y-87200489D01*
X20714522Y-87220758D01*
X20608234Y-87236398D01*
X20545651Y-87246946D01*
X20529651Y-87251728D01*
X20557218Y-87260486D01*
X20629387Y-87281743D01*
X20741913Y-87314300D01*
X20890551Y-87356959D01*
X21071056Y-87408524D01*
X21279183Y-87467794D01*
X21510687Y-87533573D01*
X21761322Y-87604663D01*
X22026844Y-87679865D01*
X22303007Y-87757981D01*
X22585567Y-87837814D01*
X22870279Y-87918165D01*
X23152896Y-87997836D01*
X23429175Y-88075630D01*
X23694870Y-88150347D01*
X23945736Y-88220791D01*
X24177528Y-88285763D01*
X24386000Y-88344065D01*
X24566909Y-88394500D01*
X24716008Y-88435868D01*
X24829053Y-88466972D01*
X24901798Y-88486615D01*
X24929999Y-88493597D01*
X24930073Y-88493600D01*
X24938511Y-88515957D01*
X24942443Y-88571330D01*
X24942267Y-88642172D01*
X24942267Y-88642172D01*
G37*
X24942267Y-88642172D02*
X24938378Y-88710937D01*
X24931173Y-88760077D01*
X24923750Y-88773501D01*
X24897227Y-88766839D01*
X24824977Y-88747307D01*
X24710178Y-88715788D01*
X24556004Y-88673169D01*
X24365632Y-88620333D01*
X24142239Y-88558166D01*
X23889000Y-88487553D01*
X23609092Y-88409378D01*
X23305689Y-88324526D01*
X22981970Y-88233883D01*
X22641109Y-88138333D01*
X22286282Y-88038760D01*
X22257046Y-88030551D01*
X19609392Y-87287100D01*
X19609096Y-87166450D01*
X19614177Y-87086334D01*
X19631130Y-87049743D01*
X19643796Y-87045800D01*
X19673746Y-87042773D01*
X19750405Y-87033993D01*
X19870062Y-87019907D01*
X20029006Y-87000962D01*
X20223526Y-86977605D01*
X20449910Y-86950286D01*
X20704448Y-86919450D01*
X20983428Y-86885546D01*
X21283140Y-86849022D01*
X21599872Y-86810325D01*
X21854892Y-86779100D01*
X22182148Y-86739017D01*
X22495171Y-86700729D01*
X22790260Y-86664683D01*
X23063714Y-86631330D01*
X23311833Y-86601121D01*
X23530914Y-86574504D01*
X23717258Y-86551929D01*
X23867162Y-86533846D01*
X23976927Y-86520705D01*
X24042851Y-86512956D01*
X24061447Y-86510944D01*
X24042070Y-86504021D01*
X23977148Y-86484325D01*
X23870043Y-86452819D01*
X23724117Y-86410467D01*
X23542734Y-86358231D01*
X23329255Y-86297074D01*
X23087043Y-86227959D01*
X22819460Y-86151850D01*
X22529869Y-86069708D01*
X22221632Y-85982499D01*
X21898112Y-85891183D01*
X21856700Y-85879510D01*
X19621500Y-85249531D01*
X19613819Y-85104131D01*
X19611141Y-85022571D01*
X19616248Y-84981050D01*
X19632193Y-84969030D01*
X19651919Y-84972670D01*
X19682217Y-84981327D01*
X19758134Y-85002791D01*
X19876380Y-85036135D01*
X20033665Y-85080434D01*
X20226697Y-85134763D01*
X20452189Y-85198197D01*
X20706848Y-85269809D01*
X20987386Y-85348676D01*
X21290511Y-85433870D01*
X21612935Y-85524467D01*
X21951366Y-85619541D01*
X22237700Y-85699965D01*
X22587719Y-85798296D01*
X22925060Y-85893120D01*
X23246366Y-85983492D01*
X23548282Y-86068464D01*
X23827453Y-86147091D01*
X24080523Y-86218426D01*
X24304137Y-86281524D01*
X24494938Y-86335437D01*
X24649572Y-86379221D01*
X24764683Y-86411927D01*
X24836914Y-86432611D01*
X24861544Y-86439858D01*
X24912530Y-86459400D01*
X24935775Y-86486312D01*
X24940203Y-86537421D01*
X24937744Y-86583567D01*
X24930100Y-86700740D01*
X22714051Y-86967566D01*
X22385369Y-87007376D01*
X22072116Y-87045774D01*
X21777825Y-87082299D01*
X21506031Y-87116494D01*
X21260269Y-87147897D01*
X21044074Y-87176048D01*
X20860980Y-87200489D01*
X20714522Y-87220758D01*
X20608234Y-87236398D01*
X20545651Y-87246946D01*
X20529651Y-87251728D01*
X20557218Y-87260486D01*
X20629387Y-87281743D01*
X20741913Y-87314300D01*
X20890551Y-87356959D01*
X21071056Y-87408524D01*
X21279183Y-87467794D01*
X21510687Y-87533573D01*
X21761322Y-87604663D01*
X22026844Y-87679865D01*
X22303007Y-87757981D01*
X22585567Y-87837814D01*
X22870279Y-87918165D01*
X23152896Y-87997836D01*
X23429175Y-88075630D01*
X23694870Y-88150347D01*
X23945736Y-88220791D01*
X24177528Y-88285763D01*
X24386000Y-88344065D01*
X24566909Y-88394500D01*
X24716008Y-88435868D01*
X24829053Y-88466972D01*
X24901798Y-88486615D01*
X24929999Y-88493597D01*
X24930073Y-88493600D01*
X24938511Y-88515957D01*
X24942443Y-88571330D01*
X24942267Y-88642172D01*
G36*
X24941564Y-85925668D02*
X24933732Y-85964093D01*
X24912615Y-85974170D01*
X24872951Y-85967407D01*
X24839388Y-85958507D01*
X24760225Y-85936747D01*
X24638757Y-85903049D01*
X24478279Y-85858337D01*
X24282084Y-85803533D01*
X24053469Y-85739559D01*
X23795727Y-85667338D01*
X23512154Y-85587792D01*
X23206044Y-85501845D01*
X22880691Y-85410418D01*
X22539391Y-85314434D01*
X22212300Y-85222379D01*
X19621500Y-84492981D01*
X19613823Y-84359690D01*
X19613032Y-84285158D01*
X19619224Y-84236471D01*
X19626523Y-84225708D01*
X19653227Y-84232347D01*
X19725654Y-84251860D01*
X19840626Y-84283365D01*
X19994964Y-84325975D01*
X20185492Y-84378805D01*
X20409030Y-84440971D01*
X20662402Y-84511589D01*
X20942428Y-84589772D01*
X21245932Y-84674636D01*
X21569735Y-84765296D01*
X21910658Y-84860868D01*
X22265525Y-84960466D01*
X22294696Y-84968658D01*
X24942491Y-85712300D01*
X24942646Y-85847668D01*
X24941564Y-85925668D01*
X24941564Y-85925668D01*
G37*
X24941564Y-85925668D02*
X24933732Y-85964093D01*
X24912615Y-85974170D01*
X24872951Y-85967407D01*
X24839388Y-85958507D01*
X24760225Y-85936747D01*
X24638757Y-85903049D01*
X24478279Y-85858337D01*
X24282084Y-85803533D01*
X24053469Y-85739559D01*
X23795727Y-85667338D01*
X23512154Y-85587792D01*
X23206044Y-85501845D01*
X22880691Y-85410418D01*
X22539391Y-85314434D01*
X22212300Y-85222379D01*
X19621500Y-84492981D01*
X19613823Y-84359690D01*
X19613032Y-84285158D01*
X19619224Y-84236471D01*
X19626523Y-84225708D01*
X19653227Y-84232347D01*
X19725654Y-84251860D01*
X19840626Y-84283365D01*
X19994964Y-84325975D01*
X20185492Y-84378805D01*
X20409030Y-84440971D01*
X20662402Y-84511589D01*
X20942428Y-84589772D01*
X21245932Y-84674636D01*
X21569735Y-84765296D01*
X21910658Y-84860868D01*
X22265525Y-84960466D01*
X22294696Y-84968658D01*
X24942491Y-85712300D01*
X24942646Y-85847668D01*
X24941564Y-85925668D01*
G36*
X24872950Y-83503377D02*
X24839090Y-83494177D01*
X24759740Y-83472167D01*
X24638309Y-83438302D01*
X24478208Y-83393539D01*
X24282846Y-83338833D01*
X24055632Y-83275141D01*
X23799977Y-83203418D01*
X23519288Y-83124620D01*
X23216977Y-83039704D01*
X22896452Y-82949625D01*
X22561123Y-82855340D01*
X22371928Y-82802123D01*
X22031041Y-82706300D01*
X21703846Y-82614467D01*
X21393671Y-82527551D01*
X21103846Y-82446479D01*
X20837700Y-82372177D01*
X20598563Y-82305572D01*
X20389765Y-82247591D01*
X20214634Y-82199160D01*
X20076501Y-82161205D01*
X19978695Y-82134654D01*
X19924544Y-82120433D01*
X19914478Y-82118200D01*
X19906343Y-82142955D01*
X19899720Y-82217373D01*
X19894601Y-82341679D01*
X19890980Y-82516099D01*
X19888850Y-82740860D01*
X19888200Y-82997253D01*
X19888200Y-83876307D01*
X19821737Y-83859625D01*
X19743792Y-83841424D01*
X19682037Y-83828297D01*
X19608800Y-83813650D01*
X19608800Y-81741114D01*
X19780250Y-81789139D01*
X19828448Y-81802672D01*
X19921992Y-81828968D01*
X20057332Y-81867030D01*
X20230913Y-81915856D01*
X20439185Y-81974447D01*
X20678594Y-82041805D01*
X20945588Y-82116928D01*
X21236614Y-82198819D01*
X21548120Y-82286477D01*
X21876553Y-82378903D01*
X22218361Y-82475097D01*
X22436474Y-82536482D01*
X22780780Y-82633354D01*
X23111157Y-82726251D01*
X23424338Y-82814257D01*
X23717059Y-82896456D01*
X23986053Y-82971933D01*
X24228056Y-83039774D01*
X24439800Y-83099064D01*
X24618022Y-83148886D01*
X24759455Y-83188327D01*
X24860834Y-83216471D01*
X24918893Y-83232403D01*
X24932024Y-83235800D01*
X24937878Y-83258803D01*
X24941791Y-83318244D01*
X24942800Y-83378253D01*
X24942800Y-83520707D01*
X24872950Y-83503377D01*
X24872950Y-83503377D01*
G37*
X24872950Y-83503377D02*
X24839090Y-83494177D01*
X24759740Y-83472167D01*
X24638309Y-83438302D01*
X24478208Y-83393539D01*
X24282846Y-83338833D01*
X24055632Y-83275141D01*
X23799977Y-83203418D01*
X23519288Y-83124620D01*
X23216977Y-83039704D01*
X22896452Y-82949625D01*
X22561123Y-82855340D01*
X22371928Y-82802123D01*
X22031041Y-82706300D01*
X21703846Y-82614467D01*
X21393671Y-82527551D01*
X21103846Y-82446479D01*
X20837700Y-82372177D01*
X20598563Y-82305572D01*
X20389765Y-82247591D01*
X20214634Y-82199160D01*
X20076501Y-82161205D01*
X19978695Y-82134654D01*
X19924544Y-82120433D01*
X19914478Y-82118200D01*
X19906343Y-82142955D01*
X19899720Y-82217373D01*
X19894601Y-82341679D01*
X19890980Y-82516099D01*
X19888850Y-82740860D01*
X19888200Y-82997253D01*
X19888200Y-83876307D01*
X19821737Y-83859625D01*
X19743792Y-83841424D01*
X19682037Y-83828297D01*
X19608800Y-83813650D01*
X19608800Y-81741114D01*
X19780250Y-81789139D01*
X19828448Y-81802672D01*
X19921992Y-81828968D01*
X20057332Y-81867030D01*
X20230913Y-81915856D01*
X20439185Y-81974447D01*
X20678594Y-82041805D01*
X20945588Y-82116928D01*
X21236614Y-82198819D01*
X21548120Y-82286477D01*
X21876553Y-82378903D01*
X22218361Y-82475097D01*
X22436474Y-82536482D01*
X22780780Y-82633354D01*
X23111157Y-82726251D01*
X23424338Y-82814257D01*
X23717059Y-82896456D01*
X23986053Y-82971933D01*
X24228056Y-83039774D01*
X24439800Y-83099064D01*
X24618022Y-83148886D01*
X24759455Y-83188327D01*
X24860834Y-83216471D01*
X24918893Y-83232403D01*
X24932024Y-83235800D01*
X24937878Y-83258803D01*
X24941791Y-83318244D01*
X24942800Y-83378253D01*
X24942800Y-83520707D01*
X24872950Y-83503377D01*
G36*
X24936189Y-81757643D02*
X24899035Y-81956617D01*
X24829040Y-82129047D01*
X24727810Y-82270232D01*
X24596953Y-82375474D01*
X24525323Y-82411328D01*
X24406323Y-82445021D01*
X24254128Y-82464471D01*
X24084558Y-82468779D01*
X23913434Y-82457047D01*
X23857716Y-82449245D01*
X23788811Y-82435019D01*
X23677172Y-82408075D01*
X23528351Y-82369985D01*
X23347899Y-82322317D01*
X23141367Y-82266640D01*
X22914306Y-82204524D01*
X22672267Y-82137539D01*
X22420802Y-82067252D01*
X22165460Y-81995235D01*
X21911794Y-81923056D01*
X21665354Y-81852284D01*
X21431692Y-81784490D01*
X21216359Y-81721241D01*
X21024905Y-81664108D01*
X20862882Y-81614660D01*
X20735841Y-81574466D01*
X20649333Y-81545095D01*
X20621670Y-81534392D01*
X20356422Y-81399271D01*
X20126984Y-81236139D01*
X19936248Y-81048099D01*
X19787106Y-80838250D01*
X19682449Y-80609694D01*
X19647911Y-80490236D01*
X19624105Y-80345902D01*
X19613044Y-80181565D01*
X19614855Y-80016678D01*
X19629668Y-79870696D01*
X19643395Y-79805544D01*
X19714032Y-79628719D01*
X19820568Y-79487445D01*
X19962128Y-79382694D01*
X20064588Y-79337398D01*
X20156929Y-79316646D01*
X20283834Y-79303834D01*
X20429656Y-79299197D01*
X20537083Y-79301917D01*
X20537083Y-79579423D01*
X20386634Y-79583368D01*
X20257768Y-79601543D01*
X20180300Y-79626207D01*
X20066529Y-79693054D01*
X19984295Y-79777737D01*
X19930384Y-79887314D01*
X19901585Y-80028841D01*
X19894684Y-80209373D01*
X19895665Y-80251300D01*
X19901746Y-80379249D01*
X19912738Y-80473441D01*
X19932030Y-80550896D01*
X19963013Y-80628631D01*
X19976596Y-80657700D01*
X20055738Y-80796379D01*
X20155592Y-80920424D01*
X20280612Y-81032510D01*
X20435251Y-81135314D01*
X20623962Y-81231510D01*
X20851199Y-81323775D01*
X21121415Y-81414783D01*
X21348700Y-81482057D01*
X21776707Y-81602890D01*
X22158161Y-81710213D01*
X22495309Y-81804638D01*
X22790399Y-81886776D01*
X23045675Y-81957238D01*
X23263384Y-82016635D01*
X23445773Y-82065577D01*
X23595087Y-82104677D01*
X23713574Y-82134544D01*
X23803479Y-82155790D01*
X23867048Y-82169027D01*
X23886248Y-82172315D01*
X24095129Y-82187683D01*
X24274520Y-82164984D01*
X24422611Y-82104828D01*
X24537594Y-82007823D01*
X24587473Y-81936540D01*
X24615863Y-81882016D01*
X24634268Y-81828838D01*
X24644802Y-81763985D01*
X24649575Y-81674438D01*
X24650700Y-81547175D01*
X24650700Y-81546700D01*
X24649428Y-81417434D01*
X24644049Y-81324338D01*
X24632216Y-81252811D01*
X24611585Y-81188252D01*
X24582425Y-81121619D01*
X24532643Y-81025200D01*
X24477200Y-80932115D01*
X24443669Y-80883534D01*
X24357929Y-80793758D01*
X24236958Y-80697421D01*
X24093941Y-80603350D01*
X23942062Y-80520368D01*
X23822247Y-80467591D01*
X23765778Y-80448355D01*
X23666019Y-80417134D01*
X23528626Y-80375543D01*
X23359255Y-80325201D01*
X23163559Y-80267725D01*
X22947195Y-80204732D01*
X22715817Y-80137841D01*
X22475081Y-80068667D01*
X22230642Y-79998829D01*
X21988156Y-79929945D01*
X21753276Y-79863631D01*
X21531659Y-79801506D01*
X21328960Y-79745186D01*
X21150834Y-79696290D01*
X21002935Y-79656434D01*
X20890921Y-79627236D01*
X20842089Y-79615223D01*
X20693956Y-79589957D01*
X20537083Y-79579423D01*
X20537083Y-79301917D01*
X20578747Y-79302972D01*
X20715457Y-79315397D01*
X20782300Y-79326533D01*
X20832374Y-79338687D01*
X20925699Y-79363151D01*
X21056662Y-79398358D01*
X21219648Y-79442737D01*
X21409041Y-79494722D01*
X21619227Y-79552744D01*
X21844590Y-79615234D01*
X22079516Y-79680624D01*
X22318389Y-79747345D01*
X22555595Y-79813830D01*
X22785518Y-79878510D01*
X23002544Y-79939816D01*
X23201058Y-79996180D01*
X23375445Y-80046034D01*
X23520089Y-80087809D01*
X23629376Y-80119937D01*
X23697691Y-80140849D01*
X23698200Y-80141013D01*
X23984000Y-80253483D01*
X24238532Y-80395251D01*
X24458474Y-80563130D01*
X24640506Y-80753936D01*
X24781304Y-80964482D01*
X24877546Y-81191581D01*
X24905547Y-81298865D01*
X24938895Y-81536825D01*
X24936189Y-81757643D01*
X24936189Y-81757643D01*
G37*
X24936189Y-81757643D02*
X24899035Y-81956617D01*
X24829040Y-82129047D01*
X24727810Y-82270232D01*
X24596953Y-82375474D01*
X24525323Y-82411328D01*
X24406323Y-82445021D01*
X24254128Y-82464471D01*
X24084558Y-82468779D01*
X23913434Y-82457047D01*
X23857716Y-82449245D01*
X23788811Y-82435019D01*
X23677172Y-82408075D01*
X23528351Y-82369985D01*
X23347899Y-82322317D01*
X23141367Y-82266640D01*
X22914306Y-82204524D01*
X22672267Y-82137539D01*
X22420802Y-82067252D01*
X22165460Y-81995235D01*
X21911794Y-81923056D01*
X21665354Y-81852284D01*
X21431692Y-81784490D01*
X21216359Y-81721241D01*
X21024905Y-81664108D01*
X20862882Y-81614660D01*
X20735841Y-81574466D01*
X20649333Y-81545095D01*
X20621670Y-81534392D01*
X20356422Y-81399271D01*
X20126984Y-81236139D01*
X19936248Y-81048099D01*
X19787106Y-80838250D01*
X19682449Y-80609694D01*
X19647911Y-80490236D01*
X19624105Y-80345902D01*
X19613044Y-80181565D01*
X19614855Y-80016678D01*
X19629668Y-79870696D01*
X19643395Y-79805544D01*
X19714032Y-79628719D01*
X19820568Y-79487445D01*
X19962128Y-79382694D01*
X20064588Y-79337398D01*
X20156929Y-79316646D01*
X20283834Y-79303834D01*
X20429656Y-79299197D01*
X20537083Y-79301917D01*
X20537083Y-79579423D01*
X20386634Y-79583368D01*
X20257768Y-79601543D01*
X20180300Y-79626207D01*
X20066529Y-79693054D01*
X19984295Y-79777737D01*
X19930384Y-79887314D01*
X19901585Y-80028841D01*
X19894684Y-80209373D01*
X19895665Y-80251300D01*
X19901746Y-80379249D01*
X19912738Y-80473441D01*
X19932030Y-80550896D01*
X19963013Y-80628631D01*
X19976596Y-80657700D01*
X20055738Y-80796379D01*
X20155592Y-80920424D01*
X20280612Y-81032510D01*
X20435251Y-81135314D01*
X20623962Y-81231510D01*
X20851199Y-81323775D01*
X21121415Y-81414783D01*
X21348700Y-81482057D01*
X21776707Y-81602890D01*
X22158161Y-81710213D01*
X22495309Y-81804638D01*
X22790399Y-81886776D01*
X23045675Y-81957238D01*
X23263384Y-82016635D01*
X23445773Y-82065577D01*
X23595087Y-82104677D01*
X23713574Y-82134544D01*
X23803479Y-82155790D01*
X23867048Y-82169027D01*
X23886248Y-82172315D01*
X24095129Y-82187683D01*
X24274520Y-82164984D01*
X24422611Y-82104828D01*
X24537594Y-82007823D01*
X24587473Y-81936540D01*
X24615863Y-81882016D01*
X24634268Y-81828838D01*
X24644802Y-81763985D01*
X24649575Y-81674438D01*
X24650700Y-81547175D01*
X24650700Y-81546700D01*
X24649428Y-81417434D01*
X24644049Y-81324338D01*
X24632216Y-81252811D01*
X24611585Y-81188252D01*
X24582425Y-81121619D01*
X24532643Y-81025200D01*
X24477200Y-80932115D01*
X24443669Y-80883534D01*
X24357929Y-80793758D01*
X24236958Y-80697421D01*
X24093941Y-80603350D01*
X23942062Y-80520368D01*
X23822247Y-80467591D01*
X23765778Y-80448355D01*
X23666019Y-80417134D01*
X23528626Y-80375543D01*
X23359255Y-80325201D01*
X23163559Y-80267725D01*
X22947195Y-80204732D01*
X22715817Y-80137841D01*
X22475081Y-80068667D01*
X22230642Y-79998829D01*
X21988156Y-79929945D01*
X21753276Y-79863631D01*
X21531659Y-79801506D01*
X21328960Y-79745186D01*
X21150834Y-79696290D01*
X21002935Y-79656434D01*
X20890921Y-79627236D01*
X20842089Y-79615223D01*
X20693956Y-79589957D01*
X20537083Y-79579423D01*
X20537083Y-79301917D01*
X20578747Y-79302972D01*
X20715457Y-79315397D01*
X20782300Y-79326533D01*
X20832374Y-79338687D01*
X20925699Y-79363151D01*
X21056662Y-79398358D01*
X21219648Y-79442737D01*
X21409041Y-79494722D01*
X21619227Y-79552744D01*
X21844590Y-79615234D01*
X22079516Y-79680624D01*
X22318389Y-79747345D01*
X22555595Y-79813830D01*
X22785518Y-79878510D01*
X23002544Y-79939816D01*
X23201058Y-79996180D01*
X23375445Y-80046034D01*
X23520089Y-80087809D01*
X23629376Y-80119937D01*
X23697691Y-80140849D01*
X23698200Y-80141013D01*
X23984000Y-80253483D01*
X24238532Y-80395251D01*
X24458474Y-80563130D01*
X24640506Y-80753936D01*
X24781304Y-80964482D01*
X24877546Y-81191581D01*
X24905547Y-81298865D01*
X24938895Y-81536825D01*
X24936189Y-81757643D01*
G36*
X24872951Y-78880688D02*
X24839428Y-78871653D01*
X24760369Y-78849528D01*
X24639060Y-78815252D01*
X24478789Y-78769762D01*
X24282844Y-78713996D01*
X24054513Y-78648893D01*
X23797083Y-78575391D01*
X23513841Y-78494427D01*
X23208076Y-78406939D01*
X22883075Y-78313866D01*
X22542126Y-78216146D01*
X22212300Y-78121541D01*
X19621500Y-77378143D01*
X19614873Y-76304671D01*
X19613354Y-76042969D01*
X19612436Y-75827641D01*
X19612279Y-75654264D01*
X19613042Y-75518412D01*
X19614884Y-75415662D01*
X19617965Y-75341591D01*
X19622442Y-75291774D01*
X19628477Y-75261788D01*
X19636226Y-75247207D01*
X19645850Y-75243609D01*
X19652973Y-75244998D01*
X19683043Y-75253745D01*
X19758695Y-75275541D01*
X19876673Y-75309453D01*
X20033721Y-75354547D01*
X20226584Y-75409890D01*
X20452007Y-75474548D01*
X20706733Y-75547586D01*
X20987507Y-75628072D01*
X21291073Y-75715072D01*
X21614176Y-75807652D01*
X21953559Y-75904879D01*
X22275800Y-75997178D01*
X22627227Y-76097834D01*
X22965350Y-76194691D01*
X23286912Y-76286814D01*
X23588661Y-76373272D01*
X23867339Y-76453131D01*
X24119692Y-76525458D01*
X24342465Y-76589319D01*
X24532403Y-76643783D01*
X24686250Y-76687916D01*
X24800751Y-76720785D01*
X24872651Y-76741456D01*
X24898350Y-76748891D01*
X24909239Y-76754915D01*
X24918195Y-76768869D01*
X24925408Y-76795302D01*
X24931065Y-76838761D01*
X24935351Y-76903792D01*
X24938454Y-76994944D01*
X24940562Y-77116764D01*
X24941862Y-77273799D01*
X24942539Y-77470596D01*
X24942783Y-77711703D01*
X24942800Y-77829329D01*
X24942800Y-78896436D01*
X24872951Y-78880688D01*
X24872951Y-78880688D01*
G37*
X24872951Y-78880688D02*
X24839428Y-78871653D01*
X24760369Y-78849528D01*
X24639060Y-78815252D01*
X24478789Y-78769762D01*
X24282844Y-78713996D01*
X24054513Y-78648893D01*
X23797083Y-78575391D01*
X23513841Y-78494427D01*
X23208076Y-78406939D01*
X22883075Y-78313866D01*
X22542126Y-78216146D01*
X22212300Y-78121541D01*
X19621500Y-77378143D01*
X19614873Y-76304671D01*
X19613354Y-76042969D01*
X19612436Y-75827641D01*
X19612279Y-75654264D01*
X19613042Y-75518412D01*
X19614884Y-75415662D01*
X19617965Y-75341591D01*
X19622442Y-75291774D01*
X19628477Y-75261788D01*
X19636226Y-75247207D01*
X19645850Y-75243609D01*
X19652973Y-75244998D01*
X19683043Y-75253745D01*
X19758695Y-75275541D01*
X19876673Y-75309453D01*
X20033721Y-75354547D01*
X20226584Y-75409890D01*
X20452007Y-75474548D01*
X20706733Y-75547586D01*
X20987507Y-75628072D01*
X21291073Y-75715072D01*
X21614176Y-75807652D01*
X21953559Y-75904879D01*
X22275800Y-75997178D01*
X22627227Y-76097834D01*
X22965350Y-76194691D01*
X23286912Y-76286814D01*
X23588661Y-76373272D01*
X23867339Y-76453131D01*
X24119692Y-76525458D01*
X24342465Y-76589319D01*
X24532403Y-76643783D01*
X24686250Y-76687916D01*
X24800751Y-76720785D01*
X24872651Y-76741456D01*
X24898350Y-76748891D01*
X24909239Y-76754915D01*
X24918195Y-76768869D01*
X24925408Y-76795302D01*
X24931065Y-76838761D01*
X24935351Y-76903792D01*
X24938454Y-76994944D01*
X24940562Y-77116764D01*
X24941862Y-77273799D01*
X24942539Y-77470596D01*
X24942783Y-77711703D01*
X24942800Y-77829329D01*
X24942800Y-78896436D01*
X24872951Y-78880688D01*
G36*
X24942689Y-75614279D02*
X24942216Y-75818839D01*
X24941172Y-75981781D01*
X24939349Y-76107698D01*
X24936539Y-76201179D01*
X24932533Y-76266817D01*
X24927122Y-76309202D01*
X24920098Y-76332927D01*
X24911252Y-76342581D01*
X24900377Y-76342757D01*
X24898350Y-76342186D01*
X24868319Y-76333462D01*
X24792705Y-76311689D01*
X24674764Y-76277799D01*
X24517751Y-76232727D01*
X24324921Y-76177406D01*
X24099529Y-76112769D01*
X23844831Y-76039749D01*
X23564082Y-75959281D01*
X23260537Y-75872297D01*
X22937452Y-75779730D01*
X22598081Y-75682515D01*
X22275800Y-75590210D01*
X21924373Y-75489558D01*
X21586249Y-75392704D01*
X21264685Y-75300580D01*
X20962936Y-75214121D01*
X20684258Y-75134258D01*
X20431904Y-75061925D01*
X20209131Y-74998055D01*
X20019194Y-74943582D01*
X19865347Y-74899439D01*
X19750847Y-74866558D01*
X19678948Y-74845872D01*
X19653250Y-74838423D01*
X19641987Y-74832173D01*
X19632796Y-74817759D01*
X19625469Y-74790457D01*
X19619796Y-74745545D01*
X19615569Y-74678298D01*
X19612579Y-74583995D01*
X19610616Y-74457911D01*
X19609471Y-74295324D01*
X19608936Y-74091510D01*
X19608801Y-73841746D01*
X19608800Y-73834376D01*
X19608912Y-73583852D01*
X19609386Y-73379534D01*
X19610431Y-73216830D01*
X19612257Y-73091146D01*
X19615072Y-72997889D01*
X19619085Y-72932467D01*
X19624507Y-72890285D01*
X19631545Y-72866752D01*
X19640409Y-72857273D01*
X19651307Y-72857256D01*
X19653250Y-72857824D01*
X19686212Y-72867538D01*
X19763483Y-72889927D01*
X19881221Y-72923890D01*
X20035585Y-72968324D01*
X20222731Y-73022130D01*
X20438819Y-73084207D01*
X20680004Y-73153453D01*
X20942447Y-73228768D01*
X21222303Y-73309050D01*
X21515731Y-73393200D01*
X21818890Y-73480114D01*
X22127936Y-73568694D01*
X22439027Y-73657838D01*
X22748322Y-73746444D01*
X23051977Y-73833412D01*
X23346152Y-73917642D01*
X23627003Y-73998031D01*
X23890689Y-74073480D01*
X24133367Y-74142887D01*
X24351196Y-74205151D01*
X24540332Y-74259171D01*
X24696934Y-74303846D01*
X24817160Y-74338076D01*
X24897167Y-74360759D01*
X24933114Y-74370795D01*
X24934759Y-74371200D01*
X24936533Y-74395693D01*
X24938171Y-74465545D01*
X24939630Y-74575317D01*
X24940865Y-74719566D01*
X24941832Y-74892853D01*
X24942487Y-75089738D01*
X24942786Y-75304778D01*
X24942800Y-75363511D01*
X24942689Y-75614279D01*
X24942689Y-75614279D01*
G37*
X24942689Y-75614279D02*
X24942216Y-75818839D01*
X24941172Y-75981781D01*
X24939349Y-76107698D01*
X24936539Y-76201179D01*
X24932533Y-76266817D01*
X24927122Y-76309202D01*
X24920098Y-76332927D01*
X24911252Y-76342581D01*
X24900377Y-76342757D01*
X24898350Y-76342186D01*
X24868319Y-76333462D01*
X24792705Y-76311689D01*
X24674764Y-76277799D01*
X24517751Y-76232727D01*
X24324921Y-76177406D01*
X24099529Y-76112769D01*
X23844831Y-76039749D01*
X23564082Y-75959281D01*
X23260537Y-75872297D01*
X22937452Y-75779730D01*
X22598081Y-75682515D01*
X22275800Y-75590210D01*
X21924373Y-75489558D01*
X21586249Y-75392704D01*
X21264685Y-75300580D01*
X20962936Y-75214121D01*
X20684258Y-75134258D01*
X20431904Y-75061925D01*
X20209131Y-74998055D01*
X20019194Y-74943582D01*
X19865347Y-74899439D01*
X19750847Y-74866558D01*
X19678948Y-74845872D01*
X19653250Y-74838423D01*
X19641987Y-74832173D01*
X19632796Y-74817759D01*
X19625469Y-74790457D01*
X19619796Y-74745545D01*
X19615569Y-74678298D01*
X19612579Y-74583995D01*
X19610616Y-74457911D01*
X19609471Y-74295324D01*
X19608936Y-74091510D01*
X19608801Y-73841746D01*
X19608800Y-73834376D01*
X19608912Y-73583852D01*
X19609386Y-73379534D01*
X19610431Y-73216830D01*
X19612257Y-73091146D01*
X19615072Y-72997889D01*
X19619085Y-72932467D01*
X19624507Y-72890285D01*
X19631545Y-72866752D01*
X19640409Y-72857273D01*
X19651307Y-72857256D01*
X19653250Y-72857824D01*
X19686212Y-72867538D01*
X19763483Y-72889927D01*
X19881221Y-72923890D01*
X20035585Y-72968324D01*
X20222731Y-73022130D01*
X20438819Y-73084207D01*
X20680004Y-73153453D01*
X20942447Y-73228768D01*
X21222303Y-73309050D01*
X21515731Y-73393200D01*
X21818890Y-73480114D01*
X22127936Y-73568694D01*
X22439027Y-73657838D01*
X22748322Y-73746444D01*
X23051977Y-73833412D01*
X23346152Y-73917642D01*
X23627003Y-73998031D01*
X23890689Y-74073480D01*
X24133367Y-74142887D01*
X24351196Y-74205151D01*
X24540332Y-74259171D01*
X24696934Y-74303846D01*
X24817160Y-74338076D01*
X24897167Y-74360759D01*
X24933114Y-74370795D01*
X24934759Y-74371200D01*
X24936533Y-74395693D01*
X24938171Y-74465545D01*
X24939630Y-74575317D01*
X24940865Y-74719566D01*
X24941832Y-74892853D01*
X24942487Y-75089738D01*
X24942786Y-75304778D01*
X24942800Y-75363511D01*
X24942689Y-75614279D01*
G36*
X24938916Y-73781214D02*
X24936520Y-73861707D01*
X24932033Y-73913837D01*
X24925122Y-73943212D01*
X24915453Y-73955440D01*
X24902693Y-73956130D01*
X24898783Y-73955098D01*
X24868545Y-73946368D01*
X24792810Y-73924624D01*
X24674920Y-73890823D01*
X24518221Y-73845922D01*
X24326055Y-73790878D01*
X24101766Y-73726650D01*
X23848697Y-73654194D01*
X23570192Y-73574468D01*
X23269594Y-73488429D01*
X22950247Y-73397035D01*
X22615494Y-73301243D01*
X22402800Y-73240385D01*
X22057004Y-73141433D01*
X21722336Y-73045644D01*
X21402373Y-72954042D01*
X21100689Y-72867651D01*
X20820858Y-72787496D01*
X20566456Y-72714602D01*
X20341057Y-72649991D01*
X20148236Y-72594690D01*
X19991568Y-72549722D01*
X19874627Y-72516111D01*
X19800989Y-72494883D01*
X19780250Y-72488860D01*
X19608800Y-72438648D01*
X19608800Y-71792024D01*
X19609349Y-71584763D01*
X19611146Y-71423679D01*
X19614418Y-71304159D01*
X19619392Y-71221590D01*
X19626295Y-71171361D01*
X19635355Y-71148857D01*
X19640550Y-71146549D01*
X19668775Y-71153585D01*
X19742616Y-71173771D01*
X19858874Y-71206196D01*
X20014348Y-71249952D01*
X20205840Y-71304128D01*
X20430150Y-71367816D01*
X20684078Y-71440104D01*
X20964425Y-71520083D01*
X21267991Y-71606844D01*
X21591577Y-71699477D01*
X21931983Y-71797071D01*
X22286009Y-71898718D01*
X22301200Y-71903083D01*
X24930100Y-72658466D01*
X24936883Y-73313482D01*
X24938764Y-73512710D01*
X24939553Y-73666751D01*
X24938916Y-73781214D01*
X24938916Y-73781214D01*
G37*
X24938916Y-73781214D02*
X24936520Y-73861707D01*
X24932033Y-73913837D01*
X24925122Y-73943212D01*
X24915453Y-73955440D01*
X24902693Y-73956130D01*
X24898783Y-73955098D01*
X24868545Y-73946368D01*
X24792810Y-73924624D01*
X24674920Y-73890823D01*
X24518221Y-73845922D01*
X24326055Y-73790878D01*
X24101766Y-73726650D01*
X23848697Y-73654194D01*
X23570192Y-73574468D01*
X23269594Y-73488429D01*
X22950247Y-73397035D01*
X22615494Y-73301243D01*
X22402800Y-73240385D01*
X22057004Y-73141433D01*
X21722336Y-73045644D01*
X21402373Y-72954042D01*
X21100689Y-72867651D01*
X20820858Y-72787496D01*
X20566456Y-72714602D01*
X20341057Y-72649991D01*
X20148236Y-72594690D01*
X19991568Y-72549722D01*
X19874627Y-72516111D01*
X19800989Y-72494883D01*
X19780250Y-72488860D01*
X19608800Y-72438648D01*
X19608800Y-71792024D01*
X19609349Y-71584763D01*
X19611146Y-71423679D01*
X19614418Y-71304159D01*
X19619392Y-71221590D01*
X19626295Y-71171361D01*
X19635355Y-71148857D01*
X19640550Y-71146549D01*
X19668775Y-71153585D01*
X19742616Y-71173771D01*
X19858874Y-71206196D01*
X20014348Y-71249952D01*
X20205840Y-71304128D01*
X20430150Y-71367816D01*
X20684078Y-71440104D01*
X20964425Y-71520083D01*
X21267991Y-71606844D01*
X21591577Y-71699477D01*
X21931983Y-71797071D01*
X22286009Y-71898718D01*
X22301200Y-71903083D01*
X24930100Y-72658466D01*
X24936883Y-73313482D01*
X24938764Y-73512710D01*
X24939553Y-73666751D01*
X24938916Y-73781214D01*
G36*
X24942493Y-72068810D02*
X24940501Y-72153960D01*
X24935220Y-72204681D01*
X24925044Y-72229158D01*
X24908368Y-72235576D01*
X24885651Y-72232520D01*
X24853909Y-72224154D01*
X24776592Y-72202703D01*
X24656955Y-72169093D01*
X24498252Y-72124249D01*
X24303737Y-72069097D01*
X24076666Y-72004564D01*
X23820292Y-71931574D01*
X23537870Y-71851055D01*
X23232654Y-71763930D01*
X22907900Y-71671127D01*
X22566862Y-71573571D01*
X22218803Y-71473909D01*
X19609105Y-70726300D01*
X19608953Y-70416364D01*
X19608800Y-70106429D01*
X19717016Y-70138997D01*
X19755954Y-70150371D01*
X19840351Y-70174768D01*
X19966831Y-70211218D01*
X20132018Y-70258751D01*
X20332536Y-70316397D01*
X20565010Y-70383188D01*
X20826063Y-70458153D01*
X21112320Y-70540322D01*
X21420404Y-70628726D01*
X21746939Y-70722395D01*
X22088550Y-70820360D01*
X22384016Y-70905068D01*
X24942800Y-71638571D01*
X24942800Y-71941046D01*
X24942493Y-72068810D01*
X24942493Y-72068810D01*
G37*
X24942493Y-72068810D02*
X24940501Y-72153960D01*
X24935220Y-72204681D01*
X24925044Y-72229158D01*
X24908368Y-72235576D01*
X24885651Y-72232520D01*
X24853909Y-72224154D01*
X24776592Y-72202703D01*
X24656955Y-72169093D01*
X24498252Y-72124249D01*
X24303737Y-72069097D01*
X24076666Y-72004564D01*
X23820292Y-71931574D01*
X23537870Y-71851055D01*
X23232654Y-71763930D01*
X22907900Y-71671127D01*
X22566862Y-71573571D01*
X22218803Y-71473909D01*
X19609105Y-70726300D01*
X19608953Y-70416364D01*
X19608800Y-70106429D01*
X19717016Y-70138997D01*
X19755954Y-70150371D01*
X19840351Y-70174768D01*
X19966831Y-70211218D01*
X20132018Y-70258751D01*
X20332536Y-70316397D01*
X20565010Y-70383188D01*
X20826063Y-70458153D01*
X21112320Y-70540322D01*
X21420404Y-70628726D01*
X21746939Y-70722395D01*
X22088550Y-70820360D01*
X22384016Y-70905068D01*
X24942800Y-71638571D01*
X24942800Y-71941046D01*
X24942493Y-72068810D01*
G36*
X18084800Y-105003600D02*
X18084800Y-104571800D01*
X16738600Y-104571800D01*
X16738600Y-104216200D01*
X18084800Y-104216200D01*
X18084800Y-103809800D01*
X18389600Y-103809800D01*
X18389600Y-105003600D01*
X18084800Y-105003600D01*
X18084800Y-105003600D01*
G37*
X18084800Y-105003600D02*
X18084800Y-104571800D01*
X16738600Y-104571800D01*
X16738600Y-104216200D01*
X18084800Y-104216200D01*
X18084800Y-103809800D01*
X18389600Y-103809800D01*
X18389600Y-105003600D01*
X18084800Y-105003600D01*
G36*
X18389459Y-100590350D02*
X18386980Y-100776229D01*
X18378597Y-100920509D01*
X18362645Y-101032212D01*
X18337458Y-101120363D01*
X18301371Y-101193983D01*
X18269405Y-101240814D01*
X18172244Y-101330339D01*
X18045295Y-101391389D01*
X17903030Y-101420420D01*
X17759922Y-101413890D01*
X17670049Y-101387553D01*
X17600298Y-101344836D01*
X17527484Y-101280215D01*
X17468898Y-101210702D01*
X17444827Y-101165979D01*
X17419362Y-101165698D01*
X17354393Y-101189283D01*
X17254224Y-101234887D01*
X17123161Y-101300661D01*
X17086798Y-101319659D01*
X16738600Y-101502835D01*
X16738600Y-101088512D01*
X17373600Y-100784758D01*
X17373600Y-100584000D01*
X16738600Y-100584000D01*
X16738600Y-100228400D01*
X18084800Y-100228400D01*
X18084800Y-100584000D01*
X17678400Y-100584000D01*
X17679208Y-100768150D01*
X17684503Y-100878084D01*
X17698081Y-100959874D01*
X17713028Y-100995751D01*
X17786426Y-101055392D01*
X17876104Y-101074848D01*
X17956474Y-101054585D01*
X18025222Y-100993214D01*
X18067555Y-100892566D01*
X18084403Y-100750217D01*
X18084800Y-100719909D01*
X18084800Y-100584000D01*
X18084800Y-100228400D01*
X18389600Y-100228400D01*
X18389459Y-100590350D01*
X18389459Y-100590350D01*
G37*
X18389459Y-100590350D02*
X18386980Y-100776229D01*
X18378597Y-100920509D01*
X18362645Y-101032212D01*
X18337458Y-101120363D01*
X18301371Y-101193983D01*
X18269405Y-101240814D01*
X18172244Y-101330339D01*
X18045295Y-101391389D01*
X17903030Y-101420420D01*
X17759922Y-101413890D01*
X17670049Y-101387553D01*
X17600298Y-101344836D01*
X17527484Y-101280215D01*
X17468898Y-101210702D01*
X17444827Y-101165979D01*
X17419362Y-101165698D01*
X17354393Y-101189283D01*
X17254224Y-101234887D01*
X17123161Y-101300661D01*
X17086798Y-101319659D01*
X16738600Y-101502835D01*
X16738600Y-101088512D01*
X17373600Y-100784758D01*
X17373600Y-100584000D01*
X16738600Y-100584000D01*
X16738600Y-100228400D01*
X18084800Y-100228400D01*
X18084800Y-100584000D01*
X17678400Y-100584000D01*
X17679208Y-100768150D01*
X17684503Y-100878084D01*
X17698081Y-100959874D01*
X17713028Y-100995751D01*
X17786426Y-101055392D01*
X17876104Y-101074848D01*
X17956474Y-101054585D01*
X18025222Y-100993214D01*
X18067555Y-100892566D01*
X18084403Y-100750217D01*
X18084800Y-100719909D01*
X18084800Y-100584000D01*
X18084800Y-100228400D01*
X18389600Y-100228400D01*
X18389459Y-100590350D01*
G36*
X18389459Y-93224350D02*
X18387430Y-93403079D01*
X18380403Y-93540749D01*
X18366726Y-93646992D01*
X18344748Y-93731437D01*
X18312819Y-93803716D01*
X18281180Y-93855987D01*
X18193073Y-93946288D01*
X18072418Y-94012496D01*
X17933295Y-94050679D01*
X17789784Y-94056904D01*
X17661004Y-94029184D01*
X17533185Y-93955487D01*
X17438832Y-93843615D01*
X17377935Y-93693545D01*
X17350479Y-93505251D01*
X17348758Y-93440250D01*
X17348200Y-93218000D01*
X16738600Y-93218000D01*
X16738600Y-92862400D01*
X18084800Y-92862400D01*
X18084800Y-93218000D01*
X17653000Y-93218000D01*
X17653000Y-93392374D01*
X17656986Y-93499566D01*
X17671113Y-93571827D01*
X17698636Y-93624557D01*
X17703399Y-93630820D01*
X17781684Y-93695945D01*
X17872601Y-93713504D01*
X17955266Y-93689210D01*
X18024325Y-93628367D01*
X18066938Y-93529333D01*
X18084265Y-93389102D01*
X18084800Y-93353909D01*
X18084800Y-93218000D01*
X18084800Y-92862400D01*
X18389600Y-92862400D01*
X18389459Y-93224350D01*
X18389459Y-93224350D01*
G37*
X18389459Y-93224350D02*
X18387430Y-93403079D01*
X18380403Y-93540749D01*
X18366726Y-93646992D01*
X18344748Y-93731437D01*
X18312819Y-93803716D01*
X18281180Y-93855987D01*
X18193073Y-93946288D01*
X18072418Y-94012496D01*
X17933295Y-94050679D01*
X17789784Y-94056904D01*
X17661004Y-94029184D01*
X17533185Y-93955487D01*
X17438832Y-93843615D01*
X17377935Y-93693545D01*
X17350479Y-93505251D01*
X17348758Y-93440250D01*
X17348200Y-93218000D01*
X16738600Y-93218000D01*
X16738600Y-92862400D01*
X18084800Y-92862400D01*
X18084800Y-93218000D01*
X17653000Y-93218000D01*
X17653000Y-93392374D01*
X17656986Y-93499566D01*
X17671113Y-93571827D01*
X17698636Y-93624557D01*
X17703399Y-93630820D01*
X17781684Y-93695945D01*
X17872601Y-93713504D01*
X17955266Y-93689210D01*
X18024325Y-93628367D01*
X18066938Y-93529333D01*
X18084265Y-93389102D01*
X18084800Y-93353909D01*
X18084800Y-93218000D01*
X18084800Y-92862400D01*
X18389600Y-92862400D01*
X18389459Y-93224350D01*
G36*
X18388995Y-85921850D02*
X18387140Y-86059226D01*
X18382497Y-86186666D01*
X18375732Y-86291297D01*
X18367508Y-86360247D01*
X18365975Y-86367653D01*
X18308541Y-86512018D01*
X18214626Y-86626981D01*
X18092130Y-86707860D01*
X17948950Y-86749978D01*
X17792986Y-86748653D01*
X17740789Y-86738070D01*
X17656020Y-86704409D01*
X17572052Y-86651243D01*
X17501748Y-86589199D01*
X17457977Y-86528903D01*
X17449800Y-86497727D01*
X17434208Y-86489911D01*
X17385437Y-86504185D01*
X17300492Y-86541791D01*
X17176380Y-86603968D01*
X17110785Y-86638273D01*
X16991626Y-86700612D01*
X16888544Y-86753498D01*
X16809764Y-86792793D01*
X16763511Y-86814358D01*
X16755185Y-86817200D01*
X16747420Y-86793826D01*
X16741601Y-86731790D01*
X16738737Y-86643224D01*
X16738600Y-86617680D01*
X16738600Y-86418161D01*
X17055815Y-86268430D01*
X17373029Y-86118700D01*
X17373315Y-86010750D01*
X17373600Y-85902800D01*
X16738600Y-85902800D01*
X16738600Y-85572600D01*
X17678400Y-85572600D01*
X17678400Y-85902800D01*
X17678400Y-86094454D01*
X17680299Y-86196417D01*
X17688409Y-86262399D01*
X17706351Y-86307153D01*
X17737747Y-86345431D01*
X17740746Y-86348454D01*
X17821595Y-86400686D01*
X17907389Y-86402732D01*
X17994926Y-86354548D01*
X17998001Y-86351935D01*
X18033844Y-86315566D01*
X18056098Y-86272885D01*
X18069323Y-86209583D01*
X18078080Y-86111352D01*
X18078958Y-86097935D01*
X18091481Y-85902800D01*
X17678400Y-85902800D01*
X17678400Y-85572600D01*
X18389600Y-85572600D01*
X18388995Y-85921850D01*
X18388995Y-85921850D01*
G37*
X18388995Y-85921850D02*
X18387140Y-86059226D01*
X18382497Y-86186666D01*
X18375732Y-86291297D01*
X18367508Y-86360247D01*
X18365975Y-86367653D01*
X18308541Y-86512018D01*
X18214626Y-86626981D01*
X18092130Y-86707860D01*
X17948950Y-86749978D01*
X17792986Y-86748653D01*
X17740789Y-86738070D01*
X17656020Y-86704409D01*
X17572052Y-86651243D01*
X17501748Y-86589199D01*
X17457977Y-86528903D01*
X17449800Y-86497727D01*
X17434208Y-86489911D01*
X17385437Y-86504185D01*
X17300492Y-86541791D01*
X17176380Y-86603968D01*
X17110785Y-86638273D01*
X16991626Y-86700612D01*
X16888544Y-86753498D01*
X16809764Y-86792793D01*
X16763511Y-86814358D01*
X16755185Y-86817200D01*
X16747420Y-86793826D01*
X16741601Y-86731790D01*
X16738737Y-86643224D01*
X16738600Y-86617680D01*
X16738600Y-86418161D01*
X17055815Y-86268430D01*
X17373029Y-86118700D01*
X17373315Y-86010750D01*
X17373600Y-85902800D01*
X16738600Y-85902800D01*
X16738600Y-85572600D01*
X17678400Y-85572600D01*
X17678400Y-85902800D01*
X17678400Y-86094454D01*
X17680299Y-86196417D01*
X17688409Y-86262399D01*
X17706351Y-86307153D01*
X17737747Y-86345431D01*
X17740746Y-86348454D01*
X17821595Y-86400686D01*
X17907389Y-86402732D01*
X17994926Y-86354548D01*
X17998001Y-86351935D01*
X18033844Y-86315566D01*
X18056098Y-86272885D01*
X18069323Y-86209583D01*
X18078080Y-86111352D01*
X18078958Y-86097935D01*
X18091481Y-85902800D01*
X17678400Y-85902800D01*
X17678400Y-85572600D01*
X18389600Y-85572600D01*
X18388995Y-85921850D01*
G36*
X18084800Y-79451200D02*
X18084800Y-79019400D01*
X16738600Y-79019400D01*
X16738600Y-78689200D01*
X18084800Y-78689200D01*
X18084800Y-78257400D01*
X18389600Y-78257400D01*
X18389600Y-79451200D01*
X18084800Y-79451200D01*
X18084800Y-79451200D01*
G37*
X18084800Y-79451200D02*
X18084800Y-79019400D01*
X16738600Y-79019400D01*
X16738600Y-78689200D01*
X18084800Y-78689200D01*
X18084800Y-78257400D01*
X18389600Y-78257400D01*
X18389600Y-79451200D01*
X18084800Y-79451200D01*
G36*
X17958525Y-71180246D02*
X17527450Y-71389468D01*
X18389600Y-71801700D01*
X18389600Y-72136000D01*
X16738600Y-72136000D01*
X16738600Y-71805800D01*
X17640300Y-71802848D01*
X17354550Y-71658794D01*
X17068800Y-71514739D01*
X17068800Y-71258660D01*
X17354550Y-71114605D01*
X17640300Y-70970551D01*
X17189450Y-70969075D01*
X16738600Y-70967600D01*
X16738600Y-70637400D01*
X18389600Y-70637400D01*
X18389600Y-70971023D01*
X17958525Y-71180246D01*
X17958525Y-71180246D01*
G37*
X17958525Y-71180246D02*
X17527450Y-71389468D01*
X18389600Y-71801700D01*
X18389600Y-72136000D01*
X16738600Y-72136000D01*
X16738600Y-71805800D01*
X17640300Y-71802848D01*
X17354550Y-71658794D01*
X17068800Y-71514739D01*
X17068800Y-71258660D01*
X17354550Y-71114605D01*
X17640300Y-70970551D01*
X17189450Y-70969075D01*
X16738600Y-70967600D01*
X16738600Y-70637400D01*
X18389600Y-70637400D01*
X18389600Y-70971023D01*
X17958525Y-71180246D01*
G36*
X18377208Y-108159553D02*
X18364439Y-108219872D01*
X18330795Y-108304526D01*
X18287592Y-108385145D01*
X18243205Y-108448486D01*
X18206006Y-108481307D01*
X18197905Y-108483226D01*
X18166413Y-108466433D01*
X18114491Y-108423201D01*
X18077286Y-108387110D01*
X17983262Y-108290820D01*
X18034031Y-108191239D01*
X18076170Y-108075142D01*
X18087846Y-107961581D01*
X18071584Y-107860117D01*
X18029910Y-107780312D01*
X17965349Y-107731727D01*
X17909948Y-107721400D01*
X17847087Y-107732857D01*
X17798895Y-107771624D01*
X17761346Y-107844290D01*
X17730416Y-107957448D01*
X17714373Y-108041603D01*
X17678349Y-108205829D01*
X17632002Y-108327419D01*
X17570580Y-108414230D01*
X17489331Y-108474119D01*
X17439136Y-108496672D01*
X17283754Y-108532477D01*
X17132027Y-108524293D01*
X16993054Y-108475364D01*
X16875938Y-108388934D01*
X16789781Y-108268245D01*
X16788014Y-108264636D01*
X16750600Y-108152811D01*
X16727077Y-108011730D01*
X16719068Y-107861435D01*
X16728196Y-107721966D01*
X16739365Y-107663855D01*
X16773309Y-107560739D01*
X16819928Y-107459370D01*
X16870269Y-107377408D01*
X16903047Y-107340942D01*
X16930518Y-107326443D01*
X16962161Y-107334889D01*
X17009080Y-107371770D01*
X17056105Y-107416604D01*
X17168003Y-107526424D01*
X17119914Y-107593959D01*
X17069363Y-107693767D01*
X17035647Y-107816284D01*
X17024443Y-107936625D01*
X17029477Y-107990508D01*
X17061099Y-108076083D01*
X17114949Y-108149005D01*
X17178565Y-108195104D01*
X17217232Y-108204000D01*
X17283933Y-108189748D01*
X17334912Y-108143194D01*
X17373733Y-108058643D01*
X17403961Y-107930396D01*
X17409702Y-107896436D01*
X17445693Y-107722414D01*
X17493218Y-107591823D01*
X17556928Y-107497762D01*
X17641475Y-107433329D01*
X17749628Y-107392121D01*
X17910110Y-107373120D01*
X18059973Y-107401099D01*
X18192009Y-107473418D01*
X18299006Y-107587434D01*
X18304339Y-107595341D01*
X18341235Y-107659442D01*
X18364226Y-107726214D01*
X18377647Y-107812700D01*
X18384574Y-107910656D01*
X18386231Y-108045731D01*
X18377208Y-108159553D01*
X18377208Y-108159553D01*
G37*
X18377208Y-108159553D02*
X18364439Y-108219872D01*
X18330795Y-108304526D01*
X18287592Y-108385145D01*
X18243205Y-108448486D01*
X18206006Y-108481307D01*
X18197905Y-108483226D01*
X18166413Y-108466433D01*
X18114491Y-108423201D01*
X18077286Y-108387110D01*
X17983262Y-108290820D01*
X18034031Y-108191239D01*
X18076170Y-108075142D01*
X18087846Y-107961581D01*
X18071584Y-107860117D01*
X18029910Y-107780312D01*
X17965349Y-107731727D01*
X17909948Y-107721400D01*
X17847087Y-107732857D01*
X17798895Y-107771624D01*
X17761346Y-107844290D01*
X17730416Y-107957448D01*
X17714373Y-108041603D01*
X17678349Y-108205829D01*
X17632002Y-108327419D01*
X17570580Y-108414230D01*
X17489331Y-108474119D01*
X17439136Y-108496672D01*
X17283754Y-108532477D01*
X17132027Y-108524293D01*
X16993054Y-108475364D01*
X16875938Y-108388934D01*
X16789781Y-108268245D01*
X16788014Y-108264636D01*
X16750600Y-108152811D01*
X16727077Y-108011730D01*
X16719068Y-107861435D01*
X16728196Y-107721966D01*
X16739365Y-107663855D01*
X16773309Y-107560739D01*
X16819928Y-107459370D01*
X16870269Y-107377408D01*
X16903047Y-107340942D01*
X16930518Y-107326443D01*
X16962161Y-107334889D01*
X17009080Y-107371770D01*
X17056105Y-107416604D01*
X17168003Y-107526424D01*
X17119914Y-107593959D01*
X17069363Y-107693767D01*
X17035647Y-107816284D01*
X17024443Y-107936625D01*
X17029477Y-107990508D01*
X17061099Y-108076083D01*
X17114949Y-108149005D01*
X17178565Y-108195104D01*
X17217232Y-108204000D01*
X17283933Y-108189748D01*
X17334912Y-108143194D01*
X17373733Y-108058643D01*
X17403961Y-107930396D01*
X17409702Y-107896436D01*
X17445693Y-107722414D01*
X17493218Y-107591823D01*
X17556928Y-107497762D01*
X17641475Y-107433329D01*
X17749628Y-107392121D01*
X17910110Y-107373120D01*
X18059973Y-107401099D01*
X18192009Y-107473418D01*
X18299006Y-107587434D01*
X18304339Y-107595341D01*
X18341235Y-107659442D01*
X18364226Y-107726214D01*
X18377647Y-107812700D01*
X18384574Y-107910656D01*
X18386231Y-108045731D01*
X18377208Y-108159553D01*
G36*
X18368982Y-97276668D02*
X18310349Y-97429524D01*
X18212400Y-97550374D01*
X18074949Y-97639526D01*
X18049148Y-97650924D01*
X17963771Y-97674499D01*
X17841639Y-97692625D01*
X17696578Y-97704589D01*
X17542412Y-97709678D01*
X17392966Y-97707180D01*
X17262063Y-97696382D01*
X17236906Y-97692787D01*
X17067696Y-97649786D01*
X16935541Y-97577498D01*
X16833114Y-97471355D01*
X16799977Y-97420368D01*
X16748951Y-97295675D01*
X16721849Y-97148375D01*
X16720668Y-96999602D01*
X16747406Y-96870490D01*
X16747885Y-96869198D01*
X16829714Y-96716006D01*
X16946287Y-96597336D01*
X17036360Y-96542168D01*
X17088078Y-96518957D01*
X17139132Y-96502689D01*
X17199874Y-96492131D01*
X17280654Y-96486053D01*
X17391824Y-96483224D01*
X17432170Y-96483003D01*
X17432170Y-96827293D01*
X17298163Y-96835100D01*
X17200088Y-96854143D01*
X17130769Y-96886419D01*
X17083033Y-96933925D01*
X17056268Y-96982599D01*
X17029175Y-97049138D01*
X17022039Y-97094690D01*
X17034731Y-97144426D01*
X17055186Y-97194829D01*
X17091961Y-97258128D01*
X17146280Y-97303585D01*
X17225702Y-97333688D01*
X17337784Y-97350927D01*
X17490084Y-97357788D01*
X17551400Y-97358200D01*
X17718005Y-97353984D01*
X17842332Y-97341602D01*
X17917197Y-97322783D01*
X18014952Y-97259341D01*
X18071152Y-97173799D01*
X18083583Y-97075677D01*
X18050034Y-96974495D01*
X18010700Y-96920450D01*
X17936600Y-96837500D01*
X17609282Y-96828727D01*
X17432170Y-96827293D01*
X17432170Y-96483003D01*
X17538700Y-96482418D01*
X17719505Y-96484194D01*
X17858943Y-96491458D01*
X17966335Y-96506280D01*
X18050999Y-96530728D01*
X18122255Y-96566872D01*
X18189421Y-96616780D01*
X18205266Y-96630420D01*
X18301683Y-96739364D01*
X18360909Y-96868309D01*
X18386679Y-97026651D01*
X18388485Y-97091500D01*
X18368982Y-97276668D01*
X18368982Y-97276668D01*
G37*
X18368982Y-97276668D02*
X18310349Y-97429524D01*
X18212400Y-97550374D01*
X18074949Y-97639526D01*
X18049148Y-97650924D01*
X17963771Y-97674499D01*
X17841639Y-97692625D01*
X17696578Y-97704589D01*
X17542412Y-97709678D01*
X17392966Y-97707180D01*
X17262063Y-97696382D01*
X17236906Y-97692787D01*
X17067696Y-97649786D01*
X16935541Y-97577498D01*
X16833114Y-97471355D01*
X16799977Y-97420368D01*
X16748951Y-97295675D01*
X16721849Y-97148375D01*
X16720668Y-96999602D01*
X16747406Y-96870490D01*
X16747885Y-96869198D01*
X16829714Y-96716006D01*
X16946287Y-96597336D01*
X17036360Y-96542168D01*
X17088078Y-96518957D01*
X17139132Y-96502689D01*
X17199874Y-96492131D01*
X17280654Y-96486053D01*
X17391824Y-96483224D01*
X17432170Y-96483003D01*
X17432170Y-96827293D01*
X17298163Y-96835100D01*
X17200088Y-96854143D01*
X17130769Y-96886419D01*
X17083033Y-96933925D01*
X17056268Y-96982599D01*
X17029175Y-97049138D01*
X17022039Y-97094690D01*
X17034731Y-97144426D01*
X17055186Y-97194829D01*
X17091961Y-97258128D01*
X17146280Y-97303585D01*
X17225702Y-97333688D01*
X17337784Y-97350927D01*
X17490084Y-97357788D01*
X17551400Y-97358200D01*
X17718005Y-97353984D01*
X17842332Y-97341602D01*
X17917197Y-97322783D01*
X18014952Y-97259341D01*
X18071152Y-97173799D01*
X18083583Y-97075677D01*
X18050034Y-96974495D01*
X18010700Y-96920450D01*
X17936600Y-96837500D01*
X17609282Y-96828727D01*
X17432170Y-96827293D01*
X17432170Y-96483003D01*
X17538700Y-96482418D01*
X17719505Y-96484194D01*
X17858943Y-96491458D01*
X17966335Y-96506280D01*
X18050999Y-96530728D01*
X18122255Y-96566872D01*
X18189421Y-96616780D01*
X18205266Y-96630420D01*
X18301683Y-96739364D01*
X18360909Y-96868309D01*
X18386679Y-97026651D01*
X18388485Y-97091500D01*
X18368982Y-97276668D01*
G36*
X18376164Y-89964534D02*
X18340250Y-90110327D01*
X18284784Y-90227703D01*
X18226976Y-90295060D01*
X18198196Y-90311824D01*
X18167802Y-90305450D01*
X18123624Y-90270433D01*
X18081117Y-90229068D01*
X17978965Y-90126917D01*
X18031883Y-90028185D01*
X18073833Y-89915234D01*
X18087257Y-89796838D01*
X18072490Y-89688401D01*
X18029871Y-89605326D01*
X18022455Y-89597345D01*
X17951698Y-89545497D01*
X17882421Y-89539832D01*
X17832119Y-89559694D01*
X17800828Y-89581782D01*
X17776935Y-89615870D01*
X17756735Y-89671853D01*
X17736525Y-89759627D01*
X17715974Y-89869983D01*
X17677115Y-90039602D01*
X17625746Y-90165776D01*
X17556618Y-90255339D01*
X17464482Y-90315126D01*
X17346080Y-90351562D01*
X17181397Y-90362672D01*
X17033533Y-90326939D01*
X16906974Y-90246490D01*
X16806206Y-90123453D01*
X16785156Y-90085480D01*
X16750374Y-89983801D01*
X16728358Y-89850779D01*
X16720201Y-89704512D01*
X16726997Y-89563097D01*
X16746998Y-89454242D01*
X16780116Y-89367408D01*
X16826694Y-89281531D01*
X16878099Y-89209338D01*
X16925697Y-89163561D01*
X16950638Y-89154000D01*
X16984860Y-89170999D01*
X17039021Y-89214696D01*
X17079667Y-89253721D01*
X17177042Y-89353443D01*
X17125384Y-89419116D01*
X17065090Y-89529908D01*
X17033699Y-89661738D01*
X17032524Y-89797191D01*
X17062879Y-89918854D01*
X17084579Y-89960450D01*
X17138133Y-90002990D01*
X17214004Y-90018403D01*
X17290655Y-90005198D01*
X17333686Y-89977685D01*
X17365182Y-89944447D01*
X17373635Y-89933235D01*
X17380335Y-89872174D01*
X17397334Y-89779504D01*
X17420902Y-89671271D01*
X17447306Y-89563521D01*
X17472814Y-89472300D01*
X17493693Y-89413654D01*
X17495203Y-89410552D01*
X17570245Y-89315046D01*
X17676454Y-89248918D01*
X17802691Y-89213420D01*
X17937819Y-89209803D01*
X18070701Y-89239321D01*
X18190199Y-89303224D01*
X18221353Y-89328906D01*
X18305828Y-89428453D01*
X18359324Y-89549634D01*
X18385166Y-89701833D01*
X18388795Y-89801700D01*
X18376164Y-89964534D01*
X18376164Y-89964534D01*
G37*
X18376164Y-89964534D02*
X18340250Y-90110327D01*
X18284784Y-90227703D01*
X18226976Y-90295060D01*
X18198196Y-90311824D01*
X18167802Y-90305450D01*
X18123624Y-90270433D01*
X18081117Y-90229068D01*
X17978965Y-90126917D01*
X18031883Y-90028185D01*
X18073833Y-89915234D01*
X18087257Y-89796838D01*
X18072490Y-89688401D01*
X18029871Y-89605326D01*
X18022455Y-89597345D01*
X17951698Y-89545497D01*
X17882421Y-89539832D01*
X17832119Y-89559694D01*
X17800828Y-89581782D01*
X17776935Y-89615870D01*
X17756735Y-89671853D01*
X17736525Y-89759627D01*
X17715974Y-89869983D01*
X17677115Y-90039602D01*
X17625746Y-90165776D01*
X17556618Y-90255339D01*
X17464482Y-90315126D01*
X17346080Y-90351562D01*
X17181397Y-90362672D01*
X17033533Y-90326939D01*
X16906974Y-90246490D01*
X16806206Y-90123453D01*
X16785156Y-90085480D01*
X16750374Y-89983801D01*
X16728358Y-89850779D01*
X16720201Y-89704512D01*
X16726997Y-89563097D01*
X16746998Y-89454242D01*
X16780116Y-89367408D01*
X16826694Y-89281531D01*
X16878099Y-89209338D01*
X16925697Y-89163561D01*
X16950638Y-89154000D01*
X16984860Y-89170999D01*
X17039021Y-89214696D01*
X17079667Y-89253721D01*
X17177042Y-89353443D01*
X17125384Y-89419116D01*
X17065090Y-89529908D01*
X17033699Y-89661738D01*
X17032524Y-89797191D01*
X17062879Y-89918854D01*
X17084579Y-89960450D01*
X17138133Y-90002990D01*
X17214004Y-90018403D01*
X17290655Y-90005198D01*
X17333686Y-89977685D01*
X17365182Y-89944447D01*
X17373635Y-89933235D01*
X17380335Y-89872174D01*
X17397334Y-89779504D01*
X17420902Y-89671271D01*
X17447306Y-89563521D01*
X17472814Y-89472300D01*
X17493693Y-89413654D01*
X17495203Y-89410552D01*
X17570245Y-89315046D01*
X17676454Y-89248918D01*
X17802691Y-89213420D01*
X17937819Y-89209803D01*
X18070701Y-89239321D01*
X18190199Y-89303224D01*
X18221353Y-89328906D01*
X18305828Y-89428453D01*
X18359324Y-89549634D01*
X18385166Y-89701833D01*
X18388795Y-89801700D01*
X18376164Y-89964534D01*
G36*
X18372927Y-82591821D02*
X18316816Y-82736487D01*
X18225397Y-82861643D01*
X18123851Y-82943307D01*
X18073884Y-82973063D01*
X18029248Y-82994143D01*
X17979673Y-83008301D01*
X17914889Y-83017293D01*
X17824625Y-83022872D01*
X17698612Y-83026795D01*
X17625020Y-83028545D01*
X17426136Y-83030248D01*
X17269486Y-83023735D01*
X17146882Y-83006979D01*
X17050136Y-82977954D01*
X16971061Y-82934632D01*
X16901470Y-82874986D01*
X16870624Y-82841779D01*
X16774577Y-82695688D01*
X16723950Y-82529272D01*
X16719528Y-82346456D01*
X16744596Y-82209869D01*
X16791891Y-82107901D01*
X16873004Y-82004747D01*
X16973415Y-81914841D01*
X17078602Y-81852615D01*
X17117763Y-81838972D01*
X17199978Y-81826008D01*
X17326108Y-81818230D01*
X17489504Y-81815925D01*
X17506119Y-81816140D01*
X17506119Y-82158311D01*
X17376101Y-82160429D01*
X17285822Y-82165729D01*
X17224247Y-82175864D01*
X17180337Y-82192485D01*
X17150519Y-82211560D01*
X17066490Y-82298288D01*
X17029291Y-82394398D01*
X17039537Y-82492608D01*
X17097844Y-82585637D01*
X17117276Y-82604770D01*
X17167293Y-82642387D01*
X17226933Y-82666603D01*
X17311934Y-82682469D01*
X17383776Y-82690280D01*
X17549731Y-82697994D01*
X17710916Y-82691410D01*
X17851415Y-82671771D01*
X17939948Y-82646827D01*
X18011707Y-82594765D01*
X18064148Y-82512227D01*
X18084704Y-82419090D01*
X18084706Y-82417911D01*
X18071548Y-82356961D01*
X18039549Y-82285829D01*
X18035117Y-82278328D01*
X17999605Y-82232725D01*
X17951858Y-82199761D01*
X17883990Y-82177647D01*
X17788116Y-82164595D01*
X17656351Y-82158815D01*
X17506119Y-82158311D01*
X17506119Y-81816140D01*
X17615141Y-81817555D01*
X17763296Y-81821192D01*
X17870710Y-81825592D01*
X17947436Y-81832439D01*
X18003525Y-81843413D01*
X18049027Y-81860199D01*
X18093996Y-81884477D01*
X18123855Y-81902692D01*
X18244286Y-82004827D01*
X18329409Y-82134147D01*
X18379223Y-82281312D01*
X18393729Y-82436983D01*
X18372927Y-82591821D01*
X18372927Y-82591821D01*
G37*
X18372927Y-82591821D02*
X18316816Y-82736487D01*
X18225397Y-82861643D01*
X18123851Y-82943307D01*
X18073884Y-82973063D01*
X18029248Y-82994143D01*
X17979673Y-83008301D01*
X17914889Y-83017293D01*
X17824625Y-83022872D01*
X17698612Y-83026795D01*
X17625020Y-83028545D01*
X17426136Y-83030248D01*
X17269486Y-83023735D01*
X17146882Y-83006979D01*
X17050136Y-82977954D01*
X16971061Y-82934632D01*
X16901470Y-82874986D01*
X16870624Y-82841779D01*
X16774577Y-82695688D01*
X16723950Y-82529272D01*
X16719528Y-82346456D01*
X16744596Y-82209869D01*
X16791891Y-82107901D01*
X16873004Y-82004747D01*
X16973415Y-81914841D01*
X17078602Y-81852615D01*
X17117763Y-81838972D01*
X17199978Y-81826008D01*
X17326108Y-81818230D01*
X17489504Y-81815925D01*
X17506119Y-81816140D01*
X17506119Y-82158311D01*
X17376101Y-82160429D01*
X17285822Y-82165729D01*
X17224247Y-82175864D01*
X17180337Y-82192485D01*
X17150519Y-82211560D01*
X17066490Y-82298288D01*
X17029291Y-82394398D01*
X17039537Y-82492608D01*
X17097844Y-82585637D01*
X17117276Y-82604770D01*
X17167293Y-82642387D01*
X17226933Y-82666603D01*
X17311934Y-82682469D01*
X17383776Y-82690280D01*
X17549731Y-82697994D01*
X17710916Y-82691410D01*
X17851415Y-82671771D01*
X17939948Y-82646827D01*
X18011707Y-82594765D01*
X18064148Y-82512227D01*
X18084704Y-82419090D01*
X18084706Y-82417911D01*
X18071548Y-82356961D01*
X18039549Y-82285829D01*
X18035117Y-82278328D01*
X17999605Y-82232725D01*
X17951858Y-82199761D01*
X17883990Y-82177647D01*
X17788116Y-82164595D01*
X17656351Y-82158815D01*
X17506119Y-82158311D01*
X17506119Y-81816140D01*
X17615141Y-81817555D01*
X17763296Y-81821192D01*
X17870710Y-81825592D01*
X17947436Y-81832439D01*
X18003525Y-81843413D01*
X18049027Y-81860199D01*
X18093996Y-81884477D01*
X18123855Y-81902692D01*
X18244286Y-82004827D01*
X18329409Y-82134147D01*
X18379223Y-82281312D01*
X18393729Y-82436983D01*
X18372927Y-82591821D01*
G36*
X18382445Y-75392944D02*
X18350307Y-75531057D01*
X18283543Y-75649133D01*
X18201019Y-75738319D01*
X18121875Y-75799911D01*
X18032273Y-75844398D01*
X17923740Y-75873549D01*
X17787805Y-75889137D01*
X17615996Y-75892931D01*
X17476514Y-75889754D01*
X17280745Y-75877375D01*
X17127228Y-75853214D01*
X17008085Y-75813726D01*
X16915439Y-75755367D01*
X16841413Y-75674590D01*
X16783123Y-75577700D01*
X16749275Y-75480576D01*
X16727562Y-75356576D01*
X16719907Y-75227135D01*
X16728234Y-75113687D01*
X16737857Y-75073094D01*
X16809002Y-74930502D01*
X16919306Y-74810740D01*
X17032306Y-74737601D01*
X17083523Y-74713484D01*
X17129429Y-74696294D01*
X17179500Y-74685067D01*
X17243216Y-74678836D01*
X17330052Y-74676638D01*
X17449486Y-74677507D01*
X17596129Y-74680182D01*
X17602319Y-74680316D01*
X17602319Y-75006978D01*
X17474432Y-75010824D01*
X17351327Y-75019763D01*
X17246203Y-75032987D01*
X17172260Y-75049686D01*
X17151639Y-75058748D01*
X17098753Y-75109703D01*
X17050745Y-75183673D01*
X17021712Y-75257162D01*
X17018579Y-75280511D01*
X17029189Y-75324862D01*
X17055606Y-75386234D01*
X17056530Y-75388031D01*
X17093867Y-75446143D01*
X17141898Y-75487880D01*
X17208646Y-75515437D01*
X17302133Y-75531011D01*
X17430382Y-75536798D01*
X17594104Y-75535172D01*
X17936695Y-75526900D01*
X18010748Y-75443949D01*
X18070707Y-75346465D01*
X18084211Y-75248449D01*
X18054875Y-75157958D01*
X17986310Y-75083049D01*
X17882132Y-75031783D01*
X17819646Y-75017804D01*
X17721790Y-75009035D01*
X17602319Y-75006978D01*
X17602319Y-74680316D01*
X17753616Y-74683595D01*
X17869274Y-74687512D01*
X17952072Y-74693248D01*
X18010973Y-74702123D01*
X18054944Y-74715452D01*
X18092951Y-74734554D01*
X18130974Y-74758766D01*
X18249278Y-74857063D01*
X18327729Y-74973110D01*
X18371778Y-75116904D01*
X18384119Y-75223083D01*
X18382445Y-75392944D01*
X18382445Y-75392944D01*
G37*
X18382445Y-75392944D02*
X18350307Y-75531057D01*
X18283543Y-75649133D01*
X18201019Y-75738319D01*
X18121875Y-75799911D01*
X18032273Y-75844398D01*
X17923740Y-75873549D01*
X17787805Y-75889137D01*
X17615996Y-75892931D01*
X17476514Y-75889754D01*
X17280745Y-75877375D01*
X17127228Y-75853214D01*
X17008085Y-75813726D01*
X16915439Y-75755367D01*
X16841413Y-75674590D01*
X16783123Y-75577700D01*
X16749275Y-75480576D01*
X16727562Y-75356576D01*
X16719907Y-75227135D01*
X16728234Y-75113687D01*
X16737857Y-75073094D01*
X16809002Y-74930502D01*
X16919306Y-74810740D01*
X17032306Y-74737601D01*
X17083523Y-74713484D01*
X17129429Y-74696294D01*
X17179500Y-74685067D01*
X17243216Y-74678836D01*
X17330052Y-74676638D01*
X17449486Y-74677507D01*
X17596129Y-74680182D01*
X17602319Y-74680316D01*
X17602319Y-75006978D01*
X17474432Y-75010824D01*
X17351327Y-75019763D01*
X17246203Y-75032987D01*
X17172260Y-75049686D01*
X17151639Y-75058748D01*
X17098753Y-75109703D01*
X17050745Y-75183673D01*
X17021712Y-75257162D01*
X17018579Y-75280511D01*
X17029189Y-75324862D01*
X17055606Y-75386234D01*
X17056530Y-75388031D01*
X17093867Y-75446143D01*
X17141898Y-75487880D01*
X17208646Y-75515437D01*
X17302133Y-75531011D01*
X17430382Y-75536798D01*
X17594104Y-75535172D01*
X17936695Y-75526900D01*
X18010748Y-75443949D01*
X18070707Y-75346465D01*
X18084211Y-75248449D01*
X18054875Y-75157958D01*
X17986310Y-75083049D01*
X17882132Y-75031783D01*
X17819646Y-75017804D01*
X17721790Y-75009035D01*
X17602319Y-75006978D01*
X17602319Y-74680316D01*
X17753616Y-74683595D01*
X17869274Y-74687512D01*
X17952072Y-74693248D01*
X18010973Y-74702123D01*
X18054944Y-74715452D01*
X18092951Y-74734554D01*
X18130974Y-74758766D01*
X18249278Y-74857063D01*
X18327729Y-74973110D01*
X18371778Y-75116904D01*
X18384119Y-75223083D01*
X18382445Y-75392944D01*
D12*
G04 #@! TO.C,J5*
X40988516Y-102038697D02*
X40988516Y-107338697D01*
X70998516Y-102038697D02*
X70998516Y-107338697D01*
X40988516Y-102038697D02*
X70998516Y-102038697D01*
X40988516Y-107338697D02*
X70998516Y-107338697D01*
G04 #@! TO.C,J1*
X23288666Y-113244380D02*
X23288666Y-113958666D01*
X23241047Y-114101523D01*
X23145809Y-114196761D01*
X23002952Y-114244380D01*
X22907714Y-114244380D01*
X24288666Y-114244380D02*
X23717238Y-114244380D01*
X24002952Y-114244380D02*
X24002952Y-113244380D01*
X23907714Y-113387238D01*
X23812476Y-113482476D01*
X23717238Y-113530095D01*
G04 #@! TO.C,J2*
X87380166Y-126220880D02*
X87380166Y-126935166D01*
X87332547Y-127078023D01*
X87237309Y-127173261D01*
X87094452Y-127220880D01*
X86999214Y-127220880D01*
X87808738Y-126316119D02*
X87856357Y-126268500D01*
X87951595Y-126220880D01*
X88189690Y-126220880D01*
X88284928Y-126268500D01*
X88332547Y-126316119D01*
X88380166Y-126411357D01*
X88380166Y-126506595D01*
X88332547Y-126649452D01*
X87761119Y-127220880D01*
X88380166Y-127220880D01*
G04 #@! TO.C,J4*
X87068896Y-75094030D02*
X87783182Y-75094030D01*
X87926039Y-75141649D01*
X88021277Y-75236887D01*
X88068896Y-75379744D01*
X88068896Y-75474982D01*
X87402230Y-74189268D02*
X88068896Y-74189268D01*
X87021277Y-74427363D02*
X87735563Y-74665458D01*
X87735563Y-74046411D01*
X96958896Y-69394982D02*
X96958896Y-69966411D01*
X96958896Y-69680697D02*
X95958896Y-69680697D01*
X96101754Y-69775935D01*
X96196992Y-69871173D01*
X96244611Y-69966411D01*
X84862230Y-72030220D02*
X85528896Y-72030220D01*
X84481277Y-72268316D02*
X85195563Y-72506411D01*
X85195563Y-71887363D01*
G04 #@! TO.C,J5*
X50492896Y-108685530D02*
X51207182Y-108685530D01*
X51350039Y-108733149D01*
X51445277Y-108828387D01*
X51492896Y-108971244D01*
X51492896Y-109066482D01*
X50492896Y-107733149D02*
X50492896Y-108209339D01*
X50969087Y-108256958D01*
X50921468Y-108209339D01*
X50873849Y-108114101D01*
X50873849Y-107876006D01*
X50921468Y-107780768D01*
X50969087Y-107733149D01*
X51064325Y-107685530D01*
X51302420Y-107685530D01*
X51397658Y-107733149D01*
X51445277Y-107780768D01*
X51492896Y-107876006D01*
X51492896Y-108114101D01*
X51445277Y-108209339D01*
X51397658Y-108256958D01*
X39666135Y-106720601D02*
X39618516Y-106672982D01*
X39570896Y-106577744D01*
X39570896Y-106339649D01*
X39618516Y-106244411D01*
X39666135Y-106196792D01*
X39761373Y-106149173D01*
X39856611Y-106149173D01*
X39999468Y-106196792D01*
X40570896Y-106768220D01*
X40570896Y-106149173D01*
X39570896Y-105530125D02*
X39570896Y-105434887D01*
X39618516Y-105339649D01*
X39666135Y-105292030D01*
X39761373Y-105244411D01*
X39951849Y-105196792D01*
X40189944Y-105196792D01*
X40380420Y-105244411D01*
X40475658Y-105292030D01*
X40523277Y-105339649D01*
X40570896Y-105434887D01*
X40570896Y-105530125D01*
X40523277Y-105625363D01*
X40475658Y-105672982D01*
X40380420Y-105720601D01*
X40189944Y-105768220D01*
X39951849Y-105768220D01*
X39761373Y-105720601D01*
X39666135Y-105672982D01*
X39618516Y-105625363D01*
X39570896Y-105530125D01*
X72320896Y-103132982D02*
X72320896Y-103704411D01*
X72320896Y-103418697D02*
X71320896Y-103418697D01*
X71463754Y-103513935D01*
X71558992Y-103609173D01*
X71606611Y-103704411D01*
G04 #@! TD*
M02*
