G04 #@! TF.GenerationSoftware,KiCad,Pcbnew,5.0.2-bee76a0~70~ubuntu18.04.1*
G04 #@! TF.CreationDate,2019-02-24T12:00:28-05:00*
G04 #@! TF.ProjectId,interface,696e7465-7266-4616-9365-2e6b69636164,rev?*
G04 #@! TF.SameCoordinates,Original*
G04 #@! TF.FileFunction,Legend,Bot*
G04 #@! TF.FilePolarity,Positive*
%FSLAX46Y46*%
G04 Gerber Fmt 4.6, Leading zero omitted, Abs format (unit mm)*
G04 Created by KiCad (PCBNEW 5.0.2-bee76a0~70~ubuntu18.04.1) date Sun 24 Feb 2019 12:00:28 PM EST*
%MOMM*%
%LPD*%
G01*
G04 APERTURE LIST*
%ADD10C,0.300000*%
%ADD11C,0.150000*%
G04 APERTURE END LIST*
D10*
X35766428Y-118979071D02*
X36623571Y-118979071D01*
X36195000Y-118979071D02*
X36195000Y-117479071D01*
X36337857Y-117693357D01*
X36480714Y-117836214D01*
X36623571Y-117907642D01*
X74739357Y-108795428D02*
X74667928Y-108724000D01*
X74525071Y-108652571D01*
X74167928Y-108652571D01*
X74025071Y-108724000D01*
X73953642Y-108795428D01*
X73882214Y-108938285D01*
X73882214Y-109081142D01*
X73953642Y-109295428D01*
X74810785Y-110152571D01*
X73882214Y-110152571D01*
X73382214Y-108652571D02*
X72453642Y-108652571D01*
X72953642Y-109224000D01*
X72739357Y-109224000D01*
X72596500Y-109295428D01*
X72525071Y-109366857D01*
X72453642Y-109509714D01*
X72453642Y-109866857D01*
X72525071Y-110009714D01*
X72596500Y-110081142D01*
X72739357Y-110152571D01*
X73167928Y-110152571D01*
X73310785Y-110081142D01*
X73382214Y-110009714D01*
D11*
G04 #@! TO.C,U1*
X46251500Y-79768500D02*
X46251500Y-90768500D01*
X46251500Y-90768500D02*
X27251500Y-90768500D01*
X27251500Y-90768500D02*
X27251500Y-77768500D01*
X27251500Y-77768500D02*
X46251500Y-77768500D01*
X46251500Y-77768500D02*
X46251500Y-79768500D01*
G04 #@! TO.C,J3*
X28587000Y-104800500D02*
X28587000Y-126800500D01*
X81587000Y-104800500D02*
X28587000Y-104800500D01*
X81587000Y-126800500D02*
X81587000Y-104800500D01*
X28587000Y-126800500D02*
X81587000Y-126800500D01*
G04 #@! TO.C,U1*
X38379404Y-75410880D02*
X38379404Y-76220404D01*
X38331785Y-76315642D01*
X38284166Y-76363261D01*
X38188928Y-76410880D01*
X37998452Y-76410880D01*
X37903214Y-76363261D01*
X37855595Y-76315642D01*
X37807976Y-76220404D01*
X37807976Y-75410880D01*
X36807976Y-76410880D02*
X37379404Y-76410880D01*
X37093690Y-76410880D02*
X37093690Y-75410880D01*
X37188928Y-75553738D01*
X37284166Y-75648976D01*
X37379404Y-75696595D01*
G04 #@! TO.C,J3*
X31110333Y-103092880D02*
X31110333Y-103807166D01*
X31157952Y-103950023D01*
X31253190Y-104045261D01*
X31396047Y-104092880D01*
X31491285Y-104092880D01*
X30729380Y-103092880D02*
X30110333Y-103092880D01*
X30443666Y-103473833D01*
X30300809Y-103473833D01*
X30205571Y-103521452D01*
X30157952Y-103569071D01*
X30110333Y-103664309D01*
X30110333Y-103902404D01*
X30157952Y-103997642D01*
X30205571Y-104045261D01*
X30300809Y-104092880D01*
X30586523Y-104092880D01*
X30681761Y-104045261D01*
X30729380Y-103997642D01*
G04 #@! TD*
M02*
