G04 #@! TF.GenerationSoftware,KiCad,Pcbnew,5.0.2-bee76a0~70~ubuntu18.04.1*
G04 #@! TF.CreationDate,2019-02-24T12:00:28-05:00*
G04 #@! TF.ProjectId,interface,696e7465-7266-4616-9365-2e6b69636164,rev?*
G04 #@! TF.SameCoordinates,Original*
G04 #@! TF.FileFunction,Soldermask,Top*
G04 #@! TF.FilePolarity,Negative*
%FSLAX46Y46*%
G04 Gerber Fmt 4.6, Leading zero omitted, Abs format (unit mm)*
G04 Created by KiCad (PCBNEW 5.0.2-bee76a0~70~ubuntu18.04.1) date Sun 24 Feb 2019 12:00:28 PM EST*
%MOMM*%
%LPD*%
G01*
G04 APERTURE LIST*
%ADD10C,2.000000*%
G04 APERTURE END LIST*
D10*
G36*
X79093565Y-124089889D02*
X79284834Y-124169115D01*
X79456976Y-124284137D01*
X79603363Y-124430524D01*
X79718385Y-124602666D01*
X79797611Y-124793935D01*
X79838000Y-124996984D01*
X79838000Y-125204016D01*
X79797611Y-125407065D01*
X79718385Y-125598334D01*
X79603363Y-125770476D01*
X79456976Y-125916863D01*
X79284834Y-126031885D01*
X79093565Y-126111111D01*
X78890516Y-126151500D01*
X78683484Y-126151500D01*
X78480435Y-126111111D01*
X78289166Y-126031885D01*
X78117024Y-125916863D01*
X77970637Y-125770476D01*
X77855615Y-125598334D01*
X77776389Y-125407065D01*
X77736000Y-125204016D01*
X77736000Y-124996984D01*
X77776389Y-124793935D01*
X77855615Y-124602666D01*
X77970637Y-124430524D01*
X78117024Y-124284137D01*
X78289166Y-124169115D01*
X78480435Y-124089889D01*
X78683484Y-124049500D01*
X78890516Y-124049500D01*
X79093565Y-124089889D01*
X79093565Y-124089889D01*
G37*
G36*
X31693565Y-124089889D02*
X31884834Y-124169115D01*
X32056976Y-124284137D01*
X32203363Y-124430524D01*
X32318385Y-124602666D01*
X32397611Y-124793935D01*
X32438000Y-124996984D01*
X32438000Y-125204016D01*
X32397611Y-125407065D01*
X32318385Y-125598334D01*
X32203363Y-125770476D01*
X32056976Y-125916863D01*
X31884834Y-126031885D01*
X31693565Y-126111111D01*
X31490516Y-126151500D01*
X31283484Y-126151500D01*
X31080435Y-126111111D01*
X30889166Y-126031885D01*
X30717024Y-125916863D01*
X30570637Y-125770476D01*
X30455615Y-125598334D01*
X30376389Y-125407065D01*
X30336000Y-125204016D01*
X30336000Y-124996984D01*
X30376389Y-124793935D01*
X30455615Y-124602666D01*
X30570637Y-124430524D01*
X30717024Y-124284137D01*
X30889166Y-124169115D01*
X31080435Y-124089889D01*
X31283484Y-124049500D01*
X31490516Y-124049500D01*
X31693565Y-124089889D01*
X31693565Y-124089889D01*
G37*
G36*
X89722100Y-122951489D02*
X89755149Y-122961514D01*
X89785606Y-122977794D01*
X89812299Y-122999701D01*
X89834206Y-123026394D01*
X89850486Y-123056851D01*
X89860511Y-123089900D01*
X89864500Y-123130404D01*
X89864500Y-124566596D01*
X89860511Y-124607100D01*
X89850486Y-124640149D01*
X89834206Y-124670606D01*
X89812299Y-124697299D01*
X89785606Y-124719206D01*
X89755149Y-124735486D01*
X89722100Y-124745511D01*
X89681596Y-124749500D01*
X88245404Y-124749500D01*
X88204900Y-124745511D01*
X88171851Y-124735486D01*
X88141394Y-124719206D01*
X88114701Y-124697299D01*
X88092794Y-124670606D01*
X88076514Y-124640149D01*
X88066489Y-124607100D01*
X88062500Y-124566596D01*
X88062500Y-123130404D01*
X88066489Y-123089900D01*
X88076514Y-123056851D01*
X88092794Y-123026394D01*
X88114701Y-122999701D01*
X88141394Y-122977794D01*
X88171851Y-122961514D01*
X88204900Y-122951489D01*
X88245404Y-122947500D01*
X89681596Y-122947500D01*
X89722100Y-122951489D01*
X89722100Y-122951489D01*
G37*
G36*
X86726312Y-122982124D02*
X86890284Y-123050044D01*
X87037854Y-123148647D01*
X87163353Y-123274146D01*
X87261956Y-123421716D01*
X87329876Y-123585688D01*
X87364500Y-123759759D01*
X87364500Y-123937241D01*
X87329876Y-124111312D01*
X87261956Y-124275284D01*
X87163353Y-124422854D01*
X87037854Y-124548353D01*
X86890284Y-124646956D01*
X86726312Y-124714876D01*
X86552241Y-124749500D01*
X86374759Y-124749500D01*
X86200688Y-124714876D01*
X86036716Y-124646956D01*
X85889146Y-124548353D01*
X85763647Y-124422854D01*
X85665044Y-124275284D01*
X85597124Y-124111312D01*
X85562500Y-123937241D01*
X85562500Y-123759759D01*
X85597124Y-123585688D01*
X85665044Y-123421716D01*
X85763647Y-123274146D01*
X85889146Y-123148647D01*
X86036716Y-123050044D01*
X86200688Y-122982124D01*
X86374759Y-122947500D01*
X86552241Y-122947500D01*
X86726312Y-122982124D01*
X86726312Y-122982124D01*
G37*
G36*
X89226312Y-117982124D02*
X89390284Y-118050044D01*
X89537854Y-118148647D01*
X89663353Y-118274146D01*
X89761956Y-118421716D01*
X89829876Y-118585688D01*
X89864500Y-118759759D01*
X89864500Y-118937241D01*
X89829876Y-119111312D01*
X89761956Y-119275284D01*
X89698275Y-119370590D01*
X89686729Y-119392190D01*
X89679616Y-119415640D01*
X89677214Y-119440026D01*
X89679616Y-119464412D01*
X89686729Y-119487861D01*
X89698280Y-119509472D01*
X89713826Y-119528414D01*
X89732768Y-119543960D01*
X89754378Y-119555511D01*
X89777828Y-119562624D01*
X89802214Y-119565026D01*
X89826600Y-119562624D01*
X89850049Y-119555511D01*
X89871660Y-119543960D01*
X89971451Y-119477282D01*
X90099028Y-119424438D01*
X90234456Y-119397500D01*
X90372544Y-119397500D01*
X90507972Y-119424438D01*
X90635549Y-119477282D01*
X90750365Y-119554000D01*
X90848000Y-119651635D01*
X90924718Y-119766451D01*
X90977562Y-119894028D01*
X91004500Y-120029456D01*
X91004500Y-120167544D01*
X90977562Y-120302972D01*
X90924718Y-120430549D01*
X90848000Y-120545365D01*
X90750365Y-120643000D01*
X90635549Y-120719718D01*
X90507972Y-120772562D01*
X90372544Y-120799500D01*
X90234456Y-120799500D01*
X90099028Y-120772562D01*
X89971451Y-120719718D01*
X89871660Y-120653040D01*
X89850049Y-120641489D01*
X89826600Y-120634376D01*
X89802214Y-120631974D01*
X89777827Y-120634376D01*
X89754378Y-120641489D01*
X89732767Y-120653040D01*
X89713825Y-120668586D01*
X89698280Y-120687528D01*
X89686729Y-120709139D01*
X89679616Y-120732588D01*
X89677214Y-120756974D01*
X89679616Y-120781361D01*
X89686729Y-120804810D01*
X89698275Y-120826410D01*
X89761956Y-120921716D01*
X89829876Y-121085688D01*
X89864500Y-121259759D01*
X89864500Y-121437241D01*
X89829876Y-121611312D01*
X89761956Y-121775284D01*
X89663353Y-121922854D01*
X89537854Y-122048353D01*
X89390284Y-122146956D01*
X89226312Y-122214876D01*
X89052241Y-122249500D01*
X88874759Y-122249500D01*
X88700688Y-122214876D01*
X88536716Y-122146956D01*
X88389146Y-122048353D01*
X88263647Y-121922854D01*
X88165044Y-121775284D01*
X88097124Y-121611312D01*
X88062500Y-121437241D01*
X88062500Y-121259759D01*
X88097124Y-121085688D01*
X88165044Y-120921716D01*
X88263647Y-120774146D01*
X88389146Y-120648647D01*
X88536716Y-120550044D01*
X88700688Y-120482124D01*
X88874759Y-120447500D01*
X89052241Y-120447500D01*
X89226312Y-120482124D01*
X89390284Y-120550044D01*
X89537854Y-120648647D01*
X89537858Y-120648651D01*
X89539531Y-120649769D01*
X89561141Y-120661320D01*
X89584591Y-120668433D01*
X89608977Y-120670835D01*
X89633363Y-120668433D01*
X89656812Y-120661320D01*
X89678423Y-120649769D01*
X89697365Y-120634223D01*
X89712911Y-120615281D01*
X89724462Y-120593671D01*
X89731575Y-120570221D01*
X89733977Y-120545835D01*
X89731575Y-120521449D01*
X89724462Y-120498000D01*
X89712911Y-120476389D01*
X89682282Y-120430549D01*
X89629438Y-120302972D01*
X89602500Y-120167544D01*
X89602500Y-120029456D01*
X89629438Y-119894028D01*
X89682282Y-119766451D01*
X89712911Y-119720611D01*
X89724462Y-119699000D01*
X89731575Y-119675551D01*
X89733977Y-119651164D01*
X89731575Y-119626778D01*
X89724462Y-119603329D01*
X89712910Y-119581718D01*
X89697365Y-119562776D01*
X89678423Y-119547231D01*
X89656812Y-119535680D01*
X89633363Y-119528567D01*
X89608976Y-119526165D01*
X89584590Y-119528567D01*
X89561141Y-119535680D01*
X89539531Y-119547231D01*
X89537858Y-119548349D01*
X89537854Y-119548353D01*
X89390284Y-119646956D01*
X89226312Y-119714876D01*
X89052241Y-119749500D01*
X88874759Y-119749500D01*
X88700688Y-119714876D01*
X88536716Y-119646956D01*
X88389146Y-119548353D01*
X88263647Y-119422854D01*
X88165044Y-119275284D01*
X88097124Y-119111312D01*
X88062500Y-118937241D01*
X88062500Y-118759759D01*
X88097124Y-118585688D01*
X88165044Y-118421716D01*
X88263647Y-118274146D01*
X88389146Y-118148647D01*
X88536716Y-118050044D01*
X88700688Y-117982124D01*
X88874759Y-117947500D01*
X89052241Y-117947500D01*
X89226312Y-117982124D01*
X89226312Y-117982124D01*
G37*
G36*
X86726312Y-120482124D02*
X86890284Y-120550044D01*
X87037854Y-120648647D01*
X87163353Y-120774146D01*
X87261956Y-120921716D01*
X87329876Y-121085688D01*
X87364500Y-121259759D01*
X87364500Y-121437241D01*
X87329876Y-121611312D01*
X87261956Y-121775284D01*
X87163353Y-121922854D01*
X87037854Y-122048353D01*
X86890284Y-122146956D01*
X86726312Y-122214876D01*
X86552241Y-122249500D01*
X86374759Y-122249500D01*
X86200688Y-122214876D01*
X86036716Y-122146956D01*
X85889146Y-122048353D01*
X85763647Y-121922854D01*
X85665044Y-121775284D01*
X85597124Y-121611312D01*
X85562500Y-121437241D01*
X85562500Y-121259759D01*
X85597124Y-121085688D01*
X85665044Y-120921716D01*
X85763647Y-120774146D01*
X85889146Y-120648647D01*
X86036716Y-120550044D01*
X86200688Y-120482124D01*
X86374759Y-120447500D01*
X86552241Y-120447500D01*
X86726312Y-120482124D01*
X86726312Y-120482124D01*
G37*
G36*
X21173621Y-119619302D02*
X21310022Y-119675801D01*
X21432779Y-119757825D01*
X21537175Y-119862221D01*
X21619199Y-119984978D01*
X21675698Y-120121379D01*
X21704500Y-120266181D01*
X21704500Y-120413819D01*
X21675698Y-120558621D01*
X21619199Y-120695022D01*
X21537175Y-120817779D01*
X21432779Y-120922175D01*
X21310022Y-121004199D01*
X21173621Y-121060698D01*
X21028819Y-121089500D01*
X20881181Y-121089500D01*
X20736379Y-121060698D01*
X20599978Y-121004199D01*
X20477221Y-120922175D01*
X20372825Y-120817779D01*
X20290801Y-120695022D01*
X20234302Y-120558621D01*
X20205500Y-120413819D01*
X20205500Y-120266181D01*
X20234302Y-120121379D01*
X20290801Y-119984978D01*
X20372825Y-119862221D01*
X20477221Y-119757825D01*
X20599978Y-119675801D01*
X20736379Y-119619302D01*
X20881181Y-119590500D01*
X21028819Y-119590500D01*
X21173621Y-119619302D01*
X21173621Y-119619302D01*
G37*
G36*
X49439527Y-116789236D02*
X49539410Y-116809104D01*
X49821674Y-116926021D01*
X50075705Y-117095759D01*
X50291741Y-117311795D01*
X50461479Y-117565826D01*
X50550612Y-117781014D01*
X50578396Y-117848091D01*
X50638000Y-118147738D01*
X50638000Y-118453262D01*
X50598264Y-118653027D01*
X50578396Y-118752910D01*
X50461479Y-119035174D01*
X50291741Y-119289205D01*
X50075705Y-119505241D01*
X49821674Y-119674979D01*
X49539410Y-119791896D01*
X49439527Y-119811764D01*
X49239762Y-119851500D01*
X48934238Y-119851500D01*
X48734473Y-119811764D01*
X48634590Y-119791896D01*
X48352326Y-119674979D01*
X48098295Y-119505241D01*
X47882259Y-119289205D01*
X47712521Y-119035174D01*
X47595604Y-118752910D01*
X47575736Y-118653027D01*
X47536000Y-118453262D01*
X47536000Y-118147738D01*
X47595604Y-117848091D01*
X47623388Y-117781014D01*
X47712521Y-117565826D01*
X47882259Y-117311795D01*
X48098295Y-117095759D01*
X48352326Y-116926021D01*
X48634590Y-116809104D01*
X48734473Y-116789236D01*
X48934238Y-116749500D01*
X49239762Y-116749500D01*
X49439527Y-116789236D01*
X49439527Y-116789236D01*
G37*
G36*
X61439527Y-116789236D02*
X61539410Y-116809104D01*
X61821674Y-116926021D01*
X62075705Y-117095759D01*
X62291741Y-117311795D01*
X62461479Y-117565826D01*
X62550612Y-117781014D01*
X62578396Y-117848091D01*
X62638000Y-118147738D01*
X62638000Y-118453262D01*
X62598264Y-118653027D01*
X62578396Y-118752910D01*
X62461479Y-119035174D01*
X62291741Y-119289205D01*
X62075705Y-119505241D01*
X61821674Y-119674979D01*
X61539410Y-119791896D01*
X61439527Y-119811764D01*
X61239762Y-119851500D01*
X60934238Y-119851500D01*
X60734473Y-119811764D01*
X60634590Y-119791896D01*
X60352326Y-119674979D01*
X60098295Y-119505241D01*
X59882259Y-119289205D01*
X59712521Y-119035174D01*
X59595604Y-118752910D01*
X59575736Y-118653027D01*
X59536000Y-118453262D01*
X59536000Y-118147738D01*
X59595604Y-117848091D01*
X59623388Y-117781014D01*
X59712521Y-117565826D01*
X59882259Y-117311795D01*
X60098295Y-117095759D01*
X60352326Y-116926021D01*
X60634590Y-116809104D01*
X60734473Y-116789236D01*
X60934238Y-116749500D01*
X61239762Y-116749500D01*
X61439527Y-116789236D01*
X61439527Y-116789236D01*
G37*
G36*
X65439527Y-116789236D02*
X65539410Y-116809104D01*
X65821674Y-116926021D01*
X66075705Y-117095759D01*
X66291741Y-117311795D01*
X66461479Y-117565826D01*
X66550612Y-117781014D01*
X66578396Y-117848091D01*
X66638000Y-118147738D01*
X66638000Y-118453262D01*
X66598264Y-118653027D01*
X66578396Y-118752910D01*
X66461479Y-119035174D01*
X66291741Y-119289205D01*
X66075705Y-119505241D01*
X65821674Y-119674979D01*
X65539410Y-119791896D01*
X65439527Y-119811764D01*
X65239762Y-119851500D01*
X64934238Y-119851500D01*
X64734473Y-119811764D01*
X64634590Y-119791896D01*
X64352326Y-119674979D01*
X64098295Y-119505241D01*
X63882259Y-119289205D01*
X63712521Y-119035174D01*
X63595604Y-118752910D01*
X63575736Y-118653027D01*
X63536000Y-118453262D01*
X63536000Y-118147738D01*
X63595604Y-117848091D01*
X63623388Y-117781014D01*
X63712521Y-117565826D01*
X63882259Y-117311795D01*
X64098295Y-117095759D01*
X64352326Y-116926021D01*
X64634590Y-116809104D01*
X64734473Y-116789236D01*
X64934238Y-116749500D01*
X65239762Y-116749500D01*
X65439527Y-116789236D01*
X65439527Y-116789236D01*
G37*
G36*
X69439527Y-116789236D02*
X69539410Y-116809104D01*
X69821674Y-116926021D01*
X70075705Y-117095759D01*
X70291741Y-117311795D01*
X70461479Y-117565826D01*
X70550612Y-117781014D01*
X70578396Y-117848091D01*
X70638000Y-118147738D01*
X70638000Y-118453262D01*
X70598264Y-118653027D01*
X70578396Y-118752910D01*
X70461479Y-119035174D01*
X70291741Y-119289205D01*
X70075705Y-119505241D01*
X69821674Y-119674979D01*
X69539410Y-119791896D01*
X69439527Y-119811764D01*
X69239762Y-119851500D01*
X68934238Y-119851500D01*
X68734473Y-119811764D01*
X68634590Y-119791896D01*
X68352326Y-119674979D01*
X68098295Y-119505241D01*
X67882259Y-119289205D01*
X67712521Y-119035174D01*
X67595604Y-118752910D01*
X67575736Y-118653027D01*
X67536000Y-118453262D01*
X67536000Y-118147738D01*
X67595604Y-117848091D01*
X67623388Y-117781014D01*
X67712521Y-117565826D01*
X67882259Y-117311795D01*
X68098295Y-117095759D01*
X68352326Y-116926021D01*
X68634590Y-116809104D01*
X68734473Y-116789236D01*
X68934238Y-116749500D01*
X69239762Y-116749500D01*
X69439527Y-116789236D01*
X69439527Y-116789236D01*
G37*
G36*
X53439527Y-116789236D02*
X53539410Y-116809104D01*
X53821674Y-116926021D01*
X54075705Y-117095759D01*
X54291741Y-117311795D01*
X54461479Y-117565826D01*
X54550612Y-117781014D01*
X54578396Y-117848091D01*
X54638000Y-118147738D01*
X54638000Y-118453262D01*
X54598264Y-118653027D01*
X54578396Y-118752910D01*
X54461479Y-119035174D01*
X54291741Y-119289205D01*
X54075705Y-119505241D01*
X53821674Y-119674979D01*
X53539410Y-119791896D01*
X53439527Y-119811764D01*
X53239762Y-119851500D01*
X52934238Y-119851500D01*
X52734473Y-119811764D01*
X52634590Y-119791896D01*
X52352326Y-119674979D01*
X52098295Y-119505241D01*
X51882259Y-119289205D01*
X51712521Y-119035174D01*
X51595604Y-118752910D01*
X51575736Y-118653027D01*
X51536000Y-118453262D01*
X51536000Y-118147738D01*
X51595604Y-117848091D01*
X51623388Y-117781014D01*
X51712521Y-117565826D01*
X51882259Y-117311795D01*
X52098295Y-117095759D01*
X52352326Y-116926021D01*
X52634590Y-116809104D01*
X52734473Y-116789236D01*
X52934238Y-116749500D01*
X53239762Y-116749500D01*
X53439527Y-116789236D01*
X53439527Y-116789236D01*
G37*
G36*
X57439527Y-116789236D02*
X57539410Y-116809104D01*
X57821674Y-116926021D01*
X58075705Y-117095759D01*
X58291741Y-117311795D01*
X58461479Y-117565826D01*
X58550612Y-117781014D01*
X58578396Y-117848091D01*
X58638000Y-118147738D01*
X58638000Y-118453262D01*
X58598264Y-118653027D01*
X58578396Y-118752910D01*
X58461479Y-119035174D01*
X58291741Y-119289205D01*
X58075705Y-119505241D01*
X57821674Y-119674979D01*
X57539410Y-119791896D01*
X57439527Y-119811764D01*
X57239762Y-119851500D01*
X56934238Y-119851500D01*
X56734473Y-119811764D01*
X56634590Y-119791896D01*
X56352326Y-119674979D01*
X56098295Y-119505241D01*
X55882259Y-119289205D01*
X55712521Y-119035174D01*
X55595604Y-118752910D01*
X55575736Y-118653027D01*
X55536000Y-118453262D01*
X55536000Y-118147738D01*
X55595604Y-117848091D01*
X55623388Y-117781014D01*
X55712521Y-117565826D01*
X55882259Y-117311795D01*
X56098295Y-117095759D01*
X56352326Y-116926021D01*
X56634590Y-116809104D01*
X56734473Y-116789236D01*
X56934238Y-116749500D01*
X57239762Y-116749500D01*
X57439527Y-116789236D01*
X57439527Y-116789236D01*
G37*
G36*
X45439527Y-116789236D02*
X45539410Y-116809104D01*
X45821674Y-116926021D01*
X46075705Y-117095759D01*
X46291741Y-117311795D01*
X46461479Y-117565826D01*
X46550612Y-117781014D01*
X46578396Y-117848091D01*
X46638000Y-118147738D01*
X46638000Y-118453262D01*
X46598264Y-118653027D01*
X46578396Y-118752910D01*
X46461479Y-119035174D01*
X46291741Y-119289205D01*
X46075705Y-119505241D01*
X45821674Y-119674979D01*
X45539410Y-119791896D01*
X45439527Y-119811764D01*
X45239762Y-119851500D01*
X44934238Y-119851500D01*
X44734473Y-119811764D01*
X44634590Y-119791896D01*
X44352326Y-119674979D01*
X44098295Y-119505241D01*
X43882259Y-119289205D01*
X43712521Y-119035174D01*
X43595604Y-118752910D01*
X43575736Y-118653027D01*
X43536000Y-118453262D01*
X43536000Y-118147738D01*
X43595604Y-117848091D01*
X43623388Y-117781014D01*
X43712521Y-117565826D01*
X43882259Y-117311795D01*
X44098295Y-117095759D01*
X44352326Y-116926021D01*
X44634590Y-116809104D01*
X44734473Y-116789236D01*
X44934238Y-116749500D01*
X45239762Y-116749500D01*
X45439527Y-116789236D01*
X45439527Y-116789236D01*
G37*
G36*
X41439527Y-116789236D02*
X41539410Y-116809104D01*
X41821674Y-116926021D01*
X42075705Y-117095759D01*
X42291741Y-117311795D01*
X42461479Y-117565826D01*
X42550612Y-117781014D01*
X42578396Y-117848091D01*
X42638000Y-118147738D01*
X42638000Y-118453262D01*
X42598264Y-118653027D01*
X42578396Y-118752910D01*
X42461479Y-119035174D01*
X42291741Y-119289205D01*
X42075705Y-119505241D01*
X41821674Y-119674979D01*
X41539410Y-119791896D01*
X41439527Y-119811764D01*
X41239762Y-119851500D01*
X40934238Y-119851500D01*
X40734473Y-119811764D01*
X40634590Y-119791896D01*
X40352326Y-119674979D01*
X40098295Y-119505241D01*
X39882259Y-119289205D01*
X39712521Y-119035174D01*
X39595604Y-118752910D01*
X39575736Y-118653027D01*
X39536000Y-118453262D01*
X39536000Y-118147738D01*
X39595604Y-117848091D01*
X39623388Y-117781014D01*
X39712521Y-117565826D01*
X39882259Y-117311795D01*
X40098295Y-117095759D01*
X40352326Y-116926021D01*
X40634590Y-116809104D01*
X40734473Y-116789236D01*
X40934238Y-116749500D01*
X41239762Y-116749500D01*
X41439527Y-116789236D01*
X41439527Y-116789236D01*
G37*
G36*
X86726312Y-117982124D02*
X86890284Y-118050044D01*
X87037854Y-118148647D01*
X87163353Y-118274146D01*
X87261956Y-118421716D01*
X87329876Y-118585688D01*
X87364500Y-118759759D01*
X87364500Y-118937241D01*
X87329876Y-119111312D01*
X87261956Y-119275284D01*
X87163353Y-119422854D01*
X87037854Y-119548353D01*
X86890284Y-119646956D01*
X86726312Y-119714876D01*
X86552241Y-119749500D01*
X86374759Y-119749500D01*
X86200688Y-119714876D01*
X86036716Y-119646956D01*
X85889146Y-119548353D01*
X85763647Y-119422854D01*
X85665044Y-119275284D01*
X85597124Y-119111312D01*
X85562500Y-118937241D01*
X85562500Y-118759759D01*
X85597124Y-118585688D01*
X85665044Y-118421716D01*
X85763647Y-118274146D01*
X85889146Y-118148647D01*
X86036716Y-118050044D01*
X86200688Y-117982124D01*
X86374759Y-117947500D01*
X86552241Y-117947500D01*
X86726312Y-117982124D01*
X86726312Y-117982124D01*
G37*
G36*
X23488793Y-117588524D02*
X23678334Y-117667034D01*
X23848920Y-117781016D01*
X23993984Y-117926080D01*
X24107966Y-118096666D01*
X24186476Y-118286207D01*
X24226500Y-118487420D01*
X24226500Y-118692580D01*
X24186476Y-118893793D01*
X24107966Y-119083334D01*
X23993984Y-119253920D01*
X23848920Y-119398984D01*
X23678334Y-119512966D01*
X23488793Y-119591476D01*
X23287580Y-119631500D01*
X23082420Y-119631500D01*
X22881207Y-119591476D01*
X22691666Y-119512966D01*
X22521080Y-119398984D01*
X22376016Y-119253920D01*
X22262034Y-119083334D01*
X22183524Y-118893793D01*
X22143500Y-118692580D01*
X22143500Y-118487420D01*
X22183524Y-118286207D01*
X22262034Y-118096666D01*
X22376016Y-117926080D01*
X22521080Y-117781016D01*
X22691666Y-117667034D01*
X22881207Y-117588524D01*
X23082420Y-117548500D01*
X23287580Y-117548500D01*
X23488793Y-117588524D01*
X23488793Y-117588524D01*
G37*
G36*
X21173621Y-116119302D02*
X21310022Y-116175801D01*
X21432779Y-116257825D01*
X21537175Y-116362221D01*
X21619199Y-116484978D01*
X21675698Y-116621379D01*
X21704500Y-116766181D01*
X21704500Y-116913819D01*
X21675698Y-117058621D01*
X21619199Y-117195022D01*
X21537175Y-117317779D01*
X21432779Y-117422175D01*
X21310022Y-117504199D01*
X21173621Y-117560698D01*
X21028819Y-117589500D01*
X20881181Y-117589500D01*
X20736379Y-117560698D01*
X20599978Y-117504199D01*
X20477221Y-117422175D01*
X20372825Y-117317779D01*
X20290801Y-117195022D01*
X20234302Y-117058621D01*
X20205500Y-116913819D01*
X20205500Y-116766181D01*
X20234302Y-116621379D01*
X20290801Y-116484978D01*
X20372825Y-116362221D01*
X20477221Y-116257825D01*
X20599978Y-116175801D01*
X20736379Y-116119302D01*
X20881181Y-116090500D01*
X21028819Y-116090500D01*
X21173621Y-116119302D01*
X21173621Y-116119302D01*
G37*
G36*
X86726312Y-115482124D02*
X86890284Y-115550044D01*
X87037854Y-115648647D01*
X87163353Y-115774146D01*
X87261956Y-115921716D01*
X87329876Y-116085688D01*
X87364500Y-116259759D01*
X87364500Y-116437241D01*
X87329876Y-116611312D01*
X87261956Y-116775284D01*
X87163353Y-116922854D01*
X87037854Y-117048353D01*
X86890284Y-117146956D01*
X86726312Y-117214876D01*
X86552241Y-117249500D01*
X86374759Y-117249500D01*
X86200688Y-117214876D01*
X86036716Y-117146956D01*
X85889146Y-117048353D01*
X85763647Y-116922854D01*
X85665044Y-116775284D01*
X85597124Y-116611312D01*
X85562500Y-116437241D01*
X85562500Y-116259759D01*
X85597124Y-116085688D01*
X85665044Y-115921716D01*
X85763647Y-115774146D01*
X85889146Y-115648647D01*
X86036716Y-115550044D01*
X86200688Y-115482124D01*
X86374759Y-115447500D01*
X86552241Y-115447500D01*
X86726312Y-115482124D01*
X86726312Y-115482124D01*
G37*
G36*
X89226312Y-115482124D02*
X89390284Y-115550044D01*
X89537854Y-115648647D01*
X89663353Y-115774146D01*
X89761956Y-115921716D01*
X89829876Y-116085688D01*
X89864500Y-116259759D01*
X89864500Y-116437241D01*
X89829876Y-116611312D01*
X89761956Y-116775284D01*
X89663353Y-116922854D01*
X89537854Y-117048353D01*
X89390284Y-117146956D01*
X89226312Y-117214876D01*
X89052241Y-117249500D01*
X88874759Y-117249500D01*
X88700688Y-117214876D01*
X88536716Y-117146956D01*
X88389146Y-117048353D01*
X88263647Y-116922854D01*
X88165044Y-116775284D01*
X88097124Y-116611312D01*
X88062500Y-116437241D01*
X88062500Y-116259759D01*
X88097124Y-116085688D01*
X88165044Y-115921716D01*
X88263647Y-115774146D01*
X88389146Y-115648647D01*
X88536716Y-115550044D01*
X88700688Y-115482124D01*
X88874759Y-115447500D01*
X89052241Y-115447500D01*
X89226312Y-115482124D01*
X89226312Y-115482124D01*
G37*
G36*
X67439527Y-112789236D02*
X67539410Y-112809104D01*
X67821674Y-112926021D01*
X68075705Y-113095759D01*
X68291741Y-113311795D01*
X68461479Y-113565826D01*
X68578396Y-113848090D01*
X68638000Y-114147740D01*
X68638000Y-114453260D01*
X68578396Y-114752910D01*
X68461479Y-115035174D01*
X68291741Y-115289205D01*
X68075705Y-115505241D01*
X67821674Y-115674979D01*
X67539410Y-115791896D01*
X67439527Y-115811764D01*
X67239762Y-115851500D01*
X66934238Y-115851500D01*
X66734473Y-115811764D01*
X66634590Y-115791896D01*
X66352326Y-115674979D01*
X66098295Y-115505241D01*
X65882259Y-115289205D01*
X65712521Y-115035174D01*
X65595604Y-114752910D01*
X65536000Y-114453260D01*
X65536000Y-114147740D01*
X65595604Y-113848090D01*
X65712521Y-113565826D01*
X65882259Y-113311795D01*
X66098295Y-113095759D01*
X66352326Y-112926021D01*
X66634590Y-112809104D01*
X66734473Y-112789236D01*
X66934238Y-112749500D01*
X67239762Y-112749500D01*
X67439527Y-112789236D01*
X67439527Y-112789236D01*
G37*
G36*
X63439527Y-112789236D02*
X63539410Y-112809104D01*
X63821674Y-112926021D01*
X64075705Y-113095759D01*
X64291741Y-113311795D01*
X64461479Y-113565826D01*
X64578396Y-113848090D01*
X64638000Y-114147740D01*
X64638000Y-114453260D01*
X64578396Y-114752910D01*
X64461479Y-115035174D01*
X64291741Y-115289205D01*
X64075705Y-115505241D01*
X63821674Y-115674979D01*
X63539410Y-115791896D01*
X63439527Y-115811764D01*
X63239762Y-115851500D01*
X62934238Y-115851500D01*
X62734473Y-115811764D01*
X62634590Y-115791896D01*
X62352326Y-115674979D01*
X62098295Y-115505241D01*
X61882259Y-115289205D01*
X61712521Y-115035174D01*
X61595604Y-114752910D01*
X61536000Y-114453260D01*
X61536000Y-114147740D01*
X61595604Y-113848090D01*
X61712521Y-113565826D01*
X61882259Y-113311795D01*
X62098295Y-113095759D01*
X62352326Y-112926021D01*
X62634590Y-112809104D01*
X62734473Y-112789236D01*
X62934238Y-112749500D01*
X63239762Y-112749500D01*
X63439527Y-112789236D01*
X63439527Y-112789236D01*
G37*
G36*
X55439527Y-112789236D02*
X55539410Y-112809104D01*
X55821674Y-112926021D01*
X56075705Y-113095759D01*
X56291741Y-113311795D01*
X56461479Y-113565826D01*
X56578396Y-113848090D01*
X56638000Y-114147740D01*
X56638000Y-114453260D01*
X56578396Y-114752910D01*
X56461479Y-115035174D01*
X56291741Y-115289205D01*
X56075705Y-115505241D01*
X55821674Y-115674979D01*
X55539410Y-115791896D01*
X55439527Y-115811764D01*
X55239762Y-115851500D01*
X54934238Y-115851500D01*
X54734473Y-115811764D01*
X54634590Y-115791896D01*
X54352326Y-115674979D01*
X54098295Y-115505241D01*
X53882259Y-115289205D01*
X53712521Y-115035174D01*
X53595604Y-114752910D01*
X53536000Y-114453260D01*
X53536000Y-114147740D01*
X53595604Y-113848090D01*
X53712521Y-113565826D01*
X53882259Y-113311795D01*
X54098295Y-113095759D01*
X54352326Y-112926021D01*
X54634590Y-112809104D01*
X54734473Y-112789236D01*
X54934238Y-112749500D01*
X55239762Y-112749500D01*
X55439527Y-112789236D01*
X55439527Y-112789236D01*
G37*
G36*
X59439527Y-112789236D02*
X59539410Y-112809104D01*
X59821674Y-112926021D01*
X60075705Y-113095759D01*
X60291741Y-113311795D01*
X60461479Y-113565826D01*
X60578396Y-113848090D01*
X60638000Y-114147740D01*
X60638000Y-114453260D01*
X60578396Y-114752910D01*
X60461479Y-115035174D01*
X60291741Y-115289205D01*
X60075705Y-115505241D01*
X59821674Y-115674979D01*
X59539410Y-115791896D01*
X59439527Y-115811764D01*
X59239762Y-115851500D01*
X58934238Y-115851500D01*
X58734473Y-115811764D01*
X58634590Y-115791896D01*
X58352326Y-115674979D01*
X58098295Y-115505241D01*
X57882259Y-115289205D01*
X57712521Y-115035174D01*
X57595604Y-114752910D01*
X57536000Y-114453260D01*
X57536000Y-114147740D01*
X57595604Y-113848090D01*
X57712521Y-113565826D01*
X57882259Y-113311795D01*
X58098295Y-113095759D01*
X58352326Y-112926021D01*
X58634590Y-112809104D01*
X58734473Y-112789236D01*
X58934238Y-112749500D01*
X59239762Y-112749500D01*
X59439527Y-112789236D01*
X59439527Y-112789236D01*
G37*
G36*
X43439527Y-112789236D02*
X43539410Y-112809104D01*
X43821674Y-112926021D01*
X44075705Y-113095759D01*
X44291741Y-113311795D01*
X44461479Y-113565826D01*
X44578396Y-113848090D01*
X44638000Y-114147740D01*
X44638000Y-114453260D01*
X44578396Y-114752910D01*
X44461479Y-115035174D01*
X44291741Y-115289205D01*
X44075705Y-115505241D01*
X43821674Y-115674979D01*
X43539410Y-115791896D01*
X43439527Y-115811764D01*
X43239762Y-115851500D01*
X42934238Y-115851500D01*
X42734473Y-115811764D01*
X42634590Y-115791896D01*
X42352326Y-115674979D01*
X42098295Y-115505241D01*
X41882259Y-115289205D01*
X41712521Y-115035174D01*
X41595604Y-114752910D01*
X41536000Y-114453260D01*
X41536000Y-114147740D01*
X41595604Y-113848090D01*
X41712521Y-113565826D01*
X41882259Y-113311795D01*
X42098295Y-113095759D01*
X42352326Y-112926021D01*
X42634590Y-112809104D01*
X42734473Y-112789236D01*
X42934238Y-112749500D01*
X43239762Y-112749500D01*
X43439527Y-112789236D01*
X43439527Y-112789236D01*
G37*
G36*
X51439527Y-112789236D02*
X51539410Y-112809104D01*
X51821674Y-112926021D01*
X52075705Y-113095759D01*
X52291741Y-113311795D01*
X52461479Y-113565826D01*
X52578396Y-113848090D01*
X52638000Y-114147740D01*
X52638000Y-114453260D01*
X52578396Y-114752910D01*
X52461479Y-115035174D01*
X52291741Y-115289205D01*
X52075705Y-115505241D01*
X51821674Y-115674979D01*
X51539410Y-115791896D01*
X51439527Y-115811764D01*
X51239762Y-115851500D01*
X50934238Y-115851500D01*
X50734473Y-115811764D01*
X50634590Y-115791896D01*
X50352326Y-115674979D01*
X50098295Y-115505241D01*
X49882259Y-115289205D01*
X49712521Y-115035174D01*
X49595604Y-114752910D01*
X49536000Y-114453260D01*
X49536000Y-114147740D01*
X49595604Y-113848090D01*
X49712521Y-113565826D01*
X49882259Y-113311795D01*
X50098295Y-113095759D01*
X50352326Y-112926021D01*
X50634590Y-112809104D01*
X50734473Y-112789236D01*
X50934238Y-112749500D01*
X51239762Y-112749500D01*
X51439527Y-112789236D01*
X51439527Y-112789236D01*
G37*
G36*
X47439527Y-112789236D02*
X47539410Y-112809104D01*
X47821674Y-112926021D01*
X48075705Y-113095759D01*
X48291741Y-113311795D01*
X48461479Y-113565826D01*
X48578396Y-113848090D01*
X48638000Y-114147740D01*
X48638000Y-114453260D01*
X48578396Y-114752910D01*
X48461479Y-115035174D01*
X48291741Y-115289205D01*
X48075705Y-115505241D01*
X47821674Y-115674979D01*
X47539410Y-115791896D01*
X47439527Y-115811764D01*
X47239762Y-115851500D01*
X46934238Y-115851500D01*
X46734473Y-115811764D01*
X46634590Y-115791896D01*
X46352326Y-115674979D01*
X46098295Y-115505241D01*
X45882259Y-115289205D01*
X45712521Y-115035174D01*
X45595604Y-114752910D01*
X45536000Y-114453260D01*
X45536000Y-114147740D01*
X45595604Y-113848090D01*
X45712521Y-113565826D01*
X45882259Y-113311795D01*
X46098295Y-113095759D01*
X46352326Y-112926021D01*
X46634590Y-112809104D01*
X46734473Y-112789236D01*
X46934238Y-112749500D01*
X47239762Y-112749500D01*
X47439527Y-112789236D01*
X47439527Y-112789236D01*
G37*
G36*
X76017531Y-112381221D02*
X76286149Y-112492486D01*
X76527898Y-112654018D01*
X76733482Y-112859602D01*
X76895014Y-113101351D01*
X77006279Y-113369969D01*
X77063000Y-113655125D01*
X77063000Y-113945875D01*
X77006279Y-114231031D01*
X76895014Y-114499649D01*
X76733482Y-114741398D01*
X76527898Y-114946982D01*
X76286149Y-115108514D01*
X76017531Y-115219779D01*
X75732375Y-115276500D01*
X75441625Y-115276500D01*
X75156469Y-115219779D01*
X74887851Y-115108514D01*
X74646102Y-114946982D01*
X74440518Y-114741398D01*
X74278986Y-114499649D01*
X74167721Y-114231031D01*
X74111000Y-113945875D01*
X74111000Y-113655125D01*
X74167721Y-113369969D01*
X74278986Y-113101351D01*
X74440518Y-112859602D01*
X74646102Y-112654018D01*
X74887851Y-112492486D01*
X75156469Y-112381221D01*
X75441625Y-112324500D01*
X75732375Y-112324500D01*
X76017531Y-112381221D01*
X76017531Y-112381221D01*
G37*
G36*
X35017531Y-112381221D02*
X35286149Y-112492486D01*
X35527898Y-112654018D01*
X35733482Y-112859602D01*
X35895014Y-113101351D01*
X36006279Y-113369969D01*
X36063000Y-113655125D01*
X36063000Y-113945875D01*
X36006279Y-114231031D01*
X35895014Y-114499649D01*
X35733482Y-114741398D01*
X35527898Y-114946982D01*
X35286149Y-115108514D01*
X35017531Y-115219779D01*
X34732375Y-115276500D01*
X34441625Y-115276500D01*
X34156469Y-115219779D01*
X33887851Y-115108514D01*
X33646102Y-114946982D01*
X33440518Y-114741398D01*
X33278986Y-114499649D01*
X33167721Y-114231031D01*
X33111000Y-113945875D01*
X33111000Y-113655125D01*
X33167721Y-113369969D01*
X33278986Y-113101351D01*
X33440518Y-112859602D01*
X33646102Y-112654018D01*
X33887851Y-112492486D01*
X34156469Y-112381221D01*
X34441625Y-112324500D01*
X34732375Y-112324500D01*
X35017531Y-112381221D01*
X35017531Y-112381221D01*
G37*
G36*
X45439527Y-108789236D02*
X45539410Y-108809104D01*
X45821674Y-108926021D01*
X46075705Y-109095759D01*
X46291741Y-109311795D01*
X46461479Y-109565826D01*
X46578396Y-109848090D01*
X46638000Y-110147740D01*
X46638000Y-110453260D01*
X46578396Y-110752910D01*
X46461479Y-111035174D01*
X46291741Y-111289205D01*
X46075705Y-111505241D01*
X45821674Y-111674979D01*
X45539410Y-111791896D01*
X45439527Y-111811764D01*
X45239762Y-111851500D01*
X44934238Y-111851500D01*
X44734473Y-111811764D01*
X44634590Y-111791896D01*
X44352326Y-111674979D01*
X44098295Y-111505241D01*
X43882259Y-111289205D01*
X43712521Y-111035174D01*
X43595604Y-110752910D01*
X43536000Y-110453260D01*
X43536000Y-110147740D01*
X43595604Y-109848090D01*
X43712521Y-109565826D01*
X43882259Y-109311795D01*
X44098295Y-109095759D01*
X44352326Y-108926021D01*
X44634590Y-108809104D01*
X44734473Y-108789236D01*
X44934238Y-108749500D01*
X45239762Y-108749500D01*
X45439527Y-108789236D01*
X45439527Y-108789236D01*
G37*
G36*
X69439527Y-108789236D02*
X69539410Y-108809104D01*
X69821674Y-108926021D01*
X70075705Y-109095759D01*
X70291741Y-109311795D01*
X70461479Y-109565826D01*
X70578396Y-109848090D01*
X70638000Y-110147740D01*
X70638000Y-110453260D01*
X70578396Y-110752910D01*
X70461479Y-111035174D01*
X70291741Y-111289205D01*
X70075705Y-111505241D01*
X69821674Y-111674979D01*
X69539410Y-111791896D01*
X69439527Y-111811764D01*
X69239762Y-111851500D01*
X68934238Y-111851500D01*
X68734473Y-111811764D01*
X68634590Y-111791896D01*
X68352326Y-111674979D01*
X68098295Y-111505241D01*
X67882259Y-111289205D01*
X67712521Y-111035174D01*
X67595604Y-110752910D01*
X67536000Y-110453260D01*
X67536000Y-110147740D01*
X67595604Y-109848090D01*
X67712521Y-109565826D01*
X67882259Y-109311795D01*
X68098295Y-109095759D01*
X68352326Y-108926021D01*
X68634590Y-108809104D01*
X68734473Y-108789236D01*
X68934238Y-108749500D01*
X69239762Y-108749500D01*
X69439527Y-108789236D01*
X69439527Y-108789236D01*
G37*
G36*
X65439527Y-108789236D02*
X65539410Y-108809104D01*
X65821674Y-108926021D01*
X66075705Y-109095759D01*
X66291741Y-109311795D01*
X66461479Y-109565826D01*
X66578396Y-109848090D01*
X66638000Y-110147740D01*
X66638000Y-110453260D01*
X66578396Y-110752910D01*
X66461479Y-111035174D01*
X66291741Y-111289205D01*
X66075705Y-111505241D01*
X65821674Y-111674979D01*
X65539410Y-111791896D01*
X65439527Y-111811764D01*
X65239762Y-111851500D01*
X64934238Y-111851500D01*
X64734473Y-111811764D01*
X64634590Y-111791896D01*
X64352326Y-111674979D01*
X64098295Y-111505241D01*
X63882259Y-111289205D01*
X63712521Y-111035174D01*
X63595604Y-110752910D01*
X63536000Y-110453260D01*
X63536000Y-110147740D01*
X63595604Y-109848090D01*
X63712521Y-109565826D01*
X63882259Y-109311795D01*
X64098295Y-109095759D01*
X64352326Y-108926021D01*
X64634590Y-108809104D01*
X64734473Y-108789236D01*
X64934238Y-108749500D01*
X65239762Y-108749500D01*
X65439527Y-108789236D01*
X65439527Y-108789236D01*
G37*
G36*
X61439527Y-108789236D02*
X61539410Y-108809104D01*
X61821674Y-108926021D01*
X62075705Y-109095759D01*
X62291741Y-109311795D01*
X62461479Y-109565826D01*
X62578396Y-109848090D01*
X62638000Y-110147740D01*
X62638000Y-110453260D01*
X62578396Y-110752910D01*
X62461479Y-111035174D01*
X62291741Y-111289205D01*
X62075705Y-111505241D01*
X61821674Y-111674979D01*
X61539410Y-111791896D01*
X61439527Y-111811764D01*
X61239762Y-111851500D01*
X60934238Y-111851500D01*
X60734473Y-111811764D01*
X60634590Y-111791896D01*
X60352326Y-111674979D01*
X60098295Y-111505241D01*
X59882259Y-111289205D01*
X59712521Y-111035174D01*
X59595604Y-110752910D01*
X59536000Y-110453260D01*
X59536000Y-110147740D01*
X59595604Y-109848090D01*
X59712521Y-109565826D01*
X59882259Y-109311795D01*
X60098295Y-109095759D01*
X60352326Y-108926021D01*
X60634590Y-108809104D01*
X60734473Y-108789236D01*
X60934238Y-108749500D01*
X61239762Y-108749500D01*
X61439527Y-108789236D01*
X61439527Y-108789236D01*
G37*
G36*
X57439527Y-108789236D02*
X57539410Y-108809104D01*
X57821674Y-108926021D01*
X58075705Y-109095759D01*
X58291741Y-109311795D01*
X58461479Y-109565826D01*
X58578396Y-109848090D01*
X58638000Y-110147740D01*
X58638000Y-110453260D01*
X58578396Y-110752910D01*
X58461479Y-111035174D01*
X58291741Y-111289205D01*
X58075705Y-111505241D01*
X57821674Y-111674979D01*
X57539410Y-111791896D01*
X57439527Y-111811764D01*
X57239762Y-111851500D01*
X56934238Y-111851500D01*
X56734473Y-111811764D01*
X56634590Y-111791896D01*
X56352326Y-111674979D01*
X56098295Y-111505241D01*
X55882259Y-111289205D01*
X55712521Y-111035174D01*
X55595604Y-110752910D01*
X55536000Y-110453260D01*
X55536000Y-110147740D01*
X55595604Y-109848090D01*
X55712521Y-109565826D01*
X55882259Y-109311795D01*
X56098295Y-109095759D01*
X56352326Y-108926021D01*
X56634590Y-108809104D01*
X56734473Y-108789236D01*
X56934238Y-108749500D01*
X57239762Y-108749500D01*
X57439527Y-108789236D01*
X57439527Y-108789236D01*
G37*
G36*
X53439527Y-108789236D02*
X53539410Y-108809104D01*
X53821674Y-108926021D01*
X54075705Y-109095759D01*
X54291741Y-109311795D01*
X54461479Y-109565826D01*
X54578396Y-109848090D01*
X54638000Y-110147740D01*
X54638000Y-110453260D01*
X54578396Y-110752910D01*
X54461479Y-111035174D01*
X54291741Y-111289205D01*
X54075705Y-111505241D01*
X53821674Y-111674979D01*
X53539410Y-111791896D01*
X53439527Y-111811764D01*
X53239762Y-111851500D01*
X52934238Y-111851500D01*
X52734473Y-111811764D01*
X52634590Y-111791896D01*
X52352326Y-111674979D01*
X52098295Y-111505241D01*
X51882259Y-111289205D01*
X51712521Y-111035174D01*
X51595604Y-110752910D01*
X51536000Y-110453260D01*
X51536000Y-110147740D01*
X51595604Y-109848090D01*
X51712521Y-109565826D01*
X51882259Y-109311795D01*
X52098295Y-109095759D01*
X52352326Y-108926021D01*
X52634590Y-108809104D01*
X52734473Y-108789236D01*
X52934238Y-108749500D01*
X53239762Y-108749500D01*
X53439527Y-108789236D01*
X53439527Y-108789236D01*
G37*
G36*
X49439527Y-108789236D02*
X49539410Y-108809104D01*
X49821674Y-108926021D01*
X50075705Y-109095759D01*
X50291741Y-109311795D01*
X50461479Y-109565826D01*
X50578396Y-109848090D01*
X50638000Y-110147740D01*
X50638000Y-110453260D01*
X50578396Y-110752910D01*
X50461479Y-111035174D01*
X50291741Y-111289205D01*
X50075705Y-111505241D01*
X49821674Y-111674979D01*
X49539410Y-111791896D01*
X49439527Y-111811764D01*
X49239762Y-111851500D01*
X48934238Y-111851500D01*
X48734473Y-111811764D01*
X48634590Y-111791896D01*
X48352326Y-111674979D01*
X48098295Y-111505241D01*
X47882259Y-111289205D01*
X47712521Y-111035174D01*
X47595604Y-110752910D01*
X47536000Y-110453260D01*
X47536000Y-110147740D01*
X47595604Y-109848090D01*
X47712521Y-109565826D01*
X47882259Y-109311795D01*
X48098295Y-109095759D01*
X48352326Y-108926021D01*
X48634590Y-108809104D01*
X48734473Y-108789236D01*
X48934238Y-108749500D01*
X49239762Y-108749500D01*
X49439527Y-108789236D01*
X49439527Y-108789236D01*
G37*
G36*
X41439527Y-108789236D02*
X41539410Y-108809104D01*
X41821674Y-108926021D01*
X42075705Y-109095759D01*
X42291741Y-109311795D01*
X42461479Y-109565826D01*
X42578396Y-109848090D01*
X42638000Y-110147740D01*
X42638000Y-110453260D01*
X42578396Y-110752910D01*
X42461479Y-111035174D01*
X42291741Y-111289205D01*
X42075705Y-111505241D01*
X41821674Y-111674979D01*
X41539410Y-111791896D01*
X41439527Y-111811764D01*
X41239762Y-111851500D01*
X40934238Y-111851500D01*
X40734473Y-111811764D01*
X40634590Y-111791896D01*
X40352326Y-111674979D01*
X40098295Y-111505241D01*
X39882259Y-111289205D01*
X39712521Y-111035174D01*
X39595604Y-110752910D01*
X39536000Y-110453260D01*
X39536000Y-110147740D01*
X39595604Y-109848090D01*
X39712521Y-109565826D01*
X39882259Y-109311795D01*
X40098295Y-109095759D01*
X40352326Y-108926021D01*
X40634590Y-108809104D01*
X40734473Y-108789236D01*
X40934238Y-108749500D01*
X41239762Y-108749500D01*
X41439527Y-108789236D01*
X41439527Y-108789236D01*
G37*
G36*
X30193565Y-105989889D02*
X30384834Y-106069115D01*
X30556976Y-106184137D01*
X30703363Y-106330524D01*
X30818385Y-106502666D01*
X30897611Y-106693935D01*
X30938000Y-106896984D01*
X30938000Y-107104016D01*
X30897611Y-107307065D01*
X30818385Y-107498334D01*
X30703363Y-107670476D01*
X30556976Y-107816863D01*
X30384834Y-107931885D01*
X30193565Y-108011111D01*
X29990516Y-108051500D01*
X29783484Y-108051500D01*
X29580435Y-108011111D01*
X29389166Y-107931885D01*
X29217024Y-107816863D01*
X29070637Y-107670476D01*
X28955615Y-107498334D01*
X28876389Y-107307065D01*
X28836000Y-107104016D01*
X28836000Y-106896984D01*
X28876389Y-106693935D01*
X28955615Y-106502666D01*
X29070637Y-106330524D01*
X29217024Y-106184137D01*
X29389166Y-106069115D01*
X29580435Y-105989889D01*
X29783484Y-105949500D01*
X29990516Y-105949500D01*
X30193565Y-105989889D01*
X30193565Y-105989889D01*
G37*
G36*
X80593565Y-105989889D02*
X80784834Y-106069115D01*
X80956976Y-106184137D01*
X81103363Y-106330524D01*
X81218385Y-106502666D01*
X81297611Y-106693935D01*
X81338000Y-106896984D01*
X81338000Y-107104016D01*
X81297611Y-107307065D01*
X81218385Y-107498334D01*
X81103363Y-107670476D01*
X80956976Y-107816863D01*
X80784834Y-107931885D01*
X80593565Y-108011111D01*
X80390516Y-108051500D01*
X80183484Y-108051500D01*
X79980435Y-108011111D01*
X79789166Y-107931885D01*
X79617024Y-107816863D01*
X79470637Y-107670476D01*
X79355615Y-107498334D01*
X79276389Y-107307065D01*
X79236000Y-107104016D01*
X79236000Y-106896984D01*
X79276389Y-106693935D01*
X79355615Y-106502666D01*
X79470637Y-106330524D01*
X79617024Y-106184137D01*
X79789166Y-106069115D01*
X79980435Y-105989889D01*
X80183484Y-105949500D01*
X80390516Y-105949500D01*
X80593565Y-105989889D01*
X80593565Y-105989889D01*
G37*
G36*
X46672988Y-105284635D02*
X46800565Y-105337479D01*
X46915381Y-105414197D01*
X47013016Y-105511832D01*
X47089734Y-105626648D01*
X47142578Y-105754225D01*
X47169516Y-105889653D01*
X47169516Y-106027741D01*
X47142578Y-106163169D01*
X47089734Y-106290746D01*
X47013016Y-106405562D01*
X46915381Y-106503197D01*
X46800565Y-106579915D01*
X46672988Y-106632759D01*
X46537560Y-106659697D01*
X46399472Y-106659697D01*
X46264044Y-106632759D01*
X46136467Y-106579915D01*
X46021651Y-106503197D01*
X45924016Y-106405562D01*
X45847298Y-106290746D01*
X45794454Y-106163169D01*
X45767516Y-106027741D01*
X45767516Y-105889653D01*
X45794454Y-105754225D01*
X45847298Y-105626648D01*
X45924016Y-105511832D01*
X46021651Y-105414197D01*
X46136467Y-105337479D01*
X46264044Y-105284635D01*
X46399472Y-105257697D01*
X46537560Y-105257697D01*
X46672988Y-105284635D01*
X46672988Y-105284635D01*
G37*
G36*
X44132988Y-105284635D02*
X44260565Y-105337479D01*
X44375381Y-105414197D01*
X44473016Y-105511832D01*
X44549734Y-105626648D01*
X44602578Y-105754225D01*
X44629516Y-105889653D01*
X44629516Y-106027741D01*
X44602578Y-106163169D01*
X44549734Y-106290746D01*
X44473016Y-106405562D01*
X44375381Y-106503197D01*
X44260565Y-106579915D01*
X44132988Y-106632759D01*
X43997560Y-106659697D01*
X43859472Y-106659697D01*
X43724044Y-106632759D01*
X43596467Y-106579915D01*
X43481651Y-106503197D01*
X43384016Y-106405562D01*
X43307298Y-106290746D01*
X43254454Y-106163169D01*
X43227516Y-106027741D01*
X43227516Y-105889653D01*
X43254454Y-105754225D01*
X43307298Y-105626648D01*
X43384016Y-105511832D01*
X43481651Y-105414197D01*
X43596467Y-105337479D01*
X43724044Y-105284635D01*
X43859472Y-105257697D01*
X43997560Y-105257697D01*
X44132988Y-105284635D01*
X44132988Y-105284635D01*
G37*
G36*
X49212988Y-105284635D02*
X49340565Y-105337479D01*
X49455381Y-105414197D01*
X49553016Y-105511832D01*
X49629734Y-105626648D01*
X49682578Y-105754225D01*
X49709516Y-105889653D01*
X49709516Y-106027741D01*
X49682578Y-106163169D01*
X49629734Y-106290746D01*
X49553016Y-106405562D01*
X49455381Y-106503197D01*
X49340565Y-106579915D01*
X49212988Y-106632759D01*
X49077560Y-106659697D01*
X48939472Y-106659697D01*
X48804044Y-106632759D01*
X48676467Y-106579915D01*
X48561651Y-106503197D01*
X48464016Y-106405562D01*
X48387298Y-106290746D01*
X48334454Y-106163169D01*
X48307516Y-106027741D01*
X48307516Y-105889653D01*
X48334454Y-105754225D01*
X48387298Y-105626648D01*
X48464016Y-105511832D01*
X48561651Y-105414197D01*
X48676467Y-105337479D01*
X48804044Y-105284635D01*
X48939472Y-105257697D01*
X49077560Y-105257697D01*
X49212988Y-105284635D01*
X49212988Y-105284635D01*
G37*
G36*
X51752988Y-105284635D02*
X51880565Y-105337479D01*
X51995381Y-105414197D01*
X52093016Y-105511832D01*
X52169734Y-105626648D01*
X52222578Y-105754225D01*
X52249516Y-105889653D01*
X52249516Y-106027741D01*
X52222578Y-106163169D01*
X52169734Y-106290746D01*
X52093016Y-106405562D01*
X51995381Y-106503197D01*
X51880565Y-106579915D01*
X51752988Y-106632759D01*
X51617560Y-106659697D01*
X51479472Y-106659697D01*
X51344044Y-106632759D01*
X51216467Y-106579915D01*
X51101651Y-106503197D01*
X51004016Y-106405562D01*
X50927298Y-106290746D01*
X50874454Y-106163169D01*
X50847516Y-106027741D01*
X50847516Y-105889653D01*
X50874454Y-105754225D01*
X50927298Y-105626648D01*
X51004016Y-105511832D01*
X51101651Y-105414197D01*
X51216467Y-105337479D01*
X51344044Y-105284635D01*
X51479472Y-105257697D01*
X51617560Y-105257697D01*
X51752988Y-105284635D01*
X51752988Y-105284635D01*
G37*
G36*
X54292988Y-105284635D02*
X54420565Y-105337479D01*
X54535381Y-105414197D01*
X54633016Y-105511832D01*
X54709734Y-105626648D01*
X54762578Y-105754225D01*
X54789516Y-105889653D01*
X54789516Y-106027741D01*
X54762578Y-106163169D01*
X54709734Y-106290746D01*
X54633016Y-106405562D01*
X54535381Y-106503197D01*
X54420565Y-106579915D01*
X54292988Y-106632759D01*
X54157560Y-106659697D01*
X54019472Y-106659697D01*
X53884044Y-106632759D01*
X53756467Y-106579915D01*
X53641651Y-106503197D01*
X53544016Y-106405562D01*
X53467298Y-106290746D01*
X53414454Y-106163169D01*
X53387516Y-106027741D01*
X53387516Y-105889653D01*
X53414454Y-105754225D01*
X53467298Y-105626648D01*
X53544016Y-105511832D01*
X53641651Y-105414197D01*
X53756467Y-105337479D01*
X53884044Y-105284635D01*
X54019472Y-105257697D01*
X54157560Y-105257697D01*
X54292988Y-105284635D01*
X54292988Y-105284635D01*
G37*
G36*
X56832988Y-105284635D02*
X56960565Y-105337479D01*
X57075381Y-105414197D01*
X57173016Y-105511832D01*
X57249734Y-105626648D01*
X57302578Y-105754225D01*
X57329516Y-105889653D01*
X57329516Y-106027741D01*
X57302578Y-106163169D01*
X57249734Y-106290746D01*
X57173016Y-106405562D01*
X57075381Y-106503197D01*
X56960565Y-106579915D01*
X56832988Y-106632759D01*
X56697560Y-106659697D01*
X56559472Y-106659697D01*
X56424044Y-106632759D01*
X56296467Y-106579915D01*
X56181651Y-106503197D01*
X56084016Y-106405562D01*
X56007298Y-106290746D01*
X55954454Y-106163169D01*
X55927516Y-106027741D01*
X55927516Y-105889653D01*
X55954454Y-105754225D01*
X56007298Y-105626648D01*
X56084016Y-105511832D01*
X56181651Y-105414197D01*
X56296467Y-105337479D01*
X56424044Y-105284635D01*
X56559472Y-105257697D01*
X56697560Y-105257697D01*
X56832988Y-105284635D01*
X56832988Y-105284635D01*
G37*
G36*
X59372988Y-105284635D02*
X59500565Y-105337479D01*
X59615381Y-105414197D01*
X59713016Y-105511832D01*
X59789734Y-105626648D01*
X59842578Y-105754225D01*
X59869516Y-105889653D01*
X59869516Y-106027741D01*
X59842578Y-106163169D01*
X59789734Y-106290746D01*
X59713016Y-106405562D01*
X59615381Y-106503197D01*
X59500565Y-106579915D01*
X59372988Y-106632759D01*
X59237560Y-106659697D01*
X59099472Y-106659697D01*
X58964044Y-106632759D01*
X58836467Y-106579915D01*
X58721651Y-106503197D01*
X58624016Y-106405562D01*
X58547298Y-106290746D01*
X58494454Y-106163169D01*
X58467516Y-106027741D01*
X58467516Y-105889653D01*
X58494454Y-105754225D01*
X58547298Y-105626648D01*
X58624016Y-105511832D01*
X58721651Y-105414197D01*
X58836467Y-105337479D01*
X58964044Y-105284635D01*
X59099472Y-105257697D01*
X59237560Y-105257697D01*
X59372988Y-105284635D01*
X59372988Y-105284635D01*
G37*
G36*
X61912988Y-105284635D02*
X62040565Y-105337479D01*
X62155381Y-105414197D01*
X62253016Y-105511832D01*
X62329734Y-105626648D01*
X62382578Y-105754225D01*
X62409516Y-105889653D01*
X62409516Y-106027741D01*
X62382578Y-106163169D01*
X62329734Y-106290746D01*
X62253016Y-106405562D01*
X62155381Y-106503197D01*
X62040565Y-106579915D01*
X61912988Y-106632759D01*
X61777560Y-106659697D01*
X61639472Y-106659697D01*
X61504044Y-106632759D01*
X61376467Y-106579915D01*
X61261651Y-106503197D01*
X61164016Y-106405562D01*
X61087298Y-106290746D01*
X61034454Y-106163169D01*
X61007516Y-106027741D01*
X61007516Y-105889653D01*
X61034454Y-105754225D01*
X61087298Y-105626648D01*
X61164016Y-105511832D01*
X61261651Y-105414197D01*
X61376467Y-105337479D01*
X61504044Y-105284635D01*
X61639472Y-105257697D01*
X61777560Y-105257697D01*
X61912988Y-105284635D01*
X61912988Y-105284635D01*
G37*
G36*
X66992988Y-105284635D02*
X67120565Y-105337479D01*
X67235381Y-105414197D01*
X67333016Y-105511832D01*
X67409734Y-105626648D01*
X67462578Y-105754225D01*
X67489516Y-105889653D01*
X67489516Y-106027741D01*
X67462578Y-106163169D01*
X67409734Y-106290746D01*
X67333016Y-106405562D01*
X67235381Y-106503197D01*
X67120565Y-106579915D01*
X66992988Y-106632759D01*
X66857560Y-106659697D01*
X66719472Y-106659697D01*
X66584044Y-106632759D01*
X66456467Y-106579915D01*
X66341651Y-106503197D01*
X66244016Y-106405562D01*
X66167298Y-106290746D01*
X66114454Y-106163169D01*
X66087516Y-106027741D01*
X66087516Y-105889653D01*
X66114454Y-105754225D01*
X66167298Y-105626648D01*
X66244016Y-105511832D01*
X66341651Y-105414197D01*
X66456467Y-105337479D01*
X66584044Y-105284635D01*
X66719472Y-105257697D01*
X66857560Y-105257697D01*
X66992988Y-105284635D01*
X66992988Y-105284635D01*
G37*
G36*
X64452988Y-105284635D02*
X64580565Y-105337479D01*
X64695381Y-105414197D01*
X64793016Y-105511832D01*
X64869734Y-105626648D01*
X64922578Y-105754225D01*
X64949516Y-105889653D01*
X64949516Y-106027741D01*
X64922578Y-106163169D01*
X64869734Y-106290746D01*
X64793016Y-106405562D01*
X64695381Y-106503197D01*
X64580565Y-106579915D01*
X64452988Y-106632759D01*
X64317560Y-106659697D01*
X64179472Y-106659697D01*
X64044044Y-106632759D01*
X63916467Y-106579915D01*
X63801651Y-106503197D01*
X63704016Y-106405562D01*
X63627298Y-106290746D01*
X63574454Y-106163169D01*
X63547516Y-106027741D01*
X63547516Y-105889653D01*
X63574454Y-105754225D01*
X63627298Y-105626648D01*
X63704016Y-105511832D01*
X63801651Y-105414197D01*
X63916467Y-105337479D01*
X64044044Y-105284635D01*
X64179472Y-105257697D01*
X64317560Y-105257697D01*
X64452988Y-105284635D01*
X64452988Y-105284635D01*
G37*
G36*
X69765081Y-104208086D02*
X69956350Y-104287312D01*
X70128492Y-104402334D01*
X70274879Y-104548721D01*
X70389901Y-104720863D01*
X70469127Y-104912132D01*
X70509516Y-105115181D01*
X70509516Y-105322213D01*
X70469127Y-105525262D01*
X70389901Y-105716531D01*
X70274879Y-105888673D01*
X70128492Y-106035060D01*
X69956350Y-106150082D01*
X69765081Y-106229308D01*
X69562032Y-106269697D01*
X69355000Y-106269697D01*
X69151951Y-106229308D01*
X68960682Y-106150082D01*
X68788540Y-106035060D01*
X68642153Y-105888673D01*
X68527131Y-105716531D01*
X68447905Y-105525262D01*
X68407516Y-105322213D01*
X68407516Y-105115181D01*
X68447905Y-104912132D01*
X68527131Y-104720863D01*
X68642153Y-104548721D01*
X68788540Y-104402334D01*
X68960682Y-104287312D01*
X69151951Y-104208086D01*
X69355000Y-104167697D01*
X69562032Y-104167697D01*
X69765081Y-104208086D01*
X69765081Y-104208086D01*
G37*
G36*
X58102988Y-102744635D02*
X58230565Y-102797479D01*
X58345381Y-102874197D01*
X58443016Y-102971832D01*
X58519734Y-103086648D01*
X58572578Y-103214225D01*
X58599516Y-103349653D01*
X58599516Y-103487741D01*
X58572578Y-103623169D01*
X58519734Y-103750746D01*
X58443016Y-103865562D01*
X58345381Y-103963197D01*
X58230565Y-104039915D01*
X58102988Y-104092759D01*
X57967560Y-104119697D01*
X57829472Y-104119697D01*
X57694044Y-104092759D01*
X57566467Y-104039915D01*
X57451651Y-103963197D01*
X57354016Y-103865562D01*
X57277298Y-103750746D01*
X57224454Y-103623169D01*
X57197516Y-103487741D01*
X57197516Y-103349653D01*
X57224454Y-103214225D01*
X57277298Y-103086648D01*
X57354016Y-102971832D01*
X57451651Y-102874197D01*
X57566467Y-102797479D01*
X57694044Y-102744635D01*
X57829472Y-102717697D01*
X57967560Y-102717697D01*
X58102988Y-102744635D01*
X58102988Y-102744635D01*
G37*
G36*
X53022988Y-102744635D02*
X53150565Y-102797479D01*
X53265381Y-102874197D01*
X53363016Y-102971832D01*
X53439734Y-103086648D01*
X53492578Y-103214225D01*
X53519516Y-103349653D01*
X53519516Y-103487741D01*
X53492578Y-103623169D01*
X53439734Y-103750746D01*
X53363016Y-103865562D01*
X53265381Y-103963197D01*
X53150565Y-104039915D01*
X53022988Y-104092759D01*
X52887560Y-104119697D01*
X52749472Y-104119697D01*
X52614044Y-104092759D01*
X52486467Y-104039915D01*
X52371651Y-103963197D01*
X52274016Y-103865562D01*
X52197298Y-103750746D01*
X52144454Y-103623169D01*
X52117516Y-103487741D01*
X52117516Y-103349653D01*
X52144454Y-103214225D01*
X52197298Y-103086648D01*
X52274016Y-102971832D01*
X52371651Y-102874197D01*
X52486467Y-102797479D01*
X52614044Y-102744635D01*
X52749472Y-102717697D01*
X52887560Y-102717697D01*
X53022988Y-102744635D01*
X53022988Y-102744635D01*
G37*
G36*
X50482988Y-102744635D02*
X50610565Y-102797479D01*
X50725381Y-102874197D01*
X50823016Y-102971832D01*
X50899734Y-103086648D01*
X50952578Y-103214225D01*
X50979516Y-103349653D01*
X50979516Y-103487741D01*
X50952578Y-103623169D01*
X50899734Y-103750746D01*
X50823016Y-103865562D01*
X50725381Y-103963197D01*
X50610565Y-104039915D01*
X50482988Y-104092759D01*
X50347560Y-104119697D01*
X50209472Y-104119697D01*
X50074044Y-104092759D01*
X49946467Y-104039915D01*
X49831651Y-103963197D01*
X49734016Y-103865562D01*
X49657298Y-103750746D01*
X49604454Y-103623169D01*
X49577516Y-103487741D01*
X49577516Y-103349653D01*
X49604454Y-103214225D01*
X49657298Y-103086648D01*
X49734016Y-102971832D01*
X49831651Y-102874197D01*
X49946467Y-102797479D01*
X50074044Y-102744635D01*
X50209472Y-102717697D01*
X50347560Y-102717697D01*
X50482988Y-102744635D01*
X50482988Y-102744635D01*
G37*
G36*
X47942988Y-102744635D02*
X48070565Y-102797479D01*
X48185381Y-102874197D01*
X48283016Y-102971832D01*
X48359734Y-103086648D01*
X48412578Y-103214225D01*
X48439516Y-103349653D01*
X48439516Y-103487741D01*
X48412578Y-103623169D01*
X48359734Y-103750746D01*
X48283016Y-103865562D01*
X48185381Y-103963197D01*
X48070565Y-104039915D01*
X47942988Y-104092759D01*
X47807560Y-104119697D01*
X47669472Y-104119697D01*
X47534044Y-104092759D01*
X47406467Y-104039915D01*
X47291651Y-103963197D01*
X47194016Y-103865562D01*
X47117298Y-103750746D01*
X47064454Y-103623169D01*
X47037516Y-103487741D01*
X47037516Y-103349653D01*
X47064454Y-103214225D01*
X47117298Y-103086648D01*
X47194016Y-102971832D01*
X47291651Y-102874197D01*
X47406467Y-102797479D01*
X47534044Y-102744635D01*
X47669472Y-102717697D01*
X47807560Y-102717697D01*
X47942988Y-102744635D01*
X47942988Y-102744635D01*
G37*
G36*
X45402988Y-102744635D02*
X45530565Y-102797479D01*
X45645381Y-102874197D01*
X45743016Y-102971832D01*
X45819734Y-103086648D01*
X45872578Y-103214225D01*
X45899516Y-103349653D01*
X45899516Y-103487741D01*
X45872578Y-103623169D01*
X45819734Y-103750746D01*
X45743016Y-103865562D01*
X45645381Y-103963197D01*
X45530565Y-104039915D01*
X45402988Y-104092759D01*
X45267560Y-104119697D01*
X45129472Y-104119697D01*
X44994044Y-104092759D01*
X44866467Y-104039915D01*
X44751651Y-103963197D01*
X44654016Y-103865562D01*
X44577298Y-103750746D01*
X44524454Y-103623169D01*
X44497516Y-103487741D01*
X44497516Y-103349653D01*
X44524454Y-103214225D01*
X44577298Y-103086648D01*
X44654016Y-102971832D01*
X44751651Y-102874197D01*
X44866467Y-102797479D01*
X44994044Y-102744635D01*
X45129472Y-102717697D01*
X45267560Y-102717697D01*
X45402988Y-102744635D01*
X45402988Y-102744635D01*
G37*
G36*
X68262988Y-102744635D02*
X68390565Y-102797479D01*
X68505381Y-102874197D01*
X68603016Y-102971832D01*
X68679734Y-103086648D01*
X68732578Y-103214225D01*
X68759516Y-103349653D01*
X68759516Y-103487741D01*
X68732578Y-103623169D01*
X68679734Y-103750746D01*
X68603016Y-103865562D01*
X68505381Y-103963197D01*
X68390565Y-104039915D01*
X68262988Y-104092759D01*
X68127560Y-104119697D01*
X67989472Y-104119697D01*
X67854044Y-104092759D01*
X67726467Y-104039915D01*
X67611651Y-103963197D01*
X67514016Y-103865562D01*
X67437298Y-103750746D01*
X67384454Y-103623169D01*
X67357516Y-103487741D01*
X67357516Y-103349653D01*
X67384454Y-103214225D01*
X67437298Y-103086648D01*
X67514016Y-102971832D01*
X67611651Y-102874197D01*
X67726467Y-102797479D01*
X67854044Y-102744635D01*
X67989472Y-102717697D01*
X68127560Y-102717697D01*
X68262988Y-102744635D01*
X68262988Y-102744635D01*
G37*
G36*
X65722988Y-102744635D02*
X65850565Y-102797479D01*
X65965381Y-102874197D01*
X66063016Y-102971832D01*
X66139734Y-103086648D01*
X66192578Y-103214225D01*
X66219516Y-103349653D01*
X66219516Y-103487741D01*
X66192578Y-103623169D01*
X66139734Y-103750746D01*
X66063016Y-103865562D01*
X65965381Y-103963197D01*
X65850565Y-104039915D01*
X65722988Y-104092759D01*
X65587560Y-104119697D01*
X65449472Y-104119697D01*
X65314044Y-104092759D01*
X65186467Y-104039915D01*
X65071651Y-103963197D01*
X64974016Y-103865562D01*
X64897298Y-103750746D01*
X64844454Y-103623169D01*
X64817516Y-103487741D01*
X64817516Y-103349653D01*
X64844454Y-103214225D01*
X64897298Y-103086648D01*
X64974016Y-102971832D01*
X65071651Y-102874197D01*
X65186467Y-102797479D01*
X65314044Y-102744635D01*
X65449472Y-102717697D01*
X65587560Y-102717697D01*
X65722988Y-102744635D01*
X65722988Y-102744635D01*
G37*
G36*
X63182988Y-102744635D02*
X63310565Y-102797479D01*
X63425381Y-102874197D01*
X63523016Y-102971832D01*
X63599734Y-103086648D01*
X63652578Y-103214225D01*
X63679516Y-103349653D01*
X63679516Y-103487741D01*
X63652578Y-103623169D01*
X63599734Y-103750746D01*
X63523016Y-103865562D01*
X63425381Y-103963197D01*
X63310565Y-104039915D01*
X63182988Y-104092759D01*
X63047560Y-104119697D01*
X62909472Y-104119697D01*
X62774044Y-104092759D01*
X62646467Y-104039915D01*
X62531651Y-103963197D01*
X62434016Y-103865562D01*
X62357298Y-103750746D01*
X62304454Y-103623169D01*
X62277516Y-103487741D01*
X62277516Y-103349653D01*
X62304454Y-103214225D01*
X62357298Y-103086648D01*
X62434016Y-102971832D01*
X62531651Y-102874197D01*
X62646467Y-102797479D01*
X62774044Y-102744635D01*
X62909472Y-102717697D01*
X63047560Y-102717697D01*
X63182988Y-102744635D01*
X63182988Y-102744635D01*
G37*
G36*
X55562988Y-102744635D02*
X55690565Y-102797479D01*
X55805381Y-102874197D01*
X55903016Y-102971832D01*
X55979734Y-103086648D01*
X56032578Y-103214225D01*
X56059516Y-103349653D01*
X56059516Y-103487741D01*
X56032578Y-103623169D01*
X55979734Y-103750746D01*
X55903016Y-103865562D01*
X55805381Y-103963197D01*
X55690565Y-104039915D01*
X55562988Y-104092759D01*
X55427560Y-104119697D01*
X55289472Y-104119697D01*
X55154044Y-104092759D01*
X55026467Y-104039915D01*
X54911651Y-103963197D01*
X54814016Y-103865562D01*
X54737298Y-103750746D01*
X54684454Y-103623169D01*
X54657516Y-103487741D01*
X54657516Y-103349653D01*
X54684454Y-103214225D01*
X54737298Y-103086648D01*
X54814016Y-102971832D01*
X54911651Y-102874197D01*
X55026467Y-102797479D01*
X55154044Y-102744635D01*
X55289472Y-102717697D01*
X55427560Y-102717697D01*
X55562988Y-102744635D01*
X55562988Y-102744635D01*
G37*
G36*
X60642988Y-102744635D02*
X60770565Y-102797479D01*
X60885381Y-102874197D01*
X60983016Y-102971832D01*
X61059734Y-103086648D01*
X61112578Y-103214225D01*
X61139516Y-103349653D01*
X61139516Y-103487741D01*
X61112578Y-103623169D01*
X61059734Y-103750746D01*
X60983016Y-103865562D01*
X60885381Y-103963197D01*
X60770565Y-104039915D01*
X60642988Y-104092759D01*
X60507560Y-104119697D01*
X60369472Y-104119697D01*
X60234044Y-104092759D01*
X60106467Y-104039915D01*
X59991651Y-103963197D01*
X59894016Y-103865562D01*
X59817298Y-103750746D01*
X59764454Y-103623169D01*
X59737516Y-103487741D01*
X59737516Y-103349653D01*
X59764454Y-103214225D01*
X59817298Y-103086648D01*
X59894016Y-102971832D01*
X59991651Y-102874197D01*
X60106467Y-102797479D01*
X60234044Y-102744635D01*
X60369472Y-102717697D01*
X60507560Y-102717697D01*
X60642988Y-102744635D01*
X60642988Y-102744635D01*
G37*
G36*
X33855143Y-88168281D02*
X34000915Y-88228662D01*
X34132111Y-88316324D01*
X34243676Y-88427889D01*
X34331338Y-88559085D01*
X34391719Y-88704857D01*
X34422500Y-88859607D01*
X34422500Y-89017393D01*
X34391719Y-89172143D01*
X34331338Y-89317915D01*
X34243676Y-89449111D01*
X34132111Y-89560676D01*
X34000915Y-89648338D01*
X33855143Y-89708719D01*
X33700393Y-89739500D01*
X33542607Y-89739500D01*
X33387857Y-89708719D01*
X33242085Y-89648338D01*
X33110889Y-89560676D01*
X32999324Y-89449111D01*
X32911662Y-89317915D01*
X32851281Y-89172143D01*
X32820500Y-89017393D01*
X32820500Y-88859607D01*
X32851281Y-88704857D01*
X32911662Y-88559085D01*
X32999324Y-88427889D01*
X33110889Y-88316324D01*
X33242085Y-88228662D01*
X33387857Y-88168281D01*
X33542607Y-88137500D01*
X33700393Y-88137500D01*
X33855143Y-88168281D01*
X33855143Y-88168281D01*
G37*
G36*
X41475143Y-88168281D02*
X41620915Y-88228662D01*
X41752111Y-88316324D01*
X41863676Y-88427889D01*
X41951338Y-88559085D01*
X42011719Y-88704857D01*
X42042500Y-88859607D01*
X42042500Y-89017393D01*
X42011719Y-89172143D01*
X41951338Y-89317915D01*
X41863676Y-89449111D01*
X41752111Y-89560676D01*
X41620915Y-89648338D01*
X41475143Y-89708719D01*
X41320393Y-89739500D01*
X41162607Y-89739500D01*
X41007857Y-89708719D01*
X40862085Y-89648338D01*
X40730889Y-89560676D01*
X40619324Y-89449111D01*
X40531662Y-89317915D01*
X40471281Y-89172143D01*
X40440500Y-89017393D01*
X40440500Y-88859607D01*
X40471281Y-88704857D01*
X40531662Y-88559085D01*
X40619324Y-88427889D01*
X40730889Y-88316324D01*
X40862085Y-88228662D01*
X41007857Y-88168281D01*
X41162607Y-88137500D01*
X41320393Y-88137500D01*
X41475143Y-88168281D01*
X41475143Y-88168281D01*
G37*
G36*
X38935143Y-88168281D02*
X39080915Y-88228662D01*
X39212111Y-88316324D01*
X39323676Y-88427889D01*
X39411338Y-88559085D01*
X39471719Y-88704857D01*
X39502500Y-88859607D01*
X39502500Y-89017393D01*
X39471719Y-89172143D01*
X39411338Y-89317915D01*
X39323676Y-89449111D01*
X39212111Y-89560676D01*
X39080915Y-89648338D01*
X38935143Y-89708719D01*
X38780393Y-89739500D01*
X38622607Y-89739500D01*
X38467857Y-89708719D01*
X38322085Y-89648338D01*
X38190889Y-89560676D01*
X38079324Y-89449111D01*
X37991662Y-89317915D01*
X37931281Y-89172143D01*
X37900500Y-89017393D01*
X37900500Y-88859607D01*
X37931281Y-88704857D01*
X37991662Y-88559085D01*
X38079324Y-88427889D01*
X38190889Y-88316324D01*
X38322085Y-88228662D01*
X38467857Y-88168281D01*
X38622607Y-88137500D01*
X38780393Y-88137500D01*
X38935143Y-88168281D01*
X38935143Y-88168281D01*
G37*
G36*
X36395143Y-88168281D02*
X36540915Y-88228662D01*
X36672111Y-88316324D01*
X36783676Y-88427889D01*
X36871338Y-88559085D01*
X36931719Y-88704857D01*
X36962500Y-88859607D01*
X36962500Y-89017393D01*
X36931719Y-89172143D01*
X36871338Y-89317915D01*
X36783676Y-89449111D01*
X36672111Y-89560676D01*
X36540915Y-89648338D01*
X36395143Y-89708719D01*
X36240393Y-89739500D01*
X36082607Y-89739500D01*
X35927857Y-89708719D01*
X35782085Y-89648338D01*
X35650889Y-89560676D01*
X35539324Y-89449111D01*
X35451662Y-89317915D01*
X35391281Y-89172143D01*
X35360500Y-89017393D01*
X35360500Y-88859607D01*
X35391281Y-88704857D01*
X35451662Y-88559085D01*
X35539324Y-88427889D01*
X35650889Y-88316324D01*
X35782085Y-88228662D01*
X35927857Y-88168281D01*
X36082607Y-88137500D01*
X36240393Y-88137500D01*
X36395143Y-88168281D01*
X36395143Y-88168281D01*
G37*
G36*
X32585143Y-85628281D02*
X32730915Y-85688662D01*
X32862111Y-85776324D01*
X32973676Y-85887889D01*
X33061338Y-86019085D01*
X33121719Y-86164857D01*
X33152500Y-86319607D01*
X33152500Y-86477393D01*
X33121719Y-86632143D01*
X33061338Y-86777915D01*
X32973676Y-86909111D01*
X32862111Y-87020676D01*
X32730915Y-87108338D01*
X32585143Y-87168719D01*
X32430393Y-87199500D01*
X32272607Y-87199500D01*
X32117857Y-87168719D01*
X31972085Y-87108338D01*
X31840889Y-87020676D01*
X31729324Y-86909111D01*
X31641662Y-86777915D01*
X31581281Y-86632143D01*
X31550500Y-86477393D01*
X31550500Y-86319607D01*
X31581281Y-86164857D01*
X31641662Y-86019085D01*
X31729324Y-85887889D01*
X31840889Y-85776324D01*
X31972085Y-85688662D01*
X32117857Y-85628281D01*
X32272607Y-85597500D01*
X32430393Y-85597500D01*
X32585143Y-85628281D01*
X32585143Y-85628281D01*
G37*
G36*
X37665143Y-85628281D02*
X37810915Y-85688662D01*
X37942111Y-85776324D01*
X38053676Y-85887889D01*
X38141338Y-86019085D01*
X38201719Y-86164857D01*
X38232500Y-86319607D01*
X38232500Y-86477393D01*
X38201719Y-86632143D01*
X38141338Y-86777915D01*
X38053676Y-86909111D01*
X37942111Y-87020676D01*
X37810915Y-87108338D01*
X37665143Y-87168719D01*
X37510393Y-87199500D01*
X37352607Y-87199500D01*
X37197857Y-87168719D01*
X37052085Y-87108338D01*
X36920889Y-87020676D01*
X36809324Y-86909111D01*
X36721662Y-86777915D01*
X36661281Y-86632143D01*
X36630500Y-86477393D01*
X36630500Y-86319607D01*
X36661281Y-86164857D01*
X36721662Y-86019085D01*
X36809324Y-85887889D01*
X36920889Y-85776324D01*
X37052085Y-85688662D01*
X37197857Y-85628281D01*
X37352607Y-85597500D01*
X37510393Y-85597500D01*
X37665143Y-85628281D01*
X37665143Y-85628281D01*
G37*
G36*
X40205143Y-85628281D02*
X40350915Y-85688662D01*
X40482111Y-85776324D01*
X40593676Y-85887889D01*
X40681338Y-86019085D01*
X40741719Y-86164857D01*
X40772500Y-86319607D01*
X40772500Y-86477393D01*
X40741719Y-86632143D01*
X40681338Y-86777915D01*
X40593676Y-86909111D01*
X40482111Y-87020676D01*
X40350915Y-87108338D01*
X40205143Y-87168719D01*
X40050393Y-87199500D01*
X39892607Y-87199500D01*
X39737857Y-87168719D01*
X39592085Y-87108338D01*
X39460889Y-87020676D01*
X39349324Y-86909111D01*
X39261662Y-86777915D01*
X39201281Y-86632143D01*
X39170500Y-86477393D01*
X39170500Y-86319607D01*
X39201281Y-86164857D01*
X39261662Y-86019085D01*
X39349324Y-85887889D01*
X39460889Y-85776324D01*
X39592085Y-85688662D01*
X39737857Y-85628281D01*
X39892607Y-85597500D01*
X40050393Y-85597500D01*
X40205143Y-85628281D01*
X40205143Y-85628281D01*
G37*
G36*
X35125143Y-85628281D02*
X35270915Y-85688662D01*
X35402111Y-85776324D01*
X35513676Y-85887889D01*
X35601338Y-86019085D01*
X35661719Y-86164857D01*
X35692500Y-86319607D01*
X35692500Y-86477393D01*
X35661719Y-86632143D01*
X35601338Y-86777915D01*
X35513676Y-86909111D01*
X35402111Y-87020676D01*
X35270915Y-87108338D01*
X35125143Y-87168719D01*
X34970393Y-87199500D01*
X34812607Y-87199500D01*
X34657857Y-87168719D01*
X34512085Y-87108338D01*
X34380889Y-87020676D01*
X34269324Y-86909111D01*
X34181662Y-86777915D01*
X34121281Y-86632143D01*
X34090500Y-86477393D01*
X34090500Y-86319607D01*
X34121281Y-86164857D01*
X34181662Y-86019085D01*
X34269324Y-85887889D01*
X34380889Y-85776324D01*
X34512085Y-85688662D01*
X34657857Y-85628281D01*
X34812607Y-85597500D01*
X34970393Y-85597500D01*
X35125143Y-85628281D01*
X35125143Y-85628281D01*
G37*
G36*
X30267449Y-83147300D02*
X30526963Y-83254794D01*
X30760525Y-83410855D01*
X30959145Y-83609475D01*
X31115206Y-83843037D01*
X31222700Y-84102551D01*
X31277500Y-84378050D01*
X31277500Y-84658950D01*
X31222700Y-84934449D01*
X31115206Y-85193963D01*
X30959145Y-85427525D01*
X30760525Y-85626145D01*
X30526963Y-85782206D01*
X30267449Y-85889700D01*
X29991950Y-85944500D01*
X29711050Y-85944500D01*
X29435551Y-85889700D01*
X29176037Y-85782206D01*
X28942475Y-85626145D01*
X28743855Y-85427525D01*
X28587794Y-85193963D01*
X28480300Y-84934449D01*
X28425500Y-84658950D01*
X28425500Y-84378050D01*
X28480300Y-84102551D01*
X28587794Y-83843037D01*
X28743855Y-83609475D01*
X28942475Y-83410855D01*
X29176037Y-83254794D01*
X29435551Y-83147300D01*
X29711050Y-83092500D01*
X29991950Y-83092500D01*
X30267449Y-83147300D01*
X30267449Y-83147300D01*
G37*
G36*
X44167449Y-83147300D02*
X44426963Y-83254794D01*
X44660525Y-83410855D01*
X44859145Y-83609475D01*
X45015206Y-83843037D01*
X45122700Y-84102551D01*
X45177500Y-84378050D01*
X45177500Y-84658950D01*
X45122700Y-84934449D01*
X45015206Y-85193963D01*
X44859145Y-85427525D01*
X44660525Y-85626145D01*
X44426963Y-85782206D01*
X44167449Y-85889700D01*
X43891950Y-85944500D01*
X43611050Y-85944500D01*
X43335551Y-85889700D01*
X43076037Y-85782206D01*
X42842475Y-85626145D01*
X42643855Y-85427525D01*
X42487794Y-85193963D01*
X42380300Y-84934449D01*
X42325500Y-84658950D01*
X42325500Y-84378050D01*
X42380300Y-84102551D01*
X42487794Y-83843037D01*
X42643855Y-83609475D01*
X42842475Y-83410855D01*
X43076037Y-83254794D01*
X43335551Y-83147300D01*
X43611050Y-83092500D01*
X43891950Y-83092500D01*
X44167449Y-83147300D01*
X44167449Y-83147300D01*
G37*
G36*
X41045143Y-78998281D02*
X41190915Y-79058662D01*
X41322111Y-79146324D01*
X41433676Y-79257889D01*
X41521338Y-79389085D01*
X41581719Y-79534857D01*
X41612500Y-79689607D01*
X41612500Y-79847393D01*
X41581719Y-80002143D01*
X41521338Y-80147915D01*
X41433676Y-80279111D01*
X41322111Y-80390676D01*
X41190915Y-80478338D01*
X41045143Y-80538719D01*
X40890393Y-80569500D01*
X40732607Y-80569500D01*
X40577857Y-80538719D01*
X40432085Y-80478338D01*
X40300889Y-80390676D01*
X40189324Y-80279111D01*
X40101662Y-80147915D01*
X40041281Y-80002143D01*
X40010500Y-79847393D01*
X40010500Y-79689607D01*
X40041281Y-79534857D01*
X40101662Y-79389085D01*
X40189324Y-79257889D01*
X40300889Y-79146324D01*
X40432085Y-79058662D01*
X40577857Y-78998281D01*
X40732607Y-78967500D01*
X40890393Y-78967500D01*
X41045143Y-78998281D01*
X41045143Y-78998281D01*
G37*
G36*
X43585143Y-78998281D02*
X43730915Y-79058662D01*
X43862111Y-79146324D01*
X43973676Y-79257889D01*
X44061338Y-79389085D01*
X44121719Y-79534857D01*
X44152500Y-79689607D01*
X44152500Y-79847393D01*
X44121719Y-80002143D01*
X44061338Y-80147915D01*
X43973676Y-80279111D01*
X43862111Y-80390676D01*
X43730915Y-80478338D01*
X43585143Y-80538719D01*
X43430393Y-80569500D01*
X43272607Y-80569500D01*
X43117857Y-80538719D01*
X42972085Y-80478338D01*
X42840889Y-80390676D01*
X42729324Y-80279111D01*
X42641662Y-80147915D01*
X42581281Y-80002143D01*
X42550500Y-79847393D01*
X42550500Y-79689607D01*
X42581281Y-79534857D01*
X42641662Y-79389085D01*
X42729324Y-79257889D01*
X42840889Y-79146324D01*
X42972085Y-79058662D01*
X43117857Y-78998281D01*
X43272607Y-78967500D01*
X43430393Y-78967500D01*
X43585143Y-78998281D01*
X43585143Y-78998281D01*
G37*
G36*
X33025143Y-78998281D02*
X33170915Y-79058662D01*
X33302111Y-79146324D01*
X33413676Y-79257889D01*
X33501338Y-79389085D01*
X33561719Y-79534857D01*
X33592500Y-79689607D01*
X33592500Y-79847393D01*
X33561719Y-80002143D01*
X33501338Y-80147915D01*
X33413676Y-80279111D01*
X33302111Y-80390676D01*
X33170915Y-80478338D01*
X33025143Y-80538719D01*
X32870393Y-80569500D01*
X32712607Y-80569500D01*
X32557857Y-80538719D01*
X32412085Y-80478338D01*
X32280889Y-80390676D01*
X32169324Y-80279111D01*
X32081662Y-80147915D01*
X32021281Y-80002143D01*
X31990500Y-79847393D01*
X31990500Y-79689607D01*
X32021281Y-79534857D01*
X32081662Y-79389085D01*
X32169324Y-79257889D01*
X32280889Y-79146324D01*
X32412085Y-79058662D01*
X32557857Y-78998281D01*
X32712607Y-78967500D01*
X32870393Y-78967500D01*
X33025143Y-78998281D01*
X33025143Y-78998281D01*
G37*
G36*
X30485143Y-78998281D02*
X30630915Y-79058662D01*
X30762111Y-79146324D01*
X30873676Y-79257889D01*
X30961338Y-79389085D01*
X31021719Y-79534857D01*
X31052500Y-79689607D01*
X31052500Y-79847393D01*
X31021719Y-80002143D01*
X30961338Y-80147915D01*
X30873676Y-80279111D01*
X30762111Y-80390676D01*
X30630915Y-80478338D01*
X30485143Y-80538719D01*
X30330393Y-80569500D01*
X30172607Y-80569500D01*
X30017857Y-80538719D01*
X29872085Y-80478338D01*
X29740889Y-80390676D01*
X29629324Y-80279111D01*
X29541662Y-80147915D01*
X29481281Y-80002143D01*
X29450500Y-79847393D01*
X29450500Y-79689607D01*
X29481281Y-79534857D01*
X29541662Y-79389085D01*
X29629324Y-79257889D01*
X29740889Y-79146324D01*
X29872085Y-79058662D01*
X30017857Y-78998281D01*
X30172607Y-78967500D01*
X30330393Y-78967500D01*
X30485143Y-78998281D01*
X30485143Y-78998281D01*
G37*
G36*
X89090988Y-71546635D02*
X89218565Y-71599479D01*
X89333381Y-71676197D01*
X89431016Y-71773832D01*
X89507734Y-71888648D01*
X89560578Y-72016225D01*
X89587516Y-72151653D01*
X89587516Y-72289741D01*
X89560578Y-72425169D01*
X89507734Y-72552746D01*
X89431016Y-72667562D01*
X89333381Y-72765197D01*
X89218565Y-72841915D01*
X89090988Y-72894759D01*
X88955560Y-72921697D01*
X88817472Y-72921697D01*
X88682044Y-72894759D01*
X88554467Y-72841915D01*
X88439651Y-72765197D01*
X88342016Y-72667562D01*
X88265298Y-72552746D01*
X88212454Y-72425169D01*
X88185516Y-72289741D01*
X88185516Y-72151653D01*
X88212454Y-72016225D01*
X88265298Y-71888648D01*
X88342016Y-71773832D01*
X88439651Y-71676197D01*
X88554467Y-71599479D01*
X88682044Y-71546635D01*
X88817472Y-71519697D01*
X88955560Y-71519697D01*
X89090988Y-71546635D01*
X89090988Y-71546635D01*
G37*
G36*
X91630988Y-71546635D02*
X91758565Y-71599479D01*
X91873381Y-71676197D01*
X91971016Y-71773832D01*
X92047734Y-71888648D01*
X92100578Y-72016225D01*
X92127516Y-72151653D01*
X92127516Y-72289741D01*
X92100578Y-72425169D01*
X92047734Y-72552746D01*
X91971016Y-72667562D01*
X91873381Y-72765197D01*
X91758565Y-72841915D01*
X91630988Y-72894759D01*
X91495560Y-72921697D01*
X91357472Y-72921697D01*
X91222044Y-72894759D01*
X91094467Y-72841915D01*
X90979651Y-72765197D01*
X90882016Y-72667562D01*
X90805298Y-72552746D01*
X90752454Y-72425169D01*
X90725516Y-72289741D01*
X90725516Y-72151653D01*
X90752454Y-72016225D01*
X90805298Y-71888648D01*
X90882016Y-71773832D01*
X90979651Y-71676197D01*
X91094467Y-71599479D01*
X91222044Y-71546635D01*
X91357472Y-71519697D01*
X91495560Y-71519697D01*
X91630988Y-71546635D01*
X91630988Y-71546635D01*
G37*
G36*
X94403081Y-70170086D02*
X94594350Y-70249312D01*
X94766492Y-70364334D01*
X94912879Y-70510721D01*
X95027901Y-70682863D01*
X95107127Y-70874132D01*
X95147516Y-71077181D01*
X95147516Y-71284213D01*
X95107127Y-71487262D01*
X95027901Y-71678531D01*
X94912879Y-71850673D01*
X94766492Y-71997060D01*
X94594350Y-72112082D01*
X94403081Y-72191308D01*
X94200032Y-72231697D01*
X93993000Y-72231697D01*
X93789951Y-72191308D01*
X93598682Y-72112082D01*
X93426540Y-71997060D01*
X93280153Y-71850673D01*
X93165131Y-71678531D01*
X93085905Y-71487262D01*
X93045516Y-71284213D01*
X93045516Y-71077181D01*
X93085905Y-70874132D01*
X93165131Y-70682863D01*
X93280153Y-70510721D01*
X93426540Y-70364334D01*
X93598682Y-70249312D01*
X93789951Y-70170086D01*
X93993000Y-70129697D01*
X94200032Y-70129697D01*
X94403081Y-70170086D01*
X94403081Y-70170086D01*
G37*
G36*
X92900988Y-69006635D02*
X93028565Y-69059479D01*
X93143381Y-69136197D01*
X93241016Y-69233832D01*
X93317734Y-69348648D01*
X93370578Y-69476225D01*
X93397516Y-69611653D01*
X93397516Y-69749741D01*
X93370578Y-69885169D01*
X93317734Y-70012746D01*
X93241016Y-70127562D01*
X93143381Y-70225197D01*
X93028565Y-70301915D01*
X92900988Y-70354759D01*
X92765560Y-70381697D01*
X92627472Y-70381697D01*
X92492044Y-70354759D01*
X92364467Y-70301915D01*
X92249651Y-70225197D01*
X92152016Y-70127562D01*
X92075298Y-70012746D01*
X92022454Y-69885169D01*
X91995516Y-69749741D01*
X91995516Y-69611653D01*
X92022454Y-69476225D01*
X92075298Y-69348648D01*
X92152016Y-69233832D01*
X92249651Y-69136197D01*
X92364467Y-69059479D01*
X92492044Y-69006635D01*
X92627472Y-68979697D01*
X92765560Y-68979697D01*
X92900988Y-69006635D01*
X92900988Y-69006635D01*
G37*
G36*
X90360988Y-69006635D02*
X90488565Y-69059479D01*
X90603381Y-69136197D01*
X90701016Y-69233832D01*
X90777734Y-69348648D01*
X90830578Y-69476225D01*
X90857516Y-69611653D01*
X90857516Y-69749741D01*
X90830578Y-69885169D01*
X90777734Y-70012746D01*
X90701016Y-70127562D01*
X90603381Y-70225197D01*
X90488565Y-70301915D01*
X90360988Y-70354759D01*
X90225560Y-70381697D01*
X90087472Y-70381697D01*
X89952044Y-70354759D01*
X89824467Y-70301915D01*
X89709651Y-70225197D01*
X89612016Y-70127562D01*
X89535298Y-70012746D01*
X89482454Y-69885169D01*
X89455516Y-69749741D01*
X89455516Y-69611653D01*
X89482454Y-69476225D01*
X89535298Y-69348648D01*
X89612016Y-69233832D01*
X89709651Y-69136197D01*
X89824467Y-69059479D01*
X89952044Y-69006635D01*
X90087472Y-68979697D01*
X90225560Y-68979697D01*
X90360988Y-69006635D01*
X90360988Y-69006635D01*
G37*
M02*
