G04 #@! TF.GenerationSoftware,KiCad,Pcbnew,5.0.0-fee4fd1~66~ubuntu18.04.1*
G04 #@! TF.CreationDate,2018-10-13T10:41:21-04:00*
G04 #@! TF.ProjectId,Intro,496E74726F2E6B696361645F70636200,rev?*
G04 #@! TF.SameCoordinates,Original*
G04 #@! TF.FileFunction,Legend,Top*
G04 #@! TF.FilePolarity,Positive*
%FSLAX46Y46*%
G04 Gerber Fmt 4.6, Leading zero omitted, Abs format (unit mm)*
G04 Created by KiCad (PCBNEW 5.0.0-fee4fd1~66~ubuntu18.04.1) date Sat Oct 13 10:41:21 2018*
%MOMM*%
%LPD*%
G01*
G04 APERTURE LIST*
%ADD10C,0.203200*%
%ADD11C,0.184500*%
%ADD12C,0.177800*%
%ADD13C,0.152400*%
%ADD14C,0.254000*%
%ADD15C,0.120000*%
%ADD16C,0.100000*%
%ADD17C,0.500000*%
%ADD18C,0.150000*%
%ADD19C,0.200000*%
G04 APERTURE END LIST*
D10*
X127334365Y-110680257D02*
X127539722Y-110751685D01*
X127602222Y-110823114D01*
X127655794Y-110965971D01*
X127629008Y-111180257D01*
X127539722Y-111323114D01*
X127459365Y-111394542D01*
X127307580Y-111465971D01*
X126736151Y-111465971D01*
X126923651Y-109965971D01*
X127423651Y-109965971D01*
X127557580Y-110037400D01*
X127620080Y-110108828D01*
X127673651Y-110251685D01*
X127655794Y-110394542D01*
X127566508Y-110537400D01*
X127486151Y-110608828D01*
X127334365Y-110680257D01*
X126834365Y-110680257D01*
X129004008Y-110465971D02*
X128879008Y-111465971D01*
X128361151Y-110465971D02*
X128262937Y-111251685D01*
X128316508Y-111394542D01*
X128450437Y-111465971D01*
X128664722Y-111465971D01*
X128816508Y-111394542D01*
X128896865Y-111323114D01*
X130245080Y-111394542D02*
X130093294Y-111465971D01*
X129807580Y-111465971D01*
X129673651Y-111394542D01*
X129611151Y-111323114D01*
X129557580Y-111180257D01*
X129611151Y-110751685D01*
X129700437Y-110608828D01*
X129780794Y-110537400D01*
X129932580Y-110465971D01*
X130218294Y-110465971D01*
X130352222Y-110537400D01*
X130879008Y-111465971D02*
X131066508Y-109965971D01*
X131093294Y-110894542D02*
X131450437Y-111465971D01*
X131575437Y-110465971D02*
X130932580Y-111037400D01*
X127611151Y-113776314D02*
X127530794Y-113847742D01*
X127307580Y-113919171D01*
X127164722Y-113919171D01*
X126959365Y-113847742D01*
X126834365Y-113704885D01*
X126780794Y-113562028D01*
X126745080Y-113276314D01*
X126771865Y-113062028D01*
X126879008Y-112776314D01*
X126968294Y-112633457D01*
X127129008Y-112490600D01*
X127352222Y-112419171D01*
X127495080Y-112419171D01*
X127700437Y-112490600D01*
X127762937Y-112562028D01*
X128450437Y-113919171D02*
X128316508Y-113847742D01*
X128254008Y-113776314D01*
X128200437Y-113633457D01*
X128254008Y-113204885D01*
X128343294Y-113062028D01*
X128423651Y-112990600D01*
X128575437Y-112919171D01*
X128789722Y-112919171D01*
X128923651Y-112990600D01*
X128986151Y-113062028D01*
X129039722Y-113204885D01*
X128986151Y-113633457D01*
X128896865Y-113776314D01*
X128816508Y-113847742D01*
X128664722Y-113919171D01*
X128450437Y-113919171D01*
X129718294Y-112919171D02*
X129593294Y-113919171D01*
X129700437Y-113062028D02*
X129780794Y-112990600D01*
X129932580Y-112919171D01*
X130146865Y-112919171D01*
X130280794Y-112990600D01*
X130334365Y-113133457D01*
X130236151Y-113919171D01*
X130932580Y-112919171D02*
X131164722Y-113919171D01*
X131646865Y-112919171D01*
X132673651Y-113847742D02*
X132521865Y-113919171D01*
X132236151Y-113919171D01*
X132102222Y-113847742D01*
X132048651Y-113704885D01*
X132120080Y-113133457D01*
X132209365Y-112990600D01*
X132361151Y-112919171D01*
X132646865Y-112919171D01*
X132780794Y-112990600D01*
X132834365Y-113133457D01*
X132816508Y-113276314D01*
X132084365Y-113419171D01*
X133379008Y-113919171D02*
X133504008Y-112919171D01*
X133468294Y-113204885D02*
X133557580Y-113062028D01*
X133637937Y-112990600D01*
X133789722Y-112919171D01*
X133932580Y-112919171D01*
X134218294Y-112919171D02*
X134789722Y-112919171D01*
X134495080Y-112419171D02*
X134334365Y-113704885D01*
X134387937Y-113847742D01*
X134521865Y-113919171D01*
X134664722Y-113919171D01*
X135745080Y-113847742D02*
X135593294Y-113919171D01*
X135307580Y-113919171D01*
X135173651Y-113847742D01*
X135120080Y-113704885D01*
X135191508Y-113133457D01*
X135280794Y-112990600D01*
X135432580Y-112919171D01*
X135718294Y-112919171D01*
X135852222Y-112990600D01*
X135905794Y-113133457D01*
X135887937Y-113276314D01*
X135155794Y-113419171D01*
X136450437Y-113919171D02*
X136575437Y-112919171D01*
X136539722Y-113204885D02*
X136629008Y-113062028D01*
X136709365Y-112990600D01*
X136861151Y-112919171D01*
X137004008Y-112919171D01*
D11*
X158012853Y-64228107D02*
X158153425Y-64228107D01*
X158219317Y-64263250D01*
X158280817Y-64333535D01*
X158298389Y-64474107D01*
X158267639Y-64720107D01*
X158214925Y-64860678D01*
X158135853Y-64930964D01*
X158061175Y-64966107D01*
X157920603Y-64966107D01*
X157854710Y-64930964D01*
X157793210Y-64860678D01*
X157775639Y-64720107D01*
X157806389Y-64474107D01*
X157859103Y-64333535D01*
X157938175Y-64263250D01*
X158012853Y-64228107D01*
X158553175Y-64966107D02*
X158645425Y-64228107D01*
X158926567Y-64228107D01*
X158992460Y-64263250D01*
X159023210Y-64298392D01*
X159049567Y-64368678D01*
X159036389Y-64474107D01*
X158992460Y-64544392D01*
X158952925Y-64579535D01*
X158878246Y-64614678D01*
X158597103Y-64614678D01*
X159282389Y-64755250D02*
X159633817Y-64755250D01*
X159185746Y-64966107D02*
X159523996Y-64228107D01*
X159677746Y-64966107D01*
X157780032Y-66257607D02*
X157872282Y-65519607D01*
X158192960Y-65765607D02*
X158131460Y-66257607D01*
X158184175Y-65835892D02*
X158223710Y-65800750D01*
X158298389Y-65765607D01*
X158403817Y-65765607D01*
X158469710Y-65800750D01*
X158496067Y-65871035D01*
X158447746Y-66257607D01*
X137119746Y-65728107D02*
X136917675Y-65376678D01*
X136698032Y-65728107D02*
X136790282Y-64990107D01*
X137071425Y-64990107D01*
X137137317Y-65025250D01*
X137168067Y-65060392D01*
X137194425Y-65130678D01*
X137181246Y-65236107D01*
X137137317Y-65306392D01*
X137097782Y-65341535D01*
X137023103Y-65376678D01*
X136741960Y-65376678D01*
X137866532Y-65657821D02*
X137826996Y-65692964D01*
X137717175Y-65728107D01*
X137646889Y-65728107D01*
X137545853Y-65692964D01*
X137484353Y-65622678D01*
X137457996Y-65552392D01*
X137440425Y-65411821D01*
X137453603Y-65306392D01*
X137506317Y-65165821D01*
X137550246Y-65095535D01*
X137629317Y-65025250D01*
X137739139Y-64990107D01*
X137809425Y-64990107D01*
X137910460Y-65025250D01*
X137941210Y-65060392D01*
X136698032Y-67019607D02*
X136790282Y-66281607D01*
X137110960Y-66527607D02*
X137049460Y-67019607D01*
X137102175Y-66597892D02*
X137141710Y-66562750D01*
X137216389Y-66527607D01*
X137321817Y-66527607D01*
X137387710Y-66562750D01*
X137414067Y-66633035D01*
X137365746Y-67019607D01*
X157749282Y-84488964D02*
X157850317Y-84524107D01*
X158026032Y-84524107D01*
X158100710Y-84488964D01*
X158140246Y-84453821D01*
X158184175Y-84383535D01*
X158192960Y-84313250D01*
X158166603Y-84242964D01*
X158135853Y-84207821D01*
X158069960Y-84172678D01*
X157933782Y-84137535D01*
X157867889Y-84102392D01*
X157837139Y-84067250D01*
X157810782Y-83996964D01*
X157819567Y-83926678D01*
X157863496Y-83856392D01*
X157903032Y-83821250D01*
X157977710Y-83786107D01*
X158153425Y-83786107D01*
X158254460Y-83821250D01*
X158452139Y-84488964D02*
X158553175Y-84524107D01*
X158728889Y-84524107D01*
X158803567Y-84488964D01*
X158843103Y-84453821D01*
X158887032Y-84383535D01*
X158895817Y-84313250D01*
X158869460Y-84242964D01*
X158838710Y-84207821D01*
X158772817Y-84172678D01*
X158636639Y-84137535D01*
X158570746Y-84102392D01*
X158539996Y-84067250D01*
X158513639Y-83996964D01*
X158522425Y-83926678D01*
X158566353Y-83856392D01*
X158605889Y-83821250D01*
X158680567Y-83786107D01*
X158856282Y-83786107D01*
X158957317Y-83821250D01*
X158012853Y-85077607D02*
X158153425Y-85077607D01*
X158219317Y-85112750D01*
X158280817Y-85183035D01*
X158298389Y-85323607D01*
X158267639Y-85569607D01*
X158214925Y-85710178D01*
X158135853Y-85780464D01*
X158061175Y-85815607D01*
X157920603Y-85815607D01*
X157854710Y-85780464D01*
X157793210Y-85710178D01*
X157775639Y-85569607D01*
X157806389Y-85323607D01*
X157859103Y-85183035D01*
X157938175Y-85112750D01*
X158012853Y-85077607D01*
X158930960Y-85323607D02*
X158869460Y-85815607D01*
X158614675Y-85323607D02*
X158566353Y-85710178D01*
X158592710Y-85780464D01*
X158658603Y-85815607D01*
X158764032Y-85815607D01*
X158838710Y-85780464D01*
X158878246Y-85745321D01*
X159176960Y-85323607D02*
X159458103Y-85323607D01*
X159313139Y-85077607D02*
X159234067Y-85710178D01*
X159260425Y-85780464D01*
X159326317Y-85815607D01*
X159396603Y-85815607D01*
X146009746Y-67506107D02*
X145807675Y-67154678D01*
X145588032Y-67506107D02*
X145680282Y-66768107D01*
X145961425Y-66768107D01*
X146027317Y-66803250D01*
X146058067Y-66838392D01*
X146084425Y-66908678D01*
X146071246Y-67014107D01*
X146027317Y-67084392D01*
X145987782Y-67119535D01*
X145913103Y-67154678D01*
X145631960Y-67154678D01*
X146756532Y-67435821D02*
X146716996Y-67470964D01*
X146607175Y-67506107D01*
X146536889Y-67506107D01*
X146435853Y-67470964D01*
X146374353Y-67400678D01*
X146347996Y-67330392D01*
X146330425Y-67189821D01*
X146343603Y-67084392D01*
X146396317Y-66943821D01*
X146440246Y-66873535D01*
X146519317Y-66803250D01*
X146629139Y-66768107D01*
X146699425Y-66768107D01*
X146800460Y-66803250D01*
X146831210Y-66838392D01*
X145820853Y-68059607D02*
X145961425Y-68059607D01*
X146027317Y-68094750D01*
X146088817Y-68165035D01*
X146106389Y-68305607D01*
X146075639Y-68551607D01*
X146022925Y-68692178D01*
X145943853Y-68762464D01*
X145869175Y-68797607D01*
X145728603Y-68797607D01*
X145662710Y-68762464D01*
X145601210Y-68692178D01*
X145583639Y-68551607D01*
X145614389Y-68305607D01*
X145667103Y-68165035D01*
X145746175Y-68094750D01*
X145820853Y-68059607D01*
X146738960Y-68305607D02*
X146677460Y-68797607D01*
X146422675Y-68305607D02*
X146374353Y-68692178D01*
X146400710Y-68762464D01*
X146466603Y-68797607D01*
X146572032Y-68797607D01*
X146646710Y-68762464D01*
X146686246Y-68727321D01*
X146984960Y-68305607D02*
X147266103Y-68305607D01*
X147121139Y-68059607D02*
X147042067Y-68692178D01*
X147068425Y-68762464D01*
X147134317Y-68797607D01*
X147204603Y-68797607D01*
X165124853Y-75658107D02*
X165265425Y-75658107D01*
X165331317Y-75693250D01*
X165392817Y-75763535D01*
X165410389Y-75904107D01*
X165379639Y-76150107D01*
X165326925Y-76290678D01*
X165247853Y-76360964D01*
X165173175Y-76396107D01*
X165032603Y-76396107D01*
X164966710Y-76360964D01*
X164905210Y-76290678D01*
X164887639Y-76150107D01*
X164918389Y-75904107D01*
X164971103Y-75763535D01*
X165050175Y-75693250D01*
X165124853Y-75658107D01*
X165665175Y-76396107D02*
X165757425Y-75658107D01*
X166038567Y-75658107D01*
X166104460Y-75693250D01*
X166135210Y-75728392D01*
X166161567Y-75798678D01*
X166148389Y-75904107D01*
X166104460Y-75974392D01*
X166064925Y-76009535D01*
X165990246Y-76044678D01*
X165709103Y-76044678D01*
X166394389Y-76185250D02*
X166745817Y-76185250D01*
X166297746Y-76396107D02*
X166635996Y-75658107D01*
X166789746Y-76396107D01*
X165124853Y-76949607D02*
X165265425Y-76949607D01*
X165331317Y-76984750D01*
X165392817Y-77055035D01*
X165410389Y-77195607D01*
X165379639Y-77441607D01*
X165326925Y-77582178D01*
X165247853Y-77652464D01*
X165173175Y-77687607D01*
X165032603Y-77687607D01*
X164966710Y-77652464D01*
X164905210Y-77582178D01*
X164887639Y-77441607D01*
X164918389Y-77195607D01*
X164971103Y-77055035D01*
X165050175Y-76984750D01*
X165124853Y-76949607D01*
X166042960Y-77195607D02*
X165981460Y-77687607D01*
X165726675Y-77195607D02*
X165678353Y-77582178D01*
X165704710Y-77652464D01*
X165770603Y-77687607D01*
X165876032Y-77687607D01*
X165950710Y-77652464D01*
X165990246Y-77617321D01*
X166288960Y-77195607D02*
X166570103Y-77195607D01*
X166425139Y-76949607D02*
X166346067Y-77582178D01*
X166372425Y-77652464D01*
X166438317Y-77687607D01*
X166508603Y-77687607D01*
D12*
X119796115Y-61148383D02*
X119796115Y-59903783D01*
X120486287Y-61148383D01*
X120486287Y-59903783D01*
X121924144Y-59844516D02*
X120888887Y-61444716D01*
X122269230Y-60792783D02*
X122844372Y-60792783D01*
X122154201Y-61148383D02*
X122556801Y-59903783D01*
X122959401Y-61148383D01*
X121003915Y-63133816D02*
X121176458Y-63193083D01*
X121464030Y-63193083D01*
X121579058Y-63133816D01*
X121636572Y-63074550D01*
X121694087Y-62956016D01*
X121694087Y-62837483D01*
X121636572Y-62718950D01*
X121579058Y-62659683D01*
X121464030Y-62600416D01*
X121233972Y-62541150D01*
X121118944Y-62481883D01*
X121061430Y-62422616D01*
X121003915Y-62304083D01*
X121003915Y-62185550D01*
X121061430Y-62067016D01*
X121118944Y-62007750D01*
X121233972Y-61948483D01*
X121521544Y-61948483D01*
X121694087Y-62007750D01*
X122154201Y-63133816D02*
X122326744Y-63193083D01*
X122614315Y-63193083D01*
X122729344Y-63133816D01*
X122786858Y-63074550D01*
X122844372Y-62956016D01*
X122844372Y-62837483D01*
X122786858Y-62718950D01*
X122729344Y-62659683D01*
X122614315Y-62600416D01*
X122384258Y-62541150D01*
X122269230Y-62481883D01*
X122211715Y-62422616D01*
X122154201Y-62304083D01*
X122154201Y-62185550D01*
X122211715Y-62067016D01*
X122269230Y-62007750D01*
X122384258Y-61948483D01*
X122671830Y-61948483D01*
X122844372Y-62007750D01*
X120601315Y-65237783D02*
X120026172Y-65237783D01*
X120026172Y-63993183D01*
X120946401Y-65178516D02*
X121118944Y-65237783D01*
X121406515Y-65237783D01*
X121521544Y-65178516D01*
X121579058Y-65119250D01*
X121636572Y-65000716D01*
X121636572Y-64882183D01*
X121579058Y-64763650D01*
X121521544Y-64704383D01*
X121406515Y-64645116D01*
X121176458Y-64585850D01*
X121061430Y-64526583D01*
X121003915Y-64467316D01*
X120946401Y-64348783D01*
X120946401Y-64230250D01*
X121003915Y-64111716D01*
X121061430Y-64052450D01*
X121176458Y-63993183D01*
X121464030Y-63993183D01*
X121636572Y-64052450D01*
X122154201Y-65237783D02*
X122154201Y-63993183D01*
X122441772Y-63993183D01*
X122614315Y-64052450D01*
X122729344Y-64170983D01*
X122786858Y-64289516D01*
X122844372Y-64526583D01*
X122844372Y-64704383D01*
X122786858Y-64941450D01*
X122729344Y-65059983D01*
X122614315Y-65178516D01*
X122441772Y-65237783D01*
X122154201Y-65237783D01*
X118760858Y-67282483D02*
X118358258Y-66689816D01*
X118070687Y-67282483D02*
X118070687Y-66037883D01*
X118530801Y-66037883D01*
X118645830Y-66097150D01*
X118703344Y-66156416D01*
X118760858Y-66274950D01*
X118760858Y-66452750D01*
X118703344Y-66571283D01*
X118645830Y-66630550D01*
X118530801Y-66689816D01*
X118070687Y-66689816D01*
X119968658Y-67163950D02*
X119911144Y-67223216D01*
X119738601Y-67282483D01*
X119623572Y-67282483D01*
X119451030Y-67223216D01*
X119336001Y-67104683D01*
X119278487Y-66986150D01*
X119220972Y-66749083D01*
X119220972Y-66571283D01*
X119278487Y-66334216D01*
X119336001Y-66215683D01*
X119451030Y-66097150D01*
X119623572Y-66037883D01*
X119738601Y-66037883D01*
X119911144Y-66097150D01*
X119968658Y-66156416D01*
X120658830Y-67282483D02*
X120543801Y-67223216D01*
X120486287Y-67163950D01*
X120428772Y-67045416D01*
X120428772Y-66689816D01*
X120486287Y-66571283D01*
X120543801Y-66512016D01*
X120658830Y-66452750D01*
X120831372Y-66452750D01*
X120946401Y-66512016D01*
X121003915Y-66571283D01*
X121061430Y-66689816D01*
X121061430Y-67045416D01*
X121003915Y-67163950D01*
X120946401Y-67223216D01*
X120831372Y-67282483D01*
X120658830Y-67282483D01*
X122096687Y-66452750D02*
X122096687Y-67282483D01*
X121579058Y-66452750D02*
X121579058Y-67104683D01*
X121636572Y-67223216D01*
X121751601Y-67282483D01*
X121924144Y-67282483D01*
X122039172Y-67223216D01*
X122096687Y-67163950D01*
X122499287Y-66452750D02*
X122959401Y-66452750D01*
X122671830Y-66037883D02*
X122671830Y-67104683D01*
X122729344Y-67223216D01*
X122844372Y-67282483D01*
X122959401Y-67282483D01*
X119968658Y-69327183D02*
X119566058Y-68734516D01*
X119278487Y-69327183D02*
X119278487Y-68082583D01*
X119738601Y-68082583D01*
X119853630Y-68141850D01*
X119911144Y-68201116D01*
X119968658Y-68319650D01*
X119968658Y-68497450D01*
X119911144Y-68615983D01*
X119853630Y-68675250D01*
X119738601Y-68734516D01*
X119278487Y-68734516D01*
X121176458Y-69208650D02*
X121118944Y-69267916D01*
X120946401Y-69327183D01*
X120831372Y-69327183D01*
X120658830Y-69267916D01*
X120543801Y-69149383D01*
X120486287Y-69030850D01*
X120428772Y-68793783D01*
X120428772Y-68615983D01*
X120486287Y-68378916D01*
X120543801Y-68260383D01*
X120658830Y-68141850D01*
X120831372Y-68082583D01*
X120946401Y-68082583D01*
X121118944Y-68141850D01*
X121176458Y-68201116D01*
X121694087Y-69327183D02*
X121694087Y-68082583D01*
X122269230Y-68497450D02*
X122269230Y-69327183D01*
X122269230Y-68615983D02*
X122326744Y-68556716D01*
X122441772Y-68497450D01*
X122614315Y-68497450D01*
X122729344Y-68556716D01*
X122786858Y-68675250D01*
X122786858Y-69327183D01*
X120428772Y-71312616D02*
X120601315Y-71371883D01*
X120888887Y-71371883D01*
X121003915Y-71312616D01*
X121061430Y-71253350D01*
X121118944Y-71134816D01*
X121118944Y-71016283D01*
X121061430Y-70897750D01*
X121003915Y-70838483D01*
X120888887Y-70779216D01*
X120658830Y-70719950D01*
X120543801Y-70660683D01*
X120486287Y-70601416D01*
X120428772Y-70482883D01*
X120428772Y-70364350D01*
X120486287Y-70245816D01*
X120543801Y-70186550D01*
X120658830Y-70127283D01*
X120946401Y-70127283D01*
X121118944Y-70186550D01*
X121579058Y-71312616D02*
X121751601Y-71371883D01*
X122039172Y-71371883D01*
X122154201Y-71312616D01*
X122211715Y-71253350D01*
X122269230Y-71134816D01*
X122269230Y-71016283D01*
X122211715Y-70897750D01*
X122154201Y-70838483D01*
X122039172Y-70779216D01*
X121809115Y-70719950D01*
X121694087Y-70660683D01*
X121636572Y-70601416D01*
X121579058Y-70482883D01*
X121579058Y-70364350D01*
X121636572Y-70245816D01*
X121694087Y-70186550D01*
X121809115Y-70127283D01*
X122096687Y-70127283D01*
X122269230Y-70186550D01*
X122786858Y-71371883D02*
X122786858Y-70127283D01*
X121751601Y-72171983D02*
X121176458Y-72171983D01*
X121118944Y-72764650D01*
X121176458Y-72705383D01*
X121291487Y-72646116D01*
X121579058Y-72646116D01*
X121694087Y-72705383D01*
X121751601Y-72764650D01*
X121809115Y-72883183D01*
X121809115Y-73179516D01*
X121751601Y-73298050D01*
X121694087Y-73357316D01*
X121579058Y-73416583D01*
X121291487Y-73416583D01*
X121176458Y-73357316D01*
X121118944Y-73298050D01*
X122154201Y-72171983D02*
X122556801Y-73416583D01*
X122959401Y-72171983D01*
X120313744Y-74275950D02*
X120198715Y-74216683D01*
X120026172Y-74216683D01*
X119853630Y-74275950D01*
X119738601Y-74394483D01*
X119681087Y-74513016D01*
X119623572Y-74750083D01*
X119623572Y-74927883D01*
X119681087Y-75164950D01*
X119738601Y-75283483D01*
X119853630Y-75402016D01*
X120026172Y-75461283D01*
X120141201Y-75461283D01*
X120313744Y-75402016D01*
X120371258Y-75342750D01*
X120371258Y-74927883D01*
X120141201Y-74927883D01*
X120888887Y-75461283D02*
X120888887Y-74216683D01*
X121579058Y-75461283D01*
X121579058Y-74216683D01*
X122154201Y-75461283D02*
X122154201Y-74216683D01*
X122441772Y-74216683D01*
X122614315Y-74275950D01*
X122729344Y-74394483D01*
X122786858Y-74513016D01*
X122844372Y-74750083D01*
X122844372Y-74927883D01*
X122786858Y-75164950D01*
X122729344Y-75283483D01*
X122614315Y-75402016D01*
X122441772Y-75461283D01*
X122154201Y-75461283D01*
X117495544Y-76261383D02*
X117725601Y-76261383D01*
X117840630Y-76320650D01*
X117955658Y-76439183D01*
X118013172Y-76676250D01*
X118013172Y-77091116D01*
X117955658Y-77328183D01*
X117840630Y-77446716D01*
X117725601Y-77505983D01*
X117495544Y-77505983D01*
X117380515Y-77446716D01*
X117265487Y-77328183D01*
X117207972Y-77091116D01*
X117207972Y-76676250D01*
X117265487Y-76439183D01*
X117380515Y-76320650D01*
X117495544Y-76261383D01*
X118530801Y-77505983D02*
X118530801Y-76261383D01*
X118990915Y-76261383D01*
X119105944Y-76320650D01*
X119163458Y-76379916D01*
X119220972Y-76498450D01*
X119220972Y-76676250D01*
X119163458Y-76794783D01*
X119105944Y-76854050D01*
X118990915Y-76913316D01*
X118530801Y-76913316D01*
X119681087Y-77150383D02*
X120256230Y-77150383D01*
X119566058Y-77505983D02*
X119968658Y-76261383D01*
X120371258Y-77505983D01*
X120486287Y-77624516D02*
X121406515Y-77624516D01*
X121694087Y-77505983D02*
X121694087Y-76261383D01*
X122269230Y-76676250D02*
X122269230Y-77505983D01*
X122269230Y-76794783D02*
X122326744Y-76735516D01*
X122441772Y-76676250D01*
X122614315Y-76676250D01*
X122729344Y-76735516D01*
X122786858Y-76854050D01*
X122786858Y-77505983D01*
X121003915Y-79550683D02*
X121003915Y-78306083D01*
X121464030Y-78306083D01*
X121579058Y-78365350D01*
X121636572Y-78424616D01*
X121694087Y-78543150D01*
X121694087Y-78720950D01*
X121636572Y-78839483D01*
X121579058Y-78898750D01*
X121464030Y-78958016D01*
X121003915Y-78958016D01*
X122154201Y-78424616D02*
X122211715Y-78365350D01*
X122326744Y-78306083D01*
X122614315Y-78306083D01*
X122729344Y-78365350D01*
X122786858Y-78424616D01*
X122844372Y-78543150D01*
X122844372Y-78661683D01*
X122786858Y-78839483D01*
X122096687Y-79550683D01*
X122844372Y-79550683D01*
X121003915Y-81595383D02*
X121003915Y-80350783D01*
X121464030Y-80350783D01*
X121579058Y-80410050D01*
X121636572Y-80469316D01*
X121694087Y-80587850D01*
X121694087Y-80765650D01*
X121636572Y-80884183D01*
X121579058Y-80943450D01*
X121464030Y-81002716D01*
X121003915Y-81002716D01*
X122844372Y-81595383D02*
X122154201Y-81595383D01*
X122499287Y-81595383D02*
X122499287Y-80350783D01*
X122384258Y-80528583D01*
X122269230Y-80647116D01*
X122154201Y-80706383D01*
X119566058Y-83521550D02*
X119508544Y-83580816D01*
X119336001Y-83640083D01*
X119220972Y-83640083D01*
X119048430Y-83580816D01*
X118933401Y-83462283D01*
X118875887Y-83343750D01*
X118818372Y-83106683D01*
X118818372Y-82928883D01*
X118875887Y-82691816D01*
X118933401Y-82573283D01*
X119048430Y-82454750D01*
X119220972Y-82395483D01*
X119336001Y-82395483D01*
X119508544Y-82454750D01*
X119566058Y-82514016D01*
X120026172Y-83284483D02*
X120601315Y-83284483D01*
X119911144Y-83640083D02*
X120313744Y-82395483D01*
X120716344Y-83640083D01*
X121118944Y-83640083D02*
X121118944Y-82395483D01*
X121809115Y-83640083D01*
X121809115Y-82395483D01*
X122959401Y-83640083D02*
X122384258Y-83640083D01*
X122384258Y-82395483D01*
X119278487Y-85566250D02*
X119220972Y-85625516D01*
X119048430Y-85684783D01*
X118933401Y-85684783D01*
X118760858Y-85625516D01*
X118645830Y-85506983D01*
X118588315Y-85388450D01*
X118530801Y-85151383D01*
X118530801Y-84973583D01*
X118588315Y-84736516D01*
X118645830Y-84617983D01*
X118760858Y-84499450D01*
X118933401Y-84440183D01*
X119048430Y-84440183D01*
X119220972Y-84499450D01*
X119278487Y-84558716D01*
X119738601Y-85329183D02*
X120313744Y-85329183D01*
X119623572Y-85684783D02*
X120026172Y-84440183D01*
X120428772Y-85684783D01*
X120831372Y-85684783D02*
X120831372Y-84440183D01*
X121521544Y-85684783D01*
X121521544Y-84440183D01*
X122096687Y-85684783D02*
X122096687Y-84440183D01*
X122096687Y-85032850D02*
X122786858Y-85032850D01*
X122786858Y-85684783D02*
X122786858Y-84440183D01*
X118588315Y-87729483D02*
X118185715Y-87136816D01*
X117898144Y-87729483D02*
X117898144Y-86484883D01*
X118358258Y-86484883D01*
X118473287Y-86544150D01*
X118530801Y-86603416D01*
X118588315Y-86721950D01*
X118588315Y-86899750D01*
X118530801Y-87018283D01*
X118473287Y-87077550D01*
X118358258Y-87136816D01*
X117898144Y-87136816D01*
X119105944Y-87077550D02*
X119508544Y-87077550D01*
X119681087Y-87729483D02*
X119105944Y-87729483D01*
X119105944Y-86484883D01*
X119681087Y-86484883D01*
X120141201Y-87670216D02*
X120313744Y-87729483D01*
X120601315Y-87729483D01*
X120716344Y-87670216D01*
X120773858Y-87610950D01*
X120831372Y-87492416D01*
X120831372Y-87373883D01*
X120773858Y-87255350D01*
X120716344Y-87196083D01*
X120601315Y-87136816D01*
X120371258Y-87077550D01*
X120256230Y-87018283D01*
X120198715Y-86959016D01*
X120141201Y-86840483D01*
X120141201Y-86721950D01*
X120198715Y-86603416D01*
X120256230Y-86544150D01*
X120371258Y-86484883D01*
X120658830Y-86484883D01*
X120831372Y-86544150D01*
X121349001Y-87077550D02*
X121751601Y-87077550D01*
X121924144Y-87729483D02*
X121349001Y-87729483D01*
X121349001Y-86484883D01*
X121924144Y-86484883D01*
X122269230Y-86484883D02*
X122959401Y-86484883D01*
X122614315Y-87729483D02*
X122614315Y-86484883D01*
X119738601Y-89714916D02*
X119911144Y-89774183D01*
X120198715Y-89774183D01*
X120313744Y-89714916D01*
X120371258Y-89655650D01*
X120428772Y-89537116D01*
X120428772Y-89418583D01*
X120371258Y-89300050D01*
X120313744Y-89240783D01*
X120198715Y-89181516D01*
X119968658Y-89122250D01*
X119853630Y-89062983D01*
X119796115Y-89003716D01*
X119738601Y-88885183D01*
X119738601Y-88766650D01*
X119796115Y-88648116D01*
X119853630Y-88588850D01*
X119968658Y-88529583D01*
X120256230Y-88529583D01*
X120428772Y-88588850D01*
X121636572Y-89655650D02*
X121579058Y-89714916D01*
X121406515Y-89774183D01*
X121291487Y-89774183D01*
X121118944Y-89714916D01*
X121003915Y-89596383D01*
X120946401Y-89477850D01*
X120888887Y-89240783D01*
X120888887Y-89062983D01*
X120946401Y-88825916D01*
X121003915Y-88707383D01*
X121118944Y-88588850D01*
X121291487Y-88529583D01*
X121406515Y-88529583D01*
X121579058Y-88588850D01*
X121636572Y-88648116D01*
X122154201Y-89774183D02*
X122154201Y-88529583D01*
X122844372Y-89774183D02*
X122326744Y-89062983D01*
X122844372Y-88529583D02*
X122154201Y-89240783D01*
X118990915Y-91818883D02*
X118990915Y-90574283D01*
X119393515Y-91463283D01*
X119796115Y-90574283D01*
X119796115Y-91818883D01*
X120371258Y-91818883D02*
X120371258Y-90574283D01*
X120888887Y-91759616D02*
X121061430Y-91818883D01*
X121349001Y-91818883D01*
X121464030Y-91759616D01*
X121521544Y-91700350D01*
X121579058Y-91581816D01*
X121579058Y-91463283D01*
X121521544Y-91344750D01*
X121464030Y-91285483D01*
X121349001Y-91226216D01*
X121118944Y-91166950D01*
X121003915Y-91107683D01*
X120946401Y-91048416D01*
X120888887Y-90929883D01*
X120888887Y-90811350D01*
X120946401Y-90692816D01*
X121003915Y-90633550D01*
X121118944Y-90574283D01*
X121406515Y-90574283D01*
X121579058Y-90633550D01*
X122326744Y-90574283D02*
X122556801Y-90574283D01*
X122671830Y-90633550D01*
X122786858Y-90752083D01*
X122844372Y-90989150D01*
X122844372Y-91404016D01*
X122786858Y-91641083D01*
X122671830Y-91759616D01*
X122556801Y-91818883D01*
X122326744Y-91818883D01*
X122211715Y-91759616D01*
X122096687Y-91641083D01*
X122039172Y-91404016D01*
X122039172Y-90989150D01*
X122096687Y-90752083D01*
X122211715Y-90633550D01*
X122326744Y-90574283D01*
X118990915Y-93863583D02*
X118990915Y-92618983D01*
X119393515Y-93507983D01*
X119796115Y-92618983D01*
X119796115Y-93863583D01*
X120601315Y-92618983D02*
X120831372Y-92618983D01*
X120946401Y-92678250D01*
X121061430Y-92796783D01*
X121118944Y-93033850D01*
X121118944Y-93448716D01*
X121061430Y-93685783D01*
X120946401Y-93804316D01*
X120831372Y-93863583D01*
X120601315Y-93863583D01*
X120486287Y-93804316D01*
X120371258Y-93685783D01*
X120313744Y-93448716D01*
X120313744Y-93033850D01*
X120371258Y-92796783D01*
X120486287Y-92678250D01*
X120601315Y-92618983D01*
X121579058Y-93804316D02*
X121751601Y-93863583D01*
X122039172Y-93863583D01*
X122154201Y-93804316D01*
X122211715Y-93745050D01*
X122269230Y-93626516D01*
X122269230Y-93507983D01*
X122211715Y-93389450D01*
X122154201Y-93330183D01*
X122039172Y-93270916D01*
X121809115Y-93211650D01*
X121694087Y-93152383D01*
X121636572Y-93093116D01*
X121579058Y-92974583D01*
X121579058Y-92856050D01*
X121636572Y-92737516D01*
X121694087Y-92678250D01*
X121809115Y-92618983D01*
X122096687Y-92618983D01*
X122269230Y-92678250D01*
X122786858Y-93863583D02*
X122786858Y-92618983D01*
X121751601Y-94663683D02*
X121176458Y-94663683D01*
X121118944Y-95256350D01*
X121176458Y-95197083D01*
X121291487Y-95137816D01*
X121579058Y-95137816D01*
X121694087Y-95197083D01*
X121751601Y-95256350D01*
X121809115Y-95374883D01*
X121809115Y-95671216D01*
X121751601Y-95789750D01*
X121694087Y-95849016D01*
X121579058Y-95908283D01*
X121291487Y-95908283D01*
X121176458Y-95849016D01*
X121118944Y-95789750D01*
X122154201Y-94663683D02*
X122556801Y-95908283D01*
X122959401Y-94663683D01*
X120658830Y-97952983D02*
X119968658Y-97952983D01*
X120313744Y-97952983D02*
X120313744Y-96708383D01*
X120198715Y-96886183D01*
X120083687Y-97004716D01*
X119968658Y-97063983D01*
X121118944Y-96826916D02*
X121176458Y-96767650D01*
X121291487Y-96708383D01*
X121579058Y-96708383D01*
X121694087Y-96767650D01*
X121751601Y-96826916D01*
X121809115Y-96945450D01*
X121809115Y-97063983D01*
X121751601Y-97241783D01*
X121061430Y-97952983D01*
X121809115Y-97952983D01*
X122154201Y-96708383D02*
X122556801Y-97952983D01*
X122959401Y-96708383D01*
X120313744Y-98812350D02*
X120198715Y-98753083D01*
X120026172Y-98753083D01*
X119853630Y-98812350D01*
X119738601Y-98930883D01*
X119681087Y-99049416D01*
X119623572Y-99286483D01*
X119623572Y-99464283D01*
X119681087Y-99701350D01*
X119738601Y-99819883D01*
X119853630Y-99938416D01*
X120026172Y-99997683D01*
X120141201Y-99997683D01*
X120313744Y-99938416D01*
X120371258Y-99879150D01*
X120371258Y-99464283D01*
X120141201Y-99464283D01*
X120888887Y-99997683D02*
X120888887Y-98753083D01*
X121579058Y-99997683D01*
X121579058Y-98753083D01*
X122154201Y-99997683D02*
X122154201Y-98753083D01*
X122441772Y-98753083D01*
X122614315Y-98812350D01*
X122729344Y-98930883D01*
X122786858Y-99049416D01*
X122844372Y-99286483D01*
X122844372Y-99464283D01*
X122786858Y-99701350D01*
X122729344Y-99819883D01*
X122614315Y-99938416D01*
X122441772Y-99997683D01*
X122154201Y-99997683D01*
D10*
X167122151Y-100289971D02*
X167309651Y-98789971D01*
X167881080Y-98789971D01*
X168015008Y-98861400D01*
X168077508Y-98932828D01*
X168131080Y-99075685D01*
X168104294Y-99289971D01*
X168015008Y-99432828D01*
X167934651Y-99504257D01*
X167782865Y-99575685D01*
X167211437Y-99575685D01*
X168622151Y-100289971D02*
X168747151Y-99289971D01*
X168711437Y-99575685D02*
X168800722Y-99432828D01*
X168881080Y-99361400D01*
X169032865Y-99289971D01*
X169175722Y-99289971D01*
X169765008Y-100289971D02*
X169631080Y-100218542D01*
X169568580Y-100147114D01*
X169515008Y-100004257D01*
X169568580Y-99575685D01*
X169657865Y-99432828D01*
X169738222Y-99361400D01*
X169890008Y-99289971D01*
X170104294Y-99289971D01*
X170238222Y-99361400D01*
X170300722Y-99432828D01*
X170354294Y-99575685D01*
X170300722Y-100004257D01*
X170211437Y-100147114D01*
X170131080Y-100218542D01*
X169979294Y-100289971D01*
X169765008Y-100289971D01*
X171675722Y-99289971D02*
X171523937Y-100504257D01*
X171434651Y-100647114D01*
X171354294Y-100718542D01*
X171202508Y-100789971D01*
X170988222Y-100789971D01*
X170854294Y-100718542D01*
X171559651Y-100218542D02*
X171407865Y-100289971D01*
X171122151Y-100289971D01*
X170988222Y-100218542D01*
X170925722Y-100147114D01*
X170872151Y-100004257D01*
X170925722Y-99575685D01*
X171015008Y-99432828D01*
X171095365Y-99361400D01*
X171247151Y-99289971D01*
X171532865Y-99289971D01*
X171666794Y-99361400D01*
X172265008Y-100289971D02*
X172390008Y-99289971D01*
X172354294Y-99575685D02*
X172443580Y-99432828D01*
X172523937Y-99361400D01*
X172675722Y-99289971D01*
X172818580Y-99289971D01*
X173836437Y-100289971D02*
X173934651Y-99504257D01*
X173881080Y-99361400D01*
X173747151Y-99289971D01*
X173461437Y-99289971D01*
X173309651Y-99361400D01*
X173845365Y-100218542D02*
X173693580Y-100289971D01*
X173336437Y-100289971D01*
X173202508Y-100218542D01*
X173148937Y-100075685D01*
X173166794Y-99932828D01*
X173256080Y-99789971D01*
X173407865Y-99718542D01*
X173765008Y-99718542D01*
X173916794Y-99647114D01*
X174550722Y-100289971D02*
X174675722Y-99289971D01*
X174657865Y-99432828D02*
X174738222Y-99361400D01*
X174890008Y-99289971D01*
X175104294Y-99289971D01*
X175238222Y-99361400D01*
X175291794Y-99504257D01*
X175193580Y-100289971D01*
X175291794Y-99504257D02*
X175381080Y-99361400D01*
X175532865Y-99289971D01*
X175747151Y-99289971D01*
X175881080Y-99361400D01*
X175934651Y-99504257D01*
X175836437Y-100289971D01*
X176550722Y-100289971D02*
X176675722Y-99289971D01*
X176657865Y-99432828D02*
X176738222Y-99361400D01*
X176890008Y-99289971D01*
X177104294Y-99289971D01*
X177238222Y-99361400D01*
X177291794Y-99504257D01*
X177193580Y-100289971D01*
X177291794Y-99504257D02*
X177381080Y-99361400D01*
X177532865Y-99289971D01*
X177747151Y-99289971D01*
X177881080Y-99361400D01*
X177934651Y-99504257D01*
X177836437Y-100289971D01*
X178550722Y-100289971D02*
X178675722Y-99289971D01*
X178738222Y-98789971D02*
X178657865Y-98861400D01*
X178720365Y-98932828D01*
X178800722Y-98861400D01*
X178738222Y-98789971D01*
X178720365Y-98932828D01*
X179390008Y-99289971D02*
X179265008Y-100289971D01*
X179372151Y-99432828D02*
X179452508Y-99361400D01*
X179604294Y-99289971D01*
X179818580Y-99289971D01*
X179952508Y-99361400D01*
X180006080Y-99504257D01*
X179907865Y-100289971D01*
X181390008Y-99289971D02*
X181238222Y-100504257D01*
X181148937Y-100647114D01*
X181068580Y-100718542D01*
X180916794Y-100789971D01*
X180702508Y-100789971D01*
X180568580Y-100718542D01*
X181273937Y-100218542D02*
X181122151Y-100289971D01*
X180836437Y-100289971D01*
X180702508Y-100218542D01*
X180640008Y-100147114D01*
X180586437Y-100004257D01*
X180640008Y-99575685D01*
X180729294Y-99432828D01*
X180809651Y-99361400D01*
X180961437Y-99289971D01*
X181247151Y-99289971D01*
X181381080Y-99361400D01*
X167836437Y-102743171D02*
X167122151Y-102743171D01*
X167309651Y-101243171D01*
X168434651Y-101957457D02*
X168934651Y-101957457D01*
X169050722Y-102743171D02*
X168336437Y-102743171D01*
X168523937Y-101243171D01*
X169238222Y-101243171D01*
X169693580Y-102743171D02*
X169881080Y-101243171D01*
X170238222Y-101243171D01*
X170443580Y-101314600D01*
X170568580Y-101457457D01*
X170622151Y-101600314D01*
X170657865Y-101886028D01*
X170631080Y-102100314D01*
X170523937Y-102386028D01*
X170434651Y-102528885D01*
X170273937Y-102671742D01*
X170050722Y-102743171D01*
X169693580Y-102743171D01*
X171131080Y-102671742D02*
X171265008Y-102743171D01*
X171550722Y-102743171D01*
X171702508Y-102671742D01*
X171791794Y-102528885D01*
X171800722Y-102457457D01*
X171747151Y-102314600D01*
X171613222Y-102243171D01*
X171398937Y-102243171D01*
X171265008Y-102171742D01*
X171211437Y-102028885D01*
X171220365Y-101957457D01*
X171309651Y-101814600D01*
X171461437Y-101743171D01*
X171675722Y-101743171D01*
X171809651Y-101814600D01*
D13*
X159971619Y-117039571D02*
X159911142Y-117100047D01*
X159729714Y-117160523D01*
X159608761Y-117160523D01*
X159427333Y-117100047D01*
X159306380Y-116979095D01*
X159245904Y-116858142D01*
X159185428Y-116616238D01*
X159185428Y-116434809D01*
X159245904Y-116192904D01*
X159306380Y-116071952D01*
X159427333Y-115951000D01*
X159608761Y-115890523D01*
X159729714Y-115890523D01*
X159911142Y-115951000D01*
X159971619Y-116011476D01*
X160697333Y-117160523D02*
X160576380Y-117100047D01*
X160515904Y-117039571D01*
X160455428Y-116918619D01*
X160455428Y-116555761D01*
X160515904Y-116434809D01*
X160576380Y-116374333D01*
X160697333Y-116313857D01*
X160878761Y-116313857D01*
X160999714Y-116374333D01*
X161060190Y-116434809D01*
X161120666Y-116555761D01*
X161120666Y-116918619D01*
X161060190Y-117039571D01*
X160999714Y-117100047D01*
X160878761Y-117160523D01*
X160697333Y-117160523D01*
X161664952Y-117160523D02*
X161664952Y-116313857D01*
X161664952Y-116555761D02*
X161725428Y-116434809D01*
X161785904Y-116374333D01*
X161906857Y-116313857D01*
X162027809Y-116313857D01*
X162934952Y-117100047D02*
X162814000Y-117160523D01*
X162572095Y-117160523D01*
X162451142Y-117100047D01*
X162390666Y-116979095D01*
X162390666Y-116495285D01*
X162451142Y-116374333D01*
X162572095Y-116313857D01*
X162814000Y-116313857D01*
X162934952Y-116374333D01*
X162995428Y-116495285D01*
X162995428Y-116616238D01*
X162390666Y-116737190D01*
X163418761Y-116313857D02*
X163721142Y-117160523D01*
X164023523Y-116313857D02*
X163721142Y-117160523D01*
X163600190Y-117462904D01*
X163539714Y-117523380D01*
X163418761Y-117583857D01*
X166200666Y-117039571D02*
X166140190Y-117100047D01*
X165958761Y-117160523D01*
X165837809Y-117160523D01*
X165656380Y-117100047D01*
X165535428Y-116979095D01*
X165474952Y-116858142D01*
X165414476Y-116616238D01*
X165414476Y-116434809D01*
X165474952Y-116192904D01*
X165535428Y-116071952D01*
X165656380Y-115951000D01*
X165837809Y-115890523D01*
X165958761Y-115890523D01*
X166140190Y-115951000D01*
X166200666Y-116011476D01*
X166926380Y-117160523D02*
X166805428Y-117100047D01*
X166744952Y-117039571D01*
X166684476Y-116918619D01*
X166684476Y-116555761D01*
X166744952Y-116434809D01*
X166805428Y-116374333D01*
X166926380Y-116313857D01*
X167107809Y-116313857D01*
X167228761Y-116374333D01*
X167289238Y-116434809D01*
X167349714Y-116555761D01*
X167349714Y-116918619D01*
X167289238Y-117039571D01*
X167228761Y-117100047D01*
X167107809Y-117160523D01*
X166926380Y-117160523D01*
X168438285Y-117100047D02*
X168317333Y-117160523D01*
X168075428Y-117160523D01*
X167954476Y-117100047D01*
X167894000Y-117039571D01*
X167833523Y-116918619D01*
X167833523Y-116555761D01*
X167894000Y-116434809D01*
X167954476Y-116374333D01*
X168075428Y-116313857D01*
X168317333Y-116313857D01*
X168438285Y-116374333D01*
X168982571Y-117160523D02*
X168982571Y-115890523D01*
X169526857Y-117160523D02*
X169526857Y-116495285D01*
X169466380Y-116374333D01*
X169345428Y-116313857D01*
X169164000Y-116313857D01*
X169043047Y-116374333D01*
X168982571Y-116434809D01*
X170131619Y-117160523D02*
X170131619Y-116313857D01*
X170131619Y-116555761D02*
X170192095Y-116434809D01*
X170252571Y-116374333D01*
X170373523Y-116313857D01*
X170494476Y-116313857D01*
X171462095Y-117160523D02*
X171462095Y-116495285D01*
X171401619Y-116374333D01*
X171280666Y-116313857D01*
X171038761Y-116313857D01*
X170917809Y-116374333D01*
X171462095Y-117100047D02*
X171341142Y-117160523D01*
X171038761Y-117160523D01*
X170917809Y-117100047D01*
X170857333Y-116979095D01*
X170857333Y-116858142D01*
X170917809Y-116737190D01*
X171038761Y-116676714D01*
X171341142Y-116676714D01*
X171462095Y-116616238D01*
X172066857Y-116313857D02*
X172066857Y-117160523D01*
X172066857Y-116434809D02*
X172127333Y-116374333D01*
X172248285Y-116313857D01*
X172429714Y-116313857D01*
X172550666Y-116374333D01*
X172611142Y-116495285D01*
X172611142Y-117160523D01*
X173215904Y-116676714D02*
X174183523Y-116676714D01*
X175393047Y-117160523D02*
X174788285Y-117160523D01*
X174788285Y-115890523D01*
X176300190Y-117100047D02*
X176179238Y-117160523D01*
X175937333Y-117160523D01*
X175816380Y-117100047D01*
X175755904Y-116979095D01*
X175755904Y-116495285D01*
X175816380Y-116374333D01*
X175937333Y-116313857D01*
X176179238Y-116313857D01*
X176300190Y-116374333D01*
X176360666Y-116495285D01*
X176360666Y-116616238D01*
X175755904Y-116737190D01*
X176904952Y-116313857D02*
X176904952Y-117583857D01*
X176904952Y-116374333D02*
X177025904Y-116313857D01*
X177267809Y-116313857D01*
X177388761Y-116374333D01*
X177449238Y-116434809D01*
X177509714Y-116555761D01*
X177509714Y-116918619D01*
X177449238Y-117039571D01*
X177388761Y-117100047D01*
X177267809Y-117160523D01*
X177025904Y-117160523D01*
X176904952Y-117100047D01*
X178054000Y-117160523D02*
X178054000Y-116313857D01*
X178054000Y-115890523D02*
X177993523Y-115951000D01*
X178054000Y-116011476D01*
X178114476Y-115951000D01*
X178054000Y-115890523D01*
X178054000Y-116011476D01*
X178537809Y-116313857D02*
X179203047Y-116313857D01*
X178537809Y-117160523D01*
X179203047Y-117160523D01*
X145852408Y-77210090D02*
X145339250Y-77723248D01*
X145595829Y-77466669D02*
X144697804Y-76568644D01*
X144740567Y-76782459D01*
X144740567Y-76953512D01*
X144697804Y-77081801D01*
X145724119Y-75542329D02*
X145553066Y-75713381D01*
X145510303Y-75841670D01*
X145510303Y-75927197D01*
X145553066Y-76141012D01*
X145681355Y-76354828D01*
X146023460Y-76696933D01*
X146151750Y-76739696D01*
X146237276Y-76739696D01*
X146365565Y-76696933D01*
X146536618Y-76525880D01*
X146579381Y-76397591D01*
X146579381Y-76312065D01*
X146536618Y-76183775D01*
X146322802Y-75969960D01*
X146194513Y-75927197D01*
X146108987Y-75927197D01*
X145980697Y-75969960D01*
X145809645Y-76141012D01*
X145766882Y-76269302D01*
X145766882Y-76354828D01*
X145809645Y-76483117D01*
X147092539Y-75969960D02*
X146194513Y-75071934D01*
X147135302Y-75414039D01*
X146793197Y-74473250D01*
X147691222Y-75371276D01*
X148589248Y-74473250D02*
X148076090Y-74986408D01*
X148332669Y-74729829D02*
X147434644Y-73831804D01*
X147477407Y-74045619D01*
X147477407Y-74216672D01*
X147434644Y-74344961D01*
X147586095Y-91747823D02*
X146981333Y-91747823D01*
X146920857Y-92352585D01*
X146981333Y-92292109D01*
X147102285Y-92231633D01*
X147404666Y-92231633D01*
X147525619Y-92292109D01*
X147586095Y-92352585D01*
X147646571Y-92473538D01*
X147646571Y-92775919D01*
X147586095Y-92896871D01*
X147525619Y-92957347D01*
X147404666Y-93017823D01*
X147102285Y-93017823D01*
X146981333Y-92957347D01*
X146920857Y-92896871D01*
X148009428Y-91747823D02*
X148432761Y-93017823D01*
X148856095Y-91747823D01*
X147011571Y-95075223D02*
X146406809Y-95075223D01*
X146406809Y-93805223D01*
X147434904Y-94409985D02*
X147858238Y-94409985D01*
X148039666Y-95075223D02*
X147434904Y-95075223D01*
X147434904Y-93805223D01*
X148039666Y-93805223D01*
X148583952Y-95075223D02*
X148583952Y-93805223D01*
X148886333Y-93805223D01*
X149067761Y-93865700D01*
X149188714Y-93986652D01*
X149249190Y-94107604D01*
X149309666Y-94349509D01*
X149309666Y-94530938D01*
X149249190Y-94772842D01*
X149188714Y-94893795D01*
X149067761Y-95014747D01*
X148886333Y-95075223D01*
X148583952Y-95075223D01*
X128590523Y-107387571D02*
X128590523Y-108113285D01*
X128590523Y-107750428D02*
X127320523Y-107750428D01*
X127501952Y-107871380D01*
X127622904Y-107992333D01*
X127683380Y-108113285D01*
X127441476Y-106903761D02*
X127381000Y-106843285D01*
X127320523Y-106722333D01*
X127320523Y-106419952D01*
X127381000Y-106299000D01*
X127441476Y-106238523D01*
X127562428Y-106178047D01*
X127683380Y-106178047D01*
X127864809Y-106238523D01*
X128590523Y-106964238D01*
X128590523Y-106178047D01*
X127320523Y-105815190D02*
X128590523Y-105391857D01*
X127320523Y-104968523D01*
X128590523Y-102972809D02*
X128590523Y-103577571D01*
X127320523Y-103577571D01*
X127925285Y-102549476D02*
X127925285Y-102126142D01*
X128590523Y-101944714D02*
X128590523Y-102549476D01*
X127320523Y-102549476D01*
X127320523Y-101944714D01*
X128590523Y-101400428D02*
X127320523Y-101400428D01*
X127320523Y-101098047D01*
X127381000Y-100916619D01*
X127501952Y-100795666D01*
X127622904Y-100735190D01*
X127864809Y-100674714D01*
X128046238Y-100674714D01*
X128288142Y-100735190D01*
X128409095Y-100795666D01*
X128530047Y-100916619D01*
X128590523Y-101098047D01*
X128590523Y-101400428D01*
D14*
X125236242Y-52512571D02*
X125236242Y-51012571D01*
X125950528Y-51512571D02*
X125950528Y-52512571D01*
X125950528Y-51655428D02*
X126021957Y-51584000D01*
X126164814Y-51512571D01*
X126379100Y-51512571D01*
X126521957Y-51584000D01*
X126593385Y-51726857D01*
X126593385Y-52512571D01*
X127093385Y-51512571D02*
X127664814Y-51512571D01*
X127307671Y-51012571D02*
X127307671Y-52298285D01*
X127379100Y-52441142D01*
X127521957Y-52512571D01*
X127664814Y-52512571D01*
X128164814Y-52512571D02*
X128164814Y-51512571D01*
X128164814Y-51798285D02*
X128236242Y-51655428D01*
X128307671Y-51584000D01*
X128450528Y-51512571D01*
X128593385Y-51512571D01*
X129307671Y-52512571D02*
X129164814Y-52441142D01*
X129093385Y-52369714D01*
X129021957Y-52226857D01*
X129021957Y-51798285D01*
X129093385Y-51655428D01*
X129164814Y-51584000D01*
X129307671Y-51512571D01*
X129521957Y-51512571D01*
X129664814Y-51584000D01*
X129736242Y-51655428D01*
X129807671Y-51798285D01*
X129807671Y-52226857D01*
X129736242Y-52369714D01*
X129664814Y-52441142D01*
X129521957Y-52512571D01*
X129307671Y-52512571D01*
X132093385Y-51726857D02*
X132307671Y-51798285D01*
X132379100Y-51869714D01*
X132450528Y-52012571D01*
X132450528Y-52226857D01*
X132379100Y-52369714D01*
X132307671Y-52441142D01*
X132164814Y-52512571D01*
X131593385Y-52512571D01*
X131593385Y-51012571D01*
X132093385Y-51012571D01*
X132236242Y-51084000D01*
X132307671Y-51155428D01*
X132379100Y-51298285D01*
X132379100Y-51441142D01*
X132307671Y-51584000D01*
X132236242Y-51655428D01*
X132093385Y-51726857D01*
X131593385Y-51726857D01*
X133307671Y-52512571D02*
X133164814Y-52441142D01*
X133093385Y-52369714D01*
X133021957Y-52226857D01*
X133021957Y-51798285D01*
X133093385Y-51655428D01*
X133164814Y-51584000D01*
X133307671Y-51512571D01*
X133521957Y-51512571D01*
X133664814Y-51584000D01*
X133736242Y-51655428D01*
X133807671Y-51798285D01*
X133807671Y-52226857D01*
X133736242Y-52369714D01*
X133664814Y-52441142D01*
X133521957Y-52512571D01*
X133307671Y-52512571D01*
X135093385Y-52512571D02*
X135093385Y-51726857D01*
X135021957Y-51584000D01*
X134879100Y-51512571D01*
X134593385Y-51512571D01*
X134450528Y-51584000D01*
X135093385Y-52441142D02*
X134950528Y-52512571D01*
X134593385Y-52512571D01*
X134450528Y-52441142D01*
X134379100Y-52298285D01*
X134379100Y-52155428D01*
X134450528Y-52012571D01*
X134593385Y-51941142D01*
X134950528Y-51941142D01*
X135093385Y-51869714D01*
X135807671Y-52512571D02*
X135807671Y-51512571D01*
X135807671Y-51798285D02*
X135879100Y-51655428D01*
X135950528Y-51584000D01*
X136093385Y-51512571D01*
X136236242Y-51512571D01*
X137379100Y-52512571D02*
X137379100Y-51012571D01*
X137379100Y-52441142D02*
X137236242Y-52512571D01*
X136950528Y-52512571D01*
X136807671Y-52441142D01*
X136736242Y-52369714D01*
X136664814Y-52226857D01*
X136664814Y-51798285D01*
X136736242Y-51655428D01*
X136807671Y-51584000D01*
X136950528Y-51512571D01*
X137236242Y-51512571D01*
X137379100Y-51584000D01*
X125521957Y-53516571D02*
X125807671Y-53516571D01*
X125950528Y-53588000D01*
X126093385Y-53730857D01*
X126164814Y-54016571D01*
X126164814Y-54516571D01*
X126093385Y-54802285D01*
X125950528Y-54945142D01*
X125807671Y-55016571D01*
X125521957Y-55016571D01*
X125379100Y-54945142D01*
X125236242Y-54802285D01*
X125164814Y-54516571D01*
X125164814Y-54016571D01*
X125236242Y-53730857D01*
X125379100Y-53588000D01*
X125521957Y-53516571D01*
X127021957Y-55016571D02*
X126879100Y-54945142D01*
X126807671Y-54802285D01*
X126807671Y-53516571D01*
X127593385Y-55016571D02*
X127593385Y-54016571D01*
X127593385Y-53516571D02*
X127521957Y-53588000D01*
X127593385Y-53659428D01*
X127664814Y-53588000D01*
X127593385Y-53516571D01*
X127593385Y-53659428D01*
X128307671Y-54016571D02*
X128307671Y-55016571D01*
X128307671Y-54159428D02*
X128379100Y-54088000D01*
X128521957Y-54016571D01*
X128736242Y-54016571D01*
X128879100Y-54088000D01*
X128950528Y-54230857D01*
X128950528Y-55016571D01*
X130807671Y-54230857D02*
X131307671Y-54230857D01*
X131521957Y-55016571D02*
X130807671Y-55016571D01*
X130807671Y-53516571D01*
X131521957Y-53516571D01*
X132379100Y-55016571D02*
X132236242Y-54945142D01*
X132164814Y-54802285D01*
X132164814Y-53516571D01*
X133521957Y-54945142D02*
X133379100Y-55016571D01*
X133093385Y-55016571D01*
X132950528Y-54945142D01*
X132879100Y-54802285D01*
X132879100Y-54230857D01*
X132950528Y-54088000D01*
X133093385Y-54016571D01*
X133379100Y-54016571D01*
X133521957Y-54088000D01*
X133593385Y-54230857D01*
X133593385Y-54373714D01*
X132879100Y-54516571D01*
X134879100Y-54945142D02*
X134736242Y-55016571D01*
X134450528Y-55016571D01*
X134307671Y-54945142D01*
X134236242Y-54873714D01*
X134164814Y-54730857D01*
X134164814Y-54302285D01*
X134236242Y-54159428D01*
X134307671Y-54088000D01*
X134450528Y-54016571D01*
X134736242Y-54016571D01*
X134879100Y-54088000D01*
X135307671Y-54016571D02*
X135879100Y-54016571D01*
X135521957Y-53516571D02*
X135521957Y-54802285D01*
X135593385Y-54945142D01*
X135736242Y-55016571D01*
X135879100Y-55016571D01*
X136379100Y-55016571D02*
X136379100Y-54016571D01*
X136379100Y-54302285D02*
X136450528Y-54159428D01*
X136521957Y-54088000D01*
X136664814Y-54016571D01*
X136807671Y-54016571D01*
X137307671Y-55016571D02*
X137307671Y-54016571D01*
X137307671Y-53516571D02*
X137236242Y-53588000D01*
X137307671Y-53659428D01*
X137379100Y-53588000D01*
X137307671Y-53516571D01*
X137307671Y-53659428D01*
X138664814Y-54945142D02*
X138521957Y-55016571D01*
X138236242Y-55016571D01*
X138093385Y-54945142D01*
X138021957Y-54873714D01*
X137950528Y-54730857D01*
X137950528Y-54302285D01*
X138021957Y-54159428D01*
X138093385Y-54088000D01*
X138236242Y-54016571D01*
X138521957Y-54016571D01*
X138664814Y-54088000D01*
X140450528Y-55016571D02*
X140450528Y-53516571D01*
X140950528Y-54588000D01*
X141450528Y-53516571D01*
X141450528Y-55016571D01*
X142379100Y-55016571D02*
X142236242Y-54945142D01*
X142164814Y-54873714D01*
X142093385Y-54730857D01*
X142093385Y-54302285D01*
X142164814Y-54159428D01*
X142236242Y-54088000D01*
X142379100Y-54016571D01*
X142593385Y-54016571D01*
X142736242Y-54088000D01*
X142807671Y-54159428D01*
X142879100Y-54302285D01*
X142879100Y-54730857D01*
X142807671Y-54873714D01*
X142736242Y-54945142D01*
X142593385Y-55016571D01*
X142379100Y-55016571D01*
X143307671Y-54016571D02*
X143879100Y-54016571D01*
X143521957Y-53516571D02*
X143521957Y-54802285D01*
X143593385Y-54945142D01*
X143736242Y-55016571D01*
X143879100Y-55016571D01*
X144593385Y-55016571D02*
X144450528Y-54945142D01*
X144379100Y-54873714D01*
X144307671Y-54730857D01*
X144307671Y-54302285D01*
X144379100Y-54159428D01*
X144450528Y-54088000D01*
X144593385Y-54016571D01*
X144807671Y-54016571D01*
X144950528Y-54088000D01*
X145021957Y-54159428D01*
X145093385Y-54302285D01*
X145093385Y-54730857D01*
X145021957Y-54873714D01*
X144950528Y-54945142D01*
X144807671Y-55016571D01*
X144593385Y-55016571D01*
X145736242Y-55016571D02*
X145736242Y-54016571D01*
X145736242Y-54302285D02*
X145807671Y-54159428D01*
X145879100Y-54088000D01*
X146021957Y-54016571D01*
X146164814Y-54016571D01*
X146593385Y-54945142D02*
X146736242Y-55016571D01*
X147021957Y-55016571D01*
X147164814Y-54945142D01*
X147236242Y-54802285D01*
X147236242Y-54730857D01*
X147164814Y-54588000D01*
X147021957Y-54516571D01*
X146807671Y-54516571D01*
X146664814Y-54445142D01*
X146593385Y-54302285D01*
X146593385Y-54230857D01*
X146664814Y-54088000D01*
X146807671Y-54016571D01*
X147021957Y-54016571D01*
X147164814Y-54088000D01*
X147879100Y-54016571D02*
X147879100Y-55516571D01*
X147879100Y-54088000D02*
X148021957Y-54016571D01*
X148307671Y-54016571D01*
X148450528Y-54088000D01*
X148521957Y-54159428D01*
X148593385Y-54302285D01*
X148593385Y-54730857D01*
X148521957Y-54873714D01*
X148450528Y-54945142D01*
X148307671Y-55016571D01*
X148021957Y-55016571D01*
X147879100Y-54945142D01*
X149450528Y-55016571D02*
X149307671Y-54945142D01*
X149236242Y-54873714D01*
X149164814Y-54730857D01*
X149164814Y-54302285D01*
X149236242Y-54159428D01*
X149307671Y-54088000D01*
X149450528Y-54016571D01*
X149664814Y-54016571D01*
X149807671Y-54088000D01*
X149879100Y-54159428D01*
X149950528Y-54302285D01*
X149950528Y-54730857D01*
X149879100Y-54873714D01*
X149807671Y-54945142D01*
X149664814Y-55016571D01*
X149450528Y-55016571D01*
X150593385Y-55016571D02*
X150593385Y-54016571D01*
X150593385Y-54302285D02*
X150664814Y-54159428D01*
X150736242Y-54088000D01*
X150879100Y-54016571D01*
X151021957Y-54016571D01*
X151307671Y-54016571D02*
X151879100Y-54016571D01*
X151521957Y-53516571D02*
X151521957Y-54802285D01*
X151593385Y-54945142D01*
X151736242Y-55016571D01*
X151879100Y-55016571D01*
X152307671Y-54945142D02*
X152450528Y-55016571D01*
X152736242Y-55016571D01*
X152879100Y-54945142D01*
X152950528Y-54802285D01*
X152950528Y-54730857D01*
X152879100Y-54588000D01*
X152736242Y-54516571D01*
X152521957Y-54516571D01*
X152379100Y-54445142D01*
X152307671Y-54302285D01*
X152307671Y-54230857D01*
X152379100Y-54088000D01*
X152521957Y-54016571D01*
X152736242Y-54016571D01*
X152879100Y-54088000D01*
D10*
X148352000Y-71544571D02*
X147637714Y-71544571D01*
X147637714Y-70044571D01*
X148780571Y-71473142D02*
X148994857Y-71544571D01*
X149352000Y-71544571D01*
X149494857Y-71473142D01*
X149566285Y-71401714D01*
X149637714Y-71258857D01*
X149637714Y-71116000D01*
X149566285Y-70973142D01*
X149494857Y-70901714D01*
X149352000Y-70830285D01*
X149066285Y-70758857D01*
X148923428Y-70687428D01*
X148852000Y-70616000D01*
X148780571Y-70473142D01*
X148780571Y-70330285D01*
X148852000Y-70187428D01*
X148923428Y-70116000D01*
X149066285Y-70044571D01*
X149423428Y-70044571D01*
X149637714Y-70116000D01*
X150280571Y-71544571D02*
X150280571Y-70044571D01*
X150637714Y-70044571D01*
X150852000Y-70116000D01*
X150994857Y-70258857D01*
X151066285Y-70401714D01*
X151137714Y-70687428D01*
X151137714Y-70901714D01*
X151066285Y-71187428D01*
X150994857Y-71330285D01*
X150852000Y-71473142D01*
X150637714Y-71544571D01*
X150280571Y-71544571D01*
X152728079Y-63416571D02*
X152317365Y-62702285D01*
X151870936Y-63416571D02*
X152058436Y-61916571D01*
X152629865Y-61916571D01*
X152763793Y-61988000D01*
X152826293Y-62059428D01*
X152879865Y-62202285D01*
X152853079Y-62416571D01*
X152763793Y-62559428D01*
X152683436Y-62630857D01*
X152531650Y-62702285D01*
X151960222Y-62702285D01*
X154245936Y-63273714D02*
X154165579Y-63345142D01*
X153942365Y-63416571D01*
X153799507Y-63416571D01*
X153594150Y-63345142D01*
X153469150Y-63202285D01*
X153415579Y-63059428D01*
X153379865Y-62773714D01*
X153406650Y-62559428D01*
X153513793Y-62273714D01*
X153603079Y-62130857D01*
X153763793Y-61988000D01*
X153987007Y-61916571D01*
X154129865Y-61916571D01*
X154335222Y-61988000D01*
X154397722Y-62059428D01*
X174453365Y-66277971D02*
X174739080Y-66277971D01*
X174873008Y-66349400D01*
X174998008Y-66492257D01*
X175033722Y-66777971D01*
X174971222Y-67277971D01*
X174864080Y-67563685D01*
X174703365Y-67706542D01*
X174551580Y-67777971D01*
X174265865Y-67777971D01*
X174131937Y-67706542D01*
X174006937Y-67563685D01*
X173971222Y-67277971D01*
X174033722Y-66777971D01*
X174140865Y-66492257D01*
X174301580Y-66349400D01*
X174453365Y-66277971D01*
X175676580Y-66777971D02*
X175489080Y-68277971D01*
X175667651Y-66849400D02*
X175819437Y-66777971D01*
X176105151Y-66777971D01*
X176239080Y-66849400D01*
X176301580Y-66920828D01*
X176355151Y-67063685D01*
X176301580Y-67492257D01*
X176212294Y-67635114D01*
X176131937Y-67706542D01*
X175980151Y-67777971D01*
X175694437Y-67777971D01*
X175560508Y-67706542D01*
X173962294Y-69802600D02*
X174676580Y-69802600D01*
X173765865Y-70231171D02*
X174453365Y-68731171D01*
X174765865Y-70231171D01*
X175265865Y-70231171D02*
X175390865Y-69231171D01*
X175373008Y-69374028D02*
X175453365Y-69302600D01*
X175605151Y-69231171D01*
X175819437Y-69231171D01*
X175953365Y-69302600D01*
X176006937Y-69445457D01*
X175908722Y-70231171D01*
X176006937Y-69445457D02*
X176096222Y-69302600D01*
X176248008Y-69231171D01*
X176462294Y-69231171D01*
X176596222Y-69302600D01*
X176649794Y-69445457D01*
X176551580Y-70231171D01*
X177390865Y-69231171D02*
X177203365Y-70731171D01*
X177381937Y-69302600D02*
X177533722Y-69231171D01*
X177819437Y-69231171D01*
X177953365Y-69302600D01*
X178015865Y-69374028D01*
X178069437Y-69516885D01*
X178015865Y-69945457D01*
X177926580Y-70088314D01*
X177846222Y-70159742D01*
X177694437Y-70231171D01*
X177408722Y-70231171D01*
X177274794Y-70159742D01*
X170615651Y-84978542D02*
X170821008Y-85049971D01*
X171178151Y-85049971D01*
X171329937Y-84978542D01*
X171410294Y-84907114D01*
X171499580Y-84764257D01*
X171517437Y-84621400D01*
X171463865Y-84478542D01*
X171401365Y-84407114D01*
X171267437Y-84335685D01*
X170990651Y-84264257D01*
X170856722Y-84192828D01*
X170794222Y-84121400D01*
X170740651Y-83978542D01*
X170758508Y-83835685D01*
X170847794Y-83692828D01*
X170928151Y-83621400D01*
X171079937Y-83549971D01*
X171437080Y-83549971D01*
X171642437Y-83621400D01*
X172106722Y-85049971D02*
X172294222Y-83549971D01*
X172749580Y-85049971D02*
X172847794Y-84264257D01*
X172794222Y-84121400D01*
X172660294Y-84049971D01*
X172446008Y-84049971D01*
X172294222Y-84121400D01*
X172213865Y-84192828D01*
X174231722Y-84049971D02*
X174106722Y-85049971D01*
X173588865Y-84049971D02*
X173490651Y-84835685D01*
X173544222Y-84978542D01*
X173678151Y-85049971D01*
X173892437Y-85049971D01*
X174044222Y-84978542D01*
X174124580Y-84907114D01*
X174731722Y-84049971D02*
X175303151Y-84049971D01*
X175008508Y-83549971D02*
X174847794Y-84835685D01*
X174901365Y-84978542D01*
X175035294Y-85049971D01*
X175178151Y-85049971D01*
X176321008Y-85049971D02*
X176508508Y-83549971D01*
X176329937Y-84978542D02*
X176178151Y-85049971D01*
X175892437Y-85049971D01*
X175758508Y-84978542D01*
X175696008Y-84907114D01*
X175642437Y-84764257D01*
X175696008Y-84335685D01*
X175785294Y-84192828D01*
X175865651Y-84121400D01*
X176017437Y-84049971D01*
X176303151Y-84049971D01*
X176437080Y-84121400D01*
X177249580Y-85049971D02*
X177115651Y-84978542D01*
X177053151Y-84907114D01*
X176999580Y-84764257D01*
X177053151Y-84335685D01*
X177142437Y-84192828D01*
X177222794Y-84121400D01*
X177374580Y-84049971D01*
X177588865Y-84049971D01*
X177722794Y-84121400D01*
X177785294Y-84192828D01*
X177838865Y-84335685D01*
X177785294Y-84764257D01*
X177696008Y-84907114D01*
X177615651Y-84978542D01*
X177463865Y-85049971D01*
X177249580Y-85049971D01*
X178374580Y-84049971D02*
X178535294Y-85049971D01*
X178910294Y-84335685D01*
X179106722Y-85049971D01*
X179517437Y-84049971D01*
X180088865Y-84049971D02*
X179963865Y-85049971D01*
X180071008Y-84192828D02*
X180151365Y-84121400D01*
X180303151Y-84049971D01*
X180517437Y-84049971D01*
X180651365Y-84121400D01*
X180704937Y-84264257D01*
X180606722Y-85049971D01*
X170615651Y-87431742D02*
X170821008Y-87503171D01*
X171178151Y-87503171D01*
X171329937Y-87431742D01*
X171410294Y-87360314D01*
X171499580Y-87217457D01*
X171517437Y-87074600D01*
X171463865Y-86931742D01*
X171401365Y-86860314D01*
X171267437Y-86788885D01*
X170990651Y-86717457D01*
X170856722Y-86646028D01*
X170794222Y-86574600D01*
X170740651Y-86431742D01*
X170758508Y-86288885D01*
X170847794Y-86146028D01*
X170928151Y-86074600D01*
X171079937Y-86003171D01*
X171437080Y-86003171D01*
X171642437Y-86074600D01*
X172687080Y-87431742D02*
X172535294Y-87503171D01*
X172249580Y-87503171D01*
X172115651Y-87431742D01*
X172062080Y-87288885D01*
X172133508Y-86717457D01*
X172222794Y-86574600D01*
X172374580Y-86503171D01*
X172660294Y-86503171D01*
X172794222Y-86574600D01*
X172847794Y-86717457D01*
X172829937Y-86860314D01*
X172097794Y-87003171D01*
X173517437Y-86503171D02*
X173392437Y-87503171D01*
X173499580Y-86646028D02*
X173579937Y-86574600D01*
X173731722Y-86503171D01*
X173946008Y-86503171D01*
X174079937Y-86574600D01*
X174133508Y-86717457D01*
X174035294Y-87503171D01*
X174687080Y-87431742D02*
X174821008Y-87503171D01*
X175106722Y-87503171D01*
X175258508Y-87431742D01*
X175347794Y-87288885D01*
X175356722Y-87217457D01*
X175303151Y-87074600D01*
X175169222Y-87003171D01*
X174954937Y-87003171D01*
X174821008Y-86931742D01*
X174767437Y-86788885D01*
X174776365Y-86717457D01*
X174865651Y-86574600D01*
X175017437Y-86503171D01*
X175231722Y-86503171D01*
X175365651Y-86574600D01*
X176544222Y-87431742D02*
X176392437Y-87503171D01*
X176106722Y-87503171D01*
X175972794Y-87431742D01*
X175919222Y-87288885D01*
X175990651Y-86717457D01*
X176079937Y-86574600D01*
X176231722Y-86503171D01*
X176517437Y-86503171D01*
X176651365Y-86574600D01*
X176704937Y-86717457D01*
X176687080Y-86860314D01*
X175954937Y-87003171D01*
X156449079Y-93035114D02*
X156368722Y-93106542D01*
X156145507Y-93177971D01*
X156002650Y-93177971D01*
X155797293Y-93106542D01*
X155672293Y-92963685D01*
X155618722Y-92820828D01*
X155583007Y-92535114D01*
X155609793Y-92320828D01*
X155716936Y-92035114D01*
X155806222Y-91892257D01*
X155966936Y-91749400D01*
X156190150Y-91677971D01*
X156333007Y-91677971D01*
X156538365Y-91749400D01*
X156600865Y-91820828D01*
X157074079Y-93177971D02*
X157199079Y-92177971D01*
X157163365Y-92463685D02*
X157252650Y-92320828D01*
X157333007Y-92249400D01*
X157484793Y-92177971D01*
X157627650Y-92177971D01*
X157984793Y-92177971D02*
X158216936Y-93177971D01*
X158699079Y-92177971D02*
X158216936Y-93177971D01*
X158029436Y-93535114D01*
X157949079Y-93606542D01*
X157797293Y-93677971D01*
X159083007Y-93106542D02*
X159216936Y-93177971D01*
X159502650Y-93177971D01*
X159654436Y-93106542D01*
X159743722Y-92963685D01*
X159752650Y-92892257D01*
X159699079Y-92749400D01*
X159565150Y-92677971D01*
X159350865Y-92677971D01*
X159216936Y-92606542D01*
X159163365Y-92463685D01*
X159172293Y-92392257D01*
X159261579Y-92249400D01*
X159413365Y-92177971D01*
X159627650Y-92177971D01*
X159761579Y-92249400D01*
X160270507Y-92177971D02*
X160841936Y-92177971D01*
X160547293Y-91677971D02*
X160386579Y-92963685D01*
X160440150Y-93106542D01*
X160574079Y-93177971D01*
X160716936Y-93177971D01*
X161859793Y-93177971D02*
X161958007Y-92392257D01*
X161904436Y-92249400D01*
X161770507Y-92177971D01*
X161484793Y-92177971D01*
X161333007Y-92249400D01*
X161868722Y-93106542D02*
X161716936Y-93177971D01*
X161359793Y-93177971D01*
X161225865Y-93106542D01*
X161172293Y-92963685D01*
X161190150Y-92820828D01*
X161279436Y-92677971D01*
X161431222Y-92606542D01*
X161788365Y-92606542D01*
X161940150Y-92535114D01*
X162788365Y-93177971D02*
X162654436Y-93106542D01*
X162600865Y-92963685D01*
X162761579Y-91677971D01*
X156681222Y-95631171D02*
X155824079Y-95631171D01*
X156252650Y-95631171D02*
X156440150Y-94131171D01*
X156270507Y-94345457D01*
X156109793Y-94488314D01*
X155958007Y-94559742D01*
X158154436Y-94131171D02*
X157868722Y-94131171D01*
X157716936Y-94202600D01*
X157636579Y-94274028D01*
X157466936Y-94488314D01*
X157359793Y-94774028D01*
X157288365Y-95345457D01*
X157341936Y-95488314D01*
X157404436Y-95559742D01*
X157538365Y-95631171D01*
X157824079Y-95631171D01*
X157975865Y-95559742D01*
X158056222Y-95488314D01*
X158145507Y-95345457D01*
X158190150Y-94988314D01*
X158136579Y-94845457D01*
X158074079Y-94774028D01*
X157940150Y-94702600D01*
X157654436Y-94702600D01*
X157502650Y-94774028D01*
X157422293Y-94845457D01*
X157333007Y-94988314D01*
X158752650Y-95631171D02*
X158940150Y-94131171D01*
X159306222Y-95202600D01*
X159940150Y-94131171D01*
X159752650Y-95631171D01*
X160466936Y-95631171D02*
X160654436Y-94131171D01*
X161109793Y-95631171D02*
X161208007Y-94845457D01*
X161154436Y-94702600D01*
X161020507Y-94631171D01*
X160806222Y-94631171D01*
X160654436Y-94702600D01*
X160574079Y-94774028D01*
X161806222Y-94631171D02*
X162591936Y-94631171D01*
X161681222Y-95631171D01*
X162466936Y-95631171D01*
X163746571Y-111077142D02*
X162246571Y-111077142D01*
X162246571Y-110505714D01*
X162318000Y-110362857D01*
X162389428Y-110291428D01*
X162532285Y-110220000D01*
X162746571Y-110220000D01*
X162889428Y-110291428D01*
X162960857Y-110362857D01*
X163032285Y-110505714D01*
X163032285Y-111077142D01*
X162960857Y-109077142D02*
X163032285Y-108862857D01*
X163103714Y-108791428D01*
X163246571Y-108720000D01*
X163460857Y-108720000D01*
X163603714Y-108791428D01*
X163675142Y-108862857D01*
X163746571Y-109005714D01*
X163746571Y-109577142D01*
X162246571Y-109577142D01*
X162246571Y-109077142D01*
X162318000Y-108934285D01*
X162389428Y-108862857D01*
X162532285Y-108791428D01*
X162675142Y-108791428D01*
X162818000Y-108862857D01*
X162889428Y-108934285D01*
X162960857Y-109077142D01*
X162960857Y-109577142D01*
X162389428Y-108148571D02*
X162318000Y-108077142D01*
X162246571Y-107934285D01*
X162246571Y-107577142D01*
X162318000Y-107434285D01*
X162389428Y-107362857D01*
X162532285Y-107291428D01*
X162675142Y-107291428D01*
X162889428Y-107362857D01*
X163746571Y-108220000D01*
X163746571Y-107291428D01*
X160444571Y-111077142D02*
X158944571Y-111077142D01*
X158944571Y-110505714D01*
X159016000Y-110362857D01*
X159087428Y-110291428D01*
X159230285Y-110220000D01*
X159444571Y-110220000D01*
X159587428Y-110291428D01*
X159658857Y-110362857D01*
X159730285Y-110505714D01*
X159730285Y-111077142D01*
X159658857Y-109077142D02*
X159730285Y-108862857D01*
X159801714Y-108791428D01*
X159944571Y-108720000D01*
X160158857Y-108720000D01*
X160301714Y-108791428D01*
X160373142Y-108862857D01*
X160444571Y-109005714D01*
X160444571Y-109577142D01*
X158944571Y-109577142D01*
X158944571Y-109077142D01*
X159016000Y-108934285D01*
X159087428Y-108862857D01*
X159230285Y-108791428D01*
X159373142Y-108791428D01*
X159516000Y-108862857D01*
X159587428Y-108934285D01*
X159658857Y-109077142D01*
X159658857Y-109577142D01*
X160444571Y-107291428D02*
X160444571Y-108148571D01*
X160444571Y-107720000D02*
X158944571Y-107720000D01*
X159158857Y-107862857D01*
X159301714Y-108005714D01*
X159373142Y-108148571D01*
X157396571Y-111077142D02*
X155896571Y-111077142D01*
X155896571Y-110505714D01*
X155968000Y-110362857D01*
X156039428Y-110291428D01*
X156182285Y-110220000D01*
X156396571Y-110220000D01*
X156539428Y-110291428D01*
X156610857Y-110362857D01*
X156682285Y-110505714D01*
X156682285Y-111077142D01*
X156610857Y-109077142D02*
X156682285Y-108862857D01*
X156753714Y-108791428D01*
X156896571Y-108720000D01*
X157110857Y-108720000D01*
X157253714Y-108791428D01*
X157325142Y-108862857D01*
X157396571Y-109005714D01*
X157396571Y-109577142D01*
X155896571Y-109577142D01*
X155896571Y-109077142D01*
X155968000Y-108934285D01*
X156039428Y-108862857D01*
X156182285Y-108791428D01*
X156325142Y-108791428D01*
X156468000Y-108862857D01*
X156539428Y-108934285D01*
X156610857Y-109077142D01*
X156610857Y-109577142D01*
X155896571Y-107791428D02*
X155896571Y-107648571D01*
X155968000Y-107505714D01*
X156039428Y-107434285D01*
X156182285Y-107362857D01*
X156468000Y-107291428D01*
X156825142Y-107291428D01*
X157110857Y-107362857D01*
X157253714Y-107434285D01*
X157325142Y-107505714D01*
X157396571Y-107648571D01*
X157396571Y-107791428D01*
X157325142Y-107934285D01*
X157253714Y-108005714D01*
X157110857Y-108077142D01*
X156825142Y-108148571D01*
X156468000Y-108148571D01*
X156182285Y-108077142D01*
X156039428Y-108005714D01*
X155968000Y-107934285D01*
X155896571Y-107791428D01*
D15*
G04 #@! TO.C,C4*
X141820000Y-88638000D02*
X141820000Y-87638000D01*
X140120000Y-87638000D02*
X140120000Y-88638000D01*
G04 #@! TO.C,C5*
X143930000Y-109736000D02*
X143930000Y-110736000D01*
X145630000Y-110736000D02*
X145630000Y-109736000D01*
G04 #@! TO.C,C6*
X157314000Y-89908000D02*
X157314000Y-88908000D01*
X155614000Y-88908000D02*
X155614000Y-89908000D01*
G04 #@! TO.C,C10*
X169680000Y-69938000D02*
X170680000Y-69938000D01*
X170680000Y-68238000D02*
X169680000Y-68238000D01*
G04 #@! TO.C,C11*
X149090000Y-100750000D02*
X148090000Y-100750000D01*
X148090000Y-102450000D02*
X149090000Y-102450000D01*
G04 #@! TO.C,C12*
X149090000Y-103036000D02*
X148090000Y-103036000D01*
X148090000Y-104736000D02*
X149090000Y-104736000D01*
D16*
G04 #@! TO.C,D2*
X144472000Y-92360000D02*
X144472000Y-92710000D01*
X144472000Y-92710000D02*
X144472000Y-93060000D01*
X144122000Y-92360000D02*
X144472000Y-92710000D01*
X144122000Y-92410000D02*
X144122000Y-92360000D01*
X144122000Y-92360000D02*
X144122000Y-92410000D01*
X144122000Y-93060000D02*
X144122000Y-92410000D01*
X144172000Y-93010000D02*
X144122000Y-93060000D01*
X144472000Y-92710000D02*
X144172000Y-93010000D01*
D15*
X146072000Y-93410000D02*
X146072000Y-92010000D01*
X146072000Y-92010000D02*
X143272000Y-92010000D01*
X146072000Y-93410000D02*
X143272000Y-93410000D01*
D16*
G04 #@! TO.C,D6*
X160116000Y-104340000D02*
X159766000Y-104340000D01*
X159766000Y-104340000D02*
X159416000Y-104340000D01*
X160116000Y-103990000D02*
X159766000Y-104340000D01*
X160066000Y-103990000D02*
X160116000Y-103990000D01*
X160116000Y-103990000D02*
X160066000Y-103990000D01*
X159416000Y-103990000D02*
X160066000Y-103990000D01*
X159466000Y-104040000D02*
X159416000Y-103990000D01*
X159766000Y-104340000D02*
X159466000Y-104040000D01*
D15*
X159066000Y-105940000D02*
X160466000Y-105940000D01*
X160466000Y-105940000D02*
X160466000Y-103140000D01*
X159066000Y-105940000D02*
X159066000Y-103140000D01*
G04 #@! TO.C,F1*
X134009500Y-104002500D02*
X134009500Y-102002500D01*
X136969500Y-102002500D02*
X136969500Y-104002500D01*
D17*
G04 #@! TO.C,IC1*
X145395054Y-82069266D02*
G75*
G03X145395054Y-82069266I-50801J0D01*
G01*
X143060186Y-81925581D02*
G75*
G03X143060186Y-81925581I-50800J0D01*
G01*
D18*
X143971476Y-82051305D02*
X144130575Y-82210404D01*
X149098000Y-76924781D02*
X149327810Y-77154591D01*
X154224524Y-82051305D02*
X153994714Y-81821495D01*
X149098000Y-87177829D02*
X148868190Y-86948019D01*
X143971476Y-82051305D02*
X144201286Y-81821495D01*
X149098000Y-87177829D02*
X149327810Y-86948019D01*
X154224524Y-82051305D02*
X153994714Y-82281115D01*
X149098000Y-76924781D02*
X148868190Y-77154591D01*
X144130575Y-82210404D02*
X143122948Y-83218031D01*
D15*
G04 #@! TO.C,R1*
X154314000Y-78578000D02*
X154314000Y-77378000D01*
X156074000Y-77378000D02*
X156074000Y-78578000D01*
G04 #@! TO.C,R2*
X131734000Y-104530000D02*
X132934000Y-104530000D01*
X132934000Y-106290000D02*
X131734000Y-106290000D01*
G04 #@! TO.C,R3*
X131734000Y-106562000D02*
X132934000Y-106562000D01*
X132934000Y-108322000D02*
X131734000Y-108322000D01*
G04 #@! TO.C,R6*
X169580000Y-65922000D02*
X170780000Y-65922000D01*
X170780000Y-67682000D02*
X169580000Y-67682000D01*
G04 #@! TO.C,R8*
X141850000Y-77632000D02*
X141850000Y-78832000D01*
X140090000Y-78832000D02*
X140090000Y-77632000D01*
G04 #@! TO.C,R11*
X165770000Y-71256000D02*
X166970000Y-71256000D01*
X166970000Y-73016000D02*
X165770000Y-73016000D01*
G04 #@! TO.C,R12*
X140808000Y-93590000D02*
X139608000Y-93590000D01*
X139608000Y-91830000D02*
X140808000Y-91830000D01*
G04 #@! TO.C,R16*
X154016000Y-74032000D02*
X152816000Y-74032000D01*
X152816000Y-72272000D02*
X154016000Y-72272000D01*
G04 #@! TO.C,U2*
X140160100Y-108002500D02*
X140160100Y-109802500D01*
X143380100Y-109802500D02*
X143380100Y-107352500D01*
D16*
G04 #@! TO.C,Y1*
X155416000Y-91008000D02*
X153416000Y-91008000D01*
X155416000Y-91008000D02*
X155416000Y-89408000D01*
D15*
G04 #@! TO.C,R13*
X168520000Y-84236000D02*
X168520000Y-85436000D01*
X166760000Y-85436000D02*
X166760000Y-84236000D01*
G04 #@! TO.C,R14*
X166234000Y-84236000D02*
X166234000Y-85436000D01*
X164474000Y-85436000D02*
X164474000Y-84236000D01*
G04 #@! TO.C,R15*
X161960000Y-80908000D02*
X163160000Y-80908000D01*
X163160000Y-82668000D02*
X161960000Y-82668000D01*
G04 #@! TO.C,R17*
X162442000Y-99914000D02*
X162442000Y-98714000D01*
X164202000Y-98714000D02*
X164202000Y-99914000D01*
G04 #@! TO.C,C3*
X139450000Y-110220000D02*
X139450000Y-108220000D01*
X137410000Y-108220000D02*
X137410000Y-110220000D01*
G04 #@! TO.C,C7*
X149090000Y-98718000D02*
X148090000Y-98718000D01*
X148090000Y-100418000D02*
X149090000Y-100418000D01*
G04 #@! TO.C,C8*
X153916000Y-91098000D02*
X152916000Y-91098000D01*
X152916000Y-92798000D02*
X153916000Y-92798000D01*
G04 #@! TO.C,C9*
X143168000Y-62238000D02*
X143168000Y-63238000D01*
X144868000Y-63238000D02*
X144868000Y-62238000D01*
D16*
G04 #@! TO.C,D1*
X131222000Y-101654000D02*
X131572000Y-101654000D01*
X131572000Y-101654000D02*
X131922000Y-101654000D01*
X131222000Y-102004000D02*
X131572000Y-101654000D01*
X131272000Y-102004000D02*
X131222000Y-102004000D01*
X131222000Y-102004000D02*
X131272000Y-102004000D01*
X131922000Y-102004000D02*
X131272000Y-102004000D01*
X131872000Y-101954000D02*
X131922000Y-102004000D01*
X131572000Y-101654000D02*
X131872000Y-101954000D01*
D15*
X132272000Y-100054000D02*
X130872000Y-100054000D01*
X130872000Y-100054000D02*
X130872000Y-102854000D01*
X132272000Y-100054000D02*
X132272000Y-102854000D01*
D19*
G04 #@! TO.C,D7*
X135112000Y-94650000D02*
X134212000Y-95750000D01*
X133412000Y-94650000D02*
X135112000Y-94650000D01*
X134212000Y-95750000D02*
X133412000Y-94650000D01*
X133412000Y-95750000D02*
X135112000Y-95750000D01*
D15*
X132778500Y-98425000D02*
X135445500Y-98425000D01*
X135445500Y-98425000D02*
X135445500Y-95250000D01*
X132778500Y-98425000D02*
X132778500Y-95250000D01*
D18*
G04 #@! TO.C,J4*
X138684000Y-79248000D02*
X138684000Y-74168000D01*
X138964000Y-82068000D02*
X137414000Y-82068000D01*
X136144000Y-81788000D02*
X136144000Y-79248000D01*
X136144000Y-79248000D02*
X138684000Y-79248000D01*
X138684000Y-74168000D02*
X133604000Y-74168000D01*
X133604000Y-74168000D02*
X133604000Y-79248000D01*
X138964000Y-82068000D02*
X138964000Y-80518000D01*
X133604000Y-81788000D02*
X136144000Y-81788000D01*
X133604000Y-79248000D02*
X133604000Y-81788000D01*
D15*
G04 #@! TO.C,Q1*
X154996000Y-69598000D02*
X154066000Y-69598000D01*
X151836000Y-69598000D02*
X152766000Y-69598000D01*
X151836000Y-69598000D02*
X151836000Y-71758000D01*
X154996000Y-69598000D02*
X154996000Y-71058000D01*
G04 #@! TO.C,Q2*
X161800000Y-83256000D02*
X161800000Y-84186000D01*
X161800000Y-86416000D02*
X161800000Y-85486000D01*
X161800000Y-86416000D02*
X163960000Y-86416000D01*
X161800000Y-83256000D02*
X163260000Y-83256000D01*
G04 #@! TO.C,Q5*
X147826000Y-64318000D02*
X147826000Y-63388000D01*
X147826000Y-61158000D02*
X147826000Y-62088000D01*
X147826000Y-61158000D02*
X145666000Y-61158000D01*
X147826000Y-64318000D02*
X146366000Y-64318000D01*
G04 #@! TO.C,R9*
X144205000Y-97705000D02*
X139005000Y-97705000D01*
X139005000Y-94065000D02*
X144205000Y-94065000D01*
G04 #@! TO.C,R19*
X162442000Y-69688000D02*
X162442000Y-68488000D01*
X164202000Y-68488000D02*
X164202000Y-69688000D01*
G04 #@! TO.C,R21*
X155838000Y-99914000D02*
X155838000Y-98714000D01*
X157598000Y-98714000D02*
X157598000Y-99914000D01*
G04 #@! TO.C,R22*
X142612000Y-62138000D02*
X142612000Y-63338000D01*
X140852000Y-63338000D02*
X140852000Y-62138000D01*
G04 #@! TO.C,R23*
X158886000Y-99914000D02*
X158886000Y-98714000D01*
X160646000Y-98714000D02*
X160646000Y-99914000D01*
G04 #@! TO.C,R24*
X150740000Y-63154000D02*
X150740000Y-64354000D01*
X148980000Y-64354000D02*
X148980000Y-63154000D01*
D18*
G04 #@! TO.C,U1*
X138219000Y-90459000D02*
X138219000Y-90409000D01*
X134069000Y-90459000D02*
X134069000Y-90314000D01*
X134069000Y-85309000D02*
X134069000Y-85454000D01*
X138219000Y-85309000D02*
X138219000Y-85454000D01*
X138219000Y-90459000D02*
X134069000Y-90459000D01*
X138219000Y-85309000D02*
X134069000Y-85309000D01*
X138219000Y-90409000D02*
X139619000Y-90409000D01*
D15*
G04 #@! TO.C,U3*
X167270000Y-67478000D02*
X165470000Y-67478000D01*
X165470000Y-70698000D02*
X167920000Y-70698000D01*
G04 #@! TO.C,C1*
X158742000Y-76112000D02*
X157742000Y-76112000D01*
X157742000Y-77812000D02*
X158742000Y-77812000D01*
G04 #@! TO.C,C2*
X158742000Y-78144000D02*
X157742000Y-78144000D01*
X157742000Y-79844000D02*
X158742000Y-79844000D01*
D16*
G04 #@! TO.C,D3*
X166170000Y-88488000D02*
X166170000Y-88138000D01*
X166170000Y-88138000D02*
X166170000Y-87788000D01*
X166520000Y-88488000D02*
X166170000Y-88138000D01*
X166520000Y-88438000D02*
X166520000Y-88488000D01*
X166520000Y-88488000D02*
X166520000Y-88438000D01*
X166520000Y-87788000D02*
X166520000Y-88438000D01*
X166470000Y-87838000D02*
X166520000Y-87788000D01*
X166170000Y-88138000D02*
X166470000Y-87838000D01*
D15*
X164570000Y-87438000D02*
X164570000Y-88838000D01*
X164570000Y-88838000D02*
X167370000Y-88838000D01*
X164570000Y-87438000D02*
X167370000Y-87438000D01*
D16*
G04 #@! TO.C,D4*
X163672000Y-104340000D02*
X163322000Y-104340000D01*
X163322000Y-104340000D02*
X162972000Y-104340000D01*
X163672000Y-103990000D02*
X163322000Y-104340000D01*
X163622000Y-103990000D02*
X163672000Y-103990000D01*
X163672000Y-103990000D02*
X163622000Y-103990000D01*
X162972000Y-103990000D02*
X163622000Y-103990000D01*
X163022000Y-104040000D02*
X162972000Y-103990000D01*
X163322000Y-104340000D02*
X163022000Y-104040000D01*
D15*
X162622000Y-105940000D02*
X164022000Y-105940000D01*
X164022000Y-105940000D02*
X164022000Y-103140000D01*
X162622000Y-105940000D02*
X162622000Y-103140000D01*
D16*
G04 #@! TO.C,D5*
X157068000Y-104340000D02*
X156718000Y-104340000D01*
X156718000Y-104340000D02*
X156368000Y-104340000D01*
X157068000Y-103990000D02*
X156718000Y-104340000D01*
X157018000Y-103990000D02*
X157068000Y-103990000D01*
X157068000Y-103990000D02*
X157018000Y-103990000D01*
X156368000Y-103990000D02*
X157018000Y-103990000D01*
X156418000Y-104040000D02*
X156368000Y-103990000D01*
X156718000Y-104340000D02*
X156418000Y-104040000D01*
D15*
X156018000Y-105940000D02*
X157418000Y-105940000D01*
X157418000Y-105940000D02*
X157418000Y-103140000D01*
X156018000Y-105940000D02*
X156018000Y-103140000D01*
G04 #@! TO.C,R4*
X139354000Y-111642000D02*
X140554000Y-111642000D01*
X140554000Y-113402000D02*
X139354000Y-113402000D01*
G04 #@! TO.C,R5*
X148962000Y-109890000D02*
X148962000Y-111090000D01*
X147202000Y-111090000D02*
X147202000Y-109890000D01*
G04 #@! TO.C,R7*
X130928000Y-86456000D02*
X130928000Y-87656000D01*
X129168000Y-87656000D02*
X129168000Y-86456000D01*
D18*
G04 #@! TO.C,J1*
X126746000Y-80264000D02*
X126746000Y-100584000D01*
X126746000Y-100584000D02*
X124206000Y-100584000D01*
X124206000Y-100584000D02*
X124206000Y-80264000D01*
X124206000Y-80264000D02*
X126746000Y-80264000D01*
G04 #@! TO.C,J2*
X124206000Y-59436000D02*
X126746000Y-59436000D01*
X124206000Y-79756000D02*
X124206000Y-59436000D01*
X126746000Y-79756000D02*
X124206000Y-79756000D01*
X126746000Y-59436000D02*
X126746000Y-79756000D01*
G04 #@! TO.C,C4*
X142851142Y-88304666D02*
X142898761Y-88352285D01*
X142946380Y-88495142D01*
X142946380Y-88590380D01*
X142898761Y-88733238D01*
X142803523Y-88828476D01*
X142708285Y-88876095D01*
X142517809Y-88923714D01*
X142374952Y-88923714D01*
X142184476Y-88876095D01*
X142089238Y-88828476D01*
X141994000Y-88733238D01*
X141946380Y-88590380D01*
X141946380Y-88495142D01*
X141994000Y-88352285D01*
X142041619Y-88304666D01*
X142279714Y-87447523D02*
X142946380Y-87447523D01*
X141898761Y-87685619D02*
X142613047Y-87923714D01*
X142613047Y-87304666D01*
G04 #@! TO.C,C5*
X145137142Y-113450666D02*
X145184761Y-113498285D01*
X145232380Y-113641142D01*
X145232380Y-113736380D01*
X145184761Y-113879238D01*
X145089523Y-113974476D01*
X144994285Y-114022095D01*
X144803809Y-114069714D01*
X144660952Y-114069714D01*
X144470476Y-114022095D01*
X144375238Y-113974476D01*
X144280000Y-113879238D01*
X144232380Y-113736380D01*
X144232380Y-113641142D01*
X144280000Y-113498285D01*
X144327619Y-113450666D01*
X144232380Y-112545904D02*
X144232380Y-113022095D01*
X144708571Y-113069714D01*
X144660952Y-113022095D01*
X144613333Y-112926857D01*
X144613333Y-112688761D01*
X144660952Y-112593523D01*
X144708571Y-112545904D01*
X144803809Y-112498285D01*
X145041904Y-112498285D01*
X145137142Y-112545904D01*
X145184761Y-112593523D01*
X145232380Y-112688761D01*
X145232380Y-112926857D01*
X145184761Y-113022095D01*
X145137142Y-113069714D01*
G04 #@! TO.C,C6*
X158329333Y-88495142D02*
X158281714Y-88542761D01*
X158138857Y-88590380D01*
X158043619Y-88590380D01*
X157900761Y-88542761D01*
X157805523Y-88447523D01*
X157757904Y-88352285D01*
X157710285Y-88161809D01*
X157710285Y-88018952D01*
X157757904Y-87828476D01*
X157805523Y-87733238D01*
X157900761Y-87638000D01*
X158043619Y-87590380D01*
X158138857Y-87590380D01*
X158281714Y-87638000D01*
X158329333Y-87685619D01*
X159186476Y-87590380D02*
X158996000Y-87590380D01*
X158900761Y-87638000D01*
X158853142Y-87685619D01*
X158757904Y-87828476D01*
X158710285Y-88018952D01*
X158710285Y-88399904D01*
X158757904Y-88495142D01*
X158805523Y-88542761D01*
X158900761Y-88590380D01*
X159091238Y-88590380D01*
X159186476Y-88542761D01*
X159234095Y-88495142D01*
X159281714Y-88399904D01*
X159281714Y-88161809D01*
X159234095Y-88066571D01*
X159186476Y-88018952D01*
X159091238Y-87971333D01*
X158900761Y-87971333D01*
X158805523Y-88018952D01*
X158757904Y-88066571D01*
X158710285Y-88161809D01*
G04 #@! TO.C,C10*
X169537142Y-71223142D02*
X169489523Y-71270761D01*
X169346666Y-71318380D01*
X169251428Y-71318380D01*
X169108571Y-71270761D01*
X169013333Y-71175523D01*
X168965714Y-71080285D01*
X168918095Y-70889809D01*
X168918095Y-70746952D01*
X168965714Y-70556476D01*
X169013333Y-70461238D01*
X169108571Y-70366000D01*
X169251428Y-70318380D01*
X169346666Y-70318380D01*
X169489523Y-70366000D01*
X169537142Y-70413619D01*
X170489523Y-71318380D02*
X169918095Y-71318380D01*
X170203809Y-71318380D02*
X170203809Y-70318380D01*
X170108571Y-70461238D01*
X170013333Y-70556476D01*
X169918095Y-70604095D01*
X171108571Y-70318380D02*
X171203809Y-70318380D01*
X171299047Y-70366000D01*
X171346666Y-70413619D01*
X171394285Y-70508857D01*
X171441904Y-70699333D01*
X171441904Y-70937428D01*
X171394285Y-71127904D01*
X171346666Y-71223142D01*
X171299047Y-71270761D01*
X171203809Y-71318380D01*
X171108571Y-71318380D01*
X171013333Y-71270761D01*
X170965714Y-71223142D01*
X170918095Y-71127904D01*
X170870476Y-70937428D01*
X170870476Y-70699333D01*
X170918095Y-70508857D01*
X170965714Y-70413619D01*
X171013333Y-70366000D01*
X171108571Y-70318380D01*
G04 #@! TO.C,C11*
X151503142Y-101957142D02*
X151455523Y-102004761D01*
X151312666Y-102052380D01*
X151217428Y-102052380D01*
X151074571Y-102004761D01*
X150979333Y-101909523D01*
X150931714Y-101814285D01*
X150884095Y-101623809D01*
X150884095Y-101480952D01*
X150931714Y-101290476D01*
X150979333Y-101195238D01*
X151074571Y-101100000D01*
X151217428Y-101052380D01*
X151312666Y-101052380D01*
X151455523Y-101100000D01*
X151503142Y-101147619D01*
X152455523Y-102052380D02*
X151884095Y-102052380D01*
X152169809Y-102052380D02*
X152169809Y-101052380D01*
X152074571Y-101195238D01*
X151979333Y-101290476D01*
X151884095Y-101338095D01*
X153407904Y-102052380D02*
X152836476Y-102052380D01*
X153122190Y-102052380D02*
X153122190Y-101052380D01*
X153026952Y-101195238D01*
X152931714Y-101290476D01*
X152836476Y-101338095D01*
G04 #@! TO.C,C12*
X151249142Y-103989142D02*
X151201523Y-104036761D01*
X151058666Y-104084380D01*
X150963428Y-104084380D01*
X150820571Y-104036761D01*
X150725333Y-103941523D01*
X150677714Y-103846285D01*
X150630095Y-103655809D01*
X150630095Y-103512952D01*
X150677714Y-103322476D01*
X150725333Y-103227238D01*
X150820571Y-103132000D01*
X150963428Y-103084380D01*
X151058666Y-103084380D01*
X151201523Y-103132000D01*
X151249142Y-103179619D01*
X152201523Y-104084380D02*
X151630095Y-104084380D01*
X151915809Y-104084380D02*
X151915809Y-103084380D01*
X151820571Y-103227238D01*
X151725333Y-103322476D01*
X151630095Y-103370095D01*
X152582476Y-103179619D02*
X152630095Y-103132000D01*
X152725333Y-103084380D01*
X152963428Y-103084380D01*
X153058666Y-103132000D01*
X153106285Y-103179619D01*
X153153904Y-103274857D01*
X153153904Y-103370095D01*
X153106285Y-103512952D01*
X152534857Y-104084380D01*
X153153904Y-104084380D01*
G04 #@! TO.C,D2*
X143787904Y-91384380D02*
X143787904Y-90384380D01*
X144026000Y-90384380D01*
X144168857Y-90432000D01*
X144264095Y-90527238D01*
X144311714Y-90622476D01*
X144359333Y-90812952D01*
X144359333Y-90955809D01*
X144311714Y-91146285D01*
X144264095Y-91241523D01*
X144168857Y-91336761D01*
X144026000Y-91384380D01*
X143787904Y-91384380D01*
X144740285Y-90479619D02*
X144787904Y-90432000D01*
X144883142Y-90384380D01*
X145121238Y-90384380D01*
X145216476Y-90432000D01*
X145264095Y-90479619D01*
X145311714Y-90574857D01*
X145311714Y-90670095D01*
X145264095Y-90812952D01*
X144692666Y-91384380D01*
X145311714Y-91384380D01*
G04 #@! TO.C,D6*
X161996380Y-104878095D02*
X160996380Y-104878095D01*
X160996380Y-104640000D01*
X161044000Y-104497142D01*
X161139238Y-104401904D01*
X161234476Y-104354285D01*
X161424952Y-104306666D01*
X161567809Y-104306666D01*
X161758285Y-104354285D01*
X161853523Y-104401904D01*
X161948761Y-104497142D01*
X161996380Y-104640000D01*
X161996380Y-104878095D01*
X160996380Y-103449523D02*
X160996380Y-103640000D01*
X161044000Y-103735238D01*
X161091619Y-103782857D01*
X161234476Y-103878095D01*
X161424952Y-103925714D01*
X161805904Y-103925714D01*
X161901142Y-103878095D01*
X161948761Y-103830476D01*
X161996380Y-103735238D01*
X161996380Y-103544761D01*
X161948761Y-103449523D01*
X161901142Y-103401904D01*
X161805904Y-103354285D01*
X161567809Y-103354285D01*
X161472571Y-103401904D01*
X161424952Y-103449523D01*
X161377333Y-103544761D01*
X161377333Y-103735238D01*
X161424952Y-103830476D01*
X161472571Y-103878095D01*
X161567809Y-103925714D01*
G04 #@! TO.C,F1*
X133278571Y-102949333D02*
X133278571Y-103282666D01*
X133802380Y-103282666D02*
X132802380Y-103282666D01*
X132802380Y-102806476D01*
X133802380Y-101901714D02*
X133802380Y-102473142D01*
X133802380Y-102187428D02*
X132802380Y-102187428D01*
X132945238Y-102282666D01*
X133040476Y-102377904D01*
X133088095Y-102473142D01*
G04 #@! TO.C,IC1*
X154061611Y-86354152D02*
X153354504Y-85647045D01*
X154735046Y-85546030D02*
X154735046Y-85613374D01*
X154667703Y-85748061D01*
X154600359Y-85815404D01*
X154465672Y-85882748D01*
X154330985Y-85882748D01*
X154229970Y-85849076D01*
X154061611Y-85748061D01*
X153960596Y-85647045D01*
X153859581Y-85478687D01*
X153825909Y-85377671D01*
X153825909Y-85242984D01*
X153893252Y-85108297D01*
X153960596Y-85040954D01*
X154095283Y-84973610D01*
X154162626Y-84973610D01*
X155475825Y-84939938D02*
X155071764Y-85344000D01*
X155273794Y-85141969D02*
X154566688Y-84434862D01*
X154600359Y-84603221D01*
X154600359Y-84737908D01*
X154566688Y-84838923D01*
G04 #@! TO.C,L1*
X137104380Y-99226666D02*
X137104380Y-99702857D01*
X136104380Y-99702857D01*
X137104380Y-98369523D02*
X137104380Y-98940952D01*
X137104380Y-98655238D02*
X136104380Y-98655238D01*
X136247238Y-98750476D01*
X136342476Y-98845714D01*
X136390095Y-98940952D01*
G04 #@! TO.C,R1*
X155900380Y-75604666D02*
X155424190Y-75938000D01*
X155900380Y-76176095D02*
X154900380Y-76176095D01*
X154900380Y-75795142D01*
X154948000Y-75699904D01*
X154995619Y-75652285D01*
X155090857Y-75604666D01*
X155233714Y-75604666D01*
X155328952Y-75652285D01*
X155376571Y-75699904D01*
X155424190Y-75795142D01*
X155424190Y-76176095D01*
X155900380Y-74652285D02*
X155900380Y-75223714D01*
X155900380Y-74938000D02*
X154900380Y-74938000D01*
X155043238Y-75033238D01*
X155138476Y-75128476D01*
X155186095Y-75223714D01*
G04 #@! TO.C,R2*
X129627333Y-105608380D02*
X129294000Y-105132190D01*
X129055904Y-105608380D02*
X129055904Y-104608380D01*
X129436857Y-104608380D01*
X129532095Y-104656000D01*
X129579714Y-104703619D01*
X129627333Y-104798857D01*
X129627333Y-104941714D01*
X129579714Y-105036952D01*
X129532095Y-105084571D01*
X129436857Y-105132190D01*
X129055904Y-105132190D01*
X130008285Y-104703619D02*
X130055904Y-104656000D01*
X130151142Y-104608380D01*
X130389238Y-104608380D01*
X130484476Y-104656000D01*
X130532095Y-104703619D01*
X130579714Y-104798857D01*
X130579714Y-104894095D01*
X130532095Y-105036952D01*
X129960666Y-105608380D01*
X130579714Y-105608380D01*
G04 #@! TO.C,R3*
X129881333Y-107894380D02*
X129548000Y-107418190D01*
X129309904Y-107894380D02*
X129309904Y-106894380D01*
X129690857Y-106894380D01*
X129786095Y-106942000D01*
X129833714Y-106989619D01*
X129881333Y-107084857D01*
X129881333Y-107227714D01*
X129833714Y-107322952D01*
X129786095Y-107370571D01*
X129690857Y-107418190D01*
X129309904Y-107418190D01*
X130214666Y-106894380D02*
X130833714Y-106894380D01*
X130500380Y-107275333D01*
X130643238Y-107275333D01*
X130738476Y-107322952D01*
X130786095Y-107370571D01*
X130833714Y-107465809D01*
X130833714Y-107703904D01*
X130786095Y-107799142D01*
X130738476Y-107846761D01*
X130643238Y-107894380D01*
X130357523Y-107894380D01*
X130262285Y-107846761D01*
X130214666Y-107799142D01*
G04 #@! TO.C,R6*
X170013333Y-65476380D02*
X169680000Y-65000190D01*
X169441904Y-65476380D02*
X169441904Y-64476380D01*
X169822857Y-64476380D01*
X169918095Y-64524000D01*
X169965714Y-64571619D01*
X170013333Y-64666857D01*
X170013333Y-64809714D01*
X169965714Y-64904952D01*
X169918095Y-64952571D01*
X169822857Y-65000190D01*
X169441904Y-65000190D01*
X170870476Y-64476380D02*
X170680000Y-64476380D01*
X170584761Y-64524000D01*
X170537142Y-64571619D01*
X170441904Y-64714476D01*
X170394285Y-64904952D01*
X170394285Y-65285904D01*
X170441904Y-65381142D01*
X170489523Y-65428761D01*
X170584761Y-65476380D01*
X170775238Y-65476380D01*
X170870476Y-65428761D01*
X170918095Y-65381142D01*
X170965714Y-65285904D01*
X170965714Y-65047809D01*
X170918095Y-64952571D01*
X170870476Y-64904952D01*
X170775238Y-64857333D01*
X170584761Y-64857333D01*
X170489523Y-64904952D01*
X170441904Y-64952571D01*
X170394285Y-65047809D01*
G04 #@! TO.C,R8*
X141422380Y-75604666D02*
X140946190Y-75938000D01*
X141422380Y-76176095D02*
X140422380Y-76176095D01*
X140422380Y-75795142D01*
X140470000Y-75699904D01*
X140517619Y-75652285D01*
X140612857Y-75604666D01*
X140755714Y-75604666D01*
X140850952Y-75652285D01*
X140898571Y-75699904D01*
X140946190Y-75795142D01*
X140946190Y-76176095D01*
X140850952Y-75033238D02*
X140803333Y-75128476D01*
X140755714Y-75176095D01*
X140660476Y-75223714D01*
X140612857Y-75223714D01*
X140517619Y-75176095D01*
X140470000Y-75128476D01*
X140422380Y-75033238D01*
X140422380Y-74842761D01*
X140470000Y-74747523D01*
X140517619Y-74699904D01*
X140612857Y-74652285D01*
X140660476Y-74652285D01*
X140755714Y-74699904D01*
X140803333Y-74747523D01*
X140850952Y-74842761D01*
X140850952Y-75033238D01*
X140898571Y-75128476D01*
X140946190Y-75176095D01*
X141041428Y-75223714D01*
X141231904Y-75223714D01*
X141327142Y-75176095D01*
X141374761Y-75128476D01*
X141422380Y-75033238D01*
X141422380Y-74842761D01*
X141374761Y-74747523D01*
X141327142Y-74699904D01*
X141231904Y-74652285D01*
X141041428Y-74652285D01*
X140946190Y-74699904D01*
X140898571Y-74747523D01*
X140850952Y-74842761D01*
G04 #@! TO.C,R11*
X165727142Y-74238380D02*
X165393809Y-73762190D01*
X165155714Y-74238380D02*
X165155714Y-73238380D01*
X165536666Y-73238380D01*
X165631904Y-73286000D01*
X165679523Y-73333619D01*
X165727142Y-73428857D01*
X165727142Y-73571714D01*
X165679523Y-73666952D01*
X165631904Y-73714571D01*
X165536666Y-73762190D01*
X165155714Y-73762190D01*
X166679523Y-74238380D02*
X166108095Y-74238380D01*
X166393809Y-74238380D02*
X166393809Y-73238380D01*
X166298571Y-73381238D01*
X166203333Y-73476476D01*
X166108095Y-73524095D01*
X167631904Y-74238380D02*
X167060476Y-74238380D01*
X167346190Y-74238380D02*
X167346190Y-73238380D01*
X167250952Y-73381238D01*
X167155714Y-73476476D01*
X167060476Y-73524095D01*
G04 #@! TO.C,R12*
X139565142Y-91512380D02*
X139231809Y-91036190D01*
X138993714Y-91512380D02*
X138993714Y-90512380D01*
X139374666Y-90512380D01*
X139469904Y-90560000D01*
X139517523Y-90607619D01*
X139565142Y-90702857D01*
X139565142Y-90845714D01*
X139517523Y-90940952D01*
X139469904Y-90988571D01*
X139374666Y-91036190D01*
X138993714Y-91036190D01*
X140517523Y-91512380D02*
X139946095Y-91512380D01*
X140231809Y-91512380D02*
X140231809Y-90512380D01*
X140136571Y-90655238D01*
X140041333Y-90750476D01*
X139946095Y-90798095D01*
X140898476Y-90607619D02*
X140946095Y-90560000D01*
X141041333Y-90512380D01*
X141279428Y-90512380D01*
X141374666Y-90560000D01*
X141422285Y-90607619D01*
X141469904Y-90702857D01*
X141469904Y-90798095D01*
X141422285Y-90940952D01*
X140850857Y-91512380D01*
X141469904Y-91512380D01*
G04 #@! TO.C,R16*
X155821142Y-73604380D02*
X155487809Y-73128190D01*
X155249714Y-73604380D02*
X155249714Y-72604380D01*
X155630666Y-72604380D01*
X155725904Y-72652000D01*
X155773523Y-72699619D01*
X155821142Y-72794857D01*
X155821142Y-72937714D01*
X155773523Y-73032952D01*
X155725904Y-73080571D01*
X155630666Y-73128190D01*
X155249714Y-73128190D01*
X156773523Y-73604380D02*
X156202095Y-73604380D01*
X156487809Y-73604380D02*
X156487809Y-72604380D01*
X156392571Y-72747238D01*
X156297333Y-72842476D01*
X156202095Y-72890095D01*
X157630666Y-72604380D02*
X157440190Y-72604380D01*
X157344952Y-72652000D01*
X157297333Y-72699619D01*
X157202095Y-72842476D01*
X157154476Y-73032952D01*
X157154476Y-73413904D01*
X157202095Y-73509142D01*
X157249714Y-73556761D01*
X157344952Y-73604380D01*
X157535428Y-73604380D01*
X157630666Y-73556761D01*
X157678285Y-73509142D01*
X157725904Y-73413904D01*
X157725904Y-73175809D01*
X157678285Y-73080571D01*
X157630666Y-73032952D01*
X157535428Y-72985333D01*
X157344952Y-72985333D01*
X157249714Y-73032952D01*
X157202095Y-73080571D01*
X157154476Y-73175809D01*
G04 #@! TO.C,U2*
X141732095Y-111212380D02*
X141732095Y-112021904D01*
X141779714Y-112117142D01*
X141827333Y-112164761D01*
X141922571Y-112212380D01*
X142113047Y-112212380D01*
X142208285Y-112164761D01*
X142255904Y-112117142D01*
X142303523Y-112021904D01*
X142303523Y-111212380D01*
X142732095Y-111307619D02*
X142779714Y-111260000D01*
X142874952Y-111212380D01*
X143113047Y-111212380D01*
X143208285Y-111260000D01*
X143255904Y-111307619D01*
X143303523Y-111402857D01*
X143303523Y-111498095D01*
X143255904Y-111640952D01*
X142684476Y-112212380D01*
X143303523Y-112212380D01*
G04 #@! TO.C,Y1*
X150145809Y-90654190D02*
X150145809Y-91130380D01*
X149812476Y-90130380D02*
X150145809Y-90654190D01*
X150479142Y-90130380D01*
X151336285Y-91130380D02*
X150764857Y-91130380D01*
X151050571Y-91130380D02*
X151050571Y-90130380D01*
X150955333Y-90273238D01*
X150860095Y-90368476D01*
X150764857Y-90416095D01*
G04 #@! TO.C,R13*
X168092380Y-82176857D02*
X167616190Y-82510190D01*
X168092380Y-82748285D02*
X167092380Y-82748285D01*
X167092380Y-82367333D01*
X167140000Y-82272095D01*
X167187619Y-82224476D01*
X167282857Y-82176857D01*
X167425714Y-82176857D01*
X167520952Y-82224476D01*
X167568571Y-82272095D01*
X167616190Y-82367333D01*
X167616190Y-82748285D01*
X168092380Y-81224476D02*
X168092380Y-81795904D01*
X168092380Y-81510190D02*
X167092380Y-81510190D01*
X167235238Y-81605428D01*
X167330476Y-81700666D01*
X167378095Y-81795904D01*
X167092380Y-80891142D02*
X167092380Y-80272095D01*
X167473333Y-80605428D01*
X167473333Y-80462571D01*
X167520952Y-80367333D01*
X167568571Y-80319714D01*
X167663809Y-80272095D01*
X167901904Y-80272095D01*
X167997142Y-80319714D01*
X168044761Y-80367333D01*
X168092380Y-80462571D01*
X168092380Y-80748285D01*
X168044761Y-80843523D01*
X167997142Y-80891142D01*
G04 #@! TO.C,R14*
X165806380Y-82176857D02*
X165330190Y-82510190D01*
X165806380Y-82748285D02*
X164806380Y-82748285D01*
X164806380Y-82367333D01*
X164854000Y-82272095D01*
X164901619Y-82224476D01*
X164996857Y-82176857D01*
X165139714Y-82176857D01*
X165234952Y-82224476D01*
X165282571Y-82272095D01*
X165330190Y-82367333D01*
X165330190Y-82748285D01*
X165806380Y-81224476D02*
X165806380Y-81795904D01*
X165806380Y-81510190D02*
X164806380Y-81510190D01*
X164949238Y-81605428D01*
X165044476Y-81700666D01*
X165092095Y-81795904D01*
X165139714Y-80367333D02*
X165806380Y-80367333D01*
X164758761Y-80605428D02*
X165473047Y-80843523D01*
X165473047Y-80224476D01*
G04 #@! TO.C,R15*
X162171142Y-80462380D02*
X161837809Y-79986190D01*
X161599714Y-80462380D02*
X161599714Y-79462380D01*
X161980666Y-79462380D01*
X162075904Y-79510000D01*
X162123523Y-79557619D01*
X162171142Y-79652857D01*
X162171142Y-79795714D01*
X162123523Y-79890952D01*
X162075904Y-79938571D01*
X161980666Y-79986190D01*
X161599714Y-79986190D01*
X163123523Y-80462380D02*
X162552095Y-80462380D01*
X162837809Y-80462380D02*
X162837809Y-79462380D01*
X162742571Y-79605238D01*
X162647333Y-79700476D01*
X162552095Y-79748095D01*
X164028285Y-79462380D02*
X163552095Y-79462380D01*
X163504476Y-79938571D01*
X163552095Y-79890952D01*
X163647333Y-79843333D01*
X163885428Y-79843333D01*
X163980666Y-79890952D01*
X164028285Y-79938571D01*
X164075904Y-80033809D01*
X164075904Y-80271904D01*
X164028285Y-80367142D01*
X163980666Y-80414761D01*
X163885428Y-80462380D01*
X163647333Y-80462380D01*
X163552095Y-80414761D01*
X163504476Y-80367142D01*
G04 #@! TO.C,R17*
X165424380Y-99956857D02*
X164948190Y-100290190D01*
X165424380Y-100528285D02*
X164424380Y-100528285D01*
X164424380Y-100147333D01*
X164472000Y-100052095D01*
X164519619Y-100004476D01*
X164614857Y-99956857D01*
X164757714Y-99956857D01*
X164852952Y-100004476D01*
X164900571Y-100052095D01*
X164948190Y-100147333D01*
X164948190Y-100528285D01*
X165424380Y-99004476D02*
X165424380Y-99575904D01*
X165424380Y-99290190D02*
X164424380Y-99290190D01*
X164567238Y-99385428D01*
X164662476Y-99480666D01*
X164710095Y-99575904D01*
X164424380Y-98671142D02*
X164424380Y-98004476D01*
X165424380Y-98433047D01*
G04 #@! TO.C,C3*
X137009142Y-109386666D02*
X137056761Y-109434285D01*
X137104380Y-109577142D01*
X137104380Y-109672380D01*
X137056761Y-109815238D01*
X136961523Y-109910476D01*
X136866285Y-109958095D01*
X136675809Y-110005714D01*
X136532952Y-110005714D01*
X136342476Y-109958095D01*
X136247238Y-109910476D01*
X136152000Y-109815238D01*
X136104380Y-109672380D01*
X136104380Y-109577142D01*
X136152000Y-109434285D01*
X136199619Y-109386666D01*
X136104380Y-109053333D02*
X136104380Y-108434285D01*
X136485333Y-108767619D01*
X136485333Y-108624761D01*
X136532952Y-108529523D01*
X136580571Y-108481904D01*
X136675809Y-108434285D01*
X136913904Y-108434285D01*
X137009142Y-108481904D01*
X137056761Y-108529523D01*
X137104380Y-108624761D01*
X137104380Y-108910476D01*
X137056761Y-109005714D01*
X137009142Y-109053333D01*
G04 #@! TO.C,C7*
X151475333Y-100108142D02*
X151427714Y-100155761D01*
X151284857Y-100203380D01*
X151189619Y-100203380D01*
X151046761Y-100155761D01*
X150951523Y-100060523D01*
X150903904Y-99965285D01*
X150856285Y-99774809D01*
X150856285Y-99631952D01*
X150903904Y-99441476D01*
X150951523Y-99346238D01*
X151046761Y-99251000D01*
X151189619Y-99203380D01*
X151284857Y-99203380D01*
X151427714Y-99251000D01*
X151475333Y-99298619D01*
X151808666Y-99203380D02*
X152475333Y-99203380D01*
X152046761Y-100203380D01*
G04 #@! TO.C,C8*
X152487333Y-93829142D02*
X152439714Y-93876761D01*
X152296857Y-93924380D01*
X152201619Y-93924380D01*
X152058761Y-93876761D01*
X151963523Y-93781523D01*
X151915904Y-93686285D01*
X151868285Y-93495809D01*
X151868285Y-93352952D01*
X151915904Y-93162476D01*
X151963523Y-93067238D01*
X152058761Y-92972000D01*
X152201619Y-92924380D01*
X152296857Y-92924380D01*
X152439714Y-92972000D01*
X152487333Y-93019619D01*
X153058761Y-93352952D02*
X152963523Y-93305333D01*
X152915904Y-93257714D01*
X152868285Y-93162476D01*
X152868285Y-93114857D01*
X152915904Y-93019619D01*
X152963523Y-92972000D01*
X153058761Y-92924380D01*
X153249238Y-92924380D01*
X153344476Y-92972000D01*
X153392095Y-93019619D01*
X153439714Y-93114857D01*
X153439714Y-93162476D01*
X153392095Y-93257714D01*
X153344476Y-93305333D01*
X153249238Y-93352952D01*
X153058761Y-93352952D01*
X152963523Y-93400571D01*
X152915904Y-93448190D01*
X152868285Y-93543428D01*
X152868285Y-93733904D01*
X152915904Y-93829142D01*
X152963523Y-93876761D01*
X153058761Y-93924380D01*
X153249238Y-93924380D01*
X153344476Y-93876761D01*
X153392095Y-93829142D01*
X153439714Y-93733904D01*
X153439714Y-93543428D01*
X153392095Y-93448190D01*
X153344476Y-93400571D01*
X153249238Y-93352952D01*
G04 #@! TO.C,C9*
X144375142Y-59856666D02*
X144422761Y-59904285D01*
X144470380Y-60047142D01*
X144470380Y-60142380D01*
X144422761Y-60285238D01*
X144327523Y-60380476D01*
X144232285Y-60428095D01*
X144041809Y-60475714D01*
X143898952Y-60475714D01*
X143708476Y-60428095D01*
X143613238Y-60380476D01*
X143518000Y-60285238D01*
X143470380Y-60142380D01*
X143470380Y-60047142D01*
X143518000Y-59904285D01*
X143565619Y-59856666D01*
X144470380Y-59380476D02*
X144470380Y-59190000D01*
X144422761Y-59094761D01*
X144375142Y-59047142D01*
X144232285Y-58951904D01*
X144041809Y-58904285D01*
X143660857Y-58904285D01*
X143565619Y-58951904D01*
X143518000Y-58999523D01*
X143470380Y-59094761D01*
X143470380Y-59285238D01*
X143518000Y-59380476D01*
X143565619Y-59428095D01*
X143660857Y-59475714D01*
X143898952Y-59475714D01*
X143994190Y-59428095D01*
X144041809Y-59380476D01*
X144089428Y-59285238D01*
X144089428Y-59094761D01*
X144041809Y-58999523D01*
X143994190Y-58951904D01*
X143898952Y-58904285D01*
G04 #@! TO.C,D1*
X130246380Y-102338095D02*
X129246380Y-102338095D01*
X129246380Y-102100000D01*
X129294000Y-101957142D01*
X129389238Y-101861904D01*
X129484476Y-101814285D01*
X129674952Y-101766666D01*
X129817809Y-101766666D01*
X130008285Y-101814285D01*
X130103523Y-101861904D01*
X130198761Y-101957142D01*
X130246380Y-102100000D01*
X130246380Y-102338095D01*
X130246380Y-100814285D02*
X130246380Y-101385714D01*
X130246380Y-101100000D02*
X129246380Y-101100000D01*
X129389238Y-101195238D01*
X129484476Y-101290476D01*
X129532095Y-101385714D01*
G04 #@! TO.C,D7*
X132314380Y-95688095D02*
X131314380Y-95688095D01*
X131314380Y-95450000D01*
X131362000Y-95307142D01*
X131457238Y-95211904D01*
X131552476Y-95164285D01*
X131742952Y-95116666D01*
X131885809Y-95116666D01*
X132076285Y-95164285D01*
X132171523Y-95211904D01*
X132266761Y-95307142D01*
X132314380Y-95450000D01*
X132314380Y-95688095D01*
X131314380Y-94783333D02*
X131314380Y-94116666D01*
X132314380Y-94545238D01*
G04 #@! TO.C,J4*
X135302666Y-82510380D02*
X135302666Y-83224666D01*
X135255047Y-83367523D01*
X135159809Y-83462761D01*
X135016952Y-83510380D01*
X134921714Y-83510380D01*
X136207428Y-82843714D02*
X136207428Y-83510380D01*
X135969333Y-82462761D02*
X135731238Y-83177047D01*
X136350285Y-83177047D01*
G04 #@! TO.C,Q1*
X156368761Y-71159619D02*
X156273523Y-71112000D01*
X156178285Y-71016761D01*
X156035428Y-70873904D01*
X155940190Y-70826285D01*
X155844952Y-70826285D01*
X155892571Y-71064380D02*
X155797333Y-71016761D01*
X155702095Y-70921523D01*
X155654476Y-70731047D01*
X155654476Y-70397714D01*
X155702095Y-70207238D01*
X155797333Y-70112000D01*
X155892571Y-70064380D01*
X156083047Y-70064380D01*
X156178285Y-70112000D01*
X156273523Y-70207238D01*
X156321142Y-70397714D01*
X156321142Y-70731047D01*
X156273523Y-70921523D01*
X156178285Y-71016761D01*
X156083047Y-71064380D01*
X155892571Y-71064380D01*
X157273523Y-71064380D02*
X156702095Y-71064380D01*
X156987809Y-71064380D02*
X156987809Y-70064380D01*
X156892571Y-70207238D01*
X156797333Y-70302476D01*
X156702095Y-70350095D01*
G04 #@! TO.C,Q2*
X162464761Y-87883619D02*
X162369523Y-87836000D01*
X162274285Y-87740761D01*
X162131428Y-87597904D01*
X162036190Y-87550285D01*
X161940952Y-87550285D01*
X161988571Y-87788380D02*
X161893333Y-87740761D01*
X161798095Y-87645523D01*
X161750476Y-87455047D01*
X161750476Y-87121714D01*
X161798095Y-86931238D01*
X161893333Y-86836000D01*
X161988571Y-86788380D01*
X162179047Y-86788380D01*
X162274285Y-86836000D01*
X162369523Y-86931238D01*
X162417142Y-87121714D01*
X162417142Y-87455047D01*
X162369523Y-87645523D01*
X162274285Y-87740761D01*
X162179047Y-87788380D01*
X161988571Y-87788380D01*
X162798095Y-86883619D02*
X162845714Y-86836000D01*
X162940952Y-86788380D01*
X163179047Y-86788380D01*
X163274285Y-86836000D01*
X163321904Y-86883619D01*
X163369523Y-86978857D01*
X163369523Y-87074095D01*
X163321904Y-87216952D01*
X162750476Y-87788380D01*
X163369523Y-87788380D01*
G04 #@! TO.C,Q5*
X146970761Y-60785619D02*
X146875523Y-60738000D01*
X146780285Y-60642761D01*
X146637428Y-60499904D01*
X146542190Y-60452285D01*
X146446952Y-60452285D01*
X146494571Y-60690380D02*
X146399333Y-60642761D01*
X146304095Y-60547523D01*
X146256476Y-60357047D01*
X146256476Y-60023714D01*
X146304095Y-59833238D01*
X146399333Y-59738000D01*
X146494571Y-59690380D01*
X146685047Y-59690380D01*
X146780285Y-59738000D01*
X146875523Y-59833238D01*
X146923142Y-60023714D01*
X146923142Y-60357047D01*
X146875523Y-60547523D01*
X146780285Y-60642761D01*
X146685047Y-60690380D01*
X146494571Y-60690380D01*
X147827904Y-59690380D02*
X147351714Y-59690380D01*
X147304095Y-60166571D01*
X147351714Y-60118952D01*
X147446952Y-60071333D01*
X147685047Y-60071333D01*
X147780285Y-60118952D01*
X147827904Y-60166571D01*
X147875523Y-60261809D01*
X147875523Y-60499904D01*
X147827904Y-60595142D01*
X147780285Y-60642761D01*
X147685047Y-60690380D01*
X147446952Y-60690380D01*
X147351714Y-60642761D01*
X147304095Y-60595142D01*
G04 #@! TO.C,R9*
X147010380Y-96178666D02*
X146534190Y-96512000D01*
X147010380Y-96750095D02*
X146010380Y-96750095D01*
X146010380Y-96369142D01*
X146058000Y-96273904D01*
X146105619Y-96226285D01*
X146200857Y-96178666D01*
X146343714Y-96178666D01*
X146438952Y-96226285D01*
X146486571Y-96273904D01*
X146534190Y-96369142D01*
X146534190Y-96750095D01*
X147010380Y-95702476D02*
X147010380Y-95512000D01*
X146962761Y-95416761D01*
X146915142Y-95369142D01*
X146772285Y-95273904D01*
X146581809Y-95226285D01*
X146200857Y-95226285D01*
X146105619Y-95273904D01*
X146058000Y-95321523D01*
X146010380Y-95416761D01*
X146010380Y-95607238D01*
X146058000Y-95702476D01*
X146105619Y-95750095D01*
X146200857Y-95797714D01*
X146438952Y-95797714D01*
X146534190Y-95750095D01*
X146581809Y-95702476D01*
X146629428Y-95607238D01*
X146629428Y-95416761D01*
X146581809Y-95321523D01*
X146534190Y-95273904D01*
X146438952Y-95226285D01*
G04 #@! TO.C,R19*
X161996380Y-69476857D02*
X161520190Y-69810190D01*
X161996380Y-70048285D02*
X160996380Y-70048285D01*
X160996380Y-69667333D01*
X161044000Y-69572095D01*
X161091619Y-69524476D01*
X161186857Y-69476857D01*
X161329714Y-69476857D01*
X161424952Y-69524476D01*
X161472571Y-69572095D01*
X161520190Y-69667333D01*
X161520190Y-70048285D01*
X161996380Y-68524476D02*
X161996380Y-69095904D01*
X161996380Y-68810190D02*
X160996380Y-68810190D01*
X161139238Y-68905428D01*
X161234476Y-69000666D01*
X161282095Y-69095904D01*
X161996380Y-68048285D02*
X161996380Y-67857809D01*
X161948761Y-67762571D01*
X161901142Y-67714952D01*
X161758285Y-67619714D01*
X161567809Y-67572095D01*
X161186857Y-67572095D01*
X161091619Y-67619714D01*
X161044000Y-67667333D01*
X160996380Y-67762571D01*
X160996380Y-67953047D01*
X161044000Y-68048285D01*
X161091619Y-68095904D01*
X161186857Y-68143523D01*
X161424952Y-68143523D01*
X161520190Y-68095904D01*
X161567809Y-68048285D01*
X161615428Y-67953047D01*
X161615428Y-67762571D01*
X161567809Y-67667333D01*
X161520190Y-67619714D01*
X161424952Y-67572095D01*
G04 #@! TO.C,R21*
X158820380Y-99956857D02*
X158344190Y-100290190D01*
X158820380Y-100528285D02*
X157820380Y-100528285D01*
X157820380Y-100147333D01*
X157868000Y-100052095D01*
X157915619Y-100004476D01*
X158010857Y-99956857D01*
X158153714Y-99956857D01*
X158248952Y-100004476D01*
X158296571Y-100052095D01*
X158344190Y-100147333D01*
X158344190Y-100528285D01*
X157915619Y-99575904D02*
X157868000Y-99528285D01*
X157820380Y-99433047D01*
X157820380Y-99194952D01*
X157868000Y-99099714D01*
X157915619Y-99052095D01*
X158010857Y-99004476D01*
X158106095Y-99004476D01*
X158248952Y-99052095D01*
X158820380Y-99623523D01*
X158820380Y-99004476D01*
X158820380Y-98052095D02*
X158820380Y-98623523D01*
X158820380Y-98337809D02*
X157820380Y-98337809D01*
X157963238Y-98433047D01*
X158058476Y-98528285D01*
X158106095Y-98623523D01*
G04 #@! TO.C,R22*
X142438380Y-60332857D02*
X141962190Y-60666190D01*
X142438380Y-60904285D02*
X141438380Y-60904285D01*
X141438380Y-60523333D01*
X141486000Y-60428095D01*
X141533619Y-60380476D01*
X141628857Y-60332857D01*
X141771714Y-60332857D01*
X141866952Y-60380476D01*
X141914571Y-60428095D01*
X141962190Y-60523333D01*
X141962190Y-60904285D01*
X141533619Y-59951904D02*
X141486000Y-59904285D01*
X141438380Y-59809047D01*
X141438380Y-59570952D01*
X141486000Y-59475714D01*
X141533619Y-59428095D01*
X141628857Y-59380476D01*
X141724095Y-59380476D01*
X141866952Y-59428095D01*
X142438380Y-59999523D01*
X142438380Y-59380476D01*
X141533619Y-58999523D02*
X141486000Y-58951904D01*
X141438380Y-58856666D01*
X141438380Y-58618571D01*
X141486000Y-58523333D01*
X141533619Y-58475714D01*
X141628857Y-58428095D01*
X141724095Y-58428095D01*
X141866952Y-58475714D01*
X142438380Y-59047142D01*
X142438380Y-58428095D01*
G04 #@! TO.C,R23*
X161868380Y-99956857D02*
X161392190Y-100290190D01*
X161868380Y-100528285D02*
X160868380Y-100528285D01*
X160868380Y-100147333D01*
X160916000Y-100052095D01*
X160963619Y-100004476D01*
X161058857Y-99956857D01*
X161201714Y-99956857D01*
X161296952Y-100004476D01*
X161344571Y-100052095D01*
X161392190Y-100147333D01*
X161392190Y-100528285D01*
X160963619Y-99575904D02*
X160916000Y-99528285D01*
X160868380Y-99433047D01*
X160868380Y-99194952D01*
X160916000Y-99099714D01*
X160963619Y-99052095D01*
X161058857Y-99004476D01*
X161154095Y-99004476D01*
X161296952Y-99052095D01*
X161868380Y-99623523D01*
X161868380Y-99004476D01*
X160868380Y-98671142D02*
X160868380Y-98052095D01*
X161249333Y-98385428D01*
X161249333Y-98242571D01*
X161296952Y-98147333D01*
X161344571Y-98099714D01*
X161439809Y-98052095D01*
X161677904Y-98052095D01*
X161773142Y-98099714D01*
X161820761Y-98147333D01*
X161868380Y-98242571D01*
X161868380Y-98528285D01*
X161820761Y-98623523D01*
X161773142Y-98671142D01*
G04 #@! TO.C,R24*
X150312380Y-61094857D02*
X149836190Y-61428190D01*
X150312380Y-61666285D02*
X149312380Y-61666285D01*
X149312380Y-61285333D01*
X149360000Y-61190095D01*
X149407619Y-61142476D01*
X149502857Y-61094857D01*
X149645714Y-61094857D01*
X149740952Y-61142476D01*
X149788571Y-61190095D01*
X149836190Y-61285333D01*
X149836190Y-61666285D01*
X149407619Y-60713904D02*
X149360000Y-60666285D01*
X149312380Y-60571047D01*
X149312380Y-60332952D01*
X149360000Y-60237714D01*
X149407619Y-60190095D01*
X149502857Y-60142476D01*
X149598095Y-60142476D01*
X149740952Y-60190095D01*
X150312380Y-60761523D01*
X150312380Y-60142476D01*
X149645714Y-59285333D02*
X150312380Y-59285333D01*
X149264761Y-59523428D02*
X149979047Y-59761523D01*
X149979047Y-59142476D01*
G04 #@! TO.C,U1*
X135382095Y-90836380D02*
X135382095Y-91645904D01*
X135429714Y-91741142D01*
X135477333Y-91788761D01*
X135572571Y-91836380D01*
X135763047Y-91836380D01*
X135858285Y-91788761D01*
X135905904Y-91741142D01*
X135953523Y-91645904D01*
X135953523Y-90836380D01*
X136953523Y-91836380D02*
X136382095Y-91836380D01*
X136667809Y-91836380D02*
X136667809Y-90836380D01*
X136572571Y-90979238D01*
X136477333Y-91074476D01*
X136382095Y-91122095D01*
G04 #@! TO.C,U3*
X164338095Y-66000380D02*
X164338095Y-66809904D01*
X164385714Y-66905142D01*
X164433333Y-66952761D01*
X164528571Y-67000380D01*
X164719047Y-67000380D01*
X164814285Y-66952761D01*
X164861904Y-66905142D01*
X164909523Y-66809904D01*
X164909523Y-66000380D01*
X165290476Y-66000380D02*
X165909523Y-66000380D01*
X165576190Y-66381333D01*
X165719047Y-66381333D01*
X165814285Y-66428952D01*
X165861904Y-66476571D01*
X165909523Y-66571809D01*
X165909523Y-66809904D01*
X165861904Y-66905142D01*
X165814285Y-66952761D01*
X165719047Y-67000380D01*
X165433333Y-67000380D01*
X165338095Y-66952761D01*
X165290476Y-66905142D01*
G04 #@! TO.C,C1*
X158075333Y-75819142D02*
X158027714Y-75866761D01*
X157884857Y-75914380D01*
X157789619Y-75914380D01*
X157646761Y-75866761D01*
X157551523Y-75771523D01*
X157503904Y-75676285D01*
X157456285Y-75485809D01*
X157456285Y-75342952D01*
X157503904Y-75152476D01*
X157551523Y-75057238D01*
X157646761Y-74962000D01*
X157789619Y-74914380D01*
X157884857Y-74914380D01*
X158027714Y-74962000D01*
X158075333Y-75009619D01*
X159027714Y-75914380D02*
X158456285Y-75914380D01*
X158742000Y-75914380D02*
X158742000Y-74914380D01*
X158646761Y-75057238D01*
X158551523Y-75152476D01*
X158456285Y-75200095D01*
G04 #@! TO.C,C2*
X158075333Y-81129142D02*
X158027714Y-81176761D01*
X157884857Y-81224380D01*
X157789619Y-81224380D01*
X157646761Y-81176761D01*
X157551523Y-81081523D01*
X157503904Y-80986285D01*
X157456285Y-80795809D01*
X157456285Y-80652952D01*
X157503904Y-80462476D01*
X157551523Y-80367238D01*
X157646761Y-80272000D01*
X157789619Y-80224380D01*
X157884857Y-80224380D01*
X158027714Y-80272000D01*
X158075333Y-80319619D01*
X158456285Y-80319619D02*
X158503904Y-80272000D01*
X158599142Y-80224380D01*
X158837238Y-80224380D01*
X158932476Y-80272000D01*
X158980095Y-80319619D01*
X159027714Y-80414857D01*
X159027714Y-80510095D01*
X158980095Y-80652952D01*
X158408666Y-81224380D01*
X159027714Y-81224380D01*
G04 #@! TO.C,D3*
X165631904Y-90622380D02*
X165631904Y-89622380D01*
X165870000Y-89622380D01*
X166012857Y-89670000D01*
X166108095Y-89765238D01*
X166155714Y-89860476D01*
X166203333Y-90050952D01*
X166203333Y-90193809D01*
X166155714Y-90384285D01*
X166108095Y-90479523D01*
X166012857Y-90574761D01*
X165870000Y-90622380D01*
X165631904Y-90622380D01*
X166536666Y-89622380D02*
X167155714Y-89622380D01*
X166822380Y-90003333D01*
X166965238Y-90003333D01*
X167060476Y-90050952D01*
X167108095Y-90098571D01*
X167155714Y-90193809D01*
X167155714Y-90431904D01*
X167108095Y-90527142D01*
X167060476Y-90574761D01*
X166965238Y-90622380D01*
X166679523Y-90622380D01*
X166584285Y-90574761D01*
X166536666Y-90527142D01*
G04 #@! TO.C,D4*
X165552380Y-104878095D02*
X164552380Y-104878095D01*
X164552380Y-104640000D01*
X164600000Y-104497142D01*
X164695238Y-104401904D01*
X164790476Y-104354285D01*
X164980952Y-104306666D01*
X165123809Y-104306666D01*
X165314285Y-104354285D01*
X165409523Y-104401904D01*
X165504761Y-104497142D01*
X165552380Y-104640000D01*
X165552380Y-104878095D01*
X164885714Y-103449523D02*
X165552380Y-103449523D01*
X164504761Y-103687619D02*
X165219047Y-103925714D01*
X165219047Y-103306666D01*
G04 #@! TO.C,D5*
X158694380Y-104878095D02*
X157694380Y-104878095D01*
X157694380Y-104640000D01*
X157742000Y-104497142D01*
X157837238Y-104401904D01*
X157932476Y-104354285D01*
X158122952Y-104306666D01*
X158265809Y-104306666D01*
X158456285Y-104354285D01*
X158551523Y-104401904D01*
X158646761Y-104497142D01*
X158694380Y-104640000D01*
X158694380Y-104878095D01*
X157694380Y-103401904D02*
X157694380Y-103878095D01*
X158170571Y-103925714D01*
X158122952Y-103878095D01*
X158075333Y-103782857D01*
X158075333Y-103544761D01*
X158122952Y-103449523D01*
X158170571Y-103401904D01*
X158265809Y-103354285D01*
X158503904Y-103354285D01*
X158599142Y-103401904D01*
X158646761Y-103449523D01*
X158694380Y-103544761D01*
X158694380Y-103782857D01*
X158646761Y-103878095D01*
X158599142Y-103925714D01*
G04 #@! TO.C,R4*
X139787333Y-114624380D02*
X139454000Y-114148190D01*
X139215904Y-114624380D02*
X139215904Y-113624380D01*
X139596857Y-113624380D01*
X139692095Y-113672000D01*
X139739714Y-113719619D01*
X139787333Y-113814857D01*
X139787333Y-113957714D01*
X139739714Y-114052952D01*
X139692095Y-114100571D01*
X139596857Y-114148190D01*
X139215904Y-114148190D01*
X140644476Y-113957714D02*
X140644476Y-114624380D01*
X140406380Y-113576761D02*
X140168285Y-114291047D01*
X140787333Y-114291047D01*
G04 #@! TO.C,R5*
X148534380Y-113450666D02*
X148058190Y-113784000D01*
X148534380Y-114022095D02*
X147534380Y-114022095D01*
X147534380Y-113641142D01*
X147582000Y-113545904D01*
X147629619Y-113498285D01*
X147724857Y-113450666D01*
X147867714Y-113450666D01*
X147962952Y-113498285D01*
X148010571Y-113545904D01*
X148058190Y-113641142D01*
X148058190Y-114022095D01*
X147534380Y-112545904D02*
X147534380Y-113022095D01*
X148010571Y-113069714D01*
X147962952Y-113022095D01*
X147915333Y-112926857D01*
X147915333Y-112688761D01*
X147962952Y-112593523D01*
X148010571Y-112545904D01*
X148105809Y-112498285D01*
X148343904Y-112498285D01*
X148439142Y-112545904D01*
X148486761Y-112593523D01*
X148534380Y-112688761D01*
X148534380Y-112926857D01*
X148486761Y-113022095D01*
X148439142Y-113069714D01*
G04 #@! TO.C,R7*
X130500380Y-90016666D02*
X130024190Y-90350000D01*
X130500380Y-90588095D02*
X129500380Y-90588095D01*
X129500380Y-90207142D01*
X129548000Y-90111904D01*
X129595619Y-90064285D01*
X129690857Y-90016666D01*
X129833714Y-90016666D01*
X129928952Y-90064285D01*
X129976571Y-90111904D01*
X130024190Y-90207142D01*
X130024190Y-90588095D01*
X129500380Y-89683333D02*
X129500380Y-89016666D01*
X130500380Y-89445238D01*
G04 #@! TD*
M02*
