G04 #@! TF.GenerationSoftware,KiCad,Pcbnew,5.0.0-fee4fd1~66~ubuntu18.04.1*
G04 #@! TF.CreationDate,2019-02-20T20:20:33-05:00*
G04 #@! TF.ProjectId,REV 2,52455620322E6B696361645F70636200,rev?*
G04 #@! TF.SameCoordinates,Original*
G04 #@! TF.FileFunction,Copper,L1,Top,Signal*
G04 #@! TF.FilePolarity,Positive*
%FSLAX46Y46*%
G04 Gerber Fmt 4.6, Leading zero omitted, Abs format (unit mm)*
G04 Created by KiCad (PCBNEW 5.0.0-fee4fd1~66~ubuntu18.04.1) date Wed Feb 20 20:20:33 2019*
%MOMM*%
%LPD*%
G01*
G04 APERTURE LIST*
G04 #@! TA.AperFunction,ComponentPad*
%ADD10C,1.300000*%
G04 #@! TD*
G04 #@! TA.AperFunction,ComponentPad*
%ADD11C,2.000000*%
G04 #@! TD*
G04 #@! TA.AperFunction,ComponentPad*
%ADD12C,3.000000*%
G04 #@! TD*
G04 #@! TA.AperFunction,ComponentPad*
%ADD13C,2.750000*%
G04 #@! TD*
G04 #@! TA.AperFunction,ComponentPad*
%ADD14C,1.500000*%
G04 #@! TD*
G04 #@! TA.AperFunction,ComponentPad*
%ADD15C,1.600000*%
G04 #@! TD*
G04 #@! TA.AperFunction,SMDPad,CuDef*
%ADD16R,1.200000X1.200000*%
G04 #@! TD*
G04 #@! TA.AperFunction,ComponentPad*
%ADD17C,1.397000*%
G04 #@! TD*
G04 #@! TA.AperFunction,ComponentPad*
%ADD18C,1.981000*%
G04 #@! TD*
G04 #@! TA.AperFunction,ComponentPad*
%ADD19C,1.800000*%
G04 #@! TD*
G04 #@! TA.AperFunction,SMDPad,CuDef*
%ADD20R,0.900000X0.800000*%
G04 #@! TD*
G04 #@! TA.AperFunction,SMDPad,CuDef*
%ADD21R,0.700000X1.300000*%
G04 #@! TD*
G04 #@! TA.AperFunction,SMDPad,CuDef*
%ADD22R,1.300000X0.700000*%
G04 #@! TD*
G04 #@! TA.AperFunction,ViaPad*
%ADD23C,0.800000*%
G04 #@! TD*
G04 #@! TA.AperFunction,ViaPad*
%ADD24C,0.609600*%
G04 #@! TD*
G04 #@! TA.AperFunction,Conductor*
%ADD25C,0.152400*%
G04 #@! TD*
G04 #@! TA.AperFunction,Conductor*
%ADD26C,0.254000*%
G04 #@! TD*
G04 #@! TA.AperFunction,Conductor*
%ADD27C,0.762000*%
G04 #@! TD*
G04 APERTURE END LIST*
D10*
G04 #@! TO.P,J3,5*
G04 #@! TO.N,/Brake Switch -*
X143059960Y-39594380D03*
G04 #@! TO.P,J3,3*
G04 #@! TO.N,/BSPD Relay*
X145599960Y-39594380D03*
G04 #@! TO.P,J3,1*
G04 #@! TO.N,GND*
X148139960Y-39594380D03*
G04 #@! TO.P,J3,7*
G04 #@! TO.N,/CAN low*
X140519960Y-39594380D03*
G04 #@! TO.P,J3,2*
G04 #@! TO.N,/12V*
X146869960Y-42134380D03*
G04 #@! TO.P,J3,4*
G04 #@! TO.N,/Brake Switch +*
X144329960Y-42134380D03*
G04 #@! TO.P,J3,6*
G04 #@! TO.N,/CAN high*
X141789960Y-42134380D03*
G04 #@! TO.P,J3,8*
G04 #@! TO.N,/5V*
X139249960Y-42134380D03*
G04 #@! TO.P,J3,9*
G04 #@! TO.N,/MISO*
X137979960Y-39594380D03*
G04 #@! TO.P,J3,10*
G04 #@! TO.N,/MOSI*
X136709960Y-42134380D03*
G04 #@! TO.P,J3,11*
G04 #@! TO.N,/SCK*
X135439960Y-39594380D03*
G04 #@! TO.P,J3,12*
G04 #@! TO.N,/RESET*
X134169960Y-42134380D03*
G04 #@! TO.P,J3,13*
G04 #@! TO.N,/Cooling Pump LSD*
X132899960Y-39594380D03*
G04 #@! TO.P,J3,14*
G04 #@! TO.N,/Brakelight LSD*
X131629960Y-42134380D03*
G04 #@! TO.P,J3,15*
G04 #@! TO.N,/Brake Pressure +*
X130359960Y-39594380D03*
G04 #@! TO.P,J3,16*
G04 #@! TO.N,/Brake Pressure Sense*
X129089960Y-42134380D03*
G04 #@! TO.P,J3,17*
G04 #@! TO.N,/Brake Pressure -*
X127819960Y-39594380D03*
G04 #@! TO.P,J3,18*
G04 #@! TO.N,/BSPD Switch +*
X126549960Y-42134380D03*
G04 #@! TO.P,J3,19*
G04 #@! TO.N,/RJ45 LED1*
X125279960Y-39594380D03*
G04 #@! TO.P,J3,20*
G04 #@! TO.N,/RJ45 LED2*
X124009960Y-42134380D03*
D11*
G04 #@! TO.P,J3,21*
G04 #@! TO.N,N/C*
X149539960Y-41394380D03*
G04 #@! TD*
D12*
G04 #@! TO.P,J1,12*
G04 #@! TO.N,GND*
X36863300Y-28291400D03*
G04 #@! TO.P,J1,23*
X38863300Y-32291400D03*
G04 #@! TO.P,J1,35*
G04 #@! TO.N,/GLVMS_IN*
X36863300Y-36291400D03*
G04 #@! TO.P,J1,11*
G04 #@! TO.N,/12V*
X40863300Y-28291400D03*
G04 #@! TO.P,J1,22*
G04 #@! TO.N,/CAN low*
X42863300Y-32291400D03*
G04 #@! TO.P,J1,34*
G04 #@! TO.N,GND*
X40863300Y-36291400D03*
G04 #@! TO.P,J1,10*
G04 #@! TO.N,/Fuse -> Estop*
X44863300Y-28291400D03*
G04 #@! TO.P,J1,21*
G04 #@! TO.N,/CAN high*
X46863300Y-32291400D03*
G04 #@! TO.P,J1,33*
G04 #@! TO.N,/Cooling Pump*
X44863300Y-36291400D03*
G04 #@! TO.P,J1,9*
G04 #@! TO.N,/Estop -> BSPD*
X48863300Y-28291400D03*
G04 #@! TO.P,J1,32*
G04 #@! TO.N,GND*
X48863300Y-36291400D03*
G04 #@! TO.P,J1,20*
G04 #@! TO.N,/BSPD Switch +*
X50863300Y-32291400D03*
G04 #@! TO.P,J1,8*
G04 #@! TO.N,/BSPD -> IS*
X52863300Y-28291400D03*
G04 #@! TO.P,J1,1*
G04 #@! TO.N,/12V*
X80863300Y-28291400D03*
G04 #@! TO.P,J1,13*
G04 #@! TO.N,/Brake Switch +*
X78863300Y-32291400D03*
G04 #@! TO.P,J1,24*
G04 #@! TO.N,/Brake Switch -*
X80863300Y-36291400D03*
G04 #@! TO.P,J1,2*
G04 #@! TO.N,GND*
X76863300Y-28291400D03*
G04 #@! TO.P,J1,3*
X72863300Y-28291400D03*
G04 #@! TO.P,J1,5*
G04 #@! TO.N,/CAN low*
X64863300Y-28291400D03*
G04 #@! TO.P,J1,4*
G04 #@! TO.N,/CAN high*
X68863300Y-28291400D03*
G04 #@! TO.P,J1,6*
G04 #@! TO.N,/TSMS -> Final Shutdown*
X60863300Y-28291400D03*
G04 #@! TO.P,J1,7*
X56863300Y-28291400D03*
G04 #@! TO.P,J1,19*
G04 #@! TO.N,/5V*
X54863300Y-32291400D03*
G04 #@! TO.P,J1,18*
G04 #@! TO.N,/BSPD Current Sense*
X58863300Y-32291400D03*
G04 #@! TO.P,J1,16*
G04 #@! TO.N,GND*
X66863300Y-32291400D03*
G04 #@! TO.P,J1,17*
G04 #@! TO.N,/12V*
X62863300Y-32291400D03*
G04 #@! TO.P,J1,15*
G04 #@! TO.N,/CAN low*
X70863300Y-32291400D03*
G04 #@! TO.P,J1,14*
G04 #@! TO.N,/CAN high*
X74863300Y-32291400D03*
G04 #@! TO.P,J1,30*
G04 #@! TO.N,/5V*
X56863300Y-36291400D03*
G04 #@! TO.P,J1,29*
G04 #@! TO.N,/Brake Pressure -*
X60863300Y-36291400D03*
G04 #@! TO.P,J1,28*
G04 #@! TO.N,/Brake Pressure Sense*
X64863300Y-36291400D03*
G04 #@! TO.P,J1,27*
G04 #@! TO.N,/Brake Pressure +*
X68863300Y-36291400D03*
G04 #@! TO.P,J1,26*
G04 #@! TO.N,/Brakelight LSD*
X72863300Y-36291400D03*
G04 #@! TO.P,J1,25*
G04 #@! TO.N,/12V*
X76863300Y-36291400D03*
G04 #@! TO.P,J1,31*
G04 #@! TO.N,/Cooling Pressure Sense*
X52863300Y-36291400D03*
G04 #@! TD*
D13*
G04 #@! TO.P,U1,14*
G04 #@! TO.N,GND*
X131673700Y-28104900D03*
G04 #@! TO.P,U1,13*
X145573700Y-28104900D03*
D14*
G04 #@! TO.P,U1,8*
X134183700Y-23684900D03*
G04 #@! TO.P,U1,6*
G04 #@! TO.N,/MOSI*
X136723700Y-23684900D03*
G04 #@! TO.P,U1,4*
G04 #@! TO.N,/SCK*
X139263700Y-23684900D03*
G04 #@! TO.P,U1,2*
G04 #@! TO.N,/CAN high*
X141803700Y-23684900D03*
G04 #@! TO.P,U1,7*
G04 #@! TO.N,/5V*
X135453700Y-26224900D03*
G04 #@! TO.P,U1,5*
G04 #@! TO.N,/MISO*
X137993700Y-26224900D03*
G04 #@! TO.P,U1,3*
G04 #@! TO.N,/RESET*
X140533700Y-26224900D03*
G04 #@! TO.P,U1,1*
G04 #@! TO.N,/CAN low*
X143073700Y-26224900D03*
G04 #@! TO.P,U1,10*
G04 #@! TO.N,/RJ45 LED1*
X134613700Y-32854900D03*
G04 #@! TO.P,U1,9*
G04 #@! TO.N,GND*
X132073700Y-32854900D03*
G04 #@! TO.P,U1,11*
X142633700Y-32854900D03*
G04 #@! TO.P,U1,12*
G04 #@! TO.N,/RJ45 LED2*
X145173700Y-32854900D03*
G04 #@! TD*
D10*
G04 #@! TO.P,J2,5*
G04 #@! TO.N,/BSPD Current Sense*
X161201100Y-39535100D03*
G04 #@! TO.P,J2,3*
G04 #@! TO.N,/BSPD -> IS*
X163741100Y-39535100D03*
G04 #@! TO.P,J2,1*
G04 #@! TO.N,/Fuse -> Estop*
X166281100Y-39535100D03*
G04 #@! TO.P,J2,2*
G04 #@! TO.N,/Estop -> BSPD*
X165011100Y-42075100D03*
G04 #@! TO.P,J2,4*
G04 #@! TO.N,/TSMS -> Final Shutdown*
X162471100Y-42075100D03*
G04 #@! TO.P,J2,6*
G04 #@! TO.N,/Cooling Pressure Sense*
X159931100Y-42075100D03*
D11*
G04 #@! TO.P,J2,7*
G04 #@! TO.N,N/C*
X167681100Y-41335100D03*
G04 #@! TD*
D15*
G04 #@! TO.P,U4,1*
G04 #@! TO.N,/Cooling Pump*
X51594280Y-46724620D03*
X54994280Y-46724620D03*
G04 #@! TO.P,U4,2*
G04 #@! TO.N,/Cooling Pump Relay*
X54994280Y-60224620D03*
X51594280Y-60224620D03*
G04 #@! TD*
D16*
G04 #@! TO.P,D2,1*
G04 #@! TO.N,/12V*
X88587580Y-50035920D03*
G04 #@! TO.P,D2,2*
G04 #@! TO.N,/BSPD Relay*
X88587580Y-47235920D03*
G04 #@! TD*
G04 #@! TO.P,D3,1*
G04 #@! TO.N,GND*
X92156100Y-58061860D03*
G04 #@! TO.P,D3,2*
G04 #@! TO.N,Net-(D3-Pad2)*
X94356100Y-58061860D03*
G04 #@! TD*
D11*
G04 #@! TO.P,J4,21*
G04 #@! TO.N,N/C*
X148618400Y-77949200D03*
D10*
G04 #@! TO.P,J4,20*
G04 #@! TO.N,Net-(J4-Pad20)*
X123088400Y-78689200D03*
G04 #@! TO.P,J4,19*
G04 #@! TO.N,Net-(J4-Pad19)*
X124358400Y-76149200D03*
G04 #@! TO.P,J4,18*
G04 #@! TO.N,Net-(J4-Pad18)*
X125628400Y-78689200D03*
G04 #@! TO.P,J4,17*
G04 #@! TO.N,Net-(J4-Pad17)*
X126898400Y-76149200D03*
G04 #@! TO.P,J4,16*
G04 #@! TO.N,Net-(J4-Pad16)*
X128168400Y-78689200D03*
G04 #@! TO.P,J4,15*
G04 #@! TO.N,Net-(J4-Pad15)*
X129438400Y-76149200D03*
G04 #@! TO.P,J4,14*
G04 #@! TO.N,Net-(J4-Pad14)*
X130708400Y-78689200D03*
G04 #@! TO.P,J4,13*
G04 #@! TO.N,Net-(J4-Pad13)*
X131978400Y-76149200D03*
G04 #@! TO.P,J4,12*
G04 #@! TO.N,Net-(J4-Pad12)*
X133248400Y-78689200D03*
G04 #@! TO.P,J4,11*
G04 #@! TO.N,Net-(J4-Pad11)*
X134518400Y-76149200D03*
G04 #@! TO.P,J4,10*
G04 #@! TO.N,Net-(J4-Pad10)*
X135788400Y-78689200D03*
G04 #@! TO.P,J4,9*
G04 #@! TO.N,Net-(J4-Pad9)*
X137058400Y-76149200D03*
G04 #@! TO.P,J4,8*
G04 #@! TO.N,Net-(J4-Pad8)*
X138328400Y-78689200D03*
G04 #@! TO.P,J4,6*
G04 #@! TO.N,/LED 2*
X140868400Y-78689200D03*
G04 #@! TO.P,J4,4*
G04 #@! TO.N,/CAN low*
X143408400Y-78689200D03*
G04 #@! TO.P,J4,2*
G04 #@! TO.N,/12V*
X145948400Y-78689200D03*
G04 #@! TO.P,J4,7*
G04 #@! TO.N,Net-(J4-Pad7)*
X139598400Y-76149200D03*
G04 #@! TO.P,J4,1*
G04 #@! TO.N,GND*
X147218400Y-76149200D03*
G04 #@! TO.P,J4,3*
G04 #@! TO.N,/CAN high*
X144678400Y-76149200D03*
G04 #@! TO.P,J4,5*
G04 #@! TO.N,/LED 1*
X142138400Y-76149200D03*
G04 #@! TD*
G04 #@! TO.P,J5,5*
G04 #@! TO.N,Net-(J5-Pad5)*
X142684500Y-53314600D03*
G04 #@! TO.P,J5,3*
G04 #@! TO.N,/CAN high*
X145224500Y-53314600D03*
G04 #@! TO.P,J5,1*
G04 #@! TO.N,GND*
X147764500Y-53314600D03*
G04 #@! TO.P,J5,7*
G04 #@! TO.N,Net-(J5-Pad7)*
X140144500Y-53314600D03*
G04 #@! TO.P,J5,2*
G04 #@! TO.N,/12V*
X146494500Y-55854600D03*
G04 #@! TO.P,J5,4*
G04 #@! TO.N,/CAN low*
X143954500Y-55854600D03*
G04 #@! TO.P,J5,6*
G04 #@! TO.N,Net-(J5-Pad6)*
X141414500Y-55854600D03*
G04 #@! TO.P,J5,8*
G04 #@! TO.N,Net-(J5-Pad8)*
X138874500Y-55854600D03*
G04 #@! TO.P,J5,9*
G04 #@! TO.N,Net-(J5-Pad9)*
X137604500Y-53314600D03*
G04 #@! TO.P,J5,10*
G04 #@! TO.N,Net-(J5-Pad10)*
X136334500Y-55854600D03*
G04 #@! TO.P,J5,11*
G04 #@! TO.N,Net-(J5-Pad11)*
X135064500Y-53314600D03*
G04 #@! TO.P,J5,12*
G04 #@! TO.N,Net-(J5-Pad12)*
X133794500Y-55854600D03*
G04 #@! TO.P,J5,13*
G04 #@! TO.N,Net-(J5-Pad13)*
X132524500Y-53314600D03*
G04 #@! TO.P,J5,14*
G04 #@! TO.N,Net-(J5-Pad14)*
X131254500Y-55854600D03*
G04 #@! TO.P,J5,15*
G04 #@! TO.N,Net-(J5-Pad15)*
X129984500Y-53314600D03*
G04 #@! TO.P,J5,16*
G04 #@! TO.N,Net-(J5-Pad16)*
X128714500Y-55854600D03*
G04 #@! TO.P,J5,17*
G04 #@! TO.N,Net-(J5-Pad17)*
X127444500Y-53314600D03*
G04 #@! TO.P,J5,18*
G04 #@! TO.N,Net-(J5-Pad18)*
X126174500Y-55854600D03*
G04 #@! TO.P,J5,19*
G04 #@! TO.N,Net-(J5-Pad19)*
X124904500Y-53314600D03*
G04 #@! TO.P,J5,20*
G04 #@! TO.N,Net-(J5-Pad20)*
X123634500Y-55854600D03*
D11*
G04 #@! TO.P,J5,21*
G04 #@! TO.N,N/C*
X149164500Y-55114600D03*
G04 #@! TD*
G04 #@! TO.P,J6,21*
G04 #@! TO.N,N/C*
X149316900Y-65719100D03*
D10*
G04 #@! TO.P,J6,20*
G04 #@! TO.N,Net-(J6-Pad20)*
X123786900Y-66459100D03*
G04 #@! TO.P,J6,19*
G04 #@! TO.N,Net-(J6-Pad19)*
X125056900Y-63919100D03*
G04 #@! TO.P,J6,18*
G04 #@! TO.N,Net-(J6-Pad18)*
X126326900Y-66459100D03*
G04 #@! TO.P,J6,17*
G04 #@! TO.N,Net-(J6-Pad17)*
X127596900Y-63919100D03*
G04 #@! TO.P,J6,16*
G04 #@! TO.N,Net-(J6-Pad16)*
X128866900Y-66459100D03*
G04 #@! TO.P,J6,15*
G04 #@! TO.N,Net-(J6-Pad15)*
X130136900Y-63919100D03*
G04 #@! TO.P,J6,14*
G04 #@! TO.N,Net-(J6-Pad14)*
X131406900Y-66459100D03*
G04 #@! TO.P,J6,13*
G04 #@! TO.N,Net-(J6-Pad13)*
X132676900Y-63919100D03*
G04 #@! TO.P,J6,12*
G04 #@! TO.N,Net-(J6-Pad12)*
X133946900Y-66459100D03*
G04 #@! TO.P,J6,11*
G04 #@! TO.N,Net-(J6-Pad11)*
X135216900Y-63919100D03*
G04 #@! TO.P,J6,10*
G04 #@! TO.N,Net-(J6-Pad10)*
X136486900Y-66459100D03*
G04 #@! TO.P,J6,9*
G04 #@! TO.N,Net-(J6-Pad9)*
X137756900Y-63919100D03*
G04 #@! TO.P,J6,8*
G04 #@! TO.N,Net-(J6-Pad8)*
X139026900Y-66459100D03*
G04 #@! TO.P,J6,6*
G04 #@! TO.N,Net-(J6-Pad6)*
X141566900Y-66459100D03*
G04 #@! TO.P,J6,4*
G04 #@! TO.N,/CAN low*
X144106900Y-66459100D03*
G04 #@! TO.P,J6,2*
G04 #@! TO.N,/12V*
X146646900Y-66459100D03*
G04 #@! TO.P,J6,7*
G04 #@! TO.N,Net-(J6-Pad7)*
X140296900Y-63919100D03*
G04 #@! TO.P,J6,1*
G04 #@! TO.N,GND*
X147916900Y-63919100D03*
G04 #@! TO.P,J6,3*
G04 #@! TO.N,/CAN high*
X145376900Y-63919100D03*
G04 #@! TO.P,J6,5*
G04 #@! TO.N,Net-(J6-Pad5)*
X142836900Y-63919100D03*
G04 #@! TD*
D17*
G04 #@! TO.P,J7,2*
G04 #@! TO.N,GND*
X167332600Y-25374600D03*
G04 #@! TO.P,J7,1*
G04 #@! TO.N,/LED 1*
X170832600Y-25374600D03*
D18*
G04 #@! TO.P,J7,*
G04 #@! TO.N,*
X169082600Y-23144600D03*
D17*
G04 #@! TO.P,J7,3*
G04 #@! TO.N,/LED 2*
X163832600Y-25374600D03*
G04 #@! TO.P,J7,4*
G04 #@! TO.N,GND*
X160332600Y-25374600D03*
G04 #@! TD*
D19*
G04 #@! TO.P,K1,1*
G04 #@! TO.N,Net-(K1-Pad1)*
X84653120Y-60769500D03*
G04 #@! TO.P,K1,2*
G04 #@! TO.N,GND*
X74493120Y-60769500D03*
G04 #@! TO.P,K1,3*
G04 #@! TO.N,/Cooling Pump Relay*
X66873120Y-60769500D03*
G04 #@! TO.P,K1,5*
G04 #@! TO.N,Net-(K1-Pad5)*
X84653120Y-68389500D03*
G04 #@! TD*
G04 #@! TO.P,K2,1*
G04 #@! TO.N,/BSPD Relay*
X84485480Y-44777660D03*
G04 #@! TO.P,K2,2*
G04 #@! TO.N,/BSPD -> IS*
X74325480Y-44777660D03*
G04 #@! TO.P,K2,3*
G04 #@! TO.N,/Estop -> BSPD*
X66705480Y-44777660D03*
G04 #@! TO.P,K2,5*
G04 #@! TO.N,/12V*
X84485480Y-52397660D03*
G04 #@! TD*
D20*
G04 #@! TO.P,Q1,3*
G04 #@! TO.N,Net-(Q1-Pad3)*
X92396600Y-69123560D03*
G04 #@! TO.P,Q1,2*
G04 #@! TO.N,/TSMS -> Final Shutdown*
X94496600Y-68173560D03*
G04 #@! TO.P,Q1,1*
G04 #@! TO.N,/5V*
X94496600Y-70073560D03*
G04 #@! TD*
G04 #@! TO.P,Q2,1*
G04 #@! TO.N,Net-(Q1-Pad3)*
X90517980Y-69159120D03*
G04 #@! TO.P,Q2,2*
G04 #@! TO.N,/12V*
X88517980Y-68109120D03*
G04 #@! TO.P,Q2,3*
G04 #@! TO.N,Net-(K1-Pad5)*
X88517980Y-70209120D03*
G04 #@! TD*
G04 #@! TO.P,Q3,1*
G04 #@! TO.N,/Cooling Pump LSD*
X90455460Y-61709340D03*
G04 #@! TO.P,Q3,2*
G04 #@! TO.N,GND*
X90455460Y-59809340D03*
G04 #@! TO.P,Q3,3*
G04 #@! TO.N,Net-(K1-Pad1)*
X88355460Y-60759340D03*
G04 #@! TD*
D21*
G04 #@! TO.P,R1,2*
G04 #@! TO.N,/12V*
X88668820Y-66258440D03*
G04 #@! TO.P,R1,1*
G04 #@! TO.N,Net-(Q1-Pad3)*
X90568820Y-66258440D03*
G04 #@! TD*
D22*
G04 #@! TO.P,R2,1*
G04 #@! TO.N,Net-(D3-Pad2)*
X94292420Y-59789020D03*
G04 #@! TO.P,R2,2*
G04 #@! TO.N,/Cooling Pump LSD*
X94292420Y-61689020D03*
G04 #@! TD*
G04 #@! TO.P,R3,1*
G04 #@! TO.N,/TSMS -> Final Shutdown*
X96415860Y-68173560D03*
G04 #@! TO.P,R3,2*
G04 #@! TO.N,/5V*
X96415860Y-70073560D03*
G04 #@! TD*
G04 #@! TO.P,R4,2*
G04 #@! TO.N,GND*
X92184220Y-59768700D03*
G04 #@! TO.P,R4,1*
G04 #@! TO.N,/Cooling Pump LSD*
X92184220Y-61668700D03*
G04 #@! TD*
D15*
G04 #@! TO.P,U2,1*
G04 #@! TO.N,/GLVMS_IN*
X28035300Y-49716160D03*
X28035300Y-46316160D03*
G04 #@! TO.P,U2,2*
G04 #@! TO.N,/Fuse -> Estop*
X41535300Y-46316160D03*
X41535300Y-49716160D03*
G04 #@! TD*
G04 #@! TO.P,U3,2*
G04 #@! TO.N,/12V*
X41294000Y-61235060D03*
X41294000Y-57835060D03*
G04 #@! TO.P,U3,1*
G04 #@! TO.N,/GLVMS_IN*
X27794000Y-57835060D03*
X27794000Y-61235060D03*
G04 #@! TD*
D23*
G04 #@! TO.N,/BSPD Relay*
X91191080Y-47231300D03*
D24*
G04 #@! TO.N,GND*
X90500200Y-58061860D03*
D23*
G04 #@! TO.N,/5V*
X99016820Y-70131940D03*
G04 #@! TO.N,/TSMS -> Final Shutdown*
X96431100Y-66865500D03*
G04 #@! TO.N,/Cooling Pump LSD*
X96481900Y-61694060D03*
G04 #@! TD*
D25*
G04 #@! TO.N,/BSPD Relay*
X85670948Y-47235920D02*
X87835180Y-47235920D01*
X84485480Y-46050452D02*
X85670948Y-47235920D01*
X87835180Y-47235920D02*
X88587580Y-47235920D01*
X84485480Y-44777660D02*
X84485480Y-46050452D01*
X88592200Y-47231300D02*
X88587580Y-47235920D01*
X91191080Y-47231300D02*
X88592200Y-47231300D01*
G04 #@! TO.N,Net-(D3-Pad2)*
X94356100Y-59725340D02*
X94292420Y-59789020D01*
X94356100Y-58061860D02*
X94356100Y-59725340D01*
G04 #@! TO.N,GND*
X92156100Y-58061860D02*
X90500200Y-58061860D01*
X90500200Y-58061860D02*
X90477340Y-58039000D01*
X92156100Y-59740580D02*
X92184220Y-59768700D01*
X92156100Y-58061860D02*
X92156100Y-59740580D01*
X90496100Y-59768700D02*
X90455460Y-59809340D01*
X92184220Y-59768700D02*
X90496100Y-59768700D01*
X90455460Y-58060880D02*
X90477340Y-58039000D01*
X90455460Y-59809340D02*
X90455460Y-58060880D01*
X90500200Y-58061860D02*
X90500200Y-58061860D01*
D26*
G04 #@! TO.N,/5V*
X94496600Y-70073560D02*
X96415860Y-70073560D01*
X96474240Y-70131940D02*
X96415860Y-70073560D01*
X99016820Y-70131940D02*
X96474240Y-70131940D01*
D25*
G04 #@! TO.N,/TSMS -> Final Shutdown*
X95099000Y-68173560D02*
X96415860Y-68173560D01*
X94496600Y-68173560D02*
X95099000Y-68173560D01*
X96431100Y-68158320D02*
X96415860Y-68173560D01*
X96431100Y-66865500D02*
X96431100Y-68158320D01*
D27*
G04 #@! TO.N,/Estop -> BSPD*
X48842700Y-28282900D02*
X48842700Y-27310945D01*
D25*
G04 #@! TO.N,/Cooling Pump LSD*
X92143580Y-61709340D02*
X92184220Y-61668700D01*
X90455460Y-61709340D02*
X92143580Y-61709340D01*
X94272100Y-61668700D02*
X94292420Y-61689020D01*
X92184220Y-61668700D02*
X94272100Y-61668700D01*
X94297460Y-61694060D02*
X94292420Y-61689020D01*
X96481900Y-61694060D02*
X94297460Y-61694060D01*
G04 #@! TO.N,Net-(K1-Pad5)*
X87920540Y-70209120D02*
X88517980Y-70209120D01*
X86472740Y-70209120D02*
X88517980Y-70209120D01*
X84653120Y-68389500D02*
X86472740Y-70209120D01*
G04 #@! TO.N,Net-(K1-Pad1)*
X84714080Y-60708540D02*
X84653120Y-60769500D01*
X88345300Y-60769500D02*
X88355460Y-60759340D01*
X84653120Y-60769500D02*
X88345300Y-60769500D01*
G04 #@! TO.N,Net-(Q1-Pad3)*
X92361040Y-69159120D02*
X92396600Y-69123560D01*
X90517980Y-69159120D02*
X92361040Y-69159120D01*
X90568820Y-69108280D02*
X90517980Y-69159120D01*
X90568820Y-66258440D02*
X90568820Y-69108280D01*
G04 #@! TD*
D26*
G04 #@! TO.N,/GLVMS_IN*
G36*
X37795192Y-39241492D02*
X37655552Y-44141582D01*
X37655503Y-44144335D01*
X37529375Y-62672580D01*
X21807024Y-62435120D01*
X22014217Y-39266178D01*
X24028300Y-39266178D01*
X24028300Y-39916622D01*
X24277214Y-40517553D01*
X24737147Y-40977486D01*
X25338078Y-41226400D01*
X25988522Y-41226400D01*
X26589453Y-40977486D01*
X27049386Y-40517553D01*
X27298300Y-39916622D01*
X27298300Y-39266178D01*
X27049386Y-38665247D01*
X26589453Y-38205314D01*
X25988522Y-37956400D01*
X25338078Y-37956400D01*
X24737147Y-38205314D01*
X24277214Y-38665247D01*
X24028300Y-39266178D01*
X22014217Y-39266178D01*
X22048615Y-35419722D01*
X37777982Y-35347224D01*
X37795192Y-39241492D01*
X37795192Y-39241492D01*
G37*
X37795192Y-39241492D02*
X37655552Y-44141582D01*
X37655503Y-44144335D01*
X37529375Y-62672580D01*
X21807024Y-62435120D01*
X22014217Y-39266178D01*
X24028300Y-39266178D01*
X24028300Y-39916622D01*
X24277214Y-40517553D01*
X24737147Y-40977486D01*
X25338078Y-41226400D01*
X25988522Y-41226400D01*
X26589453Y-40977486D01*
X27049386Y-40517553D01*
X27298300Y-39916622D01*
X27298300Y-39266178D01*
X27049386Y-38665247D01*
X26589453Y-38205314D01*
X25988522Y-37956400D01*
X25338078Y-37956400D01*
X24737147Y-38205314D01*
X24277214Y-38665247D01*
X24028300Y-39266178D01*
X22014217Y-39266178D01*
X22048615Y-35419722D01*
X37777982Y-35347224D01*
X37795192Y-39241492D01*
G04 #@! TO.N,/12V*
G36*
X178282227Y-16851793D02*
X178290220Y-16859786D01*
X178290220Y-100060760D01*
X18755360Y-100060760D01*
X18755360Y-78433598D01*
X121803400Y-78433598D01*
X121803400Y-78944802D01*
X121999029Y-79417094D01*
X122360506Y-79778571D01*
X122832798Y-79974200D01*
X123344002Y-79974200D01*
X123816294Y-79778571D01*
X124177771Y-79417094D01*
X124358400Y-78981015D01*
X124539029Y-79417094D01*
X124900506Y-79778571D01*
X125372798Y-79974200D01*
X125884002Y-79974200D01*
X126356294Y-79778571D01*
X126717771Y-79417094D01*
X126898400Y-78981015D01*
X127079029Y-79417094D01*
X127440506Y-79778571D01*
X127912798Y-79974200D01*
X128424002Y-79974200D01*
X128896294Y-79778571D01*
X129257771Y-79417094D01*
X129438400Y-78981015D01*
X129619029Y-79417094D01*
X129980506Y-79778571D01*
X130452798Y-79974200D01*
X130964002Y-79974200D01*
X131436294Y-79778571D01*
X131797771Y-79417094D01*
X131978400Y-78981015D01*
X132159029Y-79417094D01*
X132520506Y-79778571D01*
X132992798Y-79974200D01*
X133504002Y-79974200D01*
X133976294Y-79778571D01*
X134337771Y-79417094D01*
X134518400Y-78981015D01*
X134699029Y-79417094D01*
X135060506Y-79778571D01*
X135532798Y-79974200D01*
X136044002Y-79974200D01*
X136516294Y-79778571D01*
X136877771Y-79417094D01*
X137058400Y-78981015D01*
X137239029Y-79417094D01*
X137600506Y-79778571D01*
X138072798Y-79974200D01*
X138584002Y-79974200D01*
X139056294Y-79778571D01*
X139417771Y-79417094D01*
X139598400Y-78981015D01*
X139779029Y-79417094D01*
X140140506Y-79778571D01*
X140612798Y-79974200D01*
X141124002Y-79974200D01*
X141596294Y-79778571D01*
X141957771Y-79417094D01*
X142138400Y-78981015D01*
X142319029Y-79417094D01*
X142680506Y-79778571D01*
X143152798Y-79974200D01*
X143664002Y-79974200D01*
X144136294Y-79778571D01*
X144497771Y-79417094D01*
X144693400Y-78944802D01*
X144693400Y-78433598D01*
X144497771Y-77961306D01*
X144136294Y-77599829D01*
X143664002Y-77404200D01*
X143152798Y-77404200D01*
X142680506Y-77599829D01*
X142319029Y-77961306D01*
X142138400Y-78397385D01*
X141957771Y-77961306D01*
X141596294Y-77599829D01*
X141124002Y-77404200D01*
X140612798Y-77404200D01*
X140140506Y-77599829D01*
X139779029Y-77961306D01*
X139598400Y-78397385D01*
X139417771Y-77961306D01*
X139056294Y-77599829D01*
X138584002Y-77404200D01*
X138072798Y-77404200D01*
X137600506Y-77599829D01*
X137239029Y-77961306D01*
X137058400Y-78397385D01*
X136877771Y-77961306D01*
X136516294Y-77599829D01*
X136044002Y-77404200D01*
X135532798Y-77404200D01*
X135060506Y-77599829D01*
X134699029Y-77961306D01*
X134518400Y-78397385D01*
X134337771Y-77961306D01*
X133976294Y-77599829D01*
X133504002Y-77404200D01*
X132992798Y-77404200D01*
X132520506Y-77599829D01*
X132159029Y-77961306D01*
X131978400Y-78397385D01*
X131797771Y-77961306D01*
X131436294Y-77599829D01*
X130964002Y-77404200D01*
X130452798Y-77404200D01*
X129980506Y-77599829D01*
X129619029Y-77961306D01*
X129438400Y-78397385D01*
X129257771Y-77961306D01*
X128896294Y-77599829D01*
X128424002Y-77404200D01*
X127912798Y-77404200D01*
X127440506Y-77599829D01*
X127079029Y-77961306D01*
X126898400Y-78397385D01*
X126717771Y-77961306D01*
X126356294Y-77599829D01*
X125884002Y-77404200D01*
X125372798Y-77404200D01*
X124900506Y-77599829D01*
X124539029Y-77961306D01*
X124358400Y-78397385D01*
X124177771Y-77961306D01*
X123816294Y-77599829D01*
X123344002Y-77404200D01*
X122832798Y-77404200D01*
X122360506Y-77599829D01*
X121999029Y-77961306D01*
X121803400Y-78433598D01*
X18755360Y-78433598D01*
X18755360Y-75893598D01*
X123073400Y-75893598D01*
X123073400Y-76404802D01*
X123269029Y-76877094D01*
X123630506Y-77238571D01*
X124102798Y-77434200D01*
X124614002Y-77434200D01*
X125086294Y-77238571D01*
X125447771Y-76877094D01*
X125628400Y-76441015D01*
X125809029Y-76877094D01*
X126170506Y-77238571D01*
X126642798Y-77434200D01*
X127154002Y-77434200D01*
X127626294Y-77238571D01*
X127987771Y-76877094D01*
X128168400Y-76441015D01*
X128349029Y-76877094D01*
X128710506Y-77238571D01*
X129182798Y-77434200D01*
X129694002Y-77434200D01*
X130166294Y-77238571D01*
X130527771Y-76877094D01*
X130708400Y-76441015D01*
X130889029Y-76877094D01*
X131250506Y-77238571D01*
X131722798Y-77434200D01*
X132234002Y-77434200D01*
X132706294Y-77238571D01*
X133067771Y-76877094D01*
X133248400Y-76441015D01*
X133429029Y-76877094D01*
X133790506Y-77238571D01*
X134262798Y-77434200D01*
X134774002Y-77434200D01*
X135246294Y-77238571D01*
X135607771Y-76877094D01*
X135788400Y-76441015D01*
X135969029Y-76877094D01*
X136330506Y-77238571D01*
X136802798Y-77434200D01*
X137314002Y-77434200D01*
X137786294Y-77238571D01*
X138147771Y-76877094D01*
X138328400Y-76441015D01*
X138509029Y-76877094D01*
X138870506Y-77238571D01*
X139342798Y-77434200D01*
X139854002Y-77434200D01*
X140326294Y-77238571D01*
X140687771Y-76877094D01*
X140868400Y-76441015D01*
X141049029Y-76877094D01*
X141410506Y-77238571D01*
X141882798Y-77434200D01*
X142394002Y-77434200D01*
X142866294Y-77238571D01*
X143227771Y-76877094D01*
X143408400Y-76441015D01*
X143589029Y-76877094D01*
X143950506Y-77238571D01*
X144422798Y-77434200D01*
X144934002Y-77434200D01*
X145406294Y-77238571D01*
X145767771Y-76877094D01*
X145948400Y-76441015D01*
X146129029Y-76877094D01*
X146490506Y-77238571D01*
X146962798Y-77434200D01*
X147062009Y-77434200D01*
X146983400Y-77623978D01*
X146983400Y-78274422D01*
X147232314Y-78875353D01*
X147692247Y-79335286D01*
X148293178Y-79584200D01*
X148943622Y-79584200D01*
X149544553Y-79335286D01*
X150004486Y-78875353D01*
X150253400Y-78274422D01*
X150253400Y-77623978D01*
X150004486Y-77023047D01*
X149544553Y-76563114D01*
X148943622Y-76314200D01*
X148503400Y-76314200D01*
X148503400Y-75893598D01*
X148307771Y-75421306D01*
X147946294Y-75059829D01*
X147474002Y-74864200D01*
X146962798Y-74864200D01*
X146490506Y-75059829D01*
X146129029Y-75421306D01*
X145948400Y-75857385D01*
X145767771Y-75421306D01*
X145406294Y-75059829D01*
X144934002Y-74864200D01*
X144422798Y-74864200D01*
X143950506Y-75059829D01*
X143589029Y-75421306D01*
X143408400Y-75857385D01*
X143227771Y-75421306D01*
X142866294Y-75059829D01*
X142394002Y-74864200D01*
X141882798Y-74864200D01*
X141410506Y-75059829D01*
X141049029Y-75421306D01*
X140868400Y-75857385D01*
X140687771Y-75421306D01*
X140326294Y-75059829D01*
X139854002Y-74864200D01*
X139342798Y-74864200D01*
X138870506Y-75059829D01*
X138509029Y-75421306D01*
X138328400Y-75857385D01*
X138147771Y-75421306D01*
X137786294Y-75059829D01*
X137314002Y-74864200D01*
X136802798Y-74864200D01*
X136330506Y-75059829D01*
X135969029Y-75421306D01*
X135788400Y-75857385D01*
X135607771Y-75421306D01*
X135246294Y-75059829D01*
X134774002Y-74864200D01*
X134262798Y-74864200D01*
X133790506Y-75059829D01*
X133429029Y-75421306D01*
X133248400Y-75857385D01*
X133067771Y-75421306D01*
X132706294Y-75059829D01*
X132234002Y-74864200D01*
X131722798Y-74864200D01*
X131250506Y-75059829D01*
X130889029Y-75421306D01*
X130708400Y-75857385D01*
X130527771Y-75421306D01*
X130166294Y-75059829D01*
X129694002Y-74864200D01*
X129182798Y-74864200D01*
X128710506Y-75059829D01*
X128349029Y-75421306D01*
X128168400Y-75857385D01*
X127987771Y-75421306D01*
X127626294Y-75059829D01*
X127154002Y-74864200D01*
X126642798Y-74864200D01*
X126170506Y-75059829D01*
X125809029Y-75421306D01*
X125628400Y-75857385D01*
X125447771Y-75421306D01*
X125086294Y-75059829D01*
X124614002Y-74864200D01*
X124102798Y-74864200D01*
X123630506Y-75059829D01*
X123269029Y-75421306D01*
X123073400Y-75893598D01*
X18755360Y-75893598D01*
X18755360Y-68084170D01*
X83118120Y-68084170D01*
X83118120Y-68694830D01*
X83351810Y-69259007D01*
X83783613Y-69690810D01*
X84347790Y-69924500D01*
X84958450Y-69924500D01*
X85116758Y-69858927D01*
X85920318Y-70662487D01*
X85959994Y-70721866D01*
X86019373Y-70761542D01*
X86019375Y-70761544D01*
X86195242Y-70879055D01*
X86195243Y-70879055D01*
X86195244Y-70879056D01*
X86402694Y-70920320D01*
X86402697Y-70920320D01*
X86472739Y-70934252D01*
X86542781Y-70920320D01*
X87512209Y-70920320D01*
X87610171Y-71066929D01*
X87820215Y-71207277D01*
X88067980Y-71256560D01*
X88967980Y-71256560D01*
X89215745Y-71207277D01*
X89425789Y-71066929D01*
X89566137Y-70856885D01*
X89615420Y-70609120D01*
X89615420Y-70020436D01*
X89820215Y-70157277D01*
X90067980Y-70206560D01*
X90967980Y-70206560D01*
X91215745Y-70157277D01*
X91425789Y-70016929D01*
X91469170Y-69952005D01*
X91488791Y-69981369D01*
X91698835Y-70121717D01*
X91946600Y-70171000D01*
X92846600Y-70171000D01*
X93094365Y-70121717D01*
X93304409Y-69981369D01*
X93399160Y-69839565D01*
X93399160Y-70473560D01*
X93448443Y-70721325D01*
X93588791Y-70931369D01*
X93798835Y-71071717D01*
X94046600Y-71121000D01*
X94946600Y-71121000D01*
X95194365Y-71071717D01*
X95393645Y-70938561D01*
X95518095Y-71021717D01*
X95765860Y-71071000D01*
X97065860Y-71071000D01*
X97313625Y-71021717D01*
X97504855Y-70893940D01*
X98315109Y-70893940D01*
X98430540Y-71009371D01*
X98810946Y-71166940D01*
X99222694Y-71166940D01*
X99603100Y-71009371D01*
X99894251Y-70718220D01*
X100051820Y-70337814D01*
X100051820Y-69926066D01*
X99894251Y-69545660D01*
X99603100Y-69254509D01*
X99222694Y-69096940D01*
X98810946Y-69096940D01*
X98430540Y-69254509D01*
X98315109Y-69369940D01*
X97593286Y-69369940D01*
X97523669Y-69265751D01*
X97313625Y-69125403D01*
X97304360Y-69123560D01*
X97313625Y-69121717D01*
X97523669Y-68981369D01*
X97664017Y-68771325D01*
X97713300Y-68523560D01*
X97713300Y-67823560D01*
X97664017Y-67575795D01*
X97523669Y-67365751D01*
X97383077Y-67271810D01*
X97466100Y-67071374D01*
X97466100Y-66659626D01*
X97308531Y-66279220D01*
X97232809Y-66203498D01*
X122501900Y-66203498D01*
X122501900Y-66714702D01*
X122697529Y-67186994D01*
X123059006Y-67548471D01*
X123531298Y-67744100D01*
X124042502Y-67744100D01*
X124514794Y-67548471D01*
X124876271Y-67186994D01*
X125056900Y-66750915D01*
X125237529Y-67186994D01*
X125599006Y-67548471D01*
X126071298Y-67744100D01*
X126582502Y-67744100D01*
X127054794Y-67548471D01*
X127416271Y-67186994D01*
X127596900Y-66750915D01*
X127777529Y-67186994D01*
X128139006Y-67548471D01*
X128611298Y-67744100D01*
X129122502Y-67744100D01*
X129594794Y-67548471D01*
X129956271Y-67186994D01*
X130136900Y-66750915D01*
X130317529Y-67186994D01*
X130679006Y-67548471D01*
X131151298Y-67744100D01*
X131662502Y-67744100D01*
X132134794Y-67548471D01*
X132496271Y-67186994D01*
X132676900Y-66750915D01*
X132857529Y-67186994D01*
X133219006Y-67548471D01*
X133691298Y-67744100D01*
X134202502Y-67744100D01*
X134674794Y-67548471D01*
X135036271Y-67186994D01*
X135216900Y-66750915D01*
X135397529Y-67186994D01*
X135759006Y-67548471D01*
X136231298Y-67744100D01*
X136742502Y-67744100D01*
X137214794Y-67548471D01*
X137576271Y-67186994D01*
X137756900Y-66750915D01*
X137937529Y-67186994D01*
X138299006Y-67548471D01*
X138771298Y-67744100D01*
X139282502Y-67744100D01*
X139754794Y-67548471D01*
X140116271Y-67186994D01*
X140296900Y-66750915D01*
X140477529Y-67186994D01*
X140839006Y-67548471D01*
X141311298Y-67744100D01*
X141822502Y-67744100D01*
X142294794Y-67548471D01*
X142656271Y-67186994D01*
X142836900Y-66750915D01*
X143017529Y-67186994D01*
X143379006Y-67548471D01*
X143851298Y-67744100D01*
X144362502Y-67744100D01*
X144834794Y-67548471D01*
X145196271Y-67186994D01*
X145391900Y-66714702D01*
X145391900Y-66203498D01*
X145196271Y-65731206D01*
X144834794Y-65369729D01*
X144362502Y-65174100D01*
X143851298Y-65174100D01*
X143379006Y-65369729D01*
X143017529Y-65731206D01*
X142836900Y-66167285D01*
X142656271Y-65731206D01*
X142294794Y-65369729D01*
X141822502Y-65174100D01*
X141311298Y-65174100D01*
X140839006Y-65369729D01*
X140477529Y-65731206D01*
X140296900Y-66167285D01*
X140116271Y-65731206D01*
X139754794Y-65369729D01*
X139282502Y-65174100D01*
X138771298Y-65174100D01*
X138299006Y-65369729D01*
X137937529Y-65731206D01*
X137756900Y-66167285D01*
X137576271Y-65731206D01*
X137214794Y-65369729D01*
X136742502Y-65174100D01*
X136231298Y-65174100D01*
X135759006Y-65369729D01*
X135397529Y-65731206D01*
X135216900Y-66167285D01*
X135036271Y-65731206D01*
X134674794Y-65369729D01*
X134202502Y-65174100D01*
X133691298Y-65174100D01*
X133219006Y-65369729D01*
X132857529Y-65731206D01*
X132676900Y-66167285D01*
X132496271Y-65731206D01*
X132134794Y-65369729D01*
X131662502Y-65174100D01*
X131151298Y-65174100D01*
X130679006Y-65369729D01*
X130317529Y-65731206D01*
X130136900Y-66167285D01*
X129956271Y-65731206D01*
X129594794Y-65369729D01*
X129122502Y-65174100D01*
X128611298Y-65174100D01*
X128139006Y-65369729D01*
X127777529Y-65731206D01*
X127596900Y-66167285D01*
X127416271Y-65731206D01*
X127054794Y-65369729D01*
X126582502Y-65174100D01*
X126071298Y-65174100D01*
X125599006Y-65369729D01*
X125237529Y-65731206D01*
X125056900Y-66167285D01*
X124876271Y-65731206D01*
X124514794Y-65369729D01*
X124042502Y-65174100D01*
X123531298Y-65174100D01*
X123059006Y-65369729D01*
X122697529Y-65731206D01*
X122501900Y-66203498D01*
X97232809Y-66203498D01*
X97017380Y-65988069D01*
X96636974Y-65830500D01*
X96225226Y-65830500D01*
X95844820Y-65988069D01*
X95553669Y-66279220D01*
X95396100Y-66659626D01*
X95396100Y-67071374D01*
X95472516Y-67255858D01*
X95393645Y-67308559D01*
X95194365Y-67175403D01*
X94946600Y-67126120D01*
X94046600Y-67126120D01*
X93798835Y-67175403D01*
X93588791Y-67315751D01*
X93448443Y-67525795D01*
X93399160Y-67773560D01*
X93399160Y-68407555D01*
X93304409Y-68265751D01*
X93094365Y-68125403D01*
X92846600Y-68076120D01*
X91946600Y-68076120D01*
X91698835Y-68125403D01*
X91488791Y-68265751D01*
X91445410Y-68330675D01*
X91425789Y-68301311D01*
X91280020Y-68203911D01*
X91280020Y-67430802D01*
X91376629Y-67366249D01*
X91516977Y-67156205D01*
X91566260Y-66908440D01*
X91566260Y-65608440D01*
X91516977Y-65360675D01*
X91376629Y-65150631D01*
X91166585Y-65010283D01*
X90918820Y-64961000D01*
X90218820Y-64961000D01*
X89971055Y-65010283D01*
X89761011Y-65150631D01*
X89620663Y-65360675D01*
X89571380Y-65608440D01*
X89571380Y-66908440D01*
X89620663Y-67156205D01*
X89761011Y-67366249D01*
X89857620Y-67430802D01*
X89857621Y-68153523D01*
X89820215Y-68160963D01*
X89610171Y-68301311D01*
X89469823Y-68511355D01*
X89420540Y-68759120D01*
X89420540Y-69347804D01*
X89215745Y-69210963D01*
X88967980Y-69161680D01*
X88067980Y-69161680D01*
X87820215Y-69210963D01*
X87610171Y-69351311D01*
X87512209Y-69497920D01*
X86767329Y-69497920D01*
X86122547Y-68853138D01*
X86188120Y-68694830D01*
X86188120Y-68084170D01*
X85954430Y-67519993D01*
X85522627Y-67088190D01*
X84958450Y-66854500D01*
X84347790Y-66854500D01*
X83783613Y-67088190D01*
X83351810Y-67519993D01*
X83118120Y-68084170D01*
X18755360Y-68084170D01*
X18755360Y-64561720D01*
X39364920Y-64561720D01*
X39413521Y-64552053D01*
X39454723Y-64524523D01*
X39482253Y-64483321D01*
X39491920Y-64434720D01*
X39491920Y-63663498D01*
X123771900Y-63663498D01*
X123771900Y-64174702D01*
X123967529Y-64646994D01*
X124329006Y-65008471D01*
X124801298Y-65204100D01*
X125312502Y-65204100D01*
X125784794Y-65008471D01*
X126146271Y-64646994D01*
X126326900Y-64210915D01*
X126507529Y-64646994D01*
X126869006Y-65008471D01*
X127341298Y-65204100D01*
X127852502Y-65204100D01*
X128324794Y-65008471D01*
X128686271Y-64646994D01*
X128866900Y-64210915D01*
X129047529Y-64646994D01*
X129409006Y-65008471D01*
X129881298Y-65204100D01*
X130392502Y-65204100D01*
X130864794Y-65008471D01*
X131226271Y-64646994D01*
X131406900Y-64210915D01*
X131587529Y-64646994D01*
X131949006Y-65008471D01*
X132421298Y-65204100D01*
X132932502Y-65204100D01*
X133404794Y-65008471D01*
X133766271Y-64646994D01*
X133946900Y-64210915D01*
X134127529Y-64646994D01*
X134489006Y-65008471D01*
X134961298Y-65204100D01*
X135472502Y-65204100D01*
X135944794Y-65008471D01*
X136306271Y-64646994D01*
X136486900Y-64210915D01*
X136667529Y-64646994D01*
X137029006Y-65008471D01*
X137501298Y-65204100D01*
X138012502Y-65204100D01*
X138484794Y-65008471D01*
X138846271Y-64646994D01*
X139026900Y-64210915D01*
X139207529Y-64646994D01*
X139569006Y-65008471D01*
X140041298Y-65204100D01*
X140552502Y-65204100D01*
X141024794Y-65008471D01*
X141386271Y-64646994D01*
X141566900Y-64210915D01*
X141747529Y-64646994D01*
X142109006Y-65008471D01*
X142581298Y-65204100D01*
X143092502Y-65204100D01*
X143564794Y-65008471D01*
X143926271Y-64646994D01*
X144106900Y-64210915D01*
X144287529Y-64646994D01*
X144649006Y-65008471D01*
X145121298Y-65204100D01*
X145632502Y-65204100D01*
X146104794Y-65008471D01*
X146466271Y-64646994D01*
X146646900Y-64210915D01*
X146827529Y-64646994D01*
X147189006Y-65008471D01*
X147661298Y-65204100D01*
X147760509Y-65204100D01*
X147681900Y-65393878D01*
X147681900Y-66044322D01*
X147930814Y-66645253D01*
X148390747Y-67105186D01*
X148991678Y-67354100D01*
X149642122Y-67354100D01*
X150243053Y-67105186D01*
X150702986Y-66645253D01*
X150951900Y-66044322D01*
X150951900Y-65393878D01*
X150702986Y-64792947D01*
X150243053Y-64333014D01*
X149642122Y-64084100D01*
X149201900Y-64084100D01*
X149201900Y-63663498D01*
X149006271Y-63191206D01*
X148644794Y-62829729D01*
X148172502Y-62634100D01*
X147661298Y-62634100D01*
X147189006Y-62829729D01*
X146827529Y-63191206D01*
X146646900Y-63627285D01*
X146466271Y-63191206D01*
X146104794Y-62829729D01*
X145632502Y-62634100D01*
X145121298Y-62634100D01*
X144649006Y-62829729D01*
X144287529Y-63191206D01*
X144106900Y-63627285D01*
X143926271Y-63191206D01*
X143564794Y-62829729D01*
X143092502Y-62634100D01*
X142581298Y-62634100D01*
X142109006Y-62829729D01*
X141747529Y-63191206D01*
X141566900Y-63627285D01*
X141386271Y-63191206D01*
X141024794Y-62829729D01*
X140552502Y-62634100D01*
X140041298Y-62634100D01*
X139569006Y-62829729D01*
X139207529Y-63191206D01*
X139026900Y-63627285D01*
X138846271Y-63191206D01*
X138484794Y-62829729D01*
X138012502Y-62634100D01*
X137501298Y-62634100D01*
X137029006Y-62829729D01*
X136667529Y-63191206D01*
X136486900Y-63627285D01*
X136306271Y-63191206D01*
X135944794Y-62829729D01*
X135472502Y-62634100D01*
X134961298Y-62634100D01*
X134489006Y-62829729D01*
X134127529Y-63191206D01*
X133946900Y-63627285D01*
X133766271Y-63191206D01*
X133404794Y-62829729D01*
X132932502Y-62634100D01*
X132421298Y-62634100D01*
X131949006Y-62829729D01*
X131587529Y-63191206D01*
X131406900Y-63627285D01*
X131226271Y-63191206D01*
X130864794Y-62829729D01*
X130392502Y-62634100D01*
X129881298Y-62634100D01*
X129409006Y-62829729D01*
X129047529Y-63191206D01*
X128866900Y-63627285D01*
X128686271Y-63191206D01*
X128324794Y-62829729D01*
X127852502Y-62634100D01*
X127341298Y-62634100D01*
X126869006Y-62829729D01*
X126507529Y-63191206D01*
X126326900Y-63627285D01*
X126146271Y-63191206D01*
X125784794Y-62829729D01*
X125312502Y-62634100D01*
X124801298Y-62634100D01*
X124329006Y-62829729D01*
X123967529Y-63191206D01*
X123771900Y-63663498D01*
X39491920Y-63663498D01*
X39491920Y-59939181D01*
X50159280Y-59939181D01*
X50159280Y-60510059D01*
X50377746Y-61037482D01*
X50781418Y-61441154D01*
X51308841Y-61659620D01*
X51879719Y-61659620D01*
X52407142Y-61441154D01*
X52810814Y-61037482D01*
X53029280Y-60510059D01*
X53029280Y-59939181D01*
X53559280Y-59939181D01*
X53559280Y-60510059D01*
X53777746Y-61037482D01*
X54181418Y-61441154D01*
X54708841Y-61659620D01*
X55279719Y-61659620D01*
X55807142Y-61441154D01*
X56210814Y-61037482D01*
X56429280Y-60510059D01*
X56429280Y-60464170D01*
X65338120Y-60464170D01*
X65338120Y-61074830D01*
X65571810Y-61639007D01*
X66003613Y-62070810D01*
X66567790Y-62304500D01*
X67178450Y-62304500D01*
X67742627Y-62070810D01*
X68174430Y-61639007D01*
X68408120Y-61074830D01*
X68408120Y-60464170D01*
X72958120Y-60464170D01*
X72958120Y-61074830D01*
X73191810Y-61639007D01*
X73623613Y-62070810D01*
X74187790Y-62304500D01*
X74798450Y-62304500D01*
X75362627Y-62070810D01*
X75794430Y-61639007D01*
X76028120Y-61074830D01*
X76028120Y-60464170D01*
X83118120Y-60464170D01*
X83118120Y-61074830D01*
X83351810Y-61639007D01*
X83783613Y-62070810D01*
X84347790Y-62304500D01*
X84958450Y-62304500D01*
X85522627Y-62070810D01*
X85954430Y-61639007D01*
X86020003Y-61480700D01*
X87356478Y-61480700D01*
X87447651Y-61617149D01*
X87657695Y-61757497D01*
X87905460Y-61806780D01*
X88805460Y-61806780D01*
X89053225Y-61757497D01*
X89263269Y-61617149D01*
X89358020Y-61475345D01*
X89358020Y-62109340D01*
X89407303Y-62357105D01*
X89547651Y-62567149D01*
X89757695Y-62707497D01*
X90005460Y-62756780D01*
X90905460Y-62756780D01*
X91153225Y-62707497D01*
X91288321Y-62617228D01*
X91534220Y-62666140D01*
X92834220Y-62666140D01*
X93081985Y-62616857D01*
X93223115Y-62522556D01*
X93394655Y-62637177D01*
X93642420Y-62686460D01*
X94942420Y-62686460D01*
X95190185Y-62637177D01*
X95400229Y-62496829D01*
X95461414Y-62405260D01*
X95729389Y-62405260D01*
X95895620Y-62571491D01*
X96276026Y-62729060D01*
X96687774Y-62729060D01*
X97068180Y-62571491D01*
X97359331Y-62280340D01*
X97516900Y-61899934D01*
X97516900Y-61488186D01*
X97359331Y-61107780D01*
X97068180Y-60816629D01*
X96687774Y-60659060D01*
X96276026Y-60659060D01*
X95895620Y-60816629D01*
X95729389Y-60982860D01*
X95468149Y-60982860D01*
X95400229Y-60881211D01*
X95190185Y-60740863D01*
X95180920Y-60739020D01*
X95190185Y-60737177D01*
X95400229Y-60596829D01*
X95540577Y-60386785D01*
X95589860Y-60139020D01*
X95589860Y-59439020D01*
X95540577Y-59191255D01*
X95453327Y-59060677D01*
X95554257Y-58909625D01*
X95603540Y-58661860D01*
X95603540Y-57461860D01*
X95554257Y-57214095D01*
X95413909Y-57004051D01*
X95203865Y-56863703D01*
X94956100Y-56814420D01*
X93756100Y-56814420D01*
X93508335Y-56863703D01*
X93298291Y-57004051D01*
X93256100Y-57067194D01*
X93213909Y-57004051D01*
X93003865Y-56863703D01*
X92756100Y-56814420D01*
X91556100Y-56814420D01*
X91308335Y-56863703D01*
X91098291Y-57004051D01*
X90957943Y-57214095D01*
X90954243Y-57232698D01*
X90687138Y-57122060D01*
X90313262Y-57122060D01*
X89967846Y-57265136D01*
X89703476Y-57529506D01*
X89560400Y-57874922D01*
X89560400Y-58248798D01*
X89703476Y-58594214D01*
X89744261Y-58634999D01*
X89744261Y-58820160D01*
X89547651Y-58951531D01*
X89407303Y-59161575D01*
X89358020Y-59409340D01*
X89358020Y-60043335D01*
X89263269Y-59901531D01*
X89053225Y-59761183D01*
X88805460Y-59711900D01*
X87905460Y-59711900D01*
X87657695Y-59761183D01*
X87447651Y-59901531D01*
X87342900Y-60058300D01*
X86020003Y-60058300D01*
X85954430Y-59899993D01*
X85522627Y-59468190D01*
X84958450Y-59234500D01*
X84347790Y-59234500D01*
X83783613Y-59468190D01*
X83351810Y-59899993D01*
X83118120Y-60464170D01*
X76028120Y-60464170D01*
X75794430Y-59899993D01*
X75362627Y-59468190D01*
X74798450Y-59234500D01*
X74187790Y-59234500D01*
X73623613Y-59468190D01*
X73191810Y-59899993D01*
X72958120Y-60464170D01*
X68408120Y-60464170D01*
X68174430Y-59899993D01*
X67742627Y-59468190D01*
X67178450Y-59234500D01*
X66567790Y-59234500D01*
X66003613Y-59468190D01*
X65571810Y-59899993D01*
X65338120Y-60464170D01*
X56429280Y-60464170D01*
X56429280Y-59939181D01*
X56210814Y-59411758D01*
X55807142Y-59008086D01*
X55279719Y-58789620D01*
X54708841Y-58789620D01*
X54181418Y-59008086D01*
X53777746Y-59411758D01*
X53559280Y-59939181D01*
X53029280Y-59939181D01*
X52810814Y-59411758D01*
X52407142Y-59008086D01*
X51879719Y-58789620D01*
X51308841Y-58789620D01*
X50781418Y-59008086D01*
X50377746Y-59411758D01*
X50159280Y-59939181D01*
X39491920Y-59939181D01*
X39491920Y-55598998D01*
X122349500Y-55598998D01*
X122349500Y-56110202D01*
X122545129Y-56582494D01*
X122906606Y-56943971D01*
X123378898Y-57139600D01*
X123890102Y-57139600D01*
X124362394Y-56943971D01*
X124723871Y-56582494D01*
X124904500Y-56146415D01*
X125085129Y-56582494D01*
X125446606Y-56943971D01*
X125918898Y-57139600D01*
X126430102Y-57139600D01*
X126902394Y-56943971D01*
X127263871Y-56582494D01*
X127444500Y-56146415D01*
X127625129Y-56582494D01*
X127986606Y-56943971D01*
X128458898Y-57139600D01*
X128970102Y-57139600D01*
X129442394Y-56943971D01*
X129803871Y-56582494D01*
X129984500Y-56146415D01*
X130165129Y-56582494D01*
X130526606Y-56943971D01*
X130998898Y-57139600D01*
X131510102Y-57139600D01*
X131982394Y-56943971D01*
X132343871Y-56582494D01*
X132524500Y-56146415D01*
X132705129Y-56582494D01*
X133066606Y-56943971D01*
X133538898Y-57139600D01*
X134050102Y-57139600D01*
X134522394Y-56943971D01*
X134883871Y-56582494D01*
X135064500Y-56146415D01*
X135245129Y-56582494D01*
X135606606Y-56943971D01*
X136078898Y-57139600D01*
X136590102Y-57139600D01*
X137062394Y-56943971D01*
X137423871Y-56582494D01*
X137604500Y-56146415D01*
X137785129Y-56582494D01*
X138146606Y-56943971D01*
X138618898Y-57139600D01*
X139130102Y-57139600D01*
X139602394Y-56943971D01*
X139963871Y-56582494D01*
X140144500Y-56146415D01*
X140325129Y-56582494D01*
X140686606Y-56943971D01*
X141158898Y-57139600D01*
X141670102Y-57139600D01*
X142142394Y-56943971D01*
X142503871Y-56582494D01*
X142684500Y-56146415D01*
X142865129Y-56582494D01*
X143226606Y-56943971D01*
X143698898Y-57139600D01*
X144210102Y-57139600D01*
X144682394Y-56943971D01*
X145043871Y-56582494D01*
X145239500Y-56110202D01*
X145239500Y-55598998D01*
X145043871Y-55126706D01*
X144682394Y-54765229D01*
X144210102Y-54569600D01*
X143698898Y-54569600D01*
X143226606Y-54765229D01*
X142865129Y-55126706D01*
X142684500Y-55562785D01*
X142503871Y-55126706D01*
X142142394Y-54765229D01*
X141670102Y-54569600D01*
X141158898Y-54569600D01*
X140686606Y-54765229D01*
X140325129Y-55126706D01*
X140144500Y-55562785D01*
X139963871Y-55126706D01*
X139602394Y-54765229D01*
X139130102Y-54569600D01*
X138618898Y-54569600D01*
X138146606Y-54765229D01*
X137785129Y-55126706D01*
X137604500Y-55562785D01*
X137423871Y-55126706D01*
X137062394Y-54765229D01*
X136590102Y-54569600D01*
X136078898Y-54569600D01*
X135606606Y-54765229D01*
X135245129Y-55126706D01*
X135064500Y-55562785D01*
X134883871Y-55126706D01*
X134522394Y-54765229D01*
X134050102Y-54569600D01*
X133538898Y-54569600D01*
X133066606Y-54765229D01*
X132705129Y-55126706D01*
X132524500Y-55562785D01*
X132343871Y-55126706D01*
X131982394Y-54765229D01*
X131510102Y-54569600D01*
X130998898Y-54569600D01*
X130526606Y-54765229D01*
X130165129Y-55126706D01*
X129984500Y-55562785D01*
X129803871Y-55126706D01*
X129442394Y-54765229D01*
X128970102Y-54569600D01*
X128458898Y-54569600D01*
X127986606Y-54765229D01*
X127625129Y-55126706D01*
X127444500Y-55562785D01*
X127263871Y-55126706D01*
X126902394Y-54765229D01*
X126430102Y-54569600D01*
X125918898Y-54569600D01*
X125446606Y-54765229D01*
X125085129Y-55126706D01*
X124904500Y-55562785D01*
X124723871Y-55126706D01*
X124362394Y-54765229D01*
X123890102Y-54569600D01*
X123378898Y-54569600D01*
X122906606Y-54765229D01*
X122545129Y-55126706D01*
X122349500Y-55598998D01*
X39491920Y-55598998D01*
X39491920Y-53058998D01*
X123619500Y-53058998D01*
X123619500Y-53570202D01*
X123815129Y-54042494D01*
X124176606Y-54403971D01*
X124648898Y-54599600D01*
X125160102Y-54599600D01*
X125632394Y-54403971D01*
X125993871Y-54042494D01*
X126174500Y-53606415D01*
X126355129Y-54042494D01*
X126716606Y-54403971D01*
X127188898Y-54599600D01*
X127700102Y-54599600D01*
X128172394Y-54403971D01*
X128533871Y-54042494D01*
X128714500Y-53606415D01*
X128895129Y-54042494D01*
X129256606Y-54403971D01*
X129728898Y-54599600D01*
X130240102Y-54599600D01*
X130712394Y-54403971D01*
X131073871Y-54042494D01*
X131254500Y-53606415D01*
X131435129Y-54042494D01*
X131796606Y-54403971D01*
X132268898Y-54599600D01*
X132780102Y-54599600D01*
X133252394Y-54403971D01*
X133613871Y-54042494D01*
X133794500Y-53606415D01*
X133975129Y-54042494D01*
X134336606Y-54403971D01*
X134808898Y-54599600D01*
X135320102Y-54599600D01*
X135792394Y-54403971D01*
X136153871Y-54042494D01*
X136334500Y-53606415D01*
X136515129Y-54042494D01*
X136876606Y-54403971D01*
X137348898Y-54599600D01*
X137860102Y-54599600D01*
X138332394Y-54403971D01*
X138693871Y-54042494D01*
X138874500Y-53606415D01*
X139055129Y-54042494D01*
X139416606Y-54403971D01*
X139888898Y-54599600D01*
X140400102Y-54599600D01*
X140872394Y-54403971D01*
X141233871Y-54042494D01*
X141414500Y-53606415D01*
X141595129Y-54042494D01*
X141956606Y-54403971D01*
X142428898Y-54599600D01*
X142940102Y-54599600D01*
X143412394Y-54403971D01*
X143773871Y-54042494D01*
X143954500Y-53606415D01*
X144135129Y-54042494D01*
X144496606Y-54403971D01*
X144968898Y-54599600D01*
X145480102Y-54599600D01*
X145952394Y-54403971D01*
X146313871Y-54042494D01*
X146494500Y-53606415D01*
X146675129Y-54042494D01*
X147036606Y-54403971D01*
X147508898Y-54599600D01*
X147608109Y-54599600D01*
X147529500Y-54789378D01*
X147529500Y-55439822D01*
X147778414Y-56040753D01*
X148238347Y-56500686D01*
X148839278Y-56749600D01*
X149489722Y-56749600D01*
X150090653Y-56500686D01*
X150550586Y-56040753D01*
X150799500Y-55439822D01*
X150799500Y-54789378D01*
X150550586Y-54188447D01*
X150090653Y-53728514D01*
X149489722Y-53479600D01*
X149049500Y-53479600D01*
X149049500Y-53058998D01*
X148853871Y-52586706D01*
X148492394Y-52225229D01*
X148020102Y-52029600D01*
X147508898Y-52029600D01*
X147036606Y-52225229D01*
X146675129Y-52586706D01*
X146494500Y-53022785D01*
X146313871Y-52586706D01*
X145952394Y-52225229D01*
X145480102Y-52029600D01*
X144968898Y-52029600D01*
X144496606Y-52225229D01*
X144135129Y-52586706D01*
X143954500Y-53022785D01*
X143773871Y-52586706D01*
X143412394Y-52225229D01*
X142940102Y-52029600D01*
X142428898Y-52029600D01*
X141956606Y-52225229D01*
X141595129Y-52586706D01*
X141414500Y-53022785D01*
X141233871Y-52586706D01*
X140872394Y-52225229D01*
X140400102Y-52029600D01*
X139888898Y-52029600D01*
X139416606Y-52225229D01*
X139055129Y-52586706D01*
X138874500Y-53022785D01*
X138693871Y-52586706D01*
X138332394Y-52225229D01*
X137860102Y-52029600D01*
X137348898Y-52029600D01*
X136876606Y-52225229D01*
X136515129Y-52586706D01*
X136334500Y-53022785D01*
X136153871Y-52586706D01*
X135792394Y-52225229D01*
X135320102Y-52029600D01*
X134808898Y-52029600D01*
X134336606Y-52225229D01*
X133975129Y-52586706D01*
X133794500Y-53022785D01*
X133613871Y-52586706D01*
X133252394Y-52225229D01*
X132780102Y-52029600D01*
X132268898Y-52029600D01*
X131796606Y-52225229D01*
X131435129Y-52586706D01*
X131254500Y-53022785D01*
X131073871Y-52586706D01*
X130712394Y-52225229D01*
X130240102Y-52029600D01*
X129728898Y-52029600D01*
X129256606Y-52225229D01*
X128895129Y-52586706D01*
X128714500Y-53022785D01*
X128533871Y-52586706D01*
X128172394Y-52225229D01*
X127700102Y-52029600D01*
X127188898Y-52029600D01*
X126716606Y-52225229D01*
X126355129Y-52586706D01*
X126174500Y-53022785D01*
X125993871Y-52586706D01*
X125632394Y-52225229D01*
X125160102Y-52029600D01*
X124648898Y-52029600D01*
X124176606Y-52225229D01*
X123815129Y-52586706D01*
X123619500Y-53058998D01*
X39491920Y-53058998D01*
X39491920Y-49430721D01*
X40100300Y-49430721D01*
X40100300Y-50001599D01*
X40318766Y-50529022D01*
X40722438Y-50932694D01*
X41249861Y-51151160D01*
X41820739Y-51151160D01*
X42348162Y-50932694D01*
X42751834Y-50529022D01*
X42970300Y-50001599D01*
X42970300Y-49430721D01*
X42751834Y-48903298D01*
X42348162Y-48499626D01*
X41820739Y-48281160D01*
X41249861Y-48281160D01*
X40722438Y-48499626D01*
X40318766Y-48903298D01*
X40100300Y-49430721D01*
X39491920Y-49430721D01*
X39491920Y-46030721D01*
X40100300Y-46030721D01*
X40100300Y-46601599D01*
X40318766Y-47129022D01*
X40722438Y-47532694D01*
X41249861Y-47751160D01*
X41820739Y-47751160D01*
X42348162Y-47532694D01*
X42751834Y-47129022D01*
X42970300Y-46601599D01*
X42970300Y-46439181D01*
X50159280Y-46439181D01*
X50159280Y-47010059D01*
X50377746Y-47537482D01*
X50781418Y-47941154D01*
X51308841Y-48159620D01*
X51879719Y-48159620D01*
X52407142Y-47941154D01*
X52810814Y-47537482D01*
X53029280Y-47010059D01*
X53029280Y-46439181D01*
X53559280Y-46439181D01*
X53559280Y-47010059D01*
X53777746Y-47537482D01*
X54181418Y-47941154D01*
X54708841Y-48159620D01*
X55279719Y-48159620D01*
X55807142Y-47941154D01*
X56210814Y-47537482D01*
X56429280Y-47010059D01*
X56429280Y-46439181D01*
X56210814Y-45911758D01*
X55807142Y-45508086D01*
X55279719Y-45289620D01*
X54708841Y-45289620D01*
X54181418Y-45508086D01*
X53777746Y-45911758D01*
X53559280Y-46439181D01*
X53029280Y-46439181D01*
X52810814Y-45911758D01*
X52407142Y-45508086D01*
X51879719Y-45289620D01*
X51308841Y-45289620D01*
X50781418Y-45508086D01*
X50377746Y-45911758D01*
X50159280Y-46439181D01*
X42970300Y-46439181D01*
X42970300Y-46030721D01*
X42751834Y-45503298D01*
X42348162Y-45099626D01*
X41820739Y-44881160D01*
X41249861Y-44881160D01*
X40722438Y-45099626D01*
X40318766Y-45503298D01*
X40100300Y-46030721D01*
X39491920Y-46030721D01*
X39491920Y-44472330D01*
X65170480Y-44472330D01*
X65170480Y-45082990D01*
X65404170Y-45647167D01*
X65835973Y-46078970D01*
X66400150Y-46312660D01*
X67010810Y-46312660D01*
X67574987Y-46078970D01*
X68006790Y-45647167D01*
X68240480Y-45082990D01*
X68240480Y-44472330D01*
X72790480Y-44472330D01*
X72790480Y-45082990D01*
X73024170Y-45647167D01*
X73455973Y-46078970D01*
X74020150Y-46312660D01*
X74630810Y-46312660D01*
X75194987Y-46078970D01*
X75626790Y-45647167D01*
X75860480Y-45082990D01*
X75860480Y-44472330D01*
X82950480Y-44472330D01*
X82950480Y-45082990D01*
X83184170Y-45647167D01*
X83615973Y-46078970D01*
X83779493Y-46146702D01*
X83815545Y-46327948D01*
X83933056Y-46503816D01*
X83933059Y-46503819D01*
X83972735Y-46563198D01*
X84032114Y-46602874D01*
X85118526Y-47689287D01*
X85158202Y-47748666D01*
X85217581Y-47788342D01*
X85217583Y-47788344D01*
X85261338Y-47817580D01*
X85393452Y-47905856D01*
X85600902Y-47947120D01*
X85600906Y-47947120D01*
X85670948Y-47961052D01*
X85740990Y-47947120D01*
X87362259Y-47947120D01*
X87389423Y-48083685D01*
X87529771Y-48293729D01*
X87739815Y-48434077D01*
X87987580Y-48483360D01*
X89187580Y-48483360D01*
X89435345Y-48434077D01*
X89645389Y-48293729D01*
X89785737Y-48083685D01*
X89813820Y-47942500D01*
X90438569Y-47942500D01*
X90604800Y-48108731D01*
X90985206Y-48266300D01*
X91396954Y-48266300D01*
X91777360Y-48108731D01*
X92068511Y-47817580D01*
X92226080Y-47437174D01*
X92226080Y-47025426D01*
X92068511Y-46645020D01*
X91777360Y-46353869D01*
X91396954Y-46196300D01*
X90985206Y-46196300D01*
X90604800Y-46353869D01*
X90438569Y-46520100D01*
X89811982Y-46520100D01*
X89785737Y-46388155D01*
X89645389Y-46178111D01*
X89435345Y-46037763D01*
X89187580Y-45988480D01*
X87987580Y-45988480D01*
X87739815Y-46037763D01*
X87529771Y-46178111D01*
X87389423Y-46388155D01*
X87362259Y-46524720D01*
X85965537Y-46524720D01*
X85437387Y-45996570D01*
X85786790Y-45647167D01*
X86020480Y-45082990D01*
X86020480Y-44472330D01*
X85786790Y-43908153D01*
X85354987Y-43476350D01*
X84790810Y-43242660D01*
X84180150Y-43242660D01*
X83615973Y-43476350D01*
X83184170Y-43908153D01*
X82950480Y-44472330D01*
X75860480Y-44472330D01*
X75626790Y-43908153D01*
X75194987Y-43476350D01*
X74630810Y-43242660D01*
X74020150Y-43242660D01*
X73455973Y-43476350D01*
X73024170Y-43908153D01*
X72790480Y-44472330D01*
X68240480Y-44472330D01*
X68006790Y-43908153D01*
X67574987Y-43476350D01*
X67010810Y-43242660D01*
X66400150Y-43242660D01*
X65835973Y-43476350D01*
X65404170Y-43908153D01*
X65170480Y-44472330D01*
X39491920Y-44472330D01*
X39491920Y-41878778D01*
X122724960Y-41878778D01*
X122724960Y-42389982D01*
X122920589Y-42862274D01*
X123282066Y-43223751D01*
X123754358Y-43419380D01*
X124265562Y-43419380D01*
X124737854Y-43223751D01*
X125099331Y-42862274D01*
X125279960Y-42426195D01*
X125460589Y-42862274D01*
X125822066Y-43223751D01*
X126294358Y-43419380D01*
X126805562Y-43419380D01*
X127277854Y-43223751D01*
X127639331Y-42862274D01*
X127819960Y-42426195D01*
X128000589Y-42862274D01*
X128362066Y-43223751D01*
X128834358Y-43419380D01*
X129345562Y-43419380D01*
X129817854Y-43223751D01*
X130179331Y-42862274D01*
X130359960Y-42426195D01*
X130540589Y-42862274D01*
X130902066Y-43223751D01*
X131374358Y-43419380D01*
X131885562Y-43419380D01*
X132357854Y-43223751D01*
X132719331Y-42862274D01*
X132899960Y-42426195D01*
X133080589Y-42862274D01*
X133442066Y-43223751D01*
X133914358Y-43419380D01*
X134425562Y-43419380D01*
X134897854Y-43223751D01*
X135259331Y-42862274D01*
X135439960Y-42426195D01*
X135620589Y-42862274D01*
X135982066Y-43223751D01*
X136454358Y-43419380D01*
X136965562Y-43419380D01*
X137437854Y-43223751D01*
X137799331Y-42862274D01*
X137979960Y-42426195D01*
X138160589Y-42862274D01*
X138522066Y-43223751D01*
X138994358Y-43419380D01*
X139505562Y-43419380D01*
X139977854Y-43223751D01*
X140339331Y-42862274D01*
X140519960Y-42426195D01*
X140700589Y-42862274D01*
X141062066Y-43223751D01*
X141534358Y-43419380D01*
X142045562Y-43419380D01*
X142517854Y-43223751D01*
X142879331Y-42862274D01*
X143059960Y-42426195D01*
X143240589Y-42862274D01*
X143602066Y-43223751D01*
X144074358Y-43419380D01*
X144585562Y-43419380D01*
X145057854Y-43223751D01*
X145419331Y-42862274D01*
X145614960Y-42389982D01*
X145614960Y-41878778D01*
X145419331Y-41406486D01*
X145057854Y-41045009D01*
X144585562Y-40849380D01*
X144074358Y-40849380D01*
X143602066Y-41045009D01*
X143240589Y-41406486D01*
X143059960Y-41842565D01*
X142879331Y-41406486D01*
X142517854Y-41045009D01*
X142045562Y-40849380D01*
X141534358Y-40849380D01*
X141062066Y-41045009D01*
X140700589Y-41406486D01*
X140519960Y-41842565D01*
X140339331Y-41406486D01*
X139977854Y-41045009D01*
X139505562Y-40849380D01*
X138994358Y-40849380D01*
X138522066Y-41045009D01*
X138160589Y-41406486D01*
X137979960Y-41842565D01*
X137799331Y-41406486D01*
X137437854Y-41045009D01*
X136965562Y-40849380D01*
X136454358Y-40849380D01*
X135982066Y-41045009D01*
X135620589Y-41406486D01*
X135439960Y-41842565D01*
X135259331Y-41406486D01*
X134897854Y-41045009D01*
X134425562Y-40849380D01*
X133914358Y-40849380D01*
X133442066Y-41045009D01*
X133080589Y-41406486D01*
X132899960Y-41842565D01*
X132719331Y-41406486D01*
X132357854Y-41045009D01*
X131885562Y-40849380D01*
X131374358Y-40849380D01*
X130902066Y-41045009D01*
X130540589Y-41406486D01*
X130359960Y-41842565D01*
X130179331Y-41406486D01*
X129817854Y-41045009D01*
X129345562Y-40849380D01*
X128834358Y-40849380D01*
X128362066Y-41045009D01*
X128000589Y-41406486D01*
X127819960Y-41842565D01*
X127639331Y-41406486D01*
X127277854Y-41045009D01*
X126805562Y-40849380D01*
X126294358Y-40849380D01*
X125822066Y-41045009D01*
X125460589Y-41406486D01*
X125279960Y-41842565D01*
X125099331Y-41406486D01*
X124737854Y-41045009D01*
X124265562Y-40849380D01*
X123754358Y-40849380D01*
X123282066Y-41045009D01*
X122920589Y-41406486D01*
X122724960Y-41878778D01*
X39491920Y-41878778D01*
X39491920Y-39266178D01*
X90428300Y-39266178D01*
X90428300Y-39916622D01*
X90677214Y-40517553D01*
X91137147Y-40977486D01*
X91738078Y-41226400D01*
X92388522Y-41226400D01*
X92989453Y-40977486D01*
X93449386Y-40517553D01*
X93698300Y-39916622D01*
X93698300Y-39338778D01*
X123994960Y-39338778D01*
X123994960Y-39849982D01*
X124190589Y-40322274D01*
X124552066Y-40683751D01*
X125024358Y-40879380D01*
X125535562Y-40879380D01*
X126007854Y-40683751D01*
X126369331Y-40322274D01*
X126549960Y-39886195D01*
X126730589Y-40322274D01*
X127092066Y-40683751D01*
X127564358Y-40879380D01*
X128075562Y-40879380D01*
X128547854Y-40683751D01*
X128909331Y-40322274D01*
X129089960Y-39886195D01*
X129270589Y-40322274D01*
X129632066Y-40683751D01*
X130104358Y-40879380D01*
X130615562Y-40879380D01*
X131087854Y-40683751D01*
X131449331Y-40322274D01*
X131629960Y-39886195D01*
X131810589Y-40322274D01*
X132172066Y-40683751D01*
X132644358Y-40879380D01*
X133155562Y-40879380D01*
X133627854Y-40683751D01*
X133989331Y-40322274D01*
X134169960Y-39886195D01*
X134350589Y-40322274D01*
X134712066Y-40683751D01*
X135184358Y-40879380D01*
X135695562Y-40879380D01*
X136167854Y-40683751D01*
X136529331Y-40322274D01*
X136709960Y-39886195D01*
X136890589Y-40322274D01*
X137252066Y-40683751D01*
X137724358Y-40879380D01*
X138235562Y-40879380D01*
X138707854Y-40683751D01*
X139069331Y-40322274D01*
X139249960Y-39886195D01*
X139430589Y-40322274D01*
X139792066Y-40683751D01*
X140264358Y-40879380D01*
X140775562Y-40879380D01*
X141247854Y-40683751D01*
X141609331Y-40322274D01*
X141789960Y-39886195D01*
X141970589Y-40322274D01*
X142332066Y-40683751D01*
X142804358Y-40879380D01*
X143315562Y-40879380D01*
X143787854Y-40683751D01*
X144149331Y-40322274D01*
X144329960Y-39886195D01*
X144510589Y-40322274D01*
X144872066Y-40683751D01*
X145344358Y-40879380D01*
X145855562Y-40879380D01*
X146327854Y-40683751D01*
X146689331Y-40322274D01*
X146869960Y-39886195D01*
X147050589Y-40322274D01*
X147412066Y-40683751D01*
X147884358Y-40879380D01*
X147983569Y-40879380D01*
X147904960Y-41069158D01*
X147904960Y-41719602D01*
X148153874Y-42320533D01*
X148613807Y-42780466D01*
X149214738Y-43029380D01*
X149865182Y-43029380D01*
X150466113Y-42780466D01*
X150926046Y-42320533D01*
X151133581Y-41819498D01*
X158646100Y-41819498D01*
X158646100Y-42330702D01*
X158841729Y-42802994D01*
X159203206Y-43164471D01*
X159675498Y-43360100D01*
X160186702Y-43360100D01*
X160658994Y-43164471D01*
X161020471Y-42802994D01*
X161201100Y-42366915D01*
X161381729Y-42802994D01*
X161743206Y-43164471D01*
X162215498Y-43360100D01*
X162726702Y-43360100D01*
X163198994Y-43164471D01*
X163560471Y-42802994D01*
X163741100Y-42366915D01*
X163921729Y-42802994D01*
X164283206Y-43164471D01*
X164755498Y-43360100D01*
X165266702Y-43360100D01*
X165738994Y-43164471D01*
X166100471Y-42802994D01*
X166296100Y-42330702D01*
X166296100Y-42262339D01*
X166754947Y-42721186D01*
X167355878Y-42970100D01*
X168006322Y-42970100D01*
X168607253Y-42721186D01*
X169067186Y-42261253D01*
X169316100Y-41660322D01*
X169316100Y-41009878D01*
X169067186Y-40408947D01*
X168607253Y-39949014D01*
X168006322Y-39700100D01*
X167566100Y-39700100D01*
X167566100Y-39279498D01*
X167370471Y-38807206D01*
X167008994Y-38445729D01*
X166536702Y-38250100D01*
X166025498Y-38250100D01*
X165553206Y-38445729D01*
X165191729Y-38807206D01*
X165011100Y-39243285D01*
X164830471Y-38807206D01*
X164468994Y-38445729D01*
X163996702Y-38250100D01*
X163485498Y-38250100D01*
X163013206Y-38445729D01*
X162651729Y-38807206D01*
X162471100Y-39243285D01*
X162290471Y-38807206D01*
X161928994Y-38445729D01*
X161456702Y-38250100D01*
X160945498Y-38250100D01*
X160473206Y-38445729D01*
X160111729Y-38807206D01*
X159916100Y-39279498D01*
X159916100Y-39790702D01*
X160111729Y-40262994D01*
X160473206Y-40624471D01*
X160945498Y-40820100D01*
X161456702Y-40820100D01*
X161928994Y-40624471D01*
X162290471Y-40262994D01*
X162471100Y-39826915D01*
X162651729Y-40262994D01*
X163013206Y-40624471D01*
X163485498Y-40820100D01*
X163996702Y-40820100D01*
X164468994Y-40624471D01*
X164830471Y-40262994D01*
X165011100Y-39826915D01*
X165191729Y-40262994D01*
X165553206Y-40624471D01*
X166025498Y-40820100D01*
X166124709Y-40820100D01*
X166046100Y-41009878D01*
X166046100Y-41292835D01*
X165738994Y-40985729D01*
X165266702Y-40790100D01*
X164755498Y-40790100D01*
X164283206Y-40985729D01*
X163921729Y-41347206D01*
X163741100Y-41783285D01*
X163560471Y-41347206D01*
X163198994Y-40985729D01*
X162726702Y-40790100D01*
X162215498Y-40790100D01*
X161743206Y-40985729D01*
X161381729Y-41347206D01*
X161201100Y-41783285D01*
X161020471Y-41347206D01*
X160658994Y-40985729D01*
X160186702Y-40790100D01*
X159675498Y-40790100D01*
X159203206Y-40985729D01*
X158841729Y-41347206D01*
X158646100Y-41819498D01*
X151133581Y-41819498D01*
X151174960Y-41719602D01*
X151174960Y-41069158D01*
X150926046Y-40468227D01*
X150466113Y-40008294D01*
X149865182Y-39759380D01*
X149424960Y-39759380D01*
X149424960Y-39338778D01*
X149229331Y-38866486D01*
X148867854Y-38505009D01*
X148395562Y-38309380D01*
X147884358Y-38309380D01*
X147412066Y-38505009D01*
X147050589Y-38866486D01*
X146869960Y-39302565D01*
X146689331Y-38866486D01*
X146327854Y-38505009D01*
X145855562Y-38309380D01*
X145344358Y-38309380D01*
X144872066Y-38505009D01*
X144510589Y-38866486D01*
X144329960Y-39302565D01*
X144149331Y-38866486D01*
X143787854Y-38505009D01*
X143315562Y-38309380D01*
X142804358Y-38309380D01*
X142332066Y-38505009D01*
X141970589Y-38866486D01*
X141789960Y-39302565D01*
X141609331Y-38866486D01*
X141247854Y-38505009D01*
X140775562Y-38309380D01*
X140264358Y-38309380D01*
X139792066Y-38505009D01*
X139430589Y-38866486D01*
X139249960Y-39302565D01*
X139069331Y-38866486D01*
X138707854Y-38505009D01*
X138235562Y-38309380D01*
X137724358Y-38309380D01*
X137252066Y-38505009D01*
X136890589Y-38866486D01*
X136709960Y-39302565D01*
X136529331Y-38866486D01*
X136167854Y-38505009D01*
X135695562Y-38309380D01*
X135184358Y-38309380D01*
X134712066Y-38505009D01*
X134350589Y-38866486D01*
X134169960Y-39302565D01*
X133989331Y-38866486D01*
X133627854Y-38505009D01*
X133155562Y-38309380D01*
X132644358Y-38309380D01*
X132172066Y-38505009D01*
X131810589Y-38866486D01*
X131629960Y-39302565D01*
X131449331Y-38866486D01*
X131087854Y-38505009D01*
X130615562Y-38309380D01*
X130104358Y-38309380D01*
X129632066Y-38505009D01*
X129270589Y-38866486D01*
X129089960Y-39302565D01*
X128909331Y-38866486D01*
X128547854Y-38505009D01*
X128075562Y-38309380D01*
X127564358Y-38309380D01*
X127092066Y-38505009D01*
X126730589Y-38866486D01*
X126549960Y-39302565D01*
X126369331Y-38866486D01*
X126007854Y-38505009D01*
X125535562Y-38309380D01*
X125024358Y-38309380D01*
X124552066Y-38505009D01*
X124190589Y-38866486D01*
X123994960Y-39338778D01*
X93698300Y-39338778D01*
X93698300Y-39266178D01*
X93449386Y-38665247D01*
X92989453Y-38205314D01*
X92388522Y-37956400D01*
X91738078Y-37956400D01*
X91137147Y-38205314D01*
X90677214Y-38665247D01*
X90428300Y-39266178D01*
X39491920Y-39266178D01*
X39491920Y-37939366D01*
X39653920Y-38101366D01*
X40438622Y-38426400D01*
X41287978Y-38426400D01*
X42072680Y-38101366D01*
X42673266Y-37500780D01*
X42863300Y-37041997D01*
X43053334Y-37500780D01*
X43653920Y-38101366D01*
X44438622Y-38426400D01*
X45287978Y-38426400D01*
X46072680Y-38101366D01*
X46673266Y-37500780D01*
X46863300Y-37041997D01*
X47053334Y-37500780D01*
X47653920Y-38101366D01*
X48438622Y-38426400D01*
X49287978Y-38426400D01*
X50072680Y-38101366D01*
X50673266Y-37500780D01*
X50863300Y-37041997D01*
X51053334Y-37500780D01*
X51653920Y-38101366D01*
X52438622Y-38426400D01*
X53287978Y-38426400D01*
X54072680Y-38101366D01*
X54673266Y-37500780D01*
X54863300Y-37041997D01*
X55053334Y-37500780D01*
X55653920Y-38101366D01*
X56438622Y-38426400D01*
X57287978Y-38426400D01*
X58072680Y-38101366D01*
X58673266Y-37500780D01*
X58863300Y-37041997D01*
X59053334Y-37500780D01*
X59653920Y-38101366D01*
X60438622Y-38426400D01*
X61287978Y-38426400D01*
X62072680Y-38101366D01*
X62673266Y-37500780D01*
X62863300Y-37041997D01*
X63053334Y-37500780D01*
X63653920Y-38101366D01*
X64438622Y-38426400D01*
X65287978Y-38426400D01*
X66072680Y-38101366D01*
X66673266Y-37500780D01*
X66863300Y-37041997D01*
X67053334Y-37500780D01*
X67653920Y-38101366D01*
X68438622Y-38426400D01*
X69287978Y-38426400D01*
X70072680Y-38101366D01*
X70673266Y-37500780D01*
X70863300Y-37041997D01*
X71053334Y-37500780D01*
X71653920Y-38101366D01*
X72438622Y-38426400D01*
X73287978Y-38426400D01*
X74072680Y-38101366D01*
X74673266Y-37500780D01*
X74998300Y-36716078D01*
X74998300Y-35866722D01*
X78728300Y-35866722D01*
X78728300Y-36716078D01*
X79053334Y-37500780D01*
X79653920Y-38101366D01*
X80438622Y-38426400D01*
X81287978Y-38426400D01*
X82072680Y-38101366D01*
X82673266Y-37500780D01*
X82998300Y-36716078D01*
X82998300Y-35866722D01*
X82673266Y-35082020D01*
X82072680Y-34481434D01*
X81287978Y-34156400D01*
X80438622Y-34156400D01*
X79653920Y-34481434D01*
X79053334Y-35082020D01*
X78728300Y-35866722D01*
X74998300Y-35866722D01*
X74673266Y-35082020D01*
X74072680Y-34481434D01*
X73287978Y-34156400D01*
X72438622Y-34156400D01*
X71653920Y-34481434D01*
X71053334Y-35082020D01*
X70863300Y-35540803D01*
X70673266Y-35082020D01*
X70072680Y-34481434D01*
X69287978Y-34156400D01*
X68438622Y-34156400D01*
X67653920Y-34481434D01*
X67053334Y-35082020D01*
X66863300Y-35540803D01*
X66673266Y-35082020D01*
X66072680Y-34481434D01*
X65287978Y-34156400D01*
X64438622Y-34156400D01*
X63653920Y-34481434D01*
X63053334Y-35082020D01*
X62863300Y-35540803D01*
X62673266Y-35082020D01*
X62072680Y-34481434D01*
X61287978Y-34156400D01*
X60438622Y-34156400D01*
X59653920Y-34481434D01*
X59053334Y-35082020D01*
X58863300Y-35540803D01*
X58673266Y-35082020D01*
X58072680Y-34481434D01*
X57287978Y-34156400D01*
X56438622Y-34156400D01*
X55653920Y-34481434D01*
X55053334Y-35082020D01*
X54863300Y-35540803D01*
X54673266Y-35082020D01*
X54072680Y-34481434D01*
X53287978Y-34156400D01*
X52438622Y-34156400D01*
X51653920Y-34481434D01*
X51053334Y-35082020D01*
X50863300Y-35540803D01*
X50673266Y-35082020D01*
X50072680Y-34481434D01*
X49287978Y-34156400D01*
X48438622Y-34156400D01*
X47653920Y-34481434D01*
X47053334Y-35082020D01*
X46863300Y-35540803D01*
X46673266Y-35082020D01*
X46072680Y-34481434D01*
X45287978Y-34156400D01*
X44438622Y-34156400D01*
X43653920Y-34481434D01*
X43053334Y-35082020D01*
X42863300Y-35540803D01*
X42673266Y-35082020D01*
X42072680Y-34481434D01*
X41287978Y-34156400D01*
X40438622Y-34156400D01*
X39653920Y-34481434D01*
X39491920Y-34643434D01*
X39491920Y-34341925D01*
X40072680Y-34101366D01*
X40673266Y-33500780D01*
X40863300Y-33041997D01*
X41053334Y-33500780D01*
X41653920Y-34101366D01*
X42438622Y-34426400D01*
X43287978Y-34426400D01*
X44072680Y-34101366D01*
X44673266Y-33500780D01*
X44863300Y-33041997D01*
X45053334Y-33500780D01*
X45653920Y-34101366D01*
X46438622Y-34426400D01*
X47287978Y-34426400D01*
X48072680Y-34101366D01*
X48673266Y-33500780D01*
X48863300Y-33041997D01*
X49053334Y-33500780D01*
X49653920Y-34101366D01*
X50438622Y-34426400D01*
X51287978Y-34426400D01*
X52072680Y-34101366D01*
X52673266Y-33500780D01*
X52863300Y-33041997D01*
X53053334Y-33500780D01*
X53653920Y-34101366D01*
X54438622Y-34426400D01*
X55287978Y-34426400D01*
X56072680Y-34101366D01*
X56673266Y-33500780D01*
X56863300Y-33041997D01*
X57053334Y-33500780D01*
X57653920Y-34101366D01*
X58438622Y-34426400D01*
X59287978Y-34426400D01*
X60072680Y-34101366D01*
X60673266Y-33500780D01*
X60998300Y-32716078D01*
X60998300Y-31866722D01*
X64728300Y-31866722D01*
X64728300Y-32716078D01*
X65053334Y-33500780D01*
X65653920Y-34101366D01*
X66438622Y-34426400D01*
X67287978Y-34426400D01*
X68072680Y-34101366D01*
X68673266Y-33500780D01*
X68863300Y-33041997D01*
X69053334Y-33500780D01*
X69653920Y-34101366D01*
X70438622Y-34426400D01*
X71287978Y-34426400D01*
X72072680Y-34101366D01*
X72673266Y-33500780D01*
X72863300Y-33041997D01*
X73053334Y-33500780D01*
X73653920Y-34101366D01*
X74438622Y-34426400D01*
X75287978Y-34426400D01*
X76072680Y-34101366D01*
X76673266Y-33500780D01*
X76863300Y-33041997D01*
X77053334Y-33500780D01*
X77653920Y-34101366D01*
X78438622Y-34426400D01*
X79287978Y-34426400D01*
X80072680Y-34101366D01*
X80673266Y-33500780D01*
X80998300Y-32716078D01*
X80998300Y-32381640D01*
X85303300Y-32381640D01*
X85303300Y-33201160D01*
X85616916Y-33958296D01*
X86196404Y-34537784D01*
X86953540Y-34851400D01*
X87773060Y-34851400D01*
X88530196Y-34537784D01*
X89109684Y-33958296D01*
X89423300Y-33201160D01*
X89423300Y-32579406D01*
X130688700Y-32579406D01*
X130688700Y-33130394D01*
X130899553Y-33639440D01*
X131289160Y-34029047D01*
X131798206Y-34239900D01*
X132349194Y-34239900D01*
X132858240Y-34029047D01*
X133247847Y-33639440D01*
X133343700Y-33408030D01*
X133439553Y-33639440D01*
X133829160Y-34029047D01*
X134338206Y-34239900D01*
X134889194Y-34239900D01*
X135398240Y-34029047D01*
X135787847Y-33639440D01*
X135998700Y-33130394D01*
X135998700Y-32579406D01*
X141248700Y-32579406D01*
X141248700Y-33130394D01*
X141459553Y-33639440D01*
X141849160Y-34029047D01*
X142358206Y-34239900D01*
X142909194Y-34239900D01*
X143418240Y-34029047D01*
X143807847Y-33639440D01*
X143903700Y-33408030D01*
X143999553Y-33639440D01*
X144389160Y-34029047D01*
X144898206Y-34239900D01*
X145449194Y-34239900D01*
X145958240Y-34029047D01*
X146347847Y-33639440D01*
X146558700Y-33130394D01*
X146558700Y-32579406D01*
X146347847Y-32070360D01*
X145958240Y-31680753D01*
X145449194Y-31469900D01*
X144898206Y-31469900D01*
X144389160Y-31680753D01*
X143999553Y-32070360D01*
X143903700Y-32301770D01*
X143807847Y-32070360D01*
X143418240Y-31680753D01*
X142909194Y-31469900D01*
X142358206Y-31469900D01*
X141849160Y-31680753D01*
X141459553Y-32070360D01*
X141248700Y-32579406D01*
X135998700Y-32579406D01*
X135787847Y-32070360D01*
X135398240Y-31680753D01*
X134889194Y-31469900D01*
X134338206Y-31469900D01*
X133829160Y-31680753D01*
X133439553Y-32070360D01*
X133343700Y-32301770D01*
X133247847Y-32070360D01*
X132858240Y-31680753D01*
X132349194Y-31469900D01*
X131798206Y-31469900D01*
X131289160Y-31680753D01*
X130899553Y-32070360D01*
X130688700Y-32579406D01*
X89423300Y-32579406D01*
X89423300Y-32381640D01*
X89109684Y-31624504D01*
X88530196Y-31045016D01*
X87773060Y-30731400D01*
X86953540Y-30731400D01*
X86196404Y-31045016D01*
X85616916Y-31624504D01*
X85303300Y-32381640D01*
X80998300Y-32381640D01*
X80998300Y-31866722D01*
X80673266Y-31082020D01*
X80072680Y-30481434D01*
X79287978Y-30156400D01*
X78438622Y-30156400D01*
X77653920Y-30481434D01*
X77053334Y-31082020D01*
X76863300Y-31540803D01*
X76673266Y-31082020D01*
X76072680Y-30481434D01*
X75287978Y-30156400D01*
X74438622Y-30156400D01*
X73653920Y-30481434D01*
X73053334Y-31082020D01*
X72863300Y-31540803D01*
X72673266Y-31082020D01*
X72072680Y-30481434D01*
X71287978Y-30156400D01*
X70438622Y-30156400D01*
X69653920Y-30481434D01*
X69053334Y-31082020D01*
X68863300Y-31540803D01*
X68673266Y-31082020D01*
X68072680Y-30481434D01*
X67287978Y-30156400D01*
X66438622Y-30156400D01*
X65653920Y-30481434D01*
X65053334Y-31082020D01*
X64728300Y-31866722D01*
X60998300Y-31866722D01*
X60673266Y-31082020D01*
X60072680Y-30481434D01*
X59287978Y-30156400D01*
X58438622Y-30156400D01*
X57653920Y-30481434D01*
X57053334Y-31082020D01*
X56863300Y-31540803D01*
X56673266Y-31082020D01*
X56072680Y-30481434D01*
X55287978Y-30156400D01*
X54438622Y-30156400D01*
X53653920Y-30481434D01*
X53053334Y-31082020D01*
X52863300Y-31540803D01*
X52673266Y-31082020D01*
X52072680Y-30481434D01*
X51287978Y-30156400D01*
X50438622Y-30156400D01*
X49653920Y-30481434D01*
X49053334Y-31082020D01*
X48863300Y-31540803D01*
X48673266Y-31082020D01*
X48072680Y-30481434D01*
X47287978Y-30156400D01*
X46438622Y-30156400D01*
X45653920Y-30481434D01*
X45053334Y-31082020D01*
X44863300Y-31540803D01*
X44673266Y-31082020D01*
X44072680Y-30481434D01*
X43287978Y-30156400D01*
X42438622Y-30156400D01*
X41653920Y-30481434D01*
X41053334Y-31082020D01*
X40863300Y-31540803D01*
X40673266Y-31082020D01*
X40072680Y-30481434D01*
X39287978Y-30156400D01*
X38438622Y-30156400D01*
X37653920Y-30481434D01*
X37053334Y-31082020D01*
X36728300Y-31866722D01*
X36728300Y-32716078D01*
X37053334Y-33500780D01*
X37331988Y-33779434D01*
X32199732Y-33740902D01*
X32423300Y-33201160D01*
X32423300Y-32381640D01*
X32109684Y-31624504D01*
X31530196Y-31045016D01*
X30773060Y-30731400D01*
X29953540Y-30731400D01*
X29196404Y-31045016D01*
X28616916Y-31624504D01*
X28303300Y-32381640D01*
X28303300Y-33201160D01*
X28515411Y-33713240D01*
X18518799Y-33638187D01*
X18618637Y-27866722D01*
X34728300Y-27866722D01*
X34728300Y-28716078D01*
X35053334Y-29500780D01*
X35653920Y-30101366D01*
X36438622Y-30426400D01*
X37287978Y-30426400D01*
X38072680Y-30101366D01*
X38673266Y-29500780D01*
X38998300Y-28716078D01*
X38998300Y-27866722D01*
X42728300Y-27866722D01*
X42728300Y-28716078D01*
X43053334Y-29500780D01*
X43653920Y-30101366D01*
X44438622Y-30426400D01*
X45287978Y-30426400D01*
X46072680Y-30101366D01*
X46673266Y-29500780D01*
X46863300Y-29041997D01*
X47053334Y-29500780D01*
X47653920Y-30101366D01*
X48438622Y-30426400D01*
X49287978Y-30426400D01*
X50072680Y-30101366D01*
X50673266Y-29500780D01*
X50863300Y-29041997D01*
X51053334Y-29500780D01*
X51653920Y-30101366D01*
X52438622Y-30426400D01*
X53287978Y-30426400D01*
X54072680Y-30101366D01*
X54673266Y-29500780D01*
X54863300Y-29041997D01*
X55053334Y-29500780D01*
X55653920Y-30101366D01*
X56438622Y-30426400D01*
X57287978Y-30426400D01*
X58072680Y-30101366D01*
X58673266Y-29500780D01*
X58863300Y-29041997D01*
X59053334Y-29500780D01*
X59653920Y-30101366D01*
X60438622Y-30426400D01*
X61287978Y-30426400D01*
X62072680Y-30101366D01*
X62673266Y-29500780D01*
X62863300Y-29041997D01*
X63053334Y-29500780D01*
X63653920Y-30101366D01*
X64438622Y-30426400D01*
X65287978Y-30426400D01*
X66072680Y-30101366D01*
X66673266Y-29500780D01*
X66863300Y-29041997D01*
X67053334Y-29500780D01*
X67653920Y-30101366D01*
X68438622Y-30426400D01*
X69287978Y-30426400D01*
X70072680Y-30101366D01*
X70673266Y-29500780D01*
X70863300Y-29041997D01*
X71053334Y-29500780D01*
X71653920Y-30101366D01*
X72438622Y-30426400D01*
X73287978Y-30426400D01*
X74072680Y-30101366D01*
X74673266Y-29500780D01*
X74863300Y-29041997D01*
X75053334Y-29500780D01*
X75653920Y-30101366D01*
X76438622Y-30426400D01*
X77287978Y-30426400D01*
X78072680Y-30101366D01*
X78673266Y-29500780D01*
X78998300Y-28716078D01*
X78998300Y-27866722D01*
X78931349Y-27705086D01*
X129663700Y-27705086D01*
X129663700Y-28504714D01*
X129969704Y-29243473D01*
X130535127Y-29808896D01*
X131273886Y-30114900D01*
X132073514Y-30114900D01*
X132812273Y-29808896D01*
X133377696Y-29243473D01*
X133683700Y-28504714D01*
X133683700Y-27705086D01*
X133377696Y-26966327D01*
X132812273Y-26400904D01*
X132073514Y-26094900D01*
X131273886Y-26094900D01*
X130535127Y-26400904D01*
X129969704Y-26966327D01*
X129663700Y-27705086D01*
X78931349Y-27705086D01*
X78673266Y-27082020D01*
X78072680Y-26481434D01*
X77287978Y-26156400D01*
X76438622Y-26156400D01*
X75653920Y-26481434D01*
X75053334Y-27082020D01*
X74863300Y-27540803D01*
X74673266Y-27082020D01*
X74072680Y-26481434D01*
X73287978Y-26156400D01*
X72438622Y-26156400D01*
X71653920Y-26481434D01*
X71053334Y-27082020D01*
X70863300Y-27540803D01*
X70673266Y-27082020D01*
X70072680Y-26481434D01*
X69287978Y-26156400D01*
X68438622Y-26156400D01*
X67653920Y-26481434D01*
X67053334Y-27082020D01*
X66863300Y-27540803D01*
X66673266Y-27082020D01*
X66072680Y-26481434D01*
X65287978Y-26156400D01*
X64438622Y-26156400D01*
X63653920Y-26481434D01*
X63053334Y-27082020D01*
X62863300Y-27540803D01*
X62673266Y-27082020D01*
X62072680Y-26481434D01*
X61287978Y-26156400D01*
X60438622Y-26156400D01*
X59653920Y-26481434D01*
X59053334Y-27082020D01*
X58863300Y-27540803D01*
X58673266Y-27082020D01*
X58072680Y-26481434D01*
X57287978Y-26156400D01*
X56438622Y-26156400D01*
X55653920Y-26481434D01*
X55053334Y-27082020D01*
X54863300Y-27540803D01*
X54673266Y-27082020D01*
X54072680Y-26481434D01*
X53287978Y-26156400D01*
X52438622Y-26156400D01*
X51653920Y-26481434D01*
X51053334Y-27082020D01*
X50863300Y-27540803D01*
X50673266Y-27082020D01*
X50072680Y-26481434D01*
X49287978Y-26156400D01*
X48438622Y-26156400D01*
X47653920Y-26481434D01*
X47053334Y-27082020D01*
X46863300Y-27540803D01*
X46673266Y-27082020D01*
X46072680Y-26481434D01*
X45287978Y-26156400D01*
X44438622Y-26156400D01*
X43653920Y-26481434D01*
X43053334Y-27082020D01*
X42728300Y-27866722D01*
X38998300Y-27866722D01*
X38673266Y-27082020D01*
X38072680Y-26481434D01*
X37287978Y-26156400D01*
X36438622Y-26156400D01*
X35653920Y-26481434D01*
X35053334Y-27082020D01*
X34728300Y-27866722D01*
X18618637Y-27866722D01*
X18651803Y-25949406D01*
X134068700Y-25949406D01*
X134068700Y-26500394D01*
X134279553Y-27009440D01*
X134669160Y-27399047D01*
X135178206Y-27609900D01*
X135729194Y-27609900D01*
X136238240Y-27399047D01*
X136627847Y-27009440D01*
X136723700Y-26778030D01*
X136819553Y-27009440D01*
X137209160Y-27399047D01*
X137718206Y-27609900D01*
X138269194Y-27609900D01*
X138778240Y-27399047D01*
X139167847Y-27009440D01*
X139263700Y-26778030D01*
X139359553Y-27009440D01*
X139749160Y-27399047D01*
X140258206Y-27609900D01*
X140809194Y-27609900D01*
X141318240Y-27399047D01*
X141707847Y-27009440D01*
X141803700Y-26778030D01*
X141899553Y-27009440D01*
X142289160Y-27399047D01*
X142798206Y-27609900D01*
X143349194Y-27609900D01*
X143655718Y-27482934D01*
X143563700Y-27705086D01*
X143563700Y-28504714D01*
X143869704Y-29243473D01*
X144435127Y-29808896D01*
X145173886Y-30114900D01*
X145973514Y-30114900D01*
X146712273Y-29808896D01*
X147277696Y-29243473D01*
X147583700Y-28504714D01*
X147583700Y-27705086D01*
X147277696Y-26966327D01*
X146712273Y-26400904D01*
X145973514Y-26094900D01*
X145173886Y-26094900D01*
X144458700Y-26391140D01*
X144458700Y-25949406D01*
X144247847Y-25440360D01*
X143916837Y-25109350D01*
X158999100Y-25109350D01*
X158999100Y-25639850D01*
X159202113Y-26129967D01*
X159577233Y-26505087D01*
X160067350Y-26708100D01*
X160597850Y-26708100D01*
X161087967Y-26505087D01*
X161463087Y-26129967D01*
X161666100Y-25639850D01*
X161666100Y-25109350D01*
X162499100Y-25109350D01*
X162499100Y-25639850D01*
X162702113Y-26129967D01*
X163077233Y-26505087D01*
X163567350Y-26708100D01*
X164097850Y-26708100D01*
X164587967Y-26505087D01*
X164963087Y-26129967D01*
X165166100Y-25639850D01*
X165166100Y-25109350D01*
X165999100Y-25109350D01*
X165999100Y-25639850D01*
X166202113Y-26129967D01*
X166577233Y-26505087D01*
X167067350Y-26708100D01*
X167597850Y-26708100D01*
X168087967Y-26505087D01*
X168463087Y-26129967D01*
X168666100Y-25639850D01*
X168666100Y-25109350D01*
X168477179Y-24653255D01*
X168759268Y-24770100D01*
X169405932Y-24770100D01*
X169688021Y-24653255D01*
X169499100Y-25109350D01*
X169499100Y-25639850D01*
X169702113Y-26129967D01*
X170077233Y-26505087D01*
X170567350Y-26708100D01*
X171097850Y-26708100D01*
X171587967Y-26505087D01*
X171963087Y-26129967D01*
X172166100Y-25639850D01*
X172166100Y-25109350D01*
X171963087Y-24619233D01*
X171587967Y-24244113D01*
X171097850Y-24041100D01*
X170567350Y-24041100D01*
X170426606Y-24099398D01*
X170460632Y-24065372D01*
X170708100Y-23467932D01*
X170708100Y-22821268D01*
X170460632Y-22223828D01*
X170003372Y-21766568D01*
X169405932Y-21519100D01*
X168759268Y-21519100D01*
X168161828Y-21766568D01*
X167704568Y-22223828D01*
X167457100Y-22821268D01*
X167457100Y-23467932D01*
X167704568Y-24065372D01*
X167738594Y-24099398D01*
X167597850Y-24041100D01*
X167067350Y-24041100D01*
X166577233Y-24244113D01*
X166202113Y-24619233D01*
X165999100Y-25109350D01*
X165166100Y-25109350D01*
X164963087Y-24619233D01*
X164587967Y-24244113D01*
X164097850Y-24041100D01*
X163567350Y-24041100D01*
X163077233Y-24244113D01*
X162702113Y-24619233D01*
X162499100Y-25109350D01*
X161666100Y-25109350D01*
X161463087Y-24619233D01*
X161087967Y-24244113D01*
X160597850Y-24041100D01*
X160067350Y-24041100D01*
X159577233Y-24244113D01*
X159202113Y-24619233D01*
X158999100Y-25109350D01*
X143916837Y-25109350D01*
X143858240Y-25050753D01*
X143349194Y-24839900D01*
X142798206Y-24839900D01*
X142289160Y-25050753D01*
X141899553Y-25440360D01*
X141803700Y-25671770D01*
X141707847Y-25440360D01*
X141318240Y-25050753D01*
X140809194Y-24839900D01*
X140258206Y-24839900D01*
X139749160Y-25050753D01*
X139359553Y-25440360D01*
X139263700Y-25671770D01*
X139167847Y-25440360D01*
X138778240Y-25050753D01*
X138269194Y-24839900D01*
X137718206Y-24839900D01*
X137209160Y-25050753D01*
X136819553Y-25440360D01*
X136723700Y-25671770D01*
X136627847Y-25440360D01*
X136238240Y-25050753D01*
X135729194Y-24839900D01*
X135178206Y-24839900D01*
X134669160Y-25050753D01*
X134279553Y-25440360D01*
X134068700Y-25949406D01*
X18651803Y-25949406D01*
X18695742Y-23409406D01*
X132798700Y-23409406D01*
X132798700Y-23960394D01*
X133009553Y-24469440D01*
X133399160Y-24859047D01*
X133908206Y-25069900D01*
X134459194Y-25069900D01*
X134968240Y-24859047D01*
X135357847Y-24469440D01*
X135453700Y-24238030D01*
X135549553Y-24469440D01*
X135939160Y-24859047D01*
X136448206Y-25069900D01*
X136999194Y-25069900D01*
X137508240Y-24859047D01*
X137897847Y-24469440D01*
X137993700Y-24238030D01*
X138089553Y-24469440D01*
X138479160Y-24859047D01*
X138988206Y-25069900D01*
X139539194Y-25069900D01*
X140048240Y-24859047D01*
X140437847Y-24469440D01*
X140533700Y-24238030D01*
X140629553Y-24469440D01*
X141019160Y-24859047D01*
X141528206Y-25069900D01*
X142079194Y-25069900D01*
X142588240Y-24859047D01*
X142977847Y-24469440D01*
X143188700Y-23960394D01*
X143188700Y-23409406D01*
X142977847Y-22900360D01*
X142588240Y-22510753D01*
X142079194Y-22299900D01*
X141528206Y-22299900D01*
X141019160Y-22510753D01*
X140629553Y-22900360D01*
X140533700Y-23131770D01*
X140437847Y-22900360D01*
X140048240Y-22510753D01*
X139539194Y-22299900D01*
X138988206Y-22299900D01*
X138479160Y-22510753D01*
X138089553Y-22900360D01*
X137993700Y-23131770D01*
X137897847Y-22900360D01*
X137508240Y-22510753D01*
X136999194Y-22299900D01*
X136448206Y-22299900D01*
X135939160Y-22510753D01*
X135549553Y-22900360D01*
X135453700Y-23131770D01*
X135357847Y-22900360D01*
X134968240Y-22510753D01*
X134459194Y-22299900D01*
X133908206Y-22299900D01*
X133399160Y-22510753D01*
X133009553Y-22900360D01*
X132798700Y-23409406D01*
X18695742Y-23409406D01*
X18734547Y-21166178D01*
X25528300Y-21166178D01*
X25528300Y-21816622D01*
X25777214Y-22417553D01*
X26237147Y-22877486D01*
X26838078Y-23126400D01*
X27488522Y-23126400D01*
X28089453Y-22877486D01*
X28549386Y-22417553D01*
X28798300Y-21816622D01*
X28798300Y-21166178D01*
X88928300Y-21166178D01*
X88928300Y-21816622D01*
X89177214Y-22417553D01*
X89637147Y-22877486D01*
X90238078Y-23126400D01*
X90888522Y-23126400D01*
X91489453Y-22877486D01*
X91949386Y-22417553D01*
X92198300Y-21816622D01*
X92198300Y-21166178D01*
X91949386Y-20565247D01*
X91489453Y-20105314D01*
X90888522Y-19856400D01*
X90238078Y-19856400D01*
X89637147Y-20105314D01*
X89177214Y-20565247D01*
X88928300Y-21166178D01*
X28798300Y-21166178D01*
X28549386Y-20565247D01*
X28089453Y-20105314D01*
X27488522Y-19856400D01*
X26838078Y-19856400D01*
X26237147Y-20105314D01*
X25777214Y-20565247D01*
X25528300Y-21166178D01*
X18734547Y-21166178D01*
X18831904Y-15538213D01*
X178282227Y-16851793D01*
X178282227Y-16851793D01*
G37*
X178282227Y-16851793D02*
X178290220Y-16859786D01*
X178290220Y-100060760D01*
X18755360Y-100060760D01*
X18755360Y-78433598D01*
X121803400Y-78433598D01*
X121803400Y-78944802D01*
X121999029Y-79417094D01*
X122360506Y-79778571D01*
X122832798Y-79974200D01*
X123344002Y-79974200D01*
X123816294Y-79778571D01*
X124177771Y-79417094D01*
X124358400Y-78981015D01*
X124539029Y-79417094D01*
X124900506Y-79778571D01*
X125372798Y-79974200D01*
X125884002Y-79974200D01*
X126356294Y-79778571D01*
X126717771Y-79417094D01*
X126898400Y-78981015D01*
X127079029Y-79417094D01*
X127440506Y-79778571D01*
X127912798Y-79974200D01*
X128424002Y-79974200D01*
X128896294Y-79778571D01*
X129257771Y-79417094D01*
X129438400Y-78981015D01*
X129619029Y-79417094D01*
X129980506Y-79778571D01*
X130452798Y-79974200D01*
X130964002Y-79974200D01*
X131436294Y-79778571D01*
X131797771Y-79417094D01*
X131978400Y-78981015D01*
X132159029Y-79417094D01*
X132520506Y-79778571D01*
X132992798Y-79974200D01*
X133504002Y-79974200D01*
X133976294Y-79778571D01*
X134337771Y-79417094D01*
X134518400Y-78981015D01*
X134699029Y-79417094D01*
X135060506Y-79778571D01*
X135532798Y-79974200D01*
X136044002Y-79974200D01*
X136516294Y-79778571D01*
X136877771Y-79417094D01*
X137058400Y-78981015D01*
X137239029Y-79417094D01*
X137600506Y-79778571D01*
X138072798Y-79974200D01*
X138584002Y-79974200D01*
X139056294Y-79778571D01*
X139417771Y-79417094D01*
X139598400Y-78981015D01*
X139779029Y-79417094D01*
X140140506Y-79778571D01*
X140612798Y-79974200D01*
X141124002Y-79974200D01*
X141596294Y-79778571D01*
X141957771Y-79417094D01*
X142138400Y-78981015D01*
X142319029Y-79417094D01*
X142680506Y-79778571D01*
X143152798Y-79974200D01*
X143664002Y-79974200D01*
X144136294Y-79778571D01*
X144497771Y-79417094D01*
X144693400Y-78944802D01*
X144693400Y-78433598D01*
X144497771Y-77961306D01*
X144136294Y-77599829D01*
X143664002Y-77404200D01*
X143152798Y-77404200D01*
X142680506Y-77599829D01*
X142319029Y-77961306D01*
X142138400Y-78397385D01*
X141957771Y-77961306D01*
X141596294Y-77599829D01*
X141124002Y-77404200D01*
X140612798Y-77404200D01*
X140140506Y-77599829D01*
X139779029Y-77961306D01*
X139598400Y-78397385D01*
X139417771Y-77961306D01*
X139056294Y-77599829D01*
X138584002Y-77404200D01*
X138072798Y-77404200D01*
X137600506Y-77599829D01*
X137239029Y-77961306D01*
X137058400Y-78397385D01*
X136877771Y-77961306D01*
X136516294Y-77599829D01*
X136044002Y-77404200D01*
X135532798Y-77404200D01*
X135060506Y-77599829D01*
X134699029Y-77961306D01*
X134518400Y-78397385D01*
X134337771Y-77961306D01*
X133976294Y-77599829D01*
X133504002Y-77404200D01*
X132992798Y-77404200D01*
X132520506Y-77599829D01*
X132159029Y-77961306D01*
X131978400Y-78397385D01*
X131797771Y-77961306D01*
X131436294Y-77599829D01*
X130964002Y-77404200D01*
X130452798Y-77404200D01*
X129980506Y-77599829D01*
X129619029Y-77961306D01*
X129438400Y-78397385D01*
X129257771Y-77961306D01*
X128896294Y-77599829D01*
X128424002Y-77404200D01*
X127912798Y-77404200D01*
X127440506Y-77599829D01*
X127079029Y-77961306D01*
X126898400Y-78397385D01*
X126717771Y-77961306D01*
X126356294Y-77599829D01*
X125884002Y-77404200D01*
X125372798Y-77404200D01*
X124900506Y-77599829D01*
X124539029Y-77961306D01*
X124358400Y-78397385D01*
X124177771Y-77961306D01*
X123816294Y-77599829D01*
X123344002Y-77404200D01*
X122832798Y-77404200D01*
X122360506Y-77599829D01*
X121999029Y-77961306D01*
X121803400Y-78433598D01*
X18755360Y-78433598D01*
X18755360Y-75893598D01*
X123073400Y-75893598D01*
X123073400Y-76404802D01*
X123269029Y-76877094D01*
X123630506Y-77238571D01*
X124102798Y-77434200D01*
X124614002Y-77434200D01*
X125086294Y-77238571D01*
X125447771Y-76877094D01*
X125628400Y-76441015D01*
X125809029Y-76877094D01*
X126170506Y-77238571D01*
X126642798Y-77434200D01*
X127154002Y-77434200D01*
X127626294Y-77238571D01*
X127987771Y-76877094D01*
X128168400Y-76441015D01*
X128349029Y-76877094D01*
X128710506Y-77238571D01*
X129182798Y-77434200D01*
X129694002Y-77434200D01*
X130166294Y-77238571D01*
X130527771Y-76877094D01*
X130708400Y-76441015D01*
X130889029Y-76877094D01*
X131250506Y-77238571D01*
X131722798Y-77434200D01*
X132234002Y-77434200D01*
X132706294Y-77238571D01*
X133067771Y-76877094D01*
X133248400Y-76441015D01*
X133429029Y-76877094D01*
X133790506Y-77238571D01*
X134262798Y-77434200D01*
X134774002Y-77434200D01*
X135246294Y-77238571D01*
X135607771Y-76877094D01*
X135788400Y-76441015D01*
X135969029Y-76877094D01*
X136330506Y-77238571D01*
X136802798Y-77434200D01*
X137314002Y-77434200D01*
X137786294Y-77238571D01*
X138147771Y-76877094D01*
X138328400Y-76441015D01*
X138509029Y-76877094D01*
X138870506Y-77238571D01*
X139342798Y-77434200D01*
X139854002Y-77434200D01*
X140326294Y-77238571D01*
X140687771Y-76877094D01*
X140868400Y-76441015D01*
X141049029Y-76877094D01*
X141410506Y-77238571D01*
X141882798Y-77434200D01*
X142394002Y-77434200D01*
X142866294Y-77238571D01*
X143227771Y-76877094D01*
X143408400Y-76441015D01*
X143589029Y-76877094D01*
X143950506Y-77238571D01*
X144422798Y-77434200D01*
X144934002Y-77434200D01*
X145406294Y-77238571D01*
X145767771Y-76877094D01*
X145948400Y-76441015D01*
X146129029Y-76877094D01*
X146490506Y-77238571D01*
X146962798Y-77434200D01*
X147062009Y-77434200D01*
X146983400Y-77623978D01*
X146983400Y-78274422D01*
X147232314Y-78875353D01*
X147692247Y-79335286D01*
X148293178Y-79584200D01*
X148943622Y-79584200D01*
X149544553Y-79335286D01*
X150004486Y-78875353D01*
X150253400Y-78274422D01*
X150253400Y-77623978D01*
X150004486Y-77023047D01*
X149544553Y-76563114D01*
X148943622Y-76314200D01*
X148503400Y-76314200D01*
X148503400Y-75893598D01*
X148307771Y-75421306D01*
X147946294Y-75059829D01*
X147474002Y-74864200D01*
X146962798Y-74864200D01*
X146490506Y-75059829D01*
X146129029Y-75421306D01*
X145948400Y-75857385D01*
X145767771Y-75421306D01*
X145406294Y-75059829D01*
X144934002Y-74864200D01*
X144422798Y-74864200D01*
X143950506Y-75059829D01*
X143589029Y-75421306D01*
X143408400Y-75857385D01*
X143227771Y-75421306D01*
X142866294Y-75059829D01*
X142394002Y-74864200D01*
X141882798Y-74864200D01*
X141410506Y-75059829D01*
X141049029Y-75421306D01*
X140868400Y-75857385D01*
X140687771Y-75421306D01*
X140326294Y-75059829D01*
X139854002Y-74864200D01*
X139342798Y-74864200D01*
X138870506Y-75059829D01*
X138509029Y-75421306D01*
X138328400Y-75857385D01*
X138147771Y-75421306D01*
X137786294Y-75059829D01*
X137314002Y-74864200D01*
X136802798Y-74864200D01*
X136330506Y-75059829D01*
X135969029Y-75421306D01*
X135788400Y-75857385D01*
X135607771Y-75421306D01*
X135246294Y-75059829D01*
X134774002Y-74864200D01*
X134262798Y-74864200D01*
X133790506Y-75059829D01*
X133429029Y-75421306D01*
X133248400Y-75857385D01*
X133067771Y-75421306D01*
X132706294Y-75059829D01*
X132234002Y-74864200D01*
X131722798Y-74864200D01*
X131250506Y-75059829D01*
X130889029Y-75421306D01*
X130708400Y-75857385D01*
X130527771Y-75421306D01*
X130166294Y-75059829D01*
X129694002Y-74864200D01*
X129182798Y-74864200D01*
X128710506Y-75059829D01*
X128349029Y-75421306D01*
X128168400Y-75857385D01*
X127987771Y-75421306D01*
X127626294Y-75059829D01*
X127154002Y-74864200D01*
X126642798Y-74864200D01*
X126170506Y-75059829D01*
X125809029Y-75421306D01*
X125628400Y-75857385D01*
X125447771Y-75421306D01*
X125086294Y-75059829D01*
X124614002Y-74864200D01*
X124102798Y-74864200D01*
X123630506Y-75059829D01*
X123269029Y-75421306D01*
X123073400Y-75893598D01*
X18755360Y-75893598D01*
X18755360Y-68084170D01*
X83118120Y-68084170D01*
X83118120Y-68694830D01*
X83351810Y-69259007D01*
X83783613Y-69690810D01*
X84347790Y-69924500D01*
X84958450Y-69924500D01*
X85116758Y-69858927D01*
X85920318Y-70662487D01*
X85959994Y-70721866D01*
X86019373Y-70761542D01*
X86019375Y-70761544D01*
X86195242Y-70879055D01*
X86195243Y-70879055D01*
X86195244Y-70879056D01*
X86402694Y-70920320D01*
X86402697Y-70920320D01*
X86472739Y-70934252D01*
X86542781Y-70920320D01*
X87512209Y-70920320D01*
X87610171Y-71066929D01*
X87820215Y-71207277D01*
X88067980Y-71256560D01*
X88967980Y-71256560D01*
X89215745Y-71207277D01*
X89425789Y-71066929D01*
X89566137Y-70856885D01*
X89615420Y-70609120D01*
X89615420Y-70020436D01*
X89820215Y-70157277D01*
X90067980Y-70206560D01*
X90967980Y-70206560D01*
X91215745Y-70157277D01*
X91425789Y-70016929D01*
X91469170Y-69952005D01*
X91488791Y-69981369D01*
X91698835Y-70121717D01*
X91946600Y-70171000D01*
X92846600Y-70171000D01*
X93094365Y-70121717D01*
X93304409Y-69981369D01*
X93399160Y-69839565D01*
X93399160Y-70473560D01*
X93448443Y-70721325D01*
X93588791Y-70931369D01*
X93798835Y-71071717D01*
X94046600Y-71121000D01*
X94946600Y-71121000D01*
X95194365Y-71071717D01*
X95393645Y-70938561D01*
X95518095Y-71021717D01*
X95765860Y-71071000D01*
X97065860Y-71071000D01*
X97313625Y-71021717D01*
X97504855Y-70893940D01*
X98315109Y-70893940D01*
X98430540Y-71009371D01*
X98810946Y-71166940D01*
X99222694Y-71166940D01*
X99603100Y-71009371D01*
X99894251Y-70718220D01*
X100051820Y-70337814D01*
X100051820Y-69926066D01*
X99894251Y-69545660D01*
X99603100Y-69254509D01*
X99222694Y-69096940D01*
X98810946Y-69096940D01*
X98430540Y-69254509D01*
X98315109Y-69369940D01*
X97593286Y-69369940D01*
X97523669Y-69265751D01*
X97313625Y-69125403D01*
X97304360Y-69123560D01*
X97313625Y-69121717D01*
X97523669Y-68981369D01*
X97664017Y-68771325D01*
X97713300Y-68523560D01*
X97713300Y-67823560D01*
X97664017Y-67575795D01*
X97523669Y-67365751D01*
X97383077Y-67271810D01*
X97466100Y-67071374D01*
X97466100Y-66659626D01*
X97308531Y-66279220D01*
X97232809Y-66203498D01*
X122501900Y-66203498D01*
X122501900Y-66714702D01*
X122697529Y-67186994D01*
X123059006Y-67548471D01*
X123531298Y-67744100D01*
X124042502Y-67744100D01*
X124514794Y-67548471D01*
X124876271Y-67186994D01*
X125056900Y-66750915D01*
X125237529Y-67186994D01*
X125599006Y-67548471D01*
X126071298Y-67744100D01*
X126582502Y-67744100D01*
X127054794Y-67548471D01*
X127416271Y-67186994D01*
X127596900Y-66750915D01*
X127777529Y-67186994D01*
X128139006Y-67548471D01*
X128611298Y-67744100D01*
X129122502Y-67744100D01*
X129594794Y-67548471D01*
X129956271Y-67186994D01*
X130136900Y-66750915D01*
X130317529Y-67186994D01*
X130679006Y-67548471D01*
X131151298Y-67744100D01*
X131662502Y-67744100D01*
X132134794Y-67548471D01*
X132496271Y-67186994D01*
X132676900Y-66750915D01*
X132857529Y-67186994D01*
X133219006Y-67548471D01*
X133691298Y-67744100D01*
X134202502Y-67744100D01*
X134674794Y-67548471D01*
X135036271Y-67186994D01*
X135216900Y-66750915D01*
X135397529Y-67186994D01*
X135759006Y-67548471D01*
X136231298Y-67744100D01*
X136742502Y-67744100D01*
X137214794Y-67548471D01*
X137576271Y-67186994D01*
X137756900Y-66750915D01*
X137937529Y-67186994D01*
X138299006Y-67548471D01*
X138771298Y-67744100D01*
X139282502Y-67744100D01*
X139754794Y-67548471D01*
X140116271Y-67186994D01*
X140296900Y-66750915D01*
X140477529Y-67186994D01*
X140839006Y-67548471D01*
X141311298Y-67744100D01*
X141822502Y-67744100D01*
X142294794Y-67548471D01*
X142656271Y-67186994D01*
X142836900Y-66750915D01*
X143017529Y-67186994D01*
X143379006Y-67548471D01*
X143851298Y-67744100D01*
X144362502Y-67744100D01*
X144834794Y-67548471D01*
X145196271Y-67186994D01*
X145391900Y-66714702D01*
X145391900Y-66203498D01*
X145196271Y-65731206D01*
X144834794Y-65369729D01*
X144362502Y-65174100D01*
X143851298Y-65174100D01*
X143379006Y-65369729D01*
X143017529Y-65731206D01*
X142836900Y-66167285D01*
X142656271Y-65731206D01*
X142294794Y-65369729D01*
X141822502Y-65174100D01*
X141311298Y-65174100D01*
X140839006Y-65369729D01*
X140477529Y-65731206D01*
X140296900Y-66167285D01*
X140116271Y-65731206D01*
X139754794Y-65369729D01*
X139282502Y-65174100D01*
X138771298Y-65174100D01*
X138299006Y-65369729D01*
X137937529Y-65731206D01*
X137756900Y-66167285D01*
X137576271Y-65731206D01*
X137214794Y-65369729D01*
X136742502Y-65174100D01*
X136231298Y-65174100D01*
X135759006Y-65369729D01*
X135397529Y-65731206D01*
X135216900Y-66167285D01*
X135036271Y-65731206D01*
X134674794Y-65369729D01*
X134202502Y-65174100D01*
X133691298Y-65174100D01*
X133219006Y-65369729D01*
X132857529Y-65731206D01*
X132676900Y-66167285D01*
X132496271Y-65731206D01*
X132134794Y-65369729D01*
X131662502Y-65174100D01*
X131151298Y-65174100D01*
X130679006Y-65369729D01*
X130317529Y-65731206D01*
X130136900Y-66167285D01*
X129956271Y-65731206D01*
X129594794Y-65369729D01*
X129122502Y-65174100D01*
X128611298Y-65174100D01*
X128139006Y-65369729D01*
X127777529Y-65731206D01*
X127596900Y-66167285D01*
X127416271Y-65731206D01*
X127054794Y-65369729D01*
X126582502Y-65174100D01*
X126071298Y-65174100D01*
X125599006Y-65369729D01*
X125237529Y-65731206D01*
X125056900Y-66167285D01*
X124876271Y-65731206D01*
X124514794Y-65369729D01*
X124042502Y-65174100D01*
X123531298Y-65174100D01*
X123059006Y-65369729D01*
X122697529Y-65731206D01*
X122501900Y-66203498D01*
X97232809Y-66203498D01*
X97017380Y-65988069D01*
X96636974Y-65830500D01*
X96225226Y-65830500D01*
X95844820Y-65988069D01*
X95553669Y-66279220D01*
X95396100Y-66659626D01*
X95396100Y-67071374D01*
X95472516Y-67255858D01*
X95393645Y-67308559D01*
X95194365Y-67175403D01*
X94946600Y-67126120D01*
X94046600Y-67126120D01*
X93798835Y-67175403D01*
X93588791Y-67315751D01*
X93448443Y-67525795D01*
X93399160Y-67773560D01*
X93399160Y-68407555D01*
X93304409Y-68265751D01*
X93094365Y-68125403D01*
X92846600Y-68076120D01*
X91946600Y-68076120D01*
X91698835Y-68125403D01*
X91488791Y-68265751D01*
X91445410Y-68330675D01*
X91425789Y-68301311D01*
X91280020Y-68203911D01*
X91280020Y-67430802D01*
X91376629Y-67366249D01*
X91516977Y-67156205D01*
X91566260Y-66908440D01*
X91566260Y-65608440D01*
X91516977Y-65360675D01*
X91376629Y-65150631D01*
X91166585Y-65010283D01*
X90918820Y-64961000D01*
X90218820Y-64961000D01*
X89971055Y-65010283D01*
X89761011Y-65150631D01*
X89620663Y-65360675D01*
X89571380Y-65608440D01*
X89571380Y-66908440D01*
X89620663Y-67156205D01*
X89761011Y-67366249D01*
X89857620Y-67430802D01*
X89857621Y-68153523D01*
X89820215Y-68160963D01*
X89610171Y-68301311D01*
X89469823Y-68511355D01*
X89420540Y-68759120D01*
X89420540Y-69347804D01*
X89215745Y-69210963D01*
X88967980Y-69161680D01*
X88067980Y-69161680D01*
X87820215Y-69210963D01*
X87610171Y-69351311D01*
X87512209Y-69497920D01*
X86767329Y-69497920D01*
X86122547Y-68853138D01*
X86188120Y-68694830D01*
X86188120Y-68084170D01*
X85954430Y-67519993D01*
X85522627Y-67088190D01*
X84958450Y-66854500D01*
X84347790Y-66854500D01*
X83783613Y-67088190D01*
X83351810Y-67519993D01*
X83118120Y-68084170D01*
X18755360Y-68084170D01*
X18755360Y-64561720D01*
X39364920Y-64561720D01*
X39413521Y-64552053D01*
X39454723Y-64524523D01*
X39482253Y-64483321D01*
X39491920Y-64434720D01*
X39491920Y-63663498D01*
X123771900Y-63663498D01*
X123771900Y-64174702D01*
X123967529Y-64646994D01*
X124329006Y-65008471D01*
X124801298Y-65204100D01*
X125312502Y-65204100D01*
X125784794Y-65008471D01*
X126146271Y-64646994D01*
X126326900Y-64210915D01*
X126507529Y-64646994D01*
X126869006Y-65008471D01*
X127341298Y-65204100D01*
X127852502Y-65204100D01*
X128324794Y-65008471D01*
X128686271Y-64646994D01*
X128866900Y-64210915D01*
X129047529Y-64646994D01*
X129409006Y-65008471D01*
X129881298Y-65204100D01*
X130392502Y-65204100D01*
X130864794Y-65008471D01*
X131226271Y-64646994D01*
X131406900Y-64210915D01*
X131587529Y-64646994D01*
X131949006Y-65008471D01*
X132421298Y-65204100D01*
X132932502Y-65204100D01*
X133404794Y-65008471D01*
X133766271Y-64646994D01*
X133946900Y-64210915D01*
X134127529Y-64646994D01*
X134489006Y-65008471D01*
X134961298Y-65204100D01*
X135472502Y-65204100D01*
X135944794Y-65008471D01*
X136306271Y-64646994D01*
X136486900Y-64210915D01*
X136667529Y-64646994D01*
X137029006Y-65008471D01*
X137501298Y-65204100D01*
X138012502Y-65204100D01*
X138484794Y-65008471D01*
X138846271Y-64646994D01*
X139026900Y-64210915D01*
X139207529Y-64646994D01*
X139569006Y-65008471D01*
X140041298Y-65204100D01*
X140552502Y-65204100D01*
X141024794Y-65008471D01*
X141386271Y-64646994D01*
X141566900Y-64210915D01*
X141747529Y-64646994D01*
X142109006Y-65008471D01*
X142581298Y-65204100D01*
X143092502Y-65204100D01*
X143564794Y-65008471D01*
X143926271Y-64646994D01*
X144106900Y-64210915D01*
X144287529Y-64646994D01*
X144649006Y-65008471D01*
X145121298Y-65204100D01*
X145632502Y-65204100D01*
X146104794Y-65008471D01*
X146466271Y-64646994D01*
X146646900Y-64210915D01*
X146827529Y-64646994D01*
X147189006Y-65008471D01*
X147661298Y-65204100D01*
X147760509Y-65204100D01*
X147681900Y-65393878D01*
X147681900Y-66044322D01*
X147930814Y-66645253D01*
X148390747Y-67105186D01*
X148991678Y-67354100D01*
X149642122Y-67354100D01*
X150243053Y-67105186D01*
X150702986Y-66645253D01*
X150951900Y-66044322D01*
X150951900Y-65393878D01*
X150702986Y-64792947D01*
X150243053Y-64333014D01*
X149642122Y-64084100D01*
X149201900Y-64084100D01*
X149201900Y-63663498D01*
X149006271Y-63191206D01*
X148644794Y-62829729D01*
X148172502Y-62634100D01*
X147661298Y-62634100D01*
X147189006Y-62829729D01*
X146827529Y-63191206D01*
X146646900Y-63627285D01*
X146466271Y-63191206D01*
X146104794Y-62829729D01*
X145632502Y-62634100D01*
X145121298Y-62634100D01*
X144649006Y-62829729D01*
X144287529Y-63191206D01*
X144106900Y-63627285D01*
X143926271Y-63191206D01*
X143564794Y-62829729D01*
X143092502Y-62634100D01*
X142581298Y-62634100D01*
X142109006Y-62829729D01*
X141747529Y-63191206D01*
X141566900Y-63627285D01*
X141386271Y-63191206D01*
X141024794Y-62829729D01*
X140552502Y-62634100D01*
X140041298Y-62634100D01*
X139569006Y-62829729D01*
X139207529Y-63191206D01*
X139026900Y-63627285D01*
X138846271Y-63191206D01*
X138484794Y-62829729D01*
X138012502Y-62634100D01*
X137501298Y-62634100D01*
X137029006Y-62829729D01*
X136667529Y-63191206D01*
X136486900Y-63627285D01*
X136306271Y-63191206D01*
X135944794Y-62829729D01*
X135472502Y-62634100D01*
X134961298Y-62634100D01*
X134489006Y-62829729D01*
X134127529Y-63191206D01*
X133946900Y-63627285D01*
X133766271Y-63191206D01*
X133404794Y-62829729D01*
X132932502Y-62634100D01*
X132421298Y-62634100D01*
X131949006Y-62829729D01*
X131587529Y-63191206D01*
X131406900Y-63627285D01*
X131226271Y-63191206D01*
X130864794Y-62829729D01*
X130392502Y-62634100D01*
X129881298Y-62634100D01*
X129409006Y-62829729D01*
X129047529Y-63191206D01*
X128866900Y-63627285D01*
X128686271Y-63191206D01*
X128324794Y-62829729D01*
X127852502Y-62634100D01*
X127341298Y-62634100D01*
X126869006Y-62829729D01*
X126507529Y-63191206D01*
X126326900Y-63627285D01*
X126146271Y-63191206D01*
X125784794Y-62829729D01*
X125312502Y-62634100D01*
X124801298Y-62634100D01*
X124329006Y-62829729D01*
X123967529Y-63191206D01*
X123771900Y-63663498D01*
X39491920Y-63663498D01*
X39491920Y-59939181D01*
X50159280Y-59939181D01*
X50159280Y-60510059D01*
X50377746Y-61037482D01*
X50781418Y-61441154D01*
X51308841Y-61659620D01*
X51879719Y-61659620D01*
X52407142Y-61441154D01*
X52810814Y-61037482D01*
X53029280Y-60510059D01*
X53029280Y-59939181D01*
X53559280Y-59939181D01*
X53559280Y-60510059D01*
X53777746Y-61037482D01*
X54181418Y-61441154D01*
X54708841Y-61659620D01*
X55279719Y-61659620D01*
X55807142Y-61441154D01*
X56210814Y-61037482D01*
X56429280Y-60510059D01*
X56429280Y-60464170D01*
X65338120Y-60464170D01*
X65338120Y-61074830D01*
X65571810Y-61639007D01*
X66003613Y-62070810D01*
X66567790Y-62304500D01*
X67178450Y-62304500D01*
X67742627Y-62070810D01*
X68174430Y-61639007D01*
X68408120Y-61074830D01*
X68408120Y-60464170D01*
X72958120Y-60464170D01*
X72958120Y-61074830D01*
X73191810Y-61639007D01*
X73623613Y-62070810D01*
X74187790Y-62304500D01*
X74798450Y-62304500D01*
X75362627Y-62070810D01*
X75794430Y-61639007D01*
X76028120Y-61074830D01*
X76028120Y-60464170D01*
X83118120Y-60464170D01*
X83118120Y-61074830D01*
X83351810Y-61639007D01*
X83783613Y-62070810D01*
X84347790Y-62304500D01*
X84958450Y-62304500D01*
X85522627Y-62070810D01*
X85954430Y-61639007D01*
X86020003Y-61480700D01*
X87356478Y-61480700D01*
X87447651Y-61617149D01*
X87657695Y-61757497D01*
X87905460Y-61806780D01*
X88805460Y-61806780D01*
X89053225Y-61757497D01*
X89263269Y-61617149D01*
X89358020Y-61475345D01*
X89358020Y-62109340D01*
X89407303Y-62357105D01*
X89547651Y-62567149D01*
X89757695Y-62707497D01*
X90005460Y-62756780D01*
X90905460Y-62756780D01*
X91153225Y-62707497D01*
X91288321Y-62617228D01*
X91534220Y-62666140D01*
X92834220Y-62666140D01*
X93081985Y-62616857D01*
X93223115Y-62522556D01*
X93394655Y-62637177D01*
X93642420Y-62686460D01*
X94942420Y-62686460D01*
X95190185Y-62637177D01*
X95400229Y-62496829D01*
X95461414Y-62405260D01*
X95729389Y-62405260D01*
X95895620Y-62571491D01*
X96276026Y-62729060D01*
X96687774Y-62729060D01*
X97068180Y-62571491D01*
X97359331Y-62280340D01*
X97516900Y-61899934D01*
X97516900Y-61488186D01*
X97359331Y-61107780D01*
X97068180Y-60816629D01*
X96687774Y-60659060D01*
X96276026Y-60659060D01*
X95895620Y-60816629D01*
X95729389Y-60982860D01*
X95468149Y-60982860D01*
X95400229Y-60881211D01*
X95190185Y-60740863D01*
X95180920Y-60739020D01*
X95190185Y-60737177D01*
X95400229Y-60596829D01*
X95540577Y-60386785D01*
X95589860Y-60139020D01*
X95589860Y-59439020D01*
X95540577Y-59191255D01*
X95453327Y-59060677D01*
X95554257Y-58909625D01*
X95603540Y-58661860D01*
X95603540Y-57461860D01*
X95554257Y-57214095D01*
X95413909Y-57004051D01*
X95203865Y-56863703D01*
X94956100Y-56814420D01*
X93756100Y-56814420D01*
X93508335Y-56863703D01*
X93298291Y-57004051D01*
X93256100Y-57067194D01*
X93213909Y-57004051D01*
X93003865Y-56863703D01*
X92756100Y-56814420D01*
X91556100Y-56814420D01*
X91308335Y-56863703D01*
X91098291Y-57004051D01*
X90957943Y-57214095D01*
X90954243Y-57232698D01*
X90687138Y-57122060D01*
X90313262Y-57122060D01*
X89967846Y-57265136D01*
X89703476Y-57529506D01*
X89560400Y-57874922D01*
X89560400Y-58248798D01*
X89703476Y-58594214D01*
X89744261Y-58634999D01*
X89744261Y-58820160D01*
X89547651Y-58951531D01*
X89407303Y-59161575D01*
X89358020Y-59409340D01*
X89358020Y-60043335D01*
X89263269Y-59901531D01*
X89053225Y-59761183D01*
X88805460Y-59711900D01*
X87905460Y-59711900D01*
X87657695Y-59761183D01*
X87447651Y-59901531D01*
X87342900Y-60058300D01*
X86020003Y-60058300D01*
X85954430Y-59899993D01*
X85522627Y-59468190D01*
X84958450Y-59234500D01*
X84347790Y-59234500D01*
X83783613Y-59468190D01*
X83351810Y-59899993D01*
X83118120Y-60464170D01*
X76028120Y-60464170D01*
X75794430Y-59899993D01*
X75362627Y-59468190D01*
X74798450Y-59234500D01*
X74187790Y-59234500D01*
X73623613Y-59468190D01*
X73191810Y-59899993D01*
X72958120Y-60464170D01*
X68408120Y-60464170D01*
X68174430Y-59899993D01*
X67742627Y-59468190D01*
X67178450Y-59234500D01*
X66567790Y-59234500D01*
X66003613Y-59468190D01*
X65571810Y-59899993D01*
X65338120Y-60464170D01*
X56429280Y-60464170D01*
X56429280Y-59939181D01*
X56210814Y-59411758D01*
X55807142Y-59008086D01*
X55279719Y-58789620D01*
X54708841Y-58789620D01*
X54181418Y-59008086D01*
X53777746Y-59411758D01*
X53559280Y-59939181D01*
X53029280Y-59939181D01*
X52810814Y-59411758D01*
X52407142Y-59008086D01*
X51879719Y-58789620D01*
X51308841Y-58789620D01*
X50781418Y-59008086D01*
X50377746Y-59411758D01*
X50159280Y-59939181D01*
X39491920Y-59939181D01*
X39491920Y-55598998D01*
X122349500Y-55598998D01*
X122349500Y-56110202D01*
X122545129Y-56582494D01*
X122906606Y-56943971D01*
X123378898Y-57139600D01*
X123890102Y-57139600D01*
X124362394Y-56943971D01*
X124723871Y-56582494D01*
X124904500Y-56146415D01*
X125085129Y-56582494D01*
X125446606Y-56943971D01*
X125918898Y-57139600D01*
X126430102Y-57139600D01*
X126902394Y-56943971D01*
X127263871Y-56582494D01*
X127444500Y-56146415D01*
X127625129Y-56582494D01*
X127986606Y-56943971D01*
X128458898Y-57139600D01*
X128970102Y-57139600D01*
X129442394Y-56943971D01*
X129803871Y-56582494D01*
X129984500Y-56146415D01*
X130165129Y-56582494D01*
X130526606Y-56943971D01*
X130998898Y-57139600D01*
X131510102Y-57139600D01*
X131982394Y-56943971D01*
X132343871Y-56582494D01*
X132524500Y-56146415D01*
X132705129Y-56582494D01*
X133066606Y-56943971D01*
X133538898Y-57139600D01*
X134050102Y-57139600D01*
X134522394Y-56943971D01*
X134883871Y-56582494D01*
X135064500Y-56146415D01*
X135245129Y-56582494D01*
X135606606Y-56943971D01*
X136078898Y-57139600D01*
X136590102Y-57139600D01*
X137062394Y-56943971D01*
X137423871Y-56582494D01*
X137604500Y-56146415D01*
X137785129Y-56582494D01*
X138146606Y-56943971D01*
X138618898Y-57139600D01*
X139130102Y-57139600D01*
X139602394Y-56943971D01*
X139963871Y-56582494D01*
X140144500Y-56146415D01*
X140325129Y-56582494D01*
X140686606Y-56943971D01*
X141158898Y-57139600D01*
X141670102Y-57139600D01*
X142142394Y-56943971D01*
X142503871Y-56582494D01*
X142684500Y-56146415D01*
X142865129Y-56582494D01*
X143226606Y-56943971D01*
X143698898Y-57139600D01*
X144210102Y-57139600D01*
X144682394Y-56943971D01*
X145043871Y-56582494D01*
X145239500Y-56110202D01*
X145239500Y-55598998D01*
X145043871Y-55126706D01*
X144682394Y-54765229D01*
X144210102Y-54569600D01*
X143698898Y-54569600D01*
X143226606Y-54765229D01*
X142865129Y-55126706D01*
X142684500Y-55562785D01*
X142503871Y-55126706D01*
X142142394Y-54765229D01*
X141670102Y-54569600D01*
X141158898Y-54569600D01*
X140686606Y-54765229D01*
X140325129Y-55126706D01*
X140144500Y-55562785D01*
X139963871Y-55126706D01*
X139602394Y-54765229D01*
X139130102Y-54569600D01*
X138618898Y-54569600D01*
X138146606Y-54765229D01*
X137785129Y-55126706D01*
X137604500Y-55562785D01*
X137423871Y-55126706D01*
X137062394Y-54765229D01*
X136590102Y-54569600D01*
X136078898Y-54569600D01*
X135606606Y-54765229D01*
X135245129Y-55126706D01*
X135064500Y-55562785D01*
X134883871Y-55126706D01*
X134522394Y-54765229D01*
X134050102Y-54569600D01*
X133538898Y-54569600D01*
X133066606Y-54765229D01*
X132705129Y-55126706D01*
X132524500Y-55562785D01*
X132343871Y-55126706D01*
X131982394Y-54765229D01*
X131510102Y-54569600D01*
X130998898Y-54569600D01*
X130526606Y-54765229D01*
X130165129Y-55126706D01*
X129984500Y-55562785D01*
X129803871Y-55126706D01*
X129442394Y-54765229D01*
X128970102Y-54569600D01*
X128458898Y-54569600D01*
X127986606Y-54765229D01*
X127625129Y-55126706D01*
X127444500Y-55562785D01*
X127263871Y-55126706D01*
X126902394Y-54765229D01*
X126430102Y-54569600D01*
X125918898Y-54569600D01*
X125446606Y-54765229D01*
X125085129Y-55126706D01*
X124904500Y-55562785D01*
X124723871Y-55126706D01*
X124362394Y-54765229D01*
X123890102Y-54569600D01*
X123378898Y-54569600D01*
X122906606Y-54765229D01*
X122545129Y-55126706D01*
X122349500Y-55598998D01*
X39491920Y-55598998D01*
X39491920Y-53058998D01*
X123619500Y-53058998D01*
X123619500Y-53570202D01*
X123815129Y-54042494D01*
X124176606Y-54403971D01*
X124648898Y-54599600D01*
X125160102Y-54599600D01*
X125632394Y-54403971D01*
X125993871Y-54042494D01*
X126174500Y-53606415D01*
X126355129Y-54042494D01*
X126716606Y-54403971D01*
X127188898Y-54599600D01*
X127700102Y-54599600D01*
X128172394Y-54403971D01*
X128533871Y-54042494D01*
X128714500Y-53606415D01*
X128895129Y-54042494D01*
X129256606Y-54403971D01*
X129728898Y-54599600D01*
X130240102Y-54599600D01*
X130712394Y-54403971D01*
X131073871Y-54042494D01*
X131254500Y-53606415D01*
X131435129Y-54042494D01*
X131796606Y-54403971D01*
X132268898Y-54599600D01*
X132780102Y-54599600D01*
X133252394Y-54403971D01*
X133613871Y-54042494D01*
X133794500Y-53606415D01*
X133975129Y-54042494D01*
X134336606Y-54403971D01*
X134808898Y-54599600D01*
X135320102Y-54599600D01*
X135792394Y-54403971D01*
X136153871Y-54042494D01*
X136334500Y-53606415D01*
X136515129Y-54042494D01*
X136876606Y-54403971D01*
X137348898Y-54599600D01*
X137860102Y-54599600D01*
X138332394Y-54403971D01*
X138693871Y-54042494D01*
X138874500Y-53606415D01*
X139055129Y-54042494D01*
X139416606Y-54403971D01*
X139888898Y-54599600D01*
X140400102Y-54599600D01*
X140872394Y-54403971D01*
X141233871Y-54042494D01*
X141414500Y-53606415D01*
X141595129Y-54042494D01*
X141956606Y-54403971D01*
X142428898Y-54599600D01*
X142940102Y-54599600D01*
X143412394Y-54403971D01*
X143773871Y-54042494D01*
X143954500Y-53606415D01*
X144135129Y-54042494D01*
X144496606Y-54403971D01*
X144968898Y-54599600D01*
X145480102Y-54599600D01*
X145952394Y-54403971D01*
X146313871Y-54042494D01*
X146494500Y-53606415D01*
X146675129Y-54042494D01*
X147036606Y-54403971D01*
X147508898Y-54599600D01*
X147608109Y-54599600D01*
X147529500Y-54789378D01*
X147529500Y-55439822D01*
X147778414Y-56040753D01*
X148238347Y-56500686D01*
X148839278Y-56749600D01*
X149489722Y-56749600D01*
X150090653Y-56500686D01*
X150550586Y-56040753D01*
X150799500Y-55439822D01*
X150799500Y-54789378D01*
X150550586Y-54188447D01*
X150090653Y-53728514D01*
X149489722Y-53479600D01*
X149049500Y-53479600D01*
X149049500Y-53058998D01*
X148853871Y-52586706D01*
X148492394Y-52225229D01*
X148020102Y-52029600D01*
X147508898Y-52029600D01*
X147036606Y-52225229D01*
X146675129Y-52586706D01*
X146494500Y-53022785D01*
X146313871Y-52586706D01*
X145952394Y-52225229D01*
X145480102Y-52029600D01*
X144968898Y-52029600D01*
X144496606Y-52225229D01*
X144135129Y-52586706D01*
X143954500Y-53022785D01*
X143773871Y-52586706D01*
X143412394Y-52225229D01*
X142940102Y-52029600D01*
X142428898Y-52029600D01*
X141956606Y-52225229D01*
X141595129Y-52586706D01*
X141414500Y-53022785D01*
X141233871Y-52586706D01*
X140872394Y-52225229D01*
X140400102Y-52029600D01*
X139888898Y-52029600D01*
X139416606Y-52225229D01*
X139055129Y-52586706D01*
X138874500Y-53022785D01*
X138693871Y-52586706D01*
X138332394Y-52225229D01*
X137860102Y-52029600D01*
X137348898Y-52029600D01*
X136876606Y-52225229D01*
X136515129Y-52586706D01*
X136334500Y-53022785D01*
X136153871Y-52586706D01*
X135792394Y-52225229D01*
X135320102Y-52029600D01*
X134808898Y-52029600D01*
X134336606Y-52225229D01*
X133975129Y-52586706D01*
X133794500Y-53022785D01*
X133613871Y-52586706D01*
X133252394Y-52225229D01*
X132780102Y-52029600D01*
X132268898Y-52029600D01*
X131796606Y-52225229D01*
X131435129Y-52586706D01*
X131254500Y-53022785D01*
X131073871Y-52586706D01*
X130712394Y-52225229D01*
X130240102Y-52029600D01*
X129728898Y-52029600D01*
X129256606Y-52225229D01*
X128895129Y-52586706D01*
X128714500Y-53022785D01*
X128533871Y-52586706D01*
X128172394Y-52225229D01*
X127700102Y-52029600D01*
X127188898Y-52029600D01*
X126716606Y-52225229D01*
X126355129Y-52586706D01*
X126174500Y-53022785D01*
X125993871Y-52586706D01*
X125632394Y-52225229D01*
X125160102Y-52029600D01*
X124648898Y-52029600D01*
X124176606Y-52225229D01*
X123815129Y-52586706D01*
X123619500Y-53058998D01*
X39491920Y-53058998D01*
X39491920Y-49430721D01*
X40100300Y-49430721D01*
X40100300Y-50001599D01*
X40318766Y-50529022D01*
X40722438Y-50932694D01*
X41249861Y-51151160D01*
X41820739Y-51151160D01*
X42348162Y-50932694D01*
X42751834Y-50529022D01*
X42970300Y-50001599D01*
X42970300Y-49430721D01*
X42751834Y-48903298D01*
X42348162Y-48499626D01*
X41820739Y-48281160D01*
X41249861Y-48281160D01*
X40722438Y-48499626D01*
X40318766Y-48903298D01*
X40100300Y-49430721D01*
X39491920Y-49430721D01*
X39491920Y-46030721D01*
X40100300Y-46030721D01*
X40100300Y-46601599D01*
X40318766Y-47129022D01*
X40722438Y-47532694D01*
X41249861Y-47751160D01*
X41820739Y-47751160D01*
X42348162Y-47532694D01*
X42751834Y-47129022D01*
X42970300Y-46601599D01*
X42970300Y-46439181D01*
X50159280Y-46439181D01*
X50159280Y-47010059D01*
X50377746Y-47537482D01*
X50781418Y-47941154D01*
X51308841Y-48159620D01*
X51879719Y-48159620D01*
X52407142Y-47941154D01*
X52810814Y-47537482D01*
X53029280Y-47010059D01*
X53029280Y-46439181D01*
X53559280Y-46439181D01*
X53559280Y-47010059D01*
X53777746Y-47537482D01*
X54181418Y-47941154D01*
X54708841Y-48159620D01*
X55279719Y-48159620D01*
X55807142Y-47941154D01*
X56210814Y-47537482D01*
X56429280Y-47010059D01*
X56429280Y-46439181D01*
X56210814Y-45911758D01*
X55807142Y-45508086D01*
X55279719Y-45289620D01*
X54708841Y-45289620D01*
X54181418Y-45508086D01*
X53777746Y-45911758D01*
X53559280Y-46439181D01*
X53029280Y-46439181D01*
X52810814Y-45911758D01*
X52407142Y-45508086D01*
X51879719Y-45289620D01*
X51308841Y-45289620D01*
X50781418Y-45508086D01*
X50377746Y-45911758D01*
X50159280Y-46439181D01*
X42970300Y-46439181D01*
X42970300Y-46030721D01*
X42751834Y-45503298D01*
X42348162Y-45099626D01*
X41820739Y-44881160D01*
X41249861Y-44881160D01*
X40722438Y-45099626D01*
X40318766Y-45503298D01*
X40100300Y-46030721D01*
X39491920Y-46030721D01*
X39491920Y-44472330D01*
X65170480Y-44472330D01*
X65170480Y-45082990D01*
X65404170Y-45647167D01*
X65835973Y-46078970D01*
X66400150Y-46312660D01*
X67010810Y-46312660D01*
X67574987Y-46078970D01*
X68006790Y-45647167D01*
X68240480Y-45082990D01*
X68240480Y-44472330D01*
X72790480Y-44472330D01*
X72790480Y-45082990D01*
X73024170Y-45647167D01*
X73455973Y-46078970D01*
X74020150Y-46312660D01*
X74630810Y-46312660D01*
X75194987Y-46078970D01*
X75626790Y-45647167D01*
X75860480Y-45082990D01*
X75860480Y-44472330D01*
X82950480Y-44472330D01*
X82950480Y-45082990D01*
X83184170Y-45647167D01*
X83615973Y-46078970D01*
X83779493Y-46146702D01*
X83815545Y-46327948D01*
X83933056Y-46503816D01*
X83933059Y-46503819D01*
X83972735Y-46563198D01*
X84032114Y-46602874D01*
X85118526Y-47689287D01*
X85158202Y-47748666D01*
X85217581Y-47788342D01*
X85217583Y-47788344D01*
X85261338Y-47817580D01*
X85393452Y-47905856D01*
X85600902Y-47947120D01*
X85600906Y-47947120D01*
X85670948Y-47961052D01*
X85740990Y-47947120D01*
X87362259Y-47947120D01*
X87389423Y-48083685D01*
X87529771Y-48293729D01*
X87739815Y-48434077D01*
X87987580Y-48483360D01*
X89187580Y-48483360D01*
X89435345Y-48434077D01*
X89645389Y-48293729D01*
X89785737Y-48083685D01*
X89813820Y-47942500D01*
X90438569Y-47942500D01*
X90604800Y-48108731D01*
X90985206Y-48266300D01*
X91396954Y-48266300D01*
X91777360Y-48108731D01*
X92068511Y-47817580D01*
X92226080Y-47437174D01*
X92226080Y-47025426D01*
X92068511Y-46645020D01*
X91777360Y-46353869D01*
X91396954Y-46196300D01*
X90985206Y-46196300D01*
X90604800Y-46353869D01*
X90438569Y-46520100D01*
X89811982Y-46520100D01*
X89785737Y-46388155D01*
X89645389Y-46178111D01*
X89435345Y-46037763D01*
X89187580Y-45988480D01*
X87987580Y-45988480D01*
X87739815Y-46037763D01*
X87529771Y-46178111D01*
X87389423Y-46388155D01*
X87362259Y-46524720D01*
X85965537Y-46524720D01*
X85437387Y-45996570D01*
X85786790Y-45647167D01*
X86020480Y-45082990D01*
X86020480Y-44472330D01*
X85786790Y-43908153D01*
X85354987Y-43476350D01*
X84790810Y-43242660D01*
X84180150Y-43242660D01*
X83615973Y-43476350D01*
X83184170Y-43908153D01*
X82950480Y-44472330D01*
X75860480Y-44472330D01*
X75626790Y-43908153D01*
X75194987Y-43476350D01*
X74630810Y-43242660D01*
X74020150Y-43242660D01*
X73455973Y-43476350D01*
X73024170Y-43908153D01*
X72790480Y-44472330D01*
X68240480Y-44472330D01*
X68006790Y-43908153D01*
X67574987Y-43476350D01*
X67010810Y-43242660D01*
X66400150Y-43242660D01*
X65835973Y-43476350D01*
X65404170Y-43908153D01*
X65170480Y-44472330D01*
X39491920Y-44472330D01*
X39491920Y-41878778D01*
X122724960Y-41878778D01*
X122724960Y-42389982D01*
X122920589Y-42862274D01*
X123282066Y-43223751D01*
X123754358Y-43419380D01*
X124265562Y-43419380D01*
X124737854Y-43223751D01*
X125099331Y-42862274D01*
X125279960Y-42426195D01*
X125460589Y-42862274D01*
X125822066Y-43223751D01*
X126294358Y-43419380D01*
X126805562Y-43419380D01*
X127277854Y-43223751D01*
X127639331Y-42862274D01*
X127819960Y-42426195D01*
X128000589Y-42862274D01*
X128362066Y-43223751D01*
X128834358Y-43419380D01*
X129345562Y-43419380D01*
X129817854Y-43223751D01*
X130179331Y-42862274D01*
X130359960Y-42426195D01*
X130540589Y-42862274D01*
X130902066Y-43223751D01*
X131374358Y-43419380D01*
X131885562Y-43419380D01*
X132357854Y-43223751D01*
X132719331Y-42862274D01*
X132899960Y-42426195D01*
X133080589Y-42862274D01*
X133442066Y-43223751D01*
X133914358Y-43419380D01*
X134425562Y-43419380D01*
X134897854Y-43223751D01*
X135259331Y-42862274D01*
X135439960Y-42426195D01*
X135620589Y-42862274D01*
X135982066Y-43223751D01*
X136454358Y-43419380D01*
X136965562Y-43419380D01*
X137437854Y-43223751D01*
X137799331Y-42862274D01*
X137979960Y-42426195D01*
X138160589Y-42862274D01*
X138522066Y-43223751D01*
X138994358Y-43419380D01*
X139505562Y-43419380D01*
X139977854Y-43223751D01*
X140339331Y-42862274D01*
X140519960Y-42426195D01*
X140700589Y-42862274D01*
X141062066Y-43223751D01*
X141534358Y-43419380D01*
X142045562Y-43419380D01*
X142517854Y-43223751D01*
X142879331Y-42862274D01*
X143059960Y-42426195D01*
X143240589Y-42862274D01*
X143602066Y-43223751D01*
X144074358Y-43419380D01*
X144585562Y-43419380D01*
X145057854Y-43223751D01*
X145419331Y-42862274D01*
X145614960Y-42389982D01*
X145614960Y-41878778D01*
X145419331Y-41406486D01*
X145057854Y-41045009D01*
X144585562Y-40849380D01*
X144074358Y-40849380D01*
X143602066Y-41045009D01*
X143240589Y-41406486D01*
X143059960Y-41842565D01*
X142879331Y-41406486D01*
X142517854Y-41045009D01*
X142045562Y-40849380D01*
X141534358Y-40849380D01*
X141062066Y-41045009D01*
X140700589Y-41406486D01*
X140519960Y-41842565D01*
X140339331Y-41406486D01*
X139977854Y-41045009D01*
X139505562Y-40849380D01*
X138994358Y-40849380D01*
X138522066Y-41045009D01*
X138160589Y-41406486D01*
X137979960Y-41842565D01*
X137799331Y-41406486D01*
X137437854Y-41045009D01*
X136965562Y-40849380D01*
X136454358Y-40849380D01*
X135982066Y-41045009D01*
X135620589Y-41406486D01*
X135439960Y-41842565D01*
X135259331Y-41406486D01*
X134897854Y-41045009D01*
X134425562Y-40849380D01*
X133914358Y-40849380D01*
X133442066Y-41045009D01*
X133080589Y-41406486D01*
X132899960Y-41842565D01*
X132719331Y-41406486D01*
X132357854Y-41045009D01*
X131885562Y-40849380D01*
X131374358Y-40849380D01*
X130902066Y-41045009D01*
X130540589Y-41406486D01*
X130359960Y-41842565D01*
X130179331Y-41406486D01*
X129817854Y-41045009D01*
X129345562Y-40849380D01*
X128834358Y-40849380D01*
X128362066Y-41045009D01*
X128000589Y-41406486D01*
X127819960Y-41842565D01*
X127639331Y-41406486D01*
X127277854Y-41045009D01*
X126805562Y-40849380D01*
X126294358Y-40849380D01*
X125822066Y-41045009D01*
X125460589Y-41406486D01*
X125279960Y-41842565D01*
X125099331Y-41406486D01*
X124737854Y-41045009D01*
X124265562Y-40849380D01*
X123754358Y-40849380D01*
X123282066Y-41045009D01*
X122920589Y-41406486D01*
X122724960Y-41878778D01*
X39491920Y-41878778D01*
X39491920Y-39266178D01*
X90428300Y-39266178D01*
X90428300Y-39916622D01*
X90677214Y-40517553D01*
X91137147Y-40977486D01*
X91738078Y-41226400D01*
X92388522Y-41226400D01*
X92989453Y-40977486D01*
X93449386Y-40517553D01*
X93698300Y-39916622D01*
X93698300Y-39338778D01*
X123994960Y-39338778D01*
X123994960Y-39849982D01*
X124190589Y-40322274D01*
X124552066Y-40683751D01*
X125024358Y-40879380D01*
X125535562Y-40879380D01*
X126007854Y-40683751D01*
X126369331Y-40322274D01*
X126549960Y-39886195D01*
X126730589Y-40322274D01*
X127092066Y-40683751D01*
X127564358Y-40879380D01*
X128075562Y-40879380D01*
X128547854Y-40683751D01*
X128909331Y-40322274D01*
X129089960Y-39886195D01*
X129270589Y-40322274D01*
X129632066Y-40683751D01*
X130104358Y-40879380D01*
X130615562Y-40879380D01*
X131087854Y-40683751D01*
X131449331Y-40322274D01*
X131629960Y-39886195D01*
X131810589Y-40322274D01*
X132172066Y-40683751D01*
X132644358Y-40879380D01*
X133155562Y-40879380D01*
X133627854Y-40683751D01*
X133989331Y-40322274D01*
X134169960Y-39886195D01*
X134350589Y-40322274D01*
X134712066Y-40683751D01*
X135184358Y-40879380D01*
X135695562Y-40879380D01*
X136167854Y-40683751D01*
X136529331Y-40322274D01*
X136709960Y-39886195D01*
X136890589Y-40322274D01*
X137252066Y-40683751D01*
X137724358Y-40879380D01*
X138235562Y-40879380D01*
X138707854Y-40683751D01*
X139069331Y-40322274D01*
X139249960Y-39886195D01*
X139430589Y-40322274D01*
X139792066Y-40683751D01*
X140264358Y-40879380D01*
X140775562Y-40879380D01*
X141247854Y-40683751D01*
X141609331Y-40322274D01*
X141789960Y-39886195D01*
X141970589Y-40322274D01*
X142332066Y-40683751D01*
X142804358Y-40879380D01*
X143315562Y-40879380D01*
X143787854Y-40683751D01*
X144149331Y-40322274D01*
X144329960Y-39886195D01*
X144510589Y-40322274D01*
X144872066Y-40683751D01*
X145344358Y-40879380D01*
X145855562Y-40879380D01*
X146327854Y-40683751D01*
X146689331Y-40322274D01*
X146869960Y-39886195D01*
X147050589Y-40322274D01*
X147412066Y-40683751D01*
X147884358Y-40879380D01*
X147983569Y-40879380D01*
X147904960Y-41069158D01*
X147904960Y-41719602D01*
X148153874Y-42320533D01*
X148613807Y-42780466D01*
X149214738Y-43029380D01*
X149865182Y-43029380D01*
X150466113Y-42780466D01*
X150926046Y-42320533D01*
X151133581Y-41819498D01*
X158646100Y-41819498D01*
X158646100Y-42330702D01*
X158841729Y-42802994D01*
X159203206Y-43164471D01*
X159675498Y-43360100D01*
X160186702Y-43360100D01*
X160658994Y-43164471D01*
X161020471Y-42802994D01*
X161201100Y-42366915D01*
X161381729Y-42802994D01*
X161743206Y-43164471D01*
X162215498Y-43360100D01*
X162726702Y-43360100D01*
X163198994Y-43164471D01*
X163560471Y-42802994D01*
X163741100Y-42366915D01*
X163921729Y-42802994D01*
X164283206Y-43164471D01*
X164755498Y-43360100D01*
X165266702Y-43360100D01*
X165738994Y-43164471D01*
X166100471Y-42802994D01*
X166296100Y-42330702D01*
X166296100Y-42262339D01*
X166754947Y-42721186D01*
X167355878Y-42970100D01*
X168006322Y-42970100D01*
X168607253Y-42721186D01*
X169067186Y-42261253D01*
X169316100Y-41660322D01*
X169316100Y-41009878D01*
X169067186Y-40408947D01*
X168607253Y-39949014D01*
X168006322Y-39700100D01*
X167566100Y-39700100D01*
X167566100Y-39279498D01*
X167370471Y-38807206D01*
X167008994Y-38445729D01*
X166536702Y-38250100D01*
X166025498Y-38250100D01*
X165553206Y-38445729D01*
X165191729Y-38807206D01*
X165011100Y-39243285D01*
X164830471Y-38807206D01*
X164468994Y-38445729D01*
X163996702Y-38250100D01*
X163485498Y-38250100D01*
X163013206Y-38445729D01*
X162651729Y-38807206D01*
X162471100Y-39243285D01*
X162290471Y-38807206D01*
X161928994Y-38445729D01*
X161456702Y-38250100D01*
X160945498Y-38250100D01*
X160473206Y-38445729D01*
X160111729Y-38807206D01*
X159916100Y-39279498D01*
X159916100Y-39790702D01*
X160111729Y-40262994D01*
X160473206Y-40624471D01*
X160945498Y-40820100D01*
X161456702Y-40820100D01*
X161928994Y-40624471D01*
X162290471Y-40262994D01*
X162471100Y-39826915D01*
X162651729Y-40262994D01*
X163013206Y-40624471D01*
X163485498Y-40820100D01*
X163996702Y-40820100D01*
X164468994Y-40624471D01*
X164830471Y-40262994D01*
X165011100Y-39826915D01*
X165191729Y-40262994D01*
X165553206Y-40624471D01*
X166025498Y-40820100D01*
X166124709Y-40820100D01*
X166046100Y-41009878D01*
X166046100Y-41292835D01*
X165738994Y-40985729D01*
X165266702Y-40790100D01*
X164755498Y-40790100D01*
X164283206Y-40985729D01*
X163921729Y-41347206D01*
X163741100Y-41783285D01*
X163560471Y-41347206D01*
X163198994Y-40985729D01*
X162726702Y-40790100D01*
X162215498Y-40790100D01*
X161743206Y-40985729D01*
X161381729Y-41347206D01*
X161201100Y-41783285D01*
X161020471Y-41347206D01*
X160658994Y-40985729D01*
X160186702Y-40790100D01*
X159675498Y-40790100D01*
X159203206Y-40985729D01*
X158841729Y-41347206D01*
X158646100Y-41819498D01*
X151133581Y-41819498D01*
X151174960Y-41719602D01*
X151174960Y-41069158D01*
X150926046Y-40468227D01*
X150466113Y-40008294D01*
X149865182Y-39759380D01*
X149424960Y-39759380D01*
X149424960Y-39338778D01*
X149229331Y-38866486D01*
X148867854Y-38505009D01*
X148395562Y-38309380D01*
X147884358Y-38309380D01*
X147412066Y-38505009D01*
X147050589Y-38866486D01*
X146869960Y-39302565D01*
X146689331Y-38866486D01*
X146327854Y-38505009D01*
X145855562Y-38309380D01*
X145344358Y-38309380D01*
X144872066Y-38505009D01*
X144510589Y-38866486D01*
X144329960Y-39302565D01*
X144149331Y-38866486D01*
X143787854Y-38505009D01*
X143315562Y-38309380D01*
X142804358Y-38309380D01*
X142332066Y-38505009D01*
X141970589Y-38866486D01*
X141789960Y-39302565D01*
X141609331Y-38866486D01*
X141247854Y-38505009D01*
X140775562Y-38309380D01*
X140264358Y-38309380D01*
X139792066Y-38505009D01*
X139430589Y-38866486D01*
X139249960Y-39302565D01*
X139069331Y-38866486D01*
X138707854Y-38505009D01*
X138235562Y-38309380D01*
X137724358Y-38309380D01*
X137252066Y-38505009D01*
X136890589Y-38866486D01*
X136709960Y-39302565D01*
X136529331Y-38866486D01*
X136167854Y-38505009D01*
X135695562Y-38309380D01*
X135184358Y-38309380D01*
X134712066Y-38505009D01*
X134350589Y-38866486D01*
X134169960Y-39302565D01*
X133989331Y-38866486D01*
X133627854Y-38505009D01*
X133155562Y-38309380D01*
X132644358Y-38309380D01*
X132172066Y-38505009D01*
X131810589Y-38866486D01*
X131629960Y-39302565D01*
X131449331Y-38866486D01*
X131087854Y-38505009D01*
X130615562Y-38309380D01*
X130104358Y-38309380D01*
X129632066Y-38505009D01*
X129270589Y-38866486D01*
X129089960Y-39302565D01*
X128909331Y-38866486D01*
X128547854Y-38505009D01*
X128075562Y-38309380D01*
X127564358Y-38309380D01*
X127092066Y-38505009D01*
X126730589Y-38866486D01*
X126549960Y-39302565D01*
X126369331Y-38866486D01*
X126007854Y-38505009D01*
X125535562Y-38309380D01*
X125024358Y-38309380D01*
X124552066Y-38505009D01*
X124190589Y-38866486D01*
X123994960Y-39338778D01*
X93698300Y-39338778D01*
X93698300Y-39266178D01*
X93449386Y-38665247D01*
X92989453Y-38205314D01*
X92388522Y-37956400D01*
X91738078Y-37956400D01*
X91137147Y-38205314D01*
X90677214Y-38665247D01*
X90428300Y-39266178D01*
X39491920Y-39266178D01*
X39491920Y-37939366D01*
X39653920Y-38101366D01*
X40438622Y-38426400D01*
X41287978Y-38426400D01*
X42072680Y-38101366D01*
X42673266Y-37500780D01*
X42863300Y-37041997D01*
X43053334Y-37500780D01*
X43653920Y-38101366D01*
X44438622Y-38426400D01*
X45287978Y-38426400D01*
X46072680Y-38101366D01*
X46673266Y-37500780D01*
X46863300Y-37041997D01*
X47053334Y-37500780D01*
X47653920Y-38101366D01*
X48438622Y-38426400D01*
X49287978Y-38426400D01*
X50072680Y-38101366D01*
X50673266Y-37500780D01*
X50863300Y-37041997D01*
X51053334Y-37500780D01*
X51653920Y-38101366D01*
X52438622Y-38426400D01*
X53287978Y-38426400D01*
X54072680Y-38101366D01*
X54673266Y-37500780D01*
X54863300Y-37041997D01*
X55053334Y-37500780D01*
X55653920Y-38101366D01*
X56438622Y-38426400D01*
X57287978Y-38426400D01*
X58072680Y-38101366D01*
X58673266Y-37500780D01*
X58863300Y-37041997D01*
X59053334Y-37500780D01*
X59653920Y-38101366D01*
X60438622Y-38426400D01*
X61287978Y-38426400D01*
X62072680Y-38101366D01*
X62673266Y-37500780D01*
X62863300Y-37041997D01*
X63053334Y-37500780D01*
X63653920Y-38101366D01*
X64438622Y-38426400D01*
X65287978Y-38426400D01*
X66072680Y-38101366D01*
X66673266Y-37500780D01*
X66863300Y-37041997D01*
X67053334Y-37500780D01*
X67653920Y-38101366D01*
X68438622Y-38426400D01*
X69287978Y-38426400D01*
X70072680Y-38101366D01*
X70673266Y-37500780D01*
X70863300Y-37041997D01*
X71053334Y-37500780D01*
X71653920Y-38101366D01*
X72438622Y-38426400D01*
X73287978Y-38426400D01*
X74072680Y-38101366D01*
X74673266Y-37500780D01*
X74998300Y-36716078D01*
X74998300Y-35866722D01*
X78728300Y-35866722D01*
X78728300Y-36716078D01*
X79053334Y-37500780D01*
X79653920Y-38101366D01*
X80438622Y-38426400D01*
X81287978Y-38426400D01*
X82072680Y-38101366D01*
X82673266Y-37500780D01*
X82998300Y-36716078D01*
X82998300Y-35866722D01*
X82673266Y-35082020D01*
X82072680Y-34481434D01*
X81287978Y-34156400D01*
X80438622Y-34156400D01*
X79653920Y-34481434D01*
X79053334Y-35082020D01*
X78728300Y-35866722D01*
X74998300Y-35866722D01*
X74673266Y-35082020D01*
X74072680Y-34481434D01*
X73287978Y-34156400D01*
X72438622Y-34156400D01*
X71653920Y-34481434D01*
X71053334Y-35082020D01*
X70863300Y-35540803D01*
X70673266Y-35082020D01*
X70072680Y-34481434D01*
X69287978Y-34156400D01*
X68438622Y-34156400D01*
X67653920Y-34481434D01*
X67053334Y-35082020D01*
X66863300Y-35540803D01*
X66673266Y-35082020D01*
X66072680Y-34481434D01*
X65287978Y-34156400D01*
X64438622Y-34156400D01*
X63653920Y-34481434D01*
X63053334Y-35082020D01*
X62863300Y-35540803D01*
X62673266Y-35082020D01*
X62072680Y-34481434D01*
X61287978Y-34156400D01*
X60438622Y-34156400D01*
X59653920Y-34481434D01*
X59053334Y-35082020D01*
X58863300Y-35540803D01*
X58673266Y-35082020D01*
X58072680Y-34481434D01*
X57287978Y-34156400D01*
X56438622Y-34156400D01*
X55653920Y-34481434D01*
X55053334Y-35082020D01*
X54863300Y-35540803D01*
X54673266Y-35082020D01*
X54072680Y-34481434D01*
X53287978Y-34156400D01*
X52438622Y-34156400D01*
X51653920Y-34481434D01*
X51053334Y-35082020D01*
X50863300Y-35540803D01*
X50673266Y-35082020D01*
X50072680Y-34481434D01*
X49287978Y-34156400D01*
X48438622Y-34156400D01*
X47653920Y-34481434D01*
X47053334Y-35082020D01*
X46863300Y-35540803D01*
X46673266Y-35082020D01*
X46072680Y-34481434D01*
X45287978Y-34156400D01*
X44438622Y-34156400D01*
X43653920Y-34481434D01*
X43053334Y-35082020D01*
X42863300Y-35540803D01*
X42673266Y-35082020D01*
X42072680Y-34481434D01*
X41287978Y-34156400D01*
X40438622Y-34156400D01*
X39653920Y-34481434D01*
X39491920Y-34643434D01*
X39491920Y-34341925D01*
X40072680Y-34101366D01*
X40673266Y-33500780D01*
X40863300Y-33041997D01*
X41053334Y-33500780D01*
X41653920Y-34101366D01*
X42438622Y-34426400D01*
X43287978Y-34426400D01*
X44072680Y-34101366D01*
X44673266Y-33500780D01*
X44863300Y-33041997D01*
X45053334Y-33500780D01*
X45653920Y-34101366D01*
X46438622Y-34426400D01*
X47287978Y-34426400D01*
X48072680Y-34101366D01*
X48673266Y-33500780D01*
X48863300Y-33041997D01*
X49053334Y-33500780D01*
X49653920Y-34101366D01*
X50438622Y-34426400D01*
X51287978Y-34426400D01*
X52072680Y-34101366D01*
X52673266Y-33500780D01*
X52863300Y-33041997D01*
X53053334Y-33500780D01*
X53653920Y-34101366D01*
X54438622Y-34426400D01*
X55287978Y-34426400D01*
X56072680Y-34101366D01*
X56673266Y-33500780D01*
X56863300Y-33041997D01*
X57053334Y-33500780D01*
X57653920Y-34101366D01*
X58438622Y-34426400D01*
X59287978Y-34426400D01*
X60072680Y-34101366D01*
X60673266Y-33500780D01*
X60998300Y-32716078D01*
X60998300Y-31866722D01*
X64728300Y-31866722D01*
X64728300Y-32716078D01*
X65053334Y-33500780D01*
X65653920Y-34101366D01*
X66438622Y-34426400D01*
X67287978Y-34426400D01*
X68072680Y-34101366D01*
X68673266Y-33500780D01*
X68863300Y-33041997D01*
X69053334Y-33500780D01*
X69653920Y-34101366D01*
X70438622Y-34426400D01*
X71287978Y-34426400D01*
X72072680Y-34101366D01*
X72673266Y-33500780D01*
X72863300Y-33041997D01*
X73053334Y-33500780D01*
X73653920Y-34101366D01*
X74438622Y-34426400D01*
X75287978Y-34426400D01*
X76072680Y-34101366D01*
X76673266Y-33500780D01*
X76863300Y-33041997D01*
X77053334Y-33500780D01*
X77653920Y-34101366D01*
X78438622Y-34426400D01*
X79287978Y-34426400D01*
X80072680Y-34101366D01*
X80673266Y-33500780D01*
X80998300Y-32716078D01*
X80998300Y-32381640D01*
X85303300Y-32381640D01*
X85303300Y-33201160D01*
X85616916Y-33958296D01*
X86196404Y-34537784D01*
X86953540Y-34851400D01*
X87773060Y-34851400D01*
X88530196Y-34537784D01*
X89109684Y-33958296D01*
X89423300Y-33201160D01*
X89423300Y-32579406D01*
X130688700Y-32579406D01*
X130688700Y-33130394D01*
X130899553Y-33639440D01*
X131289160Y-34029047D01*
X131798206Y-34239900D01*
X132349194Y-34239900D01*
X132858240Y-34029047D01*
X133247847Y-33639440D01*
X133343700Y-33408030D01*
X133439553Y-33639440D01*
X133829160Y-34029047D01*
X134338206Y-34239900D01*
X134889194Y-34239900D01*
X135398240Y-34029047D01*
X135787847Y-33639440D01*
X135998700Y-33130394D01*
X135998700Y-32579406D01*
X141248700Y-32579406D01*
X141248700Y-33130394D01*
X141459553Y-33639440D01*
X141849160Y-34029047D01*
X142358206Y-34239900D01*
X142909194Y-34239900D01*
X143418240Y-34029047D01*
X143807847Y-33639440D01*
X143903700Y-33408030D01*
X143999553Y-33639440D01*
X144389160Y-34029047D01*
X144898206Y-34239900D01*
X145449194Y-34239900D01*
X145958240Y-34029047D01*
X146347847Y-33639440D01*
X146558700Y-33130394D01*
X146558700Y-32579406D01*
X146347847Y-32070360D01*
X145958240Y-31680753D01*
X145449194Y-31469900D01*
X144898206Y-31469900D01*
X144389160Y-31680753D01*
X143999553Y-32070360D01*
X143903700Y-32301770D01*
X143807847Y-32070360D01*
X143418240Y-31680753D01*
X142909194Y-31469900D01*
X142358206Y-31469900D01*
X141849160Y-31680753D01*
X141459553Y-32070360D01*
X141248700Y-32579406D01*
X135998700Y-32579406D01*
X135787847Y-32070360D01*
X135398240Y-31680753D01*
X134889194Y-31469900D01*
X134338206Y-31469900D01*
X133829160Y-31680753D01*
X133439553Y-32070360D01*
X133343700Y-32301770D01*
X133247847Y-32070360D01*
X132858240Y-31680753D01*
X132349194Y-31469900D01*
X131798206Y-31469900D01*
X131289160Y-31680753D01*
X130899553Y-32070360D01*
X130688700Y-32579406D01*
X89423300Y-32579406D01*
X89423300Y-32381640D01*
X89109684Y-31624504D01*
X88530196Y-31045016D01*
X87773060Y-30731400D01*
X86953540Y-30731400D01*
X86196404Y-31045016D01*
X85616916Y-31624504D01*
X85303300Y-32381640D01*
X80998300Y-32381640D01*
X80998300Y-31866722D01*
X80673266Y-31082020D01*
X80072680Y-30481434D01*
X79287978Y-30156400D01*
X78438622Y-30156400D01*
X77653920Y-30481434D01*
X77053334Y-31082020D01*
X76863300Y-31540803D01*
X76673266Y-31082020D01*
X76072680Y-30481434D01*
X75287978Y-30156400D01*
X74438622Y-30156400D01*
X73653920Y-30481434D01*
X73053334Y-31082020D01*
X72863300Y-31540803D01*
X72673266Y-31082020D01*
X72072680Y-30481434D01*
X71287978Y-30156400D01*
X70438622Y-30156400D01*
X69653920Y-30481434D01*
X69053334Y-31082020D01*
X68863300Y-31540803D01*
X68673266Y-31082020D01*
X68072680Y-30481434D01*
X67287978Y-30156400D01*
X66438622Y-30156400D01*
X65653920Y-30481434D01*
X65053334Y-31082020D01*
X64728300Y-31866722D01*
X60998300Y-31866722D01*
X60673266Y-31082020D01*
X60072680Y-30481434D01*
X59287978Y-30156400D01*
X58438622Y-30156400D01*
X57653920Y-30481434D01*
X57053334Y-31082020D01*
X56863300Y-31540803D01*
X56673266Y-31082020D01*
X56072680Y-30481434D01*
X55287978Y-30156400D01*
X54438622Y-30156400D01*
X53653920Y-30481434D01*
X53053334Y-31082020D01*
X52863300Y-31540803D01*
X52673266Y-31082020D01*
X52072680Y-30481434D01*
X51287978Y-30156400D01*
X50438622Y-30156400D01*
X49653920Y-30481434D01*
X49053334Y-31082020D01*
X48863300Y-31540803D01*
X48673266Y-31082020D01*
X48072680Y-30481434D01*
X47287978Y-30156400D01*
X46438622Y-30156400D01*
X45653920Y-30481434D01*
X45053334Y-31082020D01*
X44863300Y-31540803D01*
X44673266Y-31082020D01*
X44072680Y-30481434D01*
X43287978Y-30156400D01*
X42438622Y-30156400D01*
X41653920Y-30481434D01*
X41053334Y-31082020D01*
X40863300Y-31540803D01*
X40673266Y-31082020D01*
X40072680Y-30481434D01*
X39287978Y-30156400D01*
X38438622Y-30156400D01*
X37653920Y-30481434D01*
X37053334Y-31082020D01*
X36728300Y-31866722D01*
X36728300Y-32716078D01*
X37053334Y-33500780D01*
X37331988Y-33779434D01*
X32199732Y-33740902D01*
X32423300Y-33201160D01*
X32423300Y-32381640D01*
X32109684Y-31624504D01*
X31530196Y-31045016D01*
X30773060Y-30731400D01*
X29953540Y-30731400D01*
X29196404Y-31045016D01*
X28616916Y-31624504D01*
X28303300Y-32381640D01*
X28303300Y-33201160D01*
X28515411Y-33713240D01*
X18518799Y-33638187D01*
X18618637Y-27866722D01*
X34728300Y-27866722D01*
X34728300Y-28716078D01*
X35053334Y-29500780D01*
X35653920Y-30101366D01*
X36438622Y-30426400D01*
X37287978Y-30426400D01*
X38072680Y-30101366D01*
X38673266Y-29500780D01*
X38998300Y-28716078D01*
X38998300Y-27866722D01*
X42728300Y-27866722D01*
X42728300Y-28716078D01*
X43053334Y-29500780D01*
X43653920Y-30101366D01*
X44438622Y-30426400D01*
X45287978Y-30426400D01*
X46072680Y-30101366D01*
X46673266Y-29500780D01*
X46863300Y-29041997D01*
X47053334Y-29500780D01*
X47653920Y-30101366D01*
X48438622Y-30426400D01*
X49287978Y-30426400D01*
X50072680Y-30101366D01*
X50673266Y-29500780D01*
X50863300Y-29041997D01*
X51053334Y-29500780D01*
X51653920Y-30101366D01*
X52438622Y-30426400D01*
X53287978Y-30426400D01*
X54072680Y-30101366D01*
X54673266Y-29500780D01*
X54863300Y-29041997D01*
X55053334Y-29500780D01*
X55653920Y-30101366D01*
X56438622Y-30426400D01*
X57287978Y-30426400D01*
X58072680Y-30101366D01*
X58673266Y-29500780D01*
X58863300Y-29041997D01*
X59053334Y-29500780D01*
X59653920Y-30101366D01*
X60438622Y-30426400D01*
X61287978Y-30426400D01*
X62072680Y-30101366D01*
X62673266Y-29500780D01*
X62863300Y-29041997D01*
X63053334Y-29500780D01*
X63653920Y-30101366D01*
X64438622Y-30426400D01*
X65287978Y-30426400D01*
X66072680Y-30101366D01*
X66673266Y-29500780D01*
X66863300Y-29041997D01*
X67053334Y-29500780D01*
X67653920Y-30101366D01*
X68438622Y-30426400D01*
X69287978Y-30426400D01*
X70072680Y-30101366D01*
X70673266Y-29500780D01*
X70863300Y-29041997D01*
X71053334Y-29500780D01*
X71653920Y-30101366D01*
X72438622Y-30426400D01*
X73287978Y-30426400D01*
X74072680Y-30101366D01*
X74673266Y-29500780D01*
X74863300Y-29041997D01*
X75053334Y-29500780D01*
X75653920Y-30101366D01*
X76438622Y-30426400D01*
X77287978Y-30426400D01*
X78072680Y-30101366D01*
X78673266Y-29500780D01*
X78998300Y-28716078D01*
X78998300Y-27866722D01*
X78931349Y-27705086D01*
X129663700Y-27705086D01*
X129663700Y-28504714D01*
X129969704Y-29243473D01*
X130535127Y-29808896D01*
X131273886Y-30114900D01*
X132073514Y-30114900D01*
X132812273Y-29808896D01*
X133377696Y-29243473D01*
X133683700Y-28504714D01*
X133683700Y-27705086D01*
X133377696Y-26966327D01*
X132812273Y-26400904D01*
X132073514Y-26094900D01*
X131273886Y-26094900D01*
X130535127Y-26400904D01*
X129969704Y-26966327D01*
X129663700Y-27705086D01*
X78931349Y-27705086D01*
X78673266Y-27082020D01*
X78072680Y-26481434D01*
X77287978Y-26156400D01*
X76438622Y-26156400D01*
X75653920Y-26481434D01*
X75053334Y-27082020D01*
X74863300Y-27540803D01*
X74673266Y-27082020D01*
X74072680Y-26481434D01*
X73287978Y-26156400D01*
X72438622Y-26156400D01*
X71653920Y-26481434D01*
X71053334Y-27082020D01*
X70863300Y-27540803D01*
X70673266Y-27082020D01*
X70072680Y-26481434D01*
X69287978Y-26156400D01*
X68438622Y-26156400D01*
X67653920Y-26481434D01*
X67053334Y-27082020D01*
X66863300Y-27540803D01*
X66673266Y-27082020D01*
X66072680Y-26481434D01*
X65287978Y-26156400D01*
X64438622Y-26156400D01*
X63653920Y-26481434D01*
X63053334Y-27082020D01*
X62863300Y-27540803D01*
X62673266Y-27082020D01*
X62072680Y-26481434D01*
X61287978Y-26156400D01*
X60438622Y-26156400D01*
X59653920Y-26481434D01*
X59053334Y-27082020D01*
X58863300Y-27540803D01*
X58673266Y-27082020D01*
X58072680Y-26481434D01*
X57287978Y-26156400D01*
X56438622Y-26156400D01*
X55653920Y-26481434D01*
X55053334Y-27082020D01*
X54863300Y-27540803D01*
X54673266Y-27082020D01*
X54072680Y-26481434D01*
X53287978Y-26156400D01*
X52438622Y-26156400D01*
X51653920Y-26481434D01*
X51053334Y-27082020D01*
X50863300Y-27540803D01*
X50673266Y-27082020D01*
X50072680Y-26481434D01*
X49287978Y-26156400D01*
X48438622Y-26156400D01*
X47653920Y-26481434D01*
X47053334Y-27082020D01*
X46863300Y-27540803D01*
X46673266Y-27082020D01*
X46072680Y-26481434D01*
X45287978Y-26156400D01*
X44438622Y-26156400D01*
X43653920Y-26481434D01*
X43053334Y-27082020D01*
X42728300Y-27866722D01*
X38998300Y-27866722D01*
X38673266Y-27082020D01*
X38072680Y-26481434D01*
X37287978Y-26156400D01*
X36438622Y-26156400D01*
X35653920Y-26481434D01*
X35053334Y-27082020D01*
X34728300Y-27866722D01*
X18618637Y-27866722D01*
X18651803Y-25949406D01*
X134068700Y-25949406D01*
X134068700Y-26500394D01*
X134279553Y-27009440D01*
X134669160Y-27399047D01*
X135178206Y-27609900D01*
X135729194Y-27609900D01*
X136238240Y-27399047D01*
X136627847Y-27009440D01*
X136723700Y-26778030D01*
X136819553Y-27009440D01*
X137209160Y-27399047D01*
X137718206Y-27609900D01*
X138269194Y-27609900D01*
X138778240Y-27399047D01*
X139167847Y-27009440D01*
X139263700Y-26778030D01*
X139359553Y-27009440D01*
X139749160Y-27399047D01*
X140258206Y-27609900D01*
X140809194Y-27609900D01*
X141318240Y-27399047D01*
X141707847Y-27009440D01*
X141803700Y-26778030D01*
X141899553Y-27009440D01*
X142289160Y-27399047D01*
X142798206Y-27609900D01*
X143349194Y-27609900D01*
X143655718Y-27482934D01*
X143563700Y-27705086D01*
X143563700Y-28504714D01*
X143869704Y-29243473D01*
X144435127Y-29808896D01*
X145173886Y-30114900D01*
X145973514Y-30114900D01*
X146712273Y-29808896D01*
X147277696Y-29243473D01*
X147583700Y-28504714D01*
X147583700Y-27705086D01*
X147277696Y-26966327D01*
X146712273Y-26400904D01*
X145973514Y-26094900D01*
X145173886Y-26094900D01*
X144458700Y-26391140D01*
X144458700Y-25949406D01*
X144247847Y-25440360D01*
X143916837Y-25109350D01*
X158999100Y-25109350D01*
X158999100Y-25639850D01*
X159202113Y-26129967D01*
X159577233Y-26505087D01*
X160067350Y-26708100D01*
X160597850Y-26708100D01*
X161087967Y-26505087D01*
X161463087Y-26129967D01*
X161666100Y-25639850D01*
X161666100Y-25109350D01*
X162499100Y-25109350D01*
X162499100Y-25639850D01*
X162702113Y-26129967D01*
X163077233Y-26505087D01*
X163567350Y-26708100D01*
X164097850Y-26708100D01*
X164587967Y-26505087D01*
X164963087Y-26129967D01*
X165166100Y-25639850D01*
X165166100Y-25109350D01*
X165999100Y-25109350D01*
X165999100Y-25639850D01*
X166202113Y-26129967D01*
X166577233Y-26505087D01*
X167067350Y-26708100D01*
X167597850Y-26708100D01*
X168087967Y-26505087D01*
X168463087Y-26129967D01*
X168666100Y-25639850D01*
X168666100Y-25109350D01*
X168477179Y-24653255D01*
X168759268Y-24770100D01*
X169405932Y-24770100D01*
X169688021Y-24653255D01*
X169499100Y-25109350D01*
X169499100Y-25639850D01*
X169702113Y-26129967D01*
X170077233Y-26505087D01*
X170567350Y-26708100D01*
X171097850Y-26708100D01*
X171587967Y-26505087D01*
X171963087Y-26129967D01*
X172166100Y-25639850D01*
X172166100Y-25109350D01*
X171963087Y-24619233D01*
X171587967Y-24244113D01*
X171097850Y-24041100D01*
X170567350Y-24041100D01*
X170426606Y-24099398D01*
X170460632Y-24065372D01*
X170708100Y-23467932D01*
X170708100Y-22821268D01*
X170460632Y-22223828D01*
X170003372Y-21766568D01*
X169405932Y-21519100D01*
X168759268Y-21519100D01*
X168161828Y-21766568D01*
X167704568Y-22223828D01*
X167457100Y-22821268D01*
X167457100Y-23467932D01*
X167704568Y-24065372D01*
X167738594Y-24099398D01*
X167597850Y-24041100D01*
X167067350Y-24041100D01*
X166577233Y-24244113D01*
X166202113Y-24619233D01*
X165999100Y-25109350D01*
X165166100Y-25109350D01*
X164963087Y-24619233D01*
X164587967Y-24244113D01*
X164097850Y-24041100D01*
X163567350Y-24041100D01*
X163077233Y-24244113D01*
X162702113Y-24619233D01*
X162499100Y-25109350D01*
X161666100Y-25109350D01*
X161463087Y-24619233D01*
X161087967Y-24244113D01*
X160597850Y-24041100D01*
X160067350Y-24041100D01*
X159577233Y-24244113D01*
X159202113Y-24619233D01*
X158999100Y-25109350D01*
X143916837Y-25109350D01*
X143858240Y-25050753D01*
X143349194Y-24839900D01*
X142798206Y-24839900D01*
X142289160Y-25050753D01*
X141899553Y-25440360D01*
X141803700Y-25671770D01*
X141707847Y-25440360D01*
X141318240Y-25050753D01*
X140809194Y-24839900D01*
X140258206Y-24839900D01*
X139749160Y-25050753D01*
X139359553Y-25440360D01*
X139263700Y-25671770D01*
X139167847Y-25440360D01*
X138778240Y-25050753D01*
X138269194Y-24839900D01*
X137718206Y-24839900D01*
X137209160Y-25050753D01*
X136819553Y-25440360D01*
X136723700Y-25671770D01*
X136627847Y-25440360D01*
X136238240Y-25050753D01*
X135729194Y-24839900D01*
X135178206Y-24839900D01*
X134669160Y-25050753D01*
X134279553Y-25440360D01*
X134068700Y-25949406D01*
X18651803Y-25949406D01*
X18695742Y-23409406D01*
X132798700Y-23409406D01*
X132798700Y-23960394D01*
X133009553Y-24469440D01*
X133399160Y-24859047D01*
X133908206Y-25069900D01*
X134459194Y-25069900D01*
X134968240Y-24859047D01*
X135357847Y-24469440D01*
X135453700Y-24238030D01*
X135549553Y-24469440D01*
X135939160Y-24859047D01*
X136448206Y-25069900D01*
X136999194Y-25069900D01*
X137508240Y-24859047D01*
X137897847Y-24469440D01*
X137993700Y-24238030D01*
X138089553Y-24469440D01*
X138479160Y-24859047D01*
X138988206Y-25069900D01*
X139539194Y-25069900D01*
X140048240Y-24859047D01*
X140437847Y-24469440D01*
X140533700Y-24238030D01*
X140629553Y-24469440D01*
X141019160Y-24859047D01*
X141528206Y-25069900D01*
X142079194Y-25069900D01*
X142588240Y-24859047D01*
X142977847Y-24469440D01*
X143188700Y-23960394D01*
X143188700Y-23409406D01*
X142977847Y-22900360D01*
X142588240Y-22510753D01*
X142079194Y-22299900D01*
X141528206Y-22299900D01*
X141019160Y-22510753D01*
X140629553Y-22900360D01*
X140533700Y-23131770D01*
X140437847Y-22900360D01*
X140048240Y-22510753D01*
X139539194Y-22299900D01*
X138988206Y-22299900D01*
X138479160Y-22510753D01*
X138089553Y-22900360D01*
X137993700Y-23131770D01*
X137897847Y-22900360D01*
X137508240Y-22510753D01*
X136999194Y-22299900D01*
X136448206Y-22299900D01*
X135939160Y-22510753D01*
X135549553Y-22900360D01*
X135453700Y-23131770D01*
X135357847Y-22900360D01*
X134968240Y-22510753D01*
X134459194Y-22299900D01*
X133908206Y-22299900D01*
X133399160Y-22510753D01*
X133009553Y-22900360D01*
X132798700Y-23409406D01*
X18695742Y-23409406D01*
X18734547Y-21166178D01*
X25528300Y-21166178D01*
X25528300Y-21816622D01*
X25777214Y-22417553D01*
X26237147Y-22877486D01*
X26838078Y-23126400D01*
X27488522Y-23126400D01*
X28089453Y-22877486D01*
X28549386Y-22417553D01*
X28798300Y-21816622D01*
X28798300Y-21166178D01*
X88928300Y-21166178D01*
X88928300Y-21816622D01*
X89177214Y-22417553D01*
X89637147Y-22877486D01*
X90238078Y-23126400D01*
X90888522Y-23126400D01*
X91489453Y-22877486D01*
X91949386Y-22417553D01*
X92198300Y-21816622D01*
X92198300Y-21166178D01*
X91949386Y-20565247D01*
X91489453Y-20105314D01*
X90888522Y-19856400D01*
X90238078Y-19856400D01*
X89637147Y-20105314D01*
X89177214Y-20565247D01*
X88928300Y-21166178D01*
X28798300Y-21166178D01*
X28549386Y-20565247D01*
X28089453Y-20105314D01*
X27488522Y-19856400D01*
X26838078Y-19856400D01*
X26237147Y-20105314D01*
X25777214Y-20565247D01*
X25528300Y-21166178D01*
X18734547Y-21166178D01*
X18831904Y-15538213D01*
X178282227Y-16851793D01*
G04 #@! TD*
M02*
