M48
INCH,TZ
T1C0.0120
T2C0.0157
T3C0.0315
T4C0.0374
T5C0.0402
T6C0.0512
T7C0.0591
T8C0.0630
T9C0.0630
T10C0.0689
T11C0.0858
T12C0.0787
T13C0.1122
%
G90
G05
T1
X32825Y-22664
T2
X32992Y-18855
X35160Y-26130
X35180Y-24094
X36178Y-27416
T3
X48635Y-33095
X49135Y-32095
X49635Y-33095
X50135Y-32095
X50635Y-33095
X51135Y-32095
X51635Y-33095
X52135Y-32095
X52635Y-33095
X53135Y-32095
X53635Y-33095
X54135Y-32095
X54635Y-33095
X55135Y-32095
X55635Y-33095
X56135Y-32095
X56635Y-33095
X57135Y-32095
X57635Y-33095
X58135Y-32095
X48823Y-16588
X49323Y-15588
X49823Y-16588
X50323Y-15588
X50823Y-16588
X51323Y-15588
X51823Y-16588
X52323Y-15588
X52823Y-16588
X53323Y-15588
X53823Y-16588
X54323Y-15588
X54823Y-16588
X55323Y-15588
X55823Y-16588
X56323Y-15588
X56823Y-16588
X57323Y-15588
X57823Y-16588
X58323Y-15588
X48675Y-27595
X49175Y-26595
X49675Y-27595
X50175Y-26595
X50675Y-27595
X51175Y-26595
X51675Y-27595
X52175Y-26595
X52675Y-27595
X53175Y-26595
X53675Y-27595
X54175Y-26595
X54675Y-27595
X55175Y-26595
X55675Y-27595
X56175Y-26595
X56675Y-27595
X57175Y-26595
X57675Y-27595
X58175Y-26595
X48675Y-21990
X49175Y-20990
X49675Y-21990
X50175Y-20990
X50675Y-21990
X51175Y-20990
X51675Y-21990
X52175Y-20990
X52675Y-21990
X53175Y-20990
X53675Y-21990
X54175Y-20990
X54675Y-21990
X55175Y-20990
X55675Y-21990
X56175Y-20990
X56675Y-21990
X57175Y-20990
X57675Y-21990
X58175Y-20990
X62965Y-16565
X63465Y-15565
X63965Y-16565
X64465Y-15565
X64965Y-16565
X65465Y-15565
T4
X51998Y-12935
X52828Y-9325
X52998Y-12935
X53328Y-10325
X53828Y-9325
X54328Y-10325
X54828Y-9325
X55328Y-10325
X55828Y-9325
X56155Y-12935
X56328Y-10325
X57155Y-12935
T5
X63123Y-9990
X64501Y-9990
X65879Y-9990
X67257Y-9990
T6
X23523Y-23730
X26523Y-23730
X30523Y-23730
X30523Y-26730
X23352Y-17889
X26352Y-17889
X30352Y-17889
X30352Y-20889
T7
X58686Y-32804
X58874Y-16297
X58726Y-27304
X58726Y-21699
X66016Y-16274
T8
X66568Y-9112
T9
X10943Y-22770
X10943Y-24108
X16257Y-22770
X16257Y-24108
X19403Y-18591
X19403Y-23905
X20741Y-18591
X20741Y-23905
X11038Y-18235
X11038Y-19573
X16352Y-18235
X16352Y-19573
T10
X14513Y-11138
X14513Y-14288
X15301Y-12713
X16088Y-11138
X16088Y-14288
X16875Y-12713
X17663Y-11138
X17663Y-14288
X18450Y-12713
X19238Y-11138
X19238Y-14288
X20025Y-12713
X20812Y-11138
X20812Y-14288
X21600Y-12713
X22387Y-11138
X22387Y-14288
X23175Y-12713
X23962Y-11138
X23962Y-14288
X24749Y-12713
X25537Y-11138
X25537Y-14288
X26324Y-12713
X27112Y-11138
X27112Y-14288
X27899Y-12713
X28686Y-11138
X28686Y-14288
X29474Y-12713
X30261Y-11138
X30261Y-14288
X31049Y-12713
X31836Y-11138
X31836Y-14288
T11
X51840Y-11065
X57312Y-11065
T12
X10104Y-15587
X10694Y-8461
X35655Y-8461
X36245Y-15587
T13
X11954Y-12910
X34395Y-12910
T0
M30
