G04 #@! TF.GenerationSoftware,KiCad,Pcbnew,5.0.0-fee4fd1~66~ubuntu18.04.1*
G04 #@! TF.CreationDate,2019-04-24T16:36:54-04:00*
G04 #@! TF.ProjectId,REV 2,52455620322E6B696361645F70636200,rev?*
G04 #@! TF.SameCoordinates,Original*
G04 #@! TF.FileFunction,Soldermask,Top*
G04 #@! TF.FilePolarity,Negative*
%FSLAX46Y46*%
G04 Gerber Fmt 4.6, Leading zero omitted, Abs format (unit mm)*
G04 Created by KiCad (PCBNEW 5.0.0-fee4fd1~66~ubuntu18.04.1) date Wed Apr 24 16:36:54 2019*
%MOMM*%
%LPD*%
G01*
G04 APERTURE LIST*
%ADD10C,2.400000*%
%ADD11C,1.700000*%
%ADD12C,3.400000*%
%ADD13C,3.250000*%
%ADD14C,3.150000*%
%ADD15C,1.900000*%
%ADD16C,2.432000*%
%ADD17R,1.600000X1.600000*%
%ADD18C,1.797000*%
%ADD19C,2.381000*%
%ADD20C,2.200000*%
%ADD21R,1.300000X1.200000*%
%ADD22R,1.100000X1.700000*%
%ADD23R,1.700000X1.100000*%
G04 APERTURE END LIST*
D10*
G04 #@! TO.C,J3*
X149539960Y-41394380D03*
D11*
X124009960Y-42134380D03*
X125279960Y-39594380D03*
X126549960Y-42134380D03*
X127819960Y-39594380D03*
X129089960Y-42134380D03*
X130359960Y-39594380D03*
X131629960Y-42134380D03*
X132899960Y-39594380D03*
X134169960Y-42134380D03*
X135439960Y-39594380D03*
X136709960Y-42134380D03*
X137979960Y-39594380D03*
X139249960Y-42134380D03*
X141789960Y-42134380D03*
X144329960Y-42134380D03*
X146869960Y-42134380D03*
X140519960Y-39594380D03*
X148139960Y-39594380D03*
X145599960Y-39594380D03*
X143059960Y-39594380D03*
G04 #@! TD*
D12*
G04 #@! TO.C,J1*
X36863300Y-28291400D03*
X38863300Y-32291400D03*
X36863300Y-36291400D03*
X40863300Y-28291400D03*
X42863300Y-32291400D03*
X40863300Y-36291400D03*
X44863300Y-28291400D03*
X46863300Y-32291400D03*
X44863300Y-36291400D03*
X48863300Y-28291400D03*
X48863300Y-36291400D03*
X50863300Y-32291400D03*
X52863300Y-28291400D03*
D13*
X87363300Y-32791400D03*
D12*
X80863300Y-28291400D03*
X78863300Y-32291400D03*
X80863300Y-36291400D03*
X76863300Y-28291400D03*
X72863300Y-28291400D03*
X64863300Y-28291400D03*
X68863300Y-28291400D03*
X60863300Y-28291400D03*
X56863300Y-28291400D03*
X54863300Y-32291400D03*
X58863300Y-32291400D03*
X66863300Y-32291400D03*
X62863300Y-32291400D03*
X70863300Y-32291400D03*
X74863300Y-32291400D03*
X56863300Y-36291400D03*
X60863300Y-36291400D03*
X64863300Y-36291400D03*
X68863300Y-36291400D03*
X72863300Y-36291400D03*
X76863300Y-36291400D03*
X52863300Y-36291400D03*
D10*
X90563300Y-21491400D03*
X27163300Y-21491400D03*
X92063300Y-39591400D03*
X25663300Y-39591400D03*
D13*
X30363300Y-32791400D03*
G04 #@! TD*
D14*
G04 #@! TO.C,U1*
X131673700Y-28104900D03*
X145573700Y-28104900D03*
D15*
X134183700Y-23684900D03*
X136723700Y-23684900D03*
X139263700Y-23684900D03*
X141803700Y-23684900D03*
X135453700Y-26224900D03*
X137993700Y-26224900D03*
X140533700Y-26224900D03*
X143073700Y-26224900D03*
X134613700Y-32854900D03*
X132073700Y-32854900D03*
X142633700Y-32854900D03*
X145173700Y-32854900D03*
G04 #@! TD*
D10*
G04 #@! TO.C,J2*
X167681100Y-41335100D03*
D11*
X159931100Y-42075100D03*
X162471100Y-42075100D03*
X165011100Y-42075100D03*
X166281100Y-39535100D03*
X163741100Y-39535100D03*
X161201100Y-39535100D03*
G04 #@! TD*
D16*
G04 #@! TO.C,U4*
X49282880Y-47219920D03*
X52682880Y-47219920D03*
X52682880Y-60719920D03*
X49282880Y-60719920D03*
G04 #@! TD*
D17*
G04 #@! TO.C,D2*
X81196180Y-47896320D03*
X81196180Y-50696320D03*
G04 #@! TD*
G04 #@! TO.C,D3*
X85031400Y-57566560D03*
X87231400Y-57566560D03*
G04 #@! TD*
D10*
G04 #@! TO.C,J4*
X149062900Y-83321300D03*
D11*
X123532900Y-84061300D03*
X124802900Y-81521300D03*
X126072900Y-84061300D03*
X127342900Y-81521300D03*
X128612900Y-84061300D03*
X129882900Y-81521300D03*
X131152900Y-84061300D03*
X132422900Y-81521300D03*
X133692900Y-84061300D03*
X134962900Y-81521300D03*
X136232900Y-84061300D03*
X137502900Y-81521300D03*
X138772900Y-84061300D03*
X141312900Y-84061300D03*
X143852900Y-84061300D03*
X146392900Y-84061300D03*
X140042900Y-81521300D03*
X147662900Y-81521300D03*
X145122900Y-81521300D03*
X142582900Y-81521300D03*
G04 #@! TD*
D10*
G04 #@! TO.C,J5*
X149164500Y-55114600D03*
D11*
X123634500Y-55854600D03*
X124904500Y-53314600D03*
X126174500Y-55854600D03*
X127444500Y-53314600D03*
X128714500Y-55854600D03*
X129984500Y-53314600D03*
X131254500Y-55854600D03*
X132524500Y-53314600D03*
X133794500Y-55854600D03*
X135064500Y-53314600D03*
X136334500Y-55854600D03*
X137604500Y-53314600D03*
X138874500Y-55854600D03*
X141414500Y-55854600D03*
X143954500Y-55854600D03*
X146494500Y-55854600D03*
X140144500Y-53314600D03*
X147764500Y-53314600D03*
X145224500Y-53314600D03*
X142684500Y-53314600D03*
G04 #@! TD*
D10*
G04 #@! TO.C,J6*
X149164500Y-69351300D03*
D11*
X123634500Y-70091300D03*
X124904500Y-67551300D03*
X126174500Y-70091300D03*
X127444500Y-67551300D03*
X128714500Y-70091300D03*
X129984500Y-67551300D03*
X131254500Y-70091300D03*
X132524500Y-67551300D03*
X133794500Y-70091300D03*
X135064500Y-67551300D03*
X136334500Y-70091300D03*
X137604500Y-67551300D03*
X138874500Y-70091300D03*
X141414500Y-70091300D03*
X143954500Y-70091300D03*
X146494500Y-70091300D03*
X140144500Y-67551300D03*
X147764500Y-67551300D03*
X145224500Y-67551300D03*
X142684500Y-67551300D03*
G04 #@! TD*
D18*
G04 #@! TO.C,J7*
X160332600Y-25374600D03*
X163832600Y-25374600D03*
D19*
X169082600Y-23144600D03*
D18*
X170832600Y-25374600D03*
X167332600Y-25374600D03*
G04 #@! TD*
D20*
G04 #@! TO.C,K1*
X77528420Y-67894200D03*
X59748420Y-60274200D03*
X67368420Y-60274200D03*
X77528420Y-60274200D03*
G04 #@! TD*
G04 #@! TO.C,K2*
X77094080Y-53058060D03*
X59314080Y-45438060D03*
X66934080Y-45438060D03*
X77094080Y-45438060D03*
G04 #@! TD*
D21*
G04 #@! TO.C,Q1*
X85271900Y-68628260D03*
X87371900Y-67678260D03*
X87371900Y-69578260D03*
G04 #@! TD*
G04 #@! TO.C,Q2*
X83393280Y-68663820D03*
X81393280Y-67613820D03*
X81393280Y-69713820D03*
G04 #@! TD*
G04 #@! TO.C,Q3*
X81230760Y-60264040D03*
X83330760Y-59314040D03*
X83330760Y-61214040D03*
G04 #@! TD*
D22*
G04 #@! TO.C,R1*
X81544120Y-65763140D03*
X83444120Y-65763140D03*
G04 #@! TD*
D23*
G04 #@! TO.C,R2*
X87167720Y-61193720D03*
X87167720Y-59293720D03*
G04 #@! TD*
G04 #@! TO.C,R3*
X89291160Y-69578260D03*
X89291160Y-67678260D03*
G04 #@! TD*
G04 #@! TO.C,R4*
X85059520Y-59273400D03*
X85059520Y-61173400D03*
G04 #@! TD*
D16*
G04 #@! TO.C,U2*
X41535300Y-49716160D03*
X41535300Y-46316160D03*
X28035300Y-46316160D03*
X28035300Y-49716160D03*
G04 #@! TD*
G04 #@! TO.C,U3*
X41294000Y-61235060D03*
X41294000Y-57835060D03*
X27794000Y-57835060D03*
X27794000Y-61235060D03*
G04 #@! TD*
M02*
