G04 #@! TF.GenerationSoftware,KiCad,Pcbnew,5.0.2-bee76a0~70~ubuntu18.04.1*
G04 #@! TF.CreationDate,2019-02-13T21:41:43-05:00*
G04 #@! TF.ProjectId,Brakelight_Shutdown_BSPD,4272616b-656c-4696-9768-745f53687574,rev?*
G04 #@! TF.SameCoordinates,Original*
G04 #@! TF.FileFunction,Copper,L1,Top*
G04 #@! TF.FilePolarity,Positive*
%FSLAX46Y46*%
G04 Gerber Fmt 4.6, Leading zero omitted, Abs format (unit mm)*
G04 Created by KiCad (PCBNEW 5.0.2-bee76a0~70~ubuntu18.04.1) date Wed 13 Feb 2019 09:41:43 PM EST*
%MOMM*%
%LPD*%
G01*
G04 APERTURE LIST*
G04 #@! TA.AperFunction,SMDPad,CuDef*
%ADD10R,0.700000X1.300000*%
G04 #@! TD*
G04 #@! TA.AperFunction,SMDPad,CuDef*
%ADD11R,1.400000X1.200000*%
G04 #@! TD*
G04 #@! TA.AperFunction,SMDPad,CuDef*
%ADD12R,1.000000X1.250000*%
G04 #@! TD*
G04 #@! TA.AperFunction,SMDPad,CuDef*
%ADD13R,1.250000X1.000000*%
G04 #@! TD*
G04 #@! TA.AperFunction,SMDPad,CuDef*
%ADD14R,1.200000X1.200000*%
G04 #@! TD*
G04 #@! TA.AperFunction,SMDPad,CuDef*
%ADD15R,0.900000X2.500000*%
G04 #@! TD*
G04 #@! TA.AperFunction,SMDPad,CuDef*
%ADD16R,3.300000X8.200000*%
G04 #@! TD*
G04 #@! TA.AperFunction,SMDPad,CuDef*
%ADD17R,1.300000X0.700000*%
G04 #@! TD*
G04 #@! TA.AperFunction,SMDPad,CuDef*
%ADD18R,1.060000X0.650000*%
G04 #@! TD*
G04 #@! TA.AperFunction,SMDPad,CuDef*
%ADD19R,1.000000X1.600000*%
G04 #@! TD*
G04 #@! TA.AperFunction,SMDPad,CuDef*
%ADD20R,1.778000X2.159000*%
G04 #@! TD*
G04 #@! TA.AperFunction,SMDPad,CuDef*
%ADD21R,3.200000X1.000000*%
G04 #@! TD*
G04 #@! TA.AperFunction,SMDPad,CuDef*
%ADD22R,1.600000X0.550000*%
G04 #@! TD*
G04 #@! TA.AperFunction,SMDPad,CuDef*
%ADD23R,0.550000X1.600000*%
G04 #@! TD*
G04 #@! TA.AperFunction,ComponentPad*
%ADD24C,1.300000*%
G04 #@! TD*
G04 #@! TA.AperFunction,ComponentPad*
%ADD25R,1.400000X1.400000*%
G04 #@! TD*
G04 #@! TA.AperFunction,ComponentPad*
%ADD26C,1.400000*%
G04 #@! TD*
G04 #@! TA.AperFunction,SMDPad,CuDef*
%ADD27R,0.900000X0.800000*%
G04 #@! TD*
G04 #@! TA.AperFunction,SMDPad,CuDef*
%ADD28R,0.800000X0.900000*%
G04 #@! TD*
G04 #@! TA.AperFunction,Conductor*
%ADD29C,2.000000*%
G04 #@! TD*
G04 #@! TA.AperFunction,SMDPad,CuDef*
%ADD30C,0.875000*%
G04 #@! TD*
G04 #@! TA.AperFunction,SMDPad,CuDef*
%ADD31R,0.650000X1.060000*%
G04 #@! TD*
G04 #@! TA.AperFunction,SMDPad,CuDef*
%ADD32R,0.600000X1.550000*%
G04 #@! TD*
G04 #@! TA.AperFunction,ViaPad*
%ADD33C,0.609600*%
G04 #@! TD*
G04 #@! TA.AperFunction,Conductor*
%ADD34C,0.254000*%
G04 #@! TD*
G04 #@! TA.AperFunction,Conductor*
%ADD35C,0.152400*%
G04 #@! TD*
G04 #@! TA.AperFunction,Conductor*
%ADD36C,0.600000*%
G04 #@! TD*
G04 #@! TA.AperFunction,Conductor*
%ADD37C,0.800000*%
G04 #@! TD*
G04 #@! TA.AperFunction,Conductor*
%ADD38C,0.700000*%
G04 #@! TD*
G04 #@! TA.AperFunction,Conductor*
%ADD39C,0.500000*%
G04 #@! TD*
G04 #@! TA.AperFunction,Conductor*
%ADD40C,0.250000*%
G04 #@! TD*
G04 #@! TA.AperFunction,Conductor*
%ADD41C,0.300000*%
G04 #@! TD*
G04 APERTURE END LIST*
D10*
G04 #@! TO.P,R1,1*
G04 #@! TO.N,VCC*
X187553600Y-99364800D03*
G04 #@! TO.P,R1,2*
G04 #@! TO.N,Net-(C2-Pad1)*
X189453600Y-99364800D03*
G04 #@! TD*
D11*
G04 #@! TO.P,Y1,1*
G04 #@! TO.N,Net-(C3-Pad1)*
X188623300Y-88798400D03*
G04 #@! TO.P,Y1,2*
G04 #@! TO.N,GND*
X186423300Y-88798400D03*
G04 #@! TO.P,Y1,3*
G04 #@! TO.N,Net-(C4-Pad1)*
X186423300Y-90398400D03*
G04 #@! TO.P,Y1,4*
G04 #@! TO.N,GND*
X188623300Y-90398400D03*
G04 #@! TD*
D12*
G04 #@! TO.P,C11,1*
G04 #@! TO.N,Net-(C11-Pad1)*
X196770500Y-36830000D03*
G04 #@! TO.P,C11,2*
G04 #@! TO.N,Net-(C11-Pad2)*
X194770500Y-36830000D03*
G04 #@! TD*
D13*
G04 #@! TO.P,C13,1*
G04 #@! TO.N,Net-(C12-Pad1)*
X187134500Y-34020000D03*
G04 #@! TO.P,C13,2*
G04 #@! TO.N,GND*
X187134500Y-32020000D03*
G04 #@! TD*
G04 #@! TO.P,C12,1*
G04 #@! TO.N,Net-(C12-Pad1)*
X189420500Y-34020000D03*
G04 #@! TO.P,C12,2*
G04 #@! TO.N,GND*
X189420500Y-32020000D03*
G04 #@! TD*
D14*
G04 #@! TO.P,D6,2*
G04 #@! TO.N,Net-(D6-Pad2)*
X178244500Y-38438000D03*
G04 #@! TO.P,D6,1*
G04 #@! TO.N,GND*
X178244500Y-36238000D03*
G04 #@! TD*
D15*
G04 #@! TO.P,F1,1*
G04 #@! TO.N,+12V*
X187087000Y-46120500D03*
G04 #@! TO.P,F1,2*
G04 #@! TO.N,/12V_Fused*
X189987000Y-46120500D03*
G04 #@! TD*
D16*
G04 #@! TO.P,L1,1*
G04 #@! TO.N,Net-(C11-Pad2)*
X190183000Y-39814500D03*
G04 #@! TO.P,L1,2*
G04 #@! TO.N,Net-(C12-Pad1)*
X185483000Y-39814500D03*
G04 #@! TD*
D17*
G04 #@! TO.P,R10,1*
G04 #@! TO.N,/12V_Fused*
X190944500Y-48326000D03*
G04 #@! TO.P,R10,2*
G04 #@! TO.N,Net-(D3-Pad2)*
X190944500Y-50226000D03*
G04 #@! TD*
G04 #@! TO.P,R12,1*
G04 #@! TO.N,/12V_Fused*
X192976500Y-48326000D03*
G04 #@! TO.P,R12,2*
G04 #@! TO.N,Net-(R12-Pad2)*
X192976500Y-50226000D03*
G04 #@! TD*
G04 #@! TO.P,R20,1*
G04 #@! TO.N,VCC*
X178244500Y-42352000D03*
G04 #@! TO.P,R20,2*
G04 #@! TO.N,Net-(D6-Pad2)*
X178244500Y-40452000D03*
G04 #@! TD*
D18*
G04 #@! TO.P,U4,1*
G04 #@! TO.N,GND*
X193337000Y-38889900D03*
G04 #@! TO.P,U4,2*
G04 #@! TO.N,Net-(C11-Pad2)*
X193337000Y-39839900D03*
G04 #@! TO.P,U4,3*
G04 #@! TO.N,/12V_Fused*
X193337000Y-40789900D03*
G04 #@! TO.P,U4,4*
G04 #@! TO.N,Net-(R15-Pad1)*
X195537000Y-40789900D03*
G04 #@! TO.P,U4,6*
G04 #@! TO.N,Net-(C11-Pad1)*
X195537000Y-38889900D03*
G04 #@! TO.P,U4,5*
G04 #@! TO.N,Net-(R12-Pad2)*
X195537000Y-39839900D03*
G04 #@! TD*
D19*
G04 #@! TO.P,C7,1*
G04 #@! TO.N,/12V_Fused*
X193254500Y-43180000D03*
G04 #@! TO.P,C7,2*
G04 #@! TO.N,GND*
X196254500Y-43180000D03*
G04 #@! TD*
D13*
G04 #@! TO.P,C14,1*
G04 #@! TO.N,Net-(C12-Pad1)*
X185102500Y-34020000D03*
G04 #@! TO.P,C14,2*
G04 #@! TO.N,GND*
X185102500Y-32020000D03*
G04 #@! TD*
D14*
G04 #@! TO.P,D3,2*
G04 #@! TO.N,Net-(D3-Pad2)*
X188488500Y-50038000D03*
G04 #@! TO.P,D3,1*
G04 #@! TO.N,GND*
X186288500Y-50038000D03*
G04 #@! TD*
D20*
G04 #@! TO.P,D2,2*
G04 #@! TO.N,GND*
X178752500Y-47498000D03*
G04 #@! TO.P,D2,1*
G04 #@! TO.N,+12V*
X182816500Y-47498000D03*
G04 #@! TD*
D21*
G04 #@! TO.P,R19,1*
G04 #@! TO.N,VCC*
X181419500Y-43105000D03*
G04 #@! TO.P,R19,2*
G04 #@! TO.N,Net-(C12-Pad1)*
X181419500Y-36905000D03*
G04 #@! TD*
D17*
G04 #@! TO.P,R15,1*
G04 #@! TO.N,Net-(R15-Pad1)*
X198056500Y-40706000D03*
G04 #@! TO.P,R15,2*
G04 #@! TO.N,GND*
X198056500Y-42606000D03*
G04 #@! TD*
D10*
G04 #@! TO.P,R16,1*
G04 #@! TO.N,Net-(R15-Pad1)*
X196974500Y-33528000D03*
G04 #@! TO.P,R16,2*
G04 #@! TO.N,Net-(C12-Pad1)*
X195074500Y-33528000D03*
G04 #@! TD*
D13*
G04 #@! TO.P,C1,2*
G04 #@! TO.N,GND*
X180086000Y-93065600D03*
G04 #@! TO.P,C1,1*
G04 #@! TO.N,VCC*
X180086000Y-91065600D03*
G04 #@! TD*
D12*
G04 #@! TO.P,C2,1*
G04 #@! TO.N,Net-(C2-Pad1)*
X196316600Y-84226400D03*
G04 #@! TO.P,C2,2*
G04 #@! TO.N,GND*
X198316600Y-84226400D03*
G04 #@! TD*
D13*
G04 #@! TO.P,C3,2*
G04 #@! TO.N,GND*
X190741300Y-91973400D03*
G04 #@! TO.P,C3,1*
G04 #@! TO.N,Net-(C3-Pad1)*
X190741300Y-89973400D03*
G04 #@! TD*
G04 #@! TO.P,C4,2*
G04 #@! TO.N,GND*
X184391300Y-91941400D03*
G04 #@! TO.P,C4,1*
G04 #@! TO.N,Net-(C4-Pad1)*
X184391300Y-89941400D03*
G04 #@! TD*
D12*
G04 #@! TO.P,C5,1*
G04 #@! TO.N,Net-(C5-Pad1)*
X202041000Y-74650600D03*
G04 #@! TO.P,C5,2*
G04 #@! TO.N,GND*
X200041000Y-74650600D03*
G04 #@! TD*
G04 #@! TO.P,C6,1*
G04 #@! TO.N,Net-(C6-Pad1)*
X207060800Y-90322400D03*
G04 #@! TO.P,C6,2*
G04 #@! TO.N,GND*
X209060800Y-90322400D03*
G04 #@! TD*
G04 #@! TO.P,C8,2*
G04 #@! TO.N,GND*
X209568800Y-76758800D03*
G04 #@! TO.P,C8,1*
G04 #@! TO.N,VCC*
X207568800Y-76758800D03*
G04 #@! TD*
G04 #@! TO.P,C9,1*
G04 #@! TO.N,VCC*
X173278800Y-92456000D03*
G04 #@! TO.P,C9,2*
G04 #@! TO.N,GND*
X175278800Y-92456000D03*
G04 #@! TD*
G04 #@! TO.P,C10,1*
G04 #@! TO.N,Net-(C10-Pad1)*
X208321400Y-79121000D03*
G04 #@! TO.P,C10,2*
G04 #@! TO.N,GND*
X210321400Y-79121000D03*
G04 #@! TD*
D14*
G04 #@! TO.P,D1,1*
G04 #@! TO.N,GND*
X208102200Y-70545600D03*
G04 #@! TO.P,D1,2*
G04 #@! TO.N,Net-(D1-Pad2)*
X208102200Y-72745600D03*
G04 #@! TD*
G04 #@! TO.P,D4,1*
G04 #@! TO.N,GND*
X212826600Y-91346200D03*
G04 #@! TO.P,D4,2*
G04 #@! TO.N,Net-(D4-Pad2)*
X212826600Y-89146200D03*
G04 #@! TD*
G04 #@! TO.P,D5,2*
G04 #@! TO.N,Net-(D5-Pad2)*
X196900800Y-94111900D03*
G04 #@! TO.P,D5,1*
G04 #@! TO.N,GND*
X196900800Y-96311900D03*
G04 #@! TD*
G04 #@! TO.P,D7,2*
G04 #@! TO.N,Net-(D7-Pad2)*
X174472600Y-57454800D03*
G04 #@! TO.P,D7,1*
G04 #@! TO.N,GND*
X176672600Y-57454800D03*
G04 #@! TD*
G04 #@! TO.P,D8,1*
G04 #@! TO.N,GND*
X194902000Y-57480200D03*
G04 #@! TO.P,D8,2*
G04 #@! TO.N,Net-(D8-Pad2)*
X192702000Y-57480200D03*
G04 #@! TD*
G04 #@! TO.P,D9,2*
G04 #@! TO.N,Net-(D9-Pad2)*
X180383000Y-57480200D03*
G04 #@! TO.P,D9,1*
G04 #@! TO.N,GND*
X182583000Y-57480200D03*
G04 #@! TD*
G04 #@! TO.P,D10,2*
G04 #@! TO.N,Net-(D10-Pad2)*
X186471200Y-57353200D03*
G04 #@! TO.P,D10,1*
G04 #@! TO.N,GND*
X188671200Y-57353200D03*
G04 #@! TD*
G04 #@! TO.P,D12,1*
G04 #@! TO.N,GND*
X194995800Y-96332400D03*
G04 #@! TO.P,D12,2*
G04 #@! TO.N,Net-(D12-Pad2)*
X194995800Y-94132400D03*
G04 #@! TD*
G04 #@! TO.P,D13,2*
G04 #@! TO.N,Net-(D13-Pad2)*
X193027300Y-94132400D03*
G04 #@! TO.P,D13,1*
G04 #@! TO.N,GND*
X193027300Y-96332400D03*
G04 #@! TD*
D22*
G04 #@! TO.P,IC1,1*
G04 #@! TO.N,/MISO*
X185157800Y-79775400D03*
G04 #@! TO.P,IC1,2*
G04 #@! TO.N,/MOSI*
X185157800Y-80575400D03*
G04 #@! TO.P,IC1,3*
G04 #@! TO.N,Net-(IC1-Pad3)*
X185157800Y-81375400D03*
G04 #@! TO.P,IC1,4*
G04 #@! TO.N,VCC*
X185157800Y-82175400D03*
G04 #@! TO.P,IC1,5*
G04 #@! TO.N,GND*
X185157800Y-82975400D03*
G04 #@! TO.P,IC1,6*
G04 #@! TO.N,/TXCAN*
X185157800Y-83775400D03*
G04 #@! TO.P,IC1,7*
G04 #@! TO.N,/RXCAN*
X185157800Y-84575400D03*
G04 #@! TO.P,IC1,8*
G04 #@! TO.N,Net-(IC1-Pad8)*
X185157800Y-85375400D03*
D23*
G04 #@! TO.P,IC1,9*
G04 #@! TO.N,Net-(IC1-Pad9)*
X186607800Y-86825400D03*
G04 #@! TO.P,IC1,10*
G04 #@! TO.N,Net-(C4-Pad1)*
X187407800Y-86825400D03*
G04 #@! TO.P,IC1,11*
G04 #@! TO.N,Net-(C3-Pad1)*
X188207800Y-86825400D03*
G04 #@! TO.P,IC1,12*
G04 #@! TO.N,/SCK*
X189007800Y-86825400D03*
G04 #@! TO.P,IC1,13*
G04 #@! TO.N,Net-(IC1-Pad13)*
X189807800Y-86825400D03*
G04 #@! TO.P,IC1,14*
G04 #@! TO.N,/LED_1*
X190607800Y-86825400D03*
G04 #@! TO.P,IC1,15*
G04 #@! TO.N,/LED_2*
X191407800Y-86825400D03*
G04 #@! TO.P,IC1,16*
G04 #@! TO.N,/LED_3*
X192207800Y-86825400D03*
D22*
G04 #@! TO.P,IC1,17*
G04 #@! TO.N,/BSPD_Relay_Sense*
X193657800Y-85375400D03*
G04 #@! TO.P,IC1,18*
G04 #@! TO.N,/BSPD_Current_Sense*
X193657800Y-84575400D03*
G04 #@! TO.P,IC1,19*
G04 #@! TO.N,Net-(C2-Pad1)*
X193657800Y-83775400D03*
G04 #@! TO.P,IC1,20*
G04 #@! TO.N,GND*
X193657800Y-82975400D03*
G04 #@! TO.P,IC1,21*
G04 #@! TO.N,Net-(IC1-Pad21)*
X193657800Y-82175400D03*
G04 #@! TO.P,IC1,22*
G04 #@! TO.N,/Brake_Pressure_Sense*
X193657800Y-81375400D03*
G04 #@! TO.P,IC1,23*
G04 #@! TO.N,Net-(IC1-Pad23)*
X193657800Y-80575400D03*
G04 #@! TO.P,IC1,24*
G04 #@! TO.N,Net-(IC1-Pad24)*
X193657800Y-79775400D03*
D23*
G04 #@! TO.P,IC1,25*
G04 #@! TO.N,Net-(IC1-Pad25)*
X192207800Y-78325400D03*
G04 #@! TO.P,IC1,26*
G04 #@! TO.N,/SS_E-Stop_Pin*
X191407800Y-78325400D03*
G04 #@! TO.P,IC1,27*
G04 #@! TO.N,/SS_TSMS_Pin*
X190607800Y-78325400D03*
G04 #@! TO.P,IC1,28*
G04 #@! TO.N,/SS_BSPD_Pin*
X189807800Y-78325400D03*
G04 #@! TO.P,IC1,29*
G04 #@! TO.N,/SS_Main_Shutdown_Pin*
X189007800Y-78325400D03*
G04 #@! TO.P,IC1,30*
G04 #@! TO.N,/Cooling_Pump_LSD*
X188207800Y-78325400D03*
G04 #@! TO.P,IC1,31*
G04 #@! TO.N,/RESET*
X187407800Y-78325400D03*
G04 #@! TO.P,IC1,32*
G04 #@! TO.N,/Brakelight_Gate*
X186607800Y-78325400D03*
G04 #@! TD*
D24*
G04 #@! TO.P,J1,5*
G04 #@! TO.N,/Cooling_Pressure_Sense*
X165150800Y-60350400D03*
G04 #@! TO.P,J1,3*
G04 #@! TO.N,/Shutdown_Sense_BSPD*
X165150800Y-57810400D03*
G04 #@! TO.P,J1,1*
G04 #@! TO.N,/Shutdown_Sense_GLVMS*
X165150800Y-55270400D03*
G04 #@! TO.P,J1,2*
G04 #@! TO.N,/Shutdown_Sense_Estop*
X167690800Y-56540400D03*
G04 #@! TO.P,J1,4*
G04 #@! TO.N,/Shutdown_Sense_TSMS*
X167690800Y-59080400D03*
G04 #@! TO.P,J1,6*
G04 #@! TO.N,/BSPD_Current_Sense*
X167690800Y-61620400D03*
G04 #@! TD*
G04 #@! TO.P,J2,5*
G04 #@! TO.N,/Brake_Switch-*
X165468300Y-78574900D03*
G04 #@! TO.P,J2,3*
G04 #@! TO.N,/BSPD_Relay*
X165468300Y-76034900D03*
G04 #@! TO.P,J2,1*
G04 #@! TO.N,GND*
X165468300Y-73494900D03*
G04 #@! TO.P,J2,7*
G04 #@! TO.N,/CAN_low*
X165468300Y-81114900D03*
G04 #@! TO.P,J2,2*
G04 #@! TO.N,+12V*
X168008300Y-74764900D03*
G04 #@! TO.P,J2,4*
G04 #@! TO.N,VCC*
X168008300Y-77304900D03*
G04 #@! TO.P,J2,6*
G04 #@! TO.N,/CAN_high*
X168008300Y-79844900D03*
G04 #@! TO.P,J2,8*
G04 #@! TO.N,VCC*
X168008300Y-82384900D03*
G04 #@! TO.P,J2,9*
G04 #@! TO.N,/MISO*
X165468300Y-83654900D03*
G04 #@! TO.P,J2,10*
G04 #@! TO.N,/MOSI*
X168008300Y-84924900D03*
G04 #@! TO.P,J2,11*
G04 #@! TO.N,/SCK*
X165468300Y-86194900D03*
G04 #@! TO.P,J2,12*
G04 #@! TO.N,/RESET*
X168008300Y-87464900D03*
G04 #@! TO.P,J2,13*
G04 #@! TO.N,/Cooling_Pump_LSD*
X165468300Y-88734900D03*
G04 #@! TO.P,J2,14*
G04 #@! TO.N,/Brakelight_LSD*
X168008300Y-90004900D03*
G04 #@! TO.P,J2,15*
G04 #@! TO.N,VCC*
X165468300Y-91274900D03*
G04 #@! TO.P,J2,16*
G04 #@! TO.N,/Brake_Pressure_Sense*
X168008300Y-92544900D03*
G04 #@! TO.P,J2,17*
G04 #@! TO.N,GND*
X165468300Y-93814900D03*
G04 #@! TO.P,J2,18*
G04 #@! TO.N,/BSPD_Current_Sense*
X168008300Y-95084900D03*
G04 #@! TO.P,J2,19*
G04 #@! TO.N,/RJ45_LED1*
X165468300Y-96354900D03*
G04 #@! TO.P,J2,20*
G04 #@! TO.N,/RJ45_LED2*
X168008300Y-97624900D03*
G04 #@! TD*
D25*
G04 #@! TO.P,J3,1*
G04 #@! TO.N,/MISO*
X209143600Y-48717200D03*
D26*
G04 #@! TO.P,J3,2*
G04 #@! TO.N,VCC*
X211683600Y-48717200D03*
G04 #@! TO.P,J3,3*
G04 #@! TO.N,/SCK*
X209143600Y-51257200D03*
G04 #@! TO.P,J3,4*
G04 #@! TO.N,/MOSI*
X211683600Y-51257200D03*
G04 #@! TO.P,J3,5*
G04 #@! TO.N,/RESET*
X209143600Y-53797200D03*
G04 #@! TO.P,J3,6*
G04 #@! TO.N,GND*
X211683600Y-53797200D03*
G04 #@! TD*
D27*
G04 #@! TO.P,Q1,3*
G04 #@! TO.N,Net-(Q1-Pad3)*
X207035400Y-87401400D03*
G04 #@! TO.P,Q1,2*
G04 #@! TO.N,GND*
X209135400Y-86451400D03*
G04 #@! TO.P,Q1,1*
G04 #@! TO.N,Net-(C6-Pad1)*
X209135400Y-88351400D03*
G04 #@! TD*
D28*
G04 #@! TO.P,Q2,3*
G04 #@! TO.N,/BSPD_Relay*
X207076000Y-97350000D03*
G04 #@! TO.P,Q2,2*
G04 #@! TO.N,GND*
X206126000Y-95250000D03*
G04 #@! TO.P,Q2,1*
G04 #@! TO.N,/BSPD_Relay_Sense*
X208026000Y-95250000D03*
G04 #@! TD*
G04 #@! TO.P,Q3,1*
G04 #@! TO.N,/Shutdown_Sense_GLVMS*
X175881951Y-63076371D03*
G04 #@! TO.P,Q3,2*
G04 #@! TO.N,GND*
X173981951Y-63076371D03*
G04 #@! TO.P,Q3,3*
G04 #@! TO.N,/SS_Main_Shutdown_Pin*
X174931951Y-65176371D03*
G04 #@! TD*
G04 #@! TO.P,Q4,1*
G04 #@! TO.N,/Shutdown_Sense_Estop*
X194091600Y-62974800D03*
G04 #@! TO.P,Q4,2*
G04 #@! TO.N,GND*
X192191600Y-62974800D03*
G04 #@! TO.P,Q4,3*
G04 #@! TO.N,/SS_E-Stop_Pin*
X193141600Y-65074800D03*
G04 #@! TD*
G04 #@! TO.P,Q5,1*
G04 #@! TO.N,/Shutdown_Sense_BSPD*
X181823400Y-62974800D03*
G04 #@! TO.P,Q5,2*
G04 #@! TO.N,GND*
X179923400Y-62974800D03*
G04 #@! TO.P,Q5,3*
G04 #@! TO.N,/SS_BSPD_Pin*
X180873400Y-65074800D03*
G04 #@! TD*
D27*
G04 #@! TO.P,Q6,1*
G04 #@! TO.N,/Brakelight_Gate*
X184513800Y-73268800D03*
G04 #@! TO.P,Q6,2*
G04 #@! TO.N,GND*
X184513800Y-75168800D03*
G04 #@! TO.P,Q6,3*
G04 #@! TO.N,/Brakelight_LSD*
X186613800Y-74218800D03*
G04 #@! TD*
D28*
G04 #@! TO.P,Q7,3*
G04 #@! TO.N,/SS_TSMS_Pin*
X186984600Y-64939600D03*
G04 #@! TO.P,Q7,2*
G04 #@! TO.N,GND*
X186034600Y-62839600D03*
G04 #@! TO.P,Q7,1*
G04 #@! TO.N,/Shutdown_Sense_TSMS*
X187934600Y-62839600D03*
G04 #@! TD*
D17*
G04 #@! TO.P,R2,2*
G04 #@! TO.N,GND*
X200025000Y-70774600D03*
G04 #@! TO.P,R2,1*
G04 #@! TO.N,/Brake_Switch_Pressed*
X200025000Y-68874600D03*
G04 #@! TD*
D10*
G04 #@! TO.P,R3,2*
G04 #@! TO.N,/RESET*
X176672200Y-80619600D03*
G04 #@! TO.P,R3,1*
G04 #@! TO.N,VCC*
X178572200Y-80619600D03*
G04 #@! TD*
G04 #@! TO.P,R4,1*
G04 #@! TO.N,GND*
X174091600Y-96393000D03*
G04 #@! TO.P,R4,2*
G04 #@! TO.N,/BSPD_Current_Sense*
X172191600Y-96393000D03*
G04 #@! TD*
G04 #@! TO.P,R5,2*
G04 #@! TO.N,Net-(D1-Pad2)*
X205486000Y-72720200D03*
G04 #@! TO.P,R5,1*
G04 #@! TO.N,Net-(R5-Pad1)*
X203586000Y-72720200D03*
G04 #@! TD*
G04 #@! TO.P,R6,1*
G04 #@! TO.N,VCC*
X203560600Y-88671400D03*
G04 #@! TO.P,R6,2*
G04 #@! TO.N,Net-(C6-Pad1)*
X205460600Y-88671400D03*
G04 #@! TD*
G04 #@! TO.P,R7,1*
G04 #@! TO.N,Net-(R5-Pad1)*
X202209400Y-72720200D03*
G04 #@! TO.P,R7,2*
G04 #@! TO.N,Net-(C5-Pad1)*
X200309400Y-72720200D03*
G04 #@! TD*
G04 #@! TO.P,R8,1*
G04 #@! TO.N,VCC*
X198455200Y-79095600D03*
G04 #@! TO.P,R8,2*
G04 #@! TO.N,Net-(R11-Pad1)*
X200355200Y-79095600D03*
G04 #@! TD*
G04 #@! TO.P,R9,2*
G04 #@! TO.N,VCC*
X203560600Y-86664800D03*
G04 #@! TO.P,R9,1*
G04 #@! TO.N,Net-(Q1-Pad3)*
X205460600Y-86664800D03*
G04 #@! TD*
G04 #@! TO.P,R11,2*
G04 #@! TO.N,GND*
X203565800Y-79095600D03*
G04 #@! TO.P,R11,1*
G04 #@! TO.N,Net-(R11-Pad1)*
X201665800Y-79095600D03*
G04 #@! TD*
G04 #@! TO.P,R13,1*
G04 #@! TO.N,Net-(C10-Pad1)*
X206867800Y-79121000D03*
G04 #@! TO.P,R13,2*
G04 #@! TO.N,Net-(R13-Pad2)*
X204967800Y-79121000D03*
G04 #@! TD*
D17*
G04 #@! TO.P,R14,1*
G04 #@! TO.N,/CAN_high*
X170357800Y-81683900D03*
G04 #@! TO.P,R14,2*
G04 #@! TO.N,/CAN_low*
X170357800Y-79783900D03*
G04 #@! TD*
G04 #@! TO.P,R17,2*
G04 #@! TO.N,Net-(D4-Pad2)*
X212801200Y-87426800D03*
G04 #@! TO.P,R17,1*
G04 #@! TO.N,/BSPD_Relay_Sense*
X212801200Y-85526800D03*
G04 #@! TD*
D10*
G04 #@! TO.P,R18,2*
G04 #@! TO.N,GND*
X206248000Y-93065600D03*
G04 #@! TO.P,R18,1*
G04 #@! TO.N,/BSPD_Relay_Sense*
X208148000Y-93065600D03*
G04 #@! TD*
G04 #@! TO.P,R21,1*
G04 #@! TO.N,/Shutdown_Sense_GLVMS*
X176100351Y-59380671D03*
G04 #@! TO.P,R21,2*
G04 #@! TO.N,Net-(D7-Pad2)*
X174200351Y-59380671D03*
G04 #@! TD*
G04 #@! TO.P,R22,2*
G04 #@! TO.N,GND*
X176100351Y-61374571D03*
G04 #@! TO.P,R22,1*
G04 #@! TO.N,/Shutdown_Sense_GLVMS*
X174200351Y-61374571D03*
G04 #@! TD*
G04 #@! TO.P,R23,1*
G04 #@! TO.N,VCC*
X174187651Y-66873671D03*
G04 #@! TO.P,R23,2*
G04 #@! TO.N,/SS_Main_Shutdown_Pin*
X176087651Y-66873671D03*
G04 #@! TD*
G04 #@! TO.P,R24,2*
G04 #@! TO.N,VCC*
X174401400Y-76200000D03*
G04 #@! TO.P,R24,1*
G04 #@! TO.N,Net-(R24-Pad1)*
X176301400Y-76200000D03*
G04 #@! TD*
D17*
G04 #@! TO.P,R25,2*
G04 #@! TO.N,/Brake_Switch-*
X174726600Y-74000400D03*
G04 #@! TO.P,R25,1*
G04 #@! TO.N,GND*
X174726600Y-72100400D03*
G04 #@! TD*
D10*
G04 #@! TO.P,R26,2*
G04 #@! TO.N,Net-(D8-Pad2)*
X192430400Y-59334400D03*
G04 #@! TO.P,R26,1*
G04 #@! TO.N,/Shutdown_Sense_Estop*
X194330400Y-59334400D03*
G04 #@! TD*
G04 #@! TO.P,R27,1*
G04 #@! TO.N,GND*
X179573000Y-76200000D03*
G04 #@! TO.P,R27,2*
G04 #@! TO.N,Net-(R24-Pad1)*
X177673000Y-76200000D03*
G04 #@! TD*
G04 #@! TO.P,R28,2*
G04 #@! TO.N,Net-(D9-Pad2)*
X180126600Y-59334400D03*
G04 #@! TO.P,R28,1*
G04 #@! TO.N,/Shutdown_Sense_BSPD*
X182026600Y-59334400D03*
G04 #@! TD*
G04 #@! TO.P,R29,1*
G04 #@! TO.N,/Shutdown_Sense_Estop*
X192420200Y-61290200D03*
G04 #@! TO.P,R29,2*
G04 #@! TO.N,GND*
X194320200Y-61290200D03*
G04 #@! TD*
G04 #@! TO.P,R30,1*
G04 #@! TO.N,/Shutdown_Sense_BSPD*
X180126600Y-61290200D03*
G04 #@! TO.P,R30,2*
G04 #@! TO.N,GND*
X182026600Y-61290200D03*
G04 #@! TD*
G04 #@! TO.P,R31,1*
G04 #@! TO.N,VCC*
X192384600Y-66802000D03*
G04 #@! TO.P,R31,2*
G04 #@! TO.N,/SS_E-Stop_Pin*
X194284600Y-66802000D03*
G04 #@! TD*
G04 #@! TO.P,R32,2*
G04 #@! TO.N,/SS_BSPD_Pin*
X182052000Y-66802000D03*
G04 #@! TO.P,R32,1*
G04 #@! TO.N,VCC*
X180152000Y-66802000D03*
G04 #@! TD*
D29*
G04 #@! TO.N,/Brakelight_Gate*
G04 #@! TO.C,R33*
G36*
X182942391Y-73643253D02*
X182963626Y-73646403D01*
X182984450Y-73651619D01*
X183004662Y-73658851D01*
X183024068Y-73668030D01*
X183042481Y-73679066D01*
X183059724Y-73691854D01*
X183075630Y-73706270D01*
X183090046Y-73722176D01*
X183102834Y-73739419D01*
X183113870Y-73757832D01*
X183123049Y-73777238D01*
X183130281Y-73797450D01*
X183135497Y-73818274D01*
X183138647Y-73839509D01*
X183139700Y-73860950D01*
X183139700Y-74373450D01*
X183138647Y-74394891D01*
X183135497Y-74416126D01*
X183130281Y-74436950D01*
X183123049Y-74457162D01*
X183113870Y-74476568D01*
X183102834Y-74494981D01*
X183090046Y-74512224D01*
X183075630Y-74528130D01*
X183059724Y-74542546D01*
X183042481Y-74555334D01*
X183024068Y-74566370D01*
X183004662Y-74575549D01*
X182984450Y-74582781D01*
X182963626Y-74587997D01*
X182942391Y-74591147D01*
X182920950Y-74592200D01*
X182483450Y-74592200D01*
X182462009Y-74591147D01*
X182440774Y-74587997D01*
X182419950Y-74582781D01*
X182399738Y-74575549D01*
X182380332Y-74566370D01*
X182361919Y-74555334D01*
X182344676Y-74542546D01*
X182328770Y-74528130D01*
X182314354Y-74512224D01*
X182301566Y-74494981D01*
X182290530Y-74476568D01*
X182281351Y-74457162D01*
X182274119Y-74436950D01*
X182268903Y-74416126D01*
X182265753Y-74394891D01*
X182264700Y-74373450D01*
X182264700Y-73860950D01*
X182265753Y-73839509D01*
X182268903Y-73818274D01*
X182274119Y-73797450D01*
X182281351Y-73777238D01*
X182290530Y-73757832D01*
X182301566Y-73739419D01*
X182314354Y-73722176D01*
X182328770Y-73706270D01*
X182344676Y-73691854D01*
X182361919Y-73679066D01*
X182380332Y-73668030D01*
X182399738Y-73658851D01*
X182419950Y-73651619D01*
X182440774Y-73646403D01*
X182462009Y-73643253D01*
X182483450Y-73642200D01*
X182920950Y-73642200D01*
X182942391Y-73643253D01*
X182942391Y-73643253D01*
G37*
D30*
G04 #@! TD*
G04 #@! TO.P,R33,1*
G04 #@! TO.N,/Brakelight_Gate*
X182702200Y-74117200D03*
D29*
G04 #@! TO.N,/Brake_Switch_Pressed*
G04 #@! TO.C,R33*
G36*
X181367391Y-73643253D02*
X181388626Y-73646403D01*
X181409450Y-73651619D01*
X181429662Y-73658851D01*
X181449068Y-73668030D01*
X181467481Y-73679066D01*
X181484724Y-73691854D01*
X181500630Y-73706270D01*
X181515046Y-73722176D01*
X181527834Y-73739419D01*
X181538870Y-73757832D01*
X181548049Y-73777238D01*
X181555281Y-73797450D01*
X181560497Y-73818274D01*
X181563647Y-73839509D01*
X181564700Y-73860950D01*
X181564700Y-74373450D01*
X181563647Y-74394891D01*
X181560497Y-74416126D01*
X181555281Y-74436950D01*
X181548049Y-74457162D01*
X181538870Y-74476568D01*
X181527834Y-74494981D01*
X181515046Y-74512224D01*
X181500630Y-74528130D01*
X181484724Y-74542546D01*
X181467481Y-74555334D01*
X181449068Y-74566370D01*
X181429662Y-74575549D01*
X181409450Y-74582781D01*
X181388626Y-74587997D01*
X181367391Y-74591147D01*
X181345950Y-74592200D01*
X180908450Y-74592200D01*
X180887009Y-74591147D01*
X180865774Y-74587997D01*
X180844950Y-74582781D01*
X180824738Y-74575549D01*
X180805332Y-74566370D01*
X180786919Y-74555334D01*
X180769676Y-74542546D01*
X180753770Y-74528130D01*
X180739354Y-74512224D01*
X180726566Y-74494981D01*
X180715530Y-74476568D01*
X180706351Y-74457162D01*
X180699119Y-74436950D01*
X180693903Y-74416126D01*
X180690753Y-74394891D01*
X180689700Y-74373450D01*
X180689700Y-73860950D01*
X180690753Y-73839509D01*
X180693903Y-73818274D01*
X180699119Y-73797450D01*
X180706351Y-73777238D01*
X180715530Y-73757832D01*
X180726566Y-73739419D01*
X180739354Y-73722176D01*
X180753770Y-73706270D01*
X180769676Y-73691854D01*
X180786919Y-73679066D01*
X180805332Y-73668030D01*
X180824738Y-73658851D01*
X180844950Y-73651619D01*
X180865774Y-73646403D01*
X180887009Y-73643253D01*
X180908450Y-73642200D01*
X181345950Y-73642200D01*
X181367391Y-73643253D01*
X181367391Y-73643253D01*
G37*
D30*
G04 #@! TD*
G04 #@! TO.P,R33,2*
G04 #@! TO.N,/Brake_Switch_Pressed*
X181127200Y-74117200D03*
D10*
G04 #@! TO.P,R34,1*
G04 #@! TO.N,/Brakelight_Gate*
X182803800Y-76200000D03*
G04 #@! TO.P,R34,2*
G04 #@! TO.N,GND*
X180903800Y-76200000D03*
G04 #@! TD*
G04 #@! TO.P,R35,1*
G04 #@! TO.N,/Shutdown_Sense_TSMS*
X188112400Y-59232800D03*
G04 #@! TO.P,R35,2*
G04 #@! TO.N,Net-(D10-Pad2)*
X186212400Y-59232800D03*
G04 #@! TD*
G04 #@! TO.P,R37,2*
G04 #@! TO.N,GND*
X188137800Y-61188600D03*
G04 #@! TO.P,R37,1*
G04 #@! TO.N,/Shutdown_Sense_TSMS*
X186237800Y-61188600D03*
G04 #@! TD*
G04 #@! TO.P,R39,1*
G04 #@! TO.N,VCC*
X186263200Y-66598800D03*
G04 #@! TO.P,R39,2*
G04 #@! TO.N,/SS_TSMS_Pin*
X188163200Y-66598800D03*
G04 #@! TD*
D17*
G04 #@! TO.P,R41,1*
G04 #@! TO.N,/RJ45_LED1*
X200202800Y-101000600D03*
G04 #@! TO.P,R41,2*
G04 #@! TO.N,Net-(IC1-Pad23)*
X200202800Y-99100600D03*
G04 #@! TD*
G04 #@! TO.P,R42,2*
G04 #@! TO.N,/RJ45_LED2*
X202387200Y-100985400D03*
G04 #@! TO.P,R42,1*
G04 #@! TO.N,Net-(IC1-Pad24)*
X202387200Y-99085400D03*
G04 #@! TD*
G04 #@! TO.P,R44,2*
G04 #@! TO.N,Net-(D5-Pad2)*
X196837300Y-92605900D03*
G04 #@! TO.P,R44,1*
G04 #@! TO.N,/LED_3*
X196837300Y-90705900D03*
G04 #@! TD*
G04 #@! TO.P,R45,1*
G04 #@! TO.N,/LED_2*
X194932300Y-90708400D03*
G04 #@! TO.P,R45,2*
G04 #@! TO.N,Net-(D12-Pad2)*
X194932300Y-92608400D03*
G04 #@! TD*
G04 #@! TO.P,R46,2*
G04 #@! TO.N,Net-(D13-Pad2)*
X192963800Y-92608400D03*
G04 #@! TO.P,R46,1*
G04 #@! TO.N,/LED_1*
X192963800Y-90708400D03*
G04 #@! TD*
D18*
G04 #@! TO.P,U1,5*
G04 #@! TO.N,VCC*
X204249200Y-68900000D03*
G04 #@! TO.P,U1,4*
G04 #@! TO.N,Net-(R5-Pad1)*
X204249200Y-70800000D03*
G04 #@! TO.P,U1,3*
G04 #@! TO.N,GND*
X202049200Y-70800000D03*
G04 #@! TO.P,U1,2*
G04 #@! TO.N,/Brake_Switch_Pressed*
X202049200Y-69850000D03*
G04 #@! TO.P,U1,1*
G04 #@! TO.N,/BSPD_Current_Sense*
X202049200Y-68900000D03*
G04 #@! TD*
D31*
G04 #@! TO.P,U2,1*
G04 #@! TO.N,Net-(R13-Pad2)*
X205750200Y-74617400D03*
G04 #@! TO.P,U2,2*
G04 #@! TO.N,GND*
X204800200Y-74617400D03*
G04 #@! TO.P,U2,3*
G04 #@! TO.N,Net-(C5-Pad1)*
X203850200Y-74617400D03*
G04 #@! TO.P,U2,4*
G04 #@! TO.N,Net-(R11-Pad1)*
X203850200Y-76817400D03*
G04 #@! TO.P,U2,5*
G04 #@! TO.N,VCC*
X205750200Y-76817400D03*
G04 #@! TD*
D32*
G04 #@! TO.P,U3,1*
G04 #@! TO.N,/TXCAN*
X170738800Y-90228400D03*
G04 #@! TO.P,U3,2*
G04 #@! TO.N,GND*
X172008800Y-90228400D03*
G04 #@! TO.P,U3,3*
G04 #@! TO.N,VCC*
X173278800Y-90228400D03*
G04 #@! TO.P,U3,4*
G04 #@! TO.N,/RXCAN*
X174548800Y-90228400D03*
G04 #@! TO.P,U3,5*
G04 #@! TO.N,Net-(U3-Pad5)*
X174548800Y-84828400D03*
G04 #@! TO.P,U3,6*
G04 #@! TO.N,/CAN_low*
X173278800Y-84828400D03*
G04 #@! TO.P,U3,7*
G04 #@! TO.N,/CAN_high*
X172008800Y-84828400D03*
G04 #@! TO.P,U3,8*
G04 #@! TO.N,GND*
X170738800Y-84828400D03*
G04 #@! TD*
D31*
G04 #@! TO.P,U5,1*
G04 #@! TO.N,/BSPD_Relay_Sense*
X203875600Y-84683600D03*
G04 #@! TO.P,U5,2*
G04 #@! TO.N,Net-(Q1-Pad3)*
X204825600Y-84683600D03*
G04 #@! TO.P,U5,3*
G04 #@! TO.N,GND*
X205775600Y-84683600D03*
G04 #@! TO.P,U5,4*
G04 #@! TO.N,Net-(U5-Pad4)*
X205775600Y-82483600D03*
G04 #@! TO.P,U5,5*
G04 #@! TO.N,VCC*
X203875600Y-82483600D03*
G04 #@! TD*
G04 #@! TO.P,U6,5*
G04 #@! TO.N,VCC*
X209524600Y-84683600D03*
G04 #@! TO.P,U6,4*
G04 #@! TO.N,/BSPD_Relay_Sense*
X207624600Y-84683600D03*
G04 #@! TO.P,U6,3*
G04 #@! TO.N,GND*
X207624600Y-82483600D03*
G04 #@! TO.P,U6,2*
G04 #@! TO.N,Net-(U5-Pad4)*
X208574600Y-82483600D03*
G04 #@! TO.P,U6,1*
G04 #@! TO.N,Net-(C10-Pad1)*
X209524600Y-82483600D03*
G04 #@! TD*
G04 #@! TO.P,U7,1*
G04 #@! TO.N,/Brake_Switch_Pressed*
X178808600Y-71914800D03*
G04 #@! TO.P,U7,2*
G04 #@! TO.N,GND*
X177858600Y-71914800D03*
G04 #@! TO.P,U7,3*
G04 #@! TO.N,/Brake_Switch-*
X176908600Y-71914800D03*
G04 #@! TO.P,U7,4*
G04 #@! TO.N,Net-(R24-Pad1)*
X176908600Y-74114800D03*
G04 #@! TO.P,U7,5*
G04 #@! TO.N,VCC*
X178808600Y-74114800D03*
G04 #@! TD*
D14*
G04 #@! TO.P,D11,2*
G04 #@! TO.N,Net-(D11-Pad2)*
X200804600Y-62026800D03*
G04 #@! TO.P,D11,1*
G04 #@! TO.N,GND*
X203004600Y-62026800D03*
G04 #@! TD*
D10*
G04 #@! TO.P,R36,1*
G04 #@! TO.N,/Cooling_Pump_LSD*
X200497400Y-64008000D03*
G04 #@! TO.P,R36,2*
G04 #@! TO.N,Net-(D11-Pad2)*
X202397400Y-64008000D03*
G04 #@! TD*
D33*
G04 #@! TO.N,GND*
X178752500Y-50292000D03*
X178244500Y-34544000D03*
X195008500Y-45212000D03*
X195008500Y-47498000D03*
X196786500Y-47498000D03*
X196786500Y-45212000D03*
X185356500Y-30226000D03*
X190182500Y-29972000D03*
X189166500Y-28956000D03*
X188150500Y-29972000D03*
X187134500Y-28956000D03*
X186372500Y-29972000D03*
X185356500Y-28956000D03*
X184340500Y-50038000D03*
X172008800Y-91846400D03*
X170738800Y-83146900D03*
X183692800Y-82956400D03*
X185153300Y-88798400D03*
X190550800Y-95338900D03*
X186423300Y-92925900D03*
X195313300Y-82956400D03*
X179959000Y-78536800D03*
X173710600Y-70916800D03*
X177876200Y-70561200D03*
X184480200Y-76504800D03*
X175285400Y-93878400D03*
X178409600Y-93776800D03*
X204520800Y-61163200D03*
X197180200Y-72694800D03*
X211582000Y-77470000D03*
X210845400Y-92887800D03*
X207619600Y-80975200D03*
X204063600Y-95250000D03*
X178968400Y-56997600D03*
X190093600Y-56769000D03*
X194894200Y-56032400D03*
X182575200Y-54254400D03*
X172542200Y-57429400D03*
G04 #@! TO.N,VCC*
X179428348Y-86106795D03*
X180695600Y-89306400D03*
X202158600Y-82626200D03*
X202484971Y-85441771D03*
X166928800Y-81356200D03*
X172694600Y-76200000D03*
X177850800Y-75031600D03*
X175183800Y-75082400D03*
X197027800Y-65201800D03*
X194894200Y-75463400D03*
X196723000Y-77317600D03*
X208280000Y-74193400D03*
X207555629Y-75374971D03*
X206552800Y-56311800D03*
X206527400Y-50901600D03*
X194894200Y-69469000D03*
X182245000Y-94488000D03*
X182245000Y-98501200D03*
G04 #@! TO.N,/MISO*
X198018400Y-60909200D03*
X192049400Y-74955400D03*
X194284600Y-72085200D03*
X191526988Y-79665388D03*
G04 #@! TO.N,/SCK*
X211302600Y-84505800D03*
X193675000Y-88163400D03*
X190347600Y-88671400D03*
X182025629Y-85200829D03*
X182956200Y-87401400D03*
X198374000Y-88163400D03*
G04 #@! TO.N,Net-(C2-Pad1)*
X190703200Y-98653600D03*
X192254585Y-83143798D03*
G04 #@! TO.N,Net-(C11-Pad2)*
X194454600Y-34963100D03*
X191863800Y-35013900D03*
G04 #@! TO.N,Net-(C12-Pad1)*
X191706500Y-34036000D03*
X194754500Y-32004000D03*
G04 #@! TO.N,/MOSI*
X191008000Y-81254600D03*
X193751200Y-79043198D03*
X200812400Y-76225400D03*
X208457800Y-68503800D03*
X209448400Y-64744600D03*
X210718400Y-63703200D03*
G04 #@! TO.N,/Brake_Pressure_Sense*
X192100200Y-82397600D03*
X173761400Y-94386400D03*
X175437800Y-95072200D03*
X187426600Y-93116400D03*
X190982600Y-82702400D03*
X188671200Y-84988400D03*
G04 #@! TO.N,Net-(IC1-Pad23)*
X199263000Y-87630000D03*
X199466200Y-85648800D03*
G04 #@! TO.N,Net-(IC1-Pad24)*
X200152000Y-87579200D03*
X200329800Y-85674200D03*
G04 #@! TO.N,/RESET*
X177673000Y-85293200D03*
X177215800Y-87223600D03*
X197434200Y-62992000D03*
X194030600Y-69850000D03*
X192176400Y-73228200D03*
X187426600Y-76885800D03*
G04 #@! TO.N,/Shutdown_Sense_TSMS*
X190246000Y-55524400D03*
G04 #@! TO.N,/Shutdown_Sense_BSPD*
X183896000Y-54940200D03*
G04 #@! TO.N,/Shutdown_Sense_GLVMS*
X178308000Y-54254400D03*
G04 #@! TO.N,/Shutdown_Sense_Estop*
X196265800Y-54991000D03*
G04 #@! TO.N,/BSPD_Relay*
X202946000Y-97307400D03*
X198094600Y-97891600D03*
G04 #@! TO.N,/Brakelight_LSD*
X185851800Y-76555600D03*
X177205600Y-83769200D03*
X183286400Y-78816200D03*
X172872400Y-87757000D03*
G04 #@! TO.N,/RJ45_LED2*
X172440600Y-101828600D03*
G04 #@! TO.N,/Brake_Switch_Pressed*
X185445400Y-70561199D03*
X192481200Y-69926200D03*
G04 #@! TO.N,Net-(R12-Pad2)*
X198056500Y-39116000D03*
X199834500Y-40132000D03*
G04 #@! TO.N,/BSPD_Current_Sense*
X172339000Y-61950600D03*
X199491600Y-65379600D03*
X200634600Y-66954400D03*
X189255400Y-93116400D03*
X196062600Y-69799200D03*
X195173600Y-84607400D03*
X198374000Y-68341200D03*
G04 #@! TO.N,/Cooling_Pump_LSD*
X188163200Y-73380600D03*
X191947800Y-71120000D03*
X191947800Y-71120000D03*
X188010800Y-79654400D03*
G04 #@! TD*
D34*
G04 #@! TO.N,GND*
X178752500Y-47498000D02*
X178752500Y-50292000D01*
X178244500Y-36238000D02*
X178244500Y-34544000D01*
X198056500Y-42606000D02*
X196828500Y-42606000D01*
X196828500Y-42606000D02*
X196254500Y-43180000D01*
X178752500Y-47498000D02*
X178752500Y-47307500D01*
X196254500Y-43180000D02*
X196254500Y-44680000D01*
X196786500Y-47498000D02*
X195008500Y-47498000D01*
X196254500Y-44680000D02*
X196786500Y-45212000D01*
X185356500Y-30226000D02*
X185356500Y-28956000D01*
X185102500Y-30480000D02*
X185356500Y-30226000D01*
X185102500Y-32020000D02*
X185102500Y-30480000D01*
X188150500Y-29972000D02*
X189166500Y-28956000D01*
X187134500Y-29210000D02*
X187134500Y-28956000D01*
X186372500Y-29972000D02*
X187134500Y-29210000D01*
X186288500Y-50038000D02*
X184340500Y-50038000D01*
D35*
X172008800Y-90228400D02*
X172008800Y-91846400D01*
X170738800Y-84828400D02*
X170738800Y-83146900D01*
X185157800Y-82975400D02*
X183711800Y-82975400D01*
X183711800Y-82975400D02*
X183692800Y-82956400D01*
X195016300Y-96311900D02*
X194995800Y-96332400D01*
X196900800Y-96311900D02*
X195016300Y-96311900D01*
X194243400Y-96332400D02*
X193027300Y-96332400D01*
X194995800Y-96332400D02*
X194243400Y-96332400D01*
X186423300Y-88798400D02*
X185570900Y-88798400D01*
X188623300Y-90398400D02*
X188723300Y-90398400D01*
X185570900Y-88798400D02*
X185153300Y-88798400D01*
X191544300Y-96332400D02*
X190550800Y-95338900D01*
X193027300Y-96332400D02*
X191544300Y-96332400D01*
X184391300Y-91941400D02*
X185438800Y-91941400D01*
X185438800Y-91941400D02*
X186423300Y-92925900D01*
X190741300Y-92625800D02*
X189933200Y-93433900D01*
X190741300Y-91973400D02*
X190741300Y-92625800D01*
X188623300Y-91150800D02*
X189001400Y-91528900D01*
X188623300Y-90398400D02*
X188623300Y-91150800D01*
X189001400Y-91528900D02*
X190296800Y-91528900D01*
X190296800Y-91528900D02*
X190741300Y-91973400D01*
X189933200Y-94721300D02*
X190550800Y-95338900D01*
X189933200Y-93433900D02*
X189933200Y-94721300D01*
X193657800Y-82975400D02*
X195294300Y-82975400D01*
X195294300Y-82975400D02*
X195313300Y-82956400D01*
X180220151Y-65829771D02*
X180027151Y-66022771D01*
X179573000Y-76200000D02*
X179573000Y-78150800D01*
X179573000Y-78150800D02*
X179959000Y-78536800D01*
X173710600Y-71384400D02*
X173710600Y-70916800D01*
X174726600Y-72100400D02*
X174426600Y-72100400D01*
X174426600Y-72100400D02*
X173710600Y-71384400D01*
X177858600Y-71232400D02*
X177876200Y-71214800D01*
X177858600Y-71914800D02*
X177858600Y-71232400D01*
X177876200Y-71214800D02*
X177876200Y-70561200D01*
X179573000Y-76200000D02*
X180903800Y-76200000D01*
X184513800Y-75168800D02*
X184513800Y-76471200D01*
X184513800Y-76471200D02*
X184480200Y-76504800D01*
X175278800Y-92456000D02*
X175278800Y-93871800D01*
X175278800Y-93871800D02*
X175285400Y-93878400D01*
X180086000Y-93065600D02*
X179120800Y-93065600D01*
X179120800Y-93065600D02*
X178409600Y-93776800D01*
X195744352Y-82956400D02*
X195313300Y-82956400D01*
X198316600Y-83449000D02*
X197824000Y-82956400D01*
X197824000Y-82956400D02*
X195744352Y-82956400D01*
X198316600Y-84226400D02*
X198316600Y-83449000D01*
X177596600Y-55778400D02*
X177596800Y-55778400D01*
X203004600Y-62026800D02*
X203757000Y-62026800D01*
X204520800Y-61263000D02*
X204520800Y-61163200D01*
X203757000Y-62026800D02*
X204520800Y-61263000D01*
X202023800Y-70774600D02*
X202049200Y-70800000D01*
X200025000Y-70774600D02*
X202023800Y-70774600D01*
X200025000Y-70774600D02*
X199100400Y-70774600D01*
X199100400Y-70774600D02*
X197180200Y-72694800D01*
X199136000Y-74650600D02*
X197180200Y-72694800D01*
X200041000Y-74650600D02*
X199136000Y-74650600D01*
X209568800Y-76758800D02*
X210870800Y-76758800D01*
X210870800Y-76758800D02*
X211582000Y-77470000D01*
X211277201Y-77774799D02*
X211582000Y-77470000D01*
X210321400Y-78730600D02*
X211277201Y-77774799D01*
X210321400Y-79121000D02*
X210321400Y-78730600D01*
X202731600Y-70800000D02*
X202049200Y-70800000D01*
X203285201Y-70246399D02*
X202731600Y-70800000D01*
X207050599Y-70246399D02*
X203285201Y-70246399D01*
X207349800Y-70545600D02*
X207050599Y-70246399D01*
X208102200Y-70545600D02*
X207349800Y-70545600D01*
X204800200Y-73935000D02*
X205024400Y-73710800D01*
X204800200Y-74617400D02*
X204800200Y-73935000D01*
X206645800Y-73710800D02*
X209568800Y-76633800D01*
X209568800Y-76633800D02*
X209568800Y-76758800D01*
X205024400Y-73710800D02*
X206645800Y-73710800D01*
X204662990Y-75437010D02*
X204800200Y-75299800D01*
X204662990Y-77196010D02*
X204662990Y-75437010D01*
X203565800Y-78293200D02*
X204662990Y-77196010D01*
X204800200Y-75299800D02*
X204800200Y-74617400D01*
X203565800Y-79095600D02*
X203565800Y-78293200D01*
X209060800Y-90322400D02*
X209060800Y-91103200D01*
X209060800Y-91103200D02*
X210845400Y-92887800D01*
X211276452Y-92887800D02*
X210845400Y-92887800D01*
X212037400Y-92887800D02*
X211276452Y-92887800D01*
X212826600Y-92098600D02*
X212037400Y-92887800D01*
X212826600Y-91346200D02*
X212826600Y-92098600D01*
X207624600Y-82483600D02*
X207624600Y-80980200D01*
X207624600Y-80980200D02*
X207619600Y-80975200D01*
X209737800Y-86451400D02*
X210261200Y-86974800D01*
X209135400Y-86451400D02*
X209737800Y-86451400D01*
X209060800Y-90197400D02*
X209060800Y-90322400D01*
X210261200Y-88997000D02*
X209060800Y-90197400D01*
X210261200Y-86974800D02*
X210261200Y-88997000D01*
X206248000Y-95128000D02*
X206126000Y-95250000D01*
X206248000Y-93065600D02*
X206248000Y-95128000D01*
X206126000Y-95250000D02*
X205573600Y-95250000D01*
X205573600Y-95250000D02*
X204063600Y-95250000D01*
X174091600Y-95072200D02*
X175285400Y-93878400D01*
X174091600Y-96393000D02*
X174091600Y-95072200D01*
X179314401Y-56651599D02*
X178968400Y-56997600D01*
X181165881Y-56651599D02*
X179314401Y-56651599D01*
X181994482Y-57480200D02*
X181165881Y-56651599D01*
X182583000Y-57480200D02*
X181994482Y-57480200D01*
X188671200Y-57353200D02*
X189509400Y-57353200D01*
X189509400Y-57353200D02*
X190093600Y-56769000D01*
X194902000Y-57480200D02*
X194902000Y-56040200D01*
X194902000Y-56040200D02*
X194894200Y-56032400D01*
X182583000Y-57480200D02*
X182583000Y-54262200D01*
X182583000Y-54262200D02*
X182575200Y-54254400D01*
X173345401Y-56626199D02*
X172542200Y-57429400D01*
X176596399Y-56626199D02*
X173345401Y-56626199D01*
X176672600Y-57454800D02*
X176672600Y-56702400D01*
X176672600Y-56702400D02*
X176596399Y-56626199D01*
D34*
G04 #@! TO.N,VCC*
X178244500Y-42352000D02*
X178244500Y-43790618D01*
X181419500Y-43105000D02*
X178393500Y-43105000D01*
X178393500Y-43105000D02*
X178244500Y-42956000D01*
X178244500Y-42956000D02*
X178244500Y-42352000D01*
D35*
X173278800Y-89753400D02*
X173278800Y-90228400D01*
X173278800Y-91678600D02*
X173278800Y-90228400D01*
X173278800Y-92456000D02*
X173278800Y-91678600D01*
X167358301Y-76654901D02*
X168008300Y-77304900D01*
X167129699Y-76426299D02*
X167358301Y-76654901D01*
X181419500Y-43105000D02*
X179667100Y-43105000D01*
X178703100Y-44069000D02*
X175539400Y-44069000D01*
X175539400Y-44069000D02*
X171145190Y-48463210D01*
X179667100Y-43105000D02*
X178703100Y-44069000D01*
X171145190Y-48463210D02*
X171145190Y-69596010D01*
X167129699Y-73611501D02*
X167129699Y-76426299D01*
X171145190Y-69596010D02*
X167129699Y-73611501D01*
X185157800Y-82175400D02*
X183359743Y-82175400D01*
X183359743Y-82175400D02*
X179428348Y-86106795D01*
X180086000Y-89916000D02*
X180086000Y-91065600D01*
X180695600Y-89306400D02*
X180086000Y-89916000D01*
X180240000Y-90911600D02*
X180086000Y-91065600D01*
X207510200Y-76817400D02*
X207568800Y-76758800D01*
X205750200Y-76817400D02*
X207510200Y-76817400D01*
X203560600Y-87467200D02*
X203560600Y-88671400D01*
X203560600Y-86664800D02*
X203560600Y-87467200D01*
X203560600Y-86364800D02*
X203560600Y-86664800D01*
X203875600Y-82483600D02*
X203398200Y-82483600D01*
X203398200Y-82483600D02*
X202301200Y-82483600D01*
X202301200Y-82483600D02*
X202158600Y-82626200D01*
X203560600Y-86517400D02*
X203560600Y-86664800D01*
X202484971Y-85441771D02*
X203560600Y-86517400D01*
X167089062Y-82384900D02*
X168008300Y-82384900D01*
X165437970Y-82384900D02*
X167089062Y-82384900D01*
X164185600Y-83637270D02*
X165437970Y-82384900D01*
X164185600Y-89992200D02*
X164185600Y-83637270D01*
X165468300Y-91274900D02*
X164185600Y-89992200D01*
X168008300Y-82384900D02*
X167957500Y-82384900D01*
X167957500Y-82384900D02*
X166928800Y-81356200D01*
X172694600Y-76200000D02*
X174401400Y-76200000D01*
X178808600Y-74114800D02*
X178767600Y-74114800D01*
X178767600Y-74114800D02*
X177850800Y-75031600D01*
X175183800Y-75417600D02*
X174401400Y-76200000D01*
X175183800Y-75082400D02*
X175183800Y-75417600D01*
X178521000Y-80619600D02*
X178572200Y-80619600D01*
X174401400Y-76500000D02*
X178521000Y-80619600D01*
X174401400Y-76200000D02*
X174401400Y-76500000D01*
X174187651Y-67676071D02*
X174187651Y-66873671D01*
X171856409Y-70007313D02*
X174187651Y-67676071D01*
X171856409Y-73456791D02*
X171856409Y-70007313D01*
X168008300Y-77304900D02*
X171856409Y-73456791D01*
X177345370Y-64497770D02*
X179649600Y-66802000D01*
X174349070Y-64497770D02*
X177345370Y-64497770D01*
X179649600Y-66802000D02*
X180152000Y-66802000D01*
X174187651Y-64659189D02*
X174349070Y-64497770D01*
X174187651Y-66873671D02*
X174187651Y-64659189D01*
X185760800Y-66598800D02*
X186263200Y-66598800D01*
X183558199Y-64396199D02*
X185760800Y-66598800D01*
X180290519Y-64396199D02*
X183558199Y-64396199D01*
X179722342Y-64964376D02*
X180290519Y-64396199D01*
X179722342Y-66149028D02*
X179722342Y-64964376D01*
X180375314Y-66802000D02*
X179722342Y-66149028D01*
X180152000Y-66802000D02*
X180375314Y-66802000D01*
X191882200Y-66802000D02*
X192384600Y-66802000D01*
X189341199Y-64260999D02*
X191882200Y-66802000D01*
X186263200Y-64399518D02*
X186401719Y-64260999D01*
X186401719Y-64260999D02*
X189341199Y-64260999D01*
X186263200Y-66598800D02*
X186263200Y-64399518D01*
X172626400Y-92456000D02*
X173278800Y-92456000D01*
X171828966Y-92456000D02*
X172626400Y-92456000D01*
X170647866Y-91274900D02*
X171828966Y-92456000D01*
X165468300Y-91274900D02*
X170647866Y-91274900D01*
X175132718Y-91065600D02*
X179308600Y-91065600D01*
X174519718Y-91678600D02*
X175132718Y-91065600D01*
X173931200Y-91678600D02*
X174519718Y-91678600D01*
X179308600Y-91065600D02*
X180086000Y-91065600D01*
X173278800Y-92331000D02*
X173931200Y-91678600D01*
X173278800Y-92456000D02*
X173278800Y-92331000D01*
X194894200Y-72136000D02*
X194894200Y-75463400D01*
X198455200Y-79049800D02*
X198455200Y-79095600D01*
X196723000Y-77317600D02*
X198455200Y-79049800D01*
X203875600Y-82278600D02*
X203875600Y-82483600D01*
X203232600Y-81635600D02*
X203875600Y-82278600D01*
X200192800Y-81635600D02*
X203232600Y-81635600D01*
X198455200Y-79898000D02*
X200192800Y-81635600D01*
X198455200Y-79095600D02*
X198455200Y-79898000D01*
X206289199Y-78163401D02*
X207568800Y-76883800D01*
X206289199Y-79387601D02*
X206289199Y-78163401D01*
X207568800Y-76883800D02*
X207568800Y-76758800D01*
X203875600Y-81801200D02*
X206289199Y-79387601D01*
X203875600Y-82483600D02*
X203875600Y-81801200D01*
X208930801Y-73542599D02*
X208280000Y-74193400D01*
X204249200Y-68900000D02*
X208068082Y-68900000D01*
X208930801Y-69762719D02*
X208930801Y-73542599D01*
X208068082Y-68900000D02*
X208930801Y-69762719D01*
X207555629Y-76745629D02*
X207568800Y-76758800D01*
X207555629Y-75374971D02*
X207555629Y-76745629D01*
X209047200Y-84683600D02*
X209524600Y-84683600D01*
X208288599Y-83924999D02*
X209047200Y-84683600D01*
X207263333Y-83924999D02*
X208288599Y-83924999D01*
X206650324Y-83311990D02*
X207263333Y-83924999D01*
X205181390Y-83311990D02*
X206650324Y-83311990D01*
X204353000Y-82483600D02*
X205181390Y-83311990D01*
X203875600Y-82483600D02*
X204353000Y-82483600D01*
X204249200Y-68422600D02*
X203682600Y-67856000D01*
X204249200Y-68900000D02*
X204249200Y-68422600D01*
X206552800Y-61011518D02*
X206552800Y-56311800D01*
X203682600Y-67856000D02*
X203682600Y-63881718D01*
X203682600Y-63881718D02*
X206552800Y-61011518D01*
X210983601Y-48017201D02*
X211683600Y-48717200D01*
X210754999Y-47788599D02*
X210983601Y-48017201D01*
X206832199Y-49217119D02*
X208260719Y-47788599D01*
X208260719Y-47788599D02*
X210754999Y-47788599D01*
X206832199Y-50596801D02*
X206832199Y-49217119D01*
X206527400Y-50901600D02*
X206832199Y-50596801D01*
X194894200Y-72136000D02*
X194894200Y-69469000D01*
X197027800Y-64516000D02*
X197027800Y-65201800D01*
X196646800Y-64135000D02*
X197027800Y-64516000D01*
X192819918Y-64135000D02*
X196646800Y-64135000D01*
X192384600Y-66802000D02*
X192384600Y-64570318D01*
X192384600Y-64570318D02*
X192819918Y-64135000D01*
X182245000Y-93099600D02*
X182245000Y-94488000D01*
X180086000Y-91065600D02*
X180211000Y-91065600D01*
X180211000Y-91065600D02*
X182245000Y-93099600D01*
X187553600Y-99064800D02*
X187553600Y-99364800D01*
X186990000Y-98501200D02*
X187553600Y-99064800D01*
X182245000Y-98501200D02*
X186990000Y-98501200D01*
G04 #@! TO.N,/MISO*
X166387538Y-83654900D02*
X165468300Y-83654900D01*
X168038630Y-83654900D02*
X166387538Y-83654900D01*
X170215731Y-85832001D02*
X168038630Y-83654900D01*
X183952800Y-79775400D02*
X177896199Y-85832001D01*
X177896199Y-85832001D02*
X170215731Y-85832001D01*
X185157800Y-79775400D02*
X183952800Y-79775400D01*
X209143600Y-48717200D02*
X209143600Y-49569600D01*
X209143600Y-49569600D02*
X198845400Y-59867800D01*
X188290947Y-80187801D02*
X186522601Y-80187801D01*
X186110200Y-79775400D02*
X185157800Y-79775400D01*
X186522601Y-80187801D02*
X186110200Y-79775400D01*
X198845400Y-59867800D02*
X198845400Y-60082200D01*
X198845400Y-60082200D02*
X198018400Y-60909200D01*
X192049400Y-74955400D02*
X194284600Y-72720200D01*
X194284600Y-72720200D02*
X194284600Y-72085200D01*
X188290947Y-80187801D02*
X191004575Y-80187801D01*
X191004575Y-80187801D02*
X191526988Y-79665388D01*
G04 #@! TO.N,/RXCAN*
X184471318Y-84575400D02*
X185157800Y-84575400D01*
X178818318Y-90228400D02*
X184471318Y-84575400D01*
X174548800Y-90228400D02*
X178818318Y-90228400D01*
G04 #@! TO.N,/SCK*
X166778937Y-86586299D02*
X166387538Y-86194900D01*
X166387538Y-86194900D02*
X165468300Y-86194900D01*
X195884800Y-88163400D02*
X193675000Y-88163400D01*
X189199799Y-87969799D02*
X189007800Y-87777800D01*
X189645999Y-87969799D02*
X189199799Y-87969799D01*
X189007800Y-87777800D02*
X189007800Y-86825400D01*
X190347600Y-88671400D02*
X189645999Y-87969799D01*
X177367933Y-86586299D02*
X178106834Y-87325200D01*
X166778937Y-86586299D02*
X177367933Y-86586299D01*
X178106834Y-87325200D02*
X179901258Y-87325200D01*
X179901258Y-87325200D02*
X182025629Y-85200829D01*
X188931599Y-85796799D02*
X189007800Y-85873000D01*
X189007800Y-85873000D02*
X189007800Y-86825400D01*
X183972200Y-88011000D02*
X186186401Y-85796799D01*
X182956200Y-87401400D02*
X183565800Y-88011000D01*
X186186401Y-85796799D02*
X188931599Y-85796799D01*
X183565800Y-88011000D02*
X183972200Y-88011000D01*
X210072201Y-52185801D02*
X209143600Y-51257200D01*
X211302600Y-84505800D02*
X212115401Y-83692999D01*
X212140801Y-83692999D02*
X212394800Y-83439000D01*
X212115401Y-83692999D02*
X212140801Y-83692999D01*
X212394800Y-83439000D02*
X212394800Y-77493366D01*
X212394800Y-77493366D02*
X210072201Y-75170767D01*
X210072201Y-75170767D02*
X210072201Y-52185801D01*
X195884800Y-88163400D02*
X198374000Y-88163400D01*
D36*
G04 #@! TO.N,/12V_Fused*
X193337000Y-42589900D02*
X193387000Y-42639900D01*
D35*
G04 #@! TO.N,Net-(C5-Pad1)*
X201939800Y-74650600D02*
X202041000Y-74650600D01*
X200309400Y-73020200D02*
X201939800Y-74650600D01*
X200309400Y-72720200D02*
X200309400Y-73020200D01*
X203817000Y-74650600D02*
X203850200Y-74617400D01*
X202041000Y-74650600D02*
X203817000Y-74650600D01*
D34*
G04 #@! TO.N,Net-(C11-Pad1)*
X195537000Y-38889900D02*
X196250600Y-38889900D01*
X196770500Y-38370000D02*
X196770500Y-36830000D01*
X196250600Y-38889900D02*
X196770500Y-38370000D01*
D35*
G04 #@! TO.N,Net-(D1-Pad2)*
X208076800Y-72720200D02*
X208102200Y-72745600D01*
X205486000Y-72720200D02*
X208076800Y-72720200D01*
D34*
G04 #@! TO.N,+12V*
X187087000Y-46120500D02*
X184003500Y-46120500D01*
X184003500Y-46120500D02*
X182816500Y-47307500D01*
X182816500Y-47307500D02*
X182816500Y-47498000D01*
X182816500Y-49720500D02*
X182816500Y-47498000D01*
X171500800Y-71272400D02*
X171500800Y-56134000D01*
X168008300Y-74764900D02*
X171500800Y-71272400D01*
X171500800Y-56134000D02*
X174015400Y-53619400D01*
X178917600Y-53619400D02*
X182816500Y-49720500D01*
X174015400Y-53619400D02*
X178917600Y-53619400D01*
D35*
G04 #@! TO.N,Net-(C2-Pad1)*
X195865600Y-83775400D02*
X196316600Y-84226400D01*
X193657800Y-83775400D02*
X195865600Y-83775400D01*
X189453600Y-99364800D02*
X189992000Y-99364800D01*
X189992000Y-99364800D02*
X190703200Y-98653600D01*
X192886187Y-83775400D02*
X193657800Y-83775400D01*
X192254585Y-83143798D02*
X192886187Y-83775400D01*
G04 #@! TO.N,Net-(C3-Pad1)*
X188207800Y-87630500D02*
X188207800Y-86825400D01*
X188623300Y-88046000D02*
X188207800Y-87630500D01*
X188623300Y-88798400D02*
X188623300Y-88046000D01*
G04 #@! TO.N,Net-(C4-Pad1)*
X187407800Y-87777800D02*
X187407800Y-86825400D01*
X187407800Y-90266300D02*
X187407800Y-87777800D01*
X187275700Y-90398400D02*
X187407800Y-90266300D01*
X186423300Y-90398400D02*
X187275700Y-90398400D01*
X186308800Y-90512900D02*
X186423300Y-90398400D01*
X185966300Y-89941400D02*
X186423300Y-90398400D01*
X184391300Y-89941400D02*
X185966300Y-89941400D01*
G04 #@! TO.N,Net-(C6-Pad1)*
X208906800Y-88351400D02*
X207060800Y-90197400D01*
X209135400Y-88351400D02*
X208906800Y-88351400D01*
X205534800Y-88671400D02*
X205460600Y-88671400D01*
X207060800Y-90197400D02*
X205534800Y-88671400D01*
X207060800Y-90322400D02*
X207060800Y-90197400D01*
G04 #@! TO.N,Net-(C10-Pad1)*
X208321400Y-79121000D02*
X206867800Y-79121000D01*
X209524600Y-81801200D02*
X209524600Y-82483600D01*
X209524600Y-81101600D02*
X209524600Y-81801200D01*
X208321400Y-79898400D02*
X209524600Y-81101600D01*
X208321400Y-79121000D02*
X208321400Y-79898400D01*
D34*
G04 #@! TO.N,Net-(C11-Pad2)*
X194737000Y-37020500D02*
X194737000Y-35245500D01*
X194737000Y-35245500D02*
X194454600Y-34963100D01*
X191863800Y-35013900D02*
X190183000Y-36694700D01*
X190183000Y-36694700D02*
X190944500Y-38100000D01*
X190183000Y-36323500D02*
X190944500Y-38100000D01*
D37*
X190969900Y-38125400D02*
X190944500Y-38100000D01*
D38*
X190969900Y-38125400D02*
X190944500Y-38100000D01*
D36*
X190969900Y-38125400D02*
X190944500Y-38100000D01*
D39*
X190969900Y-38125400D02*
X190944500Y-38100000D01*
D40*
X190969900Y-38125400D02*
X190944500Y-38100000D01*
X190969900Y-38125400D02*
X190944500Y-38100000D01*
D38*
X190969900Y-38125400D02*
X190944500Y-38100000D01*
D36*
X190969900Y-38125400D02*
X190944500Y-38100000D01*
D40*
X190969900Y-38125400D02*
X190944500Y-38100000D01*
D34*
G04 #@! TO.N,Net-(C12-Pad1)*
X195074500Y-33528000D02*
X195074500Y-32324000D01*
X191440500Y-33770000D02*
X189745500Y-33770000D01*
X191706500Y-34036000D02*
X191440500Y-33770000D01*
X195074500Y-32324000D02*
X194754500Y-32004000D01*
D37*
X185300500Y-39632000D02*
X185483000Y-39814500D01*
X185483000Y-36246500D02*
X185483000Y-39814500D01*
D41*
X190387500Y-34270000D02*
X189745500Y-34270000D01*
D34*
G04 #@! TO.N,Net-(D3-Pad2)*
X190944500Y-50226000D02*
X188676500Y-50226000D01*
X188676500Y-50226000D02*
X188488500Y-50038000D01*
D35*
G04 #@! TO.N,Net-(D4-Pad2)*
X212801200Y-89120800D02*
X212826600Y-89146200D01*
X212801200Y-87426800D02*
X212801200Y-89120800D01*
D34*
G04 #@! TO.N,Net-(D6-Pad2)*
X178244500Y-40452000D02*
X178244500Y-38438000D01*
D35*
G04 #@! TO.N,Net-(D7-Pad2)*
X174472600Y-59108422D02*
X174200351Y-59380671D01*
X174472600Y-57454800D02*
X174472600Y-59108422D01*
G04 #@! TO.N,Net-(D8-Pad2)*
X192430400Y-57751800D02*
X192702000Y-57480200D01*
X192430400Y-59334400D02*
X192430400Y-57751800D01*
G04 #@! TO.N,Net-(D9-Pad2)*
X180383000Y-59078000D02*
X180126600Y-59334400D01*
X180383000Y-57480200D02*
X180383000Y-59078000D01*
G04 #@! TO.N,Net-(D10-Pad2)*
X186212400Y-57612000D02*
X186471200Y-57353200D01*
X186212400Y-59232800D02*
X186212400Y-57612000D01*
G04 #@! TO.N,/MOSI*
X184205400Y-80575400D02*
X185157800Y-80575400D01*
X184205400Y-80575400D02*
X178522400Y-86258400D01*
X169341800Y-86258400D02*
X168008300Y-84924900D01*
X178522400Y-86258400D02*
X169341800Y-86258400D01*
X211683600Y-51257200D02*
X210754999Y-52185801D01*
X186406599Y-80871799D02*
X186110200Y-80575400D01*
X186110200Y-80575400D02*
X185157800Y-80575400D01*
X187780399Y-80871799D02*
X186406599Y-80871799D01*
X188137800Y-81229200D02*
X187780399Y-80871799D01*
X188137800Y-81229200D02*
X190982600Y-81229200D01*
X190982600Y-81229200D02*
X191008000Y-81254600D01*
X193751200Y-79043198D02*
X196568998Y-76225400D01*
X196568998Y-76225400D02*
X200812400Y-76225400D01*
X208457800Y-68503800D02*
X208457800Y-65735200D01*
X208457800Y-65735200D02*
X209448400Y-64744600D01*
X210754999Y-52185801D02*
X210754999Y-63666601D01*
X210754999Y-63666601D02*
X210718400Y-63703200D01*
G04 #@! TO.N,/TXCAN*
X184205400Y-83775400D02*
X179499900Y-88480900D01*
X185157800Y-83775400D02*
X184205400Y-83775400D01*
X170738800Y-89753400D02*
X170738800Y-90228400D01*
X172011300Y-88480900D02*
X170738800Y-89753400D01*
X179499900Y-88480900D02*
X172011300Y-88480900D01*
G04 #@! TO.N,/LED_1*
X190607800Y-87777800D02*
X190607800Y-86825400D01*
X190607800Y-87850000D02*
X190607800Y-87777800D01*
X192963800Y-90206000D02*
X190607800Y-87850000D01*
X192963800Y-90708400D02*
X192963800Y-90206000D01*
G04 #@! TO.N,/LED_2*
X194932300Y-90206000D02*
X194350200Y-89623900D01*
X194932300Y-90708400D02*
X194932300Y-90206000D01*
X191407800Y-87777800D02*
X191407800Y-86825400D01*
X193253900Y-89623900D02*
X191407800Y-87777800D01*
X194350200Y-89623900D02*
X193253900Y-89623900D01*
G04 #@! TO.N,/LED_3*
X192207800Y-87350400D02*
X192207800Y-86825400D01*
X196837300Y-90705900D02*
X196452300Y-90705900D01*
X196837300Y-90203500D02*
X195940200Y-89306400D01*
X196837300Y-90705900D02*
X196837300Y-90203500D01*
X195940200Y-89306400D02*
X193367466Y-89306400D01*
X192207800Y-88146734D02*
X192207800Y-86825400D01*
X193367466Y-89306400D02*
X192207800Y-88146734D01*
G04 #@! TO.N,/Brake_Pressure_Sense*
X193657800Y-81375400D02*
X192705400Y-81375400D01*
X192705400Y-81375400D02*
X192100200Y-81980600D01*
X192100200Y-81980600D02*
X192100200Y-82397600D01*
X168008300Y-92544900D02*
X169849800Y-94386400D01*
X169849800Y-94386400D02*
X173761400Y-94386400D01*
X175437800Y-95072200D02*
X185470800Y-95072200D01*
X185470800Y-95072200D02*
X187426600Y-93116400D01*
X190982600Y-82702400D02*
X188696600Y-84988400D01*
X188696600Y-84988400D02*
X188671200Y-84988400D01*
G04 #@! TO.N,Net-(IC1-Pad23)*
X199263000Y-99100600D02*
X199263000Y-98598200D01*
X194610200Y-80575400D02*
X193657800Y-80575400D01*
X199770999Y-84144317D02*
X196202082Y-80575400D01*
X196202082Y-80575400D02*
X194610200Y-80575400D01*
X199770999Y-85344001D02*
X199770999Y-84144317D01*
X199466200Y-85648800D02*
X199770999Y-85344001D01*
X199902800Y-99100600D02*
X200202800Y-99100600D01*
X199263000Y-98460800D02*
X199902800Y-99100600D01*
X199263000Y-87630000D02*
X199263000Y-98460800D01*
G04 #@! TO.N,Net-(IC1-Pad24)*
X194610200Y-79775400D02*
X193657800Y-79775400D01*
X200329800Y-84272052D02*
X195833148Y-79775400D01*
X195833148Y-79775400D02*
X194610200Y-79775400D01*
X200329800Y-85674200D02*
X200329800Y-84272052D01*
X200152000Y-87579200D02*
X200152000Y-88010252D01*
X202387200Y-90245452D02*
X202387200Y-99085400D01*
X200152000Y-88010252D02*
X202387200Y-90245452D01*
G04 #@! TO.N,/RESET*
X186186401Y-79354001D02*
X185877200Y-79044800D01*
X187331599Y-79354001D02*
X186186401Y-79354001D01*
X187407800Y-78325400D02*
X187407800Y-79277800D01*
X187407800Y-79277800D02*
X187331599Y-79354001D01*
X185877200Y-79044800D02*
X183921400Y-79044800D01*
X183921400Y-79044800D02*
X177673000Y-85293200D01*
X168249600Y-87223600D02*
X168008300Y-87464900D01*
X177215800Y-87223600D02*
X168249600Y-87223600D01*
X176672200Y-84292400D02*
X177673000Y-85293200D01*
X176672200Y-80619600D02*
X176672200Y-84292400D01*
X209143600Y-53797200D02*
X206629000Y-53797200D01*
X206629000Y-53797200D02*
X197434200Y-62992000D01*
X194030600Y-69850000D02*
X194030600Y-71374000D01*
X194030600Y-71374000D02*
X192176400Y-73228200D01*
X187426600Y-78306600D02*
X187407800Y-78325400D01*
X187426600Y-76885800D02*
X187426600Y-78306600D01*
G04 #@! TO.N,/Brakelight_Gate*
X182702200Y-76098400D02*
X182803800Y-76200000D01*
X182702200Y-74117200D02*
X182702200Y-76098400D01*
X186180400Y-78325400D02*
X186607800Y-78325400D01*
X184629200Y-78325400D02*
X186180400Y-78325400D01*
X182803800Y-76500000D02*
X184629200Y-78325400D01*
X182803800Y-76200000D02*
X182803800Y-76500000D01*
X184513800Y-73821200D02*
X184513800Y-73268800D01*
X184217800Y-74117200D02*
X184513800Y-73821200D01*
X182702200Y-74117200D02*
X184217800Y-74117200D01*
G04 #@! TO.N,/Shutdown_Sense_TSMS*
X186333600Y-61188600D02*
X186237800Y-61188600D01*
X187934600Y-62789600D02*
X186333600Y-61188600D01*
X187934600Y-62839600D02*
X187934600Y-62789600D01*
X186237800Y-60888600D02*
X187893600Y-59232800D01*
X187893600Y-59232800D02*
X188112400Y-59232800D01*
X186237800Y-61188600D02*
X186237800Y-60888600D01*
X188112400Y-59232800D02*
X188614800Y-59232800D01*
X188614800Y-59232800D02*
X190703200Y-57144400D01*
X190703200Y-57144400D02*
X190703200Y-55981600D01*
X190703200Y-55981600D02*
X190246000Y-55524400D01*
G04 #@! TO.N,/Shutdown_Sense_BSPD*
X180370800Y-61290200D02*
X180126600Y-61290200D01*
X182026600Y-59634400D02*
X180370800Y-61290200D01*
X182026600Y-59334400D02*
X182026600Y-59634400D01*
X181511200Y-62974800D02*
X181823400Y-62974800D01*
X180126600Y-61590200D02*
X181511200Y-62974800D01*
X180126600Y-61290200D02*
X180126600Y-61590200D01*
X184226200Y-57637200D02*
X184226200Y-55575200D01*
X182026600Y-59334400D02*
X182529000Y-59334400D01*
X182529000Y-59334400D02*
X184226200Y-57637200D01*
X184226200Y-55575200D02*
X184226200Y-55270400D01*
X184226200Y-55270400D02*
X183896000Y-54940200D01*
G04 #@! TO.N,/Shutdown_Sense_GLVMS*
X176074951Y-62883371D02*
X175881951Y-63076371D01*
X174406451Y-61374571D02*
X174200351Y-61374571D01*
X176100351Y-59680671D02*
X174406451Y-61374571D01*
X176100351Y-59380671D02*
X176100351Y-59680671D01*
X175602151Y-63076371D02*
X175881951Y-63076371D01*
X174200351Y-61674571D02*
X175602151Y-63076371D01*
X174200351Y-61374571D02*
X174200351Y-61674571D01*
X178333400Y-57650022D02*
X178333400Y-54914800D01*
X176100351Y-59380671D02*
X176602751Y-59380671D01*
X176602751Y-59380671D02*
X178333400Y-57650022D01*
X178333400Y-54914800D02*
X178333400Y-54279800D01*
X178333400Y-54279800D02*
X178308000Y-54254400D01*
G04 #@! TO.N,/Shutdown_Sense_Estop*
X192457000Y-61290200D02*
X192420200Y-61290200D01*
X194091600Y-62924800D02*
X192457000Y-61290200D01*
X194091600Y-62974800D02*
X194091600Y-62924800D01*
X194076000Y-59334400D02*
X194330400Y-59334400D01*
X192420200Y-60990200D02*
X194076000Y-59334400D01*
X192420200Y-61290200D02*
X192420200Y-60990200D01*
X194832800Y-59334400D02*
X196900800Y-57266400D01*
X194330400Y-59334400D02*
X194832800Y-59334400D01*
X196900800Y-57266400D02*
X196900800Y-55626000D01*
X196900800Y-55626000D02*
X196265800Y-54991000D01*
G04 #@! TO.N,/Brake_Switch-*
X176908600Y-72119800D02*
X176908600Y-71914800D01*
X175028000Y-74000400D02*
X176908600Y-72119800D01*
X174726600Y-74000400D02*
X175028000Y-74000400D01*
X173924200Y-74000400D02*
X174726600Y-74000400D01*
X169741099Y-78183501D02*
X173924200Y-74000400D01*
X166778937Y-78183501D02*
X169741099Y-78183501D01*
X166387538Y-78574900D02*
X166778937Y-78183501D01*
X165468300Y-78574900D02*
X166387538Y-78574900D01*
G04 #@! TO.N,/BSPD_Relay*
X207076000Y-97350000D02*
X202988600Y-97350000D01*
X202988600Y-97350000D02*
X202946000Y-97307400D01*
X166291171Y-95933171D02*
X163753800Y-93395800D01*
X167616901Y-95933171D02*
X166291171Y-95933171D01*
X198094600Y-97891600D02*
X169575330Y-97891600D01*
X169575330Y-97891600D02*
X167616901Y-95933171D01*
X164818301Y-76684899D02*
X165468300Y-76034900D01*
X163753800Y-77749400D02*
X164818301Y-76684899D01*
X163753800Y-93395800D02*
X163753800Y-77749400D01*
G04 #@! TO.N,/CAN_low*
X165531800Y-81178400D02*
X165468300Y-81114900D01*
X173527800Y-84579400D02*
X173278800Y-84828400D01*
X170657800Y-79783900D02*
X170357800Y-79783900D01*
X173278800Y-82404900D02*
X170657800Y-79783900D01*
X173278800Y-84828400D02*
X173278800Y-82404900D01*
X169555400Y-79783900D02*
X168737799Y-78966299D01*
X170357800Y-79783900D02*
X169555400Y-79783900D01*
X168737799Y-78966299D02*
X168717199Y-78966299D01*
X168717199Y-78966299D02*
X168516300Y-78765400D01*
X167817800Y-78765400D02*
X165468300Y-81114900D01*
X168516300Y-78765400D02*
X167817800Y-78765400D01*
G04 #@! TO.N,/CAN_high*
X170657800Y-81683900D02*
X170357800Y-81683900D01*
X172008800Y-83034900D02*
X170657800Y-81683900D01*
X172008800Y-84828400D02*
X172008800Y-83034900D01*
X168658299Y-80494899D02*
X168008300Y-79844900D01*
X169847300Y-81683900D02*
X168658299Y-80494899D01*
X170357800Y-81683900D02*
X169847300Y-81683900D01*
G04 #@! TO.N,/Brakelight_LSD*
X186613800Y-74218800D02*
X186613800Y-75793600D01*
X186613800Y-75793600D02*
X185851800Y-76555600D01*
X168008300Y-90004900D02*
X170256200Y-87757000D01*
X170256200Y-87757000D02*
X172872400Y-87757000D01*
X178333400Y-83769200D02*
X183286400Y-78816200D01*
X177205600Y-83769200D02*
X178333400Y-83769200D01*
G04 #@! TO.N,/RJ45_LED1*
X170114000Y-101000600D02*
X165468300Y-96354900D01*
X199263000Y-101000600D02*
X170114000Y-101000600D01*
X199263000Y-101000600D02*
X200202800Y-101000600D01*
G04 #@! TO.N,/RJ45_LED2*
X201584800Y-100985400D02*
X202387200Y-100985400D01*
X200741600Y-101828600D02*
X201584800Y-100985400D01*
X172440600Y-101828600D02*
X200741600Y-101828600D01*
G04 #@! TO.N,Net-(Q1-Pad3)*
X206433000Y-87401400D02*
X207035400Y-87401400D01*
X205897200Y-87401400D02*
X206433000Y-87401400D01*
X205460600Y-86964800D02*
X205897200Y-87401400D01*
X205460600Y-86664800D02*
X205460600Y-86964800D01*
X204825600Y-86029800D02*
X204825600Y-84683600D01*
X205460600Y-86664800D02*
X204825600Y-86029800D01*
G04 #@! TO.N,/Brake_Switch_Pressed*
X180806000Y-74117200D02*
X181127200Y-74117200D01*
X178808600Y-72119800D02*
X180806000Y-74117200D01*
X178808600Y-71914800D02*
X178808600Y-72119800D01*
X179957201Y-70561199D02*
X185445400Y-70561199D01*
X178808600Y-71914800D02*
X178808600Y-71709800D01*
X178808600Y-71709800D02*
X179957201Y-70561199D01*
X193323000Y-68874600D02*
X200025000Y-68874600D01*
X201802800Y-69850000D02*
X202049200Y-69850000D01*
X200827400Y-68874600D02*
X201802800Y-69850000D01*
X200025000Y-68874600D02*
X200827400Y-68874600D01*
X192785999Y-69411601D02*
X193323000Y-68874600D01*
X192785999Y-69621401D02*
X192785999Y-69411601D01*
X192481200Y-69926200D02*
X192785999Y-69621401D01*
G04 #@! TO.N,Net-(R5-Pad1)*
X204249200Y-71277400D02*
X203631800Y-71894800D01*
X204249200Y-70800000D02*
X204249200Y-71277400D01*
X203609000Y-71894800D02*
X203586000Y-71917800D01*
X203586000Y-71917800D02*
X203586000Y-72720200D01*
X203631800Y-71894800D02*
X203609000Y-71894800D01*
X203586000Y-72720200D02*
X202209400Y-72720200D01*
G04 #@! TO.N,Net-(R11-Pad1)*
X201777000Y-79095600D02*
X201665800Y-79095600D01*
X203850200Y-77022400D02*
X201777000Y-79095600D01*
X203850200Y-76817400D02*
X203850200Y-77022400D01*
X201665800Y-79095600D02*
X200355200Y-79095600D01*
D34*
G04 #@! TO.N,Net-(R12-Pad2)*
X192976500Y-50226000D02*
X197614500Y-50226000D01*
X197332600Y-39839900D02*
X195537000Y-39839900D01*
X198056500Y-39116000D02*
X197332600Y-39839900D01*
X199834500Y-48006000D02*
X199834500Y-40132000D01*
X197614500Y-50226000D02*
X199834500Y-48006000D01*
D35*
G04 #@! TO.N,Net-(R13-Pad2)*
X204967800Y-76082200D02*
X204967800Y-78318600D01*
X204967800Y-78318600D02*
X204967800Y-79121000D01*
X205750200Y-75299800D02*
X204967800Y-76082200D01*
X205750200Y-74617400D02*
X205750200Y-75299800D01*
D34*
G04 #@! TO.N,Net-(R15-Pad1)*
X195537000Y-40789900D02*
X197906600Y-40789900D01*
X198056500Y-33528000D02*
X196974500Y-33528000D01*
X198818500Y-34290000D02*
X198056500Y-33528000D01*
X198818500Y-39878000D02*
X198818500Y-34290000D01*
X197906600Y-40789900D02*
X198818500Y-39878000D01*
X195548100Y-40801000D02*
X195537000Y-40789900D01*
D35*
G04 #@! TO.N,Net-(R24-Pad1)*
X176908600Y-74319800D02*
X176301400Y-74927000D01*
X176908600Y-74114800D02*
X176908600Y-74319800D01*
X176301400Y-74927000D02*
X176301400Y-76200000D01*
X176301400Y-76200000D02*
X177673000Y-76200000D01*
G04 #@! TO.N,Net-(U5-Pad4)*
X208498399Y-83242201D02*
X207011601Y-83242201D01*
X206253000Y-82483600D02*
X205775600Y-82483600D01*
X208574600Y-83166000D02*
X208498399Y-83242201D01*
X207011601Y-83242201D02*
X206253000Y-82483600D01*
X208574600Y-82483600D02*
X208574600Y-83166000D01*
G04 #@! TO.N,/SS_Main_Shutdown_Pin*
X176087651Y-66382071D02*
X176087651Y-66873671D01*
X174931951Y-65226371D02*
X176087651Y-66382071D01*
X174931951Y-65176371D02*
X174931951Y-65226371D01*
X189007800Y-77373000D02*
X188950600Y-77315800D01*
X189007800Y-78325400D02*
X189007800Y-77373000D01*
X188950600Y-77315800D02*
X188950600Y-72999600D01*
X185978799Y-70027799D02*
X177622199Y-70027799D01*
X188950600Y-72999600D02*
X185978799Y-70027799D01*
X176087651Y-68493251D02*
X176087651Y-66873671D01*
X177622199Y-70027799D02*
X176087651Y-68493251D01*
G04 #@! TO.N,/SS_E-Stop_Pin*
X193141600Y-65124800D02*
X193141600Y-65074800D01*
X194284600Y-66267800D02*
X193141600Y-65124800D01*
X194284600Y-66802000D02*
X194284600Y-66267800D01*
X193782200Y-66802000D02*
X194284600Y-66802000D01*
X191407800Y-69176400D02*
X193782200Y-66802000D01*
X191407800Y-78325400D02*
X191407800Y-69176400D01*
G04 #@! TO.N,/SS_TSMS_Pin*
X186984600Y-65922600D02*
X186984600Y-65542000D01*
X186984600Y-65542000D02*
X186984600Y-64939600D01*
X187660800Y-66598800D02*
X186984600Y-65922600D01*
X188163200Y-66598800D02*
X187660800Y-66598800D01*
X190607800Y-78325400D02*
X190607800Y-73361400D01*
X188163200Y-70916800D02*
X188163200Y-66598800D01*
X190607800Y-73361400D02*
X188163200Y-70916800D01*
G04 #@! TO.N,/SS_BSPD_Pin*
X182052000Y-66502000D02*
X182052000Y-66802000D01*
X180873400Y-65323400D02*
X182052000Y-66502000D01*
X180873400Y-65074800D02*
X180873400Y-65323400D01*
X189807800Y-73425734D02*
X186028866Y-69646800D01*
X189807800Y-78325400D02*
X189807800Y-73425734D01*
X186028866Y-69646800D02*
X183337200Y-69646800D01*
X182052000Y-68361600D02*
X182052000Y-66802000D01*
X183337200Y-69646800D02*
X182052000Y-68361600D01*
G04 #@! TO.N,/BSPD_Current_Sense*
X197464946Y-63754972D02*
X173399070Y-63754972D01*
X172339000Y-62694902D02*
X172339000Y-61950600D01*
X173399070Y-63754972D02*
X172339000Y-62694902D01*
X197464946Y-63754972D02*
X197866972Y-63754972D01*
X197866972Y-63754972D02*
X199491600Y-65379600D01*
X201844200Y-68900000D02*
X202049200Y-68900000D01*
X200634600Y-67690400D02*
X201844200Y-68900000D01*
X200634600Y-66954400D02*
X200634600Y-67690400D01*
X169316400Y-96393000D02*
X168008300Y-95084900D01*
X172191600Y-96393000D02*
X169316400Y-96393000D01*
X193657800Y-84575400D02*
X194610200Y-84575400D01*
X172694000Y-96393000D02*
X172191600Y-96393000D01*
X173572601Y-97271601D02*
X172694000Y-96393000D01*
X185100199Y-97271601D02*
X173572601Y-97271601D01*
X189255400Y-93116400D02*
X185100199Y-97271601D01*
X199742940Y-66954400D02*
X199745600Y-66954400D01*
X199185470Y-67511870D02*
X199742940Y-66954400D01*
X199745600Y-66954400D02*
X200228200Y-66471800D01*
X200228200Y-66471800D02*
X201422000Y-66471800D01*
X202049200Y-67099000D02*
X202049200Y-68900000D01*
X201422000Y-66471800D02*
X202049200Y-67099000D01*
X194642200Y-84607400D02*
X195173600Y-84607400D01*
X194610200Y-84575400D02*
X194642200Y-84607400D01*
X196062600Y-75884118D02*
X196062600Y-69799200D01*
X193657800Y-84575400D02*
X192705400Y-84575400D01*
X192629199Y-84499199D02*
X192601599Y-84499199D01*
X192601599Y-84499199D02*
X191566800Y-83464400D01*
X192705400Y-84575400D02*
X192629199Y-84499199D01*
X191566800Y-83464400D02*
X191566800Y-80379918D01*
X191566800Y-80379918D02*
X196062600Y-75884118D01*
X199185470Y-67511870D02*
X199185470Y-67529730D01*
X199185470Y-67529730D02*
X198374000Y-68341200D01*
G04 #@! TO.N,/BSPD_Relay_Sense*
X208945200Y-85526800D02*
X211998800Y-85526800D01*
X208102000Y-84683600D02*
X208945200Y-85526800D01*
X211998800Y-85526800D02*
X212801200Y-85526800D01*
X207624600Y-84683600D02*
X208102000Y-84683600D01*
X207147200Y-84683600D02*
X206080400Y-83616800D01*
X207624600Y-84683600D02*
X207147200Y-84683600D01*
X203875600Y-84001200D02*
X203875600Y-84683600D01*
X204260000Y-83616800D02*
X203875600Y-84001200D01*
X206080400Y-83616800D02*
X204260000Y-83616800D01*
X212801200Y-85024400D02*
X213396000Y-84429600D01*
X212801200Y-85526800D02*
X212801200Y-85024400D01*
X213396000Y-84429600D02*
X214452200Y-84429600D01*
X214452200Y-84429600D02*
X215366600Y-85344000D01*
X208650400Y-93065600D02*
X208148000Y-93065600D01*
X209452800Y-93868000D02*
X208650400Y-93065600D01*
X211916282Y-93868000D02*
X209452800Y-93868000D01*
X215366600Y-90417682D02*
X211916282Y-93868000D01*
X215366600Y-85344000D02*
X215366600Y-90417682D01*
X208148000Y-95128000D02*
X208026000Y-95250000D01*
X208148000Y-93065600D02*
X208148000Y-95128000D01*
X194979134Y-85375400D02*
X196268534Y-86664800D01*
X193657800Y-85375400D02*
X194979134Y-85375400D01*
X196268534Y-86664800D02*
X200507600Y-86664800D01*
X202488800Y-84683600D02*
X203875600Y-84683600D01*
X200507600Y-86664800D02*
X202488800Y-84683600D01*
G04 #@! TO.N,Net-(D11-Pad2)*
X202033400Y-64008000D02*
X202397400Y-64008000D01*
X200804600Y-62779200D02*
X202033400Y-64008000D01*
X200804600Y-62026800D02*
X200804600Y-62779200D01*
G04 #@! TO.N,/Cooling_Pump_LSD*
X188207800Y-78325400D02*
X188207800Y-73425200D01*
X188207800Y-73425200D02*
X188163200Y-73380600D01*
X193066967Y-68341199D02*
X197601799Y-68341199D01*
X191947800Y-71120000D02*
X191947800Y-69460366D01*
X191947800Y-69460366D02*
X193066967Y-68341199D01*
X200497400Y-65445598D02*
X200497400Y-64008000D01*
X197601799Y-68341199D02*
X200497400Y-65445598D01*
X188207800Y-78325400D02*
X188207800Y-79277800D01*
X188207800Y-79277800D02*
X188207800Y-79457400D01*
X188207800Y-79457400D02*
X188010800Y-79654400D01*
G04 #@! TD*
D34*
G04 #@! TO.N,VCC*
G36*
X182865500Y-43398394D02*
X181839894Y-44424000D01*
X177419500Y-44424000D01*
X177419500Y-42378000D01*
X182865500Y-42378000D01*
X182865500Y-43398394D01*
X182865500Y-43398394D01*
G37*
X182865500Y-43398394D02*
X181839894Y-44424000D01*
X177419500Y-44424000D01*
X177419500Y-42378000D01*
X182865500Y-42378000D01*
X182865500Y-43398394D01*
G04 #@! TO.N,+12V*
G36*
X187465500Y-47424000D02*
X181719500Y-47424000D01*
X181719500Y-46003606D01*
X182845106Y-44878000D01*
X187465500Y-44878000D01*
X187465500Y-47424000D01*
X187465500Y-47424000D01*
G37*
X187465500Y-47424000D02*
X181719500Y-47424000D01*
X181719500Y-46003606D01*
X182845106Y-44878000D01*
X187465500Y-44878000D01*
X187465500Y-47424000D01*
G04 #@! TO.N,/12V_Fused*
G36*
X193665500Y-48424000D02*
X189669500Y-48424000D01*
X189669500Y-44878000D01*
X191842500Y-44878000D01*
X191891101Y-44868333D01*
X191932303Y-44840803D01*
X192482303Y-44290803D01*
X192509833Y-44249601D01*
X192519500Y-44201000D01*
X192519500Y-41033385D01*
X192767892Y-40578000D01*
X193665500Y-40578000D01*
X193665500Y-48424000D01*
X193665500Y-48424000D01*
G37*
X193665500Y-48424000D02*
X189669500Y-48424000D01*
X189669500Y-44878000D01*
X191842500Y-44878000D01*
X191891101Y-44868333D01*
X191932303Y-44840803D01*
X192482303Y-44290803D01*
X192509833Y-44249601D01*
X192519500Y-44201000D01*
X192519500Y-41033385D01*
X192767892Y-40578000D01*
X193665500Y-40578000D01*
X193665500Y-48424000D01*
G04 #@! TO.N,GND*
G36*
X193754500Y-38416200D02*
X193764167Y-38464801D01*
X193791697Y-38506003D01*
X193832899Y-38533533D01*
X193881500Y-38543200D01*
X194643500Y-38543200D01*
X194643500Y-41540400D01*
X194653167Y-41589001D01*
X194680697Y-41630203D01*
X194701824Y-41647230D01*
X195057424Y-41875830D01*
X195126100Y-41896000D01*
X195860894Y-41896000D01*
X196331697Y-42366803D01*
X196372899Y-42394333D01*
X196421500Y-42404000D01*
X197818500Y-42404000D01*
X197818500Y-48627000D01*
X194160900Y-48627000D01*
X194160900Y-39229000D01*
X194151233Y-39180399D01*
X194123703Y-39139197D01*
X194082501Y-39111667D01*
X194033900Y-39102000D01*
X192611500Y-39102000D01*
X192611500Y-33235900D01*
X192601833Y-33187299D01*
X192574303Y-33146097D01*
X192533101Y-33118567D01*
X192484500Y-33108900D01*
X184370800Y-33108900D01*
X184370800Y-31863000D01*
X184361133Y-31814399D01*
X184356500Y-31807465D01*
X184356500Y-28307000D01*
X193754500Y-28307000D01*
X193754500Y-38416200D01*
X193754500Y-38416200D01*
G37*
X193754500Y-38416200D02*
X193764167Y-38464801D01*
X193791697Y-38506003D01*
X193832899Y-38533533D01*
X193881500Y-38543200D01*
X194643500Y-38543200D01*
X194643500Y-41540400D01*
X194653167Y-41589001D01*
X194680697Y-41630203D01*
X194701824Y-41647230D01*
X195057424Y-41875830D01*
X195126100Y-41896000D01*
X195860894Y-41896000D01*
X196331697Y-42366803D01*
X196372899Y-42394333D01*
X196421500Y-42404000D01*
X197818500Y-42404000D01*
X197818500Y-48627000D01*
X194160900Y-48627000D01*
X194160900Y-39229000D01*
X194151233Y-39180399D01*
X194123703Y-39139197D01*
X194082501Y-39111667D01*
X194033900Y-39102000D01*
X192611500Y-39102000D01*
X192611500Y-33235900D01*
X192601833Y-33187299D01*
X192574303Y-33146097D01*
X192533101Y-33118567D01*
X192484500Y-33108900D01*
X184370800Y-33108900D01*
X184370800Y-31863000D01*
X184361133Y-31814399D01*
X184356500Y-31807465D01*
X184356500Y-28307000D01*
X193754500Y-28307000D01*
X193754500Y-38416200D01*
G04 #@! TO.N,Net-(C11-Pad2)*
G36*
X191686000Y-38773100D02*
X191695667Y-38821701D01*
X191717027Y-38856276D01*
X192366160Y-39605276D01*
X192368515Y-39607918D01*
X192390882Y-39632318D01*
X192430849Y-39661611D01*
X192484500Y-39673500D01*
X193691000Y-39673500D01*
X193691000Y-40054500D01*
X192484500Y-40054500D01*
X192435899Y-40064167D01*
X192394697Y-40091697D01*
X192377875Y-40112507D01*
X191706375Y-41150280D01*
X191686000Y-41219273D01*
X191686000Y-43776900D01*
X188688800Y-43776900D01*
X188688800Y-35852100D01*
X191686000Y-35852100D01*
X191686000Y-38773100D01*
X191686000Y-38773100D01*
G37*
X191686000Y-38773100D02*
X191695667Y-38821701D01*
X191717027Y-38856276D01*
X192366160Y-39605276D01*
X192368515Y-39607918D01*
X192390882Y-39632318D01*
X192430849Y-39661611D01*
X192484500Y-39673500D01*
X193691000Y-39673500D01*
X193691000Y-40054500D01*
X192484500Y-40054500D01*
X192435899Y-40064167D01*
X192394697Y-40091697D01*
X192377875Y-40112507D01*
X191706375Y-41150280D01*
X191686000Y-41219273D01*
X191686000Y-43776900D01*
X188688800Y-43776900D01*
X188688800Y-35852100D01*
X191686000Y-35852100D01*
X191686000Y-38773100D01*
G04 #@! TO.N,Net-(C12-Pad1)*
G36*
X190416000Y-35267900D02*
X188257000Y-35267900D01*
X188208399Y-35277567D01*
X188167197Y-35305097D01*
X187151197Y-36321097D01*
X187123667Y-36362299D01*
X187114000Y-36410900D01*
X187114000Y-43776900D01*
X183939000Y-43776900D01*
X183939000Y-42252900D01*
X183929333Y-42204299D01*
X183901803Y-42163097D01*
X183139803Y-41401097D01*
X183098601Y-41373567D01*
X183050000Y-41363900D01*
X179621000Y-41363900D01*
X179621000Y-33870900D01*
X190416000Y-33870900D01*
X190416000Y-35267900D01*
X190416000Y-35267900D01*
G37*
X190416000Y-35267900D02*
X188257000Y-35267900D01*
X188208399Y-35277567D01*
X188167197Y-35305097D01*
X187151197Y-36321097D01*
X187123667Y-36362299D01*
X187114000Y-36410900D01*
X187114000Y-43776900D01*
X183939000Y-43776900D01*
X183939000Y-42252900D01*
X183929333Y-42204299D01*
X183901803Y-42163097D01*
X183139803Y-41401097D01*
X183098601Y-41373567D01*
X183050000Y-41363900D01*
X179621000Y-41363900D01*
X179621000Y-33870900D01*
X190416000Y-33870900D01*
X190416000Y-35267900D01*
G04 #@! TD*
M02*
