G04 #@! TF.GenerationSoftware,KiCad,Pcbnew,5.0.1-33cea8e~68~ubuntu18.04.1*
G04 #@! TF.CreationDate,2018-12-01T11:29:07-05:00*
G04 #@! TF.ProjectId,throttle,7468726F74746C652E6B696361645F70,rev?*
G04 #@! TF.SameCoordinates,Original*
G04 #@! TF.FileFunction,Copper,L1,Top,Signal*
G04 #@! TF.FilePolarity,Positive*
%FSLAX46Y46*%
G04 Gerber Fmt 4.6, Leading zero omitted, Abs format (unit mm)*
G04 Created by KiCad (PCBNEW 5.0.1-33cea8e~68~ubuntu18.04.1) date Sat 01 Dec 2018 11:29:07 AM EST*
%MOMM*%
%LPD*%
G01*
G04 APERTURE LIST*
G04 #@! TA.AperFunction,SMDPad,CuDef*
%ADD10R,1.060000X0.650000*%
G04 #@! TD*
G04 #@! TA.AperFunction,SMDPad,CuDef*
%ADD11R,0.600000X1.550000*%
G04 #@! TD*
G04 #@! TA.AperFunction,SMDPad,CuDef*
%ADD12C,0.550000*%
G04 #@! TD*
G04 #@! TA.AperFunction,Conductor*
%ADD13C,0.100000*%
G04 #@! TD*
G04 #@! TA.AperFunction,ComponentPad*
%ADD14R,1.400000X1.400000*%
G04 #@! TD*
G04 #@! TA.AperFunction,ComponentPad*
%ADD15C,1.400000*%
G04 #@! TD*
G04 #@! TA.AperFunction,SMDPad,CuDef*
%ADD16R,1.250000X1.000000*%
G04 #@! TD*
G04 #@! TA.AperFunction,SMDPad,CuDef*
%ADD17R,1.000000X1.250000*%
G04 #@! TD*
G04 #@! TA.AperFunction,SMDPad,CuDef*
%ADD18R,1.200000X1.200000*%
G04 #@! TD*
G04 #@! TA.AperFunction,SMDPad,CuDef*
%ADD19R,2.500000X0.900000*%
G04 #@! TD*
G04 #@! TA.AperFunction,SMDPad,CuDef*
%ADD20R,8.200000X3.300000*%
G04 #@! TD*
G04 #@! TA.AperFunction,SMDPad,CuDef*
%ADD21R,0.700000X1.300000*%
G04 #@! TD*
G04 #@! TA.AperFunction,SMDPad,CuDef*
%ADD22R,0.650000X1.060000*%
G04 #@! TD*
G04 #@! TA.AperFunction,SMDPad,CuDef*
%ADD23R,1.600000X1.000000*%
G04 #@! TD*
G04 #@! TA.AperFunction,SMDPad,CuDef*
%ADD24R,2.159000X1.778000*%
G04 #@! TD*
G04 #@! TA.AperFunction,SMDPad,CuDef*
%ADD25R,1.000000X3.200000*%
G04 #@! TD*
G04 #@! TA.AperFunction,SMDPad,CuDef*
%ADD26R,1.300000X0.700000*%
G04 #@! TD*
G04 #@! TA.AperFunction,SMDPad,CuDef*
%ADD27C,1.000000*%
G04 #@! TD*
G04 #@! TA.AperFunction,ComponentPad*
%ADD28C,1.300000*%
G04 #@! TD*
G04 #@! TA.AperFunction,ComponentPad*
%ADD29C,2.000000*%
G04 #@! TD*
G04 #@! TA.AperFunction,SMDPad,CuDef*
%ADD30R,0.800000X0.900000*%
G04 #@! TD*
G04 #@! TA.AperFunction,SMDPad,CuDef*
%ADD31C,0.700000*%
G04 #@! TD*
G04 #@! TA.AperFunction,SMDPad,CuDef*
%ADD32C,1.200000*%
G04 #@! TD*
G04 #@! TA.AperFunction,ViaPad*
%ADD33C,0.609600*%
G04 #@! TD*
G04 #@! TA.AperFunction,Conductor*
%ADD34C,0.254000*%
G04 #@! TD*
G04 #@! TA.AperFunction,Conductor*
%ADD35C,0.152400*%
G04 #@! TD*
G04 #@! TA.AperFunction,Conductor*
%ADD36C,0.600000*%
G04 #@! TD*
G04 #@! TA.AperFunction,Conductor*
%ADD37C,0.800000*%
G04 #@! TD*
G04 #@! TA.AperFunction,Conductor*
%ADD38C,0.700000*%
G04 #@! TD*
G04 #@! TA.AperFunction,Conductor*
%ADD39C,0.500000*%
G04 #@! TD*
G04 #@! TA.AperFunction,Conductor*
%ADD40C,0.250000*%
G04 #@! TD*
G04 #@! TA.AperFunction,Conductor*
%ADD41C,0.300000*%
G04 #@! TD*
G04 #@! TA.AperFunction,Conductor*
%ADD42C,0.762000*%
G04 #@! TD*
G04 APERTURE END LIST*
D10*
G04 #@! TO.P,U1,5*
G04 #@! TO.N,VCC*
X133010000Y-65024000D03*
G04 #@! TO.P,U1,4*
G04 #@! TO.N,Net-(R6-Pad2)*
X133010000Y-66924000D03*
G04 #@! TO.P,U1,3*
G04 #@! TO.N,/Throttle1_Right_Sense*
X130810000Y-66924000D03*
G04 #@! TO.P,U1,2*
G04 #@! TO.N,GND*
X130810000Y-65974000D03*
G04 #@! TO.P,U1,1*
G04 #@! TO.N,/Throttle2Adjusted*
X130810000Y-65024000D03*
G04 #@! TD*
D11*
G04 #@! TO.P,U4,1*
G04 #@! TO.N,/TXCAN*
X113975075Y-78132509D03*
G04 #@! TO.P,U4,2*
G04 #@! TO.N,GND*
X112705075Y-78132509D03*
G04 #@! TO.P,U4,3*
G04 #@! TO.N,VCC*
X111435075Y-78132509D03*
G04 #@! TO.P,U4,4*
G04 #@! TO.N,/RXCAN*
X110165075Y-78132509D03*
G04 #@! TO.P,U4,5*
G04 #@! TO.N,Net-(U4-Pad5)*
X110165075Y-83532509D03*
G04 #@! TO.P,U4,6*
G04 #@! TO.N,/CANL*
X111435075Y-83532509D03*
G04 #@! TO.P,U4,7*
G04 #@! TO.N,/CANH*
X112705075Y-83532509D03*
G04 #@! TO.P,U4,8*
G04 #@! TO.N,GND*
X113975075Y-83532509D03*
G04 #@! TD*
D12*
G04 #@! TO.P,IC1,1*
G04 #@! TO.N,/MISO*
X111836680Y-70060795D03*
D13*
G04 #@! TD*
G04 #@! TO.N,/MISO*
G04 #@! TO.C,IC1*
G36*
X111465449Y-70820935D02*
X111076540Y-70432026D01*
X112207911Y-69300655D01*
X112596820Y-69689564D01*
X111465449Y-70820935D01*
X111465449Y-70820935D01*
G37*
D12*
G04 #@! TO.P,IC1,2*
G04 #@! TO.N,/MOSI*
X112402366Y-70626480D03*
D13*
G04 #@! TD*
G04 #@! TO.N,/MOSI*
G04 #@! TO.C,IC1*
G36*
X112031135Y-71386620D02*
X111642226Y-70997711D01*
X112773597Y-69866340D01*
X113162506Y-70255249D01*
X112031135Y-71386620D01*
X112031135Y-71386620D01*
G37*
D12*
G04 #@! TO.P,IC1,3*
G04 #@! TO.N,Net-(IC1-Pad3)*
X112968051Y-71192166D03*
D13*
G04 #@! TD*
G04 #@! TO.N,Net-(IC1-Pad3)*
G04 #@! TO.C,IC1*
G36*
X112596820Y-71952306D02*
X112207911Y-71563397D01*
X113339282Y-70432026D01*
X113728191Y-70820935D01*
X112596820Y-71952306D01*
X112596820Y-71952306D01*
G37*
D12*
G04 #@! TO.P,IC1,4*
G04 #@! TO.N,VCC*
X113533736Y-71757851D03*
D13*
G04 #@! TD*
G04 #@! TO.N,VCC*
G04 #@! TO.C,IC1*
G36*
X113162505Y-72517991D02*
X112773596Y-72129082D01*
X113904967Y-70997711D01*
X114293876Y-71386620D01*
X113162505Y-72517991D01*
X113162505Y-72517991D01*
G37*
D12*
G04 #@! TO.P,IC1,5*
G04 #@! TO.N,GND*
X114099422Y-72323537D03*
D13*
G04 #@! TD*
G04 #@! TO.N,GND*
G04 #@! TO.C,IC1*
G36*
X113728191Y-73083677D02*
X113339282Y-72694768D01*
X114470653Y-71563397D01*
X114859562Y-71952306D01*
X113728191Y-73083677D01*
X113728191Y-73083677D01*
G37*
D12*
G04 #@! TO.P,IC1,6*
G04 #@! TO.N,/TXCAN*
X114665107Y-72889222D03*
D13*
G04 #@! TD*
G04 #@! TO.N,/TXCAN*
G04 #@! TO.C,IC1*
G36*
X114293876Y-73649362D02*
X113904967Y-73260453D01*
X115036338Y-72129082D01*
X115425247Y-72517991D01*
X114293876Y-73649362D01*
X114293876Y-73649362D01*
G37*
D12*
G04 #@! TO.P,IC1,7*
G04 #@! TO.N,/RXCAN*
X115230793Y-73454907D03*
D13*
G04 #@! TD*
G04 #@! TO.N,/RXCAN*
G04 #@! TO.C,IC1*
G36*
X114859562Y-74215047D02*
X114470653Y-73826138D01*
X115602024Y-72694767D01*
X115990933Y-73083676D01*
X114859562Y-74215047D01*
X114859562Y-74215047D01*
G37*
D12*
G04 #@! TO.P,IC1,8*
G04 #@! TO.N,Net-(IC1-Pad8)*
X115796478Y-74020593D03*
D13*
G04 #@! TD*
G04 #@! TO.N,Net-(IC1-Pad8)*
G04 #@! TO.C,IC1*
G36*
X115425247Y-74780733D02*
X115036338Y-74391824D01*
X116167709Y-73260453D01*
X116556618Y-73649362D01*
X115425247Y-74780733D01*
X115425247Y-74780733D01*
G37*
D12*
G04 #@! TO.P,IC1,9*
G04 #@! TO.N,Net-(IC1-Pad9)*
X117847088Y-74020593D03*
D13*
G04 #@! TD*
G04 #@! TO.N,Net-(IC1-Pad9)*
G04 #@! TO.C,IC1*
G36*
X118607228Y-74391824D02*
X118218319Y-74780733D01*
X117086948Y-73649362D01*
X117475857Y-73260453D01*
X118607228Y-74391824D01*
X118607228Y-74391824D01*
G37*
D12*
G04 #@! TO.P,IC1,10*
G04 #@! TO.N,Net-(C10-Pad1)*
X118412773Y-73454907D03*
D13*
G04 #@! TD*
G04 #@! TO.N,Net-(C10-Pad1)*
G04 #@! TO.C,IC1*
G36*
X119172913Y-73826138D02*
X118784004Y-74215047D01*
X117652633Y-73083676D01*
X118041542Y-72694767D01*
X119172913Y-73826138D01*
X119172913Y-73826138D01*
G37*
D12*
G04 #@! TO.P,IC1,11*
G04 #@! TO.N,Net-(C9-Pad1)*
X118978459Y-72889222D03*
D13*
G04 #@! TD*
G04 #@! TO.N,Net-(C9-Pad1)*
G04 #@! TO.C,IC1*
G36*
X119738599Y-73260453D02*
X119349690Y-73649362D01*
X118218319Y-72517991D01*
X118607228Y-72129082D01*
X119738599Y-73260453D01*
X119738599Y-73260453D01*
G37*
D12*
G04 #@! TO.P,IC1,12*
G04 #@! TO.N,/SCK*
X119544144Y-72323537D03*
D13*
G04 #@! TD*
G04 #@! TO.N,/SCK*
G04 #@! TO.C,IC1*
G36*
X120304284Y-72694768D02*
X119915375Y-73083677D01*
X118784004Y-71952306D01*
X119172913Y-71563397D01*
X120304284Y-72694768D01*
X120304284Y-72694768D01*
G37*
D12*
G04 #@! TO.P,IC1,13*
G04 #@! TO.N,/Drive_Mode_Out*
X120109830Y-71757851D03*
D13*
G04 #@! TD*
G04 #@! TO.N,/Drive_Mode_Out*
G04 #@! TO.C,IC1*
G36*
X120869970Y-72129082D02*
X120481061Y-72517991D01*
X119349690Y-71386620D01*
X119738599Y-70997711D01*
X120869970Y-72129082D01*
X120869970Y-72129082D01*
G37*
D12*
G04 #@! TO.P,IC1,14*
G04 #@! TO.N,Net-(IC1-Pad14)*
X120675515Y-71192166D03*
D13*
G04 #@! TD*
G04 #@! TO.N,Net-(IC1-Pad14)*
G04 #@! TO.C,IC1*
G36*
X121435655Y-71563397D02*
X121046746Y-71952306D01*
X119915375Y-70820935D01*
X120304284Y-70432026D01*
X121435655Y-71563397D01*
X121435655Y-71563397D01*
G37*
D12*
G04 #@! TO.P,IC1,15*
G04 #@! TO.N,Net-(IC1-Pad15)*
X121241200Y-70626480D03*
D13*
G04 #@! TD*
G04 #@! TO.N,Net-(IC1-Pad15)*
G04 #@! TO.C,IC1*
G36*
X122001340Y-70997711D02*
X121612431Y-71386620D01*
X120481060Y-70255249D01*
X120869969Y-69866340D01*
X122001340Y-70997711D01*
X122001340Y-70997711D01*
G37*
D12*
G04 #@! TO.P,IC1,16*
G04 #@! TO.N,Net-(IC1-Pad16)*
X121806886Y-70060795D03*
D13*
G04 #@! TD*
G04 #@! TO.N,Net-(IC1-Pad16)*
G04 #@! TO.C,IC1*
G36*
X122567026Y-70432026D02*
X122178117Y-70820935D01*
X121046746Y-69689564D01*
X121435655Y-69300655D01*
X122567026Y-70432026D01*
X122567026Y-70432026D01*
G37*
D12*
G04 #@! TO.P,IC1,17*
G04 #@! TO.N,/Throttle1Adjusted*
X121806886Y-68010185D03*
D13*
G04 #@! TD*
G04 #@! TO.N,/Throttle1Adjusted*
G04 #@! TO.C,IC1*
G36*
X121435655Y-68770325D02*
X121046746Y-68381416D01*
X122178117Y-67250045D01*
X122567026Y-67638954D01*
X121435655Y-68770325D01*
X121435655Y-68770325D01*
G37*
D12*
G04 #@! TO.P,IC1,18*
G04 #@! TO.N,/Throttle2Adjusted*
X121241200Y-67444500D03*
D13*
G04 #@! TD*
G04 #@! TO.N,/Throttle2Adjusted*
G04 #@! TO.C,IC1*
G36*
X120869969Y-68204640D02*
X120481060Y-67815731D01*
X121612431Y-66684360D01*
X122001340Y-67073269D01*
X120869969Y-68204640D01*
X120869969Y-68204640D01*
G37*
D12*
G04 #@! TO.P,IC1,19*
G04 #@! TO.N,Net-(C8-Pad1)*
X120675515Y-66878814D03*
D13*
G04 #@! TD*
G04 #@! TO.N,Net-(C8-Pad1)*
G04 #@! TO.C,IC1*
G36*
X120304284Y-67638954D02*
X119915375Y-67250045D01*
X121046746Y-66118674D01*
X121435655Y-66507583D01*
X120304284Y-67638954D01*
X120304284Y-67638954D01*
G37*
D12*
G04 #@! TO.P,IC1,20*
G04 #@! TO.N,GND*
X120109830Y-66313129D03*
D13*
G04 #@! TD*
G04 #@! TO.N,GND*
G04 #@! TO.C,IC1*
G36*
X119738599Y-67073269D02*
X119349690Y-66684360D01*
X120481061Y-65552989D01*
X120869970Y-65941898D01*
X119738599Y-67073269D01*
X119738599Y-67073269D01*
G37*
D12*
G04 #@! TO.P,IC1,21*
G04 #@! TO.N,Net-(IC1-Pad21)*
X119544144Y-65747443D03*
D13*
G04 #@! TD*
G04 #@! TO.N,Net-(IC1-Pad21)*
G04 #@! TO.C,IC1*
G36*
X119172913Y-66507583D02*
X118784004Y-66118674D01*
X119915375Y-64987303D01*
X120304284Y-65376212D01*
X119172913Y-66507583D01*
X119172913Y-66507583D01*
G37*
D12*
G04 #@! TO.P,IC1,22*
G04 #@! TO.N,/ProgrammingLED1*
X118978459Y-65181758D03*
D13*
G04 #@! TD*
G04 #@! TO.N,/ProgrammingLED1*
G04 #@! TO.C,IC1*
G36*
X118607228Y-65941898D02*
X118218319Y-65552989D01*
X119349690Y-64421618D01*
X119738599Y-64810527D01*
X118607228Y-65941898D01*
X118607228Y-65941898D01*
G37*
D12*
G04 #@! TO.P,IC1,23*
G04 #@! TO.N,/ProgrammingLED2*
X118412773Y-64616073D03*
D13*
G04 #@! TD*
G04 #@! TO.N,/ProgrammingLED2*
G04 #@! TO.C,IC1*
G36*
X118041542Y-65376213D02*
X117652633Y-64987304D01*
X118784004Y-63855933D01*
X119172913Y-64244842D01*
X118041542Y-65376213D01*
X118041542Y-65376213D01*
G37*
D12*
G04 #@! TO.P,IC1,24*
G04 #@! TO.N,/ProgrammingLED3*
X117847088Y-64050387D03*
D13*
G04 #@! TD*
G04 #@! TO.N,/ProgrammingLED3*
G04 #@! TO.C,IC1*
G36*
X117475857Y-64810527D02*
X117086948Y-64421618D01*
X118218319Y-63290247D01*
X118607228Y-63679156D01*
X117475857Y-64810527D01*
X117475857Y-64810527D01*
G37*
D12*
G04 #@! TO.P,IC1,25*
G04 #@! TO.N,/ReadyToDrive_LowDrive*
X115796478Y-64050387D03*
D13*
G04 #@! TD*
G04 #@! TO.N,/ReadyToDrive_LowDrive*
G04 #@! TO.C,IC1*
G36*
X116556618Y-64421618D02*
X116167709Y-64810527D01*
X115036338Y-63679156D01*
X115425247Y-63290247D01*
X116556618Y-64421618D01*
X116556618Y-64421618D01*
G37*
D12*
G04 #@! TO.P,IC1,26*
G04 #@! TO.N,/SS_EStop_Out_n*
X115230793Y-64616073D03*
D13*
G04 #@! TD*
G04 #@! TO.N,/SS_EStop_Out_n*
G04 #@! TO.C,IC1*
G36*
X115990933Y-64987304D02*
X115602024Y-65376213D01*
X114470653Y-64244842D01*
X114859562Y-63855933D01*
X115990933Y-64987304D01*
X115990933Y-64987304D01*
G37*
D12*
G04 #@! TO.P,IC1,27*
G04 #@! TO.N,/SS_Inertia_Out_n*
X114665107Y-65181758D03*
D13*
G04 #@! TD*
G04 #@! TO.N,/SS_Inertia_Out_n*
G04 #@! TO.C,IC1*
G36*
X115425247Y-65552989D02*
X115036338Y-65941898D01*
X113904967Y-64810527D01*
X114293876Y-64421618D01*
X115425247Y-65552989D01*
X115425247Y-65552989D01*
G37*
D12*
G04 #@! TO.P,IC1,28*
G04 #@! TO.N,/SS_BOTS_Out_n*
X114099422Y-65747443D03*
D13*
G04 #@! TD*
G04 #@! TO.N,/SS_BOTS_Out_n*
G04 #@! TO.C,IC1*
G36*
X114859562Y-66118674D02*
X114470653Y-66507583D01*
X113339282Y-65376212D01*
X113728191Y-64987303D01*
X114859562Y-66118674D01*
X114859562Y-66118674D01*
G37*
D12*
G04 #@! TO.P,IC1,29*
G04 #@! TO.N,Net-(IC1-Pad29)*
X113533736Y-66313129D03*
D13*
G04 #@! TD*
G04 #@! TO.N,Net-(IC1-Pad29)*
G04 #@! TO.C,IC1*
G36*
X114293876Y-66684360D02*
X113904967Y-67073269D01*
X112773596Y-65941898D01*
X113162505Y-65552989D01*
X114293876Y-66684360D01*
X114293876Y-66684360D01*
G37*
D12*
G04 #@! TO.P,IC1,30*
G04 #@! TO.N,Net-(IC1-Pad30)*
X112968051Y-66878814D03*
D13*
G04 #@! TD*
G04 #@! TO.N,Net-(IC1-Pad30)*
G04 #@! TO.C,IC1*
G36*
X113728191Y-67250045D02*
X113339282Y-67638954D01*
X112207911Y-66507583D01*
X112596820Y-66118674D01*
X113728191Y-67250045D01*
X113728191Y-67250045D01*
G37*
D12*
G04 #@! TO.P,IC1,31*
G04 #@! TO.N,/RESET*
X112402366Y-67444500D03*
D13*
G04 #@! TD*
G04 #@! TO.N,/RESET*
G04 #@! TO.C,IC1*
G36*
X113162506Y-67815731D02*
X112773597Y-68204640D01*
X111642226Y-67073269D01*
X112031135Y-66684360D01*
X113162506Y-67815731D01*
X113162506Y-67815731D01*
G37*
D12*
G04 #@! TO.P,IC1,32*
G04 #@! TO.N,Net-(IC1-Pad32)*
X111836680Y-68010185D03*
D13*
G04 #@! TD*
G04 #@! TO.N,Net-(IC1-Pad32)*
G04 #@! TO.C,IC1*
G36*
X112596820Y-68381416D02*
X112207911Y-68770325D01*
X111076540Y-67638954D01*
X111465449Y-67250045D01*
X112596820Y-68381416D01*
X112596820Y-68381416D01*
G37*
D14*
G04 #@! TO.P,J3,1*
G04 #@! TO.N,/MISO*
X117094000Y-86106000D03*
D15*
G04 #@! TO.P,J3,2*
G04 #@! TO.N,VCC*
X117094000Y-83566000D03*
G04 #@! TO.P,J3,3*
G04 #@! TO.N,/SCK*
X119634000Y-86106000D03*
G04 #@! TO.P,J3,4*
G04 #@! TO.N,/MOSI*
X119634000Y-83566000D03*
G04 #@! TO.P,J3,5*
G04 #@! TO.N,/RESET*
X122174000Y-86106000D03*
G04 #@! TO.P,J3,6*
G04 #@! TO.N,GND*
X122174000Y-83566000D03*
G04 #@! TD*
D16*
G04 #@! TO.P,C5,2*
G04 #@! TO.N,Net-(C5-Pad2)*
X146390879Y-90548933D03*
G04 #@! TO.P,C5,1*
G04 #@! TO.N,Net-(C5-Pad1)*
X146390879Y-92548933D03*
G04 #@! TD*
D17*
G04 #@! TO.P,C11,2*
G04 #@! TO.N,GND*
X151200879Y-82912933D03*
G04 #@! TO.P,C11,1*
G04 #@! TO.N,Net-(C11-Pad1)*
X149200879Y-82912933D03*
G04 #@! TD*
G04 #@! TO.P,C12,2*
G04 #@! TO.N,GND*
X151200879Y-85198933D03*
G04 #@! TO.P,C12,1*
G04 #@! TO.N,Net-(C11-Pad1)*
X149200879Y-85198933D03*
G04 #@! TD*
D18*
G04 #@! TO.P,D2,1*
G04 #@! TO.N,GND*
X146982879Y-74022933D03*
G04 #@! TO.P,D2,2*
G04 #@! TO.N,Net-(D2-Pad2)*
X144782879Y-74022933D03*
G04 #@! TD*
D19*
G04 #@! TO.P,F1,2*
G04 #@! TO.N,/12V_Fused*
X137100379Y-85765433D03*
G04 #@! TO.P,F1,1*
G04 #@! TO.N,+12V*
X137100379Y-82865433D03*
G04 #@! TD*
D20*
G04 #@! TO.P,L1,2*
G04 #@! TO.N,Net-(C11-Pad1)*
X143406379Y-81261433D03*
G04 #@! TO.P,L1,1*
G04 #@! TO.N,Net-(C5-Pad2)*
X143406379Y-85961433D03*
G04 #@! TD*
D21*
G04 #@! TO.P,R2,2*
G04 #@! TO.N,Net-(D1-Pad2)*
X132994879Y-86722933D03*
G04 #@! TO.P,R2,1*
G04 #@! TO.N,/12V_Fused*
X134894879Y-86722933D03*
G04 #@! TD*
G04 #@! TO.P,R3,2*
G04 #@! TO.N,Net-(R3-Pad2)*
X132994879Y-88754933D03*
G04 #@! TO.P,R3,1*
G04 #@! TO.N,/12V_Fused*
X134894879Y-88754933D03*
G04 #@! TD*
G04 #@! TO.P,R12,2*
G04 #@! TO.N,Net-(D2-Pad2)*
X142768879Y-74022933D03*
G04 #@! TO.P,R12,1*
G04 #@! TO.N,VCC*
X140868879Y-74022933D03*
G04 #@! TD*
D22*
G04 #@! TO.P,U2,5*
G04 #@! TO.N,Net-(R3-Pad2)*
X143380979Y-91315433D03*
G04 #@! TO.P,U2,6*
G04 #@! TO.N,Net-(C5-Pad1)*
X144330979Y-91315433D03*
G04 #@! TO.P,U2,4*
G04 #@! TO.N,Net-(R4-Pad1)*
X142430979Y-91315433D03*
G04 #@! TO.P,U2,3*
G04 #@! TO.N,/12V_Fused*
X142430979Y-89115433D03*
G04 #@! TO.P,U2,2*
G04 #@! TO.N,Net-(C5-Pad2)*
X143380979Y-89115433D03*
G04 #@! TO.P,U2,1*
G04 #@! TO.N,GND*
X144330979Y-89115433D03*
G04 #@! TD*
D23*
G04 #@! TO.P,C3,2*
G04 #@! TO.N,GND*
X140040879Y-92032933D03*
G04 #@! TO.P,C3,1*
G04 #@! TO.N,/12V_Fused*
X140040879Y-89032933D03*
G04 #@! TD*
D17*
G04 #@! TO.P,C7,2*
G04 #@! TO.N,GND*
X151200879Y-80880933D03*
G04 #@! TO.P,C7,1*
G04 #@! TO.N,Net-(C11-Pad1)*
X149200879Y-80880933D03*
G04 #@! TD*
D18*
G04 #@! TO.P,D1,1*
G04 #@! TO.N,GND*
X133182879Y-82066933D03*
G04 #@! TO.P,D1,2*
G04 #@! TO.N,Net-(D1-Pad2)*
X133182879Y-84266933D03*
G04 #@! TD*
D24*
G04 #@! TO.P,D7,1*
G04 #@! TO.N,+12V*
X135722879Y-78594933D03*
G04 #@! TO.P,D7,2*
G04 #@! TO.N,GND*
X135722879Y-74530933D03*
G04 #@! TD*
D25*
G04 #@! TO.P,R9,2*
G04 #@! TO.N,Net-(C11-Pad1)*
X146315879Y-77197933D03*
G04 #@! TO.P,R9,1*
G04 #@! TO.N,VCC*
X140115879Y-77197933D03*
G04 #@! TD*
D21*
G04 #@! TO.P,R4,2*
G04 #@! TO.N,GND*
X140614879Y-93834933D03*
G04 #@! TO.P,R4,1*
G04 #@! TO.N,Net-(R4-Pad1)*
X142514879Y-93834933D03*
G04 #@! TD*
D26*
G04 #@! TO.P,R5,2*
G04 #@! TO.N,Net-(C11-Pad1)*
X149692879Y-90852933D03*
G04 #@! TO.P,R5,1*
G04 #@! TO.N,Net-(R4-Pad1)*
X149692879Y-92752933D03*
G04 #@! TD*
D17*
G04 #@! TO.P,C1,2*
G04 #@! TO.N,VCC*
X134620000Y-65024000D03*
G04 #@! TO.P,C1,1*
G04 #@! TO.N,GND*
X136620000Y-65024000D03*
G04 #@! TD*
G04 #@! TO.P,C2,1*
G04 #@! TO.N,GND*
X148574000Y-65278000D03*
G04 #@! TO.P,C2,2*
G04 #@! TO.N,VCC*
X146574000Y-65278000D03*
G04 #@! TD*
G04 #@! TO.P,C4,1*
G04 #@! TO.N,VCC*
X107680000Y-77724000D03*
G04 #@! TO.P,C4,2*
G04 #@! TO.N,GND*
X105680000Y-77724000D03*
G04 #@! TD*
D16*
G04 #@! TO.P,C6,2*
G04 #@! TO.N,GND*
X110490000Y-74041000D03*
G04 #@! TO.P,C6,1*
G04 #@! TO.N,VCC*
X110490000Y-76041000D03*
G04 #@! TD*
D27*
G04 #@! TO.P,C8,1*
G04 #@! TO.N,Net-(C8-Pad1)*
X123268475Y-62864569D03*
D13*
G04 #@! TD*
G04 #@! TO.N,Net-(C8-Pad1)*
G04 #@! TO.C,C8*
G36*
X123180087Y-62069074D02*
X124063970Y-62952957D01*
X123356863Y-63660064D01*
X122472980Y-62776181D01*
X123180087Y-62069074D01*
X123180087Y-62069074D01*
G37*
D27*
G04 #@! TO.P,C8,2*
G04 #@! TO.N,GND*
X121854261Y-64278783D03*
D13*
G04 #@! TD*
G04 #@! TO.N,GND*
G04 #@! TO.C,C8*
G36*
X121765873Y-63483288D02*
X122649756Y-64367171D01*
X121942649Y-65074278D01*
X121058766Y-64190395D01*
X121765873Y-63483288D01*
X121765873Y-63483288D01*
G37*
D27*
G04 #@! TO.P,C9,1*
G04 #@! TO.N,Net-(C9-Pad1)*
X122809000Y-73406000D03*
D13*
G04 #@! TD*
G04 #@! TO.N,Net-(C9-Pad1)*
G04 #@! TO.C,C9*
G36*
X122013505Y-73494388D02*
X122897388Y-72610505D01*
X123604495Y-73317612D01*
X122720612Y-74201495D01*
X122013505Y-73494388D01*
X122013505Y-73494388D01*
G37*
D27*
G04 #@! TO.P,C9,2*
G04 #@! TO.N,GND*
X124223214Y-74820214D03*
D13*
G04 #@! TD*
G04 #@! TO.N,GND*
G04 #@! TO.C,C9*
G36*
X123427719Y-74908602D02*
X124311602Y-74024719D01*
X125018709Y-74731826D01*
X124134826Y-75615709D01*
X123427719Y-74908602D01*
X123427719Y-74908602D01*
G37*
D27*
G04 #@! TO.P,C10,2*
G04 #@! TO.N,GND*
X121103107Y-80082107D03*
D13*
G04 #@! TD*
G04 #@! TO.N,GND*
G04 #@! TO.C,C10*
G36*
X120307612Y-80170495D02*
X121191495Y-79286612D01*
X121898602Y-79993719D01*
X121014719Y-80877602D01*
X120307612Y-80170495D01*
X120307612Y-80170495D01*
G37*
D27*
G04 #@! TO.P,C10,1*
G04 #@! TO.N,Net-(C10-Pad1)*
X119688893Y-78667893D03*
D13*
G04 #@! TD*
G04 #@! TO.N,Net-(C10-Pad1)*
G04 #@! TO.C,C10*
G36*
X118893398Y-78756281D02*
X119777281Y-77872398D01*
X120484388Y-78579505D01*
X119600505Y-79463388D01*
X118893398Y-78756281D01*
X118893398Y-78756281D01*
G37*
D18*
G04 #@! TO.P,PC6,2*
G04 #@! TO.N,/ProgrammingLED1*
X135722000Y-61722000D03*
G04 #@! TO.P,PC6,1*
G04 #@! TO.N,Net-(D3-Pad1)*
X137922000Y-61722000D03*
G04 #@! TD*
G04 #@! TO.P,PB3,1*
G04 #@! TO.N,Net-(D4-Pad1)*
X138006000Y-58420000D03*
G04 #@! TO.P,PB3,2*
G04 #@! TO.N,/ProgrammingLED2*
X135806000Y-58420000D03*
G04 #@! TD*
G04 #@! TO.P,PB4,2*
G04 #@! TO.N,/ProgrammingLED3*
X135849000Y-55118000D03*
G04 #@! TO.P,PB4,1*
G04 #@! TO.N,Net-(D5-Pad1)*
X138049000Y-55118000D03*
G04 #@! TD*
G04 #@! TO.P,D6,1*
G04 #@! TO.N,GND*
X131462711Y-55383147D03*
G04 #@! TO.P,D6,2*
G04 #@! TO.N,Net-(D6-Pad2)*
X131462711Y-57583147D03*
G04 #@! TD*
G04 #@! TO.P,D8,1*
G04 #@! TO.N,GND*
X108903581Y-51995369D03*
G04 #@! TO.P,D8,2*
G04 #@! TO.N,Net-(D8-Pad2)*
X108903581Y-49795369D03*
G04 #@! TD*
G04 #@! TO.P,D9,2*
G04 #@! TO.N,Net-(D9-Pad2)*
X117793581Y-50811369D03*
G04 #@! TO.P,D9,1*
G04 #@! TO.N,GND*
X117793581Y-53011369D03*
G04 #@! TD*
G04 #@! TO.P,D10,2*
G04 #@! TO.N,Net-(D10-Pad2)*
X100521581Y-52843369D03*
G04 #@! TO.P,D10,1*
G04 #@! TO.N,GND*
X100521581Y-55043369D03*
G04 #@! TD*
D28*
G04 #@! TO.P,J1,3*
G04 #@! TO.N,/SS_Cockpit_EStop*
X148714000Y-57634000D03*
G04 #@! TO.P,J1,1*
G04 #@! TO.N,/SS_BOTS*
X151254000Y-57634000D03*
G04 #@! TO.P,J1,2*
G04 #@! TO.N,/SS_Inertia_Switch*
X149984000Y-55094000D03*
G04 #@! TO.P,J1,4*
G04 #@! TO.N,/RTD*
X147444000Y-55094000D03*
D29*
G04 #@! TO.P,J1,5*
G04 #@! TO.N,N/C*
X152654000Y-56134000D03*
G04 #@! TD*
D28*
G04 #@! TO.P,J2,5*
G04 #@! TO.N,/GND_DriveMode*
X121539000Y-91948000D03*
G04 #@! TO.P,J2,3*
G04 #@! TO.N,VCC*
X124079000Y-91948000D03*
G04 #@! TO.P,J2,1*
G04 #@! TO.N,GND*
X126619000Y-91948000D03*
G04 #@! TO.P,J2,7*
G04 #@! TO.N,/MOSI*
X118999000Y-91948000D03*
G04 #@! TO.P,J2,2*
G04 #@! TO.N,+12V*
X125349000Y-89408000D03*
G04 #@! TO.P,J2,4*
G04 #@! TO.N,/Drive_Mode_Out*
X122809000Y-89408000D03*
G04 #@! TO.P,J2,6*
G04 #@! TO.N,VCC*
X120269000Y-89408000D03*
G04 #@! TO.P,J2,8*
G04 #@! TO.N,/MISO*
X117729000Y-89408000D03*
G04 #@! TO.P,J2,9*
G04 #@! TO.N,/SCK*
X116459000Y-91948000D03*
G04 #@! TO.P,J2,10*
G04 #@! TO.N,/RESET*
X115189000Y-89408000D03*
G04 #@! TO.P,J2,11*
G04 #@! TO.N,/CANH*
X113919000Y-91948000D03*
G04 #@! TO.P,J2,12*
G04 #@! TO.N,/CANL*
X112649000Y-89408000D03*
G04 #@! TO.P,J2,13*
G04 #@! TO.N,VCC*
X111379000Y-91948000D03*
G04 #@! TO.P,J2,14*
G04 #@! TO.N,/Throttle1_Right_Sense*
X110109000Y-89408000D03*
G04 #@! TO.P,J2,15*
G04 #@! TO.N,GND*
X108839000Y-91948000D03*
G04 #@! TO.P,J2,16*
G04 #@! TO.N,VCC*
X107569000Y-89408000D03*
G04 #@! TO.P,J2,17*
G04 #@! TO.N,/Throttle2_Left_Sense*
X106299000Y-91948000D03*
G04 #@! TO.P,J2,18*
G04 #@! TO.N,GND*
X105029000Y-89408000D03*
G04 #@! TO.P,J2,19*
G04 #@! TO.N,/LED1*
X103759000Y-91948000D03*
G04 #@! TO.P,J2,20*
G04 #@! TO.N,/LED2*
X102489000Y-89408000D03*
D29*
G04 #@! TO.P,J2,21*
G04 #@! TO.N,N/C*
X128019000Y-90148000D03*
G04 #@! TD*
D30*
G04 #@! TO.P,Q1,1*
G04 #@! TO.N,/ReadyToDrive_LowDrive*
X127972711Y-53807147D03*
G04 #@! TO.P,Q1,2*
G04 #@! TO.N,GND*
X129872711Y-53807147D03*
G04 #@! TO.P,Q1,3*
G04 #@! TO.N,/RTD*
X128922711Y-51707147D03*
G04 #@! TD*
G04 #@! TO.P,Q2,1*
G04 #@! TO.N,/SS_Inertia_Switch*
X112647581Y-52859369D03*
G04 #@! TO.P,Q2,2*
G04 #@! TO.N,GND*
X110747581Y-52859369D03*
G04 #@! TO.P,Q2,3*
G04 #@! TO.N,/SS_Inertia_Out_n*
X111697581Y-54959369D03*
G04 #@! TD*
G04 #@! TO.P,Q3,3*
G04 #@! TO.N,/SS_EStop_Out_n*
X120587581Y-55755369D03*
G04 #@! TO.P,Q3,2*
G04 #@! TO.N,GND*
X119637581Y-53655369D03*
G04 #@! TO.P,Q3,1*
G04 #@! TO.N,/SS_Cockpit_EStop*
X121537581Y-53655369D03*
G04 #@! TD*
G04 #@! TO.P,Q4,3*
G04 #@! TO.N,/SS_BOTS_Out_n*
X103315581Y-58261369D03*
G04 #@! TO.P,Q4,2*
G04 #@! TO.N,GND*
X102365581Y-56161369D03*
G04 #@! TO.P,Q4,1*
G04 #@! TO.N,/SS_BOTS*
X104265581Y-56161369D03*
G04 #@! TD*
D21*
G04 #@! TO.P,R1,1*
G04 #@! TO.N,VCC*
X127386000Y-67564000D03*
G04 #@! TO.P,R1,2*
G04 #@! TO.N,/Throttle1_Right_Sense*
X129286000Y-67564000D03*
G04 #@! TD*
G04 #@! TO.P,R6,2*
G04 #@! TO.N,Net-(R6-Pad2)*
X133350000Y-68834000D03*
G04 #@! TO.P,R6,1*
G04 #@! TO.N,/Throttle2Adjusted*
X131450000Y-68834000D03*
G04 #@! TD*
D26*
G04 #@! TO.P,R7,1*
G04 #@! TO.N,Net-(R6-Pad2)*
X134874000Y-68514000D03*
G04 #@! TO.P,R7,2*
G04 #@! TO.N,GND*
X134874000Y-66614000D03*
G04 #@! TD*
D21*
G04 #@! TO.P,R8,2*
G04 #@! TO.N,GND*
X141539000Y-61722000D03*
G04 #@! TO.P,R8,1*
G04 #@! TO.N,Net-(D3-Pad1)*
X139639000Y-61722000D03*
G04 #@! TD*
G04 #@! TO.P,R10,2*
G04 #@! TO.N,GND*
X141539000Y-58420000D03*
G04 #@! TO.P,R10,1*
G04 #@! TO.N,Net-(D4-Pad1)*
X139639000Y-58420000D03*
G04 #@! TD*
G04 #@! TO.P,R11,2*
G04 #@! TO.N,GND*
X141605000Y-55118000D03*
G04 #@! TO.P,R11,1*
G04 #@! TO.N,Net-(D5-Pad1)*
X139705000Y-55118000D03*
G04 #@! TD*
G04 #@! TO.P,R13,2*
G04 #@! TO.N,/Throttle2_Left_Sense*
X141224000Y-67564000D03*
G04 #@! TO.P,R13,1*
G04 #@! TO.N,VCC*
X139324000Y-67564000D03*
G04 #@! TD*
G04 #@! TO.P,R14,1*
G04 #@! TO.N,/ReadyToDrive_LowDrive*
X127906711Y-57583147D03*
G04 #@! TO.P,R14,2*
G04 #@! TO.N,Net-(D6-Pad2)*
X129806711Y-57583147D03*
G04 #@! TD*
G04 #@! TO.P,R15,1*
G04 #@! TO.N,GND*
X117226000Y-94234000D03*
G04 #@! TO.P,R15,2*
G04 #@! TO.N,/GND_DriveMode*
X119126000Y-94234000D03*
G04 #@! TD*
G04 #@! TO.P,R16,1*
G04 #@! TO.N,/Throttle1Adjusted*
X143134000Y-69088000D03*
G04 #@! TO.P,R16,2*
G04 #@! TO.N,Net-(R16-Pad2)*
X145034000Y-69088000D03*
G04 #@! TD*
D26*
G04 #@! TO.P,R17,2*
G04 #@! TO.N,GND*
X146558000Y-66802000D03*
G04 #@! TO.P,R17,1*
G04 #@! TO.N,Net-(R16-Pad2)*
X146558000Y-68702000D03*
G04 #@! TD*
D21*
G04 #@! TO.P,R18,1*
G04 #@! TO.N,/ReadyToDrive_LowDrive*
X127906711Y-55551147D03*
G04 #@! TO.P,R18,2*
G04 #@! TO.N,GND*
X129806711Y-55551147D03*
G04 #@! TD*
G04 #@! TO.P,R19,2*
G04 #@! TO.N,GND*
X125603000Y-94234000D03*
G04 #@! TO.P,R19,1*
G04 #@! TO.N,/Drive_Mode_Out*
X123703000Y-94234000D03*
G04 #@! TD*
G04 #@! TO.P,R20,2*
G04 #@! TO.N,Net-(D8-Pad2)*
X110493581Y-49117369D03*
G04 #@! TO.P,R20,1*
G04 #@! TO.N,/SS_Inertia_Switch*
X112393581Y-49117369D03*
G04 #@! TD*
G04 #@! TO.P,R21,1*
G04 #@! TO.N,/SS_Inertia_Switch*
X112393581Y-51149369D03*
G04 #@! TO.P,R21,2*
G04 #@! TO.N,GND*
X110493581Y-51149369D03*
G04 #@! TD*
D26*
G04 #@! TO.P,R22,1*
G04 #@! TO.N,VCC*
X111697581Y-58195369D03*
G04 #@! TO.P,R22,2*
G04 #@! TO.N,/SS_Inertia_Out_n*
X111697581Y-56295369D03*
G04 #@! TD*
D21*
G04 #@! TO.P,R23,1*
G04 #@! TO.N,/SS_Cockpit_EStop*
X121537581Y-49879369D03*
G04 #@! TO.P,R23,2*
G04 #@! TO.N,Net-(D9-Pad2)*
X119637581Y-49879369D03*
G04 #@! TD*
G04 #@! TO.P,R24,2*
G04 #@! TO.N,GND*
X119637581Y-51911369D03*
G04 #@! TO.P,R24,1*
G04 #@! TO.N,/SS_Cockpit_EStop*
X121537581Y-51911369D03*
G04 #@! TD*
D26*
G04 #@! TO.P,R25,1*
G04 #@! TO.N,VCC*
X120587581Y-58957369D03*
G04 #@! TO.P,R25,2*
G04 #@! TO.N,/SS_EStop_Out_n*
X120587581Y-57057369D03*
G04 #@! TD*
D21*
G04 #@! TO.P,R26 (DNP),2*
G04 #@! TO.N,/CANL*
X111120076Y-85658510D03*
G04 #@! TO.P,R26 (DNP),1*
G04 #@! TO.N,/CANH*
X113020074Y-85658510D03*
G04 #@! TD*
G04 #@! TO.P,R27,2*
G04 #@! TO.N,Net-(D10-Pad2)*
X102299581Y-52419369D03*
G04 #@! TO.P,R27,1*
G04 #@! TO.N,/SS_BOTS*
X104199581Y-52419369D03*
G04 #@! TD*
G04 #@! TO.P,R28,2*
G04 #@! TO.N,GND*
X102299581Y-54451369D03*
G04 #@! TO.P,R28,1*
G04 #@! TO.N,/SS_BOTS*
X104199581Y-54451369D03*
G04 #@! TD*
D26*
G04 #@! TO.P,R29,1*
G04 #@! TO.N,VCC*
X103315581Y-61497369D03*
G04 #@! TO.P,R29,2*
G04 #@! TO.N,/SS_BOTS_Out_n*
X103315581Y-59597369D03*
G04 #@! TD*
D31*
G04 #@! TO.P,R30,1*
G04 #@! TO.N,VCC*
X125646475Y-60486569D03*
D13*
G04 #@! TD*
G04 #@! TO.N,VCC*
G04 #@! TO.C,R30*
G36*
X125434343Y-59779462D02*
X126353582Y-60698701D01*
X125858607Y-61193676D01*
X124939368Y-60274437D01*
X125434343Y-59779462D01*
X125434343Y-59779462D01*
G37*
D31*
G04 #@! TO.P,R30,2*
G04 #@! TO.N,Net-(C8-Pad1)*
X124302973Y-61830071D03*
D13*
G04 #@! TD*
G04 #@! TO.N,Net-(C8-Pad1)*
G04 #@! TO.C,R30*
G36*
X124090841Y-61122964D02*
X125010080Y-62042203D01*
X124515105Y-62537178D01*
X123595866Y-61617939D01*
X124090841Y-61122964D01*
X124090841Y-61122964D01*
G37*
D31*
G04 #@! TO.P,R31,2*
G04 #@! TO.N,/RESET*
X110653751Y-65949751D03*
D13*
G04 #@! TD*
G04 #@! TO.N,/RESET*
G04 #@! TO.C,R31*
G36*
X109946644Y-66161883D02*
X110865883Y-65242644D01*
X111360858Y-65737619D01*
X110441619Y-66656858D01*
X109946644Y-66161883D01*
X109946644Y-66161883D01*
G37*
D31*
G04 #@! TO.P,R31,1*
G04 #@! TO.N,VCC*
X109310249Y-64606249D03*
D13*
G04 #@! TD*
G04 #@! TO.N,VCC*
G04 #@! TO.C,R31*
G36*
X108603142Y-64818381D02*
X109522381Y-63899142D01*
X110017356Y-64394117D01*
X109098117Y-65313356D01*
X108603142Y-64818381D01*
X108603142Y-64818381D01*
G37*
D10*
G04 #@! TO.P,U3,1*
G04 #@! TO.N,/Throttle1Adjusted*
X142664000Y-65344000D03*
G04 #@! TO.P,U3,2*
G04 #@! TO.N,GND*
X142664000Y-66294000D03*
G04 #@! TO.P,U3,3*
G04 #@! TO.N,/Throttle2_Left_Sense*
X142664000Y-67244000D03*
G04 #@! TO.P,U3,4*
G04 #@! TO.N,Net-(R16-Pad2)*
X144864000Y-67244000D03*
G04 #@! TO.P,U3,5*
G04 #@! TO.N,VCC*
X144864000Y-65344000D03*
G04 #@! TD*
D32*
G04 #@! TO.P,Y1,1*
G04 #@! TO.N,Net-(C9-Pad1)*
X121412000Y-74676000D03*
D13*
G04 #@! TD*
G04 #@! TO.N,Net-(C9-Pad1)*
G04 #@! TO.C,Y1*
G36*
X121482711Y-73756761D02*
X122331239Y-74605289D01*
X121341289Y-75595239D01*
X120492761Y-74746711D01*
X121482711Y-73756761D01*
X121482711Y-73756761D01*
G37*
D32*
G04 #@! TO.P,Y1,2*
G04 #@! TO.N,GND*
X119856365Y-76231635D03*
D13*
G04 #@! TD*
G04 #@! TO.N,GND*
G04 #@! TO.C,Y1*
G36*
X119927076Y-75312396D02*
X120775604Y-76160924D01*
X119785654Y-77150874D01*
X118937126Y-76302346D01*
X119927076Y-75312396D01*
X119927076Y-75312396D01*
G37*
D32*
G04 #@! TO.P,Y1,3*
G04 #@! TO.N,Net-(C10-Pad1)*
X120987736Y-77363006D03*
D13*
G04 #@! TD*
G04 #@! TO.N,Net-(C10-Pad1)*
G04 #@! TO.C,Y1*
G36*
X121058447Y-76443767D02*
X121906975Y-77292295D01*
X120917025Y-78282245D01*
X120068497Y-77433717D01*
X121058447Y-76443767D01*
X121058447Y-76443767D01*
G37*
D32*
G04 #@! TO.P,Y1,4*
G04 #@! TO.N,GND*
X122543371Y-75807371D03*
D13*
G04 #@! TD*
G04 #@! TO.N,GND*
G04 #@! TO.C,Y1*
G36*
X122614082Y-74888132D02*
X123462610Y-75736660D01*
X122472660Y-76726610D01*
X121624132Y-75878082D01*
X122614082Y-74888132D01*
X122614082Y-74888132D01*
G37*
D21*
G04 #@! TO.P,R_1,2*
G04 #@! TO.N,Net-(IC1-Pad8)*
X99954000Y-92075000D03*
G04 #@! TO.P,R_1,1*
G04 #@! TO.N,/LED1*
X101854000Y-92075000D03*
G04 #@! TD*
G04 #@! TO.P,R_2,1*
G04 #@! TO.N,/LED2*
X100076000Y-89408000D03*
G04 #@! TO.P,R_2,2*
G04 #@! TO.N,Net-(IC1-Pad9)*
X98176000Y-89408000D03*
G04 #@! TD*
D33*
G04 #@! TO.N,GND*
X132928879Y-74530933D03*
X148676879Y-74022933D03*
X138008879Y-90786933D03*
X135722879Y-90786933D03*
X135722879Y-92564933D03*
X138008879Y-92564933D03*
X152994879Y-81134933D03*
X153248879Y-85960933D03*
X154264879Y-84944933D03*
X153248879Y-83928933D03*
X154264879Y-82912933D03*
X153248879Y-82150933D03*
X154264879Y-81134933D03*
X133182879Y-80118933D03*
X136652000Y-63754000D03*
X148590000Y-64262000D03*
X147574000Y-66802000D03*
X141732000Y-66294000D03*
X129776467Y-66099717D03*
X135844000Y-66548000D03*
X114102075Y-84642510D03*
X109665581Y-53181369D03*
X118809581Y-53943369D03*
X101283581Y-56229369D03*
X120843806Y-64930028D03*
X142621000Y-55118000D03*
X142621000Y-58420000D03*
X142621000Y-61722000D03*
X112649000Y-76708000D03*
X126492000Y-94234000D03*
X125222000Y-75565000D03*
X123825000Y-77089000D03*
X118872000Y-77216000D03*
X122174000Y-80772000D03*
X112903000Y-73025000D03*
X117221000Y-93091000D03*
X103886000Y-77724000D03*
X109093000Y-73406000D03*
X131064000Y-53848000D03*
X132715000Y-54864000D03*
X116586000Y-53467000D03*
X107696000Y-52451000D03*
X99060000Y-55626000D03*
G04 #@! TO.N,VCC*
X124968000Y-61087000D03*
X119761000Y-60071000D03*
X120396000Y-90678000D03*
X117602000Y-90678000D03*
X127508000Y-79883000D03*
X127224773Y-81690227D03*
X121666000Y-81788000D03*
X116713000Y-81788000D03*
G04 #@! TO.N,Net-(C5-Pad2)*
X148257779Y-90233033D03*
X148206979Y-87642233D03*
G04 #@! TO.N,Net-(C11-Pad1)*
X149184879Y-87484933D03*
X151216879Y-90532933D03*
G04 #@! TO.N,Net-(R3-Pad2)*
X144104879Y-93834933D03*
X143088879Y-95612933D03*
G04 #@! TO.N,/MISO*
X116713000Y-78867000D03*
X110761447Y-72161400D03*
G04 #@! TO.N,/MOSI*
X117251817Y-78328183D03*
X111506000Y-72390000D03*
G04 #@! TO.N,/SCK*
X120523000Y-73533000D03*
X119028742Y-74773258D03*
G04 #@! TO.N,/Drive_Mode_Out*
X123317000Y-88392000D03*
X125755400Y-81889600D03*
G04 #@! TO.N,/Throttle1Adjusted*
X138938000Y-69723000D03*
X137414000Y-69723000D03*
X128016000Y-69723000D03*
X126481601Y-69712601D03*
G04 #@! TO.N,/Throttle2Adjusted*
X128016000Y-66040000D03*
X126619000Y-66040000D03*
G04 #@! TO.N,/ReadyToDrive_LowDrive*
X118491000Y-59309000D03*
X117475000Y-60833000D03*
G04 #@! TO.N,/SS_Inertia_Out_n*
X111633000Y-61849000D03*
X112776000Y-62611000D03*
G04 #@! TO.N,/SS_EStop_Out_n*
X117602000Y-58928000D03*
X116459000Y-60452000D03*
G04 #@! TO.N,/SS_BOTS_Out_n*
X110741893Y-61863432D03*
X112522000Y-63754000D03*
G04 #@! TO.N,/RESET*
X110363000Y-87757000D03*
X120142000Y-88011000D03*
X116078000Y-88011000D03*
X106807000Y-83185000D03*
X106807000Y-81153000D03*
X108585000Y-68072000D03*
X107315000Y-68326000D03*
G04 #@! TO.N,/Throttle1_Right_Sense*
X129921000Y-68961000D03*
X128397000Y-82169000D03*
X128397000Y-84963000D03*
X127508000Y-93853000D03*
X115951000Y-93853000D03*
X112649000Y-92202000D03*
X112649000Y-93360001D03*
X127762000Y-71374000D03*
G04 #@! TO.N,/Throttle2_Left_Sense*
X141605000Y-69850000D03*
X141986000Y-68554600D03*
X129413000Y-81534000D03*
X129413000Y-84836000D03*
X128016000Y-95123000D03*
X114681000Y-94361000D03*
X138811000Y-72263000D03*
X136779000Y-72136000D03*
G04 #@! TD*
D34*
G04 #@! TO.N,GND*
X135722879Y-74530933D02*
X132928879Y-74530933D01*
X146982879Y-74022933D02*
X148676879Y-74022933D01*
X140614879Y-93834933D02*
X140614879Y-92606933D01*
X140614879Y-92606933D02*
X140040879Y-92032933D01*
X135722879Y-74530933D02*
X135913379Y-74530933D01*
X140040879Y-92032933D02*
X138540879Y-92032933D01*
X135722879Y-92564933D02*
X135722879Y-90786933D01*
X138540879Y-92032933D02*
X138008879Y-92564933D01*
X152994879Y-81134933D02*
X154264879Y-81134933D01*
X152740879Y-80880933D02*
X152994879Y-81134933D01*
X151200879Y-80880933D02*
X152740879Y-80880933D01*
X153502879Y-86214933D02*
X153502879Y-87230933D01*
X153248879Y-85960933D02*
X153502879Y-86214933D01*
X153248879Y-83928933D02*
X154264879Y-84944933D01*
X154010879Y-82912933D02*
X154264879Y-82912933D01*
X153248879Y-82150933D02*
X154010879Y-82912933D01*
X133182879Y-82066933D02*
X133182879Y-80118933D01*
D35*
X136620000Y-65024000D02*
X136620000Y-63786000D01*
D34*
X136620000Y-63786000D02*
X136652000Y-63754000D01*
D35*
X148574000Y-65278000D02*
X148574000Y-64278000D01*
D34*
X148574000Y-64278000D02*
X148590000Y-64262000D01*
D35*
X146558000Y-66802000D02*
X147574000Y-66802000D01*
X142664000Y-66294000D02*
X141732000Y-66294000D01*
D34*
X129650750Y-65974000D02*
X129776467Y-66099717D01*
D35*
X130810000Y-65974000D02*
X129776467Y-66099717D01*
D34*
X135778000Y-66614000D02*
X135844000Y-66548000D01*
D35*
X134874000Y-66614000D02*
X135778000Y-66614000D01*
X113975075Y-83532510D02*
X113975075Y-84515510D01*
X113975075Y-84515510D02*
X114102075Y-84642510D01*
D34*
X129872711Y-55485147D02*
X129806711Y-55551147D01*
X131294711Y-55551147D02*
X131462711Y-55383147D01*
D35*
X121854262Y-64568696D02*
X121854262Y-64278783D01*
X120843806Y-65109633D02*
X120843806Y-64930028D01*
X121078566Y-65344393D02*
X120843806Y-65109633D01*
X121078566Y-65344393D02*
X121854262Y-64568696D01*
X120109829Y-66313129D02*
X121078566Y-65344393D01*
D34*
X141605000Y-55118000D02*
X142621000Y-55118000D01*
X141539000Y-58420000D02*
X142621000Y-58420000D01*
X141539000Y-61722000D02*
X142621000Y-61722000D01*
D35*
X112705075Y-78132509D02*
X112705075Y-76764075D01*
X112705075Y-76764075D02*
X112649000Y-76708000D01*
X125603000Y-94234000D02*
X126492000Y-94234000D01*
X124223214Y-74820214D02*
X124477214Y-74820214D01*
X124477214Y-74820214D02*
X125222000Y-75565000D01*
X122543371Y-75807371D02*
X123825000Y-77089000D01*
X119856365Y-76231635D02*
X118872000Y-77216000D01*
X121103107Y-80082107D02*
X121484107Y-80082107D01*
X121484107Y-80082107D02*
X122174000Y-80772000D01*
X114099422Y-72323537D02*
X113397959Y-73025000D01*
X113397959Y-73025000D02*
X112903000Y-73025000D01*
X117226000Y-94234000D02*
X117226000Y-93096000D01*
X117226000Y-93096000D02*
X117221000Y-93091000D01*
X105680000Y-77724000D02*
X103886000Y-77724000D01*
X110492000Y-74184000D02*
X110617000Y-74184000D01*
X109093000Y-73421400D02*
X109093000Y-73406000D01*
X110490000Y-74041000D02*
X109712600Y-74041000D01*
X109712600Y-74041000D02*
X109093000Y-73421400D01*
X131023147Y-53807147D02*
X131064000Y-53848000D01*
X129872711Y-53807147D02*
X131023147Y-53807147D01*
X130175000Y-54737000D02*
X131064000Y-53848000D01*
X131462711Y-55383147D02*
X132195853Y-55383147D01*
X132195853Y-55383147D02*
X132715000Y-54864000D01*
X129806711Y-55551147D02*
X129806711Y-55105289D01*
X129806711Y-55105289D02*
X130175000Y-54737000D01*
X117793581Y-53011369D02*
X117041631Y-53011369D01*
X117041631Y-53011369D02*
X116586000Y-53467000D01*
X119097581Y-53655369D02*
X118809581Y-53943369D01*
X119637581Y-53655369D02*
X119097581Y-53655369D01*
X118809581Y-53512317D02*
X118809581Y-53943369D01*
X118809581Y-52236969D02*
X118809581Y-53512317D01*
X119135181Y-51911369D02*
X118809581Y-52236969D01*
X119637581Y-51911369D02*
X119135181Y-51911369D01*
X108903581Y-51995369D02*
X108151631Y-51995369D01*
X108151631Y-51995369D02*
X107696000Y-52451000D01*
X109987581Y-52859369D02*
X109665581Y-53181369D01*
X110747581Y-52859369D02*
X109987581Y-52859369D01*
X109665581Y-52750317D02*
X109665581Y-53181369D01*
X109665581Y-51474969D02*
X109665581Y-52750317D01*
X109991181Y-51149369D02*
X109665581Y-51474969D01*
X110493581Y-51149369D02*
X109991181Y-51149369D01*
X101351581Y-56161369D02*
X101283581Y-56229369D01*
X102365581Y-56161369D02*
X101351581Y-56161369D01*
X101283581Y-55798317D02*
X101283581Y-56229369D01*
X101283581Y-55767369D02*
X101283581Y-55798317D01*
X102299581Y-54751369D02*
X101283581Y-55767369D01*
X102299581Y-54451369D02*
X102299581Y-54751369D01*
X100521581Y-55043369D02*
X99642631Y-55043369D01*
X99642631Y-55043369D02*
X99060000Y-55626000D01*
D34*
G04 #@! TO.N,VCC*
X140868879Y-74022933D02*
X139430261Y-74022933D01*
X139430261Y-74022933D02*
X138186678Y-72779350D01*
X138186678Y-72779350D02*
X138186678Y-71681014D01*
X140115879Y-77197933D02*
X140115879Y-74171933D01*
X140115879Y-74171933D02*
X140264879Y-74022933D01*
X140264879Y-74022933D02*
X140868879Y-74022933D01*
D35*
X133010000Y-65024000D02*
X134620000Y-65024000D01*
D34*
X146508000Y-65344000D02*
X146574000Y-65278000D01*
D35*
X144864000Y-65344000D02*
X146508000Y-65344000D01*
X111308075Y-78005510D02*
X111435075Y-78132510D01*
X138303000Y-68885000D02*
X138303000Y-69179201D01*
X139324000Y-67564000D02*
X139324000Y-67864000D01*
X139324000Y-67864000D02*
X138303000Y-68885000D01*
X138303000Y-71564692D02*
X138186678Y-71681014D01*
X138303000Y-71374000D02*
X138303000Y-71564692D01*
X135272400Y-65801400D02*
X134620000Y-65149000D01*
X134620000Y-65149000D02*
X134620000Y-65024000D01*
X135886834Y-65801400D02*
X135272400Y-65801400D01*
X138303000Y-69179201D02*
X138303000Y-68217566D01*
X136779000Y-66693566D02*
X135886834Y-65801400D01*
X136779000Y-66693566D02*
X138157434Y-66693566D01*
X138303000Y-68217566D02*
X136779000Y-66693566D01*
X144181600Y-65344000D02*
X144864000Y-65344000D01*
X143627999Y-64790399D02*
X144181600Y-65344000D01*
X140060601Y-64790399D02*
X143627999Y-64790399D01*
X138157434Y-66693566D02*
X140060601Y-64790399D01*
X134493000Y-71374000D02*
X134188201Y-71678799D01*
X134188201Y-71678799D02*
X127381000Y-78486000D01*
X125646475Y-61849000D02*
X125646475Y-61765475D01*
X125646475Y-61849000D02*
X125646475Y-60486569D01*
X125646475Y-61765475D02*
X124968000Y-61087000D01*
X119761000Y-59783950D02*
X120587581Y-58957369D01*
X119761000Y-60071000D02*
X119761000Y-59783950D01*
X115599369Y-58195369D02*
X111697581Y-58195369D01*
X116078000Y-58674000D02*
X115599369Y-58195369D01*
X116078000Y-58674000D02*
X116078000Y-59944000D01*
X116078000Y-59944000D02*
X114046000Y-61976000D01*
X114046000Y-61976000D02*
X112649000Y-61976000D01*
X111308075Y-78005509D02*
X111435075Y-78132509D01*
X108332400Y-77724000D02*
X107680000Y-77724000D01*
X110724166Y-76946600D02*
X109109800Y-76946600D01*
X109109800Y-76946600D02*
X108332400Y-77724000D01*
X111435075Y-77657509D02*
X110724166Y-76946600D01*
X111435075Y-78132509D02*
X111435075Y-77657509D01*
X107315000Y-61497369D02*
X104999631Y-61497369D01*
X107315000Y-61497369D02*
X103315581Y-61497369D01*
X124079000Y-84836000D02*
X124079000Y-91948000D01*
X120918999Y-90057999D02*
X120269000Y-89408000D01*
X122417601Y-94360083D02*
X122417601Y-91556601D01*
X123170119Y-95112601D02*
X122417601Y-94360083D01*
X124235881Y-95112601D02*
X123170119Y-95112601D01*
X124281601Y-95066881D02*
X124235881Y-95112601D01*
X124281601Y-93069839D02*
X124281601Y-95066881D01*
X124079000Y-92867238D02*
X124281601Y-93069839D01*
X124079000Y-91948000D02*
X124079000Y-92867238D01*
X121539000Y-90678000D02*
X120396000Y-90678000D01*
X121539000Y-90678000D02*
X120918999Y-90057999D01*
X122417601Y-91556601D02*
X121539000Y-90678000D01*
X112028999Y-92597999D02*
X111379000Y-91948000D01*
X112257601Y-92826601D02*
X112028999Y-92597999D01*
X114340729Y-92826601D02*
X112257601Y-92826601D01*
X114797601Y-92369729D02*
X114340729Y-92826601D01*
X114797601Y-91704399D02*
X114797601Y-92369729D01*
X115824000Y-90678000D02*
X114797601Y-91704399D01*
X117602000Y-90678000D02*
X115824000Y-90678000D01*
X127381000Y-78486000D02*
X127381000Y-79756000D01*
X127381000Y-79756000D02*
X127508000Y-79883000D01*
X107569000Y-89408000D02*
X108839000Y-90678000D01*
X108839000Y-90678000D02*
X109347000Y-90678000D01*
X111252000Y-91821000D02*
X111379000Y-91948000D01*
X124841000Y-84074000D02*
X124841000Y-82804000D01*
X124841000Y-84074000D02*
X124079000Y-84836000D01*
X127224773Y-81690227D02*
X124841000Y-84074000D01*
X124841000Y-82804000D02*
X123825000Y-81788000D01*
X123825000Y-81788000D02*
X121666000Y-81788000D01*
X116713000Y-83185000D02*
X117094000Y-83566000D01*
X116713000Y-81788000D02*
X116713000Y-83185000D01*
X108791000Y-76041000D02*
X110490000Y-76041000D01*
X107680000Y-74930000D02*
X108791000Y-76041000D01*
X107680000Y-74930000D02*
X107680000Y-77724000D01*
X112744320Y-72394246D02*
X112897341Y-72394246D01*
X112064799Y-73073767D02*
X112744320Y-72394246D01*
X112064799Y-74591201D02*
X112064799Y-73073767D01*
X110615000Y-76041000D02*
X112064799Y-74591201D01*
X112897341Y-72394246D02*
X113533736Y-71757851D01*
X110490000Y-76041000D02*
X110615000Y-76041000D01*
X138303000Y-71374000D02*
X138303000Y-69179201D01*
X138186678Y-72654678D02*
X138186678Y-72779350D01*
X134493000Y-71374000D02*
X136906000Y-71374000D01*
X136906000Y-71374000D02*
X138186678Y-72654678D01*
X127127000Y-67823000D02*
X127386000Y-67564000D01*
X127127000Y-69850000D02*
X127127000Y-67823000D01*
X134493000Y-71374000D02*
X128651000Y-71374000D01*
X128651000Y-71374000D02*
X127127000Y-69850000D01*
X127386000Y-64521000D02*
X127386000Y-67564000D01*
X125646475Y-61849000D02*
X125646475Y-62781475D01*
X125646475Y-62781475D02*
X127386000Y-64521000D01*
X117475000Y-60071000D02*
X119761000Y-60071000D01*
X116078000Y-58674000D02*
X117475000Y-60071000D01*
X109503369Y-61497369D02*
X110744000Y-62738000D01*
X110744000Y-62738000D02*
X111887000Y-62738000D01*
X107315000Y-61497369D02*
X109503369Y-61497369D01*
X110871000Y-63754000D02*
X111887000Y-62738000D01*
X111887000Y-62738000D02*
X112649000Y-61976000D01*
X110162498Y-63754000D02*
X109310249Y-64606249D01*
X110871000Y-63754000D02*
X110162498Y-63754000D01*
X107950000Y-71642000D02*
X107680000Y-71912000D01*
X107680000Y-71912000D02*
X107680000Y-74930000D01*
X107950000Y-67818000D02*
X107950000Y-71642000D01*
X109310249Y-64606249D02*
X109310249Y-66457751D01*
X109310249Y-66457751D02*
X107950000Y-67818000D01*
X109967001Y-91298001D02*
X109347000Y-90678000D01*
X110729001Y-91298001D02*
X109967001Y-91298001D01*
X111379000Y-91948000D02*
X110729001Y-91298001D01*
D34*
G04 #@! TO.N,Net-(D2-Pad2)*
X142768879Y-74022933D02*
X144782879Y-74022933D01*
D36*
G04 #@! TO.N,/12V_Fused*
X140630979Y-89115433D02*
X140580979Y-89165433D01*
D34*
G04 #@! TO.N,Net-(C5-Pad1)*
X144330979Y-91315433D02*
X144330979Y-92029033D01*
X144850879Y-92548933D02*
X146390879Y-92548933D01*
X144330979Y-92029033D02*
X144850879Y-92548933D01*
G04 #@! TO.N,Net-(C5-Pad2)*
X146200379Y-90515433D02*
X147975379Y-90515433D01*
X147975379Y-90515433D02*
X148257779Y-90233033D01*
X148206979Y-87642233D02*
X146526179Y-85961433D01*
X146526179Y-85961433D02*
X145120879Y-86722933D01*
X146897379Y-85961433D02*
X145120879Y-86722933D01*
D37*
X145095479Y-86748333D02*
X145120879Y-86722933D01*
D38*
X145095479Y-86748333D02*
X145120879Y-86722933D01*
D36*
X145095479Y-86748333D02*
X145120879Y-86722933D01*
D39*
X145095479Y-86748333D02*
X145120879Y-86722933D01*
D40*
X145095479Y-86748333D02*
X145120879Y-86722933D01*
X145095479Y-86748333D02*
X145120879Y-86722933D01*
D38*
X145095479Y-86748333D02*
X145120879Y-86722933D01*
D36*
X145095479Y-86748333D02*
X145120879Y-86722933D01*
D40*
X145095479Y-86748333D02*
X145120879Y-86722933D01*
D34*
G04 #@! TO.N,Net-(C11-Pad1)*
X149692879Y-90852933D02*
X150896879Y-90852933D01*
X149450879Y-87218933D02*
X149450879Y-85523933D01*
X149184879Y-87484933D02*
X149450879Y-87218933D01*
X150896879Y-90852933D02*
X151216879Y-90532933D01*
D37*
X143588879Y-81078933D02*
X143406379Y-81261433D01*
X146974379Y-81261433D02*
X143406379Y-81261433D01*
D41*
X148950879Y-86165933D02*
X148950879Y-85523933D01*
D34*
G04 #@! TO.N,Net-(D1-Pad2)*
X132994879Y-86722933D02*
X132994879Y-84454933D01*
X132994879Y-84454933D02*
X133182879Y-84266933D01*
G04 #@! TO.N,+12V*
X137100379Y-82865433D02*
X137100379Y-79781933D01*
X137100379Y-79781933D02*
X135913379Y-78594933D01*
X135913379Y-78594933D02*
X135722879Y-78594933D01*
D42*
X135722879Y-78594933D02*
X133436879Y-78594933D01*
X133436879Y-78594933D02*
X132674879Y-79356933D01*
D34*
X125998999Y-86032813D02*
X132674879Y-79356933D01*
X125998999Y-88758001D02*
X125998999Y-86032813D01*
X125349000Y-89408000D02*
X125998999Y-88758001D01*
G04 #@! TO.N,Net-(R3-Pad2)*
X132994879Y-88754933D02*
X132994879Y-93392933D01*
X143380979Y-93111033D02*
X143380979Y-91315433D01*
X144104879Y-93834933D02*
X143380979Y-93111033D01*
X135214879Y-95612933D02*
X143088879Y-95612933D01*
X132994879Y-93392933D02*
X135214879Y-95612933D01*
G04 #@! TO.N,Net-(R4-Pad1)*
X142430979Y-91315433D02*
X142430979Y-93685033D01*
X149692879Y-93834933D02*
X149692879Y-92752933D01*
X148930879Y-94596933D02*
X149692879Y-93834933D01*
X143342879Y-94596933D02*
X148930879Y-94596933D01*
X142430979Y-93685033D02*
X143342879Y-94596933D01*
X142419879Y-91326533D02*
X142430979Y-91315433D01*
D35*
G04 #@! TO.N,Net-(C8-Pad1)*
X123807291Y-62325754D02*
X124256303Y-62774767D01*
X123807291Y-62325754D02*
X124302972Y-61830072D01*
X123268475Y-62864569D02*
X123807291Y-62325754D01*
X124256303Y-62774767D02*
X124256303Y-63313582D01*
X124240747Y-63313582D02*
X120675515Y-66878814D01*
X124256303Y-63313582D02*
X124240747Y-63313582D01*
G04 #@! TO.N,Net-(C9-Pad1)*
X119614854Y-73525617D02*
X118978459Y-72889222D01*
X120270263Y-74181026D02*
X119614854Y-73525617D01*
X120917026Y-74181026D02*
X120270263Y-74181026D01*
X121412000Y-74676000D02*
X120917026Y-74181026D01*
X121539000Y-74676000D02*
X121412000Y-74676000D01*
X122809000Y-73406000D02*
X121539000Y-74676000D01*
G04 #@! TO.N,Net-(C10-Pad1)*
X121055014Y-76045188D02*
X119101128Y-74091302D01*
X121055014Y-76276662D02*
X121055014Y-76045188D01*
X119101128Y-74091302D02*
X119049168Y-74091302D01*
X120987736Y-76343940D02*
X121055014Y-76276662D01*
X119049168Y-74091302D02*
X118412773Y-73454907D01*
X120987736Y-77363006D02*
X120987736Y-76343940D01*
X119688893Y-78661849D02*
X119688893Y-78667893D01*
X120987736Y-77363006D02*
X119688893Y-78661849D01*
G04 #@! TO.N,/ProgrammingLED1*
X135722000Y-60969600D02*
X134045598Y-59293198D01*
X135722000Y-61722000D02*
X135722000Y-60969600D01*
X124867019Y-59293198D02*
X118978459Y-65181758D01*
X134045598Y-59293198D02*
X124867019Y-59293198D01*
D34*
G04 #@! TO.N,Net-(D3-Pad1)*
X139639000Y-61722000D02*
X137922000Y-61722000D01*
G04 #@! TO.N,Net-(D4-Pad1)*
X138006000Y-58420000D02*
X139639000Y-58420000D01*
D35*
G04 #@! TO.N,/ProgrammingLED2*
X124040458Y-58988388D02*
X118412773Y-64616073D01*
X134485212Y-58988388D02*
X124040458Y-58988388D01*
X135806000Y-58420000D02*
X135053600Y-58420000D01*
X135053600Y-58420000D02*
X134485212Y-58988388D01*
G04 #@! TO.N,/ProgrammingLED3*
X133035822Y-58683578D02*
X123213897Y-58683578D01*
X135849000Y-55118000D02*
X135849000Y-55870400D01*
X123213897Y-58683578D02*
X117847088Y-64050387D01*
X135849000Y-55870400D02*
X133035822Y-58683578D01*
D34*
G04 #@! TO.N,Net-(D5-Pad1)*
X138049000Y-55118000D02*
X139705000Y-55118000D01*
G04 #@! TO.N,Net-(D6-Pad2)*
X129806711Y-57583147D02*
X131462711Y-57583147D01*
D35*
G04 #@! TO.N,Net-(D8-Pad2)*
X109581581Y-49117369D02*
X108903581Y-49795369D01*
X110493581Y-49117369D02*
X109581581Y-49117369D01*
G04 #@! TO.N,Net-(D9-Pad2)*
X119033581Y-49879369D02*
X118301581Y-50611369D01*
X119637581Y-49879369D02*
X119033581Y-49879369D01*
G04 #@! TO.N,Net-(D10-Pad2)*
X102299581Y-52419369D02*
X100945581Y-52419369D01*
G04 #@! TO.N,/MISO*
X110777475Y-71120000D02*
X111836680Y-70060795D01*
X118364000Y-80518000D02*
X116713000Y-78867000D01*
X117094000Y-84940330D02*
X118364000Y-83670330D01*
X118364000Y-83670330D02*
X118364000Y-80518000D01*
X117094000Y-86106000D02*
X117094000Y-84940330D01*
X117094000Y-88773000D02*
X117729000Y-89408000D01*
X117094000Y-86106000D02*
X117094000Y-88773000D01*
X110761447Y-71136028D02*
X110777475Y-71120000D01*
X110761447Y-72161400D02*
X110761447Y-72161400D01*
X110761447Y-72161400D02*
X110761447Y-71136028D01*
G04 #@! TO.N,/MOSI*
X119634000Y-80710366D02*
X117251817Y-78328183D01*
X111527846Y-71501000D02*
X112402366Y-70626480D01*
X111506000Y-71522846D02*
X111527846Y-71501000D01*
X111506000Y-72417434D02*
X111506000Y-72390000D01*
X119634000Y-80710366D02*
X119634000Y-83566000D01*
X118999000Y-91028762D02*
X118999000Y-91948000D01*
X118705399Y-90735161D02*
X118999000Y-91028762D01*
X118705399Y-84494601D02*
X118705399Y-90735161D01*
X119634000Y-83566000D02*
X118705399Y-84494601D01*
X111506000Y-72390000D02*
X111506000Y-71522846D01*
G04 #@! TO.N,/TXCAN*
X113975075Y-73579254D02*
X114665107Y-72889222D01*
X113975075Y-78132509D02*
X113975075Y-73579254D01*
G04 #@! TO.N,/RXCAN*
X110165075Y-78607509D02*
X110165075Y-78132509D01*
X114594398Y-74091302D02*
X115230793Y-73454907D01*
X114594398Y-79091108D02*
X114594398Y-74091302D01*
X110165075Y-78132509D02*
X110165075Y-79177075D01*
X110165075Y-79177075D02*
X110617000Y-79629000D01*
X114056506Y-79629000D02*
X114594398Y-79091108D01*
X110617000Y-79629000D02*
X114056506Y-79629000D01*
G04 #@! TO.N,Net-(IC1-Pad8)*
X98679000Y-92075000D02*
X99954000Y-92075000D01*
X97597399Y-90993399D02*
X98679000Y-92075000D01*
X114899208Y-74917863D02*
X114899207Y-79217365D01*
X114899207Y-79217365D02*
X111892474Y-82224098D01*
X111892474Y-82224098D02*
X103948420Y-82224098D01*
X115796478Y-74020593D02*
X114899208Y-74917863D01*
X97597399Y-88575119D02*
X97597399Y-90993399D01*
X103948420Y-82224098D02*
X97597399Y-88575119D01*
G04 #@! TO.N,Net-(IC1-Pad9)*
X117847088Y-76904014D02*
X117847088Y-74020593D01*
X104252692Y-82528908D02*
X112222194Y-82528908D01*
X98176000Y-88605600D02*
X104252692Y-82528908D01*
X112222194Y-82528908D02*
X117847088Y-76904014D01*
X98176000Y-89408000D02*
X98176000Y-88605600D01*
G04 #@! TO.N,/SCK*
X119544144Y-72323537D02*
X120523000Y-73302393D01*
X120523000Y-73302393D02*
X120523000Y-73533000D01*
X120333999Y-85406001D02*
X119634000Y-86106000D01*
X120904000Y-84836000D02*
X120333999Y-85406001D01*
X120904000Y-81549300D02*
X120904000Y-84836000D01*
X118151897Y-78797197D02*
X120904000Y-81549300D01*
X118151897Y-75650103D02*
X118151897Y-78797197D01*
X119028742Y-74773258D02*
X118151897Y-75650103D01*
X117378238Y-91948000D02*
X116459000Y-91948000D01*
X119793967Y-92834967D02*
X118265205Y-92834967D01*
X120015000Y-92613934D02*
X119793967Y-92834967D01*
X118265205Y-92834967D02*
X117378238Y-91948000D01*
X120015000Y-91694000D02*
X120015000Y-92613934D01*
X119390399Y-91069399D02*
X120015000Y-91694000D01*
X119390399Y-87339550D02*
X119390399Y-91069399D01*
X119634000Y-87095949D02*
X119390399Y-87339550D01*
X119634000Y-86106000D02*
X119634000Y-87095949D01*
G04 #@! TO.N,/Drive_Mode_Out*
X123825000Y-94112000D02*
X123703000Y-94234000D01*
X120532895Y-72180916D02*
X120109830Y-71757851D01*
X122791104Y-72180916D02*
X120532895Y-72180916D01*
X125755401Y-75145213D02*
X122791104Y-72180916D01*
X125755400Y-81889600D02*
X125755400Y-81889600D01*
X123200600Y-94234000D02*
X123703000Y-94234000D01*
X122809000Y-93842400D02*
X123200600Y-94234000D01*
X122809000Y-89408000D02*
X122809000Y-93842400D01*
X122809000Y-89408000D02*
X122809000Y-88900000D01*
X122809000Y-88900000D02*
X123317000Y-88392000D01*
X125755400Y-81889600D02*
X125755401Y-75145213D01*
G04 #@! TO.N,/Throttle1Adjusted*
X142530000Y-69088000D02*
X143134000Y-69088000D01*
X141245078Y-69088000D02*
X142530000Y-69088000D01*
X123952000Y-67183000D02*
X122634071Y-67183000D01*
X126481601Y-69712601D02*
X123952000Y-67183000D01*
X122634071Y-67183000D02*
X121806886Y-68010185D01*
X141245078Y-69088000D02*
X140620477Y-69712601D01*
X143134000Y-68788000D02*
X143134000Y-69088000D01*
X143346400Y-65344000D02*
X143636400Y-65634000D01*
X143636400Y-68285600D02*
X143134000Y-68788000D01*
X143636400Y-65634000D02*
X143636400Y-68285600D01*
X142664000Y-65344000D02*
X143346400Y-65344000D01*
X140620477Y-69712601D02*
X138948399Y-69712601D01*
X138948399Y-69712601D02*
X138938000Y-69723000D01*
X137414000Y-69723000D02*
X128016000Y-69723000D01*
G04 #@! TO.N,/Throttle2Adjusted*
X130810000Y-65024000D02*
X130026000Y-65024000D01*
X122540700Y-66145000D02*
X121241200Y-67444500D01*
X130026000Y-65024000D02*
X128905000Y-66145000D01*
X131952400Y-68031600D02*
X131450000Y-68534000D01*
X131492400Y-65024000D02*
X131952400Y-65484000D01*
X131450000Y-68534000D02*
X131450000Y-68834000D01*
X131952400Y-65484000D02*
X131952400Y-68031600D01*
X130810000Y-65024000D02*
X131492400Y-65024000D01*
X128905000Y-66145000D02*
X128121000Y-66145000D01*
X128121000Y-66145000D02*
X128016000Y-66040000D01*
X122645700Y-66040000D02*
X122540700Y-66145000D01*
X126619000Y-66040000D02*
X122645700Y-66040000D01*
D34*
G04 #@! TO.N,/ReadyToDrive_LowDrive*
X127906711Y-57583147D02*
X127906711Y-55551147D01*
X127906711Y-55551147D02*
X127906711Y-53519147D01*
D35*
X127906711Y-57583147D02*
X127404311Y-57583147D01*
X114899208Y-63153117D02*
X115796478Y-64050387D01*
X114899208Y-62519792D02*
X114899208Y-63153117D01*
X116281201Y-61137799D02*
X114899208Y-62519792D01*
X117170201Y-61137799D02*
X116281201Y-61137799D01*
X117475000Y-60833000D02*
X117170201Y-61137799D01*
X119507000Y-58293000D02*
X126694458Y-58293000D01*
X118491000Y-59309000D02*
X119507000Y-58293000D01*
X127404311Y-57583147D02*
X126694458Y-58293000D01*
G04 #@! TO.N,/SS_Inertia_Out_n*
X111697581Y-54959369D02*
X111697581Y-56295369D01*
X111397581Y-56295369D02*
X110818980Y-56873970D01*
X111697581Y-56295369D02*
X111397581Y-56295369D01*
X110818980Y-56873970D02*
X110818980Y-61034980D01*
X110818980Y-61034980D02*
X111633000Y-61849000D01*
X114028712Y-64545363D02*
X114665107Y-65181758D01*
X114028712Y-64294764D02*
X114028712Y-64545363D01*
X112776000Y-63042052D02*
X114028712Y-64294764D01*
X112776000Y-62611000D02*
X112776000Y-63042052D01*
G04 #@! TO.N,/SS_EStop_Out_n*
X120587581Y-55755369D02*
X120587581Y-57057369D01*
X120587581Y-57057369D02*
X119785181Y-57057369D01*
X119785181Y-57057369D02*
X119472631Y-57057369D01*
X119472631Y-57057369D02*
X117602000Y-58928000D01*
X114594398Y-63979678D02*
X115230793Y-64616073D01*
X114594398Y-61885550D02*
X114594398Y-63979678D01*
X116027948Y-60452000D02*
X114594398Y-61885550D01*
X116459000Y-60452000D02*
X116027948Y-60452000D01*
G04 #@! TO.N,/SS_BOTS_Out_n*
X103315581Y-58261369D02*
X103315581Y-59597369D01*
X103315581Y-59597369D02*
X107949348Y-59597369D01*
X107949348Y-59597369D02*
X108475830Y-59597369D01*
X108475830Y-59597369D02*
X110741893Y-61863432D01*
X112613979Y-64262000D02*
X114099422Y-65747443D01*
X112522000Y-64185052D02*
X112522000Y-63754000D01*
X112598948Y-64262000D02*
X112522000Y-64185052D01*
X112613979Y-64262000D02*
X112598948Y-64262000D01*
G04 #@! TO.N,/RESET*
X112148500Y-67444500D02*
X112402366Y-67444500D01*
X110653751Y-65949751D02*
X112148500Y-67444500D01*
X122047000Y-86233000D02*
X122047000Y-86106000D01*
X122174000Y-86106000D02*
X120269000Y-88011000D01*
X120269000Y-88011000D02*
X120142000Y-88011000D01*
X116078000Y-88519000D02*
X115189000Y-89408000D01*
X116078000Y-88011000D02*
X116078000Y-88519000D01*
X110363000Y-87757000D02*
X107950000Y-85344000D01*
X107950000Y-85344000D02*
X107950000Y-84328000D01*
X107950000Y-84328000D02*
X106807000Y-83185000D01*
X106807000Y-81153000D02*
X106807000Y-69796502D01*
X110653751Y-65949751D02*
X108585000Y-68018502D01*
X108585000Y-68018502D02*
X108585000Y-68072000D01*
X107010201Y-69593301D02*
X106807000Y-69796502D01*
X107010201Y-68630799D02*
X107010201Y-69593301D01*
X107315000Y-68326000D02*
X107010201Y-68630799D01*
G04 #@! TO.N,/SS_Cockpit_EStop*
X121537581Y-49879369D02*
X121537581Y-51911369D01*
X121537581Y-51911369D02*
X121537581Y-53655369D01*
X148714000Y-55063670D02*
X148714000Y-57634000D01*
X147498330Y-53848000D02*
X148714000Y-55063670D01*
X145709828Y-53848000D02*
X147498330Y-53848000D01*
X121537581Y-49879369D02*
X122039981Y-49879369D01*
X122039981Y-49879369D02*
X123087612Y-50927000D01*
X123087612Y-50927000D02*
X129463066Y-50927000D01*
X131368066Y-52832000D02*
X144693828Y-52832000D01*
X129463066Y-50927000D02*
X131368066Y-52832000D01*
X144693828Y-52832000D02*
X145709828Y-53848000D01*
G04 #@! TO.N,/SS_BOTS*
X104199581Y-52419369D02*
X104199581Y-54451369D01*
X104199581Y-54451369D02*
X104199581Y-56095369D01*
X109111191Y-48010159D02*
X104701981Y-52419369D01*
X121510919Y-48010159D02*
X109111191Y-48010159D01*
X123741950Y-50241190D02*
X121510919Y-48010159D01*
X129639388Y-50241190D02*
X123741950Y-50241190D01*
X131544388Y-52146190D02*
X129639388Y-50241190D01*
X148336520Y-52146190D02*
X131544388Y-52146190D01*
X151254000Y-55063670D02*
X148336520Y-52146190D01*
X104701981Y-52419369D02*
X104199581Y-52419369D01*
X151254000Y-57634000D02*
X151254000Y-55063670D01*
G04 #@! TO.N,/SS_Inertia_Switch*
X112393581Y-49117369D02*
X112393581Y-51149369D01*
X112393581Y-51149369D02*
X112393581Y-52605369D01*
X149984000Y-55094000D02*
X148357000Y-53467000D01*
X148357000Y-53467000D02*
X145759894Y-53467000D01*
X145759894Y-53467000D02*
X144743894Y-52451000D01*
X144743894Y-52451000D02*
X131418132Y-52451000D01*
X131418132Y-52451000D02*
X129513132Y-50546000D01*
X129513132Y-50546000D02*
X123571000Y-50546000D01*
X112895981Y-49117369D02*
X112393581Y-49117369D01*
X113698381Y-48314969D02*
X112895981Y-49117369D01*
X121384663Y-48314969D02*
X113698381Y-48314969D01*
X123571000Y-50501306D02*
X121384663Y-48314969D01*
X123571000Y-50546000D02*
X123571000Y-50501306D01*
G04 #@! TO.N,/RTD*
X146524762Y-55094000D02*
X144643762Y-53213000D01*
X147444000Y-55094000D02*
X146524762Y-55094000D01*
X144643762Y-53213000D02*
X131318000Y-53213000D01*
X129812147Y-51707147D02*
X128922711Y-51707147D01*
X131318000Y-53213000D02*
X129812147Y-51707147D01*
G04 #@! TO.N,/GND_DriveMode*
X121112000Y-91948000D02*
X121539000Y-91948000D01*
X119126000Y-93934000D02*
X121112000Y-91948000D01*
X119126000Y-94234000D02*
X119126000Y-93934000D01*
G04 #@! TO.N,/CANH*
X113020075Y-83847510D02*
X112705075Y-83532510D01*
X113020075Y-85658510D02*
X113020075Y-83847510D01*
X113919000Y-91028762D02*
X113919000Y-91948000D01*
X113919000Y-87359836D02*
X113919000Y-91028762D01*
X113020074Y-86460910D02*
X113919000Y-87359836D01*
X113020074Y-85658510D02*
X113020074Y-86460910D01*
G04 #@! TO.N,/CANL*
X111120075Y-83847510D02*
X111435075Y-83532510D01*
X111120075Y-85658510D02*
X111120075Y-83847510D01*
X111120076Y-85974076D02*
X111120076Y-85658510D01*
X111120076Y-87879076D02*
X112649000Y-89408000D01*
X111120076Y-85658510D02*
X111120076Y-87879076D01*
G04 #@! TO.N,/Throttle1_Right_Sense*
X130170000Y-67564000D02*
X130810000Y-66924000D01*
X126288801Y-79248000D02*
X126288801Y-72989200D01*
X129540000Y-67564000D02*
X130048000Y-67564000D01*
X130048000Y-67564000D02*
X130170000Y-67564000D01*
X126288801Y-79248000D02*
X126288801Y-79298801D01*
X126288801Y-79248000D02*
X126288801Y-79806801D01*
X126288801Y-79806801D02*
X128397000Y-81915000D01*
X128397000Y-81915000D02*
X128397000Y-82169000D01*
X129247601Y-92113399D02*
X127508000Y-93853000D01*
X128397000Y-84963000D02*
X129247601Y-85813601D01*
X129247601Y-85813601D02*
X129247601Y-92113399D01*
X115951000Y-93853000D02*
X115519948Y-93853000D01*
X110109000Y-90327238D02*
X110109000Y-89408000D01*
X129921000Y-67813000D02*
X129921000Y-68961000D01*
X130170000Y-67564000D02*
X129921000Y-67813000D01*
X112649000Y-91917670D02*
X112649000Y-92202000D01*
X110109000Y-90327238D02*
X111058568Y-90327238D01*
X111058568Y-90327238D02*
X112649000Y-91917670D01*
X115026949Y-93360001D02*
X112649000Y-93360001D01*
X115519948Y-93853000D02*
X115026949Y-93360001D01*
X126288801Y-72989200D02*
X126288801Y-72847199D01*
X126288801Y-72847199D02*
X127762000Y-71374000D01*
G04 #@! TO.N,/Throttle2_Left_Sense*
X142344000Y-67564000D02*
X142664000Y-67244000D01*
X141097000Y-70358000D02*
X141605000Y-69850000D01*
X141986000Y-67818000D02*
X142240000Y-67564000D01*
X141986000Y-68554600D02*
X141986000Y-67818000D01*
X141224000Y-67564000D02*
X142240000Y-67564000D01*
X142240000Y-67564000D02*
X142344000Y-67564000D01*
X129159000Y-77470000D02*
X129159000Y-81534000D01*
X129159000Y-81534000D02*
X129413000Y-81534000D01*
X106948999Y-92597999D02*
X106299000Y-91948000D01*
X108407201Y-94056201D02*
X106948999Y-92597999D01*
X114376201Y-94056201D02*
X108407201Y-94056201D01*
X114681000Y-94361000D02*
X114376201Y-94056201D01*
X129413000Y-84836000D02*
X129717799Y-85140799D01*
X129717799Y-93421201D02*
X128016000Y-95123000D01*
X129717799Y-85140799D02*
X129717799Y-93421201D01*
X141097000Y-70358000D02*
X140716000Y-70739000D01*
X140716000Y-70739000D02*
X139192000Y-72263000D01*
X139192000Y-72263000D02*
X138811000Y-72263000D01*
X134534378Y-72136000D02*
X129200378Y-77470000D01*
X136779000Y-72136000D02*
X134534378Y-72136000D01*
G04 #@! TO.N,/LED1*
X101981000Y-91948000D02*
X101854000Y-92075000D01*
X103759000Y-91948000D02*
X101981000Y-91948000D01*
G04 #@! TO.N,/LED2*
X101569762Y-89408000D02*
X100076000Y-89408000D01*
X102489000Y-89408000D02*
X101569762Y-89408000D01*
G04 #@! TO.N,Net-(R6-Pad2)*
X134300000Y-68834000D02*
X134620000Y-68514000D01*
X133350000Y-68834000D02*
X134300000Y-68834000D01*
X133010000Y-68494000D02*
X133350000Y-68834000D01*
X133010000Y-66924000D02*
X133010000Y-68494000D01*
D34*
G04 #@! TO.N,Net-(R16-Pad2)*
X144864000Y-68918000D02*
X145034000Y-69088000D01*
D35*
X144864000Y-67244000D02*
X144864000Y-68918000D01*
X146172000Y-69088000D02*
X146558000Y-68702000D01*
X145034000Y-69088000D02*
X146172000Y-69088000D01*
G04 #@! TD*
D34*
G04 #@! TO.N,VCC*
G36*
X140842879Y-78643933D02*
X139822485Y-78643933D01*
X138796879Y-77618327D01*
X138796879Y-73202800D01*
X138997938Y-73202800D01*
X139009688Y-73197933D01*
X140842879Y-73197933D01*
X140842879Y-78643933D01*
X140842879Y-78643933D01*
G37*
X140842879Y-78643933D02*
X139822485Y-78643933D01*
X138796879Y-77618327D01*
X138796879Y-73202800D01*
X138997938Y-73202800D01*
X139009688Y-73197933D01*
X140842879Y-73197933D01*
X140842879Y-78643933D01*
G04 #@! TO.N,+12V*
G36*
X138342879Y-78623539D02*
X138342879Y-83243933D01*
X135796879Y-83243933D01*
X135796879Y-77497933D01*
X137217273Y-77497933D01*
X138342879Y-78623539D01*
X138342879Y-78623539D01*
G37*
X138342879Y-78623539D02*
X138342879Y-83243933D01*
X135796879Y-83243933D01*
X135796879Y-77497933D01*
X137217273Y-77497933D01*
X138342879Y-78623539D01*
G04 #@! TO.N,/12V_Fused*
G36*
X138342879Y-87620933D02*
X138352546Y-87669534D01*
X138380076Y-87710736D01*
X138930076Y-88260736D01*
X138971278Y-88288266D01*
X139019879Y-88297933D01*
X142187494Y-88297933D01*
X142642879Y-88546325D01*
X142642879Y-89443933D01*
X134796879Y-89443933D01*
X134796879Y-85447933D01*
X138342879Y-85447933D01*
X138342879Y-87620933D01*
X138342879Y-87620933D01*
G37*
X138342879Y-87620933D02*
X138352546Y-87669534D01*
X138380076Y-87710736D01*
X138930076Y-88260736D01*
X138971278Y-88288266D01*
X139019879Y-88297933D01*
X142187494Y-88297933D01*
X142642879Y-88546325D01*
X142642879Y-89443933D01*
X134796879Y-89443933D01*
X134796879Y-85447933D01*
X138342879Y-85447933D01*
X138342879Y-87620933D01*
G04 #@! TO.N,GND*
G36*
X154913879Y-89532933D02*
X144804679Y-89532933D01*
X144756078Y-89542600D01*
X144714876Y-89570130D01*
X144687346Y-89611332D01*
X144677679Y-89659933D01*
X144677679Y-90421933D01*
X141680479Y-90421933D01*
X141631878Y-90431600D01*
X141590676Y-90459130D01*
X141573649Y-90480257D01*
X141345049Y-90835857D01*
X141324879Y-90904533D01*
X141324879Y-91639327D01*
X140854076Y-92110130D01*
X140826546Y-92151332D01*
X140816879Y-92199933D01*
X140816879Y-93596933D01*
X134593879Y-93596933D01*
X134593879Y-89939333D01*
X143991879Y-89939333D01*
X144040480Y-89929666D01*
X144081682Y-89902136D01*
X144109212Y-89860934D01*
X144118879Y-89812333D01*
X144118879Y-88389933D01*
X149984979Y-88389933D01*
X150033580Y-88380266D01*
X150074782Y-88352736D01*
X150102312Y-88311534D01*
X150111979Y-88262933D01*
X150111979Y-80149233D01*
X151357879Y-80149233D01*
X151406480Y-80139566D01*
X151413414Y-80134933D01*
X154913879Y-80134933D01*
X154913879Y-89532933D01*
X154913879Y-89532933D01*
G37*
X154913879Y-89532933D02*
X144804679Y-89532933D01*
X144756078Y-89542600D01*
X144714876Y-89570130D01*
X144687346Y-89611332D01*
X144677679Y-89659933D01*
X144677679Y-90421933D01*
X141680479Y-90421933D01*
X141631878Y-90431600D01*
X141590676Y-90459130D01*
X141573649Y-90480257D01*
X141345049Y-90835857D01*
X141324879Y-90904533D01*
X141324879Y-91639327D01*
X140854076Y-92110130D01*
X140826546Y-92151332D01*
X140816879Y-92199933D01*
X140816879Y-93596933D01*
X134593879Y-93596933D01*
X134593879Y-89939333D01*
X143991879Y-89939333D01*
X144040480Y-89929666D01*
X144081682Y-89902136D01*
X144109212Y-89860934D01*
X144118879Y-89812333D01*
X144118879Y-88389933D01*
X149984979Y-88389933D01*
X150033580Y-88380266D01*
X150074782Y-88352736D01*
X150102312Y-88311534D01*
X150111979Y-88262933D01*
X150111979Y-80149233D01*
X151357879Y-80149233D01*
X151406480Y-80139566D01*
X151413414Y-80134933D01*
X154913879Y-80134933D01*
X154913879Y-89532933D01*
G04 #@! TO.N,Net-(C5-Pad2)*
G36*
X147368779Y-87464433D02*
X144447779Y-87464433D01*
X144399178Y-87474100D01*
X144364603Y-87495460D01*
X143615603Y-88144593D01*
X143612961Y-88146948D01*
X143588561Y-88169315D01*
X143559268Y-88209282D01*
X143547379Y-88262933D01*
X143547379Y-89469433D01*
X143166379Y-89469433D01*
X143166379Y-88262933D01*
X143156712Y-88214332D01*
X143129182Y-88173130D01*
X143108372Y-88156308D01*
X142070599Y-87484808D01*
X142001606Y-87464433D01*
X139443979Y-87464433D01*
X139443979Y-84467233D01*
X147368779Y-84467233D01*
X147368779Y-87464433D01*
X147368779Y-87464433D01*
G37*
X147368779Y-87464433D02*
X144447779Y-87464433D01*
X144399178Y-87474100D01*
X144364603Y-87495460D01*
X143615603Y-88144593D01*
X143612961Y-88146948D01*
X143588561Y-88169315D01*
X143559268Y-88209282D01*
X143547379Y-88262933D01*
X143547379Y-89469433D01*
X143166379Y-89469433D01*
X143166379Y-88262933D01*
X143156712Y-88214332D01*
X143129182Y-88173130D01*
X143108372Y-88156308D01*
X142070599Y-87484808D01*
X142001606Y-87464433D01*
X139443979Y-87464433D01*
X139443979Y-84467233D01*
X147368779Y-84467233D01*
X147368779Y-87464433D01*
G04 #@! TO.N,Net-(C11-Pad1)*
G36*
X149349979Y-86194433D02*
X147952979Y-86194433D01*
X147952979Y-84035433D01*
X147943312Y-83986832D01*
X147915782Y-83945630D01*
X146899782Y-82929630D01*
X146858580Y-82902100D01*
X146809979Y-82892433D01*
X139443979Y-82892433D01*
X139443979Y-79717433D01*
X140967979Y-79717433D01*
X141016580Y-79707766D01*
X141057782Y-79680236D01*
X141819782Y-78918236D01*
X141847312Y-78877034D01*
X141856979Y-78828433D01*
X141856979Y-75399433D01*
X149349979Y-75399433D01*
X149349979Y-86194433D01*
X149349979Y-86194433D01*
G37*
X149349979Y-86194433D02*
X147952979Y-86194433D01*
X147952979Y-84035433D01*
X147943312Y-83986832D01*
X147915782Y-83945630D01*
X146899782Y-82929630D01*
X146858580Y-82902100D01*
X146809979Y-82892433D01*
X139443979Y-82892433D01*
X139443979Y-79717433D01*
X140967979Y-79717433D01*
X141016580Y-79707766D01*
X141057782Y-79680236D01*
X141819782Y-78918236D01*
X141847312Y-78877034D01*
X141856979Y-78828433D01*
X141856979Y-75399433D01*
X149349979Y-75399433D01*
X149349979Y-86194433D01*
G04 #@! TD*
M02*
