G04 #@! TF.GenerationSoftware,KiCad,Pcbnew,5.0.0-fee4fd1~66~ubuntu14.04.1*
G04 #@! TF.CreationDate,2018-10-04T00:38:09-07:00*
G04 #@! TF.ProjectId,SD_card_dev,53445F636172645F6465762E6B696361,rev?*
G04 #@! TF.SameCoordinates,Original*
G04 #@! TF.FileFunction,Soldermask,Top*
G04 #@! TF.FilePolarity,Negative*
%FSLAX46Y46*%
G04 Gerber Fmt 4.6, Leading zero omitted, Abs format (unit mm)*
G04 Created by KiCad (PCBNEW 5.0.0-fee4fd1~66~ubuntu14.04.1) date Thu Oct  4 00:38:09 2018*
%MOMM*%
%LPD*%
G01*
G04 APERTURE LIST*
%ADD10R,1.400000X1.650000*%
%ADD11O,2.200000X4.200000*%
%ADD12O,2.200000X4.700000*%
%ADD13R,1.650000X1.400000*%
%ADD14C,1.400000*%
%ADD15C,0.100000*%
%ADD16C,1.275000*%
%ADD17R,1.600000X1.600000*%
%ADD18C,1.800000*%
%ADD19R,1.800000X1.800000*%
%ADD20R,2.100000X2.100000*%
%ADD21O,2.100000X2.100000*%
%ADD22R,3.000000X2.900000*%
%ADD23C,2.200000*%
%ADD24R,2.100000X3.700000*%
%ADD25R,2.700000X2.350000*%
%ADD26R,2.100000X3.200000*%
%ADD27R,2.900000X1.500000*%
%ADD28R,1.300000X1.200000*%
%ADD29C,1.100000*%
%ADD30R,1.700000X1.100000*%
%ADD31R,1.100000X1.700000*%
%ADD32C,2.800000*%
%ADD33R,1.200000X1.300000*%
%ADD34C,0.950000*%
%ADD35R,1.850000X0.850000*%
%ADD36R,1.800000X1.600000*%
G04 APERTURE END LIST*
D10*
G04 #@! TO.C,C8*
X107426000Y-109220000D03*
X105426000Y-109220000D03*
G04 #@! TD*
D11*
G04 #@! TO.C,J1*
X76550000Y-104902000D03*
D12*
X82550000Y-104902000D03*
G04 #@! TD*
D13*
G04 #@! TO.C,C1*
X116840000Y-92694000D03*
X116840000Y-90694000D03*
G04 #@! TD*
G04 #@! TO.C,C2*
X122936000Y-92694000D03*
X122936000Y-90694000D03*
G04 #@! TD*
D14*
G04 #@! TO.C,C3*
X95304893Y-105355107D03*
D15*
G36*
X95216505Y-104276769D02*
X96383231Y-105443495D01*
X95393281Y-106433445D01*
X94226555Y-105266719D01*
X95216505Y-104276769D01*
X95216505Y-104276769D01*
G37*
D14*
X96719107Y-103940893D03*
D15*
G36*
X96630719Y-102862555D02*
X97797445Y-104029281D01*
X96807495Y-105019231D01*
X95640769Y-103852505D01*
X96630719Y-102862555D01*
X96630719Y-102862555D01*
G37*
G04 #@! TD*
D14*
G04 #@! TO.C,C4*
X96574893Y-106625107D03*
D15*
G36*
X96486505Y-105546769D02*
X97653231Y-106713495D01*
X96663281Y-107703445D01*
X95496555Y-106536719D01*
X96486505Y-105546769D01*
X96486505Y-105546769D01*
G37*
D14*
X97989107Y-105210893D03*
D15*
G36*
X97900719Y-104132555D02*
X99067445Y-105299281D01*
X98077495Y-106289231D01*
X96910769Y-105122505D01*
X97900719Y-104132555D01*
X97900719Y-104132555D01*
G37*
G04 #@! TD*
D14*
G04 #@! TO.C,C5*
X97844893Y-107895107D03*
D15*
G36*
X97756505Y-106816769D02*
X98923231Y-107983495D01*
X97933281Y-108973445D01*
X96766555Y-107806719D01*
X97756505Y-106816769D01*
X97756505Y-106816769D01*
G37*
D14*
X99259107Y-106480893D03*
D15*
G36*
X99170719Y-105402555D02*
X100337445Y-106569281D01*
X99347495Y-107559231D01*
X98180769Y-106392505D01*
X99170719Y-105402555D01*
X99170719Y-105402555D01*
G37*
G04 #@! TD*
G04 #@! TO.C,C6*
G36*
X108511573Y-95168641D02*
X108542515Y-95173231D01*
X108572858Y-95180831D01*
X108602310Y-95191369D01*
X108630588Y-95204744D01*
X108657418Y-95220825D01*
X108682543Y-95239459D01*
X108705720Y-95260466D01*
X109209534Y-95764280D01*
X109230541Y-95787457D01*
X109249175Y-95812582D01*
X109265256Y-95839412D01*
X109278631Y-95867690D01*
X109289169Y-95897142D01*
X109296769Y-95927485D01*
X109301359Y-95958427D01*
X109302894Y-95989670D01*
X109301359Y-96020913D01*
X109296769Y-96051855D01*
X109289169Y-96082198D01*
X109278631Y-96111650D01*
X109265256Y-96139928D01*
X109249175Y-96166758D01*
X109230541Y-96191883D01*
X109209534Y-96215060D01*
X108758754Y-96665840D01*
X108735577Y-96686847D01*
X108710452Y-96705481D01*
X108683622Y-96721562D01*
X108655344Y-96734937D01*
X108625892Y-96745475D01*
X108595549Y-96753075D01*
X108564607Y-96757665D01*
X108533364Y-96759200D01*
X108502121Y-96757665D01*
X108471179Y-96753075D01*
X108440836Y-96745475D01*
X108411384Y-96734937D01*
X108383106Y-96721562D01*
X108356276Y-96705481D01*
X108331151Y-96686847D01*
X108307974Y-96665840D01*
X107804160Y-96162026D01*
X107783153Y-96138849D01*
X107764519Y-96113724D01*
X107748438Y-96086894D01*
X107735063Y-96058616D01*
X107724525Y-96029164D01*
X107716925Y-95998821D01*
X107712335Y-95967879D01*
X107710800Y-95936636D01*
X107712335Y-95905393D01*
X107716925Y-95874451D01*
X107724525Y-95844108D01*
X107735063Y-95814656D01*
X107748438Y-95786378D01*
X107764519Y-95759548D01*
X107783153Y-95734423D01*
X107804160Y-95711246D01*
X108254940Y-95260466D01*
X108278117Y-95239459D01*
X108303242Y-95220825D01*
X108330072Y-95204744D01*
X108358350Y-95191369D01*
X108387802Y-95180831D01*
X108418145Y-95173231D01*
X108449087Y-95168641D01*
X108480330Y-95167106D01*
X108511573Y-95168641D01*
X108511573Y-95168641D01*
G37*
D16*
X108506847Y-95963153D03*
D15*
G36*
X107397879Y-96282335D02*
X107428821Y-96286925D01*
X107459164Y-96294525D01*
X107488616Y-96305063D01*
X107516894Y-96318438D01*
X107543724Y-96334519D01*
X107568849Y-96353153D01*
X107592026Y-96374160D01*
X108095840Y-96877974D01*
X108116847Y-96901151D01*
X108135481Y-96926276D01*
X108151562Y-96953106D01*
X108164937Y-96981384D01*
X108175475Y-97010836D01*
X108183075Y-97041179D01*
X108187665Y-97072121D01*
X108189200Y-97103364D01*
X108187665Y-97134607D01*
X108183075Y-97165549D01*
X108175475Y-97195892D01*
X108164937Y-97225344D01*
X108151562Y-97253622D01*
X108135481Y-97280452D01*
X108116847Y-97305577D01*
X108095840Y-97328754D01*
X107645060Y-97779534D01*
X107621883Y-97800541D01*
X107596758Y-97819175D01*
X107569928Y-97835256D01*
X107541650Y-97848631D01*
X107512198Y-97859169D01*
X107481855Y-97866769D01*
X107450913Y-97871359D01*
X107419670Y-97872894D01*
X107388427Y-97871359D01*
X107357485Y-97866769D01*
X107327142Y-97859169D01*
X107297690Y-97848631D01*
X107269412Y-97835256D01*
X107242582Y-97819175D01*
X107217457Y-97800541D01*
X107194280Y-97779534D01*
X106690466Y-97275720D01*
X106669459Y-97252543D01*
X106650825Y-97227418D01*
X106634744Y-97200588D01*
X106621369Y-97172310D01*
X106610831Y-97142858D01*
X106603231Y-97112515D01*
X106598641Y-97081573D01*
X106597106Y-97050330D01*
X106598641Y-97019087D01*
X106603231Y-96988145D01*
X106610831Y-96957802D01*
X106621369Y-96928350D01*
X106634744Y-96900072D01*
X106650825Y-96873242D01*
X106669459Y-96848117D01*
X106690466Y-96824940D01*
X107141246Y-96374160D01*
X107164423Y-96353153D01*
X107189548Y-96334519D01*
X107216378Y-96318438D01*
X107244656Y-96305063D01*
X107274108Y-96294525D01*
X107304451Y-96286925D01*
X107335393Y-96282335D01*
X107366636Y-96280800D01*
X107397879Y-96282335D01*
X107397879Y-96282335D01*
G37*
D16*
X107393153Y-97076847D03*
G04 #@! TD*
D13*
G04 #@! TO.C,C7*
X109474000Y-107426000D03*
X109474000Y-105426000D03*
G04 #@! TD*
D10*
G04 #@! TO.C,C9*
X118348000Y-98806000D03*
X116348000Y-98806000D03*
G04 #@! TD*
G04 #@! TO.C,C10*
X120920000Y-98806000D03*
X122920000Y-98806000D03*
G04 #@! TD*
D17*
G04 #@! TO.C,D1*
X76200000Y-98890000D03*
X76200000Y-96690000D03*
G04 #@! TD*
G04 #@! TO.C,D2*
X79375000Y-98890000D03*
X79375000Y-96690000D03*
G04 #@! TD*
G04 #@! TO.C,D3*
X82550000Y-98890000D03*
X82550000Y-96690000D03*
G04 #@! TD*
G04 #@! TO.C,D4*
X69850000Y-98890000D03*
X69850000Y-96690000D03*
G04 #@! TD*
G04 #@! TO.C,D5*
X73025000Y-98890000D03*
X73025000Y-96690000D03*
G04 #@! TD*
D18*
G04 #@! TO.C,J2*
X92075000Y-93980000D03*
X92075000Y-96520000D03*
X89535000Y-93980000D03*
X89535000Y-96520000D03*
X86995000Y-93980000D03*
D19*
X86995000Y-96520000D03*
G04 #@! TD*
D20*
G04 #@! TO.C,J3*
X87376000Y-102362000D03*
D21*
X87376000Y-104902000D03*
X87376000Y-107442000D03*
G04 #@! TD*
D22*
G04 #@! TO.C,J4*
X160600000Y-87050000D03*
X160600000Y-114450000D03*
D23*
X140000000Y-111050000D03*
X140000000Y-91050000D03*
D24*
X137500000Y-92700000D03*
D25*
X154600000Y-114200000D03*
D26*
X137500000Y-111600000D03*
D27*
X154500000Y-91600000D03*
X152100000Y-110725000D03*
X152100000Y-109100000D03*
X152100000Y-106600000D03*
X152100000Y-104100000D03*
X152400000Y-101600000D03*
X152400000Y-99100000D03*
X152100000Y-96600000D03*
X151600000Y-94100000D03*
G04 #@! TD*
D20*
G04 #@! TO.C,J5*
X122428000Y-107950000D03*
D21*
X119888000Y-107950000D03*
X117348000Y-107950000D03*
G04 #@! TD*
D28*
G04 #@! TO.C,Q1*
X109186000Y-91694000D03*
X111286000Y-90744000D03*
X111286000Y-92644000D03*
G04 #@! TD*
D29*
G04 #@! TO.C,R1*
X106008249Y-95667751D03*
D15*
G36*
X105796117Y-94677802D02*
X106998198Y-95879883D01*
X106220381Y-96657700D01*
X105018300Y-95455619D01*
X105796117Y-94677802D01*
X105796117Y-94677802D01*
G37*
D29*
X107351751Y-94324249D03*
D15*
G36*
X107139619Y-93334300D02*
X108341700Y-94536381D01*
X107563883Y-95314198D01*
X106361802Y-94112117D01*
X107139619Y-93334300D01*
X107139619Y-93334300D01*
G37*
G04 #@! TD*
D29*
G04 #@! TO.C,R2*
X96429751Y-96429751D03*
D15*
G36*
X95439802Y-96641883D02*
X96641883Y-95439802D01*
X97419700Y-96217619D01*
X96217619Y-97419700D01*
X95439802Y-96641883D01*
X95439802Y-96641883D01*
G37*
D29*
X95086249Y-95086249D03*
D15*
G36*
X94096300Y-95298381D02*
X95298381Y-94096300D01*
X96076198Y-94874117D01*
X94874117Y-96076198D01*
X94096300Y-95298381D01*
X94096300Y-95298381D01*
G37*
G04 #@! TD*
D30*
G04 #@! TO.C,R3*
X76200000Y-94295000D03*
X76200000Y-92395000D03*
G04 #@! TD*
G04 #@! TO.C,R4*
X79375000Y-94295000D03*
X79375000Y-92395000D03*
G04 #@! TD*
D31*
G04 #@! TO.C,R5*
X132654000Y-114300000D03*
X134554000Y-114300000D03*
G04 #@! TD*
D30*
G04 #@! TO.C,R6*
X82550000Y-94295000D03*
X82550000Y-92395000D03*
G04 #@! TD*
D31*
G04 #@! TO.C,R7*
X132654000Y-92710000D03*
X134554000Y-92710000D03*
G04 #@! TD*
G04 #@! TO.C,R8*
X124394000Y-110744000D03*
X122494000Y-110744000D03*
G04 #@! TD*
G04 #@! TO.C,R9*
X114874000Y-110744000D03*
X116774000Y-110744000D03*
G04 #@! TD*
D30*
G04 #@! TO.C,R10*
X69850000Y-94295000D03*
X69850000Y-92395000D03*
G04 #@! TD*
G04 #@! TO.C,R11*
X73025000Y-94295000D03*
X73025000Y-92395000D03*
G04 #@! TD*
G04 #@! TO.C,R12*
X113284000Y-92644000D03*
X113284000Y-90744000D03*
G04 #@! TD*
D31*
G04 #@! TO.C,R13*
X132720000Y-89916000D03*
X134620000Y-89916000D03*
G04 #@! TD*
D32*
G04 #@! TO.C,MISO*
X112522000Y-100330000D03*
G04 #@! TD*
G04 #@! TO.C,CS*
X112522000Y-104140000D03*
G04 #@! TD*
G04 #@! TO.C,MOSI*
X112522000Y-107950000D03*
G04 #@! TD*
G04 #@! TO.C,SCK*
X112522000Y-96520000D03*
G04 #@! TD*
G04 #@! TO.C,CS*
X126238000Y-104140000D03*
G04 #@! TD*
G04 #@! TO.C,SCK*
X126238000Y-96520000D03*
G04 #@! TD*
G04 #@! TO.C,MISO*
X126238000Y-100330000D03*
G04 #@! TD*
G04 #@! TO.C,MOSI*
X126238000Y-107950000D03*
G04 #@! TD*
D33*
G04 #@! TO.C,U1*
X120838000Y-90694000D03*
X118938000Y-90694000D03*
X119888000Y-92694000D03*
G04 #@! TD*
D34*
G04 #@! TO.C,U2*
X96767480Y-98863685D03*
D15*
G36*
X97810463Y-99234916D02*
X97138711Y-99906668D01*
X95724497Y-98492454D01*
X96396249Y-97820702D01*
X97810463Y-99234916D01*
X97810463Y-99234916D01*
G37*
D34*
X97333166Y-98298000D03*
D15*
G36*
X98376149Y-98669231D02*
X97704397Y-99340983D01*
X96290183Y-97926769D01*
X96961935Y-97255017D01*
X98376149Y-98669231D01*
X98376149Y-98669231D01*
G37*
D34*
X97898851Y-97732314D03*
D15*
G36*
X98941834Y-98103545D02*
X98270082Y-98775297D01*
X96855868Y-97361083D01*
X97527620Y-96689331D01*
X98941834Y-98103545D01*
X98941834Y-98103545D01*
G37*
D34*
X98464536Y-97166629D03*
D15*
G36*
X99507519Y-97537860D02*
X98835767Y-98209612D01*
X97421553Y-96795398D01*
X98093305Y-96123646D01*
X99507519Y-97537860D01*
X99507519Y-97537860D01*
G37*
D34*
X99030222Y-96600943D03*
D15*
G36*
X100073205Y-96972174D02*
X99401453Y-97643926D01*
X97987239Y-96229712D01*
X98658991Y-95557960D01*
X100073205Y-96972174D01*
X100073205Y-96972174D01*
G37*
D34*
X99595907Y-96035258D03*
D15*
G36*
X100638890Y-96406489D02*
X99967138Y-97078241D01*
X98552924Y-95664027D01*
X99224676Y-94992275D01*
X100638890Y-96406489D01*
X100638890Y-96406489D01*
G37*
D34*
X100161593Y-95469573D03*
D15*
G36*
X101204576Y-95840804D02*
X100532824Y-96512556D01*
X99118610Y-95098342D01*
X99790362Y-94426590D01*
X101204576Y-95840804D01*
X101204576Y-95840804D01*
G37*
D34*
X100727278Y-94903887D03*
D15*
G36*
X101770261Y-95275118D02*
X101098509Y-95946870D01*
X99684295Y-94532656D01*
X100356047Y-93860904D01*
X101770261Y-95275118D01*
X101770261Y-95275118D01*
G37*
D34*
X102777888Y-94903887D03*
D15*
G36*
X102406657Y-95946870D02*
X101734905Y-95275118D01*
X103149119Y-93860904D01*
X103820871Y-94532656D01*
X102406657Y-95946870D01*
X102406657Y-95946870D01*
G37*
D34*
X103343573Y-95469573D03*
D15*
G36*
X102972342Y-96512556D02*
X102300590Y-95840804D01*
X103714804Y-94426590D01*
X104386556Y-95098342D01*
X102972342Y-96512556D01*
X102972342Y-96512556D01*
G37*
D34*
X103909259Y-96035258D03*
D15*
G36*
X103538028Y-97078241D02*
X102866276Y-96406489D01*
X104280490Y-94992275D01*
X104952242Y-95664027D01*
X103538028Y-97078241D01*
X103538028Y-97078241D01*
G37*
D34*
X104474944Y-96600943D03*
D15*
G36*
X104103713Y-97643926D02*
X103431961Y-96972174D01*
X104846175Y-95557960D01*
X105517927Y-96229712D01*
X104103713Y-97643926D01*
X104103713Y-97643926D01*
G37*
D34*
X105040630Y-97166629D03*
D15*
G36*
X104669399Y-98209612D02*
X103997647Y-97537860D01*
X105411861Y-96123646D01*
X106083613Y-96795398D01*
X104669399Y-98209612D01*
X104669399Y-98209612D01*
G37*
D34*
X105606315Y-97732314D03*
D15*
G36*
X105235084Y-98775297D02*
X104563332Y-98103545D01*
X105977546Y-96689331D01*
X106649298Y-97361083D01*
X105235084Y-98775297D01*
X105235084Y-98775297D01*
G37*
D34*
X106172000Y-98298000D03*
D15*
G36*
X105800769Y-99340983D02*
X105129017Y-98669231D01*
X106543231Y-97255017D01*
X107214983Y-97926769D01*
X105800769Y-99340983D01*
X105800769Y-99340983D01*
G37*
D34*
X106737686Y-98863685D03*
D15*
G36*
X106366455Y-99906668D02*
X105694703Y-99234916D01*
X107108917Y-97820702D01*
X107780669Y-98492454D01*
X106366455Y-99906668D01*
X106366455Y-99906668D01*
G37*
D34*
X106737686Y-100914295D03*
D15*
G36*
X107780669Y-101285526D02*
X107108917Y-101957278D01*
X105694703Y-100543064D01*
X106366455Y-99871312D01*
X107780669Y-101285526D01*
X107780669Y-101285526D01*
G37*
D34*
X106172000Y-101479980D03*
D15*
G36*
X107214983Y-101851211D02*
X106543231Y-102522963D01*
X105129017Y-101108749D01*
X105800769Y-100436997D01*
X107214983Y-101851211D01*
X107214983Y-101851211D01*
G37*
D34*
X105606315Y-102045666D03*
D15*
G36*
X106649298Y-102416897D02*
X105977546Y-103088649D01*
X104563332Y-101674435D01*
X105235084Y-101002683D01*
X106649298Y-102416897D01*
X106649298Y-102416897D01*
G37*
D34*
X105040630Y-102611351D03*
D15*
G36*
X106083613Y-102982582D02*
X105411861Y-103654334D01*
X103997647Y-102240120D01*
X104669399Y-101568368D01*
X106083613Y-102982582D01*
X106083613Y-102982582D01*
G37*
D34*
X104474944Y-103177037D03*
D15*
G36*
X105517927Y-103548268D02*
X104846175Y-104220020D01*
X103431961Y-102805806D01*
X104103713Y-102134054D01*
X105517927Y-103548268D01*
X105517927Y-103548268D01*
G37*
D34*
X103909259Y-103742722D03*
D15*
G36*
X104952242Y-104113953D02*
X104280490Y-104785705D01*
X102866276Y-103371491D01*
X103538028Y-102699739D01*
X104952242Y-104113953D01*
X104952242Y-104113953D01*
G37*
D34*
X103343573Y-104308407D03*
D15*
G36*
X104386556Y-104679638D02*
X103714804Y-105351390D01*
X102300590Y-103937176D01*
X102972342Y-103265424D01*
X104386556Y-104679638D01*
X104386556Y-104679638D01*
G37*
D34*
X102777888Y-104874093D03*
D15*
G36*
X103820871Y-105245324D02*
X103149119Y-105917076D01*
X101734905Y-104502862D01*
X102406657Y-103831110D01*
X103820871Y-105245324D01*
X103820871Y-105245324D01*
G37*
D34*
X100727278Y-104874093D03*
D15*
G36*
X100356047Y-105917076D02*
X99684295Y-105245324D01*
X101098509Y-103831110D01*
X101770261Y-104502862D01*
X100356047Y-105917076D01*
X100356047Y-105917076D01*
G37*
D34*
X100161593Y-104308407D03*
D15*
G36*
X99790362Y-105351390D02*
X99118610Y-104679638D01*
X100532824Y-103265424D01*
X101204576Y-103937176D01*
X99790362Y-105351390D01*
X99790362Y-105351390D01*
G37*
D34*
X99595907Y-103742722D03*
D15*
G36*
X99224676Y-104785705D02*
X98552924Y-104113953D01*
X99967138Y-102699739D01*
X100638890Y-103371491D01*
X99224676Y-104785705D01*
X99224676Y-104785705D01*
G37*
D34*
X99030222Y-103177037D03*
D15*
G36*
X98658991Y-104220020D02*
X97987239Y-103548268D01*
X99401453Y-102134054D01*
X100073205Y-102805806D01*
X98658991Y-104220020D01*
X98658991Y-104220020D01*
G37*
D34*
X98464536Y-102611351D03*
D15*
G36*
X98093305Y-103654334D02*
X97421553Y-102982582D01*
X98835767Y-101568368D01*
X99507519Y-102240120D01*
X98093305Y-103654334D01*
X98093305Y-103654334D01*
G37*
D34*
X97898851Y-102045666D03*
D15*
G36*
X97527620Y-103088649D02*
X96855868Y-102416897D01*
X98270082Y-101002683D01*
X98941834Y-101674435D01*
X97527620Y-103088649D01*
X97527620Y-103088649D01*
G37*
D34*
X97333166Y-101479980D03*
D15*
G36*
X96961935Y-102522963D02*
X96290183Y-101851211D01*
X97704397Y-100436997D01*
X98376149Y-101108749D01*
X96961935Y-102522963D01*
X96961935Y-102522963D01*
G37*
D34*
X96767480Y-100914295D03*
D15*
G36*
X96396249Y-101957278D02*
X95724497Y-101285526D01*
X97138711Y-99871312D01*
X97810463Y-100543064D01*
X96396249Y-101957278D01*
X96396249Y-101957278D01*
G37*
G04 #@! TD*
D35*
G04 #@! TO.C,U3*
X116684000Y-100666000D03*
X116684000Y-101316000D03*
X116684000Y-101966000D03*
X116684000Y-102616000D03*
X116684000Y-103266000D03*
X116684000Y-103916000D03*
X116684000Y-104566000D03*
X122584000Y-104566000D03*
X122584000Y-103916000D03*
X122584000Y-103266000D03*
X122584000Y-102616000D03*
X122584000Y-101966000D03*
X122584000Y-101316000D03*
X122584000Y-100666000D03*
G04 #@! TD*
D36*
G04 #@! TO.C,Y1*
X107526000Y-107226000D03*
X105326000Y-107226000D03*
X105326000Y-105626000D03*
X107526000Y-105626000D03*
G04 #@! TD*
D10*
G04 #@! TO.C,C11*
X134350000Y-102108000D03*
X132350000Y-102108000D03*
G04 #@! TD*
G04 #@! TO.C,C12*
X132350000Y-99060000D03*
X134350000Y-99060000D03*
G04 #@! TD*
G04 #@! TO.C,C13*
X134350000Y-96012000D03*
X132350000Y-96012000D03*
G04 #@! TD*
M02*
