G04 #@! TF.GenerationSoftware,KiCad,Pcbnew,5.0.0-fee4fd1~66~ubuntu14.04.1*
G04 #@! TF.CreationDate,2018-10-04T00:38:09-07:00*
G04 #@! TF.ProjectId,SD_card_dev,53445F636172645F6465762E6B696361,rev?*
G04 #@! TF.SameCoordinates,Original*
G04 #@! TF.FileFunction,Copper,L2,Bot,Signal*
G04 #@! TF.FilePolarity,Positive*
%FSLAX46Y46*%
G04 Gerber Fmt 4.6, Leading zero omitted, Abs format (unit mm)*
G04 Created by KiCad (PCBNEW 5.0.0-fee4fd1~66~ubuntu14.04.1) date Thu Oct  4 00:38:09 2018*
%MOMM*%
%LPD*%
G01*
G04 APERTURE LIST*
G04 #@! TA.AperFunction,ComponentPad*
%ADD10O,1.800000X3.800000*%
G04 #@! TD*
G04 #@! TA.AperFunction,ComponentPad*
%ADD11O,1.800000X4.300000*%
G04 #@! TD*
G04 #@! TA.AperFunction,ComponentPad*
%ADD12C,1.400000*%
G04 #@! TD*
G04 #@! TA.AperFunction,ComponentPad*
%ADD13R,1.400000X1.400000*%
G04 #@! TD*
G04 #@! TA.AperFunction,ComponentPad*
%ADD14R,1.700000X1.700000*%
G04 #@! TD*
G04 #@! TA.AperFunction,ComponentPad*
%ADD15O,1.700000X1.700000*%
G04 #@! TD*
G04 #@! TA.AperFunction,ComponentPad*
%ADD16C,1.800000*%
G04 #@! TD*
G04 #@! TA.AperFunction,ComponentPad*
%ADD17C,2.400000*%
G04 #@! TD*
G04 #@! TA.AperFunction,ViaPad*
%ADD18C,0.800000*%
G04 #@! TD*
G04 #@! TA.AperFunction,Conductor*
%ADD19C,0.152400*%
G04 #@! TD*
G04 #@! TA.AperFunction,Conductor*
%ADD20C,0.200000*%
G04 #@! TD*
G04 APERTURE END LIST*
D10*
G04 #@! TO.P,J1,2*
G04 #@! TO.N,GND*
X76550000Y-104902000D03*
D11*
G04 #@! TO.P,J1,1*
G04 #@! TO.N,Net-(J1-Pad1)*
X82550000Y-104902000D03*
G04 #@! TD*
D12*
G04 #@! TO.P,J2,6*
G04 #@! TO.N,GND*
X92075000Y-93980000D03*
G04 #@! TO.P,J2,5*
G04 #@! TO.N,/RESET*
X92075000Y-96520000D03*
G04 #@! TO.P,J2,4*
G04 #@! TO.N,/MOSI*
X89535000Y-93980000D03*
G04 #@! TO.P,J2,3*
G04 #@! TO.N,/SCK*
X89535000Y-96520000D03*
G04 #@! TO.P,J2,2*
G04 #@! TO.N,+5V*
X86995000Y-93980000D03*
D13*
G04 #@! TO.P,J2,1*
G04 #@! TO.N,/MISO*
X86995000Y-96520000D03*
G04 #@! TD*
D14*
G04 #@! TO.P,J3,1*
G04 #@! TO.N,+5V*
X87376000Y-102362000D03*
D15*
G04 #@! TO.P,J3,2*
G04 #@! TO.N,Net-(J1-Pad1)*
X87376000Y-104902000D03*
G04 #@! TO.P,J3,3*
G04 #@! TO.N,Net-(J3-Pad3)*
X87376000Y-107442000D03*
G04 #@! TD*
D16*
G04 #@! TO.P,J4,*
G04 #@! TO.N,*
X140000000Y-111050000D03*
X140000000Y-91050000D03*
G04 #@! TD*
D14*
G04 #@! TO.P,J5,1*
G04 #@! TO.N,Net-(J5-Pad1)*
X122428000Y-107950000D03*
D15*
G04 #@! TO.P,J5,2*
G04 #@! TO.N,/OE*
X119888000Y-107950000D03*
G04 #@! TO.P,J5,3*
G04 #@! TO.N,/OE_IO*
X117348000Y-107950000D03*
G04 #@! TD*
D17*
G04 #@! TO.P,MISO,1*
G04 #@! TO.N,/MISO*
X112522000Y-100330000D03*
G04 #@! TD*
G04 #@! TO.P,CS,1*
G04 #@! TO.N,/SS*
X112522000Y-104140000D03*
G04 #@! TD*
G04 #@! TO.P,MOSI,1*
G04 #@! TO.N,/MOSI*
X112522000Y-107950000D03*
G04 #@! TD*
G04 #@! TO.P,SCK,1*
G04 #@! TO.N,/SCK*
X112522000Y-96520000D03*
G04 #@! TD*
G04 #@! TO.P,CS,1*
G04 #@! TO.N,/SS_3V3*
X126238000Y-104140000D03*
G04 #@! TD*
G04 #@! TO.P,SCK,1*
G04 #@! TO.N,/SCK_3V3*
X126238000Y-96520000D03*
G04 #@! TD*
G04 #@! TO.P,MISO,1*
G04 #@! TO.N,/MISO_3V3*
X126238000Y-100330000D03*
G04 #@! TD*
G04 #@! TO.P,MOSI,1*
G04 #@! TO.N,/MOSI_3v3*
X126238000Y-107950000D03*
G04 #@! TD*
D18*
G04 #@! TO.N,GND*
X108712000Y-108712000D03*
X84328000Y-99822000D03*
X118364000Y-100838000D03*
X120904000Y-100838000D03*
X93980000Y-104140000D03*
X149860000Y-106680000D03*
X149860000Y-99060000D03*
X132588000Y-112776000D03*
X109474000Y-94996000D03*
X107873800Y-91668600D03*
X124485400Y-92659200D03*
X100177600Y-102057200D03*
X103886000Y-98323400D03*
X132350000Y-94488000D03*
G04 #@! TO.N,+5V*
X115011200Y-92151200D03*
X115011200Y-90744000D03*
X99797672Y-109523728D03*
X100914188Y-108407212D03*
X116078000Y-96520000D03*
X116078000Y-94367400D03*
G04 #@! TO.N,+3V3*
X135636000Y-93950001D03*
X136144000Y-96520000D03*
G04 #@! TO.N,/SS_3V3*
X132588000Y-105156000D03*
X132588000Y-103471400D03*
G04 #@! TO.N,/MOSI_3v3*
X133540403Y-105156000D03*
X133604000Y-103471400D03*
G04 #@! TO.N,/Protect*
X110998000Y-94742000D03*
X109728000Y-93726000D03*
G04 #@! TO.N,/Detect*
X104394000Y-91694000D03*
X104394000Y-89389000D03*
G04 #@! TD*
D19*
G04 #@! TO.N,+5V*
X115011200Y-92151200D02*
X115011200Y-90744000D01*
X99797672Y-109523728D02*
X100914188Y-108407212D01*
X116078000Y-96520000D02*
X116078000Y-94367400D01*
G04 #@! TO.N,+3V3*
X135636000Y-96012000D02*
X136144000Y-96520000D01*
X135636000Y-93950001D02*
X135636000Y-96012000D01*
G04 #@! TO.N,/SS_3V3*
X132588000Y-105156000D02*
X132588000Y-103471400D01*
G04 #@! TO.N,/MOSI_3v3*
X133540403Y-103534997D02*
X133604000Y-103471400D01*
X133540403Y-105156000D02*
X133540403Y-103534997D01*
G04 #@! TO.N,/Protect*
X110744000Y-94742000D02*
X110998000Y-94742000D01*
X109728000Y-93726000D02*
X110744000Y-94742000D01*
G04 #@! TO.N,/Detect*
X104394000Y-91694000D02*
X104394000Y-89389000D01*
G04 #@! TD*
D20*
G04 #@! TO.N,GND*
G36*
X167374489Y-85774581D02*
X167580060Y-85911940D01*
X167717419Y-86117512D01*
X167773000Y-86396936D01*
X167773001Y-115533059D01*
X167717419Y-115812488D01*
X167580060Y-116018060D01*
X167374489Y-116155419D01*
X167095063Y-116211000D01*
X69632936Y-116211000D01*
X69353512Y-116155419D01*
X69147940Y-116018060D01*
X69010581Y-115812489D01*
X68955000Y-115533063D01*
X68955000Y-110811305D01*
X138800000Y-110811305D01*
X138800000Y-111288695D01*
X138982689Y-111729745D01*
X139320255Y-112067311D01*
X139761305Y-112250000D01*
X140238695Y-112250000D01*
X140679745Y-112067311D01*
X141017311Y-111729745D01*
X141200000Y-111288695D01*
X141200000Y-110811305D01*
X141017311Y-110370255D01*
X140679745Y-110032689D01*
X140238695Y-109850000D01*
X139761305Y-109850000D01*
X139320255Y-110032689D01*
X138982689Y-110370255D01*
X138800000Y-110811305D01*
X68955000Y-110811305D01*
X68955000Y-109384489D01*
X99097672Y-109384489D01*
X99097672Y-109662967D01*
X99204240Y-109920246D01*
X99401154Y-110117160D01*
X99658433Y-110223728D01*
X99936911Y-110223728D01*
X100194190Y-110117160D01*
X100391104Y-109920246D01*
X100497672Y-109662967D01*
X100497672Y-109384489D01*
X100489256Y-109364171D01*
X100754631Y-109098796D01*
X100774949Y-109107212D01*
X101053427Y-109107212D01*
X101310706Y-109000644D01*
X101507620Y-108803730D01*
X101614188Y-108546451D01*
X101614188Y-108267973D01*
X101507620Y-108010694D01*
X101310706Y-107813780D01*
X101053427Y-107707212D01*
X100774949Y-107707212D01*
X100517670Y-107813780D01*
X100320756Y-108010694D01*
X100214188Y-108267973D01*
X100214188Y-108546451D01*
X100222604Y-108566769D01*
X99957229Y-108832144D01*
X99936911Y-108823728D01*
X99658433Y-108823728D01*
X99401154Y-108930296D01*
X99204240Y-109127210D01*
X99097672Y-109384489D01*
X68955000Y-109384489D01*
X68955000Y-107442000D01*
X86203471Y-107442000D01*
X86292724Y-107890707D01*
X86546897Y-108271103D01*
X86927293Y-108525276D01*
X87262739Y-108592000D01*
X87489261Y-108592000D01*
X87824707Y-108525276D01*
X88205103Y-108271103D01*
X88459276Y-107890707D01*
X88506830Y-107651631D01*
X111022000Y-107651631D01*
X111022000Y-108248369D01*
X111250361Y-108799682D01*
X111672318Y-109221639D01*
X112223631Y-109450000D01*
X112820369Y-109450000D01*
X113371682Y-109221639D01*
X113793639Y-108799682D01*
X114022000Y-108248369D01*
X114022000Y-107950000D01*
X116175471Y-107950000D01*
X116264724Y-108398707D01*
X116518897Y-108779103D01*
X116899293Y-109033276D01*
X117234739Y-109100000D01*
X117461261Y-109100000D01*
X117796707Y-109033276D01*
X118177103Y-108779103D01*
X118431276Y-108398707D01*
X118520529Y-107950000D01*
X118715471Y-107950000D01*
X118804724Y-108398707D01*
X119058897Y-108779103D01*
X119439293Y-109033276D01*
X119774739Y-109100000D01*
X120001261Y-109100000D01*
X120336707Y-109033276D01*
X120717103Y-108779103D01*
X120971276Y-108398707D01*
X121060529Y-107950000D01*
X120971276Y-107501293D01*
X120717103Y-107120897D01*
X120685829Y-107100000D01*
X121272123Y-107100000D01*
X121272123Y-108800000D01*
X121295407Y-108917054D01*
X121361712Y-109016288D01*
X121460946Y-109082593D01*
X121578000Y-109105877D01*
X123278000Y-109105877D01*
X123395054Y-109082593D01*
X123494288Y-109016288D01*
X123560593Y-108917054D01*
X123583877Y-108800000D01*
X123583877Y-107651631D01*
X124738000Y-107651631D01*
X124738000Y-108248369D01*
X124966361Y-108799682D01*
X125388318Y-109221639D01*
X125939631Y-109450000D01*
X126536369Y-109450000D01*
X127087682Y-109221639D01*
X127509639Y-108799682D01*
X127738000Y-108248369D01*
X127738000Y-107651631D01*
X127509639Y-107100318D01*
X127087682Y-106678361D01*
X126536369Y-106450000D01*
X125939631Y-106450000D01*
X125388318Y-106678361D01*
X124966361Y-107100318D01*
X124738000Y-107651631D01*
X123583877Y-107651631D01*
X123583877Y-107100000D01*
X123560593Y-106982946D01*
X123494288Y-106883712D01*
X123395054Y-106817407D01*
X123278000Y-106794123D01*
X121578000Y-106794123D01*
X121460946Y-106817407D01*
X121361712Y-106883712D01*
X121295407Y-106982946D01*
X121272123Y-107100000D01*
X120685829Y-107100000D01*
X120336707Y-106866724D01*
X120001261Y-106800000D01*
X119774739Y-106800000D01*
X119439293Y-106866724D01*
X119058897Y-107120897D01*
X118804724Y-107501293D01*
X118715471Y-107950000D01*
X118520529Y-107950000D01*
X118431276Y-107501293D01*
X118177103Y-107120897D01*
X117796707Y-106866724D01*
X117461261Y-106800000D01*
X117234739Y-106800000D01*
X116899293Y-106866724D01*
X116518897Y-107120897D01*
X116264724Y-107501293D01*
X116175471Y-107950000D01*
X114022000Y-107950000D01*
X114022000Y-107651631D01*
X113793639Y-107100318D01*
X113371682Y-106678361D01*
X112820369Y-106450000D01*
X112223631Y-106450000D01*
X111672318Y-106678361D01*
X111250361Y-107100318D01*
X111022000Y-107651631D01*
X88506830Y-107651631D01*
X88548529Y-107442000D01*
X88459276Y-106993293D01*
X88205103Y-106612897D01*
X87824707Y-106358724D01*
X87489261Y-106292000D01*
X87262739Y-106292000D01*
X86927293Y-106358724D01*
X86546897Y-106612897D01*
X86292724Y-106993293D01*
X86203471Y-107442000D01*
X68955000Y-107442000D01*
X68955000Y-105056000D01*
X75042000Y-105056000D01*
X75042000Y-106056000D01*
X75215723Y-106621364D01*
X75592577Y-107077211D01*
X76115190Y-107354143D01*
X76163226Y-107359556D01*
X76396000Y-107249227D01*
X76396000Y-105056000D01*
X76704000Y-105056000D01*
X76704000Y-107249227D01*
X76936774Y-107359556D01*
X76984810Y-107354143D01*
X77507423Y-107077211D01*
X77884277Y-106621364D01*
X78058000Y-106056000D01*
X78058000Y-105056000D01*
X76704000Y-105056000D01*
X76396000Y-105056000D01*
X75042000Y-105056000D01*
X68955000Y-105056000D01*
X68955000Y-103748000D01*
X75042000Y-103748000D01*
X75042000Y-104748000D01*
X76396000Y-104748000D01*
X76396000Y-102554773D01*
X76704000Y-102554773D01*
X76704000Y-104748000D01*
X78058000Y-104748000D01*
X78058000Y-103748000D01*
X77992186Y-103533813D01*
X81350000Y-103533813D01*
X81350001Y-106270188D01*
X81419626Y-106620217D01*
X81684849Y-107017152D01*
X82081784Y-107282375D01*
X82550000Y-107375509D01*
X83018217Y-107282375D01*
X83415152Y-107017152D01*
X83680375Y-106620217D01*
X83750000Y-106270188D01*
X83750000Y-104902000D01*
X86203471Y-104902000D01*
X86292724Y-105350707D01*
X86546897Y-105731103D01*
X86927293Y-105985276D01*
X87262739Y-106052000D01*
X87489261Y-106052000D01*
X87824707Y-105985276D01*
X88205103Y-105731103D01*
X88459276Y-105350707D01*
X88548529Y-104902000D01*
X88459276Y-104453293D01*
X88205103Y-104072897D01*
X87858990Y-103841631D01*
X111022000Y-103841631D01*
X111022000Y-104438369D01*
X111250361Y-104989682D01*
X111672318Y-105411639D01*
X112223631Y-105640000D01*
X112820369Y-105640000D01*
X113371682Y-105411639D01*
X113793639Y-104989682D01*
X114022000Y-104438369D01*
X114022000Y-103841631D01*
X124738000Y-103841631D01*
X124738000Y-104438369D01*
X124966361Y-104989682D01*
X125388318Y-105411639D01*
X125939631Y-105640000D01*
X126536369Y-105640000D01*
X127087682Y-105411639D01*
X127509639Y-104989682D01*
X127738000Y-104438369D01*
X127738000Y-103841631D01*
X127526971Y-103332161D01*
X131888000Y-103332161D01*
X131888000Y-103610639D01*
X131994568Y-103867918D01*
X132191482Y-104064832D01*
X132211801Y-104073248D01*
X132211800Y-104554152D01*
X132191482Y-104562568D01*
X131994568Y-104759482D01*
X131888000Y-105016761D01*
X131888000Y-105295239D01*
X131994568Y-105552518D01*
X132191482Y-105749432D01*
X132448761Y-105856000D01*
X132727239Y-105856000D01*
X132984518Y-105749432D01*
X133064202Y-105669749D01*
X133143885Y-105749432D01*
X133401164Y-105856000D01*
X133679642Y-105856000D01*
X133936921Y-105749432D01*
X134133835Y-105552518D01*
X134240403Y-105295239D01*
X134240403Y-105016761D01*
X134133835Y-104759482D01*
X133936921Y-104562568D01*
X133916603Y-104554152D01*
X133916603Y-104099591D01*
X134000518Y-104064832D01*
X134197432Y-103867918D01*
X134304000Y-103610639D01*
X134304000Y-103332161D01*
X134197432Y-103074882D01*
X134000518Y-102877968D01*
X133743239Y-102771400D01*
X133464761Y-102771400D01*
X133207482Y-102877968D01*
X133096000Y-102989450D01*
X132984518Y-102877968D01*
X132727239Y-102771400D01*
X132448761Y-102771400D01*
X132191482Y-102877968D01*
X131994568Y-103074882D01*
X131888000Y-103332161D01*
X127526971Y-103332161D01*
X127509639Y-103290318D01*
X127087682Y-102868361D01*
X126536369Y-102640000D01*
X125939631Y-102640000D01*
X125388318Y-102868361D01*
X124966361Y-103290318D01*
X124738000Y-103841631D01*
X114022000Y-103841631D01*
X113793639Y-103290318D01*
X113371682Y-102868361D01*
X112820369Y-102640000D01*
X112223631Y-102640000D01*
X111672318Y-102868361D01*
X111250361Y-103290318D01*
X111022000Y-103841631D01*
X87858990Y-103841631D01*
X87824707Y-103818724D01*
X87489261Y-103752000D01*
X87262739Y-103752000D01*
X86927293Y-103818724D01*
X86546897Y-104072897D01*
X86292724Y-104453293D01*
X86203471Y-104902000D01*
X83750000Y-104902000D01*
X83750000Y-103533812D01*
X83680375Y-103183783D01*
X83415152Y-102786848D01*
X83018216Y-102521625D01*
X82550000Y-102428491D01*
X82081783Y-102521625D01*
X81684848Y-102786848D01*
X81419625Y-103183784D01*
X81350000Y-103533813D01*
X77992186Y-103533813D01*
X77884277Y-103182636D01*
X77507423Y-102726789D01*
X76984810Y-102449857D01*
X76936774Y-102444444D01*
X76704000Y-102554773D01*
X76396000Y-102554773D01*
X76163226Y-102444444D01*
X76115190Y-102449857D01*
X75592577Y-102726789D01*
X75215723Y-103182636D01*
X75042000Y-103748000D01*
X68955000Y-103748000D01*
X68955000Y-101512000D01*
X86220123Y-101512000D01*
X86220123Y-103212000D01*
X86243407Y-103329054D01*
X86309712Y-103428288D01*
X86408946Y-103494593D01*
X86526000Y-103517877D01*
X88226000Y-103517877D01*
X88343054Y-103494593D01*
X88442288Y-103428288D01*
X88508593Y-103329054D01*
X88531877Y-103212000D01*
X88531877Y-101512000D01*
X88508593Y-101394946D01*
X88442288Y-101295712D01*
X88343054Y-101229407D01*
X88226000Y-101206123D01*
X86526000Y-101206123D01*
X86408946Y-101229407D01*
X86309712Y-101295712D01*
X86243407Y-101394946D01*
X86220123Y-101512000D01*
X68955000Y-101512000D01*
X68955000Y-100031631D01*
X111022000Y-100031631D01*
X111022000Y-100628369D01*
X111250361Y-101179682D01*
X111672318Y-101601639D01*
X112223631Y-101830000D01*
X112820369Y-101830000D01*
X113371682Y-101601639D01*
X113793639Y-101179682D01*
X114022000Y-100628369D01*
X114022000Y-100031631D01*
X124738000Y-100031631D01*
X124738000Y-100628369D01*
X124966361Y-101179682D01*
X125388318Y-101601639D01*
X125939631Y-101830000D01*
X126536369Y-101830000D01*
X127087682Y-101601639D01*
X127509639Y-101179682D01*
X127738000Y-100628369D01*
X127738000Y-100031631D01*
X127509639Y-99480318D01*
X127087682Y-99058361D01*
X126536369Y-98830000D01*
X125939631Y-98830000D01*
X125388318Y-99058361D01*
X124966361Y-99480318D01*
X124738000Y-100031631D01*
X114022000Y-100031631D01*
X113793639Y-99480318D01*
X113371682Y-99058361D01*
X112820369Y-98830000D01*
X112223631Y-98830000D01*
X111672318Y-99058361D01*
X111250361Y-99480318D01*
X111022000Y-100031631D01*
X68955000Y-100031631D01*
X68955000Y-95820000D01*
X85989123Y-95820000D01*
X85989123Y-97220000D01*
X86012407Y-97337054D01*
X86078712Y-97436288D01*
X86177946Y-97502593D01*
X86295000Y-97525877D01*
X87695000Y-97525877D01*
X87812054Y-97502593D01*
X87911288Y-97436288D01*
X87977593Y-97337054D01*
X88000877Y-97220000D01*
X88000877Y-96321088D01*
X88535000Y-96321088D01*
X88535000Y-96718912D01*
X88687241Y-97086454D01*
X88968546Y-97367759D01*
X89336088Y-97520000D01*
X89733912Y-97520000D01*
X90101454Y-97367759D01*
X90382759Y-97086454D01*
X90535000Y-96718912D01*
X90535000Y-96321088D01*
X91075000Y-96321088D01*
X91075000Y-96718912D01*
X91227241Y-97086454D01*
X91508546Y-97367759D01*
X91876088Y-97520000D01*
X92273912Y-97520000D01*
X92641454Y-97367759D01*
X92922759Y-97086454D01*
X93075000Y-96718912D01*
X93075000Y-96321088D01*
X93033804Y-96221631D01*
X111022000Y-96221631D01*
X111022000Y-96818369D01*
X111250361Y-97369682D01*
X111672318Y-97791639D01*
X112223631Y-98020000D01*
X112820369Y-98020000D01*
X113371682Y-97791639D01*
X113793639Y-97369682D01*
X114022000Y-96818369D01*
X114022000Y-96221631D01*
X113793639Y-95670318D01*
X113371682Y-95248361D01*
X112820369Y-95020000D01*
X112223631Y-95020000D01*
X111672318Y-95248361D01*
X111250361Y-95670318D01*
X111022000Y-96221631D01*
X93033804Y-96221631D01*
X92922759Y-95953546D01*
X92641454Y-95672241D01*
X92273912Y-95520000D01*
X91876088Y-95520000D01*
X91508546Y-95672241D01*
X91227241Y-95953546D01*
X91075000Y-96321088D01*
X90535000Y-96321088D01*
X90382759Y-95953546D01*
X90101454Y-95672241D01*
X89733912Y-95520000D01*
X89336088Y-95520000D01*
X88968546Y-95672241D01*
X88687241Y-95953546D01*
X88535000Y-96321088D01*
X88000877Y-96321088D01*
X88000877Y-95820000D01*
X87977593Y-95702946D01*
X87911288Y-95603712D01*
X87812054Y-95537407D01*
X87695000Y-95514123D01*
X86295000Y-95514123D01*
X86177946Y-95537407D01*
X86078712Y-95603712D01*
X86012407Y-95702946D01*
X85989123Y-95820000D01*
X68955000Y-95820000D01*
X68955000Y-93781088D01*
X85995000Y-93781088D01*
X85995000Y-94178912D01*
X86147241Y-94546454D01*
X86428546Y-94827759D01*
X86796088Y-94980000D01*
X87193912Y-94980000D01*
X87561454Y-94827759D01*
X87842759Y-94546454D01*
X87995000Y-94178912D01*
X87995000Y-93781088D01*
X88535000Y-93781088D01*
X88535000Y-94178912D01*
X88687241Y-94546454D01*
X88968546Y-94827759D01*
X89336088Y-94980000D01*
X89733912Y-94980000D01*
X89885275Y-94917303D01*
X91355486Y-94917303D01*
X91420947Y-95142227D01*
X91915499Y-95304052D01*
X92434333Y-95264303D01*
X92729053Y-95142227D01*
X92794514Y-94917303D01*
X92075000Y-94197789D01*
X91355486Y-94917303D01*
X89885275Y-94917303D01*
X90101454Y-94827759D01*
X90382759Y-94546454D01*
X90535000Y-94178912D01*
X90535000Y-93820499D01*
X90750948Y-93820499D01*
X90790697Y-94339333D01*
X90912773Y-94634053D01*
X91137697Y-94699514D01*
X91857211Y-93980000D01*
X92292789Y-93980000D01*
X93012303Y-94699514D01*
X93237227Y-94634053D01*
X93399052Y-94139501D01*
X93359303Y-93620667D01*
X93345259Y-93586761D01*
X109028000Y-93586761D01*
X109028000Y-93865239D01*
X109134568Y-94122518D01*
X109331482Y-94319432D01*
X109588761Y-94426000D01*
X109867239Y-94426000D01*
X109887557Y-94417584D01*
X110298000Y-94828027D01*
X110298000Y-94881239D01*
X110404568Y-95138518D01*
X110601482Y-95335432D01*
X110858761Y-95442000D01*
X111137239Y-95442000D01*
X111394518Y-95335432D01*
X111591432Y-95138518D01*
X111698000Y-94881239D01*
X111698000Y-94602761D01*
X111591432Y-94345482D01*
X111474111Y-94228161D01*
X115378000Y-94228161D01*
X115378000Y-94506639D01*
X115484568Y-94763918D01*
X115681482Y-94960832D01*
X115701801Y-94969248D01*
X115701800Y-95918152D01*
X115681482Y-95926568D01*
X115484568Y-96123482D01*
X115378000Y-96380761D01*
X115378000Y-96659239D01*
X115484568Y-96916518D01*
X115681482Y-97113432D01*
X115938761Y-97220000D01*
X116217239Y-97220000D01*
X116474518Y-97113432D01*
X116671432Y-96916518D01*
X116778000Y-96659239D01*
X116778000Y-96380761D01*
X116712087Y-96221631D01*
X124738000Y-96221631D01*
X124738000Y-96818369D01*
X124966361Y-97369682D01*
X125388318Y-97791639D01*
X125939631Y-98020000D01*
X126536369Y-98020000D01*
X127087682Y-97791639D01*
X127509639Y-97369682D01*
X127738000Y-96818369D01*
X127738000Y-96221631D01*
X127509639Y-95670318D01*
X127087682Y-95248361D01*
X126536369Y-95020000D01*
X125939631Y-95020000D01*
X125388318Y-95248361D01*
X124966361Y-95670318D01*
X124738000Y-96221631D01*
X116712087Y-96221631D01*
X116671432Y-96123482D01*
X116474518Y-95926568D01*
X116454200Y-95918152D01*
X116454200Y-94969248D01*
X116474518Y-94960832D01*
X116671432Y-94763918D01*
X116778000Y-94506639D01*
X116778000Y-94228161D01*
X116671432Y-93970882D01*
X116511312Y-93810762D01*
X134936000Y-93810762D01*
X134936000Y-94089240D01*
X135042568Y-94346519D01*
X135239482Y-94543433D01*
X135259800Y-94551849D01*
X135259801Y-95974944D01*
X135252430Y-96012000D01*
X135281628Y-96158785D01*
X135281629Y-96158786D01*
X135364776Y-96283225D01*
X135396187Y-96304213D01*
X135452416Y-96360442D01*
X135444000Y-96380761D01*
X135444000Y-96659239D01*
X135550568Y-96916518D01*
X135747482Y-97113432D01*
X136004761Y-97220000D01*
X136283239Y-97220000D01*
X136540518Y-97113432D01*
X136737432Y-96916518D01*
X136844000Y-96659239D01*
X136844000Y-96380761D01*
X136737432Y-96123482D01*
X136540518Y-95926568D01*
X136283239Y-95820000D01*
X136012200Y-95820000D01*
X136012200Y-94551849D01*
X136032518Y-94543433D01*
X136229432Y-94346519D01*
X136336000Y-94089240D01*
X136336000Y-93810762D01*
X136229432Y-93553483D01*
X136032518Y-93356569D01*
X135775239Y-93250001D01*
X135496761Y-93250001D01*
X135239482Y-93356569D01*
X135042568Y-93553483D01*
X134936000Y-93810762D01*
X116511312Y-93810762D01*
X116474518Y-93773968D01*
X116217239Y-93667400D01*
X115938761Y-93667400D01*
X115681482Y-93773968D01*
X115484568Y-93970882D01*
X115378000Y-94228161D01*
X111474111Y-94228161D01*
X111394518Y-94148568D01*
X111137239Y-94042000D01*
X110858761Y-94042000D01*
X110658837Y-94124811D01*
X110419584Y-93885557D01*
X110428000Y-93865239D01*
X110428000Y-93586761D01*
X110321432Y-93329482D01*
X110124518Y-93132568D01*
X109867239Y-93026000D01*
X109588761Y-93026000D01*
X109331482Y-93132568D01*
X109134568Y-93329482D01*
X109028000Y-93586761D01*
X93345259Y-93586761D01*
X93237227Y-93325947D01*
X93012303Y-93260486D01*
X92292789Y-93980000D01*
X91857211Y-93980000D01*
X91137697Y-93260486D01*
X90912773Y-93325947D01*
X90750948Y-93820499D01*
X90535000Y-93820499D01*
X90535000Y-93781088D01*
X90382759Y-93413546D01*
X90101454Y-93132241D01*
X89885276Y-93042697D01*
X91355486Y-93042697D01*
X92075000Y-93762211D01*
X92794514Y-93042697D01*
X92729053Y-92817773D01*
X92234501Y-92655948D01*
X91715667Y-92695697D01*
X91420947Y-92817773D01*
X91355486Y-93042697D01*
X89885276Y-93042697D01*
X89733912Y-92980000D01*
X89336088Y-92980000D01*
X88968546Y-93132241D01*
X88687241Y-93413546D01*
X88535000Y-93781088D01*
X87995000Y-93781088D01*
X87842759Y-93413546D01*
X87561454Y-93132241D01*
X87193912Y-92980000D01*
X86796088Y-92980000D01*
X86428546Y-93132241D01*
X86147241Y-93413546D01*
X85995000Y-93781088D01*
X68955000Y-93781088D01*
X68955000Y-89249761D01*
X103694000Y-89249761D01*
X103694000Y-89528239D01*
X103800568Y-89785518D01*
X103997482Y-89982432D01*
X104017801Y-89990848D01*
X104017800Y-91092152D01*
X103997482Y-91100568D01*
X103800568Y-91297482D01*
X103694000Y-91554761D01*
X103694000Y-91833239D01*
X103800568Y-92090518D01*
X103997482Y-92287432D01*
X104254761Y-92394000D01*
X104533239Y-92394000D01*
X104790518Y-92287432D01*
X104987432Y-92090518D01*
X105094000Y-91833239D01*
X105094000Y-91554761D01*
X104987432Y-91297482D01*
X104790518Y-91100568D01*
X104770200Y-91092152D01*
X104770200Y-90604761D01*
X114311200Y-90604761D01*
X114311200Y-90883239D01*
X114417768Y-91140518D01*
X114614682Y-91337432D01*
X114635001Y-91345848D01*
X114635000Y-91549352D01*
X114614682Y-91557768D01*
X114417768Y-91754682D01*
X114311200Y-92011961D01*
X114311200Y-92290439D01*
X114417768Y-92547718D01*
X114614682Y-92744632D01*
X114871961Y-92851200D01*
X115150439Y-92851200D01*
X115407718Y-92744632D01*
X115604632Y-92547718D01*
X115711200Y-92290439D01*
X115711200Y-92011961D01*
X115604632Y-91754682D01*
X115407718Y-91557768D01*
X115387400Y-91549352D01*
X115387400Y-91345848D01*
X115407718Y-91337432D01*
X115604632Y-91140518D01*
X115711200Y-90883239D01*
X115711200Y-90811305D01*
X138800000Y-90811305D01*
X138800000Y-91288695D01*
X138982689Y-91729745D01*
X139320255Y-92067311D01*
X139761305Y-92250000D01*
X140238695Y-92250000D01*
X140679745Y-92067311D01*
X141017311Y-91729745D01*
X141200000Y-91288695D01*
X141200000Y-90811305D01*
X141017311Y-90370255D01*
X140679745Y-90032689D01*
X140238695Y-89850000D01*
X139761305Y-89850000D01*
X139320255Y-90032689D01*
X138982689Y-90370255D01*
X138800000Y-90811305D01*
X115711200Y-90811305D01*
X115711200Y-90604761D01*
X115604632Y-90347482D01*
X115407718Y-90150568D01*
X115150439Y-90044000D01*
X114871961Y-90044000D01*
X114614682Y-90150568D01*
X114417768Y-90347482D01*
X114311200Y-90604761D01*
X104770200Y-90604761D01*
X104770200Y-89990848D01*
X104790518Y-89982432D01*
X104987432Y-89785518D01*
X105094000Y-89528239D01*
X105094000Y-89249761D01*
X104987432Y-88992482D01*
X104790518Y-88795568D01*
X104533239Y-88689000D01*
X104254761Y-88689000D01*
X103997482Y-88795568D01*
X103800568Y-88992482D01*
X103694000Y-89249761D01*
X68955000Y-89249761D01*
X68955000Y-86396937D01*
X69010581Y-86117511D01*
X69147940Y-85911940D01*
X69353512Y-85774581D01*
X69632936Y-85719000D01*
X167095063Y-85719000D01*
X167374489Y-85774581D01*
X167374489Y-85774581D01*
G37*
X167374489Y-85774581D02*
X167580060Y-85911940D01*
X167717419Y-86117512D01*
X167773000Y-86396936D01*
X167773001Y-115533059D01*
X167717419Y-115812488D01*
X167580060Y-116018060D01*
X167374489Y-116155419D01*
X167095063Y-116211000D01*
X69632936Y-116211000D01*
X69353512Y-116155419D01*
X69147940Y-116018060D01*
X69010581Y-115812489D01*
X68955000Y-115533063D01*
X68955000Y-110811305D01*
X138800000Y-110811305D01*
X138800000Y-111288695D01*
X138982689Y-111729745D01*
X139320255Y-112067311D01*
X139761305Y-112250000D01*
X140238695Y-112250000D01*
X140679745Y-112067311D01*
X141017311Y-111729745D01*
X141200000Y-111288695D01*
X141200000Y-110811305D01*
X141017311Y-110370255D01*
X140679745Y-110032689D01*
X140238695Y-109850000D01*
X139761305Y-109850000D01*
X139320255Y-110032689D01*
X138982689Y-110370255D01*
X138800000Y-110811305D01*
X68955000Y-110811305D01*
X68955000Y-109384489D01*
X99097672Y-109384489D01*
X99097672Y-109662967D01*
X99204240Y-109920246D01*
X99401154Y-110117160D01*
X99658433Y-110223728D01*
X99936911Y-110223728D01*
X100194190Y-110117160D01*
X100391104Y-109920246D01*
X100497672Y-109662967D01*
X100497672Y-109384489D01*
X100489256Y-109364171D01*
X100754631Y-109098796D01*
X100774949Y-109107212D01*
X101053427Y-109107212D01*
X101310706Y-109000644D01*
X101507620Y-108803730D01*
X101614188Y-108546451D01*
X101614188Y-108267973D01*
X101507620Y-108010694D01*
X101310706Y-107813780D01*
X101053427Y-107707212D01*
X100774949Y-107707212D01*
X100517670Y-107813780D01*
X100320756Y-108010694D01*
X100214188Y-108267973D01*
X100214188Y-108546451D01*
X100222604Y-108566769D01*
X99957229Y-108832144D01*
X99936911Y-108823728D01*
X99658433Y-108823728D01*
X99401154Y-108930296D01*
X99204240Y-109127210D01*
X99097672Y-109384489D01*
X68955000Y-109384489D01*
X68955000Y-107442000D01*
X86203471Y-107442000D01*
X86292724Y-107890707D01*
X86546897Y-108271103D01*
X86927293Y-108525276D01*
X87262739Y-108592000D01*
X87489261Y-108592000D01*
X87824707Y-108525276D01*
X88205103Y-108271103D01*
X88459276Y-107890707D01*
X88506830Y-107651631D01*
X111022000Y-107651631D01*
X111022000Y-108248369D01*
X111250361Y-108799682D01*
X111672318Y-109221639D01*
X112223631Y-109450000D01*
X112820369Y-109450000D01*
X113371682Y-109221639D01*
X113793639Y-108799682D01*
X114022000Y-108248369D01*
X114022000Y-107950000D01*
X116175471Y-107950000D01*
X116264724Y-108398707D01*
X116518897Y-108779103D01*
X116899293Y-109033276D01*
X117234739Y-109100000D01*
X117461261Y-109100000D01*
X117796707Y-109033276D01*
X118177103Y-108779103D01*
X118431276Y-108398707D01*
X118520529Y-107950000D01*
X118715471Y-107950000D01*
X118804724Y-108398707D01*
X119058897Y-108779103D01*
X119439293Y-109033276D01*
X119774739Y-109100000D01*
X120001261Y-109100000D01*
X120336707Y-109033276D01*
X120717103Y-108779103D01*
X120971276Y-108398707D01*
X121060529Y-107950000D01*
X120971276Y-107501293D01*
X120717103Y-107120897D01*
X120685829Y-107100000D01*
X121272123Y-107100000D01*
X121272123Y-108800000D01*
X121295407Y-108917054D01*
X121361712Y-109016288D01*
X121460946Y-109082593D01*
X121578000Y-109105877D01*
X123278000Y-109105877D01*
X123395054Y-109082593D01*
X123494288Y-109016288D01*
X123560593Y-108917054D01*
X123583877Y-108800000D01*
X123583877Y-107651631D01*
X124738000Y-107651631D01*
X124738000Y-108248369D01*
X124966361Y-108799682D01*
X125388318Y-109221639D01*
X125939631Y-109450000D01*
X126536369Y-109450000D01*
X127087682Y-109221639D01*
X127509639Y-108799682D01*
X127738000Y-108248369D01*
X127738000Y-107651631D01*
X127509639Y-107100318D01*
X127087682Y-106678361D01*
X126536369Y-106450000D01*
X125939631Y-106450000D01*
X125388318Y-106678361D01*
X124966361Y-107100318D01*
X124738000Y-107651631D01*
X123583877Y-107651631D01*
X123583877Y-107100000D01*
X123560593Y-106982946D01*
X123494288Y-106883712D01*
X123395054Y-106817407D01*
X123278000Y-106794123D01*
X121578000Y-106794123D01*
X121460946Y-106817407D01*
X121361712Y-106883712D01*
X121295407Y-106982946D01*
X121272123Y-107100000D01*
X120685829Y-107100000D01*
X120336707Y-106866724D01*
X120001261Y-106800000D01*
X119774739Y-106800000D01*
X119439293Y-106866724D01*
X119058897Y-107120897D01*
X118804724Y-107501293D01*
X118715471Y-107950000D01*
X118520529Y-107950000D01*
X118431276Y-107501293D01*
X118177103Y-107120897D01*
X117796707Y-106866724D01*
X117461261Y-106800000D01*
X117234739Y-106800000D01*
X116899293Y-106866724D01*
X116518897Y-107120897D01*
X116264724Y-107501293D01*
X116175471Y-107950000D01*
X114022000Y-107950000D01*
X114022000Y-107651631D01*
X113793639Y-107100318D01*
X113371682Y-106678361D01*
X112820369Y-106450000D01*
X112223631Y-106450000D01*
X111672318Y-106678361D01*
X111250361Y-107100318D01*
X111022000Y-107651631D01*
X88506830Y-107651631D01*
X88548529Y-107442000D01*
X88459276Y-106993293D01*
X88205103Y-106612897D01*
X87824707Y-106358724D01*
X87489261Y-106292000D01*
X87262739Y-106292000D01*
X86927293Y-106358724D01*
X86546897Y-106612897D01*
X86292724Y-106993293D01*
X86203471Y-107442000D01*
X68955000Y-107442000D01*
X68955000Y-105056000D01*
X75042000Y-105056000D01*
X75042000Y-106056000D01*
X75215723Y-106621364D01*
X75592577Y-107077211D01*
X76115190Y-107354143D01*
X76163226Y-107359556D01*
X76396000Y-107249227D01*
X76396000Y-105056000D01*
X76704000Y-105056000D01*
X76704000Y-107249227D01*
X76936774Y-107359556D01*
X76984810Y-107354143D01*
X77507423Y-107077211D01*
X77884277Y-106621364D01*
X78058000Y-106056000D01*
X78058000Y-105056000D01*
X76704000Y-105056000D01*
X76396000Y-105056000D01*
X75042000Y-105056000D01*
X68955000Y-105056000D01*
X68955000Y-103748000D01*
X75042000Y-103748000D01*
X75042000Y-104748000D01*
X76396000Y-104748000D01*
X76396000Y-102554773D01*
X76704000Y-102554773D01*
X76704000Y-104748000D01*
X78058000Y-104748000D01*
X78058000Y-103748000D01*
X77992186Y-103533813D01*
X81350000Y-103533813D01*
X81350001Y-106270188D01*
X81419626Y-106620217D01*
X81684849Y-107017152D01*
X82081784Y-107282375D01*
X82550000Y-107375509D01*
X83018217Y-107282375D01*
X83415152Y-107017152D01*
X83680375Y-106620217D01*
X83750000Y-106270188D01*
X83750000Y-104902000D01*
X86203471Y-104902000D01*
X86292724Y-105350707D01*
X86546897Y-105731103D01*
X86927293Y-105985276D01*
X87262739Y-106052000D01*
X87489261Y-106052000D01*
X87824707Y-105985276D01*
X88205103Y-105731103D01*
X88459276Y-105350707D01*
X88548529Y-104902000D01*
X88459276Y-104453293D01*
X88205103Y-104072897D01*
X87858990Y-103841631D01*
X111022000Y-103841631D01*
X111022000Y-104438369D01*
X111250361Y-104989682D01*
X111672318Y-105411639D01*
X112223631Y-105640000D01*
X112820369Y-105640000D01*
X113371682Y-105411639D01*
X113793639Y-104989682D01*
X114022000Y-104438369D01*
X114022000Y-103841631D01*
X124738000Y-103841631D01*
X124738000Y-104438369D01*
X124966361Y-104989682D01*
X125388318Y-105411639D01*
X125939631Y-105640000D01*
X126536369Y-105640000D01*
X127087682Y-105411639D01*
X127509639Y-104989682D01*
X127738000Y-104438369D01*
X127738000Y-103841631D01*
X127526971Y-103332161D01*
X131888000Y-103332161D01*
X131888000Y-103610639D01*
X131994568Y-103867918D01*
X132191482Y-104064832D01*
X132211801Y-104073248D01*
X132211800Y-104554152D01*
X132191482Y-104562568D01*
X131994568Y-104759482D01*
X131888000Y-105016761D01*
X131888000Y-105295239D01*
X131994568Y-105552518D01*
X132191482Y-105749432D01*
X132448761Y-105856000D01*
X132727239Y-105856000D01*
X132984518Y-105749432D01*
X133064202Y-105669749D01*
X133143885Y-105749432D01*
X133401164Y-105856000D01*
X133679642Y-105856000D01*
X133936921Y-105749432D01*
X134133835Y-105552518D01*
X134240403Y-105295239D01*
X134240403Y-105016761D01*
X134133835Y-104759482D01*
X133936921Y-104562568D01*
X133916603Y-104554152D01*
X133916603Y-104099591D01*
X134000518Y-104064832D01*
X134197432Y-103867918D01*
X134304000Y-103610639D01*
X134304000Y-103332161D01*
X134197432Y-103074882D01*
X134000518Y-102877968D01*
X133743239Y-102771400D01*
X133464761Y-102771400D01*
X133207482Y-102877968D01*
X133096000Y-102989450D01*
X132984518Y-102877968D01*
X132727239Y-102771400D01*
X132448761Y-102771400D01*
X132191482Y-102877968D01*
X131994568Y-103074882D01*
X131888000Y-103332161D01*
X127526971Y-103332161D01*
X127509639Y-103290318D01*
X127087682Y-102868361D01*
X126536369Y-102640000D01*
X125939631Y-102640000D01*
X125388318Y-102868361D01*
X124966361Y-103290318D01*
X124738000Y-103841631D01*
X114022000Y-103841631D01*
X113793639Y-103290318D01*
X113371682Y-102868361D01*
X112820369Y-102640000D01*
X112223631Y-102640000D01*
X111672318Y-102868361D01*
X111250361Y-103290318D01*
X111022000Y-103841631D01*
X87858990Y-103841631D01*
X87824707Y-103818724D01*
X87489261Y-103752000D01*
X87262739Y-103752000D01*
X86927293Y-103818724D01*
X86546897Y-104072897D01*
X86292724Y-104453293D01*
X86203471Y-104902000D01*
X83750000Y-104902000D01*
X83750000Y-103533812D01*
X83680375Y-103183783D01*
X83415152Y-102786848D01*
X83018216Y-102521625D01*
X82550000Y-102428491D01*
X82081783Y-102521625D01*
X81684848Y-102786848D01*
X81419625Y-103183784D01*
X81350000Y-103533813D01*
X77992186Y-103533813D01*
X77884277Y-103182636D01*
X77507423Y-102726789D01*
X76984810Y-102449857D01*
X76936774Y-102444444D01*
X76704000Y-102554773D01*
X76396000Y-102554773D01*
X76163226Y-102444444D01*
X76115190Y-102449857D01*
X75592577Y-102726789D01*
X75215723Y-103182636D01*
X75042000Y-103748000D01*
X68955000Y-103748000D01*
X68955000Y-101512000D01*
X86220123Y-101512000D01*
X86220123Y-103212000D01*
X86243407Y-103329054D01*
X86309712Y-103428288D01*
X86408946Y-103494593D01*
X86526000Y-103517877D01*
X88226000Y-103517877D01*
X88343054Y-103494593D01*
X88442288Y-103428288D01*
X88508593Y-103329054D01*
X88531877Y-103212000D01*
X88531877Y-101512000D01*
X88508593Y-101394946D01*
X88442288Y-101295712D01*
X88343054Y-101229407D01*
X88226000Y-101206123D01*
X86526000Y-101206123D01*
X86408946Y-101229407D01*
X86309712Y-101295712D01*
X86243407Y-101394946D01*
X86220123Y-101512000D01*
X68955000Y-101512000D01*
X68955000Y-100031631D01*
X111022000Y-100031631D01*
X111022000Y-100628369D01*
X111250361Y-101179682D01*
X111672318Y-101601639D01*
X112223631Y-101830000D01*
X112820369Y-101830000D01*
X113371682Y-101601639D01*
X113793639Y-101179682D01*
X114022000Y-100628369D01*
X114022000Y-100031631D01*
X124738000Y-100031631D01*
X124738000Y-100628369D01*
X124966361Y-101179682D01*
X125388318Y-101601639D01*
X125939631Y-101830000D01*
X126536369Y-101830000D01*
X127087682Y-101601639D01*
X127509639Y-101179682D01*
X127738000Y-100628369D01*
X127738000Y-100031631D01*
X127509639Y-99480318D01*
X127087682Y-99058361D01*
X126536369Y-98830000D01*
X125939631Y-98830000D01*
X125388318Y-99058361D01*
X124966361Y-99480318D01*
X124738000Y-100031631D01*
X114022000Y-100031631D01*
X113793639Y-99480318D01*
X113371682Y-99058361D01*
X112820369Y-98830000D01*
X112223631Y-98830000D01*
X111672318Y-99058361D01*
X111250361Y-99480318D01*
X111022000Y-100031631D01*
X68955000Y-100031631D01*
X68955000Y-95820000D01*
X85989123Y-95820000D01*
X85989123Y-97220000D01*
X86012407Y-97337054D01*
X86078712Y-97436288D01*
X86177946Y-97502593D01*
X86295000Y-97525877D01*
X87695000Y-97525877D01*
X87812054Y-97502593D01*
X87911288Y-97436288D01*
X87977593Y-97337054D01*
X88000877Y-97220000D01*
X88000877Y-96321088D01*
X88535000Y-96321088D01*
X88535000Y-96718912D01*
X88687241Y-97086454D01*
X88968546Y-97367759D01*
X89336088Y-97520000D01*
X89733912Y-97520000D01*
X90101454Y-97367759D01*
X90382759Y-97086454D01*
X90535000Y-96718912D01*
X90535000Y-96321088D01*
X91075000Y-96321088D01*
X91075000Y-96718912D01*
X91227241Y-97086454D01*
X91508546Y-97367759D01*
X91876088Y-97520000D01*
X92273912Y-97520000D01*
X92641454Y-97367759D01*
X92922759Y-97086454D01*
X93075000Y-96718912D01*
X93075000Y-96321088D01*
X93033804Y-96221631D01*
X111022000Y-96221631D01*
X111022000Y-96818369D01*
X111250361Y-97369682D01*
X111672318Y-97791639D01*
X112223631Y-98020000D01*
X112820369Y-98020000D01*
X113371682Y-97791639D01*
X113793639Y-97369682D01*
X114022000Y-96818369D01*
X114022000Y-96221631D01*
X113793639Y-95670318D01*
X113371682Y-95248361D01*
X112820369Y-95020000D01*
X112223631Y-95020000D01*
X111672318Y-95248361D01*
X111250361Y-95670318D01*
X111022000Y-96221631D01*
X93033804Y-96221631D01*
X92922759Y-95953546D01*
X92641454Y-95672241D01*
X92273912Y-95520000D01*
X91876088Y-95520000D01*
X91508546Y-95672241D01*
X91227241Y-95953546D01*
X91075000Y-96321088D01*
X90535000Y-96321088D01*
X90382759Y-95953546D01*
X90101454Y-95672241D01*
X89733912Y-95520000D01*
X89336088Y-95520000D01*
X88968546Y-95672241D01*
X88687241Y-95953546D01*
X88535000Y-96321088D01*
X88000877Y-96321088D01*
X88000877Y-95820000D01*
X87977593Y-95702946D01*
X87911288Y-95603712D01*
X87812054Y-95537407D01*
X87695000Y-95514123D01*
X86295000Y-95514123D01*
X86177946Y-95537407D01*
X86078712Y-95603712D01*
X86012407Y-95702946D01*
X85989123Y-95820000D01*
X68955000Y-95820000D01*
X68955000Y-93781088D01*
X85995000Y-93781088D01*
X85995000Y-94178912D01*
X86147241Y-94546454D01*
X86428546Y-94827759D01*
X86796088Y-94980000D01*
X87193912Y-94980000D01*
X87561454Y-94827759D01*
X87842759Y-94546454D01*
X87995000Y-94178912D01*
X87995000Y-93781088D01*
X88535000Y-93781088D01*
X88535000Y-94178912D01*
X88687241Y-94546454D01*
X88968546Y-94827759D01*
X89336088Y-94980000D01*
X89733912Y-94980000D01*
X89885275Y-94917303D01*
X91355486Y-94917303D01*
X91420947Y-95142227D01*
X91915499Y-95304052D01*
X92434333Y-95264303D01*
X92729053Y-95142227D01*
X92794514Y-94917303D01*
X92075000Y-94197789D01*
X91355486Y-94917303D01*
X89885275Y-94917303D01*
X90101454Y-94827759D01*
X90382759Y-94546454D01*
X90535000Y-94178912D01*
X90535000Y-93820499D01*
X90750948Y-93820499D01*
X90790697Y-94339333D01*
X90912773Y-94634053D01*
X91137697Y-94699514D01*
X91857211Y-93980000D01*
X92292789Y-93980000D01*
X93012303Y-94699514D01*
X93237227Y-94634053D01*
X93399052Y-94139501D01*
X93359303Y-93620667D01*
X93345259Y-93586761D01*
X109028000Y-93586761D01*
X109028000Y-93865239D01*
X109134568Y-94122518D01*
X109331482Y-94319432D01*
X109588761Y-94426000D01*
X109867239Y-94426000D01*
X109887557Y-94417584D01*
X110298000Y-94828027D01*
X110298000Y-94881239D01*
X110404568Y-95138518D01*
X110601482Y-95335432D01*
X110858761Y-95442000D01*
X111137239Y-95442000D01*
X111394518Y-95335432D01*
X111591432Y-95138518D01*
X111698000Y-94881239D01*
X111698000Y-94602761D01*
X111591432Y-94345482D01*
X111474111Y-94228161D01*
X115378000Y-94228161D01*
X115378000Y-94506639D01*
X115484568Y-94763918D01*
X115681482Y-94960832D01*
X115701801Y-94969248D01*
X115701800Y-95918152D01*
X115681482Y-95926568D01*
X115484568Y-96123482D01*
X115378000Y-96380761D01*
X115378000Y-96659239D01*
X115484568Y-96916518D01*
X115681482Y-97113432D01*
X115938761Y-97220000D01*
X116217239Y-97220000D01*
X116474518Y-97113432D01*
X116671432Y-96916518D01*
X116778000Y-96659239D01*
X116778000Y-96380761D01*
X116712087Y-96221631D01*
X124738000Y-96221631D01*
X124738000Y-96818369D01*
X124966361Y-97369682D01*
X125388318Y-97791639D01*
X125939631Y-98020000D01*
X126536369Y-98020000D01*
X127087682Y-97791639D01*
X127509639Y-97369682D01*
X127738000Y-96818369D01*
X127738000Y-96221631D01*
X127509639Y-95670318D01*
X127087682Y-95248361D01*
X126536369Y-95020000D01*
X125939631Y-95020000D01*
X125388318Y-95248361D01*
X124966361Y-95670318D01*
X124738000Y-96221631D01*
X116712087Y-96221631D01*
X116671432Y-96123482D01*
X116474518Y-95926568D01*
X116454200Y-95918152D01*
X116454200Y-94969248D01*
X116474518Y-94960832D01*
X116671432Y-94763918D01*
X116778000Y-94506639D01*
X116778000Y-94228161D01*
X116671432Y-93970882D01*
X116511312Y-93810762D01*
X134936000Y-93810762D01*
X134936000Y-94089240D01*
X135042568Y-94346519D01*
X135239482Y-94543433D01*
X135259800Y-94551849D01*
X135259801Y-95974944D01*
X135252430Y-96012000D01*
X135281628Y-96158785D01*
X135281629Y-96158786D01*
X135364776Y-96283225D01*
X135396187Y-96304213D01*
X135452416Y-96360442D01*
X135444000Y-96380761D01*
X135444000Y-96659239D01*
X135550568Y-96916518D01*
X135747482Y-97113432D01*
X136004761Y-97220000D01*
X136283239Y-97220000D01*
X136540518Y-97113432D01*
X136737432Y-96916518D01*
X136844000Y-96659239D01*
X136844000Y-96380761D01*
X136737432Y-96123482D01*
X136540518Y-95926568D01*
X136283239Y-95820000D01*
X136012200Y-95820000D01*
X136012200Y-94551849D01*
X136032518Y-94543433D01*
X136229432Y-94346519D01*
X136336000Y-94089240D01*
X136336000Y-93810762D01*
X136229432Y-93553483D01*
X136032518Y-93356569D01*
X135775239Y-93250001D01*
X135496761Y-93250001D01*
X135239482Y-93356569D01*
X135042568Y-93553483D01*
X134936000Y-93810762D01*
X116511312Y-93810762D01*
X116474518Y-93773968D01*
X116217239Y-93667400D01*
X115938761Y-93667400D01*
X115681482Y-93773968D01*
X115484568Y-93970882D01*
X115378000Y-94228161D01*
X111474111Y-94228161D01*
X111394518Y-94148568D01*
X111137239Y-94042000D01*
X110858761Y-94042000D01*
X110658837Y-94124811D01*
X110419584Y-93885557D01*
X110428000Y-93865239D01*
X110428000Y-93586761D01*
X110321432Y-93329482D01*
X110124518Y-93132568D01*
X109867239Y-93026000D01*
X109588761Y-93026000D01*
X109331482Y-93132568D01*
X109134568Y-93329482D01*
X109028000Y-93586761D01*
X93345259Y-93586761D01*
X93237227Y-93325947D01*
X93012303Y-93260486D01*
X92292789Y-93980000D01*
X91857211Y-93980000D01*
X91137697Y-93260486D01*
X90912773Y-93325947D01*
X90750948Y-93820499D01*
X90535000Y-93820499D01*
X90535000Y-93781088D01*
X90382759Y-93413546D01*
X90101454Y-93132241D01*
X89885276Y-93042697D01*
X91355486Y-93042697D01*
X92075000Y-93762211D01*
X92794514Y-93042697D01*
X92729053Y-92817773D01*
X92234501Y-92655948D01*
X91715667Y-92695697D01*
X91420947Y-92817773D01*
X91355486Y-93042697D01*
X89885276Y-93042697D01*
X89733912Y-92980000D01*
X89336088Y-92980000D01*
X88968546Y-93132241D01*
X88687241Y-93413546D01*
X88535000Y-93781088D01*
X87995000Y-93781088D01*
X87842759Y-93413546D01*
X87561454Y-93132241D01*
X87193912Y-92980000D01*
X86796088Y-92980000D01*
X86428546Y-93132241D01*
X86147241Y-93413546D01*
X85995000Y-93781088D01*
X68955000Y-93781088D01*
X68955000Y-89249761D01*
X103694000Y-89249761D01*
X103694000Y-89528239D01*
X103800568Y-89785518D01*
X103997482Y-89982432D01*
X104017801Y-89990848D01*
X104017800Y-91092152D01*
X103997482Y-91100568D01*
X103800568Y-91297482D01*
X103694000Y-91554761D01*
X103694000Y-91833239D01*
X103800568Y-92090518D01*
X103997482Y-92287432D01*
X104254761Y-92394000D01*
X104533239Y-92394000D01*
X104790518Y-92287432D01*
X104987432Y-92090518D01*
X105094000Y-91833239D01*
X105094000Y-91554761D01*
X104987432Y-91297482D01*
X104790518Y-91100568D01*
X104770200Y-91092152D01*
X104770200Y-90604761D01*
X114311200Y-90604761D01*
X114311200Y-90883239D01*
X114417768Y-91140518D01*
X114614682Y-91337432D01*
X114635001Y-91345848D01*
X114635000Y-91549352D01*
X114614682Y-91557768D01*
X114417768Y-91754682D01*
X114311200Y-92011961D01*
X114311200Y-92290439D01*
X114417768Y-92547718D01*
X114614682Y-92744632D01*
X114871961Y-92851200D01*
X115150439Y-92851200D01*
X115407718Y-92744632D01*
X115604632Y-92547718D01*
X115711200Y-92290439D01*
X115711200Y-92011961D01*
X115604632Y-91754682D01*
X115407718Y-91557768D01*
X115387400Y-91549352D01*
X115387400Y-91345848D01*
X115407718Y-91337432D01*
X115604632Y-91140518D01*
X115711200Y-90883239D01*
X115711200Y-90811305D01*
X138800000Y-90811305D01*
X138800000Y-91288695D01*
X138982689Y-91729745D01*
X139320255Y-92067311D01*
X139761305Y-92250000D01*
X140238695Y-92250000D01*
X140679745Y-92067311D01*
X141017311Y-91729745D01*
X141200000Y-91288695D01*
X141200000Y-90811305D01*
X141017311Y-90370255D01*
X140679745Y-90032689D01*
X140238695Y-89850000D01*
X139761305Y-89850000D01*
X139320255Y-90032689D01*
X138982689Y-90370255D01*
X138800000Y-90811305D01*
X115711200Y-90811305D01*
X115711200Y-90604761D01*
X115604632Y-90347482D01*
X115407718Y-90150568D01*
X115150439Y-90044000D01*
X114871961Y-90044000D01*
X114614682Y-90150568D01*
X114417768Y-90347482D01*
X114311200Y-90604761D01*
X104770200Y-90604761D01*
X104770200Y-89990848D01*
X104790518Y-89982432D01*
X104987432Y-89785518D01*
X105094000Y-89528239D01*
X105094000Y-89249761D01*
X104987432Y-88992482D01*
X104790518Y-88795568D01*
X104533239Y-88689000D01*
X104254761Y-88689000D01*
X103997482Y-88795568D01*
X103800568Y-88992482D01*
X103694000Y-89249761D01*
X68955000Y-89249761D01*
X68955000Y-86396937D01*
X69010581Y-86117511D01*
X69147940Y-85911940D01*
X69353512Y-85774581D01*
X69632936Y-85719000D01*
X167095063Y-85719000D01*
X167374489Y-85774581D01*
G04 #@! TD*
M02*
