G04 #@! TF.GenerationSoftware,KiCad,Pcbnew,5.0.2-bee76a0~70~ubuntu18.04.1*
G04 #@! TF.CreationDate,2019-04-30T11:13:38-04:00*
G04 #@! TF.ProjectId,AIR_Mount_Minus,4149525f-4d6f-4756-9e74-5f4d696e7573,rev?*
G04 #@! TF.SameCoordinates,Original*
G04 #@! TF.FileFunction,Soldermask,Top*
G04 #@! TF.FilePolarity,Negative*
%FSLAX46Y46*%
G04 Gerber Fmt 4.6, Leading zero omitted, Abs format (unit mm)*
G04 Created by KiCad (PCBNEW 5.0.2-bee76a0~70~ubuntu18.04.1) date Tue 30 Apr 2019 11:13:38 AM EDT*
%MOMM*%
%LPD*%
G01*
G04 APERTURE LIST*
%ADD10C,0.100000*%
G04 APERTURE END LIST*
D10*
G36*
X209202521Y-123614586D02*
X209366309Y-123682429D01*
X209513720Y-123780926D01*
X209639074Y-123906280D01*
X209737571Y-124053691D01*
X209805414Y-124217479D01*
X209840000Y-124391356D01*
X209840000Y-124568644D01*
X209805414Y-124742521D01*
X209737571Y-124906309D01*
X209639074Y-125053720D01*
X209513720Y-125179074D01*
X209366309Y-125277571D01*
X209202521Y-125345414D01*
X209028644Y-125380000D01*
X208851356Y-125380000D01*
X208677479Y-125345414D01*
X208513691Y-125277571D01*
X208366280Y-125179074D01*
X208240926Y-125053720D01*
X208142429Y-124906309D01*
X208074586Y-124742521D01*
X208040000Y-124568644D01*
X208040000Y-124391356D01*
X208074586Y-124217479D01*
X208142429Y-124053691D01*
X208240926Y-123906280D01*
X208366280Y-123780926D01*
X208513691Y-123682429D01*
X208677479Y-123614586D01*
X208851356Y-123580000D01*
X209028644Y-123580000D01*
X209202521Y-123614586D01*
X209202521Y-123614586D01*
G37*
G36*
X206202521Y-123614586D02*
X206366309Y-123682429D01*
X206513720Y-123780926D01*
X206639074Y-123906280D01*
X206737571Y-124053691D01*
X206805414Y-124217479D01*
X206840000Y-124391356D01*
X206840000Y-124568644D01*
X206805414Y-124742521D01*
X206737571Y-124906309D01*
X206639074Y-125053720D01*
X206513720Y-125179074D01*
X206366309Y-125277571D01*
X206202521Y-125345414D01*
X206028644Y-125380000D01*
X205851356Y-125380000D01*
X205677479Y-125345414D01*
X205513691Y-125277571D01*
X205366280Y-125179074D01*
X205240926Y-125053720D01*
X205142429Y-124906309D01*
X205074586Y-124742521D01*
X205040000Y-124568644D01*
X205040000Y-124391356D01*
X205074586Y-124217479D01*
X205142429Y-124053691D01*
X205240926Y-123906280D01*
X205366280Y-123780926D01*
X205513691Y-123682429D01*
X205677479Y-123614586D01*
X205851356Y-123580000D01*
X206028644Y-123580000D01*
X206202521Y-123614586D01*
X206202521Y-123614586D01*
G37*
G36*
X200252083Y-122486029D02*
X200415596Y-122553758D01*
X200562764Y-122652093D01*
X200687907Y-122777236D01*
X200786242Y-122924404D01*
X200853971Y-123087917D01*
X200888500Y-123261505D01*
X200888500Y-123438495D01*
X200853971Y-123612083D01*
X200786242Y-123775596D01*
X200786240Y-123775599D01*
X200698920Y-123906283D01*
X200687907Y-123922764D01*
X200562764Y-124047907D01*
X200562761Y-124047909D01*
X200562760Y-124047910D01*
X200554108Y-124053691D01*
X200415596Y-124146242D01*
X200252083Y-124213971D01*
X200078495Y-124248500D01*
X199901505Y-124248500D01*
X199727917Y-124213971D01*
X199564404Y-124146242D01*
X199425892Y-124053691D01*
X199417240Y-124047910D01*
X199417239Y-124047909D01*
X199417236Y-124047907D01*
X199292093Y-123922764D01*
X199281081Y-123906283D01*
X199193760Y-123775599D01*
X199193758Y-123775596D01*
X199126029Y-123612083D01*
X199091500Y-123438495D01*
X199091500Y-123261505D01*
X199126029Y-123087917D01*
X199193758Y-122924404D01*
X199292093Y-122777236D01*
X199417236Y-122652093D01*
X199564404Y-122553758D01*
X199727917Y-122486029D01*
X199901505Y-122451500D01*
X200078495Y-122451500D01*
X200252083Y-122486029D01*
X200252083Y-122486029D01*
G37*
G36*
X196752083Y-122486029D02*
X196915596Y-122553758D01*
X197062764Y-122652093D01*
X197187907Y-122777236D01*
X197286242Y-122924404D01*
X197353971Y-123087917D01*
X197388500Y-123261505D01*
X197388500Y-123438495D01*
X197353971Y-123612083D01*
X197286242Y-123775596D01*
X197286240Y-123775599D01*
X197198920Y-123906283D01*
X197187907Y-123922764D01*
X197062764Y-124047907D01*
X197062761Y-124047909D01*
X197062760Y-124047910D01*
X197054108Y-124053691D01*
X196915596Y-124146242D01*
X196752083Y-124213971D01*
X196578495Y-124248500D01*
X196401505Y-124248500D01*
X196227917Y-124213971D01*
X196064404Y-124146242D01*
X195925892Y-124053691D01*
X195917240Y-124047910D01*
X195917239Y-124047909D01*
X195917236Y-124047907D01*
X195792093Y-123922764D01*
X195781081Y-123906283D01*
X195693760Y-123775599D01*
X195693758Y-123775596D01*
X195626029Y-123612083D01*
X195591500Y-123438495D01*
X195591500Y-123261505D01*
X195626029Y-123087917D01*
X195693758Y-122924404D01*
X195792093Y-122777236D01*
X195917236Y-122652093D01*
X196064404Y-122553758D01*
X196227917Y-122486029D01*
X196401505Y-122451500D01*
X196578495Y-122451500D01*
X196752083Y-122486029D01*
X196752083Y-122486029D01*
G37*
G36*
X193252083Y-122486029D02*
X193415596Y-122553758D01*
X193562764Y-122652093D01*
X193687907Y-122777236D01*
X193786242Y-122924404D01*
X193853971Y-123087917D01*
X193888500Y-123261505D01*
X193888500Y-123438495D01*
X193853971Y-123612083D01*
X193786242Y-123775596D01*
X193786240Y-123775599D01*
X193698920Y-123906283D01*
X193687907Y-123922764D01*
X193562764Y-124047907D01*
X193562761Y-124047909D01*
X193562760Y-124047910D01*
X193554108Y-124053691D01*
X193415596Y-124146242D01*
X193252083Y-124213971D01*
X193078495Y-124248500D01*
X192901505Y-124248500D01*
X192727917Y-124213971D01*
X192564404Y-124146242D01*
X192425892Y-124053691D01*
X192417240Y-124047910D01*
X192417239Y-124047909D01*
X192417236Y-124047907D01*
X192292093Y-123922764D01*
X192281081Y-123906283D01*
X192193760Y-123775599D01*
X192193758Y-123775596D01*
X192126029Y-123612083D01*
X192091500Y-123438495D01*
X192091500Y-123261505D01*
X192126029Y-123087917D01*
X192193758Y-122924404D01*
X192292093Y-122777236D01*
X192417236Y-122652093D01*
X192564404Y-122553758D01*
X192727917Y-122486029D01*
X192901505Y-122451500D01*
X193078495Y-122451500D01*
X193252083Y-122486029D01*
X193252083Y-122486029D01*
G37*
G36*
X189752083Y-122486029D02*
X189915596Y-122553758D01*
X190062764Y-122652093D01*
X190187907Y-122777236D01*
X190286242Y-122924404D01*
X190353971Y-123087917D01*
X190388500Y-123261505D01*
X190388500Y-123438495D01*
X190353971Y-123612083D01*
X190286242Y-123775596D01*
X190286240Y-123775599D01*
X190198920Y-123906283D01*
X190187907Y-123922764D01*
X190062764Y-124047907D01*
X190062761Y-124047909D01*
X190062760Y-124047910D01*
X190054108Y-124053691D01*
X189915596Y-124146242D01*
X189752083Y-124213971D01*
X189578495Y-124248500D01*
X189401505Y-124248500D01*
X189227917Y-124213971D01*
X189064404Y-124146242D01*
X188925892Y-124053691D01*
X188917240Y-124047910D01*
X188917239Y-124047909D01*
X188917236Y-124047907D01*
X188792093Y-123922764D01*
X188781081Y-123906283D01*
X188693760Y-123775599D01*
X188693758Y-123775596D01*
X188626029Y-123612083D01*
X188591500Y-123438495D01*
X188591500Y-123261505D01*
X188626029Y-123087917D01*
X188693758Y-122924404D01*
X188792093Y-122777236D01*
X188917236Y-122652093D01*
X189064404Y-122553758D01*
X189227917Y-122486029D01*
X189401505Y-122451500D01*
X189578495Y-122451500D01*
X189752083Y-122486029D01*
X189752083Y-122486029D01*
G37*
G36*
X213646393Y-119823553D02*
X213755872Y-119845330D01*
X214065252Y-119973479D01*
X214343687Y-120159523D01*
X214580477Y-120396313D01*
X214766521Y-120674748D01*
X214894670Y-120984128D01*
X214894670Y-120984129D01*
X214960000Y-121312563D01*
X214960000Y-121647437D01*
X214941086Y-121742521D01*
X214894670Y-121975872D01*
X214766521Y-122285252D01*
X214580477Y-122563687D01*
X214343687Y-122800477D01*
X214065252Y-122986521D01*
X213755872Y-123114670D01*
X213646393Y-123136447D01*
X213427437Y-123180000D01*
X213092563Y-123180000D01*
X212873607Y-123136447D01*
X212764128Y-123114670D01*
X212454748Y-122986521D01*
X212176313Y-122800477D01*
X211939523Y-122563687D01*
X211753479Y-122285252D01*
X211625330Y-121975872D01*
X211578914Y-121742521D01*
X211560000Y-121647437D01*
X211560000Y-121312563D01*
X211625330Y-120984129D01*
X211625330Y-120984128D01*
X211753479Y-120674748D01*
X211939523Y-120396313D01*
X212176313Y-120159523D01*
X212454748Y-119973479D01*
X212764128Y-119845330D01*
X212873607Y-119823553D01*
X213092563Y-119780000D01*
X213427437Y-119780000D01*
X213646393Y-119823553D01*
X213646393Y-119823553D01*
G37*
G36*
X206202521Y-120614586D02*
X206366309Y-120682429D01*
X206513720Y-120780926D01*
X206639074Y-120906280D01*
X206737571Y-121053691D01*
X206805414Y-121217479D01*
X206840000Y-121391356D01*
X206840000Y-121568644D01*
X206805414Y-121742521D01*
X206737571Y-121906309D01*
X206639074Y-122053720D01*
X206513720Y-122179074D01*
X206366309Y-122277571D01*
X206202521Y-122345414D01*
X206028644Y-122380000D01*
X205851356Y-122380000D01*
X205677479Y-122345414D01*
X205513691Y-122277571D01*
X205366280Y-122179074D01*
X205240926Y-122053720D01*
X205142429Y-121906309D01*
X205074586Y-121742521D01*
X205040000Y-121568644D01*
X205040000Y-121391356D01*
X205074586Y-121217479D01*
X205142429Y-121053691D01*
X205240926Y-120906280D01*
X205366280Y-120780926D01*
X205513691Y-120682429D01*
X205677479Y-120614586D01*
X205851356Y-120580000D01*
X206028644Y-120580000D01*
X206202521Y-120614586D01*
X206202521Y-120614586D01*
G37*
G36*
X209202521Y-120614586D02*
X209366309Y-120682429D01*
X209513720Y-120780926D01*
X209639074Y-120906280D01*
X209737571Y-121053691D01*
X209805414Y-121217479D01*
X209840000Y-121391356D01*
X209840000Y-121568644D01*
X209805414Y-121742521D01*
X209737571Y-121906309D01*
X209639074Y-122053720D01*
X209513720Y-122179074D01*
X209366309Y-122277571D01*
X209202521Y-122345414D01*
X209028644Y-122380000D01*
X208851356Y-122380000D01*
X208677479Y-122345414D01*
X208513691Y-122277571D01*
X208366280Y-122179074D01*
X208240926Y-122053720D01*
X208142429Y-121906309D01*
X208074586Y-121742521D01*
X208040000Y-121568644D01*
X208040000Y-121391356D01*
X208074586Y-121217479D01*
X208142429Y-121053691D01*
X208240926Y-120906280D01*
X208366280Y-120780926D01*
X208513691Y-120682429D01*
X208677479Y-120614586D01*
X208851356Y-120580000D01*
X209028644Y-120580000D01*
X209202521Y-120614586D01*
X209202521Y-120614586D01*
G37*
G36*
X198587255Y-119975250D02*
X198803910Y-120064991D01*
X198803913Y-120064993D01*
X198945387Y-120159523D01*
X198998903Y-120195282D01*
X199164718Y-120361097D01*
X199164720Y-120361100D01*
X199164721Y-120361101D01*
X199188249Y-120396313D01*
X199295009Y-120556090D01*
X199384750Y-120772745D01*
X199430500Y-121002745D01*
X199430500Y-121237255D01*
X199384750Y-121467255D01*
X199295009Y-121683910D01*
X199164718Y-121878903D01*
X198998903Y-122044718D01*
X198998900Y-122044720D01*
X198998899Y-122044721D01*
X198985431Y-122053720D01*
X198803910Y-122175009D01*
X198587255Y-122264750D01*
X198357255Y-122310500D01*
X198122745Y-122310500D01*
X197892745Y-122264750D01*
X197676090Y-122175009D01*
X197494569Y-122053720D01*
X197481101Y-122044721D01*
X197481100Y-122044720D01*
X197481097Y-122044718D01*
X197315282Y-121878903D01*
X197184991Y-121683910D01*
X197095250Y-121467255D01*
X197049500Y-121237255D01*
X197049500Y-121002745D01*
X197095250Y-120772745D01*
X197184991Y-120556090D01*
X197291751Y-120396313D01*
X197315279Y-120361101D01*
X197315280Y-120361100D01*
X197315282Y-120361097D01*
X197481097Y-120195282D01*
X197534614Y-120159523D01*
X197676087Y-120064993D01*
X197676090Y-120064991D01*
X197892745Y-119975250D01*
X198122745Y-119929500D01*
X198357255Y-119929500D01*
X198587255Y-119975250D01*
X198587255Y-119975250D01*
G37*
G36*
X206202521Y-117614586D02*
X206366309Y-117682429D01*
X206513720Y-117780926D01*
X206639074Y-117906280D01*
X206737571Y-118053691D01*
X206805414Y-118217479D01*
X206840000Y-118391356D01*
X206840000Y-118568644D01*
X206805414Y-118742521D01*
X206737571Y-118906309D01*
X206639074Y-119053720D01*
X206513720Y-119179074D01*
X206366309Y-119277571D01*
X206202521Y-119345414D01*
X206028644Y-119380000D01*
X205851356Y-119380000D01*
X205677479Y-119345414D01*
X205513691Y-119277571D01*
X205366280Y-119179074D01*
X205240926Y-119053720D01*
X205142429Y-118906309D01*
X205074586Y-118742521D01*
X205040000Y-118568644D01*
X205040000Y-118391356D01*
X205074586Y-118217479D01*
X205142429Y-118053691D01*
X205240926Y-117906280D01*
X205366280Y-117780926D01*
X205513691Y-117682429D01*
X205677479Y-117614586D01*
X205851356Y-117580000D01*
X206028644Y-117580000D01*
X206202521Y-117614586D01*
X206202521Y-117614586D01*
G37*
G36*
X209202521Y-117614586D02*
X209366309Y-117682429D01*
X209513720Y-117780926D01*
X209639074Y-117906280D01*
X209737571Y-118053691D01*
X209805414Y-118217479D01*
X209840000Y-118391356D01*
X209840000Y-118568644D01*
X209805414Y-118742521D01*
X209737571Y-118906309D01*
X209639074Y-119053720D01*
X209513720Y-119179074D01*
X209366309Y-119277571D01*
X209202521Y-119345414D01*
X209028644Y-119380000D01*
X208851356Y-119380000D01*
X208677479Y-119345414D01*
X208513691Y-119277571D01*
X208366280Y-119179074D01*
X208240926Y-119053720D01*
X208142429Y-118906309D01*
X208074586Y-118742521D01*
X208040000Y-118568644D01*
X208040000Y-118391356D01*
X208074586Y-118217479D01*
X208142429Y-118053691D01*
X208240926Y-117906280D01*
X208366280Y-117780926D01*
X208513691Y-117682429D01*
X208677479Y-117614586D01*
X208851356Y-117580000D01*
X209028644Y-117580000D01*
X209202521Y-117614586D01*
X209202521Y-117614586D01*
G37*
G36*
X175731363Y-113620001D02*
X160331363Y-113620001D01*
X160331363Y-98220001D01*
X175731363Y-98220001D01*
X175731363Y-113620001D01*
X175731363Y-113620001D01*
G37*
G36*
X203658183Y-108546900D02*
X203785574Y-108599668D01*
X203900225Y-108676275D01*
X203997725Y-108773775D01*
X204074332Y-108888426D01*
X204127100Y-109015817D01*
X204154000Y-109151055D01*
X204154000Y-109288945D01*
X204127100Y-109424183D01*
X204074332Y-109551574D01*
X203997725Y-109666225D01*
X203900225Y-109763725D01*
X203785574Y-109840332D01*
X203658183Y-109893100D01*
X203522945Y-109920000D01*
X203385055Y-109920000D01*
X203249817Y-109893100D01*
X203122426Y-109840332D01*
X203007775Y-109763725D01*
X202910275Y-109666225D01*
X202833668Y-109551574D01*
X202780900Y-109424183D01*
X202754000Y-109288945D01*
X202754000Y-109151055D01*
X202780900Y-109015817D01*
X202833668Y-108888426D01*
X202910275Y-108773775D01*
X203007775Y-108676275D01*
X203122426Y-108599668D01*
X203249817Y-108546900D01*
X203385055Y-108520000D01*
X203522945Y-108520000D01*
X203658183Y-108546900D01*
X203658183Y-108546900D01*
G37*
G36*
X208658183Y-98546900D02*
X208785574Y-98599668D01*
X208900225Y-98676275D01*
X208997725Y-98773775D01*
X209074332Y-98888426D01*
X209127100Y-99015817D01*
X209154000Y-99151055D01*
X209154000Y-99288945D01*
X209127100Y-99424183D01*
X209074332Y-99551574D01*
X208997725Y-99666225D01*
X208900225Y-99763725D01*
X208785574Y-99840332D01*
X208658183Y-99893100D01*
X208522945Y-99920000D01*
X208385055Y-99920000D01*
X208249817Y-99893100D01*
X208122426Y-99840332D01*
X208007775Y-99763725D01*
X207910275Y-99666225D01*
X207833668Y-99551574D01*
X207780900Y-99424183D01*
X207754000Y-99288945D01*
X207754000Y-99151055D01*
X207780900Y-99015817D01*
X207833668Y-98888426D01*
X207910275Y-98773775D01*
X208007775Y-98676275D01*
X208122426Y-98599668D01*
X208249817Y-98546900D01*
X208385055Y-98520000D01*
X208522945Y-98520000D01*
X208658183Y-98546900D01*
X208658183Y-98546900D01*
G37*
G36*
X213060000Y-99210000D02*
X211460000Y-99210000D01*
X211460000Y-97610000D01*
X213060000Y-97610000D01*
X213060000Y-99210000D01*
X213060000Y-99210000D01*
G37*
G36*
X213060000Y-96410000D02*
X211460000Y-96410000D01*
X211460000Y-94810000D01*
X213060000Y-94810000D01*
X213060000Y-96410000D01*
X213060000Y-96410000D01*
G37*
G36*
X208658183Y-93546900D02*
X208785574Y-93599668D01*
X208900225Y-93676275D01*
X208997725Y-93773775D01*
X209074332Y-93888426D01*
X209127100Y-94015817D01*
X209154000Y-94151055D01*
X209154000Y-94288945D01*
X209127100Y-94424183D01*
X209074332Y-94551574D01*
X208997725Y-94666225D01*
X208900225Y-94763725D01*
X208785574Y-94840332D01*
X208658183Y-94893100D01*
X208522945Y-94920000D01*
X208385055Y-94920000D01*
X208249817Y-94893100D01*
X208122426Y-94840332D01*
X208007775Y-94763725D01*
X207910275Y-94666225D01*
X207833668Y-94551574D01*
X207780900Y-94424183D01*
X207754000Y-94288945D01*
X207754000Y-94151055D01*
X207780900Y-94015817D01*
X207833668Y-93888426D01*
X207910275Y-93773775D01*
X208007775Y-93676275D01*
X208122426Y-93599668D01*
X208249817Y-93546900D01*
X208385055Y-93520000D01*
X208522945Y-93520000D01*
X208658183Y-93546900D01*
X208658183Y-93546900D01*
G37*
G36*
X175540404Y-77228610D02*
X178183877Y-82897555D01*
X178219732Y-82974448D01*
X168976572Y-87284604D01*
X164262592Y-89482769D01*
X164262591Y-89482769D01*
X158529568Y-77188260D01*
X157754270Y-75525629D01*
X157754270Y-75525628D01*
X168085832Y-70707942D01*
X171711410Y-69017307D01*
X171711411Y-69017307D01*
X175540404Y-77228610D01*
X175540404Y-77228610D01*
G37*
G36*
X128351287Y-84686408D02*
X128651568Y-84810789D01*
X128921814Y-84991361D01*
X129151639Y-85221186D01*
X129332211Y-85491432D01*
X129456592Y-85791713D01*
X129520000Y-86110489D01*
X129520000Y-86435511D01*
X129456592Y-86754287D01*
X129332211Y-87054568D01*
X129151639Y-87324814D01*
X128921814Y-87554639D01*
X128651568Y-87735211D01*
X128351287Y-87859592D01*
X128032511Y-87923000D01*
X127707489Y-87923000D01*
X127388713Y-87859592D01*
X127088432Y-87735211D01*
X126818186Y-87554639D01*
X126588361Y-87324814D01*
X126407789Y-87054568D01*
X126283408Y-86754287D01*
X126220000Y-86435511D01*
X126220000Y-86110489D01*
X126283408Y-85791713D01*
X126407789Y-85491432D01*
X126588361Y-85221186D01*
X126818186Y-84991361D01*
X127088432Y-84810789D01*
X127388713Y-84686408D01*
X127707489Y-84623000D01*
X128032511Y-84623000D01*
X128351287Y-84686408D01*
X128351287Y-84686408D01*
G37*
G36*
X203658183Y-83546900D02*
X203785574Y-83599668D01*
X203900224Y-83676274D01*
X203997726Y-83773776D01*
X204074332Y-83888426D01*
X204127100Y-84015817D01*
X204154000Y-84151055D01*
X204154000Y-84288945D01*
X204127100Y-84424183D01*
X204099084Y-84491818D01*
X204074332Y-84551574D01*
X203997726Y-84666224D01*
X203900224Y-84763726D01*
X203785574Y-84840332D01*
X203658183Y-84893100D01*
X203522945Y-84920000D01*
X203385055Y-84920000D01*
X203249817Y-84893100D01*
X203122426Y-84840332D01*
X203007776Y-84763726D01*
X202910274Y-84666224D01*
X202833668Y-84551574D01*
X202808916Y-84491818D01*
X202780900Y-84424183D01*
X202754000Y-84288945D01*
X202754000Y-84151055D01*
X202780900Y-84015817D01*
X202833668Y-83888426D01*
X202910274Y-83773776D01*
X203007776Y-83676274D01*
X203122426Y-83599668D01*
X203249817Y-83546900D01*
X203385055Y-83520000D01*
X203522945Y-83520000D01*
X203658183Y-83546900D01*
X203658183Y-83546900D01*
G37*
G36*
X125445814Y-77544211D02*
X125567529Y-77568421D01*
X125796834Y-77663402D01*
X126003203Y-77801294D01*
X126178706Y-77976797D01*
X126316598Y-78183166D01*
X126411579Y-78412471D01*
X126460000Y-78655901D01*
X126460000Y-78904099D01*
X126411579Y-79147529D01*
X126316598Y-79376834D01*
X126178706Y-79583203D01*
X126003203Y-79758706D01*
X125796834Y-79896598D01*
X125567529Y-79991579D01*
X125445814Y-80015790D01*
X125324101Y-80040000D01*
X125075899Y-80040000D01*
X124954186Y-80015790D01*
X124832471Y-79991579D01*
X124603166Y-79896598D01*
X124396797Y-79758706D01*
X124221294Y-79583203D01*
X124083402Y-79376834D01*
X123988421Y-79147529D01*
X123940000Y-78904099D01*
X123940000Y-78655901D01*
X123988421Y-78412471D01*
X124083402Y-78183166D01*
X124221294Y-77976797D01*
X124396797Y-77801294D01*
X124603166Y-77663402D01*
X124832471Y-77568421D01*
X124954186Y-77544211D01*
X125075899Y-77520000D01*
X125324101Y-77520000D01*
X125445814Y-77544211D01*
X125445814Y-77544211D01*
G37*
G36*
X125445814Y-66644211D02*
X125567529Y-66668421D01*
X125796834Y-66763402D01*
X126003203Y-66901294D01*
X126178706Y-67076797D01*
X126316598Y-67283166D01*
X126411579Y-67512471D01*
X126460000Y-67755901D01*
X126460000Y-68004099D01*
X126411579Y-68247529D01*
X126316598Y-68476834D01*
X126178706Y-68683203D01*
X126003203Y-68858706D01*
X125796834Y-68996598D01*
X125567529Y-69091579D01*
X125445814Y-69115789D01*
X125324101Y-69140000D01*
X125075899Y-69140000D01*
X124954186Y-69115789D01*
X124832471Y-69091579D01*
X124603166Y-68996598D01*
X124396797Y-68858706D01*
X124221294Y-68683203D01*
X124083402Y-68476834D01*
X123988421Y-68247529D01*
X123940000Y-68004099D01*
X123940000Y-67755901D01*
X123988421Y-67512471D01*
X124083402Y-67283166D01*
X124221294Y-67076797D01*
X124396797Y-66901294D01*
X124603166Y-66763402D01*
X124832471Y-66668421D01*
X124954186Y-66644211D01*
X125075899Y-66620000D01*
X125324101Y-66620000D01*
X125445814Y-66644211D01*
X125445814Y-66644211D01*
G37*
G36*
X128351287Y-59286408D02*
X128651568Y-59410789D01*
X128921814Y-59591361D01*
X129151639Y-59821186D01*
X129332211Y-60091432D01*
X129456592Y-60391713D01*
X129520000Y-60710489D01*
X129520000Y-61035511D01*
X129456592Y-61354287D01*
X129332211Y-61654568D01*
X129151639Y-61924814D01*
X128921814Y-62154639D01*
X128651568Y-62335211D01*
X128351287Y-62459592D01*
X128032511Y-62523000D01*
X127707489Y-62523000D01*
X127388713Y-62459592D01*
X127088432Y-62335211D01*
X126818186Y-62154639D01*
X126588361Y-61924814D01*
X126407789Y-61654568D01*
X126283408Y-61354287D01*
X126220000Y-61035511D01*
X126220000Y-60710489D01*
X126283408Y-60391713D01*
X126407789Y-60091432D01*
X126588361Y-59821186D01*
X126818186Y-59591361D01*
X127088432Y-59410789D01*
X127388713Y-59286408D01*
X127707489Y-59223000D01*
X128032511Y-59223000D01*
X128351287Y-59286408D01*
X128351287Y-59286408D01*
G37*
G36*
X190709122Y-56766115D02*
X190825041Y-56789173D01*
X191152620Y-56924861D01*
X191443511Y-57119228D01*
X191447436Y-57121851D01*
X191698149Y-57372564D01*
X191698151Y-57372567D01*
X191895139Y-57667380D01*
X192030827Y-57994959D01*
X192053885Y-58110878D01*
X192100000Y-58342714D01*
X192100000Y-58697286D01*
X192053885Y-58929122D01*
X192030827Y-59045041D01*
X191895139Y-59372620D01*
X191880165Y-59395030D01*
X191698149Y-59667436D01*
X191447436Y-59918149D01*
X191447433Y-59918151D01*
X191152620Y-60115139D01*
X190825041Y-60250827D01*
X190709122Y-60273885D01*
X190477286Y-60320000D01*
X190122714Y-60320000D01*
X189890878Y-60273885D01*
X189774959Y-60250827D01*
X189447380Y-60115139D01*
X189152567Y-59918151D01*
X189152564Y-59918149D01*
X188901851Y-59667436D01*
X188719835Y-59395030D01*
X188704861Y-59372620D01*
X188569173Y-59045041D01*
X188546115Y-58929122D01*
X188500000Y-58697286D01*
X188500000Y-58342714D01*
X188546115Y-58110878D01*
X188569173Y-57994959D01*
X188704861Y-57667380D01*
X188901849Y-57372567D01*
X188901851Y-57372564D01*
X189152564Y-57121851D01*
X189156489Y-57119228D01*
X189447380Y-56924861D01*
X189774959Y-56789173D01*
X189890878Y-56766115D01*
X190122714Y-56720000D01*
X190477286Y-56720000D01*
X190709122Y-56766115D01*
X190709122Y-56766115D01*
G37*
G36*
X183245434Y-57644970D02*
X183245436Y-57644971D01*
X183245437Y-57644971D01*
X183411047Y-57713569D01*
X183560094Y-57813159D01*
X183686841Y-57939906D01*
X183786431Y-58088953D01*
X183855030Y-58254566D01*
X183890000Y-58430371D01*
X183890000Y-58609629D01*
X183855030Y-58785434D01*
X183786431Y-58951047D01*
X183686841Y-59100094D01*
X183560094Y-59226841D01*
X183560091Y-59226843D01*
X183411047Y-59326431D01*
X183245437Y-59395029D01*
X183245436Y-59395029D01*
X183245434Y-59395030D01*
X183069629Y-59430000D01*
X182890371Y-59430000D01*
X182714566Y-59395030D01*
X182714564Y-59395029D01*
X182714563Y-59395029D01*
X182548953Y-59326431D01*
X182399909Y-59226843D01*
X182399906Y-59226841D01*
X182273159Y-59100094D01*
X182173569Y-58951047D01*
X182104970Y-58785434D01*
X182070000Y-58609629D01*
X182070000Y-58430371D01*
X182104970Y-58254566D01*
X182173569Y-58088953D01*
X182273159Y-57939906D01*
X182399906Y-57813159D01*
X182548953Y-57713569D01*
X182714563Y-57644971D01*
X182714564Y-57644971D01*
X182714566Y-57644970D01*
X182890371Y-57610000D01*
X183069629Y-57610000D01*
X183245434Y-57644970D01*
X183245434Y-57644970D01*
G37*
G36*
X186245434Y-57644970D02*
X186245436Y-57644971D01*
X186245437Y-57644971D01*
X186411047Y-57713569D01*
X186560094Y-57813159D01*
X186686841Y-57939906D01*
X186786431Y-58088953D01*
X186855030Y-58254566D01*
X186890000Y-58430371D01*
X186890000Y-58609629D01*
X186855030Y-58785434D01*
X186786431Y-58951047D01*
X186686841Y-59100094D01*
X186560094Y-59226841D01*
X186560091Y-59226843D01*
X186411047Y-59326431D01*
X186245437Y-59395029D01*
X186245436Y-59395029D01*
X186245434Y-59395030D01*
X186069629Y-59430000D01*
X185890371Y-59430000D01*
X185714566Y-59395030D01*
X185714564Y-59395029D01*
X185714563Y-59395029D01*
X185548953Y-59326431D01*
X185399909Y-59226843D01*
X185399906Y-59226841D01*
X185273159Y-59100094D01*
X185173569Y-58951047D01*
X185104970Y-58785434D01*
X185070000Y-58609629D01*
X185070000Y-58430371D01*
X185104970Y-58254566D01*
X185173569Y-58088953D01*
X185273159Y-57939906D01*
X185399906Y-57813159D01*
X185548953Y-57713569D01*
X185714563Y-57644971D01*
X185714564Y-57644971D01*
X185714566Y-57644970D01*
X185890371Y-57610000D01*
X186069629Y-57610000D01*
X186245434Y-57644970D01*
X186245434Y-57644970D01*
G37*
G36*
X178836000Y-58084000D02*
X176656000Y-58084000D01*
X176656000Y-54184000D01*
X178836000Y-54184000D01*
X178836000Y-58084000D01*
X178836000Y-58084000D01*
G37*
G36*
X173556000Y-58084000D02*
X171376000Y-58084000D01*
X171376000Y-54184000D01*
X173556000Y-54184000D01*
X173556000Y-58084000D01*
X173556000Y-58084000D01*
G37*
G36*
X162980000Y-56500000D02*
X158080000Y-56500000D01*
X158080000Y-52700000D01*
X162980000Y-52700000D01*
X162980000Y-56500000D01*
X162980000Y-56500000D01*
G37*
G36*
X147480000Y-56500000D02*
X142580000Y-56500000D01*
X142580000Y-52700000D01*
X147480000Y-52700000D01*
X147480000Y-56500000D01*
X147480000Y-56500000D01*
G37*
M02*
