G04 #@! TF.GenerationSoftware,KiCad,Pcbnew,5.0.2-bee76a0~70~ubuntu18.04.1*
G04 #@! TF.CreationDate,2019-04-30T11:13:38-04:00*
G04 #@! TF.ProjectId,AIR_Mount_Minus,4149525f-4d6f-4756-9e74-5f4d696e7573,rev?*
G04 #@! TF.SameCoordinates,Original*
G04 #@! TF.FileFunction,Profile,NP*
%FSLAX46Y46*%
G04 Gerber Fmt 4.6, Leading zero omitted, Abs format (unit mm)*
G04 Created by KiCad (PCBNEW 5.0.2-bee76a0~70~ubuntu18.04.1) date Tue 30 Apr 2019 11:13:38 AM EDT*
%MOMM*%
%LPD*%
G01*
G04 APERTURE LIST*
%ADD10C,0.200000*%
G04 APERTURE END LIST*
D10*
X158800000Y-91020000D02*
X158804335Y-94187833D01*
X177230000Y-91010000D02*
X177230000Y-94150000D01*
X203454882Y-87505019D02*
G75*
G02X204724882Y-88775019I0J-1270000D01*
G01*
X203454882Y-87505019D02*
X185154104Y-87505019D01*
X104430670Y-95654271D02*
X134910670Y-95654271D01*
X204724882Y-106555019D02*
G75*
G02X203454882Y-107825019I-1270000J0D01*
G01*
X204724882Y-106555019D02*
X204724882Y-88775019D01*
X101890670Y-75966941D02*
G75*
G02X102187432Y-74775520I2540000J0D01*
G01*
X216685706Y-126163323D02*
G75*
G02X214149930Y-128703320I-2540001J0D01*
G01*
X139994895Y-128826668D02*
X214149930Y-128703320D01*
X195120000Y-73220668D02*
X195120000Y-49606068D01*
X177230000Y-91010000D02*
X158799054Y-91012837D01*
X151308710Y-92618819D02*
G75*
G03X151308710Y-92618819I-3619500J0D01*
G01*
X214141480Y-75733257D02*
G75*
G02X216685705Y-78273253I4225J-2539996D01*
G01*
X216685705Y-126163323D02*
X216685705Y-78273253D01*
X183884104Y-88775019D02*
G75*
G02X185154104Y-87505019I1270000J0D01*
G01*
X183884104Y-88775019D02*
X183884104Y-106555019D01*
X158804335Y-94187833D02*
X177230000Y-94150000D01*
X101890670Y-75966941D02*
X101890670Y-93114271D01*
X104430670Y-95654271D02*
G75*
G02X101890670Y-93114271I0J2540000D01*
G01*
X185154104Y-107825019D02*
G75*
G02X183884104Y-106555019I0J1270000D01*
G01*
X139994895Y-128826667D02*
G75*
G02X137450670Y-126286671I-4225J2539996D01*
G01*
X137450670Y-98194271D02*
X137450670Y-126286671D01*
X116188130Y-48414647D02*
G75*
G02X118431368Y-47066068I2243238J-1191421D01*
G01*
X192580000Y-47066068D02*
G75*
G02X195120000Y-49606068I0J-2540000D01*
G01*
X192580000Y-47066068D02*
X118431368Y-47066068D01*
X172487001Y-79250038D02*
G75*
G03X172487001Y-79250038I-4500000J0D01*
G01*
X185154104Y-107825019D02*
X203454882Y-107825019D01*
X116188130Y-48414647D02*
X102187432Y-74775520D01*
X134910670Y-95654271D02*
G75*
G02X137450670Y-98194271I0J-2540000D01*
G01*
X214141480Y-75733257D02*
X197664225Y-75760665D01*
X172531363Y-105920001D02*
G75*
G03X172531363Y-105920001I-4500000J0D01*
G01*
X197664225Y-75760664D02*
G75*
G02X195120000Y-73220668I-4225J2539996D01*
G01*
M02*
