M48
;DRILL file {KiCad 5.0.2-bee76a0~70~ubuntu16.04.1} date Mon 03 Dec 2018 09:57:10 PM EST
;FORMAT={-:-/ absolute / inch / decimal}
FMAT,2
INCH,TZ
T1C0.0157
T2C0.0394
%
G90
G05
T1
X2.8197Y-2.1
X2.8197Y-2.2
X2.8197Y-2.3
X2.874Y-2.1457
X2.874Y-2.2441
X2.9197Y-2.1
X2.9197Y-2.2
X2.9197Y-2.3
X2.9724Y-2.1457
X2.9724Y-2.2441
X3.0118Y-2.9921
X3.0118Y-3.05
X3.0118Y-3.1299
X3.0118Y-3.2087
X3.0197Y-2.1
X3.0197Y-2.2
X3.0197Y-2.3
X3.0906Y-2.9921
X3.0906Y-3.2087
X3.1693Y-2.9921
X3.1693Y-3.2087
X3.2555Y-3.8769
X3.2555Y-3.9269
X3.2555Y-3.9769
X3.2555Y-4.0269
X3.2555Y-4.0769
X3.3055Y-3.8519
X3.3055Y-4.1019
X3.3555Y-3.8519
X3.3555Y-4.1019
X3.5555Y-3.8519
X3.5555Y-4.1019
X3.6055Y-3.8519
X3.6055Y-4.1019
X3.6555Y-3.8769
X3.6555Y-3.9269
X3.6555Y-3.9769
X3.6555Y-4.0269
X3.6555Y-4.0769
X3.7008Y-2.9921
X3.7008Y-3.2087
X3.7795Y-2.9921
X3.7795Y-3.2087
X3.8583Y-2.9921
X3.8583Y-3.0512
X3.8583Y-3.1299
X3.8583Y-3.2087
T2
X5.9Y-2.1
X5.9Y-2.2
X5.9Y-3.
X5.9Y-3.1
X5.8858Y-3.9157
X5.8858Y-4.0157
T0
M30
