G04 #@! TF.GenerationSoftware,KiCad,Pcbnew,5.0.2-bee76a0~70~ubuntu18.04.1*
G04 #@! TF.CreationDate,2019-02-11T23:41:55-05:00*
G04 #@! TF.ProjectId,New Buck Converter,4e657720-4275-4636-9b20-436f6e766572,rev?*
G04 #@! TF.SameCoordinates,Original*
G04 #@! TF.FileFunction,Copper,L1,Top*
G04 #@! TF.FilePolarity,Positive*
%FSLAX46Y46*%
G04 Gerber Fmt 4.6, Leading zero omitted, Abs format (unit mm)*
G04 Created by KiCad (PCBNEW 5.0.2-bee76a0~70~ubuntu18.04.1) date Mon 11 Feb 2019 11:41:55 PM EST*
%MOMM*%
%LPD*%
G01*
G04 APERTURE LIST*
G04 #@! TA.AperFunction,ComponentPad*
%ADD10C,2.032000*%
G04 #@! TD*
G04 #@! TA.AperFunction,SMDPad,CuDef*
%ADD11R,0.900000X2.500000*%
G04 #@! TD*
G04 #@! TA.AperFunction,SMDPad,CuDef*
%ADD12R,1.250000X1.000000*%
G04 #@! TD*
G04 #@! TA.AperFunction,Conductor*
%ADD13C,0.100000*%
G04 #@! TD*
G04 #@! TA.AperFunction,SMDPad,CuDef*
%ADD14C,0.875000*%
G04 #@! TD*
G04 #@! TA.AperFunction,SMDPad,CuDef*
%ADD15R,1.200000X2.000000*%
G04 #@! TD*
G04 #@! TA.AperFunction,SMDPad,CuDef*
%ADD16R,0.700000X1.300000*%
G04 #@! TD*
G04 #@! TA.AperFunction,SMDPad,CuDef*
%ADD17R,1.000000X3.200000*%
G04 #@! TD*
G04 #@! TA.AperFunction,SMDPad,CuDef*
%ADD18R,0.650000X1.060000*%
G04 #@! TD*
G04 #@! TA.AperFunction,SMDPad,CuDef*
%ADD19R,1.000000X1.600000*%
G04 #@! TD*
G04 #@! TA.AperFunction,SMDPad,CuDef*
%ADD20R,1.780000X3.500000*%
G04 #@! TD*
G04 #@! TA.AperFunction,SMDPad,CuDef*
%ADD21R,1.000000X1.250000*%
G04 #@! TD*
G04 #@! TA.AperFunction,SMDPad,CuDef*
%ADD22R,2.159000X1.778000*%
G04 #@! TD*
G04 #@! TA.AperFunction,SMDPad,CuDef*
%ADD23R,1.200000X1.200000*%
G04 #@! TD*
G04 #@! TA.AperFunction,ComponentPad*
%ADD24C,4.648200*%
G04 #@! TD*
G04 #@! TA.AperFunction,ViaPad*
%ADD25C,0.800000*%
G04 #@! TD*
G04 #@! TA.AperFunction,Conductor*
%ADD26C,0.254000*%
G04 #@! TD*
G04 #@! TA.AperFunction,Conductor*
%ADD27C,0.250000*%
G04 #@! TD*
G04 #@! TA.AperFunction,Conductor*
%ADD28C,0.381000*%
G04 #@! TD*
G04 #@! TA.AperFunction,Conductor*
%ADD29C,0.152400*%
G04 #@! TD*
G04 APERTURE END LIST*
D10*
G04 #@! TO.P,J1,2*
G04 #@! TO.N,/12V*
X107734100Y-105895140D03*
G04 #@! TO.P,J1,1*
G04 #@! TO.N,GND*
X107734100Y-98275140D03*
G04 #@! TD*
G04 #@! TO.P,J2,2*
G04 #@! TO.N,/5V*
X124409200Y-121909840D03*
G04 #@! TO.P,J2,1*
G04 #@! TO.N,GND*
X132029200Y-121909840D03*
G04 #@! TD*
D11*
G04 #@! TO.P,COUT4,1*
G04 #@! TO.N,Net-(COUT1-Pad1)*
X132458800Y-100203000D03*
G04 #@! TO.P,COUT4,2*
G04 #@! TO.N,GND*
X135358800Y-100203000D03*
G04 #@! TD*
D12*
G04 #@! TO.P,C1,2*
G04 #@! TO.N,Net-(C1-Pad2)*
X129971800Y-100981000D03*
G04 #@! TO.P,C1,1*
G04 #@! TO.N,Net-(C1-Pad1)*
X129971800Y-102981000D03*
G04 #@! TD*
G04 #@! TO.P,C2,1*
G04 #@! TO.N,Net-(C2-Pad1)*
X123558300Y-103060500D03*
G04 #@! TO.P,C2,2*
G04 #@! TO.N,GND*
X123558300Y-101060500D03*
G04 #@! TD*
D13*
G04 #@! TO.N,Net-(C2-Pad1)*
G04 #@! TO.C,C3*
G36*
X122030051Y-102502233D02*
X122051286Y-102505383D01*
X122072110Y-102510599D01*
X122092322Y-102517831D01*
X122111728Y-102527010D01*
X122130141Y-102538046D01*
X122147384Y-102550834D01*
X122163290Y-102565250D01*
X122177706Y-102581156D01*
X122190494Y-102598399D01*
X122201530Y-102616812D01*
X122210709Y-102636218D01*
X122217941Y-102656430D01*
X122223157Y-102677254D01*
X122226307Y-102698489D01*
X122227360Y-102719930D01*
X122227360Y-103157430D01*
X122226307Y-103178871D01*
X122223157Y-103200106D01*
X122217941Y-103220930D01*
X122210709Y-103241142D01*
X122201530Y-103260548D01*
X122190494Y-103278961D01*
X122177706Y-103296204D01*
X122163290Y-103312110D01*
X122147384Y-103326526D01*
X122130141Y-103339314D01*
X122111728Y-103350350D01*
X122092322Y-103359529D01*
X122072110Y-103366761D01*
X122051286Y-103371977D01*
X122030051Y-103375127D01*
X122008610Y-103376180D01*
X121496110Y-103376180D01*
X121474669Y-103375127D01*
X121453434Y-103371977D01*
X121432610Y-103366761D01*
X121412398Y-103359529D01*
X121392992Y-103350350D01*
X121374579Y-103339314D01*
X121357336Y-103326526D01*
X121341430Y-103312110D01*
X121327014Y-103296204D01*
X121314226Y-103278961D01*
X121303190Y-103260548D01*
X121294011Y-103241142D01*
X121286779Y-103220930D01*
X121281563Y-103200106D01*
X121278413Y-103178871D01*
X121277360Y-103157430D01*
X121277360Y-102719930D01*
X121278413Y-102698489D01*
X121281563Y-102677254D01*
X121286779Y-102656430D01*
X121294011Y-102636218D01*
X121303190Y-102616812D01*
X121314226Y-102598399D01*
X121327014Y-102581156D01*
X121341430Y-102565250D01*
X121357336Y-102550834D01*
X121374579Y-102538046D01*
X121392992Y-102527010D01*
X121412398Y-102517831D01*
X121432610Y-102510599D01*
X121453434Y-102505383D01*
X121474669Y-102502233D01*
X121496110Y-102501180D01*
X122008610Y-102501180D01*
X122030051Y-102502233D01*
X122030051Y-102502233D01*
G37*
D14*
G04 #@! TD*
G04 #@! TO.P,C3,1*
G04 #@! TO.N,Net-(C2-Pad1)*
X121752360Y-102938680D03*
D13*
G04 #@! TO.N,GND*
G04 #@! TO.C,C3*
G36*
X122030051Y-100927233D02*
X122051286Y-100930383D01*
X122072110Y-100935599D01*
X122092322Y-100942831D01*
X122111728Y-100952010D01*
X122130141Y-100963046D01*
X122147384Y-100975834D01*
X122163290Y-100990250D01*
X122177706Y-101006156D01*
X122190494Y-101023399D01*
X122201530Y-101041812D01*
X122210709Y-101061218D01*
X122217941Y-101081430D01*
X122223157Y-101102254D01*
X122226307Y-101123489D01*
X122227360Y-101144930D01*
X122227360Y-101582430D01*
X122226307Y-101603871D01*
X122223157Y-101625106D01*
X122217941Y-101645930D01*
X122210709Y-101666142D01*
X122201530Y-101685548D01*
X122190494Y-101703961D01*
X122177706Y-101721204D01*
X122163290Y-101737110D01*
X122147384Y-101751526D01*
X122130141Y-101764314D01*
X122111728Y-101775350D01*
X122092322Y-101784529D01*
X122072110Y-101791761D01*
X122051286Y-101796977D01*
X122030051Y-101800127D01*
X122008610Y-101801180D01*
X121496110Y-101801180D01*
X121474669Y-101800127D01*
X121453434Y-101796977D01*
X121432610Y-101791761D01*
X121412398Y-101784529D01*
X121392992Y-101775350D01*
X121374579Y-101764314D01*
X121357336Y-101751526D01*
X121341430Y-101737110D01*
X121327014Y-101721204D01*
X121314226Y-101703961D01*
X121303190Y-101685548D01*
X121294011Y-101666142D01*
X121286779Y-101645930D01*
X121281563Y-101625106D01*
X121278413Y-101603871D01*
X121277360Y-101582430D01*
X121277360Y-101144930D01*
X121278413Y-101123489D01*
X121281563Y-101102254D01*
X121286779Y-101081430D01*
X121294011Y-101061218D01*
X121303190Y-101041812D01*
X121314226Y-101023399D01*
X121327014Y-101006156D01*
X121341430Y-100990250D01*
X121357336Y-100975834D01*
X121374579Y-100963046D01*
X121392992Y-100952010D01*
X121412398Y-100942831D01*
X121432610Y-100935599D01*
X121453434Y-100930383D01*
X121474669Y-100927233D01*
X121496110Y-100926180D01*
X122008610Y-100926180D01*
X122030051Y-100927233D01*
X122030051Y-100927233D01*
G37*
D14*
G04 #@! TD*
G04 #@! TO.P,C3,2*
G04 #@! TO.N,GND*
X121752360Y-101363680D03*
D11*
G04 #@! TO.P,F1,2*
G04 #@! TO.N,/12V*
X120520800Y-105727500D03*
G04 #@! TO.P,F1,1*
G04 #@! TO.N,Net-(C2-Pad1)*
X123420800Y-105727500D03*
G04 #@! TD*
D15*
G04 #@! TO.P,L1,1*
G04 #@! TO.N,Net-(C1-Pad1)*
X127876700Y-105666540D03*
G04 #@! TO.P,L1,2*
G04 #@! TO.N,Net-(COUT1-Pad1)*
X131076700Y-105666540D03*
G04 #@! TD*
D16*
G04 #@! TO.P,R1,1*
G04 #@! TO.N,Net-(COUT1-Pad1)*
X130294420Y-98978720D03*
G04 #@! TO.P,R1,2*
G04 #@! TO.N,Net-(R1-Pad2)*
X128394420Y-98978720D03*
G04 #@! TD*
G04 #@! TO.P,R2,2*
G04 #@! TO.N,GND*
X124508220Y-98963480D03*
G04 #@! TO.P,R2,1*
G04 #@! TO.N,Net-(R1-Pad2)*
X126408220Y-98963480D03*
G04 #@! TD*
G04 #@! TO.P,R3,1*
G04 #@! TO.N,Net-(D1-Pad1)*
X136108360Y-113484660D03*
G04 #@! TO.P,R3,2*
G04 #@! TO.N,GND*
X138008360Y-113484660D03*
G04 #@! TD*
D17*
G04 #@! TO.P,R4,1*
G04 #@! TO.N,Net-(COUT1-Pad1)*
X130228200Y-109606080D03*
G04 #@! TO.P,R4,2*
G04 #@! TO.N,/5V*
X124028200Y-109606080D03*
G04 #@! TD*
D18*
G04 #@! TO.P,U1,1*
G04 #@! TO.N,Net-(C1-Pad2)*
X127627600Y-100865800D03*
G04 #@! TO.P,U1,2*
G04 #@! TO.N,GND*
X126677600Y-100865800D03*
G04 #@! TO.P,U1,3*
G04 #@! TO.N,Net-(R1-Pad2)*
X125727600Y-100865800D03*
G04 #@! TO.P,U1,4*
G04 #@! TO.N,Net-(C2-Pad1)*
X125727600Y-103065800D03*
G04 #@! TO.P,U1,6*
G04 #@! TO.N,Net-(C1-Pad1)*
X127627600Y-103065800D03*
G04 #@! TO.P,U1,5*
G04 #@! TO.N,Net-(C2-Pad1)*
X126677600Y-103065800D03*
G04 #@! TD*
D19*
G04 #@! TO.P,COUT1,1*
G04 #@! TO.N,Net-(COUT1-Pad1)*
X132448300Y-103251000D03*
G04 #@! TO.P,COUT1,2*
G04 #@! TO.N,GND*
X135448300Y-103251000D03*
G04 #@! TD*
D20*
G04 #@! TO.P,COUT2,1*
G04 #@! TO.N,Net-(COUT1-Pad1)*
X132829300Y-109601000D03*
G04 #@! TO.P,COUT2,2*
G04 #@! TO.N,GND*
X138109300Y-109601000D03*
G04 #@! TD*
D21*
G04 #@! TO.P,COUT3,1*
G04 #@! TO.N,Net-(COUT1-Pad1)*
X132972300Y-105600500D03*
G04 #@! TO.P,COUT3,2*
G04 #@! TO.N,GND*
X134972300Y-105600500D03*
G04 #@! TD*
D20*
G04 #@! TO.P,COUT5,2*
G04 #@! TO.N,GND*
X138109300Y-95694500D03*
G04 #@! TO.P,COUT5,1*
G04 #@! TO.N,Net-(COUT1-Pad1)*
X132829300Y-95694500D03*
G04 #@! TD*
D22*
G04 #@! TO.P,D2,2*
G04 #@! TO.N,GND*
X116954300Y-101663500D03*
G04 #@! TO.P,D2,1*
G04 #@! TO.N,/12V*
X116954300Y-105727500D03*
G04 #@! TD*
D23*
G04 #@! TO.P,D1,2*
G04 #@! TO.N,Net-(COUT1-Pad1)*
X130121660Y-113540540D03*
G04 #@! TO.P,D1,1*
G04 #@! TO.N,Net-(D1-Pad1)*
X132321660Y-113540540D03*
G04 #@! TD*
D24*
G04 #@! TO.P,REF\002A\002A,1*
G04 #@! TO.N,N/C*
X107900000Y-84100000D03*
G04 #@! TD*
G04 #@! TO.P,REF\002A\002A,1*
G04 #@! TO.N,N/C*
X148500000Y-84300000D03*
G04 #@! TD*
G04 #@! TO.P,REF\002A\002A,1*
G04 #@! TO.N,N/C*
X148500000Y-124400000D03*
G04 #@! TD*
G04 #@! TO.P,REF\002A\002A,1*
G04 #@! TO.N,N/C*
X107400000Y-125000000D03*
G04 #@! TD*
D25*
G04 #@! TO.N,GND*
X142849600Y-98732340D03*
X143019780Y-108399580D03*
X142984220Y-101693980D03*
X142984220Y-105064560D03*
X143019780Y-113235740D03*
X143019780Y-111135160D03*
X123705620Y-96205040D03*
X120876060Y-96192340D03*
X117906800Y-96230440D03*
X114752120Y-96230440D03*
X114688620Y-98028760D03*
X114675920Y-100909120D03*
X143035020Y-94940120D03*
X140154660Y-114589560D03*
G04 #@! TD*
D26*
G04 #@! TO.N,Net-(C1-Pad2)*
X129856600Y-100865800D02*
X129971800Y-100981000D01*
X127627600Y-100865800D02*
X129856600Y-100865800D01*
G04 #@! TO.N,Net-(C1-Pad1)*
X129887000Y-103065800D02*
X129971800Y-102981000D01*
X127627600Y-103065800D02*
X129887000Y-103065800D01*
D27*
X127627600Y-105417440D02*
X127876700Y-105666540D01*
X127627600Y-103065800D02*
X127627600Y-105417440D01*
D28*
G04 #@! TO.N,Net-(C2-Pad1)*
X123420800Y-103198000D02*
X123558300Y-103060500D01*
X123420800Y-105727500D02*
X123420800Y-103198000D01*
X125722300Y-103060500D02*
X125727600Y-103065800D01*
X123558300Y-103060500D02*
X125722300Y-103060500D01*
X125727600Y-103065800D02*
X126677600Y-103065800D01*
D27*
X121874180Y-103060500D02*
X121752360Y-102938680D01*
X123558300Y-103060500D02*
X121874180Y-103060500D01*
G04 #@! TO.N,GND*
X138109300Y-95694500D02*
X139249300Y-95694500D01*
X139249300Y-95694500D02*
X142704260Y-99149460D01*
X142704260Y-99149460D02*
X141845180Y-98290380D01*
X141845180Y-98290380D02*
X141845180Y-100143160D01*
X141697960Y-100143160D02*
X139308840Y-97754040D01*
X141845180Y-100143160D02*
X141697960Y-100143160D01*
X142984220Y-101693980D02*
X142984220Y-105064560D01*
X140287140Y-98732340D02*
X142849600Y-98732340D01*
X138109300Y-96554500D02*
X140287140Y-98732340D01*
X138109300Y-95694500D02*
X138109300Y-96554500D01*
X143019780Y-113235740D02*
X143121380Y-113337340D01*
X138008360Y-113484660D02*
X142770860Y-113484660D01*
X142770860Y-113484660D02*
X143019780Y-113235740D01*
X143019780Y-108399580D02*
X143019780Y-111135160D01*
X143019780Y-111135160D02*
X143019780Y-113235740D01*
D28*
X124508220Y-98963480D02*
X124508220Y-97007640D01*
X124508220Y-97007640D02*
X123705620Y-96205040D01*
X120876060Y-96192340D02*
X117944900Y-96192340D01*
X117944900Y-96192340D02*
X117906800Y-96230440D01*
X114752120Y-96230440D02*
X114752120Y-97965260D01*
X114752120Y-97965260D02*
X114688620Y-98028760D01*
X116199920Y-100909120D02*
X116954300Y-101663500D01*
X114675920Y-100909120D02*
X116199920Y-100909120D01*
X138109300Y-95694500D02*
X142280640Y-95694500D01*
X142280640Y-95694500D02*
X143035020Y-94940120D01*
X138008360Y-113484660D02*
X139049760Y-113484660D01*
X139049760Y-113484660D02*
X140154660Y-114589560D01*
G04 #@! TO.N,/5V*
X124028200Y-121541540D02*
X124414280Y-121927620D01*
X124028200Y-109606080D02*
X124028200Y-121541540D01*
G04 #@! TO.N,/12V*
X116954300Y-105727500D02*
X120520800Y-105727500D01*
X116906660Y-105775140D02*
X116954300Y-105727500D01*
X107724100Y-105775140D02*
X116906660Y-105775140D01*
D27*
G04 #@! TO.N,Net-(R1-Pad2)*
X125808220Y-98963480D02*
X126408220Y-98963480D01*
X125727600Y-99044100D02*
X125808220Y-98963480D01*
X125727600Y-100865800D02*
X125727600Y-99044100D01*
X128379180Y-98963480D02*
X128394420Y-98978720D01*
X126408220Y-98963480D02*
X128379180Y-98963480D01*
D26*
G04 #@! TO.N,Net-(COUT1-Pad1)*
X132448300Y-97762000D02*
X132448300Y-100203000D01*
X132448300Y-95758000D02*
X132448300Y-97762000D01*
X132448300Y-101707000D02*
X132448300Y-103251000D01*
X132448300Y-100203000D02*
X132448300Y-101707000D01*
D27*
X132829300Y-96143840D02*
X132829300Y-95694500D01*
X130294420Y-98678720D02*
X132829300Y-96143840D01*
X130294420Y-98978720D02*
X130294420Y-98678720D01*
X130233280Y-109601000D02*
X130228200Y-109606080D01*
X132829300Y-109601000D02*
X130233280Y-109601000D01*
X130228200Y-113395540D02*
X130116220Y-113507520D01*
X130228200Y-109606080D02*
X130228200Y-113395540D01*
X132448300Y-105054400D02*
X132971540Y-105577640D01*
X132448300Y-103251000D02*
X132448300Y-105054400D01*
X132882640Y-105666540D02*
X132971540Y-105577640D01*
X131076700Y-105666540D02*
X132882640Y-105666540D01*
X132971540Y-109458760D02*
X132829300Y-109601000D01*
X132971540Y-105577640D02*
X132971540Y-109458760D01*
G04 #@! TO.N,Net-(D1-Pad1)*
X136085500Y-113507520D02*
X136108360Y-113484660D01*
X132316220Y-113507520D02*
X136085500Y-113507520D01*
G04 #@! TD*
D29*
G04 #@! TO.N,GND*
G36*
X144343120Y-94671964D02*
X144343120Y-114794216D01*
X143610516Y-115526820D01*
X137537004Y-115526820D01*
X137116820Y-115106636D01*
X137116820Y-112605820D01*
X137111020Y-112576660D01*
X137094502Y-112551938D01*
X136528368Y-111985804D01*
X135648700Y-111086312D01*
X135648700Y-108478320D01*
X135642900Y-108449160D01*
X135626382Y-108424438D01*
X133941820Y-106739876D01*
X133941820Y-98803744D01*
X134564936Y-98227056D01*
X135545184Y-97330612D01*
X135562789Y-97306652D01*
X135569960Y-97274380D01*
X135569960Y-93924245D01*
X135574320Y-93917720D01*
X135580120Y-93888560D01*
X135580120Y-93705680D01*
X143376836Y-93705680D01*
X144343120Y-94671964D01*
X144343120Y-94671964D01*
G37*
X144343120Y-94671964D02*
X144343120Y-114794216D01*
X143610516Y-115526820D01*
X137537004Y-115526820D01*
X137116820Y-115106636D01*
X137116820Y-112605820D01*
X137111020Y-112576660D01*
X137094502Y-112551938D01*
X136528368Y-111985804D01*
X135648700Y-111086312D01*
X135648700Y-108478320D01*
X135642900Y-108449160D01*
X135626382Y-108424438D01*
X133941820Y-106739876D01*
X133941820Y-98803744D01*
X134564936Y-98227056D01*
X135545184Y-97330612D01*
X135562789Y-97306652D01*
X135569960Y-97274380D01*
X135569960Y-93924245D01*
X135574320Y-93917720D01*
X135580120Y-93888560D01*
X135580120Y-93705680D01*
X143376836Y-93705680D01*
X144343120Y-94671964D01*
G36*
X125478540Y-96051184D02*
X125478540Y-98785247D01*
X125472670Y-98789169D01*
X125417448Y-98871813D01*
X125394516Y-98906133D01*
X125367074Y-99044100D01*
X125374001Y-99078926D01*
X125374000Y-99958476D01*
X124886178Y-100446298D01*
X124869660Y-100471020D01*
X124863860Y-100500180D01*
X124863860Y-101213920D01*
X124869660Y-101243080D01*
X124886178Y-101267802D01*
X125282418Y-101664042D01*
X125307140Y-101680560D01*
X125336300Y-101686360D01*
X126286260Y-101686360D01*
X126315420Y-101680560D01*
X126340142Y-101664042D01*
X126356660Y-101639320D01*
X126362460Y-101610160D01*
X126362460Y-101442520D01*
X126360185Y-101424039D01*
X126359920Y-101422979D01*
X126359920Y-100373180D01*
X126966980Y-100373180D01*
X126966980Y-102246616D01*
X126910874Y-102302722D01*
X126352600Y-102302722D01*
X126263405Y-102320464D01*
X126220249Y-102349300D01*
X126184951Y-102349300D01*
X126141795Y-102320464D01*
X126052600Y-102302722D01*
X125402600Y-102302722D01*
X125313405Y-102320464D01*
X125270249Y-102349300D01*
X124278685Y-102349300D01*
X124272495Y-102345164D01*
X124183300Y-102327422D01*
X122933300Y-102327422D01*
X122844105Y-102345164D01*
X122837915Y-102349300D01*
X122251566Y-102349300D01*
X122181517Y-102302495D01*
X122008610Y-102268102D01*
X121496110Y-102268102D01*
X121323203Y-102302495D01*
X121253154Y-102349300D01*
X120015000Y-102349300D01*
X119985840Y-102355100D01*
X119961118Y-102371618D01*
X118624536Y-103708200D01*
X113610204Y-103708200D01*
X113202720Y-103300716D01*
X113202720Y-96480444D01*
X114522064Y-95161100D01*
X124588456Y-95161100D01*
X125478540Y-96051184D01*
X125478540Y-96051184D01*
G37*
X125478540Y-96051184D02*
X125478540Y-98785247D01*
X125472670Y-98789169D01*
X125417448Y-98871813D01*
X125394516Y-98906133D01*
X125367074Y-99044100D01*
X125374001Y-99078926D01*
X125374000Y-99958476D01*
X124886178Y-100446298D01*
X124869660Y-100471020D01*
X124863860Y-100500180D01*
X124863860Y-101213920D01*
X124869660Y-101243080D01*
X124886178Y-101267802D01*
X125282418Y-101664042D01*
X125307140Y-101680560D01*
X125336300Y-101686360D01*
X126286260Y-101686360D01*
X126315420Y-101680560D01*
X126340142Y-101664042D01*
X126356660Y-101639320D01*
X126362460Y-101610160D01*
X126362460Y-101442520D01*
X126360185Y-101424039D01*
X126359920Y-101422979D01*
X126359920Y-100373180D01*
X126966980Y-100373180D01*
X126966980Y-102246616D01*
X126910874Y-102302722D01*
X126352600Y-102302722D01*
X126263405Y-102320464D01*
X126220249Y-102349300D01*
X126184951Y-102349300D01*
X126141795Y-102320464D01*
X126052600Y-102302722D01*
X125402600Y-102302722D01*
X125313405Y-102320464D01*
X125270249Y-102349300D01*
X124278685Y-102349300D01*
X124272495Y-102345164D01*
X124183300Y-102327422D01*
X122933300Y-102327422D01*
X122844105Y-102345164D01*
X122837915Y-102349300D01*
X122251566Y-102349300D01*
X122181517Y-102302495D01*
X122008610Y-102268102D01*
X121496110Y-102268102D01*
X121323203Y-102302495D01*
X121253154Y-102349300D01*
X120015000Y-102349300D01*
X119985840Y-102355100D01*
X119961118Y-102371618D01*
X118624536Y-103708200D01*
X113610204Y-103708200D01*
X113202720Y-103300716D01*
X113202720Y-96480444D01*
X114522064Y-95161100D01*
X124588456Y-95161100D01*
X125478540Y-96051184D01*
G04 #@! TD*
M02*
