M48
;DRILL file {KiCad 5.0.0-fee4fd1~66~ubuntu16.04.1} date Sun Feb 10 09:27:40 2019
;FORMAT={-:-/ absolute / inch / decimal}
FMAT,2
INCH,TZ
T1C0.0120
T2C0.0315
T3C0.0340
T4C0.0400
T5C0.0402
T6C0.0591
T7C0.1181
%
G90
G05
M72
T1
X4.96Y-3.626
X5.023Y-3.811
X5.096Y-4.619
X5.138Y-4.568
X5.186Y-4.611
X5.2745Y-5.2455
X5.345Y-4.313
X5.426Y-5.2415
X5.444Y-4.412
X5.447Y-3.684
X5.467Y-3.634
X5.4675Y-4.299
X5.474Y-3.89
X5.477Y-4.088
X5.477Y-4.132
X5.477Y-4.184
X5.4775Y-4.2405
X5.499Y-3.676
X5.528Y-3.633
X5.666Y-3.94
X5.699Y-3.907
X5.77Y-4.34
X5.8036Y-4.689
X5.8595Y-4.868
X5.876Y-4.144
X5.92Y-4.8415
X5.9422Y-4.067
X5.9555Y-4.7715
X5.9572Y-4.1107
X5.965Y-3.959
X5.973Y-3.86
X5.9735Y-3.594
X5.982Y-4.471
X5.9865Y-4.7735
X6.01Y-4.039
X6.0135Y-3.959
X6.0142Y-4.4697
X6.0235Y-3.5445
X6.0659Y-4.0896
X6.0801Y-4.0219
X6.0875Y-4.359
X6.0937Y-4.3902
X6.1Y-3.774
X6.107Y-3.9315
X6.169Y-4.223
X6.1845Y-3.4195
X6.1975Y-3.551
X6.203Y-4.018
X6.214Y-3.6455
X6.2348Y-3.7358
X6.2525Y-3.533
X6.2544Y-3.6399
X6.258Y-3.9985
X6.269Y-3.498
X6.2699Y-3.7025
X6.2955Y-4.5665
X6.328Y-3.9555
X6.3359Y-3.5813
X6.349Y-4.902
X6.358Y-3.529
X6.3647Y-3.6033
X6.394Y-3.856
X6.4Y-4.607
X6.422Y-4.6765
X6.4385Y-3.2845
X6.444Y-3.57
X6.4535Y-3.9385
X6.477Y-3.5905
X6.4865Y-3.464
X6.4945Y-4.4941
X6.5395Y-4.539
X6.54Y-3.5358
X6.542Y-3.762
X6.558Y-4.186
X6.586Y-4.398
X6.5885Y-3.9405
X6.6105Y-4.7895
X6.616Y-4.872
X6.6169Y-3.6166
X6.617Y-3.6725
X6.6265Y-4.55
X6.63Y-4.6265
X6.66Y-4.354
X6.697Y-4.693
X6.74Y-3.658
X6.838Y-4.752
X6.87Y-3.862
X6.896Y-4.796
X7.028Y-3.786
X7.0284Y-3.8784
X7.098Y-3.664
X7.368Y-3.978
X7.37Y-3.86
T2
X6.04Y-3.44
X6.09Y-3.34
X6.14Y-3.44
X6.19Y-3.34
X6.24Y-3.44
X6.29Y-3.34
X6.34Y-3.44
X6.39Y-3.34
X6.44Y-3.44
X6.49Y-3.34
X6.54Y-3.44
X6.59Y-3.34
X6.64Y-3.44
X6.69Y-3.34
X6.74Y-3.44
X6.79Y-3.34
X6.84Y-3.44
X6.89Y-3.34
X6.94Y-3.44
X6.99Y-3.34
T3
X6.72Y-5.093
X6.72Y-5.29
X6.287Y-5.091
X6.287Y-5.288
T4
X5.646Y-4.634
X5.646Y-4.734
X5.746Y-4.634
X5.746Y-4.734
X5.846Y-4.634
X5.846Y-4.734
T5
X6.9518Y-4.21
X7.0699Y-4.21
X6.9518Y-4.4934
X6.9518Y-4.6115
X6.9518Y-4.7296
X6.9518Y-4.8485
X6.9518Y-4.9666
X7.0699Y-4.4934
X7.0699Y-4.6115
X7.0699Y-4.7296
X7.0699Y-4.8485
X7.0699Y-4.9666
T6
X5.9849Y-3.3691
T7
X7.24Y-4.21
X7.24Y-4.5784
X7.24Y-4.8816
T0
M30
