G04 #@! TF.GenerationSoftware,KiCad,Pcbnew,5.0.0-fee4fd1~66~ubuntu16.04.1*
G04 #@! TF.CreationDate,2019-02-11T22:50:48-05:00*
G04 #@! TF.ProjectId,AIR_Control_Board,4149525F436F6E74726F6C5F426F6172,rev?*
G04 #@! TF.SameCoordinates,Original*
G04 #@! TF.FileFunction,Copper,L2,Bot,Signal*
G04 #@! TF.FilePolarity,Positive*
%FSLAX46Y46*%
G04 Gerber Fmt 4.6, Leading zero omitted, Abs format (unit mm)*
G04 Created by KiCad (PCBNEW 5.0.0-fee4fd1~66~ubuntu16.04.1) date Mon Feb 11 22:50:48 2019*
%MOMM*%
%LPD*%
G01*
G04 APERTURE LIST*
G04 #@! TA.AperFunction,ComponentPad*
%ADD10C,1.371600*%
G04 #@! TD*
G04 #@! TA.AperFunction,ComponentPad*
%ADD11R,1.371600X1.371600*%
G04 #@! TD*
G04 #@! TA.AperFunction,ComponentPad*
%ADD12C,1.400000*%
G04 #@! TD*
G04 #@! TA.AperFunction,ComponentPad*
%ADD13R,1.400000X1.400000*%
G04 #@! TD*
G04 #@! TA.AperFunction,ComponentPad*
%ADD14C,3.100000*%
G04 #@! TD*
G04 #@! TA.AperFunction,ComponentPad*
%ADD15C,1.420000*%
G04 #@! TD*
G04 #@! TA.AperFunction,ComponentPad*
%ADD16C,3.200000*%
G04 #@! TD*
G04 #@! TA.AperFunction,ComponentPad*
%ADD17C,1.300000*%
G04 #@! TD*
G04 #@! TA.AperFunction,ComponentPad*
%ADD18C,2.000000*%
G04 #@! TD*
G04 #@! TA.AperFunction,ViaPad*
%ADD19C,0.609600*%
G04 #@! TD*
G04 #@! TA.AperFunction,Conductor*
%ADD20C,0.152400*%
G04 #@! TD*
G04 #@! TA.AperFunction,Conductor*
%ADD21C,0.254000*%
G04 #@! TD*
G04 #@! TA.AperFunction,Conductor*
%ADD22C,0.508000*%
G04 #@! TD*
G04 APERTURE END LIST*
D10*
G04 #@! TO.P,C1,2*
G04 #@! TO.N,GND*
X170688000Y-134366000D03*
D11*
G04 #@! TO.P,C1,1*
G04 #@! TO.N,/Air+12V*
X170688000Y-129362200D03*
G04 #@! TD*
D10*
G04 #@! TO.P,C2,2*
G04 #@! TO.N,GND*
X159689800Y-134315200D03*
D11*
G04 #@! TO.P,C2,1*
G04 #@! TO.N,/Air+12V*
X159689800Y-129311400D03*
G04 #@! TD*
D12*
G04 #@! TO.P,J4,6*
G04 #@! TO.N,GND*
X143408400Y-120243600D03*
G04 #@! TO.P,J4,5*
G04 #@! TO.N,/RESET*
X143408400Y-117703600D03*
G04 #@! TO.P,J4,4*
G04 #@! TO.N,/MOSI*
X145948400Y-120243600D03*
G04 #@! TO.P,J4,3*
G04 #@! TO.N,/SCK*
X145948400Y-117703600D03*
G04 #@! TO.P,J4,2*
G04 #@! TO.N,VCC*
X148488400Y-120243600D03*
D13*
G04 #@! TO.P,J4,1*
G04 #@! TO.N,/MISO*
X148488400Y-117703600D03*
G04 #@! TD*
D14*
G04 #@! TO.P,J1,*
G04 #@! TO.N,*
X183896000Y-116292000D03*
D15*
G04 #@! TO.P,J1,1*
G04 #@! TO.N,/Air+12V*
X179576000Y-114132000D03*
G04 #@! TO.P,J1,2*
G04 #@! TO.N,/Precharge-*
X179576000Y-117132000D03*
D14*
G04 #@! TO.P,J1,*
G04 #@! TO.N,*
X183896000Y-123992000D03*
D15*
G04 #@! TO.P,J1,3*
G04 #@! TO.N,VCC*
X179576000Y-120132000D03*
G04 #@! TO.P,J1,4*
G04 #@! TO.N,/AIR+_Weld_Detect*
X179576000Y-123152000D03*
G04 #@! TO.P,J1,5*
G04 #@! TO.N,/Air+12V*
X179576000Y-126152000D03*
G04 #@! TO.P,J1,6*
G04 #@! TO.N,/Air+GND*
X176576000Y-114132000D03*
G04 #@! TO.P,J1,7*
G04 #@! TO.N,VCC*
X176576000Y-117132000D03*
G04 #@! TO.P,J1,8*
G04 #@! TO.N,/AIR-_Weld_Detect*
X176576000Y-120132000D03*
G04 #@! TO.P,J1,9*
G04 #@! TO.N,/Air+12V*
X176576000Y-123152000D03*
G04 #@! TO.P,J1,10*
G04 #@! TO.N,GND*
X176576000Y-126152000D03*
G04 #@! TD*
G04 #@! TO.P,J3,2*
G04 #@! TO.N,GND*
X176576000Y-106934000D03*
G04 #@! TO.P,J3,1*
G04 #@! TO.N,/Air+12V*
X179576000Y-106934000D03*
D16*
G04 #@! TO.P,J3,*
G04 #@! TO.N,*
X183896000Y-106934000D03*
G04 #@! TD*
D17*
G04 #@! TO.P,J2,5*
G04 #@! TO.N,VCC*
X158496000Y-87376000D03*
G04 #@! TO.P,J2,3*
G04 #@! TO.N,/CAN_P*
X155956000Y-87376000D03*
G04 #@! TO.P,J2,1*
G04 #@! TO.N,GND*
X153416000Y-87376000D03*
G04 #@! TO.P,J2,7*
G04 #@! TO.N,/MISO*
X161036000Y-87376000D03*
G04 #@! TO.P,J2,2*
G04 #@! TO.N,+12V*
X154686000Y-84836000D03*
G04 #@! TO.P,J2,4*
G04 #@! TO.N,/CAN_N*
X157226000Y-84836000D03*
G04 #@! TO.P,J2,6*
G04 #@! TO.N,/MOSI*
X159766000Y-84836000D03*
G04 #@! TO.P,J2,8*
G04 #@! TO.N,/SCK*
X162306000Y-84836000D03*
G04 #@! TO.P,J2,9*
G04 #@! TO.N,/RESET*
X163576000Y-87376000D03*
G04 #@! TO.P,J2,10*
G04 #@! TO.N,Net-(J2-Pad10)*
X164846000Y-84836000D03*
G04 #@! TO.P,J2,11*
G04 #@! TO.N,Net-(J2-Pad11)*
X166116000Y-87376000D03*
G04 #@! TO.P,J2,12*
G04 #@! TO.N,/IMD_Sense*
X167386000Y-84836000D03*
G04 #@! TO.P,J2,13*
G04 #@! TO.N,/BMS_Sense*
X168656000Y-87376000D03*
G04 #@! TO.P,J2,14*
G04 #@! TO.N,/ShutdownSense_BMS*
X169926000Y-84836000D03*
G04 #@! TO.P,J2,15*
G04 #@! TO.N,/ShutdownSense_IMD*
X171196000Y-87376000D03*
G04 #@! TO.P,J2,16*
G04 #@! TO.N,/ShutdownSense_HVD_Conn*
X172466000Y-84836000D03*
G04 #@! TO.P,J2,17*
G04 #@! TO.N,/ShutdownSense_MainPack*
X173736000Y-87376000D03*
G04 #@! TO.P,J2,18*
G04 #@! TO.N,VCC*
X175006000Y-84836000D03*
G04 #@! TO.P,J2,19*
G04 #@! TO.N,/Cooling_Pressure_Sense*
X176276000Y-87376000D03*
G04 #@! TO.P,J2,20*
G04 #@! TO.N,GND*
X177546000Y-84836000D03*
D18*
G04 #@! TO.P,J2,21*
G04 #@! TO.N,N/C*
X152016000Y-85576000D03*
G04 #@! TD*
D19*
G04 #@! TO.N,GND*
X154940000Y-95859600D03*
X166166800Y-95554800D03*
X162407600Y-97942400D03*
X180289200Y-93065600D03*
X187198000Y-98044000D03*
X187147200Y-101041200D03*
X149250400Y-105257600D03*
X146558000Y-110236000D03*
X167284400Y-111709200D03*
X169164000Y-110591600D03*
X166573200Y-106324400D03*
X171196000Y-92913200D03*
X174498000Y-98094800D03*
X127584200Y-96799400D03*
X139115800Y-104952800D03*
X139115800Y-106273600D03*
X139128500Y-107708700D03*
X138874500Y-109194600D03*
X139115800Y-103835200D03*
X131724400Y-117119400D03*
X138353800Y-93573600D03*
X138861800Y-92303600D03*
X139674600Y-93370400D03*
X140411200Y-92278200D03*
X125984000Y-92100400D03*
X161264600Y-124510800D03*
X168046400Y-123748800D03*
X173685200Y-120700800D03*
X139039600Y-98806000D03*
X151714200Y-98044000D03*
X156692600Y-107264200D03*
X157556200Y-102057200D03*
X159905700Y-115989100D03*
X133972300Y-133235700D03*
X137820400Y-133134100D03*
X168313100Y-115570000D03*
X167906700Y-121653300D03*
G04 #@! TO.N,VCC*
X143916400Y-100076000D03*
X144754600Y-99237800D03*
X158953200Y-101561900D03*
X160731200Y-100469700D03*
X158813500Y-89738200D03*
X161493200Y-89636600D03*
X152654000Y-102590600D03*
X154434317Y-102156483D03*
X163918900Y-100037900D03*
X167347900Y-100088700D03*
X178520445Y-98510445D03*
X178511200Y-96164400D03*
G04 #@! TO.N,/MISO*
X154779538Y-111510638D03*
X152760238Y-113529938D03*
G04 #@! TO.N,/MOSI*
X154622500Y-110718600D03*
X151942800Y-113563400D03*
G04 #@! TO.N,/SCK*
X159232600Y-88849200D03*
X151511000Y-100558600D03*
X150931905Y-103301800D03*
G04 #@! TO.N,/RESET*
X168071800Y-93281500D03*
X168069223Y-91861600D03*
X163677600Y-90678000D03*
X147410401Y-119100600D03*
G04 #@! TO.N,/P_LED_1*
X151269700Y-121196100D03*
X148831300Y-123647200D03*
G04 #@! TO.N,/P_LED_2*
X152057100Y-121246900D03*
X150368000Y-122974100D03*
G04 #@! TO.N,Net-(C10-Pad1)*
X135763000Y-109550200D03*
X138277600Y-112064800D03*
G04 #@! TO.N,/RJ45_LED1*
X154074879Y-103874821D03*
X155117800Y-99860100D03*
G04 #@! TO.N,/RJ45_LED2*
X151313551Y-104412493D03*
X152742900Y-100558600D03*
G04 #@! TO.N,/AIR+_Weld_Detect*
X175158400Y-121818400D03*
X162560000Y-117017800D03*
X163118800Y-118783100D03*
G04 #@! TO.N,/AIR-_Weld_Detect*
X164960300Y-114150100D03*
X166103300Y-115290600D03*
X168402000Y-117513100D03*
X170103800Y-119202200D03*
G04 #@! TO.N,Net-(J2-Pad10)*
X158364804Y-94890204D03*
X157835600Y-92595700D03*
X157416500Y-90195400D03*
X157086300Y-86855300D03*
X163537900Y-83426300D03*
G04 #@! TO.N,Net-(J2-Pad11)*
X159255689Y-94043500D03*
X161663327Y-91523624D03*
X166116000Y-89809320D03*
G04 #@! TO.N,/IMD_Sense*
X164515800Y-91198700D03*
X164757100Y-87985600D03*
G04 #@! TO.N,/BMS_Sense*
X158861779Y-92453479D03*
X160932109Y-90964029D03*
G04 #@! TO.N,/ShutdownSense_BMS*
X151726900Y-91287600D03*
X152996900Y-90030300D03*
G04 #@! TO.N,Net-(R25-Pad1)*
X130505200Y-116027200D03*
X129438400Y-117322600D03*
G04 #@! TD*
D20*
G04 #@! TO.N,GND*
X152018252Y-97891600D02*
X152119852Y-97993200D01*
X151587200Y-97891600D02*
X152018252Y-97891600D01*
X139115800Y-104952800D02*
X139115800Y-105383852D01*
X139115800Y-104952800D02*
X139115800Y-106273600D01*
X139115800Y-108915200D02*
X138861800Y-109169200D01*
X139115800Y-107873800D02*
X139115800Y-108915200D01*
X138353800Y-92811600D02*
X138861800Y-92303600D01*
X138353800Y-93573600D02*
X138353800Y-92811600D01*
X139674600Y-93014800D02*
X140411200Y-92278200D01*
X139674600Y-93370400D02*
X139674600Y-93014800D01*
X151511000Y-103403400D02*
X151434800Y-103479600D01*
X170002201Y-133680201D02*
X170688000Y-134366000D01*
X160375599Y-133629401D02*
X169951401Y-133629401D01*
X159689800Y-134315200D02*
X160375599Y-133629401D01*
X169951401Y-133629401D02*
X170002201Y-133680201D01*
D21*
G04 #@! TO.N,VCC*
X143916400Y-100076000D02*
X144754600Y-99237800D01*
D22*
X159639000Y-101561900D02*
X160731200Y-100469700D01*
X158953200Y-101561900D02*
X159639000Y-101561900D01*
D21*
X161391600Y-89738200D02*
X161493200Y-89636600D01*
X158813500Y-89738200D02*
X161391600Y-89738200D01*
D22*
X154000200Y-102590600D02*
X154434317Y-102156483D01*
X152654000Y-102590600D02*
X154000200Y-102590600D01*
X167297100Y-100037900D02*
X167347900Y-100088700D01*
X163918900Y-100037900D02*
X167297100Y-100037900D01*
X178520445Y-96173645D02*
X178511200Y-96164400D01*
X178520445Y-98510445D02*
X178520445Y-96173645D01*
D20*
G04 #@! TO.N,/MISO*
X154779538Y-111510638D02*
X152760238Y-113529938D01*
G04 #@! TO.N,/MOSI*
X151942800Y-113398300D02*
X151942800Y-113563400D01*
X154622500Y-110718600D02*
X151942800Y-113398300D01*
G04 #@! TO.N,/SCK*
X159232600Y-87879070D02*
X159232600Y-88849200D01*
X162306000Y-85725000D02*
X161533601Y-86497399D01*
X160614271Y-86497399D02*
X159232600Y-87879070D01*
X162306000Y-84836000D02*
X162306000Y-85725000D01*
X161533601Y-86497399D02*
X160614271Y-86497399D01*
X150931905Y-101137695D02*
X151511000Y-100558600D01*
X150931905Y-103301800D02*
X150931905Y-101137695D01*
G04 #@! TO.N,/RESET*
X168071800Y-91864177D02*
X168069223Y-91861600D01*
X168071800Y-93281500D02*
X168071800Y-91864177D01*
X163677600Y-87477600D02*
X163576000Y-87376000D01*
X163677600Y-90678000D02*
X163677600Y-87477600D01*
X144805400Y-119100600D02*
X143408400Y-117703600D01*
X147410401Y-119100600D02*
X144805400Y-119100600D01*
G04 #@! TO.N,/P_LED_1*
X148831300Y-123634500D02*
X148831300Y-123647200D01*
X151269700Y-121196100D02*
X148831300Y-123634500D01*
G04 #@! TO.N,/P_LED_2*
X150368000Y-122936000D02*
X150368000Y-122974100D01*
X152057100Y-121246900D02*
X150368000Y-122936000D01*
G04 #@! TO.N,Net-(C10-Pad1)*
X135763000Y-109550200D02*
X138277600Y-112064800D01*
G04 #@! TO.N,/RJ45_LED1*
X154967718Y-101627718D02*
X154698700Y-101358700D01*
X154967718Y-102981982D02*
X154967718Y-101627718D01*
X154074879Y-103874821D02*
X154967718Y-102981982D01*
X154698700Y-100279200D02*
X155117800Y-99860100D01*
X154698700Y-101358700D02*
X154698700Y-100279200D01*
G04 #@! TO.N,/RJ45_LED2*
X152120599Y-103605445D02*
X152120599Y-101104701D01*
X151313551Y-104412493D02*
X152120599Y-103605445D01*
X152666700Y-100558600D02*
X152742900Y-100558600D01*
X152120599Y-101104701D02*
X152666700Y-100558600D01*
G04 #@! TO.N,/AIR+_Weld_Detect*
X178242400Y-121818400D02*
X179576000Y-123152000D01*
X175158400Y-121818400D02*
X178242400Y-121818400D01*
X163118800Y-117576600D02*
X163118800Y-118783100D01*
X162560000Y-117017800D02*
X163118800Y-117576600D01*
G04 #@! TO.N,/AIR-_Weld_Detect*
X166100800Y-115290600D02*
X166103300Y-115290600D01*
X164960300Y-114150100D02*
X166100800Y-115290600D01*
X170091100Y-119202200D02*
X170103800Y-119202200D01*
X168402000Y-117513100D02*
X170091100Y-119202200D01*
G04 #@! TO.N,Net-(J2-Pad10)*
X157835600Y-94361000D02*
X157835600Y-92595700D01*
X158364804Y-94890204D02*
X157835600Y-94361000D01*
X157086300Y-89865200D02*
X157086300Y-86855300D01*
X157416500Y-90195400D02*
X157086300Y-89865200D01*
X164846000Y-84734400D02*
X164846000Y-84836000D01*
X163537900Y-83426300D02*
X164846000Y-84734400D01*
G04 #@! TO.N,Net-(J2-Pad11)*
X161663327Y-91635862D02*
X161663327Y-91523624D01*
X159255689Y-94043500D02*
X161663327Y-91635862D01*
X166116000Y-89719896D02*
X166116000Y-89809320D01*
X166116000Y-89809320D02*
X166116000Y-87376000D01*
G04 #@! TO.N,/IMD_Sense*
X164515800Y-88226900D02*
X164757100Y-87985600D01*
X164515800Y-91198700D02*
X164515800Y-88226900D01*
G04 #@! TO.N,/BMS_Sense*
X160351229Y-90964029D02*
X160932109Y-90964029D01*
X158861779Y-92453479D02*
X160351229Y-90964029D01*
G04 #@! TO.N,/ShutdownSense_BMS*
X152984200Y-90030300D02*
X152996900Y-90030300D01*
X151726900Y-91287600D02*
X152984200Y-90030300D01*
G04 #@! TO.N,Net-(R25-Pad1)*
X129438400Y-117094000D02*
X129438400Y-117322600D01*
X130505200Y-116027200D02*
X129438400Y-117094000D01*
G04 #@! TD*
D21*
G04 #@! TO.N,GND*
G36*
X162953700Y-83310095D02*
X162953700Y-83542505D01*
X163042639Y-83757223D01*
X163206977Y-83921561D01*
X163421695Y-84010500D01*
X163619206Y-84010500D01*
X164017132Y-84408426D01*
X163916600Y-84651131D01*
X163916600Y-85020869D01*
X164058093Y-85362463D01*
X164319537Y-85623907D01*
X164661131Y-85765400D01*
X165030869Y-85765400D01*
X165372463Y-85623907D01*
X165633907Y-85362463D01*
X165775400Y-85020869D01*
X165775400Y-84651131D01*
X166456600Y-84651131D01*
X166456600Y-85020869D01*
X166598093Y-85362463D01*
X166859537Y-85623907D01*
X167201131Y-85765400D01*
X167570869Y-85765400D01*
X167912463Y-85623907D01*
X168173907Y-85362463D01*
X168315400Y-85020869D01*
X168315400Y-84651131D01*
X168996600Y-84651131D01*
X168996600Y-85020869D01*
X169138093Y-85362463D01*
X169399537Y-85623907D01*
X169741131Y-85765400D01*
X170110869Y-85765400D01*
X170452463Y-85623907D01*
X170713907Y-85362463D01*
X170855400Y-85020869D01*
X170855400Y-84651131D01*
X171536600Y-84651131D01*
X171536600Y-85020869D01*
X171678093Y-85362463D01*
X171939537Y-85623907D01*
X172281131Y-85765400D01*
X172650869Y-85765400D01*
X172992463Y-85623907D01*
X173253907Y-85362463D01*
X173395400Y-85020869D01*
X173395400Y-84651131D01*
X174076600Y-84651131D01*
X174076600Y-85020869D01*
X174218093Y-85362463D01*
X174479537Y-85623907D01*
X174821131Y-85765400D01*
X175190869Y-85765400D01*
X175532463Y-85623907D01*
X175793907Y-85362463D01*
X175935400Y-85020869D01*
X175935400Y-84855725D01*
X176235972Y-84855725D01*
X176328144Y-85319102D01*
X176535116Y-85387265D01*
X177086381Y-84836000D01*
X178005619Y-84836000D01*
X178556884Y-85387265D01*
X178763856Y-85319102D01*
X178856028Y-84816275D01*
X178763856Y-84352898D01*
X178556884Y-84284735D01*
X178005619Y-84836000D01*
X177086381Y-84836000D01*
X176535116Y-84284735D01*
X176328144Y-84352898D01*
X176235972Y-84855725D01*
X175935400Y-84855725D01*
X175935400Y-84651131D01*
X175793907Y-84309537D01*
X175532463Y-84048093D01*
X175190869Y-83906600D01*
X174821131Y-83906600D01*
X174479537Y-84048093D01*
X174218093Y-84309537D01*
X174076600Y-84651131D01*
X173395400Y-84651131D01*
X173253907Y-84309537D01*
X172992463Y-84048093D01*
X172650869Y-83906600D01*
X172281131Y-83906600D01*
X171939537Y-84048093D01*
X171678093Y-84309537D01*
X171536600Y-84651131D01*
X170855400Y-84651131D01*
X170713907Y-84309537D01*
X170452463Y-84048093D01*
X170110869Y-83906600D01*
X169741131Y-83906600D01*
X169399537Y-84048093D01*
X169138093Y-84309537D01*
X168996600Y-84651131D01*
X168315400Y-84651131D01*
X168173907Y-84309537D01*
X167912463Y-84048093D01*
X167570869Y-83906600D01*
X167201131Y-83906600D01*
X166859537Y-84048093D01*
X166598093Y-84309537D01*
X166456600Y-84651131D01*
X165775400Y-84651131D01*
X165633907Y-84309537D01*
X165372463Y-84048093D01*
X165030869Y-83906600D01*
X164661131Y-83906600D01*
X164562110Y-83947616D01*
X164439610Y-83825116D01*
X176994735Y-83825116D01*
X177546000Y-84376381D01*
X178097265Y-83825116D01*
X178029102Y-83618144D01*
X177526275Y-83525972D01*
X177062898Y-83618144D01*
X176994735Y-83825116D01*
X164439610Y-83825116D01*
X164122100Y-83507606D01*
X164122100Y-83310095D01*
X164096131Y-83247400D01*
X184996778Y-83247400D01*
X185743630Y-83323262D01*
X186441537Y-83541973D01*
X187081212Y-83896550D01*
X187636521Y-84372508D01*
X188084787Y-84950410D01*
X188407694Y-85606642D01*
X188593230Y-86318926D01*
X188636600Y-86882577D01*
X188636601Y-133848768D01*
X188560738Y-134595629D01*
X188342027Y-135293536D01*
X187987450Y-135933210D01*
X187511491Y-136488521D01*
X186933590Y-136936787D01*
X186277360Y-137259693D01*
X185565075Y-137445230D01*
X185001423Y-137488600D01*
X128035222Y-137488600D01*
X127288371Y-137412738D01*
X126590464Y-137194027D01*
X125950790Y-136839450D01*
X125395479Y-136363491D01*
X124947213Y-135785590D01*
X124624307Y-135129360D01*
X124438770Y-134417075D01*
X124396522Y-133868000D01*
X125984650Y-133868000D01*
X126084071Y-134495722D01*
X126372603Y-135061998D01*
X126822002Y-135511397D01*
X127388278Y-135799929D01*
X128016000Y-135899350D01*
X128643722Y-135799929D01*
X129209998Y-135511397D01*
X129359493Y-135361902D01*
X159128032Y-135361902D01*
X159201746Y-135570325D01*
X159719212Y-135661555D01*
X160177854Y-135570325D01*
X160233601Y-135412702D01*
X170126232Y-135412702D01*
X170199946Y-135621125D01*
X170717412Y-135712355D01*
X171176054Y-135621125D01*
X171249768Y-135412702D01*
X170688000Y-134850934D01*
X170126232Y-135412702D01*
X160233601Y-135412702D01*
X160251568Y-135361902D01*
X159689800Y-134800134D01*
X159128032Y-135361902D01*
X129359493Y-135361902D01*
X129659397Y-135061998D01*
X129947929Y-134495722D01*
X129971862Y-134344612D01*
X158343445Y-134344612D01*
X158434675Y-134803254D01*
X158643098Y-134876968D01*
X159204866Y-134315200D01*
X160174734Y-134315200D01*
X160736502Y-134876968D01*
X160944925Y-134803254D01*
X161016828Y-134395412D01*
X169341645Y-134395412D01*
X169432875Y-134854054D01*
X169641298Y-134927768D01*
X170203066Y-134366000D01*
X171172934Y-134366000D01*
X171734702Y-134927768D01*
X171943125Y-134854054D01*
X172034355Y-134336588D01*
X171943125Y-133877946D01*
X171915004Y-133868000D01*
X182984650Y-133868000D01*
X183084071Y-134495722D01*
X183372603Y-135061998D01*
X183822002Y-135511397D01*
X184388278Y-135799929D01*
X185016000Y-135899350D01*
X185643722Y-135799929D01*
X186209998Y-135511397D01*
X186659397Y-135061998D01*
X186947929Y-134495722D01*
X187047350Y-133868000D01*
X186947929Y-133240278D01*
X186659397Y-132674002D01*
X186209998Y-132224603D01*
X185643722Y-131936071D01*
X185016000Y-131836650D01*
X184388278Y-131936071D01*
X183822002Y-132224603D01*
X183372603Y-132674002D01*
X183084071Y-133240278D01*
X182984650Y-133868000D01*
X171915004Y-133868000D01*
X171734702Y-133804232D01*
X171172934Y-134366000D01*
X170203066Y-134366000D01*
X169641298Y-133804232D01*
X169432875Y-133877946D01*
X169341645Y-134395412D01*
X161016828Y-134395412D01*
X161036155Y-134285788D01*
X160944925Y-133827146D01*
X160736502Y-133753432D01*
X160174734Y-134315200D01*
X159204866Y-134315200D01*
X158643098Y-133753432D01*
X158434675Y-133827146D01*
X158343445Y-134344612D01*
X129971862Y-134344612D01*
X130047350Y-133868000D01*
X129952399Y-133268498D01*
X159128032Y-133268498D01*
X159689800Y-133830266D01*
X160200768Y-133319298D01*
X170126232Y-133319298D01*
X170688000Y-133881066D01*
X171249768Y-133319298D01*
X171176054Y-133110875D01*
X170658588Y-133019645D01*
X170199946Y-133110875D01*
X170126232Y-133319298D01*
X160200768Y-133319298D01*
X160251568Y-133268498D01*
X160177854Y-133060075D01*
X159660388Y-132968845D01*
X159201746Y-133060075D01*
X159128032Y-133268498D01*
X129952399Y-133268498D01*
X129947929Y-133240278D01*
X129659397Y-132674002D01*
X129209998Y-132224603D01*
X128643722Y-131936071D01*
X128016000Y-131836650D01*
X127388278Y-131936071D01*
X126822002Y-132224603D01*
X126372603Y-132674002D01*
X126084071Y-133240278D01*
X125984650Y-133868000D01*
X124396522Y-133868000D01*
X124395400Y-133853423D01*
X124395400Y-128625600D01*
X158719127Y-128625600D01*
X158719127Y-129997200D01*
X158740812Y-130106216D01*
X158802564Y-130198636D01*
X158894984Y-130260388D01*
X159004000Y-130282073D01*
X160375600Y-130282073D01*
X160484616Y-130260388D01*
X160577036Y-130198636D01*
X160638788Y-130106216D01*
X160660473Y-129997200D01*
X160660473Y-128676400D01*
X169717327Y-128676400D01*
X169717327Y-130048000D01*
X169739012Y-130157016D01*
X169800764Y-130249436D01*
X169893184Y-130311188D01*
X170002200Y-130332873D01*
X171373800Y-130332873D01*
X171482816Y-130311188D01*
X171575236Y-130249436D01*
X171636988Y-130157016D01*
X171658673Y-130048000D01*
X171658673Y-128676400D01*
X171636988Y-128567384D01*
X171575236Y-128474964D01*
X171482816Y-128413212D01*
X171373800Y-128391527D01*
X170002200Y-128391527D01*
X169893184Y-128413212D01*
X169800764Y-128474964D01*
X169739012Y-128567384D01*
X169717327Y-128676400D01*
X160660473Y-128676400D01*
X160660473Y-128625600D01*
X160638788Y-128516584D01*
X160577036Y-128424164D01*
X160484616Y-128362412D01*
X160375600Y-128340727D01*
X159004000Y-128340727D01*
X158894984Y-128362412D01*
X158802564Y-128424164D01*
X158740812Y-128516584D01*
X158719127Y-128625600D01*
X124395400Y-128625600D01*
X124395400Y-127222893D01*
X176007153Y-127222893D01*
X176084618Y-127432291D01*
X176611968Y-127522879D01*
X177067382Y-127432291D01*
X177144847Y-127222893D01*
X176576000Y-126654046D01*
X176007153Y-127222893D01*
X124395400Y-127222893D01*
X124395400Y-126187968D01*
X175205121Y-126187968D01*
X175295709Y-126643382D01*
X175505107Y-126720847D01*
X176073954Y-126152000D01*
X177078046Y-126152000D01*
X177646893Y-126720847D01*
X177856291Y-126643382D01*
X177946879Y-126116032D01*
X177914887Y-125955196D01*
X178586600Y-125955196D01*
X178586600Y-126348804D01*
X178737228Y-126712450D01*
X179015550Y-126990772D01*
X179379196Y-127141400D01*
X179772804Y-127141400D01*
X180136450Y-126990772D01*
X180414772Y-126712450D01*
X180565400Y-126348804D01*
X180565400Y-125955196D01*
X180414772Y-125591550D01*
X180136450Y-125313228D01*
X179772804Y-125162600D01*
X179379196Y-125162600D01*
X179015550Y-125313228D01*
X178737228Y-125591550D01*
X178586600Y-125955196D01*
X177914887Y-125955196D01*
X177856291Y-125660618D01*
X177646893Y-125583153D01*
X177078046Y-126152000D01*
X176073954Y-126152000D01*
X175505107Y-125583153D01*
X175295709Y-125660618D01*
X175205121Y-126187968D01*
X124395400Y-126187968D01*
X124395400Y-125081107D01*
X176007153Y-125081107D01*
X176576000Y-125649954D01*
X177144847Y-125081107D01*
X177067382Y-124871709D01*
X176540032Y-124781121D01*
X176084618Y-124871709D01*
X176007153Y-125081107D01*
X124395400Y-125081107D01*
X124395400Y-123530995D01*
X148247100Y-123530995D01*
X148247100Y-123763405D01*
X148336039Y-123978123D01*
X148500377Y-124142461D01*
X148715095Y-124231400D01*
X148947505Y-124231400D01*
X149162223Y-124142461D01*
X149326561Y-123978123D01*
X149415500Y-123763405D01*
X149415500Y-123553194D01*
X149811504Y-123157190D01*
X149872739Y-123305023D01*
X150037077Y-123469361D01*
X150251795Y-123558300D01*
X150484205Y-123558300D01*
X150698923Y-123469361D01*
X150863261Y-123305023D01*
X150952200Y-123090305D01*
X150952200Y-122857895D01*
X150951262Y-122855632D01*
X151975794Y-121831100D01*
X152173305Y-121831100D01*
X152388023Y-121742161D01*
X152427989Y-121702195D01*
X174574200Y-121702195D01*
X174574200Y-121934605D01*
X174663139Y-122149323D01*
X174827477Y-122313661D01*
X175042195Y-122402600D01*
X175274605Y-122402600D01*
X175489323Y-122313661D01*
X175628984Y-122174000D01*
X176351674Y-122174000D01*
X176015550Y-122313228D01*
X175737228Y-122591550D01*
X175586600Y-122955196D01*
X175586600Y-123348804D01*
X175737228Y-123712450D01*
X176015550Y-123990772D01*
X176379196Y-124141400D01*
X176772804Y-124141400D01*
X177136450Y-123990772D01*
X177414772Y-123712450D01*
X177565400Y-123348804D01*
X177565400Y-122955196D01*
X177414772Y-122591550D01*
X177136450Y-122313228D01*
X176800326Y-122174000D01*
X178095106Y-122174000D01*
X178671452Y-122750346D01*
X178586600Y-122955196D01*
X178586600Y-123348804D01*
X178737228Y-123712450D01*
X179015550Y-123990772D01*
X179379196Y-124141400D01*
X179772804Y-124141400D01*
X180136450Y-123990772D01*
X180414772Y-123712450D01*
X180449706Y-123628110D01*
X182066600Y-123628110D01*
X182066600Y-124355890D01*
X182345110Y-125028272D01*
X182859728Y-125542890D01*
X183532110Y-125821400D01*
X184259890Y-125821400D01*
X184932272Y-125542890D01*
X185446890Y-125028272D01*
X185725400Y-124355890D01*
X185725400Y-123628110D01*
X185446890Y-122955728D01*
X184932272Y-122441110D01*
X184259890Y-122162600D01*
X183532110Y-122162600D01*
X182859728Y-122441110D01*
X182345110Y-122955728D01*
X182066600Y-123628110D01*
X180449706Y-123628110D01*
X180565400Y-123348804D01*
X180565400Y-122955196D01*
X180414772Y-122591550D01*
X180136450Y-122313228D01*
X179772804Y-122162600D01*
X179379196Y-122162600D01*
X179174346Y-122247452D01*
X178518611Y-121591717D01*
X178498773Y-121562027D01*
X178381148Y-121483433D01*
X178277420Y-121462800D01*
X178242400Y-121455834D01*
X178207380Y-121462800D01*
X175628984Y-121462800D01*
X175489323Y-121323139D01*
X175274605Y-121234200D01*
X175042195Y-121234200D01*
X174827477Y-121323139D01*
X174663139Y-121487477D01*
X174574200Y-121702195D01*
X152427989Y-121702195D01*
X152552361Y-121577823D01*
X152641300Y-121363105D01*
X152641300Y-121130695D01*
X152552361Y-120915977D01*
X152388023Y-120751639D01*
X152173305Y-120662700D01*
X151940895Y-120662700D01*
X151726177Y-120751639D01*
X151688800Y-120789016D01*
X151600623Y-120700839D01*
X151385905Y-120611900D01*
X151153495Y-120611900D01*
X150938777Y-120700839D01*
X150774439Y-120865177D01*
X150685500Y-121079895D01*
X150685500Y-121277406D01*
X148899906Y-123063000D01*
X148715095Y-123063000D01*
X148500377Y-123151939D01*
X148336039Y-123316277D01*
X148247100Y-123530995D01*
X124395400Y-123530995D01*
X124395400Y-121304498D01*
X142842476Y-121304498D01*
X142918392Y-121513494D01*
X143441659Y-121604348D01*
X143898408Y-121513494D01*
X143974324Y-121304498D01*
X143408400Y-120738575D01*
X142842476Y-121304498D01*
X124395400Y-121304498D01*
X124395400Y-120276859D01*
X142047652Y-120276859D01*
X142138506Y-120733608D01*
X142347502Y-120809524D01*
X142913425Y-120243600D01*
X143903375Y-120243600D01*
X144469298Y-120809524D01*
X144678294Y-120733608D01*
X144769148Y-120210341D01*
X144678294Y-119753592D01*
X144469298Y-119677676D01*
X143903375Y-120243600D01*
X142913425Y-120243600D01*
X142347502Y-119677676D01*
X142138506Y-119753592D01*
X142047652Y-120276859D01*
X124395400Y-120276859D01*
X124395400Y-119182702D01*
X142842476Y-119182702D01*
X143408400Y-119748625D01*
X143974324Y-119182702D01*
X143898408Y-118973706D01*
X143375141Y-118882852D01*
X142918392Y-118973706D01*
X142842476Y-119182702D01*
X124395400Y-119182702D01*
X124395400Y-117206395D01*
X128854200Y-117206395D01*
X128854200Y-117438805D01*
X128943139Y-117653523D01*
X129107477Y-117817861D01*
X129322195Y-117906800D01*
X129554605Y-117906800D01*
X129769323Y-117817861D01*
X129933661Y-117653523D01*
X129993613Y-117508785D01*
X142429000Y-117508785D01*
X142429000Y-117898415D01*
X142578104Y-118258386D01*
X142853614Y-118533896D01*
X143213585Y-118683000D01*
X143603215Y-118683000D01*
X143802401Y-118600495D01*
X144529189Y-119327283D01*
X144549027Y-119356973D01*
X144666652Y-119435567D01*
X144770380Y-119456200D01*
X144770384Y-119456200D01*
X144805399Y-119463165D01*
X144840414Y-119456200D01*
X145350718Y-119456200D01*
X145118104Y-119688814D01*
X144969000Y-120048785D01*
X144969000Y-120438415D01*
X145118104Y-120798386D01*
X145393614Y-121073896D01*
X145753585Y-121223000D01*
X146143215Y-121223000D01*
X146503186Y-121073896D01*
X146778696Y-120798386D01*
X146927800Y-120438415D01*
X146927800Y-120048785D01*
X147509000Y-120048785D01*
X147509000Y-120438415D01*
X147658104Y-120798386D01*
X147933614Y-121073896D01*
X148293585Y-121223000D01*
X148683215Y-121223000D01*
X149043186Y-121073896D01*
X149318696Y-120798386D01*
X149467800Y-120438415D01*
X149467800Y-120048785D01*
X149420751Y-119935196D01*
X175586600Y-119935196D01*
X175586600Y-120328804D01*
X175737228Y-120692450D01*
X176015550Y-120970772D01*
X176379196Y-121121400D01*
X176772804Y-121121400D01*
X177136450Y-120970772D01*
X177414772Y-120692450D01*
X177565400Y-120328804D01*
X177565400Y-119935196D01*
X178586600Y-119935196D01*
X178586600Y-120328804D01*
X178737228Y-120692450D01*
X179015550Y-120970772D01*
X179379196Y-121121400D01*
X179772804Y-121121400D01*
X180136450Y-120970772D01*
X180414772Y-120692450D01*
X180565400Y-120328804D01*
X180565400Y-119935196D01*
X180414772Y-119571550D01*
X180136450Y-119293228D01*
X179772804Y-119142600D01*
X179379196Y-119142600D01*
X179015550Y-119293228D01*
X178737228Y-119571550D01*
X178586600Y-119935196D01*
X177565400Y-119935196D01*
X177414772Y-119571550D01*
X177136450Y-119293228D01*
X176772804Y-119142600D01*
X176379196Y-119142600D01*
X176015550Y-119293228D01*
X175737228Y-119571550D01*
X175586600Y-119935196D01*
X149420751Y-119935196D01*
X149318696Y-119688814D01*
X149043186Y-119413304D01*
X148683215Y-119264200D01*
X148293585Y-119264200D01*
X147933614Y-119413304D01*
X147658104Y-119688814D01*
X147509000Y-120048785D01*
X146927800Y-120048785D01*
X146778696Y-119688814D01*
X146546082Y-119456200D01*
X146939817Y-119456200D01*
X147079478Y-119595861D01*
X147294196Y-119684800D01*
X147526606Y-119684800D01*
X147741324Y-119595861D01*
X147905662Y-119431523D01*
X147994601Y-119216805D01*
X147994601Y-118984395D01*
X147905662Y-118769677D01*
X147824458Y-118688473D01*
X149188400Y-118688473D01*
X149297416Y-118666788D01*
X149389836Y-118605036D01*
X149451588Y-118512616D01*
X149473273Y-118403600D01*
X149473273Y-117003600D01*
X149452983Y-116901595D01*
X161975800Y-116901595D01*
X161975800Y-117134005D01*
X162064739Y-117348723D01*
X162229077Y-117513061D01*
X162443795Y-117602000D01*
X162641306Y-117602000D01*
X162763200Y-117723894D01*
X162763201Y-118312515D01*
X162623539Y-118452177D01*
X162534600Y-118666895D01*
X162534600Y-118899305D01*
X162623539Y-119114023D01*
X162787877Y-119278361D01*
X163002595Y-119367300D01*
X163235005Y-119367300D01*
X163449723Y-119278361D01*
X163614061Y-119114023D01*
X163703000Y-118899305D01*
X163703000Y-118666895D01*
X163614061Y-118452177D01*
X163474400Y-118312516D01*
X163474400Y-117611620D01*
X163481366Y-117576600D01*
X163453767Y-117437852D01*
X163426401Y-117396895D01*
X167817800Y-117396895D01*
X167817800Y-117629305D01*
X167906739Y-117844023D01*
X168071077Y-118008361D01*
X168285795Y-118097300D01*
X168483306Y-118097300D01*
X169519600Y-119133594D01*
X169519600Y-119318405D01*
X169608539Y-119533123D01*
X169772877Y-119697461D01*
X169987595Y-119786400D01*
X170220005Y-119786400D01*
X170434723Y-119697461D01*
X170599061Y-119533123D01*
X170688000Y-119318405D01*
X170688000Y-119085995D01*
X170599061Y-118871277D01*
X170434723Y-118706939D01*
X170220005Y-118618000D01*
X170009794Y-118618000D01*
X168986200Y-117594406D01*
X168986200Y-117396895D01*
X168897261Y-117182177D01*
X168732923Y-117017839D01*
X168533405Y-116935196D01*
X175586600Y-116935196D01*
X175586600Y-117328804D01*
X175737228Y-117692450D01*
X176015550Y-117970772D01*
X176379196Y-118121400D01*
X176772804Y-118121400D01*
X177136450Y-117970772D01*
X177414772Y-117692450D01*
X177565400Y-117328804D01*
X177565400Y-116935196D01*
X178586600Y-116935196D01*
X178586600Y-117328804D01*
X178737228Y-117692450D01*
X179015550Y-117970772D01*
X179379196Y-118121400D01*
X179772804Y-118121400D01*
X180136450Y-117970772D01*
X180414772Y-117692450D01*
X180565400Y-117328804D01*
X180565400Y-116935196D01*
X180414772Y-116571550D01*
X180136450Y-116293228D01*
X179772804Y-116142600D01*
X179379196Y-116142600D01*
X179015550Y-116293228D01*
X178737228Y-116571550D01*
X178586600Y-116935196D01*
X177565400Y-116935196D01*
X177414772Y-116571550D01*
X177136450Y-116293228D01*
X176772804Y-116142600D01*
X176379196Y-116142600D01*
X176015550Y-116293228D01*
X175737228Y-116571550D01*
X175586600Y-116935196D01*
X168533405Y-116935196D01*
X168518205Y-116928900D01*
X168285795Y-116928900D01*
X168071077Y-117017839D01*
X167906739Y-117182177D01*
X167817800Y-117396895D01*
X163426401Y-117396895D01*
X163395010Y-117349916D01*
X163395009Y-117349915D01*
X163375172Y-117320227D01*
X163345485Y-117300391D01*
X163144200Y-117099106D01*
X163144200Y-116901595D01*
X163055261Y-116686877D01*
X162890923Y-116522539D01*
X162676205Y-116433600D01*
X162443795Y-116433600D01*
X162229077Y-116522539D01*
X162064739Y-116686877D01*
X161975800Y-116901595D01*
X149452983Y-116901595D01*
X149451588Y-116894584D01*
X149389836Y-116802164D01*
X149297416Y-116740412D01*
X149188400Y-116718727D01*
X147788400Y-116718727D01*
X147679384Y-116740412D01*
X147586964Y-116802164D01*
X147525212Y-116894584D01*
X147503527Y-117003600D01*
X147503527Y-118403600D01*
X147525212Y-118512616D01*
X147528174Y-118517050D01*
X147526606Y-118516400D01*
X147294196Y-118516400D01*
X147079478Y-118605339D01*
X146939817Y-118745000D01*
X144952694Y-118745000D01*
X144305295Y-118097601D01*
X144387800Y-117898415D01*
X144387800Y-117508785D01*
X144969000Y-117508785D01*
X144969000Y-117898415D01*
X145118104Y-118258386D01*
X145393614Y-118533896D01*
X145753585Y-118683000D01*
X146143215Y-118683000D01*
X146503186Y-118533896D01*
X146778696Y-118258386D01*
X146927800Y-117898415D01*
X146927800Y-117508785D01*
X146778696Y-117148814D01*
X146503186Y-116873304D01*
X146143215Y-116724200D01*
X145753585Y-116724200D01*
X145393614Y-116873304D01*
X145118104Y-117148814D01*
X144969000Y-117508785D01*
X144387800Y-117508785D01*
X144238696Y-117148814D01*
X143963186Y-116873304D01*
X143603215Y-116724200D01*
X143213585Y-116724200D01*
X142853614Y-116873304D01*
X142578104Y-117148814D01*
X142429000Y-117508785D01*
X129993613Y-117508785D01*
X130022600Y-117438805D01*
X130022600Y-117206395D01*
X129965866Y-117069428D01*
X130423895Y-116611400D01*
X130621405Y-116611400D01*
X130836123Y-116522461D01*
X131000461Y-116358123D01*
X131089400Y-116143405D01*
X131089400Y-115928110D01*
X182066600Y-115928110D01*
X182066600Y-116655890D01*
X182345110Y-117328272D01*
X182859728Y-117842890D01*
X183532110Y-118121400D01*
X184259890Y-118121400D01*
X184932272Y-117842890D01*
X185446890Y-117328272D01*
X185725400Y-116655890D01*
X185725400Y-115928110D01*
X185446890Y-115255728D01*
X184932272Y-114741110D01*
X184259890Y-114462600D01*
X183532110Y-114462600D01*
X182859728Y-114741110D01*
X182345110Y-115255728D01*
X182066600Y-115928110D01*
X131089400Y-115928110D01*
X131089400Y-115910995D01*
X131000461Y-115696277D01*
X130836123Y-115531939D01*
X130621405Y-115443000D01*
X130388995Y-115443000D01*
X130174277Y-115531939D01*
X130009939Y-115696277D01*
X129921000Y-115910995D01*
X129921000Y-116108505D01*
X129269123Y-116760383D01*
X129107477Y-116827339D01*
X128943139Y-116991677D01*
X128854200Y-117206395D01*
X124395400Y-117206395D01*
X124395400Y-113447195D01*
X151358600Y-113447195D01*
X151358600Y-113679605D01*
X151447539Y-113894323D01*
X151611877Y-114058661D01*
X151826595Y-114147600D01*
X152059005Y-114147600D01*
X152273723Y-114058661D01*
X152368250Y-113964134D01*
X152429315Y-114025199D01*
X152644033Y-114114138D01*
X152876443Y-114114138D01*
X153070166Y-114033895D01*
X164376100Y-114033895D01*
X164376100Y-114266305D01*
X164465039Y-114481023D01*
X164629377Y-114645361D01*
X164844095Y-114734300D01*
X165041606Y-114734300D01*
X165519100Y-115211794D01*
X165519100Y-115406805D01*
X165608039Y-115621523D01*
X165772377Y-115785861D01*
X165987095Y-115874800D01*
X166219505Y-115874800D01*
X166434223Y-115785861D01*
X166598561Y-115621523D01*
X166687500Y-115406805D01*
X166687500Y-115174395D01*
X166598561Y-114959677D01*
X166434223Y-114795339D01*
X166219505Y-114706400D01*
X166019494Y-114706400D01*
X165544500Y-114231406D01*
X165544500Y-114033895D01*
X165503618Y-113935196D01*
X175586600Y-113935196D01*
X175586600Y-114328804D01*
X175737228Y-114692450D01*
X176015550Y-114970772D01*
X176379196Y-115121400D01*
X176772804Y-115121400D01*
X177136450Y-114970772D01*
X177414772Y-114692450D01*
X177565400Y-114328804D01*
X177565400Y-113935196D01*
X178586600Y-113935196D01*
X178586600Y-114328804D01*
X178737228Y-114692450D01*
X179015550Y-114970772D01*
X179379196Y-115121400D01*
X179772804Y-115121400D01*
X180136450Y-114970772D01*
X180414772Y-114692450D01*
X180565400Y-114328804D01*
X180565400Y-113935196D01*
X180414772Y-113571550D01*
X180136450Y-113293228D01*
X179772804Y-113142600D01*
X179379196Y-113142600D01*
X179015550Y-113293228D01*
X178737228Y-113571550D01*
X178586600Y-113935196D01*
X177565400Y-113935196D01*
X177414772Y-113571550D01*
X177136450Y-113293228D01*
X176772804Y-113142600D01*
X176379196Y-113142600D01*
X176015550Y-113293228D01*
X175737228Y-113571550D01*
X175586600Y-113935196D01*
X165503618Y-113935196D01*
X165455561Y-113819177D01*
X165291223Y-113654839D01*
X165076505Y-113565900D01*
X164844095Y-113565900D01*
X164629377Y-113654839D01*
X164465039Y-113819177D01*
X164376100Y-114033895D01*
X153070166Y-114033895D01*
X153091161Y-114025199D01*
X153255499Y-113860861D01*
X153344438Y-113646143D01*
X153344438Y-113448632D01*
X154698232Y-112094838D01*
X154895743Y-112094838D01*
X155110461Y-112005899D01*
X155274799Y-111841561D01*
X155363738Y-111626843D01*
X155363738Y-111394433D01*
X155274799Y-111179715D01*
X155125624Y-111030540D01*
X155206700Y-110834805D01*
X155206700Y-110602395D01*
X155117761Y-110387677D01*
X154953423Y-110223339D01*
X154738705Y-110134400D01*
X154506295Y-110134400D01*
X154291577Y-110223339D01*
X154127239Y-110387677D01*
X154038300Y-110602395D01*
X154038300Y-110799906D01*
X151859006Y-112979200D01*
X151826595Y-112979200D01*
X151611877Y-113068139D01*
X151447539Y-113232477D01*
X151358600Y-113447195D01*
X124395400Y-113447195D01*
X124395400Y-109433995D01*
X135178800Y-109433995D01*
X135178800Y-109666405D01*
X135267739Y-109881123D01*
X135432077Y-110045461D01*
X135646795Y-110134400D01*
X135844306Y-110134400D01*
X137693400Y-111983494D01*
X137693400Y-112181005D01*
X137782339Y-112395723D01*
X137946677Y-112560061D01*
X138161395Y-112649000D01*
X138393805Y-112649000D01*
X138608523Y-112560061D01*
X138772861Y-112395723D01*
X138861800Y-112181005D01*
X138861800Y-111948595D01*
X138772861Y-111733877D01*
X138608523Y-111569539D01*
X138393805Y-111480600D01*
X138196294Y-111480600D01*
X136347200Y-109631506D01*
X136347200Y-109433995D01*
X136258261Y-109219277D01*
X136093923Y-109054939D01*
X135879205Y-108966000D01*
X135646795Y-108966000D01*
X135432077Y-109054939D01*
X135267739Y-109219277D01*
X135178800Y-109433995D01*
X124395400Y-109433995D01*
X124395400Y-108004893D01*
X176007153Y-108004893D01*
X176084618Y-108214291D01*
X176611968Y-108304879D01*
X177067382Y-108214291D01*
X177144847Y-108004893D01*
X176576000Y-107436046D01*
X176007153Y-108004893D01*
X124395400Y-108004893D01*
X124395400Y-106969968D01*
X175205121Y-106969968D01*
X175295709Y-107425382D01*
X175505107Y-107502847D01*
X176073954Y-106934000D01*
X177078046Y-106934000D01*
X177646893Y-107502847D01*
X177856291Y-107425382D01*
X177946879Y-106898032D01*
X177914887Y-106737196D01*
X178586600Y-106737196D01*
X178586600Y-107130804D01*
X178737228Y-107494450D01*
X179015550Y-107772772D01*
X179379196Y-107923400D01*
X179772804Y-107923400D01*
X180136450Y-107772772D01*
X180414772Y-107494450D01*
X180565400Y-107130804D01*
X180565400Y-106737196D01*
X180492071Y-106560164D01*
X182016600Y-106560164D01*
X182016600Y-107307836D01*
X182302721Y-107998595D01*
X182831405Y-108527279D01*
X183522164Y-108813400D01*
X184269836Y-108813400D01*
X184960595Y-108527279D01*
X185489279Y-107998595D01*
X185775400Y-107307836D01*
X185775400Y-106560164D01*
X185489279Y-105869405D01*
X184960595Y-105340721D01*
X184269836Y-105054600D01*
X183522164Y-105054600D01*
X182831405Y-105340721D01*
X182302721Y-105869405D01*
X182016600Y-106560164D01*
X180492071Y-106560164D01*
X180414772Y-106373550D01*
X180136450Y-106095228D01*
X179772804Y-105944600D01*
X179379196Y-105944600D01*
X179015550Y-106095228D01*
X178737228Y-106373550D01*
X178586600Y-106737196D01*
X177914887Y-106737196D01*
X177856291Y-106442618D01*
X177646893Y-106365153D01*
X177078046Y-106934000D01*
X176073954Y-106934000D01*
X175505107Y-106365153D01*
X175295709Y-106442618D01*
X175205121Y-106969968D01*
X124395400Y-106969968D01*
X124395400Y-105863107D01*
X176007153Y-105863107D01*
X176576000Y-106431954D01*
X177144847Y-105863107D01*
X177067382Y-105653709D01*
X176540032Y-105563121D01*
X176084618Y-105653709D01*
X176007153Y-105863107D01*
X124395400Y-105863107D01*
X124395400Y-103185595D01*
X150347705Y-103185595D01*
X150347705Y-103418005D01*
X150436644Y-103632723D01*
X150600982Y-103797061D01*
X150815700Y-103886000D01*
X151048110Y-103886000D01*
X151262828Y-103797061D01*
X151427166Y-103632723D01*
X151516105Y-103418005D01*
X151516105Y-103185595D01*
X151427166Y-102970877D01*
X151287505Y-102831216D01*
X151287505Y-101284989D01*
X151429694Y-101142800D01*
X151627205Y-101142800D01*
X151761521Y-101087164D01*
X151758033Y-101104701D01*
X151765000Y-101139726D01*
X151764999Y-103458151D01*
X151394857Y-103828293D01*
X151197346Y-103828293D01*
X150982628Y-103917232D01*
X150818290Y-104081570D01*
X150729351Y-104296288D01*
X150729351Y-104528698D01*
X150818290Y-104743416D01*
X150982628Y-104907754D01*
X151197346Y-104996693D01*
X151429756Y-104996693D01*
X151644474Y-104907754D01*
X151808812Y-104743416D01*
X151897751Y-104528698D01*
X151897751Y-104331187D01*
X152347284Y-103881654D01*
X152376971Y-103861818D01*
X152455566Y-103744193D01*
X152476199Y-103640465D01*
X152476199Y-103640464D01*
X152483165Y-103605446D01*
X152476199Y-103570427D01*
X152476199Y-103149286D01*
X152537795Y-103174800D01*
X152770205Y-103174800D01*
X152892847Y-103124000D01*
X153947674Y-103124000D01*
X154000200Y-103134448D01*
X154052726Y-103124000D01*
X154052731Y-103124000D01*
X154208322Y-103093051D01*
X154384759Y-102975159D01*
X154414517Y-102930623D01*
X154612118Y-102733022D01*
X154612118Y-102834687D01*
X154156185Y-103290621D01*
X153958674Y-103290621D01*
X153743956Y-103379560D01*
X153579618Y-103543898D01*
X153490679Y-103758616D01*
X153490679Y-103991026D01*
X153579618Y-104205744D01*
X153743956Y-104370082D01*
X153958674Y-104459021D01*
X154191084Y-104459021D01*
X154405802Y-104370082D01*
X154570140Y-104205744D01*
X154659079Y-103991026D01*
X154659079Y-103793515D01*
X155194406Y-103258189D01*
X155224090Y-103238355D01*
X155243925Y-103208670D01*
X155243928Y-103208667D01*
X155302685Y-103120730D01*
X155330284Y-102981983D01*
X155323318Y-102946963D01*
X155323318Y-101662738D01*
X155330284Y-101627718D01*
X155302685Y-101488970D01*
X155273770Y-101445695D01*
X158369000Y-101445695D01*
X158369000Y-101678105D01*
X158457939Y-101892823D01*
X158622277Y-102057161D01*
X158836995Y-102146100D01*
X159069405Y-102146100D01*
X159192047Y-102095300D01*
X159586474Y-102095300D01*
X159639000Y-102105748D01*
X159691526Y-102095300D01*
X159691531Y-102095300D01*
X159847122Y-102064351D01*
X160023559Y-101946459D01*
X160053317Y-101901923D01*
X160939479Y-101015762D01*
X161062123Y-100964961D01*
X161226461Y-100800623D01*
X161315400Y-100585905D01*
X161315400Y-100353495D01*
X161226461Y-100138777D01*
X161062123Y-99974439D01*
X160934788Y-99921695D01*
X163334700Y-99921695D01*
X163334700Y-100154105D01*
X163423639Y-100368823D01*
X163587977Y-100533161D01*
X163802695Y-100622100D01*
X164035105Y-100622100D01*
X164157747Y-100571300D01*
X167004316Y-100571300D01*
X167016977Y-100583961D01*
X167231695Y-100672900D01*
X167464105Y-100672900D01*
X167678823Y-100583961D01*
X167843161Y-100419623D01*
X167932100Y-100204905D01*
X167932100Y-99972495D01*
X167843161Y-99757777D01*
X167678823Y-99593439D01*
X167464105Y-99504500D01*
X167349626Y-99504500D01*
X167297100Y-99494052D01*
X167244574Y-99504500D01*
X164157747Y-99504500D01*
X164035105Y-99453700D01*
X163802695Y-99453700D01*
X163587977Y-99542639D01*
X163423639Y-99706977D01*
X163334700Y-99921695D01*
X160934788Y-99921695D01*
X160847405Y-99885500D01*
X160614995Y-99885500D01*
X160400277Y-99974439D01*
X160235939Y-100138777D01*
X160185138Y-100261421D01*
X159418060Y-101028500D01*
X159192047Y-101028500D01*
X159069405Y-100977700D01*
X158836995Y-100977700D01*
X158622277Y-101066639D01*
X158457939Y-101230977D01*
X158369000Y-101445695D01*
X155273770Y-101445695D01*
X155243928Y-101401033D01*
X155243927Y-101401032D01*
X155224091Y-101371345D01*
X155194403Y-101351508D01*
X155054300Y-101211406D01*
X155054300Y-100444300D01*
X155234005Y-100444300D01*
X155448723Y-100355361D01*
X155613061Y-100191023D01*
X155702000Y-99976305D01*
X155702000Y-99743895D01*
X155613061Y-99529177D01*
X155448723Y-99364839D01*
X155234005Y-99275900D01*
X155001595Y-99275900D01*
X154786877Y-99364839D01*
X154622539Y-99529177D01*
X154533600Y-99743895D01*
X154533600Y-99941406D01*
X154472015Y-100002991D01*
X154442328Y-100022827D01*
X154422492Y-100052514D01*
X154422490Y-100052516D01*
X154363733Y-100140453D01*
X154336134Y-100279200D01*
X154343101Y-100314225D01*
X154343100Y-101323680D01*
X154336134Y-101358700D01*
X154343100Y-101393719D01*
X154363733Y-101497447D01*
X154413736Y-101572283D01*
X154318112Y-101572283D01*
X154103394Y-101661222D01*
X153939056Y-101825560D01*
X153888255Y-101948204D01*
X153779260Y-102057200D01*
X152892847Y-102057200D01*
X152770205Y-102006400D01*
X152537795Y-102006400D01*
X152476199Y-102031914D01*
X152476199Y-101251995D01*
X152597491Y-101130703D01*
X152626695Y-101142800D01*
X152859105Y-101142800D01*
X153073823Y-101053861D01*
X153238161Y-100889523D01*
X153327100Y-100674805D01*
X153327100Y-100442395D01*
X153238161Y-100227677D01*
X153073823Y-100063339D01*
X152859105Y-99974400D01*
X152626695Y-99974400D01*
X152411977Y-100063339D01*
X152247639Y-100227677D01*
X152158700Y-100442395D01*
X152158700Y-100563706D01*
X152095200Y-100627206D01*
X152095200Y-100442395D01*
X152006261Y-100227677D01*
X151841923Y-100063339D01*
X151627205Y-99974400D01*
X151394795Y-99974400D01*
X151180077Y-100063339D01*
X151015739Y-100227677D01*
X150926800Y-100442395D01*
X150926800Y-100639906D01*
X150705220Y-100861486D01*
X150675533Y-100881322D01*
X150655697Y-100911009D01*
X150655695Y-100911011D01*
X150596938Y-100998948D01*
X150569339Y-101137695D01*
X150576306Y-101172720D01*
X150576305Y-102831216D01*
X150436644Y-102970877D01*
X150347705Y-103185595D01*
X124395400Y-103185595D01*
X124395400Y-99959795D01*
X143332200Y-99959795D01*
X143332200Y-100192205D01*
X143421139Y-100406923D01*
X143585477Y-100571261D01*
X143800195Y-100660200D01*
X144032605Y-100660200D01*
X144247323Y-100571261D01*
X144411661Y-100406923D01*
X144500600Y-100192205D01*
X144500600Y-100066535D01*
X144745136Y-99822000D01*
X144870805Y-99822000D01*
X145085523Y-99733061D01*
X145249861Y-99568723D01*
X145338800Y-99354005D01*
X145338800Y-99121595D01*
X145249861Y-98906877D01*
X145085523Y-98742539D01*
X144870805Y-98653600D01*
X144638395Y-98653600D01*
X144423677Y-98742539D01*
X144259339Y-98906877D01*
X144170400Y-99121595D01*
X144170400Y-99247264D01*
X143925865Y-99491800D01*
X143800195Y-99491800D01*
X143585477Y-99580739D01*
X143421139Y-99745077D01*
X143332200Y-99959795D01*
X124395400Y-99959795D01*
X124395400Y-96048195D01*
X177927000Y-96048195D01*
X177927000Y-96280605D01*
X177987046Y-96425569D01*
X177987045Y-98271598D01*
X177936245Y-98394240D01*
X177936245Y-98626650D01*
X178025184Y-98841368D01*
X178189522Y-99005706D01*
X178404240Y-99094645D01*
X178636650Y-99094645D01*
X178851368Y-99005706D01*
X179015706Y-98841368D01*
X179104645Y-98626650D01*
X179104645Y-98394240D01*
X179053845Y-98271598D01*
X179053845Y-96380928D01*
X179095400Y-96280605D01*
X179095400Y-96048195D01*
X179006461Y-95833477D01*
X178842123Y-95669139D01*
X178627405Y-95580200D01*
X178394995Y-95580200D01*
X178180277Y-95669139D01*
X178015939Y-95833477D01*
X177927000Y-96048195D01*
X124395400Y-96048195D01*
X124395400Y-92479495D01*
X157251400Y-92479495D01*
X157251400Y-92711905D01*
X157340339Y-92926623D01*
X157480001Y-93066285D01*
X157480000Y-94325980D01*
X157473034Y-94361000D01*
X157480000Y-94396019D01*
X157500633Y-94499747D01*
X157579227Y-94617372D01*
X157608915Y-94637209D01*
X157780604Y-94808898D01*
X157780604Y-95006409D01*
X157869543Y-95221127D01*
X158033881Y-95385465D01*
X158248599Y-95474404D01*
X158481009Y-95474404D01*
X158695727Y-95385465D01*
X158860065Y-95221127D01*
X158949004Y-95006409D01*
X158949004Y-94773999D01*
X158860065Y-94559281D01*
X158695727Y-94394943D01*
X158481009Y-94306004D01*
X158283498Y-94306004D01*
X158191200Y-94213706D01*
X158191200Y-93066284D01*
X158330861Y-92926623D01*
X158382960Y-92800844D01*
X158530856Y-92948740D01*
X158745574Y-93037679D01*
X158977984Y-93037679D01*
X159192702Y-92948740D01*
X159357040Y-92784402D01*
X159445979Y-92569684D01*
X159445979Y-92372173D01*
X160480024Y-91338128D01*
X160601186Y-91459290D01*
X160815904Y-91548229D01*
X161048314Y-91548229D01*
X161079127Y-91535466D01*
X161079127Y-91639829D01*
X161101779Y-91694516D01*
X159336995Y-93459300D01*
X159139484Y-93459300D01*
X158924766Y-93548239D01*
X158760428Y-93712577D01*
X158671489Y-93927295D01*
X158671489Y-94159705D01*
X158760428Y-94374423D01*
X158924766Y-94538761D01*
X159139484Y-94627700D01*
X159371894Y-94627700D01*
X159586612Y-94538761D01*
X159750950Y-94374423D01*
X159839889Y-94159705D01*
X159839889Y-93962194D01*
X161694259Y-92107824D01*
X161779532Y-92107824D01*
X161994250Y-92018885D01*
X162158588Y-91854547D01*
X162247527Y-91639829D01*
X162247527Y-91407419D01*
X162158588Y-91192701D01*
X161994250Y-91028363D01*
X161779532Y-90939424D01*
X161547122Y-90939424D01*
X161516309Y-90952187D01*
X161516309Y-90847824D01*
X161427370Y-90633106D01*
X161263032Y-90468768D01*
X161048314Y-90379829D01*
X160815904Y-90379829D01*
X160601186Y-90468768D01*
X160461525Y-90608429D01*
X160386243Y-90608429D01*
X160351228Y-90601464D01*
X160316213Y-90608429D01*
X160316209Y-90608429D01*
X160212481Y-90629062D01*
X160094856Y-90707656D01*
X160075018Y-90737346D01*
X158943085Y-91869279D01*
X158745574Y-91869279D01*
X158530856Y-91958218D01*
X158366518Y-92122556D01*
X158314419Y-92248335D01*
X158166523Y-92100439D01*
X157951805Y-92011500D01*
X157719395Y-92011500D01*
X157504677Y-92100439D01*
X157340339Y-92264777D01*
X157251400Y-92479495D01*
X124395400Y-92479495D01*
X124395400Y-91171395D01*
X151142700Y-91171395D01*
X151142700Y-91403805D01*
X151231639Y-91618523D01*
X151395977Y-91782861D01*
X151610695Y-91871800D01*
X151843105Y-91871800D01*
X152057823Y-91782861D01*
X152222161Y-91618523D01*
X152311100Y-91403805D01*
X152311100Y-91206294D01*
X152902895Y-90614500D01*
X153113105Y-90614500D01*
X153327823Y-90525561D01*
X153492161Y-90361223D01*
X153581100Y-90146505D01*
X153581100Y-89914095D01*
X153492161Y-89699377D01*
X153327823Y-89535039D01*
X153113105Y-89446100D01*
X152880695Y-89446100D01*
X152665977Y-89535039D01*
X152501639Y-89699377D01*
X152412700Y-89914095D01*
X152412700Y-90098905D01*
X151808206Y-90703400D01*
X151610695Y-90703400D01*
X151395977Y-90792339D01*
X151231639Y-90956677D01*
X151142700Y-91171395D01*
X124395400Y-91171395D01*
X124395400Y-86887222D01*
X124397352Y-86868000D01*
X125984650Y-86868000D01*
X126084071Y-87495722D01*
X126372603Y-88061998D01*
X126822002Y-88511397D01*
X127388278Y-88799929D01*
X128016000Y-88899350D01*
X128643722Y-88799929D01*
X129209998Y-88511397D01*
X129334511Y-88386884D01*
X152864735Y-88386884D01*
X152932898Y-88593856D01*
X153435725Y-88686028D01*
X153899102Y-88593856D01*
X153967265Y-88386884D01*
X153416000Y-87835619D01*
X152864735Y-88386884D01*
X129334511Y-88386884D01*
X129659397Y-88061998D01*
X129947929Y-87495722D01*
X130047350Y-86868000D01*
X129947929Y-86240278D01*
X129659397Y-85674002D01*
X129306907Y-85321512D01*
X150736600Y-85321512D01*
X150736600Y-85830488D01*
X150931377Y-86300722D01*
X151291278Y-86660623D01*
X151761512Y-86855400D01*
X152270488Y-86855400D01*
X152331366Y-86830184D01*
X152345538Y-86844356D01*
X152198144Y-86892898D01*
X152105972Y-87395725D01*
X152198144Y-87859102D01*
X152405116Y-87927265D01*
X152956381Y-87376000D01*
X153875619Y-87376000D01*
X154426884Y-87927265D01*
X154633856Y-87859102D01*
X154726028Y-87356275D01*
X154693179Y-87191131D01*
X155026600Y-87191131D01*
X155026600Y-87560869D01*
X155168093Y-87902463D01*
X155429537Y-88163907D01*
X155771131Y-88305400D01*
X156140869Y-88305400D01*
X156482463Y-88163907D01*
X156730701Y-87915669D01*
X156730700Y-89830180D01*
X156723734Y-89865200D01*
X156730700Y-89900219D01*
X156751333Y-90003947D01*
X156829927Y-90121572D01*
X156832300Y-90123158D01*
X156832300Y-90311605D01*
X156921239Y-90526323D01*
X157085577Y-90690661D01*
X157300295Y-90779600D01*
X157532705Y-90779600D01*
X157747423Y-90690661D01*
X157911761Y-90526323D01*
X158000700Y-90311605D01*
X158000700Y-90079195D01*
X157911761Y-89864477D01*
X157747423Y-89700139D01*
X157532705Y-89611200D01*
X157441900Y-89611200D01*
X157441900Y-87325884D01*
X157566600Y-87201184D01*
X157566600Y-87560869D01*
X157708093Y-87902463D01*
X157969537Y-88163907D01*
X158311131Y-88305400D01*
X158680869Y-88305400D01*
X158877000Y-88224160D01*
X158877001Y-88378615D01*
X158737339Y-88518277D01*
X158648400Y-88732995D01*
X158648400Y-88965405D01*
X158726519Y-89154000D01*
X158697295Y-89154000D01*
X158482577Y-89242939D01*
X158318239Y-89407277D01*
X158229300Y-89621995D01*
X158229300Y-89854405D01*
X158318239Y-90069123D01*
X158482577Y-90233461D01*
X158697295Y-90322400D01*
X158929705Y-90322400D01*
X159144423Y-90233461D01*
X159233284Y-90144600D01*
X161193032Y-90144600D01*
X161376995Y-90220800D01*
X161609405Y-90220800D01*
X161824123Y-90131861D01*
X161988461Y-89967523D01*
X162077400Y-89752805D01*
X162077400Y-89520395D01*
X161988461Y-89305677D01*
X161824123Y-89141339D01*
X161609405Y-89052400D01*
X161376995Y-89052400D01*
X161162277Y-89141339D01*
X160997939Y-89305677D01*
X160987119Y-89331800D01*
X159576184Y-89331800D01*
X159727861Y-89180123D01*
X159816800Y-88965405D01*
X159816800Y-88732995D01*
X159727861Y-88518277D01*
X159588200Y-88378616D01*
X159588200Y-88026364D01*
X160106600Y-87507964D01*
X160106600Y-87560869D01*
X160248093Y-87902463D01*
X160509537Y-88163907D01*
X160851131Y-88305400D01*
X161220869Y-88305400D01*
X161562463Y-88163907D01*
X161823907Y-87902463D01*
X161965400Y-87560869D01*
X161965400Y-87191131D01*
X162646600Y-87191131D01*
X162646600Y-87560869D01*
X162788093Y-87902463D01*
X163049537Y-88163907D01*
X163322001Y-88276765D01*
X163322000Y-90207416D01*
X163182339Y-90347077D01*
X163093400Y-90561795D01*
X163093400Y-90794205D01*
X163182339Y-91008923D01*
X163346677Y-91173261D01*
X163561395Y-91262200D01*
X163793805Y-91262200D01*
X163931600Y-91205124D01*
X163931600Y-91314905D01*
X164020539Y-91529623D01*
X164184877Y-91693961D01*
X164399595Y-91782900D01*
X164632005Y-91782900D01*
X164722550Y-91745395D01*
X167485023Y-91745395D01*
X167485023Y-91977805D01*
X167573962Y-92192523D01*
X167716201Y-92334762D01*
X167716200Y-92810916D01*
X167576539Y-92950577D01*
X167487600Y-93165295D01*
X167487600Y-93397705D01*
X167576539Y-93612423D01*
X167740877Y-93776761D01*
X167955595Y-93865700D01*
X168188005Y-93865700D01*
X168402723Y-93776761D01*
X168567061Y-93612423D01*
X168656000Y-93397705D01*
X168656000Y-93165295D01*
X168567061Y-92950577D01*
X168427400Y-92810916D01*
X168427400Y-92329607D01*
X168564484Y-92192523D01*
X168653423Y-91977805D01*
X168653423Y-91745395D01*
X168564484Y-91530677D01*
X168400146Y-91366339D01*
X168185428Y-91277400D01*
X167953018Y-91277400D01*
X167738300Y-91366339D01*
X167573962Y-91530677D01*
X167485023Y-91745395D01*
X164722550Y-91745395D01*
X164846723Y-91693961D01*
X165011061Y-91529623D01*
X165100000Y-91314905D01*
X165100000Y-91082495D01*
X165011061Y-90867777D01*
X164871400Y-90728116D01*
X164871400Y-88569800D01*
X164873305Y-88569800D01*
X165088023Y-88480861D01*
X165252361Y-88316523D01*
X165341300Y-88101805D01*
X165341300Y-87915670D01*
X165589537Y-88163907D01*
X165760401Y-88234681D01*
X165760400Y-89338736D01*
X165620739Y-89478397D01*
X165531800Y-89693115D01*
X165531800Y-89925525D01*
X165620739Y-90140243D01*
X165785077Y-90304581D01*
X165999795Y-90393520D01*
X166232205Y-90393520D01*
X166446923Y-90304581D01*
X166611261Y-90140243D01*
X166700200Y-89925525D01*
X166700200Y-89693115D01*
X166611261Y-89478397D01*
X166471600Y-89338736D01*
X166471600Y-88234681D01*
X166642463Y-88163907D01*
X166903907Y-87902463D01*
X167045400Y-87560869D01*
X167045400Y-87191131D01*
X167726600Y-87191131D01*
X167726600Y-87560869D01*
X167868093Y-87902463D01*
X168129537Y-88163907D01*
X168471131Y-88305400D01*
X168840869Y-88305400D01*
X169182463Y-88163907D01*
X169443907Y-87902463D01*
X169585400Y-87560869D01*
X169585400Y-87191131D01*
X170266600Y-87191131D01*
X170266600Y-87560869D01*
X170408093Y-87902463D01*
X170669537Y-88163907D01*
X171011131Y-88305400D01*
X171380869Y-88305400D01*
X171722463Y-88163907D01*
X171983907Y-87902463D01*
X172125400Y-87560869D01*
X172125400Y-87191131D01*
X172806600Y-87191131D01*
X172806600Y-87560869D01*
X172948093Y-87902463D01*
X173209537Y-88163907D01*
X173551131Y-88305400D01*
X173920869Y-88305400D01*
X174262463Y-88163907D01*
X174523907Y-87902463D01*
X174665400Y-87560869D01*
X174665400Y-87191131D01*
X175346600Y-87191131D01*
X175346600Y-87560869D01*
X175488093Y-87902463D01*
X175749537Y-88163907D01*
X176091131Y-88305400D01*
X176460869Y-88305400D01*
X176802463Y-88163907D01*
X177063907Y-87902463D01*
X177205400Y-87560869D01*
X177205400Y-87191131D01*
X177071555Y-86868000D01*
X182984650Y-86868000D01*
X183084071Y-87495722D01*
X183372603Y-88061998D01*
X183822002Y-88511397D01*
X184388278Y-88799929D01*
X185016000Y-88899350D01*
X185643722Y-88799929D01*
X186209998Y-88511397D01*
X186659397Y-88061998D01*
X186947929Y-87495722D01*
X187047350Y-86868000D01*
X186947929Y-86240278D01*
X186659397Y-85674002D01*
X186209998Y-85224603D01*
X185643722Y-84936071D01*
X185016000Y-84836650D01*
X184388278Y-84936071D01*
X183822002Y-85224603D01*
X183372603Y-85674002D01*
X183084071Y-86240278D01*
X182984650Y-86868000D01*
X177071555Y-86868000D01*
X177063907Y-86849537D01*
X176802463Y-86588093D01*
X176460869Y-86446600D01*
X176091131Y-86446600D01*
X175749537Y-86588093D01*
X175488093Y-86849537D01*
X175346600Y-87191131D01*
X174665400Y-87191131D01*
X174523907Y-86849537D01*
X174262463Y-86588093D01*
X173920869Y-86446600D01*
X173551131Y-86446600D01*
X173209537Y-86588093D01*
X172948093Y-86849537D01*
X172806600Y-87191131D01*
X172125400Y-87191131D01*
X171983907Y-86849537D01*
X171722463Y-86588093D01*
X171380869Y-86446600D01*
X171011131Y-86446600D01*
X170669537Y-86588093D01*
X170408093Y-86849537D01*
X170266600Y-87191131D01*
X169585400Y-87191131D01*
X169443907Y-86849537D01*
X169182463Y-86588093D01*
X168840869Y-86446600D01*
X168471131Y-86446600D01*
X168129537Y-86588093D01*
X167868093Y-86849537D01*
X167726600Y-87191131D01*
X167045400Y-87191131D01*
X166903907Y-86849537D01*
X166642463Y-86588093D01*
X166300869Y-86446600D01*
X165931131Y-86446600D01*
X165589537Y-86588093D01*
X165328093Y-86849537D01*
X165186600Y-87191131D01*
X165186600Y-87560869D01*
X165206432Y-87608748D01*
X165088023Y-87490339D01*
X164873305Y-87401400D01*
X164640895Y-87401400D01*
X164505400Y-87457524D01*
X164505400Y-87191131D01*
X164363907Y-86849537D01*
X164102463Y-86588093D01*
X163760869Y-86446600D01*
X163391131Y-86446600D01*
X163049537Y-86588093D01*
X162788093Y-86849537D01*
X162646600Y-87191131D01*
X161965400Y-87191131D01*
X161823907Y-86849537D01*
X161752908Y-86778538D01*
X161789974Y-86753772D01*
X161809812Y-86724082D01*
X162532683Y-86001211D01*
X162562373Y-85981373D01*
X162640967Y-85863748D01*
X162644321Y-85846884D01*
X176994735Y-85846884D01*
X177062898Y-86053856D01*
X177565725Y-86146028D01*
X178029102Y-86053856D01*
X178097265Y-85846884D01*
X177546000Y-85295619D01*
X176994735Y-85846884D01*
X162644321Y-85846884D01*
X162661600Y-85760020D01*
X162668566Y-85725001D01*
X162662464Y-85694323D01*
X162832463Y-85623907D01*
X163093907Y-85362463D01*
X163235400Y-85020869D01*
X163235400Y-84651131D01*
X163093907Y-84309537D01*
X162832463Y-84048093D01*
X162490869Y-83906600D01*
X162121131Y-83906600D01*
X161779537Y-84048093D01*
X161518093Y-84309537D01*
X161376600Y-84651131D01*
X161376600Y-85020869D01*
X161518093Y-85362463D01*
X161779537Y-85623907D01*
X161867686Y-85660420D01*
X161386307Y-86141799D01*
X160649291Y-86141799D01*
X160614271Y-86134833D01*
X160475523Y-86162432D01*
X160397798Y-86214366D01*
X160357898Y-86241026D01*
X160338062Y-86270713D01*
X159423129Y-87185647D01*
X159283907Y-86849537D01*
X159022463Y-86588093D01*
X158680869Y-86446600D01*
X158311131Y-86446600D01*
X157969537Y-86588093D01*
X157708093Y-86849537D01*
X157670500Y-86940294D01*
X157670500Y-86739095D01*
X157581561Y-86524377D01*
X157417223Y-86360039D01*
X157202505Y-86271100D01*
X156970095Y-86271100D01*
X156755377Y-86360039D01*
X156591039Y-86524377D01*
X156540576Y-86646206D01*
X156482463Y-86588093D01*
X156140869Y-86446600D01*
X155771131Y-86446600D01*
X155429537Y-86588093D01*
X155168093Y-86849537D01*
X155026600Y-87191131D01*
X154693179Y-87191131D01*
X154633856Y-86892898D01*
X154426884Y-86824735D01*
X153875619Y-87376000D01*
X152956381Y-87376000D01*
X152902641Y-87322260D01*
X153362260Y-86862641D01*
X153416000Y-86916381D01*
X153967265Y-86365116D01*
X153899102Y-86158144D01*
X153396275Y-86065972D01*
X153180044Y-86108983D01*
X153295400Y-85830488D01*
X153295400Y-85321512D01*
X153100623Y-84851278D01*
X152900476Y-84651131D01*
X153756600Y-84651131D01*
X153756600Y-85020869D01*
X153898093Y-85362463D01*
X154159537Y-85623907D01*
X154501131Y-85765400D01*
X154870869Y-85765400D01*
X155212463Y-85623907D01*
X155473907Y-85362463D01*
X155615400Y-85020869D01*
X155615400Y-84651131D01*
X156296600Y-84651131D01*
X156296600Y-85020869D01*
X156438093Y-85362463D01*
X156699537Y-85623907D01*
X157041131Y-85765400D01*
X157410869Y-85765400D01*
X157752463Y-85623907D01*
X158013907Y-85362463D01*
X158155400Y-85020869D01*
X158155400Y-84651131D01*
X158836600Y-84651131D01*
X158836600Y-85020869D01*
X158978093Y-85362463D01*
X159239537Y-85623907D01*
X159581131Y-85765400D01*
X159950869Y-85765400D01*
X160292463Y-85623907D01*
X160553907Y-85362463D01*
X160695400Y-85020869D01*
X160695400Y-84651131D01*
X160553907Y-84309537D01*
X160292463Y-84048093D01*
X159950869Y-83906600D01*
X159581131Y-83906600D01*
X159239537Y-84048093D01*
X158978093Y-84309537D01*
X158836600Y-84651131D01*
X158155400Y-84651131D01*
X158013907Y-84309537D01*
X157752463Y-84048093D01*
X157410869Y-83906600D01*
X157041131Y-83906600D01*
X156699537Y-84048093D01*
X156438093Y-84309537D01*
X156296600Y-84651131D01*
X155615400Y-84651131D01*
X155473907Y-84309537D01*
X155212463Y-84048093D01*
X154870869Y-83906600D01*
X154501131Y-83906600D01*
X154159537Y-84048093D01*
X153898093Y-84309537D01*
X153756600Y-84651131D01*
X152900476Y-84651131D01*
X152740722Y-84491377D01*
X152270488Y-84296600D01*
X151761512Y-84296600D01*
X151291278Y-84491377D01*
X150931377Y-84851278D01*
X150736600Y-85321512D01*
X129306907Y-85321512D01*
X129209998Y-85224603D01*
X128643722Y-84936071D01*
X128016000Y-84836650D01*
X127388278Y-84936071D01*
X126822002Y-85224603D01*
X126372603Y-85674002D01*
X126084071Y-86240278D01*
X125984650Y-86868000D01*
X124397352Y-86868000D01*
X124471262Y-86140370D01*
X124689973Y-85442463D01*
X125044550Y-84802788D01*
X125520508Y-84247479D01*
X126098410Y-83799213D01*
X126754642Y-83476306D01*
X127466926Y-83290770D01*
X128030577Y-83247400D01*
X162979669Y-83247400D01*
X162953700Y-83310095D01*
X162953700Y-83310095D01*
G37*
X162953700Y-83310095D02*
X162953700Y-83542505D01*
X163042639Y-83757223D01*
X163206977Y-83921561D01*
X163421695Y-84010500D01*
X163619206Y-84010500D01*
X164017132Y-84408426D01*
X163916600Y-84651131D01*
X163916600Y-85020869D01*
X164058093Y-85362463D01*
X164319537Y-85623907D01*
X164661131Y-85765400D01*
X165030869Y-85765400D01*
X165372463Y-85623907D01*
X165633907Y-85362463D01*
X165775400Y-85020869D01*
X165775400Y-84651131D01*
X166456600Y-84651131D01*
X166456600Y-85020869D01*
X166598093Y-85362463D01*
X166859537Y-85623907D01*
X167201131Y-85765400D01*
X167570869Y-85765400D01*
X167912463Y-85623907D01*
X168173907Y-85362463D01*
X168315400Y-85020869D01*
X168315400Y-84651131D01*
X168996600Y-84651131D01*
X168996600Y-85020869D01*
X169138093Y-85362463D01*
X169399537Y-85623907D01*
X169741131Y-85765400D01*
X170110869Y-85765400D01*
X170452463Y-85623907D01*
X170713907Y-85362463D01*
X170855400Y-85020869D01*
X170855400Y-84651131D01*
X171536600Y-84651131D01*
X171536600Y-85020869D01*
X171678093Y-85362463D01*
X171939537Y-85623907D01*
X172281131Y-85765400D01*
X172650869Y-85765400D01*
X172992463Y-85623907D01*
X173253907Y-85362463D01*
X173395400Y-85020869D01*
X173395400Y-84651131D01*
X174076600Y-84651131D01*
X174076600Y-85020869D01*
X174218093Y-85362463D01*
X174479537Y-85623907D01*
X174821131Y-85765400D01*
X175190869Y-85765400D01*
X175532463Y-85623907D01*
X175793907Y-85362463D01*
X175935400Y-85020869D01*
X175935400Y-84855725D01*
X176235972Y-84855725D01*
X176328144Y-85319102D01*
X176535116Y-85387265D01*
X177086381Y-84836000D01*
X178005619Y-84836000D01*
X178556884Y-85387265D01*
X178763856Y-85319102D01*
X178856028Y-84816275D01*
X178763856Y-84352898D01*
X178556884Y-84284735D01*
X178005619Y-84836000D01*
X177086381Y-84836000D01*
X176535116Y-84284735D01*
X176328144Y-84352898D01*
X176235972Y-84855725D01*
X175935400Y-84855725D01*
X175935400Y-84651131D01*
X175793907Y-84309537D01*
X175532463Y-84048093D01*
X175190869Y-83906600D01*
X174821131Y-83906600D01*
X174479537Y-84048093D01*
X174218093Y-84309537D01*
X174076600Y-84651131D01*
X173395400Y-84651131D01*
X173253907Y-84309537D01*
X172992463Y-84048093D01*
X172650869Y-83906600D01*
X172281131Y-83906600D01*
X171939537Y-84048093D01*
X171678093Y-84309537D01*
X171536600Y-84651131D01*
X170855400Y-84651131D01*
X170713907Y-84309537D01*
X170452463Y-84048093D01*
X170110869Y-83906600D01*
X169741131Y-83906600D01*
X169399537Y-84048093D01*
X169138093Y-84309537D01*
X168996600Y-84651131D01*
X168315400Y-84651131D01*
X168173907Y-84309537D01*
X167912463Y-84048093D01*
X167570869Y-83906600D01*
X167201131Y-83906600D01*
X166859537Y-84048093D01*
X166598093Y-84309537D01*
X166456600Y-84651131D01*
X165775400Y-84651131D01*
X165633907Y-84309537D01*
X165372463Y-84048093D01*
X165030869Y-83906600D01*
X164661131Y-83906600D01*
X164562110Y-83947616D01*
X164439610Y-83825116D01*
X176994735Y-83825116D01*
X177546000Y-84376381D01*
X178097265Y-83825116D01*
X178029102Y-83618144D01*
X177526275Y-83525972D01*
X177062898Y-83618144D01*
X176994735Y-83825116D01*
X164439610Y-83825116D01*
X164122100Y-83507606D01*
X164122100Y-83310095D01*
X164096131Y-83247400D01*
X184996778Y-83247400D01*
X185743630Y-83323262D01*
X186441537Y-83541973D01*
X187081212Y-83896550D01*
X187636521Y-84372508D01*
X188084787Y-84950410D01*
X188407694Y-85606642D01*
X188593230Y-86318926D01*
X188636600Y-86882577D01*
X188636601Y-133848768D01*
X188560738Y-134595629D01*
X188342027Y-135293536D01*
X187987450Y-135933210D01*
X187511491Y-136488521D01*
X186933590Y-136936787D01*
X186277360Y-137259693D01*
X185565075Y-137445230D01*
X185001423Y-137488600D01*
X128035222Y-137488600D01*
X127288371Y-137412738D01*
X126590464Y-137194027D01*
X125950790Y-136839450D01*
X125395479Y-136363491D01*
X124947213Y-135785590D01*
X124624307Y-135129360D01*
X124438770Y-134417075D01*
X124396522Y-133868000D01*
X125984650Y-133868000D01*
X126084071Y-134495722D01*
X126372603Y-135061998D01*
X126822002Y-135511397D01*
X127388278Y-135799929D01*
X128016000Y-135899350D01*
X128643722Y-135799929D01*
X129209998Y-135511397D01*
X129359493Y-135361902D01*
X159128032Y-135361902D01*
X159201746Y-135570325D01*
X159719212Y-135661555D01*
X160177854Y-135570325D01*
X160233601Y-135412702D01*
X170126232Y-135412702D01*
X170199946Y-135621125D01*
X170717412Y-135712355D01*
X171176054Y-135621125D01*
X171249768Y-135412702D01*
X170688000Y-134850934D01*
X170126232Y-135412702D01*
X160233601Y-135412702D01*
X160251568Y-135361902D01*
X159689800Y-134800134D01*
X159128032Y-135361902D01*
X129359493Y-135361902D01*
X129659397Y-135061998D01*
X129947929Y-134495722D01*
X129971862Y-134344612D01*
X158343445Y-134344612D01*
X158434675Y-134803254D01*
X158643098Y-134876968D01*
X159204866Y-134315200D01*
X160174734Y-134315200D01*
X160736502Y-134876968D01*
X160944925Y-134803254D01*
X161016828Y-134395412D01*
X169341645Y-134395412D01*
X169432875Y-134854054D01*
X169641298Y-134927768D01*
X170203066Y-134366000D01*
X171172934Y-134366000D01*
X171734702Y-134927768D01*
X171943125Y-134854054D01*
X172034355Y-134336588D01*
X171943125Y-133877946D01*
X171915004Y-133868000D01*
X182984650Y-133868000D01*
X183084071Y-134495722D01*
X183372603Y-135061998D01*
X183822002Y-135511397D01*
X184388278Y-135799929D01*
X185016000Y-135899350D01*
X185643722Y-135799929D01*
X186209998Y-135511397D01*
X186659397Y-135061998D01*
X186947929Y-134495722D01*
X187047350Y-133868000D01*
X186947929Y-133240278D01*
X186659397Y-132674002D01*
X186209998Y-132224603D01*
X185643722Y-131936071D01*
X185016000Y-131836650D01*
X184388278Y-131936071D01*
X183822002Y-132224603D01*
X183372603Y-132674002D01*
X183084071Y-133240278D01*
X182984650Y-133868000D01*
X171915004Y-133868000D01*
X171734702Y-133804232D01*
X171172934Y-134366000D01*
X170203066Y-134366000D01*
X169641298Y-133804232D01*
X169432875Y-133877946D01*
X169341645Y-134395412D01*
X161016828Y-134395412D01*
X161036155Y-134285788D01*
X160944925Y-133827146D01*
X160736502Y-133753432D01*
X160174734Y-134315200D01*
X159204866Y-134315200D01*
X158643098Y-133753432D01*
X158434675Y-133827146D01*
X158343445Y-134344612D01*
X129971862Y-134344612D01*
X130047350Y-133868000D01*
X129952399Y-133268498D01*
X159128032Y-133268498D01*
X159689800Y-133830266D01*
X160200768Y-133319298D01*
X170126232Y-133319298D01*
X170688000Y-133881066D01*
X171249768Y-133319298D01*
X171176054Y-133110875D01*
X170658588Y-133019645D01*
X170199946Y-133110875D01*
X170126232Y-133319298D01*
X160200768Y-133319298D01*
X160251568Y-133268498D01*
X160177854Y-133060075D01*
X159660388Y-132968845D01*
X159201746Y-133060075D01*
X159128032Y-133268498D01*
X129952399Y-133268498D01*
X129947929Y-133240278D01*
X129659397Y-132674002D01*
X129209998Y-132224603D01*
X128643722Y-131936071D01*
X128016000Y-131836650D01*
X127388278Y-131936071D01*
X126822002Y-132224603D01*
X126372603Y-132674002D01*
X126084071Y-133240278D01*
X125984650Y-133868000D01*
X124396522Y-133868000D01*
X124395400Y-133853423D01*
X124395400Y-128625600D01*
X158719127Y-128625600D01*
X158719127Y-129997200D01*
X158740812Y-130106216D01*
X158802564Y-130198636D01*
X158894984Y-130260388D01*
X159004000Y-130282073D01*
X160375600Y-130282073D01*
X160484616Y-130260388D01*
X160577036Y-130198636D01*
X160638788Y-130106216D01*
X160660473Y-129997200D01*
X160660473Y-128676400D01*
X169717327Y-128676400D01*
X169717327Y-130048000D01*
X169739012Y-130157016D01*
X169800764Y-130249436D01*
X169893184Y-130311188D01*
X170002200Y-130332873D01*
X171373800Y-130332873D01*
X171482816Y-130311188D01*
X171575236Y-130249436D01*
X171636988Y-130157016D01*
X171658673Y-130048000D01*
X171658673Y-128676400D01*
X171636988Y-128567384D01*
X171575236Y-128474964D01*
X171482816Y-128413212D01*
X171373800Y-128391527D01*
X170002200Y-128391527D01*
X169893184Y-128413212D01*
X169800764Y-128474964D01*
X169739012Y-128567384D01*
X169717327Y-128676400D01*
X160660473Y-128676400D01*
X160660473Y-128625600D01*
X160638788Y-128516584D01*
X160577036Y-128424164D01*
X160484616Y-128362412D01*
X160375600Y-128340727D01*
X159004000Y-128340727D01*
X158894984Y-128362412D01*
X158802564Y-128424164D01*
X158740812Y-128516584D01*
X158719127Y-128625600D01*
X124395400Y-128625600D01*
X124395400Y-127222893D01*
X176007153Y-127222893D01*
X176084618Y-127432291D01*
X176611968Y-127522879D01*
X177067382Y-127432291D01*
X177144847Y-127222893D01*
X176576000Y-126654046D01*
X176007153Y-127222893D01*
X124395400Y-127222893D01*
X124395400Y-126187968D01*
X175205121Y-126187968D01*
X175295709Y-126643382D01*
X175505107Y-126720847D01*
X176073954Y-126152000D01*
X177078046Y-126152000D01*
X177646893Y-126720847D01*
X177856291Y-126643382D01*
X177946879Y-126116032D01*
X177914887Y-125955196D01*
X178586600Y-125955196D01*
X178586600Y-126348804D01*
X178737228Y-126712450D01*
X179015550Y-126990772D01*
X179379196Y-127141400D01*
X179772804Y-127141400D01*
X180136450Y-126990772D01*
X180414772Y-126712450D01*
X180565400Y-126348804D01*
X180565400Y-125955196D01*
X180414772Y-125591550D01*
X180136450Y-125313228D01*
X179772804Y-125162600D01*
X179379196Y-125162600D01*
X179015550Y-125313228D01*
X178737228Y-125591550D01*
X178586600Y-125955196D01*
X177914887Y-125955196D01*
X177856291Y-125660618D01*
X177646893Y-125583153D01*
X177078046Y-126152000D01*
X176073954Y-126152000D01*
X175505107Y-125583153D01*
X175295709Y-125660618D01*
X175205121Y-126187968D01*
X124395400Y-126187968D01*
X124395400Y-125081107D01*
X176007153Y-125081107D01*
X176576000Y-125649954D01*
X177144847Y-125081107D01*
X177067382Y-124871709D01*
X176540032Y-124781121D01*
X176084618Y-124871709D01*
X176007153Y-125081107D01*
X124395400Y-125081107D01*
X124395400Y-123530995D01*
X148247100Y-123530995D01*
X148247100Y-123763405D01*
X148336039Y-123978123D01*
X148500377Y-124142461D01*
X148715095Y-124231400D01*
X148947505Y-124231400D01*
X149162223Y-124142461D01*
X149326561Y-123978123D01*
X149415500Y-123763405D01*
X149415500Y-123553194D01*
X149811504Y-123157190D01*
X149872739Y-123305023D01*
X150037077Y-123469361D01*
X150251795Y-123558300D01*
X150484205Y-123558300D01*
X150698923Y-123469361D01*
X150863261Y-123305023D01*
X150952200Y-123090305D01*
X150952200Y-122857895D01*
X150951262Y-122855632D01*
X151975794Y-121831100D01*
X152173305Y-121831100D01*
X152388023Y-121742161D01*
X152427989Y-121702195D01*
X174574200Y-121702195D01*
X174574200Y-121934605D01*
X174663139Y-122149323D01*
X174827477Y-122313661D01*
X175042195Y-122402600D01*
X175274605Y-122402600D01*
X175489323Y-122313661D01*
X175628984Y-122174000D01*
X176351674Y-122174000D01*
X176015550Y-122313228D01*
X175737228Y-122591550D01*
X175586600Y-122955196D01*
X175586600Y-123348804D01*
X175737228Y-123712450D01*
X176015550Y-123990772D01*
X176379196Y-124141400D01*
X176772804Y-124141400D01*
X177136450Y-123990772D01*
X177414772Y-123712450D01*
X177565400Y-123348804D01*
X177565400Y-122955196D01*
X177414772Y-122591550D01*
X177136450Y-122313228D01*
X176800326Y-122174000D01*
X178095106Y-122174000D01*
X178671452Y-122750346D01*
X178586600Y-122955196D01*
X178586600Y-123348804D01*
X178737228Y-123712450D01*
X179015550Y-123990772D01*
X179379196Y-124141400D01*
X179772804Y-124141400D01*
X180136450Y-123990772D01*
X180414772Y-123712450D01*
X180449706Y-123628110D01*
X182066600Y-123628110D01*
X182066600Y-124355890D01*
X182345110Y-125028272D01*
X182859728Y-125542890D01*
X183532110Y-125821400D01*
X184259890Y-125821400D01*
X184932272Y-125542890D01*
X185446890Y-125028272D01*
X185725400Y-124355890D01*
X185725400Y-123628110D01*
X185446890Y-122955728D01*
X184932272Y-122441110D01*
X184259890Y-122162600D01*
X183532110Y-122162600D01*
X182859728Y-122441110D01*
X182345110Y-122955728D01*
X182066600Y-123628110D01*
X180449706Y-123628110D01*
X180565400Y-123348804D01*
X180565400Y-122955196D01*
X180414772Y-122591550D01*
X180136450Y-122313228D01*
X179772804Y-122162600D01*
X179379196Y-122162600D01*
X179174346Y-122247452D01*
X178518611Y-121591717D01*
X178498773Y-121562027D01*
X178381148Y-121483433D01*
X178277420Y-121462800D01*
X178242400Y-121455834D01*
X178207380Y-121462800D01*
X175628984Y-121462800D01*
X175489323Y-121323139D01*
X175274605Y-121234200D01*
X175042195Y-121234200D01*
X174827477Y-121323139D01*
X174663139Y-121487477D01*
X174574200Y-121702195D01*
X152427989Y-121702195D01*
X152552361Y-121577823D01*
X152641300Y-121363105D01*
X152641300Y-121130695D01*
X152552361Y-120915977D01*
X152388023Y-120751639D01*
X152173305Y-120662700D01*
X151940895Y-120662700D01*
X151726177Y-120751639D01*
X151688800Y-120789016D01*
X151600623Y-120700839D01*
X151385905Y-120611900D01*
X151153495Y-120611900D01*
X150938777Y-120700839D01*
X150774439Y-120865177D01*
X150685500Y-121079895D01*
X150685500Y-121277406D01*
X148899906Y-123063000D01*
X148715095Y-123063000D01*
X148500377Y-123151939D01*
X148336039Y-123316277D01*
X148247100Y-123530995D01*
X124395400Y-123530995D01*
X124395400Y-121304498D01*
X142842476Y-121304498D01*
X142918392Y-121513494D01*
X143441659Y-121604348D01*
X143898408Y-121513494D01*
X143974324Y-121304498D01*
X143408400Y-120738575D01*
X142842476Y-121304498D01*
X124395400Y-121304498D01*
X124395400Y-120276859D01*
X142047652Y-120276859D01*
X142138506Y-120733608D01*
X142347502Y-120809524D01*
X142913425Y-120243600D01*
X143903375Y-120243600D01*
X144469298Y-120809524D01*
X144678294Y-120733608D01*
X144769148Y-120210341D01*
X144678294Y-119753592D01*
X144469298Y-119677676D01*
X143903375Y-120243600D01*
X142913425Y-120243600D01*
X142347502Y-119677676D01*
X142138506Y-119753592D01*
X142047652Y-120276859D01*
X124395400Y-120276859D01*
X124395400Y-119182702D01*
X142842476Y-119182702D01*
X143408400Y-119748625D01*
X143974324Y-119182702D01*
X143898408Y-118973706D01*
X143375141Y-118882852D01*
X142918392Y-118973706D01*
X142842476Y-119182702D01*
X124395400Y-119182702D01*
X124395400Y-117206395D01*
X128854200Y-117206395D01*
X128854200Y-117438805D01*
X128943139Y-117653523D01*
X129107477Y-117817861D01*
X129322195Y-117906800D01*
X129554605Y-117906800D01*
X129769323Y-117817861D01*
X129933661Y-117653523D01*
X129993613Y-117508785D01*
X142429000Y-117508785D01*
X142429000Y-117898415D01*
X142578104Y-118258386D01*
X142853614Y-118533896D01*
X143213585Y-118683000D01*
X143603215Y-118683000D01*
X143802401Y-118600495D01*
X144529189Y-119327283D01*
X144549027Y-119356973D01*
X144666652Y-119435567D01*
X144770380Y-119456200D01*
X144770384Y-119456200D01*
X144805399Y-119463165D01*
X144840414Y-119456200D01*
X145350718Y-119456200D01*
X145118104Y-119688814D01*
X144969000Y-120048785D01*
X144969000Y-120438415D01*
X145118104Y-120798386D01*
X145393614Y-121073896D01*
X145753585Y-121223000D01*
X146143215Y-121223000D01*
X146503186Y-121073896D01*
X146778696Y-120798386D01*
X146927800Y-120438415D01*
X146927800Y-120048785D01*
X147509000Y-120048785D01*
X147509000Y-120438415D01*
X147658104Y-120798386D01*
X147933614Y-121073896D01*
X148293585Y-121223000D01*
X148683215Y-121223000D01*
X149043186Y-121073896D01*
X149318696Y-120798386D01*
X149467800Y-120438415D01*
X149467800Y-120048785D01*
X149420751Y-119935196D01*
X175586600Y-119935196D01*
X175586600Y-120328804D01*
X175737228Y-120692450D01*
X176015550Y-120970772D01*
X176379196Y-121121400D01*
X176772804Y-121121400D01*
X177136450Y-120970772D01*
X177414772Y-120692450D01*
X177565400Y-120328804D01*
X177565400Y-119935196D01*
X178586600Y-119935196D01*
X178586600Y-120328804D01*
X178737228Y-120692450D01*
X179015550Y-120970772D01*
X179379196Y-121121400D01*
X179772804Y-121121400D01*
X180136450Y-120970772D01*
X180414772Y-120692450D01*
X180565400Y-120328804D01*
X180565400Y-119935196D01*
X180414772Y-119571550D01*
X180136450Y-119293228D01*
X179772804Y-119142600D01*
X179379196Y-119142600D01*
X179015550Y-119293228D01*
X178737228Y-119571550D01*
X178586600Y-119935196D01*
X177565400Y-119935196D01*
X177414772Y-119571550D01*
X177136450Y-119293228D01*
X176772804Y-119142600D01*
X176379196Y-119142600D01*
X176015550Y-119293228D01*
X175737228Y-119571550D01*
X175586600Y-119935196D01*
X149420751Y-119935196D01*
X149318696Y-119688814D01*
X149043186Y-119413304D01*
X148683215Y-119264200D01*
X148293585Y-119264200D01*
X147933614Y-119413304D01*
X147658104Y-119688814D01*
X147509000Y-120048785D01*
X146927800Y-120048785D01*
X146778696Y-119688814D01*
X146546082Y-119456200D01*
X146939817Y-119456200D01*
X147079478Y-119595861D01*
X147294196Y-119684800D01*
X147526606Y-119684800D01*
X147741324Y-119595861D01*
X147905662Y-119431523D01*
X147994601Y-119216805D01*
X147994601Y-118984395D01*
X147905662Y-118769677D01*
X147824458Y-118688473D01*
X149188400Y-118688473D01*
X149297416Y-118666788D01*
X149389836Y-118605036D01*
X149451588Y-118512616D01*
X149473273Y-118403600D01*
X149473273Y-117003600D01*
X149452983Y-116901595D01*
X161975800Y-116901595D01*
X161975800Y-117134005D01*
X162064739Y-117348723D01*
X162229077Y-117513061D01*
X162443795Y-117602000D01*
X162641306Y-117602000D01*
X162763200Y-117723894D01*
X162763201Y-118312515D01*
X162623539Y-118452177D01*
X162534600Y-118666895D01*
X162534600Y-118899305D01*
X162623539Y-119114023D01*
X162787877Y-119278361D01*
X163002595Y-119367300D01*
X163235005Y-119367300D01*
X163449723Y-119278361D01*
X163614061Y-119114023D01*
X163703000Y-118899305D01*
X163703000Y-118666895D01*
X163614061Y-118452177D01*
X163474400Y-118312516D01*
X163474400Y-117611620D01*
X163481366Y-117576600D01*
X163453767Y-117437852D01*
X163426401Y-117396895D01*
X167817800Y-117396895D01*
X167817800Y-117629305D01*
X167906739Y-117844023D01*
X168071077Y-118008361D01*
X168285795Y-118097300D01*
X168483306Y-118097300D01*
X169519600Y-119133594D01*
X169519600Y-119318405D01*
X169608539Y-119533123D01*
X169772877Y-119697461D01*
X169987595Y-119786400D01*
X170220005Y-119786400D01*
X170434723Y-119697461D01*
X170599061Y-119533123D01*
X170688000Y-119318405D01*
X170688000Y-119085995D01*
X170599061Y-118871277D01*
X170434723Y-118706939D01*
X170220005Y-118618000D01*
X170009794Y-118618000D01*
X168986200Y-117594406D01*
X168986200Y-117396895D01*
X168897261Y-117182177D01*
X168732923Y-117017839D01*
X168533405Y-116935196D01*
X175586600Y-116935196D01*
X175586600Y-117328804D01*
X175737228Y-117692450D01*
X176015550Y-117970772D01*
X176379196Y-118121400D01*
X176772804Y-118121400D01*
X177136450Y-117970772D01*
X177414772Y-117692450D01*
X177565400Y-117328804D01*
X177565400Y-116935196D01*
X178586600Y-116935196D01*
X178586600Y-117328804D01*
X178737228Y-117692450D01*
X179015550Y-117970772D01*
X179379196Y-118121400D01*
X179772804Y-118121400D01*
X180136450Y-117970772D01*
X180414772Y-117692450D01*
X180565400Y-117328804D01*
X180565400Y-116935196D01*
X180414772Y-116571550D01*
X180136450Y-116293228D01*
X179772804Y-116142600D01*
X179379196Y-116142600D01*
X179015550Y-116293228D01*
X178737228Y-116571550D01*
X178586600Y-116935196D01*
X177565400Y-116935196D01*
X177414772Y-116571550D01*
X177136450Y-116293228D01*
X176772804Y-116142600D01*
X176379196Y-116142600D01*
X176015550Y-116293228D01*
X175737228Y-116571550D01*
X175586600Y-116935196D01*
X168533405Y-116935196D01*
X168518205Y-116928900D01*
X168285795Y-116928900D01*
X168071077Y-117017839D01*
X167906739Y-117182177D01*
X167817800Y-117396895D01*
X163426401Y-117396895D01*
X163395010Y-117349916D01*
X163395009Y-117349915D01*
X163375172Y-117320227D01*
X163345485Y-117300391D01*
X163144200Y-117099106D01*
X163144200Y-116901595D01*
X163055261Y-116686877D01*
X162890923Y-116522539D01*
X162676205Y-116433600D01*
X162443795Y-116433600D01*
X162229077Y-116522539D01*
X162064739Y-116686877D01*
X161975800Y-116901595D01*
X149452983Y-116901595D01*
X149451588Y-116894584D01*
X149389836Y-116802164D01*
X149297416Y-116740412D01*
X149188400Y-116718727D01*
X147788400Y-116718727D01*
X147679384Y-116740412D01*
X147586964Y-116802164D01*
X147525212Y-116894584D01*
X147503527Y-117003600D01*
X147503527Y-118403600D01*
X147525212Y-118512616D01*
X147528174Y-118517050D01*
X147526606Y-118516400D01*
X147294196Y-118516400D01*
X147079478Y-118605339D01*
X146939817Y-118745000D01*
X144952694Y-118745000D01*
X144305295Y-118097601D01*
X144387800Y-117898415D01*
X144387800Y-117508785D01*
X144969000Y-117508785D01*
X144969000Y-117898415D01*
X145118104Y-118258386D01*
X145393614Y-118533896D01*
X145753585Y-118683000D01*
X146143215Y-118683000D01*
X146503186Y-118533896D01*
X146778696Y-118258386D01*
X146927800Y-117898415D01*
X146927800Y-117508785D01*
X146778696Y-117148814D01*
X146503186Y-116873304D01*
X146143215Y-116724200D01*
X145753585Y-116724200D01*
X145393614Y-116873304D01*
X145118104Y-117148814D01*
X144969000Y-117508785D01*
X144387800Y-117508785D01*
X144238696Y-117148814D01*
X143963186Y-116873304D01*
X143603215Y-116724200D01*
X143213585Y-116724200D01*
X142853614Y-116873304D01*
X142578104Y-117148814D01*
X142429000Y-117508785D01*
X129993613Y-117508785D01*
X130022600Y-117438805D01*
X130022600Y-117206395D01*
X129965866Y-117069428D01*
X130423895Y-116611400D01*
X130621405Y-116611400D01*
X130836123Y-116522461D01*
X131000461Y-116358123D01*
X131089400Y-116143405D01*
X131089400Y-115928110D01*
X182066600Y-115928110D01*
X182066600Y-116655890D01*
X182345110Y-117328272D01*
X182859728Y-117842890D01*
X183532110Y-118121400D01*
X184259890Y-118121400D01*
X184932272Y-117842890D01*
X185446890Y-117328272D01*
X185725400Y-116655890D01*
X185725400Y-115928110D01*
X185446890Y-115255728D01*
X184932272Y-114741110D01*
X184259890Y-114462600D01*
X183532110Y-114462600D01*
X182859728Y-114741110D01*
X182345110Y-115255728D01*
X182066600Y-115928110D01*
X131089400Y-115928110D01*
X131089400Y-115910995D01*
X131000461Y-115696277D01*
X130836123Y-115531939D01*
X130621405Y-115443000D01*
X130388995Y-115443000D01*
X130174277Y-115531939D01*
X130009939Y-115696277D01*
X129921000Y-115910995D01*
X129921000Y-116108505D01*
X129269123Y-116760383D01*
X129107477Y-116827339D01*
X128943139Y-116991677D01*
X128854200Y-117206395D01*
X124395400Y-117206395D01*
X124395400Y-113447195D01*
X151358600Y-113447195D01*
X151358600Y-113679605D01*
X151447539Y-113894323D01*
X151611877Y-114058661D01*
X151826595Y-114147600D01*
X152059005Y-114147600D01*
X152273723Y-114058661D01*
X152368250Y-113964134D01*
X152429315Y-114025199D01*
X152644033Y-114114138D01*
X152876443Y-114114138D01*
X153070166Y-114033895D01*
X164376100Y-114033895D01*
X164376100Y-114266305D01*
X164465039Y-114481023D01*
X164629377Y-114645361D01*
X164844095Y-114734300D01*
X165041606Y-114734300D01*
X165519100Y-115211794D01*
X165519100Y-115406805D01*
X165608039Y-115621523D01*
X165772377Y-115785861D01*
X165987095Y-115874800D01*
X166219505Y-115874800D01*
X166434223Y-115785861D01*
X166598561Y-115621523D01*
X166687500Y-115406805D01*
X166687500Y-115174395D01*
X166598561Y-114959677D01*
X166434223Y-114795339D01*
X166219505Y-114706400D01*
X166019494Y-114706400D01*
X165544500Y-114231406D01*
X165544500Y-114033895D01*
X165503618Y-113935196D01*
X175586600Y-113935196D01*
X175586600Y-114328804D01*
X175737228Y-114692450D01*
X176015550Y-114970772D01*
X176379196Y-115121400D01*
X176772804Y-115121400D01*
X177136450Y-114970772D01*
X177414772Y-114692450D01*
X177565400Y-114328804D01*
X177565400Y-113935196D01*
X178586600Y-113935196D01*
X178586600Y-114328804D01*
X178737228Y-114692450D01*
X179015550Y-114970772D01*
X179379196Y-115121400D01*
X179772804Y-115121400D01*
X180136450Y-114970772D01*
X180414772Y-114692450D01*
X180565400Y-114328804D01*
X180565400Y-113935196D01*
X180414772Y-113571550D01*
X180136450Y-113293228D01*
X179772804Y-113142600D01*
X179379196Y-113142600D01*
X179015550Y-113293228D01*
X178737228Y-113571550D01*
X178586600Y-113935196D01*
X177565400Y-113935196D01*
X177414772Y-113571550D01*
X177136450Y-113293228D01*
X176772804Y-113142600D01*
X176379196Y-113142600D01*
X176015550Y-113293228D01*
X175737228Y-113571550D01*
X175586600Y-113935196D01*
X165503618Y-113935196D01*
X165455561Y-113819177D01*
X165291223Y-113654839D01*
X165076505Y-113565900D01*
X164844095Y-113565900D01*
X164629377Y-113654839D01*
X164465039Y-113819177D01*
X164376100Y-114033895D01*
X153070166Y-114033895D01*
X153091161Y-114025199D01*
X153255499Y-113860861D01*
X153344438Y-113646143D01*
X153344438Y-113448632D01*
X154698232Y-112094838D01*
X154895743Y-112094838D01*
X155110461Y-112005899D01*
X155274799Y-111841561D01*
X155363738Y-111626843D01*
X155363738Y-111394433D01*
X155274799Y-111179715D01*
X155125624Y-111030540D01*
X155206700Y-110834805D01*
X155206700Y-110602395D01*
X155117761Y-110387677D01*
X154953423Y-110223339D01*
X154738705Y-110134400D01*
X154506295Y-110134400D01*
X154291577Y-110223339D01*
X154127239Y-110387677D01*
X154038300Y-110602395D01*
X154038300Y-110799906D01*
X151859006Y-112979200D01*
X151826595Y-112979200D01*
X151611877Y-113068139D01*
X151447539Y-113232477D01*
X151358600Y-113447195D01*
X124395400Y-113447195D01*
X124395400Y-109433995D01*
X135178800Y-109433995D01*
X135178800Y-109666405D01*
X135267739Y-109881123D01*
X135432077Y-110045461D01*
X135646795Y-110134400D01*
X135844306Y-110134400D01*
X137693400Y-111983494D01*
X137693400Y-112181005D01*
X137782339Y-112395723D01*
X137946677Y-112560061D01*
X138161395Y-112649000D01*
X138393805Y-112649000D01*
X138608523Y-112560061D01*
X138772861Y-112395723D01*
X138861800Y-112181005D01*
X138861800Y-111948595D01*
X138772861Y-111733877D01*
X138608523Y-111569539D01*
X138393805Y-111480600D01*
X138196294Y-111480600D01*
X136347200Y-109631506D01*
X136347200Y-109433995D01*
X136258261Y-109219277D01*
X136093923Y-109054939D01*
X135879205Y-108966000D01*
X135646795Y-108966000D01*
X135432077Y-109054939D01*
X135267739Y-109219277D01*
X135178800Y-109433995D01*
X124395400Y-109433995D01*
X124395400Y-108004893D01*
X176007153Y-108004893D01*
X176084618Y-108214291D01*
X176611968Y-108304879D01*
X177067382Y-108214291D01*
X177144847Y-108004893D01*
X176576000Y-107436046D01*
X176007153Y-108004893D01*
X124395400Y-108004893D01*
X124395400Y-106969968D01*
X175205121Y-106969968D01*
X175295709Y-107425382D01*
X175505107Y-107502847D01*
X176073954Y-106934000D01*
X177078046Y-106934000D01*
X177646893Y-107502847D01*
X177856291Y-107425382D01*
X177946879Y-106898032D01*
X177914887Y-106737196D01*
X178586600Y-106737196D01*
X178586600Y-107130804D01*
X178737228Y-107494450D01*
X179015550Y-107772772D01*
X179379196Y-107923400D01*
X179772804Y-107923400D01*
X180136450Y-107772772D01*
X180414772Y-107494450D01*
X180565400Y-107130804D01*
X180565400Y-106737196D01*
X180492071Y-106560164D01*
X182016600Y-106560164D01*
X182016600Y-107307836D01*
X182302721Y-107998595D01*
X182831405Y-108527279D01*
X183522164Y-108813400D01*
X184269836Y-108813400D01*
X184960595Y-108527279D01*
X185489279Y-107998595D01*
X185775400Y-107307836D01*
X185775400Y-106560164D01*
X185489279Y-105869405D01*
X184960595Y-105340721D01*
X184269836Y-105054600D01*
X183522164Y-105054600D01*
X182831405Y-105340721D01*
X182302721Y-105869405D01*
X182016600Y-106560164D01*
X180492071Y-106560164D01*
X180414772Y-106373550D01*
X180136450Y-106095228D01*
X179772804Y-105944600D01*
X179379196Y-105944600D01*
X179015550Y-106095228D01*
X178737228Y-106373550D01*
X178586600Y-106737196D01*
X177914887Y-106737196D01*
X177856291Y-106442618D01*
X177646893Y-106365153D01*
X177078046Y-106934000D01*
X176073954Y-106934000D01*
X175505107Y-106365153D01*
X175295709Y-106442618D01*
X175205121Y-106969968D01*
X124395400Y-106969968D01*
X124395400Y-105863107D01*
X176007153Y-105863107D01*
X176576000Y-106431954D01*
X177144847Y-105863107D01*
X177067382Y-105653709D01*
X176540032Y-105563121D01*
X176084618Y-105653709D01*
X176007153Y-105863107D01*
X124395400Y-105863107D01*
X124395400Y-103185595D01*
X150347705Y-103185595D01*
X150347705Y-103418005D01*
X150436644Y-103632723D01*
X150600982Y-103797061D01*
X150815700Y-103886000D01*
X151048110Y-103886000D01*
X151262828Y-103797061D01*
X151427166Y-103632723D01*
X151516105Y-103418005D01*
X151516105Y-103185595D01*
X151427166Y-102970877D01*
X151287505Y-102831216D01*
X151287505Y-101284989D01*
X151429694Y-101142800D01*
X151627205Y-101142800D01*
X151761521Y-101087164D01*
X151758033Y-101104701D01*
X151765000Y-101139726D01*
X151764999Y-103458151D01*
X151394857Y-103828293D01*
X151197346Y-103828293D01*
X150982628Y-103917232D01*
X150818290Y-104081570D01*
X150729351Y-104296288D01*
X150729351Y-104528698D01*
X150818290Y-104743416D01*
X150982628Y-104907754D01*
X151197346Y-104996693D01*
X151429756Y-104996693D01*
X151644474Y-104907754D01*
X151808812Y-104743416D01*
X151897751Y-104528698D01*
X151897751Y-104331187D01*
X152347284Y-103881654D01*
X152376971Y-103861818D01*
X152455566Y-103744193D01*
X152476199Y-103640465D01*
X152476199Y-103640464D01*
X152483165Y-103605446D01*
X152476199Y-103570427D01*
X152476199Y-103149286D01*
X152537795Y-103174800D01*
X152770205Y-103174800D01*
X152892847Y-103124000D01*
X153947674Y-103124000D01*
X154000200Y-103134448D01*
X154052726Y-103124000D01*
X154052731Y-103124000D01*
X154208322Y-103093051D01*
X154384759Y-102975159D01*
X154414517Y-102930623D01*
X154612118Y-102733022D01*
X154612118Y-102834687D01*
X154156185Y-103290621D01*
X153958674Y-103290621D01*
X153743956Y-103379560D01*
X153579618Y-103543898D01*
X153490679Y-103758616D01*
X153490679Y-103991026D01*
X153579618Y-104205744D01*
X153743956Y-104370082D01*
X153958674Y-104459021D01*
X154191084Y-104459021D01*
X154405802Y-104370082D01*
X154570140Y-104205744D01*
X154659079Y-103991026D01*
X154659079Y-103793515D01*
X155194406Y-103258189D01*
X155224090Y-103238355D01*
X155243925Y-103208670D01*
X155243928Y-103208667D01*
X155302685Y-103120730D01*
X155330284Y-102981983D01*
X155323318Y-102946963D01*
X155323318Y-101662738D01*
X155330284Y-101627718D01*
X155302685Y-101488970D01*
X155273770Y-101445695D01*
X158369000Y-101445695D01*
X158369000Y-101678105D01*
X158457939Y-101892823D01*
X158622277Y-102057161D01*
X158836995Y-102146100D01*
X159069405Y-102146100D01*
X159192047Y-102095300D01*
X159586474Y-102095300D01*
X159639000Y-102105748D01*
X159691526Y-102095300D01*
X159691531Y-102095300D01*
X159847122Y-102064351D01*
X160023559Y-101946459D01*
X160053317Y-101901923D01*
X160939479Y-101015762D01*
X161062123Y-100964961D01*
X161226461Y-100800623D01*
X161315400Y-100585905D01*
X161315400Y-100353495D01*
X161226461Y-100138777D01*
X161062123Y-99974439D01*
X160934788Y-99921695D01*
X163334700Y-99921695D01*
X163334700Y-100154105D01*
X163423639Y-100368823D01*
X163587977Y-100533161D01*
X163802695Y-100622100D01*
X164035105Y-100622100D01*
X164157747Y-100571300D01*
X167004316Y-100571300D01*
X167016977Y-100583961D01*
X167231695Y-100672900D01*
X167464105Y-100672900D01*
X167678823Y-100583961D01*
X167843161Y-100419623D01*
X167932100Y-100204905D01*
X167932100Y-99972495D01*
X167843161Y-99757777D01*
X167678823Y-99593439D01*
X167464105Y-99504500D01*
X167349626Y-99504500D01*
X167297100Y-99494052D01*
X167244574Y-99504500D01*
X164157747Y-99504500D01*
X164035105Y-99453700D01*
X163802695Y-99453700D01*
X163587977Y-99542639D01*
X163423639Y-99706977D01*
X163334700Y-99921695D01*
X160934788Y-99921695D01*
X160847405Y-99885500D01*
X160614995Y-99885500D01*
X160400277Y-99974439D01*
X160235939Y-100138777D01*
X160185138Y-100261421D01*
X159418060Y-101028500D01*
X159192047Y-101028500D01*
X159069405Y-100977700D01*
X158836995Y-100977700D01*
X158622277Y-101066639D01*
X158457939Y-101230977D01*
X158369000Y-101445695D01*
X155273770Y-101445695D01*
X155243928Y-101401033D01*
X155243927Y-101401032D01*
X155224091Y-101371345D01*
X155194403Y-101351508D01*
X155054300Y-101211406D01*
X155054300Y-100444300D01*
X155234005Y-100444300D01*
X155448723Y-100355361D01*
X155613061Y-100191023D01*
X155702000Y-99976305D01*
X155702000Y-99743895D01*
X155613061Y-99529177D01*
X155448723Y-99364839D01*
X155234005Y-99275900D01*
X155001595Y-99275900D01*
X154786877Y-99364839D01*
X154622539Y-99529177D01*
X154533600Y-99743895D01*
X154533600Y-99941406D01*
X154472015Y-100002991D01*
X154442328Y-100022827D01*
X154422492Y-100052514D01*
X154422490Y-100052516D01*
X154363733Y-100140453D01*
X154336134Y-100279200D01*
X154343101Y-100314225D01*
X154343100Y-101323680D01*
X154336134Y-101358700D01*
X154343100Y-101393719D01*
X154363733Y-101497447D01*
X154413736Y-101572283D01*
X154318112Y-101572283D01*
X154103394Y-101661222D01*
X153939056Y-101825560D01*
X153888255Y-101948204D01*
X153779260Y-102057200D01*
X152892847Y-102057200D01*
X152770205Y-102006400D01*
X152537795Y-102006400D01*
X152476199Y-102031914D01*
X152476199Y-101251995D01*
X152597491Y-101130703D01*
X152626695Y-101142800D01*
X152859105Y-101142800D01*
X153073823Y-101053861D01*
X153238161Y-100889523D01*
X153327100Y-100674805D01*
X153327100Y-100442395D01*
X153238161Y-100227677D01*
X153073823Y-100063339D01*
X152859105Y-99974400D01*
X152626695Y-99974400D01*
X152411977Y-100063339D01*
X152247639Y-100227677D01*
X152158700Y-100442395D01*
X152158700Y-100563706D01*
X152095200Y-100627206D01*
X152095200Y-100442395D01*
X152006261Y-100227677D01*
X151841923Y-100063339D01*
X151627205Y-99974400D01*
X151394795Y-99974400D01*
X151180077Y-100063339D01*
X151015739Y-100227677D01*
X150926800Y-100442395D01*
X150926800Y-100639906D01*
X150705220Y-100861486D01*
X150675533Y-100881322D01*
X150655697Y-100911009D01*
X150655695Y-100911011D01*
X150596938Y-100998948D01*
X150569339Y-101137695D01*
X150576306Y-101172720D01*
X150576305Y-102831216D01*
X150436644Y-102970877D01*
X150347705Y-103185595D01*
X124395400Y-103185595D01*
X124395400Y-99959795D01*
X143332200Y-99959795D01*
X143332200Y-100192205D01*
X143421139Y-100406923D01*
X143585477Y-100571261D01*
X143800195Y-100660200D01*
X144032605Y-100660200D01*
X144247323Y-100571261D01*
X144411661Y-100406923D01*
X144500600Y-100192205D01*
X144500600Y-100066535D01*
X144745136Y-99822000D01*
X144870805Y-99822000D01*
X145085523Y-99733061D01*
X145249861Y-99568723D01*
X145338800Y-99354005D01*
X145338800Y-99121595D01*
X145249861Y-98906877D01*
X145085523Y-98742539D01*
X144870805Y-98653600D01*
X144638395Y-98653600D01*
X144423677Y-98742539D01*
X144259339Y-98906877D01*
X144170400Y-99121595D01*
X144170400Y-99247264D01*
X143925865Y-99491800D01*
X143800195Y-99491800D01*
X143585477Y-99580739D01*
X143421139Y-99745077D01*
X143332200Y-99959795D01*
X124395400Y-99959795D01*
X124395400Y-96048195D01*
X177927000Y-96048195D01*
X177927000Y-96280605D01*
X177987046Y-96425569D01*
X177987045Y-98271598D01*
X177936245Y-98394240D01*
X177936245Y-98626650D01*
X178025184Y-98841368D01*
X178189522Y-99005706D01*
X178404240Y-99094645D01*
X178636650Y-99094645D01*
X178851368Y-99005706D01*
X179015706Y-98841368D01*
X179104645Y-98626650D01*
X179104645Y-98394240D01*
X179053845Y-98271598D01*
X179053845Y-96380928D01*
X179095400Y-96280605D01*
X179095400Y-96048195D01*
X179006461Y-95833477D01*
X178842123Y-95669139D01*
X178627405Y-95580200D01*
X178394995Y-95580200D01*
X178180277Y-95669139D01*
X178015939Y-95833477D01*
X177927000Y-96048195D01*
X124395400Y-96048195D01*
X124395400Y-92479495D01*
X157251400Y-92479495D01*
X157251400Y-92711905D01*
X157340339Y-92926623D01*
X157480001Y-93066285D01*
X157480000Y-94325980D01*
X157473034Y-94361000D01*
X157480000Y-94396019D01*
X157500633Y-94499747D01*
X157579227Y-94617372D01*
X157608915Y-94637209D01*
X157780604Y-94808898D01*
X157780604Y-95006409D01*
X157869543Y-95221127D01*
X158033881Y-95385465D01*
X158248599Y-95474404D01*
X158481009Y-95474404D01*
X158695727Y-95385465D01*
X158860065Y-95221127D01*
X158949004Y-95006409D01*
X158949004Y-94773999D01*
X158860065Y-94559281D01*
X158695727Y-94394943D01*
X158481009Y-94306004D01*
X158283498Y-94306004D01*
X158191200Y-94213706D01*
X158191200Y-93066284D01*
X158330861Y-92926623D01*
X158382960Y-92800844D01*
X158530856Y-92948740D01*
X158745574Y-93037679D01*
X158977984Y-93037679D01*
X159192702Y-92948740D01*
X159357040Y-92784402D01*
X159445979Y-92569684D01*
X159445979Y-92372173D01*
X160480024Y-91338128D01*
X160601186Y-91459290D01*
X160815904Y-91548229D01*
X161048314Y-91548229D01*
X161079127Y-91535466D01*
X161079127Y-91639829D01*
X161101779Y-91694516D01*
X159336995Y-93459300D01*
X159139484Y-93459300D01*
X158924766Y-93548239D01*
X158760428Y-93712577D01*
X158671489Y-93927295D01*
X158671489Y-94159705D01*
X158760428Y-94374423D01*
X158924766Y-94538761D01*
X159139484Y-94627700D01*
X159371894Y-94627700D01*
X159586612Y-94538761D01*
X159750950Y-94374423D01*
X159839889Y-94159705D01*
X159839889Y-93962194D01*
X161694259Y-92107824D01*
X161779532Y-92107824D01*
X161994250Y-92018885D01*
X162158588Y-91854547D01*
X162247527Y-91639829D01*
X162247527Y-91407419D01*
X162158588Y-91192701D01*
X161994250Y-91028363D01*
X161779532Y-90939424D01*
X161547122Y-90939424D01*
X161516309Y-90952187D01*
X161516309Y-90847824D01*
X161427370Y-90633106D01*
X161263032Y-90468768D01*
X161048314Y-90379829D01*
X160815904Y-90379829D01*
X160601186Y-90468768D01*
X160461525Y-90608429D01*
X160386243Y-90608429D01*
X160351228Y-90601464D01*
X160316213Y-90608429D01*
X160316209Y-90608429D01*
X160212481Y-90629062D01*
X160094856Y-90707656D01*
X160075018Y-90737346D01*
X158943085Y-91869279D01*
X158745574Y-91869279D01*
X158530856Y-91958218D01*
X158366518Y-92122556D01*
X158314419Y-92248335D01*
X158166523Y-92100439D01*
X157951805Y-92011500D01*
X157719395Y-92011500D01*
X157504677Y-92100439D01*
X157340339Y-92264777D01*
X157251400Y-92479495D01*
X124395400Y-92479495D01*
X124395400Y-91171395D01*
X151142700Y-91171395D01*
X151142700Y-91403805D01*
X151231639Y-91618523D01*
X151395977Y-91782861D01*
X151610695Y-91871800D01*
X151843105Y-91871800D01*
X152057823Y-91782861D01*
X152222161Y-91618523D01*
X152311100Y-91403805D01*
X152311100Y-91206294D01*
X152902895Y-90614500D01*
X153113105Y-90614500D01*
X153327823Y-90525561D01*
X153492161Y-90361223D01*
X153581100Y-90146505D01*
X153581100Y-89914095D01*
X153492161Y-89699377D01*
X153327823Y-89535039D01*
X153113105Y-89446100D01*
X152880695Y-89446100D01*
X152665977Y-89535039D01*
X152501639Y-89699377D01*
X152412700Y-89914095D01*
X152412700Y-90098905D01*
X151808206Y-90703400D01*
X151610695Y-90703400D01*
X151395977Y-90792339D01*
X151231639Y-90956677D01*
X151142700Y-91171395D01*
X124395400Y-91171395D01*
X124395400Y-86887222D01*
X124397352Y-86868000D01*
X125984650Y-86868000D01*
X126084071Y-87495722D01*
X126372603Y-88061998D01*
X126822002Y-88511397D01*
X127388278Y-88799929D01*
X128016000Y-88899350D01*
X128643722Y-88799929D01*
X129209998Y-88511397D01*
X129334511Y-88386884D01*
X152864735Y-88386884D01*
X152932898Y-88593856D01*
X153435725Y-88686028D01*
X153899102Y-88593856D01*
X153967265Y-88386884D01*
X153416000Y-87835619D01*
X152864735Y-88386884D01*
X129334511Y-88386884D01*
X129659397Y-88061998D01*
X129947929Y-87495722D01*
X130047350Y-86868000D01*
X129947929Y-86240278D01*
X129659397Y-85674002D01*
X129306907Y-85321512D01*
X150736600Y-85321512D01*
X150736600Y-85830488D01*
X150931377Y-86300722D01*
X151291278Y-86660623D01*
X151761512Y-86855400D01*
X152270488Y-86855400D01*
X152331366Y-86830184D01*
X152345538Y-86844356D01*
X152198144Y-86892898D01*
X152105972Y-87395725D01*
X152198144Y-87859102D01*
X152405116Y-87927265D01*
X152956381Y-87376000D01*
X153875619Y-87376000D01*
X154426884Y-87927265D01*
X154633856Y-87859102D01*
X154726028Y-87356275D01*
X154693179Y-87191131D01*
X155026600Y-87191131D01*
X155026600Y-87560869D01*
X155168093Y-87902463D01*
X155429537Y-88163907D01*
X155771131Y-88305400D01*
X156140869Y-88305400D01*
X156482463Y-88163907D01*
X156730701Y-87915669D01*
X156730700Y-89830180D01*
X156723734Y-89865200D01*
X156730700Y-89900219D01*
X156751333Y-90003947D01*
X156829927Y-90121572D01*
X156832300Y-90123158D01*
X156832300Y-90311605D01*
X156921239Y-90526323D01*
X157085577Y-90690661D01*
X157300295Y-90779600D01*
X157532705Y-90779600D01*
X157747423Y-90690661D01*
X157911761Y-90526323D01*
X158000700Y-90311605D01*
X158000700Y-90079195D01*
X157911761Y-89864477D01*
X157747423Y-89700139D01*
X157532705Y-89611200D01*
X157441900Y-89611200D01*
X157441900Y-87325884D01*
X157566600Y-87201184D01*
X157566600Y-87560869D01*
X157708093Y-87902463D01*
X157969537Y-88163907D01*
X158311131Y-88305400D01*
X158680869Y-88305400D01*
X158877000Y-88224160D01*
X158877001Y-88378615D01*
X158737339Y-88518277D01*
X158648400Y-88732995D01*
X158648400Y-88965405D01*
X158726519Y-89154000D01*
X158697295Y-89154000D01*
X158482577Y-89242939D01*
X158318239Y-89407277D01*
X158229300Y-89621995D01*
X158229300Y-89854405D01*
X158318239Y-90069123D01*
X158482577Y-90233461D01*
X158697295Y-90322400D01*
X158929705Y-90322400D01*
X159144423Y-90233461D01*
X159233284Y-90144600D01*
X161193032Y-90144600D01*
X161376995Y-90220800D01*
X161609405Y-90220800D01*
X161824123Y-90131861D01*
X161988461Y-89967523D01*
X162077400Y-89752805D01*
X162077400Y-89520395D01*
X161988461Y-89305677D01*
X161824123Y-89141339D01*
X161609405Y-89052400D01*
X161376995Y-89052400D01*
X161162277Y-89141339D01*
X160997939Y-89305677D01*
X160987119Y-89331800D01*
X159576184Y-89331800D01*
X159727861Y-89180123D01*
X159816800Y-88965405D01*
X159816800Y-88732995D01*
X159727861Y-88518277D01*
X159588200Y-88378616D01*
X159588200Y-88026364D01*
X160106600Y-87507964D01*
X160106600Y-87560869D01*
X160248093Y-87902463D01*
X160509537Y-88163907D01*
X160851131Y-88305400D01*
X161220869Y-88305400D01*
X161562463Y-88163907D01*
X161823907Y-87902463D01*
X161965400Y-87560869D01*
X161965400Y-87191131D01*
X162646600Y-87191131D01*
X162646600Y-87560869D01*
X162788093Y-87902463D01*
X163049537Y-88163907D01*
X163322001Y-88276765D01*
X163322000Y-90207416D01*
X163182339Y-90347077D01*
X163093400Y-90561795D01*
X163093400Y-90794205D01*
X163182339Y-91008923D01*
X163346677Y-91173261D01*
X163561395Y-91262200D01*
X163793805Y-91262200D01*
X163931600Y-91205124D01*
X163931600Y-91314905D01*
X164020539Y-91529623D01*
X164184877Y-91693961D01*
X164399595Y-91782900D01*
X164632005Y-91782900D01*
X164722550Y-91745395D01*
X167485023Y-91745395D01*
X167485023Y-91977805D01*
X167573962Y-92192523D01*
X167716201Y-92334762D01*
X167716200Y-92810916D01*
X167576539Y-92950577D01*
X167487600Y-93165295D01*
X167487600Y-93397705D01*
X167576539Y-93612423D01*
X167740877Y-93776761D01*
X167955595Y-93865700D01*
X168188005Y-93865700D01*
X168402723Y-93776761D01*
X168567061Y-93612423D01*
X168656000Y-93397705D01*
X168656000Y-93165295D01*
X168567061Y-92950577D01*
X168427400Y-92810916D01*
X168427400Y-92329607D01*
X168564484Y-92192523D01*
X168653423Y-91977805D01*
X168653423Y-91745395D01*
X168564484Y-91530677D01*
X168400146Y-91366339D01*
X168185428Y-91277400D01*
X167953018Y-91277400D01*
X167738300Y-91366339D01*
X167573962Y-91530677D01*
X167485023Y-91745395D01*
X164722550Y-91745395D01*
X164846723Y-91693961D01*
X165011061Y-91529623D01*
X165100000Y-91314905D01*
X165100000Y-91082495D01*
X165011061Y-90867777D01*
X164871400Y-90728116D01*
X164871400Y-88569800D01*
X164873305Y-88569800D01*
X165088023Y-88480861D01*
X165252361Y-88316523D01*
X165341300Y-88101805D01*
X165341300Y-87915670D01*
X165589537Y-88163907D01*
X165760401Y-88234681D01*
X165760400Y-89338736D01*
X165620739Y-89478397D01*
X165531800Y-89693115D01*
X165531800Y-89925525D01*
X165620739Y-90140243D01*
X165785077Y-90304581D01*
X165999795Y-90393520D01*
X166232205Y-90393520D01*
X166446923Y-90304581D01*
X166611261Y-90140243D01*
X166700200Y-89925525D01*
X166700200Y-89693115D01*
X166611261Y-89478397D01*
X166471600Y-89338736D01*
X166471600Y-88234681D01*
X166642463Y-88163907D01*
X166903907Y-87902463D01*
X167045400Y-87560869D01*
X167045400Y-87191131D01*
X167726600Y-87191131D01*
X167726600Y-87560869D01*
X167868093Y-87902463D01*
X168129537Y-88163907D01*
X168471131Y-88305400D01*
X168840869Y-88305400D01*
X169182463Y-88163907D01*
X169443907Y-87902463D01*
X169585400Y-87560869D01*
X169585400Y-87191131D01*
X170266600Y-87191131D01*
X170266600Y-87560869D01*
X170408093Y-87902463D01*
X170669537Y-88163907D01*
X171011131Y-88305400D01*
X171380869Y-88305400D01*
X171722463Y-88163907D01*
X171983907Y-87902463D01*
X172125400Y-87560869D01*
X172125400Y-87191131D01*
X172806600Y-87191131D01*
X172806600Y-87560869D01*
X172948093Y-87902463D01*
X173209537Y-88163907D01*
X173551131Y-88305400D01*
X173920869Y-88305400D01*
X174262463Y-88163907D01*
X174523907Y-87902463D01*
X174665400Y-87560869D01*
X174665400Y-87191131D01*
X175346600Y-87191131D01*
X175346600Y-87560869D01*
X175488093Y-87902463D01*
X175749537Y-88163907D01*
X176091131Y-88305400D01*
X176460869Y-88305400D01*
X176802463Y-88163907D01*
X177063907Y-87902463D01*
X177205400Y-87560869D01*
X177205400Y-87191131D01*
X177071555Y-86868000D01*
X182984650Y-86868000D01*
X183084071Y-87495722D01*
X183372603Y-88061998D01*
X183822002Y-88511397D01*
X184388278Y-88799929D01*
X185016000Y-88899350D01*
X185643722Y-88799929D01*
X186209998Y-88511397D01*
X186659397Y-88061998D01*
X186947929Y-87495722D01*
X187047350Y-86868000D01*
X186947929Y-86240278D01*
X186659397Y-85674002D01*
X186209998Y-85224603D01*
X185643722Y-84936071D01*
X185016000Y-84836650D01*
X184388278Y-84936071D01*
X183822002Y-85224603D01*
X183372603Y-85674002D01*
X183084071Y-86240278D01*
X182984650Y-86868000D01*
X177071555Y-86868000D01*
X177063907Y-86849537D01*
X176802463Y-86588093D01*
X176460869Y-86446600D01*
X176091131Y-86446600D01*
X175749537Y-86588093D01*
X175488093Y-86849537D01*
X175346600Y-87191131D01*
X174665400Y-87191131D01*
X174523907Y-86849537D01*
X174262463Y-86588093D01*
X173920869Y-86446600D01*
X173551131Y-86446600D01*
X173209537Y-86588093D01*
X172948093Y-86849537D01*
X172806600Y-87191131D01*
X172125400Y-87191131D01*
X171983907Y-86849537D01*
X171722463Y-86588093D01*
X171380869Y-86446600D01*
X171011131Y-86446600D01*
X170669537Y-86588093D01*
X170408093Y-86849537D01*
X170266600Y-87191131D01*
X169585400Y-87191131D01*
X169443907Y-86849537D01*
X169182463Y-86588093D01*
X168840869Y-86446600D01*
X168471131Y-86446600D01*
X168129537Y-86588093D01*
X167868093Y-86849537D01*
X167726600Y-87191131D01*
X167045400Y-87191131D01*
X166903907Y-86849537D01*
X166642463Y-86588093D01*
X166300869Y-86446600D01*
X165931131Y-86446600D01*
X165589537Y-86588093D01*
X165328093Y-86849537D01*
X165186600Y-87191131D01*
X165186600Y-87560869D01*
X165206432Y-87608748D01*
X165088023Y-87490339D01*
X164873305Y-87401400D01*
X164640895Y-87401400D01*
X164505400Y-87457524D01*
X164505400Y-87191131D01*
X164363907Y-86849537D01*
X164102463Y-86588093D01*
X163760869Y-86446600D01*
X163391131Y-86446600D01*
X163049537Y-86588093D01*
X162788093Y-86849537D01*
X162646600Y-87191131D01*
X161965400Y-87191131D01*
X161823907Y-86849537D01*
X161752908Y-86778538D01*
X161789974Y-86753772D01*
X161809812Y-86724082D01*
X162532683Y-86001211D01*
X162562373Y-85981373D01*
X162640967Y-85863748D01*
X162644321Y-85846884D01*
X176994735Y-85846884D01*
X177062898Y-86053856D01*
X177565725Y-86146028D01*
X178029102Y-86053856D01*
X178097265Y-85846884D01*
X177546000Y-85295619D01*
X176994735Y-85846884D01*
X162644321Y-85846884D01*
X162661600Y-85760020D01*
X162668566Y-85725001D01*
X162662464Y-85694323D01*
X162832463Y-85623907D01*
X163093907Y-85362463D01*
X163235400Y-85020869D01*
X163235400Y-84651131D01*
X163093907Y-84309537D01*
X162832463Y-84048093D01*
X162490869Y-83906600D01*
X162121131Y-83906600D01*
X161779537Y-84048093D01*
X161518093Y-84309537D01*
X161376600Y-84651131D01*
X161376600Y-85020869D01*
X161518093Y-85362463D01*
X161779537Y-85623907D01*
X161867686Y-85660420D01*
X161386307Y-86141799D01*
X160649291Y-86141799D01*
X160614271Y-86134833D01*
X160475523Y-86162432D01*
X160397798Y-86214366D01*
X160357898Y-86241026D01*
X160338062Y-86270713D01*
X159423129Y-87185647D01*
X159283907Y-86849537D01*
X159022463Y-86588093D01*
X158680869Y-86446600D01*
X158311131Y-86446600D01*
X157969537Y-86588093D01*
X157708093Y-86849537D01*
X157670500Y-86940294D01*
X157670500Y-86739095D01*
X157581561Y-86524377D01*
X157417223Y-86360039D01*
X157202505Y-86271100D01*
X156970095Y-86271100D01*
X156755377Y-86360039D01*
X156591039Y-86524377D01*
X156540576Y-86646206D01*
X156482463Y-86588093D01*
X156140869Y-86446600D01*
X155771131Y-86446600D01*
X155429537Y-86588093D01*
X155168093Y-86849537D01*
X155026600Y-87191131D01*
X154693179Y-87191131D01*
X154633856Y-86892898D01*
X154426884Y-86824735D01*
X153875619Y-87376000D01*
X152956381Y-87376000D01*
X152902641Y-87322260D01*
X153362260Y-86862641D01*
X153416000Y-86916381D01*
X153967265Y-86365116D01*
X153899102Y-86158144D01*
X153396275Y-86065972D01*
X153180044Y-86108983D01*
X153295400Y-85830488D01*
X153295400Y-85321512D01*
X153100623Y-84851278D01*
X152900476Y-84651131D01*
X153756600Y-84651131D01*
X153756600Y-85020869D01*
X153898093Y-85362463D01*
X154159537Y-85623907D01*
X154501131Y-85765400D01*
X154870869Y-85765400D01*
X155212463Y-85623907D01*
X155473907Y-85362463D01*
X155615400Y-85020869D01*
X155615400Y-84651131D01*
X156296600Y-84651131D01*
X156296600Y-85020869D01*
X156438093Y-85362463D01*
X156699537Y-85623907D01*
X157041131Y-85765400D01*
X157410869Y-85765400D01*
X157752463Y-85623907D01*
X158013907Y-85362463D01*
X158155400Y-85020869D01*
X158155400Y-84651131D01*
X158836600Y-84651131D01*
X158836600Y-85020869D01*
X158978093Y-85362463D01*
X159239537Y-85623907D01*
X159581131Y-85765400D01*
X159950869Y-85765400D01*
X160292463Y-85623907D01*
X160553907Y-85362463D01*
X160695400Y-85020869D01*
X160695400Y-84651131D01*
X160553907Y-84309537D01*
X160292463Y-84048093D01*
X159950869Y-83906600D01*
X159581131Y-83906600D01*
X159239537Y-84048093D01*
X158978093Y-84309537D01*
X158836600Y-84651131D01*
X158155400Y-84651131D01*
X158013907Y-84309537D01*
X157752463Y-84048093D01*
X157410869Y-83906600D01*
X157041131Y-83906600D01*
X156699537Y-84048093D01*
X156438093Y-84309537D01*
X156296600Y-84651131D01*
X155615400Y-84651131D01*
X155473907Y-84309537D01*
X155212463Y-84048093D01*
X154870869Y-83906600D01*
X154501131Y-83906600D01*
X154159537Y-84048093D01*
X153898093Y-84309537D01*
X153756600Y-84651131D01*
X152900476Y-84651131D01*
X152740722Y-84491377D01*
X152270488Y-84296600D01*
X151761512Y-84296600D01*
X151291278Y-84491377D01*
X150931377Y-84851278D01*
X150736600Y-85321512D01*
X129306907Y-85321512D01*
X129209998Y-85224603D01*
X128643722Y-84936071D01*
X128016000Y-84836650D01*
X127388278Y-84936071D01*
X126822002Y-85224603D01*
X126372603Y-85674002D01*
X126084071Y-86240278D01*
X125984650Y-86868000D01*
X124397352Y-86868000D01*
X124471262Y-86140370D01*
X124689973Y-85442463D01*
X125044550Y-84802788D01*
X125520508Y-84247479D01*
X126098410Y-83799213D01*
X126754642Y-83476306D01*
X127466926Y-83290770D01*
X128030577Y-83247400D01*
X162979669Y-83247400D01*
X162953700Y-83310095D01*
G04 #@! TD*
M02*
