G04 #@! TF.GenerationSoftware,KiCad,Pcbnew,5.0.0-fee4fd1~66~ubuntu16.04.1*
G04 #@! TF.CreationDate,2019-02-11T22:50:48-05:00*
G04 #@! TF.ProjectId,AIR_Control_Board,4149525F436F6E74726F6C5F426F6172,rev?*
G04 #@! TF.SameCoordinates,Original*
G04 #@! TF.FileFunction,Soldermask,Bot*
G04 #@! TF.FilePolarity,Negative*
%FSLAX46Y46*%
G04 Gerber Fmt 4.6, Leading zero omitted, Abs format (unit mm)*
G04 Created by KiCad (PCBNEW 5.0.0-fee4fd1~66~ubuntu16.04.1) date Mon Feb 11 22:50:48 2019*
%MOMM*%
%LPD*%
G01*
G04 APERTURE LIST*
%ADD10C,1.771600*%
%ADD11R,1.771600X1.771600*%
%ADD12C,1.800000*%
%ADD13R,1.800000X1.800000*%
%ADD14C,3.500000*%
%ADD15C,1.820000*%
%ADD16C,3.600000*%
%ADD17C,1.700000*%
%ADD18C,2.400000*%
G04 APERTURE END LIST*
D10*
G04 #@! TO.C,C1*
X170688000Y-134366000D03*
D11*
X170688000Y-129362200D03*
G04 #@! TD*
D10*
G04 #@! TO.C,C2*
X159689800Y-134315200D03*
D11*
X159689800Y-129311400D03*
G04 #@! TD*
D12*
G04 #@! TO.C,J4*
X143408400Y-120243600D03*
X143408400Y-117703600D03*
X145948400Y-120243600D03*
X145948400Y-117703600D03*
X148488400Y-120243600D03*
D13*
X148488400Y-117703600D03*
G04 #@! TD*
D14*
G04 #@! TO.C,J1*
X183896000Y-116292000D03*
D15*
X179576000Y-114132000D03*
X179576000Y-117132000D03*
D14*
X183896000Y-123992000D03*
D15*
X179576000Y-120132000D03*
X179576000Y-123152000D03*
X179576000Y-126152000D03*
X176576000Y-114132000D03*
X176576000Y-117132000D03*
X176576000Y-120132000D03*
X176576000Y-123152000D03*
X176576000Y-126152000D03*
G04 #@! TD*
G04 #@! TO.C,J3*
X176576000Y-106934000D03*
X179576000Y-106934000D03*
D16*
X183896000Y-106934000D03*
G04 #@! TD*
D17*
G04 #@! TO.C,J2*
X158496000Y-87376000D03*
X155956000Y-87376000D03*
X153416000Y-87376000D03*
X161036000Y-87376000D03*
X154686000Y-84836000D03*
X157226000Y-84836000D03*
X159766000Y-84836000D03*
X162306000Y-84836000D03*
X163576000Y-87376000D03*
X164846000Y-84836000D03*
X166116000Y-87376000D03*
X167386000Y-84836000D03*
X168656000Y-87376000D03*
X169926000Y-84836000D03*
X171196000Y-87376000D03*
X172466000Y-84836000D03*
X173736000Y-87376000D03*
X175006000Y-84836000D03*
X176276000Y-87376000D03*
X177546000Y-84836000D03*
D18*
X152016000Y-85576000D03*
G04 #@! TD*
M02*
