G04 #@! TF.GenerationSoftware,KiCad,Pcbnew,5.0.0-fee4fd1~66~ubuntu16.04.1*
G04 #@! TF.CreationDate,2019-02-10T09:27:51-05:00*
G04 #@! TF.ProjectId,AIR_Control_Board,4149525F436F6E74726F6C5F426F6172,rev?*
G04 #@! TF.SameCoordinates,Original*
G04 #@! TF.FileFunction,Copper,L1,Top,Signal*
G04 #@! TF.FilePolarity,Positive*
%FSLAX46Y46*%
G04 Gerber Fmt 4.6, Leading zero omitted, Abs format (unit mm)*
G04 Created by KiCad (PCBNEW 5.0.0-fee4fd1~66~ubuntu16.04.1) date Sun Feb 10 09:27:51 2019*
%MOMM*%
%LPD*%
G01*
G04 APERTURE LIST*
G04 #@! TA.AperFunction,ComponentPad*
%ADD10C,1.371600*%
G04 #@! TD*
G04 #@! TA.AperFunction,ComponentPad*
%ADD11R,1.371600X1.371600*%
G04 #@! TD*
G04 #@! TA.AperFunction,SMDPad,CuDef*
%ADD12R,1.300000X0.700000*%
G04 #@! TD*
G04 #@! TA.AperFunction,SMDPad,CuDef*
%ADD13R,1.550000X0.600000*%
G04 #@! TD*
G04 #@! TA.AperFunction,SMDPad,CuDef*
%ADD14R,1.200000X1.200000*%
G04 #@! TD*
G04 #@! TA.AperFunction,ComponentPad*
%ADD15C,1.400000*%
G04 #@! TD*
G04 #@! TA.AperFunction,ComponentPad*
%ADD16R,1.400000X1.400000*%
G04 #@! TD*
G04 #@! TA.AperFunction,SMDPad,CuDef*
%ADD17R,1.000000X1.250000*%
G04 #@! TD*
G04 #@! TA.AperFunction,SMDPad,CuDef*
%ADD18R,0.700000X1.300000*%
G04 #@! TD*
G04 #@! TA.AperFunction,SMDPad,CuDef*
%ADD19R,0.900000X0.800000*%
G04 #@! TD*
G04 #@! TA.AperFunction,SMDPad,CuDef*
%ADD20R,0.800000X0.900000*%
G04 #@! TD*
G04 #@! TA.AperFunction,SMDPad,CuDef*
%ADD21R,2.159000X1.778000*%
G04 #@! TD*
G04 #@! TA.AperFunction,SMDPad,CuDef*
%ADD22R,1.600000X0.550000*%
G04 #@! TD*
G04 #@! TA.AperFunction,SMDPad,CuDef*
%ADD23R,0.550000X1.600000*%
G04 #@! TD*
G04 #@! TA.AperFunction,SMDPad,CuDef*
%ADD24R,1.200000X1.400000*%
G04 #@! TD*
G04 #@! TA.AperFunction,SMDPad,CuDef*
%ADD25R,1.250000X1.000000*%
G04 #@! TD*
G04 #@! TA.AperFunction,SMDPad,CuDef*
%ADD26R,2.500000X0.900000*%
G04 #@! TD*
G04 #@! TA.AperFunction,SMDPad,CuDef*
%ADD27R,8.200000X3.300000*%
G04 #@! TD*
G04 #@! TA.AperFunction,SMDPad,CuDef*
%ADD28R,0.650000X1.060000*%
G04 #@! TD*
G04 #@! TA.AperFunction,ComponentPad*
%ADD29C,3.100000*%
G04 #@! TD*
G04 #@! TA.AperFunction,ComponentPad*
%ADD30C,1.420000*%
G04 #@! TD*
G04 #@! TA.AperFunction,ComponentPad*
%ADD31C,3.200000*%
G04 #@! TD*
G04 #@! TA.AperFunction,SMDPad,CuDef*
%ADD32R,1.600000X1.000000*%
G04 #@! TD*
G04 #@! TA.AperFunction,SMDPad,CuDef*
%ADD33R,1.000000X3.200000*%
G04 #@! TD*
G04 #@! TA.AperFunction,ComponentPad*
%ADD34C,1.300000*%
G04 #@! TD*
G04 #@! TA.AperFunction,ComponentPad*
%ADD35C,2.000000*%
G04 #@! TD*
G04 #@! TA.AperFunction,ViaPad*
%ADD36C,0.609600*%
G04 #@! TD*
G04 #@! TA.AperFunction,Conductor*
%ADD37C,0.152400*%
G04 #@! TD*
G04 #@! TA.AperFunction,Conductor*
%ADD38C,0.254000*%
G04 #@! TD*
G04 #@! TA.AperFunction,Conductor*
%ADD39C,0.508000*%
G04 #@! TD*
G04 #@! TA.AperFunction,Conductor*
%ADD40C,0.762000*%
G04 #@! TD*
G04 #@! TA.AperFunction,Conductor*
%ADD41C,0.200000*%
G04 #@! TD*
G04 APERTURE END LIST*
D10*
G04 #@! TO.P,C1,2*
G04 #@! TO.N,GND*
X170688000Y-134366000D03*
D11*
G04 #@! TO.P,C1,1*
G04 #@! TO.N,/Air+12V*
X170688000Y-129362200D03*
G04 #@! TD*
D10*
G04 #@! TO.P,C2,2*
G04 #@! TO.N,GND*
X159689800Y-134315200D03*
D11*
G04 #@! TO.P,C2,1*
G04 #@! TO.N,/Air+12V*
X159689800Y-129311400D03*
G04 #@! TD*
D12*
G04 #@! TO.P,R33,2*
G04 #@! TO.N,Net-(J2-Pad10)*
X158267400Y-98442700D03*
G04 #@! TO.P,R33,1*
G04 #@! TO.N,/RJ45_LED1*
X158267400Y-100342700D03*
G04 #@! TD*
D13*
G04 #@! TO.P,U1,8*
G04 #@! TO.N,GND*
X140777465Y-99635642D03*
G04 #@! TO.P,U1,7*
G04 #@! TO.N,/CAN_P*
X140777465Y-98365642D03*
G04 #@! TO.P,U1,6*
G04 #@! TO.N,/CAN_N*
X140777465Y-97095642D03*
G04 #@! TO.P,U1,5*
G04 #@! TO.N,Net-(U1-Pad5)*
X140777465Y-95825642D03*
G04 #@! TO.P,U1,4*
G04 #@! TO.N,/XCAN_N*
X146177465Y-95825642D03*
G04 #@! TO.P,U1,3*
G04 #@! TO.N,VCC*
X146177465Y-97095642D03*
G04 #@! TO.P,U1,2*
G04 #@! TO.N,GND*
X146177465Y-98365642D03*
G04 #@! TO.P,U1,1*
G04 #@! TO.N,/XCAN_P*
X146177465Y-99635642D03*
G04 #@! TD*
D14*
G04 #@! TO.P,D1,1*
G04 #@! TO.N,GND*
X166306500Y-120307100D03*
G04 #@! TO.P,D1,2*
G04 #@! TO.N,Net-(D1-Pad2)*
X168506500Y-120307100D03*
G04 #@! TD*
G04 #@! TO.P,D14,1*
G04 #@! TO.N,GND*
X127568600Y-98348800D03*
G04 #@! TO.P,D14,2*
G04 #@! TO.N,Net-(D14-Pad2)*
X129768600Y-98348800D03*
G04 #@! TD*
D12*
G04 #@! TO.P,R13,2*
G04 #@! TO.N,/SenseConnToHVD*
X179959000Y-96708000D03*
G04 #@! TO.P,R13,1*
G04 #@! TO.N,VCC*
X179959000Y-94808000D03*
G04 #@! TD*
D15*
G04 #@! TO.P,J4,6*
G04 #@! TO.N,GND*
X143408400Y-120243600D03*
G04 #@! TO.P,J4,5*
G04 #@! TO.N,/RESET*
X143408400Y-117703600D03*
G04 #@! TO.P,J4,4*
G04 #@! TO.N,/MOSI*
X145948400Y-120243600D03*
G04 #@! TO.P,J4,3*
G04 #@! TO.N,/SCK*
X145948400Y-117703600D03*
G04 #@! TO.P,J4,2*
G04 #@! TO.N,VCC*
X148488400Y-120243600D03*
D16*
G04 #@! TO.P,J4,1*
G04 #@! TO.N,/MISO*
X148488400Y-117703600D03*
G04 #@! TD*
D17*
G04 #@! TO.P,C4,2*
G04 #@! TO.N,GND*
X158556200Y-103149400D03*
G04 #@! TO.P,C4,1*
G04 #@! TO.N,VCC*
X156556200Y-103149400D03*
G04 #@! TD*
D18*
G04 #@! TO.P,R10,2*
G04 #@! TO.N,GND*
X181803000Y-92837000D03*
G04 #@! TO.P,R10,1*
G04 #@! TO.N,/ShutdownSense_HVD_Conn*
X183703000Y-92837000D03*
G04 #@! TD*
G04 #@! TO.P,R15,2*
G04 #@! TO.N,Net-(D7-Pad2)*
X181925000Y-102362000D03*
G04 #@! TO.P,R15,1*
G04 #@! TO.N,/Air+12V*
X180025000Y-102362000D03*
G04 #@! TD*
D12*
G04 #@! TO.P,R16,2*
G04 #@! TO.N,Net-(D8-Pad2)*
X150177500Y-94292500D03*
G04 #@! TO.P,R16,1*
G04 #@! TO.N,/ShutdownSense_BMS*
X150177500Y-92392500D03*
G04 #@! TD*
G04 #@! TO.P,R14,2*
G04 #@! TO.N,/SenseMainTSConn*
X170561000Y-96388000D03*
G04 #@! TO.P,R14,1*
G04 #@! TO.N,VCC*
X170561000Y-94488000D03*
G04 #@! TD*
D17*
G04 #@! TO.P,C8,2*
G04 #@! TO.N,GND*
X137737600Y-106070400D03*
G04 #@! TO.P,C8,1*
G04 #@! TO.N,Net-(C10-Pad1)*
X135737600Y-106070400D03*
G04 #@! TD*
D19*
G04 #@! TO.P,Q2,3*
G04 #@! TO.N,/Air+GND*
X173579500Y-108775500D03*
G04 #@! TO.P,Q2,2*
G04 #@! TO.N,GND*
X171479500Y-109725500D03*
G04 #@! TO.P,Q2,1*
G04 #@! TO.N,/AIR+LSD*
X171479500Y-107825500D03*
G04 #@! TD*
D18*
G04 #@! TO.P,R22,2*
G04 #@! TO.N,Net-(D11-Pad2)*
X133009600Y-90170000D03*
G04 #@! TO.P,R22,1*
G04 #@! TO.N,/12V_Fused*
X134909600Y-90170000D03*
G04 #@! TD*
D12*
G04 #@! TO.P,R29,2*
G04 #@! TO.N,Net-(D13-Pad2)*
X137109200Y-127807800D03*
G04 #@! TO.P,R29,1*
G04 #@! TO.N,/P_LED_1*
X137109200Y-125907800D03*
G04 #@! TD*
G04 #@! TO.P,R31,2*
G04 #@! TO.N,/RESET*
X161848800Y-103515200D03*
G04 #@! TO.P,R31,1*
G04 #@! TO.N,VCC*
X161848800Y-101615200D03*
G04 #@! TD*
D14*
G04 #@! TO.P,D3,1*
G04 #@! TO.N,GND*
X167980000Y-113030000D03*
G04 #@! TO.P,D3,2*
G04 #@! TO.N,Net-(D3-Pad2)*
X170180000Y-113030000D03*
G04 #@! TD*
D18*
G04 #@! TO.P,R25,2*
G04 #@! TO.N,/12V_Fused*
X127675600Y-118719600D03*
G04 #@! TO.P,R25,1*
G04 #@! TO.N,Net-(R25-Pad1)*
X129575600Y-118719600D03*
G04 #@! TD*
D14*
G04 #@! TO.P,D9,1*
G04 #@! TO.N,GND*
X160972500Y-98044000D03*
G04 #@! TO.P,D9,2*
G04 #@! TO.N,Net-(D9-Pad2)*
X160972500Y-95844000D03*
G04 #@! TD*
D18*
G04 #@! TO.P,R23,2*
G04 #@! TO.N,Net-(C6-Pad1)*
X156580800Y-117919500D03*
G04 #@! TO.P,R23,1*
G04 #@! TO.N,VCC*
X158480800Y-117919500D03*
G04 #@! TD*
G04 #@! TO.P,R19,2*
G04 #@! TO.N,GND*
X164589500Y-96266000D03*
G04 #@! TO.P,R19,1*
G04 #@! TO.N,/ShutdownSense_IMD*
X162689500Y-96266000D03*
G04 #@! TD*
D20*
G04 #@! TO.P,Q5,3*
G04 #@! TO.N,/BMS_Sense*
X153035000Y-92422000D03*
G04 #@! TO.P,Q5,2*
G04 #@! TO.N,GND*
X153985000Y-94522000D03*
G04 #@! TO.P,Q5,1*
G04 #@! TO.N,/ShutdownSense_BMS*
X152085000Y-94522000D03*
G04 #@! TD*
D12*
G04 #@! TO.P,R26,2*
G04 #@! TO.N,GND*
X133248400Y-118379200D03*
G04 #@! TO.P,R26,1*
G04 #@! TO.N,Net-(R26-Pad1)*
X133248400Y-120279200D03*
G04 #@! TD*
G04 #@! TO.P,R21,2*
G04 #@! TO.N,/IMD_Sense*
X166497000Y-94295000D03*
G04 #@! TO.P,R21,1*
G04 #@! TO.N,VCC*
X166497000Y-92395000D03*
G04 #@! TD*
D18*
G04 #@! TO.P,R24,2*
G04 #@! TO.N,/CAN_N*
X144033200Y-94132400D03*
G04 #@! TO.P,R24,1*
G04 #@! TO.N,/CAN_P*
X145933200Y-94132400D03*
G04 #@! TD*
D21*
G04 #@! TO.P,D10,1*
G04 #@! TO.N,+12V*
X140004800Y-86207600D03*
G04 #@! TO.P,D10,2*
G04 #@! TO.N,GND*
X140004800Y-90271600D03*
G04 #@! TD*
D14*
G04 #@! TO.P,D11,1*
G04 #@! TO.N,GND*
X127390800Y-92100400D03*
G04 #@! TO.P,D11,2*
G04 #@! TO.N,Net-(D11-Pad2)*
X129590800Y-92100400D03*
G04 #@! TD*
D19*
G04 #@! TO.P,Q1,3*
G04 #@! TO.N,/Precharge-*
X173579500Y-115824000D03*
G04 #@! TO.P,Q1,2*
G04 #@! TO.N,GND*
X171479500Y-116774000D03*
G04 #@! TO.P,Q1,1*
G04 #@! TO.N,/PrechargeCTL*
X171479500Y-114874000D03*
G04 #@! TD*
D14*
G04 #@! TO.P,D12,1*
G04 #@! TO.N,GND*
X134772400Y-131681400D03*
G04 #@! TO.P,D12,2*
G04 #@! TO.N,Net-(D12-Pad2)*
X134772400Y-129481400D03*
G04 #@! TD*
G04 #@! TO.P,D8,1*
G04 #@! TO.N,GND*
X150241000Y-98085000D03*
G04 #@! TO.P,D8,2*
G04 #@! TO.N,Net-(D8-Pad2)*
X150241000Y-95885000D03*
G04 #@! TD*
D12*
G04 #@! TO.P,R34,2*
G04 #@! TO.N,Net-(J2-Pad11)*
X156337000Y-98427500D03*
G04 #@! TO.P,R34,1*
G04 #@! TO.N,/RJ45_LED2*
X156337000Y-100327500D03*
G04 #@! TD*
D18*
G04 #@! TO.P,R11,2*
G04 #@! TO.N,GND*
X172532000Y-92710000D03*
G04 #@! TO.P,R11,1*
G04 #@! TO.N,/ShutdownSense_MainPack*
X174432000Y-92710000D03*
G04 #@! TD*
D12*
G04 #@! TO.P,R6,2*
G04 #@! TO.N,GND*
X166611300Y-124736900D03*
G04 #@! TO.P,R6,1*
G04 #@! TO.N,/AIR+_Weld_Detect*
X166611300Y-122836900D03*
G04 #@! TD*
G04 #@! TO.P,R1,2*
G04 #@! TO.N,Net-(D1-Pad2)*
X170345100Y-121942900D03*
G04 #@! TO.P,R1,1*
G04 #@! TO.N,/AIR-_Weld_Detect*
X170345100Y-120042900D03*
G04 #@! TD*
G04 #@! TO.P,R7,2*
G04 #@! TO.N,GND*
X169799000Y-109537500D03*
G04 #@! TO.P,R7,1*
G04 #@! TO.N,/AIR+LSD*
X169799000Y-107637500D03*
G04 #@! TD*
G04 #@! TO.P,R27,2*
G04 #@! TO.N,Net-(D12-Pad2)*
X134772400Y-127807800D03*
G04 #@! TO.P,R27,1*
G04 #@! TO.N,/P_LED_2*
X134772400Y-125907800D03*
G04 #@! TD*
D14*
G04 #@! TO.P,D5,1*
G04 #@! TO.N,GND*
X176149000Y-98085000D03*
G04 #@! TO.P,D5,2*
G04 #@! TO.N,Net-(D5-Pad2)*
X176149000Y-95885000D03*
G04 #@! TD*
D12*
G04 #@! TO.P,R17,2*
G04 #@! TO.N,Net-(D9-Pad2)*
X160972500Y-94229000D03*
G04 #@! TO.P,R17,1*
G04 #@! TO.N,/ShutdownSense_IMD*
X160972500Y-92329000D03*
G04 #@! TD*
D18*
G04 #@! TO.P,R18,2*
G04 #@! TO.N,GND*
X153794500Y-96202500D03*
G04 #@! TO.P,R18,1*
G04 #@! TO.N,/ShutdownSense_BMS*
X151894500Y-96202500D03*
G04 #@! TD*
D22*
G04 #@! TO.P,IC1,32*
G04 #@! TO.N,Net-(IC1-Pad32)*
X161666500Y-106864500D03*
G04 #@! TO.P,IC1,31*
G04 #@! TO.N,/RESET*
X161666500Y-107664500D03*
G04 #@! TO.P,IC1,30*
G04 #@! TO.N,Net-(IC1-Pad30)*
X161666500Y-108464500D03*
G04 #@! TO.P,IC1,29*
G04 #@! TO.N,/SenseMainTSConn*
X161666500Y-109264500D03*
G04 #@! TO.P,IC1,28*
G04 #@! TO.N,/Cooling_Pressure_Sense*
X161666500Y-110064500D03*
G04 #@! TO.P,IC1,27*
G04 #@! TO.N,/SenseConnToHVD*
X161666500Y-110864500D03*
G04 #@! TO.P,IC1,26*
G04 #@! TO.N,/AIR+LSD*
X161666500Y-111664500D03*
G04 #@! TO.P,IC1,25*
G04 #@! TO.N,/AIR-_Weld_Detect*
X161666500Y-112464500D03*
D23*
G04 #@! TO.P,IC1,24*
G04 #@! TO.N,/PrechargeCTL*
X160216500Y-113914500D03*
G04 #@! TO.P,IC1,23*
G04 #@! TO.N,Net-(IC1-Pad23)*
X159416500Y-113914500D03*
G04 #@! TO.P,IC1,22*
G04 #@! TO.N,/AIR+_Weld_Detect*
X158616500Y-113914500D03*
G04 #@! TO.P,IC1,21*
G04 #@! TO.N,Net-(IC1-Pad21)*
X157816500Y-113914500D03*
G04 #@! TO.P,IC1,20*
G04 #@! TO.N,GND*
X157016500Y-113914500D03*
G04 #@! TO.P,IC1,19*
G04 #@! TO.N,Net-(C6-Pad1)*
X156216500Y-113914500D03*
G04 #@! TO.P,IC1,18*
G04 #@! TO.N,/P_LED_2*
X155416500Y-113914500D03*
G04 #@! TO.P,IC1,17*
G04 #@! TO.N,/P_LED_1*
X154616500Y-113914500D03*
D22*
G04 #@! TO.P,IC1,16*
G04 #@! TO.N,Net-(IC1-Pad16)*
X153166500Y-112464500D03*
G04 #@! TO.P,IC1,15*
G04 #@! TO.N,Net-(IC1-Pad15)*
X153166500Y-111664500D03*
G04 #@! TO.P,IC1,14*
G04 #@! TO.N,Net-(IC1-Pad14)*
X153166500Y-110864500D03*
G04 #@! TO.P,IC1,13*
G04 #@! TO.N,Net-(IC1-Pad13)*
X153166500Y-110064500D03*
G04 #@! TO.P,IC1,12*
G04 #@! TO.N,/SCK*
X153166500Y-109264500D03*
G04 #@! TO.P,IC1,11*
G04 #@! TO.N,Net-(C11-Pad1)*
X153166500Y-108464500D03*
G04 #@! TO.P,IC1,10*
G04 #@! TO.N,Net-(C12-Pad1)*
X153166500Y-107664500D03*
G04 #@! TO.P,IC1,9*
G04 #@! TO.N,/RJ45_LED2*
X153166500Y-106864500D03*
D23*
G04 #@! TO.P,IC1,8*
G04 #@! TO.N,/RJ45_LED1*
X154616500Y-105414500D03*
G04 #@! TO.P,IC1,7*
G04 #@! TO.N,/XCAN_N*
X155416500Y-105414500D03*
G04 #@! TO.P,IC1,6*
G04 #@! TO.N,/XCAN_P*
X156216500Y-105414500D03*
G04 #@! TO.P,IC1,5*
G04 #@! TO.N,GND*
X157016500Y-105414500D03*
G04 #@! TO.P,IC1,4*
G04 #@! TO.N,VCC*
X157816500Y-105414500D03*
G04 #@! TO.P,IC1,3*
G04 #@! TO.N,Net-(IC1-Pad3)*
X158616500Y-105414500D03*
G04 #@! TO.P,IC1,2*
G04 #@! TO.N,/MOSI*
X159416500Y-105414500D03*
G04 #@! TO.P,IC1,1*
G04 #@! TO.N,/MISO*
X160216500Y-105414500D03*
G04 #@! TD*
D14*
G04 #@! TO.P,D13,1*
G04 #@! TO.N,GND*
X137058400Y-131663800D03*
G04 #@! TO.P,D13,2*
G04 #@! TO.N,Net-(D13-Pad2)*
X137058400Y-129463800D03*
G04 #@! TD*
D12*
G04 #@! TO.P,R28,2*
G04 #@! TO.N,Net-(R26-Pad1)*
X131267200Y-118379200D03*
G04 #@! TO.P,R28,1*
G04 #@! TO.N,Net-(C10-Pad1)*
X131267200Y-120279200D03*
G04 #@! TD*
D14*
G04 #@! TO.P,D6,1*
G04 #@! TO.N,GND*
X167916500Y-106045000D03*
G04 #@! TO.P,D6,2*
G04 #@! TO.N,Net-(D6-Pad2)*
X170116500Y-106045000D03*
G04 #@! TD*
D20*
G04 #@! TO.P,Q3,3*
G04 #@! TO.N,/SenseConnToHVD*
X182753000Y-96681000D03*
G04 #@! TO.P,Q3,2*
G04 #@! TO.N,GND*
X181803000Y-94581000D03*
G04 #@! TO.P,Q3,1*
G04 #@! TO.N,/ShutdownSense_HVD_Conn*
X183703000Y-94581000D03*
G04 #@! TD*
D24*
G04 #@! TO.P,Y1,4*
G04 #@! TO.N,GND*
X148412400Y-108762800D03*
G04 #@! TO.P,Y1,3*
G04 #@! TO.N,Net-(C12-Pad1)*
X148412400Y-106562800D03*
G04 #@! TO.P,Y1,2*
G04 #@! TO.N,GND*
X150012400Y-106562800D03*
G04 #@! TO.P,Y1,1*
G04 #@! TO.N,Net-(C11-Pad1)*
X150012400Y-108762800D03*
G04 #@! TD*
D18*
G04 #@! TO.P,R32,2*
G04 #@! TO.N,Net-(D14-Pad2)*
X131368800Y-98298000D03*
G04 #@! TO.P,R32,1*
G04 #@! TO.N,VCC*
X133268800Y-98298000D03*
G04 #@! TD*
D12*
G04 #@! TO.P,R20,2*
G04 #@! TO.N,/BMS_Sense*
X155829000Y-94295000D03*
G04 #@! TO.P,R20,1*
G04 #@! TO.N,VCC*
X155829000Y-92395000D03*
G04 #@! TD*
D20*
G04 #@! TO.P,Q6,3*
G04 #@! TO.N,/IMD_Sense*
X163766500Y-92422000D03*
G04 #@! TO.P,Q6,2*
G04 #@! TO.N,GND*
X164716500Y-94522000D03*
G04 #@! TO.P,Q6,1*
G04 #@! TO.N,/ShutdownSense_IMD*
X162816500Y-94522000D03*
G04 #@! TD*
D17*
G04 #@! TO.P,C6,2*
G04 #@! TO.N,GND*
X158543500Y-116001800D03*
G04 #@! TO.P,C6,1*
G04 #@! TO.N,Net-(C6-Pad1)*
X156543500Y-116001800D03*
G04 #@! TD*
D14*
G04 #@! TO.P,D4,1*
G04 #@! TO.N,GND*
X185547000Y-98171000D03*
G04 #@! TO.P,D4,2*
G04 #@! TO.N,Net-(D4-Pad2)*
X185547000Y-95971000D03*
G04 #@! TD*
D12*
G04 #@! TO.P,R8,2*
G04 #@! TO.N,Net-(D4-Pad2)*
X185547000Y-94422000D03*
G04 #@! TO.P,R8,1*
G04 #@! TO.N,/ShutdownSense_HVD_Conn*
X185547000Y-92522000D03*
G04 #@! TD*
D20*
G04 #@! TO.P,Q4,3*
G04 #@! TO.N,/SenseMainTSConn*
X173355000Y-96427000D03*
G04 #@! TO.P,Q4,2*
G04 #@! TO.N,GND*
X172405000Y-94327000D03*
G04 #@! TO.P,Q4,1*
G04 #@! TO.N,/ShutdownSense_MainPack*
X174305000Y-94327000D03*
G04 #@! TD*
D17*
G04 #@! TO.P,C9,2*
G04 #@! TO.N,GND*
X137728200Y-107950000D03*
G04 #@! TO.P,C9,1*
G04 #@! TO.N,Net-(C10-Pad1)*
X135728200Y-107950000D03*
G04 #@! TD*
G04 #@! TO.P,C10,2*
G04 #@! TO.N,GND*
X137753600Y-104190800D03*
G04 #@! TO.P,C10,1*
G04 #@! TO.N,Net-(C10-Pad1)*
X135753600Y-104190800D03*
G04 #@! TD*
G04 #@! TO.P,C11,2*
G04 #@! TO.N,GND*
X148012400Y-110642400D03*
G04 #@! TO.P,C11,1*
G04 #@! TO.N,Net-(C11-Pad1)*
X150012400Y-110642400D03*
G04 #@! TD*
D25*
G04 #@! TO.P,C12,2*
G04 #@! TO.N,GND*
X146608800Y-108661200D03*
G04 #@! TO.P,C12,1*
G04 #@! TO.N,Net-(C12-Pad1)*
X146608800Y-106661200D03*
G04 #@! TD*
D14*
G04 #@! TO.P,D2,1*
G04 #@! TO.N,GND*
X162560000Y-124485400D03*
G04 #@! TO.P,D2,2*
G04 #@! TO.N,Net-(D2-Pad2)*
X162560000Y-122285400D03*
G04 #@! TD*
D26*
G04 #@! TO.P,F1,2*
G04 #@! TO.N,/12V_Fused*
X136194800Y-88470400D03*
G04 #@! TO.P,F1,1*
G04 #@! TO.N,+12V*
X136194800Y-85570400D03*
G04 #@! TD*
D27*
G04 #@! TO.P,L1,2*
G04 #@! TO.N,Net-(C10-Pad1)*
X130606800Y-105092000D03*
G04 #@! TO.P,L1,1*
G04 #@! TO.N,Net-(C7-Pad2)*
X130606800Y-109792000D03*
G04 #@! TD*
D12*
G04 #@! TO.P,R2,2*
G04 #@! TO.N,GND*
X172364400Y-121930200D03*
G04 #@! TO.P,R2,1*
G04 #@! TO.N,/AIR-_Weld_Detect*
X172364400Y-120030200D03*
G04 #@! TD*
G04 #@! TO.P,R3,2*
G04 #@! TO.N,Net-(D2-Pad2)*
X164579300Y-124734400D03*
G04 #@! TO.P,R3,1*
G04 #@! TO.N,/AIR+_Weld_Detect*
X164579300Y-122834400D03*
G04 #@! TD*
D18*
G04 #@! TO.P,R12,2*
G04 #@! TO.N,Net-(D6-Pad2)*
X171704000Y-105981500D03*
G04 #@! TO.P,R12,1*
G04 #@! TO.N,/AIR+LSD*
X173604000Y-105981500D03*
G04 #@! TD*
D28*
G04 #@! TO.P,U2,5*
G04 #@! TO.N,Net-(R25-Pad1)*
X130505200Y-114739600D03*
G04 #@! TO.P,U2,6*
G04 #@! TO.N,Net-(C7-Pad1)*
X131455200Y-114739600D03*
G04 #@! TO.P,U2,4*
G04 #@! TO.N,Net-(R26-Pad1)*
X129555200Y-114739600D03*
G04 #@! TO.P,U2,3*
G04 #@! TO.N,/12V_Fused*
X129555200Y-112539600D03*
G04 #@! TO.P,U2,2*
G04 #@! TO.N,Net-(C7-Pad2)*
X130505200Y-112539600D03*
G04 #@! TO.P,U2,1*
G04 #@! TO.N,GND*
X131455200Y-112539600D03*
G04 #@! TD*
D25*
G04 #@! TO.P,C7,2*
G04 #@! TO.N,Net-(C7-Pad2)*
X133273800Y-114020600D03*
G04 #@! TO.P,C7,1*
G04 #@! TO.N,Net-(C7-Pad1)*
X133273800Y-116020600D03*
G04 #@! TD*
D18*
G04 #@! TO.P,R4,2*
G04 #@! TO.N,Net-(D3-Pad2)*
X171770000Y-112966500D03*
G04 #@! TO.P,R4,1*
G04 #@! TO.N,/PrechargeCTL*
X173670000Y-112966500D03*
G04 #@! TD*
D12*
G04 #@! TO.P,R5,2*
G04 #@! TO.N,GND*
X169735500Y-116583500D03*
G04 #@! TO.P,R5,1*
G04 #@! TO.N,/PrechargeCTL*
X169735500Y-114683500D03*
G04 #@! TD*
D29*
G04 #@! TO.P,J1,*
G04 #@! TO.N,*
X183896000Y-116292000D03*
D30*
G04 #@! TO.P,J1,1*
G04 #@! TO.N,/Air+12V*
X179576000Y-114132000D03*
G04 #@! TO.P,J1,2*
G04 #@! TO.N,/Precharge-*
X179576000Y-117132000D03*
D29*
G04 #@! TO.P,J1,*
G04 #@! TO.N,*
X183896000Y-123992000D03*
D30*
G04 #@! TO.P,J1,3*
G04 #@! TO.N,VCC*
X179576000Y-120132000D03*
G04 #@! TO.P,J1,4*
G04 #@! TO.N,/AIR+_Weld_Detect*
X179576000Y-123152000D03*
G04 #@! TO.P,J1,5*
G04 #@! TO.N,/Air+12V*
X179576000Y-126152000D03*
G04 #@! TO.P,J1,6*
G04 #@! TO.N,/Air+GND*
X176576000Y-114132000D03*
G04 #@! TO.P,J1,7*
G04 #@! TO.N,VCC*
X176576000Y-117132000D03*
G04 #@! TO.P,J1,8*
G04 #@! TO.N,/AIR-_Weld_Detect*
X176576000Y-120132000D03*
G04 #@! TO.P,J1,9*
G04 #@! TO.N,/Air+12V*
X176576000Y-123152000D03*
G04 #@! TO.P,J1,10*
G04 #@! TO.N,GND*
X176576000Y-126152000D03*
G04 #@! TD*
G04 #@! TO.P,J3,2*
G04 #@! TO.N,GND*
X176576000Y-106934000D03*
G04 #@! TO.P,J3,1*
G04 #@! TO.N,/Air+12V*
X179576000Y-106934000D03*
D31*
G04 #@! TO.P,J3,*
G04 #@! TO.N,*
X183896000Y-106934000D03*
G04 #@! TD*
D25*
G04 #@! TO.P,C3,2*
G04 #@! TO.N,GND*
X148209000Y-97859600D03*
G04 #@! TO.P,C3,1*
G04 #@! TO.N,VCC*
X148209000Y-95859600D03*
G04 #@! TD*
D32*
G04 #@! TO.P,C5,2*
G04 #@! TO.N,GND*
X136652000Y-93170000D03*
G04 #@! TO.P,C5,1*
G04 #@! TO.N,/12V_Fused*
X136652000Y-90170000D03*
G04 #@! TD*
D14*
G04 #@! TO.P,D7,1*
G04 #@! TO.N,GND*
X185801000Y-102362000D03*
G04 #@! TO.P,D7,2*
G04 #@! TO.N,Net-(D7-Pad2)*
X183601000Y-102362000D03*
G04 #@! TD*
D12*
G04 #@! TO.P,R9,2*
G04 #@! TO.N,Net-(D5-Pad2)*
X176149000Y-94295000D03*
G04 #@! TO.P,R9,1*
G04 #@! TO.N,/ShutdownSense_MainPack*
X176149000Y-92395000D03*
G04 #@! TD*
D33*
G04 #@! TO.P,R30,2*
G04 #@! TO.N,Net-(C10-Pad1)*
X127506800Y-101244400D03*
G04 #@! TO.P,R30,1*
G04 #@! TO.N,VCC*
X133706800Y-101244400D03*
G04 #@! TD*
D34*
G04 #@! TO.P,J2,5*
G04 #@! TO.N,VCC*
X158496000Y-87376000D03*
G04 #@! TO.P,J2,3*
G04 #@! TO.N,/CAN_P*
X155956000Y-87376000D03*
G04 #@! TO.P,J2,1*
G04 #@! TO.N,GND*
X153416000Y-87376000D03*
G04 #@! TO.P,J2,7*
G04 #@! TO.N,/MISO*
X161036000Y-87376000D03*
G04 #@! TO.P,J2,2*
G04 #@! TO.N,+12V*
X154686000Y-84836000D03*
G04 #@! TO.P,J2,4*
G04 #@! TO.N,/CAN_N*
X157226000Y-84836000D03*
G04 #@! TO.P,J2,6*
G04 #@! TO.N,/MOSI*
X159766000Y-84836000D03*
G04 #@! TO.P,J2,8*
G04 #@! TO.N,/SCK*
X162306000Y-84836000D03*
G04 #@! TO.P,J2,9*
G04 #@! TO.N,/RESET*
X163576000Y-87376000D03*
G04 #@! TO.P,J2,10*
G04 #@! TO.N,Net-(J2-Pad10)*
X164846000Y-84836000D03*
G04 #@! TO.P,J2,11*
G04 #@! TO.N,Net-(J2-Pad11)*
X166116000Y-87376000D03*
G04 #@! TO.P,J2,12*
G04 #@! TO.N,/IMD_Sense*
X167386000Y-84836000D03*
G04 #@! TO.P,J2,13*
G04 #@! TO.N,/BMS_Sense*
X168656000Y-87376000D03*
G04 #@! TO.P,J2,14*
G04 #@! TO.N,/ShutdownSense_BMS*
X169926000Y-84836000D03*
G04 #@! TO.P,J2,15*
G04 #@! TO.N,/ShutdownSense_IMD*
X171196000Y-87376000D03*
G04 #@! TO.P,J2,16*
G04 #@! TO.N,/ShutdownSense_HVD_Conn*
X172466000Y-84836000D03*
G04 #@! TO.P,J2,17*
G04 #@! TO.N,/ShutdownSense_MainPack*
X173736000Y-87376000D03*
G04 #@! TO.P,J2,18*
G04 #@! TO.N,VCC*
X175006000Y-84836000D03*
G04 #@! TO.P,J2,19*
G04 #@! TO.N,/Cooling_Pressure_Sense*
X176276000Y-87376000D03*
G04 #@! TO.P,J2,20*
G04 #@! TO.N,GND*
X177546000Y-84836000D03*
D35*
G04 #@! TO.P,J2,21*
G04 #@! TO.N,N/C*
X152016000Y-85576000D03*
G04 #@! TD*
D36*
G04 #@! TO.N,GND*
X154940000Y-95859600D03*
X166166800Y-95554800D03*
X162407600Y-97942400D03*
X180289200Y-93065600D03*
X187198000Y-98044000D03*
X187147200Y-101041200D03*
X149250400Y-105257600D03*
X146558000Y-110236000D03*
X167284400Y-111709200D03*
X169164000Y-110591600D03*
X166573200Y-106324400D03*
X171196000Y-92913200D03*
X174498000Y-98094800D03*
X127584200Y-96799400D03*
X139115800Y-104952800D03*
X139115800Y-106273600D03*
X139128500Y-107708700D03*
X138874500Y-109194600D03*
X139115800Y-103835200D03*
X131724400Y-117119400D03*
X138353800Y-93573600D03*
X138861800Y-92303600D03*
X139674600Y-93370400D03*
X140411200Y-92278200D03*
X125984000Y-92100400D03*
X161264600Y-124510800D03*
X168046400Y-123748800D03*
X173685200Y-120700800D03*
X139039600Y-98806000D03*
X151714200Y-98044000D03*
X156692600Y-107264200D03*
X157556200Y-102057200D03*
X159905700Y-115989100D03*
X133972300Y-133235700D03*
X137820400Y-133134100D03*
X168313100Y-115570000D03*
X167906700Y-121653300D03*
G04 #@! TO.N,VCC*
X143916400Y-100076000D03*
X144754600Y-99237800D03*
X158953200Y-101561900D03*
X160731200Y-100469700D03*
X158813500Y-89738200D03*
X161493200Y-89636600D03*
X152654000Y-102590600D03*
X154434317Y-102156483D03*
X163918900Y-100037900D03*
X167347900Y-100088700D03*
X178520445Y-98510445D03*
X178511200Y-96164400D03*
G04 #@! TO.N,/MISO*
X154779538Y-111510638D03*
X152760238Y-113529938D03*
G04 #@! TO.N,/MOSI*
X154622500Y-110718600D03*
X151942800Y-113563400D03*
G04 #@! TO.N,/SCK*
X159232600Y-88849200D03*
X151511000Y-100558600D03*
X150931905Y-103301800D03*
G04 #@! TO.N,/RESET*
X168071800Y-93281500D03*
X168069223Y-91861600D03*
X163677600Y-90678000D03*
X147410401Y-119100600D03*
G04 #@! TO.N,/P_LED_1*
X151269700Y-121196100D03*
X148831300Y-123647200D03*
G04 #@! TO.N,/P_LED_2*
X152057100Y-121246900D03*
X150368000Y-122974100D03*
G04 #@! TO.N,Net-(C10-Pad1)*
X135763000Y-109550200D03*
X138277600Y-112064800D03*
G04 #@! TO.N,/RJ45_LED1*
X154074879Y-103874821D03*
X155117800Y-99860100D03*
G04 #@! TO.N,/RJ45_LED2*
X151313551Y-104412493D03*
X152742900Y-100558600D03*
G04 #@! TO.N,/AIR+_Weld_Detect*
X175158400Y-121818400D03*
X162560000Y-117017800D03*
X163118800Y-118783100D03*
G04 #@! TO.N,/AIR-_Weld_Detect*
X164960300Y-114150100D03*
X166103300Y-115290600D03*
X168402000Y-117513100D03*
X170103800Y-119202200D03*
G04 #@! TO.N,Net-(J2-Pad10)*
X158364804Y-94890204D03*
X157835600Y-92595700D03*
X157416500Y-90195400D03*
X157086300Y-86855300D03*
X163537900Y-83426300D03*
G04 #@! TO.N,Net-(J2-Pad11)*
X159255689Y-94043500D03*
X161663327Y-91523624D03*
X166116000Y-89809320D03*
G04 #@! TO.N,/IMD_Sense*
X164515800Y-91198700D03*
X164757100Y-87985600D03*
G04 #@! TO.N,/BMS_Sense*
X158861779Y-92453479D03*
X160932109Y-90964029D03*
G04 #@! TO.N,/ShutdownSense_BMS*
X151726900Y-91287600D03*
X152996900Y-90030300D03*
G04 #@! TO.N,Net-(R25-Pad1)*
X130505200Y-116027200D03*
X129438400Y-117322600D03*
G04 #@! TD*
D37*
G04 #@! TO.N,GND*
X153985000Y-96012000D02*
X153794500Y-96202500D01*
X153985000Y-94522000D02*
X153985000Y-96012000D01*
X154597100Y-96202500D02*
X154940000Y-95859600D01*
X153794500Y-96202500D02*
X154597100Y-96202500D01*
X164716500Y-96139000D02*
X164589500Y-96266000D01*
X164716500Y-94522000D02*
X164716500Y-96139000D01*
X165455600Y-96266000D02*
X166166800Y-95554800D01*
X164589500Y-96266000D02*
X165455600Y-96266000D01*
X162306000Y-98044000D02*
X162407600Y-97942400D01*
X160972500Y-98044000D02*
X162306000Y-98044000D01*
X172532000Y-94200000D02*
X172405000Y-94327000D01*
X172532000Y-92710000D02*
X172532000Y-94200000D01*
X181803000Y-93639400D02*
X181803000Y-94581000D01*
X180517800Y-92837000D02*
X180289200Y-93065600D01*
X181803000Y-92837000D02*
X180517800Y-92837000D01*
X187071000Y-98171000D02*
X187198000Y-98044000D01*
X185547000Y-98171000D02*
X187071000Y-98171000D01*
X186369400Y-101041200D02*
X187147200Y-101041200D01*
X185801000Y-101609600D02*
X186369400Y-101041200D01*
X185801000Y-102362000D02*
X185801000Y-101609600D01*
X148310800Y-108661200D02*
X148412400Y-108762800D01*
X146608800Y-108661200D02*
X148310800Y-108661200D01*
X149559600Y-105257600D02*
X149250400Y-105257600D01*
X150012400Y-105710400D02*
X149559600Y-105257600D01*
X150012400Y-106562800D02*
X150012400Y-105710400D01*
X148012400Y-109162800D02*
X148412400Y-108762800D01*
X148012400Y-110642400D02*
X148012400Y-109162800D01*
X146608800Y-110185200D02*
X146558000Y-110236000D01*
X146608800Y-108661200D02*
X146608800Y-110185200D01*
X146964400Y-110642400D02*
X146558000Y-110236000D01*
X148012400Y-110642400D02*
X146964400Y-110642400D01*
X171289000Y-116583500D02*
X171479500Y-116774000D01*
X169735500Y-116583500D02*
X171289000Y-116583500D01*
X167411600Y-111709200D02*
X167284400Y-111709200D01*
X167980000Y-112277600D02*
X167411600Y-111709200D01*
X167980000Y-113030000D02*
X167980000Y-112277600D01*
X171291500Y-109537500D02*
X171479500Y-109725500D01*
X169799000Y-109537500D02*
X171291500Y-109537500D01*
X169799000Y-109956600D02*
X169164000Y-110591600D01*
X169799000Y-109537500D02*
X169799000Y-109956600D01*
X166852600Y-106045000D02*
X166573200Y-106324400D01*
X167916500Y-106045000D02*
X166852600Y-106045000D01*
X171399200Y-92710000D02*
X171196000Y-92913200D01*
X172532000Y-92710000D02*
X171399200Y-92710000D01*
X174507800Y-98085000D02*
X174498000Y-98094800D01*
X176149000Y-98085000D02*
X174507800Y-98085000D01*
X127568600Y-96815000D02*
X127584200Y-96799400D01*
X127568600Y-98348800D02*
X127568600Y-96815000D01*
X139115800Y-104900600D02*
X139115800Y-104952800D01*
X138406000Y-104190800D02*
X139115800Y-104900600D01*
X137753600Y-104190800D02*
X138406000Y-104190800D01*
X139115800Y-106273600D02*
X139115800Y-107873800D01*
X139115800Y-104952800D02*
X139115800Y-103835200D01*
X131724400Y-117155200D02*
X131724400Y-117119400D01*
X132948400Y-118379200D02*
X131724400Y-117155200D01*
X133248400Y-118379200D02*
X132948400Y-118379200D01*
X137950200Y-93170000D02*
X138353800Y-93573600D01*
X136652000Y-93170000D02*
X137950200Y-93170000D01*
X138861800Y-92557600D02*
X139674600Y-93370400D01*
X138861800Y-92303600D02*
X138861800Y-92557600D01*
X140004800Y-91871800D02*
X140004800Y-90271600D01*
X140411200Y-92278200D02*
X140004800Y-91871800D01*
X127390800Y-92100400D02*
X125984000Y-92100400D01*
X161290000Y-124485400D02*
X161264600Y-124510800D01*
X162560000Y-124485400D02*
X161290000Y-124485400D01*
X166611300Y-124736900D02*
X166911300Y-124736900D01*
X167899400Y-123748800D02*
X168046400Y-123748800D01*
X166911300Y-124736900D02*
X167899400Y-123748800D01*
X173472200Y-120700800D02*
X173685200Y-120700800D01*
X172575500Y-121597500D02*
X173472200Y-120700800D01*
X172275500Y-121597500D02*
X172575500Y-121597500D01*
D38*
X139869242Y-99635642D02*
X139039600Y-98806000D01*
X140777465Y-99635642D02*
X139869242Y-99635642D01*
D37*
X148109400Y-97637600D02*
X148234400Y-97637600D01*
D38*
X147702958Y-98365642D02*
X148209000Y-97859600D01*
X146177465Y-98365642D02*
X147702958Y-98365642D01*
X150015600Y-97859600D02*
X150241000Y-98085000D01*
X148209000Y-97859600D02*
X150015600Y-97859600D01*
X151673200Y-98085000D02*
X151714200Y-98044000D01*
X150241000Y-98085000D02*
X151673200Y-98085000D01*
D37*
X157016500Y-106940300D02*
X156692600Y-107264200D01*
X157016500Y-105414500D02*
X157016500Y-106940300D01*
X157589000Y-102057200D02*
X157556200Y-102057200D01*
X158556200Y-103024400D02*
X157589000Y-102057200D01*
X158556200Y-103149400D02*
X158556200Y-103024400D01*
X157016500Y-114866900D02*
X157016500Y-113914500D01*
X157272101Y-115122501D02*
X157016500Y-114866900D01*
X157272101Y-115382801D02*
X157272101Y-115122501D01*
X157891100Y-116001800D02*
X157272101Y-115382801D01*
X158543500Y-116001800D02*
X157891100Y-116001800D01*
X159893000Y-116001800D02*
X159905700Y-115989100D01*
X158543500Y-116001800D02*
X159893000Y-116001800D01*
X137040800Y-131681400D02*
X137058400Y-131663800D01*
X134772400Y-131681400D02*
X137040800Y-131681400D01*
X134772400Y-132435600D02*
X133972300Y-133235700D01*
X134772400Y-131681400D02*
X134772400Y-132435600D01*
X137776300Y-133134100D02*
X137820400Y-133134100D01*
X137058400Y-132416200D02*
X137776300Y-133134100D01*
X137058400Y-131663800D02*
X137058400Y-132416200D01*
X168422000Y-115570000D02*
X168313100Y-115570000D01*
X169435500Y-116583500D02*
X168422000Y-115570000D01*
X169735500Y-116583500D02*
X169435500Y-116583500D01*
X166900300Y-121653300D02*
X167906700Y-121653300D01*
X166306500Y-121059500D02*
X166900300Y-121653300D01*
X166306500Y-120307100D02*
X166306500Y-121059500D01*
X181803000Y-92837000D02*
X181803000Y-93639400D01*
G04 #@! TO.N,VCC*
X133268800Y-100806400D02*
X133706800Y-101244400D01*
X133268800Y-98298000D02*
X133268800Y-100806400D01*
D38*
X148084000Y-95859600D02*
X148209000Y-95859600D01*
X146847958Y-97095642D02*
X148084000Y-95859600D01*
X146177465Y-97095642D02*
X146847958Y-97095642D01*
D37*
X157816500Y-104462100D02*
X157816500Y-105414500D01*
X157208600Y-103149400D02*
X157816500Y-103757300D01*
X156556200Y-103149400D02*
X157208600Y-103149400D01*
D39*
X133706800Y-101244400D02*
X136321800Y-101244400D01*
X136321800Y-101244400D02*
X137668000Y-102590600D01*
X156159200Y-103149400D02*
X156556200Y-103149400D01*
X155498800Y-102489000D02*
X156159200Y-103149400D01*
D38*
X141452600Y-102590600D02*
X141452600Y-102539800D01*
X141452600Y-102539800D02*
X143916400Y-100076000D01*
X145702465Y-97095642D02*
X146177465Y-97095642D01*
X144754600Y-98043507D02*
X145702465Y-97095642D01*
X144754600Y-99237800D02*
X144754600Y-98043507D01*
X148209000Y-95859600D02*
X148209000Y-92329000D01*
X148209000Y-92329000D02*
X149910800Y-90627200D01*
X154925000Y-92395000D02*
X155829000Y-92395000D01*
X153157200Y-90627200D02*
X154925000Y-92395000D01*
X149910800Y-90627200D02*
X153157200Y-90627200D01*
D40*
X176576000Y-117132000D02*
X179576000Y-120132000D01*
D39*
X137668000Y-102590600D02*
X137922000Y-102590600D01*
X137922000Y-102590600D02*
X141452600Y-102590600D01*
X137922000Y-102590600D02*
X139573000Y-102590600D01*
X139573000Y-102590600D02*
X141097000Y-104114600D01*
X141097000Y-122047000D02*
X141312900Y-122262900D01*
X147763001Y-120943599D02*
X146443700Y-122262900D01*
X147788401Y-120943599D02*
X147763001Y-120943599D01*
X148488400Y-120243600D02*
X147788401Y-120943599D01*
X141312900Y-122262900D02*
X146443700Y-122262900D01*
X155092400Y-102489000D02*
X155460700Y-102489000D01*
X155092400Y-102489000D02*
X155498800Y-102489000D01*
X156603701Y-101345999D02*
X158737299Y-101345999D01*
X158737299Y-101345999D02*
X158953200Y-101561900D01*
X155460700Y-102489000D02*
X156603701Y-101345999D01*
X160731200Y-100497600D02*
X161848800Y-101615200D01*
X160731200Y-100469700D02*
X160731200Y-100497600D01*
D38*
X153157200Y-90627200D02*
X155244800Y-90627200D01*
X174650400Y-84836000D02*
X175006000Y-84836000D01*
X172466000Y-87909400D02*
X172466000Y-87020400D01*
X172466000Y-87020400D02*
X174650400Y-84836000D01*
D39*
X141097000Y-104114600D02*
X141097000Y-122047000D01*
X158480800Y-120970000D02*
X158480800Y-117919500D01*
X157187900Y-122262900D02*
X158480800Y-120970000D01*
X146443700Y-122262900D02*
X157187900Y-122262900D01*
X175343999Y-118364001D02*
X175866001Y-117841999D01*
X158480800Y-120970000D02*
X161645601Y-117805199D01*
X167690799Y-117854477D02*
X168200323Y-118364001D01*
X167690799Y-117805199D02*
X167690799Y-117854477D01*
X168200323Y-118364001D02*
X175343999Y-118364001D01*
X161645601Y-117805199D02*
X167690799Y-117805199D01*
D38*
X169799000Y-90996441D02*
X169799000Y-90576400D01*
X168349640Y-92445801D02*
X169799000Y-90996441D01*
X167451801Y-92445801D02*
X168349640Y-92445801D01*
X167401000Y-92395000D02*
X167451801Y-92445801D01*
X166497000Y-92395000D02*
X167401000Y-92395000D01*
X168349640Y-92576640D02*
X170261000Y-94488000D01*
X170261000Y-94488000D02*
X170561000Y-94488000D01*
X168349640Y-92445801D02*
X168349640Y-92576640D01*
X179959000Y-94204000D02*
X179959000Y-94808000D01*
X179704999Y-93949999D02*
X179959000Y-94204000D01*
X179704999Y-89429485D02*
X179704999Y-93949999D01*
X175761513Y-85485999D02*
X179704999Y-89429485D01*
X156260800Y-89611200D02*
X158496000Y-87376000D01*
X155244800Y-90627200D02*
X156260800Y-89611200D01*
X156260800Y-89611200D02*
X158686500Y-89611200D01*
X158686500Y-89611200D02*
X158813500Y-89738200D01*
X170180000Y-89636600D02*
X170459400Y-89916000D01*
X170459400Y-89916000D02*
X172466000Y-87909400D01*
X169799000Y-90576400D02*
X170459400Y-89916000D01*
D39*
X141452600Y-102590600D02*
X152654000Y-102590600D01*
X154739116Y-102461282D02*
X155064682Y-102461282D01*
X155064682Y-102461282D02*
X155092400Y-102489000D01*
X154434317Y-102156483D02*
X154739116Y-102461282D01*
X162341600Y-101615200D02*
X163918900Y-100037900D01*
X161848800Y-101615200D02*
X162341600Y-101615200D01*
X178448615Y-98510445D02*
X178520445Y-98510445D01*
X176870360Y-100088700D02*
X178448615Y-98510445D01*
X167347900Y-100088700D02*
X176870360Y-100088700D01*
X178602600Y-96164400D02*
X179959000Y-94808000D01*
X178511200Y-96164400D02*
X178602600Y-96164400D01*
D38*
X166797000Y-92395000D02*
X166497000Y-92395000D01*
X167426401Y-93024401D02*
X166797000Y-92395000D01*
X167426401Y-96530399D02*
X167426401Y-93024401D01*
X163918900Y-100037900D02*
X167426401Y-96530399D01*
D39*
X175866001Y-117841999D02*
X176576000Y-117132000D01*
D37*
X157816500Y-103757300D02*
X157816500Y-104462100D01*
D38*
X175761513Y-85485999D02*
X175761513Y-85479753D01*
X175761513Y-85479753D02*
X175610520Y-85328760D01*
X175498760Y-85328760D02*
X175006000Y-84836000D01*
X175610520Y-85328760D02*
X175498760Y-85328760D01*
X161924252Y-89636600D02*
X162335732Y-89225120D01*
X161493200Y-89636600D02*
X161924252Y-89636600D01*
X169768520Y-89225120D02*
X170180000Y-89636600D01*
X162335732Y-89225120D02*
X169768520Y-89225120D01*
D37*
G04 #@! TO.N,Net-(C6-Pad1)*
X156580800Y-116039100D02*
X156543500Y-116001800D01*
X156580800Y-117919500D02*
X156580800Y-116039100D01*
X156216500Y-115674800D02*
X156543500Y-116001800D01*
X156216500Y-113914500D02*
X156216500Y-115674800D01*
G04 #@! TO.N,Net-(D2-Pad2)*
X164579300Y-124232000D02*
X163867500Y-123520200D01*
X164579300Y-124734400D02*
X164579300Y-124232000D01*
X162560000Y-123037800D02*
X162560000Y-122285400D01*
X163042400Y-123520200D02*
X162560000Y-123037800D01*
X163867500Y-123520200D02*
X163042400Y-123520200D01*
G04 #@! TO.N,Net-(D6-Pad2)*
X170180000Y-105981500D02*
X170116500Y-106045000D01*
X171704000Y-105981500D02*
X170180000Y-105981500D01*
G04 #@! TO.N,/MISO*
X160386001Y-88025999D02*
X161036000Y-87376000D01*
X160093899Y-92861881D02*
X160093899Y-88318101D01*
X160108900Y-92876882D02*
X160093899Y-92861881D01*
X160108900Y-93681118D02*
X160108900Y-92876882D01*
X160093899Y-93696119D02*
X160108900Y-93681118D01*
X160093899Y-94761881D02*
X160093899Y-93696119D01*
X160108900Y-94776882D02*
X160093899Y-94761881D01*
X160108900Y-104354500D02*
X160108900Y-94776882D01*
X160216500Y-104462100D02*
X160108900Y-104354500D01*
X160216500Y-105414500D02*
X160216500Y-104462100D01*
X155072762Y-111510638D02*
X154779538Y-111510638D01*
X160216500Y-106366900D02*
X155072762Y-111510638D01*
X160216500Y-105414500D02*
X160216500Y-106366900D01*
X148586576Y-117703600D02*
X148488400Y-117703600D01*
X152760238Y-113529938D02*
X148586576Y-117703600D01*
X160093899Y-88318101D02*
X160386001Y-88025999D01*
G04 #@! TO.N,/MOSI*
X159789089Y-92988137D02*
X159766000Y-92965048D01*
X159789089Y-94888137D02*
X159789089Y-92988137D01*
X159804090Y-94903138D02*
X159789089Y-94888137D01*
X159804090Y-104074510D02*
X159804090Y-94903138D01*
X159766000Y-92965048D02*
X159766000Y-84836000D01*
X159416500Y-104462100D02*
X159804090Y-104074510D01*
X159416500Y-105414500D02*
X159416500Y-104462100D01*
X155064800Y-110718600D02*
X154622500Y-110718600D01*
X159416500Y-106366900D02*
X155064800Y-110718600D01*
X159416500Y-105414500D02*
X159416500Y-106366900D01*
X146648399Y-119543601D02*
X145948400Y-120243600D01*
X146877001Y-117503517D02*
X146877001Y-119314999D01*
X150817118Y-113563400D02*
X146877001Y-117503517D01*
X151942800Y-113563400D02*
X150817118Y-113563400D01*
X146877001Y-119314999D02*
X146648399Y-119543601D01*
G04 #@! TO.N,/SCK*
X159232600Y-89280252D02*
X159435800Y-89483452D01*
X159232600Y-88849200D02*
X159232600Y-89280252D01*
X159435800Y-92633800D02*
X151511000Y-100558600D01*
X159435800Y-89483452D02*
X159435800Y-92633800D01*
X154118900Y-109264500D02*
X153166500Y-109264500D01*
X154381200Y-109002200D02*
X154118900Y-109264500D01*
X151739599Y-103951117D02*
X154381200Y-106592718D01*
X154381200Y-106592718D02*
X154381200Y-109002200D01*
X151567352Y-109264500D02*
X153166500Y-109264500D01*
X150741001Y-112910999D02*
X150741001Y-110090851D01*
X150741001Y-110090851D02*
X151567352Y-109264500D01*
X145948400Y-117703600D02*
X150741001Y-112910999D01*
X151581222Y-103951117D02*
X150931905Y-103301800D01*
X151739599Y-103951117D02*
X151581222Y-103951117D01*
G04 #@! TO.N,/RESET*
X161848800Y-104017600D02*
X161848800Y-103515200D01*
X162695101Y-104863901D02*
X161848800Y-104017600D01*
X162352982Y-107664500D02*
X162695101Y-107322381D01*
X162695101Y-107322381D02*
X162695101Y-104863901D01*
X161666500Y-107664500D02*
X162352982Y-107664500D01*
X162681681Y-102193801D02*
X168071800Y-96803682D01*
X168071800Y-96803682D02*
X168071800Y-93281500D01*
X162667799Y-102193801D02*
X161848800Y-103012800D01*
X161848800Y-103012800D02*
X161848800Y-103515200D01*
X162681681Y-102193801D02*
X162667799Y-102193801D01*
X167375082Y-91861600D02*
X166178781Y-90665299D01*
X168069223Y-91861600D02*
X167375082Y-91861600D01*
X166178781Y-90665299D02*
X163690301Y-90665299D01*
X163690301Y-90665299D02*
X163677600Y-90678000D01*
X159415110Y-107664500D02*
X153817320Y-113262290D01*
X161666500Y-107664500D02*
X159415110Y-107664500D01*
X153817320Y-113262290D02*
X153808550Y-113262290D01*
X153808550Y-113262290D02*
X149417001Y-117653839D01*
X149417001Y-118586481D02*
X148902882Y-119100600D01*
X149417001Y-117653839D02*
X149417001Y-118586481D01*
X148902882Y-119100600D02*
X147410401Y-119100600D01*
D39*
G04 #@! TO.N,/12V_Fused*
X134909600Y-91328000D02*
X131038400Y-95199200D01*
X134909600Y-90170000D02*
X134909600Y-91328000D01*
X131038400Y-95199200D02*
X127254000Y-95199200D01*
X127254000Y-95199200D02*
X125374400Y-97078800D01*
X125374400Y-97078800D02*
X125374400Y-111506000D01*
X126408000Y-112539600D02*
X129555200Y-112539600D01*
X125374400Y-111506000D02*
X126408000Y-112539600D01*
X127675600Y-113807200D02*
X127675600Y-118719600D01*
X126408000Y-112539600D02*
X127675600Y-113807200D01*
D37*
G04 #@! TO.N,Net-(C11-Pad1)*
X152214100Y-108464500D02*
X153166500Y-108464500D01*
X150764800Y-108762800D02*
X151063100Y-108464500D01*
X150012400Y-108762800D02*
X150764800Y-108762800D01*
X150012400Y-110642400D02*
X150012400Y-108762800D01*
X151063100Y-108464500D02*
X152214100Y-108464500D01*
G04 #@! TO.N,Net-(D1-Pad2)*
X168506500Y-120640400D02*
X168506500Y-119888000D01*
X169466100Y-121600000D02*
X168506500Y-120640400D01*
X170307000Y-121600000D02*
X169466100Y-121600000D01*
D38*
G04 #@! TO.N,Net-(D3-Pad2)*
X170243500Y-112966500D02*
X170180000Y-113030000D01*
X171770000Y-112966500D02*
X170243500Y-112966500D01*
D37*
G04 #@! TO.N,Net-(D4-Pad2)*
X185547000Y-95218600D02*
X185547000Y-94422000D01*
X185547000Y-95971000D02*
X185547000Y-95218600D01*
G04 #@! TO.N,Net-(D5-Pad2)*
X176149000Y-94797400D02*
X176149000Y-95885000D01*
X176149000Y-94295000D02*
X176149000Y-94797400D01*
G04 #@! TO.N,/P_LED_1*
X154616500Y-117849300D02*
X151269700Y-121196100D01*
X154616500Y-113914500D02*
X154616500Y-117849300D01*
X137109200Y-125405400D02*
X137109200Y-125907800D01*
X138867400Y-123647200D02*
X137109200Y-125405400D01*
X148831300Y-123647200D02*
X138867400Y-123647200D01*
G04 #@! TO.N,/P_LED_2*
X155416500Y-117887500D02*
X152057100Y-121246900D01*
X155416500Y-113914500D02*
X155416500Y-117887500D01*
X134772400Y-125405400D02*
X134772400Y-125907800D01*
X137203700Y-122974100D02*
X134772400Y-125405400D01*
X150368000Y-122974100D02*
X137203700Y-122974100D01*
D40*
G04 #@! TO.N,/Air+12V*
X176576000Y-123152000D02*
X179576000Y-126152000D01*
X179576000Y-106934000D02*
X179576000Y-114132000D01*
X181102000Y-120586500D02*
X181102000Y-115658000D01*
X176576000Y-123152000D02*
X178125500Y-121602500D01*
X181165500Y-120650000D02*
X181102000Y-120586500D01*
X181102000Y-115658000D02*
X179576000Y-114132000D01*
X178125500Y-121602500D02*
X180213000Y-121602500D01*
X180213000Y-121602500D02*
X181165500Y-120650000D01*
D37*
X180025000Y-106485000D02*
X179576000Y-106934000D01*
X180025000Y-102362000D02*
X180025000Y-106485000D01*
D40*
X169291000Y-129311400D02*
X170688000Y-127914400D01*
X170688000Y-129362200D02*
X170688000Y-127914400D01*
X166725600Y-129311400D02*
X170637200Y-129311400D01*
X170637200Y-129311400D02*
X170688000Y-129362200D01*
X170688000Y-127914400D02*
X175450400Y-123152000D01*
X175450400Y-123152000D02*
X175571909Y-123152000D01*
X166725600Y-129311400D02*
X169291000Y-129311400D01*
X159689800Y-129311400D02*
X166725600Y-129311400D01*
X175571909Y-123152000D02*
X176576000Y-123152000D01*
D37*
G04 #@! TO.N,Net-(C7-Pad1)*
X131867800Y-114739600D02*
X131455200Y-114739600D01*
X133148800Y-116020600D02*
X131867800Y-114739600D01*
X133273800Y-116020600D02*
X133148800Y-116020600D01*
G04 #@! TO.N,Net-(C7-Pad2)*
X130505200Y-113222000D02*
X131024400Y-113741200D01*
X130505200Y-112539600D02*
X130505200Y-113222000D01*
X132496400Y-114020600D02*
X133273800Y-114020600D01*
X132217000Y-113741200D02*
X132496400Y-114020600D01*
X131024400Y-113741200D02*
X132217000Y-113741200D01*
X130606800Y-112438000D02*
X130505200Y-112539600D01*
X130606800Y-109792000D02*
X130606800Y-112438000D01*
G04 #@! TO.N,Net-(C10-Pad1)*
X135728200Y-109515400D02*
X135763000Y-109550200D01*
X135728200Y-107950000D02*
X135728200Y-109515400D01*
X131973800Y-121488200D02*
X131267200Y-120781600D01*
X134162800Y-121488200D02*
X131973800Y-121488200D01*
X138277600Y-112064800D02*
X138277600Y-112495852D01*
X134747000Y-120904000D02*
X134162800Y-121488200D01*
X131267200Y-120781600D02*
X131267200Y-120279200D01*
X138277600Y-112495852D02*
X134747000Y-116026452D01*
X134747000Y-116026452D02*
X134747000Y-120904000D01*
G04 #@! TO.N,Net-(C12-Pad1)*
X148661700Y-107664500D02*
X152214100Y-107664500D01*
X148412400Y-107415200D02*
X148661700Y-107664500D01*
X148412400Y-106562800D02*
X148412400Y-107415200D01*
X148314000Y-106661200D02*
X148412400Y-106562800D01*
X146608800Y-106661200D02*
X148314000Y-106661200D01*
X152214100Y-107664500D02*
X153166500Y-107664500D01*
G04 #@! TO.N,/Air+GND*
X173579500Y-111135500D02*
X176576000Y-114132000D01*
X173579500Y-108775500D02*
X173579500Y-111135500D01*
G04 #@! TO.N,Net-(D7-Pad2)*
X182427400Y-102362000D02*
X183601000Y-102362000D01*
X181925000Y-102362000D02*
X182427400Y-102362000D01*
G04 #@! TO.N,Net-(D8-Pad2)*
X150177500Y-95821500D02*
X150241000Y-95885000D01*
X150177500Y-94292500D02*
X150177500Y-95821500D01*
G04 #@! TO.N,Net-(D9-Pad2)*
X160972500Y-94731400D02*
X160972500Y-95844000D01*
X160972500Y-94229000D02*
X160972500Y-94731400D01*
G04 #@! TO.N,Net-(D11-Pad2)*
X130343200Y-92100400D02*
X129590800Y-92100400D01*
X133009600Y-90972400D02*
X131881600Y-92100400D01*
X133009600Y-90170000D02*
X133009600Y-90972400D01*
X131881600Y-92100400D02*
X130343200Y-92100400D01*
G04 #@! TO.N,Net-(D12-Pad2)*
X134772400Y-128310200D02*
X134772400Y-129481400D01*
X134772400Y-127807800D02*
X134772400Y-128310200D01*
G04 #@! TO.N,Net-(D13-Pad2)*
X137109200Y-129413000D02*
X137058400Y-129463800D01*
X137109200Y-127807800D02*
X137109200Y-129413000D01*
G04 #@! TO.N,Net-(D14-Pad2)*
X131318000Y-98348800D02*
X131368800Y-98298000D01*
X129768600Y-98348800D02*
X131318000Y-98348800D01*
G04 #@! TO.N,/RJ45_LED1*
X154616500Y-104416442D02*
X154074879Y-103874821D01*
X154616500Y-105414500D02*
X154616500Y-104416442D01*
X155229001Y-99748899D02*
X155117800Y-99860100D01*
X157373599Y-99748899D02*
X155229001Y-99748899D01*
X157967400Y-100342700D02*
X157373599Y-99748899D01*
X158267400Y-100342700D02*
X157967400Y-100342700D01*
G04 #@! TO.N,/AIR+LSD*
X173604000Y-106281500D02*
X173604000Y-105981500D01*
X172060000Y-107825500D02*
X173604000Y-106281500D01*
X171479500Y-107825500D02*
X172060000Y-107825500D01*
X171291500Y-107637500D02*
X171479500Y-107825500D01*
X169799000Y-107637500D02*
X171291500Y-107637500D01*
X162915600Y-111367800D02*
X162915600Y-110998866D01*
X162618900Y-111664500D02*
X162915600Y-111367800D01*
X161666500Y-111664500D02*
X162618900Y-111664500D01*
X166276966Y-107637500D02*
X169799000Y-107637500D01*
X162915600Y-110998866D02*
X166276966Y-107637500D01*
G04 #@! TO.N,/PrechargeCTL*
X172062500Y-114874000D02*
X171479500Y-114874000D01*
X173670000Y-113266500D02*
X172062500Y-114874000D01*
X173670000Y-112966500D02*
X173670000Y-113266500D01*
X169926000Y-114874000D02*
X169735500Y-114683500D01*
X171479500Y-114874000D02*
X169926000Y-114874000D01*
X160216500Y-113975800D02*
X160216500Y-113914500D01*
X160924200Y-114683500D02*
X160216500Y-113975800D01*
X169735500Y-114683500D02*
X160924200Y-114683500D01*
G04 #@! TO.N,/Cooling_Pressure_Sense*
X162618900Y-110064500D02*
X163525210Y-109158190D01*
X161666500Y-110064500D02*
X162618900Y-110064500D01*
X163525210Y-109158190D02*
X163525210Y-102212404D01*
X163525210Y-102212404D02*
X166576014Y-99161600D01*
X176683882Y-99161600D02*
X177622200Y-98223282D01*
X166576014Y-99161600D02*
X176683882Y-99161600D01*
X177622200Y-88722200D02*
X176276000Y-87376000D01*
X177622200Y-98223282D02*
X177622200Y-88722200D01*
G04 #@! TO.N,/RJ45_LED2*
X153166500Y-106265442D02*
X151313551Y-104412493D01*
X153166500Y-106864500D02*
X153166500Y-106265442D01*
X156105900Y-100558600D02*
X156337000Y-100327500D01*
X152742900Y-100558600D02*
X156105900Y-100558600D01*
G04 #@! TO.N,/AIR+_Weld_Detect*
X164581800Y-122836900D02*
X164579300Y-122834400D01*
X166611300Y-122836900D02*
X164581800Y-122836900D01*
X164579300Y-122332000D02*
X164579300Y-122834400D01*
X173708848Y-122836900D02*
X167413700Y-122836900D01*
X174727348Y-121818400D02*
X173708848Y-122836900D01*
X175158400Y-121818400D02*
X174727348Y-121818400D01*
X158616500Y-113914500D02*
X158616500Y-114866900D01*
X160485301Y-114943101D02*
X162560000Y-117017800D01*
X158616500Y-114866900D02*
X158692701Y-114943101D01*
X158692701Y-114943101D02*
X160485301Y-114943101D01*
X164579300Y-120243600D02*
X164579300Y-122834400D01*
X163118800Y-118783100D02*
X164579300Y-120243600D01*
X167413700Y-122836900D02*
X166611300Y-122836900D01*
G04 #@! TO.N,/AIR-_Weld_Detect*
X176141500Y-119697500D02*
X176576000Y-120132000D01*
X163274700Y-112464500D02*
X164960300Y-114150100D01*
X161666500Y-112464500D02*
X163274700Y-112464500D01*
X168325800Y-117513100D02*
X168402000Y-117513100D01*
X166103300Y-115290600D02*
X168325800Y-117513100D01*
X170103800Y-119801600D02*
X170345100Y-120042900D01*
X170103800Y-119202200D02*
X170103800Y-119801600D01*
X172351700Y-120042900D02*
X172364400Y-120030200D01*
X170345100Y-120042900D02*
X172351700Y-120042900D01*
X176451700Y-120256300D02*
X176576000Y-120132000D01*
X175615600Y-120218200D02*
X175653700Y-120256300D01*
X175336199Y-120167399D02*
X175387000Y-120218200D01*
X175653700Y-120256300D02*
X176451700Y-120256300D01*
X175387000Y-120218200D02*
X175615600Y-120218200D01*
X173303999Y-120167399D02*
X175336199Y-120167399D01*
X173166800Y-120030200D02*
X173303999Y-120167399D01*
X172364400Y-120030200D02*
X173166800Y-120030200D01*
G04 #@! TO.N,/SenseMainTSConn*
X173316000Y-96388000D02*
X173355000Y-96427000D01*
X170561000Y-96388000D02*
X173316000Y-96388000D01*
X168918548Y-96388000D02*
X170561000Y-96388000D01*
X161666500Y-109264500D02*
X162618900Y-109264500D01*
X163220400Y-108663000D02*
X163220400Y-102086148D01*
X162618900Y-109264500D02*
X163220400Y-108663000D01*
X163220400Y-102086148D02*
X168918548Y-96388000D01*
G04 #@! TO.N,/SenseConnToHVD*
X179986000Y-96681000D02*
X179959000Y-96708000D01*
X182753000Y-96681000D02*
X179986000Y-96681000D01*
X178930300Y-97346248D02*
X178930300Y-97345500D01*
X176810139Y-99466409D02*
X178930300Y-97346248D01*
X179567800Y-96708000D02*
X179959000Y-96708000D01*
X161666500Y-110864500D02*
X162618900Y-110864500D01*
X178930300Y-97345500D02*
X179567800Y-96708000D01*
X166702270Y-99466410D02*
X176810139Y-99466409D01*
X162618900Y-110864500D02*
X163830020Y-109653380D01*
X163830020Y-109653380D02*
X163830020Y-102338660D01*
X163830020Y-102338660D02*
X166702270Y-99466410D01*
G04 #@! TO.N,Net-(J2-Pad10)*
X158267400Y-94987608D02*
X158364804Y-94890204D01*
X158267400Y-98442700D02*
X158267400Y-94987608D01*
X157835600Y-90614500D02*
X157416500Y-90195400D01*
X157835600Y-92595700D02*
X157835600Y-90614500D01*
X157579299Y-85714601D02*
X157647729Y-85714601D01*
X157391099Y-85902801D02*
X157579299Y-85714601D01*
X157391099Y-86550501D02*
X157391099Y-85902801D01*
X157086300Y-86855300D02*
X157391099Y-86550501D01*
X157647729Y-85714601D02*
X158582589Y-84779741D01*
X158582589Y-84779741D02*
X158582590Y-84288014D01*
X159444304Y-83426300D02*
X163537900Y-83426300D01*
X158582590Y-84288014D02*
X159444304Y-83426300D01*
G04 #@! TO.N,Net-(J2-Pad11)*
X159151800Y-94147389D02*
X159255689Y-94043500D01*
X161968126Y-91218825D02*
X162347341Y-91218825D01*
X162347341Y-91218825D02*
X163421566Y-90144600D01*
X161663327Y-91523624D02*
X161968126Y-91218825D01*
X158457166Y-94043500D02*
X159255689Y-94043500D01*
X156337000Y-96163666D02*
X158457166Y-94043500D01*
X156337000Y-98427500D02*
X156337000Y-96163666D01*
X165780720Y-90144600D02*
X166116000Y-89809320D01*
X163421566Y-90144600D02*
X165780720Y-90144600D01*
G04 #@! TO.N,/IMD_Sense*
X166497000Y-93792600D02*
X166497000Y-94295000D01*
X165126400Y-92422000D02*
X166497000Y-93792600D01*
X163766500Y-92422000D02*
X165126400Y-92422000D01*
X164515800Y-91622700D02*
X164515800Y-91198700D01*
X163766500Y-92372000D02*
X164515800Y-91622700D01*
X163766500Y-92422000D02*
X163766500Y-92372000D01*
X166736001Y-85485999D02*
X167386000Y-84836000D01*
X164757100Y-87464900D02*
X167386000Y-84836000D01*
X164757100Y-87985600D02*
X164757100Y-87464900D01*
G04 #@! TO.N,/BMS_Sense*
X153035000Y-92422000D02*
X153035000Y-92472000D01*
X153882600Y-93319600D02*
X155356000Y-93319600D01*
X153035000Y-92472000D02*
X153882600Y-93319600D01*
X155356000Y-93319600D02*
X155829000Y-93792600D01*
X155829000Y-94295000D02*
X155829000Y-93792600D01*
X156631400Y-94295000D02*
X156633900Y-94297500D01*
X155829000Y-94295000D02*
X156631400Y-94295000D01*
X157017758Y-94297500D02*
X158861779Y-92453479D01*
X156633900Y-94297500D02*
X157017758Y-94297500D01*
X160932109Y-90964029D02*
X160932109Y-89245201D01*
X168006001Y-88025999D02*
X168656000Y-87376000D01*
X161353500Y-88823810D02*
X167208190Y-88823810D01*
X160932109Y-89245201D02*
X161353500Y-88823810D01*
X167208190Y-88823810D02*
X168006001Y-88025999D01*
G04 #@! TO.N,/ShutdownSense_BMS*
X152085000Y-93497600D02*
X152085000Y-93919600D01*
X151894500Y-94712500D02*
X152085000Y-94522000D01*
X151894500Y-96202500D02*
X151894500Y-94712500D01*
X152085000Y-93919600D02*
X152085000Y-94522000D01*
X152085000Y-92733482D02*
X152085000Y-93919600D01*
X151744018Y-92392500D02*
X152085000Y-92733482D01*
X150177500Y-92392500D02*
X151744018Y-92392500D01*
X151582400Y-91287600D02*
X151726900Y-91287600D01*
X150477500Y-92392500D02*
X151582400Y-91287600D01*
X150177500Y-92392500D02*
X150477500Y-92392500D01*
X152996900Y-90030300D02*
X155067000Y-90030300D01*
X169047399Y-83957399D02*
X169276001Y-84186001D01*
X165270030Y-83959700D02*
X166961970Y-83959700D01*
X166961970Y-83959700D02*
X166964271Y-83957399D01*
X164424271Y-83957399D02*
X165267729Y-83957399D01*
X164421970Y-83959700D02*
X164424271Y-83957399D01*
X162730030Y-83959700D02*
X164421970Y-83959700D01*
X161884271Y-83957399D02*
X162727729Y-83957399D01*
X162727729Y-83957399D02*
X162730030Y-83959700D01*
X161881970Y-83959700D02*
X161884271Y-83957399D01*
X160187729Y-83957399D02*
X160190030Y-83959700D01*
X160190030Y-83959700D02*
X161881970Y-83959700D01*
X158887399Y-84419201D02*
X158887399Y-84414271D01*
X166964271Y-83957399D02*
X169047399Y-83957399D01*
X158887399Y-84414271D02*
X159344271Y-83957399D01*
X165267729Y-83957399D02*
X165270030Y-83959700D01*
X159344271Y-83957399D02*
X160187729Y-83957399D01*
X155067000Y-90030300D02*
X157617399Y-87479901D01*
X157617399Y-87479901D02*
X157617399Y-86959201D01*
X158887399Y-85689201D02*
X158887399Y-84414271D01*
X157617399Y-86959201D02*
X158887399Y-85689201D01*
X169276001Y-84186001D02*
X169926000Y-84836000D01*
G04 #@! TO.N,/ShutdownSense_IMD*
X162663100Y-94522000D02*
X162816500Y-94522000D01*
X160972500Y-92831400D02*
X162663100Y-94522000D01*
X160972500Y-92329000D02*
X160972500Y-92831400D01*
X162816500Y-96139000D02*
X162689500Y-96266000D01*
X162816500Y-94522000D02*
X162816500Y-96139000D01*
X160972500Y-91826600D02*
X160398709Y-91252809D01*
X160972500Y-92329000D02*
X160972500Y-91826600D01*
X160398709Y-91252809D02*
X160398709Y-89130891D01*
X160398709Y-89130891D02*
X161010600Y-88519000D01*
X166273330Y-88519000D02*
X167513000Y-87279330D01*
X161010600Y-88519000D02*
X166273330Y-88519000D01*
X167513000Y-87279330D02*
X167513000Y-87083900D01*
X170546001Y-86726001D02*
X171196000Y-87376000D01*
X168099501Y-86497399D02*
X170317399Y-86497399D01*
X167513000Y-87083900D02*
X168099501Y-86497399D01*
X170317399Y-86497399D02*
X170546001Y-86726001D01*
G04 #@! TO.N,/ShutdownSense_HVD_Conn*
X184018000Y-92522000D02*
X183703000Y-92837000D01*
X185547000Y-92522000D02*
X184018000Y-92522000D01*
X183703000Y-93639400D02*
X183703000Y-94581000D01*
X183703000Y-92837000D02*
X183703000Y-93639400D01*
X183703000Y-92537000D02*
X176225200Y-85059200D01*
X183703000Y-92837000D02*
X183703000Y-92537000D01*
X176225200Y-85059200D02*
X176225200Y-84404200D01*
X176225200Y-84404200D02*
X175534320Y-83713320D01*
X173588680Y-83713320D02*
X172466000Y-84836000D01*
X175534320Y-83713320D02*
X173588680Y-83713320D01*
G04 #@! TO.N,/ShutdownSense_MainPack*
X175834000Y-92710000D02*
X176149000Y-92395000D01*
X174432000Y-92710000D02*
X175834000Y-92710000D01*
X174305000Y-92837000D02*
X174432000Y-92710000D01*
X174305000Y-94327000D02*
X174305000Y-92837000D01*
X174432000Y-88072000D02*
X173736000Y-87376000D01*
X176951400Y-92395000D02*
X177292000Y-92054400D01*
X176149000Y-92395000D02*
X176951400Y-92395000D01*
X174385999Y-88025999D02*
X173736000Y-87376000D01*
X176164001Y-88254601D02*
X174614601Y-88254601D01*
X177292000Y-89382600D02*
X176164001Y-88254601D01*
X177292000Y-92054400D02*
X177292000Y-89382600D01*
X174614601Y-88254601D02*
X174385999Y-88025999D01*
G04 #@! TO.N,/Precharge-*
X178268000Y-115824000D02*
X179576000Y-117132000D01*
X173579500Y-115824000D02*
X178268000Y-115824000D01*
G04 #@! TO.N,Net-(R25-Pad1)*
X130505200Y-114739600D02*
X130505200Y-116027200D01*
X129438400Y-118582400D02*
X129575600Y-118719600D01*
X129438400Y-117322600D02*
X129438400Y-118582400D01*
G04 #@! TO.N,Net-(R26-Pad1)*
X131267200Y-118598000D02*
X131267200Y-118379200D01*
X132948400Y-120279200D02*
X131267200Y-118598000D01*
X133248400Y-120279200D02*
X132948400Y-120279200D01*
X131267200Y-117876800D02*
X131267200Y-118379200D01*
X129971799Y-116581399D02*
X131267200Y-117876800D01*
X129971799Y-115838599D02*
X129971799Y-116581399D01*
X129555200Y-115422000D02*
X129971799Y-115838599D01*
X129555200Y-114739600D02*
X129555200Y-115422000D01*
G04 #@! TO.N,/CAN_P*
X144248727Y-95816872D02*
X145933199Y-94132400D01*
X141252465Y-98365642D02*
X141735065Y-97883042D01*
X140777465Y-98365642D02*
X141252465Y-98365642D01*
X141735065Y-97883042D02*
X142182557Y-97883042D01*
X155523517Y-87808482D02*
X155956000Y-87376000D01*
X155481630Y-87861003D02*
X155523517Y-87808482D01*
X155437534Y-87987023D02*
X155452483Y-87921529D01*
X155437534Y-88054202D02*
X155437534Y-87987023D01*
X155523516Y-88232745D02*
X155481630Y-88180222D01*
X155711555Y-88420784D02*
X155523516Y-88232745D01*
X155753440Y-88473307D02*
X155711555Y-88420784D01*
X155782587Y-88533833D02*
X155753440Y-88473307D01*
X155782587Y-88732000D02*
X155797536Y-88666506D01*
X155753440Y-88792526D02*
X155782587Y-88732000D01*
X155659033Y-88886935D02*
X155711555Y-88845049D01*
X155598507Y-88916082D02*
X155659033Y-88886935D01*
X155533013Y-88931031D02*
X155598507Y-88916082D01*
X155400340Y-88916082D02*
X155465834Y-88931031D01*
X155339814Y-88886935D02*
X155400340Y-88916082D01*
X155287291Y-88845049D02*
X155339814Y-88886935D01*
X148821976Y-89534578D02*
X148780091Y-89482056D01*
X149122611Y-90165070D02*
X149151758Y-90104544D01*
X147454702Y-91801600D02*
X147469651Y-91736106D01*
X149717760Y-88890254D02*
X149725282Y-88957011D01*
X150558525Y-88664532D02*
X150625282Y-88657011D01*
X149080726Y-90217593D02*
X149122611Y-90165070D01*
X149695572Y-88826845D02*
X149717760Y-88890254D01*
X148902183Y-90303575D02*
X148967678Y-90288626D01*
X147436136Y-90736339D02*
X147496662Y-90765486D01*
X151225282Y-89622938D02*
X151292038Y-89615416D01*
X148835005Y-90303575D02*
X148902183Y-90303575D01*
X148053655Y-91152103D02*
X148119150Y-91137154D01*
X148769510Y-90288626D02*
X148835005Y-90303575D01*
X152895116Y-88686720D02*
X152958525Y-88664532D01*
X148656462Y-90217593D02*
X148708984Y-90259478D01*
X147053887Y-90920418D02*
X147083035Y-90859892D01*
X147807934Y-91066121D02*
X147860456Y-91108006D01*
X150625282Y-88657011D02*
X150692038Y-88664532D01*
X152190732Y-89509984D02*
X152238235Y-89557487D01*
X147496662Y-90765486D02*
X147549185Y-90807372D01*
X155481630Y-88180222D02*
X155452483Y-88119696D01*
X148025971Y-89916958D02*
X148086497Y-89887811D01*
X146389441Y-91584867D02*
X146454935Y-91569918D01*
X155711555Y-88845049D02*
X155753440Y-88792526D01*
X147931563Y-90011364D02*
X147973449Y-89958843D01*
X147887466Y-90204563D02*
X147887466Y-90137385D01*
X147469651Y-91736106D02*
X147469651Y-91668927D01*
X149166707Y-89971871D02*
X149151758Y-89906377D01*
X147383670Y-91490384D02*
X147124920Y-91231634D01*
X151158525Y-89615416D02*
X151225282Y-89622938D01*
X147902415Y-90270058D02*
X147887466Y-90204563D01*
X148284664Y-89887811D02*
X148345190Y-89916958D01*
X152154991Y-89453103D02*
X152190732Y-89509984D01*
X147931563Y-90330584D02*
X147902415Y-90270058D01*
X148179676Y-91108006D02*
X148232198Y-91066121D01*
X147011928Y-91956534D02*
X147072454Y-91985682D01*
X148274083Y-91013598D02*
X148303230Y-90953072D01*
X148232198Y-91066121D02*
X148274083Y-91013598D01*
X146522114Y-91569918D02*
X146587608Y-91584867D01*
X148119150Y-91137154D02*
X148179676Y-91108006D01*
X149958525Y-89515416D02*
X150025282Y-89522938D01*
X148780091Y-89482056D02*
X148750943Y-89421530D01*
X147986477Y-91152103D02*
X148053655Y-91152103D01*
X148086497Y-89887811D02*
X148151991Y-89872862D01*
X152717760Y-89389694D02*
X152725282Y-89322938D01*
X155046730Y-88615125D02*
X155099253Y-88657011D01*
X147425555Y-91862126D02*
X147454702Y-91801600D01*
X150495116Y-88686720D02*
X150558525Y-88664532D01*
X155797536Y-88599327D02*
X155782587Y-88533833D01*
X147137949Y-92000631D02*
X147205127Y-92000631D01*
X151525282Y-89322938D02*
X151525282Y-88957011D01*
X148232198Y-90641856D02*
X147973448Y-90383106D01*
X150692038Y-88664532D02*
X150755447Y-88686720D01*
X151495572Y-89453103D02*
X151517760Y-89389694D01*
X146959406Y-91914649D02*
X147011928Y-91956534D01*
X147383670Y-91914649D02*
X147425555Y-91862126D01*
X148345190Y-89916958D02*
X148397713Y-89958844D01*
X151554991Y-88826845D02*
X151590732Y-88769964D01*
X146328915Y-91614014D02*
X146389441Y-91584867D01*
X147205127Y-92000631D02*
X147270622Y-91985682D01*
X147887466Y-90137385D02*
X147902415Y-90071890D01*
X147053887Y-91118586D02*
X147038938Y-91053091D01*
X152958525Y-88664532D02*
X153025282Y-88657011D01*
X149151758Y-89906377D02*
X149122611Y-89845851D01*
X146648134Y-91614014D02*
X146700657Y-91655900D01*
X152132803Y-89389694D02*
X152154991Y-89453103D01*
X145859500Y-92072793D02*
X146276393Y-91655900D01*
X148708984Y-90259478D02*
X148769510Y-90288626D01*
X155452483Y-88119696D02*
X155437534Y-88054202D01*
X147270622Y-91985682D02*
X147331148Y-91956534D01*
X145933199Y-93330000D02*
X145859500Y-93256301D01*
X149732803Y-89289694D02*
X149754991Y-89353103D01*
X147083035Y-90859892D02*
X147124921Y-90807371D01*
X148318179Y-90887578D02*
X148318179Y-90820399D01*
X154853531Y-88571029D02*
X154920710Y-88571029D01*
X147973449Y-89958844D02*
X148025971Y-89916958D01*
X148303230Y-90953072D02*
X148318179Y-90887578D01*
X148318179Y-90820399D02*
X148303230Y-90754905D01*
X147177443Y-90765486D02*
X147237969Y-90736339D01*
X146276393Y-91655900D02*
X146328915Y-91614014D01*
X150895572Y-88826845D02*
X150917760Y-88890254D01*
X147331148Y-91956534D02*
X147383670Y-91914649D01*
X155797536Y-88666506D02*
X155797536Y-88599327D01*
X146454935Y-91569918D02*
X146522114Y-91569918D01*
X147124921Y-90807371D02*
X147124921Y-90807372D01*
X150859831Y-88769964D02*
X150895572Y-88826845D01*
X148735994Y-89288857D02*
X148750943Y-89223362D01*
X147973448Y-90383106D02*
X147931563Y-90330584D01*
X150755447Y-88686720D02*
X150812328Y-88722461D01*
X146587608Y-91584867D02*
X146648134Y-91614014D01*
X154920710Y-88571029D02*
X154986204Y-88585978D01*
X147973449Y-89958843D02*
X147973449Y-89958844D01*
X155452483Y-87921529D02*
X155481630Y-87861003D01*
X148274083Y-90694379D02*
X148232198Y-90641856D01*
X147860456Y-91108006D02*
X147920982Y-91137154D01*
X151955447Y-88686720D02*
X152012328Y-88722461D01*
X152732803Y-88890254D02*
X152754991Y-88826845D01*
X147469651Y-91668927D02*
X147454702Y-91603433D01*
X155465834Y-88931031D02*
X155533013Y-88931031D01*
X147454702Y-91603433D02*
X147425555Y-91542907D01*
X148735994Y-89356035D02*
X148735994Y-89288857D01*
X147124920Y-91231634D02*
X147083035Y-91179112D01*
X150325282Y-88957011D02*
X150332803Y-88890254D01*
X147083035Y-91179112D02*
X147053887Y-91118586D01*
X147072454Y-91985682D02*
X147137949Y-92000631D01*
X149790732Y-89409984D02*
X149838235Y-89457487D01*
X152659831Y-89509984D02*
X152695572Y-89453103D01*
X147038938Y-91053091D02*
X147038938Y-90985913D01*
X150212328Y-89457487D02*
X150259831Y-89409984D01*
X147038938Y-90985913D02*
X147053887Y-90920418D01*
X149725282Y-89222938D02*
X149732803Y-89289694D01*
X150917760Y-88890254D02*
X150925282Y-88957011D01*
X151695116Y-88686720D02*
X151758525Y-88664532D01*
X148219170Y-89872862D02*
X148284664Y-89887811D01*
X152012328Y-88722461D02*
X152059831Y-88769964D01*
X149080726Y-89793328D02*
X148821976Y-89534578D01*
X150812328Y-88722461D02*
X150859831Y-88769964D01*
X145933199Y-94132400D02*
X145933199Y-93330000D01*
X149166707Y-90039050D02*
X149166707Y-89971871D01*
X152295116Y-89593228D02*
X152358525Y-89615416D01*
X148303230Y-90754905D02*
X148274083Y-90694379D01*
X146700657Y-91655900D02*
X146959406Y-91914649D01*
X149122611Y-89845851D02*
X149080726Y-89793328D01*
X150259831Y-89409984D02*
X150295572Y-89353103D01*
X147237969Y-90736339D02*
X147303463Y-90721390D01*
X148151991Y-89872862D02*
X148219170Y-89872862D01*
X147303463Y-90721390D02*
X147370642Y-90721390D01*
X149028204Y-90259478D02*
X149080726Y-90217593D01*
X148928042Y-89004251D02*
X149275282Y-88657011D01*
X147920982Y-91137154D02*
X147986477Y-91152103D01*
X148821977Y-89110315D02*
X148928042Y-89004251D01*
X149659831Y-88769964D02*
X149695572Y-88826845D01*
X149425282Y-88657011D02*
X149492038Y-88664532D01*
X151412328Y-89557487D02*
X151459831Y-89509984D01*
X147370642Y-90721390D02*
X147436136Y-90736339D01*
X149492038Y-88664532D02*
X149555447Y-88686720D01*
X150354991Y-88826845D02*
X150390732Y-88769964D01*
X149612328Y-88722461D02*
X149659831Y-88769964D01*
X150390732Y-88769964D02*
X150438235Y-88722461D01*
X147549185Y-90807372D02*
X147807934Y-91066121D01*
X147124921Y-90807372D02*
X147177443Y-90765486D01*
X149754991Y-89353103D02*
X149790732Y-89409984D01*
X148750943Y-89223362D02*
X148780091Y-89162836D01*
X148967678Y-90288626D02*
X149028204Y-90259478D01*
X149838235Y-89457487D02*
X149895116Y-89493228D01*
X149895116Y-89493228D02*
X149958525Y-89515416D01*
X150025282Y-89522938D02*
X150092038Y-89515416D01*
X150092038Y-89515416D02*
X150155447Y-89493228D01*
X150155447Y-89493228D02*
X150212328Y-89457487D01*
X150295572Y-89353103D02*
X150317760Y-89289694D01*
X150317760Y-89289694D02*
X150325282Y-89222938D01*
X148397713Y-89958844D02*
X148656462Y-90217593D01*
X150325282Y-89222938D02*
X150325282Y-88957011D01*
X150332803Y-88890254D02*
X150354991Y-88826845D01*
X148780091Y-89162836D02*
X148821977Y-89110315D01*
X150438235Y-88722461D02*
X150495116Y-88686720D01*
X147902415Y-90071890D02*
X147931563Y-90011364D01*
X150925282Y-88957011D02*
X150925282Y-89322938D01*
X149151758Y-90104544D02*
X149166707Y-90039050D01*
X151758525Y-88664532D02*
X151825282Y-88657011D01*
X150925282Y-89322938D02*
X150932803Y-89389694D01*
X151825282Y-88657011D02*
X151892038Y-88664532D01*
X150932803Y-89389694D02*
X150954991Y-89453103D01*
X151892038Y-88664532D02*
X151955447Y-88686720D01*
X150954991Y-89453103D02*
X150990732Y-89509984D01*
X147425555Y-91542907D02*
X147383670Y-91490384D01*
X150990732Y-89509984D02*
X151038235Y-89557487D01*
X152754991Y-88826845D02*
X152790732Y-88769964D01*
X149275282Y-88657011D02*
X149425282Y-88657011D01*
X151038235Y-89557487D02*
X151095116Y-89593228D01*
X152790732Y-88769964D02*
X152838235Y-88722461D01*
X151095116Y-89593228D02*
X151158525Y-89615416D01*
X152838235Y-88722461D02*
X152895116Y-88686720D01*
X151292038Y-89615416D02*
X151355447Y-89593228D01*
X153025282Y-88657011D02*
X154674989Y-88657011D01*
X149555447Y-88686720D02*
X149612328Y-88722461D01*
X151355447Y-89593228D02*
X151412328Y-89557487D01*
X151459831Y-89509984D02*
X151495572Y-89453103D01*
X149725282Y-88957011D02*
X149725282Y-89222938D01*
X145859500Y-93256301D02*
X145859500Y-92072793D01*
X151517760Y-89389694D02*
X151525282Y-89322938D01*
X151525282Y-88957011D02*
X151532803Y-88890254D01*
X151532803Y-88890254D02*
X151554991Y-88826845D01*
X151590732Y-88769964D02*
X151638235Y-88722461D01*
X151638235Y-88722461D02*
X151695116Y-88686720D01*
X152059831Y-88769964D02*
X152095572Y-88826845D01*
X152095572Y-88826845D02*
X152117760Y-88890254D01*
X148750943Y-89421530D02*
X148735994Y-89356035D01*
X152117760Y-88890254D02*
X152125282Y-88957011D01*
X152125282Y-89322938D02*
X152132803Y-89389694D01*
X152238235Y-89557487D02*
X152295116Y-89593228D01*
X152358525Y-89615416D02*
X152425282Y-89622938D01*
X152425282Y-89622938D02*
X152492038Y-89615416D01*
X152492038Y-89615416D02*
X152555447Y-89593228D01*
X154727511Y-88615125D02*
X154788037Y-88585978D01*
X152555447Y-89593228D02*
X152612328Y-89557487D01*
X154788037Y-88585978D02*
X154853531Y-88571029D01*
X152612328Y-89557487D02*
X152659831Y-89509984D01*
X152695572Y-89453103D02*
X152717760Y-89389694D01*
X154986204Y-88585978D02*
X155046730Y-88615125D01*
X152725282Y-89322938D02*
X152725282Y-88957011D01*
X152725282Y-88957011D02*
X152732803Y-88890254D01*
X154674989Y-88657011D02*
X154727511Y-88615125D01*
X152125282Y-88957011D02*
X152125282Y-89322938D01*
X155099253Y-88657011D02*
X155287291Y-88845049D01*
X142182557Y-97883042D02*
X144248727Y-95816872D01*
G04 #@! TO.N,/CAN_N*
X142056304Y-97578242D02*
X144033201Y-95601345D01*
X144033201Y-95601345D02*
X144033201Y-94132400D01*
X141252465Y-97095642D02*
X141735065Y-97578242D01*
X140777465Y-97095642D02*
X141252465Y-97095642D01*
X141735065Y-97578242D02*
X142056304Y-97578242D01*
X149108600Y-88254601D02*
X154023299Y-88254601D01*
X144033201Y-93330000D02*
X149108600Y-88254601D01*
X144033201Y-94132400D02*
X144033201Y-93330000D01*
X154979799Y-87298101D02*
X154979799Y-86459901D01*
X154023299Y-88254601D02*
X154979799Y-87298101D01*
X154979799Y-86459901D02*
X156044900Y-85394800D01*
X156044900Y-85394800D02*
X156057600Y-85394800D01*
X156057600Y-85394800D02*
X156337000Y-85115400D01*
X156946600Y-85115400D02*
X157226000Y-84836000D01*
X156337000Y-85115400D02*
X156946600Y-85115400D01*
D41*
G04 #@! TO.N,/XCAN_P*
X156216500Y-105414500D02*
X156041501Y-105239501D01*
D37*
X146177465Y-100851165D02*
X146177465Y-99635642D01*
X146570700Y-101244400D02*
X146177465Y-100851165D01*
X156216500Y-105414500D02*
X156216500Y-104552338D01*
X152767892Y-101244400D02*
X146570700Y-101244400D01*
X155867662Y-104203500D02*
X155726992Y-104203500D01*
X155726992Y-104203500D02*
X152767892Y-101244400D01*
X156216500Y-104552338D02*
X155867662Y-104203500D01*
D41*
G04 #@! TO.N,/XCAN_N*
X155416500Y-105414500D02*
X155591500Y-105239500D01*
X155591500Y-105239500D02*
X155591500Y-104754099D01*
D37*
X145250065Y-95825642D02*
X143840200Y-97235507D01*
X146177465Y-95825642D02*
X145250065Y-95825642D01*
X155416500Y-104462100D02*
X152732200Y-101777800D01*
X155416500Y-105414500D02*
X155416500Y-104462100D01*
X152730200Y-101777800D02*
X152599210Y-101646810D01*
X152732200Y-101777800D02*
X152730200Y-101777800D01*
X146404017Y-101646810D02*
X143840200Y-99082993D01*
X143840200Y-99082993D02*
X143840200Y-99047300D01*
X152599210Y-101646810D02*
X146404017Y-101646810D01*
X143840200Y-97235507D02*
X143840200Y-99047300D01*
X143840200Y-99047300D02*
X143840200Y-99136200D01*
G04 #@! TD*
G04 #@! TO.N,+12V*
G36*
X155524200Y-83343564D02*
X155524200Y-83896694D01*
X155269423Y-83641917D01*
X155167804Y-83743536D01*
X155137632Y-83661459D01*
X154653776Y-83578034D01*
X154234368Y-83661459D01*
X154163596Y-83853976D01*
X154686000Y-84376381D01*
X154775661Y-84286719D01*
X155235281Y-84746339D01*
X155145619Y-84836000D01*
X155235281Y-84925662D01*
X154775662Y-85385281D01*
X154686000Y-85295619D01*
X154596339Y-85385281D01*
X154136719Y-84925661D01*
X154226381Y-84836000D01*
X153703976Y-84313596D01*
X153511459Y-84384368D01*
X153428034Y-84868224D01*
X153511459Y-85287632D01*
X153593536Y-85317804D01*
X153491917Y-85419423D01*
X153594294Y-85521800D01*
X153452624Y-85521800D01*
X153184606Y-85186778D01*
X153057557Y-84880054D01*
X152711946Y-84534443D01*
X152638351Y-84503959D01*
X152459502Y-84280398D01*
X152436756Y-84261251D01*
X152400000Y-84251800D01*
X144424400Y-84251800D01*
X144395240Y-84257600D01*
X144372210Y-84272479D01*
X141854209Y-86639400D01*
X134651564Y-86639400D01*
X134239000Y-86226836D01*
X134239000Y-85941450D01*
X134360600Y-85941450D01*
X134360600Y-86136605D01*
X134449539Y-86351323D01*
X134613878Y-86515661D01*
X134828596Y-86604600D01*
X135616950Y-86604600D01*
X135763000Y-86458550D01*
X135763000Y-85795400D01*
X136626600Y-85795400D01*
X136626600Y-86458550D01*
X136772650Y-86604600D01*
X137561004Y-86604600D01*
X137775722Y-86515661D01*
X137940061Y-86351323D01*
X138029000Y-86136605D01*
X138029000Y-85941450D01*
X137882950Y-85795400D01*
X136626600Y-85795400D01*
X135763000Y-85795400D01*
X134506650Y-85795400D01*
X134360600Y-85941450D01*
X134239000Y-85941450D01*
X134239000Y-85172364D01*
X134360600Y-85050764D01*
X134360600Y-85199350D01*
X134506650Y-85345400D01*
X135763000Y-85345400D01*
X135763000Y-84682250D01*
X136626600Y-84682250D01*
X136626600Y-85345400D01*
X137882950Y-85345400D01*
X138025955Y-85202395D01*
X138341100Y-85202395D01*
X138341100Y-85629750D01*
X138487150Y-85775800D01*
X139573000Y-85775800D01*
X139573000Y-84880450D01*
X140436600Y-84880450D01*
X140436600Y-85775800D01*
X141522450Y-85775800D01*
X141668500Y-85629750D01*
X141668500Y-85202395D01*
X141579561Y-84987677D01*
X141415222Y-84823339D01*
X141200504Y-84734400D01*
X140582650Y-84734400D01*
X140436600Y-84880450D01*
X139573000Y-84880450D01*
X139426950Y-84734400D01*
X138809096Y-84734400D01*
X138594378Y-84823339D01*
X138430039Y-84987677D01*
X138341100Y-85202395D01*
X138025955Y-85202395D01*
X138029000Y-85199350D01*
X138029000Y-85004195D01*
X137940061Y-84789477D01*
X137775722Y-84625139D01*
X137561004Y-84536200D01*
X136772650Y-84536200D01*
X136626600Y-84682250D01*
X135763000Y-84682250D01*
X135616950Y-84536200D01*
X134875164Y-84536200D01*
X136214764Y-83196600D01*
X155377236Y-83196600D01*
X155524200Y-83343564D01*
X155524200Y-83343564D01*
G37*
X155524200Y-83343564D02*
X155524200Y-83896694D01*
X155269423Y-83641917D01*
X155167804Y-83743536D01*
X155137632Y-83661459D01*
X154653776Y-83578034D01*
X154234368Y-83661459D01*
X154163596Y-83853976D01*
X154686000Y-84376381D01*
X154775661Y-84286719D01*
X155235281Y-84746339D01*
X155145619Y-84836000D01*
X155235281Y-84925662D01*
X154775662Y-85385281D01*
X154686000Y-85295619D01*
X154596339Y-85385281D01*
X154136719Y-84925661D01*
X154226381Y-84836000D01*
X153703976Y-84313596D01*
X153511459Y-84384368D01*
X153428034Y-84868224D01*
X153511459Y-85287632D01*
X153593536Y-85317804D01*
X153491917Y-85419423D01*
X153594294Y-85521800D01*
X153452624Y-85521800D01*
X153184606Y-85186778D01*
X153057557Y-84880054D01*
X152711946Y-84534443D01*
X152638351Y-84503959D01*
X152459502Y-84280398D01*
X152436756Y-84261251D01*
X152400000Y-84251800D01*
X144424400Y-84251800D01*
X144395240Y-84257600D01*
X144372210Y-84272479D01*
X141854209Y-86639400D01*
X134651564Y-86639400D01*
X134239000Y-86226836D01*
X134239000Y-85941450D01*
X134360600Y-85941450D01*
X134360600Y-86136605D01*
X134449539Y-86351323D01*
X134613878Y-86515661D01*
X134828596Y-86604600D01*
X135616950Y-86604600D01*
X135763000Y-86458550D01*
X135763000Y-85795400D01*
X136626600Y-85795400D01*
X136626600Y-86458550D01*
X136772650Y-86604600D01*
X137561004Y-86604600D01*
X137775722Y-86515661D01*
X137940061Y-86351323D01*
X138029000Y-86136605D01*
X138029000Y-85941450D01*
X137882950Y-85795400D01*
X136626600Y-85795400D01*
X135763000Y-85795400D01*
X134506650Y-85795400D01*
X134360600Y-85941450D01*
X134239000Y-85941450D01*
X134239000Y-85172364D01*
X134360600Y-85050764D01*
X134360600Y-85199350D01*
X134506650Y-85345400D01*
X135763000Y-85345400D01*
X135763000Y-84682250D01*
X136626600Y-84682250D01*
X136626600Y-85345400D01*
X137882950Y-85345400D01*
X138025955Y-85202395D01*
X138341100Y-85202395D01*
X138341100Y-85629750D01*
X138487150Y-85775800D01*
X139573000Y-85775800D01*
X139573000Y-84880450D01*
X140436600Y-84880450D01*
X140436600Y-85775800D01*
X141522450Y-85775800D01*
X141668500Y-85629750D01*
X141668500Y-85202395D01*
X141579561Y-84987677D01*
X141415222Y-84823339D01*
X141200504Y-84734400D01*
X140582650Y-84734400D01*
X140436600Y-84880450D01*
X139573000Y-84880450D01*
X139426950Y-84734400D01*
X138809096Y-84734400D01*
X138594378Y-84823339D01*
X138430039Y-84987677D01*
X138341100Y-85202395D01*
X138025955Y-85202395D01*
X138029000Y-85199350D01*
X138029000Y-85004195D01*
X137940061Y-84789477D01*
X137775722Y-84625139D01*
X137561004Y-84536200D01*
X136772650Y-84536200D01*
X136626600Y-84682250D01*
X135763000Y-84682250D01*
X135616950Y-84536200D01*
X134875164Y-84536200D01*
X136214764Y-83196600D01*
X155377236Y-83196600D01*
X155524200Y-83343564D01*
G04 #@! TO.N,/12V_Fused*
G36*
X137439400Y-90595636D02*
X137331636Y-90703400D01*
X135940800Y-90703400D01*
X135911640Y-90709200D01*
X135886918Y-90725718D01*
X135299636Y-91313000D01*
X134651564Y-91313000D01*
X134442200Y-91103636D01*
X134442200Y-88321964D01*
X134753164Y-88011000D01*
X137439400Y-88011000D01*
X137439400Y-90595636D01*
X137439400Y-90595636D01*
G37*
X137439400Y-90595636D02*
X137331636Y-90703400D01*
X135940800Y-90703400D01*
X135911640Y-90709200D01*
X135886918Y-90725718D01*
X135299636Y-91313000D01*
X134651564Y-91313000D01*
X134442200Y-91103636D01*
X134442200Y-88321964D01*
X134753164Y-88011000D01*
X137439400Y-88011000D01*
X137439400Y-90595636D01*
G04 #@! TO.N,Net-(C7-Pad2)*
G36*
X130781518Y-111960118D02*
X130765000Y-111984840D01*
X130759200Y-112014000D01*
X130759200Y-113004600D01*
X130251200Y-113004600D01*
X130251200Y-112014000D01*
X130245400Y-111984840D01*
X130228882Y-111960118D01*
X129698564Y-111429800D01*
X131311836Y-111429800D01*
X130781518Y-111960118D01*
X130781518Y-111960118D01*
G37*
X130781518Y-111960118D02*
X130765000Y-111984840D01*
X130759200Y-112014000D01*
X130759200Y-113004600D01*
X130251200Y-113004600D01*
X130251200Y-112014000D01*
X130245400Y-111984840D01*
X130228882Y-111960118D01*
X129698564Y-111429800D01*
X131311836Y-111429800D01*
X130781518Y-111960118D01*
G04 #@! TO.N,Net-(C10-Pad1)*
G36*
X128117600Y-99751964D02*
X128117600Y-102971600D01*
X128123400Y-103000760D01*
X128139918Y-103025482D01*
X128546318Y-103431882D01*
X128571040Y-103448400D01*
X128600200Y-103454200D01*
X136061636Y-103454200D01*
X136194800Y-103587364D01*
X136194800Y-108553436D01*
X136188636Y-108559600D01*
X135311964Y-108559600D01*
X135305800Y-108553436D01*
X135305800Y-107492800D01*
X135300000Y-107463640D01*
X135283482Y-107438918D01*
X134546882Y-106702318D01*
X134522160Y-106685800D01*
X134493000Y-106680000D01*
X127031564Y-106680000D01*
X127000000Y-106648436D01*
X127000000Y-99701164D01*
X127031564Y-99669600D01*
X128035236Y-99669600D01*
X128117600Y-99751964D01*
X128117600Y-99751964D01*
G37*
X128117600Y-99751964D02*
X128117600Y-102971600D01*
X128123400Y-103000760D01*
X128139918Y-103025482D01*
X128546318Y-103431882D01*
X128571040Y-103448400D01*
X128600200Y-103454200D01*
X136061636Y-103454200D01*
X136194800Y-103587364D01*
X136194800Y-108553436D01*
X136188636Y-108559600D01*
X135311964Y-108559600D01*
X135305800Y-108553436D01*
X135305800Y-107492800D01*
X135300000Y-107463640D01*
X135283482Y-107438918D01*
X134546882Y-106702318D01*
X134522160Y-106685800D01*
X134493000Y-106680000D01*
X127031564Y-106680000D01*
X127000000Y-106648436D01*
X127000000Y-99701164D01*
X127031564Y-99669600D01*
X128035236Y-99669600D01*
X128117600Y-99751964D01*
G04 #@! TO.N,GND*
G36*
X137667999Y-103082654D02*
X137715527Y-103073200D01*
X139338236Y-103073200D01*
X139801600Y-103536564D01*
X139801600Y-109264636D01*
X135909236Y-113157000D01*
X131191000Y-113157000D01*
X131191000Y-112045564D01*
X131561486Y-111675078D01*
X134706800Y-111675078D01*
X134795995Y-111657336D01*
X134871611Y-111606811D01*
X134922136Y-111531195D01*
X134926200Y-111510764D01*
X136528082Y-109908882D01*
X136544600Y-109884160D01*
X136550400Y-109855000D01*
X136550400Y-103638164D01*
X137115364Y-103073200D01*
X137620471Y-103073200D01*
X137667999Y-103082654D01*
X137667999Y-103082654D01*
G37*
X137667999Y-103082654D02*
X137715527Y-103073200D01*
X139338236Y-103073200D01*
X139801600Y-103536564D01*
X139801600Y-109264636D01*
X135909236Y-113157000D01*
X131191000Y-113157000D01*
X131191000Y-112045564D01*
X131561486Y-111675078D01*
X134706800Y-111675078D01*
X134795995Y-111657336D01*
X134871611Y-111606811D01*
X134922136Y-111531195D01*
X134926200Y-111510764D01*
X136528082Y-109908882D01*
X136544600Y-109884160D01*
X136550400Y-109855000D01*
X136550400Y-103638164D01*
X137115364Y-103073200D01*
X137620471Y-103073200D01*
X137667999Y-103082654D01*
G36*
X141147800Y-89490364D02*
X141147800Y-92957836D01*
X140049436Y-94056200D01*
X136200964Y-94056200D01*
X135890000Y-93745236D01*
X135890000Y-92665364D01*
X138712482Y-89842882D01*
X138729000Y-89818160D01*
X138734800Y-89789000D01*
X138734800Y-89515764D01*
X138842564Y-89408000D01*
X141065436Y-89408000D01*
X141147800Y-89490364D01*
X141147800Y-89490364D01*
G37*
X141147800Y-89490364D02*
X141147800Y-92957836D01*
X140049436Y-94056200D01*
X136200964Y-94056200D01*
X135890000Y-93745236D01*
X135890000Y-92665364D01*
X138712482Y-89842882D01*
X138729000Y-89818160D01*
X138734800Y-89789000D01*
X138734800Y-89515764D01*
X138842564Y-89408000D01*
X141065436Y-89408000D01*
X141147800Y-89490364D01*
G04 #@! TD*
M02*
