G04 #@! TF.GenerationSoftware,KiCad,Pcbnew,(5.0.1)-4*
G04 #@! TF.CreationDate,2019-05-19T19:14:33-06:00*
G04 #@! TF.ProjectId,BMS_core,424D535F636F72652E6B696361645F70,rev?*
G04 #@! TF.SameCoordinates,Original*
G04 #@! TF.FileFunction,Soldermask,Top*
G04 #@! TF.FilePolarity,Negative*
%FSLAX46Y46*%
G04 Gerber Fmt 4.6, Leading zero omitted, Abs format (unit mm)*
G04 Created by KiCad (PCBNEW (5.0.1)-4) date 5/19/2019 7:14:33 PM*
%MOMM*%
%LPD*%
G01*
G04 APERTURE LIST*
%ADD10C,0.100000*%
G04 APERTURE END LIST*
D10*
G36*
X113131250Y-102347899D02*
X113131252Y-102347900D01*
X113131253Y-102347900D01*
X113590610Y-102538172D01*
X114004023Y-102814406D01*
X114355594Y-103165977D01*
X114355596Y-103165980D01*
X114631828Y-103579390D01*
X114732735Y-103823000D01*
X114822101Y-104038750D01*
X114919100Y-104526396D01*
X114919100Y-105023604D01*
X114824737Y-105498000D01*
X114822100Y-105511253D01*
X114716166Y-105767000D01*
X114631828Y-105970610D01*
X114355594Y-106384023D01*
X114004023Y-106735594D01*
X114004020Y-106735596D01*
X113590610Y-107011828D01*
X113131253Y-107202100D01*
X113131252Y-107202100D01*
X113131250Y-107202101D01*
X112643604Y-107299100D01*
X112146396Y-107299100D01*
X111658750Y-107202101D01*
X111658748Y-107202100D01*
X111658747Y-107202100D01*
X111199390Y-107011828D01*
X110785980Y-106735596D01*
X110785977Y-106735594D01*
X110434406Y-106384023D01*
X110158172Y-105970610D01*
X110073834Y-105767000D01*
X109967900Y-105511253D01*
X109965264Y-105498000D01*
X109870900Y-105023604D01*
X109870900Y-104526396D01*
X109967899Y-104038750D01*
X110057266Y-103823000D01*
X110158172Y-103579390D01*
X110434404Y-103165980D01*
X110434406Y-103165977D01*
X110785977Y-102814406D01*
X111199390Y-102538172D01*
X111658747Y-102347900D01*
X111658748Y-102347900D01*
X111658750Y-102347899D01*
X112146396Y-102250900D01*
X112643604Y-102250900D01*
X113131250Y-102347899D01*
X113131250Y-102347899D01*
G37*
G36*
X48361250Y-102347899D02*
X48361252Y-102347900D01*
X48361253Y-102347900D01*
X48820610Y-102538172D01*
X49234023Y-102814406D01*
X49585594Y-103165977D01*
X49585596Y-103165980D01*
X49861828Y-103579390D01*
X49962735Y-103823000D01*
X50052101Y-104038750D01*
X50149100Y-104526396D01*
X50149100Y-105023604D01*
X50054737Y-105498000D01*
X50052100Y-105511253D01*
X49946166Y-105767000D01*
X49861828Y-105970610D01*
X49585594Y-106384023D01*
X49234023Y-106735594D01*
X49234020Y-106735596D01*
X48820610Y-107011828D01*
X48361253Y-107202100D01*
X48361252Y-107202100D01*
X48361250Y-107202101D01*
X47873604Y-107299100D01*
X47376396Y-107299100D01*
X46888750Y-107202101D01*
X46888748Y-107202100D01*
X46888747Y-107202100D01*
X46429390Y-107011828D01*
X46015980Y-106735596D01*
X46015977Y-106735594D01*
X45664406Y-106384023D01*
X45388172Y-105970610D01*
X45303834Y-105767000D01*
X45197900Y-105511253D01*
X45195264Y-105498000D01*
X45100900Y-105023604D01*
X45100900Y-104526396D01*
X45197899Y-104038750D01*
X45287266Y-103823000D01*
X45388172Y-103579390D01*
X45664404Y-103165980D01*
X45664406Y-103165977D01*
X46015977Y-102814406D01*
X46429390Y-102538172D01*
X46888747Y-102347900D01*
X46888748Y-102347900D01*
X46888750Y-102347899D01*
X47376396Y-102250900D01*
X47873604Y-102250900D01*
X48361250Y-102347899D01*
X48361250Y-102347899D01*
G37*
G36*
X59544000Y-107149000D02*
X58444000Y-107149000D01*
X58444000Y-105449000D01*
X59544000Y-105449000D01*
X59544000Y-107149000D01*
X59544000Y-107149000D01*
G37*
G36*
X61444000Y-107149000D02*
X60344000Y-107149000D01*
X60344000Y-105449000D01*
X61444000Y-105449000D01*
X61444000Y-107149000D01*
X61444000Y-107149000D01*
G37*
G36*
X68922000Y-105767000D02*
X67222000Y-105767000D01*
X67222000Y-104667000D01*
X68922000Y-104667000D01*
X68922000Y-105767000D01*
X68922000Y-105767000D01*
G37*
G36*
X65595000Y-105713000D02*
X63945000Y-105713000D01*
X63945000Y-104313000D01*
X65595000Y-104313000D01*
X65595000Y-105713000D01*
X65595000Y-105713000D01*
G37*
G36*
X87098000Y-105498000D02*
X85998000Y-105498000D01*
X85998000Y-103798000D01*
X87098000Y-103798000D01*
X87098000Y-105498000D01*
X87098000Y-105498000D01*
G37*
G36*
X85198000Y-105498000D02*
X84098000Y-105498000D01*
X84098000Y-103798000D01*
X85198000Y-103798000D01*
X85198000Y-105498000D01*
X85198000Y-105498000D01*
G37*
G36*
X81742000Y-105473000D02*
X80342000Y-105473000D01*
X80342000Y-103823000D01*
X81742000Y-103823000D01*
X81742000Y-105473000D01*
X81742000Y-105473000D01*
G37*
G36*
X83742000Y-105473000D02*
X82342000Y-105473000D01*
X82342000Y-103823000D01*
X83742000Y-103823000D01*
X83742000Y-105473000D01*
X83742000Y-105473000D01*
G37*
G36*
X59420000Y-105197000D02*
X57420000Y-105197000D01*
X57420000Y-103797000D01*
X59420000Y-103797000D01*
X59420000Y-105197000D01*
X59420000Y-105197000D01*
G37*
G36*
X63235100Y-104509500D02*
X60285100Y-104509500D01*
X60285100Y-103049500D01*
X63235100Y-103049500D01*
X63235100Y-104509500D01*
X63235100Y-104509500D01*
G37*
G36*
X91060000Y-104236000D02*
X89460000Y-104236000D01*
X89460000Y-103536000D01*
X91060000Y-103536000D01*
X91060000Y-104236000D01*
X91060000Y-104236000D01*
G37*
G36*
X99860000Y-104236000D02*
X98260000Y-104236000D01*
X98260000Y-103536000D01*
X99860000Y-103536000D01*
X99860000Y-104236000D01*
X99860000Y-104236000D01*
G37*
G36*
X68922000Y-103867000D02*
X67222000Y-103867000D01*
X67222000Y-102767000D01*
X68922000Y-102767000D01*
X68922000Y-103867000D01*
X68922000Y-103867000D01*
G37*
G36*
X65595000Y-103713000D02*
X63945000Y-103713000D01*
X63945000Y-102313000D01*
X65595000Y-102313000D01*
X65595000Y-103713000D01*
X65595000Y-103713000D01*
G37*
G36*
X85298000Y-103441000D02*
X83898000Y-103441000D01*
X83898000Y-101791000D01*
X85298000Y-101791000D01*
X85298000Y-103441000D01*
X85298000Y-103441000D01*
G37*
G36*
X87298000Y-103441000D02*
X85898000Y-103441000D01*
X85898000Y-101791000D01*
X87298000Y-101791000D01*
X87298000Y-103441000D01*
X87298000Y-103441000D01*
G37*
G36*
X99860000Y-102966000D02*
X98260000Y-102966000D01*
X98260000Y-102266000D01*
X99860000Y-102266000D01*
X99860000Y-102966000D01*
X99860000Y-102966000D01*
G37*
G36*
X91060000Y-102966000D02*
X89460000Y-102966000D01*
X89460000Y-102266000D01*
X91060000Y-102266000D01*
X91060000Y-102966000D01*
X91060000Y-102966000D01*
G37*
G36*
X63235100Y-102309500D02*
X60285100Y-102309500D01*
X60285100Y-100849500D01*
X63235100Y-100849500D01*
X63235100Y-102309500D01*
X63235100Y-102309500D01*
G37*
G36*
X59420000Y-102197000D02*
X57420000Y-102197000D01*
X57420000Y-100797000D01*
X59420000Y-100797000D01*
X59420000Y-102197000D01*
X59420000Y-102197000D01*
G37*
G36*
X53824000Y-102069000D02*
X52724000Y-102069000D01*
X52724000Y-100369000D01*
X53824000Y-100369000D01*
X53824000Y-102069000D01*
X53824000Y-102069000D01*
G37*
G36*
X51924000Y-102069000D02*
X50824000Y-102069000D01*
X50824000Y-100369000D01*
X51924000Y-100369000D01*
X51924000Y-102069000D01*
X51924000Y-102069000D01*
G37*
G36*
X91060000Y-101696000D02*
X89460000Y-101696000D01*
X89460000Y-100996000D01*
X91060000Y-100996000D01*
X91060000Y-101696000D01*
X91060000Y-101696000D01*
G37*
G36*
X99860000Y-101696000D02*
X98260000Y-101696000D01*
X98260000Y-100996000D01*
X99860000Y-100996000D01*
X99860000Y-101696000D01*
X99860000Y-101696000D01*
G37*
G36*
X87098000Y-101434000D02*
X85998000Y-101434000D01*
X85998000Y-99734000D01*
X87098000Y-99734000D01*
X87098000Y-101434000D01*
X87098000Y-101434000D01*
G37*
G36*
X85198000Y-101434000D02*
X84098000Y-101434000D01*
X84098000Y-99734000D01*
X85198000Y-99734000D01*
X85198000Y-101434000D01*
X85198000Y-101434000D01*
G37*
G36*
X99860000Y-100426000D02*
X98260000Y-100426000D01*
X98260000Y-99726000D01*
X99860000Y-99726000D01*
X99860000Y-100426000D01*
X99860000Y-100426000D01*
G37*
G36*
X91060000Y-100426000D02*
X89460000Y-100426000D01*
X89460000Y-99726000D01*
X91060000Y-99726000D01*
X91060000Y-100426000D01*
X91060000Y-100426000D01*
G37*
G36*
X66085500Y-100275500D02*
X57485500Y-100275500D01*
X57485500Y-96575500D01*
X66085500Y-96575500D01*
X66085500Y-100275500D01*
X66085500Y-100275500D01*
G37*
G36*
X56929500Y-98879500D02*
X53949000Y-98879500D01*
X53924614Y-98881902D01*
X53901165Y-98889015D01*
X53879554Y-98900566D01*
X53860612Y-98916112D01*
X53845066Y-98935054D01*
X53833515Y-98956665D01*
X53826402Y-98980114D01*
X53824000Y-99004500D01*
X53824000Y-100037000D01*
X52724000Y-100037000D01*
X52724000Y-98337000D01*
X53904500Y-98337000D01*
X53928886Y-98334598D01*
X53952335Y-98327485D01*
X53973946Y-98315934D01*
X53992888Y-98300388D01*
X54008434Y-98281446D01*
X54019985Y-98259835D01*
X54027098Y-98236386D01*
X54029500Y-98212000D01*
X54029500Y-97579500D01*
X56929500Y-97579500D01*
X56929500Y-98879500D01*
X56929500Y-98879500D01*
G37*
G36*
X51924000Y-100037000D02*
X50824000Y-100037000D01*
X50824000Y-98337000D01*
X51924000Y-98337000D01*
X51924000Y-100037000D01*
X51924000Y-100037000D01*
G37*
G36*
X91060000Y-99156000D02*
X89460000Y-99156000D01*
X89460000Y-98456000D01*
X91060000Y-98456000D01*
X91060000Y-99156000D01*
X91060000Y-99156000D01*
G37*
G36*
X99860000Y-99156000D02*
X98260000Y-99156000D01*
X98260000Y-98456000D01*
X99860000Y-98456000D01*
X99860000Y-99156000D01*
X99860000Y-99156000D01*
G37*
G36*
X105290000Y-96400000D02*
X104514323Y-96400000D01*
X104489937Y-96402402D01*
X104466488Y-96409515D01*
X104444877Y-96421066D01*
X104425935Y-96436612D01*
X104410389Y-96455554D01*
X104398838Y-96477165D01*
X104391725Y-96500614D01*
X104389323Y-96525000D01*
X104391725Y-96549386D01*
X104398838Y-96572835D01*
X104410389Y-96594446D01*
X104425935Y-96613388D01*
X104444877Y-96628934D01*
X104466488Y-96640485D01*
X104475442Y-96644194D01*
X104475443Y-96644194D01*
X104543741Y-96672484D01*
X104684728Y-96730883D01*
X104873085Y-96856739D01*
X105033261Y-97016915D01*
X105159117Y-97205272D01*
X105245806Y-97414557D01*
X105290000Y-97636734D01*
X105290000Y-97863266D01*
X105245806Y-98085443D01*
X105159117Y-98294728D01*
X105033261Y-98483085D01*
X104873085Y-98643261D01*
X104684728Y-98769117D01*
X104475443Y-98855806D01*
X104253266Y-98900000D01*
X104026734Y-98900000D01*
X103804557Y-98855806D01*
X103595272Y-98769117D01*
X103406915Y-98643261D01*
X103246739Y-98483085D01*
X103120883Y-98294728D01*
X103034194Y-98085443D01*
X102990000Y-97863266D01*
X102990000Y-97636734D01*
X103034194Y-97414557D01*
X103120883Y-97205272D01*
X103246739Y-97016915D01*
X103406915Y-96856739D01*
X103595272Y-96730883D01*
X103736259Y-96672484D01*
X103804557Y-96644194D01*
X103804558Y-96644194D01*
X103813512Y-96640485D01*
X103835123Y-96628934D01*
X103854065Y-96613388D01*
X103869611Y-96594446D01*
X103881162Y-96572835D01*
X103888275Y-96549386D01*
X103890677Y-96525000D01*
X103888275Y-96500614D01*
X103881162Y-96477165D01*
X103869611Y-96455554D01*
X103854065Y-96436612D01*
X103835123Y-96421066D01*
X103813512Y-96409515D01*
X103790063Y-96402402D01*
X103765677Y-96400000D01*
X102990000Y-96400000D01*
X102990000Y-94100000D01*
X105290000Y-94100000D01*
X105290000Y-96400000D01*
X105290000Y-96400000D01*
G37*
G36*
X111495770Y-96765372D02*
X111611689Y-96788429D01*
X111793678Y-96863811D01*
X111957463Y-96973249D01*
X112096751Y-97112537D01*
X112206189Y-97276322D01*
X112281571Y-97458311D01*
X112304628Y-97574230D01*
X112320000Y-97651507D01*
X112320000Y-97848493D01*
X112317061Y-97863266D01*
X112281571Y-98041689D01*
X112206189Y-98223678D01*
X112096751Y-98387463D01*
X111957463Y-98526751D01*
X111793678Y-98636189D01*
X111611689Y-98711571D01*
X111495770Y-98734628D01*
X111418493Y-98750000D01*
X111221507Y-98750000D01*
X111144230Y-98734628D01*
X111028311Y-98711571D01*
X110846322Y-98636189D01*
X110682537Y-98526751D01*
X110543249Y-98387463D01*
X110433811Y-98223678D01*
X110358429Y-98041689D01*
X110322939Y-97863266D01*
X110320000Y-97848493D01*
X110320000Y-97651507D01*
X110335372Y-97574230D01*
X110358429Y-97458311D01*
X110433811Y-97276322D01*
X110543249Y-97112537D01*
X110682537Y-96973249D01*
X110846322Y-96863811D01*
X111028311Y-96788429D01*
X111144230Y-96765372D01*
X111221507Y-96750000D01*
X111418493Y-96750000D01*
X111495770Y-96765372D01*
X111495770Y-96765372D01*
G37*
G36*
X68280000Y-98488000D02*
X66880000Y-98488000D01*
X66880000Y-96838000D01*
X68280000Y-96838000D01*
X68280000Y-98488000D01*
X68280000Y-98488000D01*
G37*
G36*
X70280000Y-98488000D02*
X68880000Y-98488000D01*
X68880000Y-96838000D01*
X70280000Y-96838000D01*
X70280000Y-98488000D01*
X70280000Y-98488000D01*
G37*
G36*
X80293511Y-98447383D02*
X79193511Y-98447383D01*
X79193511Y-96747383D01*
X80293511Y-96747383D01*
X80293511Y-98447383D01*
X80293511Y-98447383D01*
G37*
G36*
X82193511Y-98447383D02*
X81093511Y-98447383D01*
X81093511Y-96747383D01*
X82193511Y-96747383D01*
X82193511Y-98447383D01*
X82193511Y-98447383D01*
G37*
G36*
X99860000Y-97886000D02*
X98260000Y-97886000D01*
X98260000Y-97186000D01*
X99860000Y-97186000D01*
X99860000Y-97886000D01*
X99860000Y-97886000D01*
G37*
G36*
X91060000Y-97886000D02*
X89460000Y-97886000D01*
X89460000Y-97186000D01*
X91060000Y-97186000D01*
X91060000Y-97886000D01*
X91060000Y-97886000D01*
G37*
G36*
X52362000Y-97531000D02*
X50762000Y-97531000D01*
X50762000Y-95931000D01*
X52362000Y-95931000D01*
X52362000Y-97531000D01*
X52362000Y-97531000D01*
G37*
G36*
X99860000Y-96616000D02*
X98260000Y-96616000D01*
X98260000Y-95916000D01*
X99860000Y-95916000D01*
X99860000Y-96616000D01*
X99860000Y-96616000D01*
G37*
G36*
X91060000Y-96616000D02*
X89460000Y-96616000D01*
X89460000Y-95916000D01*
X91060000Y-95916000D01*
X91060000Y-96616000D01*
X91060000Y-96616000D01*
G37*
G36*
X83971511Y-96415383D02*
X82871511Y-96415383D01*
X82871511Y-94715383D01*
X83971511Y-94715383D01*
X83971511Y-96415383D01*
X83971511Y-96415383D01*
G37*
G36*
X82071511Y-96415383D02*
X80971511Y-96415383D01*
X80971511Y-94715383D01*
X82071511Y-94715383D01*
X82071511Y-96415383D01*
X82071511Y-96415383D01*
G37*
G36*
X111495770Y-94265372D02*
X111611689Y-94288429D01*
X111793678Y-94363811D01*
X111957463Y-94473249D01*
X112096751Y-94612537D01*
X112206189Y-94776322D01*
X112281571Y-94958311D01*
X112320000Y-95151509D01*
X112320000Y-95348491D01*
X112281571Y-95541689D01*
X112206189Y-95723678D01*
X112096751Y-95887463D01*
X111957463Y-96026751D01*
X111793678Y-96136189D01*
X111611689Y-96211571D01*
X111495770Y-96234628D01*
X111418493Y-96250000D01*
X111221507Y-96250000D01*
X111144230Y-96234628D01*
X111028311Y-96211571D01*
X110846322Y-96136189D01*
X110682537Y-96026751D01*
X110543249Y-95887463D01*
X110433811Y-95723678D01*
X110358429Y-95541689D01*
X110320000Y-95348491D01*
X110320000Y-95151509D01*
X110358429Y-94958311D01*
X110433811Y-94776322D01*
X110543249Y-94612537D01*
X110682537Y-94473249D01*
X110846322Y-94363811D01*
X111028311Y-94288429D01*
X111144230Y-94265372D01*
X111221507Y-94250000D01*
X111418493Y-94250000D01*
X111495770Y-94265372D01*
X111495770Y-94265372D01*
G37*
G36*
X70280000Y-96202000D02*
X68880000Y-96202000D01*
X68880000Y-94552000D01*
X70280000Y-94552000D01*
X70280000Y-96202000D01*
X70280000Y-96202000D01*
G37*
G36*
X68280000Y-96202000D02*
X66880000Y-96202000D01*
X66880000Y-94552000D01*
X68280000Y-94552000D01*
X68280000Y-96202000D01*
X68280000Y-96202000D01*
G37*
G36*
X56929500Y-95979500D02*
X54029500Y-95979500D01*
X54029500Y-94679500D01*
X56929500Y-94679500D01*
X56929500Y-95979500D01*
X56929500Y-95979500D01*
G37*
G36*
X66085500Y-95575500D02*
X57485500Y-95575500D01*
X57485500Y-91875500D01*
X66085500Y-91875500D01*
X66085500Y-95575500D01*
X66085500Y-95575500D01*
G37*
G36*
X91060000Y-95346000D02*
X89460000Y-95346000D01*
X89460000Y-94646000D01*
X91060000Y-94646000D01*
X91060000Y-95346000D01*
X91060000Y-95346000D01*
G37*
G36*
X99860000Y-95346000D02*
X98260000Y-95346000D01*
X98260000Y-94646000D01*
X99860000Y-94646000D01*
X99860000Y-95346000D01*
X99860000Y-95346000D01*
G37*
G36*
X52362000Y-95331000D02*
X50762000Y-95331000D01*
X50762000Y-93731000D01*
X52362000Y-93731000D01*
X52362000Y-95331000D01*
X52362000Y-95331000D01*
G37*
G36*
X81523511Y-94347383D02*
X77323511Y-94347383D01*
X77323511Y-92547383D01*
X81523511Y-92547383D01*
X81523511Y-94347383D01*
X81523511Y-94347383D01*
G37*
G36*
X68280000Y-94170000D02*
X66880000Y-94170000D01*
X66880000Y-92520000D01*
X68280000Y-92520000D01*
X68280000Y-94170000D01*
X68280000Y-94170000D01*
G37*
G36*
X70280000Y-94170000D02*
X68880000Y-94170000D01*
X68880000Y-92520000D01*
X70280000Y-92520000D01*
X70280000Y-94170000D01*
X70280000Y-94170000D01*
G37*
G36*
X55381500Y-92148000D02*
X52822500Y-92148000D01*
X52822500Y-89970000D01*
X55381500Y-89970000D01*
X55381500Y-92148000D01*
X55381500Y-92148000D01*
G37*
G36*
X58814000Y-91335000D02*
X57414000Y-91335000D01*
X57414000Y-87735000D01*
X58814000Y-87735000D01*
X58814000Y-91335000D01*
X58814000Y-91335000D01*
G37*
G36*
X65014000Y-91335000D02*
X63614000Y-91335000D01*
X63614000Y-87735000D01*
X65014000Y-87735000D01*
X65014000Y-91335000D01*
X65014000Y-91335000D01*
G37*
G36*
X81523511Y-89947383D02*
X77323511Y-89947383D01*
X77323511Y-88147383D01*
X81523511Y-88147383D01*
X81523511Y-89947383D01*
X81523511Y-89947383D01*
G37*
G36*
X55381500Y-88084000D02*
X52822500Y-88084000D01*
X52822500Y-85906000D01*
X55381500Y-85906000D01*
X55381500Y-88084000D01*
X55381500Y-88084000D01*
G37*
G36*
X61698000Y-87337000D02*
X60598000Y-87337000D01*
X60598000Y-85637000D01*
X61698000Y-85637000D01*
X61698000Y-87337000D01*
X61698000Y-87337000D01*
G37*
G36*
X59798000Y-87337000D02*
X58698000Y-87337000D01*
X58698000Y-85637000D01*
X59798000Y-85637000D01*
X59798000Y-87337000D01*
X59798000Y-87337000D01*
G37*
G36*
X63962000Y-87287000D02*
X62362000Y-87287000D01*
X62362000Y-85687000D01*
X63962000Y-85687000D01*
X63962000Y-87287000D01*
X63962000Y-87287000D01*
G37*
G36*
X66162000Y-87287000D02*
X64562000Y-87287000D01*
X64562000Y-85687000D01*
X66162000Y-85687000D01*
X66162000Y-87287000D01*
X66162000Y-87287000D01*
G37*
G36*
X48507934Y-83002664D02*
X48662627Y-83066740D01*
X48801847Y-83159764D01*
X48920236Y-83278153D01*
X49013260Y-83417373D01*
X49077336Y-83572066D01*
X49110000Y-83736281D01*
X49110000Y-83903719D01*
X49077336Y-84067934D01*
X49013260Y-84222627D01*
X48920236Y-84361847D01*
X48801847Y-84480236D01*
X48662627Y-84573260D01*
X48507934Y-84637336D01*
X48343719Y-84670000D01*
X48176281Y-84670000D01*
X48012066Y-84637336D01*
X47857373Y-84573260D01*
X47718153Y-84480236D01*
X47599764Y-84361847D01*
X47506740Y-84222627D01*
X47442664Y-84067934D01*
X47410000Y-83903719D01*
X47410000Y-83736281D01*
X47442664Y-83572066D01*
X47506740Y-83417373D01*
X47599764Y-83278153D01*
X47718153Y-83159764D01*
X47857373Y-83066740D01*
X48012066Y-83002664D01*
X48176281Y-82970000D01*
X48343719Y-82970000D01*
X48507934Y-83002664D01*
X48507934Y-83002664D01*
G37*
G36*
X78147000Y-83857200D02*
X77047000Y-83857200D01*
X77047000Y-82157200D01*
X78147000Y-82157200D01*
X78147000Y-83857200D01*
X78147000Y-83857200D01*
G37*
G36*
X76247000Y-83857200D02*
X75147000Y-83857200D01*
X75147000Y-82157200D01*
X76247000Y-82157200D01*
X76247000Y-83857200D01*
X76247000Y-83857200D01*
G37*
G36*
X87930257Y-74992242D02*
X87932659Y-75016628D01*
X87939772Y-75040077D01*
X87951323Y-75061688D01*
X87966869Y-75080630D01*
X87985811Y-75096176D01*
X88007422Y-75107727D01*
X88030871Y-75114840D01*
X88055257Y-75117242D01*
X89905257Y-75117242D01*
X89905257Y-81667242D01*
X88055257Y-81667242D01*
X88030871Y-81669644D01*
X88007422Y-81676757D01*
X87985811Y-81688308D01*
X87966869Y-81703854D01*
X87951323Y-81722796D01*
X87939772Y-81744407D01*
X87932659Y-81767856D01*
X87930257Y-81792242D01*
X87930257Y-83642242D01*
X81380257Y-83642242D01*
X81380257Y-81792242D01*
X81377855Y-81767856D01*
X81370742Y-81744407D01*
X81359191Y-81722796D01*
X81343645Y-81703854D01*
X81324703Y-81688308D01*
X81303092Y-81676757D01*
X81279643Y-81669644D01*
X81255257Y-81667242D01*
X79405257Y-81667242D01*
X79405257Y-75267242D01*
X81405257Y-75267242D01*
X81405257Y-81517242D01*
X81407659Y-81541628D01*
X81414772Y-81565077D01*
X81426323Y-81586688D01*
X81441869Y-81605630D01*
X81460811Y-81621176D01*
X81482422Y-81632727D01*
X81505871Y-81639840D01*
X81530257Y-81642242D01*
X87780257Y-81642242D01*
X87804643Y-81639840D01*
X87828092Y-81632727D01*
X87849703Y-81621176D01*
X87868645Y-81605630D01*
X87884191Y-81586688D01*
X87895742Y-81565077D01*
X87902855Y-81541628D01*
X87905257Y-81517242D01*
X87905257Y-75267242D01*
X87902855Y-75242856D01*
X87895742Y-75219407D01*
X87884191Y-75197796D01*
X87868645Y-75178854D01*
X87849703Y-75163308D01*
X87828092Y-75151757D01*
X87804643Y-75144644D01*
X87780257Y-75142242D01*
X81530257Y-75142242D01*
X81505871Y-75144644D01*
X81482422Y-75151757D01*
X81460811Y-75163308D01*
X81441869Y-75178854D01*
X81426323Y-75197796D01*
X81414772Y-75219407D01*
X81407659Y-75242856D01*
X81405257Y-75267242D01*
X79405257Y-75267242D01*
X79405257Y-75117242D01*
X81255257Y-75117242D01*
X81279643Y-75114840D01*
X81303092Y-75107727D01*
X81324703Y-75096176D01*
X81343645Y-75080630D01*
X81359191Y-75061688D01*
X81370742Y-75040077D01*
X81377855Y-75016628D01*
X81380257Y-74992242D01*
X81380257Y-73142242D01*
X87930257Y-73142242D01*
X87930257Y-74992242D01*
X87930257Y-74992242D01*
G37*
G36*
X65341000Y-83488000D02*
X63691000Y-83488000D01*
X63691000Y-82088000D01*
X65341000Y-82088000D01*
X65341000Y-83488000D01*
X65341000Y-83488000D01*
G37*
G36*
X45967934Y-81732664D02*
X46122627Y-81796740D01*
X46261847Y-81889764D01*
X46380236Y-82008153D01*
X46473260Y-82147373D01*
X46537336Y-82302066D01*
X46570000Y-82466281D01*
X46570000Y-82633719D01*
X46537336Y-82797934D01*
X46473260Y-82952627D01*
X46380236Y-83091847D01*
X46261847Y-83210236D01*
X46122627Y-83303260D01*
X45967934Y-83367336D01*
X45803719Y-83400000D01*
X45636281Y-83400000D01*
X45472066Y-83367336D01*
X45317373Y-83303260D01*
X45178153Y-83210236D01*
X45059764Y-83091847D01*
X44966740Y-82952627D01*
X44902664Y-82797934D01*
X44870000Y-82633719D01*
X44870000Y-82466281D01*
X44902664Y-82302066D01*
X44966740Y-82147373D01*
X45059764Y-82008153D01*
X45178153Y-81889764D01*
X45317373Y-81796740D01*
X45472066Y-81732664D01*
X45636281Y-81700000D01*
X45803719Y-81700000D01*
X45967934Y-81732664D01*
X45967934Y-81732664D01*
G37*
G36*
X63298000Y-83263000D02*
X61838000Y-83263000D01*
X61838000Y-82213000D01*
X63298000Y-82213000D01*
X63298000Y-83263000D01*
X63298000Y-83263000D01*
G37*
G36*
X61098000Y-83263000D02*
X59638000Y-83263000D01*
X59638000Y-80313000D01*
X61098000Y-80313000D01*
X61098000Y-83263000D01*
X61098000Y-83263000D01*
G37*
G36*
X48507934Y-80462664D02*
X48662627Y-80526740D01*
X48801847Y-80619764D01*
X48920236Y-80738153D01*
X49013260Y-80877373D01*
X49077336Y-81032066D01*
X49110000Y-81196281D01*
X49110000Y-81363719D01*
X49077336Y-81527934D01*
X49013260Y-81682627D01*
X48920236Y-81821847D01*
X48801847Y-81940236D01*
X48662627Y-82033260D01*
X48507934Y-82097336D01*
X48343719Y-82130000D01*
X48176281Y-82130000D01*
X48012066Y-82097336D01*
X47857373Y-82033260D01*
X47718153Y-81940236D01*
X47599764Y-81821847D01*
X47506740Y-81682627D01*
X47442664Y-81527934D01*
X47410000Y-81363719D01*
X47410000Y-81196281D01*
X47442664Y-81032066D01*
X47506740Y-80877373D01*
X47599764Y-80738153D01*
X47718153Y-80619764D01*
X47857373Y-80526740D01*
X48012066Y-80462664D01*
X48176281Y-80430000D01*
X48343719Y-80430000D01*
X48507934Y-80462664D01*
X48507934Y-80462664D01*
G37*
G36*
X78147000Y-81901400D02*
X77047000Y-81901400D01*
X77047000Y-80201400D01*
X78147000Y-80201400D01*
X78147000Y-81901400D01*
X78147000Y-81901400D01*
G37*
G36*
X76247000Y-81901400D02*
X75147000Y-81901400D01*
X75147000Y-80201400D01*
X76247000Y-80201400D01*
X76247000Y-81901400D01*
X76247000Y-81901400D01*
G37*
G36*
X65341000Y-81488000D02*
X63691000Y-81488000D01*
X63691000Y-80088000D01*
X65341000Y-80088000D01*
X65341000Y-81488000D01*
X65341000Y-81488000D01*
G37*
G36*
X63298000Y-81363000D02*
X61838000Y-81363000D01*
X61838000Y-80313000D01*
X63298000Y-80313000D01*
X63298000Y-81363000D01*
X63298000Y-81363000D01*
G37*
G36*
X45967934Y-79192664D02*
X46122627Y-79256740D01*
X46261847Y-79349764D01*
X46380236Y-79468153D01*
X46473260Y-79607373D01*
X46537336Y-79762066D01*
X46570000Y-79926281D01*
X46570000Y-80093719D01*
X46537336Y-80257934D01*
X46473260Y-80412627D01*
X46380236Y-80551847D01*
X46261847Y-80670236D01*
X46122627Y-80763260D01*
X45967934Y-80827336D01*
X45803719Y-80860000D01*
X45636281Y-80860000D01*
X45472066Y-80827336D01*
X45317373Y-80763260D01*
X45178153Y-80670236D01*
X45059764Y-80551847D01*
X44966740Y-80412627D01*
X44902664Y-80257934D01*
X44870000Y-80093719D01*
X44870000Y-79926281D01*
X44902664Y-79762066D01*
X44966740Y-79607373D01*
X45059764Y-79468153D01*
X45178153Y-79349764D01*
X45317373Y-79256740D01*
X45472066Y-79192664D01*
X45636281Y-79160000D01*
X45803719Y-79160000D01*
X45967934Y-79192664D01*
X45967934Y-79192664D01*
G37*
G36*
X78354257Y-79788742D02*
X76954257Y-79788742D01*
X76954257Y-78138742D01*
X78354257Y-78138742D01*
X78354257Y-79788742D01*
X78354257Y-79788742D01*
G37*
G36*
X76354257Y-79788742D02*
X74954257Y-79788742D01*
X74954257Y-78138742D01*
X76354257Y-78138742D01*
X76354257Y-79788742D01*
X76354257Y-79788742D01*
G37*
G36*
X48507934Y-77922664D02*
X48662627Y-77986740D01*
X48801847Y-78079764D01*
X48920236Y-78198153D01*
X49013260Y-78337373D01*
X49077336Y-78492066D01*
X49110000Y-78656281D01*
X49110000Y-78823719D01*
X49077336Y-78987934D01*
X49013260Y-79142627D01*
X48920236Y-79281847D01*
X48801847Y-79400236D01*
X48662627Y-79493260D01*
X48507934Y-79557336D01*
X48343719Y-79590000D01*
X48176281Y-79590000D01*
X48012066Y-79557336D01*
X47857373Y-79493260D01*
X47718153Y-79400236D01*
X47599764Y-79281847D01*
X47506740Y-79142627D01*
X47442664Y-78987934D01*
X47410000Y-78823719D01*
X47410000Y-78656281D01*
X47442664Y-78492066D01*
X47506740Y-78337373D01*
X47599764Y-78198153D01*
X47718153Y-78079764D01*
X47857373Y-77986740D01*
X48012066Y-77922664D01*
X48176281Y-77890000D01*
X48343719Y-77890000D01*
X48507934Y-77922664D01*
X48507934Y-77922664D01*
G37*
G36*
X92102257Y-79407742D02*
X90702257Y-79407742D01*
X90702257Y-77757742D01*
X92102257Y-77757742D01*
X92102257Y-79407742D01*
X92102257Y-79407742D01*
G37*
G36*
X94102257Y-79407742D02*
X92702257Y-79407742D01*
X92702257Y-77757742D01*
X94102257Y-77757742D01*
X94102257Y-79407742D01*
X94102257Y-79407742D01*
G37*
G36*
X45967934Y-76652664D02*
X46122627Y-76716740D01*
X46261847Y-76809764D01*
X46380236Y-76928153D01*
X46473260Y-77067373D01*
X46537336Y-77222066D01*
X46570000Y-77386281D01*
X46570000Y-77553719D01*
X46537336Y-77717934D01*
X46473260Y-77872627D01*
X46380236Y-78011847D01*
X46261847Y-78130236D01*
X46122627Y-78223260D01*
X45967934Y-78287336D01*
X45803719Y-78320000D01*
X45636281Y-78320000D01*
X45472066Y-78287336D01*
X45317373Y-78223260D01*
X45178153Y-78130236D01*
X45059764Y-78011847D01*
X44966740Y-77872627D01*
X44902664Y-77717934D01*
X44870000Y-77553719D01*
X44870000Y-77386281D01*
X44902664Y-77222066D01*
X44966740Y-77067373D01*
X45059764Y-76928153D01*
X45178153Y-76809764D01*
X45317373Y-76716740D01*
X45472066Y-76652664D01*
X45636281Y-76620000D01*
X45803719Y-76620000D01*
X45967934Y-76652664D01*
X45967934Y-76652664D01*
G37*
G36*
X78154257Y-77781742D02*
X77054257Y-77781742D01*
X77054257Y-76081742D01*
X78154257Y-76081742D01*
X78154257Y-77781742D01*
X78154257Y-77781742D01*
G37*
G36*
X76254257Y-77781742D02*
X75154257Y-77781742D01*
X75154257Y-76081742D01*
X76254257Y-76081742D01*
X76254257Y-77781742D01*
X76254257Y-77781742D01*
G37*
G36*
X48507934Y-75382664D02*
X48662627Y-75446740D01*
X48801847Y-75539764D01*
X48920236Y-75658153D01*
X49013260Y-75797373D01*
X49077336Y-75952066D01*
X49110000Y-76116281D01*
X49110000Y-76283719D01*
X49077336Y-76447934D01*
X49013260Y-76602627D01*
X48920236Y-76741847D01*
X48801847Y-76860236D01*
X48662627Y-76953260D01*
X48507934Y-77017336D01*
X48343719Y-77050000D01*
X48176281Y-77050000D01*
X48012066Y-77017336D01*
X47857373Y-76953260D01*
X47718153Y-76860236D01*
X47599764Y-76741847D01*
X47506740Y-76602627D01*
X47442664Y-76447934D01*
X47410000Y-76283719D01*
X47410000Y-76116281D01*
X47442664Y-75952066D01*
X47506740Y-75797373D01*
X47599764Y-75658153D01*
X47718153Y-75539764D01*
X47857373Y-75446740D01*
X48012066Y-75382664D01*
X48176281Y-75350000D01*
X48343719Y-75350000D01*
X48507934Y-75382664D01*
X48507934Y-75382664D01*
G37*
G36*
X45967934Y-74112664D02*
X46122627Y-74176740D01*
X46261847Y-74269764D01*
X46380236Y-74388153D01*
X46473260Y-74527373D01*
X46537336Y-74682066D01*
X46570000Y-74846281D01*
X46570000Y-75013719D01*
X46537336Y-75177934D01*
X46473260Y-75332627D01*
X46380236Y-75471847D01*
X46261847Y-75590236D01*
X46122627Y-75683260D01*
X45967934Y-75747336D01*
X45803719Y-75780000D01*
X45636281Y-75780000D01*
X45472066Y-75747336D01*
X45317373Y-75683260D01*
X45178153Y-75590236D01*
X45059764Y-75471847D01*
X44966740Y-75332627D01*
X44902664Y-75177934D01*
X44870000Y-75013719D01*
X44870000Y-74846281D01*
X44902664Y-74682066D01*
X44966740Y-74527373D01*
X45059764Y-74388153D01*
X45178153Y-74269764D01*
X45317373Y-74176740D01*
X45472066Y-74112664D01*
X45636281Y-74080000D01*
X45803719Y-74080000D01*
X45967934Y-74112664D01*
X45967934Y-74112664D01*
G37*
G36*
X48507934Y-72842664D02*
X48662627Y-72906740D01*
X48801847Y-72999764D01*
X48920236Y-73118153D01*
X49013260Y-73257373D01*
X49077336Y-73412066D01*
X49110000Y-73576281D01*
X49110000Y-73743719D01*
X49077336Y-73907934D01*
X49013260Y-74062627D01*
X48920236Y-74201847D01*
X48801847Y-74320236D01*
X48662627Y-74413260D01*
X48507934Y-74477336D01*
X48343719Y-74510000D01*
X48176281Y-74510000D01*
X48012066Y-74477336D01*
X47857373Y-74413260D01*
X47718153Y-74320236D01*
X47599764Y-74201847D01*
X47506740Y-74062627D01*
X47442664Y-73907934D01*
X47410000Y-73743719D01*
X47410000Y-73576281D01*
X47442664Y-73412066D01*
X47506740Y-73257373D01*
X47599764Y-73118153D01*
X47718153Y-72999764D01*
X47857373Y-72906740D01*
X48012066Y-72842664D01*
X48176281Y-72810000D01*
X48343719Y-72810000D01*
X48507934Y-72842664D01*
X48507934Y-72842664D01*
G37*
G36*
X45967934Y-71572664D02*
X46122627Y-71636740D01*
X46261847Y-71729764D01*
X46380236Y-71848153D01*
X46473260Y-71987373D01*
X46537336Y-72142066D01*
X46570000Y-72306281D01*
X46570000Y-72473719D01*
X46537336Y-72637934D01*
X46473260Y-72792627D01*
X46380236Y-72931847D01*
X46261847Y-73050236D01*
X46122627Y-73143260D01*
X45967934Y-73207336D01*
X45803719Y-73240000D01*
X45636281Y-73240000D01*
X45472066Y-73207336D01*
X45317373Y-73143260D01*
X45178153Y-73050236D01*
X45059764Y-72931847D01*
X44966740Y-72792627D01*
X44902664Y-72637934D01*
X44870000Y-72473719D01*
X44870000Y-72306281D01*
X44902664Y-72142066D01*
X44966740Y-71987373D01*
X45059764Y-71848153D01*
X45178153Y-71729764D01*
X45317373Y-71636740D01*
X45472066Y-71572664D01*
X45636281Y-71540000D01*
X45803719Y-71540000D01*
X45967934Y-71572664D01*
X45967934Y-71572664D01*
G37*
G36*
X74775928Y-73184976D02*
X73675928Y-73184976D01*
X73675928Y-71484976D01*
X74775928Y-71484976D01*
X74775928Y-73184976D01*
X74775928Y-73184976D01*
G37*
G36*
X72875928Y-73184976D02*
X71775928Y-73184976D01*
X71775928Y-71484976D01*
X72875928Y-71484976D01*
X72875928Y-73184976D01*
X72875928Y-73184976D01*
G37*
G36*
X76735257Y-73159742D02*
X75135257Y-73159742D01*
X75135257Y-71559742D01*
X76735257Y-71559742D01*
X76735257Y-73159742D01*
X76735257Y-73159742D01*
G37*
G36*
X78935257Y-73159742D02*
X77335257Y-73159742D01*
X77335257Y-71559742D01*
X78935257Y-71559742D01*
X78935257Y-73159742D01*
X78935257Y-73159742D01*
G37*
G36*
X63365000Y-72763000D02*
X61415000Y-72763000D01*
X61415000Y-71763000D01*
X63365000Y-71763000D01*
X63365000Y-72763000D01*
X63365000Y-72763000D01*
G37*
G36*
X57965000Y-72763000D02*
X56015000Y-72763000D01*
X56015000Y-71763000D01*
X57965000Y-71763000D01*
X57965000Y-72763000D01*
X57965000Y-72763000D01*
G37*
G36*
X48507934Y-70302664D02*
X48662627Y-70366740D01*
X48801847Y-70459764D01*
X48920236Y-70578153D01*
X49013260Y-70717373D01*
X49077336Y-70872066D01*
X49110000Y-71036281D01*
X49110000Y-71203719D01*
X49077336Y-71367934D01*
X49013260Y-71522627D01*
X48920236Y-71661847D01*
X48801847Y-71780236D01*
X48662627Y-71873260D01*
X48507934Y-71937336D01*
X48343719Y-71970000D01*
X48176281Y-71970000D01*
X48012066Y-71937336D01*
X47857373Y-71873260D01*
X47718153Y-71780236D01*
X47599764Y-71661847D01*
X47506740Y-71522627D01*
X47442664Y-71367934D01*
X47410000Y-71203719D01*
X47410000Y-71036281D01*
X47442664Y-70872066D01*
X47506740Y-70717373D01*
X47599764Y-70578153D01*
X47718153Y-70459764D01*
X47857373Y-70366740D01*
X48012066Y-70302664D01*
X48176281Y-70270000D01*
X48343719Y-70270000D01*
X48507934Y-70302664D01*
X48507934Y-70302664D01*
G37*
G36*
X54190000Y-71858000D02*
X52490000Y-71858000D01*
X52490000Y-70758000D01*
X54190000Y-70758000D01*
X54190000Y-71858000D01*
X54190000Y-71858000D01*
G37*
G36*
X89678804Y-71779681D02*
X87878804Y-71779681D01*
X87878804Y-68579681D01*
X89678804Y-68579681D01*
X89678804Y-71779681D01*
X89678804Y-71779681D01*
G37*
G36*
X87478804Y-71779681D02*
X85678804Y-71779681D01*
X85678804Y-68579681D01*
X87478804Y-68579681D01*
X87478804Y-71779681D01*
X87478804Y-71779681D01*
G37*
G36*
X85099257Y-71773742D02*
X83449257Y-71773742D01*
X83449257Y-70373742D01*
X85099257Y-70373742D01*
X85099257Y-71773742D01*
X85099257Y-71773742D01*
G37*
G36*
X57965000Y-71493000D02*
X56015000Y-71493000D01*
X56015000Y-70493000D01*
X57965000Y-70493000D01*
X57965000Y-71493000D01*
X57965000Y-71493000D01*
G37*
G36*
X63365000Y-71493000D02*
X61415000Y-71493000D01*
X61415000Y-70493000D01*
X63365000Y-70493000D01*
X63365000Y-71493000D01*
X63365000Y-71493000D01*
G37*
G36*
X103554000Y-71183000D02*
X102154000Y-71183000D01*
X102154000Y-69533000D01*
X103554000Y-69533000D01*
X103554000Y-71183000D01*
X103554000Y-71183000D01*
G37*
G36*
X101554000Y-71183000D02*
X100154000Y-71183000D01*
X100154000Y-69533000D01*
X101554000Y-69533000D01*
X101554000Y-71183000D01*
X101554000Y-71183000D01*
G37*
G36*
X45967934Y-69032664D02*
X46122627Y-69096740D01*
X46261847Y-69189764D01*
X46380236Y-69308153D01*
X46473260Y-69447373D01*
X46537336Y-69602066D01*
X46570000Y-69766281D01*
X46570000Y-69933719D01*
X46537336Y-70097934D01*
X46473260Y-70252627D01*
X46380236Y-70391847D01*
X46261847Y-70510236D01*
X46122627Y-70603260D01*
X45967934Y-70667336D01*
X45803719Y-70700000D01*
X45636281Y-70700000D01*
X45472066Y-70667336D01*
X45317373Y-70603260D01*
X45178153Y-70510236D01*
X45059764Y-70391847D01*
X44966740Y-70252627D01*
X44902664Y-70097934D01*
X44870000Y-69933719D01*
X44870000Y-69766281D01*
X44902664Y-69602066D01*
X44966740Y-69447373D01*
X45059764Y-69308153D01*
X45178153Y-69189764D01*
X45317373Y-69096740D01*
X45472066Y-69032664D01*
X45636281Y-69000000D01*
X45803719Y-69000000D01*
X45967934Y-69032664D01*
X45967934Y-69032664D01*
G37*
G36*
X74775928Y-70644976D02*
X73675928Y-70644976D01*
X73675928Y-68944976D01*
X74775928Y-68944976D01*
X74775928Y-70644976D01*
X74775928Y-70644976D01*
G37*
G36*
X72875928Y-70644976D02*
X71775928Y-70644976D01*
X71775928Y-68944976D01*
X72875928Y-68944976D01*
X72875928Y-70644976D01*
X72875928Y-70644976D01*
G37*
G36*
X76735257Y-70594976D02*
X75135257Y-70594976D01*
X75135257Y-68994976D01*
X76735257Y-68994976D01*
X76735257Y-70594976D01*
X76735257Y-70594976D01*
G37*
G36*
X78935257Y-70594976D02*
X77335257Y-70594976D01*
X77335257Y-68994976D01*
X78935257Y-68994976D01*
X78935257Y-70594976D01*
X78935257Y-70594976D01*
G37*
G36*
X57965000Y-70223000D02*
X56015000Y-70223000D01*
X56015000Y-69223000D01*
X57965000Y-69223000D01*
X57965000Y-70223000D01*
X57965000Y-70223000D01*
G37*
G36*
X63365000Y-70223000D02*
X61415000Y-70223000D01*
X61415000Y-69223000D01*
X63365000Y-69223000D01*
X63365000Y-70223000D01*
X63365000Y-70223000D01*
G37*
G36*
X54190000Y-69958000D02*
X52490000Y-69958000D01*
X52490000Y-68858000D01*
X54190000Y-68858000D01*
X54190000Y-69958000D01*
X54190000Y-69958000D01*
G37*
G36*
X85099257Y-69773742D02*
X83449257Y-69773742D01*
X83449257Y-68373742D01*
X85099257Y-68373742D01*
X85099257Y-69773742D01*
X85099257Y-69773742D01*
G37*
G36*
X48507934Y-67762664D02*
X48662627Y-67826740D01*
X48801847Y-67919764D01*
X48920236Y-68038153D01*
X49013260Y-68177373D01*
X49077336Y-68332066D01*
X49110000Y-68496281D01*
X49110000Y-68663719D01*
X49077336Y-68827934D01*
X49013260Y-68982627D01*
X48920236Y-69121847D01*
X48801847Y-69240236D01*
X48662627Y-69333260D01*
X48507934Y-69397336D01*
X48343719Y-69430000D01*
X48176281Y-69430000D01*
X48012066Y-69397336D01*
X47857373Y-69333260D01*
X47718153Y-69240236D01*
X47599764Y-69121847D01*
X47506740Y-68982627D01*
X47442664Y-68827934D01*
X47410000Y-68663719D01*
X47410000Y-68496281D01*
X47442664Y-68332066D01*
X47506740Y-68177373D01*
X47599764Y-68038153D01*
X47718153Y-67919764D01*
X47857373Y-67826740D01*
X48012066Y-67762664D01*
X48176281Y-67730000D01*
X48343719Y-67730000D01*
X48507934Y-67762664D01*
X48507934Y-67762664D01*
G37*
G36*
X98306521Y-67206586D02*
X98470309Y-67274429D01*
X98617720Y-67372926D01*
X98743074Y-67498280D01*
X98841571Y-67645691D01*
X98909414Y-67809479D01*
X98944000Y-67983356D01*
X98944000Y-68160644D01*
X98909414Y-68334521D01*
X98841571Y-68498309D01*
X98743074Y-68645720D01*
X98617720Y-68771074D01*
X98470309Y-68869571D01*
X98306521Y-68937414D01*
X98132644Y-68972000D01*
X97955356Y-68972000D01*
X97781479Y-68937414D01*
X97617691Y-68869571D01*
X97470280Y-68771074D01*
X97344926Y-68645720D01*
X97246429Y-68498309D01*
X97178586Y-68334521D01*
X97144000Y-68160644D01*
X97144000Y-67983356D01*
X97178586Y-67809479D01*
X97246429Y-67645691D01*
X97344926Y-67498280D01*
X97470280Y-67372926D01*
X97617691Y-67274429D01*
X97781479Y-67206586D01*
X97955356Y-67172000D01*
X98132644Y-67172000D01*
X98306521Y-67206586D01*
X98306521Y-67206586D01*
G37*
G36*
X95766521Y-67206586D02*
X95930309Y-67274429D01*
X96077720Y-67372926D01*
X96203074Y-67498280D01*
X96301571Y-67645691D01*
X96369414Y-67809479D01*
X96404000Y-67983356D01*
X96404000Y-68160644D01*
X96369414Y-68334521D01*
X96301571Y-68498309D01*
X96203074Y-68645720D01*
X96077720Y-68771074D01*
X95930309Y-68869571D01*
X95766521Y-68937414D01*
X95592644Y-68972000D01*
X95415356Y-68972000D01*
X95241479Y-68937414D01*
X95077691Y-68869571D01*
X94930280Y-68771074D01*
X94804926Y-68645720D01*
X94706429Y-68498309D01*
X94638586Y-68334521D01*
X94604000Y-68160644D01*
X94604000Y-67983356D01*
X94638586Y-67809479D01*
X94706429Y-67645691D01*
X94804926Y-67498280D01*
X94930280Y-67372926D01*
X95077691Y-67274429D01*
X95241479Y-67206586D01*
X95415356Y-67172000D01*
X95592644Y-67172000D01*
X95766521Y-67206586D01*
X95766521Y-67206586D01*
G37*
G36*
X57965000Y-68953000D02*
X56015000Y-68953000D01*
X56015000Y-67953000D01*
X57965000Y-67953000D01*
X57965000Y-68953000D01*
X57965000Y-68953000D01*
G37*
G36*
X63365000Y-68953000D02*
X61415000Y-68953000D01*
X61415000Y-67953000D01*
X63365000Y-67953000D01*
X63365000Y-68953000D01*
X63365000Y-68953000D01*
G37*
G36*
X113420000Y-68531000D02*
X111960000Y-68531000D01*
X111960000Y-67481000D01*
X113420000Y-67481000D01*
X113420000Y-68531000D01*
X113420000Y-68531000D01*
G37*
G36*
X101738000Y-68531000D02*
X100278000Y-68531000D01*
X100278000Y-67481000D01*
X101738000Y-67481000D01*
X101738000Y-68531000D01*
X101738000Y-68531000D01*
G37*
G36*
X103938000Y-68531000D02*
X102478000Y-68531000D01*
X102478000Y-65581000D01*
X103938000Y-65581000D01*
X103938000Y-68531000D01*
X103938000Y-68531000D01*
G37*
G36*
X111220000Y-68531000D02*
X109760000Y-68531000D01*
X109760000Y-65581000D01*
X111220000Y-65581000D01*
X111220000Y-68531000D01*
X111220000Y-68531000D01*
G37*
G36*
X74775928Y-68358976D02*
X73675928Y-68358976D01*
X73675928Y-66658976D01*
X74775928Y-66658976D01*
X74775928Y-68358976D01*
X74775928Y-68358976D01*
G37*
G36*
X72875928Y-68358976D02*
X71775928Y-68358976D01*
X71775928Y-66658976D01*
X72875928Y-66658976D01*
X72875928Y-68358976D01*
X72875928Y-68358976D01*
G37*
G36*
X76735257Y-68333742D02*
X75135257Y-68333742D01*
X75135257Y-66733742D01*
X76735257Y-66733742D01*
X76735257Y-68333742D01*
X76735257Y-68333742D01*
G37*
G36*
X78935257Y-68333742D02*
X77335257Y-68333742D01*
X77335257Y-66733742D01*
X78935257Y-66733742D01*
X78935257Y-68333742D01*
X78935257Y-68333742D01*
G37*
G36*
X47870026Y-64756115D02*
X48088412Y-64846573D01*
X48284958Y-64977901D01*
X48452099Y-65145042D01*
X48583427Y-65341588D01*
X48673885Y-65559974D01*
X48720000Y-65791809D01*
X48720000Y-66028191D01*
X48673885Y-66260026D01*
X48583427Y-66478412D01*
X48452099Y-66674958D01*
X48284958Y-66842099D01*
X48088412Y-66973427D01*
X47870026Y-67063885D01*
X47638191Y-67110000D01*
X47401809Y-67110000D01*
X47169974Y-67063885D01*
X46951588Y-66973427D01*
X46755042Y-66842099D01*
X46671824Y-66758881D01*
X46652882Y-66743335D01*
X46631271Y-66731784D01*
X46607822Y-66724671D01*
X46583436Y-66722269D01*
X46559050Y-66724671D01*
X46535601Y-66731784D01*
X46513990Y-66743335D01*
X46495048Y-66758881D01*
X46479502Y-66777823D01*
X46467951Y-66799434D01*
X46460838Y-66822883D01*
X46458436Y-66847269D01*
X46460838Y-66871655D01*
X46467951Y-66895104D01*
X46468959Y-66896990D01*
X46537336Y-67062066D01*
X46570000Y-67226281D01*
X46570000Y-67393719D01*
X46537336Y-67557934D01*
X46473260Y-67712627D01*
X46380236Y-67851847D01*
X46261847Y-67970236D01*
X46122627Y-68063260D01*
X45967934Y-68127336D01*
X45803719Y-68160000D01*
X45636281Y-68160000D01*
X45472066Y-68127336D01*
X45317373Y-68063260D01*
X45178153Y-67970236D01*
X45059764Y-67851847D01*
X44966740Y-67712627D01*
X44902664Y-67557934D01*
X44870000Y-67393719D01*
X44870000Y-67226281D01*
X44902664Y-67062066D01*
X44966740Y-66907373D01*
X45059764Y-66768153D01*
X45178153Y-66649764D01*
X45317373Y-66556740D01*
X45472066Y-66492664D01*
X45636281Y-66460000D01*
X45803719Y-66460000D01*
X45967934Y-66492664D01*
X46122627Y-66556740D01*
X46261847Y-66649764D01*
X46296312Y-66684229D01*
X46315254Y-66699775D01*
X46336865Y-66711326D01*
X46360314Y-66718439D01*
X46384700Y-66720841D01*
X46409086Y-66718439D01*
X46432535Y-66711326D01*
X46454146Y-66699775D01*
X46473088Y-66684229D01*
X46488634Y-66665287D01*
X46500185Y-66643676D01*
X46507298Y-66620227D01*
X46509700Y-66595841D01*
X46507298Y-66571455D01*
X46500185Y-66548006D01*
X46488634Y-66526395D01*
X46456573Y-66478412D01*
X46366115Y-66260026D01*
X46320000Y-66028191D01*
X46320000Y-65791809D01*
X46366115Y-65559974D01*
X46456573Y-65341588D01*
X46587901Y-65145042D01*
X46755042Y-64977901D01*
X46951588Y-64846573D01*
X47169974Y-64756115D01*
X47401809Y-64710000D01*
X47638191Y-64710000D01*
X47870026Y-64756115D01*
X47870026Y-64756115D01*
G37*
G36*
X89149257Y-67723742D02*
X87749257Y-67723742D01*
X87749257Y-66073742D01*
X89149257Y-66073742D01*
X89149257Y-67723742D01*
X89149257Y-67723742D01*
G37*
G36*
X87149257Y-67723742D02*
X85749257Y-67723742D01*
X85749257Y-66073742D01*
X87149257Y-66073742D01*
X87149257Y-67723742D01*
X87149257Y-67723742D01*
G37*
G36*
X59374000Y-67373000D02*
X57974000Y-67373000D01*
X57974000Y-65723000D01*
X59374000Y-65723000D01*
X59374000Y-67373000D01*
X59374000Y-67373000D01*
G37*
G36*
X61374000Y-67373000D02*
X59974000Y-67373000D01*
X59974000Y-65723000D01*
X61374000Y-65723000D01*
X61374000Y-67373000D01*
X61374000Y-67373000D01*
G37*
G36*
X93560000Y-67286000D02*
X91860000Y-67286000D01*
X91860000Y-66186000D01*
X93560000Y-66186000D01*
X93560000Y-67286000D01*
X93560000Y-67286000D01*
G37*
G36*
X113420000Y-66631000D02*
X111960000Y-66631000D01*
X111960000Y-65581000D01*
X113420000Y-65581000D01*
X113420000Y-66631000D01*
X113420000Y-66631000D01*
G37*
G36*
X101738000Y-66631000D02*
X100278000Y-66631000D01*
X100278000Y-65581000D01*
X101738000Y-65581000D01*
X101738000Y-66631000D01*
X101738000Y-66631000D01*
G37*
G36*
X98306521Y-64666586D02*
X98470309Y-64734429D01*
X98617720Y-64832926D01*
X98743074Y-64958280D01*
X98841571Y-65105691D01*
X98909414Y-65269479D01*
X98944000Y-65443356D01*
X98944000Y-65620644D01*
X98909414Y-65794521D01*
X98841571Y-65958309D01*
X98743074Y-66105720D01*
X98617720Y-66231074D01*
X98470309Y-66329571D01*
X98306521Y-66397414D01*
X98132644Y-66432000D01*
X97955356Y-66432000D01*
X97781479Y-66397414D01*
X97617691Y-66329571D01*
X97470280Y-66231074D01*
X97344926Y-66105720D01*
X97246429Y-65958309D01*
X97178586Y-65794521D01*
X97144000Y-65620644D01*
X97144000Y-65443356D01*
X97178586Y-65269479D01*
X97246429Y-65105691D01*
X97344926Y-64958280D01*
X97470280Y-64832926D01*
X97617691Y-64734429D01*
X97781479Y-64666586D01*
X97955356Y-64632000D01*
X98132644Y-64632000D01*
X98306521Y-64666586D01*
X98306521Y-64666586D01*
G37*
G36*
X95766521Y-64666586D02*
X95930309Y-64734429D01*
X96077720Y-64832926D01*
X96203074Y-64958280D01*
X96301571Y-65105691D01*
X96369414Y-65269479D01*
X96404000Y-65443356D01*
X96404000Y-65620644D01*
X96369414Y-65794521D01*
X96301571Y-65958309D01*
X96203074Y-66105720D01*
X96077720Y-66231074D01*
X95930309Y-66329571D01*
X95766521Y-66397414D01*
X95592644Y-66432000D01*
X95415356Y-66432000D01*
X95241479Y-66397414D01*
X95077691Y-66329571D01*
X94930280Y-66231074D01*
X94804926Y-66105720D01*
X94706429Y-65958309D01*
X94638586Y-65794521D01*
X94604000Y-65620644D01*
X94604000Y-65443356D01*
X94638586Y-65269479D01*
X94706429Y-65105691D01*
X94804926Y-64958280D01*
X94930280Y-64832926D01*
X95077691Y-64734429D01*
X95241479Y-64666586D01*
X95415356Y-64632000D01*
X95592644Y-64632000D01*
X95766521Y-64666586D01*
X95766521Y-64666586D01*
G37*
G36*
X93560000Y-65386000D02*
X91860000Y-65386000D01*
X91860000Y-64286000D01*
X93560000Y-64286000D01*
X93560000Y-65386000D01*
X93560000Y-65386000D01*
G37*
G36*
X103354000Y-64858000D02*
X102254000Y-64858000D01*
X102254000Y-63158000D01*
X103354000Y-63158000D01*
X103354000Y-64858000D01*
X103354000Y-64858000D01*
G37*
G36*
X104756000Y-64858000D02*
X103656000Y-64858000D01*
X103656000Y-63158000D01*
X104756000Y-63158000D01*
X104756000Y-64858000D01*
X104756000Y-64858000D01*
G37*
G36*
X101454000Y-64858000D02*
X100354000Y-64858000D01*
X100354000Y-63158000D01*
X101454000Y-63158000D01*
X101454000Y-64858000D01*
X101454000Y-64858000D01*
G37*
G36*
X106656000Y-64858000D02*
X105556000Y-64858000D01*
X105556000Y-63158000D01*
X106656000Y-63158000D01*
X106656000Y-64858000D01*
X106656000Y-64858000D01*
G37*
G36*
X113626000Y-64492000D02*
X111926000Y-64492000D01*
X111926000Y-63392000D01*
X113626000Y-63392000D01*
X113626000Y-64492000D01*
X113626000Y-64492000D01*
G37*
G36*
X98306521Y-62126586D02*
X98470309Y-62194429D01*
X98617720Y-62292926D01*
X98743074Y-62418280D01*
X98841571Y-62565691D01*
X98909414Y-62729479D01*
X98944000Y-62903356D01*
X98944000Y-63080644D01*
X98909414Y-63254521D01*
X98841571Y-63418309D01*
X98743074Y-63565720D01*
X98617720Y-63691074D01*
X98470309Y-63789571D01*
X98306521Y-63857414D01*
X98132644Y-63892000D01*
X97955356Y-63892000D01*
X97781479Y-63857414D01*
X97617691Y-63789571D01*
X97470280Y-63691074D01*
X97344926Y-63565720D01*
X97246429Y-63418309D01*
X97178586Y-63254521D01*
X97144000Y-63080644D01*
X97144000Y-62903356D01*
X97178586Y-62729479D01*
X97246429Y-62565691D01*
X97344926Y-62418280D01*
X97470280Y-62292926D01*
X97617691Y-62194429D01*
X97781479Y-62126586D01*
X97955356Y-62092000D01*
X98132644Y-62092000D01*
X98306521Y-62126586D01*
X98306521Y-62126586D01*
G37*
G36*
X96404000Y-63892000D02*
X94604000Y-63892000D01*
X94604000Y-62092000D01*
X96404000Y-62092000D01*
X96404000Y-63892000D01*
X96404000Y-63892000D01*
G37*
G36*
X111203000Y-63806000D02*
X108253000Y-63806000D01*
X108253000Y-62346000D01*
X111203000Y-62346000D01*
X111203000Y-63806000D01*
X111203000Y-63806000D01*
G37*
G36*
X113626000Y-62592000D02*
X111926000Y-62592000D01*
X111926000Y-61492000D01*
X113626000Y-61492000D01*
X113626000Y-62592000D01*
X113626000Y-62592000D01*
G37*
G36*
X102679000Y-62152000D02*
X101029000Y-62152000D01*
X101029000Y-60752000D01*
X102679000Y-60752000D01*
X102679000Y-62152000D01*
X102679000Y-62152000D01*
G37*
G36*
X104786000Y-61927000D02*
X103326000Y-61927000D01*
X103326000Y-60877000D01*
X104786000Y-60877000D01*
X104786000Y-61927000D01*
X104786000Y-61927000D01*
G37*
G36*
X106986000Y-61927000D02*
X105526000Y-61927000D01*
X105526000Y-58977000D01*
X106986000Y-58977000D01*
X106986000Y-61927000D01*
X106986000Y-61927000D01*
G37*
G36*
X46377650Y-59564694D02*
X46584570Y-59650403D01*
X46770798Y-59774837D01*
X46929163Y-59933202D01*
X47053597Y-60119430D01*
X47139306Y-60326350D01*
X47183000Y-60546014D01*
X47183000Y-60769986D01*
X47139306Y-60989650D01*
X47053597Y-61196570D01*
X46929163Y-61382798D01*
X46770798Y-61541163D01*
X46584570Y-61665597D01*
X46377650Y-61751306D01*
X46157986Y-61795000D01*
X45934014Y-61795000D01*
X45714350Y-61751306D01*
X45507430Y-61665597D01*
X45321202Y-61541163D01*
X45162837Y-61382798D01*
X45038403Y-61196570D01*
X44952694Y-60989650D01*
X44909000Y-60769986D01*
X44909000Y-60546014D01*
X44952694Y-60326350D01*
X45038403Y-60119430D01*
X45162837Y-59933202D01*
X45321202Y-59774837D01*
X45507430Y-59650403D01*
X45714350Y-59564694D01*
X45934014Y-59521000D01*
X46157986Y-59521000D01*
X46377650Y-59564694D01*
X46377650Y-59564694D01*
G37*
G36*
X109303000Y-61606000D02*
X108253000Y-61606000D01*
X108253000Y-60146000D01*
X109303000Y-60146000D01*
X109303000Y-61606000D01*
X109303000Y-61606000D01*
G37*
G36*
X111203000Y-61606000D02*
X110153000Y-61606000D01*
X110153000Y-60146000D01*
X111203000Y-60146000D01*
X111203000Y-61606000D01*
X111203000Y-61606000D01*
G37*
G36*
X113626000Y-60936000D02*
X111926000Y-60936000D01*
X111926000Y-59836000D01*
X113626000Y-59836000D01*
X113626000Y-60936000D01*
X113626000Y-60936000D01*
G37*
G36*
X100418000Y-60936000D02*
X98718000Y-60936000D01*
X98718000Y-59836000D01*
X100418000Y-59836000D01*
X100418000Y-60936000D01*
X100418000Y-60936000D01*
G37*
G36*
X85436000Y-60832000D02*
X84236000Y-60832000D01*
X84236000Y-59532000D01*
X85436000Y-59532000D01*
X85436000Y-60832000D01*
X85436000Y-60832000D01*
G37*
G36*
X81600857Y-58632272D02*
X81801042Y-58715191D01*
X81801045Y-58715193D01*
X81975859Y-58832000D01*
X81981213Y-58835578D01*
X82134422Y-58988787D01*
X82254809Y-59168958D01*
X82337728Y-59369143D01*
X82380000Y-59581658D01*
X82380000Y-59798342D01*
X82337728Y-60010857D01*
X82254809Y-60211042D01*
X82134422Y-60391213D01*
X81981213Y-60544422D01*
X81981210Y-60544424D01*
X81981209Y-60544425D01*
X81978829Y-60546015D01*
X81801042Y-60664809D01*
X81600857Y-60747728D01*
X81388342Y-60790000D01*
X81171658Y-60790000D01*
X80959143Y-60747728D01*
X80758958Y-60664809D01*
X80581171Y-60546015D01*
X80578791Y-60544425D01*
X80578790Y-60544424D01*
X80578787Y-60544422D01*
X80425578Y-60391213D01*
X80305191Y-60211042D01*
X80222272Y-60010857D01*
X80180000Y-59798342D01*
X80180000Y-59581658D01*
X80222272Y-59369143D01*
X80305191Y-59168958D01*
X80425578Y-58988787D01*
X80578787Y-58835578D01*
X80584142Y-58832000D01*
X80758955Y-58715193D01*
X80758958Y-58715191D01*
X80959143Y-58632272D01*
X81171658Y-58590000D01*
X81388342Y-58590000D01*
X81600857Y-58632272D01*
X81600857Y-58632272D01*
G37*
G36*
X102679000Y-60152000D02*
X101029000Y-60152000D01*
X101029000Y-58752000D01*
X102679000Y-58752000D01*
X102679000Y-60152000D01*
X102679000Y-60152000D01*
G37*
G36*
X96120000Y-60032000D02*
X95020000Y-60032000D01*
X95020000Y-58332000D01*
X96120000Y-58332000D01*
X96120000Y-60032000D01*
X96120000Y-60032000D01*
G37*
G36*
X98020000Y-60032000D02*
X96920000Y-60032000D01*
X96920000Y-58332000D01*
X98020000Y-58332000D01*
X98020000Y-60032000D01*
X98020000Y-60032000D01*
G37*
G36*
X104786000Y-60027000D02*
X103326000Y-60027000D01*
X103326000Y-58977000D01*
X104786000Y-58977000D01*
X104786000Y-60027000D01*
X104786000Y-60027000D01*
G37*
G36*
X109428000Y-59499000D02*
X108028000Y-59499000D01*
X108028000Y-57849000D01*
X109428000Y-57849000D01*
X109428000Y-59499000D01*
X109428000Y-59499000D01*
G37*
G36*
X111428000Y-59499000D02*
X110028000Y-59499000D01*
X110028000Y-57849000D01*
X111428000Y-57849000D01*
X111428000Y-59499000D01*
X111428000Y-59499000D01*
G37*
G36*
X113626000Y-59036000D02*
X111926000Y-59036000D01*
X111926000Y-57936000D01*
X113626000Y-57936000D01*
X113626000Y-59036000D01*
X113626000Y-59036000D01*
G37*
G36*
X100418000Y-59036000D02*
X98718000Y-59036000D01*
X98718000Y-57936000D01*
X100418000Y-57936000D01*
X100418000Y-59036000D01*
X100418000Y-59036000D01*
G37*
G36*
X86386000Y-58832000D02*
X85186000Y-58832000D01*
X85186000Y-57532000D01*
X86386000Y-57532000D01*
X86386000Y-58832000D01*
X86386000Y-58832000D01*
G37*
G36*
X84486000Y-58832000D02*
X83286000Y-58832000D01*
X83286000Y-57532000D01*
X84486000Y-57532000D01*
X84486000Y-58832000D01*
X84486000Y-58832000D01*
G37*
G36*
X48286603Y-56732968D02*
X48286606Y-56732969D01*
X48286605Y-56732969D01*
X48461678Y-56805486D01*
X48461679Y-56805487D01*
X48619241Y-56910767D01*
X48753233Y-57044759D01*
X48753234Y-57044761D01*
X48858514Y-57202322D01*
X48914603Y-57337734D01*
X48931032Y-57377397D01*
X48968000Y-57563250D01*
X48968000Y-57752750D01*
X48931032Y-57938603D01*
X48931031Y-57938605D01*
X48858514Y-58113678D01*
X48858513Y-58113679D01*
X48753233Y-58271241D01*
X48619241Y-58405233D01*
X48539923Y-58458232D01*
X48461678Y-58510514D01*
X48326266Y-58566603D01*
X48286603Y-58583032D01*
X48100750Y-58620000D01*
X47911250Y-58620000D01*
X47725397Y-58583032D01*
X47685734Y-58566603D01*
X47550322Y-58510514D01*
X47472077Y-58458232D01*
X47392759Y-58405233D01*
X47258767Y-58271241D01*
X47153487Y-58113679D01*
X47153486Y-58113678D01*
X47080969Y-57938605D01*
X47080968Y-57938603D01*
X47044000Y-57752750D01*
X47044000Y-57563250D01*
X47080968Y-57377397D01*
X47097397Y-57337734D01*
X47153486Y-57202322D01*
X47258766Y-57044761D01*
X47258767Y-57044759D01*
X47392759Y-56910767D01*
X47550321Y-56805487D01*
X47550322Y-56805486D01*
X47725395Y-56732969D01*
X47725394Y-56732969D01*
X47725397Y-56732968D01*
X47911250Y-56696000D01*
X48100750Y-56696000D01*
X48286603Y-56732968D01*
X48286603Y-56732968D01*
G37*
G36*
X90720000Y-57746000D02*
X89620000Y-57746000D01*
X89620000Y-56046000D01*
X90720000Y-56046000D01*
X90720000Y-57746000D01*
X90720000Y-57746000D01*
G37*
G36*
X92620000Y-57746000D02*
X91520000Y-57746000D01*
X91520000Y-56046000D01*
X92620000Y-56046000D01*
X92620000Y-57746000D01*
X92620000Y-57746000D01*
G37*
G36*
X95104000Y-57746000D02*
X94004000Y-57746000D01*
X94004000Y-56046000D01*
X95104000Y-56046000D01*
X95104000Y-57746000D01*
X95104000Y-57746000D01*
G37*
G36*
X97004000Y-57746000D02*
X95904000Y-57746000D01*
X95904000Y-56046000D01*
X97004000Y-56046000D01*
X97004000Y-57746000D01*
X97004000Y-57746000D01*
G37*
G36*
X99676000Y-57492000D02*
X98576000Y-57492000D01*
X98576000Y-55792000D01*
X99676000Y-55792000D01*
X99676000Y-57492000D01*
X99676000Y-57492000D01*
G37*
G36*
X101576000Y-57492000D02*
X100476000Y-57492000D01*
X100476000Y-55792000D01*
X101576000Y-55792000D01*
X101576000Y-57492000D01*
X101576000Y-57492000D01*
G37*
G36*
X103232000Y-57492000D02*
X102132000Y-57492000D01*
X102132000Y-55792000D01*
X103232000Y-55792000D01*
X103232000Y-57492000D01*
X103232000Y-57492000D01*
G37*
G36*
X105132000Y-57492000D02*
X104032000Y-57492000D01*
X104032000Y-55792000D01*
X105132000Y-55792000D01*
X105132000Y-57492000D01*
X105132000Y-57492000D01*
G37*
G36*
X48286603Y-53732968D02*
X48286606Y-53732969D01*
X48286605Y-53732969D01*
X48461678Y-53805486D01*
X48461679Y-53805487D01*
X48619241Y-53910767D01*
X48753233Y-54044759D01*
X48753234Y-54044761D01*
X48858514Y-54202322D01*
X48877917Y-54249166D01*
X48931032Y-54377397D01*
X48968000Y-54563250D01*
X48968000Y-54752750D01*
X48931032Y-54938603D01*
X48931031Y-54938605D01*
X48858514Y-55113678D01*
X48846204Y-55132101D01*
X48753233Y-55271241D01*
X48619241Y-55405233D01*
X48539923Y-55458232D01*
X48461678Y-55510514D01*
X48326266Y-55566603D01*
X48286603Y-55583032D01*
X48100750Y-55620000D01*
X47911250Y-55620000D01*
X47725397Y-55583032D01*
X47685734Y-55566603D01*
X47550322Y-55510514D01*
X47472077Y-55458232D01*
X47392759Y-55405233D01*
X47258767Y-55271241D01*
X47165796Y-55132101D01*
X47153486Y-55113678D01*
X47080969Y-54938605D01*
X47080968Y-54938603D01*
X47044000Y-54752750D01*
X47044000Y-54563250D01*
X47080968Y-54377397D01*
X47134083Y-54249166D01*
X47153486Y-54202322D01*
X47258766Y-54044761D01*
X47258767Y-54044759D01*
X47392759Y-53910767D01*
X47550321Y-53805487D01*
X47550322Y-53805486D01*
X47725395Y-53732969D01*
X47725394Y-53732969D01*
X47725397Y-53732968D01*
X47911250Y-53696000D01*
X48100750Y-53696000D01*
X48286603Y-53732968D01*
X48286603Y-53732968D01*
G37*
G36*
X113131250Y-50277899D02*
X113131252Y-50277900D01*
X113131253Y-50277900D01*
X113590610Y-50468172D01*
X114004023Y-50744406D01*
X114355594Y-51095977D01*
X114355596Y-51095980D01*
X114631828Y-51509390D01*
X114819164Y-51961658D01*
X114822101Y-51968750D01*
X114919100Y-52456396D01*
X114919100Y-52953604D01*
X114824237Y-53430514D01*
X114822100Y-53441253D01*
X114716580Y-53696000D01*
X114631828Y-53900610D01*
X114355594Y-54314023D01*
X114004023Y-54665594D01*
X114004020Y-54665596D01*
X113590610Y-54941828D01*
X113131253Y-55132100D01*
X113131252Y-55132100D01*
X113131250Y-55132101D01*
X112643604Y-55229100D01*
X112146396Y-55229100D01*
X111658750Y-55132101D01*
X111658748Y-55132100D01*
X111658747Y-55132100D01*
X111199390Y-54941828D01*
X110785980Y-54665596D01*
X110785977Y-54665594D01*
X110434406Y-54314023D01*
X110158172Y-53900610D01*
X110073420Y-53696000D01*
X109967900Y-53441253D01*
X109965764Y-53430514D01*
X109870900Y-52953604D01*
X109870900Y-52456396D01*
X109967899Y-51968750D01*
X109970837Y-51961658D01*
X110158172Y-51509390D01*
X110434404Y-51095980D01*
X110434406Y-51095977D01*
X110785977Y-50744406D01*
X111199390Y-50468172D01*
X111658747Y-50277900D01*
X111658748Y-50277900D01*
X111658750Y-50277899D01*
X112146396Y-50180900D01*
X112643604Y-50180900D01*
X113131250Y-50277899D01*
X113131250Y-50277899D01*
G37*
G36*
X87044147Y-54299166D02*
X85744147Y-54299166D01*
X85744147Y-53099166D01*
X87044147Y-53099166D01*
X87044147Y-54299166D01*
X87044147Y-54299166D01*
G37*
G36*
X89208147Y-54249166D02*
X87508147Y-54249166D01*
X87508147Y-53149166D01*
X89208147Y-53149166D01*
X89208147Y-54249166D01*
X89208147Y-54249166D01*
G37*
G36*
X94578603Y-51652968D02*
X94578606Y-51652969D01*
X94578605Y-51652969D01*
X94753678Y-51725486D01*
X94753679Y-51725487D01*
X94911241Y-51830767D01*
X95045233Y-51964759D01*
X95061865Y-51989651D01*
X95150514Y-52122322D01*
X95173718Y-52178342D01*
X95182515Y-52199580D01*
X95194066Y-52221191D01*
X95209612Y-52240133D01*
X95228554Y-52255679D01*
X95250165Y-52267230D01*
X95273614Y-52274343D01*
X95298000Y-52276745D01*
X95322386Y-52274343D01*
X95345835Y-52267230D01*
X95367446Y-52255679D01*
X95386388Y-52240133D01*
X95401934Y-52221191D01*
X95413485Y-52199580D01*
X95422282Y-52178342D01*
X95445486Y-52122322D01*
X95534135Y-51989651D01*
X95550767Y-51964759D01*
X95684759Y-51830767D01*
X95842321Y-51725487D01*
X95842322Y-51725486D01*
X96017395Y-51652969D01*
X96017394Y-51652969D01*
X96017397Y-51652968D01*
X96203250Y-51616000D01*
X96392750Y-51616000D01*
X96578603Y-51652968D01*
X96578606Y-51652969D01*
X96578605Y-51652969D01*
X96753678Y-51725486D01*
X96753679Y-51725487D01*
X96911241Y-51830767D01*
X97045233Y-51964759D01*
X97061865Y-51989651D01*
X97150514Y-52122322D01*
X97173718Y-52178342D01*
X97182515Y-52199580D01*
X97194066Y-52221191D01*
X97209612Y-52240133D01*
X97228554Y-52255679D01*
X97250165Y-52267230D01*
X97273614Y-52274343D01*
X97298000Y-52276745D01*
X97322386Y-52274343D01*
X97345835Y-52267230D01*
X97367446Y-52255679D01*
X97386388Y-52240133D01*
X97401934Y-52221191D01*
X97413485Y-52199580D01*
X97422282Y-52178342D01*
X97445486Y-52122322D01*
X97534135Y-51989651D01*
X97550767Y-51964759D01*
X97684759Y-51830767D01*
X97842321Y-51725487D01*
X97842322Y-51725486D01*
X98017395Y-51652969D01*
X98017394Y-51652969D01*
X98017397Y-51652968D01*
X98203250Y-51616000D01*
X98392750Y-51616000D01*
X98578603Y-51652968D01*
X98578606Y-51652969D01*
X98578605Y-51652969D01*
X98753678Y-51725486D01*
X98753679Y-51725487D01*
X98911241Y-51830767D01*
X99045233Y-51964759D01*
X99061865Y-51989651D01*
X99150514Y-52122322D01*
X99173718Y-52178342D01*
X99182515Y-52199580D01*
X99194066Y-52221191D01*
X99209612Y-52240133D01*
X99228554Y-52255679D01*
X99250165Y-52267230D01*
X99273614Y-52274343D01*
X99298000Y-52276745D01*
X99322386Y-52274343D01*
X99345835Y-52267230D01*
X99367446Y-52255679D01*
X99386388Y-52240133D01*
X99401934Y-52221191D01*
X99413485Y-52199580D01*
X99422282Y-52178342D01*
X99445486Y-52122322D01*
X99534135Y-51989651D01*
X99550767Y-51964759D01*
X99684759Y-51830767D01*
X99842321Y-51725487D01*
X99842322Y-51725486D01*
X100017395Y-51652969D01*
X100017394Y-51652969D01*
X100017397Y-51652968D01*
X100203250Y-51616000D01*
X100392750Y-51616000D01*
X100578603Y-51652968D01*
X100578606Y-51652969D01*
X100578605Y-51652969D01*
X100753678Y-51725486D01*
X100753679Y-51725487D01*
X100911241Y-51830767D01*
X101045233Y-51964759D01*
X101061865Y-51989651D01*
X101150514Y-52122322D01*
X101173718Y-52178342D01*
X101182515Y-52199580D01*
X101194066Y-52221191D01*
X101209612Y-52240133D01*
X101228554Y-52255679D01*
X101250165Y-52267230D01*
X101273614Y-52274343D01*
X101298000Y-52276745D01*
X101322386Y-52274343D01*
X101345835Y-52267230D01*
X101367446Y-52255679D01*
X101386388Y-52240133D01*
X101401934Y-52221191D01*
X101413485Y-52199580D01*
X101422282Y-52178342D01*
X101445486Y-52122322D01*
X101534135Y-51989651D01*
X101550767Y-51964759D01*
X101684759Y-51830767D01*
X101842321Y-51725487D01*
X101842322Y-51725486D01*
X102017395Y-51652969D01*
X102017394Y-51652969D01*
X102017397Y-51652968D01*
X102203250Y-51616000D01*
X102392750Y-51616000D01*
X102578603Y-51652968D01*
X102578606Y-51652969D01*
X102578605Y-51652969D01*
X102753678Y-51725486D01*
X102753679Y-51725487D01*
X102911241Y-51830767D01*
X103045233Y-51964759D01*
X103061865Y-51989651D01*
X103150514Y-52122322D01*
X103205752Y-52255679D01*
X103223032Y-52297397D01*
X103260000Y-52483250D01*
X103260000Y-52672750D01*
X103223032Y-52858603D01*
X103223031Y-52858605D01*
X103150514Y-53033678D01*
X103143076Y-53044809D01*
X103045233Y-53191241D01*
X102911241Y-53325233D01*
X102875423Y-53349166D01*
X102753678Y-53430514D01*
X102618266Y-53486603D01*
X102578603Y-53503032D01*
X102392750Y-53540000D01*
X102203250Y-53540000D01*
X102017397Y-53503032D01*
X101977734Y-53486603D01*
X101842322Y-53430514D01*
X101720577Y-53349166D01*
X101684759Y-53325233D01*
X101550767Y-53191241D01*
X101452924Y-53044809D01*
X101445486Y-53033678D01*
X101413485Y-52956420D01*
X101401934Y-52934809D01*
X101386388Y-52915867D01*
X101367446Y-52900321D01*
X101345835Y-52888770D01*
X101322386Y-52881657D01*
X101298000Y-52879255D01*
X101273614Y-52881657D01*
X101250165Y-52888770D01*
X101228554Y-52900321D01*
X101209612Y-52915867D01*
X101194066Y-52934809D01*
X101182515Y-52956420D01*
X101150514Y-53033678D01*
X101143076Y-53044809D01*
X101045233Y-53191241D01*
X100911241Y-53325233D01*
X100875423Y-53349166D01*
X100753678Y-53430514D01*
X100618266Y-53486603D01*
X100578603Y-53503032D01*
X100392750Y-53540000D01*
X100203250Y-53540000D01*
X100017397Y-53503032D01*
X99977734Y-53486603D01*
X99842322Y-53430514D01*
X99720577Y-53349166D01*
X99684759Y-53325233D01*
X99550767Y-53191241D01*
X99452924Y-53044809D01*
X99445486Y-53033678D01*
X99413485Y-52956420D01*
X99401934Y-52934809D01*
X99386388Y-52915867D01*
X99367446Y-52900321D01*
X99345835Y-52888770D01*
X99322386Y-52881657D01*
X99298000Y-52879255D01*
X99273614Y-52881657D01*
X99250165Y-52888770D01*
X99228554Y-52900321D01*
X99209612Y-52915867D01*
X99194066Y-52934809D01*
X99182515Y-52956420D01*
X99150514Y-53033678D01*
X99143076Y-53044809D01*
X99045233Y-53191241D01*
X98911241Y-53325233D01*
X98875423Y-53349166D01*
X98753678Y-53430514D01*
X98618266Y-53486603D01*
X98578603Y-53503032D01*
X98392750Y-53540000D01*
X98203250Y-53540000D01*
X98017397Y-53503032D01*
X97977734Y-53486603D01*
X97842322Y-53430514D01*
X97720577Y-53349166D01*
X97684759Y-53325233D01*
X97550767Y-53191241D01*
X97452924Y-53044809D01*
X97445486Y-53033678D01*
X97413485Y-52956420D01*
X97401934Y-52934809D01*
X97386388Y-52915867D01*
X97367446Y-52900321D01*
X97345835Y-52888770D01*
X97322386Y-52881657D01*
X97298000Y-52879255D01*
X97273614Y-52881657D01*
X97250165Y-52888770D01*
X97228554Y-52900321D01*
X97209612Y-52915867D01*
X97194066Y-52934809D01*
X97182515Y-52956420D01*
X97150514Y-53033678D01*
X97143076Y-53044809D01*
X97045233Y-53191241D01*
X96911241Y-53325233D01*
X96875423Y-53349166D01*
X96753678Y-53430514D01*
X96618266Y-53486603D01*
X96578603Y-53503032D01*
X96392750Y-53540000D01*
X96203250Y-53540000D01*
X96017397Y-53503032D01*
X95977734Y-53486603D01*
X95842322Y-53430514D01*
X95720577Y-53349166D01*
X95684759Y-53325233D01*
X95550767Y-53191241D01*
X95452924Y-53044809D01*
X95445486Y-53033678D01*
X95413485Y-52956420D01*
X95401934Y-52934809D01*
X95386388Y-52915867D01*
X95367446Y-52900321D01*
X95345835Y-52888770D01*
X95322386Y-52881657D01*
X95298000Y-52879255D01*
X95273614Y-52881657D01*
X95250165Y-52888770D01*
X95228554Y-52900321D01*
X95209612Y-52915867D01*
X95194066Y-52934809D01*
X95182515Y-52956420D01*
X95150514Y-53033678D01*
X95143076Y-53044809D01*
X95045233Y-53191241D01*
X94911241Y-53325233D01*
X94875423Y-53349166D01*
X94753678Y-53430514D01*
X94618266Y-53486603D01*
X94578603Y-53503032D01*
X94392750Y-53540000D01*
X94203250Y-53540000D01*
X94017397Y-53503032D01*
X93977734Y-53486603D01*
X93842322Y-53430514D01*
X93720577Y-53349166D01*
X93684759Y-53325233D01*
X93550767Y-53191241D01*
X93452924Y-53044809D01*
X93445486Y-53033678D01*
X93372969Y-52858605D01*
X93372968Y-52858603D01*
X93336000Y-52672750D01*
X93336000Y-52483250D01*
X93372968Y-52297397D01*
X93390248Y-52255679D01*
X93445486Y-52122322D01*
X93534135Y-51989651D01*
X93550767Y-51964759D01*
X93684759Y-51830767D01*
X93842321Y-51725487D01*
X93842322Y-51725486D01*
X94017395Y-51652969D01*
X94017394Y-51652969D01*
X94017397Y-51652968D01*
X94203250Y-51616000D01*
X94392750Y-51616000D01*
X94578603Y-51652968D01*
X94578603Y-51652968D01*
G37*
G36*
X84944147Y-53349166D02*
X83644147Y-53349166D01*
X83644147Y-52149166D01*
X84944147Y-52149166D01*
X84944147Y-53349166D01*
X84944147Y-53349166D01*
G37*
G36*
X81600857Y-51012272D02*
X81801042Y-51095191D01*
X81981213Y-51215578D01*
X82134422Y-51368787D01*
X82254809Y-51548958D01*
X82337728Y-51749143D01*
X82380000Y-51961658D01*
X82380000Y-52178342D01*
X82337728Y-52390857D01*
X82254809Y-52591042D01*
X82254807Y-52591045D01*
X82147724Y-52751306D01*
X82134422Y-52771213D01*
X81981213Y-52924422D01*
X81981210Y-52924424D01*
X81981209Y-52924425D01*
X81933325Y-52956420D01*
X81801042Y-53044809D01*
X81600857Y-53127728D01*
X81388342Y-53170000D01*
X81171658Y-53170000D01*
X80959143Y-53127728D01*
X80758958Y-53044809D01*
X80626675Y-52956420D01*
X80578791Y-52924425D01*
X80578790Y-52924424D01*
X80578787Y-52924422D01*
X80425578Y-52771213D01*
X80412277Y-52751306D01*
X80305193Y-52591045D01*
X80305191Y-52591042D01*
X80222272Y-52390857D01*
X80180000Y-52178342D01*
X80180000Y-51961658D01*
X80222272Y-51749143D01*
X80305191Y-51548958D01*
X80425578Y-51368787D01*
X80578787Y-51215578D01*
X80758958Y-51095191D01*
X80959143Y-51012272D01*
X81171658Y-50970000D01*
X81388342Y-50970000D01*
X81600857Y-51012272D01*
X81600857Y-51012272D01*
G37*
G36*
X63820857Y-51012272D02*
X64021042Y-51095191D01*
X64201213Y-51215578D01*
X64354422Y-51368787D01*
X64474809Y-51548958D01*
X64557728Y-51749143D01*
X64600000Y-51961658D01*
X64600000Y-52178342D01*
X64557728Y-52390857D01*
X64474809Y-52591042D01*
X64474807Y-52591045D01*
X64367724Y-52751306D01*
X64354422Y-52771213D01*
X64201213Y-52924422D01*
X64201210Y-52924424D01*
X64201209Y-52924425D01*
X64153325Y-52956420D01*
X64021042Y-53044809D01*
X63820857Y-53127728D01*
X63608342Y-53170000D01*
X63391658Y-53170000D01*
X63179143Y-53127728D01*
X62978958Y-53044809D01*
X62846675Y-52956420D01*
X62798791Y-52924425D01*
X62798790Y-52924424D01*
X62798787Y-52924422D01*
X62645578Y-52771213D01*
X62632277Y-52751306D01*
X62525193Y-52591045D01*
X62525191Y-52591042D01*
X62442272Y-52390857D01*
X62400000Y-52178342D01*
X62400000Y-51961658D01*
X62442272Y-51749143D01*
X62525191Y-51548958D01*
X62645578Y-51368787D01*
X62798787Y-51215578D01*
X62978958Y-51095191D01*
X63179143Y-51012272D01*
X63391658Y-50970000D01*
X63608342Y-50970000D01*
X63820857Y-51012272D01*
X63820857Y-51012272D01*
G37*
G36*
X71440857Y-51012272D02*
X71641042Y-51095191D01*
X71821213Y-51215578D01*
X71974422Y-51368787D01*
X72094809Y-51548958D01*
X72177728Y-51749143D01*
X72220000Y-51961658D01*
X72220000Y-52178342D01*
X72177728Y-52390857D01*
X72094809Y-52591042D01*
X72094807Y-52591045D01*
X71987724Y-52751306D01*
X71974422Y-52771213D01*
X71821213Y-52924422D01*
X71821210Y-52924424D01*
X71821209Y-52924425D01*
X71773325Y-52956420D01*
X71641042Y-53044809D01*
X71440857Y-53127728D01*
X71228342Y-53170000D01*
X71011658Y-53170000D01*
X70799143Y-53127728D01*
X70598958Y-53044809D01*
X70466675Y-52956420D01*
X70418791Y-52924425D01*
X70418790Y-52924424D01*
X70418787Y-52924422D01*
X70265578Y-52771213D01*
X70252277Y-52751306D01*
X70145193Y-52591045D01*
X70145191Y-52591042D01*
X70062272Y-52390857D01*
X70020000Y-52178342D01*
X70020000Y-51961658D01*
X70062272Y-51749143D01*
X70145191Y-51548958D01*
X70265578Y-51368787D01*
X70418787Y-51215578D01*
X70598958Y-51095191D01*
X70799143Y-51012272D01*
X71011658Y-50970000D01*
X71228342Y-50970000D01*
X71440857Y-51012272D01*
X71440857Y-51012272D01*
G37*
G36*
X46377650Y-50564694D02*
X46584570Y-50650403D01*
X46770798Y-50774837D01*
X46929163Y-50933202D01*
X47053597Y-51119430D01*
X47139306Y-51326350D01*
X47183000Y-51546014D01*
X47183000Y-51769986D01*
X47139306Y-51989650D01*
X47053597Y-52196570D01*
X46929163Y-52382798D01*
X46770798Y-52541163D01*
X46584570Y-52665597D01*
X46377650Y-52751306D01*
X46157986Y-52795000D01*
X45934014Y-52795000D01*
X45714350Y-52751306D01*
X45507430Y-52665597D01*
X45321202Y-52541163D01*
X45162837Y-52382798D01*
X45038403Y-52196570D01*
X44952694Y-51989650D01*
X44909000Y-51769986D01*
X44909000Y-51546014D01*
X44952694Y-51326350D01*
X45038403Y-51119430D01*
X45162837Y-50933202D01*
X45321202Y-50774837D01*
X45507430Y-50650403D01*
X45714350Y-50564694D01*
X45934014Y-50521000D01*
X46157986Y-50521000D01*
X46377650Y-50564694D01*
X46377650Y-50564694D01*
G37*
G36*
X87044147Y-52399166D02*
X85744147Y-52399166D01*
X85744147Y-51199166D01*
X87044147Y-51199166D01*
X87044147Y-52399166D01*
X87044147Y-52399166D01*
G37*
G36*
X89208147Y-52349166D02*
X87508147Y-52349166D01*
X87508147Y-51249166D01*
X89208147Y-51249166D01*
X89208147Y-52349166D01*
X89208147Y-52349166D01*
G37*
M02*
