G04 #@! TF.GenerationSoftware,KiCad,Pcbnew,(5.0.1)-4*
G04 #@! TF.CreationDate,2019-05-19T19:14:33-06:00*
G04 #@! TF.ProjectId,BMS_core,424D535F636F72652E6B696361645F70,rev?*
G04 #@! TF.SameCoordinates,Original*
G04 #@! TF.FileFunction,Legend,Top*
G04 #@! TF.FilePolarity,Positive*
%FSLAX46Y46*%
G04 Gerber Fmt 4.6, Leading zero omitted, Abs format (unit mm)*
G04 Created by KiCad (PCBNEW (5.0.1)-4) date 5/19/2019 7:14:33 PM*
%MOMM*%
%LPD*%
G01*
G04 APERTURE LIST*
%ADD10C,0.300000*%
%ADD11C,0.152400*%
%ADD12C,0.150000*%
%ADD13C,0.500000*%
%ADD14C,0.120000*%
%ADD15C,0.100000*%
%ADD16C,0.200000*%
G04 APERTURE END LIST*
D10*
X103917857Y-102908571D02*
X103917857Y-101408571D01*
X104632142Y-102908571D02*
X104632142Y-101408571D01*
X105132142Y-102480000D01*
X105632142Y-101408571D01*
X105632142Y-102908571D01*
X104025000Y-105458571D02*
X104025000Y-103958571D01*
X104739285Y-105458571D02*
X104739285Y-103958571D01*
X105310714Y-103958571D01*
X105453571Y-104030000D01*
X105525000Y-104101428D01*
X105596428Y-104244285D01*
X105596428Y-104458571D01*
X105525000Y-104601428D01*
X105453571Y-104672857D01*
X105310714Y-104744285D01*
X104739285Y-104744285D01*
X106832857Y-88165285D02*
X105632857Y-88165285D01*
X106490000Y-87765285D01*
X105632857Y-87365285D01*
X106832857Y-87365285D01*
X106832857Y-86793857D02*
X105632857Y-86793857D01*
X106832857Y-86108142D02*
X106147142Y-86622428D01*
X105632857Y-86108142D02*
X106318571Y-86793857D01*
X106832857Y-85593857D02*
X105632857Y-85593857D01*
X105632857Y-85193857D02*
X106832857Y-84793857D01*
X105632857Y-84393857D01*
X106204285Y-82679571D02*
X106261428Y-82508142D01*
X106318571Y-82451000D01*
X106432857Y-82393857D01*
X106604285Y-82393857D01*
X106718571Y-82451000D01*
X106775714Y-82508142D01*
X106832857Y-82622428D01*
X106832857Y-83079571D01*
X105632857Y-83079571D01*
X105632857Y-82679571D01*
X105690000Y-82565285D01*
X105747142Y-82508142D01*
X105861428Y-82451000D01*
X105975714Y-82451000D01*
X106090000Y-82508142D01*
X106147142Y-82565285D01*
X106204285Y-82679571D01*
X106204285Y-83079571D01*
X106832857Y-81879571D02*
X105632857Y-81879571D01*
X106490000Y-81479571D01*
X105632857Y-81079571D01*
X106832857Y-81079571D01*
X106775714Y-80565285D02*
X106832857Y-80393857D01*
X106832857Y-80108142D01*
X106775714Y-79993857D01*
X106718571Y-79936714D01*
X106604285Y-79879571D01*
X106490000Y-79879571D01*
X106375714Y-79936714D01*
X106318571Y-79993857D01*
X106261428Y-80108142D01*
X106204285Y-80336714D01*
X106147142Y-80451000D01*
X106090000Y-80508142D01*
X105975714Y-80565285D01*
X105861428Y-80565285D01*
X105747142Y-80508142D01*
X105690000Y-80451000D01*
X105632857Y-80336714D01*
X105632857Y-80051000D01*
X105690000Y-79879571D01*
X106718571Y-77765285D02*
X106775714Y-77822428D01*
X106832857Y-77993857D01*
X106832857Y-78108142D01*
X106775714Y-78279571D01*
X106661428Y-78393857D01*
X106547142Y-78451000D01*
X106318571Y-78508142D01*
X106147142Y-78508142D01*
X105918571Y-78451000D01*
X105804285Y-78393857D01*
X105690000Y-78279571D01*
X105632857Y-78108142D01*
X105632857Y-77993857D01*
X105690000Y-77822428D01*
X105747142Y-77765285D01*
X106832857Y-77079571D02*
X106775714Y-77193857D01*
X106718571Y-77251000D01*
X106604285Y-77308142D01*
X106261428Y-77308142D01*
X106147142Y-77251000D01*
X106090000Y-77193857D01*
X106032857Y-77079571D01*
X106032857Y-76908142D01*
X106090000Y-76793857D01*
X106147142Y-76736714D01*
X106261428Y-76679571D01*
X106604285Y-76679571D01*
X106718571Y-76736714D01*
X106775714Y-76793857D01*
X106832857Y-76908142D01*
X106832857Y-77079571D01*
X106832857Y-76165285D02*
X106032857Y-76165285D01*
X106261428Y-76165285D02*
X106147142Y-76108142D01*
X106090000Y-76051000D01*
X106032857Y-75936714D01*
X106032857Y-75822428D01*
X106775714Y-74965285D02*
X106832857Y-75079571D01*
X106832857Y-75308142D01*
X106775714Y-75422428D01*
X106661428Y-75479571D01*
X106204285Y-75479571D01*
X106090000Y-75422428D01*
X106032857Y-75308142D01*
X106032857Y-75079571D01*
X106090000Y-74965285D01*
X106204285Y-74908142D01*
X106318571Y-74908142D01*
X106432857Y-75479571D01*
X106832857Y-72793857D02*
X106261428Y-73193857D01*
X106832857Y-73479571D02*
X105632857Y-73479571D01*
X105632857Y-73022428D01*
X105690000Y-72908142D01*
X105747142Y-72851000D01*
X105861428Y-72793857D01*
X106032857Y-72793857D01*
X106147142Y-72851000D01*
X106204285Y-72908142D01*
X106261428Y-73022428D01*
X106261428Y-73479571D01*
X106775714Y-71822428D02*
X106832857Y-71936714D01*
X106832857Y-72165285D01*
X106775714Y-72279571D01*
X106661428Y-72336714D01*
X106204285Y-72336714D01*
X106090000Y-72279571D01*
X106032857Y-72165285D01*
X106032857Y-71936714D01*
X106090000Y-71822428D01*
X106204285Y-71765285D01*
X106318571Y-71765285D01*
X106432857Y-72336714D01*
X106032857Y-71365285D02*
X106832857Y-71079571D01*
X106032857Y-70793857D01*
X106832857Y-68793857D02*
X106832857Y-69479571D01*
X106832857Y-69136714D02*
X105632857Y-69136714D01*
X105804285Y-69251000D01*
X105918571Y-69365285D01*
X105975714Y-69479571D01*
X106718571Y-68279571D02*
X106775714Y-68222428D01*
X106832857Y-68279571D01*
X106775714Y-68336714D01*
X106718571Y-68279571D01*
X106832857Y-68279571D01*
X106032857Y-67193857D02*
X106832857Y-67193857D01*
X105575714Y-67479571D02*
X106432857Y-67765285D01*
X106432857Y-67022428D01*
X107732857Y-87936714D02*
X107732857Y-87708142D01*
X107790000Y-87593857D01*
X107904285Y-87479571D01*
X108132857Y-87422428D01*
X108532857Y-87422428D01*
X108761428Y-87479571D01*
X108875714Y-87593857D01*
X108932857Y-87708142D01*
X108932857Y-87936714D01*
X108875714Y-88051000D01*
X108761428Y-88165285D01*
X108532857Y-88222428D01*
X108132857Y-88222428D01*
X107904285Y-88165285D01*
X107790000Y-88051000D01*
X107732857Y-87936714D01*
X108932857Y-86736714D02*
X108875714Y-86851000D01*
X108761428Y-86908142D01*
X107732857Y-86908142D01*
X108932857Y-86279571D02*
X108132857Y-86279571D01*
X107732857Y-86279571D02*
X107790000Y-86336714D01*
X107847142Y-86279571D01*
X107790000Y-86222428D01*
X107732857Y-86279571D01*
X107847142Y-86279571D01*
X108132857Y-85708142D02*
X108932857Y-85708142D01*
X108247142Y-85708142D02*
X108190000Y-85651000D01*
X108132857Y-85536714D01*
X108132857Y-85365285D01*
X108190000Y-85251000D01*
X108304285Y-85193857D01*
X108932857Y-85193857D01*
X108304285Y-83708142D02*
X108304285Y-83308142D01*
X108932857Y-83136714D02*
X108932857Y-83708142D01*
X107732857Y-83708142D01*
X107732857Y-83136714D01*
X108932857Y-82451000D02*
X108875714Y-82565285D01*
X108761428Y-82622428D01*
X107732857Y-82622428D01*
X108875714Y-81536714D02*
X108932857Y-81651000D01*
X108932857Y-81879571D01*
X108875714Y-81993857D01*
X108761428Y-82051000D01*
X108304285Y-82051000D01*
X108190000Y-81993857D01*
X108132857Y-81879571D01*
X108132857Y-81651000D01*
X108190000Y-81536714D01*
X108304285Y-81479571D01*
X108418571Y-81479571D01*
X108532857Y-82051000D01*
X108875714Y-80451000D02*
X108932857Y-80565285D01*
X108932857Y-80793857D01*
X108875714Y-80908142D01*
X108818571Y-80965285D01*
X108704285Y-81022428D01*
X108361428Y-81022428D01*
X108247142Y-80965285D01*
X108190000Y-80908142D01*
X108132857Y-80793857D01*
X108132857Y-80565285D01*
X108190000Y-80451000D01*
X108132857Y-80108142D02*
X108132857Y-79651000D01*
X107732857Y-79936714D02*
X108761428Y-79936714D01*
X108875714Y-79879571D01*
X108932857Y-79765285D01*
X108932857Y-79651000D01*
X108932857Y-79251000D02*
X108132857Y-79251000D01*
X108361428Y-79251000D02*
X108247142Y-79193857D01*
X108190000Y-79136714D01*
X108132857Y-79022428D01*
X108132857Y-78908142D01*
X108932857Y-78508142D02*
X108132857Y-78508142D01*
X107732857Y-78508142D02*
X107790000Y-78565285D01*
X107847142Y-78508142D01*
X107790000Y-78451000D01*
X107732857Y-78508142D01*
X107847142Y-78508142D01*
X108875714Y-77422428D02*
X108932857Y-77536714D01*
X108932857Y-77765285D01*
X108875714Y-77879571D01*
X108818571Y-77936714D01*
X108704285Y-77993857D01*
X108361428Y-77993857D01*
X108247142Y-77936714D01*
X108190000Y-77879571D01*
X108132857Y-77765285D01*
X108132857Y-77536714D01*
X108190000Y-77422428D01*
X108932857Y-75993857D02*
X107732857Y-75993857D01*
X108590000Y-75593857D01*
X107732857Y-75193857D01*
X108932857Y-75193857D01*
X108932857Y-74451000D02*
X108875714Y-74565285D01*
X108818571Y-74622428D01*
X108704285Y-74679571D01*
X108361428Y-74679571D01*
X108247142Y-74622428D01*
X108190000Y-74565285D01*
X108132857Y-74451000D01*
X108132857Y-74279571D01*
X108190000Y-74165285D01*
X108247142Y-74108142D01*
X108361428Y-74051000D01*
X108704285Y-74051000D01*
X108818571Y-74108142D01*
X108875714Y-74165285D01*
X108932857Y-74279571D01*
X108932857Y-74451000D01*
X108132857Y-73708142D02*
X108132857Y-73251000D01*
X107732857Y-73536714D02*
X108761428Y-73536714D01*
X108875714Y-73479571D01*
X108932857Y-73365285D01*
X108932857Y-73251000D01*
X108932857Y-72679571D02*
X108875714Y-72793857D01*
X108818571Y-72851000D01*
X108704285Y-72908142D01*
X108361428Y-72908142D01*
X108247142Y-72851000D01*
X108190000Y-72793857D01*
X108132857Y-72679571D01*
X108132857Y-72508142D01*
X108190000Y-72393857D01*
X108247142Y-72336714D01*
X108361428Y-72279571D01*
X108704285Y-72279571D01*
X108818571Y-72336714D01*
X108875714Y-72393857D01*
X108932857Y-72508142D01*
X108932857Y-72679571D01*
X108932857Y-71765285D02*
X108132857Y-71765285D01*
X108361428Y-71765285D02*
X108247142Y-71708142D01*
X108190000Y-71651000D01*
X108132857Y-71536714D01*
X108132857Y-71422428D01*
X108875714Y-71079571D02*
X108932857Y-70965285D01*
X108932857Y-70736714D01*
X108875714Y-70622428D01*
X108761428Y-70565285D01*
X108704285Y-70565285D01*
X108590000Y-70622428D01*
X108532857Y-70736714D01*
X108532857Y-70908142D01*
X108475714Y-71022428D01*
X108361428Y-71079571D01*
X108304285Y-71079571D01*
X108190000Y-71022428D01*
X108132857Y-70908142D01*
X108132857Y-70736714D01*
X108190000Y-70622428D01*
X108132857Y-70051000D02*
X109332857Y-70051000D01*
X108190000Y-70051000D02*
X108132857Y-69936714D01*
X108132857Y-69708142D01*
X108190000Y-69593857D01*
X108247142Y-69536714D01*
X108361428Y-69479571D01*
X108704285Y-69479571D01*
X108818571Y-69536714D01*
X108875714Y-69593857D01*
X108932857Y-69708142D01*
X108932857Y-69936714D01*
X108875714Y-70051000D01*
X108932857Y-68793857D02*
X108875714Y-68908142D01*
X108818571Y-68965285D01*
X108704285Y-69022428D01*
X108361428Y-69022428D01*
X108247142Y-68965285D01*
X108190000Y-68908142D01*
X108132857Y-68793857D01*
X108132857Y-68622428D01*
X108190000Y-68508142D01*
X108247142Y-68451000D01*
X108361428Y-68393857D01*
X108704285Y-68393857D01*
X108818571Y-68451000D01*
X108875714Y-68508142D01*
X108932857Y-68622428D01*
X108932857Y-68793857D01*
X108932857Y-67879571D02*
X108132857Y-67879571D01*
X108361428Y-67879571D02*
X108247142Y-67822428D01*
X108190000Y-67765285D01*
X108132857Y-67651000D01*
X108132857Y-67536714D01*
X108132857Y-67308142D02*
X108132857Y-66851000D01*
X107732857Y-67136714D02*
X108761428Y-67136714D01*
X108875714Y-67079571D01*
X108932857Y-66965285D01*
X108932857Y-66851000D01*
X108875714Y-66508142D02*
X108932857Y-66393857D01*
X108932857Y-66165285D01*
X108875714Y-66051000D01*
X108761428Y-65993857D01*
X108704285Y-65993857D01*
X108590000Y-66051000D01*
X108532857Y-66165285D01*
X108532857Y-66336714D01*
X108475714Y-66451000D01*
X108361428Y-66508142D01*
X108304285Y-66508142D01*
X108190000Y-66451000D01*
X108132857Y-66336714D01*
X108132857Y-66165285D01*
X108190000Y-66051000D01*
X110690000Y-88222428D02*
X110690000Y-87651000D01*
X111032857Y-88336714D02*
X109832857Y-87936714D01*
X111032857Y-87536714D01*
X111032857Y-86965285D02*
X110975714Y-87079571D01*
X110861428Y-87136714D01*
X109832857Y-87136714D01*
X110975714Y-86051000D02*
X111032857Y-86165285D01*
X111032857Y-86393857D01*
X110975714Y-86508142D01*
X110861428Y-86565285D01*
X110404285Y-86565285D01*
X110290000Y-86508142D01*
X110232857Y-86393857D01*
X110232857Y-86165285D01*
X110290000Y-86051000D01*
X110404285Y-85993857D01*
X110518571Y-85993857D01*
X110632857Y-86565285D01*
X111032857Y-85593857D02*
X110232857Y-84965285D01*
X110232857Y-85593857D02*
X111032857Y-84965285D01*
X111032857Y-83993857D02*
X110404285Y-83993857D01*
X110290000Y-84051000D01*
X110232857Y-84165285D01*
X110232857Y-84393857D01*
X110290000Y-84508142D01*
X110975714Y-83993857D02*
X111032857Y-84108142D01*
X111032857Y-84393857D01*
X110975714Y-84508142D01*
X110861428Y-84565285D01*
X110747142Y-84565285D01*
X110632857Y-84508142D01*
X110575714Y-84393857D01*
X110575714Y-84108142D01*
X110518571Y-83993857D01*
X110232857Y-83422428D02*
X111032857Y-83422428D01*
X110347142Y-83422428D02*
X110290000Y-83365285D01*
X110232857Y-83251000D01*
X110232857Y-83079571D01*
X110290000Y-82965285D01*
X110404285Y-82908142D01*
X111032857Y-82908142D01*
X111032857Y-81822428D02*
X109832857Y-81822428D01*
X110975714Y-81822428D02*
X111032857Y-81936714D01*
X111032857Y-82165285D01*
X110975714Y-82279571D01*
X110918571Y-82336714D01*
X110804285Y-82393857D01*
X110461428Y-82393857D01*
X110347142Y-82336714D01*
X110290000Y-82279571D01*
X110232857Y-82165285D01*
X110232857Y-81936714D01*
X110290000Y-81822428D01*
X110975714Y-80793857D02*
X111032857Y-80908142D01*
X111032857Y-81136714D01*
X110975714Y-81251000D01*
X110861428Y-81308142D01*
X110404285Y-81308142D01*
X110290000Y-81251000D01*
X110232857Y-81136714D01*
X110232857Y-80908142D01*
X110290000Y-80793857D01*
X110404285Y-80736714D01*
X110518571Y-80736714D01*
X110632857Y-81308142D01*
X111032857Y-80222428D02*
X110232857Y-80222428D01*
X110461428Y-80222428D02*
X110347142Y-80165285D01*
X110290000Y-80108142D01*
X110232857Y-79993857D01*
X110232857Y-79879571D01*
X111032857Y-78565285D02*
X109832857Y-78565285D01*
X110404285Y-78565285D02*
X110404285Y-77879571D01*
X111032857Y-77879571D02*
X109832857Y-77879571D01*
X111032857Y-77136714D02*
X110975714Y-77251000D01*
X110918571Y-77308142D01*
X110804285Y-77365285D01*
X110461428Y-77365285D01*
X110347142Y-77308142D01*
X110290000Y-77251000D01*
X110232857Y-77136714D01*
X110232857Y-76965285D01*
X110290000Y-76851000D01*
X110347142Y-76793857D01*
X110461428Y-76736714D01*
X110804285Y-76736714D01*
X110918571Y-76793857D01*
X110975714Y-76851000D01*
X111032857Y-76965285D01*
X111032857Y-77136714D01*
X110232857Y-76222428D02*
X111432857Y-76222428D01*
X110290000Y-76222428D02*
X110232857Y-76108142D01*
X110232857Y-75879571D01*
X110290000Y-75765285D01*
X110347142Y-75708142D01*
X110461428Y-75651000D01*
X110804285Y-75651000D01*
X110918571Y-75708142D01*
X110975714Y-75765285D01*
X111032857Y-75879571D01*
X111032857Y-76108142D01*
X110975714Y-76222428D01*
X110232857Y-75136714D02*
X111432857Y-75136714D01*
X110290000Y-75136714D02*
X110232857Y-75022428D01*
X110232857Y-74793857D01*
X110290000Y-74679571D01*
X110347142Y-74622428D01*
X110461428Y-74565285D01*
X110804285Y-74565285D01*
X110918571Y-74622428D01*
X110975714Y-74679571D01*
X111032857Y-74793857D01*
X111032857Y-75022428D01*
X110975714Y-75136714D01*
X110975714Y-73593857D02*
X111032857Y-73708142D01*
X111032857Y-73936714D01*
X110975714Y-74051000D01*
X110861428Y-74108142D01*
X110404285Y-74108142D01*
X110290000Y-74051000D01*
X110232857Y-73936714D01*
X110232857Y-73708142D01*
X110290000Y-73593857D01*
X110404285Y-73536714D01*
X110518571Y-73536714D01*
X110632857Y-74108142D01*
X109832857Y-72051000D02*
X110061428Y-72165285D01*
X111032857Y-70908142D02*
X111032857Y-71593857D01*
X111032857Y-71251000D02*
X109832857Y-71251000D01*
X110004285Y-71365285D01*
X110118571Y-71479571D01*
X110175714Y-71593857D01*
X111032857Y-70336714D02*
X111032857Y-70108142D01*
X110975714Y-69993857D01*
X110918571Y-69936714D01*
X110747142Y-69822428D01*
X110518571Y-69765285D01*
X110061428Y-69765285D01*
X109947142Y-69822428D01*
X109890000Y-69879571D01*
X109832857Y-69993857D01*
X109832857Y-70222428D01*
X109890000Y-70336714D01*
X109947142Y-70393857D01*
X110061428Y-70451000D01*
X110347142Y-70451000D01*
X110461428Y-70393857D01*
X110518571Y-70336714D01*
X110575714Y-70222428D01*
X110575714Y-69993857D01*
X110518571Y-69879571D01*
X110461428Y-69822428D01*
X110347142Y-69765285D01*
X113132857Y-87593857D02*
X113132857Y-88165285D01*
X111932857Y-88165285D01*
X112332857Y-86679571D02*
X113132857Y-86679571D01*
X112332857Y-87193857D02*
X112961428Y-87193857D01*
X113075714Y-87136714D01*
X113132857Y-87022428D01*
X113132857Y-86851000D01*
X113075714Y-86736714D01*
X113018571Y-86679571D01*
X113075714Y-85593857D02*
X113132857Y-85708142D01*
X113132857Y-85936714D01*
X113075714Y-86051000D01*
X113018571Y-86108142D01*
X112904285Y-86165285D01*
X112561428Y-86165285D01*
X112447142Y-86108142D01*
X112390000Y-86051000D01*
X112332857Y-85936714D01*
X112332857Y-85708142D01*
X112390000Y-85593857D01*
X113132857Y-85079571D02*
X111932857Y-85079571D01*
X112675714Y-84965285D02*
X113132857Y-84622428D01*
X112332857Y-84622428D02*
X112790000Y-85079571D01*
X112332857Y-84222428D02*
X113132857Y-83936714D01*
X112332857Y-83651000D02*
X113132857Y-83936714D01*
X113418571Y-84051000D01*
X113475714Y-84108142D01*
X113532857Y-84222428D01*
X111932857Y-81936714D02*
X112790000Y-81936714D01*
X112961428Y-81993857D01*
X113075714Y-82108142D01*
X113132857Y-82279571D01*
X113132857Y-82393857D01*
X113132857Y-81193857D02*
X113075714Y-81308142D01*
X113018571Y-81365285D01*
X112904285Y-81422428D01*
X112561428Y-81422428D01*
X112447142Y-81365285D01*
X112390000Y-81308142D01*
X112332857Y-81193857D01*
X112332857Y-81022428D01*
X112390000Y-80908142D01*
X112447142Y-80851000D01*
X112561428Y-80793857D01*
X112904285Y-80793857D01*
X113018571Y-80851000D01*
X113075714Y-80908142D01*
X113132857Y-81022428D01*
X113132857Y-81193857D01*
X113132857Y-80279571D02*
X112332857Y-80279571D01*
X112561428Y-80279571D02*
X112447142Y-80222428D01*
X112390000Y-80165285D01*
X112332857Y-80051000D01*
X112332857Y-79936714D01*
X113132857Y-79022428D02*
X111932857Y-79022428D01*
X113075714Y-79022428D02*
X113132857Y-79136714D01*
X113132857Y-79365285D01*
X113075714Y-79479571D01*
X113018571Y-79536714D01*
X112904285Y-79593857D01*
X112561428Y-79593857D01*
X112447142Y-79536714D01*
X112390000Y-79479571D01*
X112332857Y-79365285D01*
X112332857Y-79136714D01*
X112390000Y-79022428D01*
X113132857Y-77936714D02*
X112504285Y-77936714D01*
X112390000Y-77993857D01*
X112332857Y-78108142D01*
X112332857Y-78336714D01*
X112390000Y-78451000D01*
X113075714Y-77936714D02*
X113132857Y-78051000D01*
X113132857Y-78336714D01*
X113075714Y-78451000D01*
X112961428Y-78508142D01*
X112847142Y-78508142D01*
X112732857Y-78451000D01*
X112675714Y-78336714D01*
X112675714Y-78051000D01*
X112618571Y-77936714D01*
X112332857Y-77365285D02*
X113132857Y-77365285D01*
X112447142Y-77365285D02*
X112390000Y-77308142D01*
X112332857Y-77193857D01*
X112332857Y-77022428D01*
X112390000Y-76908142D01*
X112504285Y-76851000D01*
X113132857Y-76851000D01*
X111932857Y-75308142D02*
X112161428Y-75422428D01*
X112047142Y-74851000D02*
X111990000Y-74793857D01*
X111932857Y-74679571D01*
X111932857Y-74393857D01*
X111990000Y-74279571D01*
X112047142Y-74222428D01*
X112161428Y-74165285D01*
X112275714Y-74165285D01*
X112447142Y-74222428D01*
X113132857Y-74908142D01*
X113132857Y-74165285D01*
X113132857Y-73022428D02*
X113132857Y-73708142D01*
X113132857Y-73365285D02*
X111932857Y-73365285D01*
X112104285Y-73479571D01*
X112218571Y-73593857D01*
X112275714Y-73708142D01*
X114032857Y-87593857D02*
X114032857Y-88165285D01*
X114604285Y-88222428D01*
X114547142Y-88165285D01*
X114490000Y-88051000D01*
X114490000Y-87765285D01*
X114547142Y-87651000D01*
X114604285Y-87593857D01*
X114718571Y-87536714D01*
X115004285Y-87536714D01*
X115118571Y-87593857D01*
X115175714Y-87651000D01*
X115232857Y-87765285D01*
X115232857Y-88051000D01*
X115175714Y-88165285D01*
X115118571Y-88222428D01*
X113975714Y-86165285D02*
X115518571Y-87193857D01*
X115232857Y-85136714D02*
X115232857Y-85822428D01*
X115232857Y-85479571D02*
X114032857Y-85479571D01*
X114204285Y-85593857D01*
X114318571Y-85708142D01*
X114375714Y-85822428D01*
X115232857Y-84565285D02*
X115232857Y-84336714D01*
X115175714Y-84222428D01*
X115118571Y-84165285D01*
X114947142Y-84051000D01*
X114718571Y-83993857D01*
X114261428Y-83993857D01*
X114147142Y-84051000D01*
X114090000Y-84108142D01*
X114032857Y-84222428D01*
X114032857Y-84451000D01*
X114090000Y-84565285D01*
X114147142Y-84622428D01*
X114261428Y-84679571D01*
X114547142Y-84679571D01*
X114661428Y-84622428D01*
X114718571Y-84565285D01*
X114775714Y-84451000D01*
X114775714Y-84222428D01*
X114718571Y-84108142D01*
X114661428Y-84051000D01*
X114547142Y-83993857D01*
X113975714Y-82622428D02*
X115518571Y-83651000D01*
X115232857Y-81593857D02*
X115232857Y-82279571D01*
X115232857Y-81936714D02*
X114032857Y-81936714D01*
X114204285Y-82051000D01*
X114318571Y-82165285D01*
X114375714Y-82279571D01*
X115232857Y-81022428D02*
X115232857Y-80793857D01*
X115175714Y-80679571D01*
X115118571Y-80622428D01*
X114947142Y-80508142D01*
X114718571Y-80451000D01*
X114261428Y-80451000D01*
X114147142Y-80508142D01*
X114090000Y-80565285D01*
X114032857Y-80679571D01*
X114032857Y-80908142D01*
X114090000Y-81022428D01*
X114147142Y-81079571D01*
X114261428Y-81136714D01*
X114547142Y-81136714D01*
X114661428Y-81079571D01*
X114718571Y-81022428D01*
X114775714Y-80908142D01*
X114775714Y-80679571D01*
X114718571Y-80565285D01*
X114661428Y-80508142D01*
X114547142Y-80451000D01*
X66722857Y-68242571D02*
X66722857Y-66742571D01*
X67294285Y-66742571D01*
X67437142Y-66814000D01*
X67508571Y-66885428D01*
X67580000Y-67028285D01*
X67580000Y-67242571D01*
X67508571Y-67385428D01*
X67437142Y-67456857D01*
X67294285Y-67528285D01*
X66722857Y-67528285D01*
X68222857Y-68242571D02*
X68222857Y-66742571D01*
X68580000Y-66742571D01*
X68794285Y-66814000D01*
X68937142Y-66956857D01*
X69008571Y-67099714D01*
X69080000Y-67385428D01*
X69080000Y-67599714D01*
X69008571Y-67885428D01*
X68937142Y-68028285D01*
X68794285Y-68171142D01*
X68580000Y-68242571D01*
X68222857Y-68242571D01*
X70437142Y-66742571D02*
X69722857Y-66742571D01*
X69651428Y-67456857D01*
X69722857Y-67385428D01*
X69865714Y-67314000D01*
X70222857Y-67314000D01*
X70365714Y-67385428D01*
X70437142Y-67456857D01*
X70508571Y-67599714D01*
X70508571Y-67956857D01*
X70437142Y-68099714D01*
X70365714Y-68171142D01*
X70222857Y-68242571D01*
X69865714Y-68242571D01*
X69722857Y-68171142D01*
X69651428Y-68099714D01*
X66722857Y-73068571D02*
X66722857Y-71568571D01*
X67294285Y-71568571D01*
X67437142Y-71640000D01*
X67508571Y-71711428D01*
X67580000Y-71854285D01*
X67580000Y-72068571D01*
X67508571Y-72211428D01*
X67437142Y-72282857D01*
X67294285Y-72354285D01*
X66722857Y-72354285D01*
X68222857Y-73068571D02*
X68222857Y-71568571D01*
X68580000Y-71568571D01*
X68794285Y-71640000D01*
X68937142Y-71782857D01*
X69008571Y-71925714D01*
X69080000Y-72211428D01*
X69080000Y-72425714D01*
X69008571Y-72711428D01*
X68937142Y-72854285D01*
X68794285Y-72997142D01*
X68580000Y-73068571D01*
X68222857Y-73068571D01*
X69580000Y-71568571D02*
X70580000Y-71568571D01*
X69937142Y-73068571D01*
X66722857Y-70528571D02*
X66722857Y-69028571D01*
X67294285Y-69028571D01*
X67437142Y-69100000D01*
X67508571Y-69171428D01*
X67580000Y-69314285D01*
X67580000Y-69528571D01*
X67508571Y-69671428D01*
X67437142Y-69742857D01*
X67294285Y-69814285D01*
X66722857Y-69814285D01*
X68222857Y-70528571D02*
X68222857Y-69028571D01*
X68580000Y-69028571D01*
X68794285Y-69100000D01*
X68937142Y-69242857D01*
X69008571Y-69385714D01*
X69080000Y-69671428D01*
X69080000Y-69885714D01*
X69008571Y-70171428D01*
X68937142Y-70314285D01*
X68794285Y-70457142D01*
X68580000Y-70528571D01*
X68222857Y-70528571D01*
X70365714Y-69028571D02*
X70080000Y-69028571D01*
X69937142Y-69100000D01*
X69865714Y-69171428D01*
X69722857Y-69385714D01*
X69651428Y-69671428D01*
X69651428Y-70242857D01*
X69722857Y-70385714D01*
X69794285Y-70457142D01*
X69937142Y-70528571D01*
X70222857Y-70528571D01*
X70365714Y-70457142D01*
X70437142Y-70385714D01*
X70508571Y-70242857D01*
X70508571Y-69885714D01*
X70437142Y-69742857D01*
X70365714Y-69671428D01*
X70222857Y-69600000D01*
X69937142Y-69600000D01*
X69794285Y-69671428D01*
X69722857Y-69742857D01*
X69651428Y-69885714D01*
X101798571Y-91610571D02*
X101798571Y-90110571D01*
X101798571Y-90824857D02*
X102655714Y-90824857D01*
X102655714Y-91610571D02*
X102655714Y-90110571D01*
X103155714Y-90110571D02*
X103655714Y-91610571D01*
X104155714Y-90110571D01*
X84486857Y-90182000D02*
X84344000Y-90110571D01*
X84129714Y-90110571D01*
X83915428Y-90182000D01*
X83772571Y-90324857D01*
X83701142Y-90467714D01*
X83629714Y-90753428D01*
X83629714Y-90967714D01*
X83701142Y-91253428D01*
X83772571Y-91396285D01*
X83915428Y-91539142D01*
X84129714Y-91610571D01*
X84272571Y-91610571D01*
X84486857Y-91539142D01*
X84558285Y-91467714D01*
X84558285Y-90967714D01*
X84272571Y-90967714D01*
X85915428Y-91610571D02*
X85201142Y-91610571D01*
X85201142Y-90110571D01*
X86201142Y-90110571D02*
X86701142Y-91610571D01*
X87201142Y-90110571D01*
X89098361Y-89256571D02*
X88241218Y-89256571D01*
X88669789Y-89256571D02*
X88669789Y-87756571D01*
X88526932Y-87970857D01*
X88384075Y-88113714D01*
X88241218Y-88185142D01*
X89669789Y-87899428D02*
X89741218Y-87828000D01*
X89884075Y-87756571D01*
X90241218Y-87756571D01*
X90384075Y-87828000D01*
X90455504Y-87899428D01*
X90526932Y-88042285D01*
X90526932Y-88185142D01*
X90455504Y-88399428D01*
X89598361Y-89256571D01*
X90526932Y-89256571D01*
X91169789Y-89113714D02*
X91241218Y-89185142D01*
X91169789Y-89256571D01*
X91098361Y-89185142D01*
X91169789Y-89113714D01*
X91169789Y-89256571D01*
X91741218Y-87756571D02*
X92741218Y-87756571D01*
X92098361Y-89256571D01*
X93598361Y-87756571D02*
X93741218Y-87756571D01*
X93884075Y-87828000D01*
X93955504Y-87899428D01*
X94026932Y-88042285D01*
X94098361Y-88328000D01*
X94098361Y-88685142D01*
X94026932Y-88970857D01*
X93955504Y-89113714D01*
X93884075Y-89185142D01*
X93741218Y-89256571D01*
X93598361Y-89256571D01*
X93455504Y-89185142D01*
X93384075Y-89113714D01*
X93312646Y-88970857D01*
X93241218Y-88685142D01*
X93241218Y-88328000D01*
X93312646Y-88042285D01*
X93384075Y-87899428D01*
X93455504Y-87828000D01*
X93598361Y-87756571D01*
X95026932Y-87756571D02*
X95169789Y-87756571D01*
X95312646Y-87828000D01*
X95384075Y-87899428D01*
X95455504Y-88042285D01*
X95526932Y-88328000D01*
X95526932Y-88685142D01*
X95455504Y-88970857D01*
X95384075Y-89113714D01*
X95312646Y-89185142D01*
X95169789Y-89256571D01*
X95026932Y-89256571D01*
X94884075Y-89185142D01*
X94812646Y-89113714D01*
X94741218Y-88970857D01*
X94669789Y-88685142D01*
X94669789Y-88328000D01*
X94741218Y-88042285D01*
X94812646Y-87899428D01*
X94884075Y-87828000D01*
X95026932Y-87756571D01*
X97312646Y-89256571D02*
X97312646Y-88256571D01*
X97312646Y-88399428D02*
X97384075Y-88328000D01*
X97526932Y-88256571D01*
X97741218Y-88256571D01*
X97884075Y-88328000D01*
X97955504Y-88470857D01*
X97955504Y-89256571D01*
X97955504Y-88470857D02*
X98026932Y-88328000D01*
X98169789Y-88256571D01*
X98384075Y-88256571D01*
X98526932Y-88328000D01*
X98598361Y-88470857D01*
X98598361Y-89256571D01*
X99312646Y-89256571D02*
X99312646Y-88256571D01*
X99312646Y-88399428D02*
X99384075Y-88328000D01*
X99526932Y-88256571D01*
X99741218Y-88256571D01*
X99884075Y-88328000D01*
X99955504Y-88470857D01*
X99955504Y-89256571D01*
X99955504Y-88470857D02*
X100026932Y-88328000D01*
X100169789Y-88256571D01*
X100384075Y-88256571D01*
X100526932Y-88328000D01*
X100598361Y-88470857D01*
X100598361Y-89256571D01*
X88105504Y-90678000D02*
X100805504Y-90678000D01*
X88105504Y-107937125D02*
X88105504Y-90091579D01*
X100805504Y-107937125D02*
X100805504Y-90091579D01*
X100805504Y-90678000D02*
X99679000Y-91264421D01*
X100805504Y-90678000D02*
X99679000Y-90091579D01*
X88105504Y-90678000D02*
X89232008Y-91264421D01*
X88105504Y-90678000D02*
X89232008Y-90091579D01*
D11*
X48326523Y-96719571D02*
X48326523Y-97445285D01*
X48326523Y-97082428D02*
X47056523Y-97082428D01*
X47237952Y-97203380D01*
X47358904Y-97324333D01*
X47419380Y-97445285D01*
X47177476Y-96235761D02*
X47117000Y-96175285D01*
X47056523Y-96054333D01*
X47056523Y-95751952D01*
X47117000Y-95631000D01*
X47177476Y-95570523D01*
X47298428Y-95510047D01*
X47419380Y-95510047D01*
X47600809Y-95570523D01*
X48326523Y-96296238D01*
X48326523Y-95510047D01*
X47056523Y-95147190D02*
X48326523Y-94723857D01*
X47056523Y-94300523D01*
X48326523Y-92304809D02*
X48326523Y-92909571D01*
X47056523Y-92909571D01*
X47661285Y-91881476D02*
X47661285Y-91458142D01*
X48326523Y-91276714D02*
X48326523Y-91881476D01*
X47056523Y-91881476D01*
X47056523Y-91276714D01*
X48326523Y-90732428D02*
X47056523Y-90732428D01*
X47056523Y-90430047D01*
X47117000Y-90248619D01*
X47237952Y-90127666D01*
X47358904Y-90067190D01*
X47600809Y-90006714D01*
X47782238Y-90006714D01*
X48024142Y-90067190D01*
X48145095Y-90127666D01*
X48266047Y-90248619D01*
X48326523Y-90430047D01*
X48326523Y-90732428D01*
D12*
G04 #@! TO.C,J1*
X94234000Y-64262000D02*
X94234000Y-69342000D01*
X93954000Y-61442000D02*
X95504000Y-61442000D01*
X96774000Y-61722000D02*
X96774000Y-64262000D01*
X96774000Y-64262000D02*
X94234000Y-64262000D01*
X94234000Y-69342000D02*
X99314000Y-69342000D01*
X99314000Y-69342000D02*
X99314000Y-64262000D01*
X93954000Y-61442000D02*
X93954000Y-62992000D01*
X99314000Y-61722000D02*
X96774000Y-61722000D01*
X99314000Y-64262000D02*
X99314000Y-61722000D01*
D13*
G04 #@! TO.C,IC1*
X87373057Y-81033842D02*
G75*
G03X87373057Y-81033842I-50800J0D01*
G01*
X88922457Y-82786442D02*
G75*
G03X88922457Y-82786442I-50800J0D01*
G01*
D12*
X88280257Y-82017242D02*
X88280257Y-81792242D01*
X81030257Y-82017242D02*
X81030257Y-81692242D01*
X81030257Y-74767242D02*
X81030257Y-75092242D01*
X88280257Y-74767242D02*
X88280257Y-75092242D01*
X88280257Y-82017242D02*
X87955257Y-82017242D01*
X88280257Y-74767242D02*
X87955257Y-74767242D01*
X81030257Y-74767242D02*
X81355257Y-74767242D01*
X81030257Y-82017242D02*
X81355257Y-82017242D01*
X88280257Y-81792242D02*
X89705257Y-81792242D01*
D14*
G04 #@! TO.C,C102*
X65620000Y-104513000D02*
X65620000Y-103513000D01*
X63920000Y-103513000D02*
X63920000Y-104513000D01*
G04 #@! TO.C,C104*
X69080000Y-94527000D02*
X68080000Y-94527000D01*
X68080000Y-96227000D02*
X69080000Y-96227000D01*
G04 #@! TO.C,C105*
X69080000Y-96813000D02*
X68080000Y-96813000D01*
X68080000Y-98513000D02*
X69080000Y-98513000D01*
D15*
G04 #@! TO.C,D103*
X64462000Y-86137000D02*
X64462000Y-86487000D01*
X64462000Y-86487000D02*
X64462000Y-86837000D01*
X64112000Y-86137000D02*
X64462000Y-86487000D01*
X64112000Y-86187000D02*
X64112000Y-86137000D01*
X64112000Y-86137000D02*
X64112000Y-86187000D01*
X64112000Y-86837000D02*
X64112000Y-86187000D01*
X64162000Y-86787000D02*
X64112000Y-86837000D01*
X64462000Y-86487000D02*
X64162000Y-86787000D01*
D14*
X66062000Y-87187000D02*
X66062000Y-85787000D01*
X66062000Y-85787000D02*
X63262000Y-85787000D01*
X66062000Y-87187000D02*
X63262000Y-87187000D01*
G04 #@! TO.C,F101*
X53999500Y-97779500D02*
X53999500Y-95779500D01*
X56959500Y-95779500D02*
X56959500Y-97779500D01*
G04 #@! TO.C,R101*
X51724000Y-98307000D02*
X52924000Y-98307000D01*
X52924000Y-100067000D02*
X51724000Y-100067000D01*
G04 #@! TO.C,R102*
X52924000Y-102099000D02*
X51724000Y-102099000D01*
X51724000Y-100339000D02*
X52924000Y-100339000D01*
G04 #@! TO.C,R106*
X60798000Y-87367000D02*
X59598000Y-87367000D01*
X59598000Y-85607000D02*
X60798000Y-85607000D01*
G04 #@! TO.C,U101*
X60150100Y-101779500D02*
X60150100Y-103579500D01*
X63370100Y-103579500D02*
X63370100Y-101129500D01*
G04 #@! TO.C,C101*
X59440000Y-103997000D02*
X59440000Y-101997000D01*
X57400000Y-101997000D02*
X57400000Y-103997000D01*
G04 #@! TO.C,C103*
X69080000Y-92495000D02*
X68080000Y-92495000D01*
X68080000Y-94195000D02*
X69080000Y-94195000D01*
D15*
G04 #@! TO.C,D102*
X51212000Y-95431000D02*
X51562000Y-95431000D01*
X51562000Y-95431000D02*
X51912000Y-95431000D01*
X51212000Y-95781000D02*
X51562000Y-95431000D01*
X51262000Y-95781000D02*
X51212000Y-95781000D01*
X51212000Y-95781000D02*
X51262000Y-95781000D01*
X51912000Y-95781000D02*
X51262000Y-95781000D01*
X51862000Y-95731000D02*
X51912000Y-95781000D01*
X51562000Y-95431000D02*
X51862000Y-95731000D01*
D14*
X52262000Y-93831000D02*
X50862000Y-93831000D01*
X50862000Y-93831000D02*
X50862000Y-96631000D01*
X52262000Y-93831000D02*
X52262000Y-96631000D01*
D16*
G04 #@! TO.C,D101*
X55102000Y-88427000D02*
X54202000Y-89527000D01*
X53402000Y-88427000D02*
X55102000Y-88427000D01*
X54202000Y-89527000D02*
X53402000Y-88427000D01*
X53402000Y-89527000D02*
X55102000Y-89527000D01*
D14*
X52768500Y-92202000D02*
X55435500Y-92202000D01*
X55435500Y-92202000D02*
X55435500Y-89027000D01*
X52768500Y-92202000D02*
X52768500Y-89027000D01*
G04 #@! TO.C,R103*
X59344000Y-105419000D02*
X60544000Y-105419000D01*
X60544000Y-107179000D02*
X59344000Y-107179000D01*
G04 #@! TO.C,R104*
X68952000Y-103667000D02*
X68952000Y-104867000D01*
X67192000Y-104867000D02*
X67192000Y-103667000D01*
G04 #@! TO.C,C1*
X92902257Y-77732742D02*
X91902257Y-77732742D01*
X91902257Y-79432742D02*
X92902257Y-79432742D01*
G04 #@! TO.C,C2*
X77154257Y-78113742D02*
X76154257Y-78113742D01*
X76154257Y-79813742D02*
X77154257Y-79813742D01*
G04 #@! TO.C,C3*
X85124257Y-70573742D02*
X85124257Y-69573742D01*
X83424257Y-69573742D02*
X83424257Y-70573742D01*
G04 #@! TO.C,C4*
X86949257Y-67748742D02*
X87949257Y-67748742D01*
X87949257Y-66048742D02*
X86949257Y-66048742D01*
G04 #@! TO.C,C5*
X59174000Y-67398000D02*
X60174000Y-67398000D01*
X60174000Y-65698000D02*
X59174000Y-65698000D01*
G04 #@! TO.C,R1*
X77254257Y-77811742D02*
X76054257Y-77811742D01*
X76054257Y-76051742D02*
X77254257Y-76051742D01*
G04 #@! TO.C,R2*
X91830000Y-66386000D02*
X91830000Y-65186000D01*
X93590000Y-65186000D02*
X93590000Y-66386000D01*
G04 #@! TO.C,R3*
X52460000Y-70958000D02*
X52460000Y-69758000D01*
X54220000Y-69758000D02*
X54220000Y-70958000D01*
D12*
G04 #@! TO.C,T1*
X97790000Y-92456000D02*
X97790000Y-106426000D01*
X91440000Y-106426000D02*
X91440000Y-92456000D01*
X97790000Y-106426000D02*
X91440000Y-106426000D01*
X91440000Y-92456000D02*
X97790000Y-92456000D01*
G04 #@! TO.C,U1*
X61765000Y-72933000D02*
X61765000Y-72883000D01*
X57615000Y-72933000D02*
X57615000Y-72788000D01*
X57615000Y-67783000D02*
X57615000Y-67928000D01*
X61765000Y-67783000D02*
X61765000Y-67928000D01*
X61765000Y-72933000D02*
X57615000Y-72933000D01*
X61765000Y-67783000D02*
X57615000Y-67783000D01*
X61765000Y-72883000D02*
X63165000Y-72883000D01*
D15*
G04 #@! TO.C,Y1*
X85678804Y-68579681D02*
X87678804Y-68579681D01*
X85678804Y-68579681D02*
X85678804Y-70179681D01*
D14*
G04 #@! TO.C,R105*
X63814000Y-91355000D02*
X58614000Y-91355000D01*
X58614000Y-87715000D02*
X63814000Y-87715000D01*
G04 #@! TO.C,C7*
X101004000Y-59952000D02*
X101004000Y-60952000D01*
X102704000Y-60952000D02*
X102704000Y-59952000D01*
G04 #@! TO.C,C8*
X81542000Y-105498000D02*
X82542000Y-105498000D01*
X82542000Y-103798000D02*
X81542000Y-103798000D01*
G04 #@! TO.C,C9*
X86098000Y-101766000D02*
X85098000Y-101766000D01*
X85098000Y-103466000D02*
X86098000Y-103466000D01*
G04 #@! TO.C,C10*
X102354000Y-69508000D02*
X101354000Y-69508000D01*
X101354000Y-71208000D02*
X102354000Y-71208000D01*
D15*
G04 #@! TO.C,D1*
X76835257Y-67883742D02*
X76835257Y-67533742D01*
X76835257Y-67533742D02*
X76835257Y-67183742D01*
X77185257Y-67883742D02*
X76835257Y-67533742D01*
X77185257Y-67833742D02*
X77185257Y-67883742D01*
X77185257Y-67883742D02*
X77185257Y-67833742D01*
X77185257Y-67183742D02*
X77185257Y-67833742D01*
X77135257Y-67233742D02*
X77185257Y-67183742D01*
X76835257Y-67533742D02*
X77135257Y-67233742D01*
D14*
X75235257Y-66833742D02*
X75235257Y-68233742D01*
X75235257Y-68233742D02*
X78035257Y-68233742D01*
X75235257Y-66833742D02*
X78035257Y-66833742D01*
G04 #@! TO.C,D2*
X75235257Y-69094976D02*
X78035257Y-69094976D01*
X75235257Y-70494976D02*
X78035257Y-70494976D01*
X75235257Y-69094976D02*
X75235257Y-70494976D01*
D15*
X76835257Y-69794976D02*
X77135257Y-69494976D01*
X77135257Y-69494976D02*
X77185257Y-69444976D01*
X77185257Y-69444976D02*
X77185257Y-70094976D01*
X77185257Y-70144976D02*
X77185257Y-70094976D01*
X77185257Y-70094976D02*
X77185257Y-70144976D01*
X77185257Y-70144976D02*
X76835257Y-69794976D01*
X76835257Y-69794976D02*
X76835257Y-69444976D01*
X76835257Y-70144976D02*
X76835257Y-69794976D01*
G04 #@! TO.C,D3*
X76835257Y-72709742D02*
X76835257Y-72359742D01*
X76835257Y-72359742D02*
X76835257Y-72009742D01*
X77185257Y-72709742D02*
X76835257Y-72359742D01*
X77185257Y-72659742D02*
X77185257Y-72709742D01*
X77185257Y-72709742D02*
X77185257Y-72659742D01*
X77185257Y-72009742D02*
X77185257Y-72659742D01*
X77135257Y-72059742D02*
X77185257Y-72009742D01*
X76835257Y-72359742D02*
X77135257Y-72059742D01*
D14*
X75235257Y-71659742D02*
X75235257Y-73059742D01*
X75235257Y-73059742D02*
X78035257Y-73059742D01*
X75235257Y-71659742D02*
X78035257Y-71659742D01*
G04 #@! TO.C,D4*
X83256000Y-59942000D02*
X84186000Y-59942000D01*
X86416000Y-59942000D02*
X85486000Y-59942000D01*
X86416000Y-59942000D02*
X86416000Y-57782000D01*
X83256000Y-59942000D02*
X83256000Y-58482000D01*
D12*
G04 #@! TO.C,J2*
X92348000Y-50878000D02*
X92348000Y-55378000D01*
X92348000Y-55378000D02*
X104248000Y-55378000D01*
X104248000Y-50878000D02*
X92348000Y-50878000D01*
X104248000Y-50878000D02*
X104248000Y-55378000D01*
D14*
G04 #@! TO.C,J3*
X114670000Y-93380000D02*
X105910000Y-93380000D01*
X105910000Y-93380000D02*
X105910000Y-99620000D01*
X105910000Y-99620000D02*
X114670000Y-99620000D01*
X114670000Y-99620000D02*
X114670000Y-93380000D01*
X105910000Y-95100000D02*
X105440000Y-95100000D01*
X105440000Y-95100000D02*
X105440000Y-95400000D01*
X105440000Y-95400000D02*
X105910000Y-95400000D01*
X105910000Y-95400000D02*
X105910000Y-95100000D01*
X105910000Y-97600000D02*
X105440000Y-97600000D01*
X105440000Y-97600000D02*
X105440000Y-97900000D01*
X105440000Y-97900000D02*
X105910000Y-97900000D01*
X105910000Y-97900000D02*
X105910000Y-97600000D01*
X104140000Y-93850000D02*
X103840000Y-93250000D01*
X103840000Y-93250000D02*
X104440000Y-93250000D01*
X104440000Y-93250000D02*
X104140000Y-93850000D01*
D12*
G04 #@! TO.C,J5*
X44340000Y-86760000D02*
X49640000Y-86760000D01*
X44340000Y-64370000D02*
X49640000Y-64370000D01*
X44340000Y-86760000D02*
X44340000Y-64370000D01*
X49640000Y-86760000D02*
X49640000Y-64370000D01*
D14*
G04 #@! TO.C,K1*
X82610000Y-50730000D02*
X62170000Y-50730000D01*
X62170000Y-50730000D02*
X62170000Y-61030000D01*
X82610000Y-50730000D02*
X82610000Y-61030000D01*
X82610000Y-61030000D02*
X62170000Y-61030000D01*
G04 #@! TO.C,Q1*
X84584147Y-51169166D02*
X84584147Y-52099166D01*
X84584147Y-54329166D02*
X84584147Y-53399166D01*
X84584147Y-54329166D02*
X86744147Y-54329166D01*
X84584147Y-51169166D02*
X86044147Y-51169166D01*
G04 #@! TO.C,R4*
X73875928Y-68388976D02*
X72675928Y-68388976D01*
X72675928Y-66628976D02*
X73875928Y-66628976D01*
G04 #@! TO.C,R5*
X72675928Y-68914976D02*
X73875928Y-68914976D01*
X73875928Y-70674976D02*
X72675928Y-70674976D01*
G04 #@! TO.C,R6*
X72675928Y-71454976D02*
X73875928Y-71454976D01*
X73875928Y-73214976D02*
X72675928Y-73214976D01*
G04 #@! TO.C,R7*
X91720000Y-57776000D02*
X90520000Y-57776000D01*
X90520000Y-56016000D02*
X91720000Y-56016000D01*
G04 #@! TO.C,R8*
X83071511Y-96445383D02*
X81871511Y-96445383D01*
X81871511Y-94685383D02*
X83071511Y-94685383D01*
G04 #@! TO.C,R9*
X80093511Y-96717383D02*
X81293511Y-96717383D01*
X81293511Y-98477383D02*
X80093511Y-98477383D01*
G04 #@! TO.C,R10*
X84998000Y-103768000D02*
X86198000Y-103768000D01*
X86198000Y-105528000D02*
X84998000Y-105528000D01*
G04 #@! TO.C,R11*
X84998000Y-99704000D02*
X86198000Y-99704000D01*
X86198000Y-101464000D02*
X84998000Y-101464000D01*
G04 #@! TO.C,R12*
X87478147Y-53349166D02*
X87478147Y-52149166D01*
X89238147Y-52149166D02*
X89238147Y-53349166D01*
G04 #@! TO.C,R13*
X94904000Y-56016000D02*
X96104000Y-56016000D01*
X96104000Y-57776000D02*
X94904000Y-57776000D01*
G04 #@! TO.C,R14*
X104556000Y-63128000D02*
X105756000Y-63128000D01*
X105756000Y-64888000D02*
X104556000Y-64888000D01*
D12*
G04 #@! TO.C,U3*
X81848511Y-89572383D02*
X81623511Y-89572383D01*
X81848511Y-92922383D02*
X81548511Y-92922383D01*
X76998511Y-92922383D02*
X77298511Y-92922383D01*
X76998511Y-89572383D02*
X77298511Y-89572383D01*
X81848511Y-89572383D02*
X81848511Y-92922383D01*
X76998511Y-89572383D02*
X76998511Y-92922383D01*
X81623511Y-89572383D02*
X81623511Y-88347383D01*
D14*
G04 #@! TO.C,U4*
X106056000Y-58842000D02*
X104256000Y-58842000D01*
X104256000Y-62062000D02*
X106706000Y-62062000D01*
G04 #@! TO.C,U5*
X101208000Y-68666000D02*
X103658000Y-68666000D01*
X103008000Y-65446000D02*
X101208000Y-65446000D01*
G04 #@! TO.C,U2*
X60568000Y-83398000D02*
X62368000Y-83398000D01*
X62368000Y-80178000D02*
X59918000Y-80178000D01*
G04 #@! TO.C,C6*
X63666000Y-81288000D02*
X63666000Y-82288000D01*
X65366000Y-82288000D02*
X65366000Y-81288000D01*
G04 #@! TO.C,R15*
X76047000Y-82127200D02*
X77247000Y-82127200D01*
X77247000Y-83887200D02*
X76047000Y-83887200D01*
G04 #@! TO.C,R16*
X77247000Y-81931400D02*
X76047000Y-81931400D01*
X76047000Y-80171400D02*
X77247000Y-80171400D01*
G04 #@! TO.C,C11*
X110228000Y-57824000D02*
X109228000Y-57824000D01*
X109228000Y-59524000D02*
X110228000Y-59524000D01*
G04 #@! TO.C,R17*
X97120000Y-60062000D02*
X95920000Y-60062000D01*
X95920000Y-58302000D02*
X97120000Y-58302000D01*
G04 #@! TO.C,R18*
X99476000Y-55762000D02*
X100676000Y-55762000D01*
X100676000Y-57522000D02*
X99476000Y-57522000D01*
G04 #@! TO.C,R19*
X98688000Y-60036000D02*
X98688000Y-58836000D01*
X100448000Y-58836000D02*
X100448000Y-60036000D01*
G04 #@! TO.C,R20*
X104232000Y-57522000D02*
X103032000Y-57522000D01*
X103032000Y-55762000D02*
X104232000Y-55762000D01*
G04 #@! TO.C,R21*
X102454000Y-64888000D02*
X101254000Y-64888000D01*
X101254000Y-63128000D02*
X102454000Y-63128000D01*
G04 #@! TO.C,R22*
X111896000Y-60036000D02*
X111896000Y-58836000D01*
X113656000Y-58836000D02*
X113656000Y-60036000D01*
G04 #@! TO.C,R23*
X111896000Y-63592000D02*
X111896000Y-62392000D01*
X113656000Y-62392000D02*
X113656000Y-63592000D01*
G04 #@! TO.C,U6*
X108118000Y-61076000D02*
X108118000Y-63526000D01*
X111338000Y-62876000D02*
X111338000Y-61076000D01*
G04 #@! TO.C,U7*
X110690000Y-68666000D02*
X112490000Y-68666000D01*
X112490000Y-65446000D02*
X110040000Y-65446000D01*
D12*
G04 #@! TO.C,J4*
X45536000Y-51333000D02*
X51106000Y-51333000D01*
X51106000Y-51333000D02*
X51106000Y-60983000D01*
X51106000Y-60983000D02*
X45536000Y-60983000D01*
X45536000Y-51333000D02*
X45536000Y-60983000D01*
G04 #@! TO.C,J1*
X96948666Y-70064380D02*
X96948666Y-70778666D01*
X96901047Y-70921523D01*
X96805809Y-71016761D01*
X96662952Y-71064380D01*
X96567714Y-71064380D01*
X97948666Y-71064380D02*
X97377238Y-71064380D01*
X97662952Y-71064380D02*
X97662952Y-70064380D01*
X97567714Y-70207238D01*
X97472476Y-70302476D01*
X97377238Y-70350095D01*
G04 #@! TO.C,IC1*
X83679066Y-84894622D02*
X83679066Y-83894622D01*
X84726685Y-84799384D02*
X84679066Y-84847003D01*
X84536209Y-84894622D01*
X84440971Y-84894622D01*
X84298114Y-84847003D01*
X84202876Y-84751765D01*
X84155257Y-84656527D01*
X84107637Y-84466051D01*
X84107637Y-84323194D01*
X84155257Y-84132718D01*
X84202876Y-84037480D01*
X84298114Y-83942242D01*
X84440971Y-83894622D01*
X84536209Y-83894622D01*
X84679066Y-83942242D01*
X84726685Y-83989861D01*
X85679066Y-84894622D02*
X85107637Y-84894622D01*
X85393352Y-84894622D02*
X85393352Y-83894622D01*
X85298114Y-84037480D01*
X85202876Y-84132718D01*
X85107637Y-84180337D01*
G04 #@! TO.C,C102*
X63650952Y-107037142D02*
X63603333Y-107084761D01*
X63460476Y-107132380D01*
X63365238Y-107132380D01*
X63222380Y-107084761D01*
X63127142Y-106989523D01*
X63079523Y-106894285D01*
X63031904Y-106703809D01*
X63031904Y-106560952D01*
X63079523Y-106370476D01*
X63127142Y-106275238D01*
X63222380Y-106180000D01*
X63365238Y-106132380D01*
X63460476Y-106132380D01*
X63603333Y-106180000D01*
X63650952Y-106227619D01*
X64603333Y-107132380D02*
X64031904Y-107132380D01*
X64317619Y-107132380D02*
X64317619Y-106132380D01*
X64222380Y-106275238D01*
X64127142Y-106370476D01*
X64031904Y-106418095D01*
X65222380Y-106132380D02*
X65317619Y-106132380D01*
X65412857Y-106180000D01*
X65460476Y-106227619D01*
X65508095Y-106322857D01*
X65555714Y-106513333D01*
X65555714Y-106751428D01*
X65508095Y-106941904D01*
X65460476Y-107037142D01*
X65412857Y-107084761D01*
X65317619Y-107132380D01*
X65222380Y-107132380D01*
X65127142Y-107084761D01*
X65079523Y-107037142D01*
X65031904Y-106941904D01*
X64984285Y-106751428D01*
X64984285Y-106513333D01*
X65031904Y-106322857D01*
X65079523Y-106227619D01*
X65127142Y-106180000D01*
X65222380Y-106132380D01*
X65936666Y-106227619D02*
X65984285Y-106180000D01*
X66079523Y-106132380D01*
X66317619Y-106132380D01*
X66412857Y-106180000D01*
X66460476Y-106227619D01*
X66508095Y-106322857D01*
X66508095Y-106418095D01*
X66460476Y-106560952D01*
X65889047Y-107132380D01*
X66508095Y-107132380D01*
G04 #@! TO.C,C104*
X71270952Y-95734142D02*
X71223333Y-95781761D01*
X71080476Y-95829380D01*
X70985238Y-95829380D01*
X70842380Y-95781761D01*
X70747142Y-95686523D01*
X70699523Y-95591285D01*
X70651904Y-95400809D01*
X70651904Y-95257952D01*
X70699523Y-95067476D01*
X70747142Y-94972238D01*
X70842380Y-94877000D01*
X70985238Y-94829380D01*
X71080476Y-94829380D01*
X71223333Y-94877000D01*
X71270952Y-94924619D01*
X72223333Y-95829380D02*
X71651904Y-95829380D01*
X71937619Y-95829380D02*
X71937619Y-94829380D01*
X71842380Y-94972238D01*
X71747142Y-95067476D01*
X71651904Y-95115095D01*
X72842380Y-94829380D02*
X72937619Y-94829380D01*
X73032857Y-94877000D01*
X73080476Y-94924619D01*
X73128095Y-95019857D01*
X73175714Y-95210333D01*
X73175714Y-95448428D01*
X73128095Y-95638904D01*
X73080476Y-95734142D01*
X73032857Y-95781761D01*
X72937619Y-95829380D01*
X72842380Y-95829380D01*
X72747142Y-95781761D01*
X72699523Y-95734142D01*
X72651904Y-95638904D01*
X72604285Y-95448428D01*
X72604285Y-95210333D01*
X72651904Y-95019857D01*
X72699523Y-94924619D01*
X72747142Y-94877000D01*
X72842380Y-94829380D01*
X74032857Y-95162714D02*
X74032857Y-95829380D01*
X73794761Y-94781761D02*
X73556666Y-95496047D01*
X74175714Y-95496047D01*
G04 #@! TO.C,C105*
X71270952Y-97766142D02*
X71223333Y-97813761D01*
X71080476Y-97861380D01*
X70985238Y-97861380D01*
X70842380Y-97813761D01*
X70747142Y-97718523D01*
X70699523Y-97623285D01*
X70651904Y-97432809D01*
X70651904Y-97289952D01*
X70699523Y-97099476D01*
X70747142Y-97004238D01*
X70842380Y-96909000D01*
X70985238Y-96861380D01*
X71080476Y-96861380D01*
X71223333Y-96909000D01*
X71270952Y-96956619D01*
X72223333Y-97861380D02*
X71651904Y-97861380D01*
X71937619Y-97861380D02*
X71937619Y-96861380D01*
X71842380Y-97004238D01*
X71747142Y-97099476D01*
X71651904Y-97147095D01*
X72842380Y-96861380D02*
X72937619Y-96861380D01*
X73032857Y-96909000D01*
X73080476Y-96956619D01*
X73128095Y-97051857D01*
X73175714Y-97242333D01*
X73175714Y-97480428D01*
X73128095Y-97670904D01*
X73080476Y-97766142D01*
X73032857Y-97813761D01*
X72937619Y-97861380D01*
X72842380Y-97861380D01*
X72747142Y-97813761D01*
X72699523Y-97766142D01*
X72651904Y-97670904D01*
X72604285Y-97480428D01*
X72604285Y-97242333D01*
X72651904Y-97051857D01*
X72699523Y-96956619D01*
X72747142Y-96909000D01*
X72842380Y-96861380D01*
X74080476Y-96861380D02*
X73604285Y-96861380D01*
X73556666Y-97337571D01*
X73604285Y-97289952D01*
X73699523Y-97242333D01*
X73937619Y-97242333D01*
X74032857Y-97289952D01*
X74080476Y-97337571D01*
X74128095Y-97432809D01*
X74128095Y-97670904D01*
X74080476Y-97766142D01*
X74032857Y-97813761D01*
X73937619Y-97861380D01*
X73699523Y-97861380D01*
X73604285Y-97813761D01*
X73556666Y-97766142D01*
G04 #@! TO.C,D103*
X62825523Y-85161380D02*
X62825523Y-84161380D01*
X63063619Y-84161380D01*
X63206476Y-84209000D01*
X63301714Y-84304238D01*
X63349333Y-84399476D01*
X63396952Y-84589952D01*
X63396952Y-84732809D01*
X63349333Y-84923285D01*
X63301714Y-85018523D01*
X63206476Y-85113761D01*
X63063619Y-85161380D01*
X62825523Y-85161380D01*
X64349333Y-85161380D02*
X63777904Y-85161380D01*
X64063619Y-85161380D02*
X64063619Y-84161380D01*
X63968380Y-84304238D01*
X63873142Y-84399476D01*
X63777904Y-84447095D01*
X64968380Y-84161380D02*
X65063619Y-84161380D01*
X65158857Y-84209000D01*
X65206476Y-84256619D01*
X65254095Y-84351857D01*
X65301714Y-84542333D01*
X65301714Y-84780428D01*
X65254095Y-84970904D01*
X65206476Y-85066142D01*
X65158857Y-85113761D01*
X65063619Y-85161380D01*
X64968380Y-85161380D01*
X64873142Y-85113761D01*
X64825523Y-85066142D01*
X64777904Y-84970904D01*
X64730285Y-84780428D01*
X64730285Y-84542333D01*
X64777904Y-84351857D01*
X64825523Y-84256619D01*
X64873142Y-84209000D01*
X64968380Y-84161380D01*
X65635047Y-84161380D02*
X66254095Y-84161380D01*
X65920761Y-84542333D01*
X66063619Y-84542333D01*
X66158857Y-84589952D01*
X66206476Y-84637571D01*
X66254095Y-84732809D01*
X66254095Y-84970904D01*
X66206476Y-85066142D01*
X66158857Y-85113761D01*
X66063619Y-85161380D01*
X65777904Y-85161380D01*
X65682666Y-85113761D01*
X65635047Y-85066142D01*
G04 #@! TO.C,F101*
X53268571Y-97678714D02*
X53268571Y-98012047D01*
X53792380Y-98012047D02*
X52792380Y-98012047D01*
X52792380Y-97535857D01*
X53792380Y-96631095D02*
X53792380Y-97202523D01*
X53792380Y-96916809D02*
X52792380Y-96916809D01*
X52935238Y-97012047D01*
X53030476Y-97107285D01*
X53078095Y-97202523D01*
X52792380Y-96012047D02*
X52792380Y-95916809D01*
X52840000Y-95821571D01*
X52887619Y-95773952D01*
X52982857Y-95726333D01*
X53173333Y-95678714D01*
X53411428Y-95678714D01*
X53601904Y-95726333D01*
X53697142Y-95773952D01*
X53744761Y-95821571D01*
X53792380Y-95916809D01*
X53792380Y-96012047D01*
X53744761Y-96107285D01*
X53697142Y-96154904D01*
X53601904Y-96202523D01*
X53411428Y-96250142D01*
X53173333Y-96250142D01*
X52982857Y-96202523D01*
X52887619Y-96154904D01*
X52840000Y-96107285D01*
X52792380Y-96012047D01*
X53792380Y-94726333D02*
X53792380Y-95297761D01*
X53792380Y-95012047D02*
X52792380Y-95012047D01*
X52935238Y-95107285D01*
X53030476Y-95202523D01*
X53078095Y-95297761D01*
G04 #@! TO.C,L101*
X57094380Y-93956047D02*
X57094380Y-94432238D01*
X56094380Y-94432238D01*
X57094380Y-93098904D02*
X57094380Y-93670333D01*
X57094380Y-93384619D02*
X56094380Y-93384619D01*
X56237238Y-93479857D01*
X56332476Y-93575095D01*
X56380095Y-93670333D01*
X56094380Y-92479857D02*
X56094380Y-92384619D01*
X56142000Y-92289380D01*
X56189619Y-92241761D01*
X56284857Y-92194142D01*
X56475333Y-92146523D01*
X56713428Y-92146523D01*
X56903904Y-92194142D01*
X56999142Y-92241761D01*
X57046761Y-92289380D01*
X57094380Y-92384619D01*
X57094380Y-92479857D01*
X57046761Y-92575095D01*
X56999142Y-92622714D01*
X56903904Y-92670333D01*
X56713428Y-92717952D01*
X56475333Y-92717952D01*
X56284857Y-92670333D01*
X56189619Y-92622714D01*
X56142000Y-92575095D01*
X56094380Y-92479857D01*
X57094380Y-91194142D02*
X57094380Y-91765571D01*
X57094380Y-91479857D02*
X56094380Y-91479857D01*
X56237238Y-91575095D01*
X56332476Y-91670333D01*
X56380095Y-91765571D01*
G04 #@! TO.C,R101*
X47775952Y-99639380D02*
X47442619Y-99163190D01*
X47204523Y-99639380D02*
X47204523Y-98639380D01*
X47585476Y-98639380D01*
X47680714Y-98687000D01*
X47728333Y-98734619D01*
X47775952Y-98829857D01*
X47775952Y-98972714D01*
X47728333Y-99067952D01*
X47680714Y-99115571D01*
X47585476Y-99163190D01*
X47204523Y-99163190D01*
X48728333Y-99639380D02*
X48156904Y-99639380D01*
X48442619Y-99639380D02*
X48442619Y-98639380D01*
X48347380Y-98782238D01*
X48252142Y-98877476D01*
X48156904Y-98925095D01*
X49347380Y-98639380D02*
X49442619Y-98639380D01*
X49537857Y-98687000D01*
X49585476Y-98734619D01*
X49633095Y-98829857D01*
X49680714Y-99020333D01*
X49680714Y-99258428D01*
X49633095Y-99448904D01*
X49585476Y-99544142D01*
X49537857Y-99591761D01*
X49442619Y-99639380D01*
X49347380Y-99639380D01*
X49252142Y-99591761D01*
X49204523Y-99544142D01*
X49156904Y-99448904D01*
X49109285Y-99258428D01*
X49109285Y-99020333D01*
X49156904Y-98829857D01*
X49204523Y-98734619D01*
X49252142Y-98687000D01*
X49347380Y-98639380D01*
X50633095Y-99639380D02*
X50061666Y-99639380D01*
X50347380Y-99639380D02*
X50347380Y-98639380D01*
X50252142Y-98782238D01*
X50156904Y-98877476D01*
X50061666Y-98925095D01*
G04 #@! TO.C,R102*
X54633952Y-101671380D02*
X54300619Y-101195190D01*
X54062523Y-101671380D02*
X54062523Y-100671380D01*
X54443476Y-100671380D01*
X54538714Y-100719000D01*
X54586333Y-100766619D01*
X54633952Y-100861857D01*
X54633952Y-101004714D01*
X54586333Y-101099952D01*
X54538714Y-101147571D01*
X54443476Y-101195190D01*
X54062523Y-101195190D01*
X55586333Y-101671380D02*
X55014904Y-101671380D01*
X55300619Y-101671380D02*
X55300619Y-100671380D01*
X55205380Y-100814238D01*
X55110142Y-100909476D01*
X55014904Y-100957095D01*
X56205380Y-100671380D02*
X56300619Y-100671380D01*
X56395857Y-100719000D01*
X56443476Y-100766619D01*
X56491095Y-100861857D01*
X56538714Y-101052333D01*
X56538714Y-101290428D01*
X56491095Y-101480904D01*
X56443476Y-101576142D01*
X56395857Y-101623761D01*
X56300619Y-101671380D01*
X56205380Y-101671380D01*
X56110142Y-101623761D01*
X56062523Y-101576142D01*
X56014904Y-101480904D01*
X55967285Y-101290428D01*
X55967285Y-101052333D01*
X56014904Y-100861857D01*
X56062523Y-100766619D01*
X56110142Y-100719000D01*
X56205380Y-100671380D01*
X56919666Y-100766619D02*
X56967285Y-100719000D01*
X57062523Y-100671380D01*
X57300619Y-100671380D01*
X57395857Y-100719000D01*
X57443476Y-100766619D01*
X57491095Y-100861857D01*
X57491095Y-100957095D01*
X57443476Y-101099952D01*
X56872047Y-101671380D01*
X57491095Y-101671380D01*
G04 #@! TO.C,R106*
X59078952Y-85289380D02*
X58745619Y-84813190D01*
X58507523Y-85289380D02*
X58507523Y-84289380D01*
X58888476Y-84289380D01*
X58983714Y-84337000D01*
X59031333Y-84384619D01*
X59078952Y-84479857D01*
X59078952Y-84622714D01*
X59031333Y-84717952D01*
X58983714Y-84765571D01*
X58888476Y-84813190D01*
X58507523Y-84813190D01*
X60031333Y-85289380D02*
X59459904Y-85289380D01*
X59745619Y-85289380D02*
X59745619Y-84289380D01*
X59650380Y-84432238D01*
X59555142Y-84527476D01*
X59459904Y-84575095D01*
X60650380Y-84289380D02*
X60745619Y-84289380D01*
X60840857Y-84337000D01*
X60888476Y-84384619D01*
X60936095Y-84479857D01*
X60983714Y-84670333D01*
X60983714Y-84908428D01*
X60936095Y-85098904D01*
X60888476Y-85194142D01*
X60840857Y-85241761D01*
X60745619Y-85289380D01*
X60650380Y-85289380D01*
X60555142Y-85241761D01*
X60507523Y-85194142D01*
X60459904Y-85098904D01*
X60412285Y-84908428D01*
X60412285Y-84670333D01*
X60459904Y-84479857D01*
X60507523Y-84384619D01*
X60555142Y-84337000D01*
X60650380Y-84289380D01*
X61840857Y-84289380D02*
X61650380Y-84289380D01*
X61555142Y-84337000D01*
X61507523Y-84384619D01*
X61412285Y-84527476D01*
X61364666Y-84717952D01*
X61364666Y-85098904D01*
X61412285Y-85194142D01*
X61459904Y-85241761D01*
X61555142Y-85289380D01*
X61745619Y-85289380D01*
X61840857Y-85241761D01*
X61888476Y-85194142D01*
X61936095Y-85098904D01*
X61936095Y-84860809D01*
X61888476Y-84765571D01*
X61840857Y-84717952D01*
X61745619Y-84670333D01*
X61555142Y-84670333D01*
X61459904Y-84717952D01*
X61412285Y-84765571D01*
X61364666Y-84860809D01*
G04 #@! TO.C,U101*
X64071714Y-100671380D02*
X64071714Y-101480904D01*
X64119333Y-101576142D01*
X64166952Y-101623761D01*
X64262190Y-101671380D01*
X64452666Y-101671380D01*
X64547904Y-101623761D01*
X64595523Y-101576142D01*
X64643142Y-101480904D01*
X64643142Y-100671380D01*
X65643142Y-101671380D02*
X65071714Y-101671380D01*
X65357428Y-101671380D02*
X65357428Y-100671380D01*
X65262190Y-100814238D01*
X65166952Y-100909476D01*
X65071714Y-100957095D01*
X66262190Y-100671380D02*
X66357428Y-100671380D01*
X66452666Y-100719000D01*
X66500285Y-100766619D01*
X66547904Y-100861857D01*
X66595523Y-101052333D01*
X66595523Y-101290428D01*
X66547904Y-101480904D01*
X66500285Y-101576142D01*
X66452666Y-101623761D01*
X66357428Y-101671380D01*
X66262190Y-101671380D01*
X66166952Y-101623761D01*
X66119333Y-101576142D01*
X66071714Y-101480904D01*
X66024095Y-101290428D01*
X66024095Y-101052333D01*
X66071714Y-100861857D01*
X66119333Y-100766619D01*
X66166952Y-100719000D01*
X66262190Y-100671380D01*
X67547904Y-101671380D02*
X66976476Y-101671380D01*
X67262190Y-101671380D02*
X67262190Y-100671380D01*
X67166952Y-100814238D01*
X67071714Y-100909476D01*
X66976476Y-100957095D01*
G04 #@! TO.C,C101*
X56999142Y-104116047D02*
X57046761Y-104163666D01*
X57094380Y-104306523D01*
X57094380Y-104401761D01*
X57046761Y-104544619D01*
X56951523Y-104639857D01*
X56856285Y-104687476D01*
X56665809Y-104735095D01*
X56522952Y-104735095D01*
X56332476Y-104687476D01*
X56237238Y-104639857D01*
X56142000Y-104544619D01*
X56094380Y-104401761D01*
X56094380Y-104306523D01*
X56142000Y-104163666D01*
X56189619Y-104116047D01*
X57094380Y-103163666D02*
X57094380Y-103735095D01*
X57094380Y-103449380D02*
X56094380Y-103449380D01*
X56237238Y-103544619D01*
X56332476Y-103639857D01*
X56380095Y-103735095D01*
X56094380Y-102544619D02*
X56094380Y-102449380D01*
X56142000Y-102354142D01*
X56189619Y-102306523D01*
X56284857Y-102258904D01*
X56475333Y-102211285D01*
X56713428Y-102211285D01*
X56903904Y-102258904D01*
X56999142Y-102306523D01*
X57046761Y-102354142D01*
X57094380Y-102449380D01*
X57094380Y-102544619D01*
X57046761Y-102639857D01*
X56999142Y-102687476D01*
X56903904Y-102735095D01*
X56713428Y-102782714D01*
X56475333Y-102782714D01*
X56284857Y-102735095D01*
X56189619Y-102687476D01*
X56142000Y-102639857D01*
X56094380Y-102544619D01*
X57094380Y-101258904D02*
X57094380Y-101830333D01*
X57094380Y-101544619D02*
X56094380Y-101544619D01*
X56237238Y-101639857D01*
X56332476Y-101735095D01*
X56380095Y-101830333D01*
G04 #@! TO.C,C103*
X71270952Y-93829142D02*
X71223333Y-93876761D01*
X71080476Y-93924380D01*
X70985238Y-93924380D01*
X70842380Y-93876761D01*
X70747142Y-93781523D01*
X70699523Y-93686285D01*
X70651904Y-93495809D01*
X70651904Y-93352952D01*
X70699523Y-93162476D01*
X70747142Y-93067238D01*
X70842380Y-92972000D01*
X70985238Y-92924380D01*
X71080476Y-92924380D01*
X71223333Y-92972000D01*
X71270952Y-93019619D01*
X72223333Y-93924380D02*
X71651904Y-93924380D01*
X71937619Y-93924380D02*
X71937619Y-92924380D01*
X71842380Y-93067238D01*
X71747142Y-93162476D01*
X71651904Y-93210095D01*
X72842380Y-92924380D02*
X72937619Y-92924380D01*
X73032857Y-92972000D01*
X73080476Y-93019619D01*
X73128095Y-93114857D01*
X73175714Y-93305333D01*
X73175714Y-93543428D01*
X73128095Y-93733904D01*
X73080476Y-93829142D01*
X73032857Y-93876761D01*
X72937619Y-93924380D01*
X72842380Y-93924380D01*
X72747142Y-93876761D01*
X72699523Y-93829142D01*
X72651904Y-93733904D01*
X72604285Y-93543428D01*
X72604285Y-93305333D01*
X72651904Y-93114857D01*
X72699523Y-93019619D01*
X72747142Y-92972000D01*
X72842380Y-92924380D01*
X73509047Y-92924380D02*
X74128095Y-92924380D01*
X73794761Y-93305333D01*
X73937619Y-93305333D01*
X74032857Y-93352952D01*
X74080476Y-93400571D01*
X74128095Y-93495809D01*
X74128095Y-93733904D01*
X74080476Y-93829142D01*
X74032857Y-93876761D01*
X73937619Y-93924380D01*
X73651904Y-93924380D01*
X73556666Y-93876761D01*
X73509047Y-93829142D01*
G04 #@! TO.C,D102*
X50236380Y-97067476D02*
X49236380Y-97067476D01*
X49236380Y-96829380D01*
X49284000Y-96686523D01*
X49379238Y-96591285D01*
X49474476Y-96543666D01*
X49664952Y-96496047D01*
X49807809Y-96496047D01*
X49998285Y-96543666D01*
X50093523Y-96591285D01*
X50188761Y-96686523D01*
X50236380Y-96829380D01*
X50236380Y-97067476D01*
X50236380Y-95543666D02*
X50236380Y-96115095D01*
X50236380Y-95829380D02*
X49236380Y-95829380D01*
X49379238Y-95924619D01*
X49474476Y-96019857D01*
X49522095Y-96115095D01*
X49236380Y-94924619D02*
X49236380Y-94829380D01*
X49284000Y-94734142D01*
X49331619Y-94686523D01*
X49426857Y-94638904D01*
X49617333Y-94591285D01*
X49855428Y-94591285D01*
X50045904Y-94638904D01*
X50141142Y-94686523D01*
X50188761Y-94734142D01*
X50236380Y-94829380D01*
X50236380Y-94924619D01*
X50188761Y-95019857D01*
X50141142Y-95067476D01*
X50045904Y-95115095D01*
X49855428Y-95162714D01*
X49617333Y-95162714D01*
X49426857Y-95115095D01*
X49331619Y-95067476D01*
X49284000Y-95019857D01*
X49236380Y-94924619D01*
X49331619Y-94210333D02*
X49284000Y-94162714D01*
X49236380Y-94067476D01*
X49236380Y-93829380D01*
X49284000Y-93734142D01*
X49331619Y-93686523D01*
X49426857Y-93638904D01*
X49522095Y-93638904D01*
X49664952Y-93686523D01*
X50236380Y-94257952D01*
X50236380Y-93638904D01*
G04 #@! TO.C,D101*
X52304380Y-90417476D02*
X51304380Y-90417476D01*
X51304380Y-90179380D01*
X51352000Y-90036523D01*
X51447238Y-89941285D01*
X51542476Y-89893666D01*
X51732952Y-89846047D01*
X51875809Y-89846047D01*
X52066285Y-89893666D01*
X52161523Y-89941285D01*
X52256761Y-90036523D01*
X52304380Y-90179380D01*
X52304380Y-90417476D01*
X52304380Y-88893666D02*
X52304380Y-89465095D01*
X52304380Y-89179380D02*
X51304380Y-89179380D01*
X51447238Y-89274619D01*
X51542476Y-89369857D01*
X51590095Y-89465095D01*
X51304380Y-88274619D02*
X51304380Y-88179380D01*
X51352000Y-88084142D01*
X51399619Y-88036523D01*
X51494857Y-87988904D01*
X51685333Y-87941285D01*
X51923428Y-87941285D01*
X52113904Y-87988904D01*
X52209142Y-88036523D01*
X52256761Y-88084142D01*
X52304380Y-88179380D01*
X52304380Y-88274619D01*
X52256761Y-88369857D01*
X52209142Y-88417476D01*
X52113904Y-88465095D01*
X51923428Y-88512714D01*
X51685333Y-88512714D01*
X51494857Y-88465095D01*
X51399619Y-88417476D01*
X51352000Y-88369857D01*
X51304380Y-88274619D01*
X52304380Y-86988904D02*
X52304380Y-87560333D01*
X52304380Y-87274619D02*
X51304380Y-87274619D01*
X51447238Y-87369857D01*
X51542476Y-87465095D01*
X51590095Y-87560333D01*
G04 #@! TO.C,R103*
X58824952Y-108401380D02*
X58491619Y-107925190D01*
X58253523Y-108401380D02*
X58253523Y-107401380D01*
X58634476Y-107401380D01*
X58729714Y-107449000D01*
X58777333Y-107496619D01*
X58824952Y-107591857D01*
X58824952Y-107734714D01*
X58777333Y-107829952D01*
X58729714Y-107877571D01*
X58634476Y-107925190D01*
X58253523Y-107925190D01*
X59777333Y-108401380D02*
X59205904Y-108401380D01*
X59491619Y-108401380D02*
X59491619Y-107401380D01*
X59396380Y-107544238D01*
X59301142Y-107639476D01*
X59205904Y-107687095D01*
X60396380Y-107401380D02*
X60491619Y-107401380D01*
X60586857Y-107449000D01*
X60634476Y-107496619D01*
X60682095Y-107591857D01*
X60729714Y-107782333D01*
X60729714Y-108020428D01*
X60682095Y-108210904D01*
X60634476Y-108306142D01*
X60586857Y-108353761D01*
X60491619Y-108401380D01*
X60396380Y-108401380D01*
X60301142Y-108353761D01*
X60253523Y-108306142D01*
X60205904Y-108210904D01*
X60158285Y-108020428D01*
X60158285Y-107782333D01*
X60205904Y-107591857D01*
X60253523Y-107496619D01*
X60301142Y-107449000D01*
X60396380Y-107401380D01*
X61063047Y-107401380D02*
X61682095Y-107401380D01*
X61348761Y-107782333D01*
X61491619Y-107782333D01*
X61586857Y-107829952D01*
X61634476Y-107877571D01*
X61682095Y-107972809D01*
X61682095Y-108210904D01*
X61634476Y-108306142D01*
X61586857Y-108353761D01*
X61491619Y-108401380D01*
X61205904Y-108401380D01*
X61110666Y-108353761D01*
X61063047Y-108306142D01*
G04 #@! TO.C,R104*
X71064380Y-105513047D02*
X70588190Y-105846380D01*
X71064380Y-106084476D02*
X70064380Y-106084476D01*
X70064380Y-105703523D01*
X70112000Y-105608285D01*
X70159619Y-105560666D01*
X70254857Y-105513047D01*
X70397714Y-105513047D01*
X70492952Y-105560666D01*
X70540571Y-105608285D01*
X70588190Y-105703523D01*
X70588190Y-106084476D01*
X71064380Y-104560666D02*
X71064380Y-105132095D01*
X71064380Y-104846380D02*
X70064380Y-104846380D01*
X70207238Y-104941619D01*
X70302476Y-105036857D01*
X70350095Y-105132095D01*
X70064380Y-103941619D02*
X70064380Y-103846380D01*
X70112000Y-103751142D01*
X70159619Y-103703523D01*
X70254857Y-103655904D01*
X70445333Y-103608285D01*
X70683428Y-103608285D01*
X70873904Y-103655904D01*
X70969142Y-103703523D01*
X71016761Y-103751142D01*
X71064380Y-103846380D01*
X71064380Y-103941619D01*
X71016761Y-104036857D01*
X70969142Y-104084476D01*
X70873904Y-104132095D01*
X70683428Y-104179714D01*
X70445333Y-104179714D01*
X70254857Y-104132095D01*
X70159619Y-104084476D01*
X70112000Y-104036857D01*
X70064380Y-103941619D01*
X70397714Y-102751142D02*
X71064380Y-102751142D01*
X70016761Y-102989238D02*
X70731047Y-103227333D01*
X70731047Y-102608285D01*
G04 #@! TO.C,C1*
X92235590Y-77439884D02*
X92187971Y-77487503D01*
X92045114Y-77535122D01*
X91949876Y-77535122D01*
X91807018Y-77487503D01*
X91711780Y-77392265D01*
X91664161Y-77297027D01*
X91616542Y-77106551D01*
X91616542Y-76963694D01*
X91664161Y-76773218D01*
X91711780Y-76677980D01*
X91807018Y-76582742D01*
X91949876Y-76535122D01*
X92045114Y-76535122D01*
X92187971Y-76582742D01*
X92235590Y-76630361D01*
X93187971Y-77535122D02*
X92616542Y-77535122D01*
X92902257Y-77535122D02*
X92902257Y-76535122D01*
X92807018Y-76677980D01*
X92711780Y-76773218D01*
X92616542Y-76820837D01*
G04 #@! TO.C,C2*
X73058590Y-79193884D02*
X73010971Y-79241503D01*
X72868114Y-79289122D01*
X72772876Y-79289122D01*
X72630018Y-79241503D01*
X72534780Y-79146265D01*
X72487161Y-79051027D01*
X72439542Y-78860551D01*
X72439542Y-78717694D01*
X72487161Y-78527218D01*
X72534780Y-78431980D01*
X72630018Y-78336742D01*
X72772876Y-78289122D01*
X72868114Y-78289122D01*
X73010971Y-78336742D01*
X73058590Y-78384361D01*
X73439542Y-78384361D02*
X73487161Y-78336742D01*
X73582399Y-78289122D01*
X73820495Y-78289122D01*
X73915733Y-78336742D01*
X73963352Y-78384361D01*
X74010971Y-78479599D01*
X74010971Y-78574837D01*
X73963352Y-78717694D01*
X73391923Y-79289122D01*
X74010971Y-79289122D01*
G04 #@! TO.C,C3*
X84631399Y-67065408D02*
X84679018Y-67113027D01*
X84726637Y-67255884D01*
X84726637Y-67351122D01*
X84679018Y-67493980D01*
X84583780Y-67589218D01*
X84488542Y-67636837D01*
X84298066Y-67684456D01*
X84155209Y-67684456D01*
X83964733Y-67636837D01*
X83869495Y-67589218D01*
X83774257Y-67493980D01*
X83726637Y-67351122D01*
X83726637Y-67255884D01*
X83774257Y-67113027D01*
X83821876Y-67065408D01*
X83726637Y-66732075D02*
X83726637Y-66113027D01*
X84107590Y-66446361D01*
X84107590Y-66303503D01*
X84155209Y-66208265D01*
X84202828Y-66160646D01*
X84298066Y-66113027D01*
X84536161Y-66113027D01*
X84631399Y-66160646D01*
X84679018Y-66208265D01*
X84726637Y-66303503D01*
X84726637Y-66589218D01*
X84679018Y-66684456D01*
X84631399Y-66732075D01*
G04 #@! TO.C,C4*
X90457590Y-67255884D02*
X90409971Y-67303503D01*
X90267114Y-67351122D01*
X90171876Y-67351122D01*
X90029018Y-67303503D01*
X89933780Y-67208265D01*
X89886161Y-67113027D01*
X89838542Y-66922551D01*
X89838542Y-66779694D01*
X89886161Y-66589218D01*
X89933780Y-66493980D01*
X90029018Y-66398742D01*
X90171876Y-66351122D01*
X90267114Y-66351122D01*
X90409971Y-66398742D01*
X90457590Y-66446361D01*
X91314733Y-66684456D02*
X91314733Y-67351122D01*
X91076637Y-66303503D02*
X90838542Y-67017789D01*
X91457590Y-67017789D01*
G04 #@! TO.C,C5*
X62317333Y-66905142D02*
X62269714Y-66952761D01*
X62126857Y-67000380D01*
X62031619Y-67000380D01*
X61888761Y-66952761D01*
X61793523Y-66857523D01*
X61745904Y-66762285D01*
X61698285Y-66571809D01*
X61698285Y-66428952D01*
X61745904Y-66238476D01*
X61793523Y-66143238D01*
X61888761Y-66048000D01*
X62031619Y-66000380D01*
X62126857Y-66000380D01*
X62269714Y-66048000D01*
X62317333Y-66095619D01*
X63222095Y-66000380D02*
X62745904Y-66000380D01*
X62698285Y-66476571D01*
X62745904Y-66428952D01*
X62841142Y-66381333D01*
X63079238Y-66381333D01*
X63174476Y-66428952D01*
X63222095Y-66476571D01*
X63269714Y-66571809D01*
X63269714Y-66809904D01*
X63222095Y-66905142D01*
X63174476Y-66952761D01*
X63079238Y-67000380D01*
X62841142Y-67000380D01*
X62745904Y-66952761D01*
X62698285Y-66905142D01*
G04 #@! TO.C,R1*
X72931590Y-77130122D02*
X72598257Y-76653932D01*
X72360161Y-77130122D02*
X72360161Y-76130122D01*
X72741114Y-76130122D01*
X72836352Y-76177742D01*
X72883971Y-76225361D01*
X72931590Y-76320599D01*
X72931590Y-76463456D01*
X72883971Y-76558694D01*
X72836352Y-76606313D01*
X72741114Y-76653932D01*
X72360161Y-76653932D01*
X73883971Y-77130122D02*
X73312542Y-77130122D01*
X73598257Y-77130122D02*
X73598257Y-76130122D01*
X73503018Y-76272980D01*
X73407780Y-76368218D01*
X73312542Y-76415837D01*
G04 #@! TO.C,R2*
X91638380Y-64682666D02*
X91162190Y-65016000D01*
X91638380Y-65254095D02*
X90638380Y-65254095D01*
X90638380Y-64873142D01*
X90686000Y-64777904D01*
X90733619Y-64730285D01*
X90828857Y-64682666D01*
X90971714Y-64682666D01*
X91066952Y-64730285D01*
X91114571Y-64777904D01*
X91162190Y-64873142D01*
X91162190Y-65254095D01*
X90733619Y-64301714D02*
X90686000Y-64254095D01*
X90638380Y-64158857D01*
X90638380Y-63920761D01*
X90686000Y-63825523D01*
X90733619Y-63777904D01*
X90828857Y-63730285D01*
X90924095Y-63730285D01*
X91066952Y-63777904D01*
X91638380Y-64349333D01*
X91638380Y-63730285D01*
G04 #@! TO.C,R3*
X52142380Y-70524666D02*
X51666190Y-70858000D01*
X52142380Y-71096095D02*
X51142380Y-71096095D01*
X51142380Y-70715142D01*
X51190000Y-70619904D01*
X51237619Y-70572285D01*
X51332857Y-70524666D01*
X51475714Y-70524666D01*
X51570952Y-70572285D01*
X51618571Y-70619904D01*
X51666190Y-70715142D01*
X51666190Y-71096095D01*
X51142380Y-70191333D02*
X51142380Y-69572285D01*
X51523333Y-69905619D01*
X51523333Y-69762761D01*
X51570952Y-69667523D01*
X51618571Y-69619904D01*
X51713809Y-69572285D01*
X51951904Y-69572285D01*
X52047142Y-69619904D01*
X52094761Y-69667523D01*
X52142380Y-69762761D01*
X52142380Y-70048476D01*
X52094761Y-70143714D01*
X52047142Y-70191333D01*
G04 #@! TO.C,T1*
D14*
X95910476Y-107257904D02*
X96367619Y-107257904D01*
X96139047Y-108057904D02*
X96139047Y-107257904D01*
X97053333Y-108057904D02*
X96596190Y-108057904D01*
X96824761Y-108057904D02*
X96824761Y-107257904D01*
X96748571Y-107372190D01*
X96672380Y-107448380D01*
X96596190Y-107486476D01*
G04 #@! TO.C,U1*
D12*
X58928095Y-73310380D02*
X58928095Y-74119904D01*
X58975714Y-74215142D01*
X59023333Y-74262761D01*
X59118571Y-74310380D01*
X59309047Y-74310380D01*
X59404285Y-74262761D01*
X59451904Y-74215142D01*
X59499523Y-74119904D01*
X59499523Y-73310380D01*
X60499523Y-74310380D02*
X59928095Y-74310380D01*
X60213809Y-74310380D02*
X60213809Y-73310380D01*
X60118571Y-73453238D01*
X60023333Y-73548476D01*
X59928095Y-73596095D01*
G04 #@! TO.C,Y1*
X90148066Y-69414932D02*
X90148066Y-69891122D01*
X89814733Y-68891122D02*
X90148066Y-69414932D01*
X90481399Y-68891122D01*
X91338542Y-69891122D02*
X90767114Y-69891122D01*
X91052828Y-69891122D02*
X91052828Y-68891122D01*
X90957590Y-69033980D01*
X90862352Y-69129218D01*
X90767114Y-69176837D01*
G04 #@! TO.C,R105*
X66190952Y-89987380D02*
X65857619Y-89511190D01*
X65619523Y-89987380D02*
X65619523Y-88987380D01*
X66000476Y-88987380D01*
X66095714Y-89035000D01*
X66143333Y-89082619D01*
X66190952Y-89177857D01*
X66190952Y-89320714D01*
X66143333Y-89415952D01*
X66095714Y-89463571D01*
X66000476Y-89511190D01*
X65619523Y-89511190D01*
X67143333Y-89987380D02*
X66571904Y-89987380D01*
X66857619Y-89987380D02*
X66857619Y-88987380D01*
X66762380Y-89130238D01*
X66667142Y-89225476D01*
X66571904Y-89273095D01*
X67762380Y-88987380D02*
X67857619Y-88987380D01*
X67952857Y-89035000D01*
X68000476Y-89082619D01*
X68048095Y-89177857D01*
X68095714Y-89368333D01*
X68095714Y-89606428D01*
X68048095Y-89796904D01*
X68000476Y-89892142D01*
X67952857Y-89939761D01*
X67857619Y-89987380D01*
X67762380Y-89987380D01*
X67667142Y-89939761D01*
X67619523Y-89892142D01*
X67571904Y-89796904D01*
X67524285Y-89606428D01*
X67524285Y-89368333D01*
X67571904Y-89177857D01*
X67619523Y-89082619D01*
X67667142Y-89035000D01*
X67762380Y-88987380D01*
X69000476Y-88987380D02*
X68524285Y-88987380D01*
X68476666Y-89463571D01*
X68524285Y-89415952D01*
X68619523Y-89368333D01*
X68857619Y-89368333D01*
X68952857Y-89415952D01*
X69000476Y-89463571D01*
X69048095Y-89558809D01*
X69048095Y-89796904D01*
X69000476Y-89892142D01*
X68952857Y-89939761D01*
X68857619Y-89987380D01*
X68619523Y-89987380D01*
X68524285Y-89939761D01*
X68476666Y-89892142D01*
G04 #@! TO.C,C7*
X100544285Y-62330000D02*
X100572857Y-62358571D01*
X100601428Y-62444285D01*
X100601428Y-62501428D01*
X100572857Y-62587142D01*
X100515714Y-62644285D01*
X100458571Y-62672857D01*
X100344285Y-62701428D01*
X100258571Y-62701428D01*
X100144285Y-62672857D01*
X100087142Y-62644285D01*
X100030000Y-62587142D01*
X100001428Y-62501428D01*
X100001428Y-62444285D01*
X100030000Y-62358571D01*
X100058571Y-62330000D01*
X100001428Y-62130000D02*
X100001428Y-61730000D01*
X100601428Y-61987142D01*
G04 #@! TO.C,C8*
X81875333Y-106505142D02*
X81827714Y-106552761D01*
X81684857Y-106600380D01*
X81589619Y-106600380D01*
X81446761Y-106552761D01*
X81351523Y-106457523D01*
X81303904Y-106362285D01*
X81256285Y-106171809D01*
X81256285Y-106028952D01*
X81303904Y-105838476D01*
X81351523Y-105743238D01*
X81446761Y-105648000D01*
X81589619Y-105600380D01*
X81684857Y-105600380D01*
X81827714Y-105648000D01*
X81875333Y-105695619D01*
X82446761Y-106028952D02*
X82351523Y-105981333D01*
X82303904Y-105933714D01*
X82256285Y-105838476D01*
X82256285Y-105790857D01*
X82303904Y-105695619D01*
X82351523Y-105648000D01*
X82446761Y-105600380D01*
X82637238Y-105600380D01*
X82732476Y-105648000D01*
X82780095Y-105695619D01*
X82827714Y-105790857D01*
X82827714Y-105838476D01*
X82780095Y-105933714D01*
X82732476Y-105981333D01*
X82637238Y-106028952D01*
X82446761Y-106028952D01*
X82351523Y-106076571D01*
X82303904Y-106124190D01*
X82256285Y-106219428D01*
X82256285Y-106409904D01*
X82303904Y-106505142D01*
X82351523Y-106552761D01*
X82446761Y-106600380D01*
X82637238Y-106600380D01*
X82732476Y-106552761D01*
X82780095Y-106505142D01*
X82827714Y-106409904D01*
X82827714Y-106219428D01*
X82780095Y-106124190D01*
X82732476Y-106076571D01*
X82637238Y-106028952D01*
G04 #@! TO.C,C9*
X82129333Y-102973142D02*
X82081714Y-103020761D01*
X81938857Y-103068380D01*
X81843619Y-103068380D01*
X81700761Y-103020761D01*
X81605523Y-102925523D01*
X81557904Y-102830285D01*
X81510285Y-102639809D01*
X81510285Y-102496952D01*
X81557904Y-102306476D01*
X81605523Y-102211238D01*
X81700761Y-102116000D01*
X81843619Y-102068380D01*
X81938857Y-102068380D01*
X82081714Y-102116000D01*
X82129333Y-102163619D01*
X82605523Y-103068380D02*
X82796000Y-103068380D01*
X82891238Y-103020761D01*
X82938857Y-102973142D01*
X83034095Y-102830285D01*
X83081714Y-102639809D01*
X83081714Y-102258857D01*
X83034095Y-102163619D01*
X82986476Y-102116000D01*
X82891238Y-102068380D01*
X82700761Y-102068380D01*
X82605523Y-102116000D01*
X82557904Y-102163619D01*
X82510285Y-102258857D01*
X82510285Y-102496952D01*
X82557904Y-102592190D01*
X82605523Y-102639809D01*
X82700761Y-102687428D01*
X82891238Y-102687428D01*
X82986476Y-102639809D01*
X83034095Y-102592190D01*
X83081714Y-102496952D01*
G04 #@! TO.C,C10*
X101211142Y-72493142D02*
X101163523Y-72540761D01*
X101020666Y-72588380D01*
X100925428Y-72588380D01*
X100782571Y-72540761D01*
X100687333Y-72445523D01*
X100639714Y-72350285D01*
X100592095Y-72159809D01*
X100592095Y-72016952D01*
X100639714Y-71826476D01*
X100687333Y-71731238D01*
X100782571Y-71636000D01*
X100925428Y-71588380D01*
X101020666Y-71588380D01*
X101163523Y-71636000D01*
X101211142Y-71683619D01*
X102163523Y-72588380D02*
X101592095Y-72588380D01*
X101877809Y-72588380D02*
X101877809Y-71588380D01*
X101782571Y-71731238D01*
X101687333Y-71826476D01*
X101592095Y-71874095D01*
X102782571Y-71588380D02*
X102877809Y-71588380D01*
X102973047Y-71636000D01*
X103020666Y-71683619D01*
X103068285Y-71778857D01*
X103115904Y-71969333D01*
X103115904Y-72207428D01*
X103068285Y-72397904D01*
X103020666Y-72493142D01*
X102973047Y-72540761D01*
X102877809Y-72588380D01*
X102782571Y-72588380D01*
X102687333Y-72540761D01*
X102639714Y-72493142D01*
X102592095Y-72397904D01*
X102544476Y-72207428D01*
X102544476Y-71969333D01*
X102592095Y-71778857D01*
X102639714Y-71683619D01*
X102687333Y-71636000D01*
X102782571Y-71588380D01*
G04 #@! TO.C,D1*
X81303904Y-68016380D02*
X81303904Y-67016380D01*
X81542000Y-67016380D01*
X81684857Y-67064000D01*
X81780095Y-67159238D01*
X81827714Y-67254476D01*
X81875333Y-67444952D01*
X81875333Y-67587809D01*
X81827714Y-67778285D01*
X81780095Y-67873523D01*
X81684857Y-67968761D01*
X81542000Y-68016380D01*
X81303904Y-68016380D01*
X82827714Y-68016380D02*
X82256285Y-68016380D01*
X82542000Y-68016380D02*
X82542000Y-67016380D01*
X82446761Y-67159238D01*
X82351523Y-67254476D01*
X82256285Y-67302095D01*
G04 #@! TO.C,D2*
X81303904Y-70302380D02*
X81303904Y-69302380D01*
X81542000Y-69302380D01*
X81684857Y-69350000D01*
X81780095Y-69445238D01*
X81827714Y-69540476D01*
X81875333Y-69730952D01*
X81875333Y-69873809D01*
X81827714Y-70064285D01*
X81780095Y-70159523D01*
X81684857Y-70254761D01*
X81542000Y-70302380D01*
X81303904Y-70302380D01*
X82256285Y-69397619D02*
X82303904Y-69350000D01*
X82399142Y-69302380D01*
X82637238Y-69302380D01*
X82732476Y-69350000D01*
X82780095Y-69397619D01*
X82827714Y-69492857D01*
X82827714Y-69588095D01*
X82780095Y-69730952D01*
X82208666Y-70302380D01*
X82827714Y-70302380D01*
G04 #@! TO.C,D3*
X81303904Y-72842380D02*
X81303904Y-71842380D01*
X81542000Y-71842380D01*
X81684857Y-71890000D01*
X81780095Y-71985238D01*
X81827714Y-72080476D01*
X81875333Y-72270952D01*
X81875333Y-72413809D01*
X81827714Y-72604285D01*
X81780095Y-72699523D01*
X81684857Y-72794761D01*
X81542000Y-72842380D01*
X81303904Y-72842380D01*
X82208666Y-71842380D02*
X82827714Y-71842380D01*
X82494380Y-72223333D01*
X82637238Y-72223333D01*
X82732476Y-72270952D01*
X82780095Y-72318571D01*
X82827714Y-72413809D01*
X82827714Y-72651904D01*
X82780095Y-72747142D01*
X82732476Y-72794761D01*
X82637238Y-72842380D01*
X82351523Y-72842380D01*
X82256285Y-72794761D01*
X82208666Y-72747142D01*
G04 #@! TO.C,D4*
X87788380Y-59920095D02*
X86788380Y-59920095D01*
X86788380Y-59682000D01*
X86836000Y-59539142D01*
X86931238Y-59443904D01*
X87026476Y-59396285D01*
X87216952Y-59348666D01*
X87359809Y-59348666D01*
X87550285Y-59396285D01*
X87645523Y-59443904D01*
X87740761Y-59539142D01*
X87788380Y-59682000D01*
X87788380Y-59920095D01*
X87121714Y-58491523D02*
X87788380Y-58491523D01*
X86740761Y-58729619D02*
X87455047Y-58967714D01*
X87455047Y-58348666D01*
G04 #@! TO.C,J2*
X105250380Y-53411333D02*
X105964666Y-53411333D01*
X106107523Y-53458952D01*
X106202761Y-53554190D01*
X106250380Y-53697047D01*
X106250380Y-53792285D01*
X105345619Y-52982761D02*
X105298000Y-52935142D01*
X105250380Y-52839904D01*
X105250380Y-52601809D01*
X105298000Y-52506571D01*
X105345619Y-52458952D01*
X105440857Y-52411333D01*
X105536095Y-52411333D01*
X105678952Y-52458952D01*
X106250380Y-53030380D01*
X106250380Y-52411333D01*
G04 #@! TO.C,J3*
D14*
X101501904Y-96766666D02*
X102073333Y-96766666D01*
X102187619Y-96804761D01*
X102263809Y-96880952D01*
X102301904Y-96995238D01*
X102301904Y-97071428D01*
X101501904Y-96461904D02*
X101501904Y-95966666D01*
X101806666Y-96233333D01*
X101806666Y-96119047D01*
X101844761Y-96042857D01*
X101882857Y-96004761D01*
X101959047Y-95966666D01*
X102149523Y-95966666D01*
X102225714Y-96004761D01*
X102263809Y-96042857D01*
X102301904Y-96119047D01*
X102301904Y-96347619D01*
X102263809Y-96423809D01*
X102225714Y-96461904D01*
G04 #@! TO.C,J5*
D12*
X50466666Y-76922380D02*
X50466666Y-77636666D01*
X50419047Y-77779523D01*
X50323809Y-77874761D01*
X50180952Y-77922380D01*
X50085714Y-77922380D01*
X51419047Y-76922380D02*
X50942857Y-76922380D01*
X50895238Y-77398571D01*
X50942857Y-77350952D01*
X51038095Y-77303333D01*
X51276190Y-77303333D01*
X51371428Y-77350952D01*
X51419047Y-77398571D01*
X51466666Y-77493809D01*
X51466666Y-77731904D01*
X51419047Y-77827142D01*
X51371428Y-77874761D01*
X51276190Y-77922380D01*
X51038095Y-77922380D01*
X50942857Y-77874761D01*
X50895238Y-77827142D01*
X48069523Y-88082380D02*
X47498095Y-88082380D01*
X47783809Y-88082380D02*
X47783809Y-87082380D01*
X47688571Y-87225238D01*
X47593333Y-87320476D01*
X47498095Y-87368095D01*
X48926666Y-87415714D02*
X48926666Y-88082380D01*
X48688571Y-87034761D02*
X48450476Y-87749047D01*
X49069523Y-87749047D01*
X46005714Y-63952380D02*
X45434285Y-63952380D01*
X45720000Y-63952380D02*
X45720000Y-62952380D01*
X45624761Y-63095238D01*
X45529523Y-63190476D01*
X45434285Y-63238095D01*
G04 #@! TO.C,K1*
X71041904Y-63022380D02*
X71041904Y-62022380D01*
X71613333Y-63022380D02*
X71184761Y-62450952D01*
X71613333Y-62022380D02*
X71041904Y-62593809D01*
X72565714Y-63022380D02*
X71994285Y-63022380D01*
X72280000Y-63022380D02*
X72280000Y-62022380D01*
X72184761Y-62165238D01*
X72089523Y-62260476D01*
X71994285Y-62308095D01*
G04 #@! TO.C,Q1*
X85248908Y-55796785D02*
X85153670Y-55749166D01*
X85058432Y-55653927D01*
X84915575Y-55511070D01*
X84820337Y-55463451D01*
X84725099Y-55463451D01*
X84772718Y-55701546D02*
X84677480Y-55653927D01*
X84582242Y-55558689D01*
X84534623Y-55368213D01*
X84534623Y-55034880D01*
X84582242Y-54844404D01*
X84677480Y-54749166D01*
X84772718Y-54701546D01*
X84963194Y-54701546D01*
X85058432Y-54749166D01*
X85153670Y-54844404D01*
X85201289Y-55034880D01*
X85201289Y-55368213D01*
X85153670Y-55558689D01*
X85058432Y-55653927D01*
X84963194Y-55701546D01*
X84772718Y-55701546D01*
X86153670Y-55701546D02*
X85582242Y-55701546D01*
X85867956Y-55701546D02*
X85867956Y-54701546D01*
X85772718Y-54844404D01*
X85677480Y-54939642D01*
X85582242Y-54987261D01*
G04 #@! TO.C,R4*
X79843333Y-68016380D02*
X79510000Y-67540190D01*
X79271904Y-68016380D02*
X79271904Y-67016380D01*
X79652857Y-67016380D01*
X79748095Y-67064000D01*
X79795714Y-67111619D01*
X79843333Y-67206857D01*
X79843333Y-67349714D01*
X79795714Y-67444952D01*
X79748095Y-67492571D01*
X79652857Y-67540190D01*
X79271904Y-67540190D01*
X80700476Y-67349714D02*
X80700476Y-68016380D01*
X80462380Y-66968761D02*
X80224285Y-67683047D01*
X80843333Y-67683047D01*
G04 #@! TO.C,R5*
X79843333Y-70302380D02*
X79510000Y-69826190D01*
X79271904Y-70302380D02*
X79271904Y-69302380D01*
X79652857Y-69302380D01*
X79748095Y-69350000D01*
X79795714Y-69397619D01*
X79843333Y-69492857D01*
X79843333Y-69635714D01*
X79795714Y-69730952D01*
X79748095Y-69778571D01*
X79652857Y-69826190D01*
X79271904Y-69826190D01*
X80748095Y-69302380D02*
X80271904Y-69302380D01*
X80224285Y-69778571D01*
X80271904Y-69730952D01*
X80367142Y-69683333D01*
X80605238Y-69683333D01*
X80700476Y-69730952D01*
X80748095Y-69778571D01*
X80795714Y-69873809D01*
X80795714Y-70111904D01*
X80748095Y-70207142D01*
X80700476Y-70254761D01*
X80605238Y-70302380D01*
X80367142Y-70302380D01*
X80271904Y-70254761D01*
X80224285Y-70207142D01*
G04 #@! TO.C,R6*
X79843333Y-72842380D02*
X79510000Y-72366190D01*
X79271904Y-72842380D02*
X79271904Y-71842380D01*
X79652857Y-71842380D01*
X79748095Y-71890000D01*
X79795714Y-71937619D01*
X79843333Y-72032857D01*
X79843333Y-72175714D01*
X79795714Y-72270952D01*
X79748095Y-72318571D01*
X79652857Y-72366190D01*
X79271904Y-72366190D01*
X80700476Y-71842380D02*
X80510000Y-71842380D01*
X80414761Y-71890000D01*
X80367142Y-71937619D01*
X80271904Y-72080476D01*
X80224285Y-72270952D01*
X80224285Y-72651904D01*
X80271904Y-72747142D01*
X80319523Y-72794761D01*
X80414761Y-72842380D01*
X80605238Y-72842380D01*
X80700476Y-72794761D01*
X80748095Y-72747142D01*
X80795714Y-72651904D01*
X80795714Y-72413809D01*
X80748095Y-72318571D01*
X80700476Y-72270952D01*
X80605238Y-72223333D01*
X80414761Y-72223333D01*
X80319523Y-72270952D01*
X80271904Y-72318571D01*
X80224285Y-72413809D01*
G04 #@! TO.C,R7*
X90953333Y-55570380D02*
X90620000Y-55094190D01*
X90381904Y-55570380D02*
X90381904Y-54570380D01*
X90762857Y-54570380D01*
X90858095Y-54618000D01*
X90905714Y-54665619D01*
X90953333Y-54760857D01*
X90953333Y-54903714D01*
X90905714Y-54998952D01*
X90858095Y-55046571D01*
X90762857Y-55094190D01*
X90381904Y-55094190D01*
X91286666Y-54570380D02*
X91953333Y-54570380D01*
X91524761Y-55570380D01*
G04 #@! TO.C,R8*
X84844844Y-96017763D02*
X84511511Y-95541573D01*
X84273415Y-96017763D02*
X84273415Y-95017763D01*
X84654368Y-95017763D01*
X84749606Y-95065383D01*
X84797225Y-95113002D01*
X84844844Y-95208240D01*
X84844844Y-95351097D01*
X84797225Y-95446335D01*
X84749606Y-95493954D01*
X84654368Y-95541573D01*
X84273415Y-95541573D01*
X85416272Y-95446335D02*
X85321034Y-95398716D01*
X85273415Y-95351097D01*
X85225796Y-95255859D01*
X85225796Y-95208240D01*
X85273415Y-95113002D01*
X85321034Y-95065383D01*
X85416272Y-95017763D01*
X85606749Y-95017763D01*
X85701987Y-95065383D01*
X85749606Y-95113002D01*
X85797225Y-95208240D01*
X85797225Y-95255859D01*
X85749606Y-95351097D01*
X85701987Y-95398716D01*
X85606749Y-95446335D01*
X85416272Y-95446335D01*
X85321034Y-95493954D01*
X85273415Y-95541573D01*
X85225796Y-95636811D01*
X85225796Y-95827287D01*
X85273415Y-95922525D01*
X85321034Y-95970144D01*
X85416272Y-96017763D01*
X85606749Y-96017763D01*
X85701987Y-95970144D01*
X85749606Y-95922525D01*
X85797225Y-95827287D01*
X85797225Y-95636811D01*
X85749606Y-95541573D01*
X85701987Y-95493954D01*
X85606749Y-95446335D01*
G04 #@! TO.C,R9*
X83066844Y-98049763D02*
X82733511Y-97573573D01*
X82495415Y-98049763D02*
X82495415Y-97049763D01*
X82876368Y-97049763D01*
X82971606Y-97097383D01*
X83019225Y-97145002D01*
X83066844Y-97240240D01*
X83066844Y-97383097D01*
X83019225Y-97478335D01*
X82971606Y-97525954D01*
X82876368Y-97573573D01*
X82495415Y-97573573D01*
X83543034Y-98049763D02*
X83733511Y-98049763D01*
X83828749Y-98002144D01*
X83876368Y-97954525D01*
X83971606Y-97811668D01*
X84019225Y-97621192D01*
X84019225Y-97240240D01*
X83971606Y-97145002D01*
X83923987Y-97097383D01*
X83828749Y-97049763D01*
X83638272Y-97049763D01*
X83543034Y-97097383D01*
X83495415Y-97145002D01*
X83447796Y-97240240D01*
X83447796Y-97478335D01*
X83495415Y-97573573D01*
X83543034Y-97621192D01*
X83638272Y-97668811D01*
X83828749Y-97668811D01*
X83923987Y-97621192D01*
X83971606Y-97573573D01*
X84019225Y-97478335D01*
G04 #@! TO.C,R10*
X84955142Y-106750380D02*
X84621809Y-106274190D01*
X84383714Y-106750380D02*
X84383714Y-105750380D01*
X84764666Y-105750380D01*
X84859904Y-105798000D01*
X84907523Y-105845619D01*
X84955142Y-105940857D01*
X84955142Y-106083714D01*
X84907523Y-106178952D01*
X84859904Y-106226571D01*
X84764666Y-106274190D01*
X84383714Y-106274190D01*
X85907523Y-106750380D02*
X85336095Y-106750380D01*
X85621809Y-106750380D02*
X85621809Y-105750380D01*
X85526571Y-105893238D01*
X85431333Y-105988476D01*
X85336095Y-106036095D01*
X86526571Y-105750380D02*
X86621809Y-105750380D01*
X86717047Y-105798000D01*
X86764666Y-105845619D01*
X86812285Y-105940857D01*
X86859904Y-106131333D01*
X86859904Y-106369428D01*
X86812285Y-106559904D01*
X86764666Y-106655142D01*
X86717047Y-106702761D01*
X86621809Y-106750380D01*
X86526571Y-106750380D01*
X86431333Y-106702761D01*
X86383714Y-106655142D01*
X86336095Y-106559904D01*
X86288476Y-106369428D01*
X86288476Y-106131333D01*
X86336095Y-105940857D01*
X86383714Y-105845619D01*
X86431333Y-105798000D01*
X86526571Y-105750380D01*
G04 #@! TO.C,R11*
X84955142Y-99386380D02*
X84621809Y-98910190D01*
X84383714Y-99386380D02*
X84383714Y-98386380D01*
X84764666Y-98386380D01*
X84859904Y-98434000D01*
X84907523Y-98481619D01*
X84955142Y-98576857D01*
X84955142Y-98719714D01*
X84907523Y-98814952D01*
X84859904Y-98862571D01*
X84764666Y-98910190D01*
X84383714Y-98910190D01*
X85907523Y-99386380D02*
X85336095Y-99386380D01*
X85621809Y-99386380D02*
X85621809Y-98386380D01*
X85526571Y-98529238D01*
X85431333Y-98624476D01*
X85336095Y-98672095D01*
X86859904Y-99386380D02*
X86288476Y-99386380D01*
X86574190Y-99386380D02*
X86574190Y-98386380D01*
X86478952Y-98529238D01*
X86383714Y-98624476D01*
X86288476Y-98672095D01*
G04 #@! TO.C,R12*
X90460527Y-53392023D02*
X89984337Y-53725356D01*
X90460527Y-53963451D02*
X89460527Y-53963451D01*
X89460527Y-53582499D01*
X89508147Y-53487261D01*
X89555766Y-53439642D01*
X89651004Y-53392023D01*
X89793861Y-53392023D01*
X89889099Y-53439642D01*
X89936718Y-53487261D01*
X89984337Y-53582499D01*
X89984337Y-53963451D01*
X90460527Y-52439642D02*
X90460527Y-53011070D01*
X90460527Y-52725356D02*
X89460527Y-52725356D01*
X89603385Y-52820594D01*
X89698623Y-52915832D01*
X89746242Y-53011070D01*
X89555766Y-52058689D02*
X89508147Y-52011070D01*
X89460527Y-51915832D01*
X89460527Y-51677737D01*
X89508147Y-51582499D01*
X89555766Y-51534880D01*
X89651004Y-51487261D01*
X89746242Y-51487261D01*
X89889099Y-51534880D01*
X90460527Y-52106308D01*
X90460527Y-51487261D01*
G04 #@! TO.C,R13*
X98061428Y-57281714D02*
X97775714Y-57481714D01*
X98061428Y-57624571D02*
X97461428Y-57624571D01*
X97461428Y-57396000D01*
X97490000Y-57338857D01*
X97518571Y-57310285D01*
X97575714Y-57281714D01*
X97661428Y-57281714D01*
X97718571Y-57310285D01*
X97747142Y-57338857D01*
X97775714Y-57396000D01*
X97775714Y-57624571D01*
X98061428Y-56710285D02*
X98061428Y-57053142D01*
X98061428Y-56881714D02*
X97461428Y-56881714D01*
X97547142Y-56938857D01*
X97604285Y-56996000D01*
X97632857Y-57053142D01*
X97461428Y-56510285D02*
X97461428Y-56138857D01*
X97690000Y-56338857D01*
X97690000Y-56253142D01*
X97718571Y-56196000D01*
X97747142Y-56167428D01*
X97804285Y-56138857D01*
X97947142Y-56138857D01*
X98004285Y-56167428D01*
X98032857Y-56196000D01*
X98061428Y-56253142D01*
X98061428Y-56424571D01*
X98032857Y-56481714D01*
X98004285Y-56510285D01*
G04 #@! TO.C,R14*
X105278285Y-63009428D02*
X105078285Y-62723714D01*
X104935428Y-63009428D02*
X104935428Y-62409428D01*
X105164000Y-62409428D01*
X105221142Y-62438000D01*
X105249714Y-62466571D01*
X105278285Y-62523714D01*
X105278285Y-62609428D01*
X105249714Y-62666571D01*
X105221142Y-62695142D01*
X105164000Y-62723714D01*
X104935428Y-62723714D01*
X105849714Y-63009428D02*
X105506857Y-63009428D01*
X105678285Y-63009428D02*
X105678285Y-62409428D01*
X105621142Y-62495142D01*
X105564000Y-62552285D01*
X105506857Y-62580857D01*
X106364000Y-62609428D02*
X106364000Y-63009428D01*
X106221142Y-62380857D02*
X106078285Y-62809428D01*
X106449714Y-62809428D01*
G04 #@! TO.C,U3*
X82225891Y-92009287D02*
X83035415Y-92009287D01*
X83130653Y-91961668D01*
X83178272Y-91914049D01*
X83225891Y-91818811D01*
X83225891Y-91628335D01*
X83178272Y-91533097D01*
X83130653Y-91485478D01*
X83035415Y-91437859D01*
X82225891Y-91437859D01*
X82225891Y-91056906D02*
X82225891Y-90437859D01*
X82606844Y-90771192D01*
X82606844Y-90628335D01*
X82654463Y-90533097D01*
X82702082Y-90485478D01*
X82797320Y-90437859D01*
X83035415Y-90437859D01*
X83130653Y-90485478D01*
X83178272Y-90533097D01*
X83225891Y-90628335D01*
X83225891Y-90914049D01*
X83178272Y-91009287D01*
X83130653Y-91056906D01*
G04 #@! TO.C,U4*
X105664095Y-57110380D02*
X105664095Y-57919904D01*
X105711714Y-58015142D01*
X105759333Y-58062761D01*
X105854571Y-58110380D01*
X106045047Y-58110380D01*
X106140285Y-58062761D01*
X106187904Y-58015142D01*
X106235523Y-57919904D01*
X106235523Y-57110380D01*
X107140285Y-57443714D02*
X107140285Y-58110380D01*
X106902190Y-57062761D02*
X106664095Y-57777047D01*
X107283142Y-57777047D01*
G04 #@! TO.C,U5*
X104394095Y-65492380D02*
X104394095Y-66301904D01*
X104441714Y-66397142D01*
X104489333Y-66444761D01*
X104584571Y-66492380D01*
X104775047Y-66492380D01*
X104870285Y-66444761D01*
X104917904Y-66397142D01*
X104965523Y-66301904D01*
X104965523Y-65492380D01*
X105917904Y-65492380D02*
X105441714Y-65492380D01*
X105394095Y-65968571D01*
X105441714Y-65920952D01*
X105536952Y-65873333D01*
X105775047Y-65873333D01*
X105870285Y-65920952D01*
X105917904Y-65968571D01*
X105965523Y-66063809D01*
X105965523Y-66301904D01*
X105917904Y-66397142D01*
X105870285Y-66444761D01*
X105775047Y-66492380D01*
X105536952Y-66492380D01*
X105441714Y-66444761D01*
X105394095Y-66397142D01*
G04 #@! TO.C,U2*
X60706095Y-78340380D02*
X60706095Y-79149904D01*
X60753714Y-79245142D01*
X60801333Y-79292761D01*
X60896571Y-79340380D01*
X61087047Y-79340380D01*
X61182285Y-79292761D01*
X61229904Y-79245142D01*
X61277523Y-79149904D01*
X61277523Y-78340380D01*
X61706095Y-78435619D02*
X61753714Y-78388000D01*
X61848952Y-78340380D01*
X62087047Y-78340380D01*
X62182285Y-78388000D01*
X62229904Y-78435619D01*
X62277523Y-78530857D01*
X62277523Y-78626095D01*
X62229904Y-78768952D01*
X61658476Y-79340380D01*
X62277523Y-79340380D01*
G04 #@! TO.C,C6*
X63373142Y-81954666D02*
X63420761Y-82002285D01*
X63468380Y-82145142D01*
X63468380Y-82240380D01*
X63420761Y-82383238D01*
X63325523Y-82478476D01*
X63230285Y-82526095D01*
X63039809Y-82573714D01*
X62896952Y-82573714D01*
X62706476Y-82526095D01*
X62611238Y-82478476D01*
X62516000Y-82383238D01*
X62468380Y-82240380D01*
X62468380Y-82145142D01*
X62516000Y-82002285D01*
X62563619Y-81954666D01*
X62468380Y-81097523D02*
X62468380Y-81288000D01*
X62516000Y-81383238D01*
X62563619Y-81430857D01*
X62706476Y-81526095D01*
X62896952Y-81573714D01*
X63277904Y-81573714D01*
X63373142Y-81526095D01*
X63420761Y-81478476D01*
X63468380Y-81383238D01*
X63468380Y-81192761D01*
X63420761Y-81097523D01*
X63373142Y-81049904D01*
X63277904Y-81002285D01*
X63039809Y-81002285D01*
X62944571Y-81049904D01*
X62896952Y-81097523D01*
X62849333Y-81192761D01*
X62849333Y-81383238D01*
X62896952Y-81478476D01*
X62944571Y-81526095D01*
X63039809Y-81573714D01*
G04 #@! TO.C,REF\002A\002A*
X111061666Y-50363380D02*
X110728333Y-49887190D01*
X110490238Y-50363380D02*
X110490238Y-49363380D01*
X110871190Y-49363380D01*
X110966428Y-49411000D01*
X111014047Y-49458619D01*
X111061666Y-49553857D01*
X111061666Y-49696714D01*
X111014047Y-49791952D01*
X110966428Y-49839571D01*
X110871190Y-49887190D01*
X110490238Y-49887190D01*
X111490238Y-49839571D02*
X111823571Y-49839571D01*
X111966428Y-50363380D02*
X111490238Y-50363380D01*
X111490238Y-49363380D01*
X111966428Y-49363380D01*
X112728333Y-49839571D02*
X112395000Y-49839571D01*
X112395000Y-50363380D02*
X112395000Y-49363380D01*
X112871190Y-49363380D01*
X113395000Y-49363380D02*
X113395000Y-49601476D01*
X113156904Y-49506238D02*
X113395000Y-49601476D01*
X113633095Y-49506238D01*
X113252142Y-49791952D02*
X113395000Y-49601476D01*
X113537857Y-49791952D01*
X114156904Y-49363380D02*
X114156904Y-49601476D01*
X113918809Y-49506238D02*
X114156904Y-49601476D01*
X114395000Y-49506238D01*
X114014047Y-49791952D02*
X114156904Y-49601476D01*
X114299761Y-49791952D01*
X46291666Y-102433380D02*
X45958333Y-101957190D01*
X45720238Y-102433380D02*
X45720238Y-101433380D01*
X46101190Y-101433380D01*
X46196428Y-101481000D01*
X46244047Y-101528619D01*
X46291666Y-101623857D01*
X46291666Y-101766714D01*
X46244047Y-101861952D01*
X46196428Y-101909571D01*
X46101190Y-101957190D01*
X45720238Y-101957190D01*
X46720238Y-101909571D02*
X47053571Y-101909571D01*
X47196428Y-102433380D02*
X46720238Y-102433380D01*
X46720238Y-101433380D01*
X47196428Y-101433380D01*
X47958333Y-101909571D02*
X47625000Y-101909571D01*
X47625000Y-102433380D02*
X47625000Y-101433380D01*
X48101190Y-101433380D01*
X48625000Y-101433380D02*
X48625000Y-101671476D01*
X48386904Y-101576238D02*
X48625000Y-101671476D01*
X48863095Y-101576238D01*
X48482142Y-101861952D02*
X48625000Y-101671476D01*
X48767857Y-101861952D01*
X49386904Y-101433380D02*
X49386904Y-101671476D01*
X49148809Y-101576238D02*
X49386904Y-101671476D01*
X49625000Y-101576238D01*
X49244047Y-101861952D02*
X49386904Y-101671476D01*
X49529761Y-101861952D01*
X111061666Y-102433380D02*
X110728333Y-101957190D01*
X110490238Y-102433380D02*
X110490238Y-101433380D01*
X110871190Y-101433380D01*
X110966428Y-101481000D01*
X111014047Y-101528619D01*
X111061666Y-101623857D01*
X111061666Y-101766714D01*
X111014047Y-101861952D01*
X110966428Y-101909571D01*
X110871190Y-101957190D01*
X110490238Y-101957190D01*
X111490238Y-101909571D02*
X111823571Y-101909571D01*
X111966428Y-102433380D02*
X111490238Y-102433380D01*
X111490238Y-101433380D01*
X111966428Y-101433380D01*
X112728333Y-101909571D02*
X112395000Y-101909571D01*
X112395000Y-102433380D02*
X112395000Y-101433380D01*
X112871190Y-101433380D01*
X113395000Y-101433380D02*
X113395000Y-101671476D01*
X113156904Y-101576238D02*
X113395000Y-101671476D01*
X113633095Y-101576238D01*
X113252142Y-101861952D02*
X113395000Y-101671476D01*
X113537857Y-101861952D01*
X114156904Y-101433380D02*
X114156904Y-101671476D01*
X113918809Y-101576238D02*
X114156904Y-101671476D01*
X114395000Y-101576238D01*
X114014047Y-101861952D02*
X114156904Y-101671476D01*
X114299761Y-101861952D01*
G04 #@! TO.C,R15*
X73006741Y-83484779D02*
X72673408Y-83008589D01*
X72435313Y-83484779D02*
X72435313Y-82484779D01*
X72816265Y-82484779D01*
X72911503Y-82532399D01*
X72959122Y-82580018D01*
X73006741Y-82675256D01*
X73006741Y-82818113D01*
X72959122Y-82913351D01*
X72911503Y-82960970D01*
X72816265Y-83008589D01*
X72435313Y-83008589D01*
X73959122Y-83484779D02*
X73387694Y-83484779D01*
X73673408Y-83484779D02*
X73673408Y-82484779D01*
X73578170Y-82627637D01*
X73482932Y-82722875D01*
X73387694Y-82770494D01*
X74863884Y-82484779D02*
X74387694Y-82484779D01*
X74340075Y-82960970D01*
X74387694Y-82913351D01*
X74482932Y-82865732D01*
X74721027Y-82865732D01*
X74816265Y-82913351D01*
X74863884Y-82960970D01*
X74911503Y-83056208D01*
X74911503Y-83294303D01*
X74863884Y-83389541D01*
X74816265Y-83437160D01*
X74721027Y-83484779D01*
X74482932Y-83484779D01*
X74387694Y-83437160D01*
X74340075Y-83389541D01*
G04 #@! TO.C,R16*
X73006942Y-81554580D02*
X72673609Y-81078390D01*
X72435514Y-81554580D02*
X72435514Y-80554580D01*
X72816466Y-80554580D01*
X72911704Y-80602200D01*
X72959323Y-80649819D01*
X73006942Y-80745057D01*
X73006942Y-80887914D01*
X72959323Y-80983152D01*
X72911704Y-81030771D01*
X72816466Y-81078390D01*
X72435514Y-81078390D01*
X73959323Y-81554580D02*
X73387895Y-81554580D01*
X73673609Y-81554580D02*
X73673609Y-80554580D01*
X73578371Y-80697438D01*
X73483133Y-80792676D01*
X73387895Y-80840295D01*
X74816466Y-80554580D02*
X74625990Y-80554580D01*
X74530752Y-80602200D01*
X74483133Y-80649819D01*
X74387895Y-80792676D01*
X74340276Y-80983152D01*
X74340276Y-81364104D01*
X74387895Y-81459342D01*
X74435514Y-81506961D01*
X74530752Y-81554580D01*
X74721228Y-81554580D01*
X74816466Y-81506961D01*
X74864085Y-81459342D01*
X74911704Y-81364104D01*
X74911704Y-81126009D01*
X74864085Y-81030771D01*
X74816466Y-80983152D01*
X74721228Y-80935533D01*
X74530752Y-80935533D01*
X74435514Y-80983152D01*
X74387895Y-81030771D01*
X74340276Y-81126009D01*
G04 #@! TO.C,C11*
X109085142Y-57531142D02*
X109037523Y-57578761D01*
X108894666Y-57626380D01*
X108799428Y-57626380D01*
X108656571Y-57578761D01*
X108561333Y-57483523D01*
X108513714Y-57388285D01*
X108466095Y-57197809D01*
X108466095Y-57054952D01*
X108513714Y-56864476D01*
X108561333Y-56769238D01*
X108656571Y-56674000D01*
X108799428Y-56626380D01*
X108894666Y-56626380D01*
X109037523Y-56674000D01*
X109085142Y-56721619D01*
X110037523Y-57626380D02*
X109466095Y-57626380D01*
X109751809Y-57626380D02*
X109751809Y-56626380D01*
X109656571Y-56769238D01*
X109561333Y-56864476D01*
X109466095Y-56912095D01*
X110989904Y-57626380D02*
X110418476Y-57626380D01*
X110704190Y-57626380D02*
X110704190Y-56626380D01*
X110608952Y-56769238D01*
X110513714Y-56864476D01*
X110418476Y-56912095D01*
G04 #@! TO.C,R17*
X95626285Y-60977428D02*
X95426285Y-60691714D01*
X95283428Y-60977428D02*
X95283428Y-60377428D01*
X95512000Y-60377428D01*
X95569142Y-60406000D01*
X95597714Y-60434571D01*
X95626285Y-60491714D01*
X95626285Y-60577428D01*
X95597714Y-60634571D01*
X95569142Y-60663142D01*
X95512000Y-60691714D01*
X95283428Y-60691714D01*
X96197714Y-60977428D02*
X95854857Y-60977428D01*
X96026285Y-60977428D02*
X96026285Y-60377428D01*
X95969142Y-60463142D01*
X95912000Y-60520285D01*
X95854857Y-60548857D01*
X96397714Y-60377428D02*
X96797714Y-60377428D01*
X96540571Y-60977428D01*
G04 #@! TO.C,R18*
X101214285Y-58437428D02*
X101014285Y-58151714D01*
X100871428Y-58437428D02*
X100871428Y-57837428D01*
X101100000Y-57837428D01*
X101157142Y-57866000D01*
X101185714Y-57894571D01*
X101214285Y-57951714D01*
X101214285Y-58037428D01*
X101185714Y-58094571D01*
X101157142Y-58123142D01*
X101100000Y-58151714D01*
X100871428Y-58151714D01*
X101785714Y-58437428D02*
X101442857Y-58437428D01*
X101614285Y-58437428D02*
X101614285Y-57837428D01*
X101557142Y-57923142D01*
X101500000Y-57980285D01*
X101442857Y-58008857D01*
X102128571Y-58094571D02*
X102071428Y-58066000D01*
X102042857Y-58037428D01*
X102014285Y-57980285D01*
X102014285Y-57951714D01*
X102042857Y-57894571D01*
X102071428Y-57866000D01*
X102128571Y-57837428D01*
X102242857Y-57837428D01*
X102300000Y-57866000D01*
X102328571Y-57894571D01*
X102357142Y-57951714D01*
X102357142Y-57980285D01*
X102328571Y-58037428D01*
X102300000Y-58066000D01*
X102242857Y-58094571D01*
X102128571Y-58094571D01*
X102071428Y-58123142D01*
X102042857Y-58151714D01*
X102014285Y-58208857D01*
X102014285Y-58323142D01*
X102042857Y-58380285D01*
X102071428Y-58408857D01*
X102128571Y-58437428D01*
X102242857Y-58437428D01*
X102300000Y-58408857D01*
X102328571Y-58380285D01*
X102357142Y-58323142D01*
X102357142Y-58208857D01*
X102328571Y-58151714D01*
X102300000Y-58123142D01*
X102242857Y-58094571D01*
G04 #@! TO.C,R19*
X97404285Y-60977428D02*
X97204285Y-60691714D01*
X97061428Y-60977428D02*
X97061428Y-60377428D01*
X97290000Y-60377428D01*
X97347142Y-60406000D01*
X97375714Y-60434571D01*
X97404285Y-60491714D01*
X97404285Y-60577428D01*
X97375714Y-60634571D01*
X97347142Y-60663142D01*
X97290000Y-60691714D01*
X97061428Y-60691714D01*
X97975714Y-60977428D02*
X97632857Y-60977428D01*
X97804285Y-60977428D02*
X97804285Y-60377428D01*
X97747142Y-60463142D01*
X97690000Y-60520285D01*
X97632857Y-60548857D01*
X98261428Y-60977428D02*
X98375714Y-60977428D01*
X98432857Y-60948857D01*
X98461428Y-60920285D01*
X98518571Y-60834571D01*
X98547142Y-60720285D01*
X98547142Y-60491714D01*
X98518571Y-60434571D01*
X98490000Y-60406000D01*
X98432857Y-60377428D01*
X98318571Y-60377428D01*
X98261428Y-60406000D01*
X98232857Y-60434571D01*
X98204285Y-60491714D01*
X98204285Y-60634571D01*
X98232857Y-60691714D01*
X98261428Y-60720285D01*
X98318571Y-60748857D01*
X98432857Y-60748857D01*
X98490000Y-60720285D01*
X98518571Y-60691714D01*
X98547142Y-60634571D01*
G04 #@! TO.C,R20*
X103500285Y-58437428D02*
X103300285Y-58151714D01*
X103157428Y-58437428D02*
X103157428Y-57837428D01*
X103386000Y-57837428D01*
X103443142Y-57866000D01*
X103471714Y-57894571D01*
X103500285Y-57951714D01*
X103500285Y-58037428D01*
X103471714Y-58094571D01*
X103443142Y-58123142D01*
X103386000Y-58151714D01*
X103157428Y-58151714D01*
X103728857Y-57894571D02*
X103757428Y-57866000D01*
X103814571Y-57837428D01*
X103957428Y-57837428D01*
X104014571Y-57866000D01*
X104043142Y-57894571D01*
X104071714Y-57951714D01*
X104071714Y-58008857D01*
X104043142Y-58094571D01*
X103700285Y-58437428D01*
X104071714Y-58437428D01*
X104443142Y-57837428D02*
X104500285Y-57837428D01*
X104557428Y-57866000D01*
X104586000Y-57894571D01*
X104614571Y-57951714D01*
X104643142Y-58066000D01*
X104643142Y-58208857D01*
X104614571Y-58323142D01*
X104586000Y-58380285D01*
X104557428Y-58408857D01*
X104500285Y-58437428D01*
X104443142Y-58437428D01*
X104386000Y-58408857D01*
X104357428Y-58380285D01*
X104328857Y-58323142D01*
X104300285Y-58208857D01*
X104300285Y-58066000D01*
X104328857Y-57951714D01*
X104357428Y-57894571D01*
X104386000Y-57866000D01*
X104443142Y-57837428D01*
G04 #@! TO.C,R21*
X102230285Y-63009428D02*
X102030285Y-62723714D01*
X101887428Y-63009428D02*
X101887428Y-62409428D01*
X102116000Y-62409428D01*
X102173142Y-62438000D01*
X102201714Y-62466571D01*
X102230285Y-62523714D01*
X102230285Y-62609428D01*
X102201714Y-62666571D01*
X102173142Y-62695142D01*
X102116000Y-62723714D01*
X101887428Y-62723714D01*
X102458857Y-62466571D02*
X102487428Y-62438000D01*
X102544571Y-62409428D01*
X102687428Y-62409428D01*
X102744571Y-62438000D01*
X102773142Y-62466571D01*
X102801714Y-62523714D01*
X102801714Y-62580857D01*
X102773142Y-62666571D01*
X102430285Y-63009428D01*
X102801714Y-63009428D01*
X103373142Y-63009428D02*
X103030285Y-63009428D01*
X103201714Y-63009428D02*
X103201714Y-62409428D01*
X103144571Y-62495142D01*
X103087428Y-62552285D01*
X103030285Y-62580857D01*
G04 #@! TO.C,R22*
X114878380Y-60078857D02*
X114402190Y-60412190D01*
X114878380Y-60650285D02*
X113878380Y-60650285D01*
X113878380Y-60269333D01*
X113926000Y-60174095D01*
X113973619Y-60126476D01*
X114068857Y-60078857D01*
X114211714Y-60078857D01*
X114306952Y-60126476D01*
X114354571Y-60174095D01*
X114402190Y-60269333D01*
X114402190Y-60650285D01*
X113973619Y-59697904D02*
X113926000Y-59650285D01*
X113878380Y-59555047D01*
X113878380Y-59316952D01*
X113926000Y-59221714D01*
X113973619Y-59174095D01*
X114068857Y-59126476D01*
X114164095Y-59126476D01*
X114306952Y-59174095D01*
X114878380Y-59745523D01*
X114878380Y-59126476D01*
X113973619Y-58745523D02*
X113926000Y-58697904D01*
X113878380Y-58602666D01*
X113878380Y-58364571D01*
X113926000Y-58269333D01*
X113973619Y-58221714D01*
X114068857Y-58174095D01*
X114164095Y-58174095D01*
X114306952Y-58221714D01*
X114878380Y-58793142D01*
X114878380Y-58174095D01*
G04 #@! TO.C,R23*
X114878380Y-63634857D02*
X114402190Y-63968190D01*
X114878380Y-64206285D02*
X113878380Y-64206285D01*
X113878380Y-63825333D01*
X113926000Y-63730095D01*
X113973619Y-63682476D01*
X114068857Y-63634857D01*
X114211714Y-63634857D01*
X114306952Y-63682476D01*
X114354571Y-63730095D01*
X114402190Y-63825333D01*
X114402190Y-64206285D01*
X113973619Y-63253904D02*
X113926000Y-63206285D01*
X113878380Y-63111047D01*
X113878380Y-62872952D01*
X113926000Y-62777714D01*
X113973619Y-62730095D01*
X114068857Y-62682476D01*
X114164095Y-62682476D01*
X114306952Y-62730095D01*
X114878380Y-63301523D01*
X114878380Y-62682476D01*
X113878380Y-62349142D02*
X113878380Y-61730095D01*
X114259333Y-62063428D01*
X114259333Y-61920571D01*
X114306952Y-61825333D01*
X114354571Y-61777714D01*
X114449809Y-61730095D01*
X114687904Y-61730095D01*
X114783142Y-61777714D01*
X114830761Y-61825333D01*
X114878380Y-61920571D01*
X114878380Y-62206285D01*
X114830761Y-62301523D01*
X114783142Y-62349142D01*
G04 #@! TO.C,U6*
X107442095Y-64222380D02*
X107442095Y-65031904D01*
X107489714Y-65127142D01*
X107537333Y-65174761D01*
X107632571Y-65222380D01*
X107823047Y-65222380D01*
X107918285Y-65174761D01*
X107965904Y-65127142D01*
X108013523Y-65031904D01*
X108013523Y-64222380D01*
X108918285Y-64222380D02*
X108727809Y-64222380D01*
X108632571Y-64270000D01*
X108584952Y-64317619D01*
X108489714Y-64460476D01*
X108442095Y-64650952D01*
X108442095Y-65031904D01*
X108489714Y-65127142D01*
X108537333Y-65174761D01*
X108632571Y-65222380D01*
X108823047Y-65222380D01*
X108918285Y-65174761D01*
X108965904Y-65127142D01*
X109013523Y-65031904D01*
X109013523Y-64793809D01*
X108965904Y-64698571D01*
X108918285Y-64650952D01*
X108823047Y-64603333D01*
X108632571Y-64603333D01*
X108537333Y-64650952D01*
X108489714Y-64698571D01*
X108442095Y-64793809D01*
G04 #@! TO.C,U7*
X112014095Y-69302380D02*
X112014095Y-70111904D01*
X112061714Y-70207142D01*
X112109333Y-70254761D01*
X112204571Y-70302380D01*
X112395047Y-70302380D01*
X112490285Y-70254761D01*
X112537904Y-70207142D01*
X112585523Y-70111904D01*
X112585523Y-69302380D01*
X112966476Y-69302380D02*
X113633142Y-69302380D01*
X113204571Y-70302380D01*
G04 #@! TO.C,J4*
X48942666Y-62190380D02*
X48942666Y-62904666D01*
X48895047Y-63047523D01*
X48799809Y-63142761D01*
X48656952Y-63190380D01*
X48561714Y-63190380D01*
X49847428Y-62523714D02*
X49847428Y-63190380D01*
X49609333Y-62142761D02*
X49371238Y-62857047D01*
X49990285Y-62857047D01*
X49561714Y-58618380D02*
X48990285Y-58618380D01*
X49276000Y-58618380D02*
X49276000Y-57618380D01*
X49180761Y-57761238D01*
X49085523Y-57856476D01*
X48990285Y-57904095D01*
X48990285Y-53649619D02*
X49037904Y-53602000D01*
X49133142Y-53554380D01*
X49371238Y-53554380D01*
X49466476Y-53602000D01*
X49514095Y-53649619D01*
X49561714Y-53744857D01*
X49561714Y-53840095D01*
X49514095Y-53982952D01*
X48942666Y-54554380D01*
X49561714Y-54554380D01*
G04 #@! TD*
M02*
