G04 #@! TF.GenerationSoftware,KiCad,Pcbnew,(5.0.1)-4*
G04 #@! TF.CreationDate,2019-05-19T19:14:33-06:00*
G04 #@! TF.ProjectId,BMS_core,424D535F636F72652E6B696361645F70,rev?*
G04 #@! TF.SameCoordinates,Original*
G04 #@! TF.FileFunction,Legend,Bot*
G04 #@! TF.FilePolarity,Positive*
%FSLAX46Y46*%
G04 Gerber Fmt 4.6, Leading zero omitted, Abs format (unit mm)*
G04 Created by KiCad (PCBNEW (5.0.1)-4) date 5/19/2019 7:14:33 PM*
%MOMM*%
%LPD*%
G01*
G04 APERTURE LIST*
%ADD10C,0.010000*%
G04 APERTURE END LIST*
D10*
G04 #@! TO.C,G\002A\002A\002A*
G36*
X62002125Y-98686668D02*
X61782881Y-98720099D01*
X61603072Y-98785230D01*
X61462147Y-98882426D01*
X61359556Y-99012051D01*
X61300861Y-99152155D01*
X61278775Y-99273205D01*
X61269718Y-99428471D01*
X61273125Y-99603221D01*
X61288430Y-99782724D01*
X61315067Y-99952248D01*
X61334874Y-100037900D01*
X61382128Y-100215700D01*
X61528798Y-100223381D01*
X61610849Y-100226058D01*
X61652861Y-100221020D01*
X61665381Y-100205249D01*
X61661973Y-100185281D01*
X61612793Y-100005385D01*
X61581193Y-99853754D01*
X61564131Y-99712226D01*
X61558598Y-99568000D01*
X61559377Y-99448653D01*
X61565481Y-99364866D01*
X61579564Y-99301468D01*
X61604278Y-99243289D01*
X61620720Y-99212719D01*
X61700359Y-99105978D01*
X61805216Y-99031148D01*
X61942254Y-98984728D01*
X62116981Y-98963294D01*
X62354966Y-98973211D01*
X62571320Y-99029085D01*
X62766049Y-99130919D01*
X62939159Y-99278718D01*
X63090655Y-99472487D01*
X63220546Y-99712229D01*
X63255990Y-99794813D01*
X63276565Y-99853344D01*
X63308846Y-99955330D01*
X63351267Y-100095193D01*
X63402260Y-100267353D01*
X63460258Y-100466233D01*
X63523694Y-100686252D01*
X63591000Y-100921831D01*
X63660608Y-101167392D01*
X63730952Y-101417355D01*
X63800464Y-101666142D01*
X63867577Y-101908172D01*
X63930723Y-102137868D01*
X63988334Y-102349649D01*
X64038845Y-102537938D01*
X64080686Y-102697154D01*
X64112291Y-102821719D01*
X64132093Y-102906054D01*
X64136937Y-102930561D01*
X64157448Y-103145216D01*
X64139788Y-103326697D01*
X64083760Y-103475576D01*
X63989162Y-103592428D01*
X63881000Y-103665611D01*
X63813009Y-103698565D01*
X63754981Y-103718959D01*
X63691860Y-103729194D01*
X63608588Y-103731672D01*
X63490109Y-103728795D01*
X63485830Y-103728650D01*
X63360730Y-103722690D01*
X63269187Y-103712354D01*
X63193965Y-103693927D01*
X63117826Y-103663693D01*
X63062700Y-103637439D01*
X62881376Y-103520516D01*
X62717365Y-103358079D01*
X62572777Y-103153088D01*
X62449724Y-102908501D01*
X62356359Y-102647750D01*
X62301253Y-102463600D01*
X62164027Y-102463600D01*
X62088292Y-102467464D01*
X62038453Y-102477416D01*
X62026800Y-102486709D01*
X62036344Y-102537867D01*
X62062149Y-102624127D01*
X62099971Y-102734109D01*
X62145570Y-102856436D01*
X62194703Y-102979729D01*
X62243129Y-103092610D01*
X62286606Y-103183700D01*
X62286724Y-103183927D01*
X62380289Y-103336512D01*
X62500182Y-103490543D01*
X62635590Y-103634796D01*
X62775698Y-103758050D01*
X62909693Y-103849082D01*
X62945647Y-103867748D01*
X63163290Y-103949056D01*
X63398283Y-103997381D01*
X63635486Y-104011122D01*
X63859760Y-103988675D01*
X63931800Y-103972135D01*
X64105544Y-103904138D01*
X64241760Y-103802424D01*
X64342881Y-103664641D01*
X64403443Y-103516133D01*
X64427856Y-103390527D01*
X64438230Y-103234011D01*
X64434309Y-103064567D01*
X64415836Y-102900182D01*
X64412514Y-102881014D01*
X64398416Y-102817692D01*
X64371626Y-102711244D01*
X64333739Y-102567294D01*
X64286347Y-102391467D01*
X64231045Y-102189387D01*
X64169427Y-101966677D01*
X64103085Y-101728963D01*
X64033615Y-101481868D01*
X63962609Y-101231017D01*
X63891661Y-100982034D01*
X63822366Y-100740542D01*
X63756317Y-100512167D01*
X63695107Y-100302532D01*
X63640331Y-100117262D01*
X63593582Y-99961981D01*
X63556454Y-99842312D01*
X63530540Y-99763881D01*
X63524640Y-99747795D01*
X63396280Y-99473359D01*
X63238684Y-99236699D01*
X63054408Y-99039597D01*
X62846013Y-98883836D01*
X62616055Y-98771200D01*
X62367094Y-98703471D01*
X62101687Y-98682433D01*
X62002125Y-98686668D01*
X62002125Y-98686668D01*
G37*
X62002125Y-98686668D02*
X61782881Y-98720099D01*
X61603072Y-98785230D01*
X61462147Y-98882426D01*
X61359556Y-99012051D01*
X61300861Y-99152155D01*
X61278775Y-99273205D01*
X61269718Y-99428471D01*
X61273125Y-99603221D01*
X61288430Y-99782724D01*
X61315067Y-99952248D01*
X61334874Y-100037900D01*
X61382128Y-100215700D01*
X61528798Y-100223381D01*
X61610849Y-100226058D01*
X61652861Y-100221020D01*
X61665381Y-100205249D01*
X61661973Y-100185281D01*
X61612793Y-100005385D01*
X61581193Y-99853754D01*
X61564131Y-99712226D01*
X61558598Y-99568000D01*
X61559377Y-99448653D01*
X61565481Y-99364866D01*
X61579564Y-99301468D01*
X61604278Y-99243289D01*
X61620720Y-99212719D01*
X61700359Y-99105978D01*
X61805216Y-99031148D01*
X61942254Y-98984728D01*
X62116981Y-98963294D01*
X62354966Y-98973211D01*
X62571320Y-99029085D01*
X62766049Y-99130919D01*
X62939159Y-99278718D01*
X63090655Y-99472487D01*
X63220546Y-99712229D01*
X63255990Y-99794813D01*
X63276565Y-99853344D01*
X63308846Y-99955330D01*
X63351267Y-100095193D01*
X63402260Y-100267353D01*
X63460258Y-100466233D01*
X63523694Y-100686252D01*
X63591000Y-100921831D01*
X63660608Y-101167392D01*
X63730952Y-101417355D01*
X63800464Y-101666142D01*
X63867577Y-101908172D01*
X63930723Y-102137868D01*
X63988334Y-102349649D01*
X64038845Y-102537938D01*
X64080686Y-102697154D01*
X64112291Y-102821719D01*
X64132093Y-102906054D01*
X64136937Y-102930561D01*
X64157448Y-103145216D01*
X64139788Y-103326697D01*
X64083760Y-103475576D01*
X63989162Y-103592428D01*
X63881000Y-103665611D01*
X63813009Y-103698565D01*
X63754981Y-103718959D01*
X63691860Y-103729194D01*
X63608588Y-103731672D01*
X63490109Y-103728795D01*
X63485830Y-103728650D01*
X63360730Y-103722690D01*
X63269187Y-103712354D01*
X63193965Y-103693927D01*
X63117826Y-103663693D01*
X63062700Y-103637439D01*
X62881376Y-103520516D01*
X62717365Y-103358079D01*
X62572777Y-103153088D01*
X62449724Y-102908501D01*
X62356359Y-102647750D01*
X62301253Y-102463600D01*
X62164027Y-102463600D01*
X62088292Y-102467464D01*
X62038453Y-102477416D01*
X62026800Y-102486709D01*
X62036344Y-102537867D01*
X62062149Y-102624127D01*
X62099971Y-102734109D01*
X62145570Y-102856436D01*
X62194703Y-102979729D01*
X62243129Y-103092610D01*
X62286606Y-103183700D01*
X62286724Y-103183927D01*
X62380289Y-103336512D01*
X62500182Y-103490543D01*
X62635590Y-103634796D01*
X62775698Y-103758050D01*
X62909693Y-103849082D01*
X62945647Y-103867748D01*
X63163290Y-103949056D01*
X63398283Y-103997381D01*
X63635486Y-104011122D01*
X63859760Y-103988675D01*
X63931800Y-103972135D01*
X64105544Y-103904138D01*
X64241760Y-103802424D01*
X64342881Y-103664641D01*
X64403443Y-103516133D01*
X64427856Y-103390527D01*
X64438230Y-103234011D01*
X64434309Y-103064567D01*
X64415836Y-102900182D01*
X64412514Y-102881014D01*
X64398416Y-102817692D01*
X64371626Y-102711244D01*
X64333739Y-102567294D01*
X64286347Y-102391467D01*
X64231045Y-102189387D01*
X64169427Y-101966677D01*
X64103085Y-101728963D01*
X64033615Y-101481868D01*
X63962609Y-101231017D01*
X63891661Y-100982034D01*
X63822366Y-100740542D01*
X63756317Y-100512167D01*
X63695107Y-100302532D01*
X63640331Y-100117262D01*
X63593582Y-99961981D01*
X63556454Y-99842312D01*
X63530540Y-99763881D01*
X63524640Y-99747795D01*
X63396280Y-99473359D01*
X63238684Y-99236699D01*
X63054408Y-99039597D01*
X62846013Y-98883836D01*
X62616055Y-98771200D01*
X62367094Y-98703471D01*
X62101687Y-98682433D01*
X62002125Y-98686668D01*
G36*
X63738056Y-98693023D02*
X63728600Y-98712243D01*
X63735353Y-98741120D01*
X63755009Y-98815637D01*
X63786667Y-98932547D01*
X63829425Y-99088601D01*
X63882382Y-99280552D01*
X63944636Y-99505151D01*
X64015284Y-99759152D01*
X64093426Y-100039305D01*
X64178159Y-100342363D01*
X64268581Y-100665079D01*
X64363792Y-101004204D01*
X64453578Y-101323420D01*
X64552585Y-101675174D01*
X64647871Y-102013814D01*
X64738512Y-102336055D01*
X64823585Y-102638615D01*
X64902169Y-102918208D01*
X64973341Y-103171550D01*
X65036179Y-103395357D01*
X65089759Y-103586344D01*
X65133161Y-103741227D01*
X65165460Y-103856722D01*
X65185736Y-103929545D01*
X65192931Y-103955850D01*
X65207168Y-103989016D01*
X65237415Y-104006181D01*
X65297320Y-104012405D01*
X65347008Y-104013000D01*
X65426439Y-104011560D01*
X65466070Y-104003879D01*
X65476890Y-103984917D01*
X65471555Y-103955850D01*
X65462731Y-103924061D01*
X65441052Y-103846641D01*
X65407435Y-103726855D01*
X65362800Y-103567968D01*
X65308065Y-103373246D01*
X65244148Y-103145953D01*
X65171967Y-102889356D01*
X65092442Y-102606719D01*
X65006489Y-102301308D01*
X64915029Y-101976389D01*
X64818979Y-101635226D01*
X64723232Y-101295200D01*
X63990062Y-98691700D01*
X63859331Y-98684022D01*
X63778421Y-98682871D01*
X63738056Y-98693023D01*
X63738056Y-98693023D01*
G37*
X63738056Y-98693023D02*
X63728600Y-98712243D01*
X63735353Y-98741120D01*
X63755009Y-98815637D01*
X63786667Y-98932547D01*
X63829425Y-99088601D01*
X63882382Y-99280552D01*
X63944636Y-99505151D01*
X64015284Y-99759152D01*
X64093426Y-100039305D01*
X64178159Y-100342363D01*
X64268581Y-100665079D01*
X64363792Y-101004204D01*
X64453578Y-101323420D01*
X64552585Y-101675174D01*
X64647871Y-102013814D01*
X64738512Y-102336055D01*
X64823585Y-102638615D01*
X64902169Y-102918208D01*
X64973341Y-103171550D01*
X65036179Y-103395357D01*
X65089759Y-103586344D01*
X65133161Y-103741227D01*
X65165460Y-103856722D01*
X65185736Y-103929545D01*
X65192931Y-103955850D01*
X65207168Y-103989016D01*
X65237415Y-104006181D01*
X65297320Y-104012405D01*
X65347008Y-104013000D01*
X65426439Y-104011560D01*
X65466070Y-104003879D01*
X65476890Y-103984917D01*
X65471555Y-103955850D01*
X65462731Y-103924061D01*
X65441052Y-103846641D01*
X65407435Y-103726855D01*
X65362800Y-103567968D01*
X65308065Y-103373246D01*
X65244148Y-103145953D01*
X65171967Y-102889356D01*
X65092442Y-102606719D01*
X65006489Y-102301308D01*
X64915029Y-101976389D01*
X64818979Y-101635226D01*
X64723232Y-101295200D01*
X63990062Y-98691700D01*
X63859331Y-98684022D01*
X63778421Y-98682871D01*
X63738056Y-98693023D01*
G36*
X66329454Y-98682894D02*
X66149796Y-98684931D01*
X66147950Y-98684957D01*
X65935220Y-98688439D01*
X65766739Y-98692453D01*
X65635960Y-98697442D01*
X65536334Y-98703850D01*
X65461309Y-98712122D01*
X65404339Y-98722701D01*
X65358872Y-98736030D01*
X65350812Y-98738979D01*
X65193779Y-98823144D01*
X65064105Y-98943131D01*
X64972059Y-99089420D01*
X64971513Y-99090645D01*
X64930915Y-99227870D01*
X64912135Y-99400169D01*
X64915057Y-99596793D01*
X64939560Y-99806997D01*
X64981651Y-100005406D01*
X65088510Y-100349495D01*
X65217547Y-100647903D01*
X65368783Y-100900661D01*
X65542236Y-101107802D01*
X65737927Y-101269358D01*
X65811400Y-101314980D01*
X65877100Y-101352665D01*
X65921428Y-101378201D01*
X65932099Y-101384435D01*
X65919590Y-101403231D01*
X65880623Y-101448077D01*
X65833295Y-101499020D01*
X65742927Y-101604892D01*
X65681509Y-101707875D01*
X65644361Y-101821573D01*
X65626802Y-101959593D01*
X65623798Y-102108000D01*
X65625054Y-102184512D01*
X65628286Y-102253147D01*
X65634964Y-102320773D01*
X65646558Y-102394256D01*
X65664536Y-102480463D01*
X65690368Y-102586260D01*
X65725521Y-102718514D01*
X65771467Y-102884093D01*
X65829673Y-103089862D01*
X65846600Y-103149400D01*
X65901106Y-103340909D01*
X65951564Y-103517998D01*
X65996187Y-103674403D01*
X66033187Y-103803864D01*
X66060773Y-103900119D01*
X66077158Y-103956906D01*
X66080594Y-103968550D01*
X66099996Y-103995452D01*
X66145014Y-104009078D01*
X66227811Y-104012994D01*
X66232212Y-104013000D01*
X66308203Y-104011037D01*
X66358321Y-104005982D01*
X66370200Y-104001210D01*
X66363570Y-103974767D01*
X66344781Y-103905399D01*
X66315486Y-103799066D01*
X66277337Y-103661729D01*
X66231989Y-103499348D01*
X66181094Y-103317886D01*
X66154138Y-103222060D01*
X66099298Y-103025240D01*
X66047995Y-102837230D01*
X66002179Y-102665480D01*
X65963803Y-102517443D01*
X65934817Y-102400569D01*
X65917172Y-102322309D01*
X65913904Y-102304599D01*
X65902758Y-102109565D01*
X65935417Y-101938653D01*
X66011205Y-101793344D01*
X66129446Y-101675117D01*
X66229673Y-101613018D01*
X66282850Y-101586459D01*
X66329467Y-101566754D01*
X66378341Y-101552720D01*
X66438287Y-101543177D01*
X66518120Y-101536943D01*
X66626655Y-101532838D01*
X66772709Y-101529681D01*
X66863689Y-101528068D01*
X67348100Y-101519637D01*
X67651306Y-102607568D01*
X67716212Y-102840215D01*
X67778519Y-103063086D01*
X67836563Y-103270265D01*
X67888682Y-103455836D01*
X67933213Y-103613883D01*
X67968492Y-103738489D01*
X67992856Y-103823740D01*
X68001756Y-103854250D01*
X68049001Y-104013000D01*
X68174801Y-104013000D01*
X68254850Y-104008660D01*
X68293488Y-103993909D01*
X68300600Y-103975794D01*
X68293849Y-103946773D01*
X68274190Y-103872085D01*
X68242518Y-103754954D01*
X68199727Y-103598601D01*
X68146712Y-103406251D01*
X68084367Y-103181126D01*
X68013585Y-102926448D01*
X67935262Y-102645441D01*
X67850291Y-102341327D01*
X67759566Y-102017329D01*
X67663982Y-101676670D01*
X67564433Y-101322573D01*
X67564000Y-101321036D01*
X67539020Y-101232232D01*
X67259200Y-101232232D01*
X67235173Y-101236219D01*
X67168582Y-101239658D01*
X67067661Y-101242317D01*
X66940645Y-101243965D01*
X66826065Y-101244400D01*
X66611256Y-101241861D01*
X66439840Y-101233930D01*
X66304644Y-101220133D01*
X66215326Y-101204005D01*
X66012571Y-101135591D01*
X65831796Y-101026787D01*
X65671845Y-100876144D01*
X65531563Y-100682211D01*
X65409794Y-100443539D01*
X65305383Y-100158676D01*
X65261606Y-100007032D01*
X65208028Y-99756196D01*
X65190911Y-99540626D01*
X65210274Y-99360193D01*
X65266135Y-99214772D01*
X65358512Y-99104234D01*
X65399152Y-99073975D01*
X65466201Y-99035576D01*
X65540457Y-99006482D01*
X65629862Y-98985512D01*
X65742363Y-98971482D01*
X65885902Y-98963210D01*
X66068425Y-98959515D01*
X66171639Y-98959020D01*
X66333802Y-98959210D01*
X66452251Y-98960741D01*
X66534067Y-98964285D01*
X66586330Y-98970512D01*
X66616121Y-98980092D01*
X66630522Y-98993697D01*
X66634360Y-99002850D01*
X66647274Y-99047062D01*
X66671454Y-99131721D01*
X66705234Y-99250879D01*
X66746946Y-99398586D01*
X66794922Y-99568891D01*
X66847496Y-99755846D01*
X66902998Y-99953500D01*
X66959762Y-100155904D01*
X67016121Y-100357109D01*
X67070406Y-100551165D01*
X67120951Y-100732122D01*
X67166087Y-100894031D01*
X67204147Y-101030942D01*
X67233464Y-101136905D01*
X67252371Y-101205972D01*
X67259199Y-101232191D01*
X67259200Y-101232232D01*
X67539020Y-101232232D01*
X67464526Y-100967417D01*
X67369004Y-100627599D01*
X67278327Y-100304769D01*
X67193387Y-100002113D01*
X67115075Y-99722816D01*
X67044284Y-99470065D01*
X66981905Y-99247045D01*
X66928830Y-99056943D01*
X66885950Y-98902945D01*
X66854158Y-98788236D01*
X66834344Y-98716004D01*
X66827402Y-98689433D01*
X66827400Y-98689398D01*
X66803101Y-98686016D01*
X66734583Y-98683631D01*
X66628420Y-98682287D01*
X66491186Y-98682027D01*
X66329454Y-98682894D01*
X66329454Y-98682894D01*
G37*
X66329454Y-98682894D02*
X66149796Y-98684931D01*
X66147950Y-98684957D01*
X65935220Y-98688439D01*
X65766739Y-98692453D01*
X65635960Y-98697442D01*
X65536334Y-98703850D01*
X65461309Y-98712122D01*
X65404339Y-98722701D01*
X65358872Y-98736030D01*
X65350812Y-98738979D01*
X65193779Y-98823144D01*
X65064105Y-98943131D01*
X64972059Y-99089420D01*
X64971513Y-99090645D01*
X64930915Y-99227870D01*
X64912135Y-99400169D01*
X64915057Y-99596793D01*
X64939560Y-99806997D01*
X64981651Y-100005406D01*
X65088510Y-100349495D01*
X65217547Y-100647903D01*
X65368783Y-100900661D01*
X65542236Y-101107802D01*
X65737927Y-101269358D01*
X65811400Y-101314980D01*
X65877100Y-101352665D01*
X65921428Y-101378201D01*
X65932099Y-101384435D01*
X65919590Y-101403231D01*
X65880623Y-101448077D01*
X65833295Y-101499020D01*
X65742927Y-101604892D01*
X65681509Y-101707875D01*
X65644361Y-101821573D01*
X65626802Y-101959593D01*
X65623798Y-102108000D01*
X65625054Y-102184512D01*
X65628286Y-102253147D01*
X65634964Y-102320773D01*
X65646558Y-102394256D01*
X65664536Y-102480463D01*
X65690368Y-102586260D01*
X65725521Y-102718514D01*
X65771467Y-102884093D01*
X65829673Y-103089862D01*
X65846600Y-103149400D01*
X65901106Y-103340909D01*
X65951564Y-103517998D01*
X65996187Y-103674403D01*
X66033187Y-103803864D01*
X66060773Y-103900119D01*
X66077158Y-103956906D01*
X66080594Y-103968550D01*
X66099996Y-103995452D01*
X66145014Y-104009078D01*
X66227811Y-104012994D01*
X66232212Y-104013000D01*
X66308203Y-104011037D01*
X66358321Y-104005982D01*
X66370200Y-104001210D01*
X66363570Y-103974767D01*
X66344781Y-103905399D01*
X66315486Y-103799066D01*
X66277337Y-103661729D01*
X66231989Y-103499348D01*
X66181094Y-103317886D01*
X66154138Y-103222060D01*
X66099298Y-103025240D01*
X66047995Y-102837230D01*
X66002179Y-102665480D01*
X65963803Y-102517443D01*
X65934817Y-102400569D01*
X65917172Y-102322309D01*
X65913904Y-102304599D01*
X65902758Y-102109565D01*
X65935417Y-101938653D01*
X66011205Y-101793344D01*
X66129446Y-101675117D01*
X66229673Y-101613018D01*
X66282850Y-101586459D01*
X66329467Y-101566754D01*
X66378341Y-101552720D01*
X66438287Y-101543177D01*
X66518120Y-101536943D01*
X66626655Y-101532838D01*
X66772709Y-101529681D01*
X66863689Y-101528068D01*
X67348100Y-101519637D01*
X67651306Y-102607568D01*
X67716212Y-102840215D01*
X67778519Y-103063086D01*
X67836563Y-103270265D01*
X67888682Y-103455836D01*
X67933213Y-103613883D01*
X67968492Y-103738489D01*
X67992856Y-103823740D01*
X68001756Y-103854250D01*
X68049001Y-104013000D01*
X68174801Y-104013000D01*
X68254850Y-104008660D01*
X68293488Y-103993909D01*
X68300600Y-103975794D01*
X68293849Y-103946773D01*
X68274190Y-103872085D01*
X68242518Y-103754954D01*
X68199727Y-103598601D01*
X68146712Y-103406251D01*
X68084367Y-103181126D01*
X68013585Y-102926448D01*
X67935262Y-102645441D01*
X67850291Y-102341327D01*
X67759566Y-102017329D01*
X67663982Y-101676670D01*
X67564433Y-101322573D01*
X67564000Y-101321036D01*
X67539020Y-101232232D01*
X67259200Y-101232232D01*
X67235173Y-101236219D01*
X67168582Y-101239658D01*
X67067661Y-101242317D01*
X66940645Y-101243965D01*
X66826065Y-101244400D01*
X66611256Y-101241861D01*
X66439840Y-101233930D01*
X66304644Y-101220133D01*
X66215326Y-101204005D01*
X66012571Y-101135591D01*
X65831796Y-101026787D01*
X65671845Y-100876144D01*
X65531563Y-100682211D01*
X65409794Y-100443539D01*
X65305383Y-100158676D01*
X65261606Y-100007032D01*
X65208028Y-99756196D01*
X65190911Y-99540626D01*
X65210274Y-99360193D01*
X65266135Y-99214772D01*
X65358512Y-99104234D01*
X65399152Y-99073975D01*
X65466201Y-99035576D01*
X65540457Y-99006482D01*
X65629862Y-98985512D01*
X65742363Y-98971482D01*
X65885902Y-98963210D01*
X66068425Y-98959515D01*
X66171639Y-98959020D01*
X66333802Y-98959210D01*
X66452251Y-98960741D01*
X66534067Y-98964285D01*
X66586330Y-98970512D01*
X66616121Y-98980092D01*
X66630522Y-98993697D01*
X66634360Y-99002850D01*
X66647274Y-99047062D01*
X66671454Y-99131721D01*
X66705234Y-99250879D01*
X66746946Y-99398586D01*
X66794922Y-99568891D01*
X66847496Y-99755846D01*
X66902998Y-99953500D01*
X66959762Y-100155904D01*
X67016121Y-100357109D01*
X67070406Y-100551165D01*
X67120951Y-100732122D01*
X67166087Y-100894031D01*
X67204147Y-101030942D01*
X67233464Y-101136905D01*
X67252371Y-101205972D01*
X67259199Y-101232191D01*
X67259200Y-101232232D01*
X67539020Y-101232232D01*
X67464526Y-100967417D01*
X67369004Y-100627599D01*
X67278327Y-100304769D01*
X67193387Y-100002113D01*
X67115075Y-99722816D01*
X67044284Y-99470065D01*
X66981905Y-99247045D01*
X66928830Y-99056943D01*
X66885950Y-98902945D01*
X66854158Y-98788236D01*
X66834344Y-98716004D01*
X66827402Y-98689433D01*
X66827400Y-98689398D01*
X66803101Y-98686016D01*
X66734583Y-98683631D01*
X66628420Y-98682287D01*
X66491186Y-98682027D01*
X66329454Y-98682894D01*
G36*
X68354902Y-98679141D02*
X68108538Y-98679548D01*
X67882595Y-98680194D01*
X67681639Y-98681054D01*
X67510238Y-98682100D01*
X67372956Y-98683307D01*
X67274360Y-98684648D01*
X67219017Y-98686097D01*
X67208400Y-98687089D01*
X67215015Y-98713859D01*
X67232025Y-98774075D01*
X67247356Y-98826355D01*
X67286311Y-98957531D01*
X67924547Y-98964315D01*
X68562783Y-98971100D01*
X69252857Y-101422200D01*
X69349518Y-101765607D01*
X69442499Y-102096087D01*
X69530848Y-102410246D01*
X69613611Y-102704688D01*
X69689837Y-102976021D01*
X69758572Y-103220850D01*
X69818863Y-103435779D01*
X69869759Y-103617416D01*
X69910305Y-103762365D01*
X69939551Y-103867233D01*
X69956542Y-103928625D01*
X69960450Y-103943150D01*
X69974419Y-103983354D01*
X69999696Y-104004179D01*
X70050459Y-104011944D01*
X70117184Y-104013000D01*
X70193493Y-104011952D01*
X70243921Y-104009251D01*
X70256076Y-104006650D01*
X70249295Y-103981851D01*
X70229650Y-103911395D01*
X70198050Y-103798518D01*
X70155406Y-103646459D01*
X70102628Y-103458456D01*
X70040625Y-103237748D01*
X69970308Y-102987574D01*
X69892585Y-102711171D01*
X69808369Y-102411777D01*
X69718567Y-102092632D01*
X69624091Y-101756973D01*
X69547717Y-101485700D01*
X68839683Y-98971100D01*
X69474390Y-98964308D01*
X69673077Y-98961805D01*
X69826277Y-98958826D01*
X69939306Y-98955007D01*
X70017477Y-98949978D01*
X70066104Y-98943374D01*
X70090500Y-98934829D01*
X70095980Y-98923974D01*
X70095255Y-98921447D01*
X70080102Y-98874908D01*
X70059499Y-98803676D01*
X70053628Y-98782188D01*
X70025842Y-98679000D01*
X68617121Y-98679000D01*
X68354902Y-98679141D01*
X68354902Y-98679141D01*
G37*
X68354902Y-98679141D02*
X68108538Y-98679548D01*
X67882595Y-98680194D01*
X67681639Y-98681054D01*
X67510238Y-98682100D01*
X67372956Y-98683307D01*
X67274360Y-98684648D01*
X67219017Y-98686097D01*
X67208400Y-98687089D01*
X67215015Y-98713859D01*
X67232025Y-98774075D01*
X67247356Y-98826355D01*
X67286311Y-98957531D01*
X67924547Y-98964315D01*
X68562783Y-98971100D01*
X69252857Y-101422200D01*
X69349518Y-101765607D01*
X69442499Y-102096087D01*
X69530848Y-102410246D01*
X69613611Y-102704688D01*
X69689837Y-102976021D01*
X69758572Y-103220850D01*
X69818863Y-103435779D01*
X69869759Y-103617416D01*
X69910305Y-103762365D01*
X69939551Y-103867233D01*
X69956542Y-103928625D01*
X69960450Y-103943150D01*
X69974419Y-103983354D01*
X69999696Y-104004179D01*
X70050459Y-104011944D01*
X70117184Y-104013000D01*
X70193493Y-104011952D01*
X70243921Y-104009251D01*
X70256076Y-104006650D01*
X70249295Y-103981851D01*
X70229650Y-103911395D01*
X70198050Y-103798518D01*
X70155406Y-103646459D01*
X70102628Y-103458456D01*
X70040625Y-103237748D01*
X69970308Y-102987574D01*
X69892585Y-102711171D01*
X69808369Y-102411777D01*
X69718567Y-102092632D01*
X69624091Y-101756973D01*
X69547717Y-101485700D01*
X68839683Y-98971100D01*
X69474390Y-98964308D01*
X69673077Y-98961805D01*
X69826277Y-98958826D01*
X69939306Y-98955007D01*
X70017477Y-98949978D01*
X70066104Y-98943374D01*
X70090500Y-98934829D01*
X70095980Y-98923974D01*
X70095255Y-98921447D01*
X70080102Y-98874908D01*
X70059499Y-98803676D01*
X70053628Y-98782188D01*
X70025842Y-98679000D01*
X68617121Y-98679000D01*
X68354902Y-98679141D01*
G36*
X71204176Y-98692981D02*
X71110276Y-98696266D01*
X71040163Y-98704937D01*
X70980332Y-98721319D01*
X70917280Y-98747735D01*
X70862685Y-98774084D01*
X70712944Y-98872367D01*
X70600640Y-99001779D01*
X70525618Y-99163038D01*
X70487721Y-99356860D01*
X70486795Y-99583964D01*
X70522682Y-99845067D01*
X70578733Y-100082350D01*
X70618695Y-100228400D01*
X70755048Y-100228400D01*
X70830521Y-100225906D01*
X70880037Y-100219487D01*
X70891400Y-100213581D01*
X70885614Y-100183583D01*
X70870266Y-100117297D01*
X70848378Y-100027653D01*
X70842470Y-100004031D01*
X70793153Y-99772746D01*
X70772028Y-99578830D01*
X70779593Y-99417069D01*
X70816343Y-99282246D01*
X70882776Y-99169145D01*
X70926668Y-99119721D01*
X71017396Y-99043886D01*
X71117160Y-98994319D01*
X71237169Y-98967900D01*
X71388634Y-98961510D01*
X71482635Y-98965017D01*
X71610960Y-98975745D01*
X71709868Y-98994490D01*
X71800657Y-99026311D01*
X71863635Y-99055530D01*
X72045452Y-99172674D01*
X72210233Y-99334458D01*
X72354474Y-99536554D01*
X72474672Y-99774637D01*
X72502441Y-99844246D01*
X72521455Y-99900936D01*
X72552344Y-100000909D01*
X72593497Y-100138470D01*
X72643303Y-100307924D01*
X72700150Y-100503577D01*
X72762426Y-100719735D01*
X72828520Y-100950703D01*
X72896822Y-101190786D01*
X72965718Y-101434290D01*
X73033598Y-101675521D01*
X73098850Y-101908784D01*
X73159863Y-102128385D01*
X73215026Y-102328629D01*
X73262726Y-102503821D01*
X73301352Y-102648267D01*
X73329294Y-102756273D01*
X73344315Y-102819200D01*
X73363992Y-102936459D01*
X73376978Y-103062626D01*
X73380018Y-103136700D01*
X73364438Y-103324149D01*
X73315785Y-103474340D01*
X73232409Y-103588824D01*
X73112659Y-103669153D01*
X72954885Y-103716878D01*
X72757435Y-103733552D01*
X72745052Y-103733600D01*
X72515191Y-103711551D01*
X72307359Y-103645099D01*
X72121051Y-103533782D01*
X71955760Y-103377141D01*
X71810979Y-103174715D01*
X71686204Y-102926043D01*
X71600029Y-102692200D01*
X71530708Y-102476300D01*
X71388854Y-102468682D01*
X71311741Y-102466430D01*
X71260222Y-102468543D01*
X71247000Y-102472741D01*
X71254376Y-102500353D01*
X71274231Y-102565229D01*
X71303153Y-102656383D01*
X71324267Y-102721659D01*
X71447057Y-103040575D01*
X71592959Y-103314259D01*
X71761969Y-103542709D01*
X71954086Y-103725921D01*
X72169307Y-103863895D01*
X72407629Y-103956627D01*
X72669050Y-104004116D01*
X72834500Y-104010910D01*
X72949847Y-104006168D01*
X73062250Y-103994952D01*
X73148630Y-103979613D01*
X73153256Y-103978405D01*
X73330171Y-103907837D01*
X73471270Y-103801279D01*
X73576413Y-103658859D01*
X73622967Y-103554055D01*
X73647060Y-103448632D01*
X73659959Y-103308775D01*
X73661614Y-103149609D01*
X73651978Y-102986262D01*
X73631001Y-102833861D01*
X73625370Y-102805692D01*
X73611482Y-102748484D01*
X73585246Y-102648211D01*
X73548279Y-102510650D01*
X73502203Y-102341579D01*
X73448637Y-102146774D01*
X73389199Y-101932013D01*
X73325510Y-101703074D01*
X73259189Y-101465732D01*
X73191856Y-101225766D01*
X73125130Y-100988952D01*
X73060630Y-100761068D01*
X72999976Y-100547891D01*
X72944787Y-100355197D01*
X72896684Y-100188764D01*
X72857285Y-100054369D01*
X72828210Y-99957790D01*
X72817439Y-99923600D01*
X72700177Y-99625260D01*
X72554872Y-99363778D01*
X72383387Y-99141336D01*
X72187582Y-98960115D01*
X71969321Y-98822296D01*
X71823987Y-98759763D01*
X71734568Y-98730121D01*
X71653152Y-98710709D01*
X71564301Y-98699411D01*
X71452577Y-98694109D01*
X71335366Y-98692759D01*
X71204176Y-98692981D01*
X71204176Y-98692981D01*
G37*
X71204176Y-98692981D02*
X71110276Y-98696266D01*
X71040163Y-98704937D01*
X70980332Y-98721319D01*
X70917280Y-98747735D01*
X70862685Y-98774084D01*
X70712944Y-98872367D01*
X70600640Y-99001779D01*
X70525618Y-99163038D01*
X70487721Y-99356860D01*
X70486795Y-99583964D01*
X70522682Y-99845067D01*
X70578733Y-100082350D01*
X70618695Y-100228400D01*
X70755048Y-100228400D01*
X70830521Y-100225906D01*
X70880037Y-100219487D01*
X70891400Y-100213581D01*
X70885614Y-100183583D01*
X70870266Y-100117297D01*
X70848378Y-100027653D01*
X70842470Y-100004031D01*
X70793153Y-99772746D01*
X70772028Y-99578830D01*
X70779593Y-99417069D01*
X70816343Y-99282246D01*
X70882776Y-99169145D01*
X70926668Y-99119721D01*
X71017396Y-99043886D01*
X71117160Y-98994319D01*
X71237169Y-98967900D01*
X71388634Y-98961510D01*
X71482635Y-98965017D01*
X71610960Y-98975745D01*
X71709868Y-98994490D01*
X71800657Y-99026311D01*
X71863635Y-99055530D01*
X72045452Y-99172674D01*
X72210233Y-99334458D01*
X72354474Y-99536554D01*
X72474672Y-99774637D01*
X72502441Y-99844246D01*
X72521455Y-99900936D01*
X72552344Y-100000909D01*
X72593497Y-100138470D01*
X72643303Y-100307924D01*
X72700150Y-100503577D01*
X72762426Y-100719735D01*
X72828520Y-100950703D01*
X72896822Y-101190786D01*
X72965718Y-101434290D01*
X73033598Y-101675521D01*
X73098850Y-101908784D01*
X73159863Y-102128385D01*
X73215026Y-102328629D01*
X73262726Y-102503821D01*
X73301352Y-102648267D01*
X73329294Y-102756273D01*
X73344315Y-102819200D01*
X73363992Y-102936459D01*
X73376978Y-103062626D01*
X73380018Y-103136700D01*
X73364438Y-103324149D01*
X73315785Y-103474340D01*
X73232409Y-103588824D01*
X73112659Y-103669153D01*
X72954885Y-103716878D01*
X72757435Y-103733552D01*
X72745052Y-103733600D01*
X72515191Y-103711551D01*
X72307359Y-103645099D01*
X72121051Y-103533782D01*
X71955760Y-103377141D01*
X71810979Y-103174715D01*
X71686204Y-102926043D01*
X71600029Y-102692200D01*
X71530708Y-102476300D01*
X71388854Y-102468682D01*
X71311741Y-102466430D01*
X71260222Y-102468543D01*
X71247000Y-102472741D01*
X71254376Y-102500353D01*
X71274231Y-102565229D01*
X71303153Y-102656383D01*
X71324267Y-102721659D01*
X71447057Y-103040575D01*
X71592959Y-103314259D01*
X71761969Y-103542709D01*
X71954086Y-103725921D01*
X72169307Y-103863895D01*
X72407629Y-103956627D01*
X72669050Y-104004116D01*
X72834500Y-104010910D01*
X72949847Y-104006168D01*
X73062250Y-103994952D01*
X73148630Y-103979613D01*
X73153256Y-103978405D01*
X73330171Y-103907837D01*
X73471270Y-103801279D01*
X73576413Y-103658859D01*
X73622967Y-103554055D01*
X73647060Y-103448632D01*
X73659959Y-103308775D01*
X73661614Y-103149609D01*
X73651978Y-102986262D01*
X73631001Y-102833861D01*
X73625370Y-102805692D01*
X73611482Y-102748484D01*
X73585246Y-102648211D01*
X73548279Y-102510650D01*
X73502203Y-102341579D01*
X73448637Y-102146774D01*
X73389199Y-101932013D01*
X73325510Y-101703074D01*
X73259189Y-101465732D01*
X73191856Y-101225766D01*
X73125130Y-100988952D01*
X73060630Y-100761068D01*
X72999976Y-100547891D01*
X72944787Y-100355197D01*
X72896684Y-100188764D01*
X72857285Y-100054369D01*
X72828210Y-99957790D01*
X72817439Y-99923600D01*
X72700177Y-99625260D01*
X72554872Y-99363778D01*
X72383387Y-99141336D01*
X72187582Y-98960115D01*
X71969321Y-98822296D01*
X71823987Y-98759763D01*
X71734568Y-98730121D01*
X71653152Y-98710709D01*
X71564301Y-98699411D01*
X71452577Y-98694109D01*
X71335366Y-98692759D01*
X71204176Y-98692981D01*
G36*
X73604475Y-98679609D02*
X73374715Y-98681459D01*
X73193399Y-98684582D01*
X73059359Y-98689011D01*
X72971424Y-98694779D01*
X72928424Y-98701918D01*
X72923400Y-98705852D01*
X72929229Y-98745243D01*
X72943922Y-98813143D01*
X72951816Y-98845552D01*
X72980231Y-98958399D01*
X73814932Y-98958400D01*
X74649633Y-98958400D01*
X74667105Y-99028250D01*
X74677560Y-99067006D01*
X74700300Y-99149217D01*
X74733803Y-99269450D01*
X74776548Y-99422270D01*
X74827015Y-99602246D01*
X74883682Y-99803943D01*
X74945028Y-100021928D01*
X74981736Y-100152200D01*
X75278895Y-101206300D01*
X74456748Y-101212997D01*
X74208261Y-101215629D01*
X74007999Y-101219143D01*
X73853391Y-101223650D01*
X73741867Y-101229258D01*
X73670858Y-101236079D01*
X73637793Y-101244221D01*
X73634600Y-101248150D01*
X73641460Y-101289257D01*
X73658490Y-101355835D01*
X73664021Y-101374803D01*
X73693442Y-101473000D01*
X75353858Y-101473000D01*
X75502038Y-102000050D01*
X75555612Y-102190576D01*
X75618080Y-102412690D01*
X75684574Y-102649083D01*
X75750224Y-102882443D01*
X75810161Y-103095458D01*
X75818193Y-103124000D01*
X75986168Y-103720900D01*
X75165984Y-103727597D01*
X74903551Y-103730547D01*
X74691750Y-103734701D01*
X74530429Y-103740066D01*
X74419434Y-103746648D01*
X74358612Y-103754454D01*
X74345800Y-103760799D01*
X74351625Y-103799961D01*
X74366310Y-103867706D01*
X74374216Y-103900152D01*
X74402631Y-104013000D01*
X75364816Y-104013000D01*
X75622661Y-104012645D01*
X75833540Y-104011500D01*
X76001282Y-104009437D01*
X76129716Y-104006332D01*
X76222672Y-104002060D01*
X76283979Y-103996496D01*
X76317466Y-103989514D01*
X76327000Y-103981548D01*
X76320254Y-103953329D01*
X76300608Y-103879419D01*
X76268954Y-103763021D01*
X76226180Y-103607338D01*
X76173177Y-103415572D01*
X76110837Y-103190926D01*
X76040047Y-102936603D01*
X75961700Y-102655803D01*
X75876684Y-102351731D01*
X75785891Y-102027589D01*
X75690211Y-101686579D01*
X75590533Y-101331903D01*
X75585651Y-101314548D01*
X74844302Y-98679000D01*
X73883851Y-98679000D01*
X73604475Y-98679609D01*
X73604475Y-98679609D01*
G37*
X73604475Y-98679609D02*
X73374715Y-98681459D01*
X73193399Y-98684582D01*
X73059359Y-98689011D01*
X72971424Y-98694779D01*
X72928424Y-98701918D01*
X72923400Y-98705852D01*
X72929229Y-98745243D01*
X72943922Y-98813143D01*
X72951816Y-98845552D01*
X72980231Y-98958399D01*
X73814932Y-98958400D01*
X74649633Y-98958400D01*
X74667105Y-99028250D01*
X74677560Y-99067006D01*
X74700300Y-99149217D01*
X74733803Y-99269450D01*
X74776548Y-99422270D01*
X74827015Y-99602246D01*
X74883682Y-99803943D01*
X74945028Y-100021928D01*
X74981736Y-100152200D01*
X75278895Y-101206300D01*
X74456748Y-101212997D01*
X74208261Y-101215629D01*
X74007999Y-101219143D01*
X73853391Y-101223650D01*
X73741867Y-101229258D01*
X73670858Y-101236079D01*
X73637793Y-101244221D01*
X73634600Y-101248150D01*
X73641460Y-101289257D01*
X73658490Y-101355835D01*
X73664021Y-101374803D01*
X73693442Y-101473000D01*
X75353858Y-101473000D01*
X75502038Y-102000050D01*
X75555612Y-102190576D01*
X75618080Y-102412690D01*
X75684574Y-102649083D01*
X75750224Y-102882443D01*
X75810161Y-103095458D01*
X75818193Y-103124000D01*
X75986168Y-103720900D01*
X75165984Y-103727597D01*
X74903551Y-103730547D01*
X74691750Y-103734701D01*
X74530429Y-103740066D01*
X74419434Y-103746648D01*
X74358612Y-103754454D01*
X74345800Y-103760799D01*
X74351625Y-103799961D01*
X74366310Y-103867706D01*
X74374216Y-103900152D01*
X74402631Y-104013000D01*
X75364816Y-104013000D01*
X75622661Y-104012645D01*
X75833540Y-104011500D01*
X76001282Y-104009437D01*
X76129716Y-104006332D01*
X76222672Y-104002060D01*
X76283979Y-103996496D01*
X76317466Y-103989514D01*
X76327000Y-103981548D01*
X76320254Y-103953329D01*
X76300608Y-103879419D01*
X76268954Y-103763021D01*
X76226180Y-103607338D01*
X76173177Y-103415572D01*
X76110837Y-103190926D01*
X76040047Y-102936603D01*
X75961700Y-102655803D01*
X75876684Y-102351731D01*
X75785891Y-102027589D01*
X75690211Y-101686579D01*
X75590533Y-101331903D01*
X75585651Y-101314548D01*
X74844302Y-98679000D01*
X73883851Y-98679000D01*
X73604475Y-98679609D01*
G36*
X76998797Y-98682165D02*
X76949048Y-98690322D01*
X76937465Y-98698050D01*
X76944332Y-98724626D01*
X76964082Y-98796826D01*
X76995800Y-98911379D01*
X77038570Y-99065020D01*
X77091477Y-99254479D01*
X77153606Y-99476489D01*
X77224042Y-99727781D01*
X77301870Y-100005089D01*
X77386175Y-100305144D01*
X77476042Y-100624677D01*
X77570554Y-100960422D01*
X77643401Y-101219000D01*
X78348474Y-103720900D01*
X76577108Y-103734254D01*
X76594990Y-103816477D01*
X76614619Y-103893709D01*
X76634408Y-103955850D01*
X76655943Y-104013000D01*
X77686983Y-104013000D01*
X77943051Y-104012894D01*
X78152825Y-104012445D01*
X78320810Y-104011456D01*
X78451511Y-104009731D01*
X78549435Y-104007072D01*
X78619088Y-104003283D01*
X78664973Y-103998166D01*
X78691598Y-103991524D01*
X78703468Y-103983162D01*
X78705087Y-103972881D01*
X78703990Y-103968550D01*
X78695325Y-103938482D01*
X78673833Y-103862771D01*
X78640432Y-103744679D01*
X78596042Y-103587469D01*
X78541582Y-103394402D01*
X78477972Y-103168739D01*
X78406130Y-102913744D01*
X78326976Y-102632677D01*
X78241429Y-102328802D01*
X78150408Y-102005378D01*
X78054833Y-101665670D01*
X77964921Y-101346000D01*
X77866013Y-100994336D01*
X77770831Y-100655997D01*
X77680294Y-100334245D01*
X77595323Y-100032341D01*
X77516834Y-99753548D01*
X77445747Y-99501128D01*
X77382980Y-99278342D01*
X77329454Y-99088451D01*
X77286085Y-98934719D01*
X77253793Y-98820407D01*
X77233497Y-98748776D01*
X77226231Y-98723450D01*
X77206808Y-98696546D01*
X77161766Y-98682919D01*
X77078941Y-98679005D01*
X77074589Y-98679000D01*
X76998797Y-98682165D01*
X76998797Y-98682165D01*
G37*
X76998797Y-98682165D02*
X76949048Y-98690322D01*
X76937465Y-98698050D01*
X76944332Y-98724626D01*
X76964082Y-98796826D01*
X76995800Y-98911379D01*
X77038570Y-99065020D01*
X77091477Y-99254479D01*
X77153606Y-99476489D01*
X77224042Y-99727781D01*
X77301870Y-100005089D01*
X77386175Y-100305144D01*
X77476042Y-100624677D01*
X77570554Y-100960422D01*
X77643401Y-101219000D01*
X78348474Y-103720900D01*
X76577108Y-103734254D01*
X76594990Y-103816477D01*
X76614619Y-103893709D01*
X76634408Y-103955850D01*
X76655943Y-104013000D01*
X77686983Y-104013000D01*
X77943051Y-104012894D01*
X78152825Y-104012445D01*
X78320810Y-104011456D01*
X78451511Y-104009731D01*
X78549435Y-104007072D01*
X78619088Y-104003283D01*
X78664973Y-103998166D01*
X78691598Y-103991524D01*
X78703468Y-103983162D01*
X78705087Y-103972881D01*
X78703990Y-103968550D01*
X78695325Y-103938482D01*
X78673833Y-103862771D01*
X78640432Y-103744679D01*
X78596042Y-103587469D01*
X78541582Y-103394402D01*
X78477972Y-103168739D01*
X78406130Y-102913744D01*
X78326976Y-102632677D01*
X78241429Y-102328802D01*
X78150408Y-102005378D01*
X78054833Y-101665670D01*
X77964921Y-101346000D01*
X77866013Y-100994336D01*
X77770831Y-100655997D01*
X77680294Y-100334245D01*
X77595323Y-100032341D01*
X77516834Y-99753548D01*
X77445747Y-99501128D01*
X77382980Y-99278342D01*
X77329454Y-99088451D01*
X77286085Y-98934719D01*
X77253793Y-98820407D01*
X77233497Y-98748776D01*
X77226231Y-98723450D01*
X77206808Y-98696546D01*
X77161766Y-98682919D01*
X77078941Y-98679005D01*
X77074589Y-98679000D01*
X76998797Y-98682165D01*
G36*
X78370090Y-98679484D02*
X78171376Y-98680863D01*
X77995009Y-98683029D01*
X77846506Y-98685871D01*
X77731389Y-98689282D01*
X77655174Y-98693151D01*
X77623383Y-98697369D01*
X77622786Y-98698050D01*
X77629756Y-98731936D01*
X77646960Y-98795872D01*
X77657325Y-98831400D01*
X77691479Y-98945700D01*
X78524599Y-98958400D01*
X79357720Y-98971100D01*
X79670193Y-100076000D01*
X79734559Y-100303931D01*
X79794496Y-100516828D01*
X79848617Y-100709715D01*
X79895534Y-100877612D01*
X79933857Y-101015543D01*
X79962200Y-101118529D01*
X79979174Y-101181594D01*
X79983634Y-101199950D01*
X79959467Y-101204540D01*
X79890455Y-101208732D01*
X79782551Y-101212390D01*
X79641710Y-101215374D01*
X79473884Y-101217548D01*
X79285028Y-101218775D01*
X79158617Y-101219000D01*
X78332633Y-101219000D01*
X78349536Y-101288850D01*
X78370451Y-101364216D01*
X78387491Y-101415850D01*
X78408543Y-101473000D01*
X80058649Y-101473000D01*
X80109178Y-101644450D01*
X80127688Y-101708460D01*
X80157962Y-101814614D01*
X80198085Y-101956131D01*
X80246141Y-102126231D01*
X80300215Y-102318134D01*
X80358391Y-102525059D01*
X80415971Y-102730300D01*
X80474372Y-102938589D01*
X80528817Y-103132584D01*
X80577700Y-103306577D01*
X80619415Y-103454860D01*
X80652356Y-103571724D01*
X80674918Y-103651461D01*
X80685493Y-103688362D01*
X80685730Y-103689150D01*
X80686791Y-103701344D01*
X80678432Y-103711086D01*
X80655640Y-103718649D01*
X80613405Y-103724307D01*
X80546717Y-103728332D01*
X80450565Y-103731000D01*
X80319938Y-103732583D01*
X80149825Y-103733356D01*
X79935216Y-103733592D01*
X79872012Y-103733600D01*
X79672826Y-103734162D01*
X79490907Y-103735756D01*
X79332209Y-103738246D01*
X79202687Y-103741494D01*
X79108296Y-103745363D01*
X79054992Y-103749716D01*
X79045186Y-103752650D01*
X79052157Y-103786535D01*
X79069365Y-103850470D01*
X79079734Y-103886000D01*
X79113896Y-104000300D01*
X80084456Y-104006953D01*
X80332124Y-104008542D01*
X80533639Y-104009452D01*
X80693647Y-104009499D01*
X80816793Y-104008498D01*
X80907723Y-104006262D01*
X80971080Y-104002609D01*
X81011512Y-103997352D01*
X81033662Y-103990307D01*
X81042177Y-103981288D01*
X81041700Y-103970111D01*
X81041333Y-103968853D01*
X81032711Y-103938698D01*
X81011285Y-103862922D01*
X80977979Y-103744814D01*
X80933717Y-103587661D01*
X80879425Y-103394753D01*
X80816028Y-103169377D01*
X80744449Y-102914822D01*
X80665615Y-102634377D01*
X80580451Y-102331330D01*
X80489880Y-102008969D01*
X80394827Y-101670582D01*
X80314371Y-101384100D01*
X80216060Y-101034111D01*
X80121263Y-100696824D01*
X80030924Y-100375590D01*
X79945989Y-100073763D01*
X79867405Y-99794697D01*
X79796115Y-99541746D01*
X79733066Y-99318261D01*
X79679203Y-99127598D01*
X79635472Y-98973109D01*
X79602817Y-98858147D01*
X79582185Y-98786067D01*
X79574977Y-98761550D01*
X79548861Y-98679000D01*
X78585631Y-98679000D01*
X78370090Y-98679484D01*
X78370090Y-98679484D01*
G37*
X78370090Y-98679484D02*
X78171376Y-98680863D01*
X77995009Y-98683029D01*
X77846506Y-98685871D01*
X77731389Y-98689282D01*
X77655174Y-98693151D01*
X77623383Y-98697369D01*
X77622786Y-98698050D01*
X77629756Y-98731936D01*
X77646960Y-98795872D01*
X77657325Y-98831400D01*
X77691479Y-98945700D01*
X78524599Y-98958400D01*
X79357720Y-98971100D01*
X79670193Y-100076000D01*
X79734559Y-100303931D01*
X79794496Y-100516828D01*
X79848617Y-100709715D01*
X79895534Y-100877612D01*
X79933857Y-101015543D01*
X79962200Y-101118529D01*
X79979174Y-101181594D01*
X79983634Y-101199950D01*
X79959467Y-101204540D01*
X79890455Y-101208732D01*
X79782551Y-101212390D01*
X79641710Y-101215374D01*
X79473884Y-101217548D01*
X79285028Y-101218775D01*
X79158617Y-101219000D01*
X78332633Y-101219000D01*
X78349536Y-101288850D01*
X78370451Y-101364216D01*
X78387491Y-101415850D01*
X78408543Y-101473000D01*
X80058649Y-101473000D01*
X80109178Y-101644450D01*
X80127688Y-101708460D01*
X80157962Y-101814614D01*
X80198085Y-101956131D01*
X80246141Y-102126231D01*
X80300215Y-102318134D01*
X80358391Y-102525059D01*
X80415971Y-102730300D01*
X80474372Y-102938589D01*
X80528817Y-103132584D01*
X80577700Y-103306577D01*
X80619415Y-103454860D01*
X80652356Y-103571724D01*
X80674918Y-103651461D01*
X80685493Y-103688362D01*
X80685730Y-103689150D01*
X80686791Y-103701344D01*
X80678432Y-103711086D01*
X80655640Y-103718649D01*
X80613405Y-103724307D01*
X80546717Y-103728332D01*
X80450565Y-103731000D01*
X80319938Y-103732583D01*
X80149825Y-103733356D01*
X79935216Y-103733592D01*
X79872012Y-103733600D01*
X79672826Y-103734162D01*
X79490907Y-103735756D01*
X79332209Y-103738246D01*
X79202687Y-103741494D01*
X79108296Y-103745363D01*
X79054992Y-103749716D01*
X79045186Y-103752650D01*
X79052157Y-103786535D01*
X79069365Y-103850470D01*
X79079734Y-103886000D01*
X79113896Y-104000300D01*
X80084456Y-104006953D01*
X80332124Y-104008542D01*
X80533639Y-104009452D01*
X80693647Y-104009499D01*
X80816793Y-104008498D01*
X80907723Y-104006262D01*
X80971080Y-104002609D01*
X81011512Y-103997352D01*
X81033662Y-103990307D01*
X81042177Y-103981288D01*
X81041700Y-103970111D01*
X81041333Y-103968853D01*
X81032711Y-103938698D01*
X81011285Y-103862922D01*
X80977979Y-103744814D01*
X80933717Y-103587661D01*
X80879425Y-103394753D01*
X80816028Y-103169377D01*
X80744449Y-102914822D01*
X80665615Y-102634377D01*
X80580451Y-102331330D01*
X80489880Y-102008969D01*
X80394827Y-101670582D01*
X80314371Y-101384100D01*
X80216060Y-101034111D01*
X80121263Y-100696824D01*
X80030924Y-100375590D01*
X79945989Y-100073763D01*
X79867405Y-99794697D01*
X79796115Y-99541746D01*
X79733066Y-99318261D01*
X79679203Y-99127598D01*
X79635472Y-98973109D01*
X79602817Y-98858147D01*
X79582185Y-98786067D01*
X79574977Y-98761550D01*
X79548861Y-98679000D01*
X78585631Y-98679000D01*
X78370090Y-98679484D01*
G36*
X81868028Y-98679533D02*
X81799263Y-98683422D01*
X81750123Y-98690627D01*
X81736699Y-98698050D01*
X81743361Y-98724573D01*
X81762893Y-98796823D01*
X81794412Y-98911622D01*
X81837031Y-99065796D01*
X81889867Y-99256168D01*
X81952034Y-99479561D01*
X82022647Y-99732800D01*
X82100822Y-100012708D01*
X82185674Y-100316111D01*
X82276317Y-100639830D01*
X82371867Y-100980691D01*
X82471440Y-101335518D01*
X82479649Y-101364754D01*
X83223100Y-104012408D01*
X83343750Y-104012704D01*
X83423866Y-104007623D01*
X83460457Y-103990670D01*
X83464400Y-103978004D01*
X83467427Y-103948054D01*
X83476207Y-103871395D01*
X83490293Y-103751738D01*
X83509238Y-103592794D01*
X83532595Y-103398274D01*
X83559914Y-103171890D01*
X83590750Y-102917352D01*
X83624654Y-102638372D01*
X83661178Y-102338660D01*
X83699875Y-102021928D01*
X83731100Y-101766908D01*
X83771183Y-101439652D01*
X83809471Y-101126629D01*
X83845517Y-100831540D01*
X83878870Y-100558086D01*
X83909079Y-100309967D01*
X83935696Y-100090886D01*
X83958271Y-99904542D01*
X83976354Y-99754638D01*
X83989495Y-99644873D01*
X83997244Y-99578949D01*
X83999256Y-99560353D01*
X84006179Y-99579730D01*
X84025875Y-99644652D01*
X84057381Y-99751757D01*
X84099733Y-99897683D01*
X84151969Y-100079066D01*
X84213126Y-100292545D01*
X84282241Y-100534757D01*
X84358350Y-100802340D01*
X84440492Y-101091931D01*
X84527701Y-101400168D01*
X84619017Y-101723688D01*
X84630690Y-101765100D01*
X85260669Y-104000300D01*
X85406069Y-104007981D01*
X85487629Y-104010659D01*
X85529150Y-104005552D01*
X85541170Y-103989607D01*
X85537530Y-103969881D01*
X85528873Y-103939583D01*
X85507409Y-103863666D01*
X85474065Y-103745420D01*
X85429766Y-103588135D01*
X85375437Y-103395103D01*
X85312003Y-103169611D01*
X85240391Y-102914952D01*
X85161524Y-102634414D01*
X85076330Y-102331289D01*
X84985733Y-102008865D01*
X84890659Y-101670434D01*
X84810235Y-101384100D01*
X84711904Y-101034081D01*
X84617080Y-100696740D01*
X84526708Y-100375434D01*
X84441736Y-100073518D01*
X84363109Y-99794347D01*
X84291774Y-99541277D01*
X84228676Y-99317663D01*
X84174763Y-99126862D01*
X84130979Y-98972228D01*
X84098273Y-98857117D01*
X84077589Y-98784886D01*
X84070342Y-98760256D01*
X84050800Y-98709270D01*
X84023888Y-98686025D01*
X83972779Y-98681597D01*
X83926633Y-98684056D01*
X83809460Y-98691700D01*
X83542634Y-100907749D01*
X83502824Y-101236431D01*
X83464426Y-101549684D01*
X83427901Y-101843975D01*
X83393706Y-102115769D01*
X83362303Y-102361531D01*
X83334152Y-102577726D01*
X83309711Y-102760820D01*
X83289442Y-102907278D01*
X83273802Y-103013566D01*
X83263254Y-103076149D01*
X83258472Y-103092149D01*
X83249714Y-103064582D01*
X83228457Y-102992413D01*
X83195900Y-102879887D01*
X83153241Y-102731249D01*
X83101676Y-102550744D01*
X83042406Y-102342617D01*
X82976627Y-102111113D01*
X82905537Y-101860478D01*
X82830335Y-101594956D01*
X82752219Y-101318793D01*
X82672386Y-101036233D01*
X82592035Y-100751521D01*
X82512364Y-100468904D01*
X82434570Y-100192625D01*
X82359853Y-99926930D01*
X82289409Y-99676064D01*
X82224437Y-99444272D01*
X82166135Y-99235800D01*
X82115700Y-99054891D01*
X82074332Y-98905792D01*
X82043228Y-98792747D01*
X82023585Y-98720002D01*
X82016603Y-98691801D01*
X82016600Y-98691727D01*
X81994243Y-98683289D01*
X81938870Y-98679357D01*
X81868028Y-98679533D01*
X81868028Y-98679533D01*
G37*
X81868028Y-98679533D02*
X81799263Y-98683422D01*
X81750123Y-98690627D01*
X81736699Y-98698050D01*
X81743361Y-98724573D01*
X81762893Y-98796823D01*
X81794412Y-98911622D01*
X81837031Y-99065796D01*
X81889867Y-99256168D01*
X81952034Y-99479561D01*
X82022647Y-99732800D01*
X82100822Y-100012708D01*
X82185674Y-100316111D01*
X82276317Y-100639830D01*
X82371867Y-100980691D01*
X82471440Y-101335518D01*
X82479649Y-101364754D01*
X83223100Y-104012408D01*
X83343750Y-104012704D01*
X83423866Y-104007623D01*
X83460457Y-103990670D01*
X83464400Y-103978004D01*
X83467427Y-103948054D01*
X83476207Y-103871395D01*
X83490293Y-103751738D01*
X83509238Y-103592794D01*
X83532595Y-103398274D01*
X83559914Y-103171890D01*
X83590750Y-102917352D01*
X83624654Y-102638372D01*
X83661178Y-102338660D01*
X83699875Y-102021928D01*
X83731100Y-101766908D01*
X83771183Y-101439652D01*
X83809471Y-101126629D01*
X83845517Y-100831540D01*
X83878870Y-100558086D01*
X83909079Y-100309967D01*
X83935696Y-100090886D01*
X83958271Y-99904542D01*
X83976354Y-99754638D01*
X83989495Y-99644873D01*
X83997244Y-99578949D01*
X83999256Y-99560353D01*
X84006179Y-99579730D01*
X84025875Y-99644652D01*
X84057381Y-99751757D01*
X84099733Y-99897683D01*
X84151969Y-100079066D01*
X84213126Y-100292545D01*
X84282241Y-100534757D01*
X84358350Y-100802340D01*
X84440492Y-101091931D01*
X84527701Y-101400168D01*
X84619017Y-101723688D01*
X84630690Y-101765100D01*
X85260669Y-104000300D01*
X85406069Y-104007981D01*
X85487629Y-104010659D01*
X85529150Y-104005552D01*
X85541170Y-103989607D01*
X85537530Y-103969881D01*
X85528873Y-103939583D01*
X85507409Y-103863666D01*
X85474065Y-103745420D01*
X85429766Y-103588135D01*
X85375437Y-103395103D01*
X85312003Y-103169611D01*
X85240391Y-102914952D01*
X85161524Y-102634414D01*
X85076330Y-102331289D01*
X84985733Y-102008865D01*
X84890659Y-101670434D01*
X84810235Y-101384100D01*
X84711904Y-101034081D01*
X84617080Y-100696740D01*
X84526708Y-100375434D01*
X84441736Y-100073518D01*
X84363109Y-99794347D01*
X84291774Y-99541277D01*
X84228676Y-99317663D01*
X84174763Y-99126862D01*
X84130979Y-98972228D01*
X84098273Y-98857117D01*
X84077589Y-98784886D01*
X84070342Y-98760256D01*
X84050800Y-98709270D01*
X84023888Y-98686025D01*
X83972779Y-98681597D01*
X83926633Y-98684056D01*
X83809460Y-98691700D01*
X83542634Y-100907749D01*
X83502824Y-101236431D01*
X83464426Y-101549684D01*
X83427901Y-101843975D01*
X83393706Y-102115769D01*
X83362303Y-102361531D01*
X83334152Y-102577726D01*
X83309711Y-102760820D01*
X83289442Y-102907278D01*
X83273802Y-103013566D01*
X83263254Y-103076149D01*
X83258472Y-103092149D01*
X83249714Y-103064582D01*
X83228457Y-102992413D01*
X83195900Y-102879887D01*
X83153241Y-102731249D01*
X83101676Y-102550744D01*
X83042406Y-102342617D01*
X82976627Y-102111113D01*
X82905537Y-101860478D01*
X82830335Y-101594956D01*
X82752219Y-101318793D01*
X82672386Y-101036233D01*
X82592035Y-100751521D01*
X82512364Y-100468904D01*
X82434570Y-100192625D01*
X82359853Y-99926930D01*
X82289409Y-99676064D01*
X82224437Y-99444272D01*
X82166135Y-99235800D01*
X82115700Y-99054891D01*
X82074332Y-98905792D01*
X82043228Y-98792747D01*
X82023585Y-98720002D01*
X82016603Y-98691801D01*
X82016600Y-98691727D01*
X81994243Y-98683289D01*
X81938870Y-98679357D01*
X81868028Y-98679533D01*
G36*
X84584532Y-98680236D02*
X84546107Y-98688068D01*
X84536030Y-98709185D01*
X84542793Y-98748849D01*
X84551693Y-98782412D01*
X84573453Y-98861575D01*
X84607151Y-98983043D01*
X84651863Y-99143521D01*
X84706667Y-99339716D01*
X84770641Y-99568331D01*
X84842862Y-99826073D01*
X84922408Y-100109646D01*
X85008355Y-100415756D01*
X85099782Y-100741109D01*
X85195766Y-101082409D01*
X85287821Y-101409500D01*
X86017219Y-104000300D01*
X86150510Y-104007977D01*
X86225042Y-104008768D01*
X86273729Y-104002576D01*
X86284492Y-103995277D01*
X86277853Y-103968573D01*
X86258340Y-103896146D01*
X86226835Y-103781174D01*
X86184225Y-103626836D01*
X86131395Y-103436308D01*
X86069229Y-103212770D01*
X85998611Y-102959398D01*
X85920428Y-102679372D01*
X85835564Y-102375868D01*
X85744904Y-102052065D01*
X85649332Y-101711142D01*
X85549734Y-101356275D01*
X85541542Y-101327104D01*
X84797900Y-98679309D01*
X84662532Y-98679154D01*
X84584532Y-98680236D01*
X84584532Y-98680236D01*
G37*
X84584532Y-98680236D02*
X84546107Y-98688068D01*
X84536030Y-98709185D01*
X84542793Y-98748849D01*
X84551693Y-98782412D01*
X84573453Y-98861575D01*
X84607151Y-98983043D01*
X84651863Y-99143521D01*
X84706667Y-99339716D01*
X84770641Y-99568331D01*
X84842862Y-99826073D01*
X84922408Y-100109646D01*
X85008355Y-100415756D01*
X85099782Y-100741109D01*
X85195766Y-101082409D01*
X85287821Y-101409500D01*
X86017219Y-104000300D01*
X86150510Y-104007977D01*
X86225042Y-104008768D01*
X86273729Y-104002576D01*
X86284492Y-103995277D01*
X86277853Y-103968573D01*
X86258340Y-103896146D01*
X86226835Y-103781174D01*
X86184225Y-103626836D01*
X86131395Y-103436308D01*
X86069229Y-103212770D01*
X85998611Y-102959398D01*
X85920428Y-102679372D01*
X85835564Y-102375868D01*
X85744904Y-102052065D01*
X85649332Y-101711142D01*
X85549734Y-101356275D01*
X85541542Y-101327104D01*
X84797900Y-98679309D01*
X84662532Y-98679154D01*
X84584532Y-98680236D01*
G36*
X87006823Y-98748850D02*
X87016023Y-98782710D01*
X87038033Y-98862060D01*
X87071898Y-98983491D01*
X87116661Y-99143592D01*
X87171367Y-99338954D01*
X87235059Y-99566168D01*
X87306782Y-99821823D01*
X87385580Y-100102512D01*
X87470496Y-100404823D01*
X87560575Y-100725348D01*
X87654860Y-101060677D01*
X87708077Y-101249872D01*
X87803900Y-101590759D01*
X87895733Y-101917954D01*
X87982649Y-102228129D01*
X88063721Y-102517954D01*
X88138023Y-102784100D01*
X88204628Y-103023237D01*
X88262609Y-103232035D01*
X88311040Y-103407166D01*
X88348995Y-103545299D01*
X88375546Y-103643105D01*
X88389767Y-103697256D01*
X88392000Y-103707322D01*
X88367245Y-103715457D01*
X88292827Y-103722080D01*
X88168521Y-103727199D01*
X87994101Y-103730820D01*
X87769340Y-103732950D01*
X87512947Y-103733600D01*
X86633893Y-103733600D01*
X86650575Y-103800063D01*
X86668776Y-103878008D01*
X86681903Y-103939763D01*
X86696550Y-104013000D01*
X88769086Y-104013000D01*
X88721061Y-103841550D01*
X88707528Y-103793352D01*
X88681232Y-103699808D01*
X88643170Y-103564468D01*
X88594344Y-103390887D01*
X88535753Y-103182615D01*
X88468395Y-102943206D01*
X88393272Y-102676212D01*
X88311381Y-102385186D01*
X88223723Y-102073680D01*
X88131297Y-101745247D01*
X88035103Y-101403439D01*
X87973718Y-101185326D01*
X87876846Y-100841020D01*
X87783949Y-100510643D01*
X87695943Y-100197462D01*
X87613744Y-99904741D01*
X87538267Y-99635747D01*
X87470426Y-99393744D01*
X87411136Y-99182000D01*
X87361314Y-99003778D01*
X87321873Y-98862345D01*
X87293729Y-98760966D01*
X87277797Y-98702907D01*
X87274400Y-98689776D01*
X87251397Y-98683922D01*
X87191956Y-98680009D01*
X87131947Y-98679000D01*
X86989493Y-98679000D01*
X87006823Y-98748850D01*
X87006823Y-98748850D01*
G37*
X87006823Y-98748850D02*
X87016023Y-98782710D01*
X87038033Y-98862060D01*
X87071898Y-98983491D01*
X87116661Y-99143592D01*
X87171367Y-99338954D01*
X87235059Y-99566168D01*
X87306782Y-99821823D01*
X87385580Y-100102512D01*
X87470496Y-100404823D01*
X87560575Y-100725348D01*
X87654860Y-101060677D01*
X87708077Y-101249872D01*
X87803900Y-101590759D01*
X87895733Y-101917954D01*
X87982649Y-102228129D01*
X88063721Y-102517954D01*
X88138023Y-102784100D01*
X88204628Y-103023237D01*
X88262609Y-103232035D01*
X88311040Y-103407166D01*
X88348995Y-103545299D01*
X88375546Y-103643105D01*
X88389767Y-103697256D01*
X88392000Y-103707322D01*
X88367245Y-103715457D01*
X88292827Y-103722080D01*
X88168521Y-103727199D01*
X87994101Y-103730820D01*
X87769340Y-103732950D01*
X87512947Y-103733600D01*
X86633893Y-103733600D01*
X86650575Y-103800063D01*
X86668776Y-103878008D01*
X86681903Y-103939763D01*
X86696550Y-104013000D01*
X88769086Y-104013000D01*
X88721061Y-103841550D01*
X88707528Y-103793352D01*
X88681232Y-103699808D01*
X88643170Y-103564468D01*
X88594344Y-103390887D01*
X88535753Y-103182615D01*
X88468395Y-102943206D01*
X88393272Y-102676212D01*
X88311381Y-102385186D01*
X88223723Y-102073680D01*
X88131297Y-101745247D01*
X88035103Y-101403439D01*
X87973718Y-101185326D01*
X87876846Y-100841020D01*
X87783949Y-100510643D01*
X87695943Y-100197462D01*
X87613744Y-99904741D01*
X87538267Y-99635747D01*
X87470426Y-99393744D01*
X87411136Y-99182000D01*
X87361314Y-99003778D01*
X87321873Y-98862345D01*
X87293729Y-98760966D01*
X87277797Y-98702907D01*
X87274400Y-98689776D01*
X87251397Y-98683922D01*
X87191956Y-98680009D01*
X87131947Y-98679000D01*
X86989493Y-98679000D01*
X87006823Y-98748850D01*
G36*
X88752557Y-98685611D02*
X88553583Y-98722765D01*
X88381153Y-98792760D01*
X88239968Y-98893990D01*
X88134726Y-99024847D01*
X88098872Y-99096477D01*
X88065179Y-99215477D01*
X88045729Y-99367672D01*
X88041421Y-99537242D01*
X88053153Y-99708366D01*
X88060955Y-99764084D01*
X88075181Y-99832989D01*
X88102125Y-99944628D01*
X88140215Y-100093449D01*
X88187883Y-100273901D01*
X88243560Y-100480433D01*
X88305676Y-100707494D01*
X88372661Y-100949533D01*
X88442948Y-101200998D01*
X88514965Y-101456340D01*
X88587144Y-101710006D01*
X88657916Y-101956446D01*
X88725710Y-102190108D01*
X88788959Y-102405441D01*
X88846092Y-102596895D01*
X88895540Y-102758918D01*
X88935734Y-102885959D01*
X88965105Y-102972467D01*
X88975808Y-103000130D01*
X89110929Y-103265378D01*
X89274061Y-103494816D01*
X89462101Y-103685552D01*
X89671950Y-103834694D01*
X89900506Y-103939351D01*
X90019964Y-103973889D01*
X90164298Y-103997695D01*
X90328635Y-104008756D01*
X90493522Y-104006945D01*
X90639504Y-103992132D01*
X90704656Y-103978405D01*
X90881481Y-103907768D01*
X91022755Y-103801232D01*
X91127506Y-103659672D01*
X91172802Y-103557212D01*
X91193554Y-103464871D01*
X91206366Y-103337966D01*
X91211003Y-103192144D01*
X91208283Y-103084717D01*
X90930777Y-103084717D01*
X90926832Y-103235166D01*
X90908657Y-103364032D01*
X90883993Y-103441500D01*
X90817146Y-103555271D01*
X90732463Y-103637505D01*
X90622886Y-103691416D01*
X90481359Y-103720215D01*
X90300827Y-103727116D01*
X90258900Y-103726135D01*
X90130951Y-103720054D01*
X90036759Y-103709062D01*
X89959304Y-103689770D01*
X89881569Y-103658787D01*
X89852500Y-103645204D01*
X89713821Y-103566062D01*
X89589776Y-103466208D01*
X89477690Y-103341188D01*
X89374886Y-103186549D01*
X89278690Y-102997838D01*
X89186425Y-102770601D01*
X89095417Y-102500385D01*
X89028143Y-102273100D01*
X88907310Y-101845093D01*
X88799987Y-101463639D01*
X88705562Y-101126491D01*
X88623424Y-100831401D01*
X88552962Y-100576125D01*
X88493565Y-100358416D01*
X88444623Y-100176027D01*
X88405523Y-100026713D01*
X88375656Y-99908226D01*
X88354410Y-99818321D01*
X88341173Y-99754752D01*
X88337885Y-99735552D01*
X88322517Y-99526671D01*
X88345216Y-99347280D01*
X88405372Y-99199189D01*
X88502377Y-99084206D01*
X88573660Y-99034327D01*
X88628184Y-99005937D01*
X88681362Y-98987532D01*
X88746215Y-98976998D01*
X88835762Y-98972225D01*
X88963025Y-98971100D01*
X88963500Y-98971100D01*
X89092766Y-98972372D01*
X89185862Y-98977751D01*
X89257389Y-98989584D01*
X89321948Y-99010215D01*
X89388581Y-99039375D01*
X89485000Y-99089157D01*
X89578085Y-99144600D01*
X89626666Y-99178131D01*
X89716442Y-99263871D01*
X89812779Y-99384842D01*
X89906850Y-99527859D01*
X89989832Y-99679738D01*
X90042609Y-99799553D01*
X90061845Y-99856022D01*
X90093066Y-99955781D01*
X90134657Y-100093174D01*
X90184999Y-100262545D01*
X90242475Y-100458241D01*
X90305468Y-100674605D01*
X90372359Y-100905983D01*
X90441533Y-101146719D01*
X90511371Y-101391158D01*
X90580255Y-101633644D01*
X90646569Y-101868524D01*
X90708694Y-102090141D01*
X90765014Y-102292840D01*
X90813910Y-102470966D01*
X90853766Y-102618865D01*
X90882964Y-102730879D01*
X90894977Y-102779711D01*
X90920243Y-102927844D01*
X90930777Y-103084717D01*
X91208283Y-103084717D01*
X91207228Y-103043053D01*
X91194803Y-102906343D01*
X91183667Y-102839500D01*
X91171513Y-102789426D01*
X91147049Y-102696101D01*
X91111842Y-102565138D01*
X91067463Y-102402152D01*
X91015478Y-102212759D01*
X90957456Y-102002573D01*
X90894966Y-101777210D01*
X90829576Y-101542284D01*
X90762855Y-101303411D01*
X90696370Y-101066205D01*
X90631690Y-100836282D01*
X90570384Y-100619256D01*
X90514020Y-100420742D01*
X90464166Y-100246355D01*
X90422391Y-100101711D01*
X90390263Y-99992424D01*
X90369351Y-99924109D01*
X90369187Y-99923600D01*
X90256717Y-99637800D01*
X90114949Y-99383268D01*
X89947070Y-99163326D01*
X89756264Y-98981294D01*
X89545718Y-98840496D01*
X89318619Y-98744254D01*
X89211335Y-98716253D01*
X88973375Y-98682905D01*
X88752557Y-98685611D01*
X88752557Y-98685611D01*
G37*
X88752557Y-98685611D02*
X88553583Y-98722765D01*
X88381153Y-98792760D01*
X88239968Y-98893990D01*
X88134726Y-99024847D01*
X88098872Y-99096477D01*
X88065179Y-99215477D01*
X88045729Y-99367672D01*
X88041421Y-99537242D01*
X88053153Y-99708366D01*
X88060955Y-99764084D01*
X88075181Y-99832989D01*
X88102125Y-99944628D01*
X88140215Y-100093449D01*
X88187883Y-100273901D01*
X88243560Y-100480433D01*
X88305676Y-100707494D01*
X88372661Y-100949533D01*
X88442948Y-101200998D01*
X88514965Y-101456340D01*
X88587144Y-101710006D01*
X88657916Y-101956446D01*
X88725710Y-102190108D01*
X88788959Y-102405441D01*
X88846092Y-102596895D01*
X88895540Y-102758918D01*
X88935734Y-102885959D01*
X88965105Y-102972467D01*
X88975808Y-103000130D01*
X89110929Y-103265378D01*
X89274061Y-103494816D01*
X89462101Y-103685552D01*
X89671950Y-103834694D01*
X89900506Y-103939351D01*
X90019964Y-103973889D01*
X90164298Y-103997695D01*
X90328635Y-104008756D01*
X90493522Y-104006945D01*
X90639504Y-103992132D01*
X90704656Y-103978405D01*
X90881481Y-103907768D01*
X91022755Y-103801232D01*
X91127506Y-103659672D01*
X91172802Y-103557212D01*
X91193554Y-103464871D01*
X91206366Y-103337966D01*
X91211003Y-103192144D01*
X91208283Y-103084717D01*
X90930777Y-103084717D01*
X90926832Y-103235166D01*
X90908657Y-103364032D01*
X90883993Y-103441500D01*
X90817146Y-103555271D01*
X90732463Y-103637505D01*
X90622886Y-103691416D01*
X90481359Y-103720215D01*
X90300827Y-103727116D01*
X90258900Y-103726135D01*
X90130951Y-103720054D01*
X90036759Y-103709062D01*
X89959304Y-103689770D01*
X89881569Y-103658787D01*
X89852500Y-103645204D01*
X89713821Y-103566062D01*
X89589776Y-103466208D01*
X89477690Y-103341188D01*
X89374886Y-103186549D01*
X89278690Y-102997838D01*
X89186425Y-102770601D01*
X89095417Y-102500385D01*
X89028143Y-102273100D01*
X88907310Y-101845093D01*
X88799987Y-101463639D01*
X88705562Y-101126491D01*
X88623424Y-100831401D01*
X88552962Y-100576125D01*
X88493565Y-100358416D01*
X88444623Y-100176027D01*
X88405523Y-100026713D01*
X88375656Y-99908226D01*
X88354410Y-99818321D01*
X88341173Y-99754752D01*
X88337885Y-99735552D01*
X88322517Y-99526671D01*
X88345216Y-99347280D01*
X88405372Y-99199189D01*
X88502377Y-99084206D01*
X88573660Y-99034327D01*
X88628184Y-99005937D01*
X88681362Y-98987532D01*
X88746215Y-98976998D01*
X88835762Y-98972225D01*
X88963025Y-98971100D01*
X88963500Y-98971100D01*
X89092766Y-98972372D01*
X89185862Y-98977751D01*
X89257389Y-98989584D01*
X89321948Y-99010215D01*
X89388581Y-99039375D01*
X89485000Y-99089157D01*
X89578085Y-99144600D01*
X89626666Y-99178131D01*
X89716442Y-99263871D01*
X89812779Y-99384842D01*
X89906850Y-99527859D01*
X89989832Y-99679738D01*
X90042609Y-99799553D01*
X90061845Y-99856022D01*
X90093066Y-99955781D01*
X90134657Y-100093174D01*
X90184999Y-100262545D01*
X90242475Y-100458241D01*
X90305468Y-100674605D01*
X90372359Y-100905983D01*
X90441533Y-101146719D01*
X90511371Y-101391158D01*
X90580255Y-101633644D01*
X90646569Y-101868524D01*
X90708694Y-102090141D01*
X90765014Y-102292840D01*
X90813910Y-102470966D01*
X90853766Y-102618865D01*
X90882964Y-102730879D01*
X90894977Y-102779711D01*
X90920243Y-102927844D01*
X90930777Y-103084717D01*
X91208283Y-103084717D01*
X91207228Y-103043053D01*
X91194803Y-102906343D01*
X91183667Y-102839500D01*
X91171513Y-102789426D01*
X91147049Y-102696101D01*
X91111842Y-102565138D01*
X91067463Y-102402152D01*
X91015478Y-102212759D01*
X90957456Y-102002573D01*
X90894966Y-101777210D01*
X90829576Y-101542284D01*
X90762855Y-101303411D01*
X90696370Y-101066205D01*
X90631690Y-100836282D01*
X90570384Y-100619256D01*
X90514020Y-100420742D01*
X90464166Y-100246355D01*
X90422391Y-100101711D01*
X90390263Y-99992424D01*
X90369351Y-99924109D01*
X90369187Y-99923600D01*
X90256717Y-99637800D01*
X90114949Y-99383268D01*
X89947070Y-99163326D01*
X89756264Y-98981294D01*
X89545718Y-98840496D01*
X89318619Y-98744254D01*
X89211335Y-98716253D01*
X88973375Y-98682905D01*
X88752557Y-98685611D01*
G36*
X91629512Y-98748849D02*
X91638547Y-98782372D01*
X91660672Y-98861431D01*
X91694948Y-98982740D01*
X91740438Y-99143011D01*
X91796204Y-99338956D01*
X91861307Y-99567287D01*
X91934809Y-99824717D01*
X92015773Y-100107959D01*
X92103261Y-100413724D01*
X92196334Y-100738725D01*
X92294054Y-101079674D01*
X92388659Y-101409500D01*
X93132057Y-104000300D01*
X94205529Y-104006927D01*
X94467231Y-104008446D01*
X94682559Y-104009364D01*
X94855936Y-104009521D01*
X94991788Y-104008758D01*
X95094538Y-104006916D01*
X95168609Y-104003835D01*
X95218426Y-103999358D01*
X95248412Y-103993323D01*
X95262993Y-103985574D01*
X95266591Y-103975950D01*
X95265202Y-103968827D01*
X95256455Y-103938757D01*
X95234659Y-103863105D01*
X95200747Y-103745127D01*
X95155653Y-103588079D01*
X95100310Y-103395216D01*
X95035652Y-103169793D01*
X94962614Y-102915067D01*
X94882128Y-102634293D01*
X94795128Y-102330727D01*
X94702548Y-102007624D01*
X94605321Y-101668241D01*
X94513022Y-101346000D01*
X94412366Y-100994573D01*
X94315509Y-100656450D01*
X94223386Y-100334888D01*
X94136928Y-100033139D01*
X94057069Y-99754461D01*
X93984742Y-99502108D01*
X93920881Y-99279335D01*
X93866417Y-99089397D01*
X93822284Y-98935550D01*
X93789415Y-98821049D01*
X93768744Y-98749149D01*
X93761309Y-98723450D01*
X93755285Y-98712561D01*
X93741331Y-98703605D01*
X93714898Y-98696392D01*
X93671439Y-98690735D01*
X93606408Y-98686449D01*
X93515256Y-98683346D01*
X93393436Y-98681238D01*
X93236401Y-98679938D01*
X93039604Y-98679261D01*
X92798497Y-98679017D01*
X92680871Y-98679000D01*
X91613764Y-98679000D01*
X91629512Y-98748849D01*
X91629512Y-98748849D01*
G37*
X91629512Y-98748849D02*
X91638547Y-98782372D01*
X91660672Y-98861431D01*
X91694948Y-98982740D01*
X91740438Y-99143011D01*
X91796204Y-99338956D01*
X91861307Y-99567287D01*
X91934809Y-99824717D01*
X92015773Y-100107959D01*
X92103261Y-100413724D01*
X92196334Y-100738725D01*
X92294054Y-101079674D01*
X92388659Y-101409500D01*
X93132057Y-104000300D01*
X94205529Y-104006927D01*
X94467231Y-104008446D01*
X94682559Y-104009364D01*
X94855936Y-104009521D01*
X94991788Y-104008758D01*
X95094538Y-104006916D01*
X95168609Y-104003835D01*
X95218426Y-103999358D01*
X95248412Y-103993323D01*
X95262993Y-103985574D01*
X95266591Y-103975950D01*
X95265202Y-103968827D01*
X95256455Y-103938757D01*
X95234659Y-103863105D01*
X95200747Y-103745127D01*
X95155653Y-103588079D01*
X95100310Y-103395216D01*
X95035652Y-103169793D01*
X94962614Y-102915067D01*
X94882128Y-102634293D01*
X94795128Y-102330727D01*
X94702548Y-102007624D01*
X94605321Y-101668241D01*
X94513022Y-101346000D01*
X94412366Y-100994573D01*
X94315509Y-100656450D01*
X94223386Y-100334888D01*
X94136928Y-100033139D01*
X94057069Y-99754461D01*
X93984742Y-99502108D01*
X93920881Y-99279335D01*
X93866417Y-99089397D01*
X93822284Y-98935550D01*
X93789415Y-98821049D01*
X93768744Y-98749149D01*
X93761309Y-98723450D01*
X93755285Y-98712561D01*
X93741331Y-98703605D01*
X93714898Y-98696392D01*
X93671439Y-98690735D01*
X93606408Y-98686449D01*
X93515256Y-98683346D01*
X93393436Y-98681238D01*
X93236401Y-98679938D01*
X93039604Y-98679261D01*
X92798497Y-98679017D01*
X92680871Y-98679000D01*
X91613764Y-98679000D01*
X91629512Y-98748849D01*
G36*
X94895921Y-98679111D02*
X94691361Y-98679584D01*
X94528419Y-98680628D01*
X94402502Y-98682451D01*
X94309021Y-98685261D01*
X94243383Y-98689267D01*
X94200998Y-98694678D01*
X94177273Y-98701702D01*
X94167619Y-98710548D01*
X94167443Y-98721423D01*
X94168014Y-98723450D01*
X94176738Y-98753481D01*
X94198511Y-98829095D01*
X94232401Y-98947036D01*
X94277473Y-99104049D01*
X94332794Y-99296879D01*
X94397431Y-99522271D01*
X94470451Y-99776969D01*
X94550919Y-100057718D01*
X94637903Y-100361263D01*
X94730470Y-100684348D01*
X94827685Y-101023719D01*
X94919990Y-101346000D01*
X95020642Y-101697427D01*
X95117496Y-102035551D01*
X95209620Y-102357115D01*
X95296079Y-102658864D01*
X95375942Y-102937542D01*
X95448275Y-103189896D01*
X95512145Y-103412669D01*
X95566618Y-103602606D01*
X95610761Y-103756453D01*
X95643642Y-103870953D01*
X95664328Y-103942852D01*
X95671777Y-103968550D01*
X95678027Y-103979813D01*
X95692441Y-103989004D01*
X95719743Y-103996331D01*
X95764655Y-104002004D01*
X95831902Y-104006231D01*
X95926205Y-104009221D01*
X96052289Y-104011184D01*
X96214876Y-104012329D01*
X96418690Y-104012864D01*
X96668454Y-104012999D01*
X96675824Y-104013000D01*
X96926348Y-104012888D01*
X97130666Y-104012414D01*
X97293370Y-104011369D01*
X97419054Y-104009543D01*
X97512311Y-104006728D01*
X97577733Y-104002715D01*
X97619915Y-103997293D01*
X97643448Y-103990255D01*
X97652927Y-103981391D01*
X97652944Y-103970493D01*
X97652376Y-103968550D01*
X97642662Y-103935588D01*
X97620273Y-103858317D01*
X97586310Y-103740579D01*
X97541876Y-103586215D01*
X97488070Y-103399069D01*
X97425993Y-103182981D01*
X97356747Y-102941796D01*
X97281432Y-102679353D01*
X97201150Y-102399497D01*
X97117000Y-102106069D01*
X97030086Y-101802910D01*
X96941506Y-101493864D01*
X96852362Y-101182773D01*
X96763756Y-100873478D01*
X96676788Y-100569823D01*
X96592558Y-100275648D01*
X96512169Y-99994797D01*
X96436720Y-99731111D01*
X96367313Y-99488433D01*
X96305049Y-99270604D01*
X96251029Y-99081468D01*
X96206354Y-98924866D01*
X96172124Y-98804640D01*
X96149441Y-98724633D01*
X96139405Y-98688686D01*
X96139000Y-98687041D01*
X96114507Y-98685267D01*
X96044655Y-98683629D01*
X95934883Y-98682170D01*
X95790634Y-98680935D01*
X95617347Y-98679968D01*
X95420462Y-98679313D01*
X95205422Y-98679014D01*
X95146689Y-98679000D01*
X94895921Y-98679111D01*
X94895921Y-98679111D01*
G37*
X94895921Y-98679111D02*
X94691361Y-98679584D01*
X94528419Y-98680628D01*
X94402502Y-98682451D01*
X94309021Y-98685261D01*
X94243383Y-98689267D01*
X94200998Y-98694678D01*
X94177273Y-98701702D01*
X94167619Y-98710548D01*
X94167443Y-98721423D01*
X94168014Y-98723450D01*
X94176738Y-98753481D01*
X94198511Y-98829095D01*
X94232401Y-98947036D01*
X94277473Y-99104049D01*
X94332794Y-99296879D01*
X94397431Y-99522271D01*
X94470451Y-99776969D01*
X94550919Y-100057718D01*
X94637903Y-100361263D01*
X94730470Y-100684348D01*
X94827685Y-101023719D01*
X94919990Y-101346000D01*
X95020642Y-101697427D01*
X95117496Y-102035551D01*
X95209620Y-102357115D01*
X95296079Y-102658864D01*
X95375942Y-102937542D01*
X95448275Y-103189896D01*
X95512145Y-103412669D01*
X95566618Y-103602606D01*
X95610761Y-103756453D01*
X95643642Y-103870953D01*
X95664328Y-103942852D01*
X95671777Y-103968550D01*
X95678027Y-103979813D01*
X95692441Y-103989004D01*
X95719743Y-103996331D01*
X95764655Y-104002004D01*
X95831902Y-104006231D01*
X95926205Y-104009221D01*
X96052289Y-104011184D01*
X96214876Y-104012329D01*
X96418690Y-104012864D01*
X96668454Y-104012999D01*
X96675824Y-104013000D01*
X96926348Y-104012888D01*
X97130666Y-104012414D01*
X97293370Y-104011369D01*
X97419054Y-104009543D01*
X97512311Y-104006728D01*
X97577733Y-104002715D01*
X97619915Y-103997293D01*
X97643448Y-103990255D01*
X97652927Y-103981391D01*
X97652944Y-103970493D01*
X97652376Y-103968550D01*
X97642662Y-103935588D01*
X97620273Y-103858317D01*
X97586310Y-103740579D01*
X97541876Y-103586215D01*
X97488070Y-103399069D01*
X97425993Y-103182981D01*
X97356747Y-102941796D01*
X97281432Y-102679353D01*
X97201150Y-102399497D01*
X97117000Y-102106069D01*
X97030086Y-101802910D01*
X96941506Y-101493864D01*
X96852362Y-101182773D01*
X96763756Y-100873478D01*
X96676788Y-100569823D01*
X96592558Y-100275648D01*
X96512169Y-99994797D01*
X96436720Y-99731111D01*
X96367313Y-99488433D01*
X96305049Y-99270604D01*
X96251029Y-99081468D01*
X96206354Y-98924866D01*
X96172124Y-98804640D01*
X96149441Y-98724633D01*
X96139405Y-98688686D01*
X96139000Y-98687041D01*
X96114507Y-98685267D01*
X96044655Y-98683629D01*
X95934883Y-98682170D01*
X95790634Y-98680935D01*
X95617347Y-98679968D01*
X95420462Y-98679313D01*
X95205422Y-98679014D01*
X95146689Y-98679000D01*
X94895921Y-98679111D01*
G36*
X96728986Y-98682884D02*
X96648493Y-98685280D01*
X96596363Y-98689767D01*
X96566988Y-98696678D01*
X96554760Y-98706347D01*
X96554070Y-98719107D01*
X96555102Y-98723017D01*
X96563832Y-98753255D01*
X96585576Y-98828990D01*
X96619377Y-98946880D01*
X96664278Y-99103579D01*
X96719322Y-99295745D01*
X96783550Y-99520034D01*
X96856006Y-99773103D01*
X96935732Y-100051608D01*
X97021771Y-100352206D01*
X97113165Y-100671553D01*
X97208957Y-101006306D01*
X97269815Y-101219000D01*
X97368767Y-101564796D01*
X97464556Y-101899464D01*
X97556158Y-102219427D01*
X97642549Y-102521111D01*
X97722704Y-102800942D01*
X97795598Y-103055344D01*
X97860209Y-103280743D01*
X97915510Y-103473564D01*
X97960478Y-103630232D01*
X97994089Y-103747173D01*
X98015317Y-103820811D01*
X98021340Y-103841550D01*
X98071552Y-104013000D01*
X98718176Y-104013000D01*
X98925437Y-104012451D01*
X99086521Y-104010654D01*
X99206041Y-104007382D01*
X99288610Y-104002408D01*
X99338839Y-103995505D01*
X99361343Y-103986445D01*
X99363651Y-103981250D01*
X99356615Y-103953025D01*
X99336429Y-103879184D01*
X99304004Y-103762926D01*
X99260248Y-103607452D01*
X99206072Y-103415960D01*
X99142384Y-103191650D01*
X99070096Y-102937722D01*
X98990117Y-102657375D01*
X98903356Y-102353809D01*
X98810723Y-102030223D01*
X98713129Y-101689817D01*
X98611482Y-101335791D01*
X98607117Y-101320600D01*
X97851734Y-98691700D01*
X97196718Y-98684917D01*
X96997490Y-98683036D01*
X96843449Y-98682247D01*
X96728986Y-98682884D01*
X96728986Y-98682884D01*
G37*
X96728986Y-98682884D02*
X96648493Y-98685280D01*
X96596363Y-98689767D01*
X96566988Y-98696678D01*
X96554760Y-98706347D01*
X96554070Y-98719107D01*
X96555102Y-98723017D01*
X96563832Y-98753255D01*
X96585576Y-98828990D01*
X96619377Y-98946880D01*
X96664278Y-99103579D01*
X96719322Y-99295745D01*
X96783550Y-99520034D01*
X96856006Y-99773103D01*
X96935732Y-100051608D01*
X97021771Y-100352206D01*
X97113165Y-100671553D01*
X97208957Y-101006306D01*
X97269815Y-101219000D01*
X97368767Y-101564796D01*
X97464556Y-101899464D01*
X97556158Y-102219427D01*
X97642549Y-102521111D01*
X97722704Y-102800942D01*
X97795598Y-103055344D01*
X97860209Y-103280743D01*
X97915510Y-103473564D01*
X97960478Y-103630232D01*
X97994089Y-103747173D01*
X98015317Y-103820811D01*
X98021340Y-103841550D01*
X98071552Y-104013000D01*
X98718176Y-104013000D01*
X98925437Y-104012451D01*
X99086521Y-104010654D01*
X99206041Y-104007382D01*
X99288610Y-104002408D01*
X99338839Y-103995505D01*
X99361343Y-103986445D01*
X99363651Y-103981250D01*
X99356615Y-103953025D01*
X99336429Y-103879184D01*
X99304004Y-103762926D01*
X99260248Y-103607452D01*
X99206072Y-103415960D01*
X99142384Y-103191650D01*
X99070096Y-102937722D01*
X98990117Y-102657375D01*
X98903356Y-102353809D01*
X98810723Y-102030223D01*
X98713129Y-101689817D01*
X98611482Y-101335791D01*
X98607117Y-101320600D01*
X97851734Y-98691700D01*
X97196718Y-98684917D01*
X96997490Y-98683036D01*
X96843449Y-98682247D01*
X96728986Y-98682884D01*
G36*
X98441390Y-98679307D02*
X98356240Y-98681299D01*
X98305519Y-98686580D01*
X98281042Y-98696756D01*
X98274624Y-98713432D01*
X98277680Y-98736149D01*
X98286046Y-98767891D01*
X98307497Y-98845208D01*
X98341107Y-98964845D01*
X98385951Y-99123548D01*
X98441103Y-99318063D01*
X98505636Y-99545134D01*
X98578626Y-99801508D01*
X98659145Y-100083930D01*
X98746270Y-100389146D01*
X98839073Y-100713900D01*
X98936629Y-101054938D01*
X99036291Y-101402997D01*
X99783900Y-104012695D01*
X100093836Y-104012847D01*
X100403771Y-104013000D01*
X100371203Y-103904784D01*
X100359829Y-103865846D01*
X100335432Y-103781449D01*
X100298982Y-103654969D01*
X100251449Y-103489782D01*
X100193803Y-103289264D01*
X100127012Y-103056790D01*
X100052047Y-102795737D01*
X99969878Y-102509480D01*
X99881474Y-102201396D01*
X99787805Y-101874861D01*
X99689840Y-101533250D01*
X99605132Y-101237784D01*
X98871629Y-98679000D01*
X98569154Y-98679000D01*
X98441390Y-98679307D01*
X98441390Y-98679307D01*
G37*
X98441390Y-98679307D02*
X98356240Y-98681299D01*
X98305519Y-98686580D01*
X98281042Y-98696756D01*
X98274624Y-98713432D01*
X98277680Y-98736149D01*
X98286046Y-98767891D01*
X98307497Y-98845208D01*
X98341107Y-98964845D01*
X98385951Y-99123548D01*
X98441103Y-99318063D01*
X98505636Y-99545134D01*
X98578626Y-99801508D01*
X98659145Y-100083930D01*
X98746270Y-100389146D01*
X98839073Y-100713900D01*
X98936629Y-101054938D01*
X99036291Y-101402997D01*
X99783900Y-104012695D01*
X100093836Y-104012847D01*
X100403771Y-104013000D01*
X100371203Y-103904784D01*
X100359829Y-103865846D01*
X100335432Y-103781449D01*
X100298982Y-103654969D01*
X100251449Y-103489782D01*
X100193803Y-103289264D01*
X100127012Y-103056790D01*
X100052047Y-102795737D01*
X99969878Y-102509480D01*
X99881474Y-102201396D01*
X99787805Y-101874861D01*
X99689840Y-101533250D01*
X99605132Y-101237784D01*
X98871629Y-98679000D01*
X98569154Y-98679000D01*
X98441390Y-98679307D01*
G36*
X65506600Y-105537000D02*
X65938400Y-105537000D01*
X65938400Y-106883200D01*
X66294000Y-106883200D01*
X66294000Y-105537000D01*
X66700400Y-105537000D01*
X66700400Y-105232200D01*
X65506600Y-105232200D01*
X65506600Y-105537000D01*
X65506600Y-105537000D01*
G37*
X65506600Y-105537000D02*
X65938400Y-105537000D01*
X65938400Y-106883200D01*
X66294000Y-106883200D01*
X66294000Y-105537000D01*
X66700400Y-105537000D01*
X66700400Y-105232200D01*
X65506600Y-105232200D01*
X65506600Y-105537000D01*
G36*
X69919850Y-105232341D02*
X69733971Y-105234820D01*
X69589691Y-105243203D01*
X69477988Y-105259155D01*
X69389837Y-105284342D01*
X69316217Y-105320429D01*
X69269386Y-105352395D01*
X69179861Y-105449556D01*
X69118811Y-105576505D01*
X69089780Y-105718770D01*
X69096310Y-105861878D01*
X69122647Y-105951751D01*
X69165364Y-106021502D01*
X69229985Y-106094316D01*
X69299498Y-106152902D01*
X69344221Y-106176973D01*
X69344502Y-106202438D01*
X69320917Y-106267407D01*
X69275313Y-106367576D01*
X69209539Y-106498639D01*
X69190541Y-106535002D01*
X69007365Y-106883200D01*
X69421688Y-106883200D01*
X69725442Y-106248200D01*
X69926200Y-106248200D01*
X69926200Y-106883200D01*
X70281800Y-106883200D01*
X70281800Y-105537000D01*
X69926200Y-105537000D01*
X69926200Y-105943400D01*
X69742050Y-105942592D01*
X69632116Y-105937297D01*
X69550326Y-105923719D01*
X69514449Y-105908772D01*
X69454808Y-105835374D01*
X69435352Y-105745696D01*
X69455615Y-105665326D01*
X69516986Y-105596578D01*
X69617634Y-105554245D01*
X69759983Y-105537397D01*
X69790291Y-105537000D01*
X69926200Y-105537000D01*
X70281800Y-105537000D01*
X70281800Y-105232200D01*
X69919850Y-105232341D01*
X69919850Y-105232341D01*
G37*
X69919850Y-105232341D02*
X69733971Y-105234820D01*
X69589691Y-105243203D01*
X69477988Y-105259155D01*
X69389837Y-105284342D01*
X69316217Y-105320429D01*
X69269386Y-105352395D01*
X69179861Y-105449556D01*
X69118811Y-105576505D01*
X69089780Y-105718770D01*
X69096310Y-105861878D01*
X69122647Y-105951751D01*
X69165364Y-106021502D01*
X69229985Y-106094316D01*
X69299498Y-106152902D01*
X69344221Y-106176973D01*
X69344502Y-106202438D01*
X69320917Y-106267407D01*
X69275313Y-106367576D01*
X69209539Y-106498639D01*
X69190541Y-106535002D01*
X69007365Y-106883200D01*
X69421688Y-106883200D01*
X69725442Y-106248200D01*
X69926200Y-106248200D01*
X69926200Y-106883200D01*
X70281800Y-106883200D01*
X70281800Y-105537000D01*
X69926200Y-105537000D01*
X69926200Y-105943400D01*
X69742050Y-105942592D01*
X69632116Y-105937297D01*
X69550326Y-105923719D01*
X69514449Y-105908772D01*
X69454808Y-105835374D01*
X69435352Y-105745696D01*
X69455615Y-105665326D01*
X69516986Y-105596578D01*
X69617634Y-105554245D01*
X69759983Y-105537397D01*
X69790291Y-105537000D01*
X69926200Y-105537000D01*
X70281800Y-105537000D01*
X70281800Y-105232200D01*
X69919850Y-105232341D01*
G36*
X77285850Y-105232341D02*
X77107121Y-105234370D01*
X76969451Y-105241397D01*
X76863208Y-105255074D01*
X76778763Y-105277052D01*
X76706484Y-105308981D01*
X76654213Y-105340620D01*
X76563912Y-105428727D01*
X76497704Y-105549382D01*
X76459521Y-105688505D01*
X76453296Y-105832016D01*
X76481016Y-105960796D01*
X76554713Y-106088615D01*
X76666585Y-106182968D01*
X76816655Y-106243865D01*
X77004949Y-106271321D01*
X77069950Y-106273042D01*
X77292200Y-106273600D01*
X77292200Y-106883200D01*
X77647800Y-106883200D01*
X77647800Y-105537000D01*
X77292200Y-105537000D01*
X77292200Y-105968800D01*
X77117826Y-105968800D01*
X77010634Y-105964814D01*
X76938373Y-105950687D01*
X76885643Y-105923164D01*
X76879380Y-105918401D01*
X76814255Y-105840116D01*
X76796696Y-105749199D01*
X76820990Y-105666534D01*
X76881833Y-105597475D01*
X76980867Y-105554862D01*
X77121098Y-105537535D01*
X77156291Y-105537000D01*
X77292200Y-105537000D01*
X77647800Y-105537000D01*
X77647800Y-105232200D01*
X77285850Y-105232341D01*
X77285850Y-105232341D01*
G37*
X77285850Y-105232341D02*
X77107121Y-105234370D01*
X76969451Y-105241397D01*
X76863208Y-105255074D01*
X76778763Y-105277052D01*
X76706484Y-105308981D01*
X76654213Y-105340620D01*
X76563912Y-105428727D01*
X76497704Y-105549382D01*
X76459521Y-105688505D01*
X76453296Y-105832016D01*
X76481016Y-105960796D01*
X76554713Y-106088615D01*
X76666585Y-106182968D01*
X76816655Y-106243865D01*
X77004949Y-106271321D01*
X77069950Y-106273042D01*
X77292200Y-106273600D01*
X77292200Y-106883200D01*
X77647800Y-106883200D01*
X77647800Y-105537000D01*
X77292200Y-105537000D01*
X77292200Y-105968800D01*
X77117826Y-105968800D01*
X77010634Y-105964814D01*
X76938373Y-105950687D01*
X76885643Y-105923164D01*
X76879380Y-105918401D01*
X76814255Y-105840116D01*
X76796696Y-105749199D01*
X76820990Y-105666534D01*
X76881833Y-105597475D01*
X76980867Y-105554862D01*
X77121098Y-105537535D01*
X77156291Y-105537000D01*
X77292200Y-105537000D01*
X77647800Y-105537000D01*
X77647800Y-105232200D01*
X77285850Y-105232341D01*
G36*
X84588350Y-105232805D02*
X84450974Y-105234660D01*
X84323534Y-105239303D01*
X84218903Y-105246068D01*
X84149953Y-105254292D01*
X84142547Y-105255825D01*
X83998182Y-105313259D01*
X83883219Y-105407174D01*
X83802340Y-105529670D01*
X83760222Y-105672850D01*
X83761547Y-105828814D01*
X83772130Y-105881011D01*
X83805791Y-105965780D01*
X83858957Y-106049748D01*
X83921001Y-106120052D01*
X83981297Y-106163823D01*
X84012473Y-106172000D01*
X84020289Y-106187592D01*
X84006015Y-106236363D01*
X83968409Y-106321308D01*
X83906232Y-106445420D01*
X83871927Y-106511015D01*
X83809588Y-106630174D01*
X83756702Y-106733256D01*
X83717407Y-106812036D01*
X83695842Y-106858289D01*
X83693000Y-106866615D01*
X83716374Y-106874380D01*
X83778410Y-106880199D01*
X83866976Y-106883063D01*
X83892520Y-106883200D01*
X84092039Y-106883200D01*
X84241770Y-106565985D01*
X84391500Y-106248771D01*
X84499450Y-106248485D01*
X84607400Y-106248200D01*
X84607400Y-106883200D01*
X84937600Y-106883200D01*
X84937600Y-105943400D01*
X84607400Y-105943400D01*
X84415746Y-105943400D01*
X84313783Y-105941501D01*
X84247801Y-105933391D01*
X84203047Y-105915449D01*
X84164769Y-105884053D01*
X84161746Y-105881054D01*
X84109514Y-105800205D01*
X84107468Y-105714411D01*
X84155652Y-105626874D01*
X84158265Y-105623799D01*
X84194634Y-105587956D01*
X84237315Y-105565702D01*
X84300617Y-105552477D01*
X84398848Y-105543720D01*
X84412265Y-105542842D01*
X84607400Y-105530319D01*
X84607400Y-105943400D01*
X84937600Y-105943400D01*
X84937600Y-105232200D01*
X84588350Y-105232805D01*
X84588350Y-105232805D01*
G37*
X84588350Y-105232805D02*
X84450974Y-105234660D01*
X84323534Y-105239303D01*
X84218903Y-105246068D01*
X84149953Y-105254292D01*
X84142547Y-105255825D01*
X83998182Y-105313259D01*
X83883219Y-105407174D01*
X83802340Y-105529670D01*
X83760222Y-105672850D01*
X83761547Y-105828814D01*
X83772130Y-105881011D01*
X83805791Y-105965780D01*
X83858957Y-106049748D01*
X83921001Y-106120052D01*
X83981297Y-106163823D01*
X84012473Y-106172000D01*
X84020289Y-106187592D01*
X84006015Y-106236363D01*
X83968409Y-106321308D01*
X83906232Y-106445420D01*
X83871927Y-106511015D01*
X83809588Y-106630174D01*
X83756702Y-106733256D01*
X83717407Y-106812036D01*
X83695842Y-106858289D01*
X83693000Y-106866615D01*
X83716374Y-106874380D01*
X83778410Y-106880199D01*
X83866976Y-106883063D01*
X83892520Y-106883200D01*
X84092039Y-106883200D01*
X84241770Y-106565985D01*
X84391500Y-106248771D01*
X84499450Y-106248485D01*
X84607400Y-106248200D01*
X84607400Y-106883200D01*
X84937600Y-106883200D01*
X84937600Y-105943400D01*
X84607400Y-105943400D01*
X84415746Y-105943400D01*
X84313783Y-105941501D01*
X84247801Y-105933391D01*
X84203047Y-105915449D01*
X84164769Y-105884053D01*
X84161746Y-105881054D01*
X84109514Y-105800205D01*
X84107468Y-105714411D01*
X84155652Y-105626874D01*
X84158265Y-105623799D01*
X84194634Y-105587956D01*
X84237315Y-105565702D01*
X84300617Y-105552477D01*
X84398848Y-105543720D01*
X84412265Y-105542842D01*
X84607400Y-105530319D01*
X84607400Y-105943400D01*
X84937600Y-105943400D01*
X84937600Y-105232200D01*
X84588350Y-105232805D01*
G36*
X91059000Y-105537000D02*
X91490800Y-105537000D01*
X91490800Y-106883200D01*
X91821000Y-106883200D01*
X91821000Y-105537000D01*
X92252800Y-105537000D01*
X92252800Y-105232200D01*
X91059000Y-105232200D01*
X91059000Y-105537000D01*
X91059000Y-105537000D01*
G37*
X91059000Y-105537000D02*
X91490800Y-105537000D01*
X91490800Y-106883200D01*
X91821000Y-106883200D01*
X91821000Y-105537000D01*
X92252800Y-105537000D01*
X92252800Y-105232200D01*
X91059000Y-105232200D01*
X91059000Y-105537000D01*
G36*
X99329954Y-105663275D02*
X99120732Y-106094350D01*
X98708500Y-105232200D01*
X98374200Y-105232200D01*
X98374200Y-106883200D01*
X98704400Y-106883200D01*
X98707352Y-105981500D01*
X98851406Y-106267250D01*
X98995461Y-106553000D01*
X99251540Y-106553000D01*
X99395595Y-106267250D01*
X99539649Y-105981500D01*
X99541125Y-106432350D01*
X99542600Y-106883200D01*
X99872800Y-106883200D01*
X99872800Y-105232200D01*
X99539177Y-105232200D01*
X99329954Y-105663275D01*
X99329954Y-105663275D01*
G37*
X99329954Y-105663275D02*
X99120732Y-106094350D01*
X98708500Y-105232200D01*
X98374200Y-105232200D01*
X98374200Y-106883200D01*
X98704400Y-106883200D01*
X98707352Y-105981500D01*
X98851406Y-106267250D01*
X98995461Y-106553000D01*
X99251540Y-106553000D01*
X99395595Y-106267250D01*
X99539649Y-105981500D01*
X99541125Y-106432350D01*
X99542600Y-106883200D01*
X99872800Y-106883200D01*
X99872800Y-105232200D01*
X99539177Y-105232200D01*
X99329954Y-105663275D01*
G36*
X62350647Y-105244592D02*
X62290328Y-105257361D01*
X62205674Y-105291005D01*
X62125055Y-105334208D01*
X62061714Y-105378595D01*
X62028893Y-105415794D01*
X62026974Y-105423895D01*
X62043767Y-105455387D01*
X62086999Y-105507309D01*
X62123090Y-105544514D01*
X62219380Y-105638538D01*
X62318961Y-105587769D01*
X62435058Y-105545630D01*
X62548619Y-105533954D01*
X62650083Y-105550216D01*
X62729888Y-105591890D01*
X62778473Y-105656451D01*
X62788800Y-105711852D01*
X62777343Y-105774713D01*
X62738576Y-105822905D01*
X62665910Y-105860454D01*
X62552752Y-105891384D01*
X62468597Y-105907427D01*
X62304371Y-105943451D01*
X62182781Y-105989798D01*
X62095970Y-106051220D01*
X62036081Y-106132469D01*
X62013528Y-106182664D01*
X61977723Y-106338046D01*
X61985907Y-106489773D01*
X62034836Y-106628746D01*
X62121266Y-106745862D01*
X62241955Y-106832019D01*
X62245564Y-106833786D01*
X62357389Y-106871200D01*
X62498470Y-106894723D01*
X62648765Y-106902732D01*
X62788234Y-106893604D01*
X62846345Y-106882435D01*
X62949461Y-106848491D01*
X63050830Y-106801872D01*
X63132792Y-106751531D01*
X63169258Y-106718753D01*
X63183757Y-106691282D01*
X63175311Y-106659639D01*
X63138430Y-106612720D01*
X63093596Y-106565695D01*
X62983776Y-106453797D01*
X62916241Y-106501886D01*
X62816433Y-106552437D01*
X62693916Y-106586153D01*
X62573575Y-106597357D01*
X62519692Y-106592323D01*
X62434117Y-106560701D01*
X62361195Y-106506851D01*
X62315096Y-106443235D01*
X62306200Y-106404568D01*
X62320452Y-106337867D01*
X62367006Y-106286888D01*
X62451557Y-106248067D01*
X62579804Y-106217839D01*
X62613764Y-106212098D01*
X62787786Y-106176107D01*
X62918377Y-106128582D01*
X63012438Y-106064872D01*
X63076871Y-105980325D01*
X63118079Y-105872172D01*
X63137080Y-105711690D01*
X63109101Y-105561827D01*
X63036782Y-105429791D01*
X62922766Y-105322794D01*
X62914859Y-105317461D01*
X62850758Y-105280565D01*
X62783986Y-105257574D01*
X62697500Y-105244153D01*
X62599544Y-105237226D01*
X62464469Y-105235569D01*
X62350647Y-105244592D01*
X62350647Y-105244592D01*
G37*
X62350647Y-105244592D02*
X62290328Y-105257361D01*
X62205674Y-105291005D01*
X62125055Y-105334208D01*
X62061714Y-105378595D01*
X62028893Y-105415794D01*
X62026974Y-105423895D01*
X62043767Y-105455387D01*
X62086999Y-105507309D01*
X62123090Y-105544514D01*
X62219380Y-105638538D01*
X62318961Y-105587769D01*
X62435058Y-105545630D01*
X62548619Y-105533954D01*
X62650083Y-105550216D01*
X62729888Y-105591890D01*
X62778473Y-105656451D01*
X62788800Y-105711852D01*
X62777343Y-105774713D01*
X62738576Y-105822905D01*
X62665910Y-105860454D01*
X62552752Y-105891384D01*
X62468597Y-105907427D01*
X62304371Y-105943451D01*
X62182781Y-105989798D01*
X62095970Y-106051220D01*
X62036081Y-106132469D01*
X62013528Y-106182664D01*
X61977723Y-106338046D01*
X61985907Y-106489773D01*
X62034836Y-106628746D01*
X62121266Y-106745862D01*
X62241955Y-106832019D01*
X62245564Y-106833786D01*
X62357389Y-106871200D01*
X62498470Y-106894723D01*
X62648765Y-106902732D01*
X62788234Y-106893604D01*
X62846345Y-106882435D01*
X62949461Y-106848491D01*
X63050830Y-106801872D01*
X63132792Y-106751531D01*
X63169258Y-106718753D01*
X63183757Y-106691282D01*
X63175311Y-106659639D01*
X63138430Y-106612720D01*
X63093596Y-106565695D01*
X62983776Y-106453797D01*
X62916241Y-106501886D01*
X62816433Y-106552437D01*
X62693916Y-106586153D01*
X62573575Y-106597357D01*
X62519692Y-106592323D01*
X62434117Y-106560701D01*
X62361195Y-106506851D01*
X62315096Y-106443235D01*
X62306200Y-106404568D01*
X62320452Y-106337867D01*
X62367006Y-106286888D01*
X62451557Y-106248067D01*
X62579804Y-106217839D01*
X62613764Y-106212098D01*
X62787786Y-106176107D01*
X62918377Y-106128582D01*
X63012438Y-106064872D01*
X63076871Y-105980325D01*
X63118079Y-105872172D01*
X63137080Y-105711690D01*
X63109101Y-105561827D01*
X63036782Y-105429791D01*
X62922766Y-105322794D01*
X62914859Y-105317461D01*
X62850758Y-105280565D01*
X62783986Y-105257574D01*
X62697500Y-105244153D01*
X62599544Y-105237226D01*
X62464469Y-105235569D01*
X62350647Y-105244592D01*
G36*
X73233532Y-105252818D02*
X73080676Y-105311451D01*
X72959826Y-105409400D01*
X72870674Y-105546851D01*
X72859276Y-105572652D01*
X72835701Y-105658029D01*
X72817575Y-105780161D01*
X72805611Y-105925222D01*
X72800522Y-106079388D01*
X72803020Y-106228834D01*
X72813818Y-106359737D01*
X72817413Y-106384894D01*
X72860414Y-106554104D01*
X72932702Y-106686259D01*
X73038845Y-106788686D01*
X73089832Y-106821823D01*
X73214525Y-106872849D01*
X73361825Y-106899951D01*
X73510598Y-106901132D01*
X73639710Y-106874394D01*
X73641002Y-106873915D01*
X73794194Y-106792086D01*
X73912864Y-106675513D01*
X73968032Y-106585440D01*
X73991243Y-106533722D01*
X74007511Y-106482668D01*
X74018069Y-106421926D01*
X74024147Y-106341146D01*
X74026976Y-106229976D01*
X74027197Y-106189630D01*
X73682907Y-106189630D01*
X73675100Y-106323637D01*
X73656057Y-106421712D01*
X73623781Y-106491031D01*
X73576275Y-106538767D01*
X73527601Y-106565532D01*
X73461062Y-106592625D01*
X73415510Y-106599761D01*
X73365774Y-106587069D01*
X73315371Y-106566614D01*
X73252072Y-106529839D01*
X73206615Y-106475520D01*
X73176512Y-106396098D01*
X73159273Y-106284016D01*
X73152412Y-106131716D01*
X73152000Y-106070400D01*
X73156216Y-105903795D01*
X73168598Y-105779468D01*
X73187417Y-105704603D01*
X73250859Y-105606848D01*
X73336401Y-105550648D01*
X73434523Y-105538217D01*
X73535705Y-105571766D01*
X73589750Y-105611100D01*
X73672700Y-105685200D01*
X73681473Y-106012518D01*
X73682907Y-106189630D01*
X74027197Y-106189630D01*
X74027782Y-106083100D01*
X74026006Y-105902295D01*
X74018742Y-105762857D01*
X74003920Y-105655465D01*
X73979472Y-105570801D01*
X73943328Y-105499545D01*
X73893420Y-105432379D01*
X73879780Y-105416534D01*
X73770836Y-105320117D01*
X73641891Y-105260891D01*
X73483549Y-105235121D01*
X73418700Y-105233315D01*
X73233532Y-105252818D01*
X73233532Y-105252818D01*
G37*
X73233532Y-105252818D02*
X73080676Y-105311451D01*
X72959826Y-105409400D01*
X72870674Y-105546851D01*
X72859276Y-105572652D01*
X72835701Y-105658029D01*
X72817575Y-105780161D01*
X72805611Y-105925222D01*
X72800522Y-106079388D01*
X72803020Y-106228834D01*
X72813818Y-106359737D01*
X72817413Y-106384894D01*
X72860414Y-106554104D01*
X72932702Y-106686259D01*
X73038845Y-106788686D01*
X73089832Y-106821823D01*
X73214525Y-106872849D01*
X73361825Y-106899951D01*
X73510598Y-106901132D01*
X73639710Y-106874394D01*
X73641002Y-106873915D01*
X73794194Y-106792086D01*
X73912864Y-106675513D01*
X73968032Y-106585440D01*
X73991243Y-106533722D01*
X74007511Y-106482668D01*
X74018069Y-106421926D01*
X74024147Y-106341146D01*
X74026976Y-106229976D01*
X74027197Y-106189630D01*
X73682907Y-106189630D01*
X73675100Y-106323637D01*
X73656057Y-106421712D01*
X73623781Y-106491031D01*
X73576275Y-106538767D01*
X73527601Y-106565532D01*
X73461062Y-106592625D01*
X73415510Y-106599761D01*
X73365774Y-106587069D01*
X73315371Y-106566614D01*
X73252072Y-106529839D01*
X73206615Y-106475520D01*
X73176512Y-106396098D01*
X73159273Y-106284016D01*
X73152412Y-106131716D01*
X73152000Y-106070400D01*
X73156216Y-105903795D01*
X73168598Y-105779468D01*
X73187417Y-105704603D01*
X73250859Y-105606848D01*
X73336401Y-105550648D01*
X73434523Y-105538217D01*
X73535705Y-105571766D01*
X73589750Y-105611100D01*
X73672700Y-105685200D01*
X73681473Y-106012518D01*
X73682907Y-106189630D01*
X74027197Y-106189630D01*
X74027782Y-106083100D01*
X74026006Y-105902295D01*
X74018742Y-105762857D01*
X74003920Y-105655465D01*
X73979472Y-105570801D01*
X73943328Y-105499545D01*
X73893420Y-105432379D01*
X73879780Y-105416534D01*
X73770836Y-105320117D01*
X73641891Y-105260891D01*
X73483549Y-105235121D01*
X73418700Y-105233315D01*
X73233532Y-105252818D01*
G36*
X80545666Y-105245636D02*
X80399873Y-105281550D01*
X80282497Y-105337016D01*
X80215140Y-105394824D01*
X80198376Y-105423604D01*
X80204750Y-105453998D01*
X80239767Y-105498176D01*
X80281132Y-105540683D01*
X80383283Y-105642835D01*
X80482015Y-105589917D01*
X80594966Y-105547967D01*
X80713362Y-105534543D01*
X80821799Y-105549310D01*
X80904874Y-105591929D01*
X80912855Y-105599345D01*
X80964703Y-105670102D01*
X80970368Y-105739379D01*
X80950506Y-105789681D01*
X80928418Y-105820972D01*
X80894330Y-105844865D01*
X80838347Y-105865065D01*
X80750573Y-105885275D01*
X80640217Y-105905826D01*
X80470598Y-105944685D01*
X80344424Y-105996054D01*
X80254861Y-106065182D01*
X80195074Y-106157318D01*
X80158638Y-106275720D01*
X80147528Y-106440403D01*
X80183261Y-106588267D01*
X80263710Y-106714826D01*
X80386747Y-106815594D01*
X80424720Y-106836644D01*
X80526399Y-106871426D01*
X80659421Y-106893442D01*
X80805688Y-106901599D01*
X80947103Y-106894803D01*
X81055958Y-106874802D01*
X81142792Y-106841684D01*
X81228669Y-106795106D01*
X81300862Y-106743701D01*
X81346639Y-106696103D01*
X81356200Y-106671162D01*
X81339201Y-106636940D01*
X81295504Y-106582779D01*
X81256479Y-106542133D01*
X81156757Y-106444758D01*
X81091084Y-106496416D01*
X80980292Y-106556710D01*
X80848462Y-106588101D01*
X80713009Y-106589276D01*
X80591346Y-106558921D01*
X80549750Y-106537221D01*
X80507210Y-106483667D01*
X80491797Y-106407796D01*
X80505002Y-106331145D01*
X80532515Y-106288114D01*
X80565753Y-106256618D01*
X80576965Y-106248165D01*
X80638026Y-106241465D01*
X80730696Y-106224466D01*
X80838929Y-106200898D01*
X80946679Y-106174494D01*
X81037900Y-106148986D01*
X81096546Y-106128107D01*
X81099648Y-106126597D01*
X81195154Y-106051555D01*
X81261282Y-105945346D01*
X81296780Y-105819109D01*
X81300397Y-105683981D01*
X81270879Y-105551099D01*
X81206976Y-105431601D01*
X81181294Y-105400447D01*
X81081747Y-105315972D01*
X80960566Y-105262476D01*
X80808367Y-105236634D01*
X80708500Y-105233005D01*
X80545666Y-105245636D01*
X80545666Y-105245636D01*
G37*
X80545666Y-105245636D02*
X80399873Y-105281550D01*
X80282497Y-105337016D01*
X80215140Y-105394824D01*
X80198376Y-105423604D01*
X80204750Y-105453998D01*
X80239767Y-105498176D01*
X80281132Y-105540683D01*
X80383283Y-105642835D01*
X80482015Y-105589917D01*
X80594966Y-105547967D01*
X80713362Y-105534543D01*
X80821799Y-105549310D01*
X80904874Y-105591929D01*
X80912855Y-105599345D01*
X80964703Y-105670102D01*
X80970368Y-105739379D01*
X80950506Y-105789681D01*
X80928418Y-105820972D01*
X80894330Y-105844865D01*
X80838347Y-105865065D01*
X80750573Y-105885275D01*
X80640217Y-105905826D01*
X80470598Y-105944685D01*
X80344424Y-105996054D01*
X80254861Y-106065182D01*
X80195074Y-106157318D01*
X80158638Y-106275720D01*
X80147528Y-106440403D01*
X80183261Y-106588267D01*
X80263710Y-106714826D01*
X80386747Y-106815594D01*
X80424720Y-106836644D01*
X80526399Y-106871426D01*
X80659421Y-106893442D01*
X80805688Y-106901599D01*
X80947103Y-106894803D01*
X81055958Y-106874802D01*
X81142792Y-106841684D01*
X81228669Y-106795106D01*
X81300862Y-106743701D01*
X81346639Y-106696103D01*
X81356200Y-106671162D01*
X81339201Y-106636940D01*
X81295504Y-106582779D01*
X81256479Y-106542133D01*
X81156757Y-106444758D01*
X81091084Y-106496416D01*
X80980292Y-106556710D01*
X80848462Y-106588101D01*
X80713009Y-106589276D01*
X80591346Y-106558921D01*
X80549750Y-106537221D01*
X80507210Y-106483667D01*
X80491797Y-106407796D01*
X80505002Y-106331145D01*
X80532515Y-106288114D01*
X80565753Y-106256618D01*
X80576965Y-106248165D01*
X80638026Y-106241465D01*
X80730696Y-106224466D01*
X80838929Y-106200898D01*
X80946679Y-106174494D01*
X81037900Y-106148986D01*
X81096546Y-106128107D01*
X81099648Y-106126597D01*
X81195154Y-106051555D01*
X81261282Y-105945346D01*
X81296780Y-105819109D01*
X81300397Y-105683981D01*
X81270879Y-105551099D01*
X81206976Y-105431601D01*
X81181294Y-105400447D01*
X81081747Y-105315972D01*
X80960566Y-105262476D01*
X80808367Y-105236634D01*
X80708500Y-105233005D01*
X80545666Y-105245636D01*
G36*
X87918379Y-105248873D02*
X87773713Y-105304984D01*
X87648557Y-105396403D01*
X87566893Y-105497949D01*
X87537137Y-105547916D01*
X87516057Y-105592552D01*
X87501899Y-105642127D01*
X87492907Y-105706911D01*
X87487328Y-105797175D01*
X87483405Y-105923188D01*
X87481655Y-105996780D01*
X87479952Y-106195664D01*
X87486465Y-106352314D01*
X87503221Y-106474918D01*
X87532246Y-106571664D01*
X87575568Y-106650739D01*
X87635214Y-106720330D01*
X87668421Y-106751176D01*
X87814512Y-106847223D01*
X87980928Y-106897850D01*
X88163744Y-106902272D01*
X88300331Y-106877204D01*
X88402299Y-106829909D01*
X88505453Y-106748796D01*
X88595359Y-106648385D01*
X88657585Y-106543198D01*
X88671228Y-106504037D01*
X88684192Y-106421822D01*
X88691970Y-106295692D01*
X88694275Y-106132296D01*
X88694060Y-106115681D01*
X88351889Y-106115681D01*
X88349771Y-106245699D01*
X88344471Y-106335978D01*
X88334336Y-106397553D01*
X88317715Y-106441463D01*
X88298640Y-106471281D01*
X88211912Y-106555310D01*
X88115802Y-106592509D01*
X88017592Y-106582263D01*
X87924563Y-106523956D01*
X87905430Y-106504524D01*
X87867813Y-106454507D01*
X87843597Y-106394867D01*
X87827731Y-106309866D01*
X87819920Y-106238024D01*
X87812206Y-106072069D01*
X87818790Y-105910884D01*
X87838429Y-105770385D01*
X87863373Y-105681852D01*
X87915435Y-105610093D01*
X87997973Y-105557652D01*
X88091110Y-105537096D01*
X88092289Y-105537094D01*
X88153239Y-105550252D01*
X88224371Y-105582251D01*
X88231872Y-105586683D01*
X88277475Y-105622195D01*
X88310439Y-105669942D01*
X88332553Y-105737810D01*
X88345605Y-105833684D01*
X88351385Y-105965449D01*
X88351889Y-106115681D01*
X88694060Y-106115681D01*
X88692645Y-106006659D01*
X88689008Y-105858504D01*
X88684608Y-105751090D01*
X88677761Y-105674364D01*
X88666787Y-105618275D01*
X88650001Y-105572773D01*
X88625723Y-105527804D01*
X88607508Y-105497945D01*
X88505373Y-105377514D01*
X88376053Y-105292391D01*
X88228888Y-105242577D01*
X88073217Y-105228071D01*
X87918379Y-105248873D01*
X87918379Y-105248873D01*
G37*
X87918379Y-105248873D02*
X87773713Y-105304984D01*
X87648557Y-105396403D01*
X87566893Y-105497949D01*
X87537137Y-105547916D01*
X87516057Y-105592552D01*
X87501899Y-105642127D01*
X87492907Y-105706911D01*
X87487328Y-105797175D01*
X87483405Y-105923188D01*
X87481655Y-105996780D01*
X87479952Y-106195664D01*
X87486465Y-106352314D01*
X87503221Y-106474918D01*
X87532246Y-106571664D01*
X87575568Y-106650739D01*
X87635214Y-106720330D01*
X87668421Y-106751176D01*
X87814512Y-106847223D01*
X87980928Y-106897850D01*
X88163744Y-106902272D01*
X88300331Y-106877204D01*
X88402299Y-106829909D01*
X88505453Y-106748796D01*
X88595359Y-106648385D01*
X88657585Y-106543198D01*
X88671228Y-106504037D01*
X88684192Y-106421822D01*
X88691970Y-106295692D01*
X88694275Y-106132296D01*
X88694060Y-106115681D01*
X88351889Y-106115681D01*
X88349771Y-106245699D01*
X88344471Y-106335978D01*
X88334336Y-106397553D01*
X88317715Y-106441463D01*
X88298640Y-106471281D01*
X88211912Y-106555310D01*
X88115802Y-106592509D01*
X88017592Y-106582263D01*
X87924563Y-106523956D01*
X87905430Y-106504524D01*
X87867813Y-106454507D01*
X87843597Y-106394867D01*
X87827731Y-106309866D01*
X87819920Y-106238024D01*
X87812206Y-106072069D01*
X87818790Y-105910884D01*
X87838429Y-105770385D01*
X87863373Y-105681852D01*
X87915435Y-105610093D01*
X87997973Y-105557652D01*
X88091110Y-105537096D01*
X88092289Y-105537094D01*
X88153239Y-105550252D01*
X88224371Y-105582251D01*
X88231872Y-105586683D01*
X88277475Y-105622195D01*
X88310439Y-105669942D01*
X88332553Y-105737810D01*
X88345605Y-105833684D01*
X88351385Y-105965449D01*
X88351889Y-106115681D01*
X88694060Y-106115681D01*
X88692645Y-106006659D01*
X88689008Y-105858504D01*
X88684608Y-105751090D01*
X88677761Y-105674364D01*
X88666787Y-105618275D01*
X88650001Y-105572773D01*
X88625723Y-105527804D01*
X88607508Y-105497945D01*
X88505373Y-105377514D01*
X88376053Y-105292391D01*
X88228888Y-105242577D01*
X88073217Y-105228071D01*
X87918379Y-105248873D01*
G36*
X95117256Y-105239355D02*
X94979143Y-105271493D01*
X94861067Y-105338257D01*
X94771881Y-105420781D01*
X94710289Y-105499925D01*
X94665802Y-105589527D01*
X94636651Y-105698060D01*
X94621063Y-105833995D01*
X94617269Y-106005804D01*
X94620446Y-106145286D01*
X94632825Y-106341055D01*
X94656986Y-106494572D01*
X94696474Y-106613715D01*
X94754833Y-106706361D01*
X94835610Y-106780387D01*
X94932500Y-106838677D01*
X95029624Y-106872525D01*
X95153624Y-106894238D01*
X95283065Y-106901893D01*
X95396513Y-106893566D01*
X95437106Y-106883943D01*
X95579698Y-106812798D01*
X95699460Y-106702494D01*
X95772599Y-106589494D01*
X95796716Y-106538277D01*
X95813906Y-106492371D01*
X95825133Y-106442300D01*
X95831364Y-106378584D01*
X95833562Y-106291748D01*
X95832693Y-106172314D01*
X95830018Y-106025671D01*
X95829884Y-106019481D01*
X95503222Y-106019481D01*
X95499376Y-106147368D01*
X95490437Y-106270473D01*
X95477213Y-106375597D01*
X95460514Y-106449540D01*
X95451452Y-106470161D01*
X95400497Y-106523047D01*
X95326527Y-106571055D01*
X95253038Y-106600088D01*
X95229689Y-106603221D01*
X95185338Y-106592611D01*
X95123966Y-106566194D01*
X95122169Y-106565270D01*
X95064057Y-106527933D01*
X95022320Y-106479902D01*
X94994763Y-106413154D01*
X94979189Y-106319667D01*
X94973402Y-106191418D01*
X94975028Y-106027696D01*
X94983300Y-105685105D01*
X95066251Y-105611052D01*
X95163735Y-105551093D01*
X95261751Y-105537589D01*
X95352242Y-105566925D01*
X95427151Y-105635490D01*
X95478417Y-105739668D01*
X95492396Y-105802154D01*
X95501165Y-105900010D01*
X95503222Y-106019481D01*
X95829884Y-106019481D01*
X95826605Y-105868184D01*
X95822688Y-105752526D01*
X95816952Y-105669728D01*
X95808077Y-105610827D01*
X95794748Y-105566856D01*
X95775646Y-105528849D01*
X95751434Y-105490826D01*
X95653137Y-105372522D01*
X95537090Y-105294071D01*
X95393296Y-105250022D01*
X95287117Y-105237681D01*
X95117256Y-105239355D01*
X95117256Y-105239355D01*
G37*
X95117256Y-105239355D02*
X94979143Y-105271493D01*
X94861067Y-105338257D01*
X94771881Y-105420781D01*
X94710289Y-105499925D01*
X94665802Y-105589527D01*
X94636651Y-105698060D01*
X94621063Y-105833995D01*
X94617269Y-106005804D01*
X94620446Y-106145286D01*
X94632825Y-106341055D01*
X94656986Y-106494572D01*
X94696474Y-106613715D01*
X94754833Y-106706361D01*
X94835610Y-106780387D01*
X94932500Y-106838677D01*
X95029624Y-106872525D01*
X95153624Y-106894238D01*
X95283065Y-106901893D01*
X95396513Y-106893566D01*
X95437106Y-106883943D01*
X95579698Y-106812798D01*
X95699460Y-106702494D01*
X95772599Y-106589494D01*
X95796716Y-106538277D01*
X95813906Y-106492371D01*
X95825133Y-106442300D01*
X95831364Y-106378584D01*
X95833562Y-106291748D01*
X95832693Y-106172314D01*
X95830018Y-106025671D01*
X95829884Y-106019481D01*
X95503222Y-106019481D01*
X95499376Y-106147368D01*
X95490437Y-106270473D01*
X95477213Y-106375597D01*
X95460514Y-106449540D01*
X95451452Y-106470161D01*
X95400497Y-106523047D01*
X95326527Y-106571055D01*
X95253038Y-106600088D01*
X95229689Y-106603221D01*
X95185338Y-106592611D01*
X95123966Y-106566194D01*
X95122169Y-106565270D01*
X95064057Y-106527933D01*
X95022320Y-106479902D01*
X94994763Y-106413154D01*
X94979189Y-106319667D01*
X94973402Y-106191418D01*
X94975028Y-106027696D01*
X94983300Y-105685105D01*
X95066251Y-105611052D01*
X95163735Y-105551093D01*
X95261751Y-105537589D01*
X95352242Y-105566925D01*
X95427151Y-105635490D01*
X95478417Y-105739668D01*
X95492396Y-105802154D01*
X95501165Y-105900010D01*
X95503222Y-106019481D01*
X95829884Y-106019481D01*
X95826605Y-105868184D01*
X95822688Y-105752526D01*
X95816952Y-105669728D01*
X95808077Y-105610827D01*
X95794748Y-105566856D01*
X95775646Y-105528849D01*
X95751434Y-105490826D01*
X95653137Y-105372522D01*
X95537090Y-105294071D01*
X95393296Y-105250022D01*
X95287117Y-105237681D01*
X95117256Y-105239355D01*
G36*
X93118070Y-58788326D02*
X92626169Y-58457891D01*
X92079346Y-58024505D01*
X91518000Y-57525173D01*
X90982529Y-56996900D01*
X90513333Y-56476691D01*
X90292963Y-56200531D01*
X89835696Y-55533936D01*
X89462857Y-54868055D01*
X89180473Y-54222548D01*
X88994570Y-53617077D01*
X88911175Y-53071303D01*
X88936313Y-52604889D01*
X89076011Y-52237496D01*
X89077549Y-52235100D01*
X89159728Y-52097406D01*
X89177119Y-52048763D01*
X89090643Y-52070515D01*
X88877768Y-52125431D01*
X88575916Y-52203834D01*
X88392000Y-52251773D01*
X87399197Y-52553316D01*
X86566883Y-52898746D01*
X85891425Y-53290261D01*
X85369192Y-53730057D01*
X84996551Y-54220334D01*
X84928140Y-54347424D01*
X84746408Y-54878167D01*
X84724747Y-55403568D01*
X84853897Y-55917874D01*
X85124597Y-56415331D01*
X85527584Y-56890185D01*
X86053599Y-57336682D01*
X86693380Y-57749069D01*
X87437666Y-58121591D01*
X88277195Y-58448494D01*
X89202707Y-58724026D01*
X90204940Y-58942431D01*
X91274633Y-59097955D01*
X92402526Y-59184846D01*
X92732482Y-59196218D01*
X93855631Y-59224385D01*
X93118070Y-58788326D01*
X93118070Y-58788326D01*
G37*
X93118070Y-58788326D02*
X92626169Y-58457891D01*
X92079346Y-58024505D01*
X91518000Y-57525173D01*
X90982529Y-56996900D01*
X90513333Y-56476691D01*
X90292963Y-56200531D01*
X89835696Y-55533936D01*
X89462857Y-54868055D01*
X89180473Y-54222548D01*
X88994570Y-53617077D01*
X88911175Y-53071303D01*
X88936313Y-52604889D01*
X89076011Y-52237496D01*
X89077549Y-52235100D01*
X89159728Y-52097406D01*
X89177119Y-52048763D01*
X89090643Y-52070515D01*
X88877768Y-52125431D01*
X88575916Y-52203834D01*
X88392000Y-52251773D01*
X87399197Y-52553316D01*
X86566883Y-52898746D01*
X85891425Y-53290261D01*
X85369192Y-53730057D01*
X84996551Y-54220334D01*
X84928140Y-54347424D01*
X84746408Y-54878167D01*
X84724747Y-55403568D01*
X84853897Y-55917874D01*
X85124597Y-56415331D01*
X85527584Y-56890185D01*
X86053599Y-57336682D01*
X86693380Y-57749069D01*
X87437666Y-58121591D01*
X88277195Y-58448494D01*
X89202707Y-58724026D01*
X90204940Y-58942431D01*
X91274633Y-59097955D01*
X92402526Y-59184846D01*
X92732482Y-59196218D01*
X93855631Y-59224385D01*
X93118070Y-58788326D01*
G36*
X95771983Y-59043743D02*
X95922457Y-59003729D01*
X96188628Y-58935424D01*
X96521829Y-58851275D01*
X96647000Y-58819953D01*
X97279523Y-58626012D01*
X97918166Y-58365966D01*
X98516709Y-58062674D01*
X99028928Y-57738999D01*
X99335464Y-57490231D01*
X99756728Y-57007150D01*
X100016210Y-56510305D01*
X100120208Y-56006483D01*
X100075021Y-55502472D01*
X99886949Y-55005059D01*
X99562290Y-54521031D01*
X99107343Y-54057174D01*
X98528408Y-53620276D01*
X97831783Y-53217124D01*
X97023767Y-52854504D01*
X96110660Y-52539205D01*
X95098759Y-52278012D01*
X94366525Y-52136302D01*
X93908989Y-52062727D01*
X93592227Y-52022348D01*
X93391288Y-52013574D01*
X93281225Y-52034817D01*
X93245988Y-52064912D01*
X93187074Y-52118672D01*
X93176963Y-52074867D01*
X93095319Y-52015196D01*
X92866525Y-51975627D01*
X92646500Y-51962762D01*
X92279619Y-51951546D01*
X91908467Y-51939334D01*
X91715142Y-51932494D01*
X91480824Y-51935286D01*
X91335863Y-51959102D01*
X91312975Y-51978443D01*
X91247294Y-52008221D01*
X91164834Y-51992603D01*
X91157337Y-52005738D01*
X91274123Y-52083447D01*
X91490598Y-52209615D01*
X91527718Y-52230373D01*
X92320052Y-52740460D01*
X93102964Y-53387024D01*
X93685472Y-53959834D01*
X94362545Y-54725337D01*
X94907075Y-55470937D01*
X95345751Y-56234344D01*
X95455149Y-56460515D01*
X95743204Y-57166566D01*
X95901957Y-57771950D01*
X95932305Y-58284265D01*
X95835150Y-58711108D01*
X95742505Y-58889419D01*
X95663494Y-59028005D01*
X95687577Y-59062825D01*
X95771983Y-59043743D01*
X95771983Y-59043743D01*
G37*
X95771983Y-59043743D02*
X95922457Y-59003729D01*
X96188628Y-58935424D01*
X96521829Y-58851275D01*
X96647000Y-58819953D01*
X97279523Y-58626012D01*
X97918166Y-58365966D01*
X98516709Y-58062674D01*
X99028928Y-57738999D01*
X99335464Y-57490231D01*
X99756728Y-57007150D01*
X100016210Y-56510305D01*
X100120208Y-56006483D01*
X100075021Y-55502472D01*
X99886949Y-55005059D01*
X99562290Y-54521031D01*
X99107343Y-54057174D01*
X98528408Y-53620276D01*
X97831783Y-53217124D01*
X97023767Y-52854504D01*
X96110660Y-52539205D01*
X95098759Y-52278012D01*
X94366525Y-52136302D01*
X93908989Y-52062727D01*
X93592227Y-52022348D01*
X93391288Y-52013574D01*
X93281225Y-52034817D01*
X93245988Y-52064912D01*
X93187074Y-52118672D01*
X93176963Y-52074867D01*
X93095319Y-52015196D01*
X92866525Y-51975627D01*
X92646500Y-51962762D01*
X92279619Y-51951546D01*
X91908467Y-51939334D01*
X91715142Y-51932494D01*
X91480824Y-51935286D01*
X91335863Y-51959102D01*
X91312975Y-51978443D01*
X91247294Y-52008221D01*
X91164834Y-51992603D01*
X91157337Y-52005738D01*
X91274123Y-52083447D01*
X91490598Y-52209615D01*
X91527718Y-52230373D01*
X92320052Y-52740460D01*
X93102964Y-53387024D01*
X93685472Y-53959834D01*
X94362545Y-54725337D01*
X94907075Y-55470937D01*
X95345751Y-56234344D01*
X95455149Y-56460515D01*
X95743204Y-57166566D01*
X95901957Y-57771950D01*
X95932305Y-58284265D01*
X95835150Y-58711108D01*
X95742505Y-58889419D01*
X95663494Y-59028005D01*
X95687577Y-59062825D01*
X95771983Y-59043743D01*
G04 #@! TD*
M02*
