M48
INCH,TZ
T1C0.0120
T2C0.0315
T3C0.0400
T4C0.0630
%
G90
G05
T1
X48600Y-28900
X48800Y-32400
X50000Y-32800
X51700Y-36700
X51800Y-35200
X51800Y-38900
X52800Y-43100
X52800Y-43800
X53300Y-33200
X53500Y-25600
X53700Y-43100
X53700Y-43800
X54000Y-35900
X54300Y-33200
X54700Y-26900
X55000Y-31200
X55100Y-31900
X55700Y-45000
X56074Y-33850
X56100Y-44300
X56700Y-25700
X57100Y-25700
X57100Y-34100
X57200Y-35000
X57300Y-32300
X57715Y-41862
X57735Y-42882
X57900Y-36500
X58100Y-41800
X58900Y-43000
X59100Y-33300
X59600Y-39300
X59700Y-39700
X59700Y-40400
X59700Y-41200
X59900Y-34400
X60100Y-39300
X60100Y-40000
X60100Y-40800
X60400Y-30500
X60800Y-29300
X60800Y-36800
X61400Y-33000
X61700Y-42000
X62300Y-35600
X62900Y-42000
X63200Y-30300
X64200Y-28100
X64300Y-42000
X65100Y-35300
X65500Y-32600
X67900Y-27200
T2
X49400Y-23900
X49400Y-24687
X49400Y-25475
X49400Y-26262
X49400Y-27050
X49400Y-27837
X49400Y-28624
X49400Y-29412
X49400Y-30199
X49400Y-30987
X49400Y-32100
X49400Y-32887
X49400Y-33675
X49400Y-34462
X49400Y-35250
X49400Y-36037
X49400Y-36824
X49400Y-37612
X49400Y-38399
X49400Y-39187
T3
X53100Y-29700
X53100Y-30700
X53100Y-31700
X54100Y-29700
X54100Y-30700
X54100Y-31700
T4
X54600Y-25100
X58300Y-26000
X62400Y-26600
X62400Y-32500
X64400Y-29900
T0
M30
