G04 #@! TF.GenerationSoftware,KiCad,Pcbnew,5.0.0-fee4fd1~66~ubuntu18.04.1*
G04 #@! TF.CreationDate,2018-09-12T12:49:42-04:00*
G04 #@! TF.ProjectId,Intro,496E74726F2E6B696361645F70636200,rev?*
G04 #@! TF.SameCoordinates,Original*
G04 #@! TF.FileFunction,Legend,Bot*
G04 #@! TF.FilePolarity,Positive*
%FSLAX46Y46*%
G04 Gerber Fmt 4.6, Leading zero omitted, Abs format (unit mm)*
G04 Created by KiCad (PCBNEW 5.0.0-fee4fd1~66~ubuntu18.04.1) date Wed Sep 12 12:49:42 2018*
%MOMM*%
%LPD*%
G01*
G04 APERTURE LIST*
%ADD10C,0.010000*%
G04 APERTURE END LIST*
D10*
G04 #@! TO.C,G\002A\002A\002A*
G36*
X177850075Y-113835132D02*
X178069319Y-113801701D01*
X178249128Y-113736570D01*
X178390053Y-113639374D01*
X178492644Y-113509749D01*
X178551339Y-113369645D01*
X178573425Y-113248595D01*
X178582482Y-113093329D01*
X178579075Y-112918579D01*
X178563770Y-112739076D01*
X178537133Y-112569552D01*
X178517326Y-112483900D01*
X178470072Y-112306100D01*
X178323402Y-112298419D01*
X178241351Y-112295742D01*
X178199339Y-112300780D01*
X178186819Y-112316551D01*
X178190227Y-112336519D01*
X178239407Y-112516415D01*
X178271007Y-112668046D01*
X178288069Y-112809574D01*
X178293602Y-112953800D01*
X178292823Y-113073147D01*
X178286719Y-113156934D01*
X178272636Y-113220332D01*
X178247922Y-113278511D01*
X178231480Y-113309081D01*
X178151841Y-113415822D01*
X178046984Y-113490652D01*
X177909946Y-113537072D01*
X177735219Y-113558506D01*
X177497234Y-113548589D01*
X177280880Y-113492715D01*
X177086151Y-113390881D01*
X176913041Y-113243082D01*
X176761545Y-113049313D01*
X176631654Y-112809571D01*
X176596210Y-112726987D01*
X176575635Y-112668456D01*
X176543354Y-112566470D01*
X176500933Y-112426607D01*
X176449940Y-112254447D01*
X176391942Y-112055567D01*
X176328506Y-111835548D01*
X176261200Y-111599969D01*
X176191592Y-111354408D01*
X176121248Y-111104445D01*
X176051736Y-110855658D01*
X175984623Y-110613628D01*
X175921477Y-110383932D01*
X175863866Y-110172151D01*
X175813355Y-109983862D01*
X175771514Y-109824646D01*
X175739909Y-109700081D01*
X175720107Y-109615746D01*
X175715263Y-109591239D01*
X175694752Y-109376584D01*
X175712412Y-109195103D01*
X175768440Y-109046224D01*
X175863038Y-108929372D01*
X175971200Y-108856189D01*
X176039191Y-108823235D01*
X176097219Y-108802841D01*
X176160340Y-108792606D01*
X176243612Y-108790128D01*
X176362091Y-108793005D01*
X176366370Y-108793150D01*
X176491470Y-108799110D01*
X176583013Y-108809446D01*
X176658235Y-108827873D01*
X176734374Y-108858107D01*
X176789500Y-108884361D01*
X176970824Y-109001284D01*
X177134835Y-109163721D01*
X177279423Y-109368712D01*
X177402476Y-109613299D01*
X177495841Y-109874050D01*
X177550947Y-110058200D01*
X177688173Y-110058200D01*
X177763908Y-110054336D01*
X177813747Y-110044384D01*
X177825400Y-110035091D01*
X177815856Y-109983933D01*
X177790051Y-109897673D01*
X177752229Y-109787691D01*
X177706630Y-109665364D01*
X177657497Y-109542071D01*
X177609071Y-109429190D01*
X177565594Y-109338100D01*
X177565476Y-109337873D01*
X177471911Y-109185288D01*
X177352018Y-109031257D01*
X177216610Y-108887004D01*
X177076502Y-108763750D01*
X176942507Y-108672718D01*
X176906553Y-108654052D01*
X176688910Y-108572744D01*
X176453917Y-108524419D01*
X176216714Y-108510678D01*
X175992440Y-108533125D01*
X175920400Y-108549665D01*
X175746656Y-108617662D01*
X175610440Y-108719376D01*
X175509319Y-108857159D01*
X175448757Y-109005667D01*
X175424344Y-109131273D01*
X175413970Y-109287789D01*
X175417891Y-109457233D01*
X175436364Y-109621618D01*
X175439686Y-109640786D01*
X175453784Y-109704108D01*
X175480574Y-109810556D01*
X175518461Y-109954506D01*
X175565853Y-110130333D01*
X175621155Y-110332413D01*
X175682773Y-110555123D01*
X175749115Y-110792837D01*
X175818585Y-111039932D01*
X175889591Y-111290783D01*
X175960539Y-111539766D01*
X176029834Y-111781258D01*
X176095883Y-112009633D01*
X176157093Y-112219268D01*
X176211869Y-112404538D01*
X176258618Y-112559819D01*
X176295746Y-112679488D01*
X176321660Y-112757919D01*
X176327560Y-112774005D01*
X176455920Y-113048441D01*
X176613516Y-113285101D01*
X176797792Y-113482203D01*
X177006187Y-113637964D01*
X177236145Y-113750600D01*
X177485106Y-113818329D01*
X177750513Y-113839367D01*
X177850075Y-113835132D01*
X177850075Y-113835132D01*
G37*
X177850075Y-113835132D02*
X178069319Y-113801701D01*
X178249128Y-113736570D01*
X178390053Y-113639374D01*
X178492644Y-113509749D01*
X178551339Y-113369645D01*
X178573425Y-113248595D01*
X178582482Y-113093329D01*
X178579075Y-112918579D01*
X178563770Y-112739076D01*
X178537133Y-112569552D01*
X178517326Y-112483900D01*
X178470072Y-112306100D01*
X178323402Y-112298419D01*
X178241351Y-112295742D01*
X178199339Y-112300780D01*
X178186819Y-112316551D01*
X178190227Y-112336519D01*
X178239407Y-112516415D01*
X178271007Y-112668046D01*
X178288069Y-112809574D01*
X178293602Y-112953800D01*
X178292823Y-113073147D01*
X178286719Y-113156934D01*
X178272636Y-113220332D01*
X178247922Y-113278511D01*
X178231480Y-113309081D01*
X178151841Y-113415822D01*
X178046984Y-113490652D01*
X177909946Y-113537072D01*
X177735219Y-113558506D01*
X177497234Y-113548589D01*
X177280880Y-113492715D01*
X177086151Y-113390881D01*
X176913041Y-113243082D01*
X176761545Y-113049313D01*
X176631654Y-112809571D01*
X176596210Y-112726987D01*
X176575635Y-112668456D01*
X176543354Y-112566470D01*
X176500933Y-112426607D01*
X176449940Y-112254447D01*
X176391942Y-112055567D01*
X176328506Y-111835548D01*
X176261200Y-111599969D01*
X176191592Y-111354408D01*
X176121248Y-111104445D01*
X176051736Y-110855658D01*
X175984623Y-110613628D01*
X175921477Y-110383932D01*
X175863866Y-110172151D01*
X175813355Y-109983862D01*
X175771514Y-109824646D01*
X175739909Y-109700081D01*
X175720107Y-109615746D01*
X175715263Y-109591239D01*
X175694752Y-109376584D01*
X175712412Y-109195103D01*
X175768440Y-109046224D01*
X175863038Y-108929372D01*
X175971200Y-108856189D01*
X176039191Y-108823235D01*
X176097219Y-108802841D01*
X176160340Y-108792606D01*
X176243612Y-108790128D01*
X176362091Y-108793005D01*
X176366370Y-108793150D01*
X176491470Y-108799110D01*
X176583013Y-108809446D01*
X176658235Y-108827873D01*
X176734374Y-108858107D01*
X176789500Y-108884361D01*
X176970824Y-109001284D01*
X177134835Y-109163721D01*
X177279423Y-109368712D01*
X177402476Y-109613299D01*
X177495841Y-109874050D01*
X177550947Y-110058200D01*
X177688173Y-110058200D01*
X177763908Y-110054336D01*
X177813747Y-110044384D01*
X177825400Y-110035091D01*
X177815856Y-109983933D01*
X177790051Y-109897673D01*
X177752229Y-109787691D01*
X177706630Y-109665364D01*
X177657497Y-109542071D01*
X177609071Y-109429190D01*
X177565594Y-109338100D01*
X177565476Y-109337873D01*
X177471911Y-109185288D01*
X177352018Y-109031257D01*
X177216610Y-108887004D01*
X177076502Y-108763750D01*
X176942507Y-108672718D01*
X176906553Y-108654052D01*
X176688910Y-108572744D01*
X176453917Y-108524419D01*
X176216714Y-108510678D01*
X175992440Y-108533125D01*
X175920400Y-108549665D01*
X175746656Y-108617662D01*
X175610440Y-108719376D01*
X175509319Y-108857159D01*
X175448757Y-109005667D01*
X175424344Y-109131273D01*
X175413970Y-109287789D01*
X175417891Y-109457233D01*
X175436364Y-109621618D01*
X175439686Y-109640786D01*
X175453784Y-109704108D01*
X175480574Y-109810556D01*
X175518461Y-109954506D01*
X175565853Y-110130333D01*
X175621155Y-110332413D01*
X175682773Y-110555123D01*
X175749115Y-110792837D01*
X175818585Y-111039932D01*
X175889591Y-111290783D01*
X175960539Y-111539766D01*
X176029834Y-111781258D01*
X176095883Y-112009633D01*
X176157093Y-112219268D01*
X176211869Y-112404538D01*
X176258618Y-112559819D01*
X176295746Y-112679488D01*
X176321660Y-112757919D01*
X176327560Y-112774005D01*
X176455920Y-113048441D01*
X176613516Y-113285101D01*
X176797792Y-113482203D01*
X177006187Y-113637964D01*
X177236145Y-113750600D01*
X177485106Y-113818329D01*
X177750513Y-113839367D01*
X177850075Y-113835132D01*
G36*
X176114144Y-113828777D02*
X176123600Y-113809557D01*
X176116847Y-113780680D01*
X176097191Y-113706163D01*
X176065533Y-113589253D01*
X176022775Y-113433199D01*
X175969818Y-113241248D01*
X175907564Y-113016649D01*
X175836916Y-112762648D01*
X175758774Y-112482495D01*
X175674041Y-112179437D01*
X175583619Y-111856721D01*
X175488408Y-111517596D01*
X175398622Y-111198380D01*
X175299615Y-110846626D01*
X175204329Y-110507986D01*
X175113688Y-110185745D01*
X175028615Y-109883185D01*
X174950031Y-109603592D01*
X174878859Y-109350250D01*
X174816021Y-109126443D01*
X174762441Y-108935456D01*
X174719039Y-108780573D01*
X174686740Y-108665078D01*
X174666464Y-108592255D01*
X174659269Y-108565950D01*
X174645032Y-108532784D01*
X174614785Y-108515619D01*
X174554880Y-108509395D01*
X174505192Y-108508800D01*
X174425761Y-108510240D01*
X174386130Y-108517921D01*
X174375310Y-108536883D01*
X174380645Y-108565950D01*
X174389469Y-108597739D01*
X174411148Y-108675159D01*
X174444765Y-108794945D01*
X174489400Y-108953832D01*
X174544135Y-109148554D01*
X174608052Y-109375847D01*
X174680233Y-109632444D01*
X174759758Y-109915081D01*
X174845711Y-110220492D01*
X174937171Y-110545411D01*
X175033221Y-110886574D01*
X175128968Y-111226600D01*
X175862138Y-113830100D01*
X175992869Y-113837778D01*
X176073779Y-113838929D01*
X176114144Y-113828777D01*
X176114144Y-113828777D01*
G37*
X176114144Y-113828777D02*
X176123600Y-113809557D01*
X176116847Y-113780680D01*
X176097191Y-113706163D01*
X176065533Y-113589253D01*
X176022775Y-113433199D01*
X175969818Y-113241248D01*
X175907564Y-113016649D01*
X175836916Y-112762648D01*
X175758774Y-112482495D01*
X175674041Y-112179437D01*
X175583619Y-111856721D01*
X175488408Y-111517596D01*
X175398622Y-111198380D01*
X175299615Y-110846626D01*
X175204329Y-110507986D01*
X175113688Y-110185745D01*
X175028615Y-109883185D01*
X174950031Y-109603592D01*
X174878859Y-109350250D01*
X174816021Y-109126443D01*
X174762441Y-108935456D01*
X174719039Y-108780573D01*
X174686740Y-108665078D01*
X174666464Y-108592255D01*
X174659269Y-108565950D01*
X174645032Y-108532784D01*
X174614785Y-108515619D01*
X174554880Y-108509395D01*
X174505192Y-108508800D01*
X174425761Y-108510240D01*
X174386130Y-108517921D01*
X174375310Y-108536883D01*
X174380645Y-108565950D01*
X174389469Y-108597739D01*
X174411148Y-108675159D01*
X174444765Y-108794945D01*
X174489400Y-108953832D01*
X174544135Y-109148554D01*
X174608052Y-109375847D01*
X174680233Y-109632444D01*
X174759758Y-109915081D01*
X174845711Y-110220492D01*
X174937171Y-110545411D01*
X175033221Y-110886574D01*
X175128968Y-111226600D01*
X175862138Y-113830100D01*
X175992869Y-113837778D01*
X176073779Y-113838929D01*
X176114144Y-113828777D01*
G36*
X173522746Y-113838906D02*
X173702404Y-113836869D01*
X173704250Y-113836843D01*
X173916980Y-113833361D01*
X174085461Y-113829347D01*
X174216240Y-113824358D01*
X174315866Y-113817950D01*
X174390891Y-113809678D01*
X174447861Y-113799099D01*
X174493328Y-113785770D01*
X174501388Y-113782821D01*
X174658421Y-113698656D01*
X174788095Y-113578669D01*
X174880141Y-113432380D01*
X174880687Y-113431155D01*
X174921285Y-113293930D01*
X174940065Y-113121631D01*
X174937143Y-112925007D01*
X174912640Y-112714803D01*
X174870549Y-112516394D01*
X174763690Y-112172305D01*
X174634653Y-111873897D01*
X174483417Y-111621139D01*
X174309964Y-111413998D01*
X174114273Y-111252442D01*
X174040800Y-111206820D01*
X173975100Y-111169135D01*
X173930772Y-111143599D01*
X173920101Y-111137365D01*
X173932610Y-111118569D01*
X173971577Y-111073723D01*
X174018905Y-111022780D01*
X174109273Y-110916908D01*
X174170691Y-110813925D01*
X174207839Y-110700227D01*
X174225398Y-110562207D01*
X174228402Y-110413800D01*
X174227146Y-110337288D01*
X174223914Y-110268653D01*
X174217236Y-110201027D01*
X174205642Y-110127544D01*
X174187664Y-110041337D01*
X174161832Y-109935540D01*
X174126679Y-109803286D01*
X174080733Y-109637707D01*
X174022527Y-109431938D01*
X174005600Y-109372400D01*
X173951094Y-109180891D01*
X173900636Y-109003802D01*
X173856013Y-108847397D01*
X173819013Y-108717936D01*
X173791427Y-108621681D01*
X173775042Y-108564894D01*
X173771606Y-108553250D01*
X173752204Y-108526348D01*
X173707186Y-108512722D01*
X173624389Y-108508806D01*
X173619988Y-108508800D01*
X173543997Y-108510763D01*
X173493879Y-108515818D01*
X173482000Y-108520590D01*
X173488630Y-108547033D01*
X173507419Y-108616401D01*
X173536714Y-108722734D01*
X173574863Y-108860071D01*
X173620211Y-109022452D01*
X173671106Y-109203914D01*
X173698062Y-109299740D01*
X173752902Y-109496560D01*
X173804205Y-109684570D01*
X173850021Y-109856320D01*
X173888397Y-110004357D01*
X173917383Y-110121231D01*
X173935028Y-110199491D01*
X173938296Y-110217201D01*
X173949442Y-110412235D01*
X173916783Y-110583147D01*
X173840995Y-110728456D01*
X173722754Y-110846683D01*
X173622527Y-110908782D01*
X173569350Y-110935341D01*
X173522733Y-110955046D01*
X173473859Y-110969080D01*
X173413913Y-110978623D01*
X173334080Y-110984857D01*
X173225545Y-110988962D01*
X173079491Y-110992119D01*
X172988511Y-110993732D01*
X172504100Y-111002163D01*
X172200894Y-109914232D01*
X172135988Y-109681585D01*
X172073681Y-109458714D01*
X172015637Y-109251535D01*
X171963518Y-109065964D01*
X171918987Y-108907917D01*
X171883708Y-108783311D01*
X171859344Y-108698060D01*
X171850444Y-108667550D01*
X171803199Y-108508800D01*
X171677399Y-108508800D01*
X171597350Y-108513140D01*
X171558712Y-108527891D01*
X171551600Y-108546006D01*
X171558351Y-108575027D01*
X171578010Y-108649715D01*
X171609682Y-108766846D01*
X171652473Y-108923199D01*
X171705488Y-109115549D01*
X171767833Y-109340674D01*
X171838615Y-109595352D01*
X171916938Y-109876359D01*
X172001909Y-110180473D01*
X172092634Y-110504471D01*
X172188218Y-110845130D01*
X172287767Y-111199227D01*
X172288200Y-111200764D01*
X172313180Y-111289568D01*
X172593000Y-111289568D01*
X172617027Y-111285581D01*
X172683618Y-111282142D01*
X172784539Y-111279483D01*
X172911555Y-111277835D01*
X173026135Y-111277400D01*
X173240944Y-111279939D01*
X173412360Y-111287870D01*
X173547556Y-111301667D01*
X173636874Y-111317795D01*
X173839629Y-111386209D01*
X174020404Y-111495013D01*
X174180355Y-111645656D01*
X174320637Y-111839589D01*
X174442406Y-112078261D01*
X174546817Y-112363124D01*
X174590594Y-112514768D01*
X174644172Y-112765604D01*
X174661289Y-112981174D01*
X174641926Y-113161607D01*
X174586065Y-113307028D01*
X174493688Y-113417566D01*
X174453048Y-113447825D01*
X174385999Y-113486224D01*
X174311743Y-113515318D01*
X174222338Y-113536288D01*
X174109837Y-113550318D01*
X173966298Y-113558590D01*
X173783775Y-113562285D01*
X173680561Y-113562780D01*
X173518398Y-113562590D01*
X173399949Y-113561059D01*
X173318133Y-113557515D01*
X173265870Y-113551288D01*
X173236079Y-113541708D01*
X173221678Y-113528103D01*
X173217840Y-113518950D01*
X173204926Y-113474738D01*
X173180746Y-113390079D01*
X173146966Y-113270921D01*
X173105254Y-113123214D01*
X173057278Y-112952909D01*
X173004704Y-112765954D01*
X172949202Y-112568300D01*
X172892438Y-112365896D01*
X172836079Y-112164691D01*
X172781794Y-111970635D01*
X172731249Y-111789678D01*
X172686113Y-111627769D01*
X172648053Y-111490858D01*
X172618736Y-111384895D01*
X172599829Y-111315828D01*
X172593001Y-111289609D01*
X172593000Y-111289568D01*
X172313180Y-111289568D01*
X172387674Y-111554383D01*
X172483196Y-111894201D01*
X172573873Y-112217031D01*
X172658813Y-112519687D01*
X172737125Y-112798984D01*
X172807916Y-113051735D01*
X172870295Y-113274755D01*
X172923370Y-113464857D01*
X172966250Y-113618855D01*
X172998042Y-113733564D01*
X173017856Y-113805796D01*
X173024798Y-113832367D01*
X173024800Y-113832402D01*
X173049099Y-113835784D01*
X173117617Y-113838169D01*
X173223780Y-113839513D01*
X173361014Y-113839773D01*
X173522746Y-113838906D01*
X173522746Y-113838906D01*
G37*
X173522746Y-113838906D02*
X173702404Y-113836869D01*
X173704250Y-113836843D01*
X173916980Y-113833361D01*
X174085461Y-113829347D01*
X174216240Y-113824358D01*
X174315866Y-113817950D01*
X174390891Y-113809678D01*
X174447861Y-113799099D01*
X174493328Y-113785770D01*
X174501388Y-113782821D01*
X174658421Y-113698656D01*
X174788095Y-113578669D01*
X174880141Y-113432380D01*
X174880687Y-113431155D01*
X174921285Y-113293930D01*
X174940065Y-113121631D01*
X174937143Y-112925007D01*
X174912640Y-112714803D01*
X174870549Y-112516394D01*
X174763690Y-112172305D01*
X174634653Y-111873897D01*
X174483417Y-111621139D01*
X174309964Y-111413998D01*
X174114273Y-111252442D01*
X174040800Y-111206820D01*
X173975100Y-111169135D01*
X173930772Y-111143599D01*
X173920101Y-111137365D01*
X173932610Y-111118569D01*
X173971577Y-111073723D01*
X174018905Y-111022780D01*
X174109273Y-110916908D01*
X174170691Y-110813925D01*
X174207839Y-110700227D01*
X174225398Y-110562207D01*
X174228402Y-110413800D01*
X174227146Y-110337288D01*
X174223914Y-110268653D01*
X174217236Y-110201027D01*
X174205642Y-110127544D01*
X174187664Y-110041337D01*
X174161832Y-109935540D01*
X174126679Y-109803286D01*
X174080733Y-109637707D01*
X174022527Y-109431938D01*
X174005600Y-109372400D01*
X173951094Y-109180891D01*
X173900636Y-109003802D01*
X173856013Y-108847397D01*
X173819013Y-108717936D01*
X173791427Y-108621681D01*
X173775042Y-108564894D01*
X173771606Y-108553250D01*
X173752204Y-108526348D01*
X173707186Y-108512722D01*
X173624389Y-108508806D01*
X173619988Y-108508800D01*
X173543997Y-108510763D01*
X173493879Y-108515818D01*
X173482000Y-108520590D01*
X173488630Y-108547033D01*
X173507419Y-108616401D01*
X173536714Y-108722734D01*
X173574863Y-108860071D01*
X173620211Y-109022452D01*
X173671106Y-109203914D01*
X173698062Y-109299740D01*
X173752902Y-109496560D01*
X173804205Y-109684570D01*
X173850021Y-109856320D01*
X173888397Y-110004357D01*
X173917383Y-110121231D01*
X173935028Y-110199491D01*
X173938296Y-110217201D01*
X173949442Y-110412235D01*
X173916783Y-110583147D01*
X173840995Y-110728456D01*
X173722754Y-110846683D01*
X173622527Y-110908782D01*
X173569350Y-110935341D01*
X173522733Y-110955046D01*
X173473859Y-110969080D01*
X173413913Y-110978623D01*
X173334080Y-110984857D01*
X173225545Y-110988962D01*
X173079491Y-110992119D01*
X172988511Y-110993732D01*
X172504100Y-111002163D01*
X172200894Y-109914232D01*
X172135988Y-109681585D01*
X172073681Y-109458714D01*
X172015637Y-109251535D01*
X171963518Y-109065964D01*
X171918987Y-108907917D01*
X171883708Y-108783311D01*
X171859344Y-108698060D01*
X171850444Y-108667550D01*
X171803199Y-108508800D01*
X171677399Y-108508800D01*
X171597350Y-108513140D01*
X171558712Y-108527891D01*
X171551600Y-108546006D01*
X171558351Y-108575027D01*
X171578010Y-108649715D01*
X171609682Y-108766846D01*
X171652473Y-108923199D01*
X171705488Y-109115549D01*
X171767833Y-109340674D01*
X171838615Y-109595352D01*
X171916938Y-109876359D01*
X172001909Y-110180473D01*
X172092634Y-110504471D01*
X172188218Y-110845130D01*
X172287767Y-111199227D01*
X172288200Y-111200764D01*
X172313180Y-111289568D01*
X172593000Y-111289568D01*
X172617027Y-111285581D01*
X172683618Y-111282142D01*
X172784539Y-111279483D01*
X172911555Y-111277835D01*
X173026135Y-111277400D01*
X173240944Y-111279939D01*
X173412360Y-111287870D01*
X173547556Y-111301667D01*
X173636874Y-111317795D01*
X173839629Y-111386209D01*
X174020404Y-111495013D01*
X174180355Y-111645656D01*
X174320637Y-111839589D01*
X174442406Y-112078261D01*
X174546817Y-112363124D01*
X174590594Y-112514768D01*
X174644172Y-112765604D01*
X174661289Y-112981174D01*
X174641926Y-113161607D01*
X174586065Y-113307028D01*
X174493688Y-113417566D01*
X174453048Y-113447825D01*
X174385999Y-113486224D01*
X174311743Y-113515318D01*
X174222338Y-113536288D01*
X174109837Y-113550318D01*
X173966298Y-113558590D01*
X173783775Y-113562285D01*
X173680561Y-113562780D01*
X173518398Y-113562590D01*
X173399949Y-113561059D01*
X173318133Y-113557515D01*
X173265870Y-113551288D01*
X173236079Y-113541708D01*
X173221678Y-113528103D01*
X173217840Y-113518950D01*
X173204926Y-113474738D01*
X173180746Y-113390079D01*
X173146966Y-113270921D01*
X173105254Y-113123214D01*
X173057278Y-112952909D01*
X173004704Y-112765954D01*
X172949202Y-112568300D01*
X172892438Y-112365896D01*
X172836079Y-112164691D01*
X172781794Y-111970635D01*
X172731249Y-111789678D01*
X172686113Y-111627769D01*
X172648053Y-111490858D01*
X172618736Y-111384895D01*
X172599829Y-111315828D01*
X172593001Y-111289609D01*
X172593000Y-111289568D01*
X172313180Y-111289568D01*
X172387674Y-111554383D01*
X172483196Y-111894201D01*
X172573873Y-112217031D01*
X172658813Y-112519687D01*
X172737125Y-112798984D01*
X172807916Y-113051735D01*
X172870295Y-113274755D01*
X172923370Y-113464857D01*
X172966250Y-113618855D01*
X172998042Y-113733564D01*
X173017856Y-113805796D01*
X173024798Y-113832367D01*
X173024800Y-113832402D01*
X173049099Y-113835784D01*
X173117617Y-113838169D01*
X173223780Y-113839513D01*
X173361014Y-113839773D01*
X173522746Y-113838906D01*
G36*
X171497298Y-113842659D02*
X171743662Y-113842252D01*
X171969605Y-113841606D01*
X172170561Y-113840746D01*
X172341962Y-113839700D01*
X172479244Y-113838493D01*
X172577840Y-113837152D01*
X172633183Y-113835703D01*
X172643800Y-113834711D01*
X172637185Y-113807941D01*
X172620175Y-113747725D01*
X172604844Y-113695445D01*
X172565889Y-113564269D01*
X171927653Y-113557485D01*
X171289417Y-113550700D01*
X170599343Y-111099600D01*
X170502682Y-110756193D01*
X170409701Y-110425713D01*
X170321352Y-110111554D01*
X170238589Y-109817112D01*
X170162363Y-109545779D01*
X170093628Y-109300950D01*
X170033337Y-109086021D01*
X169982441Y-108904384D01*
X169941895Y-108759435D01*
X169912649Y-108654567D01*
X169895658Y-108593175D01*
X169891750Y-108578650D01*
X169877781Y-108538446D01*
X169852504Y-108517621D01*
X169801741Y-108509856D01*
X169735016Y-108508800D01*
X169658707Y-108509848D01*
X169608279Y-108512549D01*
X169596124Y-108515150D01*
X169602905Y-108539949D01*
X169622550Y-108610405D01*
X169654150Y-108723282D01*
X169696794Y-108875341D01*
X169749572Y-109063344D01*
X169811575Y-109284052D01*
X169881892Y-109534226D01*
X169959615Y-109810629D01*
X170043831Y-110110023D01*
X170133633Y-110429168D01*
X170228109Y-110764827D01*
X170304483Y-111036100D01*
X171012517Y-113550700D01*
X170377810Y-113557492D01*
X170179123Y-113559995D01*
X170025923Y-113562974D01*
X169912894Y-113566793D01*
X169834723Y-113571822D01*
X169786096Y-113578426D01*
X169761700Y-113586971D01*
X169756220Y-113597826D01*
X169756945Y-113600353D01*
X169772098Y-113646892D01*
X169792701Y-113718124D01*
X169798572Y-113739612D01*
X169826358Y-113842800D01*
X171235079Y-113842800D01*
X171497298Y-113842659D01*
X171497298Y-113842659D01*
G37*
X171497298Y-113842659D02*
X171743662Y-113842252D01*
X171969605Y-113841606D01*
X172170561Y-113840746D01*
X172341962Y-113839700D01*
X172479244Y-113838493D01*
X172577840Y-113837152D01*
X172633183Y-113835703D01*
X172643800Y-113834711D01*
X172637185Y-113807941D01*
X172620175Y-113747725D01*
X172604844Y-113695445D01*
X172565889Y-113564269D01*
X171927653Y-113557485D01*
X171289417Y-113550700D01*
X170599343Y-111099600D01*
X170502682Y-110756193D01*
X170409701Y-110425713D01*
X170321352Y-110111554D01*
X170238589Y-109817112D01*
X170162363Y-109545779D01*
X170093628Y-109300950D01*
X170033337Y-109086021D01*
X169982441Y-108904384D01*
X169941895Y-108759435D01*
X169912649Y-108654567D01*
X169895658Y-108593175D01*
X169891750Y-108578650D01*
X169877781Y-108538446D01*
X169852504Y-108517621D01*
X169801741Y-108509856D01*
X169735016Y-108508800D01*
X169658707Y-108509848D01*
X169608279Y-108512549D01*
X169596124Y-108515150D01*
X169602905Y-108539949D01*
X169622550Y-108610405D01*
X169654150Y-108723282D01*
X169696794Y-108875341D01*
X169749572Y-109063344D01*
X169811575Y-109284052D01*
X169881892Y-109534226D01*
X169959615Y-109810629D01*
X170043831Y-110110023D01*
X170133633Y-110429168D01*
X170228109Y-110764827D01*
X170304483Y-111036100D01*
X171012517Y-113550700D01*
X170377810Y-113557492D01*
X170179123Y-113559995D01*
X170025923Y-113562974D01*
X169912894Y-113566793D01*
X169834723Y-113571822D01*
X169786096Y-113578426D01*
X169761700Y-113586971D01*
X169756220Y-113597826D01*
X169756945Y-113600353D01*
X169772098Y-113646892D01*
X169792701Y-113718124D01*
X169798572Y-113739612D01*
X169826358Y-113842800D01*
X171235079Y-113842800D01*
X171497298Y-113842659D01*
G36*
X168648024Y-113828819D02*
X168741924Y-113825534D01*
X168812037Y-113816863D01*
X168871868Y-113800481D01*
X168934920Y-113774065D01*
X168989515Y-113747716D01*
X169139256Y-113649433D01*
X169251560Y-113520021D01*
X169326582Y-113358762D01*
X169364479Y-113164940D01*
X169365405Y-112937836D01*
X169329518Y-112676733D01*
X169273467Y-112439450D01*
X169233505Y-112293400D01*
X169097152Y-112293400D01*
X169021679Y-112295894D01*
X168972163Y-112302313D01*
X168960800Y-112308219D01*
X168966586Y-112338217D01*
X168981934Y-112404503D01*
X169003822Y-112494147D01*
X169009730Y-112517769D01*
X169059047Y-112749054D01*
X169080172Y-112942970D01*
X169072607Y-113104731D01*
X169035857Y-113239554D01*
X168969424Y-113352655D01*
X168925532Y-113402079D01*
X168834804Y-113477914D01*
X168735040Y-113527481D01*
X168615031Y-113553900D01*
X168463566Y-113560290D01*
X168369565Y-113556783D01*
X168241240Y-113546055D01*
X168142332Y-113527310D01*
X168051543Y-113495489D01*
X167988565Y-113466270D01*
X167806748Y-113349126D01*
X167641967Y-113187342D01*
X167497726Y-112985246D01*
X167377528Y-112747163D01*
X167349759Y-112677554D01*
X167330745Y-112620864D01*
X167299856Y-112520891D01*
X167258703Y-112383330D01*
X167208897Y-112213876D01*
X167152050Y-112018223D01*
X167089774Y-111802065D01*
X167023680Y-111571097D01*
X166955378Y-111331014D01*
X166886482Y-111087510D01*
X166818602Y-110846279D01*
X166753350Y-110613016D01*
X166692337Y-110393415D01*
X166637174Y-110193171D01*
X166589474Y-110017979D01*
X166550848Y-109873533D01*
X166522906Y-109765527D01*
X166507885Y-109702600D01*
X166488208Y-109585341D01*
X166475222Y-109459174D01*
X166472182Y-109385100D01*
X166487762Y-109197651D01*
X166536415Y-109047460D01*
X166619791Y-108932976D01*
X166739541Y-108852647D01*
X166897315Y-108804922D01*
X167094765Y-108788248D01*
X167107148Y-108788200D01*
X167337009Y-108810249D01*
X167544841Y-108876701D01*
X167731149Y-108988018D01*
X167896440Y-109144659D01*
X168041221Y-109347085D01*
X168165996Y-109595757D01*
X168252171Y-109829600D01*
X168321492Y-110045500D01*
X168463346Y-110053118D01*
X168540459Y-110055370D01*
X168591978Y-110053257D01*
X168605200Y-110049059D01*
X168597824Y-110021447D01*
X168577969Y-109956571D01*
X168549047Y-109865417D01*
X168527933Y-109800141D01*
X168405143Y-109481225D01*
X168259241Y-109207541D01*
X168090231Y-108979091D01*
X167898114Y-108795879D01*
X167682893Y-108657905D01*
X167444571Y-108565173D01*
X167183150Y-108517684D01*
X167017700Y-108510890D01*
X166902353Y-108515632D01*
X166789950Y-108526848D01*
X166703570Y-108542187D01*
X166698944Y-108543395D01*
X166522029Y-108613963D01*
X166380930Y-108720521D01*
X166275787Y-108862941D01*
X166229233Y-108967745D01*
X166205140Y-109073168D01*
X166192241Y-109213025D01*
X166190586Y-109372191D01*
X166200222Y-109535538D01*
X166221199Y-109687939D01*
X166226830Y-109716108D01*
X166240718Y-109773316D01*
X166266954Y-109873589D01*
X166303921Y-110011150D01*
X166349997Y-110180221D01*
X166403563Y-110375026D01*
X166463001Y-110589787D01*
X166526690Y-110818726D01*
X166593011Y-111056068D01*
X166660344Y-111296034D01*
X166727070Y-111532848D01*
X166791570Y-111760732D01*
X166852224Y-111973909D01*
X166907413Y-112166603D01*
X166955516Y-112333036D01*
X166994915Y-112467431D01*
X167023990Y-112564010D01*
X167034761Y-112598200D01*
X167152023Y-112896540D01*
X167297328Y-113158022D01*
X167468813Y-113380464D01*
X167664618Y-113561685D01*
X167882879Y-113699504D01*
X168028213Y-113762037D01*
X168117632Y-113791679D01*
X168199048Y-113811091D01*
X168287899Y-113822389D01*
X168399623Y-113827691D01*
X168516834Y-113829041D01*
X168648024Y-113828819D01*
X168648024Y-113828819D01*
G37*
X168648024Y-113828819D02*
X168741924Y-113825534D01*
X168812037Y-113816863D01*
X168871868Y-113800481D01*
X168934920Y-113774065D01*
X168989515Y-113747716D01*
X169139256Y-113649433D01*
X169251560Y-113520021D01*
X169326582Y-113358762D01*
X169364479Y-113164940D01*
X169365405Y-112937836D01*
X169329518Y-112676733D01*
X169273467Y-112439450D01*
X169233505Y-112293400D01*
X169097152Y-112293400D01*
X169021679Y-112295894D01*
X168972163Y-112302313D01*
X168960800Y-112308219D01*
X168966586Y-112338217D01*
X168981934Y-112404503D01*
X169003822Y-112494147D01*
X169009730Y-112517769D01*
X169059047Y-112749054D01*
X169080172Y-112942970D01*
X169072607Y-113104731D01*
X169035857Y-113239554D01*
X168969424Y-113352655D01*
X168925532Y-113402079D01*
X168834804Y-113477914D01*
X168735040Y-113527481D01*
X168615031Y-113553900D01*
X168463566Y-113560290D01*
X168369565Y-113556783D01*
X168241240Y-113546055D01*
X168142332Y-113527310D01*
X168051543Y-113495489D01*
X167988565Y-113466270D01*
X167806748Y-113349126D01*
X167641967Y-113187342D01*
X167497726Y-112985246D01*
X167377528Y-112747163D01*
X167349759Y-112677554D01*
X167330745Y-112620864D01*
X167299856Y-112520891D01*
X167258703Y-112383330D01*
X167208897Y-112213876D01*
X167152050Y-112018223D01*
X167089774Y-111802065D01*
X167023680Y-111571097D01*
X166955378Y-111331014D01*
X166886482Y-111087510D01*
X166818602Y-110846279D01*
X166753350Y-110613016D01*
X166692337Y-110393415D01*
X166637174Y-110193171D01*
X166589474Y-110017979D01*
X166550848Y-109873533D01*
X166522906Y-109765527D01*
X166507885Y-109702600D01*
X166488208Y-109585341D01*
X166475222Y-109459174D01*
X166472182Y-109385100D01*
X166487762Y-109197651D01*
X166536415Y-109047460D01*
X166619791Y-108932976D01*
X166739541Y-108852647D01*
X166897315Y-108804922D01*
X167094765Y-108788248D01*
X167107148Y-108788200D01*
X167337009Y-108810249D01*
X167544841Y-108876701D01*
X167731149Y-108988018D01*
X167896440Y-109144659D01*
X168041221Y-109347085D01*
X168165996Y-109595757D01*
X168252171Y-109829600D01*
X168321492Y-110045500D01*
X168463346Y-110053118D01*
X168540459Y-110055370D01*
X168591978Y-110053257D01*
X168605200Y-110049059D01*
X168597824Y-110021447D01*
X168577969Y-109956571D01*
X168549047Y-109865417D01*
X168527933Y-109800141D01*
X168405143Y-109481225D01*
X168259241Y-109207541D01*
X168090231Y-108979091D01*
X167898114Y-108795879D01*
X167682893Y-108657905D01*
X167444571Y-108565173D01*
X167183150Y-108517684D01*
X167017700Y-108510890D01*
X166902353Y-108515632D01*
X166789950Y-108526848D01*
X166703570Y-108542187D01*
X166698944Y-108543395D01*
X166522029Y-108613963D01*
X166380930Y-108720521D01*
X166275787Y-108862941D01*
X166229233Y-108967745D01*
X166205140Y-109073168D01*
X166192241Y-109213025D01*
X166190586Y-109372191D01*
X166200222Y-109535538D01*
X166221199Y-109687939D01*
X166226830Y-109716108D01*
X166240718Y-109773316D01*
X166266954Y-109873589D01*
X166303921Y-110011150D01*
X166349997Y-110180221D01*
X166403563Y-110375026D01*
X166463001Y-110589787D01*
X166526690Y-110818726D01*
X166593011Y-111056068D01*
X166660344Y-111296034D01*
X166727070Y-111532848D01*
X166791570Y-111760732D01*
X166852224Y-111973909D01*
X166907413Y-112166603D01*
X166955516Y-112333036D01*
X166994915Y-112467431D01*
X167023990Y-112564010D01*
X167034761Y-112598200D01*
X167152023Y-112896540D01*
X167297328Y-113158022D01*
X167468813Y-113380464D01*
X167664618Y-113561685D01*
X167882879Y-113699504D01*
X168028213Y-113762037D01*
X168117632Y-113791679D01*
X168199048Y-113811091D01*
X168287899Y-113822389D01*
X168399623Y-113827691D01*
X168516834Y-113829041D01*
X168648024Y-113828819D01*
G36*
X166247725Y-113842191D02*
X166477485Y-113840341D01*
X166658801Y-113837218D01*
X166792841Y-113832789D01*
X166880776Y-113827021D01*
X166923776Y-113819882D01*
X166928800Y-113815948D01*
X166922971Y-113776557D01*
X166908278Y-113708657D01*
X166900384Y-113676248D01*
X166871969Y-113563401D01*
X166037268Y-113563400D01*
X165202567Y-113563400D01*
X165185095Y-113493550D01*
X165174640Y-113454794D01*
X165151900Y-113372583D01*
X165118397Y-113252350D01*
X165075652Y-113099530D01*
X165025185Y-112919554D01*
X164968518Y-112717857D01*
X164907172Y-112499872D01*
X164870464Y-112369600D01*
X164573305Y-111315500D01*
X165395452Y-111308803D01*
X165643939Y-111306171D01*
X165844201Y-111302657D01*
X165998809Y-111298150D01*
X166110333Y-111292542D01*
X166181342Y-111285721D01*
X166214407Y-111277579D01*
X166217600Y-111273650D01*
X166210740Y-111232543D01*
X166193710Y-111165965D01*
X166188179Y-111146997D01*
X166158758Y-111048800D01*
X164498342Y-111048800D01*
X164350162Y-110521750D01*
X164296588Y-110331224D01*
X164234120Y-110109110D01*
X164167626Y-109872717D01*
X164101976Y-109639357D01*
X164042039Y-109426342D01*
X164034007Y-109397800D01*
X163866032Y-108800900D01*
X164686216Y-108794203D01*
X164948649Y-108791253D01*
X165160450Y-108787099D01*
X165321771Y-108781734D01*
X165432766Y-108775152D01*
X165493588Y-108767346D01*
X165506400Y-108761001D01*
X165500575Y-108721839D01*
X165485890Y-108654094D01*
X165477984Y-108621648D01*
X165449569Y-108508800D01*
X164487384Y-108508800D01*
X164229539Y-108509155D01*
X164018660Y-108510300D01*
X163850918Y-108512363D01*
X163722484Y-108515468D01*
X163629528Y-108519740D01*
X163568221Y-108525304D01*
X163534734Y-108532286D01*
X163525200Y-108540252D01*
X163531946Y-108568471D01*
X163551592Y-108642381D01*
X163583246Y-108758779D01*
X163626020Y-108914462D01*
X163679023Y-109106228D01*
X163741363Y-109330874D01*
X163812153Y-109585197D01*
X163890500Y-109865997D01*
X163975516Y-110170069D01*
X164066309Y-110494211D01*
X164161989Y-110835221D01*
X164261667Y-111189897D01*
X164266549Y-111207252D01*
X165007898Y-113842800D01*
X165968349Y-113842800D01*
X166247725Y-113842191D01*
X166247725Y-113842191D01*
G37*
X166247725Y-113842191D02*
X166477485Y-113840341D01*
X166658801Y-113837218D01*
X166792841Y-113832789D01*
X166880776Y-113827021D01*
X166923776Y-113819882D01*
X166928800Y-113815948D01*
X166922971Y-113776557D01*
X166908278Y-113708657D01*
X166900384Y-113676248D01*
X166871969Y-113563401D01*
X166037268Y-113563400D01*
X165202567Y-113563400D01*
X165185095Y-113493550D01*
X165174640Y-113454794D01*
X165151900Y-113372583D01*
X165118397Y-113252350D01*
X165075652Y-113099530D01*
X165025185Y-112919554D01*
X164968518Y-112717857D01*
X164907172Y-112499872D01*
X164870464Y-112369600D01*
X164573305Y-111315500D01*
X165395452Y-111308803D01*
X165643939Y-111306171D01*
X165844201Y-111302657D01*
X165998809Y-111298150D01*
X166110333Y-111292542D01*
X166181342Y-111285721D01*
X166214407Y-111277579D01*
X166217600Y-111273650D01*
X166210740Y-111232543D01*
X166193710Y-111165965D01*
X166188179Y-111146997D01*
X166158758Y-111048800D01*
X164498342Y-111048800D01*
X164350162Y-110521750D01*
X164296588Y-110331224D01*
X164234120Y-110109110D01*
X164167626Y-109872717D01*
X164101976Y-109639357D01*
X164042039Y-109426342D01*
X164034007Y-109397800D01*
X163866032Y-108800900D01*
X164686216Y-108794203D01*
X164948649Y-108791253D01*
X165160450Y-108787099D01*
X165321771Y-108781734D01*
X165432766Y-108775152D01*
X165493588Y-108767346D01*
X165506400Y-108761001D01*
X165500575Y-108721839D01*
X165485890Y-108654094D01*
X165477984Y-108621648D01*
X165449569Y-108508800D01*
X164487384Y-108508800D01*
X164229539Y-108509155D01*
X164018660Y-108510300D01*
X163850918Y-108512363D01*
X163722484Y-108515468D01*
X163629528Y-108519740D01*
X163568221Y-108525304D01*
X163534734Y-108532286D01*
X163525200Y-108540252D01*
X163531946Y-108568471D01*
X163551592Y-108642381D01*
X163583246Y-108758779D01*
X163626020Y-108914462D01*
X163679023Y-109106228D01*
X163741363Y-109330874D01*
X163812153Y-109585197D01*
X163890500Y-109865997D01*
X163975516Y-110170069D01*
X164066309Y-110494211D01*
X164161989Y-110835221D01*
X164261667Y-111189897D01*
X164266549Y-111207252D01*
X165007898Y-113842800D01*
X165968349Y-113842800D01*
X166247725Y-113842191D01*
G36*
X162853403Y-113839635D02*
X162903152Y-113831478D01*
X162914735Y-113823750D01*
X162907868Y-113797174D01*
X162888118Y-113724974D01*
X162856400Y-113610421D01*
X162813630Y-113456780D01*
X162760723Y-113267321D01*
X162698594Y-113045311D01*
X162628158Y-112794019D01*
X162550330Y-112516711D01*
X162466025Y-112216656D01*
X162376158Y-111897123D01*
X162281646Y-111561378D01*
X162208799Y-111302800D01*
X161503726Y-108800900D01*
X163275092Y-108787546D01*
X163257210Y-108705323D01*
X163237581Y-108628091D01*
X163217792Y-108565950D01*
X163196257Y-108508800D01*
X162165217Y-108508800D01*
X161909149Y-108508906D01*
X161699375Y-108509355D01*
X161531390Y-108510344D01*
X161400689Y-108512069D01*
X161302765Y-108514728D01*
X161233112Y-108518517D01*
X161187227Y-108523634D01*
X161160602Y-108530276D01*
X161148732Y-108538638D01*
X161147113Y-108548919D01*
X161148210Y-108553250D01*
X161156875Y-108583318D01*
X161178367Y-108659029D01*
X161211768Y-108777121D01*
X161256158Y-108934331D01*
X161310618Y-109127398D01*
X161374228Y-109353061D01*
X161446070Y-109608056D01*
X161525224Y-109889123D01*
X161610771Y-110192998D01*
X161701792Y-110516422D01*
X161797367Y-110856130D01*
X161887279Y-111175800D01*
X161986187Y-111527464D01*
X162081369Y-111865803D01*
X162171906Y-112187555D01*
X162256877Y-112489459D01*
X162335366Y-112768252D01*
X162406453Y-113020672D01*
X162469220Y-113243458D01*
X162522746Y-113433349D01*
X162566115Y-113587081D01*
X162598407Y-113701393D01*
X162618703Y-113773024D01*
X162625969Y-113798350D01*
X162645392Y-113825254D01*
X162690434Y-113838881D01*
X162773259Y-113842795D01*
X162777611Y-113842800D01*
X162853403Y-113839635D01*
X162853403Y-113839635D01*
G37*
X162853403Y-113839635D02*
X162903152Y-113831478D01*
X162914735Y-113823750D01*
X162907868Y-113797174D01*
X162888118Y-113724974D01*
X162856400Y-113610421D01*
X162813630Y-113456780D01*
X162760723Y-113267321D01*
X162698594Y-113045311D01*
X162628158Y-112794019D01*
X162550330Y-112516711D01*
X162466025Y-112216656D01*
X162376158Y-111897123D01*
X162281646Y-111561378D01*
X162208799Y-111302800D01*
X161503726Y-108800900D01*
X163275092Y-108787546D01*
X163257210Y-108705323D01*
X163237581Y-108628091D01*
X163217792Y-108565950D01*
X163196257Y-108508800D01*
X162165217Y-108508800D01*
X161909149Y-108508906D01*
X161699375Y-108509355D01*
X161531390Y-108510344D01*
X161400689Y-108512069D01*
X161302765Y-108514728D01*
X161233112Y-108518517D01*
X161187227Y-108523634D01*
X161160602Y-108530276D01*
X161148732Y-108538638D01*
X161147113Y-108548919D01*
X161148210Y-108553250D01*
X161156875Y-108583318D01*
X161178367Y-108659029D01*
X161211768Y-108777121D01*
X161256158Y-108934331D01*
X161310618Y-109127398D01*
X161374228Y-109353061D01*
X161446070Y-109608056D01*
X161525224Y-109889123D01*
X161610771Y-110192998D01*
X161701792Y-110516422D01*
X161797367Y-110856130D01*
X161887279Y-111175800D01*
X161986187Y-111527464D01*
X162081369Y-111865803D01*
X162171906Y-112187555D01*
X162256877Y-112489459D01*
X162335366Y-112768252D01*
X162406453Y-113020672D01*
X162469220Y-113243458D01*
X162522746Y-113433349D01*
X162566115Y-113587081D01*
X162598407Y-113701393D01*
X162618703Y-113773024D01*
X162625969Y-113798350D01*
X162645392Y-113825254D01*
X162690434Y-113838881D01*
X162773259Y-113842795D01*
X162777611Y-113842800D01*
X162853403Y-113839635D01*
G36*
X161482110Y-113842316D02*
X161680824Y-113840937D01*
X161857191Y-113838771D01*
X162005694Y-113835929D01*
X162120811Y-113832518D01*
X162197026Y-113828649D01*
X162228817Y-113824431D01*
X162229414Y-113823750D01*
X162222444Y-113789864D01*
X162205240Y-113725928D01*
X162194875Y-113690400D01*
X162160721Y-113576100D01*
X161327601Y-113563400D01*
X160494480Y-113550700D01*
X160182007Y-112445800D01*
X160117641Y-112217869D01*
X160057704Y-112004972D01*
X160003583Y-111812085D01*
X159956666Y-111644188D01*
X159918343Y-111506257D01*
X159890000Y-111403271D01*
X159873026Y-111340206D01*
X159868566Y-111321850D01*
X159892733Y-111317260D01*
X159961745Y-111313068D01*
X160069649Y-111309410D01*
X160210490Y-111306426D01*
X160378316Y-111304252D01*
X160567172Y-111303025D01*
X160693583Y-111302800D01*
X161519567Y-111302800D01*
X161502664Y-111232950D01*
X161481749Y-111157584D01*
X161464709Y-111105950D01*
X161443657Y-111048800D01*
X159793551Y-111048800D01*
X159743022Y-110877350D01*
X159724512Y-110813340D01*
X159694238Y-110707186D01*
X159654115Y-110565669D01*
X159606059Y-110395569D01*
X159551985Y-110203666D01*
X159493809Y-109996741D01*
X159436229Y-109791500D01*
X159377828Y-109583211D01*
X159323383Y-109389216D01*
X159274500Y-109215223D01*
X159232785Y-109066940D01*
X159199844Y-108950076D01*
X159177282Y-108870339D01*
X159166707Y-108833438D01*
X159166470Y-108832650D01*
X159165409Y-108820456D01*
X159173768Y-108810714D01*
X159196560Y-108803151D01*
X159238795Y-108797493D01*
X159305483Y-108793468D01*
X159401635Y-108790800D01*
X159532262Y-108789217D01*
X159702375Y-108788444D01*
X159916984Y-108788208D01*
X159980188Y-108788200D01*
X160179374Y-108787638D01*
X160361293Y-108786044D01*
X160519991Y-108783554D01*
X160649513Y-108780306D01*
X160743904Y-108776437D01*
X160797208Y-108772084D01*
X160807014Y-108769150D01*
X160800043Y-108735265D01*
X160782835Y-108671330D01*
X160772466Y-108635800D01*
X160738304Y-108521500D01*
X159767744Y-108514847D01*
X159520076Y-108513258D01*
X159318561Y-108512348D01*
X159158553Y-108512301D01*
X159035407Y-108513302D01*
X158944477Y-108515538D01*
X158881120Y-108519191D01*
X158840688Y-108524448D01*
X158818538Y-108531493D01*
X158810023Y-108540512D01*
X158810500Y-108551689D01*
X158810867Y-108552947D01*
X158819489Y-108583102D01*
X158840915Y-108658878D01*
X158874221Y-108776986D01*
X158918483Y-108934139D01*
X158972775Y-109127047D01*
X159036172Y-109352423D01*
X159107751Y-109606978D01*
X159186585Y-109887423D01*
X159271749Y-110190470D01*
X159362320Y-110512831D01*
X159457373Y-110851218D01*
X159537829Y-111137700D01*
X159636140Y-111487689D01*
X159730937Y-111824976D01*
X159821276Y-112146210D01*
X159906211Y-112448037D01*
X159984795Y-112727103D01*
X160056085Y-112980054D01*
X160119134Y-113203539D01*
X160172997Y-113394202D01*
X160216728Y-113548691D01*
X160249383Y-113663653D01*
X160270015Y-113735733D01*
X160277223Y-113760250D01*
X160303339Y-113842800D01*
X161266569Y-113842800D01*
X161482110Y-113842316D01*
X161482110Y-113842316D01*
G37*
X161482110Y-113842316D02*
X161680824Y-113840937D01*
X161857191Y-113838771D01*
X162005694Y-113835929D01*
X162120811Y-113832518D01*
X162197026Y-113828649D01*
X162228817Y-113824431D01*
X162229414Y-113823750D01*
X162222444Y-113789864D01*
X162205240Y-113725928D01*
X162194875Y-113690400D01*
X162160721Y-113576100D01*
X161327601Y-113563400D01*
X160494480Y-113550700D01*
X160182007Y-112445800D01*
X160117641Y-112217869D01*
X160057704Y-112004972D01*
X160003583Y-111812085D01*
X159956666Y-111644188D01*
X159918343Y-111506257D01*
X159890000Y-111403271D01*
X159873026Y-111340206D01*
X159868566Y-111321850D01*
X159892733Y-111317260D01*
X159961745Y-111313068D01*
X160069649Y-111309410D01*
X160210490Y-111306426D01*
X160378316Y-111304252D01*
X160567172Y-111303025D01*
X160693583Y-111302800D01*
X161519567Y-111302800D01*
X161502664Y-111232950D01*
X161481749Y-111157584D01*
X161464709Y-111105950D01*
X161443657Y-111048800D01*
X159793551Y-111048800D01*
X159743022Y-110877350D01*
X159724512Y-110813340D01*
X159694238Y-110707186D01*
X159654115Y-110565669D01*
X159606059Y-110395569D01*
X159551985Y-110203666D01*
X159493809Y-109996741D01*
X159436229Y-109791500D01*
X159377828Y-109583211D01*
X159323383Y-109389216D01*
X159274500Y-109215223D01*
X159232785Y-109066940D01*
X159199844Y-108950076D01*
X159177282Y-108870339D01*
X159166707Y-108833438D01*
X159166470Y-108832650D01*
X159165409Y-108820456D01*
X159173768Y-108810714D01*
X159196560Y-108803151D01*
X159238795Y-108797493D01*
X159305483Y-108793468D01*
X159401635Y-108790800D01*
X159532262Y-108789217D01*
X159702375Y-108788444D01*
X159916984Y-108788208D01*
X159980188Y-108788200D01*
X160179374Y-108787638D01*
X160361293Y-108786044D01*
X160519991Y-108783554D01*
X160649513Y-108780306D01*
X160743904Y-108776437D01*
X160797208Y-108772084D01*
X160807014Y-108769150D01*
X160800043Y-108735265D01*
X160782835Y-108671330D01*
X160772466Y-108635800D01*
X160738304Y-108521500D01*
X159767744Y-108514847D01*
X159520076Y-108513258D01*
X159318561Y-108512348D01*
X159158553Y-108512301D01*
X159035407Y-108513302D01*
X158944477Y-108515538D01*
X158881120Y-108519191D01*
X158840688Y-108524448D01*
X158818538Y-108531493D01*
X158810023Y-108540512D01*
X158810500Y-108551689D01*
X158810867Y-108552947D01*
X158819489Y-108583102D01*
X158840915Y-108658878D01*
X158874221Y-108776986D01*
X158918483Y-108934139D01*
X158972775Y-109127047D01*
X159036172Y-109352423D01*
X159107751Y-109606978D01*
X159186585Y-109887423D01*
X159271749Y-110190470D01*
X159362320Y-110512831D01*
X159457373Y-110851218D01*
X159537829Y-111137700D01*
X159636140Y-111487689D01*
X159730937Y-111824976D01*
X159821276Y-112146210D01*
X159906211Y-112448037D01*
X159984795Y-112727103D01*
X160056085Y-112980054D01*
X160119134Y-113203539D01*
X160172997Y-113394202D01*
X160216728Y-113548691D01*
X160249383Y-113663653D01*
X160270015Y-113735733D01*
X160277223Y-113760250D01*
X160303339Y-113842800D01*
X161266569Y-113842800D01*
X161482110Y-113842316D01*
G36*
X157984172Y-113842267D02*
X158052937Y-113838378D01*
X158102077Y-113831173D01*
X158115501Y-113823750D01*
X158108839Y-113797227D01*
X158089307Y-113724977D01*
X158057788Y-113610178D01*
X158015169Y-113456004D01*
X157962333Y-113265632D01*
X157900166Y-113042239D01*
X157829553Y-112789000D01*
X157751378Y-112509092D01*
X157666526Y-112205689D01*
X157575883Y-111881970D01*
X157480333Y-111541109D01*
X157380760Y-111186282D01*
X157372551Y-111157046D01*
X156629100Y-108509392D01*
X156508450Y-108509096D01*
X156428334Y-108514177D01*
X156391743Y-108531130D01*
X156387800Y-108543796D01*
X156384773Y-108573746D01*
X156375993Y-108650405D01*
X156361907Y-108770062D01*
X156342962Y-108929006D01*
X156319605Y-109123526D01*
X156292286Y-109349910D01*
X156261450Y-109604448D01*
X156227546Y-109883428D01*
X156191022Y-110183140D01*
X156152325Y-110499872D01*
X156121100Y-110754892D01*
X156081017Y-111082148D01*
X156042729Y-111395171D01*
X156006683Y-111690260D01*
X155973330Y-111963714D01*
X155943121Y-112211833D01*
X155916504Y-112430914D01*
X155893929Y-112617258D01*
X155875846Y-112767162D01*
X155862705Y-112876927D01*
X155854956Y-112942851D01*
X155852944Y-112961447D01*
X155846021Y-112942070D01*
X155826325Y-112877148D01*
X155794819Y-112770043D01*
X155752467Y-112624117D01*
X155700231Y-112442734D01*
X155639074Y-112229255D01*
X155569959Y-111987043D01*
X155493850Y-111719460D01*
X155411708Y-111429869D01*
X155324499Y-111121632D01*
X155233183Y-110798112D01*
X155221510Y-110756700D01*
X154591531Y-108521500D01*
X154446131Y-108513819D01*
X154364571Y-108511141D01*
X154323050Y-108516248D01*
X154311030Y-108532193D01*
X154314670Y-108551919D01*
X154323327Y-108582217D01*
X154344791Y-108658134D01*
X154378135Y-108776380D01*
X154422434Y-108933665D01*
X154476763Y-109126697D01*
X154540197Y-109352189D01*
X154611809Y-109606848D01*
X154690676Y-109887386D01*
X154775870Y-110190511D01*
X154866467Y-110512935D01*
X154961541Y-110851366D01*
X155041965Y-111137700D01*
X155140296Y-111487719D01*
X155235120Y-111825060D01*
X155325492Y-112146366D01*
X155410464Y-112448282D01*
X155489091Y-112727453D01*
X155560426Y-112980523D01*
X155623524Y-113204137D01*
X155677437Y-113394938D01*
X155721221Y-113549572D01*
X155753927Y-113664683D01*
X155774611Y-113736914D01*
X155781858Y-113761544D01*
X155801400Y-113812530D01*
X155828312Y-113835775D01*
X155879421Y-113840203D01*
X155925567Y-113837744D01*
X156042740Y-113830100D01*
X156309566Y-111614051D01*
X156349376Y-111285369D01*
X156387774Y-110972116D01*
X156424299Y-110677825D01*
X156458494Y-110406031D01*
X156489897Y-110160269D01*
X156518048Y-109944074D01*
X156542489Y-109760980D01*
X156562758Y-109614522D01*
X156578398Y-109508234D01*
X156588946Y-109445651D01*
X156593728Y-109429651D01*
X156602486Y-109457218D01*
X156623743Y-109529387D01*
X156656300Y-109641913D01*
X156698959Y-109790551D01*
X156750524Y-109971056D01*
X156809794Y-110179183D01*
X156875573Y-110410687D01*
X156946663Y-110661322D01*
X157021865Y-110926844D01*
X157099981Y-111203007D01*
X157179814Y-111485567D01*
X157260165Y-111770279D01*
X157339836Y-112052896D01*
X157417630Y-112329175D01*
X157492347Y-112594870D01*
X157562791Y-112845736D01*
X157627763Y-113077528D01*
X157686065Y-113286000D01*
X157736500Y-113466909D01*
X157777868Y-113616008D01*
X157808972Y-113729053D01*
X157828615Y-113801798D01*
X157835597Y-113829999D01*
X157835600Y-113830073D01*
X157857957Y-113838511D01*
X157913330Y-113842443D01*
X157984172Y-113842267D01*
X157984172Y-113842267D01*
G37*
X157984172Y-113842267D02*
X158052937Y-113838378D01*
X158102077Y-113831173D01*
X158115501Y-113823750D01*
X158108839Y-113797227D01*
X158089307Y-113724977D01*
X158057788Y-113610178D01*
X158015169Y-113456004D01*
X157962333Y-113265632D01*
X157900166Y-113042239D01*
X157829553Y-112789000D01*
X157751378Y-112509092D01*
X157666526Y-112205689D01*
X157575883Y-111881970D01*
X157480333Y-111541109D01*
X157380760Y-111186282D01*
X157372551Y-111157046D01*
X156629100Y-108509392D01*
X156508450Y-108509096D01*
X156428334Y-108514177D01*
X156391743Y-108531130D01*
X156387800Y-108543796D01*
X156384773Y-108573746D01*
X156375993Y-108650405D01*
X156361907Y-108770062D01*
X156342962Y-108929006D01*
X156319605Y-109123526D01*
X156292286Y-109349910D01*
X156261450Y-109604448D01*
X156227546Y-109883428D01*
X156191022Y-110183140D01*
X156152325Y-110499872D01*
X156121100Y-110754892D01*
X156081017Y-111082148D01*
X156042729Y-111395171D01*
X156006683Y-111690260D01*
X155973330Y-111963714D01*
X155943121Y-112211833D01*
X155916504Y-112430914D01*
X155893929Y-112617258D01*
X155875846Y-112767162D01*
X155862705Y-112876927D01*
X155854956Y-112942851D01*
X155852944Y-112961447D01*
X155846021Y-112942070D01*
X155826325Y-112877148D01*
X155794819Y-112770043D01*
X155752467Y-112624117D01*
X155700231Y-112442734D01*
X155639074Y-112229255D01*
X155569959Y-111987043D01*
X155493850Y-111719460D01*
X155411708Y-111429869D01*
X155324499Y-111121632D01*
X155233183Y-110798112D01*
X155221510Y-110756700D01*
X154591531Y-108521500D01*
X154446131Y-108513819D01*
X154364571Y-108511141D01*
X154323050Y-108516248D01*
X154311030Y-108532193D01*
X154314670Y-108551919D01*
X154323327Y-108582217D01*
X154344791Y-108658134D01*
X154378135Y-108776380D01*
X154422434Y-108933665D01*
X154476763Y-109126697D01*
X154540197Y-109352189D01*
X154611809Y-109606848D01*
X154690676Y-109887386D01*
X154775870Y-110190511D01*
X154866467Y-110512935D01*
X154961541Y-110851366D01*
X155041965Y-111137700D01*
X155140296Y-111487719D01*
X155235120Y-111825060D01*
X155325492Y-112146366D01*
X155410464Y-112448282D01*
X155489091Y-112727453D01*
X155560426Y-112980523D01*
X155623524Y-113204137D01*
X155677437Y-113394938D01*
X155721221Y-113549572D01*
X155753927Y-113664683D01*
X155774611Y-113736914D01*
X155781858Y-113761544D01*
X155801400Y-113812530D01*
X155828312Y-113835775D01*
X155879421Y-113840203D01*
X155925567Y-113837744D01*
X156042740Y-113830100D01*
X156309566Y-111614051D01*
X156349376Y-111285369D01*
X156387774Y-110972116D01*
X156424299Y-110677825D01*
X156458494Y-110406031D01*
X156489897Y-110160269D01*
X156518048Y-109944074D01*
X156542489Y-109760980D01*
X156562758Y-109614522D01*
X156578398Y-109508234D01*
X156588946Y-109445651D01*
X156593728Y-109429651D01*
X156602486Y-109457218D01*
X156623743Y-109529387D01*
X156656300Y-109641913D01*
X156698959Y-109790551D01*
X156750524Y-109971056D01*
X156809794Y-110179183D01*
X156875573Y-110410687D01*
X156946663Y-110661322D01*
X157021865Y-110926844D01*
X157099981Y-111203007D01*
X157179814Y-111485567D01*
X157260165Y-111770279D01*
X157339836Y-112052896D01*
X157417630Y-112329175D01*
X157492347Y-112594870D01*
X157562791Y-112845736D01*
X157627763Y-113077528D01*
X157686065Y-113286000D01*
X157736500Y-113466909D01*
X157777868Y-113616008D01*
X157808972Y-113729053D01*
X157828615Y-113801798D01*
X157835597Y-113829999D01*
X157835600Y-113830073D01*
X157857957Y-113838511D01*
X157913330Y-113842443D01*
X157984172Y-113842267D01*
G36*
X155267668Y-113841564D02*
X155306093Y-113833732D01*
X155316170Y-113812615D01*
X155309407Y-113772951D01*
X155300507Y-113739388D01*
X155278747Y-113660225D01*
X155245049Y-113538757D01*
X155200337Y-113378279D01*
X155145533Y-113182084D01*
X155081559Y-112953469D01*
X155009338Y-112695727D01*
X154929792Y-112412154D01*
X154843845Y-112106044D01*
X154752418Y-111780691D01*
X154656434Y-111439391D01*
X154564379Y-111112300D01*
X153834981Y-108521500D01*
X153701690Y-108513823D01*
X153627158Y-108513032D01*
X153578471Y-108519224D01*
X153567708Y-108526523D01*
X153574347Y-108553227D01*
X153593860Y-108625654D01*
X153625365Y-108740626D01*
X153667975Y-108894964D01*
X153720805Y-109085492D01*
X153782971Y-109309030D01*
X153853589Y-109562402D01*
X153931772Y-109842428D01*
X154016636Y-110145932D01*
X154107296Y-110469735D01*
X154202868Y-110810658D01*
X154302466Y-111165525D01*
X154310658Y-111194696D01*
X155054300Y-113842491D01*
X155189668Y-113842646D01*
X155267668Y-113841564D01*
X155267668Y-113841564D01*
G37*
X155267668Y-113841564D02*
X155306093Y-113833732D01*
X155316170Y-113812615D01*
X155309407Y-113772951D01*
X155300507Y-113739388D01*
X155278747Y-113660225D01*
X155245049Y-113538757D01*
X155200337Y-113378279D01*
X155145533Y-113182084D01*
X155081559Y-112953469D01*
X155009338Y-112695727D01*
X154929792Y-112412154D01*
X154843845Y-112106044D01*
X154752418Y-111780691D01*
X154656434Y-111439391D01*
X154564379Y-111112300D01*
X153834981Y-108521500D01*
X153701690Y-108513823D01*
X153627158Y-108513032D01*
X153578471Y-108519224D01*
X153567708Y-108526523D01*
X153574347Y-108553227D01*
X153593860Y-108625654D01*
X153625365Y-108740626D01*
X153667975Y-108894964D01*
X153720805Y-109085492D01*
X153782971Y-109309030D01*
X153853589Y-109562402D01*
X153931772Y-109842428D01*
X154016636Y-110145932D01*
X154107296Y-110469735D01*
X154202868Y-110810658D01*
X154302466Y-111165525D01*
X154310658Y-111194696D01*
X155054300Y-113842491D01*
X155189668Y-113842646D01*
X155267668Y-113841564D01*
G36*
X152845377Y-113772950D02*
X152836177Y-113739090D01*
X152814167Y-113659740D01*
X152780302Y-113538309D01*
X152735539Y-113378208D01*
X152680833Y-113182846D01*
X152617141Y-112955632D01*
X152545418Y-112699977D01*
X152466620Y-112419288D01*
X152381704Y-112116977D01*
X152291625Y-111796452D01*
X152197340Y-111461123D01*
X152144123Y-111271928D01*
X152048300Y-110931041D01*
X151956467Y-110603846D01*
X151869551Y-110293671D01*
X151788479Y-110003846D01*
X151714177Y-109737700D01*
X151647572Y-109498563D01*
X151589591Y-109289765D01*
X151541160Y-109114634D01*
X151503205Y-108976501D01*
X151476654Y-108878695D01*
X151462433Y-108824544D01*
X151460200Y-108814478D01*
X151484955Y-108806343D01*
X151559373Y-108799720D01*
X151683679Y-108794601D01*
X151858099Y-108790980D01*
X152082860Y-108788850D01*
X152339253Y-108788200D01*
X153218307Y-108788200D01*
X153201625Y-108721737D01*
X153183424Y-108643792D01*
X153170297Y-108582037D01*
X153155650Y-108508800D01*
X151083114Y-108508800D01*
X151131139Y-108680250D01*
X151144672Y-108728448D01*
X151170968Y-108821992D01*
X151209030Y-108957332D01*
X151257856Y-109130913D01*
X151316447Y-109339185D01*
X151383805Y-109578594D01*
X151458928Y-109845588D01*
X151540819Y-110136614D01*
X151628477Y-110448120D01*
X151720903Y-110776553D01*
X151817097Y-111118361D01*
X151878482Y-111336474D01*
X151975354Y-111680780D01*
X152068251Y-112011157D01*
X152156257Y-112324338D01*
X152238456Y-112617059D01*
X152313933Y-112886053D01*
X152381774Y-113128056D01*
X152441064Y-113339800D01*
X152490886Y-113518022D01*
X152530327Y-113659455D01*
X152558471Y-113760834D01*
X152574403Y-113818893D01*
X152577800Y-113832024D01*
X152600803Y-113837878D01*
X152660244Y-113841791D01*
X152720253Y-113842800D01*
X152862707Y-113842800D01*
X152845377Y-113772950D01*
X152845377Y-113772950D01*
G37*
X152845377Y-113772950D02*
X152836177Y-113739090D01*
X152814167Y-113659740D01*
X152780302Y-113538309D01*
X152735539Y-113378208D01*
X152680833Y-113182846D01*
X152617141Y-112955632D01*
X152545418Y-112699977D01*
X152466620Y-112419288D01*
X152381704Y-112116977D01*
X152291625Y-111796452D01*
X152197340Y-111461123D01*
X152144123Y-111271928D01*
X152048300Y-110931041D01*
X151956467Y-110603846D01*
X151869551Y-110293671D01*
X151788479Y-110003846D01*
X151714177Y-109737700D01*
X151647572Y-109498563D01*
X151589591Y-109289765D01*
X151541160Y-109114634D01*
X151503205Y-108976501D01*
X151476654Y-108878695D01*
X151462433Y-108824544D01*
X151460200Y-108814478D01*
X151484955Y-108806343D01*
X151559373Y-108799720D01*
X151683679Y-108794601D01*
X151858099Y-108790980D01*
X152082860Y-108788850D01*
X152339253Y-108788200D01*
X153218307Y-108788200D01*
X153201625Y-108721737D01*
X153183424Y-108643792D01*
X153170297Y-108582037D01*
X153155650Y-108508800D01*
X151083114Y-108508800D01*
X151131139Y-108680250D01*
X151144672Y-108728448D01*
X151170968Y-108821992D01*
X151209030Y-108957332D01*
X151257856Y-109130913D01*
X151316447Y-109339185D01*
X151383805Y-109578594D01*
X151458928Y-109845588D01*
X151540819Y-110136614D01*
X151628477Y-110448120D01*
X151720903Y-110776553D01*
X151817097Y-111118361D01*
X151878482Y-111336474D01*
X151975354Y-111680780D01*
X152068251Y-112011157D01*
X152156257Y-112324338D01*
X152238456Y-112617059D01*
X152313933Y-112886053D01*
X152381774Y-113128056D01*
X152441064Y-113339800D01*
X152490886Y-113518022D01*
X152530327Y-113659455D01*
X152558471Y-113760834D01*
X152574403Y-113818893D01*
X152577800Y-113832024D01*
X152600803Y-113837878D01*
X152660244Y-113841791D01*
X152720253Y-113842800D01*
X152862707Y-113842800D01*
X152845377Y-113772950D01*
G36*
X151099643Y-113836189D02*
X151298617Y-113799035D01*
X151471047Y-113729040D01*
X151612232Y-113627810D01*
X151717474Y-113496953D01*
X151753328Y-113425323D01*
X151787021Y-113306323D01*
X151806471Y-113154128D01*
X151810779Y-112984558D01*
X151799047Y-112813434D01*
X151791245Y-112757716D01*
X151777019Y-112688811D01*
X151750075Y-112577172D01*
X151711985Y-112428351D01*
X151664317Y-112247899D01*
X151608640Y-112041367D01*
X151546524Y-111814306D01*
X151479539Y-111572267D01*
X151409252Y-111320802D01*
X151337235Y-111065460D01*
X151265056Y-110811794D01*
X151194284Y-110565354D01*
X151126490Y-110331692D01*
X151063241Y-110116359D01*
X151006108Y-109924905D01*
X150956660Y-109762882D01*
X150916466Y-109635841D01*
X150887095Y-109549333D01*
X150876392Y-109521670D01*
X150741271Y-109256422D01*
X150578139Y-109026984D01*
X150390099Y-108836248D01*
X150180250Y-108687106D01*
X149951694Y-108582449D01*
X149832236Y-108547911D01*
X149687902Y-108524105D01*
X149523565Y-108513044D01*
X149358678Y-108514855D01*
X149212696Y-108529668D01*
X149147544Y-108543395D01*
X148970719Y-108614032D01*
X148829445Y-108720568D01*
X148724694Y-108862128D01*
X148679398Y-108964588D01*
X148658646Y-109056929D01*
X148645834Y-109183834D01*
X148641197Y-109329656D01*
X148643917Y-109437083D01*
X148921423Y-109437083D01*
X148925368Y-109286634D01*
X148943543Y-109157768D01*
X148968207Y-109080300D01*
X149035054Y-108966529D01*
X149119737Y-108884295D01*
X149229314Y-108830384D01*
X149370841Y-108801585D01*
X149551373Y-108794684D01*
X149593300Y-108795665D01*
X149721249Y-108801746D01*
X149815441Y-108812738D01*
X149892896Y-108832030D01*
X149970631Y-108863013D01*
X149999700Y-108876596D01*
X150138379Y-108955738D01*
X150262424Y-109055592D01*
X150374510Y-109180612D01*
X150477314Y-109335251D01*
X150573510Y-109523962D01*
X150665775Y-109751199D01*
X150756783Y-110021415D01*
X150824057Y-110248700D01*
X150944890Y-110676707D01*
X151052213Y-111058161D01*
X151146638Y-111395309D01*
X151228776Y-111690399D01*
X151299238Y-111945675D01*
X151358635Y-112163384D01*
X151407577Y-112345773D01*
X151446677Y-112495087D01*
X151476544Y-112613574D01*
X151497790Y-112703479D01*
X151511027Y-112767048D01*
X151514315Y-112786248D01*
X151529683Y-112995129D01*
X151506984Y-113174520D01*
X151446828Y-113322611D01*
X151349823Y-113437594D01*
X151278540Y-113487473D01*
X151224016Y-113515863D01*
X151170838Y-113534268D01*
X151105985Y-113544802D01*
X151016438Y-113549575D01*
X150889175Y-113550700D01*
X150888700Y-113550700D01*
X150759434Y-113549428D01*
X150666338Y-113544049D01*
X150594811Y-113532216D01*
X150530252Y-113511585D01*
X150463619Y-113482425D01*
X150367200Y-113432643D01*
X150274115Y-113377200D01*
X150225534Y-113343669D01*
X150135758Y-113257929D01*
X150039421Y-113136958D01*
X149945350Y-112993941D01*
X149862368Y-112842062D01*
X149809591Y-112722247D01*
X149790355Y-112665778D01*
X149759134Y-112566019D01*
X149717543Y-112428626D01*
X149667201Y-112259255D01*
X149609725Y-112063559D01*
X149546732Y-111847195D01*
X149479841Y-111615817D01*
X149410667Y-111375081D01*
X149340829Y-111130642D01*
X149271945Y-110888156D01*
X149205631Y-110653276D01*
X149143506Y-110431659D01*
X149087186Y-110228960D01*
X149038290Y-110050834D01*
X148998434Y-109902935D01*
X148969236Y-109790921D01*
X148957223Y-109742089D01*
X148931957Y-109593956D01*
X148921423Y-109437083D01*
X148643917Y-109437083D01*
X148644972Y-109478747D01*
X148657397Y-109615457D01*
X148668533Y-109682300D01*
X148680687Y-109732374D01*
X148705151Y-109825699D01*
X148740358Y-109956662D01*
X148784737Y-110119648D01*
X148836722Y-110309041D01*
X148894744Y-110519227D01*
X148957234Y-110744590D01*
X149022624Y-110979516D01*
X149089345Y-111218389D01*
X149155830Y-111455595D01*
X149220510Y-111685518D01*
X149281816Y-111902544D01*
X149338180Y-112101058D01*
X149388034Y-112275445D01*
X149429809Y-112420089D01*
X149461937Y-112529376D01*
X149482849Y-112597691D01*
X149483013Y-112598200D01*
X149595483Y-112884000D01*
X149737251Y-113138532D01*
X149905130Y-113358474D01*
X150095936Y-113540506D01*
X150306482Y-113681304D01*
X150533581Y-113777546D01*
X150640865Y-113805547D01*
X150878825Y-113838895D01*
X151099643Y-113836189D01*
X151099643Y-113836189D01*
G37*
X151099643Y-113836189D02*
X151298617Y-113799035D01*
X151471047Y-113729040D01*
X151612232Y-113627810D01*
X151717474Y-113496953D01*
X151753328Y-113425323D01*
X151787021Y-113306323D01*
X151806471Y-113154128D01*
X151810779Y-112984558D01*
X151799047Y-112813434D01*
X151791245Y-112757716D01*
X151777019Y-112688811D01*
X151750075Y-112577172D01*
X151711985Y-112428351D01*
X151664317Y-112247899D01*
X151608640Y-112041367D01*
X151546524Y-111814306D01*
X151479539Y-111572267D01*
X151409252Y-111320802D01*
X151337235Y-111065460D01*
X151265056Y-110811794D01*
X151194284Y-110565354D01*
X151126490Y-110331692D01*
X151063241Y-110116359D01*
X151006108Y-109924905D01*
X150956660Y-109762882D01*
X150916466Y-109635841D01*
X150887095Y-109549333D01*
X150876392Y-109521670D01*
X150741271Y-109256422D01*
X150578139Y-109026984D01*
X150390099Y-108836248D01*
X150180250Y-108687106D01*
X149951694Y-108582449D01*
X149832236Y-108547911D01*
X149687902Y-108524105D01*
X149523565Y-108513044D01*
X149358678Y-108514855D01*
X149212696Y-108529668D01*
X149147544Y-108543395D01*
X148970719Y-108614032D01*
X148829445Y-108720568D01*
X148724694Y-108862128D01*
X148679398Y-108964588D01*
X148658646Y-109056929D01*
X148645834Y-109183834D01*
X148641197Y-109329656D01*
X148643917Y-109437083D01*
X148921423Y-109437083D01*
X148925368Y-109286634D01*
X148943543Y-109157768D01*
X148968207Y-109080300D01*
X149035054Y-108966529D01*
X149119737Y-108884295D01*
X149229314Y-108830384D01*
X149370841Y-108801585D01*
X149551373Y-108794684D01*
X149593300Y-108795665D01*
X149721249Y-108801746D01*
X149815441Y-108812738D01*
X149892896Y-108832030D01*
X149970631Y-108863013D01*
X149999700Y-108876596D01*
X150138379Y-108955738D01*
X150262424Y-109055592D01*
X150374510Y-109180612D01*
X150477314Y-109335251D01*
X150573510Y-109523962D01*
X150665775Y-109751199D01*
X150756783Y-110021415D01*
X150824057Y-110248700D01*
X150944890Y-110676707D01*
X151052213Y-111058161D01*
X151146638Y-111395309D01*
X151228776Y-111690399D01*
X151299238Y-111945675D01*
X151358635Y-112163384D01*
X151407577Y-112345773D01*
X151446677Y-112495087D01*
X151476544Y-112613574D01*
X151497790Y-112703479D01*
X151511027Y-112767048D01*
X151514315Y-112786248D01*
X151529683Y-112995129D01*
X151506984Y-113174520D01*
X151446828Y-113322611D01*
X151349823Y-113437594D01*
X151278540Y-113487473D01*
X151224016Y-113515863D01*
X151170838Y-113534268D01*
X151105985Y-113544802D01*
X151016438Y-113549575D01*
X150889175Y-113550700D01*
X150888700Y-113550700D01*
X150759434Y-113549428D01*
X150666338Y-113544049D01*
X150594811Y-113532216D01*
X150530252Y-113511585D01*
X150463619Y-113482425D01*
X150367200Y-113432643D01*
X150274115Y-113377200D01*
X150225534Y-113343669D01*
X150135758Y-113257929D01*
X150039421Y-113136958D01*
X149945350Y-112993941D01*
X149862368Y-112842062D01*
X149809591Y-112722247D01*
X149790355Y-112665778D01*
X149759134Y-112566019D01*
X149717543Y-112428626D01*
X149667201Y-112259255D01*
X149609725Y-112063559D01*
X149546732Y-111847195D01*
X149479841Y-111615817D01*
X149410667Y-111375081D01*
X149340829Y-111130642D01*
X149271945Y-110888156D01*
X149205631Y-110653276D01*
X149143506Y-110431659D01*
X149087186Y-110228960D01*
X149038290Y-110050834D01*
X148998434Y-109902935D01*
X148969236Y-109790921D01*
X148957223Y-109742089D01*
X148931957Y-109593956D01*
X148921423Y-109437083D01*
X148643917Y-109437083D01*
X148644972Y-109478747D01*
X148657397Y-109615457D01*
X148668533Y-109682300D01*
X148680687Y-109732374D01*
X148705151Y-109825699D01*
X148740358Y-109956662D01*
X148784737Y-110119648D01*
X148836722Y-110309041D01*
X148894744Y-110519227D01*
X148957234Y-110744590D01*
X149022624Y-110979516D01*
X149089345Y-111218389D01*
X149155830Y-111455595D01*
X149220510Y-111685518D01*
X149281816Y-111902544D01*
X149338180Y-112101058D01*
X149388034Y-112275445D01*
X149429809Y-112420089D01*
X149461937Y-112529376D01*
X149482849Y-112597691D01*
X149483013Y-112598200D01*
X149595483Y-112884000D01*
X149737251Y-113138532D01*
X149905130Y-113358474D01*
X150095936Y-113540506D01*
X150306482Y-113681304D01*
X150533581Y-113777546D01*
X150640865Y-113805547D01*
X150878825Y-113838895D01*
X151099643Y-113836189D01*
G36*
X148222688Y-113772951D02*
X148213653Y-113739428D01*
X148191528Y-113660369D01*
X148157252Y-113539060D01*
X148111762Y-113378789D01*
X148055996Y-113182844D01*
X147990893Y-112954513D01*
X147917391Y-112697083D01*
X147836427Y-112413841D01*
X147748939Y-112108076D01*
X147655866Y-111783075D01*
X147558146Y-111442126D01*
X147463541Y-111112300D01*
X146720143Y-108521500D01*
X145646671Y-108514873D01*
X145384969Y-108513354D01*
X145169641Y-108512436D01*
X144996264Y-108512279D01*
X144860412Y-108513042D01*
X144757662Y-108514884D01*
X144683591Y-108517965D01*
X144633774Y-108522442D01*
X144603788Y-108528477D01*
X144589207Y-108536226D01*
X144585609Y-108545850D01*
X144586998Y-108552973D01*
X144595745Y-108583043D01*
X144617541Y-108658695D01*
X144651453Y-108776673D01*
X144696547Y-108933721D01*
X144751890Y-109126584D01*
X144816548Y-109352007D01*
X144889586Y-109606733D01*
X144970072Y-109887507D01*
X145057072Y-110191073D01*
X145149652Y-110514176D01*
X145246879Y-110853559D01*
X145339178Y-111175800D01*
X145439834Y-111527227D01*
X145536691Y-111865350D01*
X145628814Y-112186912D01*
X145715272Y-112488661D01*
X145795131Y-112767339D01*
X145867458Y-113019692D01*
X145931319Y-113242465D01*
X145985783Y-113432403D01*
X146029916Y-113586250D01*
X146062785Y-113700751D01*
X146083456Y-113772651D01*
X146090891Y-113798350D01*
X146096915Y-113809239D01*
X146110869Y-113818195D01*
X146137302Y-113825408D01*
X146180761Y-113831065D01*
X146245792Y-113835351D01*
X146336944Y-113838454D01*
X146458764Y-113840562D01*
X146615799Y-113841862D01*
X146812596Y-113842539D01*
X147053703Y-113842783D01*
X147171329Y-113842800D01*
X148238436Y-113842800D01*
X148222688Y-113772951D01*
X148222688Y-113772951D01*
G37*
X148222688Y-113772951D02*
X148213653Y-113739428D01*
X148191528Y-113660369D01*
X148157252Y-113539060D01*
X148111762Y-113378789D01*
X148055996Y-113182844D01*
X147990893Y-112954513D01*
X147917391Y-112697083D01*
X147836427Y-112413841D01*
X147748939Y-112108076D01*
X147655866Y-111783075D01*
X147558146Y-111442126D01*
X147463541Y-111112300D01*
X146720143Y-108521500D01*
X145646671Y-108514873D01*
X145384969Y-108513354D01*
X145169641Y-108512436D01*
X144996264Y-108512279D01*
X144860412Y-108513042D01*
X144757662Y-108514884D01*
X144683591Y-108517965D01*
X144633774Y-108522442D01*
X144603788Y-108528477D01*
X144589207Y-108536226D01*
X144585609Y-108545850D01*
X144586998Y-108552973D01*
X144595745Y-108583043D01*
X144617541Y-108658695D01*
X144651453Y-108776673D01*
X144696547Y-108933721D01*
X144751890Y-109126584D01*
X144816548Y-109352007D01*
X144889586Y-109606733D01*
X144970072Y-109887507D01*
X145057072Y-110191073D01*
X145149652Y-110514176D01*
X145246879Y-110853559D01*
X145339178Y-111175800D01*
X145439834Y-111527227D01*
X145536691Y-111865350D01*
X145628814Y-112186912D01*
X145715272Y-112488661D01*
X145795131Y-112767339D01*
X145867458Y-113019692D01*
X145931319Y-113242465D01*
X145985783Y-113432403D01*
X146029916Y-113586250D01*
X146062785Y-113700751D01*
X146083456Y-113772651D01*
X146090891Y-113798350D01*
X146096915Y-113809239D01*
X146110869Y-113818195D01*
X146137302Y-113825408D01*
X146180761Y-113831065D01*
X146245792Y-113835351D01*
X146336944Y-113838454D01*
X146458764Y-113840562D01*
X146615799Y-113841862D01*
X146812596Y-113842539D01*
X147053703Y-113842783D01*
X147171329Y-113842800D01*
X148238436Y-113842800D01*
X148222688Y-113772951D01*
G36*
X144956279Y-113842689D02*
X145160839Y-113842216D01*
X145323781Y-113841172D01*
X145449698Y-113839349D01*
X145543179Y-113836539D01*
X145608817Y-113832533D01*
X145651202Y-113827122D01*
X145674927Y-113820098D01*
X145684581Y-113811252D01*
X145684757Y-113800377D01*
X145684186Y-113798350D01*
X145675462Y-113768319D01*
X145653689Y-113692705D01*
X145619799Y-113574764D01*
X145574727Y-113417751D01*
X145519406Y-113224921D01*
X145454769Y-112999529D01*
X145381749Y-112744831D01*
X145301281Y-112464082D01*
X145214297Y-112160537D01*
X145121730Y-111837452D01*
X145024515Y-111498081D01*
X144932210Y-111175800D01*
X144831558Y-110824373D01*
X144734704Y-110486249D01*
X144642580Y-110164685D01*
X144556121Y-109862936D01*
X144476258Y-109584258D01*
X144403925Y-109331904D01*
X144340055Y-109109131D01*
X144285582Y-108919194D01*
X144241439Y-108765347D01*
X144208558Y-108650847D01*
X144187872Y-108578948D01*
X144180423Y-108553250D01*
X144174173Y-108541987D01*
X144159759Y-108532796D01*
X144132457Y-108525469D01*
X144087545Y-108519796D01*
X144020298Y-108515569D01*
X143925995Y-108512579D01*
X143799911Y-108510616D01*
X143637324Y-108509471D01*
X143433510Y-108508936D01*
X143183746Y-108508801D01*
X143176376Y-108508800D01*
X142925852Y-108508912D01*
X142721534Y-108509386D01*
X142558830Y-108510431D01*
X142433146Y-108512257D01*
X142339889Y-108515072D01*
X142274467Y-108519085D01*
X142232285Y-108524507D01*
X142208752Y-108531545D01*
X142199273Y-108540409D01*
X142199256Y-108551307D01*
X142199824Y-108553250D01*
X142209538Y-108586212D01*
X142231927Y-108663483D01*
X142265890Y-108781221D01*
X142310324Y-108935585D01*
X142364130Y-109122731D01*
X142426207Y-109338819D01*
X142495453Y-109580004D01*
X142570768Y-109842447D01*
X142651050Y-110122303D01*
X142735200Y-110415731D01*
X142822114Y-110718890D01*
X142910694Y-111027936D01*
X142999838Y-111339027D01*
X143088444Y-111648322D01*
X143175412Y-111951977D01*
X143259642Y-112246152D01*
X143340031Y-112527003D01*
X143415480Y-112790689D01*
X143484887Y-113033367D01*
X143547151Y-113251196D01*
X143601171Y-113440332D01*
X143645846Y-113596934D01*
X143680076Y-113717160D01*
X143702759Y-113797167D01*
X143712795Y-113833114D01*
X143713200Y-113834759D01*
X143737693Y-113836533D01*
X143807545Y-113838171D01*
X143917317Y-113839630D01*
X144061566Y-113840865D01*
X144234853Y-113841832D01*
X144431738Y-113842487D01*
X144646778Y-113842786D01*
X144705511Y-113842800D01*
X144956279Y-113842689D01*
X144956279Y-113842689D01*
G37*
X144956279Y-113842689D02*
X145160839Y-113842216D01*
X145323781Y-113841172D01*
X145449698Y-113839349D01*
X145543179Y-113836539D01*
X145608817Y-113832533D01*
X145651202Y-113827122D01*
X145674927Y-113820098D01*
X145684581Y-113811252D01*
X145684757Y-113800377D01*
X145684186Y-113798350D01*
X145675462Y-113768319D01*
X145653689Y-113692705D01*
X145619799Y-113574764D01*
X145574727Y-113417751D01*
X145519406Y-113224921D01*
X145454769Y-112999529D01*
X145381749Y-112744831D01*
X145301281Y-112464082D01*
X145214297Y-112160537D01*
X145121730Y-111837452D01*
X145024515Y-111498081D01*
X144932210Y-111175800D01*
X144831558Y-110824373D01*
X144734704Y-110486249D01*
X144642580Y-110164685D01*
X144556121Y-109862936D01*
X144476258Y-109584258D01*
X144403925Y-109331904D01*
X144340055Y-109109131D01*
X144285582Y-108919194D01*
X144241439Y-108765347D01*
X144208558Y-108650847D01*
X144187872Y-108578948D01*
X144180423Y-108553250D01*
X144174173Y-108541987D01*
X144159759Y-108532796D01*
X144132457Y-108525469D01*
X144087545Y-108519796D01*
X144020298Y-108515569D01*
X143925995Y-108512579D01*
X143799911Y-108510616D01*
X143637324Y-108509471D01*
X143433510Y-108508936D01*
X143183746Y-108508801D01*
X143176376Y-108508800D01*
X142925852Y-108508912D01*
X142721534Y-108509386D01*
X142558830Y-108510431D01*
X142433146Y-108512257D01*
X142339889Y-108515072D01*
X142274467Y-108519085D01*
X142232285Y-108524507D01*
X142208752Y-108531545D01*
X142199273Y-108540409D01*
X142199256Y-108551307D01*
X142199824Y-108553250D01*
X142209538Y-108586212D01*
X142231927Y-108663483D01*
X142265890Y-108781221D01*
X142310324Y-108935585D01*
X142364130Y-109122731D01*
X142426207Y-109338819D01*
X142495453Y-109580004D01*
X142570768Y-109842447D01*
X142651050Y-110122303D01*
X142735200Y-110415731D01*
X142822114Y-110718890D01*
X142910694Y-111027936D01*
X142999838Y-111339027D01*
X143088444Y-111648322D01*
X143175412Y-111951977D01*
X143259642Y-112246152D01*
X143340031Y-112527003D01*
X143415480Y-112790689D01*
X143484887Y-113033367D01*
X143547151Y-113251196D01*
X143601171Y-113440332D01*
X143645846Y-113596934D01*
X143680076Y-113717160D01*
X143702759Y-113797167D01*
X143712795Y-113833114D01*
X143713200Y-113834759D01*
X143737693Y-113836533D01*
X143807545Y-113838171D01*
X143917317Y-113839630D01*
X144061566Y-113840865D01*
X144234853Y-113841832D01*
X144431738Y-113842487D01*
X144646778Y-113842786D01*
X144705511Y-113842800D01*
X144956279Y-113842689D01*
G36*
X143123214Y-113838916D02*
X143203707Y-113836520D01*
X143255837Y-113832033D01*
X143285212Y-113825122D01*
X143297440Y-113815453D01*
X143298130Y-113802693D01*
X143297098Y-113798783D01*
X143288368Y-113768545D01*
X143266624Y-113692810D01*
X143232823Y-113574920D01*
X143187922Y-113418221D01*
X143132878Y-113226055D01*
X143068650Y-113001766D01*
X142996194Y-112748697D01*
X142916468Y-112470192D01*
X142830429Y-112169594D01*
X142739035Y-111850247D01*
X142643243Y-111515494D01*
X142582385Y-111302800D01*
X142483433Y-110957004D01*
X142387644Y-110622336D01*
X142296042Y-110302373D01*
X142209651Y-110000689D01*
X142129496Y-109720858D01*
X142056602Y-109466456D01*
X141991991Y-109241057D01*
X141936690Y-109048236D01*
X141891722Y-108891568D01*
X141858111Y-108774627D01*
X141836883Y-108700989D01*
X141830860Y-108680250D01*
X141780648Y-108508800D01*
X141134024Y-108508800D01*
X140926763Y-108509349D01*
X140765679Y-108511146D01*
X140646159Y-108514418D01*
X140563590Y-108519392D01*
X140513361Y-108526295D01*
X140490857Y-108535355D01*
X140488549Y-108540550D01*
X140495585Y-108568775D01*
X140515771Y-108642616D01*
X140548196Y-108758874D01*
X140591952Y-108914348D01*
X140646128Y-109105840D01*
X140709816Y-109330150D01*
X140782104Y-109584078D01*
X140862083Y-109864425D01*
X140948844Y-110167991D01*
X141041477Y-110491577D01*
X141139071Y-110831983D01*
X141240718Y-111186009D01*
X141245083Y-111201200D01*
X142000466Y-113830100D01*
X142655482Y-113836883D01*
X142854710Y-113838764D01*
X143008751Y-113839553D01*
X143123214Y-113838916D01*
X143123214Y-113838916D01*
G37*
X143123214Y-113838916D02*
X143203707Y-113836520D01*
X143255837Y-113832033D01*
X143285212Y-113825122D01*
X143297440Y-113815453D01*
X143298130Y-113802693D01*
X143297098Y-113798783D01*
X143288368Y-113768545D01*
X143266624Y-113692810D01*
X143232823Y-113574920D01*
X143187922Y-113418221D01*
X143132878Y-113226055D01*
X143068650Y-113001766D01*
X142996194Y-112748697D01*
X142916468Y-112470192D01*
X142830429Y-112169594D01*
X142739035Y-111850247D01*
X142643243Y-111515494D01*
X142582385Y-111302800D01*
X142483433Y-110957004D01*
X142387644Y-110622336D01*
X142296042Y-110302373D01*
X142209651Y-110000689D01*
X142129496Y-109720858D01*
X142056602Y-109466456D01*
X141991991Y-109241057D01*
X141936690Y-109048236D01*
X141891722Y-108891568D01*
X141858111Y-108774627D01*
X141836883Y-108700989D01*
X141830860Y-108680250D01*
X141780648Y-108508800D01*
X141134024Y-108508800D01*
X140926763Y-108509349D01*
X140765679Y-108511146D01*
X140646159Y-108514418D01*
X140563590Y-108519392D01*
X140513361Y-108526295D01*
X140490857Y-108535355D01*
X140488549Y-108540550D01*
X140495585Y-108568775D01*
X140515771Y-108642616D01*
X140548196Y-108758874D01*
X140591952Y-108914348D01*
X140646128Y-109105840D01*
X140709816Y-109330150D01*
X140782104Y-109584078D01*
X140862083Y-109864425D01*
X140948844Y-110167991D01*
X141041477Y-110491577D01*
X141139071Y-110831983D01*
X141240718Y-111186009D01*
X141245083Y-111201200D01*
X142000466Y-113830100D01*
X142655482Y-113836883D01*
X142854710Y-113838764D01*
X143008751Y-113839553D01*
X143123214Y-113838916D01*
G36*
X141410810Y-113842493D02*
X141495960Y-113840501D01*
X141546681Y-113835220D01*
X141571158Y-113825044D01*
X141577576Y-113808368D01*
X141574520Y-113785651D01*
X141566154Y-113753909D01*
X141544703Y-113676592D01*
X141511093Y-113556955D01*
X141466249Y-113398252D01*
X141411097Y-113203737D01*
X141346564Y-112976666D01*
X141273574Y-112720292D01*
X141193055Y-112437870D01*
X141105930Y-112132654D01*
X141013127Y-111807900D01*
X140915571Y-111466862D01*
X140815909Y-111118803D01*
X140068300Y-108509105D01*
X139758364Y-108508953D01*
X139448429Y-108508800D01*
X139480997Y-108617016D01*
X139492371Y-108655954D01*
X139516768Y-108740351D01*
X139553218Y-108866831D01*
X139600751Y-109032018D01*
X139658397Y-109232536D01*
X139725188Y-109465010D01*
X139800153Y-109726063D01*
X139882322Y-110012320D01*
X139970726Y-110320404D01*
X140064395Y-110646939D01*
X140162360Y-110988550D01*
X140247068Y-111284016D01*
X140980571Y-113842800D01*
X141283046Y-113842800D01*
X141410810Y-113842493D01*
X141410810Y-113842493D01*
G37*
X141410810Y-113842493D02*
X141495960Y-113840501D01*
X141546681Y-113835220D01*
X141571158Y-113825044D01*
X141577576Y-113808368D01*
X141574520Y-113785651D01*
X141566154Y-113753909D01*
X141544703Y-113676592D01*
X141511093Y-113556955D01*
X141466249Y-113398252D01*
X141411097Y-113203737D01*
X141346564Y-112976666D01*
X141273574Y-112720292D01*
X141193055Y-112437870D01*
X141105930Y-112132654D01*
X141013127Y-111807900D01*
X140915571Y-111466862D01*
X140815909Y-111118803D01*
X140068300Y-108509105D01*
X139758364Y-108508953D01*
X139448429Y-108508800D01*
X139480997Y-108617016D01*
X139492371Y-108655954D01*
X139516768Y-108740351D01*
X139553218Y-108866831D01*
X139600751Y-109032018D01*
X139658397Y-109232536D01*
X139725188Y-109465010D01*
X139800153Y-109726063D01*
X139882322Y-110012320D01*
X139970726Y-110320404D01*
X140064395Y-110646939D01*
X140162360Y-110988550D01*
X140247068Y-111284016D01*
X140980571Y-113842800D01*
X141283046Y-113842800D01*
X141410810Y-113842493D01*
G36*
X174345600Y-106984800D02*
X173913800Y-106984800D01*
X173913800Y-105638600D01*
X173558200Y-105638600D01*
X173558200Y-106984800D01*
X173151800Y-106984800D01*
X173151800Y-107289600D01*
X174345600Y-107289600D01*
X174345600Y-106984800D01*
X174345600Y-106984800D01*
G37*
X174345600Y-106984800D02*
X173913800Y-106984800D01*
X173913800Y-105638600D01*
X173558200Y-105638600D01*
X173558200Y-106984800D01*
X173151800Y-106984800D01*
X173151800Y-107289600D01*
X174345600Y-107289600D01*
X174345600Y-106984800D01*
G36*
X169932350Y-107289459D02*
X170118229Y-107286980D01*
X170262509Y-107278597D01*
X170374212Y-107262645D01*
X170462363Y-107237458D01*
X170535983Y-107201371D01*
X170582814Y-107169405D01*
X170672339Y-107072244D01*
X170733389Y-106945295D01*
X170762420Y-106803030D01*
X170755890Y-106659922D01*
X170729553Y-106570049D01*
X170686836Y-106500298D01*
X170622215Y-106427484D01*
X170552702Y-106368898D01*
X170507979Y-106344827D01*
X170507698Y-106319362D01*
X170531283Y-106254393D01*
X170576887Y-106154224D01*
X170642661Y-106023161D01*
X170661659Y-105986798D01*
X170844835Y-105638600D01*
X170430512Y-105638600D01*
X170126758Y-106273600D01*
X169926000Y-106273600D01*
X169926000Y-105638600D01*
X169570400Y-105638600D01*
X169570400Y-106984800D01*
X169926000Y-106984800D01*
X169926000Y-106578400D01*
X170110150Y-106579208D01*
X170220084Y-106584503D01*
X170301874Y-106598081D01*
X170337751Y-106613028D01*
X170397392Y-106686426D01*
X170416848Y-106776104D01*
X170396585Y-106856474D01*
X170335214Y-106925222D01*
X170234566Y-106967555D01*
X170092217Y-106984403D01*
X170061909Y-106984800D01*
X169926000Y-106984800D01*
X169570400Y-106984800D01*
X169570400Y-107289600D01*
X169932350Y-107289459D01*
X169932350Y-107289459D01*
G37*
X169932350Y-107289459D02*
X170118229Y-107286980D01*
X170262509Y-107278597D01*
X170374212Y-107262645D01*
X170462363Y-107237458D01*
X170535983Y-107201371D01*
X170582814Y-107169405D01*
X170672339Y-107072244D01*
X170733389Y-106945295D01*
X170762420Y-106803030D01*
X170755890Y-106659922D01*
X170729553Y-106570049D01*
X170686836Y-106500298D01*
X170622215Y-106427484D01*
X170552702Y-106368898D01*
X170507979Y-106344827D01*
X170507698Y-106319362D01*
X170531283Y-106254393D01*
X170576887Y-106154224D01*
X170642661Y-106023161D01*
X170661659Y-105986798D01*
X170844835Y-105638600D01*
X170430512Y-105638600D01*
X170126758Y-106273600D01*
X169926000Y-106273600D01*
X169926000Y-105638600D01*
X169570400Y-105638600D01*
X169570400Y-106984800D01*
X169926000Y-106984800D01*
X169926000Y-106578400D01*
X170110150Y-106579208D01*
X170220084Y-106584503D01*
X170301874Y-106598081D01*
X170337751Y-106613028D01*
X170397392Y-106686426D01*
X170416848Y-106776104D01*
X170396585Y-106856474D01*
X170335214Y-106925222D01*
X170234566Y-106967555D01*
X170092217Y-106984403D01*
X170061909Y-106984800D01*
X169926000Y-106984800D01*
X169570400Y-106984800D01*
X169570400Y-107289600D01*
X169932350Y-107289459D01*
G36*
X162566350Y-107289459D02*
X162745079Y-107287430D01*
X162882749Y-107280403D01*
X162988992Y-107266726D01*
X163073437Y-107244748D01*
X163145716Y-107212819D01*
X163197987Y-107181180D01*
X163288288Y-107093073D01*
X163354496Y-106972418D01*
X163392679Y-106833295D01*
X163398904Y-106689784D01*
X163371184Y-106561004D01*
X163297487Y-106433185D01*
X163185615Y-106338832D01*
X163035545Y-106277935D01*
X162847251Y-106250479D01*
X162782250Y-106248758D01*
X162560000Y-106248200D01*
X162560000Y-105638600D01*
X162204400Y-105638600D01*
X162204400Y-106984800D01*
X162560000Y-106984800D01*
X162560000Y-106553000D01*
X162734374Y-106553000D01*
X162841566Y-106556986D01*
X162913827Y-106571113D01*
X162966557Y-106598636D01*
X162972820Y-106603399D01*
X163037945Y-106681684D01*
X163055504Y-106772601D01*
X163031210Y-106855266D01*
X162970367Y-106924325D01*
X162871333Y-106966938D01*
X162731102Y-106984265D01*
X162695909Y-106984800D01*
X162560000Y-106984800D01*
X162204400Y-106984800D01*
X162204400Y-107289600D01*
X162566350Y-107289459D01*
X162566350Y-107289459D01*
G37*
X162566350Y-107289459D02*
X162745079Y-107287430D01*
X162882749Y-107280403D01*
X162988992Y-107266726D01*
X163073437Y-107244748D01*
X163145716Y-107212819D01*
X163197987Y-107181180D01*
X163288288Y-107093073D01*
X163354496Y-106972418D01*
X163392679Y-106833295D01*
X163398904Y-106689784D01*
X163371184Y-106561004D01*
X163297487Y-106433185D01*
X163185615Y-106338832D01*
X163035545Y-106277935D01*
X162847251Y-106250479D01*
X162782250Y-106248758D01*
X162560000Y-106248200D01*
X162560000Y-105638600D01*
X162204400Y-105638600D01*
X162204400Y-106984800D01*
X162560000Y-106984800D01*
X162560000Y-106553000D01*
X162734374Y-106553000D01*
X162841566Y-106556986D01*
X162913827Y-106571113D01*
X162966557Y-106598636D01*
X162972820Y-106603399D01*
X163037945Y-106681684D01*
X163055504Y-106772601D01*
X163031210Y-106855266D01*
X162970367Y-106924325D01*
X162871333Y-106966938D01*
X162731102Y-106984265D01*
X162695909Y-106984800D01*
X162560000Y-106984800D01*
X162204400Y-106984800D01*
X162204400Y-107289600D01*
X162566350Y-107289459D01*
G36*
X155263850Y-107288995D02*
X155401226Y-107287140D01*
X155528666Y-107282497D01*
X155633297Y-107275732D01*
X155702247Y-107267508D01*
X155709653Y-107265975D01*
X155854018Y-107208541D01*
X155968981Y-107114626D01*
X156049860Y-106992130D01*
X156091978Y-106848950D01*
X156090653Y-106692986D01*
X156080070Y-106640789D01*
X156046409Y-106556020D01*
X155993243Y-106472052D01*
X155931199Y-106401748D01*
X155870903Y-106357977D01*
X155839727Y-106349800D01*
X155831911Y-106334208D01*
X155846185Y-106285437D01*
X155883791Y-106200492D01*
X155945968Y-106076380D01*
X155980273Y-106010785D01*
X156042612Y-105891626D01*
X156095498Y-105788544D01*
X156134793Y-105709764D01*
X156156358Y-105663511D01*
X156159200Y-105655185D01*
X156135826Y-105647420D01*
X156073790Y-105641601D01*
X155985224Y-105638737D01*
X155959680Y-105638600D01*
X155760161Y-105638600D01*
X155610430Y-105955815D01*
X155460700Y-106273029D01*
X155352750Y-106273315D01*
X155244800Y-106273600D01*
X155244800Y-105638600D01*
X154914600Y-105638600D01*
X154914600Y-106578400D01*
X155244800Y-106578400D01*
X155436454Y-106578400D01*
X155538417Y-106580299D01*
X155604399Y-106588409D01*
X155649153Y-106606351D01*
X155687431Y-106637747D01*
X155690454Y-106640746D01*
X155742686Y-106721595D01*
X155744732Y-106807389D01*
X155696548Y-106894926D01*
X155693935Y-106898001D01*
X155657566Y-106933844D01*
X155614885Y-106956098D01*
X155551583Y-106969323D01*
X155453352Y-106978080D01*
X155439935Y-106978958D01*
X155244800Y-106991481D01*
X155244800Y-106578400D01*
X154914600Y-106578400D01*
X154914600Y-107289600D01*
X155263850Y-107288995D01*
X155263850Y-107288995D01*
G37*
X155263850Y-107288995D02*
X155401226Y-107287140D01*
X155528666Y-107282497D01*
X155633297Y-107275732D01*
X155702247Y-107267508D01*
X155709653Y-107265975D01*
X155854018Y-107208541D01*
X155968981Y-107114626D01*
X156049860Y-106992130D01*
X156091978Y-106848950D01*
X156090653Y-106692986D01*
X156080070Y-106640789D01*
X156046409Y-106556020D01*
X155993243Y-106472052D01*
X155931199Y-106401748D01*
X155870903Y-106357977D01*
X155839727Y-106349800D01*
X155831911Y-106334208D01*
X155846185Y-106285437D01*
X155883791Y-106200492D01*
X155945968Y-106076380D01*
X155980273Y-106010785D01*
X156042612Y-105891626D01*
X156095498Y-105788544D01*
X156134793Y-105709764D01*
X156156358Y-105663511D01*
X156159200Y-105655185D01*
X156135826Y-105647420D01*
X156073790Y-105641601D01*
X155985224Y-105638737D01*
X155959680Y-105638600D01*
X155760161Y-105638600D01*
X155610430Y-105955815D01*
X155460700Y-106273029D01*
X155352750Y-106273315D01*
X155244800Y-106273600D01*
X155244800Y-105638600D01*
X154914600Y-105638600D01*
X154914600Y-106578400D01*
X155244800Y-106578400D01*
X155436454Y-106578400D01*
X155538417Y-106580299D01*
X155604399Y-106588409D01*
X155649153Y-106606351D01*
X155687431Y-106637747D01*
X155690454Y-106640746D01*
X155742686Y-106721595D01*
X155744732Y-106807389D01*
X155696548Y-106894926D01*
X155693935Y-106898001D01*
X155657566Y-106933844D01*
X155614885Y-106956098D01*
X155551583Y-106969323D01*
X155453352Y-106978080D01*
X155439935Y-106978958D01*
X155244800Y-106991481D01*
X155244800Y-106578400D01*
X154914600Y-106578400D01*
X154914600Y-107289600D01*
X155263850Y-107288995D01*
G36*
X148793200Y-106984800D02*
X148361400Y-106984800D01*
X148361400Y-105638600D01*
X148031200Y-105638600D01*
X148031200Y-106984800D01*
X147599400Y-106984800D01*
X147599400Y-107289600D01*
X148793200Y-107289600D01*
X148793200Y-106984800D01*
X148793200Y-106984800D01*
G37*
X148793200Y-106984800D02*
X148361400Y-106984800D01*
X148361400Y-105638600D01*
X148031200Y-105638600D01*
X148031200Y-106984800D01*
X147599400Y-106984800D01*
X147599400Y-107289600D01*
X148793200Y-107289600D01*
X148793200Y-106984800D01*
G36*
X140522246Y-106858525D02*
X140731468Y-106427450D01*
X141143700Y-107289600D01*
X141478000Y-107289600D01*
X141478000Y-105638600D01*
X141147800Y-105638600D01*
X141144848Y-106540300D01*
X141000794Y-106254550D01*
X140856739Y-105968800D01*
X140600660Y-105968800D01*
X140456605Y-106254550D01*
X140312551Y-106540300D01*
X140311075Y-106089450D01*
X140309600Y-105638600D01*
X139979400Y-105638600D01*
X139979400Y-107289600D01*
X140313023Y-107289600D01*
X140522246Y-106858525D01*
X140522246Y-106858525D01*
G37*
X140522246Y-106858525D02*
X140731468Y-106427450D01*
X141143700Y-107289600D01*
X141478000Y-107289600D01*
X141478000Y-105638600D01*
X141147800Y-105638600D01*
X141144848Y-106540300D01*
X141000794Y-106254550D01*
X140856739Y-105968800D01*
X140600660Y-105968800D01*
X140456605Y-106254550D01*
X140312551Y-106540300D01*
X140311075Y-106089450D01*
X140309600Y-105638600D01*
X139979400Y-105638600D01*
X139979400Y-107289600D01*
X140313023Y-107289600D01*
X140522246Y-106858525D01*
G36*
X177501553Y-107277208D02*
X177561872Y-107264439D01*
X177646526Y-107230795D01*
X177727145Y-107187592D01*
X177790486Y-107143205D01*
X177823307Y-107106006D01*
X177825226Y-107097905D01*
X177808433Y-107066413D01*
X177765201Y-107014491D01*
X177729110Y-106977286D01*
X177632820Y-106883262D01*
X177533239Y-106934031D01*
X177417142Y-106976170D01*
X177303581Y-106987846D01*
X177202117Y-106971584D01*
X177122312Y-106929910D01*
X177073727Y-106865349D01*
X177063400Y-106809948D01*
X177074857Y-106747087D01*
X177113624Y-106698895D01*
X177186290Y-106661346D01*
X177299448Y-106630416D01*
X177383603Y-106614373D01*
X177547829Y-106578349D01*
X177669419Y-106532002D01*
X177756230Y-106470580D01*
X177816119Y-106389331D01*
X177838672Y-106339136D01*
X177874477Y-106183754D01*
X177866293Y-106032027D01*
X177817364Y-105893054D01*
X177730934Y-105775938D01*
X177610245Y-105689781D01*
X177606636Y-105688014D01*
X177494811Y-105650600D01*
X177353730Y-105627077D01*
X177203435Y-105619068D01*
X177063966Y-105628196D01*
X177005855Y-105639365D01*
X176902739Y-105673309D01*
X176801370Y-105719928D01*
X176719408Y-105770269D01*
X176682942Y-105803047D01*
X176668443Y-105830518D01*
X176676889Y-105862161D01*
X176713770Y-105909080D01*
X176758604Y-105956105D01*
X176868424Y-106068003D01*
X176935959Y-106019914D01*
X177035767Y-105969363D01*
X177158284Y-105935647D01*
X177278625Y-105924443D01*
X177332508Y-105929477D01*
X177418083Y-105961099D01*
X177491005Y-106014949D01*
X177537104Y-106078565D01*
X177546000Y-106117232D01*
X177531748Y-106183933D01*
X177485194Y-106234912D01*
X177400643Y-106273733D01*
X177272396Y-106303961D01*
X177238436Y-106309702D01*
X177064414Y-106345693D01*
X176933823Y-106393218D01*
X176839762Y-106456928D01*
X176775329Y-106541475D01*
X176734121Y-106649628D01*
X176715120Y-106810110D01*
X176743099Y-106959973D01*
X176815418Y-107092009D01*
X176929434Y-107199006D01*
X176937341Y-107204339D01*
X177001442Y-107241235D01*
X177068214Y-107264226D01*
X177154700Y-107277647D01*
X177252656Y-107284574D01*
X177387731Y-107286231D01*
X177501553Y-107277208D01*
X177501553Y-107277208D01*
G37*
X177501553Y-107277208D02*
X177561872Y-107264439D01*
X177646526Y-107230795D01*
X177727145Y-107187592D01*
X177790486Y-107143205D01*
X177823307Y-107106006D01*
X177825226Y-107097905D01*
X177808433Y-107066413D01*
X177765201Y-107014491D01*
X177729110Y-106977286D01*
X177632820Y-106883262D01*
X177533239Y-106934031D01*
X177417142Y-106976170D01*
X177303581Y-106987846D01*
X177202117Y-106971584D01*
X177122312Y-106929910D01*
X177073727Y-106865349D01*
X177063400Y-106809948D01*
X177074857Y-106747087D01*
X177113624Y-106698895D01*
X177186290Y-106661346D01*
X177299448Y-106630416D01*
X177383603Y-106614373D01*
X177547829Y-106578349D01*
X177669419Y-106532002D01*
X177756230Y-106470580D01*
X177816119Y-106389331D01*
X177838672Y-106339136D01*
X177874477Y-106183754D01*
X177866293Y-106032027D01*
X177817364Y-105893054D01*
X177730934Y-105775938D01*
X177610245Y-105689781D01*
X177606636Y-105688014D01*
X177494811Y-105650600D01*
X177353730Y-105627077D01*
X177203435Y-105619068D01*
X177063966Y-105628196D01*
X177005855Y-105639365D01*
X176902739Y-105673309D01*
X176801370Y-105719928D01*
X176719408Y-105770269D01*
X176682942Y-105803047D01*
X176668443Y-105830518D01*
X176676889Y-105862161D01*
X176713770Y-105909080D01*
X176758604Y-105956105D01*
X176868424Y-106068003D01*
X176935959Y-106019914D01*
X177035767Y-105969363D01*
X177158284Y-105935647D01*
X177278625Y-105924443D01*
X177332508Y-105929477D01*
X177418083Y-105961099D01*
X177491005Y-106014949D01*
X177537104Y-106078565D01*
X177546000Y-106117232D01*
X177531748Y-106183933D01*
X177485194Y-106234912D01*
X177400643Y-106273733D01*
X177272396Y-106303961D01*
X177238436Y-106309702D01*
X177064414Y-106345693D01*
X176933823Y-106393218D01*
X176839762Y-106456928D01*
X176775329Y-106541475D01*
X176734121Y-106649628D01*
X176715120Y-106810110D01*
X176743099Y-106959973D01*
X176815418Y-107092009D01*
X176929434Y-107199006D01*
X176937341Y-107204339D01*
X177001442Y-107241235D01*
X177068214Y-107264226D01*
X177154700Y-107277647D01*
X177252656Y-107284574D01*
X177387731Y-107286231D01*
X177501553Y-107277208D01*
G36*
X166618668Y-107268982D02*
X166771524Y-107210349D01*
X166892374Y-107112400D01*
X166981526Y-106974949D01*
X166992924Y-106949148D01*
X167016499Y-106863771D01*
X167034625Y-106741639D01*
X167046589Y-106596578D01*
X167051678Y-106442412D01*
X167049180Y-106292966D01*
X167038382Y-106162063D01*
X167034787Y-106136906D01*
X166991786Y-105967696D01*
X166919498Y-105835541D01*
X166813355Y-105733114D01*
X166762368Y-105699977D01*
X166637675Y-105648951D01*
X166490375Y-105621849D01*
X166341602Y-105620668D01*
X166212490Y-105647406D01*
X166211198Y-105647885D01*
X166058006Y-105729714D01*
X165939336Y-105846287D01*
X165884168Y-105936360D01*
X165860957Y-105988078D01*
X165844689Y-106039132D01*
X165834131Y-106099874D01*
X165828053Y-106180654D01*
X165825224Y-106291824D01*
X165825003Y-106332170D01*
X166169293Y-106332170D01*
X166177100Y-106198163D01*
X166196143Y-106100088D01*
X166228419Y-106030769D01*
X166275925Y-105983033D01*
X166324599Y-105956268D01*
X166391138Y-105929175D01*
X166436690Y-105922039D01*
X166486426Y-105934731D01*
X166536829Y-105955186D01*
X166600128Y-105991961D01*
X166645585Y-106046280D01*
X166675688Y-106125702D01*
X166692927Y-106237784D01*
X166699788Y-106390084D01*
X166700200Y-106451400D01*
X166695984Y-106618005D01*
X166683602Y-106742332D01*
X166664783Y-106817197D01*
X166601341Y-106914952D01*
X166515799Y-106971152D01*
X166417677Y-106983583D01*
X166316495Y-106950034D01*
X166262450Y-106910700D01*
X166179500Y-106836600D01*
X166170727Y-106509282D01*
X166169293Y-106332170D01*
X165825003Y-106332170D01*
X165824418Y-106438700D01*
X165826194Y-106619505D01*
X165833458Y-106758943D01*
X165848280Y-106866335D01*
X165872728Y-106950999D01*
X165908872Y-107022255D01*
X165958780Y-107089421D01*
X165972420Y-107105266D01*
X166081364Y-107201683D01*
X166210309Y-107260909D01*
X166368651Y-107286679D01*
X166433500Y-107288485D01*
X166618668Y-107268982D01*
X166618668Y-107268982D01*
G37*
X166618668Y-107268982D02*
X166771524Y-107210349D01*
X166892374Y-107112400D01*
X166981526Y-106974949D01*
X166992924Y-106949148D01*
X167016499Y-106863771D01*
X167034625Y-106741639D01*
X167046589Y-106596578D01*
X167051678Y-106442412D01*
X167049180Y-106292966D01*
X167038382Y-106162063D01*
X167034787Y-106136906D01*
X166991786Y-105967696D01*
X166919498Y-105835541D01*
X166813355Y-105733114D01*
X166762368Y-105699977D01*
X166637675Y-105648951D01*
X166490375Y-105621849D01*
X166341602Y-105620668D01*
X166212490Y-105647406D01*
X166211198Y-105647885D01*
X166058006Y-105729714D01*
X165939336Y-105846287D01*
X165884168Y-105936360D01*
X165860957Y-105988078D01*
X165844689Y-106039132D01*
X165834131Y-106099874D01*
X165828053Y-106180654D01*
X165825224Y-106291824D01*
X165825003Y-106332170D01*
X166169293Y-106332170D01*
X166177100Y-106198163D01*
X166196143Y-106100088D01*
X166228419Y-106030769D01*
X166275925Y-105983033D01*
X166324599Y-105956268D01*
X166391138Y-105929175D01*
X166436690Y-105922039D01*
X166486426Y-105934731D01*
X166536829Y-105955186D01*
X166600128Y-105991961D01*
X166645585Y-106046280D01*
X166675688Y-106125702D01*
X166692927Y-106237784D01*
X166699788Y-106390084D01*
X166700200Y-106451400D01*
X166695984Y-106618005D01*
X166683602Y-106742332D01*
X166664783Y-106817197D01*
X166601341Y-106914952D01*
X166515799Y-106971152D01*
X166417677Y-106983583D01*
X166316495Y-106950034D01*
X166262450Y-106910700D01*
X166179500Y-106836600D01*
X166170727Y-106509282D01*
X166169293Y-106332170D01*
X165825003Y-106332170D01*
X165824418Y-106438700D01*
X165826194Y-106619505D01*
X165833458Y-106758943D01*
X165848280Y-106866335D01*
X165872728Y-106950999D01*
X165908872Y-107022255D01*
X165958780Y-107089421D01*
X165972420Y-107105266D01*
X166081364Y-107201683D01*
X166210309Y-107260909D01*
X166368651Y-107286679D01*
X166433500Y-107288485D01*
X166618668Y-107268982D01*
G36*
X159306534Y-107276164D02*
X159452327Y-107240250D01*
X159569703Y-107184784D01*
X159637060Y-107126976D01*
X159653824Y-107098196D01*
X159647450Y-107067802D01*
X159612433Y-107023624D01*
X159571068Y-106981117D01*
X159468917Y-106878965D01*
X159370185Y-106931883D01*
X159257234Y-106973833D01*
X159138838Y-106987257D01*
X159030401Y-106972490D01*
X158947326Y-106929871D01*
X158939345Y-106922455D01*
X158887497Y-106851698D01*
X158881832Y-106782421D01*
X158901694Y-106732119D01*
X158923782Y-106700828D01*
X158957870Y-106676935D01*
X159013853Y-106656735D01*
X159101627Y-106636525D01*
X159211983Y-106615974D01*
X159381602Y-106577115D01*
X159507776Y-106525746D01*
X159597339Y-106456618D01*
X159657126Y-106364482D01*
X159693562Y-106246080D01*
X159704672Y-106081397D01*
X159668939Y-105933533D01*
X159588490Y-105806974D01*
X159465453Y-105706206D01*
X159427480Y-105685156D01*
X159325801Y-105650374D01*
X159192779Y-105628358D01*
X159046512Y-105620201D01*
X158905097Y-105626997D01*
X158796242Y-105646998D01*
X158709408Y-105680116D01*
X158623531Y-105726694D01*
X158551338Y-105778099D01*
X158505561Y-105825697D01*
X158496000Y-105850638D01*
X158512999Y-105884860D01*
X158556696Y-105939021D01*
X158595721Y-105979667D01*
X158695443Y-106077042D01*
X158761116Y-106025384D01*
X158871908Y-105965090D01*
X159003738Y-105933699D01*
X159139191Y-105932524D01*
X159260854Y-105962879D01*
X159302450Y-105984579D01*
X159344990Y-106038133D01*
X159360403Y-106114004D01*
X159347198Y-106190655D01*
X159319685Y-106233686D01*
X159286447Y-106265182D01*
X159275235Y-106273635D01*
X159214174Y-106280335D01*
X159121504Y-106297334D01*
X159013271Y-106320902D01*
X158905521Y-106347306D01*
X158814300Y-106372814D01*
X158755654Y-106393693D01*
X158752552Y-106395203D01*
X158657046Y-106470245D01*
X158590918Y-106576454D01*
X158555420Y-106702691D01*
X158551803Y-106837819D01*
X158581321Y-106970701D01*
X158645224Y-107090199D01*
X158670906Y-107121353D01*
X158770453Y-107205828D01*
X158891634Y-107259324D01*
X159043833Y-107285166D01*
X159143700Y-107288795D01*
X159306534Y-107276164D01*
X159306534Y-107276164D01*
G37*
X159306534Y-107276164D02*
X159452327Y-107240250D01*
X159569703Y-107184784D01*
X159637060Y-107126976D01*
X159653824Y-107098196D01*
X159647450Y-107067802D01*
X159612433Y-107023624D01*
X159571068Y-106981117D01*
X159468917Y-106878965D01*
X159370185Y-106931883D01*
X159257234Y-106973833D01*
X159138838Y-106987257D01*
X159030401Y-106972490D01*
X158947326Y-106929871D01*
X158939345Y-106922455D01*
X158887497Y-106851698D01*
X158881832Y-106782421D01*
X158901694Y-106732119D01*
X158923782Y-106700828D01*
X158957870Y-106676935D01*
X159013853Y-106656735D01*
X159101627Y-106636525D01*
X159211983Y-106615974D01*
X159381602Y-106577115D01*
X159507776Y-106525746D01*
X159597339Y-106456618D01*
X159657126Y-106364482D01*
X159693562Y-106246080D01*
X159704672Y-106081397D01*
X159668939Y-105933533D01*
X159588490Y-105806974D01*
X159465453Y-105706206D01*
X159427480Y-105685156D01*
X159325801Y-105650374D01*
X159192779Y-105628358D01*
X159046512Y-105620201D01*
X158905097Y-105626997D01*
X158796242Y-105646998D01*
X158709408Y-105680116D01*
X158623531Y-105726694D01*
X158551338Y-105778099D01*
X158505561Y-105825697D01*
X158496000Y-105850638D01*
X158512999Y-105884860D01*
X158556696Y-105939021D01*
X158595721Y-105979667D01*
X158695443Y-106077042D01*
X158761116Y-106025384D01*
X158871908Y-105965090D01*
X159003738Y-105933699D01*
X159139191Y-105932524D01*
X159260854Y-105962879D01*
X159302450Y-105984579D01*
X159344990Y-106038133D01*
X159360403Y-106114004D01*
X159347198Y-106190655D01*
X159319685Y-106233686D01*
X159286447Y-106265182D01*
X159275235Y-106273635D01*
X159214174Y-106280335D01*
X159121504Y-106297334D01*
X159013271Y-106320902D01*
X158905521Y-106347306D01*
X158814300Y-106372814D01*
X158755654Y-106393693D01*
X158752552Y-106395203D01*
X158657046Y-106470245D01*
X158590918Y-106576454D01*
X158555420Y-106702691D01*
X158551803Y-106837819D01*
X158581321Y-106970701D01*
X158645224Y-107090199D01*
X158670906Y-107121353D01*
X158770453Y-107205828D01*
X158891634Y-107259324D01*
X159043833Y-107285166D01*
X159143700Y-107288795D01*
X159306534Y-107276164D01*
G36*
X151933821Y-107272927D02*
X152078487Y-107216816D01*
X152203643Y-107125397D01*
X152285307Y-107023851D01*
X152315063Y-106973884D01*
X152336143Y-106929248D01*
X152350301Y-106879673D01*
X152359293Y-106814889D01*
X152364872Y-106724625D01*
X152368795Y-106598612D01*
X152370545Y-106525020D01*
X152372248Y-106326136D01*
X152365735Y-106169486D01*
X152348979Y-106046882D01*
X152319954Y-105950136D01*
X152276632Y-105871061D01*
X152216986Y-105801470D01*
X152183779Y-105770624D01*
X152037688Y-105674577D01*
X151871272Y-105623950D01*
X151688456Y-105619528D01*
X151551869Y-105644596D01*
X151449901Y-105691891D01*
X151346747Y-105773004D01*
X151256841Y-105873415D01*
X151194615Y-105978602D01*
X151180972Y-106017763D01*
X151168008Y-106099978D01*
X151160230Y-106226108D01*
X151157925Y-106389504D01*
X151158140Y-106406119D01*
X151500311Y-106406119D01*
X151502429Y-106276101D01*
X151507729Y-106185822D01*
X151517864Y-106124247D01*
X151534485Y-106080337D01*
X151553560Y-106050519D01*
X151640288Y-105966490D01*
X151736398Y-105929291D01*
X151834608Y-105939537D01*
X151927637Y-105997844D01*
X151946770Y-106017276D01*
X151984387Y-106067293D01*
X152008603Y-106126933D01*
X152024469Y-106211934D01*
X152032280Y-106283776D01*
X152039994Y-106449731D01*
X152033410Y-106610916D01*
X152013771Y-106751415D01*
X151988827Y-106839948D01*
X151936765Y-106911707D01*
X151854227Y-106964148D01*
X151761090Y-106984704D01*
X151759911Y-106984706D01*
X151698961Y-106971548D01*
X151627829Y-106939549D01*
X151620328Y-106935117D01*
X151574725Y-106899605D01*
X151541761Y-106851858D01*
X151519647Y-106783990D01*
X151506595Y-106688116D01*
X151500815Y-106556351D01*
X151500311Y-106406119D01*
X151158140Y-106406119D01*
X151159555Y-106515141D01*
X151163192Y-106663296D01*
X151167592Y-106770710D01*
X151174439Y-106847436D01*
X151185413Y-106903525D01*
X151202199Y-106949027D01*
X151226477Y-106993996D01*
X151244692Y-107023855D01*
X151346827Y-107144286D01*
X151476147Y-107229409D01*
X151623312Y-107279223D01*
X151778983Y-107293729D01*
X151933821Y-107272927D01*
X151933821Y-107272927D01*
G37*
X151933821Y-107272927D02*
X152078487Y-107216816D01*
X152203643Y-107125397D01*
X152285307Y-107023851D01*
X152315063Y-106973884D01*
X152336143Y-106929248D01*
X152350301Y-106879673D01*
X152359293Y-106814889D01*
X152364872Y-106724625D01*
X152368795Y-106598612D01*
X152370545Y-106525020D01*
X152372248Y-106326136D01*
X152365735Y-106169486D01*
X152348979Y-106046882D01*
X152319954Y-105950136D01*
X152276632Y-105871061D01*
X152216986Y-105801470D01*
X152183779Y-105770624D01*
X152037688Y-105674577D01*
X151871272Y-105623950D01*
X151688456Y-105619528D01*
X151551869Y-105644596D01*
X151449901Y-105691891D01*
X151346747Y-105773004D01*
X151256841Y-105873415D01*
X151194615Y-105978602D01*
X151180972Y-106017763D01*
X151168008Y-106099978D01*
X151160230Y-106226108D01*
X151157925Y-106389504D01*
X151158140Y-106406119D01*
X151500311Y-106406119D01*
X151502429Y-106276101D01*
X151507729Y-106185822D01*
X151517864Y-106124247D01*
X151534485Y-106080337D01*
X151553560Y-106050519D01*
X151640288Y-105966490D01*
X151736398Y-105929291D01*
X151834608Y-105939537D01*
X151927637Y-105997844D01*
X151946770Y-106017276D01*
X151984387Y-106067293D01*
X152008603Y-106126933D01*
X152024469Y-106211934D01*
X152032280Y-106283776D01*
X152039994Y-106449731D01*
X152033410Y-106610916D01*
X152013771Y-106751415D01*
X151988827Y-106839948D01*
X151936765Y-106911707D01*
X151854227Y-106964148D01*
X151761090Y-106984704D01*
X151759911Y-106984706D01*
X151698961Y-106971548D01*
X151627829Y-106939549D01*
X151620328Y-106935117D01*
X151574725Y-106899605D01*
X151541761Y-106851858D01*
X151519647Y-106783990D01*
X151506595Y-106688116D01*
X151500815Y-106556351D01*
X151500311Y-106406119D01*
X151158140Y-106406119D01*
X151159555Y-106515141D01*
X151163192Y-106663296D01*
X151167592Y-106770710D01*
X151174439Y-106847436D01*
X151185413Y-106903525D01*
X151202199Y-106949027D01*
X151226477Y-106993996D01*
X151244692Y-107023855D01*
X151346827Y-107144286D01*
X151476147Y-107229409D01*
X151623312Y-107279223D01*
X151778983Y-107293729D01*
X151933821Y-107272927D01*
G36*
X144734944Y-107282445D02*
X144873057Y-107250307D01*
X144991133Y-107183543D01*
X145080319Y-107101019D01*
X145141911Y-107021875D01*
X145186398Y-106932273D01*
X145215549Y-106823740D01*
X145231137Y-106687805D01*
X145234931Y-106515996D01*
X145231754Y-106376514D01*
X145219375Y-106180745D01*
X145195214Y-106027228D01*
X145155726Y-105908085D01*
X145097367Y-105815439D01*
X145016590Y-105741413D01*
X144919700Y-105683123D01*
X144822576Y-105649275D01*
X144698576Y-105627562D01*
X144569135Y-105619907D01*
X144455687Y-105628234D01*
X144415094Y-105637857D01*
X144272502Y-105709002D01*
X144152740Y-105819306D01*
X144079601Y-105932306D01*
X144055484Y-105983523D01*
X144038294Y-106029429D01*
X144027067Y-106079500D01*
X144020836Y-106143216D01*
X144018638Y-106230052D01*
X144019507Y-106349486D01*
X144022182Y-106496129D01*
X144022316Y-106502319D01*
X144348978Y-106502319D01*
X144352824Y-106374432D01*
X144361763Y-106251327D01*
X144374987Y-106146203D01*
X144391686Y-106072260D01*
X144400748Y-106051639D01*
X144451703Y-105998753D01*
X144525673Y-105950745D01*
X144599162Y-105921712D01*
X144622511Y-105918579D01*
X144666862Y-105929189D01*
X144728234Y-105955606D01*
X144730031Y-105956530D01*
X144788143Y-105993867D01*
X144829880Y-106041898D01*
X144857437Y-106108646D01*
X144873011Y-106202133D01*
X144878798Y-106330382D01*
X144877172Y-106494104D01*
X144868900Y-106836695D01*
X144785949Y-106910748D01*
X144688465Y-106970707D01*
X144590449Y-106984211D01*
X144499958Y-106954875D01*
X144425049Y-106886310D01*
X144373783Y-106782132D01*
X144359804Y-106719646D01*
X144351035Y-106621790D01*
X144348978Y-106502319D01*
X144022316Y-106502319D01*
X144025595Y-106653616D01*
X144029512Y-106769274D01*
X144035248Y-106852072D01*
X144044123Y-106910973D01*
X144057452Y-106954944D01*
X144076554Y-106992951D01*
X144100766Y-107030974D01*
X144199063Y-107149278D01*
X144315110Y-107227729D01*
X144458904Y-107271778D01*
X144565083Y-107284119D01*
X144734944Y-107282445D01*
X144734944Y-107282445D01*
G37*
X144734944Y-107282445D02*
X144873057Y-107250307D01*
X144991133Y-107183543D01*
X145080319Y-107101019D01*
X145141911Y-107021875D01*
X145186398Y-106932273D01*
X145215549Y-106823740D01*
X145231137Y-106687805D01*
X145234931Y-106515996D01*
X145231754Y-106376514D01*
X145219375Y-106180745D01*
X145195214Y-106027228D01*
X145155726Y-105908085D01*
X145097367Y-105815439D01*
X145016590Y-105741413D01*
X144919700Y-105683123D01*
X144822576Y-105649275D01*
X144698576Y-105627562D01*
X144569135Y-105619907D01*
X144455687Y-105628234D01*
X144415094Y-105637857D01*
X144272502Y-105709002D01*
X144152740Y-105819306D01*
X144079601Y-105932306D01*
X144055484Y-105983523D01*
X144038294Y-106029429D01*
X144027067Y-106079500D01*
X144020836Y-106143216D01*
X144018638Y-106230052D01*
X144019507Y-106349486D01*
X144022182Y-106496129D01*
X144022316Y-106502319D01*
X144348978Y-106502319D01*
X144352824Y-106374432D01*
X144361763Y-106251327D01*
X144374987Y-106146203D01*
X144391686Y-106072260D01*
X144400748Y-106051639D01*
X144451703Y-105998753D01*
X144525673Y-105950745D01*
X144599162Y-105921712D01*
X144622511Y-105918579D01*
X144666862Y-105929189D01*
X144728234Y-105955606D01*
X144730031Y-105956530D01*
X144788143Y-105993867D01*
X144829880Y-106041898D01*
X144857437Y-106108646D01*
X144873011Y-106202133D01*
X144878798Y-106330382D01*
X144877172Y-106494104D01*
X144868900Y-106836695D01*
X144785949Y-106910748D01*
X144688465Y-106970707D01*
X144590449Y-106984211D01*
X144499958Y-106954875D01*
X144425049Y-106886310D01*
X144373783Y-106782132D01*
X144359804Y-106719646D01*
X144351035Y-106621790D01*
X144348978Y-106502319D01*
X144022316Y-106502319D01*
X144025595Y-106653616D01*
X144029512Y-106769274D01*
X144035248Y-106852072D01*
X144044123Y-106910973D01*
X144057452Y-106954944D01*
X144076554Y-106992951D01*
X144100766Y-107030974D01*
X144199063Y-107149278D01*
X144315110Y-107227729D01*
X144458904Y-107271778D01*
X144565083Y-107284119D01*
X144734944Y-107282445D01*
G04 #@! TD*
M02*
