M48
;DRILL file {KiCad 5.0.2-bee76a0~70~ubuntu18.04.1} date Sat 20 Apr 2019 06:07:30 PM EDT
;FORMAT={-:-/ absolute / inch / decimal}
FMAT,2
INCH,TZ
T1C0.0120
T2C0.0315
T3C0.0402
T4C0.0472
T5C0.0630
%
G90
G05
T1
X5.4232Y-3.3366
X5.4921Y-3.4055
X5.5179Y-3.7954
X5.5709Y-3.8484
X5.6299Y-3.248
X5.6299Y-3.2874
X5.6299Y-3.3268
X5.6299Y-3.3661
X5.6299Y-3.4055
X5.6299Y-3.4449
X5.6693Y-3.248
X5.6693Y-3.2874
X5.6693Y-3.3268
X5.6693Y-3.3661
X5.6693Y-3.4055
X5.6693Y-3.4449
X5.6693Y-3.7205
X5.7087Y-3.248
X5.7087Y-3.2874
X5.7087Y-3.3268
X5.7087Y-3.3661
X5.7087Y-3.4055
X5.7087Y-3.4449
X5.748Y-3.248
X5.748Y-3.2874
X5.748Y-3.3268
X5.748Y-3.3661
X5.748Y-3.4055
X5.748Y-3.4449
X5.748Y-4.0945
X5.7874Y-3.248
X5.7874Y-3.2874
X5.7874Y-3.3268
X5.7874Y-3.3661
X5.7874Y-3.4055
X5.7874Y-3.4449
X5.8169Y-4.1043
X6.0039Y-3.6024
X6.0433Y-3.7205
X6.0433Y-3.7992
X6.1024Y-3.5925
X6.1024Y-3.8484
X6.1024Y-3.9075
X6.122Y-3.5335
X6.1909Y-3.7205
X6.2598Y-3.6417
X6.3189Y-3.6811
X7.165Y-3.43
X7.175Y-3.515
X7.175Y-3.665
X7.175Y-3.77
X7.184Y-3.252
X7.19Y-3.315
X7.19Y-3.374
X7.225Y-4.
T2
X5.2831Y-3.88
X5.48Y-3.88
X7.28Y-3.57
X7.28Y-3.67
X7.28Y-3.77
X7.38Y-3.62
X7.38Y-3.72
X7.38Y-3.82
T3
X5.4Y-3.2733
X5.4Y-3.4111
X5.4Y-3.5489
X5.4Y-3.6867
T4
X5.62Y-4.0616
X5.62Y-4.16
T5
X5.4878Y-3.6178
T0
M30
