M48
INCH,TZ
T1C0.0120
T2C0.0295
T3C0.0400
T4C0.0402
T5C0.1201
%
G90
G05
T1
X49730Y-30800
X50298Y-30094
X50406Y-36296
X50900Y-29570
X51330Y-39322
X51468Y-29048
X52080Y-36096
X53346Y-34190
X53748Y-34546
X53752Y-33004
X54164Y-35058
X54464Y-35067
X54937Y-33045
X55030Y-38254
X55426Y-33480
X55730Y-31366
X56128Y-30742
X56282Y-40782
X56303Y-43300
X57294Y-47209
X57294Y-47909
X57300Y-33414
X57426Y-36720
X57524Y-34564
X57734Y-29162
X57944Y-31954
X58156Y-29942
X58194Y-47209
X58194Y-47909
X59170Y-29196
X60194Y-49109
X60594Y-48409
X62209Y-45971
X62229Y-46991
X62394Y-40616
X62594Y-45909
X63404Y-47238
X63964Y-43672
X64064Y-44072
X64064Y-44772
X64064Y-45572
X64464Y-43672
X64464Y-44372
X64464Y-45172
T2
X54182Y-29534
X54682Y-29534
X55182Y-29534
X60156Y-32182
X60156Y-32682
X60156Y-33182
X62986Y-29860
X62986Y-30360
X62986Y-30860
T3
X48806Y-33000
X48806Y-34000
X48806Y-35000
X49806Y-33000
X49806Y-34000
X49806Y-35000
T4
X49658Y-42035
X49658Y-43217
X51036Y-42035
X51036Y-43217
X52414Y-42035
X52414Y-43217
X53792Y-42035
X53792Y-43217
T5
X50410Y-46331
X53166Y-46331
T0
M30
