G04 #@! TF.GenerationSoftware,KiCad,Pcbnew,5.0.1-33cea8e~68~ubuntu18.04.1*
G04 #@! TF.CreationDate,2019-02-12T00:11:03-05:00*
G04 #@! TF.ProjectId,IMU,494D552E6B696361645F706362000000,rev?*
G04 #@! TF.SameCoordinates,Original*
G04 #@! TF.FileFunction,Legend,Top*
G04 #@! TF.FilePolarity,Positive*
%FSLAX46Y46*%
G04 Gerber Fmt 4.6, Leading zero omitted, Abs format (unit mm)*
G04 Created by KiCad (PCBNEW 5.0.1-33cea8e~68~ubuntu18.04.1) date Tue 12 Feb 2019 12:11:03 AM EST*
%MOMM*%
%LPD*%
G01*
G04 APERTURE LIST*
%ADD10C,0.127000*%
%ADD11C,0.100000*%
%ADD12C,0.300000*%
%ADD13C,0.152400*%
%ADD14C,0.120000*%
%ADD15C,0.150000*%
%ADD16C,0.200000*%
%ADD17C,0.500000*%
G04 APERTURE END LIST*
D10*
X162016440Y-75117960D02*
X163449000Y-76550520D01*
X160746440Y-76367640D02*
X162006280Y-75107800D01*
D11*
X163675857Y-77015260D02*
X163827380Y-76695379D01*
X163507499Y-76846902D02*
X163827380Y-76695379D01*
X163945231Y-76644871D01*
X163978903Y-76644871D01*
X164029411Y-76661707D01*
X160519324Y-76654178D02*
X160098427Y-76704686D01*
X160283621Y-76889880D02*
X160334129Y-76468983D01*
D12*
X117672777Y-76379571D02*
X117958491Y-76379571D01*
X118101348Y-76451000D01*
X118244205Y-76593857D01*
X118315634Y-76879571D01*
X118315634Y-77379571D01*
X118244205Y-77665285D01*
X118101348Y-77808142D01*
X117958491Y-77879571D01*
X117672777Y-77879571D01*
X117529920Y-77808142D01*
X117387062Y-77665285D01*
X117315634Y-77379571D01*
X117315634Y-76879571D01*
X117387062Y-76593857D01*
X117529920Y-76451000D01*
X117672777Y-76379571D01*
X118958491Y-77093857D02*
X119458491Y-77093857D01*
X119672777Y-77879571D02*
X118958491Y-77879571D01*
X118958491Y-76379571D01*
X119672777Y-76379571D01*
X120315634Y-77879571D02*
X120315634Y-76379571D01*
X120815634Y-77451000D01*
X121315634Y-76379571D01*
X121315634Y-77879571D01*
X118244205Y-80286714D02*
X118172777Y-80358142D01*
X117958491Y-80429571D01*
X117815634Y-80429571D01*
X117601348Y-80358142D01*
X117458491Y-80215285D01*
X117387062Y-80072428D01*
X117315634Y-79786714D01*
X117315634Y-79572428D01*
X117387062Y-79286714D01*
X117458491Y-79143857D01*
X117601348Y-79001000D01*
X117815634Y-78929571D01*
X117958491Y-78929571D01*
X118172777Y-79001000D01*
X118244205Y-79072428D01*
X119172777Y-78929571D02*
X119458491Y-78929571D01*
X119601348Y-79001000D01*
X119744205Y-79143857D01*
X119815634Y-79429571D01*
X119815634Y-79929571D01*
X119744205Y-80215285D01*
X119601348Y-80358142D01*
X119458491Y-80429571D01*
X119172777Y-80429571D01*
X119029920Y-80358142D01*
X118887062Y-80215285D01*
X118815634Y-79929571D01*
X118815634Y-79429571D01*
X118887062Y-79143857D01*
X119029920Y-79001000D01*
X119172777Y-78929571D01*
X120458491Y-80429571D02*
X120458491Y-78929571D01*
X120958491Y-80001000D01*
X121458491Y-78929571D01*
X121458491Y-80429571D01*
X123815634Y-79643857D02*
X124029920Y-79715285D01*
X124101348Y-79786714D01*
X124172777Y-79929571D01*
X124172777Y-80143857D01*
X124101348Y-80286714D01*
X124029920Y-80358142D01*
X123887062Y-80429571D01*
X123315634Y-80429571D01*
X123315634Y-78929571D01*
X123815634Y-78929571D01*
X123958491Y-79001000D01*
X124029920Y-79072428D01*
X124101348Y-79215285D01*
X124101348Y-79358142D01*
X124029920Y-79501000D01*
X123958491Y-79572428D01*
X123815634Y-79643857D01*
X123315634Y-79643857D01*
X125029920Y-80429571D02*
X124887062Y-80358142D01*
X124815634Y-80286714D01*
X124744205Y-80143857D01*
X124744205Y-79715285D01*
X124815634Y-79572428D01*
X124887062Y-79501000D01*
X125029920Y-79429571D01*
X125244205Y-79429571D01*
X125387062Y-79501000D01*
X125458491Y-79572428D01*
X125529920Y-79715285D01*
X125529920Y-80143857D01*
X125458491Y-80286714D01*
X125387062Y-80358142D01*
X125244205Y-80429571D01*
X125029920Y-80429571D01*
X126815634Y-80429571D02*
X126815634Y-79643857D01*
X126744205Y-79501000D01*
X126601348Y-79429571D01*
X126315634Y-79429571D01*
X126172777Y-79501000D01*
X126815634Y-80358142D02*
X126672777Y-80429571D01*
X126315634Y-80429571D01*
X126172777Y-80358142D01*
X126101348Y-80215285D01*
X126101348Y-80072428D01*
X126172777Y-79929571D01*
X126315634Y-79858142D01*
X126672777Y-79858142D01*
X126815634Y-79786714D01*
X127529920Y-80429571D02*
X127529920Y-79429571D01*
X127529920Y-79715285D02*
X127601348Y-79572428D01*
X127672777Y-79501000D01*
X127815634Y-79429571D01*
X127958491Y-79429571D01*
X129101348Y-80429571D02*
X129101348Y-78929571D01*
X129101348Y-80358142D02*
X128958491Y-80429571D01*
X128672777Y-80429571D01*
X128529920Y-80358142D01*
X128458491Y-80286714D01*
X128387062Y-80143857D01*
X128387062Y-79715285D01*
X128458491Y-79572428D01*
X128529920Y-79501000D01*
X128672777Y-79429571D01*
X128958491Y-79429571D01*
X129101348Y-79501000D01*
X117387062Y-82979571D02*
X117387062Y-81479571D01*
X117744205Y-81479571D01*
X117958491Y-81551000D01*
X118101348Y-81693857D01*
X118172777Y-81836714D01*
X118244205Y-82122428D01*
X118244205Y-82336714D01*
X118172777Y-82622428D01*
X118101348Y-82765285D01*
X117958491Y-82908142D01*
X117744205Y-82979571D01*
X117387062Y-82979571D01*
X118887062Y-82979571D02*
X118887062Y-81479571D01*
X119529920Y-82979571D02*
X119529920Y-82193857D01*
X119458491Y-82051000D01*
X119315634Y-81979571D01*
X119101348Y-81979571D01*
X118958491Y-82051000D01*
X118887062Y-82122428D01*
X120887062Y-82979571D02*
X120887062Y-82193857D01*
X120815634Y-82051000D01*
X120672777Y-81979571D01*
X120387062Y-81979571D01*
X120244205Y-82051000D01*
X120887062Y-82908142D02*
X120744205Y-82979571D01*
X120387062Y-82979571D01*
X120244205Y-82908142D01*
X120172777Y-82765285D01*
X120172777Y-82622428D01*
X120244205Y-82479571D01*
X120387062Y-82408142D01*
X120744205Y-82408142D01*
X120887062Y-82336714D01*
X121601348Y-82979571D02*
X121601348Y-81979571D01*
X121601348Y-82265285D02*
X121672777Y-82122428D01*
X121744205Y-82051000D01*
X121887062Y-81979571D01*
X122029920Y-81979571D01*
X123172777Y-82979571D02*
X123172777Y-82193857D01*
X123101348Y-82051000D01*
X122958491Y-81979571D01*
X122672777Y-81979571D01*
X122529920Y-82051000D01*
X123172777Y-82908142D02*
X123029920Y-82979571D01*
X122672777Y-82979571D01*
X122529920Y-82908142D01*
X122458491Y-82765285D01*
X122458491Y-82622428D01*
X122529920Y-82479571D01*
X122672777Y-82408142D01*
X123029920Y-82408142D01*
X123172777Y-82336714D01*
X125029920Y-82979571D02*
X125029920Y-81479571D01*
X125601348Y-81479571D01*
X125744205Y-81551000D01*
X125815634Y-81622428D01*
X125887062Y-81765285D01*
X125887062Y-81979571D01*
X125815634Y-82122428D01*
X125744205Y-82193857D01*
X125601348Y-82265285D01*
X125029920Y-82265285D01*
X127172777Y-82979571D02*
X127172777Y-82193857D01*
X127101348Y-82051000D01*
X126958491Y-81979571D01*
X126672777Y-81979571D01*
X126529920Y-82051000D01*
X127172777Y-82908142D02*
X127029920Y-82979571D01*
X126672777Y-82979571D01*
X126529920Y-82908142D01*
X126458491Y-82765285D01*
X126458491Y-82622428D01*
X126529920Y-82479571D01*
X126672777Y-82408142D01*
X127029920Y-82408142D01*
X127172777Y-82336714D01*
X127672777Y-81979571D02*
X128244205Y-81979571D01*
X127887062Y-81479571D02*
X127887062Y-82765285D01*
X127958491Y-82908142D01*
X128101348Y-82979571D01*
X128244205Y-82979571D01*
X129315634Y-82908142D02*
X129172777Y-82979571D01*
X128887062Y-82979571D01*
X128744205Y-82908142D01*
X128672777Y-82765285D01*
X128672777Y-82193857D01*
X128744205Y-82051000D01*
X128887062Y-81979571D01*
X129172777Y-81979571D01*
X129315634Y-82051000D01*
X129387062Y-82193857D01*
X129387062Y-82336714D01*
X128672777Y-82479571D01*
X130244205Y-82979571D02*
X130101348Y-82908142D01*
X130029920Y-82765285D01*
X130029920Y-81479571D01*
X117387062Y-85529571D02*
X117387062Y-84529571D01*
X117387062Y-84815285D02*
X117458491Y-84672428D01*
X117529920Y-84601000D01*
X117672777Y-84529571D01*
X117815634Y-84529571D01*
X118887062Y-85458142D02*
X118744205Y-85529571D01*
X118458491Y-85529571D01*
X118315634Y-85458142D01*
X118244205Y-85315285D01*
X118244205Y-84743857D01*
X118315634Y-84601000D01*
X118458491Y-84529571D01*
X118744205Y-84529571D01*
X118887062Y-84601000D01*
X118958491Y-84743857D01*
X118958491Y-84886714D01*
X118244205Y-85029571D01*
X119458491Y-84529571D02*
X119815634Y-85529571D01*
X120172777Y-84529571D01*
X120744205Y-85386714D02*
X120815634Y-85458142D01*
X120744205Y-85529571D01*
X120672777Y-85458142D01*
X120744205Y-85386714D01*
X120744205Y-85529571D01*
X123387062Y-85529571D02*
X122529920Y-85529571D01*
X122958491Y-85529571D02*
X122958491Y-84029571D01*
X122815634Y-84243857D01*
X122672777Y-84386714D01*
X122529920Y-84458142D01*
D13*
X141234643Y-117420571D02*
X141234643Y-118146285D01*
X141234643Y-117783428D02*
X139964643Y-117783428D01*
X140146072Y-117904380D01*
X140267024Y-118025333D01*
X140327500Y-118146285D01*
X140085596Y-116936761D02*
X140025120Y-116876285D01*
X139964643Y-116755333D01*
X139964643Y-116452952D01*
X140025120Y-116332000D01*
X140085596Y-116271523D01*
X140206548Y-116211047D01*
X140327500Y-116211047D01*
X140508929Y-116271523D01*
X141234643Y-116997238D01*
X141234643Y-116211047D01*
X139964643Y-115848190D02*
X141234643Y-115424857D01*
X139964643Y-115001523D01*
X141234643Y-113005809D02*
X141234643Y-113610571D01*
X139964643Y-113610571D01*
X140569405Y-112582476D02*
X140569405Y-112159142D01*
X141234643Y-111977714D02*
X141234643Y-112582476D01*
X139964643Y-112582476D01*
X139964643Y-111977714D01*
X141234643Y-111433428D02*
X139964643Y-111433428D01*
X139964643Y-111131047D01*
X140025120Y-110949619D01*
X140146072Y-110828666D01*
X140267024Y-110768190D01*
X140508929Y-110707714D01*
X140690358Y-110707714D01*
X140932262Y-110768190D01*
X141053215Y-110828666D01*
X141174167Y-110949619D01*
X141234643Y-111131047D01*
X141234643Y-111433428D01*
X161489855Y-104804983D02*
X160885093Y-104804983D01*
X160824617Y-105409745D01*
X160885093Y-105349269D01*
X161006045Y-105288793D01*
X161308426Y-105288793D01*
X161429379Y-105349269D01*
X161489855Y-105409745D01*
X161550331Y-105530698D01*
X161550331Y-105833079D01*
X161489855Y-105954031D01*
X161429379Y-106014507D01*
X161308426Y-106074983D01*
X161006045Y-106074983D01*
X160885093Y-106014507D01*
X160824617Y-105954031D01*
X161913188Y-104804983D02*
X162336521Y-106074983D01*
X162759855Y-104804983D01*
X160915331Y-108132383D02*
X160310569Y-108132383D01*
X160310569Y-106862383D01*
X161338664Y-107467145D02*
X161761998Y-107467145D01*
X161943426Y-108132383D02*
X161338664Y-108132383D01*
X161338664Y-106862383D01*
X161943426Y-106862383D01*
X162487712Y-108132383D02*
X162487712Y-106862383D01*
X162790093Y-106862383D01*
X162971521Y-106922860D01*
X163092474Y-107043812D01*
X163152950Y-107164764D01*
X163213426Y-107406669D01*
X163213426Y-107588098D01*
X163152950Y-107830002D01*
X163092474Y-107950955D01*
X162971521Y-108071907D01*
X162790093Y-108132383D01*
X162487712Y-108132383D01*
D14*
G04 #@! TO.C,R1*
X158235767Y-82236101D02*
X157387239Y-83084629D01*
X156142731Y-81840121D02*
X156991259Y-80991593D01*
D15*
G04 #@! TO.C,J4*
X139278360Y-87203280D02*
X139278360Y-82123280D01*
X139558360Y-90023280D02*
X138008360Y-90023280D01*
X136738360Y-89743280D02*
X136738360Y-87203280D01*
X136738360Y-87203280D02*
X139278360Y-87203280D01*
X139278360Y-82123280D02*
X134198360Y-82123280D01*
X134198360Y-82123280D02*
X134198360Y-87203280D01*
X139558360Y-90023280D02*
X139558360Y-88473280D01*
X134198360Y-89743280D02*
X136738360Y-89743280D01*
X134198360Y-87203280D02*
X134198360Y-89743280D01*
D14*
G04 #@! TO.C,R2*
X143148560Y-114965880D02*
X144348560Y-114965880D01*
X144348560Y-116725880D02*
X143148560Y-116725880D01*
G04 #@! TO.C,F1*
X145424060Y-114438380D02*
X145424060Y-112438380D01*
X148384060Y-112438380D02*
X148384060Y-114438380D01*
D11*
G04 #@! TO.C,D2*
X156224560Y-102795880D02*
X156224560Y-103145880D01*
X156224560Y-103145880D02*
X156224560Y-103495880D01*
X155874560Y-102795880D02*
X156224560Y-103145880D01*
X155874560Y-102845880D02*
X155874560Y-102795880D01*
X155874560Y-102795880D02*
X155874560Y-102845880D01*
X155874560Y-103495880D02*
X155874560Y-102845880D01*
X155924560Y-103445880D02*
X155874560Y-103495880D01*
X156224560Y-103145880D02*
X155924560Y-103445880D01*
D14*
X157824560Y-103845880D02*
X157824560Y-102445880D01*
X157824560Y-102445880D02*
X155024560Y-102445880D01*
X157824560Y-103845880D02*
X155024560Y-103845880D01*
G04 #@! TO.C,R9*
X155619560Y-108140880D02*
X150419560Y-108140880D01*
X150419560Y-104500880D02*
X155619560Y-104500880D01*
G04 #@! TO.C,C7*
X160504560Y-109153880D02*
X159504560Y-109153880D01*
X159504560Y-110853880D02*
X160504560Y-110853880D01*
G04 #@! TO.C,U2*
X151574660Y-118438380D02*
X151574660Y-120238380D01*
X154794660Y-120238380D02*
X154794660Y-117788380D01*
G04 #@! TO.C,C3*
X150864560Y-120655880D02*
X150864560Y-118655880D01*
X148824560Y-118655880D02*
X148824560Y-120655880D01*
G04 #@! TO.C,R12*
X152222560Y-104025880D02*
X151022560Y-104025880D01*
X151022560Y-102265880D02*
X152222560Y-102265880D01*
G04 #@! TO.C,R4*
X150768560Y-122077880D02*
X151968560Y-122077880D01*
X151968560Y-123837880D02*
X150768560Y-123837880D01*
G04 #@! TO.C,R5*
X160376560Y-120325880D02*
X160376560Y-121525880D01*
X158616560Y-121525880D02*
X158616560Y-120325880D01*
G04 #@! TO.C,C12*
X160504560Y-113471880D02*
X159504560Y-113471880D01*
X159504560Y-115171880D02*
X160504560Y-115171880D01*
G04 #@! TO.C,C11*
X160504560Y-111185880D02*
X159504560Y-111185880D01*
X159504560Y-112885880D02*
X160504560Y-112885880D01*
G04 #@! TO.C,C5*
X155344560Y-120171880D02*
X155344560Y-121171880D01*
X157044560Y-121171880D02*
X157044560Y-120171880D01*
D11*
G04 #@! TO.C,D1*
X142697720Y-112675240D02*
X143047720Y-112675240D01*
X143047720Y-112675240D02*
X143397720Y-112675240D01*
X142697720Y-113025240D02*
X143047720Y-112675240D01*
X142747720Y-113025240D02*
X142697720Y-113025240D01*
X142697720Y-113025240D02*
X142747720Y-113025240D01*
X143397720Y-113025240D02*
X142747720Y-113025240D01*
X143347720Y-112975240D02*
X143397720Y-113025240D01*
X143047720Y-112675240D02*
X143347720Y-112975240D01*
D14*
X143747720Y-111075240D02*
X142347720Y-111075240D01*
X142347720Y-111075240D02*
X142347720Y-113875240D01*
X143747720Y-111075240D02*
X143747720Y-113875240D01*
D16*
G04 #@! TO.C,D7*
X146526560Y-105085880D02*
X145626560Y-106185880D01*
X144826560Y-105085880D02*
X146526560Y-105085880D01*
X145626560Y-106185880D02*
X144826560Y-105085880D01*
X144826560Y-106185880D02*
X146526560Y-106185880D01*
D14*
X144193060Y-108860880D02*
X146860060Y-108860880D01*
X146860060Y-108860880D02*
X146860060Y-105685880D01*
X144193060Y-108860880D02*
X144193060Y-105685880D01*
G04 #@! TO.C,R3*
X143148560Y-116997880D02*
X144348560Y-116997880D01*
X144348560Y-118757880D02*
X143148560Y-118757880D01*
G04 #@! TO.C,C1*
X143220886Y-89619927D02*
X143927993Y-90327034D01*
X145130074Y-89124953D02*
X144422967Y-88417846D01*
G04 #@! TO.C,C2*
X155064906Y-80120653D02*
X154357799Y-80827760D01*
X155559880Y-82029841D02*
X156266987Y-81322734D01*
G04 #@! TO.C,C4*
X137578720Y-90940520D02*
X136578720Y-90940520D01*
X136578720Y-92640520D02*
X137578720Y-92640520D01*
G04 #@! TO.C,C6*
X156736680Y-89624280D02*
X156736680Y-90624280D01*
X158436680Y-90624280D02*
X158436680Y-89624280D01*
G04 #@! TO.C,C8*
X150462880Y-93713680D02*
X150462880Y-94713680D01*
X152162880Y-94713680D02*
X152162880Y-93713680D01*
G04 #@! TO.C,C9*
X133753363Y-79080457D02*
X132753363Y-79080457D01*
X132753363Y-80780457D02*
X133753363Y-80780457D01*
G04 #@! TO.C,C10*
X135288803Y-76325817D02*
X135288803Y-77325817D01*
X136988803Y-77325817D02*
X136988803Y-76325817D01*
G04 #@! TO.C,C13*
X160053767Y-73165558D02*
X159823562Y-72935353D01*
X159332518Y-73886807D02*
X159102313Y-73656602D01*
G04 #@! TO.C,C14*
X154729340Y-79923369D02*
X154499135Y-80153574D01*
X154008091Y-79202120D02*
X153777886Y-79432325D01*
G04 #@! TO.C,D3*
X145549043Y-75765733D02*
X147528942Y-77745632D01*
X144559093Y-76755683D02*
X146538992Y-78735582D01*
X145549043Y-75765733D02*
X144559093Y-76755683D01*
D11*
X146185439Y-77392079D02*
X146609703Y-77392079D01*
X146609703Y-77392079D02*
X146680413Y-77392079D01*
X146680413Y-77392079D02*
X146220794Y-77851698D01*
X146185439Y-77887053D02*
X146220794Y-77851698D01*
X146220794Y-77851698D02*
X146185439Y-77887053D01*
X146185439Y-77887053D02*
X146185439Y-77392079D01*
X146185439Y-77392079D02*
X146432926Y-77144591D01*
X145937951Y-77639566D02*
X146185439Y-77392079D01*
G04 #@! TO.C,D4*
X144511048Y-79001583D02*
X144758536Y-78754096D01*
X144758536Y-78754096D02*
X145006023Y-78506608D01*
X144758536Y-79249070D02*
X144758536Y-78754096D01*
X144793891Y-79213715D02*
X144758536Y-79249070D01*
X144758536Y-79249070D02*
X144793891Y-79213715D01*
X145253510Y-78754096D02*
X144793891Y-79213715D01*
X145182800Y-78754096D02*
X145253510Y-78754096D01*
X144758536Y-78754096D02*
X145182800Y-78754096D01*
D14*
X144122140Y-77127750D02*
X143132190Y-78117700D01*
X143132190Y-78117700D02*
X145112089Y-80097599D01*
X144122140Y-77127750D02*
X146102039Y-79107649D01*
G04 #@! TO.C,D5*
X142723986Y-78475336D02*
X144703885Y-80455235D01*
X141734036Y-79465286D02*
X143713935Y-81445185D01*
X142723986Y-78475336D02*
X141734036Y-79465286D01*
D11*
X143360382Y-80101682D02*
X143784646Y-80101682D01*
X143784646Y-80101682D02*
X143855356Y-80101682D01*
X143855356Y-80101682D02*
X143395737Y-80561301D01*
X143360382Y-80596656D02*
X143395737Y-80561301D01*
X143395737Y-80561301D02*
X143360382Y-80596656D01*
X143360382Y-80596656D02*
X143360382Y-80101682D01*
X143360382Y-80101682D02*
X143607869Y-79854194D01*
X143112894Y-80349169D02*
X143360382Y-80101682D01*
D14*
G04 #@! TO.C,R7*
X137738560Y-100836840D02*
X138938560Y-100836840D01*
X138938560Y-102596840D02*
X137738560Y-102596840D01*
G04 #@! TO.C,R8*
X142229970Y-83383158D02*
X141381442Y-82534630D01*
X142625950Y-81290122D02*
X143474478Y-82138650D01*
D15*
G04 #@! TO.C,U1*
X140837360Y-94632960D02*
X140787360Y-94632960D01*
X140837360Y-98782960D02*
X140692360Y-98782960D01*
X135687360Y-98782960D02*
X135832360Y-98782960D01*
X135687360Y-94632960D02*
X135832360Y-94632960D01*
X140837360Y-94632960D02*
X140837360Y-98782960D01*
X135687360Y-94632960D02*
X135687360Y-98782960D01*
X140787360Y-94632960D02*
X140787360Y-93232960D01*
G04 #@! TO.C,U5*
X144512112Y-85607629D02*
X143504485Y-86615256D01*
X149479537Y-80322006D02*
X149249727Y-80551816D01*
X154606061Y-85448530D02*
X154376251Y-85678340D01*
X149479537Y-90575054D02*
X149709347Y-90345244D01*
X144353013Y-85448530D02*
X144582823Y-85218720D01*
X149479537Y-90575054D02*
X149249727Y-90345244D01*
X154606061Y-85448530D02*
X154376251Y-85218720D01*
X149479537Y-80322006D02*
X149709347Y-80551816D01*
X144353013Y-85448530D02*
X144512112Y-85607629D01*
D17*
X143441723Y-85322806D02*
G75*
G03X143441723Y-85322806I-50800J0D01*
G01*
X145776591Y-85466491D02*
G75*
G03X145776591Y-85466491I-50801J0D01*
G01*
D11*
G04 #@! TO.C,Y1*
X156482800Y-93690240D02*
X156482801Y-92090240D01*
X156482800Y-93690240D02*
X154482800Y-93690240D01*
D14*
G04 #@! TO.C,U3*
X134878603Y-77797697D02*
X134878603Y-75347697D01*
X131658603Y-75997697D02*
X131658603Y-77797697D01*
D15*
G04 #@! TO.C,U4*
X157424275Y-79905526D02*
X157837367Y-79528355D01*
X157478156Y-79420592D02*
X157460196Y-79438552D01*
X157424275Y-79294868D02*
X157478156Y-79420592D01*
X157208749Y-79510394D02*
X157424275Y-79294868D01*
X157370393Y-79672039D02*
X157208749Y-79510394D01*
X157675722Y-79402631D02*
X157370393Y-79672039D01*
X157442235Y-79169145D02*
X157675722Y-79402631D01*
X157083025Y-79528355D02*
X157442235Y-79169145D01*
X157388354Y-79833683D02*
X157083025Y-79528355D01*
X157801446Y-79420592D02*
X157388354Y-79833683D01*
X157424275Y-79043421D02*
X157891248Y-79510394D01*
X157154867Y-79312829D02*
X157424275Y-79043421D01*
X156957302Y-79510394D02*
X157172828Y-79294868D01*
X157442235Y-79995328D02*
X156957302Y-79510394D01*
X157909209Y-79528355D02*
X157442235Y-79995328D01*
X157693683Y-79312829D02*
X157909209Y-79528355D01*
X159554080Y-77437440D02*
X156372100Y-74255460D01*
X157433750Y-79557770D02*
X159555070Y-77436450D01*
X154251770Y-76375790D02*
X156373090Y-74254470D01*
X157433750Y-79557770D02*
X154251770Y-76375790D01*
G04 #@! TO.C,J1*
X138880880Y-104769920D02*
X138880880Y-122929920D01*
X123880880Y-104769920D02*
X123880880Y-122929920D01*
X123880880Y-104769920D02*
X138880880Y-104769920D01*
X123880880Y-122929920D02*
X138880880Y-122929920D01*
D14*
G04 #@! TO.C,PC7*
X143981119Y-73806091D02*
X144829647Y-74654619D01*
X143585139Y-75899127D02*
X142736611Y-75050599D01*
G04 #@! TO.C,PB5*
X142087730Y-77297318D02*
X141239202Y-76448790D01*
X142483710Y-75204282D02*
X143332238Y-76052810D01*
G04 #@! TO.C,PB6*
X141066390Y-76616522D02*
X141914918Y-77465050D01*
X140670410Y-78709558D02*
X139821882Y-77861030D01*
G04 #@! TO.C,J4*
D15*
X132421380Y-88867573D02*
X133135666Y-88867573D01*
X133278523Y-88915192D01*
X133373761Y-89010430D01*
X133421380Y-89153287D01*
X133421380Y-89248525D01*
X132754714Y-87962811D02*
X133421380Y-87962811D01*
X132373761Y-88200906D02*
X133088047Y-88439001D01*
X133088047Y-87819954D01*
G04 #@! TO.C,R4*
X148575733Y-124211340D02*
X148242400Y-123735150D01*
X148004304Y-124211340D02*
X148004304Y-123211340D01*
X148385257Y-123211340D01*
X148480495Y-123258960D01*
X148528114Y-123306579D01*
X148575733Y-123401817D01*
X148575733Y-123544674D01*
X148528114Y-123639912D01*
X148480495Y-123687531D01*
X148385257Y-123735150D01*
X148004304Y-123735150D01*
X149432876Y-123544674D02*
X149432876Y-124211340D01*
X149194780Y-123163721D02*
X148956685Y-123878007D01*
X149575733Y-123878007D01*
G04 #@! TO.C,R5*
X161788100Y-121827586D02*
X161311910Y-122160920D01*
X161788100Y-122399015D02*
X160788100Y-122399015D01*
X160788100Y-122018062D01*
X160835720Y-121922824D01*
X160883339Y-121875205D01*
X160978577Y-121827586D01*
X161121434Y-121827586D01*
X161216672Y-121875205D01*
X161264291Y-121922824D01*
X161311910Y-122018062D01*
X161311910Y-122399015D01*
X160788100Y-120922824D02*
X160788100Y-121399015D01*
X161264291Y-121446634D01*
X161216672Y-121399015D01*
X161169053Y-121303777D01*
X161169053Y-121065681D01*
X161216672Y-120970443D01*
X161264291Y-120922824D01*
X161359529Y-120875205D01*
X161597624Y-120875205D01*
X161692862Y-120922824D01*
X161740481Y-120970443D01*
X161788100Y-121065681D01*
X161788100Y-121303777D01*
X161740481Y-121399015D01*
X161692862Y-121446634D01*
G04 #@! TO.C,C5*
X155885853Y-124873022D02*
X155838234Y-124920641D01*
X155695377Y-124968260D01*
X155600139Y-124968260D01*
X155457281Y-124920641D01*
X155362043Y-124825403D01*
X155314424Y-124730165D01*
X155266805Y-124539689D01*
X155266805Y-124396832D01*
X155314424Y-124206356D01*
X155362043Y-124111118D01*
X155457281Y-124015880D01*
X155600139Y-123968260D01*
X155695377Y-123968260D01*
X155838234Y-124015880D01*
X155885853Y-124063499D01*
X156790615Y-123968260D02*
X156314424Y-123968260D01*
X156266805Y-124444451D01*
X156314424Y-124396832D01*
X156409662Y-124349213D01*
X156647758Y-124349213D01*
X156742996Y-124396832D01*
X156790615Y-124444451D01*
X156838234Y-124539689D01*
X156838234Y-124777784D01*
X156790615Y-124873022D01*
X156742996Y-124920641D01*
X156647758Y-124968260D01*
X156409662Y-124968260D01*
X156314424Y-124920641D01*
X156266805Y-124873022D01*
G04 #@! TO.C,U1*
X141214740Y-97469864D02*
X142024264Y-97469864D01*
X142119502Y-97422245D01*
X142167121Y-97374626D01*
X142214740Y-97279388D01*
X142214740Y-97088912D01*
X142167121Y-96993674D01*
X142119502Y-96946055D01*
X142024264Y-96898436D01*
X141214740Y-96898436D01*
X142214740Y-95898436D02*
X142214740Y-96469864D01*
X142214740Y-96184150D02*
X141214740Y-96184150D01*
X141357598Y-96279388D01*
X141452836Y-96374626D01*
X141500455Y-96469864D01*
G04 #@! TO.C,U5*
X146165426Y-84647162D02*
X146737846Y-85219582D01*
X146838861Y-85253254D01*
X146906205Y-85253254D01*
X147007220Y-85219582D01*
X147141907Y-85084895D01*
X147175579Y-84983880D01*
X147175579Y-84916536D01*
X147141907Y-84815521D01*
X146569487Y-84243101D01*
X147242922Y-83569666D02*
X146906205Y-83906384D01*
X147209251Y-84276773D01*
X147209251Y-84209430D01*
X147242922Y-84108414D01*
X147411281Y-83940056D01*
X147512296Y-83906384D01*
X147579640Y-83906384D01*
X147680655Y-83940056D01*
X147849014Y-84108414D01*
X147882686Y-84209430D01*
X147882686Y-84276773D01*
X147849014Y-84377788D01*
X147680655Y-84546147D01*
X147579640Y-84579819D01*
X147512296Y-84579819D01*
G04 #@! TO.C,Y1*
X154042169Y-94499750D02*
X154042169Y-94975940D01*
X153708836Y-93975940D02*
X154042169Y-94499750D01*
X154375502Y-93975940D01*
X155232645Y-94975940D02*
X154661217Y-94975940D01*
X154946931Y-94975940D02*
X154946931Y-93975940D01*
X154851693Y-94118798D01*
X154756455Y-94214036D01*
X154661217Y-94261655D01*
G04 #@! TO.C,U3*
X132496655Y-73782940D02*
X132496655Y-74592464D01*
X132544274Y-74687702D01*
X132591893Y-74735321D01*
X132687131Y-74782940D01*
X132877607Y-74782940D01*
X132972845Y-74735321D01*
X133020464Y-74687702D01*
X133068083Y-74592464D01*
X133068083Y-73782940D01*
X133449036Y-73782940D02*
X134068083Y-73782940D01*
X133734750Y-74163893D01*
X133877607Y-74163893D01*
X133972845Y-74211512D01*
X134020464Y-74259131D01*
X134068083Y-74354369D01*
X134068083Y-74592464D01*
X134020464Y-74687702D01*
X133972845Y-74735321D01*
X133877607Y-74782940D01*
X133591893Y-74782940D01*
X133496655Y-74735321D01*
X133449036Y-74687702D01*
G04 #@! TO.C,U4*
X160337453Y-77957372D02*
X160480310Y-78004991D01*
X160527929Y-78052610D01*
X160575548Y-78147848D01*
X160575548Y-78290705D01*
X160527929Y-78385943D01*
X160480310Y-78433562D01*
X160385072Y-78481181D01*
X160004120Y-78481181D01*
X160004120Y-77481181D01*
X160337453Y-77481181D01*
X160432691Y-77528801D01*
X160480310Y-77576420D01*
X160527929Y-77671658D01*
X160527929Y-77766896D01*
X160480310Y-77862134D01*
X160432691Y-77909753D01*
X160337453Y-77957372D01*
X160004120Y-77957372D01*
X161004120Y-78481181D02*
X161004120Y-77481181D01*
X161337453Y-78195467D01*
X161670786Y-77481181D01*
X161670786Y-78481181D01*
X162146977Y-78481181D02*
X162146977Y-77481181D01*
X162813643Y-77481181D02*
X162908881Y-77481181D01*
X163004120Y-77528801D01*
X163051739Y-77576420D01*
X163099358Y-77671658D01*
X163146977Y-77862134D01*
X163146977Y-78100229D01*
X163099358Y-78290705D01*
X163051739Y-78385943D01*
X163004120Y-78433562D01*
X162908881Y-78481181D01*
X162813643Y-78481181D01*
X162718405Y-78433562D01*
X162670786Y-78385943D01*
X162623167Y-78290705D01*
X162575548Y-78100229D01*
X162575548Y-77862134D01*
X162623167Y-77671658D01*
X162670786Y-77576420D01*
X162718405Y-77528801D01*
X162813643Y-77481181D01*
X163718405Y-77909753D02*
X163623167Y-77862134D01*
X163575548Y-77814515D01*
X163527929Y-77719277D01*
X163527929Y-77671658D01*
X163575548Y-77576420D01*
X163623167Y-77528801D01*
X163718405Y-77481181D01*
X163908881Y-77481181D01*
X164004120Y-77528801D01*
X164051739Y-77576420D01*
X164099358Y-77671658D01*
X164099358Y-77719277D01*
X164051739Y-77814515D01*
X164004120Y-77862134D01*
X163908881Y-77909753D01*
X163718405Y-77909753D01*
X163623167Y-77957372D01*
X163575548Y-78004991D01*
X163527929Y-78100229D01*
X163527929Y-78290705D01*
X163575548Y-78385943D01*
X163623167Y-78433562D01*
X163718405Y-78481181D01*
X163908881Y-78481181D01*
X164004120Y-78433562D01*
X164051739Y-78385943D01*
X164099358Y-78290705D01*
X164099358Y-78100229D01*
X164051739Y-78004991D01*
X164004120Y-77957372D01*
X163908881Y-77909753D01*
X164670786Y-77909753D02*
X164575548Y-77862134D01*
X164527929Y-77814515D01*
X164480310Y-77719277D01*
X164480310Y-77671658D01*
X164527929Y-77576420D01*
X164575548Y-77528801D01*
X164670786Y-77481181D01*
X164861262Y-77481181D01*
X164956500Y-77528801D01*
X165004120Y-77576420D01*
X165051739Y-77671658D01*
X165051739Y-77719277D01*
X165004120Y-77814515D01*
X164956500Y-77862134D01*
X164861262Y-77909753D01*
X164670786Y-77909753D01*
X164575548Y-77957372D01*
X164527929Y-78004991D01*
X164480310Y-78100229D01*
X164480310Y-78290705D01*
X164527929Y-78385943D01*
X164575548Y-78433562D01*
X164670786Y-78481181D01*
X164861262Y-78481181D01*
X164956500Y-78433562D01*
X165004120Y-78385943D01*
X165051739Y-78290705D01*
X165051739Y-78100229D01*
X165004120Y-78004991D01*
X164956500Y-77957372D01*
X164861262Y-77909753D01*
G04 #@! TO.C,J1*
X124279066Y-103206300D02*
X124279066Y-103920586D01*
X124231447Y-104063443D01*
X124136209Y-104158681D01*
X123993352Y-104206300D01*
X123898114Y-104206300D01*
X125279066Y-104206300D02*
X124707638Y-104206300D01*
X124993352Y-104206300D02*
X124993352Y-103206300D01*
X124898114Y-103349158D01*
X124802876Y-103444396D01*
X124707638Y-103492015D01*
G04 #@! TO.C,PC7*
X144041852Y-73246655D02*
X144748959Y-72539548D01*
X145018333Y-72808922D01*
X145052005Y-72909937D01*
X145052005Y-72977281D01*
X145018333Y-73078296D01*
X144917318Y-73179311D01*
X144816303Y-73212983D01*
X144748959Y-73212983D01*
X144647944Y-73179311D01*
X144378570Y-72909937D01*
X145220364Y-74290479D02*
X145153020Y-74290479D01*
X145018333Y-74223135D01*
X144950990Y-74155792D01*
X144883646Y-74021105D01*
X144883646Y-73886418D01*
X144917318Y-73785403D01*
X145018333Y-73617044D01*
X145119348Y-73516029D01*
X145287707Y-73415013D01*
X145388722Y-73381342D01*
X145523409Y-73381342D01*
X145658096Y-73448685D01*
X145725440Y-73516029D01*
X145792783Y-73650716D01*
X145792783Y-73718059D01*
X146095829Y-73886418D02*
X146567234Y-74357822D01*
X145557081Y-74761883D01*
G04 #@! TO.C,PB5*
X139505096Y-75109347D02*
X138797989Y-74402240D01*
X139067363Y-74132866D01*
X139168378Y-74099194D01*
X139235722Y-74099194D01*
X139336737Y-74132866D01*
X139437752Y-74233881D01*
X139471424Y-74334896D01*
X139471424Y-74402240D01*
X139437752Y-74503255D01*
X139168378Y-74772629D01*
X140077515Y-73796148D02*
X140212202Y-73728805D01*
X140279546Y-73728805D01*
X140380561Y-73762477D01*
X140481576Y-73863492D01*
X140515248Y-73964507D01*
X140515248Y-74031851D01*
X140481576Y-74132866D01*
X140212202Y-74402240D01*
X139505096Y-73695133D01*
X139740798Y-73459431D01*
X139841813Y-73425759D01*
X139909157Y-73425759D01*
X140010172Y-73459431D01*
X140077515Y-73526774D01*
X140111187Y-73627790D01*
X140111187Y-73695133D01*
X140077515Y-73796148D01*
X139841813Y-74031851D01*
X140548920Y-72651309D02*
X140212202Y-72988026D01*
X140515248Y-73358416D01*
X140515248Y-73291072D01*
X140548920Y-73190057D01*
X140717279Y-73021698D01*
X140818294Y-72988026D01*
X140885637Y-72988026D01*
X140986653Y-73021698D01*
X141155011Y-73190057D01*
X141188683Y-73291072D01*
X141188683Y-73358416D01*
X141155011Y-73459431D01*
X140986653Y-73627790D01*
X140885637Y-73661461D01*
X140818294Y-73661461D01*
G04 #@! TO.C,PB6*
X138458932Y-78453656D02*
X139166039Y-77746549D01*
X139435413Y-78015923D01*
X139469085Y-78116938D01*
X139469085Y-78184282D01*
X139435413Y-78285297D01*
X139334398Y-78386312D01*
X139233383Y-78419984D01*
X139166039Y-78419984D01*
X139065024Y-78386312D01*
X138795650Y-78116938D01*
X139772131Y-79026075D02*
X139839474Y-79160762D01*
X139839474Y-79228106D01*
X139805802Y-79329121D01*
X139704787Y-79430136D01*
X139603772Y-79463808D01*
X139536428Y-79463808D01*
X139435413Y-79430136D01*
X139166039Y-79160762D01*
X139873146Y-78453656D01*
X140108848Y-78689358D01*
X140142520Y-78790373D01*
X140142520Y-78857717D01*
X140108848Y-78958732D01*
X140041505Y-79026075D01*
X139940489Y-79059747D01*
X139873146Y-79059747D01*
X139772131Y-79026075D01*
X139536428Y-78790373D01*
X140883298Y-79463808D02*
X140748611Y-79329121D01*
X140647596Y-79295449D01*
X140580253Y-79295449D01*
X140411894Y-79329121D01*
X140243535Y-79430136D01*
X139974161Y-79699510D01*
X139940489Y-79800526D01*
X139940489Y-79867869D01*
X139974161Y-79968884D01*
X140108848Y-80103571D01*
X140209863Y-80137243D01*
X140277207Y-80137243D01*
X140378222Y-80103571D01*
X140546581Y-79935213D01*
X140580253Y-79834197D01*
X140580253Y-79766854D01*
X140546581Y-79665839D01*
X140411894Y-79531152D01*
X140310879Y-79497480D01*
X140243535Y-79497480D01*
X140142520Y-79531152D01*
G04 #@! TD*
M02*
