G04 #@! TF.GenerationSoftware,KiCad,Pcbnew,5.0.1-33cea8e~68~ubuntu18.04.1*
G04 #@! TF.CreationDate,2019-02-12T00:11:03-05:00*
G04 #@! TF.ProjectId,IMU,494D552E6B696361645F706362000000,rev?*
G04 #@! TF.SameCoordinates,Original*
G04 #@! TF.FileFunction,Paste,Top*
G04 #@! TF.FilePolarity,Positive*
%FSLAX46Y46*%
G04 Gerber Fmt 4.6, Leading zero omitted, Abs format (unit mm)*
G04 Created by KiCad (PCBNEW 5.0.1-33cea8e~68~ubuntu18.04.1) date Tue 12 Feb 2019 12:11:03 AM EST*
%MOMM*%
%LPD*%
G01*
G04 APERTURE LIST*
%ADD10C,0.700000*%
%ADD11C,0.100000*%
%ADD12R,0.700000X1.300000*%
%ADD13R,8.200000X3.300000*%
%ADD14R,2.500000X0.900000*%
%ADD15R,1.200000X1.200000*%
%ADD16R,1.000000X3.200000*%
%ADD17R,1.000000X1.250000*%
%ADD18R,0.650000X1.060000*%
%ADD19R,1.600000X1.000000*%
%ADD20R,1.300000X0.700000*%
%ADD21R,1.250000X1.000000*%
%ADD22R,2.159000X1.778000*%
%ADD23C,1.000000*%
%ADD24C,0.875000*%
%ADD25C,1.200000*%
%ADD26R,0.600000X1.550000*%
%ADD27C,0.550000*%
%ADD28R,0.800000X0.900000*%
%ADD29C,0.250000*%
G04 APERTURE END LIST*
D10*
G04 #@! TO.C,R1*
X156517498Y-82709862D03*
D11*
G36*
X156305366Y-82002755D02*
X157224605Y-82921994D01*
X156729630Y-83416969D01*
X155810391Y-82497730D01*
X156305366Y-82002755D01*
X156305366Y-82002755D01*
G37*
D10*
X157861000Y-81366360D03*
D11*
G36*
X157648868Y-80659253D02*
X158568107Y-81578492D01*
X158073132Y-82073467D01*
X157153893Y-81154228D01*
X157648868Y-80659253D01*
X157648868Y-80659253D01*
G37*
G04 #@! TD*
D12*
G04 #@! TO.C,R2*
X144698560Y-115845880D03*
X142798560Y-115845880D03*
G04 #@! TD*
D13*
G04 #@! TO.C,L1*
X153210060Y-115084380D03*
X153210060Y-110384380D03*
G04 #@! TD*
D14*
G04 #@! TO.C,F1*
X146904060Y-111988380D03*
X146904060Y-114888380D03*
G04 #@! TD*
D15*
G04 #@! TO.C,D2*
X154924560Y-103145880D03*
X157124560Y-103145880D03*
G04 #@! TD*
D16*
G04 #@! TO.C,R9*
X149919560Y-106320880D03*
X156119560Y-106320880D03*
G04 #@! TD*
D17*
G04 #@! TO.C,C7*
X159004560Y-110003880D03*
X161004560Y-110003880D03*
G04 #@! TD*
D18*
G04 #@! TO.C,U2*
X154134660Y-118238380D03*
X153184660Y-118238380D03*
X152234660Y-118238380D03*
X152234660Y-120438380D03*
X154134660Y-120438380D03*
X153184660Y-120438380D03*
G04 #@! TD*
D19*
G04 #@! TO.C,C3*
X149844560Y-118155880D03*
X149844560Y-121155880D03*
G04 #@! TD*
D12*
G04 #@! TO.C,R12*
X150672560Y-103145880D03*
X152572560Y-103145880D03*
G04 #@! TD*
G04 #@! TO.C,R4*
X152318560Y-122957880D03*
X150418560Y-122957880D03*
G04 #@! TD*
D20*
G04 #@! TO.C,R5*
X159496560Y-121875880D03*
X159496560Y-119975880D03*
G04 #@! TD*
D17*
G04 #@! TO.C,C12*
X159004560Y-114321880D03*
X161004560Y-114321880D03*
G04 #@! TD*
G04 #@! TO.C,C11*
X159004560Y-112035880D03*
X161004560Y-112035880D03*
G04 #@! TD*
D21*
G04 #@! TO.C,C5*
X156194560Y-121671880D03*
X156194560Y-119671880D03*
G04 #@! TD*
D15*
G04 #@! TO.C,D1*
X143047720Y-113975240D03*
X143047720Y-111775240D03*
G04 #@! TD*
D22*
G04 #@! TO.C,D7*
X145526560Y-103653880D03*
X145526560Y-107717880D03*
G04 #@! TD*
D12*
G04 #@! TO.C,R3*
X144698560Y-117877880D03*
X142798560Y-117877880D03*
G04 #@! TD*
D23*
G04 #@! TO.C,C1*
X144882587Y-90079547D03*
D11*
G36*
X144087092Y-90167935D02*
X144970975Y-89284052D01*
X145678082Y-89991159D01*
X144794199Y-90875042D01*
X144087092Y-90167935D01*
X144087092Y-90167935D01*
G37*
D23*
X143468373Y-88665333D03*
D11*
G36*
X142672878Y-88753721D02*
X143556761Y-87869838D01*
X144263868Y-88576945D01*
X143379985Y-89460828D01*
X142672878Y-88753721D01*
X142672878Y-88753721D01*
G37*
G04 #@! TD*
D23*
G04 #@! TO.C,C2*
X154605286Y-81782354D03*
D11*
G36*
X154693674Y-82577849D02*
X153809791Y-81693966D01*
X154516898Y-80986859D01*
X155400781Y-81870742D01*
X154693674Y-82577849D01*
X154693674Y-82577849D01*
G37*
D23*
X156019500Y-80368140D03*
D11*
G36*
X156107888Y-81163635D02*
X155224005Y-80279752D01*
X155931112Y-79572645D01*
X156814995Y-80456528D01*
X156107888Y-81163635D01*
X156107888Y-81163635D01*
G37*
G04 #@! TD*
D17*
G04 #@! TO.C,C4*
X136078720Y-91790520D03*
X138078720Y-91790520D03*
G04 #@! TD*
D21*
G04 #@! TO.C,C6*
X157586680Y-91124280D03*
X157586680Y-89124280D03*
G04 #@! TD*
G04 #@! TO.C,C8*
X151312880Y-95213680D03*
X151312880Y-93213680D03*
G04 #@! TD*
D17*
G04 #@! TO.C,C9*
X132253363Y-79930457D03*
X134253363Y-79930457D03*
G04 #@! TD*
D21*
G04 #@! TO.C,C10*
X136138803Y-77825817D03*
X136138803Y-75825817D03*
G04 #@! TD*
D11*
G04 #@! TO.C,C13*
G36*
X159069151Y-72300660D02*
X159090386Y-72303810D01*
X159111210Y-72309026D01*
X159131422Y-72316258D01*
X159150828Y-72325437D01*
X159169241Y-72336473D01*
X159186484Y-72349261D01*
X159202390Y-72363677D01*
X159511749Y-72673036D01*
X159526165Y-72688942D01*
X159538953Y-72706185D01*
X159549989Y-72724598D01*
X159559168Y-72744004D01*
X159566400Y-72764216D01*
X159571616Y-72785040D01*
X159574766Y-72806275D01*
X159575819Y-72827716D01*
X159574766Y-72849157D01*
X159571616Y-72870392D01*
X159566400Y-72891216D01*
X159559168Y-72911428D01*
X159549989Y-72930834D01*
X159538953Y-72949247D01*
X159526165Y-72966490D01*
X159511749Y-72982396D01*
X159149356Y-73344789D01*
X159133450Y-73359205D01*
X159116207Y-73371993D01*
X159097794Y-73383029D01*
X159078388Y-73392208D01*
X159058176Y-73399440D01*
X159037352Y-73404656D01*
X159016117Y-73407806D01*
X158994676Y-73408859D01*
X158973235Y-73407806D01*
X158952000Y-73404656D01*
X158931176Y-73399440D01*
X158910964Y-73392208D01*
X158891558Y-73383029D01*
X158873145Y-73371993D01*
X158855902Y-73359205D01*
X158839996Y-73344789D01*
X158530637Y-73035430D01*
X158516221Y-73019524D01*
X158503433Y-73002281D01*
X158492397Y-72983868D01*
X158483218Y-72964462D01*
X158475986Y-72944250D01*
X158470770Y-72923426D01*
X158467620Y-72902191D01*
X158466567Y-72880750D01*
X158467620Y-72859309D01*
X158470770Y-72838074D01*
X158475986Y-72817250D01*
X158483218Y-72797038D01*
X158492397Y-72777632D01*
X158503433Y-72759219D01*
X158516221Y-72741976D01*
X158530637Y-72726070D01*
X158893030Y-72363677D01*
X158908936Y-72349261D01*
X158926179Y-72336473D01*
X158944592Y-72325437D01*
X158963998Y-72316258D01*
X158984210Y-72309026D01*
X159005034Y-72303810D01*
X159026269Y-72300660D01*
X159047710Y-72299607D01*
X159069151Y-72300660D01*
X159069151Y-72300660D01*
G37*
D24*
X159021193Y-72854233D03*
D11*
G36*
X160182845Y-73414354D02*
X160204080Y-73417504D01*
X160224904Y-73422720D01*
X160245116Y-73429952D01*
X160264522Y-73439131D01*
X160282935Y-73450167D01*
X160300178Y-73462955D01*
X160316084Y-73477371D01*
X160625443Y-73786730D01*
X160639859Y-73802636D01*
X160652647Y-73819879D01*
X160663683Y-73838292D01*
X160672862Y-73857698D01*
X160680094Y-73877910D01*
X160685310Y-73898734D01*
X160688460Y-73919969D01*
X160689513Y-73941410D01*
X160688460Y-73962851D01*
X160685310Y-73984086D01*
X160680094Y-74004910D01*
X160672862Y-74025122D01*
X160663683Y-74044528D01*
X160652647Y-74062941D01*
X160639859Y-74080184D01*
X160625443Y-74096090D01*
X160263050Y-74458483D01*
X160247144Y-74472899D01*
X160229901Y-74485687D01*
X160211488Y-74496723D01*
X160192082Y-74505902D01*
X160171870Y-74513134D01*
X160151046Y-74518350D01*
X160129811Y-74521500D01*
X160108370Y-74522553D01*
X160086929Y-74521500D01*
X160065694Y-74518350D01*
X160044870Y-74513134D01*
X160024658Y-74505902D01*
X160005252Y-74496723D01*
X159986839Y-74485687D01*
X159969596Y-74472899D01*
X159953690Y-74458483D01*
X159644331Y-74149124D01*
X159629915Y-74133218D01*
X159617127Y-74115975D01*
X159606091Y-74097562D01*
X159596912Y-74078156D01*
X159589680Y-74057944D01*
X159584464Y-74037120D01*
X159581314Y-74015885D01*
X159580261Y-73994444D01*
X159581314Y-73973003D01*
X159584464Y-73951768D01*
X159589680Y-73930944D01*
X159596912Y-73910732D01*
X159606091Y-73891326D01*
X159617127Y-73872913D01*
X159629915Y-73855670D01*
X159644331Y-73839764D01*
X160006724Y-73477371D01*
X160022630Y-73462955D01*
X160039873Y-73450167D01*
X160058286Y-73439131D01*
X160077692Y-73429952D01*
X160097904Y-73422720D01*
X160118728Y-73417504D01*
X160139963Y-73414354D01*
X160161404Y-73413301D01*
X160182845Y-73414354D01*
X160182845Y-73414354D01*
G37*
D24*
X160134887Y-73967927D03*
G04 #@! TD*
D11*
G04 #@! TO.C,C14*
G36*
X154805384Y-78567427D02*
X154826619Y-78570577D01*
X154847443Y-78575793D01*
X154867655Y-78583025D01*
X154887061Y-78592204D01*
X154905474Y-78603240D01*
X154922717Y-78616028D01*
X154938623Y-78630444D01*
X155301016Y-78992837D01*
X155315432Y-79008743D01*
X155328220Y-79025986D01*
X155339256Y-79044399D01*
X155348435Y-79063805D01*
X155355667Y-79084017D01*
X155360883Y-79104841D01*
X155364033Y-79126076D01*
X155365086Y-79147517D01*
X155364033Y-79168958D01*
X155360883Y-79190193D01*
X155355667Y-79211017D01*
X155348435Y-79231229D01*
X155339256Y-79250635D01*
X155328220Y-79269048D01*
X155315432Y-79286291D01*
X155301016Y-79302197D01*
X154991657Y-79611556D01*
X154975751Y-79625972D01*
X154958508Y-79638760D01*
X154940095Y-79649796D01*
X154920689Y-79658975D01*
X154900477Y-79666207D01*
X154879653Y-79671423D01*
X154858418Y-79674573D01*
X154836977Y-79675626D01*
X154815536Y-79674573D01*
X154794301Y-79671423D01*
X154773477Y-79666207D01*
X154753265Y-79658975D01*
X154733859Y-79649796D01*
X154715446Y-79638760D01*
X154698203Y-79625972D01*
X154682297Y-79611556D01*
X154319904Y-79249163D01*
X154305488Y-79233257D01*
X154292700Y-79216014D01*
X154281664Y-79197601D01*
X154272485Y-79178195D01*
X154265253Y-79157983D01*
X154260037Y-79137159D01*
X154256887Y-79115924D01*
X154255834Y-79094483D01*
X154256887Y-79073042D01*
X154260037Y-79051807D01*
X154265253Y-79030983D01*
X154272485Y-79010771D01*
X154281664Y-78991365D01*
X154292700Y-78972952D01*
X154305488Y-78955709D01*
X154319904Y-78939803D01*
X154629263Y-78630444D01*
X154645169Y-78616028D01*
X154662412Y-78603240D01*
X154680825Y-78592204D01*
X154700231Y-78583025D01*
X154720443Y-78575793D01*
X154741267Y-78570577D01*
X154762502Y-78567427D01*
X154783943Y-78566374D01*
X154805384Y-78567427D01*
X154805384Y-78567427D01*
G37*
D24*
X154810460Y-79121000D03*
D11*
G36*
X153691690Y-79681121D02*
X153712925Y-79684271D01*
X153733749Y-79689487D01*
X153753961Y-79696719D01*
X153773367Y-79705898D01*
X153791780Y-79716934D01*
X153809023Y-79729722D01*
X153824929Y-79744138D01*
X154187322Y-80106531D01*
X154201738Y-80122437D01*
X154214526Y-80139680D01*
X154225562Y-80158093D01*
X154234741Y-80177499D01*
X154241973Y-80197711D01*
X154247189Y-80218535D01*
X154250339Y-80239770D01*
X154251392Y-80261211D01*
X154250339Y-80282652D01*
X154247189Y-80303887D01*
X154241973Y-80324711D01*
X154234741Y-80344923D01*
X154225562Y-80364329D01*
X154214526Y-80382742D01*
X154201738Y-80399985D01*
X154187322Y-80415891D01*
X153877963Y-80725250D01*
X153862057Y-80739666D01*
X153844814Y-80752454D01*
X153826401Y-80763490D01*
X153806995Y-80772669D01*
X153786783Y-80779901D01*
X153765959Y-80785117D01*
X153744724Y-80788267D01*
X153723283Y-80789320D01*
X153701842Y-80788267D01*
X153680607Y-80785117D01*
X153659783Y-80779901D01*
X153639571Y-80772669D01*
X153620165Y-80763490D01*
X153601752Y-80752454D01*
X153584509Y-80739666D01*
X153568603Y-80725250D01*
X153206210Y-80362857D01*
X153191794Y-80346951D01*
X153179006Y-80329708D01*
X153167970Y-80311295D01*
X153158791Y-80291889D01*
X153151559Y-80271677D01*
X153146343Y-80250853D01*
X153143193Y-80229618D01*
X153142140Y-80208177D01*
X153143193Y-80186736D01*
X153146343Y-80165501D01*
X153151559Y-80144677D01*
X153158791Y-80124465D01*
X153167970Y-80105059D01*
X153179006Y-80086646D01*
X153191794Y-80069403D01*
X153206210Y-80053497D01*
X153515569Y-79744138D01*
X153531475Y-79729722D01*
X153548718Y-79716934D01*
X153567131Y-79705898D01*
X153586537Y-79696719D01*
X153606749Y-79689487D01*
X153627573Y-79684271D01*
X153648808Y-79681121D01*
X153670249Y-79680068D01*
X153691690Y-79681121D01*
X153691690Y-79681121D01*
G37*
D24*
X153696766Y-80234694D03*
G04 #@! TD*
D25*
G04 #@! TO.C,D3*
X145549043Y-76755683D03*
D11*
G36*
X146397571Y-76755683D02*
X145549043Y-77604211D01*
X144700515Y-76755683D01*
X145549043Y-75907155D01*
X146397571Y-76755683D01*
X146397571Y-76755683D01*
G37*
D25*
X147104677Y-78311317D03*
D11*
G36*
X147953205Y-78311317D02*
X147104677Y-79159845D01*
X146256149Y-78311317D01*
X147104677Y-77462789D01*
X147953205Y-78311317D01*
X147953205Y-78311317D01*
G37*
G04 #@! TD*
D25*
G04 #@! TO.C,D4*
X145677774Y-79673334D03*
D11*
G36*
X146526302Y-79673334D02*
X145677774Y-80521862D01*
X144829246Y-79673334D01*
X145677774Y-78824806D01*
X146526302Y-79673334D01*
X146526302Y-79673334D01*
G37*
D25*
X144122140Y-78117700D03*
D11*
G36*
X144970668Y-78117700D02*
X144122140Y-78966228D01*
X143273612Y-78117700D01*
X144122140Y-77269172D01*
X144970668Y-78117700D01*
X144970668Y-78117700D01*
G37*
G04 #@! TD*
D25*
G04 #@! TO.C,D5*
X142723986Y-79465286D03*
D11*
G36*
X143572514Y-79465286D02*
X142723986Y-80313814D01*
X141875458Y-79465286D01*
X142723986Y-78616758D01*
X143572514Y-79465286D01*
X143572514Y-79465286D01*
G37*
D25*
X144279620Y-81020920D03*
D11*
G36*
X145128148Y-81020920D02*
X144279620Y-81869448D01*
X143431092Y-81020920D01*
X144279620Y-80172392D01*
X145128148Y-81020920D01*
X145128148Y-81020920D01*
G37*
G04 #@! TD*
D12*
G04 #@! TO.C,R7*
X139288560Y-101716840D03*
X137388560Y-101716840D03*
G04 #@! TD*
D10*
G04 #@! TO.C,R8*
X141756209Y-81664889D03*
D11*
G36*
X141049102Y-81877021D02*
X141968341Y-80957782D01*
X142463316Y-81452757D01*
X141544077Y-82371996D01*
X141049102Y-81877021D01*
X141049102Y-81877021D01*
G37*
D10*
X143099711Y-83008391D03*
D11*
G36*
X142392604Y-83220523D02*
X143311843Y-82301284D01*
X143806818Y-82796259D01*
X142887579Y-83715498D01*
X142392604Y-83220523D01*
X142392604Y-83220523D01*
G37*
G04 #@! TD*
D26*
G04 #@! TO.C,U1*
X140167360Y-94007960D03*
X138897360Y-94007960D03*
X137627360Y-94007960D03*
X136357360Y-94007960D03*
X136357360Y-99407960D03*
X137627360Y-99407960D03*
X138897360Y-99407960D03*
X140167360Y-99407960D03*
G04 #@! TD*
D27*
G04 #@! TO.C,U5*
X144494434Y-84423225D03*
D11*
G36*
X145254574Y-84794456D02*
X144865665Y-85183365D01*
X143734294Y-84051994D01*
X144123203Y-83663085D01*
X145254574Y-84794456D01*
X145254574Y-84794456D01*
G37*
D27*
X145060120Y-83857540D03*
D11*
G36*
X145820260Y-84228771D02*
X145431351Y-84617680D01*
X144299980Y-83486309D01*
X144688889Y-83097400D01*
X145820260Y-84228771D01*
X145820260Y-84228771D01*
G37*
D27*
X145625805Y-83291854D03*
D11*
G36*
X146385945Y-83663085D02*
X145997036Y-84051994D01*
X144865665Y-82920623D01*
X145254574Y-82531714D01*
X146385945Y-83663085D01*
X146385945Y-83663085D01*
G37*
D27*
X146191490Y-82726169D03*
D11*
G36*
X146951630Y-83097400D02*
X146562721Y-83486309D01*
X145431350Y-82354938D01*
X145820259Y-81966029D01*
X146951630Y-83097400D01*
X146951630Y-83097400D01*
G37*
D27*
X146757176Y-82160483D03*
D11*
G36*
X147517316Y-82531714D02*
X147128407Y-82920623D01*
X145997036Y-81789252D01*
X146385945Y-81400343D01*
X147517316Y-82531714D01*
X147517316Y-82531714D01*
G37*
D27*
X147322861Y-81594798D03*
D11*
G36*
X148083001Y-81966029D02*
X147694092Y-82354938D01*
X146562721Y-81223567D01*
X146951630Y-80834658D01*
X148083001Y-81966029D01*
X148083001Y-81966029D01*
G37*
D27*
X147888547Y-81029113D03*
D11*
G36*
X148648687Y-81400344D02*
X148259778Y-81789253D01*
X147128407Y-80657882D01*
X147517316Y-80268973D01*
X148648687Y-81400344D01*
X148648687Y-81400344D01*
G37*
D27*
X148454232Y-80463427D03*
D11*
G36*
X149214372Y-80834658D02*
X148825463Y-81223567D01*
X147694092Y-80092196D01*
X148083001Y-79703287D01*
X149214372Y-80834658D01*
X149214372Y-80834658D01*
G37*
D27*
X150504842Y-80463427D03*
D11*
G36*
X150133611Y-81223567D02*
X149744702Y-80834658D01*
X150876073Y-79703287D01*
X151264982Y-80092196D01*
X150133611Y-81223567D01*
X150133611Y-81223567D01*
G37*
D27*
X151070527Y-81029113D03*
D11*
G36*
X150699296Y-81789253D02*
X150310387Y-81400344D01*
X151441758Y-80268973D01*
X151830667Y-80657882D01*
X150699296Y-81789253D01*
X150699296Y-81789253D01*
G37*
D27*
X151636213Y-81594798D03*
D11*
G36*
X151264982Y-82354938D02*
X150876073Y-81966029D01*
X152007444Y-80834658D01*
X152396353Y-81223567D01*
X151264982Y-82354938D01*
X151264982Y-82354938D01*
G37*
D27*
X152201898Y-82160483D03*
D11*
G36*
X151830667Y-82920623D02*
X151441758Y-82531714D01*
X152573129Y-81400343D01*
X152962038Y-81789252D01*
X151830667Y-82920623D01*
X151830667Y-82920623D01*
G37*
D27*
X152767584Y-82726169D03*
D11*
G36*
X152396353Y-83486309D02*
X152007444Y-83097400D01*
X153138815Y-81966029D01*
X153527724Y-82354938D01*
X152396353Y-83486309D01*
X152396353Y-83486309D01*
G37*
D27*
X153333269Y-83291854D03*
D11*
G36*
X152962038Y-84051994D02*
X152573129Y-83663085D01*
X153704500Y-82531714D01*
X154093409Y-82920623D01*
X152962038Y-84051994D01*
X152962038Y-84051994D01*
G37*
D27*
X153898954Y-83857540D03*
D11*
G36*
X153527723Y-84617680D02*
X153138814Y-84228771D01*
X154270185Y-83097400D01*
X154659094Y-83486309D01*
X153527723Y-84617680D01*
X153527723Y-84617680D01*
G37*
D27*
X154464640Y-84423225D03*
D11*
G36*
X154093409Y-85183365D02*
X153704500Y-84794456D01*
X154835871Y-83663085D01*
X155224780Y-84051994D01*
X154093409Y-85183365D01*
X154093409Y-85183365D01*
G37*
D27*
X154464640Y-86473835D03*
D11*
G36*
X155224780Y-86845066D02*
X154835871Y-87233975D01*
X153704500Y-86102604D01*
X154093409Y-85713695D01*
X155224780Y-86845066D01*
X155224780Y-86845066D01*
G37*
D27*
X153898954Y-87039520D03*
D11*
G36*
X154659094Y-87410751D02*
X154270185Y-87799660D01*
X153138814Y-86668289D01*
X153527723Y-86279380D01*
X154659094Y-87410751D01*
X154659094Y-87410751D01*
G37*
D27*
X153333269Y-87605206D03*
D11*
G36*
X154093409Y-87976437D02*
X153704500Y-88365346D01*
X152573129Y-87233975D01*
X152962038Y-86845066D01*
X154093409Y-87976437D01*
X154093409Y-87976437D01*
G37*
D27*
X152767584Y-88170891D03*
D11*
G36*
X153527724Y-88542122D02*
X153138815Y-88931031D01*
X152007444Y-87799660D01*
X152396353Y-87410751D01*
X153527724Y-88542122D01*
X153527724Y-88542122D01*
G37*
D27*
X152201898Y-88736577D03*
D11*
G36*
X152962038Y-89107808D02*
X152573129Y-89496717D01*
X151441758Y-88365346D01*
X151830667Y-87976437D01*
X152962038Y-89107808D01*
X152962038Y-89107808D01*
G37*
D27*
X151636213Y-89302262D03*
D11*
G36*
X152396353Y-89673493D02*
X152007444Y-90062402D01*
X150876073Y-88931031D01*
X151264982Y-88542122D01*
X152396353Y-89673493D01*
X152396353Y-89673493D01*
G37*
D27*
X151070527Y-89867947D03*
D11*
G36*
X151830667Y-90239178D02*
X151441758Y-90628087D01*
X150310387Y-89496716D01*
X150699296Y-89107807D01*
X151830667Y-90239178D01*
X151830667Y-90239178D01*
G37*
D27*
X150504842Y-90433633D03*
D11*
G36*
X151264982Y-90804864D02*
X150876073Y-91193773D01*
X149744702Y-90062402D01*
X150133611Y-89673493D01*
X151264982Y-90804864D01*
X151264982Y-90804864D01*
G37*
D27*
X148454232Y-90433633D03*
D11*
G36*
X148083001Y-91193773D02*
X147694092Y-90804864D01*
X148825463Y-89673493D01*
X149214372Y-90062402D01*
X148083001Y-91193773D01*
X148083001Y-91193773D01*
G37*
D27*
X147888547Y-89867947D03*
D11*
G36*
X147517316Y-90628087D02*
X147128407Y-90239178D01*
X148259778Y-89107807D01*
X148648687Y-89496716D01*
X147517316Y-90628087D01*
X147517316Y-90628087D01*
G37*
D27*
X147322861Y-89302262D03*
D11*
G36*
X146951630Y-90062402D02*
X146562721Y-89673493D01*
X147694092Y-88542122D01*
X148083001Y-88931031D01*
X146951630Y-90062402D01*
X146951630Y-90062402D01*
G37*
D27*
X146757176Y-88736577D03*
D11*
G36*
X146385945Y-89496717D02*
X145997036Y-89107808D01*
X147128407Y-87976437D01*
X147517316Y-88365346D01*
X146385945Y-89496717D01*
X146385945Y-89496717D01*
G37*
D27*
X146191490Y-88170891D03*
D11*
G36*
X145820259Y-88931031D02*
X145431350Y-88542122D01*
X146562721Y-87410751D01*
X146951630Y-87799660D01*
X145820259Y-88931031D01*
X145820259Y-88931031D01*
G37*
D27*
X145625805Y-87605206D03*
D11*
G36*
X145254574Y-88365346D02*
X144865665Y-87976437D01*
X145997036Y-86845066D01*
X146385945Y-87233975D01*
X145254574Y-88365346D01*
X145254574Y-88365346D01*
G37*
D27*
X145060120Y-87039520D03*
D11*
G36*
X144688889Y-87799660D02*
X144299980Y-87410751D01*
X145431351Y-86279380D01*
X145820260Y-86668289D01*
X144688889Y-87799660D01*
X144688889Y-87799660D01*
G37*
D27*
X144494434Y-86473835D03*
D11*
G36*
X144123203Y-87233975D02*
X143734294Y-86845066D01*
X144865665Y-85713695D01*
X145254574Y-86102604D01*
X144123203Y-87233975D01*
X144123203Y-87233975D01*
G37*
G04 #@! TD*
D28*
G04 #@! TO.C,U3*
X134318603Y-77881697D03*
X132218603Y-77881697D03*
X133268603Y-75881697D03*
G04 #@! TD*
D29*
G04 #@! TO.C,U4*
X158328240Y-78330940D03*
D11*
G36*
X158487339Y-78666816D02*
X157992364Y-78171841D01*
X158169141Y-77995064D01*
X158664116Y-78490039D01*
X158487339Y-78666816D01*
X158487339Y-78666816D01*
G37*
D29*
X155478600Y-75481300D03*
D11*
G36*
X155319501Y-75145424D02*
X155814476Y-75640399D01*
X155637699Y-75817176D01*
X155142724Y-75322201D01*
X155319501Y-75145424D01*
X155319501Y-75145424D01*
G37*
D29*
X156733714Y-74954505D03*
D11*
G36*
X157069590Y-74795406D02*
X156574615Y-75290381D01*
X156397838Y-75113604D01*
X156892813Y-74618629D01*
X157069590Y-74795406D01*
X157069590Y-74795406D01*
G37*
D29*
X157087268Y-75308059D03*
D11*
G36*
X157423144Y-75148960D02*
X156928169Y-75643935D01*
X156751392Y-75467158D01*
X157246367Y-74972183D01*
X157423144Y-75148960D01*
X157423144Y-75148960D01*
G37*
D29*
X157440821Y-75661612D03*
D11*
G36*
X157776697Y-75502513D02*
X157281722Y-75997488D01*
X157104945Y-75820711D01*
X157599920Y-75325736D01*
X157776697Y-75502513D01*
X157776697Y-75502513D01*
G37*
D29*
X157794375Y-76015165D03*
D11*
G36*
X158130251Y-75856066D02*
X157635276Y-76351041D01*
X157458499Y-76174264D01*
X157953474Y-75679289D01*
X158130251Y-75856066D01*
X158130251Y-75856066D01*
G37*
D29*
X158147928Y-76368719D03*
D11*
G36*
X158483804Y-76209620D02*
X157988829Y-76704595D01*
X157812052Y-76527818D01*
X158307027Y-76032843D01*
X158483804Y-76209620D01*
X158483804Y-76209620D01*
G37*
D29*
X158501481Y-76722272D03*
D11*
G36*
X158837357Y-76563173D02*
X158342382Y-77058148D01*
X158165605Y-76881371D01*
X158660580Y-76386396D01*
X158837357Y-76563173D01*
X158837357Y-76563173D01*
G37*
D29*
X158855035Y-77075826D03*
D11*
G36*
X159190911Y-76916727D02*
X158695936Y-77411702D01*
X158519159Y-77234925D01*
X159014134Y-76739950D01*
X159190911Y-76916727D01*
X159190911Y-76916727D01*
G37*
D29*
X154951805Y-76736414D03*
D11*
G36*
X155287681Y-76577315D02*
X154792706Y-77072290D01*
X154615929Y-76895513D01*
X155110904Y-76400538D01*
X155287681Y-76577315D01*
X155287681Y-76577315D01*
G37*
D29*
X155305359Y-77089968D03*
D11*
G36*
X155641235Y-76930869D02*
X155146260Y-77425844D01*
X154969483Y-77249067D01*
X155464458Y-76754092D01*
X155641235Y-76930869D01*
X155641235Y-76930869D01*
G37*
D29*
X155658912Y-77443521D03*
D11*
G36*
X155994788Y-77284422D02*
X155499813Y-77779397D01*
X155323036Y-77602620D01*
X155818011Y-77107645D01*
X155994788Y-77284422D01*
X155994788Y-77284422D01*
G37*
D29*
X156012465Y-77797075D03*
D11*
G36*
X156348341Y-77637976D02*
X155853366Y-78132951D01*
X155676589Y-77956174D01*
X156171564Y-77461199D01*
X156348341Y-77637976D01*
X156348341Y-77637976D01*
G37*
D29*
X156366019Y-78150628D03*
D11*
G36*
X156701895Y-77991529D02*
X156206920Y-78486504D01*
X156030143Y-78309727D01*
X156525118Y-77814752D01*
X156701895Y-77991529D01*
X156701895Y-77991529D01*
G37*
D29*
X156719572Y-78504181D03*
D11*
G36*
X157055448Y-78345082D02*
X156560473Y-78840057D01*
X156383696Y-78663280D01*
X156878671Y-78168305D01*
X157055448Y-78345082D01*
X157055448Y-78345082D01*
G37*
D29*
X157073126Y-78857735D03*
D11*
G36*
X157409002Y-78698636D02*
X156914027Y-79193611D01*
X156737250Y-79016834D01*
X157232225Y-78521859D01*
X157409002Y-78698636D01*
X157409002Y-78698636D01*
G37*
G04 #@! TD*
D10*
G04 #@! TO.C,PC7*
X144454880Y-75524360D03*
D11*
G36*
X145161987Y-75312228D02*
X144242748Y-76231467D01*
X143747773Y-75736492D01*
X144667012Y-74817253D01*
X145161987Y-75312228D01*
X145161987Y-75312228D01*
G37*
D10*
X143111378Y-74180858D03*
D11*
G36*
X143818485Y-73968726D02*
X142899246Y-74887965D01*
X142404271Y-74392990D01*
X143323510Y-73473751D01*
X143818485Y-73968726D01*
X143818485Y-73968726D01*
G37*
G04 #@! TD*
D10*
G04 #@! TO.C,PB5*
X141613969Y-75579049D03*
D11*
G36*
X142321076Y-75366917D02*
X141401837Y-76286156D01*
X140906862Y-75791181D01*
X141826101Y-74871942D01*
X142321076Y-75366917D01*
X142321076Y-75366917D01*
G37*
D10*
X142957471Y-76922551D03*
D11*
G36*
X143664578Y-76710419D02*
X142745339Y-77629658D01*
X142250364Y-77134683D01*
X143169603Y-76215444D01*
X143664578Y-76710419D01*
X143664578Y-76710419D01*
G37*
G04 #@! TD*
D10*
G04 #@! TO.C,PB6*
X141540151Y-78334791D03*
D11*
G36*
X142247258Y-78122659D02*
X141328019Y-79041898D01*
X140833044Y-78546923D01*
X141752283Y-77627684D01*
X142247258Y-78122659D01*
X142247258Y-78122659D01*
G37*
D10*
X140196649Y-76991289D03*
D11*
G36*
X140903756Y-76779157D02*
X139984517Y-77698396D01*
X139489542Y-77203421D01*
X140408781Y-76284182D01*
X140903756Y-76779157D01*
X140903756Y-76779157D01*
G37*
G04 #@! TD*
M02*
