G04 #@! TF.GenerationSoftware,KiCad,Pcbnew,5.0.1-33cea8e~68~ubuntu18.04.1*
G04 #@! TF.CreationDate,2019-02-12T00:11:03-05:00*
G04 #@! TF.ProjectId,IMU,494D552E6B696361645F706362000000,rev?*
G04 #@! TF.SameCoordinates,Original*
G04 #@! TF.FileFunction,Legend,Bot*
G04 #@! TF.FilePolarity,Positive*
%FSLAX46Y46*%
G04 Gerber Fmt 4.6, Leading zero omitted, Abs format (unit mm)*
G04 Created by KiCad (PCBNEW 5.0.1-33cea8e~68~ubuntu18.04.1) date Tue 12 Feb 2019 12:11:03 AM EST*
%MOMM*%
%LPD*%
G01*
G04 APERTURE LIST*
%ADD10C,0.300000*%
G04 APERTURE END LIST*
D10*
X119700561Y-94778609D02*
X117700561Y-94778609D01*
X119129133Y-95445276D01*
X117700561Y-96111942D01*
X119700561Y-96111942D01*
X117700561Y-97445276D02*
X117700561Y-97826228D01*
X117795800Y-98016704D01*
X117986276Y-98207180D01*
X118367228Y-98302419D01*
X119033895Y-98302419D01*
X119414847Y-98207180D01*
X119605323Y-98016704D01*
X119700561Y-97826228D01*
X119700561Y-97445276D01*
X119605323Y-97254800D01*
X119414847Y-97064323D01*
X119033895Y-96969085D01*
X118367228Y-96969085D01*
X117986276Y-97064323D01*
X117795800Y-97254800D01*
X117700561Y-97445276D01*
X117700561Y-99159561D02*
X119319609Y-99159561D01*
X119510085Y-99254800D01*
X119605323Y-99350038D01*
X119700561Y-99540514D01*
X119700561Y-99921466D01*
X119605323Y-100111942D01*
X119510085Y-100207180D01*
X119319609Y-100302419D01*
X117700561Y-100302419D01*
X119700561Y-101254800D02*
X117700561Y-101254800D01*
X119700561Y-102397657D01*
X117700561Y-102397657D01*
X117700561Y-103064323D02*
X117700561Y-104207180D01*
X119700561Y-103635752D02*
X117700561Y-103635752D01*
X119510085Y-107540514D02*
X119605323Y-107445276D01*
X119700561Y-107159561D01*
X119700561Y-106969085D01*
X119605323Y-106683371D01*
X119414847Y-106492895D01*
X119224371Y-106397657D01*
X118843419Y-106302419D01*
X118557704Y-106302419D01*
X118176752Y-106397657D01*
X117986276Y-106492895D01*
X117795800Y-106683371D01*
X117700561Y-106969085D01*
X117700561Y-107159561D01*
X117795800Y-107445276D01*
X117891038Y-107540514D01*
X119129133Y-108302419D02*
X119129133Y-109254800D01*
X119700561Y-108111942D02*
X117700561Y-108778609D01*
X119700561Y-109445276D01*
X119700561Y-111254800D02*
X118748180Y-110588133D01*
X119700561Y-110111942D02*
X117700561Y-110111942D01*
X117700561Y-110873847D01*
X117795800Y-111064323D01*
X117891038Y-111159561D01*
X118081514Y-111254800D01*
X118367228Y-111254800D01*
X118557704Y-111159561D01*
X118652942Y-111064323D01*
X118748180Y-110873847D01*
X118748180Y-110111942D01*
X118652942Y-112111942D02*
X118652942Y-112778609D01*
X119700561Y-113064323D02*
X119700561Y-112111942D01*
X117700561Y-112111942D01*
X117700561Y-113064323D01*
X118652942Y-114588133D02*
X118652942Y-113921466D01*
X119700561Y-113921466D02*
X117700561Y-113921466D01*
X117700561Y-114873847D01*
X117700561Y-115635752D02*
X119319609Y-115635752D01*
X119510085Y-115730990D01*
X119605323Y-115826228D01*
X119700561Y-116016704D01*
X119700561Y-116397657D01*
X119605323Y-116588133D01*
X119510085Y-116683371D01*
X119319609Y-116778609D01*
X117700561Y-116778609D01*
X119700561Y-118683371D02*
X119700561Y-117730990D01*
X117700561Y-117730990D01*
X119700561Y-120302419D02*
X119700561Y-119350038D01*
X117700561Y-119350038D01*
X118748180Y-121350038D02*
X119700561Y-121350038D01*
X117700561Y-120683371D02*
X118748180Y-121350038D01*
X117700561Y-122016704D01*
M02*
