M48
;DRILL file {KiCad 5.0.2-bee76a0~70~ubuntu18.04.1} date Wed 03 Apr 2019 09:09:44 PM EDT
;FORMAT={2:4/ absolute / inch / suppress trailing zeros}
FMAT,2
INCH,LZ
T1C0.0120
T2C0.0315
T3C0.0400
%
G90
G05
T1
X06462Y-04024
X06554Y-0308
X06554Y-0321
X06554Y-03294
X06672Y-03578
X066826Y-030486
X06688Y-03922
X06722Y-032735
X06752Y-02292
X06772Y-03616
X06776Y-02106
X06788Y-02464
X06789Y-04009
X06799Y-03
X06806Y-03455
X06839Y-02792
X06841Y-03716
X06897Y-02956
X068979Y-042937
X06901Y-03696
X06907Y-03743
X0691Y-02062
X069179Y-049137
X06938Y-02146
X069766Y-03298
X06977Y-03434
X0699Y-02216
X06995Y-03358
X07002Y-02954
X07003Y-02778
X0702Y-02136
X07024Y-03692
X07036Y-02084
X07038Y-0242
X070641Y-0339
X07085Y-03092
X07102Y-02096
X07114Y-03516
X071379Y-049037
X071664Y-033544
X07175Y-0372
X07175Y-03878
X071779Y-040737
X071779Y-041237
X07188Y-02136
X07203Y-03441
X07216Y-03103
X072179Y-041137
X07232Y-03266
X072479Y-040737
X07263Y-03012
X07286Y-02424
X072879Y-041137
X072895Y-03496
X0729Y-02166
X07301Y-02778
X07317Y-03014
X073279Y-040737
X073395Y-036585
X073679Y-041137
X07379Y-03027
X07379Y-03666
X07402Y-03136
X07408Y-02889
X074279Y-042737
X07428Y-03346
X074341Y-043122
X07451Y-03666
X07454Y-02316
X07484Y-02235
X07494Y-03491
X07502Y-037535
X07508Y-03884
X07516Y-04274
X07519Y-03256
X0752Y-03199
X0753Y-02436
X075361Y-043102
X075404Y-031364
X075479Y-041937
X07557Y-028
X07557Y-028
X075579Y-047137
X075579Y-048037
X07561Y-02951
X07563Y-03244
X07566Y-02883
X075691Y-032734
X07578Y-02753
X07625Y-03471
X076279Y-047137
X076279Y-048037
X07628Y-031119
X07639Y-0275
X07649Y-02838
X07673Y-02206
X07673Y-02735
X07673Y-02971
X076779Y-044737
X07684Y-03331
X076895Y-03266
X07702Y-02476
X07719Y-02748
X07745Y-03044
X077479Y-045137
X07757Y-02567
X07763Y-02862
X07773Y-0248
X07796Y-02398
X07799Y-03854
X0781Y-026906
X0781Y-03471
X07845Y-0345
X07853Y-03372
X07854Y-02574
X0788Y-03448
X07887Y-03373
X07899Y-02636
X07906Y-03001
X07959Y-03253
X079718Y-033638
X0799Y-03831
X08034Y-0375
X08052Y-02408
X08126Y-02272
X081715Y-029675
X08174Y-03188
X082Y-02921
X08207Y-02697
X08301Y-03657
X08319Y-03327
X0833Y-0305
X08336Y-0261
T2
X065Y-02902
X065Y-03002
X065Y-03102
X065Y-03202
X065Y-03302
X065Y-03402
X065Y-03502
X065Y-03602
X065Y-03702
X065Y-03802
X066Y-02952
X066Y-03052
X066Y-03152
X066Y-03252
X066Y-03352
X066Y-03452
X066Y-03552
X066Y-03652
X066Y-03752
X066Y-03852
X06492Y-02156
X06492Y-02256
X06492Y-02356
X06592Y-02206
X06592Y-02306
X06592Y-02406
T3
X08212Y-02096
X08212Y-02196
X08212Y-02296
X08312Y-02096
X08312Y-02196
X08312Y-02296
T0
M30
