G04 #@! TF.GenerationSoftware,KiCad,Pcbnew,5.0.2-bee76a0~70~ubuntu18.04.1*
G04 #@! TF.CreationDate,2019-04-03T21:09:33-04:00*
G04 #@! TF.ProjectId,Brakelight_Shutdown_BSPD,4272616b-656c-4696-9768-745f53687574,rev?*
G04 #@! TF.SameCoordinates,Original*
G04 #@! TF.FileFunction,Paste,Top*
G04 #@! TF.FilePolarity,Positive*
%FSLAX46Y46*%
G04 Gerber Fmt 4.6, Leading zero omitted, Abs format (unit mm)*
G04 Created by KiCad (PCBNEW 5.0.2-bee76a0~70~ubuntu18.04.1) date Wed 03 Apr 2019 09:09:33 PM EDT*
%MOMM*%
%LPD*%
G01*
G04 APERTURE LIST*
%ADD10R,0.800000X0.900000*%
%ADD11R,0.700000X1.300000*%
%ADD12R,1.000000X1.250000*%
%ADD13R,1.250000X1.000000*%
%ADD14R,1.200000X1.200000*%
%ADD15R,0.900000X2.500000*%
%ADD16R,3.300000X8.200000*%
%ADD17R,1.300000X0.700000*%
%ADD18R,1.060000X0.650000*%
%ADD19R,1.000000X1.600000*%
%ADD20R,1.778000X2.159000*%
%ADD21R,3.200000X1.000000*%
%ADD22R,1.600000X0.550000*%
%ADD23R,0.550000X1.600000*%
%ADD24R,0.900000X0.800000*%
%ADD25C,2.000000*%
%ADD26C,0.875000*%
%ADD27R,0.650000X1.060000*%
%ADD28R,0.600000X1.550000*%
G04 APERTURE END LIST*
D10*
G04 #@! TO.C,Q7*
X186984600Y-64939600D03*
X186034600Y-62839600D03*
X187934600Y-62839600D03*
G04 #@! TD*
D11*
G04 #@! TO.C,R1*
X187553600Y-99364800D03*
X189453600Y-99364800D03*
G04 #@! TD*
D12*
G04 #@! TO.C,C11*
X193732564Y-111347091D03*
X191732564Y-111347091D03*
G04 #@! TD*
D13*
G04 #@! TO.C,C13*
X184096564Y-108537091D03*
X184096564Y-106537091D03*
G04 #@! TD*
G04 #@! TO.C,C12*
X186382564Y-108537091D03*
X186382564Y-106537091D03*
G04 #@! TD*
D14*
G04 #@! TO.C,D6*
X175206564Y-112955091D03*
X175206564Y-110755091D03*
G04 #@! TD*
D15*
G04 #@! TO.C,F1*
X184049064Y-120637591D03*
X186949064Y-120637591D03*
G04 #@! TD*
D16*
G04 #@! TO.C,L1*
X187145064Y-114331591D03*
X182445064Y-114331591D03*
G04 #@! TD*
D17*
G04 #@! TO.C,R10*
X187906564Y-122843091D03*
X187906564Y-124743091D03*
G04 #@! TD*
G04 #@! TO.C,R12*
X189938564Y-122843091D03*
X189938564Y-124743091D03*
G04 #@! TD*
G04 #@! TO.C,R20*
X175206564Y-116869091D03*
X175206564Y-114969091D03*
G04 #@! TD*
D18*
G04 #@! TO.C,U4*
X190299064Y-113406991D03*
X190299064Y-114356991D03*
X190299064Y-115306991D03*
X192499064Y-115306991D03*
X192499064Y-113406991D03*
X192499064Y-114356991D03*
G04 #@! TD*
D19*
G04 #@! TO.C,C7*
X190216564Y-117697091D03*
X193216564Y-117697091D03*
G04 #@! TD*
D13*
G04 #@! TO.C,C14*
X182064564Y-108537091D03*
X182064564Y-106537091D03*
G04 #@! TD*
D14*
G04 #@! TO.C,D3*
X185450564Y-124555091D03*
X183250564Y-124555091D03*
G04 #@! TD*
D20*
G04 #@! TO.C,D2*
X175714564Y-122015091D03*
X179778564Y-122015091D03*
G04 #@! TD*
D21*
G04 #@! TO.C,R19*
X178381564Y-117622091D03*
X178381564Y-111422091D03*
G04 #@! TD*
D17*
G04 #@! TO.C,R15*
X195018564Y-115223091D03*
X195018564Y-117123091D03*
G04 #@! TD*
D11*
G04 #@! TO.C,R16*
X193936564Y-108045091D03*
X192036564Y-108045091D03*
G04 #@! TD*
D13*
G04 #@! TO.C,C1*
X180086000Y-93065600D03*
X180086000Y-91065600D03*
G04 #@! TD*
D12*
G04 #@! TO.C,C2*
X196316600Y-84226400D03*
X198316600Y-84226400D03*
G04 #@! TD*
D13*
G04 #@! TO.C,C3*
X190741300Y-91973400D03*
X190741300Y-89973400D03*
G04 #@! TD*
G04 #@! TO.C,C4*
X184391300Y-91941400D03*
X184391300Y-89941400D03*
G04 #@! TD*
D12*
G04 #@! TO.C,C5*
X202041000Y-74650600D03*
X200041000Y-74650600D03*
G04 #@! TD*
G04 #@! TO.C,C6*
X207060800Y-90322400D03*
X209060800Y-90322400D03*
G04 #@! TD*
G04 #@! TO.C,C8*
X209568800Y-76758800D03*
X207568800Y-76758800D03*
G04 #@! TD*
G04 #@! TO.C,C9*
X173278800Y-92456000D03*
X175278800Y-92456000D03*
G04 #@! TD*
G04 #@! TO.C,C10*
X208321400Y-79121000D03*
X210321400Y-79121000D03*
G04 #@! TD*
D14*
G04 #@! TO.C,D1*
X208102200Y-70545600D03*
X208102200Y-72745600D03*
G04 #@! TD*
G04 #@! TO.C,D4*
X212826600Y-91346200D03*
X212826600Y-89146200D03*
G04 #@! TD*
G04 #@! TO.C,D5*
X196900800Y-94111900D03*
X196900800Y-96311900D03*
G04 #@! TD*
G04 #@! TO.C,D7*
X174472600Y-57454800D03*
X176672600Y-57454800D03*
G04 #@! TD*
G04 #@! TO.C,D8*
X194902000Y-57480200D03*
X192702000Y-57480200D03*
G04 #@! TD*
G04 #@! TO.C,D9*
X180383000Y-57480200D03*
X182583000Y-57480200D03*
G04 #@! TD*
G04 #@! TO.C,D10*
X186471200Y-57353200D03*
X188671200Y-57353200D03*
G04 #@! TD*
G04 #@! TO.C,D12*
X194995800Y-96332400D03*
X194995800Y-94132400D03*
G04 #@! TD*
G04 #@! TO.C,D13*
X193027300Y-94132400D03*
X193027300Y-96332400D03*
G04 #@! TD*
D22*
G04 #@! TO.C,IC1*
X185157800Y-79775400D03*
X185157800Y-80575400D03*
X185157800Y-81375400D03*
X185157800Y-82175400D03*
X185157800Y-82975400D03*
X185157800Y-83775400D03*
X185157800Y-84575400D03*
X185157800Y-85375400D03*
D23*
X186607800Y-86825400D03*
X187407800Y-86825400D03*
X188207800Y-86825400D03*
X189007800Y-86825400D03*
X189807800Y-86825400D03*
X190607800Y-86825400D03*
X191407800Y-86825400D03*
X192207800Y-86825400D03*
D22*
X193657800Y-85375400D03*
X193657800Y-84575400D03*
X193657800Y-83775400D03*
X193657800Y-82975400D03*
X193657800Y-82175400D03*
X193657800Y-81375400D03*
X193657800Y-80575400D03*
X193657800Y-79775400D03*
D23*
X192207800Y-78325400D03*
X191407800Y-78325400D03*
X190607800Y-78325400D03*
X189807800Y-78325400D03*
X189007800Y-78325400D03*
X188207800Y-78325400D03*
X187407800Y-78325400D03*
X186607800Y-78325400D03*
G04 #@! TD*
D24*
G04 #@! TO.C,Q1*
X207035400Y-87401400D03*
X209135400Y-86451400D03*
X209135400Y-88351400D03*
G04 #@! TD*
D10*
G04 #@! TO.C,Q2*
X207076000Y-97350000D03*
X206126000Y-95250000D03*
X208026000Y-95250000D03*
G04 #@! TD*
G04 #@! TO.C,Q3*
X175881951Y-63076371D03*
X173981951Y-63076371D03*
X174931951Y-65176371D03*
G04 #@! TD*
G04 #@! TO.C,Q4*
X194091600Y-62974800D03*
X192191600Y-62974800D03*
X193141600Y-65074800D03*
G04 #@! TD*
G04 #@! TO.C,Q5*
X181823400Y-62974800D03*
X179923400Y-62974800D03*
X180873400Y-65074800D03*
G04 #@! TD*
D24*
G04 #@! TO.C,Q6*
X184513800Y-73268800D03*
X184513800Y-75168800D03*
X186613800Y-74218800D03*
G04 #@! TD*
D17*
G04 #@! TO.C,R2*
X200025000Y-70774600D03*
X200025000Y-68874600D03*
G04 #@! TD*
D11*
G04 #@! TO.C,R3*
X176672200Y-80619600D03*
X178572200Y-80619600D03*
G04 #@! TD*
G04 #@! TO.C,R4*
X174091600Y-96393000D03*
X172191600Y-96393000D03*
G04 #@! TD*
G04 #@! TO.C,R5*
X205486000Y-72720200D03*
X203586000Y-72720200D03*
G04 #@! TD*
G04 #@! TO.C,R6*
X203560600Y-88671400D03*
X205460600Y-88671400D03*
G04 #@! TD*
G04 #@! TO.C,R7*
X202209400Y-72720200D03*
X200309400Y-72720200D03*
G04 #@! TD*
G04 #@! TO.C,R8*
X198455200Y-79095600D03*
X200355200Y-79095600D03*
G04 #@! TD*
G04 #@! TO.C,R9*
X203560600Y-86664800D03*
X205460600Y-86664800D03*
G04 #@! TD*
G04 #@! TO.C,R11*
X203565800Y-79095600D03*
X201665800Y-79095600D03*
G04 #@! TD*
G04 #@! TO.C,R13*
X206867800Y-79121000D03*
X204967800Y-79121000D03*
G04 #@! TD*
D17*
G04 #@! TO.C,R14*
X170357800Y-81683900D03*
X170357800Y-79783900D03*
G04 #@! TD*
G04 #@! TO.C,R17*
X212801200Y-87426800D03*
X212801200Y-85526800D03*
G04 #@! TD*
D11*
G04 #@! TO.C,R18*
X206248000Y-93065600D03*
X208148000Y-93065600D03*
G04 #@! TD*
G04 #@! TO.C,R21*
X176100351Y-59380671D03*
X174200351Y-59380671D03*
G04 #@! TD*
G04 #@! TO.C,R22*
X176100351Y-61374571D03*
X174200351Y-61374571D03*
G04 #@! TD*
G04 #@! TO.C,R23*
X174187651Y-66873671D03*
X176087651Y-66873671D03*
G04 #@! TD*
G04 #@! TO.C,R24*
X174401400Y-76200000D03*
X176301400Y-76200000D03*
G04 #@! TD*
D17*
G04 #@! TO.C,R25*
X174726600Y-74000400D03*
X174726600Y-72100400D03*
G04 #@! TD*
D11*
G04 #@! TO.C,R26*
X192430400Y-59334400D03*
X194330400Y-59334400D03*
G04 #@! TD*
G04 #@! TO.C,R27*
X179573000Y-76200000D03*
X177673000Y-76200000D03*
G04 #@! TD*
G04 #@! TO.C,R28*
X180126600Y-59334400D03*
X182026600Y-59334400D03*
G04 #@! TD*
G04 #@! TO.C,R29*
X192420200Y-61290200D03*
X194320200Y-61290200D03*
G04 #@! TD*
G04 #@! TO.C,R30*
X180126600Y-61290200D03*
X182026600Y-61290200D03*
G04 #@! TD*
G04 #@! TO.C,R31*
X192384600Y-66802000D03*
X194284600Y-66802000D03*
G04 #@! TD*
G04 #@! TO.C,R32*
X182052000Y-66802000D03*
X180152000Y-66802000D03*
G04 #@! TD*
D25*
G04 #@! TO.C,R33*
G36*
X182942391Y-73643253D02*
X182963626Y-73646403D01*
X182984450Y-73651619D01*
X183004662Y-73658851D01*
X183024068Y-73668030D01*
X183042481Y-73679066D01*
X183059724Y-73691854D01*
X183075630Y-73706270D01*
X183090046Y-73722176D01*
X183102834Y-73739419D01*
X183113870Y-73757832D01*
X183123049Y-73777238D01*
X183130281Y-73797450D01*
X183135497Y-73818274D01*
X183138647Y-73839509D01*
X183139700Y-73860950D01*
X183139700Y-74373450D01*
X183138647Y-74394891D01*
X183135497Y-74416126D01*
X183130281Y-74436950D01*
X183123049Y-74457162D01*
X183113870Y-74476568D01*
X183102834Y-74494981D01*
X183090046Y-74512224D01*
X183075630Y-74528130D01*
X183059724Y-74542546D01*
X183042481Y-74555334D01*
X183024068Y-74566370D01*
X183004662Y-74575549D01*
X182984450Y-74582781D01*
X182963626Y-74587997D01*
X182942391Y-74591147D01*
X182920950Y-74592200D01*
X182483450Y-74592200D01*
X182462009Y-74591147D01*
X182440774Y-74587997D01*
X182419950Y-74582781D01*
X182399738Y-74575549D01*
X182380332Y-74566370D01*
X182361919Y-74555334D01*
X182344676Y-74542546D01*
X182328770Y-74528130D01*
X182314354Y-74512224D01*
X182301566Y-74494981D01*
X182290530Y-74476568D01*
X182281351Y-74457162D01*
X182274119Y-74436950D01*
X182268903Y-74416126D01*
X182265753Y-74394891D01*
X182264700Y-74373450D01*
X182264700Y-73860950D01*
X182265753Y-73839509D01*
X182268903Y-73818274D01*
X182274119Y-73797450D01*
X182281351Y-73777238D01*
X182290530Y-73757832D01*
X182301566Y-73739419D01*
X182314354Y-73722176D01*
X182328770Y-73706270D01*
X182344676Y-73691854D01*
X182361919Y-73679066D01*
X182380332Y-73668030D01*
X182399738Y-73658851D01*
X182419950Y-73651619D01*
X182440774Y-73646403D01*
X182462009Y-73643253D01*
X182483450Y-73642200D01*
X182920950Y-73642200D01*
X182942391Y-73643253D01*
X182942391Y-73643253D01*
G37*
D26*
X182702200Y-74117200D03*
D25*
G36*
X181367391Y-73643253D02*
X181388626Y-73646403D01*
X181409450Y-73651619D01*
X181429662Y-73658851D01*
X181449068Y-73668030D01*
X181467481Y-73679066D01*
X181484724Y-73691854D01*
X181500630Y-73706270D01*
X181515046Y-73722176D01*
X181527834Y-73739419D01*
X181538870Y-73757832D01*
X181548049Y-73777238D01*
X181555281Y-73797450D01*
X181560497Y-73818274D01*
X181563647Y-73839509D01*
X181564700Y-73860950D01*
X181564700Y-74373450D01*
X181563647Y-74394891D01*
X181560497Y-74416126D01*
X181555281Y-74436950D01*
X181548049Y-74457162D01*
X181538870Y-74476568D01*
X181527834Y-74494981D01*
X181515046Y-74512224D01*
X181500630Y-74528130D01*
X181484724Y-74542546D01*
X181467481Y-74555334D01*
X181449068Y-74566370D01*
X181429662Y-74575549D01*
X181409450Y-74582781D01*
X181388626Y-74587997D01*
X181367391Y-74591147D01*
X181345950Y-74592200D01*
X180908450Y-74592200D01*
X180887009Y-74591147D01*
X180865774Y-74587997D01*
X180844950Y-74582781D01*
X180824738Y-74575549D01*
X180805332Y-74566370D01*
X180786919Y-74555334D01*
X180769676Y-74542546D01*
X180753770Y-74528130D01*
X180739354Y-74512224D01*
X180726566Y-74494981D01*
X180715530Y-74476568D01*
X180706351Y-74457162D01*
X180699119Y-74436950D01*
X180693903Y-74416126D01*
X180690753Y-74394891D01*
X180689700Y-74373450D01*
X180689700Y-73860950D01*
X180690753Y-73839509D01*
X180693903Y-73818274D01*
X180699119Y-73797450D01*
X180706351Y-73777238D01*
X180715530Y-73757832D01*
X180726566Y-73739419D01*
X180739354Y-73722176D01*
X180753770Y-73706270D01*
X180769676Y-73691854D01*
X180786919Y-73679066D01*
X180805332Y-73668030D01*
X180824738Y-73658851D01*
X180844950Y-73651619D01*
X180865774Y-73646403D01*
X180887009Y-73643253D01*
X180908450Y-73642200D01*
X181345950Y-73642200D01*
X181367391Y-73643253D01*
X181367391Y-73643253D01*
G37*
D26*
X181127200Y-74117200D03*
G04 #@! TD*
D11*
G04 #@! TO.C,R34*
X182803800Y-76200000D03*
X180903800Y-76200000D03*
G04 #@! TD*
G04 #@! TO.C,R35*
X188112400Y-59232800D03*
X186212400Y-59232800D03*
G04 #@! TD*
G04 #@! TO.C,R37*
X188137800Y-61188600D03*
X186237800Y-61188600D03*
G04 #@! TD*
G04 #@! TO.C,R39*
X186263200Y-66598800D03*
X188163200Y-66598800D03*
G04 #@! TD*
D17*
G04 #@! TO.C,R41*
X200202800Y-101000600D03*
X200202800Y-99100600D03*
G04 #@! TD*
G04 #@! TO.C,R42*
X202387200Y-100985400D03*
X202387200Y-99085400D03*
G04 #@! TD*
G04 #@! TO.C,R44*
X196837300Y-92605900D03*
X196837300Y-90705900D03*
G04 #@! TD*
G04 #@! TO.C,R45*
X194932300Y-90708400D03*
X194932300Y-92608400D03*
G04 #@! TD*
G04 #@! TO.C,R46*
X192963800Y-92608400D03*
X192963800Y-90708400D03*
G04 #@! TD*
D18*
G04 #@! TO.C,U1*
X204249200Y-68900000D03*
X204249200Y-70800000D03*
X202049200Y-70800000D03*
X202049200Y-69850000D03*
X202049200Y-68900000D03*
G04 #@! TD*
D27*
G04 #@! TO.C,U2*
X205750200Y-74617400D03*
X204800200Y-74617400D03*
X203850200Y-74617400D03*
X203850200Y-76817400D03*
X205750200Y-76817400D03*
G04 #@! TD*
D28*
G04 #@! TO.C,U3*
X170738800Y-90228400D03*
X172008800Y-90228400D03*
X173278800Y-90228400D03*
X174548800Y-90228400D03*
X174548800Y-84828400D03*
X173278800Y-84828400D03*
X172008800Y-84828400D03*
X170738800Y-84828400D03*
G04 #@! TD*
D27*
G04 #@! TO.C,U5*
X203875600Y-84683600D03*
X204825600Y-84683600D03*
X205775600Y-84683600D03*
X205775600Y-82483600D03*
X203875600Y-82483600D03*
G04 #@! TD*
G04 #@! TO.C,U6*
X209524600Y-84683600D03*
X207624600Y-84683600D03*
X207624600Y-82483600D03*
X208574600Y-82483600D03*
X209524600Y-82483600D03*
G04 #@! TD*
G04 #@! TO.C,U7*
X178808600Y-71914800D03*
X177858600Y-71914800D03*
X176908600Y-71914800D03*
X176908600Y-74114800D03*
X178808600Y-74114800D03*
G04 #@! TD*
D14*
G04 #@! TO.C,D11*
X200804600Y-62026800D03*
X203004600Y-62026800D03*
G04 #@! TD*
D11*
G04 #@! TO.C,R36*
X200497400Y-64008000D03*
X202397400Y-64008000D03*
G04 #@! TD*
M02*
