M48
;DRILL file {KiCad 5.0.2-bee76a0~70~ubuntu18.04.1} date Sat 27 Apr 2019 08:53:03 PM EDT
;FORMAT={2:4/ absolute / inch / suppress leading zeros}
FMAT,2
INCH,TZ
T1C0.0120
T2C0.0157
T3C0.0315
T4C0.0400
%
G90
G05
T1
X64580Y-29820
X64580Y-31120
X64580Y-31960
X65760Y-34800
X65866Y-29506
X65920Y-38240
X66260Y-31755
X66560Y-21940
X66760Y-35180
X66800Y-20080
X66920Y-23660
X66930Y-39110
X66950Y-46000
X67030Y-29020
X67100Y-33570
X67430Y-26940
X67450Y-36180
X68010Y-28580
X68050Y-35980
X68110Y-36450
X68140Y-19640
X68420Y-20480
X68806Y-32000
X68810Y-33360
X68990Y-32600
X69060Y-28560
X69070Y-26800
X69240Y-20380
X69280Y-35940
X69400Y-19860
X69420Y-23220
X69681Y-32920
X69890Y-29940
X70060Y-19980
X70180Y-34180
X70704Y-32564
X70790Y-36220
X70790Y-37800
X71070Y-33430
X71200Y-30050
X71360Y-31680
X71670Y-29140
X71900Y-23260
X71935Y-33980
X71940Y-20680
X72050Y-26800
X72210Y-29160
X72435Y-35605
X72830Y-29290
X72830Y-35680
X73060Y-30380
X73120Y-27910
X73320Y-32480
X73550Y-35680
X73580Y-22180
X73980Y-33930
X74060Y-36555
X74120Y-37860
X74230Y-31580
X74240Y-31010
X74340Y-23380
X74444Y-30384
X74610Y-27020
X74610Y-27020
X74650Y-28530
X74670Y-31460
X74700Y-27850
X74731Y-31754
X74820Y-26550
X75290Y-33730
X75320Y-30139
X75400Y-48450
X75430Y-26520
X75530Y-27400
X75770Y-26370
X75770Y-28730
X75880Y-32330
X75935Y-31680
X76000Y-21000
X76000Y-21600
X76060Y-23780
X76230Y-26500
X76490Y-29460
X76610Y-24690
X76670Y-27640
X76770Y-23820
X77000Y-23000
X77030Y-37560
X77140Y-25926
X77140Y-33730
X77490Y-33520
X77570Y-32740
X77580Y-24760
X77840Y-33500
X77910Y-32750
X78030Y-25380
X78100Y-29030
X78630Y-31550
X78758Y-32658
X78940Y-37330
X79380Y-36520
X79560Y-23100
X80300Y-21740
X80755Y-28695
X80780Y-30900
X81040Y-28230
X81110Y-25990
X82000Y-41500
X82000Y-43000
X82000Y-45000
X82000Y-47000
X82050Y-35590
X82230Y-32290
X82340Y-29520
X82400Y-25120
X82800Y-37800
X83200Y-39000
X83390Y-39900
X83400Y-37800
X84000Y-39700
X84210Y-38100
T2
X67048Y-42578
X67053Y-41444
X67078Y-40736
X68320Y-40736
X69489Y-40721
X70603Y-40726
X77079Y-47964
X78193Y-44214
X78207Y-45527
X78207Y-46604
X78207Y-47431
T3
X64040Y-20600
X64040Y-21600
X64040Y-22600
X65040Y-21100
X65040Y-22100
X65040Y-23100
X64040Y-28040
X64040Y-29040
X64040Y-30040
X64040Y-31040
X64040Y-32040
X64040Y-33040
X64040Y-34040
X64040Y-35040
X64040Y-36040
X64040Y-37040
X65040Y-28540
X65040Y-29540
X65040Y-30540
X65040Y-31540
X65040Y-32540
X65040Y-33540
X65040Y-34540
X65040Y-35540
X65040Y-36540
X65040Y-37540
T4
X81160Y-19980
X81160Y-20980
X81160Y-21980
X82160Y-19980
X82160Y-20980
X82160Y-21980
T0
M30
