G04 #@! TF.GenerationSoftware,KiCad,Pcbnew,5.0.2-bee76a0~70~ubuntu18.04.1*
G04 #@! TF.CreationDate,2019-04-27T20:52:58-04:00*
G04 #@! TF.ProjectId,Brakelight_Shutdown_BSPD,4272616b-656c-4696-9768-745f53687574,rev?*
G04 #@! TF.SameCoordinates,Original*
G04 #@! TF.FileFunction,Soldermask,Top*
G04 #@! TF.FilePolarity,Negative*
%FSLAX46Y46*%
G04 Gerber Fmt 4.6, Leading zero omitted, Abs format (unit mm)*
G04 Created by KiCad (PCBNEW 5.0.2-bee76a0~70~ubuntu18.04.1) date Sat 27 Apr 2019 08:52:58 PM EDT*
%MOMM*%
%LPD*%
G01*
G04 APERTURE LIST*
%ADD10C,0.100000*%
G04 APERTURE END LIST*
D10*
G36*
X181977000Y-126140000D02*
X180675000Y-126140000D01*
X180675000Y-124838000D01*
X181977000Y-124838000D01*
X181977000Y-126140000D01*
X181977000Y-126140000D01*
G37*
G36*
X181977000Y-123940000D02*
X180675000Y-123940000D01*
X180675000Y-122638000D01*
X181977000Y-122638000D01*
X181977000Y-123940000D01*
X181977000Y-123940000D01*
G37*
G36*
X182027000Y-121940000D02*
X180625000Y-121940000D01*
X180625000Y-121138000D01*
X182027000Y-121138000D01*
X182027000Y-121940000D01*
X182027000Y-121940000D01*
G37*
G36*
X182027000Y-120040000D02*
X180625000Y-120040000D01*
X180625000Y-119238000D01*
X182027000Y-119238000D01*
X182027000Y-120040000D01*
X182027000Y-120040000D01*
G37*
G36*
X210201000Y-120031000D02*
X208899000Y-120031000D01*
X208899000Y-118729000D01*
X210201000Y-118729000D01*
X210201000Y-120031000D01*
X210201000Y-120031000D01*
G37*
G36*
X189396300Y-118641000D02*
X187514300Y-118641000D01*
X187514300Y-115039000D01*
X189396300Y-115039000D01*
X189396300Y-118641000D01*
X189396300Y-118641000D01*
G37*
G36*
X194676300Y-118641000D02*
X192794300Y-118641000D01*
X192794300Y-115039000D01*
X194676300Y-115039000D01*
X194676300Y-118641000D01*
X194676300Y-118641000D01*
G37*
G36*
X180205200Y-118496080D02*
X179103200Y-118496080D01*
X179103200Y-115194080D01*
X180205200Y-115194080D01*
X180205200Y-118496080D01*
X180205200Y-118496080D01*
G37*
G36*
X186405200Y-118496080D02*
X185303200Y-118496080D01*
X185303200Y-115194080D01*
X186405200Y-115194080D01*
X186405200Y-118496080D01*
X186405200Y-118496080D01*
G37*
G36*
X210201000Y-117831000D02*
X208899000Y-117831000D01*
X208899000Y-116529000D01*
X210201000Y-116529000D01*
X210201000Y-117831000D01*
X210201000Y-117831000D01*
G37*
G36*
X210201000Y-114611000D02*
X208899000Y-114611000D01*
X208899000Y-113309000D01*
X210201000Y-113309000D01*
X210201000Y-114611000D01*
X210201000Y-114611000D01*
G37*
G36*
X179547800Y-114267500D02*
X178545800Y-114267500D01*
X178545800Y-111665500D01*
X179547800Y-111665500D01*
X179547800Y-114267500D01*
X179547800Y-114267500D01*
G37*
G36*
X176647800Y-114267500D02*
X175645800Y-114267500D01*
X175645800Y-111665500D01*
X176647800Y-111665500D01*
X176647800Y-114267500D01*
X176647800Y-114267500D01*
G37*
G36*
X184153700Y-113956540D02*
X182851700Y-113956540D01*
X182851700Y-111854540D01*
X184153700Y-111854540D01*
X184153700Y-113956540D01*
X184153700Y-113956540D01*
G37*
G36*
X187353700Y-113956540D02*
X186051700Y-113956540D01*
X186051700Y-111854540D01*
X187353700Y-111854540D01*
X187353700Y-113956540D01*
X187353700Y-113956540D01*
G37*
G36*
X173710800Y-113906500D02*
X171449800Y-113906500D01*
X171449800Y-112026500D01*
X173710800Y-112026500D01*
X173710800Y-113906500D01*
X173710800Y-113906500D01*
G37*
G36*
X189149300Y-113515500D02*
X188047300Y-113515500D01*
X188047300Y-112163500D01*
X189149300Y-112163500D01*
X189149300Y-113515500D01*
X189149300Y-113515500D01*
G37*
G36*
X191149300Y-113515500D02*
X190047300Y-113515500D01*
X190047300Y-112163500D01*
X191149300Y-112163500D01*
X191149300Y-113515500D01*
X191149300Y-113515500D01*
G37*
G36*
X210201000Y-112411000D02*
X208899000Y-112411000D01*
X208899000Y-111109000D01*
X210201000Y-111109000D01*
X210201000Y-112411000D01*
X210201000Y-112411000D01*
G37*
G36*
X168227000Y-111990000D02*
X166825000Y-111990000D01*
X166825000Y-111188000D01*
X168227000Y-111188000D01*
X168227000Y-111990000D01*
X168227000Y-111990000D01*
G37*
G36*
X188625300Y-111341000D02*
X187523300Y-111341000D01*
X187523300Y-109639000D01*
X188625300Y-109639000D01*
X188625300Y-111341000D01*
X188625300Y-111341000D01*
G37*
G36*
X191625300Y-111341000D02*
X190523300Y-111341000D01*
X190523300Y-109639000D01*
X191625300Y-109639000D01*
X191625300Y-111341000D01*
X191625300Y-111341000D01*
G37*
G36*
X183629600Y-110885800D02*
X180977600Y-110885800D01*
X180977600Y-109723800D01*
X183629600Y-109723800D01*
X183629600Y-110885800D01*
X183629600Y-110885800D01*
G37*
G36*
X179860300Y-110850500D02*
X178508300Y-110850500D01*
X178508300Y-109748500D01*
X179860300Y-109748500D01*
X179860300Y-110850500D01*
X179860300Y-110850500D01*
G37*
G36*
X186273800Y-110771000D02*
X184921800Y-110771000D01*
X184921800Y-109669000D01*
X186273800Y-109669000D01*
X186273800Y-110771000D01*
X186273800Y-110771000D01*
G37*
G36*
X177757951Y-109693265D02*
X177791929Y-109703573D01*
X177823247Y-109720313D01*
X177850699Y-109742841D01*
X177873227Y-109770293D01*
X177889967Y-109801611D01*
X177900275Y-109835589D01*
X177904360Y-109877070D01*
X177904360Y-110478290D01*
X177900275Y-110519771D01*
X177889967Y-110553749D01*
X177873227Y-110585067D01*
X177850699Y-110612519D01*
X177823247Y-110635047D01*
X177791929Y-110651787D01*
X177757951Y-110662095D01*
X177716470Y-110666180D01*
X177040250Y-110666180D01*
X176998769Y-110662095D01*
X176964791Y-110651787D01*
X176933473Y-110635047D01*
X176906021Y-110612519D01*
X176883493Y-110585067D01*
X176866753Y-110553749D01*
X176856445Y-110519771D01*
X176852360Y-110478290D01*
X176852360Y-109877070D01*
X176856445Y-109835589D01*
X176866753Y-109801611D01*
X176883493Y-109770293D01*
X176906021Y-109742841D01*
X176933473Y-109720313D01*
X176964791Y-109703573D01*
X176998769Y-109693265D01*
X177040250Y-109689180D01*
X177716470Y-109689180D01*
X177757951Y-109693265D01*
X177757951Y-109693265D01*
G37*
G36*
X168227000Y-110090000D02*
X166825000Y-110090000D01*
X166825000Y-109288000D01*
X168227000Y-109288000D01*
X168227000Y-110090000D01*
X168227000Y-110090000D01*
G37*
G36*
X210201000Y-109871000D02*
X208899000Y-109871000D01*
X208899000Y-108569000D01*
X210201000Y-108569000D01*
X210201000Y-109871000D01*
X210201000Y-109871000D01*
G37*
G36*
X173710800Y-109842500D02*
X171449800Y-109842500D01*
X171449800Y-107962500D01*
X173710800Y-107962500D01*
X173710800Y-109842500D01*
X173710800Y-109842500D01*
G37*
G36*
X177757951Y-108118265D02*
X177791929Y-108128573D01*
X177823247Y-108145313D01*
X177850699Y-108167841D01*
X177873227Y-108195293D01*
X177889967Y-108226611D01*
X177900275Y-108260589D01*
X177904360Y-108302070D01*
X177904360Y-108903290D01*
X177900275Y-108944771D01*
X177889967Y-108978749D01*
X177873227Y-109010067D01*
X177850699Y-109037519D01*
X177823247Y-109060047D01*
X177791929Y-109076787D01*
X177757951Y-109087095D01*
X177716470Y-109091180D01*
X177040250Y-109091180D01*
X176998769Y-109087095D01*
X176964791Y-109076787D01*
X176933473Y-109060047D01*
X176906021Y-109037519D01*
X176883493Y-109010067D01*
X176866753Y-108978749D01*
X176856445Y-108944771D01*
X176852360Y-108903290D01*
X176852360Y-108302070D01*
X176856445Y-108260589D01*
X176866753Y-108226611D01*
X176883493Y-108195293D01*
X176906021Y-108167841D01*
X176933473Y-108145313D01*
X176964791Y-108128573D01*
X176998769Y-108118265D01*
X177040250Y-108114180D01*
X177716470Y-108114180D01*
X177757951Y-108118265D01*
X177757951Y-108118265D01*
G37*
G36*
X179860300Y-108850500D02*
X178508300Y-108850500D01*
X178508300Y-107748500D01*
X179860300Y-107748500D01*
X179860300Y-108850500D01*
X179860300Y-108850500D01*
G37*
G36*
X186273800Y-108771000D02*
X184921800Y-108771000D01*
X184921800Y-107669000D01*
X186273800Y-107669000D01*
X186273800Y-108771000D01*
X186273800Y-108771000D01*
G37*
G36*
X183629600Y-108685800D02*
X180977600Y-108685800D01*
X180977600Y-107523800D01*
X183629600Y-107523800D01*
X183629600Y-108685800D01*
X183629600Y-108685800D01*
G37*
G36*
X168177000Y-108590000D02*
X166875000Y-108590000D01*
X166875000Y-107288000D01*
X168177000Y-107288000D01*
X168177000Y-108590000D01*
X168177000Y-108590000D01*
G37*
G36*
X210201000Y-107671000D02*
X208899000Y-107671000D01*
X208899000Y-106369000D01*
X210201000Y-106369000D01*
X210201000Y-107671000D01*
X210201000Y-107671000D01*
G37*
G36*
X184421420Y-106918720D02*
X183619420Y-106918720D01*
X183619420Y-105516720D01*
X184421420Y-105516720D01*
X184421420Y-106918720D01*
X184421420Y-106918720D01*
G37*
G36*
X186321420Y-106918720D02*
X185519420Y-106918720D01*
X185519420Y-105516720D01*
X186321420Y-105516720D01*
X186321420Y-106918720D01*
X186321420Y-106918720D01*
G37*
G36*
X182435220Y-106903480D02*
X181633220Y-106903480D01*
X181633220Y-105501480D01*
X182435220Y-105501480D01*
X182435220Y-106903480D01*
X182435220Y-106903480D01*
G37*
G36*
X180535220Y-106903480D02*
X179733220Y-106903480D01*
X179733220Y-105501480D01*
X180535220Y-105501480D01*
X180535220Y-106903480D01*
X180535220Y-106903480D01*
G37*
G36*
X168177000Y-106390000D02*
X166875000Y-106390000D01*
X166875000Y-105088000D01*
X168177000Y-105088000D01*
X168177000Y-106390000D01*
X168177000Y-106390000D01*
G37*
G36*
X210201000Y-104621000D02*
X208899000Y-104621000D01*
X208899000Y-103319000D01*
X210201000Y-103319000D01*
X210201000Y-104621000D01*
X210201000Y-104621000D01*
G37*
G36*
X210201000Y-102421000D02*
X208899000Y-102421000D01*
X208899000Y-101119000D01*
X210201000Y-101119000D01*
X210201000Y-102421000D01*
X210201000Y-102421000D01*
G37*
G36*
X198465400Y-98912400D02*
X197063400Y-98912400D01*
X197063400Y-98110400D01*
X198465400Y-98110400D01*
X198465400Y-98912400D01*
X198465400Y-98912400D01*
G37*
G36*
X200649800Y-98897200D02*
X199247800Y-98897200D01*
X199247800Y-98095200D01*
X200649800Y-98095200D01*
X200649800Y-98897200D01*
X200649800Y-98897200D01*
G37*
G36*
X187416200Y-97576600D02*
X186614200Y-97576600D01*
X186614200Y-96174600D01*
X187416200Y-96174600D01*
X187416200Y-97576600D01*
X187416200Y-97576600D01*
G37*
G36*
X185516200Y-97576600D02*
X184714200Y-97576600D01*
X184714200Y-96174600D01*
X185516200Y-96174600D01*
X185516200Y-97576600D01*
X185516200Y-97576600D01*
G37*
G36*
X198465400Y-97012400D02*
X197063400Y-97012400D01*
X197063400Y-96210400D01*
X198465400Y-96210400D01*
X198465400Y-97012400D01*
X198465400Y-97012400D01*
G37*
G36*
X200649800Y-96997200D02*
X199247800Y-96997200D01*
X199247800Y-96195200D01*
X200649800Y-96195200D01*
X200649800Y-96997200D01*
X200649800Y-96997200D01*
G37*
G36*
X165406072Y-94677538D02*
X165533649Y-94730382D01*
X165648465Y-94807100D01*
X165746100Y-94904735D01*
X165822818Y-95019551D01*
X165875662Y-95147128D01*
X165902600Y-95282556D01*
X165902600Y-95420644D01*
X165875662Y-95556072D01*
X165822818Y-95683649D01*
X165746100Y-95798465D01*
X165648465Y-95896100D01*
X165533649Y-95972818D01*
X165406072Y-96025662D01*
X165270644Y-96052600D01*
X165132556Y-96052600D01*
X164997128Y-96025662D01*
X164869551Y-95972818D01*
X164754735Y-95896100D01*
X164657100Y-95798465D01*
X164580382Y-95683649D01*
X164527538Y-95556072D01*
X164500600Y-95420644D01*
X164500600Y-95282556D01*
X164527538Y-95147128D01*
X164580382Y-95019551D01*
X164657100Y-94904735D01*
X164754735Y-94807100D01*
X164869551Y-94730382D01*
X164997128Y-94677538D01*
X165132556Y-94650600D01*
X165270644Y-94650600D01*
X165406072Y-94677538D01*
X165406072Y-94677538D01*
G37*
G36*
X205088600Y-95361800D02*
X204186600Y-95361800D01*
X204186600Y-94359800D01*
X205088600Y-94359800D01*
X205088600Y-95361800D01*
X205088600Y-95361800D01*
G37*
G36*
X162866072Y-93407538D02*
X162993649Y-93460382D01*
X163108465Y-93537100D01*
X163206100Y-93634735D01*
X163282818Y-93749551D01*
X163335662Y-93877128D01*
X163362600Y-94012556D01*
X163362600Y-94150644D01*
X163335662Y-94286072D01*
X163282818Y-94413649D01*
X163206100Y-94528465D01*
X163108465Y-94626100D01*
X162993649Y-94702818D01*
X162866072Y-94755662D01*
X162730644Y-94782600D01*
X162592556Y-94782600D01*
X162457128Y-94755662D01*
X162329551Y-94702818D01*
X162214735Y-94626100D01*
X162117100Y-94528465D01*
X162040382Y-94413649D01*
X161987538Y-94286072D01*
X161960600Y-94150644D01*
X161960600Y-94012556D01*
X161987538Y-93877128D01*
X162040382Y-93749551D01*
X162117100Y-93634735D01*
X162214735Y-93537100D01*
X162329551Y-93460382D01*
X162457128Y-93407538D01*
X162592556Y-93380600D01*
X162730644Y-93380600D01*
X162866072Y-93407538D01*
X162866072Y-93407538D01*
G37*
G36*
X172054200Y-94604800D02*
X171252200Y-94604800D01*
X171252200Y-93202800D01*
X172054200Y-93202800D01*
X172054200Y-94604800D01*
X172054200Y-94604800D01*
G37*
G36*
X170154200Y-94604800D02*
X169352200Y-94604800D01*
X169352200Y-93202800D01*
X170154200Y-93202800D01*
X170154200Y-94604800D01*
X170154200Y-94604800D01*
G37*
G36*
X193208400Y-94494200D02*
X191906400Y-94494200D01*
X191906400Y-93192200D01*
X193208400Y-93192200D01*
X193208400Y-94494200D01*
X193208400Y-94494200D01*
G37*
G36*
X191239900Y-94494200D02*
X189937900Y-94494200D01*
X189937900Y-93192200D01*
X191239900Y-93192200D01*
X191239900Y-94494200D01*
X191239900Y-94494200D01*
G37*
G36*
X195113400Y-94473700D02*
X193811400Y-94473700D01*
X193811400Y-93171700D01*
X195113400Y-93171700D01*
X195113400Y-94473700D01*
X195113400Y-94473700D01*
G37*
G36*
X165406072Y-92137538D02*
X165533649Y-92190382D01*
X165648465Y-92267100D01*
X165746100Y-92364735D01*
X165822818Y-92479551D01*
X165875662Y-92607128D01*
X165902600Y-92742556D01*
X165902600Y-92880644D01*
X165875662Y-93016072D01*
X165822818Y-93143649D01*
X165746100Y-93258465D01*
X165648465Y-93356100D01*
X165533649Y-93432818D01*
X165406072Y-93485662D01*
X165270644Y-93512600D01*
X165132556Y-93512600D01*
X164997128Y-93485662D01*
X164869551Y-93432818D01*
X164754735Y-93356100D01*
X164657100Y-93258465D01*
X164580382Y-93143649D01*
X164527538Y-93016072D01*
X164500600Y-92880644D01*
X164500600Y-92742556D01*
X164527538Y-92607128D01*
X164580382Y-92479551D01*
X164657100Y-92364735D01*
X164754735Y-92267100D01*
X164869551Y-92190382D01*
X164997128Y-92137538D01*
X165132556Y-92110600D01*
X165270644Y-92110600D01*
X165406072Y-92137538D01*
X165406072Y-92137538D01*
G37*
G36*
X206038600Y-93261800D02*
X205136600Y-93261800D01*
X205136600Y-92259800D01*
X206038600Y-92259800D01*
X206038600Y-93261800D01*
X206038600Y-93261800D01*
G37*
G36*
X204138600Y-93261800D02*
X203236600Y-93261800D01*
X203236600Y-92259800D01*
X204138600Y-92259800D01*
X204138600Y-93261800D01*
X204138600Y-93261800D01*
G37*
G36*
X191239900Y-92294200D02*
X189937900Y-92294200D01*
X189937900Y-90992200D01*
X191239900Y-90992200D01*
X191239900Y-92294200D01*
X191239900Y-92294200D01*
G37*
G36*
X193208400Y-92294200D02*
X191906400Y-92294200D01*
X191906400Y-90992200D01*
X193208400Y-90992200D01*
X193208400Y-92294200D01*
X193208400Y-92294200D01*
G37*
G36*
X195113400Y-92273700D02*
X193811400Y-92273700D01*
X193811400Y-90971700D01*
X195113400Y-90971700D01*
X195113400Y-92273700D01*
X195113400Y-92273700D01*
G37*
G36*
X162866072Y-90867538D02*
X162993649Y-90920382D01*
X163108465Y-90997100D01*
X163206100Y-91094735D01*
X163282818Y-91209551D01*
X163335662Y-91337128D01*
X163362600Y-91472556D01*
X163362600Y-91610644D01*
X163335662Y-91746072D01*
X163282818Y-91873649D01*
X163206100Y-91988465D01*
X163108465Y-92086100D01*
X162993649Y-92162818D01*
X162866072Y-92215662D01*
X162730644Y-92242600D01*
X162592556Y-92242600D01*
X162457128Y-92215662D01*
X162329551Y-92162818D01*
X162214735Y-92086100D01*
X162117100Y-91988465D01*
X162040382Y-91873649D01*
X161987538Y-91746072D01*
X161960600Y-91610644D01*
X161960600Y-91472556D01*
X161987538Y-91337128D01*
X162040382Y-91209551D01*
X162117100Y-91094735D01*
X162214735Y-90997100D01*
X162329551Y-90920382D01*
X162457128Y-90867538D01*
X162592556Y-90840600D01*
X162730644Y-90840600D01*
X162866072Y-90867538D01*
X162866072Y-90867538D01*
G37*
G36*
X204210600Y-91277400D02*
X203408600Y-91277400D01*
X203408600Y-89875400D01*
X204210600Y-89875400D01*
X204210600Y-91277400D01*
X204210600Y-91277400D01*
G37*
G36*
X206110600Y-91277400D02*
X205308600Y-91277400D01*
X205308600Y-89875400D01*
X206110600Y-89875400D01*
X206110600Y-91277400D01*
X206110600Y-91277400D01*
G37*
G36*
X178323600Y-91127400D02*
X176971600Y-91127400D01*
X176971600Y-90025400D01*
X178323600Y-90025400D01*
X178323600Y-91127400D01*
X178323600Y-91127400D01*
G37*
G36*
X165406072Y-89597538D02*
X165533649Y-89650382D01*
X165648465Y-89727100D01*
X165746100Y-89824735D01*
X165822818Y-89939551D01*
X165875662Y-90067128D01*
X165902600Y-90202556D01*
X165902600Y-90340644D01*
X165875662Y-90476072D01*
X165822818Y-90603649D01*
X165746100Y-90718465D01*
X165648465Y-90816100D01*
X165533649Y-90892818D01*
X165406072Y-90945662D01*
X165270644Y-90972600D01*
X165132556Y-90972600D01*
X164997128Y-90945662D01*
X164869551Y-90892818D01*
X164754735Y-90816100D01*
X164657100Y-90718465D01*
X164580382Y-90603649D01*
X164527538Y-90476072D01*
X164500600Y-90340644D01*
X164500600Y-90202556D01*
X164527538Y-90067128D01*
X164580382Y-89939551D01*
X164657100Y-89824735D01*
X164754735Y-89727100D01*
X164869551Y-89650382D01*
X164997128Y-89597538D01*
X165132556Y-89570600D01*
X165270644Y-89570600D01*
X165406072Y-89597538D01*
X165406072Y-89597538D01*
G37*
G36*
X171391400Y-90642800D02*
X170289400Y-90642800D01*
X170289400Y-89290800D01*
X171391400Y-89290800D01*
X171391400Y-90642800D01*
X171391400Y-90642800D01*
G37*
G36*
X173391400Y-90642800D02*
X172289400Y-90642800D01*
X172289400Y-89290800D01*
X173391400Y-89290800D01*
X173391400Y-90642800D01*
X173391400Y-90642800D01*
G37*
G36*
X193194900Y-90520200D02*
X191792900Y-90520200D01*
X191792900Y-89718200D01*
X193194900Y-89718200D01*
X193194900Y-90520200D01*
X193194900Y-90520200D01*
G37*
G36*
X191226400Y-90520200D02*
X189824400Y-90520200D01*
X189824400Y-89718200D01*
X191226400Y-89718200D01*
X191226400Y-90520200D01*
X191226400Y-90520200D01*
G37*
G36*
X195099900Y-90517700D02*
X193697900Y-90517700D01*
X193697900Y-89715700D01*
X195099900Y-89715700D01*
X195099900Y-90517700D01*
X195099900Y-90517700D01*
G37*
G36*
X188978900Y-90035200D02*
X187626900Y-90035200D01*
X187626900Y-88933200D01*
X188978900Y-88933200D01*
X188978900Y-90035200D01*
X188978900Y-90035200D01*
G37*
G36*
X182628900Y-90003200D02*
X181276900Y-90003200D01*
X181276900Y-88901200D01*
X182628900Y-88901200D01*
X182628900Y-90003200D01*
X182628900Y-90003200D01*
G37*
G36*
X162866072Y-88327538D02*
X162993649Y-88380382D01*
X163108465Y-88457100D01*
X163206100Y-88554735D01*
X163282818Y-88669551D01*
X163335662Y-88797128D01*
X163362600Y-88932556D01*
X163362600Y-89070644D01*
X163335662Y-89206072D01*
X163282818Y-89333649D01*
X163206100Y-89448465D01*
X163108465Y-89546100D01*
X162993649Y-89622818D01*
X162866072Y-89675662D01*
X162730644Y-89702600D01*
X162592556Y-89702600D01*
X162457128Y-89675662D01*
X162329551Y-89622818D01*
X162214735Y-89546100D01*
X162117100Y-89448465D01*
X162040382Y-89333649D01*
X161987538Y-89206072D01*
X161960600Y-89070644D01*
X161960600Y-88932556D01*
X161987538Y-88797128D01*
X162040382Y-88669551D01*
X162117100Y-88554735D01*
X162214735Y-88457100D01*
X162329551Y-88380382D01*
X162457128Y-88327538D01*
X162592556Y-88300600D01*
X162730644Y-88300600D01*
X162866072Y-88327538D01*
X162866072Y-88327538D01*
G37*
G36*
X211039200Y-89508000D02*
X209737200Y-89508000D01*
X209737200Y-88206000D01*
X211039200Y-88206000D01*
X211039200Y-89508000D01*
X211039200Y-89508000D01*
G37*
G36*
X178323600Y-89127400D02*
X176971600Y-89127400D01*
X176971600Y-88025400D01*
X178323600Y-88025400D01*
X178323600Y-89127400D01*
X178323600Y-89127400D01*
G37*
G36*
X191226400Y-88620200D02*
X189824400Y-88620200D01*
X189824400Y-87818200D01*
X191226400Y-87818200D01*
X191226400Y-88620200D01*
X191226400Y-88620200D01*
G37*
G36*
X193194900Y-88620200D02*
X191792900Y-88620200D01*
X191792900Y-87818200D01*
X193194900Y-87818200D01*
X193194900Y-88620200D01*
X193194900Y-88620200D01*
G37*
G36*
X195099900Y-88617700D02*
X193697900Y-88617700D01*
X193697900Y-87815700D01*
X195099900Y-87815700D01*
X195099900Y-88617700D01*
X195099900Y-88617700D01*
G37*
G36*
X172461400Y-88565200D02*
X171759400Y-88565200D01*
X171759400Y-86913200D01*
X172461400Y-86913200D01*
X172461400Y-88565200D01*
X172461400Y-88565200D01*
G37*
G36*
X168651400Y-88565200D02*
X167949400Y-88565200D01*
X167949400Y-86913200D01*
X168651400Y-86913200D01*
X168651400Y-88565200D01*
X168651400Y-88565200D01*
G37*
G36*
X169921400Y-88565200D02*
X169219400Y-88565200D01*
X169219400Y-86913200D01*
X169921400Y-86913200D01*
X169921400Y-88565200D01*
X169921400Y-88565200D01*
G37*
G36*
X171191400Y-88565200D02*
X170489400Y-88565200D01*
X170489400Y-86913200D01*
X171191400Y-86913200D01*
X171191400Y-88565200D01*
X171191400Y-88565200D01*
G37*
G36*
X186935900Y-88560200D02*
X185433900Y-88560200D01*
X185433900Y-87258200D01*
X186935900Y-87258200D01*
X186935900Y-88560200D01*
X186935900Y-88560200D01*
G37*
G36*
X184735900Y-88560200D02*
X183233900Y-88560200D01*
X183233900Y-87258200D01*
X184735900Y-87258200D01*
X184735900Y-88560200D01*
X184735900Y-88560200D01*
G37*
G36*
X205173400Y-88509200D02*
X204071400Y-88509200D01*
X204071400Y-87157200D01*
X205173400Y-87157200D01*
X205173400Y-88509200D01*
X205173400Y-88509200D01*
G37*
G36*
X207173400Y-88509200D02*
X206071400Y-88509200D01*
X206071400Y-87157200D01*
X207173400Y-87157200D01*
X207173400Y-88509200D01*
X207173400Y-88509200D01*
G37*
G36*
X165406072Y-87057538D02*
X165533649Y-87110382D01*
X165648465Y-87187100D01*
X165746100Y-87284735D01*
X165822818Y-87399551D01*
X165875662Y-87527128D01*
X165902600Y-87662556D01*
X165902600Y-87800644D01*
X165875662Y-87936072D01*
X165822818Y-88063649D01*
X165746100Y-88178465D01*
X165648465Y-88276100D01*
X165533649Y-88352818D01*
X165406072Y-88405662D01*
X165270644Y-88432600D01*
X165132556Y-88432600D01*
X164997128Y-88405662D01*
X164869551Y-88352818D01*
X164754735Y-88276100D01*
X164657100Y-88178465D01*
X164580382Y-88063649D01*
X164527538Y-87936072D01*
X164500600Y-87800644D01*
X164500600Y-87662556D01*
X164527538Y-87527128D01*
X164580382Y-87399551D01*
X164657100Y-87284735D01*
X164754735Y-87187100D01*
X164869551Y-87110382D01*
X164997128Y-87057538D01*
X165132556Y-87030600D01*
X165270644Y-87030600D01*
X165406072Y-87057538D01*
X165406072Y-87057538D01*
G37*
G36*
X188978900Y-88035200D02*
X187626900Y-88035200D01*
X187626900Y-86933200D01*
X188978900Y-86933200D01*
X188978900Y-88035200D01*
X188978900Y-88035200D01*
G37*
G36*
X182628900Y-88003200D02*
X181276900Y-88003200D01*
X181276900Y-86901200D01*
X182628900Y-86901200D01*
X182628900Y-88003200D01*
X182628900Y-88003200D01*
G37*
G36*
X211039200Y-87308000D02*
X209737200Y-87308000D01*
X209737200Y-86006000D01*
X211039200Y-86006000D01*
X211039200Y-87308000D01*
X211039200Y-87308000D01*
G37*
G36*
X162866072Y-85787538D02*
X162993649Y-85840382D01*
X163108465Y-85917100D01*
X163206100Y-86014735D01*
X163282818Y-86129551D01*
X163335662Y-86257128D01*
X163362600Y-86392556D01*
X163362600Y-86530644D01*
X163335662Y-86666072D01*
X163282818Y-86793649D01*
X163206100Y-86908465D01*
X163108465Y-87006100D01*
X162993649Y-87082818D01*
X162866072Y-87135662D01*
X162730644Y-87162600D01*
X162592556Y-87162600D01*
X162457128Y-87135662D01*
X162329551Y-87082818D01*
X162214735Y-87006100D01*
X162117100Y-86908465D01*
X162040382Y-86793649D01*
X161987538Y-86666072D01*
X161960600Y-86530644D01*
X161960600Y-86392556D01*
X161987538Y-86257128D01*
X162040382Y-86129551D01*
X162117100Y-86014735D01*
X162214735Y-85917100D01*
X162329551Y-85840382D01*
X162457128Y-85787538D01*
X162592556Y-85760600D01*
X162730644Y-85760600D01*
X162866072Y-85787538D01*
X162866072Y-85787538D01*
G37*
G36*
X184735900Y-86960200D02*
X183233900Y-86960200D01*
X183233900Y-85658200D01*
X184735900Y-85658200D01*
X184735900Y-86960200D01*
X184735900Y-86960200D01*
G37*
G36*
X186935900Y-86960200D02*
X185433900Y-86960200D01*
X185433900Y-85658200D01*
X186935900Y-85658200D01*
X186935900Y-86960200D01*
X186935900Y-86960200D01*
G37*
G36*
X201523200Y-86883200D02*
X200721200Y-86883200D01*
X200721200Y-85481200D01*
X201523200Y-85481200D01*
X201523200Y-86883200D01*
X201523200Y-86883200D01*
G37*
G36*
X203423200Y-86883200D02*
X202621200Y-86883200D01*
X202621200Y-85481200D01*
X203423200Y-85481200D01*
X203423200Y-86883200D01*
X203423200Y-86883200D01*
G37*
G36*
X207198000Y-86313200D02*
X206196000Y-86313200D01*
X206196000Y-85411200D01*
X207198000Y-85411200D01*
X207198000Y-86313200D01*
X207198000Y-86313200D01*
G37*
G36*
X165406072Y-84517538D02*
X165533649Y-84570382D01*
X165648465Y-84647100D01*
X165746100Y-84744735D01*
X165822818Y-84859551D01*
X165875662Y-84987128D01*
X165902600Y-85122556D01*
X165902600Y-85260644D01*
X165875662Y-85396072D01*
X165822818Y-85523649D01*
X165746100Y-85638465D01*
X165648465Y-85736100D01*
X165533649Y-85812818D01*
X165406072Y-85865662D01*
X165270644Y-85892600D01*
X165132556Y-85892600D01*
X164997128Y-85865662D01*
X164869551Y-85812818D01*
X164754735Y-85736100D01*
X164657100Y-85638465D01*
X164580382Y-85523649D01*
X164527538Y-85396072D01*
X164500600Y-85260644D01*
X164500600Y-85122556D01*
X164527538Y-84987128D01*
X164580382Y-84859551D01*
X164657100Y-84744735D01*
X164754735Y-84647100D01*
X164869551Y-84570382D01*
X164997128Y-84517538D01*
X165132556Y-84490600D01*
X165270644Y-84490600D01*
X165406072Y-84517538D01*
X165406072Y-84517538D01*
G37*
G36*
X205098000Y-85363200D02*
X204096000Y-85363200D01*
X204096000Y-84461200D01*
X205098000Y-84461200D01*
X205098000Y-85363200D01*
X205098000Y-85363200D01*
G37*
G36*
X211063800Y-85338600D02*
X209661800Y-85338600D01*
X209661800Y-84536600D01*
X211063800Y-84536600D01*
X211063800Y-85338600D01*
X211063800Y-85338600D01*
G37*
G36*
X190095400Y-85187200D02*
X183843400Y-85187200D01*
X183843400Y-83485200D01*
X190095400Y-83485200D01*
X190095400Y-85187200D01*
X190095400Y-85187200D01*
G37*
G36*
X201523200Y-84876600D02*
X200721200Y-84876600D01*
X200721200Y-83474600D01*
X201523200Y-83474600D01*
X201523200Y-84876600D01*
X201523200Y-84876600D01*
G37*
G36*
X203423200Y-84876600D02*
X202621200Y-84876600D01*
X202621200Y-83474600D01*
X203423200Y-83474600D01*
X203423200Y-84876600D01*
X203423200Y-84876600D01*
G37*
G36*
X162866072Y-83247538D02*
X162993649Y-83300382D01*
X163108465Y-83377100D01*
X163206100Y-83474735D01*
X163282818Y-83589551D01*
X163335662Y-83717128D01*
X163362600Y-83852556D01*
X163362600Y-83990644D01*
X163335662Y-84126072D01*
X163282818Y-84253649D01*
X163206100Y-84368465D01*
X163108465Y-84466100D01*
X162993649Y-84542818D01*
X162866072Y-84595662D01*
X162730644Y-84622600D01*
X162592556Y-84622600D01*
X162457128Y-84595662D01*
X162329551Y-84542818D01*
X162214735Y-84466100D01*
X162117100Y-84368465D01*
X162040382Y-84253649D01*
X161987538Y-84126072D01*
X161960600Y-83990644D01*
X161960600Y-83852556D01*
X161987538Y-83717128D01*
X162040382Y-83589551D01*
X162117100Y-83474735D01*
X162214735Y-83377100D01*
X162329551Y-83300382D01*
X162457128Y-83247538D01*
X162592556Y-83220600D01*
X162730644Y-83220600D01*
X162866072Y-83247538D01*
X162866072Y-83247538D01*
G37*
G36*
X207198000Y-84413200D02*
X206196000Y-84413200D01*
X206196000Y-83511200D01*
X207198000Y-83511200D01*
X207198000Y-84413200D01*
X207198000Y-84413200D01*
G37*
G36*
X211063800Y-83438600D02*
X209661800Y-83438600D01*
X209661800Y-82636600D01*
X211063800Y-82636600D01*
X211063800Y-83438600D01*
X211063800Y-83438600D01*
G37*
G36*
X165406072Y-81977538D02*
X165533649Y-82030382D01*
X165648465Y-82107100D01*
X165746100Y-82204735D01*
X165822818Y-82319551D01*
X165875662Y-82447128D01*
X165902600Y-82582556D01*
X165902600Y-82720644D01*
X165875662Y-82856072D01*
X165822818Y-82983649D01*
X165746100Y-83098465D01*
X165648465Y-83196100D01*
X165533649Y-83272818D01*
X165406072Y-83325662D01*
X165270644Y-83352600D01*
X165132556Y-83352600D01*
X164997128Y-83325662D01*
X164869551Y-83272818D01*
X164754735Y-83196100D01*
X164657100Y-83098465D01*
X164580382Y-82983649D01*
X164527538Y-82856072D01*
X164500600Y-82720644D01*
X164500600Y-82582556D01*
X164527538Y-82447128D01*
X164580382Y-82319551D01*
X164657100Y-82204735D01*
X164754735Y-82107100D01*
X164869551Y-82030382D01*
X164997128Y-81977538D01*
X165132556Y-81950600D01*
X165270644Y-81950600D01*
X165406072Y-81977538D01*
X165406072Y-81977538D01*
G37*
G36*
X192070400Y-83212200D02*
X190368400Y-83212200D01*
X190368400Y-76960200D01*
X192070400Y-76960200D01*
X192070400Y-83212200D01*
X192070400Y-83212200D01*
G37*
G36*
X183570400Y-83212200D02*
X181868400Y-83212200D01*
X181868400Y-76960200D01*
X183570400Y-76960200D01*
X183570400Y-83212200D01*
X183570400Y-83212200D01*
G37*
G36*
X172461400Y-83165200D02*
X171759400Y-83165200D01*
X171759400Y-81513200D01*
X172461400Y-81513200D01*
X172461400Y-83165200D01*
X172461400Y-83165200D01*
G37*
G36*
X171191400Y-83165200D02*
X170489400Y-83165200D01*
X170489400Y-81513200D01*
X171191400Y-81513200D01*
X171191400Y-83165200D01*
X171191400Y-83165200D01*
G37*
G36*
X169921400Y-83165200D02*
X169219400Y-83165200D01*
X169219400Y-81513200D01*
X169921400Y-81513200D01*
X169921400Y-83165200D01*
X169921400Y-83165200D01*
G37*
G36*
X168651400Y-83165200D02*
X167949400Y-83165200D01*
X167949400Y-81513200D01*
X168651400Y-81513200D01*
X168651400Y-83165200D01*
X168651400Y-83165200D01*
G37*
G36*
X207462200Y-82775400D02*
X206710200Y-82775400D01*
X206710200Y-81613400D01*
X207462200Y-81613400D01*
X207462200Y-82775400D01*
X207462200Y-82775400D01*
G37*
G36*
X205562200Y-82775400D02*
X204810200Y-82775400D01*
X204810200Y-81613400D01*
X205562200Y-81613400D01*
X205562200Y-82775400D01*
X205562200Y-82775400D01*
G37*
G36*
X203713200Y-82775400D02*
X201061200Y-82775400D01*
X201061200Y-81613400D01*
X203713200Y-81613400D01*
X203713200Y-82775400D01*
X203713200Y-82775400D01*
G37*
G36*
X194429200Y-82413200D02*
X193327200Y-82413200D01*
X193327200Y-81061200D01*
X194429200Y-81061200D01*
X194429200Y-82413200D01*
X194429200Y-82413200D01*
G37*
G36*
X196429200Y-82413200D02*
X195327200Y-82413200D01*
X195327200Y-81061200D01*
X196429200Y-81061200D01*
X196429200Y-82413200D01*
X196429200Y-82413200D01*
G37*
G36*
X162866072Y-80707538D02*
X162993649Y-80760382D01*
X163108465Y-80837100D01*
X163206100Y-80934735D01*
X163282818Y-81049551D01*
X163335662Y-81177128D01*
X163362600Y-81312556D01*
X163362600Y-81450644D01*
X163335662Y-81586072D01*
X163282818Y-81713649D01*
X163206100Y-81828465D01*
X163108465Y-81926100D01*
X162993649Y-82002818D01*
X162866072Y-82055662D01*
X162730644Y-82082600D01*
X162592556Y-82082600D01*
X162457128Y-82055662D01*
X162329551Y-82002818D01*
X162214735Y-81926100D01*
X162117100Y-81828465D01*
X162040382Y-81713649D01*
X161987538Y-81586072D01*
X161960600Y-81450644D01*
X161960600Y-81312556D01*
X161987538Y-81177128D01*
X162040382Y-81049551D01*
X162117100Y-80934735D01*
X162214735Y-80837100D01*
X162329551Y-80760382D01*
X162457128Y-80707538D01*
X162592556Y-80680600D01*
X162730644Y-80680600D01*
X162866072Y-80707538D01*
X162866072Y-80707538D01*
G37*
G36*
X165406072Y-79437538D02*
X165533649Y-79490382D01*
X165648465Y-79567100D01*
X165746100Y-79664735D01*
X165822818Y-79779551D01*
X165875662Y-79907128D01*
X165902600Y-80042556D01*
X165902600Y-80180644D01*
X165875662Y-80316072D01*
X165822818Y-80443649D01*
X165746100Y-80558465D01*
X165648465Y-80656100D01*
X165533649Y-80732818D01*
X165406072Y-80785662D01*
X165270644Y-80812600D01*
X165132556Y-80812600D01*
X164997128Y-80785662D01*
X164869551Y-80732818D01*
X164754735Y-80656100D01*
X164657100Y-80558465D01*
X164580382Y-80443649D01*
X164527538Y-80316072D01*
X164500600Y-80180644D01*
X164500600Y-80042556D01*
X164527538Y-79907128D01*
X164580382Y-79779551D01*
X164657100Y-79664735D01*
X164754735Y-79567100D01*
X164869551Y-79490382D01*
X164997128Y-79437538D01*
X165132556Y-79410600D01*
X165270644Y-79410600D01*
X165406072Y-79437538D01*
X165406072Y-79437538D01*
G37*
G36*
X203713200Y-80575400D02*
X202961200Y-80575400D01*
X202961200Y-79413400D01*
X203713200Y-79413400D01*
X203713200Y-80575400D01*
X203713200Y-80575400D01*
G37*
G36*
X201813200Y-80575400D02*
X201061200Y-80575400D01*
X201061200Y-79413400D01*
X201813200Y-79413400D01*
X201813200Y-80575400D01*
X201813200Y-80575400D01*
G37*
G36*
X207462200Y-80575400D02*
X204810200Y-80575400D01*
X204810200Y-79413400D01*
X207462200Y-79413400D01*
X207462200Y-80575400D01*
X207462200Y-80575400D01*
G37*
G36*
X168620400Y-79595700D02*
X167218400Y-79595700D01*
X167218400Y-78793700D01*
X168620400Y-78793700D01*
X168620400Y-79595700D01*
X168620400Y-79595700D01*
G37*
G36*
X162866072Y-78167538D02*
X162993649Y-78220382D01*
X163108465Y-78297100D01*
X163206100Y-78394735D01*
X163282818Y-78509551D01*
X163335662Y-78637128D01*
X163362600Y-78772556D01*
X163362600Y-78910644D01*
X163335662Y-79046072D01*
X163282818Y-79173649D01*
X163206100Y-79288465D01*
X163108465Y-79386100D01*
X162993649Y-79462818D01*
X162866072Y-79515662D01*
X162730644Y-79542600D01*
X162592556Y-79542600D01*
X162457128Y-79515662D01*
X162329551Y-79462818D01*
X162214735Y-79386100D01*
X162117100Y-79288465D01*
X162040382Y-79173649D01*
X161987538Y-79046072D01*
X161960600Y-78910644D01*
X161960600Y-78772556D01*
X161987538Y-78637128D01*
X162040382Y-78509551D01*
X162117100Y-78394735D01*
X162214735Y-78297100D01*
X162329551Y-78220382D01*
X162457128Y-78167538D01*
X162592556Y-78140600D01*
X162730644Y-78140600D01*
X162866072Y-78167538D01*
X162866072Y-78167538D01*
G37*
G36*
X174634800Y-78831400D02*
X173832800Y-78831400D01*
X173832800Y-77429400D01*
X174634800Y-77429400D01*
X174634800Y-78831400D01*
X174634800Y-78831400D01*
G37*
G36*
X176534800Y-78831400D02*
X175732800Y-78831400D01*
X175732800Y-77429400D01*
X176534800Y-77429400D01*
X176534800Y-78831400D01*
X176534800Y-78831400D01*
G37*
G36*
X165406072Y-76897538D02*
X165533649Y-76950382D01*
X165648465Y-77027100D01*
X165746100Y-77124735D01*
X165822818Y-77239551D01*
X165875662Y-77367128D01*
X165902600Y-77502556D01*
X165902600Y-77640644D01*
X165875662Y-77776072D01*
X165822818Y-77903649D01*
X165746100Y-78018465D01*
X165648465Y-78116100D01*
X165533649Y-78192818D01*
X165406072Y-78245662D01*
X165270644Y-78272600D01*
X165132556Y-78272600D01*
X164997128Y-78245662D01*
X164869551Y-78192818D01*
X164754735Y-78116100D01*
X164657100Y-78018465D01*
X164580382Y-77903649D01*
X164527538Y-77776072D01*
X164500600Y-77640644D01*
X164500600Y-77502556D01*
X164527538Y-77367128D01*
X164580382Y-77239551D01*
X164657100Y-77124735D01*
X164754735Y-77027100D01*
X164869551Y-76950382D01*
X164997128Y-76897538D01*
X165132556Y-76870600D01*
X165270644Y-76870600D01*
X165406072Y-76897538D01*
X165406072Y-76897538D01*
G37*
G36*
X168620400Y-77695700D02*
X167218400Y-77695700D01*
X167218400Y-76893700D01*
X168620400Y-76893700D01*
X168620400Y-77695700D01*
X168620400Y-77695700D01*
G37*
G36*
X202930400Y-77332800D02*
X202128400Y-77332800D01*
X202128400Y-75930800D01*
X202930400Y-75930800D01*
X202930400Y-77332800D01*
X202930400Y-77332800D01*
G37*
G36*
X204830400Y-77332800D02*
X204028400Y-77332800D01*
X204028400Y-75930800D01*
X204830400Y-75930800D01*
X204830400Y-77332800D01*
X204830400Y-77332800D01*
G37*
G36*
X206434000Y-77307800D02*
X205332000Y-77307800D01*
X205332000Y-75955800D01*
X206434000Y-75955800D01*
X206434000Y-77307800D01*
X206434000Y-77307800D01*
G37*
G36*
X208434000Y-77307800D02*
X207332000Y-77307800D01*
X207332000Y-75955800D01*
X208434000Y-75955800D01*
X208434000Y-77307800D01*
X208434000Y-77307800D01*
G37*
G36*
X196417800Y-77307400D02*
X195615800Y-77307400D01*
X195615800Y-75905400D01*
X196417800Y-75905400D01*
X196417800Y-77307400D01*
X196417800Y-77307400D01*
G37*
G36*
X198317800Y-77307400D02*
X197515800Y-77307400D01*
X197515800Y-75905400D01*
X198317800Y-75905400D01*
X198317800Y-77307400D01*
X198317800Y-77307400D01*
G37*
G36*
X199628400Y-77307400D02*
X198826400Y-77307400D01*
X198826400Y-75905400D01*
X199628400Y-75905400D01*
X199628400Y-77307400D01*
X199628400Y-77307400D01*
G37*
G36*
X201528400Y-77307400D02*
X200726400Y-77307400D01*
X200726400Y-75905400D01*
X201528400Y-75905400D01*
X201528400Y-77307400D01*
X201528400Y-77307400D01*
G37*
G36*
X162866072Y-75627538D02*
X162993649Y-75680382D01*
X163108465Y-75757100D01*
X163206100Y-75854735D01*
X163282818Y-75969551D01*
X163335662Y-76097128D01*
X163362600Y-76232556D01*
X163362600Y-76370644D01*
X163335662Y-76506072D01*
X163282818Y-76633649D01*
X163206100Y-76748465D01*
X163108465Y-76846100D01*
X162993649Y-76922818D01*
X162866072Y-76975662D01*
X162730644Y-77002600D01*
X162592556Y-77002600D01*
X162457128Y-76975662D01*
X162329551Y-76922818D01*
X162214735Y-76846100D01*
X162117100Y-76748465D01*
X162040382Y-76633649D01*
X161987538Y-76506072D01*
X161960600Y-76370644D01*
X161960600Y-76232556D01*
X161987538Y-76097128D01*
X162040382Y-75969551D01*
X162117100Y-75854735D01*
X162214735Y-75757100D01*
X162329551Y-75680382D01*
X162457128Y-75627538D01*
X162592556Y-75600600D01*
X162730644Y-75600600D01*
X162866072Y-75627538D01*
X162866072Y-75627538D01*
G37*
G36*
X190095400Y-76687200D02*
X183843400Y-76687200D01*
X183843400Y-74985200D01*
X190095400Y-74985200D01*
X190095400Y-76687200D01*
X190095400Y-76687200D01*
G37*
G36*
X165406072Y-74357538D02*
X165533649Y-74410382D01*
X165648465Y-74487100D01*
X165746100Y-74584735D01*
X165822818Y-74699551D01*
X165875662Y-74827128D01*
X165902600Y-74962556D01*
X165902600Y-75100644D01*
X165875662Y-75236072D01*
X165822818Y-75363649D01*
X165746100Y-75478465D01*
X165648465Y-75576100D01*
X165533649Y-75652818D01*
X165406072Y-75705662D01*
X165270644Y-75732600D01*
X165132556Y-75732600D01*
X164997128Y-75705662D01*
X164869551Y-75652818D01*
X164754735Y-75576100D01*
X164657100Y-75478465D01*
X164580382Y-75363649D01*
X164527538Y-75236072D01*
X164500600Y-75100644D01*
X164500600Y-74962556D01*
X164527538Y-74827128D01*
X164580382Y-74699551D01*
X164657100Y-74584735D01*
X164754735Y-74487100D01*
X164869551Y-74410382D01*
X164997128Y-74357538D01*
X165132556Y-74330600D01*
X165270644Y-74330600D01*
X165406072Y-74357538D01*
X165406072Y-74357538D01*
G37*
G36*
X205681400Y-74945600D02*
X204579400Y-74945600D01*
X204579400Y-73593600D01*
X205681400Y-73593600D01*
X205681400Y-74945600D01*
X205681400Y-74945600D01*
G37*
G36*
X207681400Y-74945600D02*
X206579400Y-74945600D01*
X206579400Y-73593600D01*
X207681400Y-73593600D01*
X207681400Y-74945600D01*
X207681400Y-74945600D01*
G37*
G36*
X203687800Y-74909200D02*
X202935800Y-74909200D01*
X202935800Y-73747200D01*
X203687800Y-73747200D01*
X203687800Y-74909200D01*
X203687800Y-74909200D01*
G37*
G36*
X201787800Y-74909200D02*
X201035800Y-74909200D01*
X201035800Y-73747200D01*
X201787800Y-73747200D01*
X201787800Y-74909200D01*
X201787800Y-74909200D01*
G37*
G36*
X162866072Y-73087538D02*
X162993649Y-73140382D01*
X163108465Y-73217100D01*
X163206100Y-73314735D01*
X163282818Y-73429551D01*
X163335662Y-73557128D01*
X163362600Y-73692556D01*
X163362600Y-73830644D01*
X163335662Y-73966072D01*
X163282818Y-74093649D01*
X163206100Y-74208465D01*
X163108465Y-74306100D01*
X162993649Y-74382818D01*
X162866072Y-74435662D01*
X162730644Y-74462600D01*
X162592556Y-74462600D01*
X162457128Y-74435662D01*
X162329551Y-74382818D01*
X162214735Y-74306100D01*
X162117100Y-74208465D01*
X162040382Y-74093649D01*
X161987538Y-73966072D01*
X161960600Y-73830644D01*
X161960600Y-73692556D01*
X161987538Y-73557128D01*
X162040382Y-73429551D01*
X162117100Y-73314735D01*
X162214735Y-73217100D01*
X162329551Y-73140382D01*
X162457128Y-73087538D01*
X162592556Y-73060600D01*
X162730644Y-73060600D01*
X162866072Y-73087538D01*
X162866072Y-73087538D01*
G37*
G36*
X174264000Y-74411800D02*
X173462000Y-74411800D01*
X173462000Y-73009800D01*
X174264000Y-73009800D01*
X174264000Y-74411800D01*
X174264000Y-74411800D01*
G37*
G36*
X172364000Y-74411800D02*
X171562000Y-74411800D01*
X171562000Y-73009800D01*
X172364000Y-73009800D01*
X172364000Y-74411800D01*
X172364000Y-74411800D01*
G37*
G36*
X178866400Y-74411800D02*
X178064400Y-74411800D01*
X178064400Y-73009800D01*
X178866400Y-73009800D01*
X178866400Y-74411800D01*
X178866400Y-74411800D01*
G37*
G36*
X175635600Y-74411800D02*
X174833600Y-74411800D01*
X174833600Y-73009800D01*
X175635600Y-73009800D01*
X175635600Y-74411800D01*
X175635600Y-74411800D01*
G37*
G36*
X177535600Y-74411800D02*
X176733600Y-74411800D01*
X176733600Y-73009800D01*
X177535600Y-73009800D01*
X177535600Y-74411800D01*
X177535600Y-74411800D01*
G37*
G36*
X180766400Y-74411800D02*
X179964400Y-74411800D01*
X179964400Y-73009800D01*
X180766400Y-73009800D01*
X180766400Y-74411800D01*
X180766400Y-74411800D01*
G37*
G36*
X165406072Y-71817538D02*
X165533649Y-71870382D01*
X165648465Y-71947100D01*
X165746100Y-72044735D01*
X165822818Y-72159551D01*
X165875662Y-72287128D01*
X165902600Y-72422556D01*
X165902600Y-72560644D01*
X165875662Y-72696072D01*
X165822818Y-72823649D01*
X165746100Y-72938465D01*
X165648465Y-73036100D01*
X165533649Y-73112818D01*
X165406072Y-73165662D01*
X165270644Y-73192600D01*
X165132556Y-73192600D01*
X164997128Y-73165662D01*
X164869551Y-73112818D01*
X164754735Y-73036100D01*
X164657100Y-72938465D01*
X164580382Y-72823649D01*
X164527538Y-72696072D01*
X164500600Y-72560644D01*
X164500600Y-72422556D01*
X164527538Y-72287128D01*
X164580382Y-72159551D01*
X164657100Y-72044735D01*
X164754735Y-71947100D01*
X164869551Y-71870382D01*
X164997128Y-71817538D01*
X165132556Y-71790600D01*
X165270644Y-71790600D01*
X165406072Y-71817538D01*
X165406072Y-71817538D01*
G37*
G36*
X182576400Y-73130600D02*
X181574400Y-73130600D01*
X181574400Y-72228600D01*
X182576400Y-72228600D01*
X182576400Y-73130600D01*
X182576400Y-73130600D01*
G37*
G36*
X200153600Y-72837400D02*
X199051600Y-72837400D01*
X199051600Y-71485400D01*
X200153600Y-71485400D01*
X200153600Y-72837400D01*
X200153600Y-72837400D01*
G37*
G36*
X198153600Y-72837400D02*
X197051600Y-72837400D01*
X197051600Y-71485400D01*
X198153600Y-71485400D01*
X198153600Y-72837400D01*
X198153600Y-72837400D01*
G37*
G36*
X203687800Y-72709200D02*
X201035800Y-72709200D01*
X201035800Y-71547200D01*
X203687800Y-71547200D01*
X203687800Y-72709200D01*
X203687800Y-72709200D01*
G37*
G36*
X176746200Y-72206600D02*
X175994200Y-72206600D01*
X175994200Y-71044600D01*
X176746200Y-71044600D01*
X176746200Y-72206600D01*
X176746200Y-72206600D01*
G37*
G36*
X174846200Y-72206600D02*
X174094200Y-72206600D01*
X174094200Y-71044600D01*
X174846200Y-71044600D01*
X174846200Y-72206600D01*
X174846200Y-72206600D01*
G37*
G36*
X184676400Y-72180600D02*
X183674400Y-72180600D01*
X183674400Y-71278600D01*
X184676400Y-71278600D01*
X184676400Y-72180600D01*
X184676400Y-72180600D01*
G37*
G36*
X179030891Y-71106085D02*
X179064869Y-71116393D01*
X179096187Y-71133133D01*
X179123639Y-71155661D01*
X179146167Y-71183113D01*
X179162907Y-71214431D01*
X179173215Y-71248409D01*
X179177300Y-71289890D01*
X179177300Y-71966110D01*
X179173215Y-72007591D01*
X179162907Y-72041569D01*
X179146167Y-72072887D01*
X179123639Y-72100339D01*
X179096187Y-72122867D01*
X179064869Y-72139607D01*
X179030891Y-72149915D01*
X178989410Y-72154000D01*
X178388190Y-72154000D01*
X178346709Y-72149915D01*
X178312731Y-72139607D01*
X178281413Y-72122867D01*
X178253961Y-72100339D01*
X178231433Y-72072887D01*
X178214693Y-72041569D01*
X178204385Y-72007591D01*
X178200300Y-71966110D01*
X178200300Y-71289890D01*
X178204385Y-71248409D01*
X178214693Y-71214431D01*
X178231433Y-71183113D01*
X178253961Y-71155661D01*
X178281413Y-71133133D01*
X178312731Y-71116393D01*
X178346709Y-71106085D01*
X178388190Y-71102000D01*
X178989410Y-71102000D01*
X179030891Y-71106085D01*
X179030891Y-71106085D01*
G37*
G36*
X180605891Y-71106085D02*
X180639869Y-71116393D01*
X180671187Y-71133133D01*
X180698639Y-71155661D01*
X180721167Y-71183113D01*
X180737907Y-71214431D01*
X180748215Y-71248409D01*
X180752300Y-71289890D01*
X180752300Y-71966110D01*
X180748215Y-72007591D01*
X180737907Y-72041569D01*
X180721167Y-72072887D01*
X180698639Y-72100339D01*
X180671187Y-72122867D01*
X180639869Y-72139607D01*
X180605891Y-72149915D01*
X180564410Y-72154000D01*
X179963190Y-72154000D01*
X179921709Y-72149915D01*
X179887731Y-72139607D01*
X179856413Y-72122867D01*
X179828961Y-72100339D01*
X179806433Y-72072887D01*
X179789693Y-72041569D01*
X179779385Y-72007591D01*
X179775300Y-71966110D01*
X179775300Y-71289890D01*
X179779385Y-71248409D01*
X179789693Y-71214431D01*
X179806433Y-71183113D01*
X179828961Y-71155661D01*
X179856413Y-71133133D01*
X179887731Y-71116393D01*
X179921709Y-71106085D01*
X179963190Y-71102000D01*
X180564410Y-71102000D01*
X180605891Y-71106085D01*
X180605891Y-71106085D01*
G37*
G36*
X162866072Y-70547538D02*
X162993649Y-70600382D01*
X163108465Y-70677100D01*
X163206100Y-70774735D01*
X163282818Y-70889551D01*
X163335662Y-71017128D01*
X163362600Y-71152556D01*
X163362600Y-71290644D01*
X163335662Y-71426072D01*
X163282818Y-71553649D01*
X163206100Y-71668465D01*
X163108465Y-71766100D01*
X162993649Y-71842818D01*
X162866072Y-71895662D01*
X162730644Y-71922600D01*
X162592556Y-71922600D01*
X162457128Y-71895662D01*
X162329551Y-71842818D01*
X162214735Y-71766100D01*
X162117100Y-71668465D01*
X162040382Y-71553649D01*
X161987538Y-71426072D01*
X161960600Y-71290644D01*
X161960600Y-71152556D01*
X161987538Y-71017128D01*
X162040382Y-70889551D01*
X162117100Y-70774735D01*
X162214735Y-70677100D01*
X162329551Y-70600382D01*
X162457128Y-70547538D01*
X162592556Y-70520600D01*
X162730644Y-70520600D01*
X162866072Y-70547538D01*
X162866072Y-70547538D01*
G37*
G36*
X172989200Y-71912200D02*
X171587200Y-71912200D01*
X171587200Y-71110200D01*
X172989200Y-71110200D01*
X172989200Y-71912200D01*
X172989200Y-71912200D01*
G37*
G36*
X182576400Y-71230600D02*
X181574400Y-71230600D01*
X181574400Y-70328600D01*
X182576400Y-70328600D01*
X182576400Y-71230600D01*
X182576400Y-71230600D01*
G37*
G36*
X200172000Y-70932000D02*
X199370000Y-70932000D01*
X199370000Y-69530000D01*
X200172000Y-69530000D01*
X200172000Y-70932000D01*
X200172000Y-70932000D01*
G37*
G36*
X201548600Y-70932000D02*
X200746600Y-70932000D01*
X200746600Y-69530000D01*
X201548600Y-69530000D01*
X201548600Y-70932000D01*
X201548600Y-70932000D01*
G37*
G36*
X198272000Y-70932000D02*
X197470000Y-70932000D01*
X197470000Y-69530000D01*
X198272000Y-69530000D01*
X198272000Y-70932000D01*
X198272000Y-70932000D01*
G37*
G36*
X203448600Y-70932000D02*
X202646600Y-70932000D01*
X202646600Y-69530000D01*
X203448600Y-69530000D01*
X203448600Y-70932000D01*
X203448600Y-70932000D01*
G37*
G36*
X206314800Y-70907400D02*
X205012800Y-70907400D01*
X205012800Y-69605400D01*
X206314800Y-69605400D01*
X206314800Y-70907400D01*
X206314800Y-70907400D01*
G37*
G36*
X172989200Y-70012200D02*
X171587200Y-70012200D01*
X171587200Y-69210200D01*
X172989200Y-69210200D01*
X172989200Y-70012200D01*
X172989200Y-70012200D01*
G37*
G36*
X176746200Y-70006600D02*
X174094200Y-70006600D01*
X174094200Y-68844600D01*
X176746200Y-68844600D01*
X176746200Y-70006600D01*
X176746200Y-70006600D01*
G37*
G36*
X206314800Y-68707400D02*
X205012800Y-68707400D01*
X205012800Y-67405400D01*
X206314800Y-67405400D01*
X206314800Y-68707400D01*
X206314800Y-68707400D01*
G37*
G36*
X200191800Y-68686800D02*
X199029800Y-68686800D01*
X199029800Y-66034800D01*
X200191800Y-66034800D01*
X200191800Y-68686800D01*
X200191800Y-68686800D01*
G37*
G36*
X202391800Y-68686800D02*
X201229800Y-68686800D01*
X201229800Y-67934800D01*
X202391800Y-67934800D01*
X202391800Y-68686800D01*
X202391800Y-68686800D01*
G37*
G36*
X198287600Y-68686400D02*
X196885600Y-68686400D01*
X196885600Y-67884400D01*
X198287600Y-67884400D01*
X198287600Y-68686400D01*
X198287600Y-68686400D01*
G37*
G36*
X202391800Y-66786800D02*
X201229800Y-66786800D01*
X201229800Y-66034800D01*
X202391800Y-66034800D01*
X202391800Y-66786800D01*
X202391800Y-66786800D01*
G37*
G36*
X198287600Y-66786400D02*
X196885600Y-66786400D01*
X196885600Y-65984400D01*
X198287600Y-65984400D01*
X198287600Y-66786400D01*
X198287600Y-66786400D01*
G37*
G36*
X174050251Y-65085471D02*
X173248251Y-65085471D01*
X173248251Y-63683471D01*
X174050251Y-63683471D01*
X174050251Y-65085471D01*
X174050251Y-65085471D01*
G37*
G36*
X172150251Y-65085471D02*
X171348251Y-65085471D01*
X171348251Y-63683471D01*
X172150251Y-63683471D01*
X172150251Y-65085471D01*
X172150251Y-65085471D01*
G37*
G36*
X190347200Y-65013800D02*
X189545200Y-65013800D01*
X189545200Y-63611800D01*
X190347200Y-63611800D01*
X190347200Y-65013800D01*
X190347200Y-65013800D01*
G37*
G36*
X192247200Y-65013800D02*
X191445200Y-65013800D01*
X191445200Y-63611800D01*
X192247200Y-63611800D01*
X192247200Y-65013800D01*
X192247200Y-65013800D01*
G37*
G36*
X180014600Y-65013800D02*
X179212600Y-65013800D01*
X179212600Y-63611800D01*
X180014600Y-63611800D01*
X180014600Y-65013800D01*
X180014600Y-65013800D01*
G37*
G36*
X178114600Y-65013800D02*
X177312600Y-65013800D01*
X177312600Y-63611800D01*
X178114600Y-63611800D01*
X178114600Y-65013800D01*
X178114600Y-65013800D01*
G37*
G36*
X186125800Y-64810600D02*
X185323800Y-64810600D01*
X185323800Y-63408600D01*
X186125800Y-63408600D01*
X186125800Y-64810600D01*
X186125800Y-64810600D01*
G37*
G36*
X184225800Y-64810600D02*
X183423800Y-64810600D01*
X183423800Y-63408600D01*
X184225800Y-63408600D01*
X184225800Y-64810600D01*
X184225800Y-64810600D01*
G37*
G36*
X172944551Y-63188171D02*
X172042551Y-63188171D01*
X172042551Y-62186171D01*
X172944551Y-62186171D01*
X172944551Y-63188171D01*
X172944551Y-63188171D01*
G37*
G36*
X191154200Y-63086600D02*
X190252200Y-63086600D01*
X190252200Y-62084600D01*
X191154200Y-62084600D01*
X191154200Y-63086600D01*
X191154200Y-63086600D01*
G37*
G36*
X178886000Y-63086600D02*
X177984000Y-63086600D01*
X177984000Y-62084600D01*
X178886000Y-62084600D01*
X178886000Y-63086600D01*
X178886000Y-63086600D01*
G37*
G36*
X184997200Y-62951400D02*
X184095200Y-62951400D01*
X184095200Y-61949400D01*
X184997200Y-61949400D01*
X184997200Y-62951400D01*
X184997200Y-62951400D01*
G37*
G36*
X200360000Y-62219800D02*
X199558000Y-62219800D01*
X199558000Y-60817800D01*
X200360000Y-60817800D01*
X200360000Y-62219800D01*
X200360000Y-62219800D01*
G37*
G36*
X198460000Y-62219800D02*
X197658000Y-62219800D01*
X197658000Y-60817800D01*
X198460000Y-60817800D01*
X198460000Y-62219800D01*
X198460000Y-62219800D01*
G37*
G36*
X171994551Y-61088171D02*
X171092551Y-61088171D01*
X171092551Y-60086171D01*
X171994551Y-60086171D01*
X171994551Y-61088171D01*
X171994551Y-61088171D01*
G37*
G36*
X173894551Y-61088171D02*
X172992551Y-61088171D01*
X172992551Y-60086171D01*
X173894551Y-60086171D01*
X173894551Y-61088171D01*
X173894551Y-61088171D01*
G37*
G36*
X190204200Y-60986600D02*
X189302200Y-60986600D01*
X189302200Y-59984600D01*
X190204200Y-59984600D01*
X190204200Y-60986600D01*
X190204200Y-60986600D01*
G37*
G36*
X177936000Y-60986600D02*
X177034000Y-60986600D01*
X177034000Y-59984600D01*
X177936000Y-59984600D01*
X177936000Y-60986600D01*
X177936000Y-60986600D01*
G37*
G36*
X179836000Y-60986600D02*
X178934000Y-60986600D01*
X178934000Y-59984600D01*
X179836000Y-59984600D01*
X179836000Y-60986600D01*
X179836000Y-60986600D01*
G37*
G36*
X192104200Y-60986600D02*
X191202200Y-60986600D01*
X191202200Y-59984600D01*
X192104200Y-59984600D01*
X192104200Y-60986600D01*
X192104200Y-60986600D01*
G37*
G36*
X184047200Y-60851400D02*
X183145200Y-60851400D01*
X183145200Y-59849400D01*
X184047200Y-59849400D01*
X184047200Y-60851400D01*
X184047200Y-60851400D01*
G37*
G36*
X185947200Y-60851400D02*
X185045200Y-60851400D01*
X185045200Y-59849400D01*
X185947200Y-59849400D01*
X185947200Y-60851400D01*
X185947200Y-60851400D01*
G37*
G36*
X199017200Y-60188600D02*
X197715200Y-60188600D01*
X197715200Y-58886600D01*
X199017200Y-58886600D01*
X199017200Y-60188600D01*
X199017200Y-60188600D01*
G37*
G36*
X201217200Y-60188600D02*
X199915200Y-60188600D01*
X199915200Y-58886600D01*
X201217200Y-58886600D01*
X201217200Y-60188600D01*
X201217200Y-60188600D01*
G37*
G36*
X172162951Y-59586371D02*
X171360951Y-59586371D01*
X171360951Y-58184371D01*
X172162951Y-58184371D01*
X172162951Y-59586371D01*
X172162951Y-59586371D01*
G37*
G36*
X174062951Y-59586371D02*
X173260951Y-59586371D01*
X173260951Y-58184371D01*
X174062951Y-58184371D01*
X174062951Y-59586371D01*
X174062951Y-59586371D01*
G37*
G36*
X190382800Y-59502000D02*
X189580800Y-59502000D01*
X189580800Y-58100000D01*
X190382800Y-58100000D01*
X190382800Y-59502000D01*
X190382800Y-59502000D01*
G37*
G36*
X192282800Y-59502000D02*
X191480800Y-59502000D01*
X191480800Y-58100000D01*
X192282800Y-58100000D01*
X192282800Y-59502000D01*
X192282800Y-59502000D01*
G37*
G36*
X178089200Y-59502000D02*
X177287200Y-59502000D01*
X177287200Y-58100000D01*
X178089200Y-58100000D01*
X178089200Y-59502000D01*
X178089200Y-59502000D01*
G37*
G36*
X179989200Y-59502000D02*
X179187200Y-59502000D01*
X179187200Y-58100000D01*
X179989200Y-58100000D01*
X179989200Y-59502000D01*
X179989200Y-59502000D01*
G37*
G36*
X184200400Y-59400400D02*
X183398400Y-59400400D01*
X183398400Y-57998400D01*
X184200400Y-57998400D01*
X184200400Y-59400400D01*
X184200400Y-59400400D01*
G37*
G36*
X186100400Y-59400400D02*
X185298400Y-59400400D01*
X185298400Y-57998400D01*
X186100400Y-57998400D01*
X186100400Y-59400400D01*
X186100400Y-59400400D01*
G37*
G36*
X165406072Y-57999938D02*
X165533649Y-58052782D01*
X165648465Y-58129500D01*
X165746100Y-58227135D01*
X165822818Y-58341951D01*
X165875662Y-58469528D01*
X165902600Y-58604956D01*
X165902600Y-58743044D01*
X165875662Y-58878472D01*
X165822818Y-59006049D01*
X165746100Y-59120865D01*
X165648465Y-59218500D01*
X165533649Y-59295218D01*
X165406072Y-59348062D01*
X165270644Y-59375000D01*
X165132556Y-59375000D01*
X164997128Y-59348062D01*
X164869551Y-59295218D01*
X164754735Y-59218500D01*
X164657100Y-59120865D01*
X164580382Y-59006049D01*
X164527538Y-58878472D01*
X164500600Y-58743044D01*
X164500600Y-58604956D01*
X164527538Y-58469528D01*
X164580382Y-58341951D01*
X164657100Y-58227135D01*
X164754735Y-58129500D01*
X164869551Y-58052782D01*
X164997128Y-57999938D01*
X165132556Y-57973000D01*
X165270644Y-57973000D01*
X165406072Y-57999938D01*
X165406072Y-57999938D01*
G37*
G36*
X162866072Y-56729938D02*
X162993649Y-56782782D01*
X163108465Y-56859500D01*
X163206100Y-56957135D01*
X163282818Y-57071951D01*
X163335662Y-57199528D01*
X163362600Y-57334956D01*
X163362600Y-57473044D01*
X163335662Y-57608472D01*
X163282818Y-57736049D01*
X163206100Y-57850865D01*
X163108465Y-57948500D01*
X162993649Y-58025218D01*
X162866072Y-58078062D01*
X162730644Y-58105000D01*
X162592556Y-58105000D01*
X162457128Y-58078062D01*
X162329551Y-58025218D01*
X162214735Y-57948500D01*
X162117100Y-57850865D01*
X162040382Y-57736049D01*
X161987538Y-57608472D01*
X161960600Y-57473044D01*
X161960600Y-57334956D01*
X161987538Y-57199528D01*
X162040382Y-57071951D01*
X162117100Y-56957135D01*
X162214735Y-56859500D01*
X162329551Y-56782782D01*
X162457128Y-56729938D01*
X162592556Y-56703000D01*
X162730644Y-56703000D01*
X162866072Y-56729938D01*
X162866072Y-56729938D01*
G37*
G36*
X172162951Y-57592471D02*
X171360951Y-57592471D01*
X171360951Y-56190471D01*
X172162951Y-56190471D01*
X172162951Y-57592471D01*
X172162951Y-57592471D01*
G37*
G36*
X174062951Y-57592471D02*
X173260951Y-57592471D01*
X173260951Y-56190471D01*
X174062951Y-56190471D01*
X174062951Y-57592471D01*
X174062951Y-57592471D01*
G37*
G36*
X190393000Y-57546200D02*
X189591000Y-57546200D01*
X189591000Y-56144200D01*
X190393000Y-56144200D01*
X190393000Y-57546200D01*
X190393000Y-57546200D01*
G37*
G36*
X179989200Y-57546200D02*
X179187200Y-57546200D01*
X179187200Y-56144200D01*
X179989200Y-56144200D01*
X179989200Y-57546200D01*
X179989200Y-57546200D01*
G37*
G36*
X178089200Y-57546200D02*
X177287200Y-57546200D01*
X177287200Y-56144200D01*
X178089200Y-56144200D01*
X178089200Y-57546200D01*
X178089200Y-57546200D01*
G37*
G36*
X192293000Y-57546200D02*
X191491000Y-57546200D01*
X191491000Y-56144200D01*
X192293000Y-56144200D01*
X192293000Y-57546200D01*
X192293000Y-57546200D01*
G37*
G36*
X186075000Y-57444600D02*
X185273000Y-57444600D01*
X185273000Y-56042600D01*
X186075000Y-56042600D01*
X186075000Y-57444600D01*
X186075000Y-57444600D01*
G37*
G36*
X184175000Y-57444600D02*
X183373000Y-57444600D01*
X183373000Y-56042600D01*
X184175000Y-56042600D01*
X184175000Y-57444600D01*
X184175000Y-57444600D01*
G37*
G36*
X165406072Y-55459938D02*
X165533649Y-55512782D01*
X165648465Y-55589500D01*
X165746100Y-55687135D01*
X165822818Y-55801951D01*
X165875662Y-55929528D01*
X165902600Y-56064956D01*
X165902600Y-56203044D01*
X165875662Y-56338472D01*
X165822818Y-56466049D01*
X165746100Y-56580865D01*
X165648465Y-56678500D01*
X165533649Y-56755218D01*
X165406072Y-56808062D01*
X165270644Y-56835000D01*
X165132556Y-56835000D01*
X164997128Y-56808062D01*
X164869551Y-56755218D01*
X164754735Y-56678500D01*
X164657100Y-56580865D01*
X164580382Y-56466049D01*
X164527538Y-56338472D01*
X164500600Y-56203044D01*
X164500600Y-56064956D01*
X164527538Y-55929528D01*
X164580382Y-55801951D01*
X164657100Y-55687135D01*
X164754735Y-55589500D01*
X164869551Y-55512782D01*
X164997128Y-55459938D01*
X165132556Y-55433000D01*
X165270644Y-55433000D01*
X165406072Y-55459938D01*
X165406072Y-55459938D01*
G37*
G36*
X206278404Y-55089744D02*
X206365459Y-55107060D01*
X206502132Y-55163672D01*
X206623479Y-55244754D01*
X206625138Y-55245862D01*
X206729738Y-55350462D01*
X206729740Y-55350465D01*
X206811928Y-55473468D01*
X206868540Y-55610141D01*
X206897400Y-55755233D01*
X206897400Y-55903167D01*
X206868540Y-56048259D01*
X206811928Y-56184932D01*
X206811927Y-56184933D01*
X206729738Y-56307938D01*
X206625138Y-56412538D01*
X206625135Y-56412540D01*
X206502132Y-56494728D01*
X206365459Y-56551340D01*
X206278404Y-56568656D01*
X206220369Y-56580200D01*
X206072431Y-56580200D01*
X206014396Y-56568656D01*
X205927341Y-56551340D01*
X205790668Y-56494728D01*
X205667665Y-56412540D01*
X205667662Y-56412538D01*
X205563062Y-56307938D01*
X205480873Y-56184933D01*
X205480872Y-56184932D01*
X205424260Y-56048259D01*
X205395400Y-55903167D01*
X205395400Y-55755233D01*
X205424260Y-55610141D01*
X205480872Y-55473468D01*
X205563060Y-55350465D01*
X205563062Y-55350462D01*
X205667662Y-55245862D01*
X205669321Y-55244754D01*
X205790668Y-55163672D01*
X205927341Y-55107060D01*
X206014396Y-55089744D01*
X206072431Y-55078200D01*
X206220369Y-55078200D01*
X206278404Y-55089744D01*
X206278404Y-55089744D01*
G37*
G36*
X208818404Y-55089744D02*
X208905459Y-55107060D01*
X209042132Y-55163672D01*
X209163479Y-55244754D01*
X209165138Y-55245862D01*
X209269738Y-55350462D01*
X209269740Y-55350465D01*
X209351928Y-55473468D01*
X209408540Y-55610141D01*
X209437400Y-55755233D01*
X209437400Y-55903167D01*
X209408540Y-56048259D01*
X209351928Y-56184932D01*
X209351927Y-56184933D01*
X209269738Y-56307938D01*
X209165138Y-56412538D01*
X209165135Y-56412540D01*
X209042132Y-56494728D01*
X208905459Y-56551340D01*
X208818404Y-56568656D01*
X208760369Y-56580200D01*
X208612431Y-56580200D01*
X208554396Y-56568656D01*
X208467341Y-56551340D01*
X208330668Y-56494728D01*
X208207665Y-56412540D01*
X208207662Y-56412538D01*
X208103062Y-56307938D01*
X208020873Y-56184933D01*
X208020872Y-56184932D01*
X207964260Y-56048259D01*
X207935400Y-55903167D01*
X207935400Y-55755233D01*
X207964260Y-55610141D01*
X208020872Y-55473468D01*
X208103060Y-55350465D01*
X208103062Y-55350462D01*
X208207662Y-55245862D01*
X208209321Y-55244754D01*
X208330668Y-55163672D01*
X208467341Y-55107060D01*
X208554396Y-55089744D01*
X208612431Y-55078200D01*
X208760369Y-55078200D01*
X208818404Y-55089744D01*
X208818404Y-55089744D01*
G37*
G36*
X162866072Y-54189938D02*
X162993649Y-54242782D01*
X163108465Y-54319500D01*
X163206100Y-54417135D01*
X163282818Y-54531951D01*
X163335662Y-54659528D01*
X163362600Y-54794956D01*
X163362600Y-54933044D01*
X163335662Y-55068472D01*
X163282818Y-55196049D01*
X163206100Y-55310865D01*
X163108465Y-55408500D01*
X162993649Y-55485218D01*
X162866072Y-55538062D01*
X162730644Y-55565000D01*
X162592556Y-55565000D01*
X162457128Y-55538062D01*
X162329551Y-55485218D01*
X162214735Y-55408500D01*
X162117100Y-55310865D01*
X162040382Y-55196049D01*
X161987538Y-55068472D01*
X161960600Y-54933044D01*
X161960600Y-54794956D01*
X161987538Y-54659528D01*
X162040382Y-54531951D01*
X162117100Y-54417135D01*
X162214735Y-54319500D01*
X162329551Y-54242782D01*
X162457128Y-54189938D01*
X162592556Y-54163000D01*
X162730644Y-54163000D01*
X162866072Y-54189938D01*
X162866072Y-54189938D01*
G37*
G36*
X165406072Y-52919938D02*
X165533649Y-52972782D01*
X165648465Y-53049500D01*
X165746100Y-53147135D01*
X165822818Y-53261951D01*
X165875662Y-53389528D01*
X165902600Y-53524956D01*
X165902600Y-53663044D01*
X165875662Y-53798472D01*
X165822818Y-53926049D01*
X165746100Y-54040865D01*
X165648465Y-54138500D01*
X165533649Y-54215218D01*
X165406072Y-54268062D01*
X165270644Y-54295000D01*
X165132556Y-54295000D01*
X164997128Y-54268062D01*
X164869551Y-54215218D01*
X164754735Y-54138500D01*
X164657100Y-54040865D01*
X164580382Y-53926049D01*
X164527538Y-53798472D01*
X164500600Y-53663044D01*
X164500600Y-53524956D01*
X164527538Y-53389528D01*
X164580382Y-53261951D01*
X164657100Y-53147135D01*
X164754735Y-53049500D01*
X164869551Y-52972782D01*
X164997128Y-52919938D01*
X165132556Y-52893000D01*
X165270644Y-52893000D01*
X165406072Y-52919938D01*
X165406072Y-52919938D01*
G37*
G36*
X206278404Y-52549744D02*
X206365459Y-52567060D01*
X206502132Y-52623672D01*
X206623479Y-52704754D01*
X206625138Y-52705862D01*
X206729738Y-52810462D01*
X206729740Y-52810465D01*
X206811928Y-52933468D01*
X206868540Y-53070141D01*
X206897400Y-53215233D01*
X206897400Y-53363167D01*
X206868540Y-53508259D01*
X206811928Y-53644932D01*
X206811927Y-53644933D01*
X206729738Y-53767938D01*
X206625138Y-53872538D01*
X206625135Y-53872540D01*
X206502132Y-53954728D01*
X206365459Y-54011340D01*
X206278404Y-54028656D01*
X206220369Y-54040200D01*
X206072431Y-54040200D01*
X206014396Y-54028656D01*
X205927341Y-54011340D01*
X205790668Y-53954728D01*
X205667665Y-53872540D01*
X205667662Y-53872538D01*
X205563062Y-53767938D01*
X205480873Y-53644933D01*
X205480872Y-53644932D01*
X205424260Y-53508259D01*
X205395400Y-53363167D01*
X205395400Y-53215233D01*
X205424260Y-53070141D01*
X205480872Y-52933468D01*
X205563060Y-52810465D01*
X205563062Y-52810462D01*
X205667662Y-52705862D01*
X205669321Y-52704754D01*
X205790668Y-52623672D01*
X205927341Y-52567060D01*
X206014396Y-52549744D01*
X206072431Y-52538200D01*
X206220369Y-52538200D01*
X206278404Y-52549744D01*
X206278404Y-52549744D01*
G37*
G36*
X208818404Y-52549744D02*
X208905459Y-52567060D01*
X209042132Y-52623672D01*
X209163479Y-52704754D01*
X209165138Y-52705862D01*
X209269738Y-52810462D01*
X209269740Y-52810465D01*
X209351928Y-52933468D01*
X209408540Y-53070141D01*
X209437400Y-53215233D01*
X209437400Y-53363167D01*
X209408540Y-53508259D01*
X209351928Y-53644932D01*
X209351927Y-53644933D01*
X209269738Y-53767938D01*
X209165138Y-53872538D01*
X209165135Y-53872540D01*
X209042132Y-53954728D01*
X208905459Y-54011340D01*
X208818404Y-54028656D01*
X208760369Y-54040200D01*
X208612431Y-54040200D01*
X208554396Y-54028656D01*
X208467341Y-54011340D01*
X208330668Y-53954728D01*
X208207665Y-53872540D01*
X208207662Y-53872538D01*
X208103062Y-53767938D01*
X208020873Y-53644933D01*
X208020872Y-53644932D01*
X207964260Y-53508259D01*
X207935400Y-53363167D01*
X207935400Y-53215233D01*
X207964260Y-53070141D01*
X208020872Y-52933468D01*
X208103060Y-52810465D01*
X208103062Y-52810462D01*
X208207662Y-52705862D01*
X208209321Y-52704754D01*
X208330668Y-52623672D01*
X208467341Y-52567060D01*
X208554396Y-52549744D01*
X208612431Y-52538200D01*
X208760369Y-52538200D01*
X208818404Y-52549744D01*
X208818404Y-52549744D01*
G37*
G36*
X162866072Y-51649938D02*
X162993649Y-51702782D01*
X163108465Y-51779500D01*
X163206100Y-51877135D01*
X163282818Y-51991951D01*
X163335662Y-52119528D01*
X163362600Y-52254956D01*
X163362600Y-52393044D01*
X163335662Y-52528472D01*
X163282818Y-52656049D01*
X163206100Y-52770865D01*
X163108465Y-52868500D01*
X162993649Y-52945218D01*
X162866072Y-52998062D01*
X162730644Y-53025000D01*
X162592556Y-53025000D01*
X162457128Y-52998062D01*
X162329551Y-52945218D01*
X162214735Y-52868500D01*
X162117100Y-52770865D01*
X162040382Y-52656049D01*
X161987538Y-52528472D01*
X161960600Y-52393044D01*
X161960600Y-52254956D01*
X161987538Y-52119528D01*
X162040382Y-51991951D01*
X162117100Y-51877135D01*
X162214735Y-51779500D01*
X162329551Y-51702782D01*
X162457128Y-51649938D01*
X162592556Y-51623000D01*
X162730644Y-51623000D01*
X162866072Y-51649938D01*
X162866072Y-51649938D01*
G37*
G36*
X208818404Y-50009744D02*
X208905459Y-50027060D01*
X209042132Y-50083672D01*
X209042133Y-50083673D01*
X209165138Y-50165862D01*
X209269738Y-50270462D01*
X209269740Y-50270465D01*
X209351928Y-50393468D01*
X209408540Y-50530141D01*
X209437400Y-50675233D01*
X209437400Y-50823167D01*
X209408540Y-50968259D01*
X209351928Y-51104932D01*
X209351927Y-51104933D01*
X209269738Y-51227938D01*
X209165138Y-51332538D01*
X209165135Y-51332540D01*
X209042132Y-51414728D01*
X208905459Y-51471340D01*
X208818404Y-51488656D01*
X208760369Y-51500200D01*
X208612431Y-51500200D01*
X208554396Y-51488656D01*
X208467341Y-51471340D01*
X208330668Y-51414728D01*
X208207665Y-51332540D01*
X208207662Y-51332538D01*
X208103062Y-51227938D01*
X208020873Y-51104933D01*
X208020872Y-51104932D01*
X207964260Y-50968259D01*
X207935400Y-50823167D01*
X207935400Y-50675233D01*
X207964260Y-50530141D01*
X208020872Y-50393468D01*
X208103060Y-50270465D01*
X208103062Y-50270462D01*
X208207662Y-50165862D01*
X208330667Y-50083673D01*
X208330668Y-50083672D01*
X208467341Y-50027060D01*
X208554396Y-50009744D01*
X208612431Y-49998200D01*
X208760369Y-49998200D01*
X208818404Y-50009744D01*
X208818404Y-50009744D01*
G37*
G36*
X206897400Y-51500200D02*
X205395400Y-51500200D01*
X205395400Y-49998200D01*
X206897400Y-49998200D01*
X206897400Y-51500200D01*
X206897400Y-51500200D01*
G37*
M02*
