G04 #@! TF.GenerationSoftware,KiCad,Pcbnew,5.0.2-bee76a0~70~ubuntu18.04.1*
G04 #@! TF.CreationDate,2019-04-27T20:52:58-04:00*
G04 #@! TF.ProjectId,Brakelight_Shutdown_BSPD,4272616b-656c-4696-9768-745f53687574,rev?*
G04 #@! TF.SameCoordinates,Original*
G04 #@! TF.FileFunction,Paste,Top*
G04 #@! TF.FilePolarity,Positive*
%FSLAX46Y46*%
G04 Gerber Fmt 4.6, Leading zero omitted, Abs format (unit mm)*
G04 Created by KiCad (PCBNEW 5.0.2-bee76a0~70~ubuntu18.04.1) date Sat 27 Apr 2019 08:52:58 PM EDT*
%MOMM*%
%LPD*%
G01*
G04 APERTURE LIST*
%ADD10R,0.800000X0.900000*%
%ADD11R,0.700000X1.300000*%
%ADD12R,1.250000X1.000000*%
%ADD13R,1.000000X1.250000*%
%ADD14R,1.200000X1.200000*%
%ADD15R,1.600000X0.550000*%
%ADD16R,0.550000X1.600000*%
%ADD17R,0.900000X0.800000*%
%ADD18R,1.300000X0.700000*%
%ADD19C,0.100000*%
%ADD20C,0.875000*%
%ADD21R,1.060000X0.650000*%
%ADD22R,0.650000X1.060000*%
%ADD23R,0.600000X1.550000*%
%ADD24R,1.780000X3.500000*%
%ADD25R,0.900000X2.500000*%
%ADD26R,1.200000X2.000000*%
%ADD27R,1.000000X3.200000*%
%ADD28R,1.000000X1.600000*%
%ADD29R,2.159000X1.778000*%
G04 APERTURE END LIST*
D10*
G04 #@! TO.C,Q7*
X184546200Y-62450400D03*
X183596200Y-60350400D03*
X185496200Y-60350400D03*
G04 #@! TD*
D11*
G04 #@! TO.C,R1*
X185115200Y-96875600D03*
X187015200Y-96875600D03*
G04 #@! TD*
D12*
G04 #@! TO.C,C1*
X177647600Y-90576400D03*
X177647600Y-88576400D03*
G04 #@! TD*
D13*
G04 #@! TO.C,C2*
X193878200Y-81737200D03*
X195878200Y-81737200D03*
G04 #@! TD*
D12*
G04 #@! TO.C,C3*
X188302900Y-89484200D03*
X188302900Y-87484200D03*
G04 #@! TD*
G04 #@! TO.C,C4*
X181952900Y-89452200D03*
X181952900Y-87452200D03*
G04 #@! TD*
D13*
G04 #@! TO.C,C5*
X199602600Y-72161400D03*
X197602600Y-72161400D03*
G04 #@! TD*
G04 #@! TO.C,C6*
X204622400Y-87833200D03*
X206622400Y-87833200D03*
G04 #@! TD*
G04 #@! TO.C,C8*
X207130400Y-74269600D03*
X205130400Y-74269600D03*
G04 #@! TD*
G04 #@! TO.C,C9*
X170840400Y-89966800D03*
X172840400Y-89966800D03*
G04 #@! TD*
G04 #@! TO.C,C10*
X205883000Y-76631800D03*
X207883000Y-76631800D03*
G04 #@! TD*
D14*
G04 #@! TO.C,D1*
X205663800Y-68056400D03*
X205663800Y-70256400D03*
G04 #@! TD*
G04 #@! TO.C,D4*
X210388200Y-88857000D03*
X210388200Y-86657000D03*
G04 #@! TD*
G04 #@! TO.C,D5*
X194462400Y-91622700D03*
X194462400Y-93822700D03*
G04 #@! TD*
G04 #@! TO.C,D7*
X209550000Y-101770000D03*
X209550000Y-103970000D03*
G04 #@! TD*
G04 #@! TO.C,D8*
X209550000Y-119380000D03*
X209550000Y-117180000D03*
G04 #@! TD*
G04 #@! TO.C,D9*
X209550000Y-107020000D03*
X209550000Y-109220000D03*
G04 #@! TD*
G04 #@! TO.C,D10*
X209550000Y-111760000D03*
X209550000Y-113960000D03*
G04 #@! TD*
G04 #@! TO.C,D12*
X192557400Y-93843200D03*
X192557400Y-91643200D03*
G04 #@! TD*
G04 #@! TO.C,D13*
X190588900Y-91643200D03*
X190588900Y-93843200D03*
G04 #@! TD*
D15*
G04 #@! TO.C,IC1*
X182719400Y-77286200D03*
X182719400Y-78086200D03*
X182719400Y-78886200D03*
X182719400Y-79686200D03*
X182719400Y-80486200D03*
X182719400Y-81286200D03*
X182719400Y-82086200D03*
X182719400Y-82886200D03*
D16*
X184169400Y-84336200D03*
X184969400Y-84336200D03*
X185769400Y-84336200D03*
X186569400Y-84336200D03*
X187369400Y-84336200D03*
X188169400Y-84336200D03*
X188969400Y-84336200D03*
X189769400Y-84336200D03*
D15*
X191219400Y-82886200D03*
X191219400Y-82086200D03*
X191219400Y-81286200D03*
X191219400Y-80486200D03*
X191219400Y-79686200D03*
X191219400Y-78886200D03*
X191219400Y-78086200D03*
X191219400Y-77286200D03*
D16*
X189769400Y-75836200D03*
X188969400Y-75836200D03*
X188169400Y-75836200D03*
X187369400Y-75836200D03*
X186569400Y-75836200D03*
X185769400Y-75836200D03*
X184969400Y-75836200D03*
X184169400Y-75836200D03*
G04 #@! TD*
D17*
G04 #@! TO.C,Q1*
X204597000Y-84912200D03*
X206697000Y-83962200D03*
X206697000Y-85862200D03*
G04 #@! TD*
D10*
G04 #@! TO.C,Q2*
X204637600Y-94860800D03*
X203687600Y-92760800D03*
X205587600Y-92760800D03*
G04 #@! TD*
G04 #@! TO.C,Q3*
X173443551Y-60587171D03*
X171543551Y-60587171D03*
X172493551Y-62687171D03*
G04 #@! TD*
G04 #@! TO.C,Q4*
X191653200Y-60485600D03*
X189753200Y-60485600D03*
X190703200Y-62585600D03*
G04 #@! TD*
G04 #@! TO.C,Q5*
X179385000Y-60485600D03*
X177485000Y-60485600D03*
X178435000Y-62585600D03*
G04 #@! TD*
D17*
G04 #@! TO.C,Q6*
X182075400Y-70779600D03*
X182075400Y-72679600D03*
X184175400Y-71729600D03*
G04 #@! TD*
D18*
G04 #@! TO.C,R2*
X197586600Y-68285400D03*
X197586600Y-66385400D03*
G04 #@! TD*
D11*
G04 #@! TO.C,R3*
X174233800Y-78130400D03*
X176133800Y-78130400D03*
G04 #@! TD*
G04 #@! TO.C,R4*
X171653200Y-93903800D03*
X169753200Y-93903800D03*
G04 #@! TD*
G04 #@! TO.C,R5*
X203047600Y-70231000D03*
X201147600Y-70231000D03*
G04 #@! TD*
G04 #@! TO.C,R6*
X201122200Y-86182200D03*
X203022200Y-86182200D03*
G04 #@! TD*
G04 #@! TO.C,R7*
X199771000Y-70231000D03*
X197871000Y-70231000D03*
G04 #@! TD*
G04 #@! TO.C,R8*
X196016800Y-76606400D03*
X197916800Y-76606400D03*
G04 #@! TD*
G04 #@! TO.C,R9*
X201122200Y-84175600D03*
X203022200Y-84175600D03*
G04 #@! TD*
G04 #@! TO.C,R11*
X201127400Y-76606400D03*
X199227400Y-76606400D03*
G04 #@! TD*
G04 #@! TO.C,R13*
X204429400Y-76631800D03*
X202529400Y-76631800D03*
G04 #@! TD*
D18*
G04 #@! TO.C,R14*
X167919400Y-79194700D03*
X167919400Y-77294700D03*
G04 #@! TD*
G04 #@! TO.C,R17*
X210362800Y-84937600D03*
X210362800Y-83037600D03*
G04 #@! TD*
D11*
G04 #@! TO.C,R18*
X203809600Y-90576400D03*
X205709600Y-90576400D03*
G04 #@! TD*
G04 #@! TO.C,R21*
X173661951Y-56891471D03*
X171761951Y-56891471D03*
G04 #@! TD*
G04 #@! TO.C,R22*
X173661951Y-58885371D03*
X171761951Y-58885371D03*
G04 #@! TD*
G04 #@! TO.C,R23*
X171749251Y-64384471D03*
X173649251Y-64384471D03*
G04 #@! TD*
G04 #@! TO.C,R24*
X171963000Y-73710800D03*
X173863000Y-73710800D03*
G04 #@! TD*
D18*
G04 #@! TO.C,R25*
X172288200Y-71511200D03*
X172288200Y-69611200D03*
G04 #@! TD*
D11*
G04 #@! TO.C,R26*
X189992000Y-56845200D03*
X191892000Y-56845200D03*
G04 #@! TD*
G04 #@! TO.C,R27*
X177134600Y-73710800D03*
X175234600Y-73710800D03*
G04 #@! TD*
G04 #@! TO.C,R28*
X177688200Y-56845200D03*
X179588200Y-56845200D03*
G04 #@! TD*
G04 #@! TO.C,R29*
X189981800Y-58801000D03*
X191881800Y-58801000D03*
G04 #@! TD*
G04 #@! TO.C,R30*
X177688200Y-58801000D03*
X179588200Y-58801000D03*
G04 #@! TD*
G04 #@! TO.C,R31*
X189946200Y-64312800D03*
X191846200Y-64312800D03*
G04 #@! TD*
G04 #@! TO.C,R32*
X179613600Y-64312800D03*
X177713600Y-64312800D03*
G04 #@! TD*
D19*
G04 #@! TO.C,R33*
G36*
X180503991Y-71154053D02*
X180525226Y-71157203D01*
X180546050Y-71162419D01*
X180566262Y-71169651D01*
X180585668Y-71178830D01*
X180604081Y-71189866D01*
X180621324Y-71202654D01*
X180637230Y-71217070D01*
X180651646Y-71232976D01*
X180664434Y-71250219D01*
X180675470Y-71268632D01*
X180684649Y-71288038D01*
X180691881Y-71308250D01*
X180697097Y-71329074D01*
X180700247Y-71350309D01*
X180701300Y-71371750D01*
X180701300Y-71884250D01*
X180700247Y-71905691D01*
X180697097Y-71926926D01*
X180691881Y-71947750D01*
X180684649Y-71967962D01*
X180675470Y-71987368D01*
X180664434Y-72005781D01*
X180651646Y-72023024D01*
X180637230Y-72038930D01*
X180621324Y-72053346D01*
X180604081Y-72066134D01*
X180585668Y-72077170D01*
X180566262Y-72086349D01*
X180546050Y-72093581D01*
X180525226Y-72098797D01*
X180503991Y-72101947D01*
X180482550Y-72103000D01*
X180045050Y-72103000D01*
X180023609Y-72101947D01*
X180002374Y-72098797D01*
X179981550Y-72093581D01*
X179961338Y-72086349D01*
X179941932Y-72077170D01*
X179923519Y-72066134D01*
X179906276Y-72053346D01*
X179890370Y-72038930D01*
X179875954Y-72023024D01*
X179863166Y-72005781D01*
X179852130Y-71987368D01*
X179842951Y-71967962D01*
X179835719Y-71947750D01*
X179830503Y-71926926D01*
X179827353Y-71905691D01*
X179826300Y-71884250D01*
X179826300Y-71371750D01*
X179827353Y-71350309D01*
X179830503Y-71329074D01*
X179835719Y-71308250D01*
X179842951Y-71288038D01*
X179852130Y-71268632D01*
X179863166Y-71250219D01*
X179875954Y-71232976D01*
X179890370Y-71217070D01*
X179906276Y-71202654D01*
X179923519Y-71189866D01*
X179941932Y-71178830D01*
X179961338Y-71169651D01*
X179981550Y-71162419D01*
X180002374Y-71157203D01*
X180023609Y-71154053D01*
X180045050Y-71153000D01*
X180482550Y-71153000D01*
X180503991Y-71154053D01*
X180503991Y-71154053D01*
G37*
D20*
X180263800Y-71628000D03*
D19*
G36*
X178928991Y-71154053D02*
X178950226Y-71157203D01*
X178971050Y-71162419D01*
X178991262Y-71169651D01*
X179010668Y-71178830D01*
X179029081Y-71189866D01*
X179046324Y-71202654D01*
X179062230Y-71217070D01*
X179076646Y-71232976D01*
X179089434Y-71250219D01*
X179100470Y-71268632D01*
X179109649Y-71288038D01*
X179116881Y-71308250D01*
X179122097Y-71329074D01*
X179125247Y-71350309D01*
X179126300Y-71371750D01*
X179126300Y-71884250D01*
X179125247Y-71905691D01*
X179122097Y-71926926D01*
X179116881Y-71947750D01*
X179109649Y-71967962D01*
X179100470Y-71987368D01*
X179089434Y-72005781D01*
X179076646Y-72023024D01*
X179062230Y-72038930D01*
X179046324Y-72053346D01*
X179029081Y-72066134D01*
X179010668Y-72077170D01*
X178991262Y-72086349D01*
X178971050Y-72093581D01*
X178950226Y-72098797D01*
X178928991Y-72101947D01*
X178907550Y-72103000D01*
X178470050Y-72103000D01*
X178448609Y-72101947D01*
X178427374Y-72098797D01*
X178406550Y-72093581D01*
X178386338Y-72086349D01*
X178366932Y-72077170D01*
X178348519Y-72066134D01*
X178331276Y-72053346D01*
X178315370Y-72038930D01*
X178300954Y-72023024D01*
X178288166Y-72005781D01*
X178277130Y-71987368D01*
X178267951Y-71967962D01*
X178260719Y-71947750D01*
X178255503Y-71926926D01*
X178252353Y-71905691D01*
X178251300Y-71884250D01*
X178251300Y-71371750D01*
X178252353Y-71350309D01*
X178255503Y-71329074D01*
X178260719Y-71308250D01*
X178267951Y-71288038D01*
X178277130Y-71268632D01*
X178288166Y-71250219D01*
X178300954Y-71232976D01*
X178315370Y-71217070D01*
X178331276Y-71202654D01*
X178348519Y-71189866D01*
X178366932Y-71178830D01*
X178386338Y-71169651D01*
X178406550Y-71162419D01*
X178427374Y-71157203D01*
X178448609Y-71154053D01*
X178470050Y-71153000D01*
X178907550Y-71153000D01*
X178928991Y-71154053D01*
X178928991Y-71154053D01*
G37*
D20*
X178688800Y-71628000D03*
G04 #@! TD*
D11*
G04 #@! TO.C,R34*
X180365400Y-73710800D03*
X178465400Y-73710800D03*
G04 #@! TD*
G04 #@! TO.C,R35*
X185674000Y-56743600D03*
X183774000Y-56743600D03*
G04 #@! TD*
G04 #@! TO.C,R37*
X185699400Y-58699400D03*
X183799400Y-58699400D03*
G04 #@! TD*
G04 #@! TO.C,R39*
X183824800Y-64109600D03*
X185724800Y-64109600D03*
G04 #@! TD*
D18*
G04 #@! TO.C,R41*
X197764400Y-98511400D03*
X197764400Y-96611400D03*
G04 #@! TD*
G04 #@! TO.C,R42*
X199948800Y-98496200D03*
X199948800Y-96596200D03*
G04 #@! TD*
G04 #@! TO.C,R44*
X194398900Y-90116700D03*
X194398900Y-88216700D03*
G04 #@! TD*
G04 #@! TO.C,R45*
X192493900Y-88219200D03*
X192493900Y-90119200D03*
G04 #@! TD*
G04 #@! TO.C,R46*
X190525400Y-90119200D03*
X190525400Y-88219200D03*
G04 #@! TD*
D21*
G04 #@! TO.C,U1*
X201810800Y-66410800D03*
X201810800Y-68310800D03*
X199610800Y-68310800D03*
X199610800Y-67360800D03*
X199610800Y-66410800D03*
G04 #@! TD*
D22*
G04 #@! TO.C,U2*
X203311800Y-72128200D03*
X202361800Y-72128200D03*
X201411800Y-72128200D03*
X201411800Y-74328200D03*
X203311800Y-74328200D03*
G04 #@! TD*
D23*
G04 #@! TO.C,U3*
X168300400Y-87739200D03*
X169570400Y-87739200D03*
X170840400Y-87739200D03*
X172110400Y-87739200D03*
X172110400Y-82339200D03*
X170840400Y-82339200D03*
X169570400Y-82339200D03*
X168300400Y-82339200D03*
G04 #@! TD*
D22*
G04 #@! TO.C,U5*
X201437200Y-82194400D03*
X202387200Y-82194400D03*
X203337200Y-82194400D03*
X203337200Y-79994400D03*
X201437200Y-79994400D03*
G04 #@! TD*
G04 #@! TO.C,U6*
X207086200Y-82194400D03*
X205186200Y-82194400D03*
X205186200Y-79994400D03*
X206136200Y-79994400D03*
X207086200Y-79994400D03*
G04 #@! TD*
G04 #@! TO.C,U7*
X176370200Y-69425600D03*
X175420200Y-69425600D03*
X174470200Y-69425600D03*
X174470200Y-71625600D03*
X176370200Y-71625600D03*
G04 #@! TD*
D14*
G04 #@! TO.C,D11*
X198366200Y-59537600D03*
X200566200Y-59537600D03*
G04 #@! TD*
D11*
G04 #@! TO.C,R36*
X198059000Y-61518800D03*
X199959000Y-61518800D03*
G04 #@! TD*
D24*
G04 #@! TO.C,COUT102*
X188455300Y-116840000D03*
X193735300Y-116840000D03*
G04 #@! TD*
D12*
G04 #@! TO.C,C103*
X185597800Y-108220000D03*
X185597800Y-110220000D03*
G04 #@! TD*
G04 #@! TO.C,C102*
X179184300Y-110299500D03*
X179184300Y-108299500D03*
G04 #@! TD*
D19*
G04 #@! TO.C,C101*
G36*
X177656051Y-109741233D02*
X177677286Y-109744383D01*
X177698110Y-109749599D01*
X177718322Y-109756831D01*
X177737728Y-109766010D01*
X177756141Y-109777046D01*
X177773384Y-109789834D01*
X177789290Y-109804250D01*
X177803706Y-109820156D01*
X177816494Y-109837399D01*
X177827530Y-109855812D01*
X177836709Y-109875218D01*
X177843941Y-109895430D01*
X177849157Y-109916254D01*
X177852307Y-109937489D01*
X177853360Y-109958930D01*
X177853360Y-110396430D01*
X177852307Y-110417871D01*
X177849157Y-110439106D01*
X177843941Y-110459930D01*
X177836709Y-110480142D01*
X177827530Y-110499548D01*
X177816494Y-110517961D01*
X177803706Y-110535204D01*
X177789290Y-110551110D01*
X177773384Y-110565526D01*
X177756141Y-110578314D01*
X177737728Y-110589350D01*
X177718322Y-110598529D01*
X177698110Y-110605761D01*
X177677286Y-110610977D01*
X177656051Y-110614127D01*
X177634610Y-110615180D01*
X177122110Y-110615180D01*
X177100669Y-110614127D01*
X177079434Y-110610977D01*
X177058610Y-110605761D01*
X177038398Y-110598529D01*
X177018992Y-110589350D01*
X177000579Y-110578314D01*
X176983336Y-110565526D01*
X176967430Y-110551110D01*
X176953014Y-110535204D01*
X176940226Y-110517961D01*
X176929190Y-110499548D01*
X176920011Y-110480142D01*
X176912779Y-110459930D01*
X176907563Y-110439106D01*
X176904413Y-110417871D01*
X176903360Y-110396430D01*
X176903360Y-109958930D01*
X176904413Y-109937489D01*
X176907563Y-109916254D01*
X176912779Y-109895430D01*
X176920011Y-109875218D01*
X176929190Y-109855812D01*
X176940226Y-109837399D01*
X176953014Y-109820156D01*
X176967430Y-109804250D01*
X176983336Y-109789834D01*
X177000579Y-109777046D01*
X177018992Y-109766010D01*
X177038398Y-109756831D01*
X177058610Y-109749599D01*
X177079434Y-109744383D01*
X177100669Y-109741233D01*
X177122110Y-109740180D01*
X177634610Y-109740180D01*
X177656051Y-109741233D01*
X177656051Y-109741233D01*
G37*
D20*
X177378360Y-110177680D03*
D19*
G36*
X177656051Y-108166233D02*
X177677286Y-108169383D01*
X177698110Y-108174599D01*
X177718322Y-108181831D01*
X177737728Y-108191010D01*
X177756141Y-108202046D01*
X177773384Y-108214834D01*
X177789290Y-108229250D01*
X177803706Y-108245156D01*
X177816494Y-108262399D01*
X177827530Y-108280812D01*
X177836709Y-108300218D01*
X177843941Y-108320430D01*
X177849157Y-108341254D01*
X177852307Y-108362489D01*
X177853360Y-108383930D01*
X177853360Y-108821430D01*
X177852307Y-108842871D01*
X177849157Y-108864106D01*
X177843941Y-108884930D01*
X177836709Y-108905142D01*
X177827530Y-108924548D01*
X177816494Y-108942961D01*
X177803706Y-108960204D01*
X177789290Y-108976110D01*
X177773384Y-108990526D01*
X177756141Y-109003314D01*
X177737728Y-109014350D01*
X177718322Y-109023529D01*
X177698110Y-109030761D01*
X177677286Y-109035977D01*
X177656051Y-109039127D01*
X177634610Y-109040180D01*
X177122110Y-109040180D01*
X177100669Y-109039127D01*
X177079434Y-109035977D01*
X177058610Y-109030761D01*
X177038398Y-109023529D01*
X177018992Y-109014350D01*
X177000579Y-109003314D01*
X176983336Y-108990526D01*
X176967430Y-108976110D01*
X176953014Y-108960204D01*
X176940226Y-108942961D01*
X176929190Y-108924548D01*
X176920011Y-108905142D01*
X176912779Y-108884930D01*
X176907563Y-108864106D01*
X176904413Y-108842871D01*
X176903360Y-108821430D01*
X176903360Y-108383930D01*
X176904413Y-108362489D01*
X176907563Y-108341254D01*
X176912779Y-108320430D01*
X176920011Y-108300218D01*
X176929190Y-108280812D01*
X176940226Y-108262399D01*
X176953014Y-108245156D01*
X176967430Y-108229250D01*
X176983336Y-108214834D01*
X177000579Y-108202046D01*
X177018992Y-108191010D01*
X177038398Y-108181831D01*
X177058610Y-108174599D01*
X177079434Y-108169383D01*
X177100669Y-108166233D01*
X177122110Y-108165180D01*
X177634610Y-108165180D01*
X177656051Y-108166233D01*
X177656051Y-108166233D01*
G37*
D20*
X177378360Y-108602680D03*
G04 #@! TD*
D25*
G04 #@! TO.C,F101*
X176146800Y-112966500D03*
X179046800Y-112966500D03*
G04 #@! TD*
D26*
G04 #@! TO.C,L101*
X183502700Y-112905540D03*
X186702700Y-112905540D03*
G04 #@! TD*
D11*
G04 #@! TO.C,R103*
X185920420Y-106217720D03*
X184020420Y-106217720D03*
G04 #@! TD*
G04 #@! TO.C,R102*
X180134220Y-106202480D03*
X182034220Y-106202480D03*
G04 #@! TD*
D18*
G04 #@! TO.C,R105*
X181326000Y-119639000D03*
X181326000Y-121539000D03*
G04 #@! TD*
D27*
G04 #@! TO.C,R104*
X185854200Y-116845080D03*
X179654200Y-116845080D03*
G04 #@! TD*
D22*
G04 #@! TO.C,U101*
X183253600Y-108104800D03*
X182303600Y-108104800D03*
X181353600Y-108104800D03*
X181353600Y-110304800D03*
X183253600Y-110304800D03*
X182303600Y-110304800D03*
G04 #@! TD*
D28*
G04 #@! TO.C,COUT101*
X188074300Y-110490000D03*
X191074300Y-110490000D03*
G04 #@! TD*
D13*
G04 #@! TO.C,COUT103*
X188598300Y-112839500D03*
X190598300Y-112839500D03*
G04 #@! TD*
D29*
G04 #@! TO.C,D101*
X172580300Y-108902500D03*
X172580300Y-112966500D03*
G04 #@! TD*
D14*
G04 #@! TO.C,D103*
X181326000Y-123289000D03*
X181326000Y-125489000D03*
G04 #@! TD*
G04 #@! TO.C,D102*
X167526000Y-107939000D03*
X167526000Y-105739000D03*
G04 #@! TD*
D18*
G04 #@! TO.C,R101*
X167526000Y-111589000D03*
X167526000Y-109689000D03*
G04 #@! TD*
M02*
