M48
;DRILL file {KiCad 5.0.0-fee4fd1~66~ubuntu16.04.1} date Sun Mar 17 00:35:10 2019
;FORMAT={-:-/ absolute / inch / decimal}
FMAT,2
INCH,TZ
T1C0.0120
T2C0.0236
T3C0.0335
T4C0.0689
%
G90
G05
M72
T1
X7.3039Y-3.7563
X7.3213Y-4.1177
X7.3283Y-2.4835
X7.3602Y-4.6339
X7.4504Y-4.6339
X7.4583Y-5.2429
X7.4626Y-4.8098
X7.4693Y-5.3657
X7.4973Y-4.4721
X7.5169Y-4.4413
X7.5378Y-5.3669
X7.5433Y-4.4598
X7.5571Y-4.5158
X7.5591Y-4.75
X7.5646Y-4.6311
X7.5744Y-5.2437
X7.5855Y-4.4993
X7.589Y-3.5646
X7.5937Y-4.2992
X7.6122Y-4.4783
X7.615Y-5.3669
X7.6299Y-4.1496
X7.6476Y-4.1913
X7.6634Y-5.3417
X7.6705Y-4.6441
X7.6713Y-4.6949
X7.6846Y-3.9421
X7.6921Y-3.7406
X7.7449Y-3.6886
X7.7551Y-4.011
X7.7906Y-4.1917
X7.8315Y-4.8323
X7.8315Y-4.9303
X7.8354Y-4.1
X7.8886Y-4.7709
X7.8887Y-4.6721
X7.8925Y-4.8161
X7.898Y-4.2669
X7.9201Y-5.0819
X7.9327Y-5.1413
X7.9681Y-4.7409
X7.9689Y-3.8555
X7.9732Y-4.6862
X7.9823Y-3.3902
X7.9827Y-3.6791
X7.9886Y-3.5689
X8.0228Y-4.7327
X8.2323Y-3.8126
X8.3165Y-5.1969
X8.4252Y-5.1953
T3
X7.8086Y-5.2539
X8.0055Y-5.2539
T4
X8.3292Y-2.8215
X8.3292Y-2.979
X8.3292Y-3.1365
X8.3292Y-3.294
X8.3292Y-3.4514
X8.3292Y-3.6089
X8.3292Y-3.7664
X8.3292Y-3.9239
X8.3292Y-4.0814
X8.3292Y-4.2388
X8.3292Y-4.3963
X8.3292Y-4.5538
X8.4867Y-2.9003
X8.4867Y-3.0577
X8.4867Y-3.2152
X8.4867Y-3.3727
X8.4867Y-3.5302
X8.4867Y-3.6877
X8.4867Y-3.8451
X8.4867Y-4.0026
X8.4867Y-4.1601
X8.4867Y-4.3176
X8.4867Y-4.4751
X8.6442Y-2.8215
X8.6442Y-2.979
X8.6442Y-3.1365
X8.6442Y-3.294
X8.6442Y-3.4514
X8.6442Y-3.6089
X8.6442Y-3.7664
X8.6442Y-3.9239
X8.6442Y-4.0814
X8.6442Y-4.2388
X8.6442Y-4.3963
X8.6442Y-4.5538
T2
X7.7692Y-5.374G85X7.7692Y-5.3464
G05
X8.0448Y-5.3464G85X8.0448Y-5.374
G05
T0
M30
