G04 #@! TF.GenerationSoftware,KiCad,Pcbnew,5.0.0-fee4fd1~66~ubuntu16.04.1*
G04 #@! TF.CreationDate,2019-03-17T00:35:17-04:00*
G04 #@! TF.ProjectId,sensing_board,73656E73696E675F626F6172642E6B69,rev?*
G04 #@! TF.SameCoordinates,Original*
G04 #@! TF.FileFunction,Copper,L1,Top,Signal*
G04 #@! TF.FilePolarity,Positive*
%FSLAX46Y46*%
G04 Gerber Fmt 4.6, Leading zero omitted, Abs format (unit mm)*
G04 Created by KiCad (PCBNEW 5.0.0-fee4fd1~66~ubuntu16.04.1) date Sun Mar 17 00:35:17 2019*
%MOMM*%
%LPD*%
G01*
G04 APERTURE LIST*
G04 #@! TA.AperFunction,SMDPad,CuDef*
%ADD10R,0.700000X1.300000*%
G04 #@! TD*
G04 #@! TA.AperFunction,SMDPad,CuDef*
%ADD11R,1.300000X0.700000*%
G04 #@! TD*
G04 #@! TA.AperFunction,SMDPad,CuDef*
%ADD12R,1.000000X1.250000*%
G04 #@! TD*
G04 #@! TA.AperFunction,SMDPad,CuDef*
%ADD13R,1.250000X1.000000*%
G04 #@! TD*
G04 #@! TA.AperFunction,SMDPad,CuDef*
%ADD14R,1.200000X1.200000*%
G04 #@! TD*
G04 #@! TA.AperFunction,SMDPad,CuDef*
%ADD15R,0.550000X1.600000*%
G04 #@! TD*
G04 #@! TA.AperFunction,SMDPad,CuDef*
%ADD16R,1.600000X0.550000*%
G04 #@! TD*
G04 #@! TA.AperFunction,Conductor*
%ADD17C,0.100000*%
G04 #@! TD*
G04 #@! TA.AperFunction,SMDPad,CuDef*
%ADD18C,0.875000*%
G04 #@! TD*
G04 #@! TA.AperFunction,SMDPad,CuDef*
%ADD19R,1.550000X0.600000*%
G04 #@! TD*
G04 #@! TA.AperFunction,SMDPad,CuDef*
%ADD20R,1.060000X0.650000*%
G04 #@! TD*
G04 #@! TA.AperFunction,SMDPad,CuDef*
%ADD21R,1.400000X1.500000*%
G04 #@! TD*
G04 #@! TA.AperFunction,SMDPad,CuDef*
%ADD22R,1.200000X1.900000*%
G04 #@! TD*
G04 #@! TA.AperFunction,ComponentPad*
%ADD23O,1.200000X1.900000*%
G04 #@! TD*
G04 #@! TA.AperFunction,SMDPad,CuDef*
%ADD24R,1.500000X1.900000*%
G04 #@! TD*
G04 #@! TA.AperFunction,ComponentPad*
%ADD25C,1.450000*%
G04 #@! TD*
G04 #@! TA.AperFunction,SMDPad,CuDef*
%ADD26R,0.400000X1.350000*%
G04 #@! TD*
G04 #@! TA.AperFunction,SMDPad,CuDef*
%ADD27R,1.200000X1.400000*%
G04 #@! TD*
G04 #@! TA.AperFunction,ComponentPad*
%ADD28R,2.625000X2.625000*%
G04 #@! TD*
G04 #@! TA.AperFunction,ComponentPad*
%ADD29C,2.625000*%
G04 #@! TD*
G04 #@! TA.AperFunction,SMDPad,CuDef*
%ADD30R,1.000000X1.600000*%
G04 #@! TD*
G04 #@! TA.AperFunction,SMDPad,CuDef*
%ADD31R,2.159000X1.778000*%
G04 #@! TD*
G04 #@! TA.AperFunction,SMDPad,CuDef*
%ADD32R,2.500000X0.900000*%
G04 #@! TD*
G04 #@! TA.AperFunction,SMDPad,CuDef*
%ADD33R,1.000000X3.200000*%
G04 #@! TD*
G04 #@! TA.AperFunction,SMDPad,CuDef*
%ADD34R,2.000000X1.200000*%
G04 #@! TD*
G04 #@! TA.AperFunction,SMDPad,CuDef*
%ADD35R,0.650000X1.560000*%
G04 #@! TD*
G04 #@! TA.AperFunction,SMDPad,CuDef*
%ADD36R,1.780000X3.500000*%
G04 #@! TD*
G04 #@! TA.AperFunction,ViaPad*
%ADD37C,0.609600*%
G04 #@! TD*
G04 #@! TA.AperFunction,Conductor*
%ADD38C,0.254000*%
G04 #@! TD*
G04 #@! TA.AperFunction,Conductor*
%ADD39C,0.152400*%
G04 #@! TD*
G04 #@! TA.AperFunction,Conductor*
%ADD40C,0.508000*%
G04 #@! TD*
G04 #@! TA.AperFunction,Conductor*
%ADD41C,0.381000*%
G04 #@! TD*
G04 APERTURE END LIST*
D10*
G04 #@! TO.P,R15,2*
G04 #@! TO.N,/RESET*
X184780000Y-100500000D03*
G04 #@! TO.P,R15,1*
G04 #@! TO.N,VCC*
X182880000Y-100500000D03*
G04 #@! TD*
D11*
G04 #@! TO.P,R3,1*
G04 #@! TO.N,VCC*
X182460000Y-98290000D03*
G04 #@! TO.P,R3,2*
G04 #@! TO.N,Net-(IC1-Pad29)*
X182460000Y-96390000D03*
G04 #@! TD*
D12*
G04 #@! TO.P,C1,2*
G04 #@! TO.N,GND*
X201150000Y-97110000D03*
G04 #@! TO.P,C1,1*
G04 #@! TO.N,Net-(C1-Pad1)*
X199150000Y-97110000D03*
G04 #@! TD*
D13*
G04 #@! TO.P,C2,2*
G04 #@! TO.N,VCC*
X207850000Y-98900000D03*
G04 #@! TO.P,C2,1*
G04 #@! TO.N,GND*
X207850000Y-96900000D03*
G04 #@! TD*
G04 #@! TO.P,C3,2*
G04 #@! TO.N,GND*
X188572140Y-131789680D03*
G04 #@! TO.P,C3,1*
G04 #@! TO.N,Net-(C3-Pad1)*
X188572140Y-129789680D03*
G04 #@! TD*
D12*
G04 #@! TO.P,C4,1*
G04 #@! TO.N,Net-(C4-Pad1)*
X201050000Y-103040000D03*
G04 #@! TO.P,C4,2*
G04 #@! TO.N,GND*
X199050000Y-103040000D03*
G04 #@! TD*
G04 #@! TO.P,C5,1*
G04 #@! TO.N,GND*
X184885840Y-63110000D03*
G04 #@! TO.P,C5,2*
G04 #@! TO.N,VCC*
X182885840Y-63110000D03*
G04 #@! TD*
D13*
G04 #@! TO.P,C6,2*
G04 #@! TO.N,GND*
X192850000Y-110220000D03*
G04 #@! TO.P,C6,1*
G04 #@! TO.N,VCC*
X192850000Y-112220000D03*
G04 #@! TD*
G04 #@! TO.P,C7,1*
G04 #@! TO.N,Net-(C3-Pad1)*
X190469520Y-129800600D03*
G04 #@! TO.P,C7,2*
G04 #@! TO.N,GND*
X190469520Y-131800600D03*
G04 #@! TD*
D12*
G04 #@! TO.P,C8,1*
G04 #@! TO.N,VCC*
X199490000Y-93490000D03*
G04 #@! TO.P,C8,2*
G04 #@! TO.N,GND*
X201490000Y-93490000D03*
G04 #@! TD*
G04 #@! TO.P,C9,1*
G04 #@! TO.N,VCC*
X191811760Y-104159200D03*
G04 #@! TO.P,C9,2*
G04 #@! TO.N,GND*
X193811760Y-104159200D03*
G04 #@! TD*
G04 #@! TO.P,C10,2*
G04 #@! TO.N,GND*
X193780000Y-90520000D03*
G04 #@! TO.P,C10,1*
G04 #@! TO.N,Net-(C10-Pad1)*
X195780000Y-90520000D03*
G04 #@! TD*
D14*
G04 #@! TO.P,D3,2*
G04 #@! TO.N,/P_LED_1*
X205270000Y-128240000D03*
G04 #@! TO.P,D3,1*
G04 #@! TO.N,Net-(D3-Pad1)*
X205270000Y-130440000D03*
G04 #@! TD*
D15*
G04 #@! TO.P,IC1,1*
G04 #@! TO.N,/MISO*
X189997280Y-101962680D03*
G04 #@! TO.P,IC1,2*
G04 #@! TO.N,/MOSI*
X190797280Y-101962680D03*
G04 #@! TO.P,IC1,3*
G04 #@! TO.N,Net-(IC1-Pad3)*
X191597280Y-101962680D03*
G04 #@! TO.P,IC1,4*
G04 #@! TO.N,VCC*
X192397280Y-101962680D03*
G04 #@! TO.P,IC1,5*
G04 #@! TO.N,GND*
X193197280Y-101962680D03*
G04 #@! TO.P,IC1,6*
G04 #@! TO.N,/TXCAN*
X193997280Y-101962680D03*
G04 #@! TO.P,IC1,7*
G04 #@! TO.N,/RXCAN*
X194797280Y-101962680D03*
G04 #@! TO.P,IC1,8*
G04 #@! TO.N,Net-(IC1-Pad8)*
X195597280Y-101962680D03*
D16*
G04 #@! TO.P,IC1,9*
G04 #@! TO.N,Net-(IC1-Pad9)*
X197047280Y-100512680D03*
G04 #@! TO.P,IC1,10*
G04 #@! TO.N,Net-(C4-Pad1)*
X197047280Y-99712680D03*
G04 #@! TO.P,IC1,11*
G04 #@! TO.N,Net-(C1-Pad1)*
X197047280Y-98912680D03*
G04 #@! TO.P,IC1,12*
G04 #@! TO.N,/SCK*
X197047280Y-98112680D03*
G04 #@! TO.P,IC1,13*
G04 #@! TO.N,Net-(IC1-Pad13)*
X197047280Y-97312680D03*
G04 #@! TO.P,IC1,14*
G04 #@! TO.N,/BRAKETEMP*
X197047280Y-96512680D03*
G04 #@! TO.P,IC1,15*
G04 #@! TO.N,/HSENSOR*
X197047280Y-95712680D03*
G04 #@! TO.P,IC1,16*
G04 #@! TO.N,/P_LED_1*
X197047280Y-94912680D03*
D15*
G04 #@! TO.P,IC1,17*
G04 #@! TO.N,Net-(IC1-Pad17)*
X195597280Y-93462680D03*
G04 #@! TO.P,IC1,18*
G04 #@! TO.N,Net-(IC1-Pad18)*
X194797280Y-93462680D03*
G04 #@! TO.P,IC1,19*
G04 #@! TO.N,Net-(C10-Pad1)*
X193997280Y-93462680D03*
G04 #@! TO.P,IC1,20*
G04 #@! TO.N,GND*
X193197280Y-93462680D03*
G04 #@! TO.P,IC1,21*
G04 #@! TO.N,Net-(IC1-Pad21)*
X192397280Y-93462680D03*
G04 #@! TO.P,IC1,22*
G04 #@! TO.N,/POT_SIGNAL*
X191597280Y-93462680D03*
G04 #@! TO.P,IC1,23*
G04 #@! TO.N,/NEO_PIXEL*
X190797280Y-93462680D03*
G04 #@! TO.P,IC1,24*
G04 #@! TO.N,Net-(IC1-Pad24)*
X189997280Y-93462680D03*
D16*
G04 #@! TO.P,IC1,25*
G04 #@! TO.N,Net-(IC1-Pad25)*
X188547280Y-94912680D03*
G04 #@! TO.P,IC1,26*
G04 #@! TO.N,Net-(IC1-Pad26)*
X188547280Y-95712680D03*
G04 #@! TO.P,IC1,27*
G04 #@! TO.N,Net-(IC1-Pad27)*
X188547280Y-96512680D03*
G04 #@! TO.P,IC1,28*
G04 #@! TO.N,Net-(IC1-Pad28)*
X188547280Y-97312680D03*
G04 #@! TO.P,IC1,29*
G04 #@! TO.N,Net-(IC1-Pad29)*
X188547280Y-98112680D03*
G04 #@! TO.P,IC1,30*
G04 #@! TO.N,Net-(IC1-Pad30)*
X188547280Y-98912680D03*
G04 #@! TO.P,IC1,31*
G04 #@! TO.N,/RESET*
X188547280Y-99712680D03*
G04 #@! TO.P,IC1,32*
G04 #@! TO.N,Net-(IC1-Pad32)*
X188547280Y-100512680D03*
G04 #@! TD*
D11*
G04 #@! TO.P,R1,1*
G04 #@! TO.N,Net-(D3-Pad1)*
X207250000Y-128780000D03*
G04 #@! TO.P,R1,2*
G04 #@! TO.N,GND*
X207250000Y-130680000D03*
G04 #@! TD*
D10*
G04 #@! TO.P,R2,2*
G04 #@! TO.N,Net-(R2-Pad2)*
X182850000Y-54750000D03*
G04 #@! TO.P,R2,1*
G04 #@! TO.N,/NEO_PIXEL*
X184750000Y-54750000D03*
G04 #@! TD*
D11*
G04 #@! TO.P,R4,2*
G04 #@! TO.N,Net-(IC1-Pad29)*
X184839920Y-98289960D03*
G04 #@! TO.P,R4,1*
G04 #@! TO.N,GND*
X184839920Y-96389960D03*
G04 #@! TD*
D17*
G04 #@! TO.N,Net-(R10-Pad1)*
G04 #@! TO.C,R10*
G36*
X199427691Y-87521053D02*
X199448926Y-87524203D01*
X199469750Y-87529419D01*
X199489962Y-87536651D01*
X199509368Y-87545830D01*
X199527781Y-87556866D01*
X199545024Y-87569654D01*
X199560930Y-87584070D01*
X199575346Y-87599976D01*
X199588134Y-87617219D01*
X199599170Y-87635632D01*
X199608349Y-87655038D01*
X199615581Y-87675250D01*
X199620797Y-87696074D01*
X199623947Y-87717309D01*
X199625000Y-87738750D01*
X199625000Y-88176250D01*
X199623947Y-88197691D01*
X199620797Y-88218926D01*
X199615581Y-88239750D01*
X199608349Y-88259962D01*
X199599170Y-88279368D01*
X199588134Y-88297781D01*
X199575346Y-88315024D01*
X199560930Y-88330930D01*
X199545024Y-88345346D01*
X199527781Y-88358134D01*
X199509368Y-88369170D01*
X199489962Y-88378349D01*
X199469750Y-88385581D01*
X199448926Y-88390797D01*
X199427691Y-88393947D01*
X199406250Y-88395000D01*
X198893750Y-88395000D01*
X198872309Y-88393947D01*
X198851074Y-88390797D01*
X198830250Y-88385581D01*
X198810038Y-88378349D01*
X198790632Y-88369170D01*
X198772219Y-88358134D01*
X198754976Y-88345346D01*
X198739070Y-88330930D01*
X198724654Y-88315024D01*
X198711866Y-88297781D01*
X198700830Y-88279368D01*
X198691651Y-88259962D01*
X198684419Y-88239750D01*
X198679203Y-88218926D01*
X198676053Y-88197691D01*
X198675000Y-88176250D01*
X198675000Y-87738750D01*
X198676053Y-87717309D01*
X198679203Y-87696074D01*
X198684419Y-87675250D01*
X198691651Y-87655038D01*
X198700830Y-87635632D01*
X198711866Y-87617219D01*
X198724654Y-87599976D01*
X198739070Y-87584070D01*
X198754976Y-87569654D01*
X198772219Y-87556866D01*
X198790632Y-87545830D01*
X198810038Y-87536651D01*
X198830250Y-87529419D01*
X198851074Y-87524203D01*
X198872309Y-87521053D01*
X198893750Y-87520000D01*
X199406250Y-87520000D01*
X199427691Y-87521053D01*
X199427691Y-87521053D01*
G37*
D18*
G04 #@! TD*
G04 #@! TO.P,R10,1*
G04 #@! TO.N,Net-(R10-Pad1)*
X199150000Y-87957500D03*
D17*
G04 #@! TO.N,/POT_SIGNAL*
G04 #@! TO.C,R10*
G36*
X199427691Y-85946053D02*
X199448926Y-85949203D01*
X199469750Y-85954419D01*
X199489962Y-85961651D01*
X199509368Y-85970830D01*
X199527781Y-85981866D01*
X199545024Y-85994654D01*
X199560930Y-86009070D01*
X199575346Y-86024976D01*
X199588134Y-86042219D01*
X199599170Y-86060632D01*
X199608349Y-86080038D01*
X199615581Y-86100250D01*
X199620797Y-86121074D01*
X199623947Y-86142309D01*
X199625000Y-86163750D01*
X199625000Y-86601250D01*
X199623947Y-86622691D01*
X199620797Y-86643926D01*
X199615581Y-86664750D01*
X199608349Y-86684962D01*
X199599170Y-86704368D01*
X199588134Y-86722781D01*
X199575346Y-86740024D01*
X199560930Y-86755930D01*
X199545024Y-86770346D01*
X199527781Y-86783134D01*
X199509368Y-86794170D01*
X199489962Y-86803349D01*
X199469750Y-86810581D01*
X199448926Y-86815797D01*
X199427691Y-86818947D01*
X199406250Y-86820000D01*
X198893750Y-86820000D01*
X198872309Y-86818947D01*
X198851074Y-86815797D01*
X198830250Y-86810581D01*
X198810038Y-86803349D01*
X198790632Y-86794170D01*
X198772219Y-86783134D01*
X198754976Y-86770346D01*
X198739070Y-86755930D01*
X198724654Y-86740024D01*
X198711866Y-86722781D01*
X198700830Y-86704368D01*
X198691651Y-86684962D01*
X198684419Y-86664750D01*
X198679203Y-86643926D01*
X198676053Y-86622691D01*
X198675000Y-86601250D01*
X198675000Y-86163750D01*
X198676053Y-86142309D01*
X198679203Y-86121074D01*
X198684419Y-86100250D01*
X198691651Y-86080038D01*
X198700830Y-86060632D01*
X198711866Y-86042219D01*
X198724654Y-86024976D01*
X198739070Y-86009070D01*
X198754976Y-85994654D01*
X198772219Y-85981866D01*
X198790632Y-85970830D01*
X198810038Y-85961651D01*
X198830250Y-85954419D01*
X198851074Y-85949203D01*
X198872309Y-85946053D01*
X198893750Y-85945000D01*
X199406250Y-85945000D01*
X199427691Y-85946053D01*
X199427691Y-85946053D01*
G37*
D18*
G04 #@! TD*
G04 #@! TO.P,R10,2*
G04 #@! TO.N,/POT_SIGNAL*
X199150000Y-86382500D03*
D11*
G04 #@! TO.P,R11,1*
G04 #@! TO.N,/POT_SIGNAL*
X201340000Y-88040000D03*
G04 #@! TO.P,R11,2*
G04 #@! TO.N,GND*
X201340000Y-86140000D03*
G04 #@! TD*
G04 #@! TO.P,R13,2*
G04 #@! TO.N,/CANL*
X202547680Y-112079440D03*
G04 #@! TO.P,R13,1*
G04 #@! TO.N,/CANH*
X202547680Y-110179440D03*
G04 #@! TD*
D10*
G04 #@! TO.P,R14,1*
G04 #@! TO.N,VCC*
X193820000Y-88600000D03*
G04 #@! TO.P,R14,2*
G04 #@! TO.N,Net-(C10-Pad1)*
X195720000Y-88600000D03*
G04 #@! TD*
D19*
G04 #@! TO.P,U1,1*
G04 #@! TO.N,/TXCAN*
X194940400Y-109234600D03*
G04 #@! TO.P,U1,2*
G04 #@! TO.N,GND*
X194940400Y-110504600D03*
G04 #@! TO.P,U1,3*
G04 #@! TO.N,VCC*
X194940400Y-111774600D03*
G04 #@! TO.P,U1,4*
G04 #@! TO.N,/RXCAN*
X194940400Y-113044600D03*
G04 #@! TO.P,U1,5*
G04 #@! TO.N,Net-(U1-Pad5)*
X200340400Y-113044600D03*
G04 #@! TO.P,U1,6*
G04 #@! TO.N,/CANL*
X200340400Y-111774600D03*
G04 #@! TO.P,U1,7*
G04 #@! TO.N,/CANH*
X200340400Y-110504600D03*
G04 #@! TO.P,U1,8*
G04 #@! TO.N,GND*
X200340400Y-109234600D03*
G04 #@! TD*
D20*
G04 #@! TO.P,U3,5*
G04 #@! TO.N,VCC*
X199229600Y-90657600D03*
G04 #@! TO.P,U3,6*
G04 #@! TO.N,N/C*
X199229600Y-91607600D03*
G04 #@! TO.P,U3,4*
G04 #@! TO.N,Net-(R10-Pad1)*
X199229600Y-89707600D03*
G04 #@! TO.P,U3,3*
G04 #@! TO.N,/POT_SIGNAL*
X201429600Y-89707600D03*
G04 #@! TO.P,U3,2*
G04 #@! TO.N,GND*
X201429600Y-90657600D03*
G04 #@! TO.P,U3,1*
G04 #@! TO.N,/POT*
X201429600Y-91607600D03*
G04 #@! TD*
D21*
G04 #@! TO.P,U7,1*
G04 #@! TO.N,GND*
X186776520Y-56840240D03*
G04 #@! TO.P,U7,2*
G04 #@! TO.N,Net-(R2-Pad2)*
X182976520Y-56840240D03*
G04 #@! TO.P,U7,4*
G04 #@! TO.N,Net-(U7-Pad4)*
X186776520Y-61240240D03*
G04 #@! TO.P,U7,3*
G04 #@! TO.N,VCC*
X182976520Y-61240240D03*
G04 #@! TD*
D22*
G04 #@! TO.P,U8,6*
G04 #@! TO.N,GND*
X197938560Y-136149080D03*
X203738560Y-136149080D03*
D23*
X204338560Y-136149080D03*
X197338560Y-136149080D03*
D24*
X199838560Y-136149080D03*
D25*
X203338560Y-133449080D03*
D26*
G04 #@! TO.P,U8,3*
G04 #@! TO.N,/MISO*
X200838560Y-133449080D03*
G04 #@! TO.P,U8,4*
G04 #@! TO.N,/RESET*
X201488560Y-133449080D03*
G04 #@! TO.P,U8,5*
G04 #@! TO.N,/MOSI*
X202138560Y-133449080D03*
G04 #@! TO.P,U8,1*
G04 #@! TO.N,VCC*
X199538560Y-133449080D03*
G04 #@! TO.P,U8,2*
G04 #@! TO.N,/SCK*
X200188560Y-133449080D03*
D25*
G04 #@! TO.P,U8,6*
G04 #@! TO.N,GND*
X198338560Y-133449080D03*
D24*
X201838560Y-136149080D03*
G04 #@! TD*
D27*
G04 #@! TO.P,Y1,1*
G04 #@! TO.N,Net-(C1-Pad1)*
X199259240Y-99017880D03*
G04 #@! TO.P,Y1,2*
G04 #@! TO.N,GND*
X199259240Y-101217880D03*
G04 #@! TO.P,Y1,3*
G04 #@! TO.N,Net-(C4-Pad1)*
X200859240Y-101217880D03*
G04 #@! TO.P,Y1,4*
G04 #@! TO.N,GND*
X200859240Y-99017880D03*
G04 #@! TD*
D28*
G04 #@! TO.P,J1,1*
G04 #@! TO.N,GND*
X211561680Y-115666520D03*
D29*
G04 #@! TO.P,J1,5*
G04 #@! TO.N,/CANH*
X211561680Y-99666520D03*
G04 #@! TO.P,J1,6*
G04 #@! TO.N,/BRAKETEMP*
X211561680Y-95666520D03*
G04 #@! TO.P,J1,7*
G04 #@! TO.N,/HSENSOR*
X211561680Y-91666520D03*
G04 #@! TO.P,J1,8*
G04 #@! TO.N,/POT*
X211561680Y-87666520D03*
G04 #@! TO.P,J1,13*
G04 #@! TO.N,VCC*
X215561680Y-113666520D03*
G04 #@! TO.P,J1,14*
G04 #@! TO.N,GND*
X215561680Y-109666520D03*
G04 #@! TO.P,J1,15*
X215561680Y-105666520D03*
G04 #@! TO.P,J1,16*
G04 #@! TO.N,/CANL*
X215561680Y-101666520D03*
G04 #@! TO.P,J1,25*
G04 #@! TO.N,Net-(J1-Pad25)*
X219561680Y-111666520D03*
G04 #@! TO.P,J1,26*
G04 #@! TO.N,Net-(J1-Pad26)*
X219561680Y-107666520D03*
G04 #@! TO.P,J1,27*
G04 #@! TO.N,Net-(J1-Pad27)*
X219561680Y-103666520D03*
G04 #@! TO.P,J1,28*
G04 #@! TO.N,Net-(J1-Pad28)*
X219561680Y-99666520D03*
G04 #@! TO.P,J1,29*
G04 #@! TO.N,Net-(J1-Pad29)*
X219561680Y-95666520D03*
G04 #@! TO.P,J1,9*
G04 #@! TO.N,Net-(J1-Pad9)*
X211561680Y-83666520D03*
G04 #@! TO.P,J1,10*
G04 #@! TO.N,Net-(J1-Pad10)*
X211561680Y-79666520D03*
G04 #@! TO.P,J1,11*
G04 #@! TO.N,Net-(J1-Pad11)*
X211561680Y-75666520D03*
G04 #@! TO.P,J1,3*
G04 #@! TO.N,/12V*
X211561680Y-107666520D03*
G04 #@! TO.P,J1,2*
X211561680Y-111666520D03*
G04 #@! TO.P,J1,4*
G04 #@! TO.N,/CANL*
X211561680Y-103666520D03*
G04 #@! TO.P,J1,12*
G04 #@! TO.N,GND*
X211561680Y-71666520D03*
G04 #@! TO.P,J1,17*
G04 #@! TO.N,/CANH*
X215561680Y-97666520D03*
G04 #@! TO.P,J1,19*
G04 #@! TO.N,VCC*
X215561680Y-89666520D03*
G04 #@! TO.P,J1,18*
X215561680Y-93666520D03*
G04 #@! TO.P,J1,20*
X215561680Y-85666520D03*
G04 #@! TO.P,J1,21*
X215561680Y-81666520D03*
G04 #@! TO.P,J1,22*
G04 #@! TO.N,Net-(J1-Pad22)*
X215561680Y-77666520D03*
G04 #@! TO.P,J1,23*
G04 #@! TO.N,Net-(J1-Pad23)*
X215561680Y-73666520D03*
G04 #@! TO.P,J1,24*
G04 #@! TO.N,Net-(J1-Pad24)*
X219561680Y-115666520D03*
G04 #@! TO.P,J1,30*
G04 #@! TO.N,GND*
X219561680Y-91666520D03*
G04 #@! TO.P,J1,31*
X219561680Y-87666520D03*
G04 #@! TO.P,J1,32*
X219561680Y-83666520D03*
G04 #@! TO.P,J1,33*
X219561680Y-79666520D03*
G04 #@! TO.P,J1,34*
X219561680Y-75666520D03*
G04 #@! TO.P,J1,35*
X219561680Y-71666520D03*
G04 #@! TD*
D11*
G04 #@! TO.P,R5,2*
G04 #@! TO.N,Net-(IC1-Pad32)*
X182610000Y-104670000D03*
G04 #@! TO.P,R5,1*
G04 #@! TO.N,VCC*
X182610000Y-102770000D03*
G04 #@! TD*
G04 #@! TO.P,R6,1*
G04 #@! TO.N,Net-(IC1-Pad32)*
X184810000Y-102770000D03*
G04 #@! TO.P,R6,2*
G04 #@! TO.N,GND*
X184810000Y-104670000D03*
G04 #@! TD*
D13*
G04 #@! TO.P,C11,2*
G04 #@! TO.N,Net-(C11-Pad2)*
X182810000Y-131720000D03*
G04 #@! TO.P,C11,1*
G04 #@! TO.N,Net-(C11-Pad1)*
X182810000Y-133720000D03*
G04 #@! TD*
D30*
G04 #@! TO.P,C12,1*
G04 #@! TO.N,Net-(C12-Pad1)*
X182837960Y-119862600D03*
G04 #@! TO.P,C12,2*
G04 #@! TO.N,GND*
X185837960Y-119862600D03*
G04 #@! TD*
D12*
G04 #@! TO.P,C14,1*
G04 #@! TO.N,Net-(C12-Pad1)*
X182850000Y-117820000D03*
G04 #@! TO.P,C14,2*
G04 #@! TO.N,GND*
X184850000Y-117820000D03*
G04 #@! TD*
D31*
G04 #@! TO.P,D1,2*
G04 #@! TO.N,GND*
X194430000Y-121366000D03*
G04 #@! TO.P,D1,1*
G04 #@! TO.N,/12V*
X194430000Y-125430000D03*
G04 #@! TD*
D14*
G04 #@! TO.P,D2,1*
G04 #@! TO.N,GND*
X194500000Y-133650000D03*
G04 #@! TO.P,D2,2*
G04 #@! TO.N,Net-(D2-Pad2)*
X194500000Y-131450000D03*
G04 #@! TD*
G04 #@! TO.P,D4,2*
G04 #@! TO.N,Net-(D4-Pad2)*
X210760000Y-133360000D03*
G04 #@! TO.P,D4,1*
G04 #@! TO.N,GND*
X208560000Y-133360000D03*
G04 #@! TD*
D32*
G04 #@! TO.P,F1,1*
G04 #@! TO.N,Net-(C3-Pad1)*
X191150000Y-128120000D03*
G04 #@! TO.P,F1,2*
G04 #@! TO.N,/12V*
X191150000Y-125220000D03*
G04 #@! TD*
D11*
G04 #@! TO.P,R7,1*
G04 #@! TO.N,Net-(C3-Pad1)*
X194500000Y-127910000D03*
G04 #@! TO.P,R7,2*
G04 #@! TO.N,Net-(D2-Pad2)*
X194500000Y-129810000D03*
G04 #@! TD*
D10*
G04 #@! TO.P,R8,2*
G04 #@! TO.N,GND*
X188880000Y-135490000D03*
G04 #@! TO.P,R8,1*
G04 #@! TO.N,Net-(R8-Pad1)*
X186980000Y-135490000D03*
G04 #@! TD*
G04 #@! TO.P,R9,1*
G04 #@! TO.N,Net-(C12-Pad1)*
X183730000Y-135490000D03*
G04 #@! TO.P,R9,2*
G04 #@! TO.N,Net-(R8-Pad1)*
X185630000Y-135490000D03*
G04 #@! TD*
D33*
G04 #@! TO.P,R12,1*
G04 #@! TO.N,VCC*
X188951800Y-114292380D03*
G04 #@! TO.P,R12,2*
G04 #@! TO.N,Net-(C12-Pad1)*
X182751800Y-114292380D03*
G04 #@! TD*
D10*
G04 #@! TO.P,R16,2*
G04 #@! TO.N,Net-(D4-Pad2)*
X214410000Y-133390000D03*
G04 #@! TO.P,R16,1*
G04 #@! TO.N,VCC*
X212510000Y-133390000D03*
G04 #@! TD*
D34*
G04 #@! TO.P,L1,2*
G04 #@! TO.N,Net-(C12-Pad1)*
X182450000Y-126880000D03*
G04 #@! TO.P,L1,1*
G04 #@! TO.N,Net-(C11-Pad2)*
X182450000Y-130080000D03*
G04 #@! TD*
D35*
G04 #@! TO.P,U2,5*
G04 #@! TO.N,Net-(C3-Pad1)*
X185707020Y-130097540D03*
G04 #@! TO.P,U2,6*
G04 #@! TO.N,Net-(C11-Pad2)*
X184757020Y-130097540D03*
G04 #@! TO.P,U2,4*
G04 #@! TO.N,Net-(C3-Pad1)*
X186657020Y-130097540D03*
G04 #@! TO.P,U2,3*
G04 #@! TO.N,Net-(R8-Pad1)*
X186657020Y-132797540D03*
G04 #@! TO.P,U2,2*
G04 #@! TO.N,GND*
X185707020Y-132797540D03*
G04 #@! TO.P,U2,1*
G04 #@! TO.N,Net-(C11-Pad1)*
X184757020Y-132797540D03*
G04 #@! TD*
D36*
G04 #@! TO.P,C13,2*
G04 #@! TO.N,GND*
X187718040Y-123576080D03*
G04 #@! TO.P,C13,1*
G04 #@! TO.N,Net-(C12-Pad1)*
X182438040Y-123576080D03*
G04 #@! TD*
D37*
G04 #@! TO.N,VCC*
X195380000Y-95010000D03*
X196720000Y-93690000D03*
X198920000Y-122740000D03*
X198920000Y-125230000D03*
X194250000Y-106460000D03*
X197880000Y-106470000D03*
G04 #@! TO.N,GND*
X192760000Y-90540000D03*
X189720000Y-136290000D03*
X191460000Y-136320000D03*
X193420000Y-136320000D03*
X194650000Y-135680000D03*
X186950000Y-117700000D03*
X189240000Y-117700000D03*
X192140000Y-117630000D03*
X194830000Y-117960000D03*
X194850000Y-119250000D03*
X192000000Y-120650000D03*
X189550000Y-122170000D03*
X189440000Y-133170000D03*
X192390000Y-133190000D03*
X200610000Y-108380000D03*
X199020000Y-104140000D03*
X185520000Y-95410000D03*
X185960000Y-104590000D03*
X186140000Y-63080000D03*
X202410000Y-97930000D03*
X193800000Y-105400000D03*
X202760000Y-93450000D03*
X202910000Y-90650000D03*
X192880000Y-109200000D03*
X202750000Y-86110000D03*
X209100000Y-96840000D03*
G04 #@! TO.N,/P_LED_1*
X195190000Y-100130000D03*
X196980000Y-101880000D03*
X202520000Y-119030000D03*
X203780000Y-120210000D03*
G04 #@! TO.N,/MISO*
X192670615Y-114283400D03*
X190930000Y-112810000D03*
G04 #@! TO.N,/MOSI*
X193350000Y-113750000D03*
X191600000Y-113280000D03*
G04 #@! TO.N,/SCK*
X200372355Y-118672355D03*
X200370000Y-121180000D03*
G04 #@! TO.N,/RESET*
X201490000Y-130590000D03*
X201170000Y-129080000D03*
X191950092Y-114700092D03*
X190432081Y-113590726D03*
G04 #@! TO.N,/12V*
X202390000Y-120420000D03*
X200470000Y-122330000D03*
G04 #@! TO.N,Net-(D4-Pad2)*
X211240000Y-132000000D03*
X214000000Y-131960000D03*
G04 #@! TD*
D38*
G04 #@! TO.N,VCC*
X192397280Y-103573680D02*
X192397280Y-101962680D01*
X191811760Y-104159200D02*
X192397280Y-103573680D01*
D39*
X182610000Y-100770000D02*
X182880000Y-100500000D01*
X182610000Y-102770000D02*
X182610000Y-100770000D01*
X182880000Y-98710000D02*
X182460000Y-98290000D01*
X182880000Y-100500000D02*
X182880000Y-98710000D01*
D40*
X182885840Y-61330920D02*
X182976520Y-61240240D01*
X182885840Y-63110000D02*
X182885840Y-61330920D01*
D38*
X192850000Y-112220000D02*
X192880000Y-112220000D01*
X193325400Y-111774600D02*
X194940400Y-111774600D01*
X192880000Y-112220000D02*
X193325400Y-111774600D01*
X192850000Y-112974000D02*
X192850000Y-112220000D01*
X188951800Y-114292380D02*
X191531620Y-114292380D01*
X199290000Y-93690000D02*
X199490000Y-93490000D01*
X196720000Y-93690000D02*
X199290000Y-93690000D01*
D41*
X182885840Y-64116000D02*
X180950000Y-66051840D01*
X182885840Y-63110000D02*
X182885840Y-64116000D01*
X180950000Y-103399000D02*
X180950000Y-103570000D01*
X181579000Y-102770000D02*
X180950000Y-103399000D01*
X182610000Y-102770000D02*
X181579000Y-102770000D01*
X180950000Y-66051840D02*
X180950000Y-103570000D01*
X188951800Y-113192380D02*
X188951800Y-114292380D01*
X180950000Y-105190580D02*
X188951800Y-113192380D01*
X180950000Y-103570000D02*
X180950000Y-105190580D01*
D38*
X192397280Y-101962680D02*
X192397280Y-101184758D01*
X195180000Y-95370000D02*
X195490000Y-95060000D01*
X196720000Y-92383200D02*
X196720000Y-92650000D01*
X198445600Y-90657600D02*
X196720000Y-92383200D01*
X199229600Y-90657600D02*
X198445600Y-90657600D01*
X196720000Y-93690000D02*
X196720000Y-92650000D01*
X193820000Y-87696000D02*
X194126000Y-87390000D01*
X193820000Y-88600000D02*
X193820000Y-87696000D01*
X196240000Y-87390000D02*
X196720000Y-87870000D01*
X194126000Y-87390000D02*
X196240000Y-87390000D01*
X196720000Y-88000000D02*
X196720000Y-87870000D01*
X196720000Y-92650000D02*
X196720000Y-88000000D01*
X192564000Y-113260000D02*
X192850000Y-112974000D01*
X191531620Y-114292380D02*
X192564000Y-113260000D01*
X192397280Y-98152720D02*
X195490000Y-95060000D01*
X192397280Y-101962680D02*
X192397280Y-98152720D01*
X215561680Y-81666520D02*
X215561680Y-85666520D01*
X215561680Y-87522675D02*
X215561680Y-89666520D01*
X215561680Y-85666520D02*
X215561680Y-87522675D01*
X215561680Y-91522675D02*
X215561680Y-93666520D01*
X215561680Y-89666520D02*
X215561680Y-91522675D01*
X215561680Y-93666520D02*
X217460000Y-95564840D01*
X217460000Y-111768200D02*
X215561680Y-113666520D01*
X217460000Y-95564840D02*
X217460000Y-111768200D01*
X192725000Y-112220000D02*
X191811760Y-111306760D01*
X191811760Y-105038200D02*
X191811760Y-104159200D01*
X192850000Y-112220000D02*
X192725000Y-112220000D01*
X189705800Y-114292380D02*
X191273420Y-115860000D01*
X188951800Y-114292380D02*
X189705800Y-114292380D01*
X191273420Y-115860000D02*
X194940000Y-115860000D01*
X198920000Y-119840000D02*
X198920000Y-122740000D01*
X194940000Y-115860000D02*
X198920000Y-119840000D01*
X199538560Y-125848560D02*
X199538560Y-133449080D01*
X198920000Y-125230000D02*
X199538560Y-125848560D01*
X199538560Y-134378080D02*
X199770480Y-134610000D01*
X199538560Y-133449080D02*
X199538560Y-134378080D01*
X212510000Y-133690000D02*
X212510000Y-133390000D01*
X211590000Y-134610000D02*
X212510000Y-133690000D01*
X199770480Y-134610000D02*
X211590000Y-134610000D01*
X212510000Y-133390000D02*
X212510000Y-120900000D01*
X215561680Y-117848320D02*
X215561680Y-113666520D01*
X212510000Y-120900000D02*
X215561680Y-117848320D01*
X191811760Y-108690000D02*
X191811760Y-105038200D01*
X191811760Y-108910000D02*
X191811760Y-108690000D01*
X191811760Y-111306760D02*
X191811760Y-108910000D01*
X191811760Y-108910000D02*
X191811760Y-108898240D01*
X191811760Y-108898240D02*
X194250000Y-106460000D01*
X215010000Y-94218200D02*
X215561680Y-93666520D01*
X215010000Y-95030000D02*
X215010000Y-94218200D01*
X212781579Y-97258421D02*
X215010000Y-95030000D01*
X211613765Y-97258421D02*
X212781579Y-97258421D01*
X198361052Y-106420000D02*
X202452186Y-106420000D01*
X198311052Y-106470000D02*
X198361052Y-106420000D01*
X197880000Y-106470000D02*
X198311052Y-106470000D01*
D39*
X209972186Y-98900000D02*
X210322186Y-98550000D01*
X207850000Y-98900000D02*
X209972186Y-98900000D01*
D38*
X210322186Y-98550000D02*
X211613765Y-97258421D01*
X202452186Y-106420000D02*
X210322186Y-98550000D01*
G04 #@! TO.N,GND*
X199050000Y-101427120D02*
X199259240Y-101217880D01*
X199050000Y-103040000D02*
X199050000Y-101427120D01*
X201150000Y-97110000D02*
X201150000Y-99410000D01*
X193197280Y-103544720D02*
X193197280Y-101962680D01*
X193811760Y-104159200D02*
X193197280Y-103544720D01*
X193197280Y-92408680D02*
X193197280Y-93462680D01*
X193197280Y-91981720D02*
X193197280Y-92408680D01*
X193780000Y-91399000D02*
X193197280Y-91981720D01*
X193780000Y-90520000D02*
X193780000Y-91399000D01*
X192780000Y-90520000D02*
X192760000Y-90540000D01*
X193780000Y-90520000D02*
X192780000Y-90520000D01*
X184885840Y-57776920D02*
X185822520Y-56840240D01*
X185822520Y-56840240D02*
X186776520Y-56840240D01*
X184885840Y-63110000D02*
X184885840Y-57776920D01*
X188920000Y-135490000D02*
X189720000Y-136290000D01*
X188880000Y-135490000D02*
X188920000Y-135490000D01*
X191460000Y-136320000D02*
X193420000Y-136320000D01*
X194650000Y-133800000D02*
X194500000Y-133650000D01*
X194650000Y-135680000D02*
X194650000Y-133800000D01*
X186830000Y-117820000D02*
X186950000Y-117700000D01*
X184850000Y-117820000D02*
X186830000Y-117820000D01*
X192070000Y-117700000D02*
X192140000Y-117630000D01*
X189240000Y-117700000D02*
X192070000Y-117700000D01*
X194830000Y-119230000D02*
X194850000Y-119250000D01*
X194830000Y-117960000D02*
X194830000Y-119230000D01*
X191070000Y-120650000D02*
X189550000Y-122170000D01*
X192000000Y-120650000D02*
X191070000Y-120650000D01*
X189550000Y-122601052D02*
X189550000Y-122170000D01*
X189550000Y-122888120D02*
X189550000Y-122601052D01*
X188862040Y-123576080D02*
X189550000Y-122888120D01*
X187718040Y-123576080D02*
X188862040Y-123576080D01*
X188572140Y-132302140D02*
X189440000Y-133170000D01*
X188572140Y-131789680D02*
X188572140Y-132302140D01*
X194040000Y-133190000D02*
X194500000Y-133650000D01*
X192390000Y-133190000D02*
X194040000Y-133190000D01*
X192850000Y-110220000D02*
X193320000Y-110220000D01*
X193604600Y-110504600D02*
X194940400Y-110504600D01*
X193320000Y-110220000D02*
X193604600Y-110504600D01*
D39*
X200340400Y-108649600D02*
X200610000Y-108380000D01*
X200340400Y-109234600D02*
X200340400Y-108649600D01*
X199050000Y-104110000D02*
X199020000Y-104140000D01*
X199050000Y-103040000D02*
X199050000Y-104110000D01*
X207250000Y-132802400D02*
X207807600Y-133360000D01*
X207807600Y-133360000D02*
X208560000Y-133360000D01*
X207250000Y-130680000D02*
X207250000Y-132802400D01*
X184839920Y-96090080D02*
X185520000Y-95410000D01*
X184839920Y-96389960D02*
X184839920Y-96090080D01*
X185880000Y-104670000D02*
X185960000Y-104590000D01*
X184810000Y-104670000D02*
X185880000Y-104670000D01*
X186110000Y-63110000D02*
X186140000Y-63080000D01*
X184885840Y-63110000D02*
X186110000Y-63110000D01*
D38*
X201590000Y-97110000D02*
X202410000Y-97930000D01*
X201150000Y-97110000D02*
X201590000Y-97110000D01*
X193811760Y-105388240D02*
X193800000Y-105400000D01*
X193811760Y-104159200D02*
X193811760Y-105388240D01*
D39*
X202720000Y-93490000D02*
X202760000Y-93450000D01*
X201490000Y-93490000D02*
X202720000Y-93490000D01*
X202902400Y-90657600D02*
X202910000Y-90650000D01*
X201429600Y-90657600D02*
X202902400Y-90657600D01*
D38*
X192850000Y-109230000D02*
X192880000Y-109200000D01*
X192850000Y-110220000D02*
X192850000Y-109230000D01*
D39*
X202720000Y-86140000D02*
X202750000Y-86110000D01*
X201340000Y-86140000D02*
X202720000Y-86140000D01*
X209040000Y-96900000D02*
X209100000Y-96840000D01*
X207850000Y-96900000D02*
X209040000Y-96900000D01*
G04 #@! TO.N,/P_LED_1*
X196094880Y-94912680D02*
X195913401Y-95094159D01*
X197047280Y-94912680D02*
X196094880Y-94912680D01*
X195913401Y-95266033D02*
X195520000Y-95659434D01*
X195913401Y-95094159D02*
X195913401Y-95266033D01*
X195190000Y-98586494D02*
X195190000Y-100130000D01*
X195520000Y-98256494D02*
X195190000Y-98586494D01*
X195520000Y-95659434D02*
X195520000Y-98256494D01*
X196980000Y-113490000D02*
X202520000Y-119030000D01*
X196980000Y-101880000D02*
X196980000Y-113490000D01*
X205270000Y-121700000D02*
X205270000Y-128240000D01*
X203780000Y-120210000D02*
X205270000Y-121700000D01*
G04 #@! TO.N,/MISO*
X200906599Y-132553641D02*
X200906599Y-130243401D01*
X200838560Y-132621680D02*
X200906599Y-132553641D01*
X200838560Y-133449080D02*
X200838560Y-132621680D01*
X200906599Y-130243401D02*
X201820000Y-129330000D01*
X201820000Y-129330000D02*
X201820000Y-121400000D01*
X201820000Y-121400000D02*
X201820000Y-121350000D01*
X201820000Y-121350000D02*
X194915074Y-114445074D01*
X192832289Y-114445074D02*
X192670615Y-114283400D01*
X194915074Y-114445074D02*
X192832289Y-114445074D01*
X189997280Y-102915080D02*
X189997280Y-101962680D01*
X189997280Y-110426254D02*
X189997280Y-102915080D01*
X190930000Y-111358974D02*
X189997280Y-110426254D01*
X190930000Y-112810000D02*
X190930000Y-111358974D01*
G04 #@! TO.N,/MOSI*
X194660566Y-113750000D02*
X193350000Y-113750000D01*
X202138560Y-121227994D02*
X194660566Y-113750000D01*
X202138560Y-133449080D02*
X202138560Y-121227994D01*
X190797280Y-110795188D02*
X190797280Y-102915080D01*
X190797280Y-102915080D02*
X190797280Y-101962680D01*
X191600000Y-111597908D02*
X190797280Y-110795188D01*
X191600000Y-113280000D02*
X191600000Y-111597908D01*
G04 #@! TO.N,/TXCAN*
X193997280Y-102649162D02*
X193997280Y-101962680D01*
X194940400Y-103592282D02*
X193997280Y-102649162D01*
X194940400Y-109234600D02*
X194940400Y-103592282D01*
G04 #@! TO.N,/RXCAN*
X195867800Y-113044600D02*
X196100000Y-112812400D01*
X194940400Y-113044600D02*
X195867800Y-113044600D01*
X196100000Y-108910000D02*
X195245210Y-108055210D01*
X196100000Y-112812400D02*
X196100000Y-108910000D01*
X194797280Y-102915080D02*
X194797280Y-101962680D01*
X195245210Y-103363010D02*
X194797280Y-102915080D01*
X195245210Y-108055210D02*
X195245210Y-103363010D01*
G04 #@! TO.N,/HSENSOR*
X197999680Y-95712680D02*
X198362360Y-95350000D01*
X197047280Y-95712680D02*
X197999680Y-95712680D01*
X207878200Y-95350000D02*
X211561680Y-91666520D01*
X198362360Y-95350000D02*
X207878200Y-95350000D01*
G04 #@! TO.N,/SCK*
X196404810Y-101356692D02*
X195770000Y-100721882D01*
X196404810Y-114704810D02*
X196404810Y-101356692D01*
X200372355Y-118672355D02*
X196404810Y-114704810D01*
X196094880Y-98112680D02*
X197047280Y-98112680D01*
X195770000Y-98437560D02*
X196094880Y-98112680D01*
X195770000Y-100721882D02*
X195770000Y-98437560D01*
X200188560Y-133449080D02*
X200188560Y-129001440D01*
X200188560Y-129001440D02*
X200208560Y-129001440D01*
X200208560Y-129001440D02*
X201160000Y-128050000D01*
X201160000Y-121970000D02*
X200370000Y-121180000D01*
X201160000Y-128050000D02*
X201160000Y-121970000D01*
G04 #@! TO.N,Net-(IC1-Pad29)*
X184037520Y-98289960D02*
X184839920Y-98289960D01*
X182460000Y-96892400D02*
X183857560Y-98289960D01*
X183857560Y-98289960D02*
X184037520Y-98289960D01*
X182460000Y-96390000D02*
X182460000Y-96892400D01*
X188370000Y-98289960D02*
X188547280Y-98112680D01*
X184839920Y-98289960D02*
X188370000Y-98289960D01*
G04 #@! TO.N,/RESET*
X187594880Y-99712680D02*
X188547280Y-99712680D01*
X186069720Y-99712680D02*
X187594880Y-99712680D01*
X185282400Y-100500000D02*
X186069720Y-99712680D01*
X184780000Y-100500000D02*
X185282400Y-100500000D01*
X201488560Y-130591440D02*
X201490000Y-130590000D01*
X201488560Y-133449080D02*
X201488560Y-130591440D01*
X201170000Y-128648948D02*
X201490000Y-128328948D01*
X201170000Y-129080000D02*
X201170000Y-128648948D01*
X201490000Y-128328948D02*
X201490000Y-121460000D01*
X201490000Y-121460000D02*
X201480000Y-121460000D01*
X192066801Y-114816801D02*
X191950092Y-114700092D01*
X194836801Y-114816801D02*
X192066801Y-114816801D01*
X201480000Y-121460000D02*
X194836801Y-114816801D01*
X189810000Y-100023000D02*
X189499680Y-99712680D01*
X189810000Y-100736442D02*
X189810000Y-100023000D01*
X190432081Y-113590726D02*
X190432081Y-113159674D01*
X189270000Y-111997593D02*
X189270000Y-101276442D01*
X190432081Y-113159674D02*
X189270000Y-111997593D01*
X189499680Y-99712680D02*
X188547280Y-99712680D01*
X189270000Y-101276442D02*
X189810000Y-100736442D01*
G04 #@! TO.N,Net-(IC1-Pad32)*
X184007600Y-102770000D02*
X184810000Y-102770000D01*
X182610000Y-104167600D02*
X184007600Y-102770000D01*
X182610000Y-104670000D02*
X182610000Y-104167600D01*
X188547280Y-100940080D02*
X188547280Y-100512680D01*
X186717360Y-102770000D02*
X188547280Y-100940080D01*
X184810000Y-102770000D02*
X186717360Y-102770000D01*
G04 #@! TO.N,/CANL*
X202242840Y-111774600D02*
X202547680Y-112079440D01*
X200340400Y-111774600D02*
X202242840Y-111774600D01*
X202847680Y-112079440D02*
X202547680Y-112079440D01*
X210458200Y-103666520D02*
X211079070Y-103666520D01*
X202547680Y-111577040D02*
X210458200Y-103666520D01*
X202547680Y-112079440D02*
X202547680Y-111577040D01*
X213705525Y-101666520D02*
X211974859Y-103397186D01*
X215561680Y-101666520D02*
X213705525Y-101666520D01*
G04 #@! TO.N,/CANH*
X202222520Y-110504600D02*
X202547680Y-110179440D01*
X200340400Y-110504600D02*
X202222520Y-110504600D01*
X203350080Y-110179440D02*
X209470000Y-104059520D01*
X202547680Y-110179440D02*
X203350080Y-110179440D01*
X209470000Y-101758200D02*
X211561680Y-99666520D01*
X209470000Y-104059520D02*
X209470000Y-101758200D01*
X213561680Y-97666520D02*
X215561680Y-97666520D01*
X211561680Y-99666520D02*
X213561680Y-97666520D01*
D38*
G04 #@! TO.N,Net-(C4-Pad1)*
X198101280Y-99712680D02*
X197047280Y-99712680D01*
X198385881Y-99997281D02*
X198101280Y-99712680D01*
X199841563Y-99997281D02*
X198385881Y-99997281D01*
X200138641Y-100294359D02*
X199841563Y-99997281D01*
X200138641Y-100728641D02*
X200138641Y-100294359D01*
X200627880Y-101217880D02*
X200138641Y-100728641D01*
X200859240Y-101217880D02*
X200627880Y-101217880D01*
X201050000Y-101408640D02*
X200859240Y-101217880D01*
X201050000Y-103040000D02*
X201050000Y-101408640D01*
G04 #@! TO.N,Net-(C10-Pad1)*
X193997280Y-92408680D02*
X193997280Y-93462680D01*
X194559401Y-91846559D02*
X193997280Y-92408680D01*
X194559401Y-90986599D02*
X194559401Y-91846559D01*
X195026000Y-90520000D02*
X194559401Y-90986599D01*
X195780000Y-90520000D02*
X195026000Y-90520000D01*
X195720000Y-90460000D02*
X195780000Y-90520000D01*
X195720000Y-88600000D02*
X195720000Y-90460000D01*
D39*
G04 #@! TO.N,/POT_SIGNAL*
X191597280Y-89411238D02*
X191600000Y-89408518D01*
X191597280Y-93462680D02*
X191597280Y-89411238D01*
X191600000Y-89408518D02*
X191600000Y-88580000D01*
X193797500Y-86382500D02*
X199150000Y-86382500D01*
X191600000Y-88580000D02*
X193797500Y-86382500D01*
X200807500Y-88040000D02*
X201340000Y-88040000D01*
X199150000Y-86382500D02*
X200807500Y-88040000D01*
X201340000Y-89618000D02*
X201429600Y-89707600D01*
X201340000Y-88040000D02*
X201340000Y-89618000D01*
G04 #@! TO.N,/BRAKETEMP*
X209705525Y-95666520D02*
X211561680Y-95666520D01*
X199056998Y-95666520D02*
X209705525Y-95666520D01*
X198210838Y-96512680D02*
X199056998Y-95666520D01*
X197047280Y-96512680D02*
X198210838Y-96512680D01*
G04 #@! TO.N,/POT*
X207620600Y-91607600D02*
X211561680Y-87666520D01*
X201429600Y-91607600D02*
X207620600Y-91607600D01*
D38*
G04 #@! TO.N,Net-(C1-Pad1)*
X199154040Y-98912680D02*
X199259240Y-99017880D01*
X197047280Y-98912680D02*
X199154040Y-98912680D01*
X199259240Y-97219240D02*
X199150000Y-97110000D01*
X199259240Y-99017880D02*
X199259240Y-97219240D01*
D39*
G04 #@! TO.N,Net-(D3-Pad1)*
X205290000Y-130440000D02*
X205270000Y-130440000D01*
X206950000Y-128780000D02*
X205290000Y-130440000D01*
X207250000Y-128780000D02*
X206950000Y-128780000D01*
G04 #@! TO.N,/NEO_PIXEL*
X190797280Y-92510280D02*
X189110000Y-90823000D01*
X190797280Y-93462680D02*
X190797280Y-92510280D01*
X189110000Y-90823000D02*
X189110000Y-56510000D01*
X187350000Y-54750000D02*
X184750000Y-54750000D01*
X189110000Y-56510000D02*
X187350000Y-54750000D01*
G04 #@! TO.N,Net-(R2-Pad2)*
X182850000Y-56713720D02*
X182976520Y-56840240D01*
X182850000Y-54750000D02*
X182850000Y-56713720D01*
G04 #@! TO.N,Net-(R10-Pad1)*
X199150000Y-89628000D02*
X199229600Y-89707600D01*
X199150000Y-87957500D02*
X199150000Y-89628000D01*
D38*
G04 #@! TO.N,Net-(C12-Pad1)*
X182450000Y-127734000D02*
X182450000Y-126880000D01*
X182890000Y-135490000D02*
X180970000Y-133570000D01*
X180970000Y-133570000D02*
X180970000Y-129214000D01*
X183730000Y-135490000D02*
X182890000Y-135490000D01*
X180970000Y-129214000D02*
X182450000Y-127734000D01*
D40*
G04 #@! TO.N,/12V*
X194220000Y-125220000D02*
X194430000Y-125430000D01*
X191150000Y-125220000D02*
X194220000Y-125220000D01*
X211561680Y-108488820D02*
X211561680Y-107666520D01*
X194430000Y-125430000D02*
X194620500Y-125430000D01*
X208383980Y-111666520D02*
X211561680Y-111666520D01*
X207600500Y-112450000D02*
X208383980Y-111666520D01*
X207600500Y-112450000D02*
X211561680Y-108488820D01*
D41*
X207600500Y-115209500D02*
X202390000Y-120420000D01*
X207600500Y-112450000D02*
X207600500Y-115209500D01*
X197370000Y-125430000D02*
X194430000Y-125430000D01*
X200470000Y-122330000D02*
X197370000Y-125430000D01*
D39*
G04 #@! TO.N,Net-(D2-Pad2)*
X194500000Y-130312400D02*
X194500000Y-131450000D01*
X194500000Y-129810000D02*
X194500000Y-130312400D01*
G04 #@! TO.N,Net-(D4-Pad2)*
X210760000Y-132480000D02*
X211240000Y-132000000D01*
X210760000Y-133360000D02*
X210760000Y-132480000D01*
X214410000Y-132370000D02*
X214410000Y-133390000D01*
X214000000Y-131960000D02*
X214410000Y-132370000D01*
D38*
G04 #@! TO.N,Net-(R8-Pad1)*
X185630000Y-135490000D02*
X186980000Y-135490000D01*
X186980000Y-134586000D02*
X186657020Y-134263020D01*
X186657020Y-134263020D02*
X186657020Y-132797540D01*
X186980000Y-135490000D02*
X186980000Y-134586000D01*
G04 #@! TD*
D39*
G04 #@! TO.N,Net-(C11-Pad2)*
G36*
X185063800Y-130873800D02*
X183990000Y-130873800D01*
X183960840Y-130879600D01*
X183936118Y-130896118D01*
X183486118Y-131346118D01*
X183469600Y-131370840D01*
X183463800Y-131400000D01*
X183463800Y-132228436D01*
X183428436Y-132263800D01*
X182191564Y-132263800D01*
X182096200Y-132168436D01*
X182096200Y-131410000D01*
X182090400Y-131380840D01*
X182073882Y-131356118D01*
X181346200Y-130628436D01*
X181346200Y-129441564D01*
X181451564Y-129336200D01*
X185063800Y-129336200D01*
X185063800Y-130873800D01*
X185063800Y-130873800D01*
G37*
X185063800Y-130873800D02*
X183990000Y-130873800D01*
X183960840Y-130879600D01*
X183936118Y-130896118D01*
X183486118Y-131346118D01*
X183469600Y-131370840D01*
X183463800Y-131400000D01*
X183463800Y-132228436D01*
X183428436Y-132263800D01*
X182191564Y-132263800D01*
X182096200Y-132168436D01*
X182096200Y-131410000D01*
X182090400Y-131380840D01*
X182073882Y-131356118D01*
X181346200Y-130628436D01*
X181346200Y-129441564D01*
X181451564Y-129336200D01*
X185063800Y-129336200D01*
X185063800Y-130873800D01*
G04 #@! TO.N,Net-(C3-Pad1)*
G36*
X195233800Y-128358436D02*
X194818436Y-128773800D01*
X193520000Y-128773800D01*
X193490840Y-128779600D01*
X193466118Y-128796118D01*
X191928436Y-130333800D01*
X187680000Y-130333800D01*
X187650840Y-130339600D01*
X187626118Y-130356118D01*
X187168436Y-130813800D01*
X185410781Y-130813800D01*
X185406200Y-130806929D01*
X185406200Y-129291564D01*
X185523882Y-129173882D01*
X185525706Y-129171993D01*
X187043113Y-127546200D01*
X195233800Y-127546200D01*
X195233800Y-128358436D01*
X195233800Y-128358436D01*
G37*
X195233800Y-128358436D02*
X194818436Y-128773800D01*
X193520000Y-128773800D01*
X193490840Y-128779600D01*
X193466118Y-128796118D01*
X191928436Y-130333800D01*
X187680000Y-130333800D01*
X187650840Y-130339600D01*
X187626118Y-130356118D01*
X187168436Y-130813800D01*
X185410781Y-130813800D01*
X185406200Y-130806929D01*
X185406200Y-129291564D01*
X185523882Y-129173882D01*
X185525706Y-129171993D01*
X187043113Y-127546200D01*
X195233800Y-127546200D01*
X195233800Y-128358436D01*
G04 #@! TO.N,Net-(C11-Pad1)*
G36*
X185023800Y-132061564D02*
X185023800Y-133528436D01*
X184358436Y-134193800D01*
X182256200Y-134193800D01*
X182256200Y-133261564D01*
X182711564Y-132806200D01*
X183780000Y-132806200D01*
X183809160Y-132800400D01*
X183833882Y-132783882D01*
X184423882Y-132193882D01*
X184440400Y-132169160D01*
X184446200Y-132140000D01*
X184446200Y-132046200D01*
X185008436Y-132046200D01*
X185023800Y-132061564D01*
X185023800Y-132061564D01*
G37*
X185023800Y-132061564D02*
X185023800Y-133528436D01*
X184358436Y-134193800D01*
X182256200Y-134193800D01*
X182256200Y-133261564D01*
X182711564Y-132806200D01*
X183780000Y-132806200D01*
X183809160Y-132800400D01*
X183833882Y-132783882D01*
X184423882Y-132193882D01*
X184440400Y-132169160D01*
X184446200Y-132140000D01*
X184446200Y-132046200D01*
X185008436Y-132046200D01*
X185023800Y-132061564D01*
G04 #@! TO.N,Net-(C12-Pad1)*
G36*
X183693800Y-113075798D02*
X183693800Y-127392670D01*
X183538436Y-127548034D01*
X181186255Y-127548034D01*
X181196177Y-113665821D01*
X182181564Y-112680434D01*
X183298436Y-112680434D01*
X183693800Y-113075798D01*
X183693800Y-113075798D01*
G37*
X183693800Y-113075798D02*
X183693800Y-127392670D01*
X183538436Y-127548034D01*
X181186255Y-127548034D01*
X181196177Y-113665821D01*
X182181564Y-112680434D01*
X183298436Y-112680434D01*
X183693800Y-113075798D01*
G04 #@! TO.N,GND*
G36*
X191083800Y-131231564D02*
X191083800Y-131370000D01*
X191089600Y-131399160D01*
X191106118Y-131423882D01*
X192356118Y-132673882D01*
X192380840Y-132690400D01*
X192410000Y-132696200D01*
X195448436Y-132696200D01*
X195673800Y-132921564D01*
X195673800Y-135408436D01*
X194318436Y-136763800D01*
X188631564Y-136763800D01*
X188176200Y-136308436D01*
X188176200Y-134920000D01*
X188170400Y-134890840D01*
X188153882Y-134866118D01*
X187286200Y-133998436D01*
X187286200Y-132020000D01*
X187280400Y-131990840D01*
X187263882Y-131966118D01*
X187043882Y-131746118D01*
X187019160Y-131729600D01*
X186990000Y-131723800D01*
X186210000Y-131723800D01*
X186180840Y-131729600D01*
X186156118Y-131746118D01*
X186026118Y-131876118D01*
X186009600Y-131900840D01*
X186003800Y-131930000D01*
X186003800Y-133553800D01*
X185406200Y-133553800D01*
X185406200Y-131861564D01*
X186111564Y-131156200D01*
X191008436Y-131156200D01*
X191083800Y-131231564D01*
X191083800Y-131231564D01*
G37*
X191083800Y-131231564D02*
X191083800Y-131370000D01*
X191089600Y-131399160D01*
X191106118Y-131423882D01*
X192356118Y-132673882D01*
X192380840Y-132690400D01*
X192410000Y-132696200D01*
X195448436Y-132696200D01*
X195673800Y-132921564D01*
X195673800Y-135408436D01*
X194318436Y-136763800D01*
X188631564Y-136763800D01*
X188176200Y-136308436D01*
X188176200Y-134920000D01*
X188170400Y-134890840D01*
X188153882Y-134866118D01*
X187286200Y-133998436D01*
X187286200Y-132020000D01*
X187280400Y-131990840D01*
X187263882Y-131966118D01*
X187043882Y-131746118D01*
X187019160Y-131729600D01*
X186990000Y-131723800D01*
X186210000Y-131723800D01*
X186180840Y-131729600D01*
X186156118Y-131746118D01*
X186026118Y-131876118D01*
X186009600Y-131900840D01*
X186003800Y-131930000D01*
X186003800Y-133553800D01*
X185406200Y-133553800D01*
X185406200Y-131861564D01*
X186111564Y-131156200D01*
X191008436Y-131156200D01*
X191083800Y-131231564D01*
G36*
X195583800Y-118031564D02*
X195583800Y-122258436D01*
X195528436Y-122313800D01*
X190860000Y-122313800D01*
X190830840Y-122319600D01*
X190806118Y-122336118D01*
X189316118Y-123826118D01*
X189299600Y-123850840D01*
X189293800Y-123880000D01*
X189293800Y-124918436D01*
X188768436Y-125443800D01*
X186271564Y-125443800D01*
X184376200Y-123548436D01*
X184376200Y-117226200D01*
X194778436Y-117226200D01*
X195583800Y-118031564D01*
X195583800Y-118031564D01*
G37*
X195583800Y-118031564D02*
X195583800Y-122258436D01*
X195528436Y-122313800D01*
X190860000Y-122313800D01*
X190830840Y-122319600D01*
X190806118Y-122336118D01*
X189316118Y-123826118D01*
X189299600Y-123850840D01*
X189293800Y-123880000D01*
X189293800Y-124918436D01*
X188768436Y-125443800D01*
X186271564Y-125443800D01*
X184376200Y-123548436D01*
X184376200Y-117226200D01*
X194778436Y-117226200D01*
X195583800Y-118031564D01*
D38*
G36*
X215720219Y-51568880D02*
X216199210Y-51758525D01*
X216615984Y-52061329D01*
X216944363Y-52458271D01*
X217163710Y-52924407D01*
X217264534Y-53452945D01*
X217268121Y-53567089D01*
X217268120Y-58686862D01*
X217269606Y-58694331D01*
X217273369Y-58814087D01*
X217274558Y-58821595D01*
X217274081Y-58829180D01*
X217281652Y-58889108D01*
X217400956Y-59514524D01*
X217410308Y-59543307D01*
X217415978Y-59573031D01*
X217438214Y-59629193D01*
X217709305Y-60205290D01*
X217725523Y-60230846D01*
X217738406Y-60258223D01*
X217773910Y-60307091D01*
X218179753Y-60797671D01*
X218201815Y-60818389D01*
X218221103Y-60841704D01*
X218267645Y-60880207D01*
X218782742Y-61254446D01*
X218809258Y-61269024D01*
X218833743Y-61286813D01*
X218888398Y-61312532D01*
X219480381Y-61546914D01*
X219509697Y-61554441D01*
X219537828Y-61565579D01*
X219597148Y-61576895D01*
X219597163Y-61576899D01*
X219597171Y-61576899D01*
X220211962Y-61654565D01*
X220241747Y-61660490D01*
X221528860Y-61660490D01*
X222070219Y-61728880D01*
X222549210Y-61918525D01*
X222965984Y-62221329D01*
X223294363Y-62618271D01*
X223513710Y-63084407D01*
X223614534Y-63612945D01*
X223618121Y-63727089D01*
X223618120Y-124815161D01*
X223549730Y-125356524D01*
X223360084Y-125835512D01*
X223057279Y-126252287D01*
X222660339Y-126580665D01*
X222194203Y-126800013D01*
X221665666Y-126900836D01*
X221551554Y-126904422D01*
X220241747Y-126904422D01*
X220234278Y-126905908D01*
X220114524Y-126909671D01*
X220107015Y-126910860D01*
X220099430Y-126910383D01*
X220039502Y-126917954D01*
X219414087Y-127037258D01*
X219385305Y-127046610D01*
X219355579Y-127052280D01*
X219299417Y-127074516D01*
X218723320Y-127345607D01*
X218697764Y-127361825D01*
X218670387Y-127374708D01*
X218621519Y-127410212D01*
X218130939Y-127816055D01*
X218110221Y-127838117D01*
X218086906Y-127857405D01*
X218048410Y-127903938D01*
X218048402Y-127903947D01*
X218048399Y-127903953D01*
X217674164Y-128419043D01*
X217659582Y-128445568D01*
X217641798Y-128470045D01*
X217616085Y-128524687D01*
X217616078Y-128524700D01*
X217616076Y-128524707D01*
X217381696Y-129116682D01*
X217374168Y-129146000D01*
X217363031Y-129174130D01*
X217351714Y-129233453D01*
X217351711Y-129233465D01*
X217351711Y-129233472D01*
X217274043Y-129848278D01*
X217268121Y-129878049D01*
X217268120Y-134975161D01*
X217199730Y-135516524D01*
X217010084Y-135995512D01*
X216707279Y-136412287D01*
X216310339Y-136740665D01*
X215844203Y-136960013D01*
X215315666Y-137060836D01*
X215201554Y-137064422D01*
X205438530Y-137064422D01*
X205573560Y-136626080D01*
X205573560Y-136276080D01*
X201965560Y-136276080D01*
X201965560Y-136296080D01*
X201711560Y-136296080D01*
X201711560Y-136276080D01*
X199965560Y-136276080D01*
X199965560Y-136296080D01*
X199711560Y-136296080D01*
X199711560Y-136276080D01*
X196103560Y-136276080D01*
X196103560Y-136626080D01*
X196246170Y-137089027D01*
X196269727Y-137117481D01*
X182336875Y-137914102D01*
X181792483Y-137876725D01*
X181303447Y-137714730D01*
X180870067Y-137436210D01*
X180519566Y-137058661D01*
X180273970Y-136605807D01*
X180144821Y-136090592D01*
X180130120Y-135845761D01*
X180130120Y-129214000D01*
X180452049Y-129214000D01*
X180462001Y-129264033D01*
X180462000Y-133519972D01*
X180452049Y-133570000D01*
X180462000Y-133620028D01*
X180462000Y-133620031D01*
X180475843Y-133689623D01*
X180491475Y-133768211D01*
X180558503Y-133868525D01*
X180603753Y-133936247D01*
X180646168Y-133964588D01*
X182495414Y-135813835D01*
X182523753Y-135856247D01*
X182566165Y-135884586D01*
X182566167Y-135884588D01*
X182658602Y-135946351D01*
X182691788Y-135968525D01*
X182839968Y-135998000D01*
X182839971Y-135998000D01*
X182889999Y-136007951D01*
X182940027Y-135998000D01*
X182991536Y-135998000D01*
X182991536Y-136140000D01*
X183021106Y-136288659D01*
X183105314Y-136414686D01*
X183231341Y-136498894D01*
X183380000Y-136528464D01*
X184080000Y-136528464D01*
X184228659Y-136498894D01*
X184354686Y-136414686D01*
X184438894Y-136288659D01*
X184468464Y-136140000D01*
X184468464Y-134840000D01*
X184891536Y-134840000D01*
X184891536Y-136140000D01*
X184921106Y-136288659D01*
X185005314Y-136414686D01*
X185131341Y-136498894D01*
X185280000Y-136528464D01*
X185980000Y-136528464D01*
X186128659Y-136498894D01*
X186254686Y-136414686D01*
X186305000Y-136339385D01*
X186355314Y-136414686D01*
X186481341Y-136498894D01*
X186630000Y-136528464D01*
X187330000Y-136528464D01*
X187478659Y-136498894D01*
X187604686Y-136414686D01*
X187688894Y-136288659D01*
X187718464Y-136140000D01*
X187718464Y-135775750D01*
X187895000Y-135775750D01*
X187895000Y-136266310D01*
X187991673Y-136499699D01*
X188170302Y-136678327D01*
X188403691Y-136775000D01*
X188594250Y-136775000D01*
X188753000Y-136616250D01*
X188753000Y-135617000D01*
X189007000Y-135617000D01*
X189007000Y-136616250D01*
X189165750Y-136775000D01*
X189356309Y-136775000D01*
X189589698Y-136678327D01*
X189768327Y-136499699D01*
X189865000Y-136266310D01*
X189865000Y-135775750D01*
X189706250Y-135617000D01*
X189007000Y-135617000D01*
X188753000Y-135617000D01*
X188053750Y-135617000D01*
X187895000Y-135775750D01*
X187718464Y-135775750D01*
X187718464Y-134840000D01*
X187693340Y-134713690D01*
X187895000Y-134713690D01*
X187895000Y-135204250D01*
X188053750Y-135363000D01*
X188753000Y-135363000D01*
X188753000Y-134363750D01*
X189007000Y-134363750D01*
X189007000Y-135363000D01*
X189706250Y-135363000D01*
X189865000Y-135204250D01*
X189865000Y-134713690D01*
X189768327Y-134480301D01*
X189589698Y-134301673D01*
X189356309Y-134205000D01*
X189165750Y-134205000D01*
X189007000Y-134363750D01*
X188753000Y-134363750D01*
X188594250Y-134205000D01*
X188403691Y-134205000D01*
X188170302Y-134301673D01*
X187991673Y-134480301D01*
X187895000Y-134713690D01*
X187693340Y-134713690D01*
X187688894Y-134691341D01*
X187604686Y-134565314D01*
X187478659Y-134481106D01*
X187477022Y-134480780D01*
X187458525Y-134387788D01*
X187408587Y-134313051D01*
X187374588Y-134262168D01*
X187346247Y-134219753D01*
X187303832Y-134191412D01*
X187165020Y-134052600D01*
X187165020Y-133935750D01*
X193265000Y-133935750D01*
X193265000Y-134376309D01*
X193361673Y-134609698D01*
X193540301Y-134788327D01*
X193773690Y-134885000D01*
X194214250Y-134885000D01*
X194373000Y-134726250D01*
X194373000Y-133777000D01*
X194627000Y-133777000D01*
X194627000Y-134726250D01*
X194785750Y-134885000D01*
X195226310Y-134885000D01*
X195459699Y-134788327D01*
X195638327Y-134609698D01*
X195735000Y-134376309D01*
X195735000Y-133935750D01*
X195576250Y-133777000D01*
X194627000Y-133777000D01*
X194373000Y-133777000D01*
X193423750Y-133777000D01*
X193265000Y-133935750D01*
X187165020Y-133935750D01*
X187165020Y-133913488D01*
X187256706Y-133852226D01*
X187340914Y-133726199D01*
X187370484Y-133577540D01*
X187370484Y-132556844D01*
X187408813Y-132649378D01*
X187587441Y-132828007D01*
X187820830Y-132924680D01*
X188286390Y-132924680D01*
X188445140Y-132765930D01*
X188445140Y-131916680D01*
X188699140Y-131916680D01*
X188699140Y-132765930D01*
X188857890Y-132924680D01*
X189323450Y-132924680D01*
X189507648Y-132848382D01*
X189718210Y-132935600D01*
X190183770Y-132935600D01*
X190342520Y-132776850D01*
X190342520Y-131927600D01*
X190596520Y-131927600D01*
X190596520Y-132776850D01*
X190755270Y-132935600D01*
X191220830Y-132935600D01*
X191454219Y-132838927D01*
X191632847Y-132660298D01*
X191729520Y-132426909D01*
X191729520Y-132086350D01*
X191570770Y-131927600D01*
X190596520Y-131927600D01*
X190342520Y-131927600D01*
X189684310Y-131927600D01*
X189673390Y-131916680D01*
X188699140Y-131916680D01*
X188445140Y-131916680D01*
X187470890Y-131916680D01*
X187370409Y-132017161D01*
X187340914Y-131868881D01*
X187256706Y-131742854D01*
X187130679Y-131658646D01*
X186982020Y-131629076D01*
X186541581Y-131629076D01*
X186391719Y-131479213D01*
X186158330Y-131382540D01*
X185992770Y-131382540D01*
X185834020Y-131541290D01*
X185834020Y-132670540D01*
X185854020Y-132670540D01*
X185854020Y-132924540D01*
X185834020Y-132924540D01*
X185834020Y-134053790D01*
X185992770Y-134212540D01*
X186149020Y-134212540D01*
X186149020Y-134212992D01*
X186139069Y-134263020D01*
X186149020Y-134313048D01*
X186149020Y-134313051D01*
X186169459Y-134415802D01*
X186178495Y-134461231D01*
X186242681Y-134557293D01*
X186128659Y-134481106D01*
X185980000Y-134451536D01*
X185280000Y-134451536D01*
X185131341Y-134481106D01*
X185005314Y-134565314D01*
X184921106Y-134691341D01*
X184891536Y-134840000D01*
X184468464Y-134840000D01*
X184438894Y-134691341D01*
X184409365Y-134647148D01*
X184535802Y-134621998D01*
X184659408Y-134539408D01*
X185065191Y-134133625D01*
X185255710Y-134212540D01*
X185421270Y-134212540D01*
X185580020Y-134053790D01*
X185580020Y-132924540D01*
X185560020Y-132924540D01*
X185560020Y-132670540D01*
X185580020Y-132670540D01*
X185580020Y-131541290D01*
X185421270Y-131382540D01*
X185255710Y-131382540D01*
X185022321Y-131479213D01*
X184912535Y-131589000D01*
X184410000Y-131589000D01*
X184264198Y-131618002D01*
X184140592Y-131700592D01*
X184100592Y-131740592D01*
X184018002Y-131864198D01*
X183995907Y-131975277D01*
X183921000Y-132050184D01*
X183921000Y-131557816D01*
X184147816Y-131331000D01*
X185110000Y-131331000D01*
X185202406Y-131319624D01*
X185324496Y-131261949D01*
X185370000Y-131271000D01*
X187200000Y-131271000D01*
X187312140Y-131248694D01*
X187312140Y-131503930D01*
X187470890Y-131662680D01*
X188445140Y-131662680D01*
X188445140Y-131642680D01*
X188699140Y-131642680D01*
X188699140Y-131662680D01*
X189357350Y-131662680D01*
X189368270Y-131673600D01*
X190342520Y-131673600D01*
X190342520Y-131653600D01*
X190596520Y-131653600D01*
X190596520Y-131673600D01*
X191570770Y-131673600D01*
X191729520Y-131514850D01*
X191729520Y-131174291D01*
X191632847Y-130940902D01*
X191482946Y-130791000D01*
X191960000Y-130791000D01*
X192105802Y-130761998D01*
X192229408Y-130679408D01*
X193464694Y-129444122D01*
X193461536Y-129460000D01*
X193461536Y-130160000D01*
X193491106Y-130308659D01*
X193575314Y-130434686D01*
X193701341Y-130518894D01*
X193707823Y-130520183D01*
X193625314Y-130575314D01*
X193541106Y-130701341D01*
X193511536Y-130850000D01*
X193511536Y-132050000D01*
X193541106Y-132198659D01*
X193625314Y-132324686D01*
X193751341Y-132408894D01*
X193782038Y-132415000D01*
X193773690Y-132415000D01*
X193540301Y-132511673D01*
X193361673Y-132690302D01*
X193265000Y-132923691D01*
X193265000Y-133364250D01*
X193423750Y-133523000D01*
X194373000Y-133523000D01*
X194373000Y-133503000D01*
X194627000Y-133503000D01*
X194627000Y-133523000D01*
X195576250Y-133523000D01*
X195735000Y-133364250D01*
X195735000Y-133250226D01*
X196966248Y-133250226D01*
X196994611Y-133790524D01*
X197146807Y-134157958D01*
X197385162Y-134222873D01*
X198158955Y-133449080D01*
X197385162Y-132675287D01*
X197146807Y-132740202D01*
X196966248Y-133250226D01*
X195735000Y-133250226D01*
X195735000Y-132923691D01*
X195638327Y-132690302D01*
X195459699Y-132511673D01*
X195226310Y-132415000D01*
X195217962Y-132415000D01*
X195248659Y-132408894D01*
X195374686Y-132324686D01*
X195458894Y-132198659D01*
X195488464Y-132050000D01*
X195488464Y-130850000D01*
X195458894Y-130701341D01*
X195374686Y-130575314D01*
X195292177Y-130520183D01*
X195298659Y-130518894D01*
X195424686Y-130434686D01*
X195508894Y-130308659D01*
X195538464Y-130160000D01*
X195538464Y-129460000D01*
X195508894Y-129311341D01*
X195424686Y-129185314D01*
X195298659Y-129101106D01*
X195164413Y-129074403D01*
X195579408Y-128659408D01*
X195661998Y-128535802D01*
X195691000Y-128390000D01*
X195691000Y-127470000D01*
X195661998Y-127324198D01*
X195579408Y-127200592D01*
X195455802Y-127118002D01*
X195310000Y-127089000D01*
X187010000Y-127089000D01*
X186852154Y-127123236D01*
X186731468Y-127210037D01*
X185195962Y-128855222D01*
X185166844Y-128884340D01*
X185140000Y-128879000D01*
X182023420Y-128879000D01*
X182773836Y-128128585D01*
X182816247Y-128100247D01*
X182844586Y-128057835D01*
X182844588Y-128057833D01*
X182879733Y-128005234D01*
X183570000Y-128005234D01*
X183715802Y-127976232D01*
X183839408Y-127893642D01*
X184039408Y-127693642D01*
X184121998Y-127570036D01*
X184151000Y-127424234D01*
X184151000Y-123861830D01*
X186193040Y-123861830D01*
X186193040Y-125452390D01*
X186289713Y-125685779D01*
X186468342Y-125864407D01*
X186701731Y-125961080D01*
X187432290Y-125961080D01*
X187591040Y-125802330D01*
X187591040Y-123703080D01*
X187845040Y-123703080D01*
X187845040Y-125802330D01*
X188003790Y-125961080D01*
X188734349Y-125961080D01*
X188967738Y-125864407D01*
X189146367Y-125685779D01*
X189243040Y-125452390D01*
X189243040Y-123861830D01*
X189084290Y-123703080D01*
X187845040Y-123703080D01*
X187591040Y-123703080D01*
X186351790Y-123703080D01*
X186193040Y-123861830D01*
X184151000Y-123861830D01*
X184151000Y-120148350D01*
X184702960Y-120148350D01*
X184702960Y-120788910D01*
X184799633Y-121022299D01*
X184978262Y-121200927D01*
X185211651Y-121297600D01*
X185552210Y-121297600D01*
X185710960Y-121138850D01*
X185710960Y-119989600D01*
X185964960Y-119989600D01*
X185964960Y-121138850D01*
X186123710Y-121297600D01*
X186458495Y-121297600D01*
X186289713Y-121466381D01*
X186193040Y-121699770D01*
X186193040Y-123290330D01*
X186351790Y-123449080D01*
X187591040Y-123449080D01*
X187591040Y-121349830D01*
X187845040Y-121349830D01*
X187845040Y-123449080D01*
X189084290Y-123449080D01*
X189243040Y-123290330D01*
X189243040Y-121699770D01*
X189223150Y-121651750D01*
X192715500Y-121651750D01*
X192715500Y-122381309D01*
X192812173Y-122614698D01*
X192990801Y-122793327D01*
X193224190Y-122890000D01*
X194144250Y-122890000D01*
X194303000Y-122731250D01*
X194303000Y-121493000D01*
X194557000Y-121493000D01*
X194557000Y-122731250D01*
X194715750Y-122890000D01*
X195635810Y-122890000D01*
X195869199Y-122793327D01*
X196047827Y-122614698D01*
X196144500Y-122381309D01*
X196144500Y-121651750D01*
X195985750Y-121493000D01*
X194557000Y-121493000D01*
X194303000Y-121493000D01*
X192874250Y-121493000D01*
X192715500Y-121651750D01*
X189223150Y-121651750D01*
X189146367Y-121466381D01*
X188967738Y-121287753D01*
X188734349Y-121191080D01*
X188003790Y-121191080D01*
X187845040Y-121349830D01*
X187591040Y-121349830D01*
X187432290Y-121191080D01*
X186707505Y-121191080D01*
X186876287Y-121022299D01*
X186972960Y-120788910D01*
X186972960Y-120350691D01*
X192715500Y-120350691D01*
X192715500Y-121080250D01*
X192874250Y-121239000D01*
X194303000Y-121239000D01*
X194303000Y-120000750D01*
X194557000Y-120000750D01*
X194557000Y-121239000D01*
X195985750Y-121239000D01*
X196144500Y-121080250D01*
X196144500Y-120350691D01*
X196047827Y-120117302D01*
X195869199Y-119938673D01*
X195635810Y-119842000D01*
X194715750Y-119842000D01*
X194557000Y-120000750D01*
X194303000Y-120000750D01*
X194144250Y-119842000D01*
X193224190Y-119842000D01*
X192990801Y-119938673D01*
X192812173Y-120117302D01*
X192715500Y-120350691D01*
X186972960Y-120350691D01*
X186972960Y-120148350D01*
X186814210Y-119989600D01*
X185964960Y-119989600D01*
X185710960Y-119989600D01*
X184861710Y-119989600D01*
X184702960Y-120148350D01*
X184151000Y-120148350D01*
X184151000Y-119049890D01*
X184223691Y-119080000D01*
X184564250Y-119080000D01*
X184702960Y-118941290D01*
X184702960Y-119576850D01*
X184861710Y-119735600D01*
X185710960Y-119735600D01*
X185710960Y-119715600D01*
X185964960Y-119715600D01*
X185964960Y-119735600D01*
X186814210Y-119735600D01*
X186972960Y-119576850D01*
X186972960Y-118936290D01*
X186876287Y-118702901D01*
X186697658Y-118524273D01*
X186464269Y-118427600D01*
X186123710Y-118427600D01*
X185985000Y-118566310D01*
X185985000Y-118105750D01*
X185826250Y-117947000D01*
X184977000Y-117947000D01*
X184977000Y-117967000D01*
X184723000Y-117967000D01*
X184723000Y-117947000D01*
X184703000Y-117947000D01*
X184703000Y-117693000D01*
X184723000Y-117693000D01*
X184723000Y-116718750D01*
X184977000Y-116718750D01*
X184977000Y-117693000D01*
X185826250Y-117693000D01*
X185985000Y-117534250D01*
X185985000Y-117068690D01*
X185888327Y-116835301D01*
X185709698Y-116656673D01*
X185476309Y-116560000D01*
X185135750Y-116560000D01*
X184977000Y-116718750D01*
X184723000Y-116718750D01*
X184564250Y-116560000D01*
X184223691Y-116560000D01*
X184151000Y-116590110D01*
X184151000Y-113044234D01*
X184121998Y-112898432D01*
X184039408Y-112774826D01*
X183599408Y-112334826D01*
X183475802Y-112252236D01*
X183330000Y-112223234D01*
X182150000Y-112223234D01*
X182004198Y-112252236D01*
X181880592Y-112334826D01*
X180850592Y-113364826D01*
X180768106Y-113488180D01*
X180739000Y-113633962D01*
X180729000Y-127623962D01*
X180758002Y-127770036D01*
X180840592Y-127893642D01*
X180964198Y-127976232D01*
X181110000Y-128005234D01*
X181460345Y-128005234D01*
X180646166Y-128819414D01*
X180603754Y-128847753D01*
X180575415Y-128890165D01*
X180575412Y-128890168D01*
X180491475Y-129015789D01*
X180452049Y-129214000D01*
X180130120Y-129214000D01*
X180130120Y-66051840D01*
X180367305Y-66051840D01*
X180378500Y-66108121D01*
X180378501Y-103342710D01*
X180378500Y-103342715D01*
X180378500Y-103342719D01*
X180367305Y-103399000D01*
X180378500Y-103455281D01*
X180378500Y-103513715D01*
X180378501Y-105134294D01*
X180367305Y-105190580D01*
X180411660Y-105413568D01*
X180480588Y-105516725D01*
X180537973Y-105602608D01*
X180585689Y-105634491D01*
X188063336Y-113112139D01*
X188063336Y-115892380D01*
X188092906Y-116041039D01*
X188177114Y-116167066D01*
X188303141Y-116251274D01*
X188451800Y-116280844D01*
X189451800Y-116280844D01*
X189600459Y-116251274D01*
X189726486Y-116167066D01*
X189810694Y-116041039D01*
X189840264Y-115892380D01*
X189840264Y-115145264D01*
X190878832Y-116183832D01*
X190907173Y-116226247D01*
X191075208Y-116338525D01*
X191223388Y-116368000D01*
X191223392Y-116368000D01*
X191273419Y-116377951D01*
X191323446Y-116368000D01*
X194729580Y-116368000D01*
X198412000Y-120050421D01*
X198412001Y-122278131D01*
X198338607Y-122351525D01*
X198234200Y-122603586D01*
X198234200Y-122876414D01*
X198338607Y-123128475D01*
X198531525Y-123321393D01*
X198629713Y-123362064D01*
X197133278Y-124858500D01*
X195897964Y-124858500D01*
X195897964Y-124541000D01*
X195868394Y-124392341D01*
X195784186Y-124266314D01*
X195658159Y-124182106D01*
X195509500Y-124152536D01*
X193350500Y-124152536D01*
X193201841Y-124182106D01*
X193075814Y-124266314D01*
X192991606Y-124392341D01*
X192962036Y-124541000D01*
X192962036Y-124585000D01*
X192734612Y-124585000D01*
X192674686Y-124495314D01*
X192548659Y-124411106D01*
X192400000Y-124381536D01*
X189900000Y-124381536D01*
X189751341Y-124411106D01*
X189625314Y-124495314D01*
X189541106Y-124621341D01*
X189511536Y-124770000D01*
X189511536Y-125670000D01*
X189541106Y-125818659D01*
X189625314Y-125944686D01*
X189751341Y-126028894D01*
X189900000Y-126058464D01*
X192400000Y-126058464D01*
X192548659Y-126028894D01*
X192674686Y-125944686D01*
X192734612Y-125855000D01*
X192962036Y-125855000D01*
X192962036Y-126319000D01*
X192991606Y-126467659D01*
X193075814Y-126593686D01*
X193201841Y-126677894D01*
X193350500Y-126707464D01*
X195509500Y-126707464D01*
X195658159Y-126677894D01*
X195784186Y-126593686D01*
X195868394Y-126467659D01*
X195897964Y-126319000D01*
X195897964Y-126001500D01*
X197313719Y-126001500D01*
X197370000Y-126012695D01*
X197426281Y-126001500D01*
X197426286Y-126001500D01*
X197592988Y-125968341D01*
X197782028Y-125842028D01*
X197813913Y-125794309D01*
X198236428Y-125371794D01*
X198338607Y-125618475D01*
X198531525Y-125811393D01*
X198783586Y-125915800D01*
X198887379Y-125915800D01*
X199030560Y-126058981D01*
X199030561Y-132251352D01*
X198537414Y-132076768D01*
X197997116Y-132105131D01*
X197629682Y-132257327D01*
X197564767Y-132495682D01*
X198338560Y-133269475D01*
X198352703Y-133255333D01*
X198532308Y-133434938D01*
X198518165Y-133449080D01*
X198532308Y-133463223D01*
X198352703Y-133642828D01*
X198338560Y-133628685D01*
X197564767Y-134402478D01*
X197608779Y-134564080D01*
X197211558Y-134564080D01*
X197211558Y-134564367D01*
X197056232Y-134628705D01*
X197020951Y-134605618D01*
X196983279Y-134609488D01*
X196555086Y-134836000D01*
X196246170Y-135209133D01*
X196103560Y-135672080D01*
X196103560Y-136022080D01*
X199711560Y-136022080D01*
X199711560Y-136002080D01*
X199965560Y-136002080D01*
X199965560Y-136022080D01*
X201711560Y-136022080D01*
X201711560Y-136002080D01*
X201965560Y-136002080D01*
X201965560Y-136022080D01*
X205573560Y-136022080D01*
X205573560Y-135672080D01*
X205430950Y-135209133D01*
X205355501Y-135118000D01*
X211539972Y-135118000D01*
X211590000Y-135127951D01*
X211640028Y-135118000D01*
X211640032Y-135118000D01*
X211788212Y-135088525D01*
X211956247Y-134976247D01*
X211984588Y-134933832D01*
X212489956Y-134428464D01*
X212860000Y-134428464D01*
X213008659Y-134398894D01*
X213134686Y-134314686D01*
X213218894Y-134188659D01*
X213248464Y-134040000D01*
X213248464Y-132740000D01*
X213218894Y-132591341D01*
X213134686Y-132465314D01*
X213018000Y-132387347D01*
X213018000Y-131823586D01*
X213314200Y-131823586D01*
X213314200Y-132096414D01*
X213418607Y-132348475D01*
X213611525Y-132541393D01*
X213707827Y-132581282D01*
X213701106Y-132591341D01*
X213671536Y-132740000D01*
X213671536Y-134040000D01*
X213701106Y-134188659D01*
X213785314Y-134314686D01*
X213911341Y-134398894D01*
X214060000Y-134428464D01*
X214760000Y-134428464D01*
X214908659Y-134398894D01*
X215034686Y-134314686D01*
X215118894Y-134188659D01*
X215148464Y-134040000D01*
X215148464Y-132740000D01*
X215118894Y-132591341D01*
X215034686Y-132465314D01*
X214908659Y-132381106D01*
X214875269Y-132374464D01*
X214876157Y-132370000D01*
X214840673Y-132191609D01*
X214816561Y-132155523D01*
X214739623Y-132040377D01*
X214701446Y-132014868D01*
X214685800Y-131999222D01*
X214685800Y-131823586D01*
X214581393Y-131571525D01*
X214388475Y-131378607D01*
X214136414Y-131274200D01*
X213863586Y-131274200D01*
X213611525Y-131378607D01*
X213418607Y-131571525D01*
X213314200Y-131823586D01*
X213018000Y-131823586D01*
X213018000Y-121807284D01*
X214255680Y-121807284D01*
X214255680Y-122525756D01*
X214530627Y-123189537D01*
X215038663Y-123697573D01*
X215702444Y-123972520D01*
X216420916Y-123972520D01*
X217084697Y-123697573D01*
X217592733Y-123189537D01*
X217867680Y-122525756D01*
X217867680Y-121807284D01*
X217592733Y-121143503D01*
X217084697Y-120635467D01*
X216420916Y-120360520D01*
X215702444Y-120360520D01*
X215038663Y-120635467D01*
X214530627Y-121143503D01*
X214255680Y-121807284D01*
X213018000Y-121807284D01*
X213018000Y-121110420D01*
X215885516Y-118242905D01*
X215927927Y-118214567D01*
X215956266Y-118172155D01*
X215956268Y-118172153D01*
X216040205Y-118046532D01*
X216060003Y-117947000D01*
X216069680Y-117898352D01*
X216069680Y-117898349D01*
X216079631Y-117848321D01*
X216069680Y-117798293D01*
X216069680Y-115329662D01*
X217868180Y-115329662D01*
X217868180Y-116003378D01*
X218126000Y-116625811D01*
X218602389Y-117102200D01*
X219224822Y-117360020D01*
X219898538Y-117360020D01*
X220520971Y-117102200D01*
X220997360Y-116625811D01*
X221255180Y-116003378D01*
X221255180Y-115329662D01*
X220997360Y-114707229D01*
X220520971Y-114230840D01*
X219898538Y-113973020D01*
X219224822Y-113973020D01*
X218602389Y-114230840D01*
X218126000Y-114707229D01*
X217868180Y-115329662D01*
X216069680Y-115329662D01*
X216069680Y-115289131D01*
X216520971Y-115102200D01*
X216997360Y-114625811D01*
X217255180Y-114003378D01*
X217255180Y-113329662D01*
X217068249Y-112878371D01*
X217783835Y-112162786D01*
X217826247Y-112134447D01*
X217854586Y-112092035D01*
X217854588Y-112092033D01*
X217885648Y-112045549D01*
X218126000Y-112625811D01*
X218602389Y-113102200D01*
X219224822Y-113360020D01*
X219898538Y-113360020D01*
X220520971Y-113102200D01*
X220997360Y-112625811D01*
X221255180Y-112003378D01*
X221255180Y-111329662D01*
X220997360Y-110707229D01*
X220520971Y-110230840D01*
X219898538Y-109973020D01*
X219224822Y-109973020D01*
X218602389Y-110230840D01*
X218126000Y-110707229D01*
X217968000Y-111088675D01*
X217968000Y-108244365D01*
X218126000Y-108625811D01*
X218602389Y-109102200D01*
X219224822Y-109360020D01*
X219898538Y-109360020D01*
X220520971Y-109102200D01*
X220997360Y-108625811D01*
X221255180Y-108003378D01*
X221255180Y-107329662D01*
X220997360Y-106707229D01*
X220520971Y-106230840D01*
X219898538Y-105973020D01*
X219224822Y-105973020D01*
X218602389Y-106230840D01*
X218126000Y-106707229D01*
X217968000Y-107088675D01*
X217968000Y-104244365D01*
X218126000Y-104625811D01*
X218602389Y-105102200D01*
X219224822Y-105360020D01*
X219898538Y-105360020D01*
X220520971Y-105102200D01*
X220997360Y-104625811D01*
X221255180Y-104003378D01*
X221255180Y-103329662D01*
X220997360Y-102707229D01*
X220520971Y-102230840D01*
X219898538Y-101973020D01*
X219224822Y-101973020D01*
X218602389Y-102230840D01*
X218126000Y-102707229D01*
X217968000Y-103088675D01*
X217968000Y-100244365D01*
X218126000Y-100625811D01*
X218602389Y-101102200D01*
X219224822Y-101360020D01*
X219898538Y-101360020D01*
X220520971Y-101102200D01*
X220997360Y-100625811D01*
X221255180Y-100003378D01*
X221255180Y-99329662D01*
X220997360Y-98707229D01*
X220520971Y-98230840D01*
X219898538Y-97973020D01*
X219224822Y-97973020D01*
X218602389Y-98230840D01*
X218126000Y-98707229D01*
X217968000Y-99088675D01*
X217968000Y-96244365D01*
X218126000Y-96625811D01*
X218602389Y-97102200D01*
X219224822Y-97360020D01*
X219898538Y-97360020D01*
X220520971Y-97102200D01*
X220997360Y-96625811D01*
X221255180Y-96003378D01*
X221255180Y-95329662D01*
X220997360Y-94707229D01*
X220520971Y-94230840D01*
X219898538Y-93973020D01*
X219224822Y-93973020D01*
X218602389Y-94230840D01*
X218126000Y-94707229D01*
X217885648Y-95287491D01*
X217854588Y-95241007D01*
X217854586Y-95241005D01*
X217826247Y-95198593D01*
X217783836Y-95170255D01*
X217068249Y-94454669D01*
X217255180Y-94003378D01*
X217255180Y-93329662D01*
X217137275Y-93045013D01*
X218362792Y-93045013D01*
X218499677Y-93344307D01*
X219222578Y-93623004D01*
X219997105Y-93603844D01*
X220623683Y-93344307D01*
X220760568Y-93045013D01*
X219561680Y-91846125D01*
X218362792Y-93045013D01*
X217137275Y-93045013D01*
X216997360Y-92707229D01*
X216520971Y-92230840D01*
X216069680Y-92043909D01*
X216069680Y-91327418D01*
X217605196Y-91327418D01*
X217624356Y-92101945D01*
X217883893Y-92728523D01*
X218183187Y-92865408D01*
X219382075Y-91666520D01*
X219741285Y-91666520D01*
X220940173Y-92865408D01*
X221239467Y-92728523D01*
X221518164Y-92005622D01*
X221499004Y-91231095D01*
X221239467Y-90604517D01*
X220940173Y-90467632D01*
X219741285Y-91666520D01*
X219382075Y-91666520D01*
X218183187Y-90467632D01*
X217883893Y-90604517D01*
X217605196Y-91327418D01*
X216069680Y-91327418D01*
X216069680Y-91289131D01*
X216520971Y-91102200D01*
X216997360Y-90625811D01*
X217137274Y-90288027D01*
X218362792Y-90288027D01*
X219561680Y-91486915D01*
X220760568Y-90288027D01*
X220623683Y-89988733D01*
X219900782Y-89710036D01*
X219126255Y-89729196D01*
X218499677Y-89988733D01*
X218362792Y-90288027D01*
X217137274Y-90288027D01*
X217255180Y-90003378D01*
X217255180Y-89329662D01*
X217137275Y-89045013D01*
X218362792Y-89045013D01*
X218499677Y-89344307D01*
X219222578Y-89623004D01*
X219997105Y-89603844D01*
X220623683Y-89344307D01*
X220760568Y-89045013D01*
X219561680Y-87846125D01*
X218362792Y-89045013D01*
X217137275Y-89045013D01*
X216997360Y-88707229D01*
X216520971Y-88230840D01*
X216069680Y-88043909D01*
X216069680Y-87327418D01*
X217605196Y-87327418D01*
X217624356Y-88101945D01*
X217883893Y-88728523D01*
X218183187Y-88865408D01*
X219382075Y-87666520D01*
X219741285Y-87666520D01*
X220940173Y-88865408D01*
X221239467Y-88728523D01*
X221518164Y-88005622D01*
X221499004Y-87231095D01*
X221239467Y-86604517D01*
X220940173Y-86467632D01*
X219741285Y-87666520D01*
X219382075Y-87666520D01*
X218183187Y-86467632D01*
X217883893Y-86604517D01*
X217605196Y-87327418D01*
X216069680Y-87327418D01*
X216069680Y-87289131D01*
X216520971Y-87102200D01*
X216997360Y-86625811D01*
X217137274Y-86288027D01*
X218362792Y-86288027D01*
X219561680Y-87486915D01*
X220760568Y-86288027D01*
X220623683Y-85988733D01*
X219900782Y-85710036D01*
X219126255Y-85729196D01*
X218499677Y-85988733D01*
X218362792Y-86288027D01*
X217137274Y-86288027D01*
X217255180Y-86003378D01*
X217255180Y-85329662D01*
X217137275Y-85045013D01*
X218362792Y-85045013D01*
X218499677Y-85344307D01*
X219222578Y-85623004D01*
X219997105Y-85603844D01*
X220623683Y-85344307D01*
X220760568Y-85045013D01*
X219561680Y-83846125D01*
X218362792Y-85045013D01*
X217137275Y-85045013D01*
X216997360Y-84707229D01*
X216520971Y-84230840D01*
X216069680Y-84043909D01*
X216069680Y-83327418D01*
X217605196Y-83327418D01*
X217624356Y-84101945D01*
X217883893Y-84728523D01*
X218183187Y-84865408D01*
X219382075Y-83666520D01*
X219741285Y-83666520D01*
X220940173Y-84865408D01*
X221239467Y-84728523D01*
X221518164Y-84005622D01*
X221499004Y-83231095D01*
X221239467Y-82604517D01*
X220940173Y-82467632D01*
X219741285Y-83666520D01*
X219382075Y-83666520D01*
X218183187Y-82467632D01*
X217883893Y-82604517D01*
X217605196Y-83327418D01*
X216069680Y-83327418D01*
X216069680Y-83289131D01*
X216520971Y-83102200D01*
X216997360Y-82625811D01*
X217137274Y-82288027D01*
X218362792Y-82288027D01*
X219561680Y-83486915D01*
X220760568Y-82288027D01*
X220623683Y-81988733D01*
X219900782Y-81710036D01*
X219126255Y-81729196D01*
X218499677Y-81988733D01*
X218362792Y-82288027D01*
X217137274Y-82288027D01*
X217255180Y-82003378D01*
X217255180Y-81329662D01*
X217137275Y-81045013D01*
X218362792Y-81045013D01*
X218499677Y-81344307D01*
X219222578Y-81623004D01*
X219997105Y-81603844D01*
X220623683Y-81344307D01*
X220760568Y-81045013D01*
X219561680Y-79846125D01*
X218362792Y-81045013D01*
X217137275Y-81045013D01*
X216997360Y-80707229D01*
X216520971Y-80230840D01*
X215898538Y-79973020D01*
X215224822Y-79973020D01*
X214602389Y-80230840D01*
X214126000Y-80707229D01*
X213868180Y-81329662D01*
X213868180Y-82003378D01*
X214126000Y-82625811D01*
X214602389Y-83102200D01*
X215053680Y-83289131D01*
X215053681Y-84043909D01*
X214602389Y-84230840D01*
X214126000Y-84707229D01*
X213868180Y-85329662D01*
X213868180Y-86003378D01*
X214126000Y-86625811D01*
X214602389Y-87102200D01*
X215053681Y-87289131D01*
X215053681Y-87472639D01*
X215053680Y-87472644D01*
X215053680Y-88043909D01*
X214602389Y-88230840D01*
X214126000Y-88707229D01*
X213868180Y-89329662D01*
X213868180Y-90003378D01*
X214126000Y-90625811D01*
X214602389Y-91102200D01*
X215053681Y-91289131D01*
X215053681Y-91472639D01*
X215053680Y-91472644D01*
X215053680Y-92043909D01*
X214602389Y-92230840D01*
X214126000Y-92707229D01*
X213868180Y-93329662D01*
X213868180Y-94003378D01*
X214126000Y-94625811D01*
X214410884Y-94910695D01*
X213210617Y-96110963D01*
X213255180Y-96003378D01*
X213255180Y-95329662D01*
X212997360Y-94707229D01*
X212520971Y-94230840D01*
X211898538Y-93973020D01*
X211224822Y-93973020D01*
X210602389Y-94230840D01*
X210126000Y-94707229D01*
X209918027Y-95209320D01*
X208665458Y-95209320D01*
X210722731Y-93152047D01*
X211224822Y-93360020D01*
X211898538Y-93360020D01*
X212520971Y-93102200D01*
X212997360Y-92625811D01*
X213255180Y-92003378D01*
X213255180Y-91329662D01*
X212997360Y-90707229D01*
X212520971Y-90230840D01*
X211898538Y-89973020D01*
X211224822Y-89973020D01*
X210602389Y-90230840D01*
X210126000Y-90707229D01*
X209868180Y-91329662D01*
X209868180Y-92003378D01*
X210076153Y-92505469D01*
X207688822Y-94892800D01*
X198407390Y-94892800D01*
X198362360Y-94883843D01*
X198317330Y-94892800D01*
X198235744Y-94909028D01*
X198235744Y-94637680D01*
X198206174Y-94489021D01*
X198121966Y-94362994D01*
X197995939Y-94278786D01*
X197847280Y-94249216D01*
X197130652Y-94249216D01*
X197181868Y-94198000D01*
X198618046Y-94198000D01*
X198631106Y-94263659D01*
X198715314Y-94389686D01*
X198841341Y-94473894D01*
X198990000Y-94503464D01*
X199990000Y-94503464D01*
X200138659Y-94473894D01*
X200264686Y-94389686D01*
X200348894Y-94263659D01*
X200355000Y-94232962D01*
X200355000Y-94241310D01*
X200451673Y-94474699D01*
X200630302Y-94653327D01*
X200863691Y-94750000D01*
X201204250Y-94750000D01*
X201363000Y-94591250D01*
X201363000Y-93617000D01*
X201617000Y-93617000D01*
X201617000Y-94591250D01*
X201775750Y-94750000D01*
X202116309Y-94750000D01*
X202349698Y-94653327D01*
X202528327Y-94474699D01*
X202625000Y-94241310D01*
X202625000Y-93775750D01*
X202466250Y-93617000D01*
X201617000Y-93617000D01*
X201363000Y-93617000D01*
X201343000Y-93617000D01*
X201343000Y-93363000D01*
X201363000Y-93363000D01*
X201363000Y-93343000D01*
X201617000Y-93343000D01*
X201617000Y-93363000D01*
X202466250Y-93363000D01*
X202625000Y-93204250D01*
X202625000Y-92738690D01*
X202528327Y-92505301D01*
X202349698Y-92326673D01*
X202168153Y-92251474D01*
X202234286Y-92207286D01*
X202318494Y-92081259D01*
X202321768Y-92064800D01*
X207575570Y-92064800D01*
X207620600Y-92073757D01*
X207665630Y-92064800D01*
X207798991Y-92038273D01*
X207950223Y-91937223D01*
X207975732Y-91899046D01*
X210722731Y-89152047D01*
X211224822Y-89360020D01*
X211898538Y-89360020D01*
X212520971Y-89102200D01*
X212997360Y-88625811D01*
X213255180Y-88003378D01*
X213255180Y-87329662D01*
X212997360Y-86707229D01*
X212520971Y-86230840D01*
X211898538Y-85973020D01*
X211224822Y-85973020D01*
X210602389Y-86230840D01*
X210126000Y-86707229D01*
X209868180Y-87329662D01*
X209868180Y-88003378D01*
X210076153Y-88505469D01*
X207431222Y-91150400D01*
X202577414Y-91150400D01*
X202594600Y-91108910D01*
X202594600Y-90943350D01*
X202435850Y-90784600D01*
X201556600Y-90784600D01*
X201556600Y-90804600D01*
X201302600Y-90804600D01*
X201302600Y-90784600D01*
X200423350Y-90784600D01*
X200264600Y-90943350D01*
X200264600Y-91108910D01*
X200361273Y-91342299D01*
X200511136Y-91492161D01*
X200511136Y-91932600D01*
X200540706Y-92081259D01*
X200624914Y-92207286D01*
X200737276Y-92282363D01*
X200630302Y-92326673D01*
X200451673Y-92505301D01*
X200355000Y-92738690D01*
X200355000Y-92747038D01*
X200348894Y-92716341D01*
X200264686Y-92590314D01*
X200138659Y-92506106D01*
X199990000Y-92476536D01*
X198990000Y-92476536D01*
X198841341Y-92506106D01*
X198715314Y-92590314D01*
X198631106Y-92716341D01*
X198601536Y-92865000D01*
X198601536Y-93182000D01*
X197228000Y-93182000D01*
X197228000Y-92593620D01*
X198311136Y-91510485D01*
X198311136Y-91932600D01*
X198340706Y-92081259D01*
X198424914Y-92207286D01*
X198550941Y-92291494D01*
X198699600Y-92321064D01*
X199759600Y-92321064D01*
X199908259Y-92291494D01*
X200034286Y-92207286D01*
X200118494Y-92081259D01*
X200148064Y-91932600D01*
X200148064Y-91282600D01*
X200118494Y-91133941D01*
X200117598Y-91132600D01*
X200118494Y-91131259D01*
X200148064Y-90982600D01*
X200148064Y-90332600D01*
X200118494Y-90183941D01*
X200117598Y-90182600D01*
X200118494Y-90181259D01*
X200148064Y-90032600D01*
X200148064Y-89382600D01*
X200118494Y-89233941D01*
X200034286Y-89107914D01*
X199908259Y-89023706D01*
X199759600Y-88994136D01*
X199607200Y-88994136D01*
X199607200Y-88743493D01*
X199638621Y-88737243D01*
X199835615Y-88605615D01*
X199967243Y-88408621D01*
X200013464Y-88176250D01*
X200013464Y-87892543D01*
X200301536Y-88180615D01*
X200301536Y-88390000D01*
X200331106Y-88538659D01*
X200415314Y-88664686D01*
X200541341Y-88748894D01*
X200690000Y-88778464D01*
X200882800Y-88778464D01*
X200882801Y-88997478D01*
X200750941Y-89023706D01*
X200624914Y-89107914D01*
X200540706Y-89233941D01*
X200511136Y-89382600D01*
X200511136Y-89823039D01*
X200361273Y-89972901D01*
X200264600Y-90206290D01*
X200264600Y-90371850D01*
X200423350Y-90530600D01*
X201302600Y-90530600D01*
X201302600Y-90510600D01*
X201556600Y-90510600D01*
X201556600Y-90530600D01*
X202435850Y-90530600D01*
X202594600Y-90371850D01*
X202594600Y-90206290D01*
X202497927Y-89972901D01*
X202348064Y-89823039D01*
X202348064Y-89382600D01*
X202318494Y-89233941D01*
X202234286Y-89107914D01*
X202108259Y-89023706D01*
X201959600Y-88994136D01*
X201797200Y-88994136D01*
X201797200Y-88778464D01*
X201990000Y-88778464D01*
X202138659Y-88748894D01*
X202264686Y-88664686D01*
X202348894Y-88538659D01*
X202378464Y-88390000D01*
X202378464Y-87690000D01*
X202348894Y-87541341D01*
X202264686Y-87415314D01*
X202138659Y-87331106D01*
X201990000Y-87301536D01*
X200715615Y-87301536D01*
X200521676Y-87107597D01*
X200563690Y-87125000D01*
X201054250Y-87125000D01*
X201213000Y-86966250D01*
X201213000Y-86267000D01*
X201467000Y-86267000D01*
X201467000Y-86966250D01*
X201625750Y-87125000D01*
X202116310Y-87125000D01*
X202349699Y-87028327D01*
X202528327Y-86849698D01*
X202625000Y-86616309D01*
X202625000Y-86425750D01*
X202466250Y-86267000D01*
X201467000Y-86267000D01*
X201213000Y-86267000D01*
X200213750Y-86267000D01*
X200055000Y-86425750D01*
X200055000Y-86616309D01*
X200072404Y-86658325D01*
X200013464Y-86599386D01*
X200013464Y-86163750D01*
X199967243Y-85931379D01*
X199835615Y-85734385D01*
X199729815Y-85663691D01*
X200055000Y-85663691D01*
X200055000Y-85854250D01*
X200213750Y-86013000D01*
X201213000Y-86013000D01*
X201213000Y-85313750D01*
X201467000Y-85313750D01*
X201467000Y-86013000D01*
X202466250Y-86013000D01*
X202625000Y-85854250D01*
X202625000Y-85663691D01*
X202528327Y-85430302D01*
X202349699Y-85251673D01*
X202116310Y-85155000D01*
X201625750Y-85155000D01*
X201467000Y-85313750D01*
X201213000Y-85313750D01*
X201054250Y-85155000D01*
X200563690Y-85155000D01*
X200330301Y-85251673D01*
X200151673Y-85430302D01*
X200055000Y-85663691D01*
X199729815Y-85663691D01*
X199638621Y-85602757D01*
X199406250Y-85556536D01*
X198893750Y-85556536D01*
X198661379Y-85602757D01*
X198464385Y-85734385D01*
X198336819Y-85925300D01*
X193842529Y-85925300D01*
X193797499Y-85916343D01*
X193619109Y-85951827D01*
X193467877Y-86052877D01*
X193442370Y-86091051D01*
X191308552Y-88224870D01*
X191270378Y-88250377D01*
X191244871Y-88288551D01*
X191244870Y-88288552D01*
X191169327Y-88401610D01*
X191133843Y-88580000D01*
X191142801Y-88625034D01*
X191142800Y-89352533D01*
X191131123Y-89411238D01*
X191140081Y-89456273D01*
X191140080Y-92200378D01*
X191126903Y-92180657D01*
X191088729Y-92155150D01*
X189567200Y-90633622D01*
X189567200Y-83329662D01*
X209868180Y-83329662D01*
X209868180Y-84003378D01*
X210126000Y-84625811D01*
X210602389Y-85102200D01*
X211224822Y-85360020D01*
X211898538Y-85360020D01*
X212520971Y-85102200D01*
X212997360Y-84625811D01*
X213255180Y-84003378D01*
X213255180Y-83329662D01*
X212997360Y-82707229D01*
X212520971Y-82230840D01*
X211898538Y-81973020D01*
X211224822Y-81973020D01*
X210602389Y-82230840D01*
X210126000Y-82707229D01*
X209868180Y-83329662D01*
X189567200Y-83329662D01*
X189567200Y-79329662D01*
X209868180Y-79329662D01*
X209868180Y-80003378D01*
X210126000Y-80625811D01*
X210602389Y-81102200D01*
X211224822Y-81360020D01*
X211898538Y-81360020D01*
X212520971Y-81102200D01*
X212997360Y-80625811D01*
X213255180Y-80003378D01*
X213255180Y-79329662D01*
X212997360Y-78707229D01*
X212520971Y-78230840D01*
X211898538Y-77973020D01*
X211224822Y-77973020D01*
X210602389Y-78230840D01*
X210126000Y-78707229D01*
X209868180Y-79329662D01*
X189567200Y-79329662D01*
X189567200Y-75329662D01*
X209868180Y-75329662D01*
X209868180Y-76003378D01*
X210126000Y-76625811D01*
X210602389Y-77102200D01*
X211224822Y-77360020D01*
X211898538Y-77360020D01*
X211971828Y-77329662D01*
X213868180Y-77329662D01*
X213868180Y-78003378D01*
X214126000Y-78625811D01*
X214602389Y-79102200D01*
X215224822Y-79360020D01*
X215898538Y-79360020D01*
X215977246Y-79327418D01*
X217605196Y-79327418D01*
X217624356Y-80101945D01*
X217883893Y-80728523D01*
X218183187Y-80865408D01*
X219382075Y-79666520D01*
X219741285Y-79666520D01*
X220940173Y-80865408D01*
X221239467Y-80728523D01*
X221518164Y-80005622D01*
X221499004Y-79231095D01*
X221239467Y-78604517D01*
X220940173Y-78467632D01*
X219741285Y-79666520D01*
X219382075Y-79666520D01*
X218183187Y-78467632D01*
X217883893Y-78604517D01*
X217605196Y-79327418D01*
X215977246Y-79327418D01*
X216520971Y-79102200D01*
X216997360Y-78625811D01*
X217137274Y-78288027D01*
X218362792Y-78288027D01*
X219561680Y-79486915D01*
X220760568Y-78288027D01*
X220623683Y-77988733D01*
X219900782Y-77710036D01*
X219126255Y-77729196D01*
X218499677Y-77988733D01*
X218362792Y-78288027D01*
X217137274Y-78288027D01*
X217255180Y-78003378D01*
X217255180Y-77329662D01*
X217137275Y-77045013D01*
X218362792Y-77045013D01*
X218499677Y-77344307D01*
X219222578Y-77623004D01*
X219997105Y-77603844D01*
X220623683Y-77344307D01*
X220760568Y-77045013D01*
X219561680Y-75846125D01*
X218362792Y-77045013D01*
X217137275Y-77045013D01*
X216997360Y-76707229D01*
X216520971Y-76230840D01*
X215898538Y-75973020D01*
X215224822Y-75973020D01*
X214602389Y-76230840D01*
X214126000Y-76707229D01*
X213868180Y-77329662D01*
X211971828Y-77329662D01*
X212520971Y-77102200D01*
X212997360Y-76625811D01*
X213255180Y-76003378D01*
X213255180Y-75329662D01*
X212997360Y-74707229D01*
X212520971Y-74230840D01*
X211898538Y-73973020D01*
X211224822Y-73973020D01*
X210602389Y-74230840D01*
X210126000Y-74707229D01*
X209868180Y-75329662D01*
X189567200Y-75329662D01*
X189567200Y-73045013D01*
X210362792Y-73045013D01*
X210499677Y-73344307D01*
X211222578Y-73623004D01*
X211997105Y-73603844D01*
X212623683Y-73344307D01*
X212630381Y-73329662D01*
X213868180Y-73329662D01*
X213868180Y-74003378D01*
X214126000Y-74625811D01*
X214602389Y-75102200D01*
X215224822Y-75360020D01*
X215898538Y-75360020D01*
X215977246Y-75327418D01*
X217605196Y-75327418D01*
X217624356Y-76101945D01*
X217883893Y-76728523D01*
X218183187Y-76865408D01*
X219382075Y-75666520D01*
X219741285Y-75666520D01*
X220940173Y-76865408D01*
X221239467Y-76728523D01*
X221518164Y-76005622D01*
X221499004Y-75231095D01*
X221239467Y-74604517D01*
X220940173Y-74467632D01*
X219741285Y-75666520D01*
X219382075Y-75666520D01*
X218183187Y-74467632D01*
X217883893Y-74604517D01*
X217605196Y-75327418D01*
X215977246Y-75327418D01*
X216520971Y-75102200D01*
X216997360Y-74625811D01*
X217137274Y-74288027D01*
X218362792Y-74288027D01*
X219561680Y-75486915D01*
X220760568Y-74288027D01*
X220623683Y-73988733D01*
X219900782Y-73710036D01*
X219126255Y-73729196D01*
X218499677Y-73988733D01*
X218362792Y-74288027D01*
X217137274Y-74288027D01*
X217255180Y-74003378D01*
X217255180Y-73329662D01*
X217137275Y-73045013D01*
X218362792Y-73045013D01*
X218499677Y-73344307D01*
X219222578Y-73623004D01*
X219997105Y-73603844D01*
X220623683Y-73344307D01*
X220760568Y-73045013D01*
X219561680Y-71846125D01*
X218362792Y-73045013D01*
X217137275Y-73045013D01*
X216997360Y-72707229D01*
X216520971Y-72230840D01*
X215898538Y-71973020D01*
X215224822Y-71973020D01*
X214602389Y-72230840D01*
X214126000Y-72707229D01*
X213868180Y-73329662D01*
X212630381Y-73329662D01*
X212760568Y-73045013D01*
X211561680Y-71846125D01*
X210362792Y-73045013D01*
X189567200Y-73045013D01*
X189567200Y-71327418D01*
X209605196Y-71327418D01*
X209624356Y-72101945D01*
X209883893Y-72728523D01*
X210183187Y-72865408D01*
X211382075Y-71666520D01*
X211741285Y-71666520D01*
X212940173Y-72865408D01*
X213239467Y-72728523D01*
X213518164Y-72005622D01*
X213501387Y-71327418D01*
X217605196Y-71327418D01*
X217624356Y-72101945D01*
X217883893Y-72728523D01*
X218183187Y-72865408D01*
X219382075Y-71666520D01*
X219741285Y-71666520D01*
X220940173Y-72865408D01*
X221239467Y-72728523D01*
X221518164Y-72005622D01*
X221499004Y-71231095D01*
X221239467Y-70604517D01*
X220940173Y-70467632D01*
X219741285Y-71666520D01*
X219382075Y-71666520D01*
X218183187Y-70467632D01*
X217883893Y-70604517D01*
X217605196Y-71327418D01*
X213501387Y-71327418D01*
X213499004Y-71231095D01*
X213239467Y-70604517D01*
X212940173Y-70467632D01*
X211741285Y-71666520D01*
X211382075Y-71666520D01*
X210183187Y-70467632D01*
X209883893Y-70604517D01*
X209605196Y-71327418D01*
X189567200Y-71327418D01*
X189567200Y-70288027D01*
X210362792Y-70288027D01*
X211561680Y-71486915D01*
X212760568Y-70288027D01*
X218362792Y-70288027D01*
X219561680Y-71486915D01*
X220760568Y-70288027D01*
X220623683Y-69988733D01*
X219900782Y-69710036D01*
X219126255Y-69729196D01*
X218499677Y-69988733D01*
X218362792Y-70288027D01*
X212760568Y-70288027D01*
X212623683Y-69988733D01*
X211900782Y-69710036D01*
X211126255Y-69729196D01*
X210499677Y-69988733D01*
X210362792Y-70288027D01*
X189567200Y-70288027D01*
X189567200Y-64807284D01*
X214255680Y-64807284D01*
X214255680Y-65525756D01*
X214530627Y-66189537D01*
X215038663Y-66697573D01*
X215702444Y-66972520D01*
X216420916Y-66972520D01*
X217084697Y-66697573D01*
X217592733Y-66189537D01*
X217867680Y-65525756D01*
X217867680Y-64807284D01*
X217592733Y-64143503D01*
X217084697Y-63635467D01*
X216420916Y-63360520D01*
X215702444Y-63360520D01*
X215038663Y-63635467D01*
X214530627Y-64143503D01*
X214255680Y-64807284D01*
X189567200Y-64807284D01*
X189567200Y-56555030D01*
X189576157Y-56510000D01*
X189540673Y-56331609D01*
X189465130Y-56218551D01*
X189439623Y-56180377D01*
X189401449Y-56154870D01*
X187705132Y-54458554D01*
X187679623Y-54420377D01*
X187528391Y-54319327D01*
X187395030Y-54292800D01*
X187350000Y-54283843D01*
X187304970Y-54292800D01*
X185488464Y-54292800D01*
X185488464Y-54100000D01*
X185458894Y-53951341D01*
X185374686Y-53825314D01*
X185248659Y-53741106D01*
X185100000Y-53711536D01*
X184400000Y-53711536D01*
X184251341Y-53741106D01*
X184125314Y-53825314D01*
X184041106Y-53951341D01*
X184011536Y-54100000D01*
X184011536Y-55400000D01*
X184041106Y-55548659D01*
X184125314Y-55674686D01*
X184251341Y-55758894D01*
X184400000Y-55788464D01*
X185100000Y-55788464D01*
X185248659Y-55758894D01*
X185374686Y-55674686D01*
X185458894Y-55548659D01*
X185488464Y-55400000D01*
X185488464Y-55207200D01*
X187160622Y-55207200D01*
X187408662Y-55455240D01*
X187062270Y-55455240D01*
X186903520Y-55613990D01*
X186903520Y-56713240D01*
X187952770Y-56713240D01*
X188111520Y-56554490D01*
X188111520Y-56158099D01*
X188652801Y-56699380D01*
X188652800Y-90777970D01*
X188643843Y-90823000D01*
X188652800Y-90868029D01*
X188679327Y-91001390D01*
X188780377Y-91152623D01*
X188818554Y-91178132D01*
X189914637Y-92274216D01*
X189722280Y-92274216D01*
X189573621Y-92303786D01*
X189447594Y-92387994D01*
X189363386Y-92514021D01*
X189333816Y-92662680D01*
X189333816Y-94249216D01*
X187747280Y-94249216D01*
X187598621Y-94278786D01*
X187472594Y-94362994D01*
X187388386Y-94489021D01*
X187358816Y-94637680D01*
X187358816Y-95187680D01*
X187383680Y-95312680D01*
X187358816Y-95437680D01*
X187358816Y-95987680D01*
X187383680Y-96112680D01*
X187358816Y-96237680D01*
X187358816Y-96787680D01*
X187383680Y-96912680D01*
X187358816Y-97037680D01*
X187358816Y-97587680D01*
X187383680Y-97712680D01*
X187359795Y-97832760D01*
X185857061Y-97832760D01*
X185848814Y-97791301D01*
X185764606Y-97665274D01*
X185638579Y-97581066D01*
X185489920Y-97551496D01*
X184189920Y-97551496D01*
X184041261Y-97581066D01*
X183915234Y-97665274D01*
X183900902Y-97686723D01*
X183291278Y-97077099D01*
X183384686Y-97014686D01*
X183468894Y-96888659D01*
X183498464Y-96740000D01*
X183498464Y-96675710D01*
X183554920Y-96675710D01*
X183554920Y-96866269D01*
X183651593Y-97099658D01*
X183830221Y-97278287D01*
X184063610Y-97374960D01*
X184554170Y-97374960D01*
X184712920Y-97216210D01*
X184712920Y-96516960D01*
X184966920Y-96516960D01*
X184966920Y-97216210D01*
X185125670Y-97374960D01*
X185616230Y-97374960D01*
X185849619Y-97278287D01*
X186028247Y-97099658D01*
X186124920Y-96866269D01*
X186124920Y-96675710D01*
X185966170Y-96516960D01*
X184966920Y-96516960D01*
X184712920Y-96516960D01*
X183713670Y-96516960D01*
X183554920Y-96675710D01*
X183498464Y-96675710D01*
X183498464Y-96040000D01*
X183473332Y-95913651D01*
X183554920Y-95913651D01*
X183554920Y-96104210D01*
X183713670Y-96262960D01*
X184712920Y-96262960D01*
X184712920Y-95563710D01*
X184966920Y-95563710D01*
X184966920Y-96262960D01*
X185966170Y-96262960D01*
X186124920Y-96104210D01*
X186124920Y-95913651D01*
X186028247Y-95680262D01*
X185849619Y-95501633D01*
X185616230Y-95404960D01*
X185125670Y-95404960D01*
X184966920Y-95563710D01*
X184712920Y-95563710D01*
X184554170Y-95404960D01*
X184063610Y-95404960D01*
X183830221Y-95501633D01*
X183651593Y-95680262D01*
X183554920Y-95913651D01*
X183473332Y-95913651D01*
X183468894Y-95891341D01*
X183384686Y-95765314D01*
X183258659Y-95681106D01*
X183110000Y-95651536D01*
X181810000Y-95651536D01*
X181661341Y-95681106D01*
X181535314Y-95765314D01*
X181521500Y-95785988D01*
X181521500Y-66288562D01*
X183250152Y-64559911D01*
X183297868Y-64528028D01*
X183424181Y-64338988D01*
X183457340Y-64172286D01*
X183457340Y-64172282D01*
X183468535Y-64116001D01*
X183466816Y-64107357D01*
X183534499Y-64093894D01*
X183660526Y-64009686D01*
X183744734Y-63883659D01*
X183750840Y-63852962D01*
X183750840Y-63861310D01*
X183847513Y-64094699D01*
X184026142Y-64273327D01*
X184259531Y-64370000D01*
X184600090Y-64370000D01*
X184758840Y-64211250D01*
X184758840Y-63237000D01*
X185012840Y-63237000D01*
X185012840Y-64211250D01*
X185171590Y-64370000D01*
X185512149Y-64370000D01*
X185745538Y-64273327D01*
X185924167Y-64094699D01*
X186020840Y-63861310D01*
X186020840Y-63395750D01*
X185862090Y-63237000D01*
X185012840Y-63237000D01*
X184758840Y-63237000D01*
X184738840Y-63237000D01*
X184738840Y-62983000D01*
X184758840Y-62983000D01*
X184758840Y-62008750D01*
X185012840Y-62008750D01*
X185012840Y-62983000D01*
X185862090Y-62983000D01*
X186020840Y-62824250D01*
X186020840Y-62367629D01*
X186076520Y-62378704D01*
X187476520Y-62378704D01*
X187625179Y-62349134D01*
X187751206Y-62264926D01*
X187835414Y-62138899D01*
X187864984Y-61990240D01*
X187864984Y-60490240D01*
X187835414Y-60341581D01*
X187751206Y-60215554D01*
X187625179Y-60131346D01*
X187476520Y-60101776D01*
X186076520Y-60101776D01*
X185927861Y-60131346D01*
X185801834Y-60215554D01*
X185717626Y-60341581D01*
X185688056Y-60490240D01*
X185688056Y-61922863D01*
X185512149Y-61850000D01*
X185171590Y-61850000D01*
X185012840Y-62008750D01*
X184758840Y-62008750D01*
X184600090Y-61850000D01*
X184259531Y-61850000D01*
X184064984Y-61930584D01*
X184064984Y-60490240D01*
X184035414Y-60341581D01*
X183951206Y-60215554D01*
X183825179Y-60131346D01*
X183676520Y-60101776D01*
X182276520Y-60101776D01*
X182127861Y-60131346D01*
X182001834Y-60215554D01*
X181917626Y-60341581D01*
X181888056Y-60490240D01*
X181888056Y-61990240D01*
X181917626Y-62138899D01*
X182001834Y-62264926D01*
X182052184Y-62298569D01*
X182026946Y-62336341D01*
X181997376Y-62485000D01*
X181997376Y-63735000D01*
X182026946Y-63883659D01*
X182111154Y-64009686D01*
X182154781Y-64038836D01*
X180585691Y-65607927D01*
X180537972Y-65639812D01*
X180411659Y-65828853D01*
X180378500Y-65995555D01*
X180378500Y-65995559D01*
X180367305Y-66051840D01*
X180130120Y-66051840D01*
X180130120Y-56090240D01*
X181888056Y-56090240D01*
X181888056Y-57590240D01*
X181917626Y-57738899D01*
X182001834Y-57864926D01*
X182127861Y-57949134D01*
X182276520Y-57978704D01*
X183676520Y-57978704D01*
X183825179Y-57949134D01*
X183951206Y-57864926D01*
X184035414Y-57738899D01*
X184064984Y-57590240D01*
X184064984Y-57125990D01*
X185441520Y-57125990D01*
X185441520Y-57716549D01*
X185538193Y-57949938D01*
X185716821Y-58128567D01*
X185950210Y-58225240D01*
X186490770Y-58225240D01*
X186649520Y-58066490D01*
X186649520Y-56967240D01*
X186903520Y-56967240D01*
X186903520Y-58066490D01*
X187062270Y-58225240D01*
X187602830Y-58225240D01*
X187836219Y-58128567D01*
X188014847Y-57949938D01*
X188111520Y-57716549D01*
X188111520Y-57125990D01*
X187952770Y-56967240D01*
X186903520Y-56967240D01*
X186649520Y-56967240D01*
X185600270Y-56967240D01*
X185441520Y-57125990D01*
X184064984Y-57125990D01*
X184064984Y-56090240D01*
X184039860Y-55963931D01*
X185441520Y-55963931D01*
X185441520Y-56554490D01*
X185600270Y-56713240D01*
X186649520Y-56713240D01*
X186649520Y-55613990D01*
X186490770Y-55455240D01*
X185950210Y-55455240D01*
X185716821Y-55551913D01*
X185538193Y-55730542D01*
X185441520Y-55963931D01*
X184039860Y-55963931D01*
X184035414Y-55941581D01*
X183951206Y-55815554D01*
X183825179Y-55731346D01*
X183676520Y-55701776D01*
X183434143Y-55701776D01*
X183474686Y-55674686D01*
X183558894Y-55548659D01*
X183588464Y-55400000D01*
X183588464Y-54100000D01*
X183558894Y-53951341D01*
X183474686Y-53825314D01*
X183348659Y-53741106D01*
X183200000Y-53711536D01*
X182500000Y-53711536D01*
X182351341Y-53741106D01*
X182225314Y-53825314D01*
X182141106Y-53951341D01*
X182111536Y-54100000D01*
X182111536Y-55400000D01*
X182141106Y-55548659D01*
X182225314Y-55674686D01*
X182268303Y-55703410D01*
X182127861Y-55731346D01*
X182001834Y-55815554D01*
X181917626Y-55941581D01*
X181888056Y-56090240D01*
X180130120Y-56090240D01*
X180130120Y-54477700D01*
X180198510Y-53936341D01*
X180388155Y-53457350D01*
X180690959Y-53040576D01*
X181087901Y-52712197D01*
X181554037Y-52492850D01*
X182088993Y-52390802D01*
X197660529Y-51500490D01*
X215178860Y-51500490D01*
X215720219Y-51568880D01*
X215720219Y-51568880D01*
G37*
X215720219Y-51568880D02*
X216199210Y-51758525D01*
X216615984Y-52061329D01*
X216944363Y-52458271D01*
X217163710Y-52924407D01*
X217264534Y-53452945D01*
X217268121Y-53567089D01*
X217268120Y-58686862D01*
X217269606Y-58694331D01*
X217273369Y-58814087D01*
X217274558Y-58821595D01*
X217274081Y-58829180D01*
X217281652Y-58889108D01*
X217400956Y-59514524D01*
X217410308Y-59543307D01*
X217415978Y-59573031D01*
X217438214Y-59629193D01*
X217709305Y-60205290D01*
X217725523Y-60230846D01*
X217738406Y-60258223D01*
X217773910Y-60307091D01*
X218179753Y-60797671D01*
X218201815Y-60818389D01*
X218221103Y-60841704D01*
X218267645Y-60880207D01*
X218782742Y-61254446D01*
X218809258Y-61269024D01*
X218833743Y-61286813D01*
X218888398Y-61312532D01*
X219480381Y-61546914D01*
X219509697Y-61554441D01*
X219537828Y-61565579D01*
X219597148Y-61576895D01*
X219597163Y-61576899D01*
X219597171Y-61576899D01*
X220211962Y-61654565D01*
X220241747Y-61660490D01*
X221528860Y-61660490D01*
X222070219Y-61728880D01*
X222549210Y-61918525D01*
X222965984Y-62221329D01*
X223294363Y-62618271D01*
X223513710Y-63084407D01*
X223614534Y-63612945D01*
X223618121Y-63727089D01*
X223618120Y-124815161D01*
X223549730Y-125356524D01*
X223360084Y-125835512D01*
X223057279Y-126252287D01*
X222660339Y-126580665D01*
X222194203Y-126800013D01*
X221665666Y-126900836D01*
X221551554Y-126904422D01*
X220241747Y-126904422D01*
X220234278Y-126905908D01*
X220114524Y-126909671D01*
X220107015Y-126910860D01*
X220099430Y-126910383D01*
X220039502Y-126917954D01*
X219414087Y-127037258D01*
X219385305Y-127046610D01*
X219355579Y-127052280D01*
X219299417Y-127074516D01*
X218723320Y-127345607D01*
X218697764Y-127361825D01*
X218670387Y-127374708D01*
X218621519Y-127410212D01*
X218130939Y-127816055D01*
X218110221Y-127838117D01*
X218086906Y-127857405D01*
X218048410Y-127903938D01*
X218048402Y-127903947D01*
X218048399Y-127903953D01*
X217674164Y-128419043D01*
X217659582Y-128445568D01*
X217641798Y-128470045D01*
X217616085Y-128524687D01*
X217616078Y-128524700D01*
X217616076Y-128524707D01*
X217381696Y-129116682D01*
X217374168Y-129146000D01*
X217363031Y-129174130D01*
X217351714Y-129233453D01*
X217351711Y-129233465D01*
X217351711Y-129233472D01*
X217274043Y-129848278D01*
X217268121Y-129878049D01*
X217268120Y-134975161D01*
X217199730Y-135516524D01*
X217010084Y-135995512D01*
X216707279Y-136412287D01*
X216310339Y-136740665D01*
X215844203Y-136960013D01*
X215315666Y-137060836D01*
X215201554Y-137064422D01*
X205438530Y-137064422D01*
X205573560Y-136626080D01*
X205573560Y-136276080D01*
X201965560Y-136276080D01*
X201965560Y-136296080D01*
X201711560Y-136296080D01*
X201711560Y-136276080D01*
X199965560Y-136276080D01*
X199965560Y-136296080D01*
X199711560Y-136296080D01*
X199711560Y-136276080D01*
X196103560Y-136276080D01*
X196103560Y-136626080D01*
X196246170Y-137089027D01*
X196269727Y-137117481D01*
X182336875Y-137914102D01*
X181792483Y-137876725D01*
X181303447Y-137714730D01*
X180870067Y-137436210D01*
X180519566Y-137058661D01*
X180273970Y-136605807D01*
X180144821Y-136090592D01*
X180130120Y-135845761D01*
X180130120Y-129214000D01*
X180452049Y-129214000D01*
X180462001Y-129264033D01*
X180462000Y-133519972D01*
X180452049Y-133570000D01*
X180462000Y-133620028D01*
X180462000Y-133620031D01*
X180475843Y-133689623D01*
X180491475Y-133768211D01*
X180558503Y-133868525D01*
X180603753Y-133936247D01*
X180646168Y-133964588D01*
X182495414Y-135813835D01*
X182523753Y-135856247D01*
X182566165Y-135884586D01*
X182566167Y-135884588D01*
X182658602Y-135946351D01*
X182691788Y-135968525D01*
X182839968Y-135998000D01*
X182839971Y-135998000D01*
X182889999Y-136007951D01*
X182940027Y-135998000D01*
X182991536Y-135998000D01*
X182991536Y-136140000D01*
X183021106Y-136288659D01*
X183105314Y-136414686D01*
X183231341Y-136498894D01*
X183380000Y-136528464D01*
X184080000Y-136528464D01*
X184228659Y-136498894D01*
X184354686Y-136414686D01*
X184438894Y-136288659D01*
X184468464Y-136140000D01*
X184468464Y-134840000D01*
X184891536Y-134840000D01*
X184891536Y-136140000D01*
X184921106Y-136288659D01*
X185005314Y-136414686D01*
X185131341Y-136498894D01*
X185280000Y-136528464D01*
X185980000Y-136528464D01*
X186128659Y-136498894D01*
X186254686Y-136414686D01*
X186305000Y-136339385D01*
X186355314Y-136414686D01*
X186481341Y-136498894D01*
X186630000Y-136528464D01*
X187330000Y-136528464D01*
X187478659Y-136498894D01*
X187604686Y-136414686D01*
X187688894Y-136288659D01*
X187718464Y-136140000D01*
X187718464Y-135775750D01*
X187895000Y-135775750D01*
X187895000Y-136266310D01*
X187991673Y-136499699D01*
X188170302Y-136678327D01*
X188403691Y-136775000D01*
X188594250Y-136775000D01*
X188753000Y-136616250D01*
X188753000Y-135617000D01*
X189007000Y-135617000D01*
X189007000Y-136616250D01*
X189165750Y-136775000D01*
X189356309Y-136775000D01*
X189589698Y-136678327D01*
X189768327Y-136499699D01*
X189865000Y-136266310D01*
X189865000Y-135775750D01*
X189706250Y-135617000D01*
X189007000Y-135617000D01*
X188753000Y-135617000D01*
X188053750Y-135617000D01*
X187895000Y-135775750D01*
X187718464Y-135775750D01*
X187718464Y-134840000D01*
X187693340Y-134713690D01*
X187895000Y-134713690D01*
X187895000Y-135204250D01*
X188053750Y-135363000D01*
X188753000Y-135363000D01*
X188753000Y-134363750D01*
X189007000Y-134363750D01*
X189007000Y-135363000D01*
X189706250Y-135363000D01*
X189865000Y-135204250D01*
X189865000Y-134713690D01*
X189768327Y-134480301D01*
X189589698Y-134301673D01*
X189356309Y-134205000D01*
X189165750Y-134205000D01*
X189007000Y-134363750D01*
X188753000Y-134363750D01*
X188594250Y-134205000D01*
X188403691Y-134205000D01*
X188170302Y-134301673D01*
X187991673Y-134480301D01*
X187895000Y-134713690D01*
X187693340Y-134713690D01*
X187688894Y-134691341D01*
X187604686Y-134565314D01*
X187478659Y-134481106D01*
X187477022Y-134480780D01*
X187458525Y-134387788D01*
X187408587Y-134313051D01*
X187374588Y-134262168D01*
X187346247Y-134219753D01*
X187303832Y-134191412D01*
X187165020Y-134052600D01*
X187165020Y-133935750D01*
X193265000Y-133935750D01*
X193265000Y-134376309D01*
X193361673Y-134609698D01*
X193540301Y-134788327D01*
X193773690Y-134885000D01*
X194214250Y-134885000D01*
X194373000Y-134726250D01*
X194373000Y-133777000D01*
X194627000Y-133777000D01*
X194627000Y-134726250D01*
X194785750Y-134885000D01*
X195226310Y-134885000D01*
X195459699Y-134788327D01*
X195638327Y-134609698D01*
X195735000Y-134376309D01*
X195735000Y-133935750D01*
X195576250Y-133777000D01*
X194627000Y-133777000D01*
X194373000Y-133777000D01*
X193423750Y-133777000D01*
X193265000Y-133935750D01*
X187165020Y-133935750D01*
X187165020Y-133913488D01*
X187256706Y-133852226D01*
X187340914Y-133726199D01*
X187370484Y-133577540D01*
X187370484Y-132556844D01*
X187408813Y-132649378D01*
X187587441Y-132828007D01*
X187820830Y-132924680D01*
X188286390Y-132924680D01*
X188445140Y-132765930D01*
X188445140Y-131916680D01*
X188699140Y-131916680D01*
X188699140Y-132765930D01*
X188857890Y-132924680D01*
X189323450Y-132924680D01*
X189507648Y-132848382D01*
X189718210Y-132935600D01*
X190183770Y-132935600D01*
X190342520Y-132776850D01*
X190342520Y-131927600D01*
X190596520Y-131927600D01*
X190596520Y-132776850D01*
X190755270Y-132935600D01*
X191220830Y-132935600D01*
X191454219Y-132838927D01*
X191632847Y-132660298D01*
X191729520Y-132426909D01*
X191729520Y-132086350D01*
X191570770Y-131927600D01*
X190596520Y-131927600D01*
X190342520Y-131927600D01*
X189684310Y-131927600D01*
X189673390Y-131916680D01*
X188699140Y-131916680D01*
X188445140Y-131916680D01*
X187470890Y-131916680D01*
X187370409Y-132017161D01*
X187340914Y-131868881D01*
X187256706Y-131742854D01*
X187130679Y-131658646D01*
X186982020Y-131629076D01*
X186541581Y-131629076D01*
X186391719Y-131479213D01*
X186158330Y-131382540D01*
X185992770Y-131382540D01*
X185834020Y-131541290D01*
X185834020Y-132670540D01*
X185854020Y-132670540D01*
X185854020Y-132924540D01*
X185834020Y-132924540D01*
X185834020Y-134053790D01*
X185992770Y-134212540D01*
X186149020Y-134212540D01*
X186149020Y-134212992D01*
X186139069Y-134263020D01*
X186149020Y-134313048D01*
X186149020Y-134313051D01*
X186169459Y-134415802D01*
X186178495Y-134461231D01*
X186242681Y-134557293D01*
X186128659Y-134481106D01*
X185980000Y-134451536D01*
X185280000Y-134451536D01*
X185131341Y-134481106D01*
X185005314Y-134565314D01*
X184921106Y-134691341D01*
X184891536Y-134840000D01*
X184468464Y-134840000D01*
X184438894Y-134691341D01*
X184409365Y-134647148D01*
X184535802Y-134621998D01*
X184659408Y-134539408D01*
X185065191Y-134133625D01*
X185255710Y-134212540D01*
X185421270Y-134212540D01*
X185580020Y-134053790D01*
X185580020Y-132924540D01*
X185560020Y-132924540D01*
X185560020Y-132670540D01*
X185580020Y-132670540D01*
X185580020Y-131541290D01*
X185421270Y-131382540D01*
X185255710Y-131382540D01*
X185022321Y-131479213D01*
X184912535Y-131589000D01*
X184410000Y-131589000D01*
X184264198Y-131618002D01*
X184140592Y-131700592D01*
X184100592Y-131740592D01*
X184018002Y-131864198D01*
X183995907Y-131975277D01*
X183921000Y-132050184D01*
X183921000Y-131557816D01*
X184147816Y-131331000D01*
X185110000Y-131331000D01*
X185202406Y-131319624D01*
X185324496Y-131261949D01*
X185370000Y-131271000D01*
X187200000Y-131271000D01*
X187312140Y-131248694D01*
X187312140Y-131503930D01*
X187470890Y-131662680D01*
X188445140Y-131662680D01*
X188445140Y-131642680D01*
X188699140Y-131642680D01*
X188699140Y-131662680D01*
X189357350Y-131662680D01*
X189368270Y-131673600D01*
X190342520Y-131673600D01*
X190342520Y-131653600D01*
X190596520Y-131653600D01*
X190596520Y-131673600D01*
X191570770Y-131673600D01*
X191729520Y-131514850D01*
X191729520Y-131174291D01*
X191632847Y-130940902D01*
X191482946Y-130791000D01*
X191960000Y-130791000D01*
X192105802Y-130761998D01*
X192229408Y-130679408D01*
X193464694Y-129444122D01*
X193461536Y-129460000D01*
X193461536Y-130160000D01*
X193491106Y-130308659D01*
X193575314Y-130434686D01*
X193701341Y-130518894D01*
X193707823Y-130520183D01*
X193625314Y-130575314D01*
X193541106Y-130701341D01*
X193511536Y-130850000D01*
X193511536Y-132050000D01*
X193541106Y-132198659D01*
X193625314Y-132324686D01*
X193751341Y-132408894D01*
X193782038Y-132415000D01*
X193773690Y-132415000D01*
X193540301Y-132511673D01*
X193361673Y-132690302D01*
X193265000Y-132923691D01*
X193265000Y-133364250D01*
X193423750Y-133523000D01*
X194373000Y-133523000D01*
X194373000Y-133503000D01*
X194627000Y-133503000D01*
X194627000Y-133523000D01*
X195576250Y-133523000D01*
X195735000Y-133364250D01*
X195735000Y-133250226D01*
X196966248Y-133250226D01*
X196994611Y-133790524D01*
X197146807Y-134157958D01*
X197385162Y-134222873D01*
X198158955Y-133449080D01*
X197385162Y-132675287D01*
X197146807Y-132740202D01*
X196966248Y-133250226D01*
X195735000Y-133250226D01*
X195735000Y-132923691D01*
X195638327Y-132690302D01*
X195459699Y-132511673D01*
X195226310Y-132415000D01*
X195217962Y-132415000D01*
X195248659Y-132408894D01*
X195374686Y-132324686D01*
X195458894Y-132198659D01*
X195488464Y-132050000D01*
X195488464Y-130850000D01*
X195458894Y-130701341D01*
X195374686Y-130575314D01*
X195292177Y-130520183D01*
X195298659Y-130518894D01*
X195424686Y-130434686D01*
X195508894Y-130308659D01*
X195538464Y-130160000D01*
X195538464Y-129460000D01*
X195508894Y-129311341D01*
X195424686Y-129185314D01*
X195298659Y-129101106D01*
X195164413Y-129074403D01*
X195579408Y-128659408D01*
X195661998Y-128535802D01*
X195691000Y-128390000D01*
X195691000Y-127470000D01*
X195661998Y-127324198D01*
X195579408Y-127200592D01*
X195455802Y-127118002D01*
X195310000Y-127089000D01*
X187010000Y-127089000D01*
X186852154Y-127123236D01*
X186731468Y-127210037D01*
X185195962Y-128855222D01*
X185166844Y-128884340D01*
X185140000Y-128879000D01*
X182023420Y-128879000D01*
X182773836Y-128128585D01*
X182816247Y-128100247D01*
X182844586Y-128057835D01*
X182844588Y-128057833D01*
X182879733Y-128005234D01*
X183570000Y-128005234D01*
X183715802Y-127976232D01*
X183839408Y-127893642D01*
X184039408Y-127693642D01*
X184121998Y-127570036D01*
X184151000Y-127424234D01*
X184151000Y-123861830D01*
X186193040Y-123861830D01*
X186193040Y-125452390D01*
X186289713Y-125685779D01*
X186468342Y-125864407D01*
X186701731Y-125961080D01*
X187432290Y-125961080D01*
X187591040Y-125802330D01*
X187591040Y-123703080D01*
X187845040Y-123703080D01*
X187845040Y-125802330D01*
X188003790Y-125961080D01*
X188734349Y-125961080D01*
X188967738Y-125864407D01*
X189146367Y-125685779D01*
X189243040Y-125452390D01*
X189243040Y-123861830D01*
X189084290Y-123703080D01*
X187845040Y-123703080D01*
X187591040Y-123703080D01*
X186351790Y-123703080D01*
X186193040Y-123861830D01*
X184151000Y-123861830D01*
X184151000Y-120148350D01*
X184702960Y-120148350D01*
X184702960Y-120788910D01*
X184799633Y-121022299D01*
X184978262Y-121200927D01*
X185211651Y-121297600D01*
X185552210Y-121297600D01*
X185710960Y-121138850D01*
X185710960Y-119989600D01*
X185964960Y-119989600D01*
X185964960Y-121138850D01*
X186123710Y-121297600D01*
X186458495Y-121297600D01*
X186289713Y-121466381D01*
X186193040Y-121699770D01*
X186193040Y-123290330D01*
X186351790Y-123449080D01*
X187591040Y-123449080D01*
X187591040Y-121349830D01*
X187845040Y-121349830D01*
X187845040Y-123449080D01*
X189084290Y-123449080D01*
X189243040Y-123290330D01*
X189243040Y-121699770D01*
X189223150Y-121651750D01*
X192715500Y-121651750D01*
X192715500Y-122381309D01*
X192812173Y-122614698D01*
X192990801Y-122793327D01*
X193224190Y-122890000D01*
X194144250Y-122890000D01*
X194303000Y-122731250D01*
X194303000Y-121493000D01*
X194557000Y-121493000D01*
X194557000Y-122731250D01*
X194715750Y-122890000D01*
X195635810Y-122890000D01*
X195869199Y-122793327D01*
X196047827Y-122614698D01*
X196144500Y-122381309D01*
X196144500Y-121651750D01*
X195985750Y-121493000D01*
X194557000Y-121493000D01*
X194303000Y-121493000D01*
X192874250Y-121493000D01*
X192715500Y-121651750D01*
X189223150Y-121651750D01*
X189146367Y-121466381D01*
X188967738Y-121287753D01*
X188734349Y-121191080D01*
X188003790Y-121191080D01*
X187845040Y-121349830D01*
X187591040Y-121349830D01*
X187432290Y-121191080D01*
X186707505Y-121191080D01*
X186876287Y-121022299D01*
X186972960Y-120788910D01*
X186972960Y-120350691D01*
X192715500Y-120350691D01*
X192715500Y-121080250D01*
X192874250Y-121239000D01*
X194303000Y-121239000D01*
X194303000Y-120000750D01*
X194557000Y-120000750D01*
X194557000Y-121239000D01*
X195985750Y-121239000D01*
X196144500Y-121080250D01*
X196144500Y-120350691D01*
X196047827Y-120117302D01*
X195869199Y-119938673D01*
X195635810Y-119842000D01*
X194715750Y-119842000D01*
X194557000Y-120000750D01*
X194303000Y-120000750D01*
X194144250Y-119842000D01*
X193224190Y-119842000D01*
X192990801Y-119938673D01*
X192812173Y-120117302D01*
X192715500Y-120350691D01*
X186972960Y-120350691D01*
X186972960Y-120148350D01*
X186814210Y-119989600D01*
X185964960Y-119989600D01*
X185710960Y-119989600D01*
X184861710Y-119989600D01*
X184702960Y-120148350D01*
X184151000Y-120148350D01*
X184151000Y-119049890D01*
X184223691Y-119080000D01*
X184564250Y-119080000D01*
X184702960Y-118941290D01*
X184702960Y-119576850D01*
X184861710Y-119735600D01*
X185710960Y-119735600D01*
X185710960Y-119715600D01*
X185964960Y-119715600D01*
X185964960Y-119735600D01*
X186814210Y-119735600D01*
X186972960Y-119576850D01*
X186972960Y-118936290D01*
X186876287Y-118702901D01*
X186697658Y-118524273D01*
X186464269Y-118427600D01*
X186123710Y-118427600D01*
X185985000Y-118566310D01*
X185985000Y-118105750D01*
X185826250Y-117947000D01*
X184977000Y-117947000D01*
X184977000Y-117967000D01*
X184723000Y-117967000D01*
X184723000Y-117947000D01*
X184703000Y-117947000D01*
X184703000Y-117693000D01*
X184723000Y-117693000D01*
X184723000Y-116718750D01*
X184977000Y-116718750D01*
X184977000Y-117693000D01*
X185826250Y-117693000D01*
X185985000Y-117534250D01*
X185985000Y-117068690D01*
X185888327Y-116835301D01*
X185709698Y-116656673D01*
X185476309Y-116560000D01*
X185135750Y-116560000D01*
X184977000Y-116718750D01*
X184723000Y-116718750D01*
X184564250Y-116560000D01*
X184223691Y-116560000D01*
X184151000Y-116590110D01*
X184151000Y-113044234D01*
X184121998Y-112898432D01*
X184039408Y-112774826D01*
X183599408Y-112334826D01*
X183475802Y-112252236D01*
X183330000Y-112223234D01*
X182150000Y-112223234D01*
X182004198Y-112252236D01*
X181880592Y-112334826D01*
X180850592Y-113364826D01*
X180768106Y-113488180D01*
X180739000Y-113633962D01*
X180729000Y-127623962D01*
X180758002Y-127770036D01*
X180840592Y-127893642D01*
X180964198Y-127976232D01*
X181110000Y-128005234D01*
X181460345Y-128005234D01*
X180646166Y-128819414D01*
X180603754Y-128847753D01*
X180575415Y-128890165D01*
X180575412Y-128890168D01*
X180491475Y-129015789D01*
X180452049Y-129214000D01*
X180130120Y-129214000D01*
X180130120Y-66051840D01*
X180367305Y-66051840D01*
X180378500Y-66108121D01*
X180378501Y-103342710D01*
X180378500Y-103342715D01*
X180378500Y-103342719D01*
X180367305Y-103399000D01*
X180378500Y-103455281D01*
X180378500Y-103513715D01*
X180378501Y-105134294D01*
X180367305Y-105190580D01*
X180411660Y-105413568D01*
X180480588Y-105516725D01*
X180537973Y-105602608D01*
X180585689Y-105634491D01*
X188063336Y-113112139D01*
X188063336Y-115892380D01*
X188092906Y-116041039D01*
X188177114Y-116167066D01*
X188303141Y-116251274D01*
X188451800Y-116280844D01*
X189451800Y-116280844D01*
X189600459Y-116251274D01*
X189726486Y-116167066D01*
X189810694Y-116041039D01*
X189840264Y-115892380D01*
X189840264Y-115145264D01*
X190878832Y-116183832D01*
X190907173Y-116226247D01*
X191075208Y-116338525D01*
X191223388Y-116368000D01*
X191223392Y-116368000D01*
X191273419Y-116377951D01*
X191323446Y-116368000D01*
X194729580Y-116368000D01*
X198412000Y-120050421D01*
X198412001Y-122278131D01*
X198338607Y-122351525D01*
X198234200Y-122603586D01*
X198234200Y-122876414D01*
X198338607Y-123128475D01*
X198531525Y-123321393D01*
X198629713Y-123362064D01*
X197133278Y-124858500D01*
X195897964Y-124858500D01*
X195897964Y-124541000D01*
X195868394Y-124392341D01*
X195784186Y-124266314D01*
X195658159Y-124182106D01*
X195509500Y-124152536D01*
X193350500Y-124152536D01*
X193201841Y-124182106D01*
X193075814Y-124266314D01*
X192991606Y-124392341D01*
X192962036Y-124541000D01*
X192962036Y-124585000D01*
X192734612Y-124585000D01*
X192674686Y-124495314D01*
X192548659Y-124411106D01*
X192400000Y-124381536D01*
X189900000Y-124381536D01*
X189751341Y-124411106D01*
X189625314Y-124495314D01*
X189541106Y-124621341D01*
X189511536Y-124770000D01*
X189511536Y-125670000D01*
X189541106Y-125818659D01*
X189625314Y-125944686D01*
X189751341Y-126028894D01*
X189900000Y-126058464D01*
X192400000Y-126058464D01*
X192548659Y-126028894D01*
X192674686Y-125944686D01*
X192734612Y-125855000D01*
X192962036Y-125855000D01*
X192962036Y-126319000D01*
X192991606Y-126467659D01*
X193075814Y-126593686D01*
X193201841Y-126677894D01*
X193350500Y-126707464D01*
X195509500Y-126707464D01*
X195658159Y-126677894D01*
X195784186Y-126593686D01*
X195868394Y-126467659D01*
X195897964Y-126319000D01*
X195897964Y-126001500D01*
X197313719Y-126001500D01*
X197370000Y-126012695D01*
X197426281Y-126001500D01*
X197426286Y-126001500D01*
X197592988Y-125968341D01*
X197782028Y-125842028D01*
X197813913Y-125794309D01*
X198236428Y-125371794D01*
X198338607Y-125618475D01*
X198531525Y-125811393D01*
X198783586Y-125915800D01*
X198887379Y-125915800D01*
X199030560Y-126058981D01*
X199030561Y-132251352D01*
X198537414Y-132076768D01*
X197997116Y-132105131D01*
X197629682Y-132257327D01*
X197564767Y-132495682D01*
X198338560Y-133269475D01*
X198352703Y-133255333D01*
X198532308Y-133434938D01*
X198518165Y-133449080D01*
X198532308Y-133463223D01*
X198352703Y-133642828D01*
X198338560Y-133628685D01*
X197564767Y-134402478D01*
X197608779Y-134564080D01*
X197211558Y-134564080D01*
X197211558Y-134564367D01*
X197056232Y-134628705D01*
X197020951Y-134605618D01*
X196983279Y-134609488D01*
X196555086Y-134836000D01*
X196246170Y-135209133D01*
X196103560Y-135672080D01*
X196103560Y-136022080D01*
X199711560Y-136022080D01*
X199711560Y-136002080D01*
X199965560Y-136002080D01*
X199965560Y-136022080D01*
X201711560Y-136022080D01*
X201711560Y-136002080D01*
X201965560Y-136002080D01*
X201965560Y-136022080D01*
X205573560Y-136022080D01*
X205573560Y-135672080D01*
X205430950Y-135209133D01*
X205355501Y-135118000D01*
X211539972Y-135118000D01*
X211590000Y-135127951D01*
X211640028Y-135118000D01*
X211640032Y-135118000D01*
X211788212Y-135088525D01*
X211956247Y-134976247D01*
X211984588Y-134933832D01*
X212489956Y-134428464D01*
X212860000Y-134428464D01*
X213008659Y-134398894D01*
X213134686Y-134314686D01*
X213218894Y-134188659D01*
X213248464Y-134040000D01*
X213248464Y-132740000D01*
X213218894Y-132591341D01*
X213134686Y-132465314D01*
X213018000Y-132387347D01*
X213018000Y-131823586D01*
X213314200Y-131823586D01*
X213314200Y-132096414D01*
X213418607Y-132348475D01*
X213611525Y-132541393D01*
X213707827Y-132581282D01*
X213701106Y-132591341D01*
X213671536Y-132740000D01*
X213671536Y-134040000D01*
X213701106Y-134188659D01*
X213785314Y-134314686D01*
X213911341Y-134398894D01*
X214060000Y-134428464D01*
X214760000Y-134428464D01*
X214908659Y-134398894D01*
X215034686Y-134314686D01*
X215118894Y-134188659D01*
X215148464Y-134040000D01*
X215148464Y-132740000D01*
X215118894Y-132591341D01*
X215034686Y-132465314D01*
X214908659Y-132381106D01*
X214875269Y-132374464D01*
X214876157Y-132370000D01*
X214840673Y-132191609D01*
X214816561Y-132155523D01*
X214739623Y-132040377D01*
X214701446Y-132014868D01*
X214685800Y-131999222D01*
X214685800Y-131823586D01*
X214581393Y-131571525D01*
X214388475Y-131378607D01*
X214136414Y-131274200D01*
X213863586Y-131274200D01*
X213611525Y-131378607D01*
X213418607Y-131571525D01*
X213314200Y-131823586D01*
X213018000Y-131823586D01*
X213018000Y-121807284D01*
X214255680Y-121807284D01*
X214255680Y-122525756D01*
X214530627Y-123189537D01*
X215038663Y-123697573D01*
X215702444Y-123972520D01*
X216420916Y-123972520D01*
X217084697Y-123697573D01*
X217592733Y-123189537D01*
X217867680Y-122525756D01*
X217867680Y-121807284D01*
X217592733Y-121143503D01*
X217084697Y-120635467D01*
X216420916Y-120360520D01*
X215702444Y-120360520D01*
X215038663Y-120635467D01*
X214530627Y-121143503D01*
X214255680Y-121807284D01*
X213018000Y-121807284D01*
X213018000Y-121110420D01*
X215885516Y-118242905D01*
X215927927Y-118214567D01*
X215956266Y-118172155D01*
X215956268Y-118172153D01*
X216040205Y-118046532D01*
X216060003Y-117947000D01*
X216069680Y-117898352D01*
X216069680Y-117898349D01*
X216079631Y-117848321D01*
X216069680Y-117798293D01*
X216069680Y-115329662D01*
X217868180Y-115329662D01*
X217868180Y-116003378D01*
X218126000Y-116625811D01*
X218602389Y-117102200D01*
X219224822Y-117360020D01*
X219898538Y-117360020D01*
X220520971Y-117102200D01*
X220997360Y-116625811D01*
X221255180Y-116003378D01*
X221255180Y-115329662D01*
X220997360Y-114707229D01*
X220520971Y-114230840D01*
X219898538Y-113973020D01*
X219224822Y-113973020D01*
X218602389Y-114230840D01*
X218126000Y-114707229D01*
X217868180Y-115329662D01*
X216069680Y-115329662D01*
X216069680Y-115289131D01*
X216520971Y-115102200D01*
X216997360Y-114625811D01*
X217255180Y-114003378D01*
X217255180Y-113329662D01*
X217068249Y-112878371D01*
X217783835Y-112162786D01*
X217826247Y-112134447D01*
X217854586Y-112092035D01*
X217854588Y-112092033D01*
X217885648Y-112045549D01*
X218126000Y-112625811D01*
X218602389Y-113102200D01*
X219224822Y-113360020D01*
X219898538Y-113360020D01*
X220520971Y-113102200D01*
X220997360Y-112625811D01*
X221255180Y-112003378D01*
X221255180Y-111329662D01*
X220997360Y-110707229D01*
X220520971Y-110230840D01*
X219898538Y-109973020D01*
X219224822Y-109973020D01*
X218602389Y-110230840D01*
X218126000Y-110707229D01*
X217968000Y-111088675D01*
X217968000Y-108244365D01*
X218126000Y-108625811D01*
X218602389Y-109102200D01*
X219224822Y-109360020D01*
X219898538Y-109360020D01*
X220520971Y-109102200D01*
X220997360Y-108625811D01*
X221255180Y-108003378D01*
X221255180Y-107329662D01*
X220997360Y-106707229D01*
X220520971Y-106230840D01*
X219898538Y-105973020D01*
X219224822Y-105973020D01*
X218602389Y-106230840D01*
X218126000Y-106707229D01*
X217968000Y-107088675D01*
X217968000Y-104244365D01*
X218126000Y-104625811D01*
X218602389Y-105102200D01*
X219224822Y-105360020D01*
X219898538Y-105360020D01*
X220520971Y-105102200D01*
X220997360Y-104625811D01*
X221255180Y-104003378D01*
X221255180Y-103329662D01*
X220997360Y-102707229D01*
X220520971Y-102230840D01*
X219898538Y-101973020D01*
X219224822Y-101973020D01*
X218602389Y-102230840D01*
X218126000Y-102707229D01*
X217968000Y-103088675D01*
X217968000Y-100244365D01*
X218126000Y-100625811D01*
X218602389Y-101102200D01*
X219224822Y-101360020D01*
X219898538Y-101360020D01*
X220520971Y-101102200D01*
X220997360Y-100625811D01*
X221255180Y-100003378D01*
X221255180Y-99329662D01*
X220997360Y-98707229D01*
X220520971Y-98230840D01*
X219898538Y-97973020D01*
X219224822Y-97973020D01*
X218602389Y-98230840D01*
X218126000Y-98707229D01*
X217968000Y-99088675D01*
X217968000Y-96244365D01*
X218126000Y-96625811D01*
X218602389Y-97102200D01*
X219224822Y-97360020D01*
X219898538Y-97360020D01*
X220520971Y-97102200D01*
X220997360Y-96625811D01*
X221255180Y-96003378D01*
X221255180Y-95329662D01*
X220997360Y-94707229D01*
X220520971Y-94230840D01*
X219898538Y-93973020D01*
X219224822Y-93973020D01*
X218602389Y-94230840D01*
X218126000Y-94707229D01*
X217885648Y-95287491D01*
X217854588Y-95241007D01*
X217854586Y-95241005D01*
X217826247Y-95198593D01*
X217783836Y-95170255D01*
X217068249Y-94454669D01*
X217255180Y-94003378D01*
X217255180Y-93329662D01*
X217137275Y-93045013D01*
X218362792Y-93045013D01*
X218499677Y-93344307D01*
X219222578Y-93623004D01*
X219997105Y-93603844D01*
X220623683Y-93344307D01*
X220760568Y-93045013D01*
X219561680Y-91846125D01*
X218362792Y-93045013D01*
X217137275Y-93045013D01*
X216997360Y-92707229D01*
X216520971Y-92230840D01*
X216069680Y-92043909D01*
X216069680Y-91327418D01*
X217605196Y-91327418D01*
X217624356Y-92101945D01*
X217883893Y-92728523D01*
X218183187Y-92865408D01*
X219382075Y-91666520D01*
X219741285Y-91666520D01*
X220940173Y-92865408D01*
X221239467Y-92728523D01*
X221518164Y-92005622D01*
X221499004Y-91231095D01*
X221239467Y-90604517D01*
X220940173Y-90467632D01*
X219741285Y-91666520D01*
X219382075Y-91666520D01*
X218183187Y-90467632D01*
X217883893Y-90604517D01*
X217605196Y-91327418D01*
X216069680Y-91327418D01*
X216069680Y-91289131D01*
X216520971Y-91102200D01*
X216997360Y-90625811D01*
X217137274Y-90288027D01*
X218362792Y-90288027D01*
X219561680Y-91486915D01*
X220760568Y-90288027D01*
X220623683Y-89988733D01*
X219900782Y-89710036D01*
X219126255Y-89729196D01*
X218499677Y-89988733D01*
X218362792Y-90288027D01*
X217137274Y-90288027D01*
X217255180Y-90003378D01*
X217255180Y-89329662D01*
X217137275Y-89045013D01*
X218362792Y-89045013D01*
X218499677Y-89344307D01*
X219222578Y-89623004D01*
X219997105Y-89603844D01*
X220623683Y-89344307D01*
X220760568Y-89045013D01*
X219561680Y-87846125D01*
X218362792Y-89045013D01*
X217137275Y-89045013D01*
X216997360Y-88707229D01*
X216520971Y-88230840D01*
X216069680Y-88043909D01*
X216069680Y-87327418D01*
X217605196Y-87327418D01*
X217624356Y-88101945D01*
X217883893Y-88728523D01*
X218183187Y-88865408D01*
X219382075Y-87666520D01*
X219741285Y-87666520D01*
X220940173Y-88865408D01*
X221239467Y-88728523D01*
X221518164Y-88005622D01*
X221499004Y-87231095D01*
X221239467Y-86604517D01*
X220940173Y-86467632D01*
X219741285Y-87666520D01*
X219382075Y-87666520D01*
X218183187Y-86467632D01*
X217883893Y-86604517D01*
X217605196Y-87327418D01*
X216069680Y-87327418D01*
X216069680Y-87289131D01*
X216520971Y-87102200D01*
X216997360Y-86625811D01*
X217137274Y-86288027D01*
X218362792Y-86288027D01*
X219561680Y-87486915D01*
X220760568Y-86288027D01*
X220623683Y-85988733D01*
X219900782Y-85710036D01*
X219126255Y-85729196D01*
X218499677Y-85988733D01*
X218362792Y-86288027D01*
X217137274Y-86288027D01*
X217255180Y-86003378D01*
X217255180Y-85329662D01*
X217137275Y-85045013D01*
X218362792Y-85045013D01*
X218499677Y-85344307D01*
X219222578Y-85623004D01*
X219997105Y-85603844D01*
X220623683Y-85344307D01*
X220760568Y-85045013D01*
X219561680Y-83846125D01*
X218362792Y-85045013D01*
X217137275Y-85045013D01*
X216997360Y-84707229D01*
X216520971Y-84230840D01*
X216069680Y-84043909D01*
X216069680Y-83327418D01*
X217605196Y-83327418D01*
X217624356Y-84101945D01*
X217883893Y-84728523D01*
X218183187Y-84865408D01*
X219382075Y-83666520D01*
X219741285Y-83666520D01*
X220940173Y-84865408D01*
X221239467Y-84728523D01*
X221518164Y-84005622D01*
X221499004Y-83231095D01*
X221239467Y-82604517D01*
X220940173Y-82467632D01*
X219741285Y-83666520D01*
X219382075Y-83666520D01*
X218183187Y-82467632D01*
X217883893Y-82604517D01*
X217605196Y-83327418D01*
X216069680Y-83327418D01*
X216069680Y-83289131D01*
X216520971Y-83102200D01*
X216997360Y-82625811D01*
X217137274Y-82288027D01*
X218362792Y-82288027D01*
X219561680Y-83486915D01*
X220760568Y-82288027D01*
X220623683Y-81988733D01*
X219900782Y-81710036D01*
X219126255Y-81729196D01*
X218499677Y-81988733D01*
X218362792Y-82288027D01*
X217137274Y-82288027D01*
X217255180Y-82003378D01*
X217255180Y-81329662D01*
X217137275Y-81045013D01*
X218362792Y-81045013D01*
X218499677Y-81344307D01*
X219222578Y-81623004D01*
X219997105Y-81603844D01*
X220623683Y-81344307D01*
X220760568Y-81045013D01*
X219561680Y-79846125D01*
X218362792Y-81045013D01*
X217137275Y-81045013D01*
X216997360Y-80707229D01*
X216520971Y-80230840D01*
X215898538Y-79973020D01*
X215224822Y-79973020D01*
X214602389Y-80230840D01*
X214126000Y-80707229D01*
X213868180Y-81329662D01*
X213868180Y-82003378D01*
X214126000Y-82625811D01*
X214602389Y-83102200D01*
X215053680Y-83289131D01*
X215053681Y-84043909D01*
X214602389Y-84230840D01*
X214126000Y-84707229D01*
X213868180Y-85329662D01*
X213868180Y-86003378D01*
X214126000Y-86625811D01*
X214602389Y-87102200D01*
X215053681Y-87289131D01*
X215053681Y-87472639D01*
X215053680Y-87472644D01*
X215053680Y-88043909D01*
X214602389Y-88230840D01*
X214126000Y-88707229D01*
X213868180Y-89329662D01*
X213868180Y-90003378D01*
X214126000Y-90625811D01*
X214602389Y-91102200D01*
X215053681Y-91289131D01*
X215053681Y-91472639D01*
X215053680Y-91472644D01*
X215053680Y-92043909D01*
X214602389Y-92230840D01*
X214126000Y-92707229D01*
X213868180Y-93329662D01*
X213868180Y-94003378D01*
X214126000Y-94625811D01*
X214410884Y-94910695D01*
X213210617Y-96110963D01*
X213255180Y-96003378D01*
X213255180Y-95329662D01*
X212997360Y-94707229D01*
X212520971Y-94230840D01*
X211898538Y-93973020D01*
X211224822Y-93973020D01*
X210602389Y-94230840D01*
X210126000Y-94707229D01*
X209918027Y-95209320D01*
X208665458Y-95209320D01*
X210722731Y-93152047D01*
X211224822Y-93360020D01*
X211898538Y-93360020D01*
X212520971Y-93102200D01*
X212997360Y-92625811D01*
X213255180Y-92003378D01*
X213255180Y-91329662D01*
X212997360Y-90707229D01*
X212520971Y-90230840D01*
X211898538Y-89973020D01*
X211224822Y-89973020D01*
X210602389Y-90230840D01*
X210126000Y-90707229D01*
X209868180Y-91329662D01*
X209868180Y-92003378D01*
X210076153Y-92505469D01*
X207688822Y-94892800D01*
X198407390Y-94892800D01*
X198362360Y-94883843D01*
X198317330Y-94892800D01*
X198235744Y-94909028D01*
X198235744Y-94637680D01*
X198206174Y-94489021D01*
X198121966Y-94362994D01*
X197995939Y-94278786D01*
X197847280Y-94249216D01*
X197130652Y-94249216D01*
X197181868Y-94198000D01*
X198618046Y-94198000D01*
X198631106Y-94263659D01*
X198715314Y-94389686D01*
X198841341Y-94473894D01*
X198990000Y-94503464D01*
X199990000Y-94503464D01*
X200138659Y-94473894D01*
X200264686Y-94389686D01*
X200348894Y-94263659D01*
X200355000Y-94232962D01*
X200355000Y-94241310D01*
X200451673Y-94474699D01*
X200630302Y-94653327D01*
X200863691Y-94750000D01*
X201204250Y-94750000D01*
X201363000Y-94591250D01*
X201363000Y-93617000D01*
X201617000Y-93617000D01*
X201617000Y-94591250D01*
X201775750Y-94750000D01*
X202116309Y-94750000D01*
X202349698Y-94653327D01*
X202528327Y-94474699D01*
X202625000Y-94241310D01*
X202625000Y-93775750D01*
X202466250Y-93617000D01*
X201617000Y-93617000D01*
X201363000Y-93617000D01*
X201343000Y-93617000D01*
X201343000Y-93363000D01*
X201363000Y-93363000D01*
X201363000Y-93343000D01*
X201617000Y-93343000D01*
X201617000Y-93363000D01*
X202466250Y-93363000D01*
X202625000Y-93204250D01*
X202625000Y-92738690D01*
X202528327Y-92505301D01*
X202349698Y-92326673D01*
X202168153Y-92251474D01*
X202234286Y-92207286D01*
X202318494Y-92081259D01*
X202321768Y-92064800D01*
X207575570Y-92064800D01*
X207620600Y-92073757D01*
X207665630Y-92064800D01*
X207798991Y-92038273D01*
X207950223Y-91937223D01*
X207975732Y-91899046D01*
X210722731Y-89152047D01*
X211224822Y-89360020D01*
X211898538Y-89360020D01*
X212520971Y-89102200D01*
X212997360Y-88625811D01*
X213255180Y-88003378D01*
X213255180Y-87329662D01*
X212997360Y-86707229D01*
X212520971Y-86230840D01*
X211898538Y-85973020D01*
X211224822Y-85973020D01*
X210602389Y-86230840D01*
X210126000Y-86707229D01*
X209868180Y-87329662D01*
X209868180Y-88003378D01*
X210076153Y-88505469D01*
X207431222Y-91150400D01*
X202577414Y-91150400D01*
X202594600Y-91108910D01*
X202594600Y-90943350D01*
X202435850Y-90784600D01*
X201556600Y-90784600D01*
X201556600Y-90804600D01*
X201302600Y-90804600D01*
X201302600Y-90784600D01*
X200423350Y-90784600D01*
X200264600Y-90943350D01*
X200264600Y-91108910D01*
X200361273Y-91342299D01*
X200511136Y-91492161D01*
X200511136Y-91932600D01*
X200540706Y-92081259D01*
X200624914Y-92207286D01*
X200737276Y-92282363D01*
X200630302Y-92326673D01*
X200451673Y-92505301D01*
X200355000Y-92738690D01*
X200355000Y-92747038D01*
X200348894Y-92716341D01*
X200264686Y-92590314D01*
X200138659Y-92506106D01*
X199990000Y-92476536D01*
X198990000Y-92476536D01*
X198841341Y-92506106D01*
X198715314Y-92590314D01*
X198631106Y-92716341D01*
X198601536Y-92865000D01*
X198601536Y-93182000D01*
X197228000Y-93182000D01*
X197228000Y-92593620D01*
X198311136Y-91510485D01*
X198311136Y-91932600D01*
X198340706Y-92081259D01*
X198424914Y-92207286D01*
X198550941Y-92291494D01*
X198699600Y-92321064D01*
X199759600Y-92321064D01*
X199908259Y-92291494D01*
X200034286Y-92207286D01*
X200118494Y-92081259D01*
X200148064Y-91932600D01*
X200148064Y-91282600D01*
X200118494Y-91133941D01*
X200117598Y-91132600D01*
X200118494Y-91131259D01*
X200148064Y-90982600D01*
X200148064Y-90332600D01*
X200118494Y-90183941D01*
X200117598Y-90182600D01*
X200118494Y-90181259D01*
X200148064Y-90032600D01*
X200148064Y-89382600D01*
X200118494Y-89233941D01*
X200034286Y-89107914D01*
X199908259Y-89023706D01*
X199759600Y-88994136D01*
X199607200Y-88994136D01*
X199607200Y-88743493D01*
X199638621Y-88737243D01*
X199835615Y-88605615D01*
X199967243Y-88408621D01*
X200013464Y-88176250D01*
X200013464Y-87892543D01*
X200301536Y-88180615D01*
X200301536Y-88390000D01*
X200331106Y-88538659D01*
X200415314Y-88664686D01*
X200541341Y-88748894D01*
X200690000Y-88778464D01*
X200882800Y-88778464D01*
X200882801Y-88997478D01*
X200750941Y-89023706D01*
X200624914Y-89107914D01*
X200540706Y-89233941D01*
X200511136Y-89382600D01*
X200511136Y-89823039D01*
X200361273Y-89972901D01*
X200264600Y-90206290D01*
X200264600Y-90371850D01*
X200423350Y-90530600D01*
X201302600Y-90530600D01*
X201302600Y-90510600D01*
X201556600Y-90510600D01*
X201556600Y-90530600D01*
X202435850Y-90530600D01*
X202594600Y-90371850D01*
X202594600Y-90206290D01*
X202497927Y-89972901D01*
X202348064Y-89823039D01*
X202348064Y-89382600D01*
X202318494Y-89233941D01*
X202234286Y-89107914D01*
X202108259Y-89023706D01*
X201959600Y-88994136D01*
X201797200Y-88994136D01*
X201797200Y-88778464D01*
X201990000Y-88778464D01*
X202138659Y-88748894D01*
X202264686Y-88664686D01*
X202348894Y-88538659D01*
X202378464Y-88390000D01*
X202378464Y-87690000D01*
X202348894Y-87541341D01*
X202264686Y-87415314D01*
X202138659Y-87331106D01*
X201990000Y-87301536D01*
X200715615Y-87301536D01*
X200521676Y-87107597D01*
X200563690Y-87125000D01*
X201054250Y-87125000D01*
X201213000Y-86966250D01*
X201213000Y-86267000D01*
X201467000Y-86267000D01*
X201467000Y-86966250D01*
X201625750Y-87125000D01*
X202116310Y-87125000D01*
X202349699Y-87028327D01*
X202528327Y-86849698D01*
X202625000Y-86616309D01*
X202625000Y-86425750D01*
X202466250Y-86267000D01*
X201467000Y-86267000D01*
X201213000Y-86267000D01*
X200213750Y-86267000D01*
X200055000Y-86425750D01*
X200055000Y-86616309D01*
X200072404Y-86658325D01*
X200013464Y-86599386D01*
X200013464Y-86163750D01*
X199967243Y-85931379D01*
X199835615Y-85734385D01*
X199729815Y-85663691D01*
X200055000Y-85663691D01*
X200055000Y-85854250D01*
X200213750Y-86013000D01*
X201213000Y-86013000D01*
X201213000Y-85313750D01*
X201467000Y-85313750D01*
X201467000Y-86013000D01*
X202466250Y-86013000D01*
X202625000Y-85854250D01*
X202625000Y-85663691D01*
X202528327Y-85430302D01*
X202349699Y-85251673D01*
X202116310Y-85155000D01*
X201625750Y-85155000D01*
X201467000Y-85313750D01*
X201213000Y-85313750D01*
X201054250Y-85155000D01*
X200563690Y-85155000D01*
X200330301Y-85251673D01*
X200151673Y-85430302D01*
X200055000Y-85663691D01*
X199729815Y-85663691D01*
X199638621Y-85602757D01*
X199406250Y-85556536D01*
X198893750Y-85556536D01*
X198661379Y-85602757D01*
X198464385Y-85734385D01*
X198336819Y-85925300D01*
X193842529Y-85925300D01*
X193797499Y-85916343D01*
X193619109Y-85951827D01*
X193467877Y-86052877D01*
X193442370Y-86091051D01*
X191308552Y-88224870D01*
X191270378Y-88250377D01*
X191244871Y-88288551D01*
X191244870Y-88288552D01*
X191169327Y-88401610D01*
X191133843Y-88580000D01*
X191142801Y-88625034D01*
X191142800Y-89352533D01*
X191131123Y-89411238D01*
X191140081Y-89456273D01*
X191140080Y-92200378D01*
X191126903Y-92180657D01*
X191088729Y-92155150D01*
X189567200Y-90633622D01*
X189567200Y-83329662D01*
X209868180Y-83329662D01*
X209868180Y-84003378D01*
X210126000Y-84625811D01*
X210602389Y-85102200D01*
X211224822Y-85360020D01*
X211898538Y-85360020D01*
X212520971Y-85102200D01*
X212997360Y-84625811D01*
X213255180Y-84003378D01*
X213255180Y-83329662D01*
X212997360Y-82707229D01*
X212520971Y-82230840D01*
X211898538Y-81973020D01*
X211224822Y-81973020D01*
X210602389Y-82230840D01*
X210126000Y-82707229D01*
X209868180Y-83329662D01*
X189567200Y-83329662D01*
X189567200Y-79329662D01*
X209868180Y-79329662D01*
X209868180Y-80003378D01*
X210126000Y-80625811D01*
X210602389Y-81102200D01*
X211224822Y-81360020D01*
X211898538Y-81360020D01*
X212520971Y-81102200D01*
X212997360Y-80625811D01*
X213255180Y-80003378D01*
X213255180Y-79329662D01*
X212997360Y-78707229D01*
X212520971Y-78230840D01*
X211898538Y-77973020D01*
X211224822Y-77973020D01*
X210602389Y-78230840D01*
X210126000Y-78707229D01*
X209868180Y-79329662D01*
X189567200Y-79329662D01*
X189567200Y-75329662D01*
X209868180Y-75329662D01*
X209868180Y-76003378D01*
X210126000Y-76625811D01*
X210602389Y-77102200D01*
X211224822Y-77360020D01*
X211898538Y-77360020D01*
X211971828Y-77329662D01*
X213868180Y-77329662D01*
X213868180Y-78003378D01*
X214126000Y-78625811D01*
X214602389Y-79102200D01*
X215224822Y-79360020D01*
X215898538Y-79360020D01*
X215977246Y-79327418D01*
X217605196Y-79327418D01*
X217624356Y-80101945D01*
X217883893Y-80728523D01*
X218183187Y-80865408D01*
X219382075Y-79666520D01*
X219741285Y-79666520D01*
X220940173Y-80865408D01*
X221239467Y-80728523D01*
X221518164Y-80005622D01*
X221499004Y-79231095D01*
X221239467Y-78604517D01*
X220940173Y-78467632D01*
X219741285Y-79666520D01*
X219382075Y-79666520D01*
X218183187Y-78467632D01*
X217883893Y-78604517D01*
X217605196Y-79327418D01*
X215977246Y-79327418D01*
X216520971Y-79102200D01*
X216997360Y-78625811D01*
X217137274Y-78288027D01*
X218362792Y-78288027D01*
X219561680Y-79486915D01*
X220760568Y-78288027D01*
X220623683Y-77988733D01*
X219900782Y-77710036D01*
X219126255Y-77729196D01*
X218499677Y-77988733D01*
X218362792Y-78288027D01*
X217137274Y-78288027D01*
X217255180Y-78003378D01*
X217255180Y-77329662D01*
X217137275Y-77045013D01*
X218362792Y-77045013D01*
X218499677Y-77344307D01*
X219222578Y-77623004D01*
X219997105Y-77603844D01*
X220623683Y-77344307D01*
X220760568Y-77045013D01*
X219561680Y-75846125D01*
X218362792Y-77045013D01*
X217137275Y-77045013D01*
X216997360Y-76707229D01*
X216520971Y-76230840D01*
X215898538Y-75973020D01*
X215224822Y-75973020D01*
X214602389Y-76230840D01*
X214126000Y-76707229D01*
X213868180Y-77329662D01*
X211971828Y-77329662D01*
X212520971Y-77102200D01*
X212997360Y-76625811D01*
X213255180Y-76003378D01*
X213255180Y-75329662D01*
X212997360Y-74707229D01*
X212520971Y-74230840D01*
X211898538Y-73973020D01*
X211224822Y-73973020D01*
X210602389Y-74230840D01*
X210126000Y-74707229D01*
X209868180Y-75329662D01*
X189567200Y-75329662D01*
X189567200Y-73045013D01*
X210362792Y-73045013D01*
X210499677Y-73344307D01*
X211222578Y-73623004D01*
X211997105Y-73603844D01*
X212623683Y-73344307D01*
X212630381Y-73329662D01*
X213868180Y-73329662D01*
X213868180Y-74003378D01*
X214126000Y-74625811D01*
X214602389Y-75102200D01*
X215224822Y-75360020D01*
X215898538Y-75360020D01*
X215977246Y-75327418D01*
X217605196Y-75327418D01*
X217624356Y-76101945D01*
X217883893Y-76728523D01*
X218183187Y-76865408D01*
X219382075Y-75666520D01*
X219741285Y-75666520D01*
X220940173Y-76865408D01*
X221239467Y-76728523D01*
X221518164Y-76005622D01*
X221499004Y-75231095D01*
X221239467Y-74604517D01*
X220940173Y-74467632D01*
X219741285Y-75666520D01*
X219382075Y-75666520D01*
X218183187Y-74467632D01*
X217883893Y-74604517D01*
X217605196Y-75327418D01*
X215977246Y-75327418D01*
X216520971Y-75102200D01*
X216997360Y-74625811D01*
X217137274Y-74288027D01*
X218362792Y-74288027D01*
X219561680Y-75486915D01*
X220760568Y-74288027D01*
X220623683Y-73988733D01*
X219900782Y-73710036D01*
X219126255Y-73729196D01*
X218499677Y-73988733D01*
X218362792Y-74288027D01*
X217137274Y-74288027D01*
X217255180Y-74003378D01*
X217255180Y-73329662D01*
X217137275Y-73045013D01*
X218362792Y-73045013D01*
X218499677Y-73344307D01*
X219222578Y-73623004D01*
X219997105Y-73603844D01*
X220623683Y-73344307D01*
X220760568Y-73045013D01*
X219561680Y-71846125D01*
X218362792Y-73045013D01*
X217137275Y-73045013D01*
X216997360Y-72707229D01*
X216520971Y-72230840D01*
X215898538Y-71973020D01*
X215224822Y-71973020D01*
X214602389Y-72230840D01*
X214126000Y-72707229D01*
X213868180Y-73329662D01*
X212630381Y-73329662D01*
X212760568Y-73045013D01*
X211561680Y-71846125D01*
X210362792Y-73045013D01*
X189567200Y-73045013D01*
X189567200Y-71327418D01*
X209605196Y-71327418D01*
X209624356Y-72101945D01*
X209883893Y-72728523D01*
X210183187Y-72865408D01*
X211382075Y-71666520D01*
X211741285Y-71666520D01*
X212940173Y-72865408D01*
X213239467Y-72728523D01*
X213518164Y-72005622D01*
X213501387Y-71327418D01*
X217605196Y-71327418D01*
X217624356Y-72101945D01*
X217883893Y-72728523D01*
X218183187Y-72865408D01*
X219382075Y-71666520D01*
X219741285Y-71666520D01*
X220940173Y-72865408D01*
X221239467Y-72728523D01*
X221518164Y-72005622D01*
X221499004Y-71231095D01*
X221239467Y-70604517D01*
X220940173Y-70467632D01*
X219741285Y-71666520D01*
X219382075Y-71666520D01*
X218183187Y-70467632D01*
X217883893Y-70604517D01*
X217605196Y-71327418D01*
X213501387Y-71327418D01*
X213499004Y-71231095D01*
X213239467Y-70604517D01*
X212940173Y-70467632D01*
X211741285Y-71666520D01*
X211382075Y-71666520D01*
X210183187Y-70467632D01*
X209883893Y-70604517D01*
X209605196Y-71327418D01*
X189567200Y-71327418D01*
X189567200Y-70288027D01*
X210362792Y-70288027D01*
X211561680Y-71486915D01*
X212760568Y-70288027D01*
X218362792Y-70288027D01*
X219561680Y-71486915D01*
X220760568Y-70288027D01*
X220623683Y-69988733D01*
X219900782Y-69710036D01*
X219126255Y-69729196D01*
X218499677Y-69988733D01*
X218362792Y-70288027D01*
X212760568Y-70288027D01*
X212623683Y-69988733D01*
X211900782Y-69710036D01*
X211126255Y-69729196D01*
X210499677Y-69988733D01*
X210362792Y-70288027D01*
X189567200Y-70288027D01*
X189567200Y-64807284D01*
X214255680Y-64807284D01*
X214255680Y-65525756D01*
X214530627Y-66189537D01*
X215038663Y-66697573D01*
X215702444Y-66972520D01*
X216420916Y-66972520D01*
X217084697Y-66697573D01*
X217592733Y-66189537D01*
X217867680Y-65525756D01*
X217867680Y-64807284D01*
X217592733Y-64143503D01*
X217084697Y-63635467D01*
X216420916Y-63360520D01*
X215702444Y-63360520D01*
X215038663Y-63635467D01*
X214530627Y-64143503D01*
X214255680Y-64807284D01*
X189567200Y-64807284D01*
X189567200Y-56555030D01*
X189576157Y-56510000D01*
X189540673Y-56331609D01*
X189465130Y-56218551D01*
X189439623Y-56180377D01*
X189401449Y-56154870D01*
X187705132Y-54458554D01*
X187679623Y-54420377D01*
X187528391Y-54319327D01*
X187395030Y-54292800D01*
X187350000Y-54283843D01*
X187304970Y-54292800D01*
X185488464Y-54292800D01*
X185488464Y-54100000D01*
X185458894Y-53951341D01*
X185374686Y-53825314D01*
X185248659Y-53741106D01*
X185100000Y-53711536D01*
X184400000Y-53711536D01*
X184251341Y-53741106D01*
X184125314Y-53825314D01*
X184041106Y-53951341D01*
X184011536Y-54100000D01*
X184011536Y-55400000D01*
X184041106Y-55548659D01*
X184125314Y-55674686D01*
X184251341Y-55758894D01*
X184400000Y-55788464D01*
X185100000Y-55788464D01*
X185248659Y-55758894D01*
X185374686Y-55674686D01*
X185458894Y-55548659D01*
X185488464Y-55400000D01*
X185488464Y-55207200D01*
X187160622Y-55207200D01*
X187408662Y-55455240D01*
X187062270Y-55455240D01*
X186903520Y-55613990D01*
X186903520Y-56713240D01*
X187952770Y-56713240D01*
X188111520Y-56554490D01*
X188111520Y-56158099D01*
X188652801Y-56699380D01*
X188652800Y-90777970D01*
X188643843Y-90823000D01*
X188652800Y-90868029D01*
X188679327Y-91001390D01*
X188780377Y-91152623D01*
X188818554Y-91178132D01*
X189914637Y-92274216D01*
X189722280Y-92274216D01*
X189573621Y-92303786D01*
X189447594Y-92387994D01*
X189363386Y-92514021D01*
X189333816Y-92662680D01*
X189333816Y-94249216D01*
X187747280Y-94249216D01*
X187598621Y-94278786D01*
X187472594Y-94362994D01*
X187388386Y-94489021D01*
X187358816Y-94637680D01*
X187358816Y-95187680D01*
X187383680Y-95312680D01*
X187358816Y-95437680D01*
X187358816Y-95987680D01*
X187383680Y-96112680D01*
X187358816Y-96237680D01*
X187358816Y-96787680D01*
X187383680Y-96912680D01*
X187358816Y-97037680D01*
X187358816Y-97587680D01*
X187383680Y-97712680D01*
X187359795Y-97832760D01*
X185857061Y-97832760D01*
X185848814Y-97791301D01*
X185764606Y-97665274D01*
X185638579Y-97581066D01*
X185489920Y-97551496D01*
X184189920Y-97551496D01*
X184041261Y-97581066D01*
X183915234Y-97665274D01*
X183900902Y-97686723D01*
X183291278Y-97077099D01*
X183384686Y-97014686D01*
X183468894Y-96888659D01*
X183498464Y-96740000D01*
X183498464Y-96675710D01*
X183554920Y-96675710D01*
X183554920Y-96866269D01*
X183651593Y-97099658D01*
X183830221Y-97278287D01*
X184063610Y-97374960D01*
X184554170Y-97374960D01*
X184712920Y-97216210D01*
X184712920Y-96516960D01*
X184966920Y-96516960D01*
X184966920Y-97216210D01*
X185125670Y-97374960D01*
X185616230Y-97374960D01*
X185849619Y-97278287D01*
X186028247Y-97099658D01*
X186124920Y-96866269D01*
X186124920Y-96675710D01*
X185966170Y-96516960D01*
X184966920Y-96516960D01*
X184712920Y-96516960D01*
X183713670Y-96516960D01*
X183554920Y-96675710D01*
X183498464Y-96675710D01*
X183498464Y-96040000D01*
X183473332Y-95913651D01*
X183554920Y-95913651D01*
X183554920Y-96104210D01*
X183713670Y-96262960D01*
X184712920Y-96262960D01*
X184712920Y-95563710D01*
X184966920Y-95563710D01*
X184966920Y-96262960D01*
X185966170Y-96262960D01*
X186124920Y-96104210D01*
X186124920Y-95913651D01*
X186028247Y-95680262D01*
X185849619Y-95501633D01*
X185616230Y-95404960D01*
X185125670Y-95404960D01*
X184966920Y-95563710D01*
X184712920Y-95563710D01*
X184554170Y-95404960D01*
X184063610Y-95404960D01*
X183830221Y-95501633D01*
X183651593Y-95680262D01*
X183554920Y-95913651D01*
X183473332Y-95913651D01*
X183468894Y-95891341D01*
X183384686Y-95765314D01*
X183258659Y-95681106D01*
X183110000Y-95651536D01*
X181810000Y-95651536D01*
X181661341Y-95681106D01*
X181535314Y-95765314D01*
X181521500Y-95785988D01*
X181521500Y-66288562D01*
X183250152Y-64559911D01*
X183297868Y-64528028D01*
X183424181Y-64338988D01*
X183457340Y-64172286D01*
X183457340Y-64172282D01*
X183468535Y-64116001D01*
X183466816Y-64107357D01*
X183534499Y-64093894D01*
X183660526Y-64009686D01*
X183744734Y-63883659D01*
X183750840Y-63852962D01*
X183750840Y-63861310D01*
X183847513Y-64094699D01*
X184026142Y-64273327D01*
X184259531Y-64370000D01*
X184600090Y-64370000D01*
X184758840Y-64211250D01*
X184758840Y-63237000D01*
X185012840Y-63237000D01*
X185012840Y-64211250D01*
X185171590Y-64370000D01*
X185512149Y-64370000D01*
X185745538Y-64273327D01*
X185924167Y-64094699D01*
X186020840Y-63861310D01*
X186020840Y-63395750D01*
X185862090Y-63237000D01*
X185012840Y-63237000D01*
X184758840Y-63237000D01*
X184738840Y-63237000D01*
X184738840Y-62983000D01*
X184758840Y-62983000D01*
X184758840Y-62008750D01*
X185012840Y-62008750D01*
X185012840Y-62983000D01*
X185862090Y-62983000D01*
X186020840Y-62824250D01*
X186020840Y-62367629D01*
X186076520Y-62378704D01*
X187476520Y-62378704D01*
X187625179Y-62349134D01*
X187751206Y-62264926D01*
X187835414Y-62138899D01*
X187864984Y-61990240D01*
X187864984Y-60490240D01*
X187835414Y-60341581D01*
X187751206Y-60215554D01*
X187625179Y-60131346D01*
X187476520Y-60101776D01*
X186076520Y-60101776D01*
X185927861Y-60131346D01*
X185801834Y-60215554D01*
X185717626Y-60341581D01*
X185688056Y-60490240D01*
X185688056Y-61922863D01*
X185512149Y-61850000D01*
X185171590Y-61850000D01*
X185012840Y-62008750D01*
X184758840Y-62008750D01*
X184600090Y-61850000D01*
X184259531Y-61850000D01*
X184064984Y-61930584D01*
X184064984Y-60490240D01*
X184035414Y-60341581D01*
X183951206Y-60215554D01*
X183825179Y-60131346D01*
X183676520Y-60101776D01*
X182276520Y-60101776D01*
X182127861Y-60131346D01*
X182001834Y-60215554D01*
X181917626Y-60341581D01*
X181888056Y-60490240D01*
X181888056Y-61990240D01*
X181917626Y-62138899D01*
X182001834Y-62264926D01*
X182052184Y-62298569D01*
X182026946Y-62336341D01*
X181997376Y-62485000D01*
X181997376Y-63735000D01*
X182026946Y-63883659D01*
X182111154Y-64009686D01*
X182154781Y-64038836D01*
X180585691Y-65607927D01*
X180537972Y-65639812D01*
X180411659Y-65828853D01*
X180378500Y-65995555D01*
X180378500Y-65995559D01*
X180367305Y-66051840D01*
X180130120Y-66051840D01*
X180130120Y-56090240D01*
X181888056Y-56090240D01*
X181888056Y-57590240D01*
X181917626Y-57738899D01*
X182001834Y-57864926D01*
X182127861Y-57949134D01*
X182276520Y-57978704D01*
X183676520Y-57978704D01*
X183825179Y-57949134D01*
X183951206Y-57864926D01*
X184035414Y-57738899D01*
X184064984Y-57590240D01*
X184064984Y-57125990D01*
X185441520Y-57125990D01*
X185441520Y-57716549D01*
X185538193Y-57949938D01*
X185716821Y-58128567D01*
X185950210Y-58225240D01*
X186490770Y-58225240D01*
X186649520Y-58066490D01*
X186649520Y-56967240D01*
X186903520Y-56967240D01*
X186903520Y-58066490D01*
X187062270Y-58225240D01*
X187602830Y-58225240D01*
X187836219Y-58128567D01*
X188014847Y-57949938D01*
X188111520Y-57716549D01*
X188111520Y-57125990D01*
X187952770Y-56967240D01*
X186903520Y-56967240D01*
X186649520Y-56967240D01*
X185600270Y-56967240D01*
X185441520Y-57125990D01*
X184064984Y-57125990D01*
X184064984Y-56090240D01*
X184039860Y-55963931D01*
X185441520Y-55963931D01*
X185441520Y-56554490D01*
X185600270Y-56713240D01*
X186649520Y-56713240D01*
X186649520Y-55613990D01*
X186490770Y-55455240D01*
X185950210Y-55455240D01*
X185716821Y-55551913D01*
X185538193Y-55730542D01*
X185441520Y-55963931D01*
X184039860Y-55963931D01*
X184035414Y-55941581D01*
X183951206Y-55815554D01*
X183825179Y-55731346D01*
X183676520Y-55701776D01*
X183434143Y-55701776D01*
X183474686Y-55674686D01*
X183558894Y-55548659D01*
X183588464Y-55400000D01*
X183588464Y-54100000D01*
X183558894Y-53951341D01*
X183474686Y-53825314D01*
X183348659Y-53741106D01*
X183200000Y-53711536D01*
X182500000Y-53711536D01*
X182351341Y-53741106D01*
X182225314Y-53825314D01*
X182141106Y-53951341D01*
X182111536Y-54100000D01*
X182111536Y-55400000D01*
X182141106Y-55548659D01*
X182225314Y-55674686D01*
X182268303Y-55703410D01*
X182127861Y-55731346D01*
X182001834Y-55815554D01*
X181917626Y-55941581D01*
X181888056Y-56090240D01*
X180130120Y-56090240D01*
X180130120Y-54477700D01*
X180198510Y-53936341D01*
X180388155Y-53457350D01*
X180690959Y-53040576D01*
X181087901Y-52712197D01*
X181554037Y-52492850D01*
X182088993Y-52390802D01*
X197660529Y-51500490D01*
X215178860Y-51500490D01*
X215720219Y-51568880D01*
G36*
X194627002Y-132573748D02*
X194627002Y-132438464D01*
X194762286Y-132438464D01*
X194627002Y-132573748D01*
X194627002Y-132573748D01*
G37*
X194627002Y-132573748D02*
X194627002Y-132438464D01*
X194762286Y-132438464D01*
X194627002Y-132573748D01*
G36*
X194372998Y-132573748D02*
X194237714Y-132438464D01*
X194372998Y-132438464D01*
X194372998Y-132573748D01*
X194372998Y-132573748D01*
G37*
X194372998Y-132573748D02*
X194237714Y-132438464D01*
X194372998Y-132438464D01*
X194372998Y-132573748D01*
G36*
X209868180Y-100003378D02*
X210076153Y-100505469D01*
X209178552Y-101403070D01*
X209140378Y-101428577D01*
X209114871Y-101466751D01*
X209114870Y-101466752D01*
X209039327Y-101579810D01*
X209003843Y-101758200D01*
X209012801Y-101803235D01*
X209012800Y-103870141D01*
X203385937Y-109497005D01*
X203346339Y-109470546D01*
X203197680Y-109440976D01*
X201897680Y-109440976D01*
X201749021Y-109470546D01*
X201719992Y-109489942D01*
X201591650Y-109361600D01*
X200467400Y-109361600D01*
X200467400Y-109381600D01*
X200213400Y-109381600D01*
X200213400Y-109361600D01*
X199089150Y-109361600D01*
X198930400Y-109520350D01*
X198930400Y-109660910D01*
X199027073Y-109894299D01*
X199203554Y-110070779D01*
X199176936Y-110204600D01*
X199176936Y-110804600D01*
X199206506Y-110953259D01*
X199290714Y-111079286D01*
X199380981Y-111139600D01*
X199290714Y-111199914D01*
X199206506Y-111325941D01*
X199176936Y-111474600D01*
X199176936Y-112074600D01*
X199206506Y-112223259D01*
X199290714Y-112349286D01*
X199380981Y-112409600D01*
X199290714Y-112469914D01*
X199206506Y-112595941D01*
X199176936Y-112744600D01*
X199176936Y-113344600D01*
X199206506Y-113493259D01*
X199290714Y-113619286D01*
X199416741Y-113703494D01*
X199565400Y-113733064D01*
X201115400Y-113733064D01*
X201264059Y-113703494D01*
X201390086Y-113619286D01*
X201474294Y-113493259D01*
X201503864Y-113344600D01*
X201503864Y-112744600D01*
X201474294Y-112595941D01*
X201390086Y-112469914D01*
X201299819Y-112409600D01*
X201390086Y-112349286D01*
X201468587Y-112231800D01*
X201509216Y-112231800D01*
X201509216Y-112429440D01*
X201538786Y-112578099D01*
X201622994Y-112704126D01*
X201749021Y-112788334D01*
X201897680Y-112817904D01*
X203197680Y-112817904D01*
X203346339Y-112788334D01*
X203472366Y-112704126D01*
X203556574Y-112578099D01*
X203586144Y-112429440D01*
X203586144Y-111729440D01*
X203556574Y-111580781D01*
X203472366Y-111454754D01*
X203378957Y-111392341D01*
X210135744Y-104635555D01*
X210602389Y-105102200D01*
X211224822Y-105360020D01*
X211898538Y-105360020D01*
X211977246Y-105327418D01*
X213605196Y-105327418D01*
X213624356Y-106101945D01*
X213883893Y-106728523D01*
X214183187Y-106865408D01*
X215382075Y-105666520D01*
X214183187Y-104467632D01*
X213883893Y-104604517D01*
X213605196Y-105327418D01*
X211977246Y-105327418D01*
X212520971Y-105102200D01*
X212997360Y-104625811D01*
X213255180Y-104003378D01*
X213255180Y-103329662D01*
X213089339Y-102929285D01*
X213894904Y-102123720D01*
X213918027Y-102123720D01*
X214126000Y-102625811D01*
X214602389Y-103102200D01*
X215224822Y-103360020D01*
X215898538Y-103360020D01*
X216520971Y-103102200D01*
X216952000Y-102671171D01*
X216952001Y-104252221D01*
X216874186Y-104174406D01*
X216760567Y-104288025D01*
X216623683Y-103988733D01*
X215900782Y-103710036D01*
X215126255Y-103729196D01*
X214499677Y-103988733D01*
X214362792Y-104288027D01*
X215561680Y-105486915D01*
X215575823Y-105472773D01*
X215755428Y-105652378D01*
X215741285Y-105666520D01*
X215755428Y-105680663D01*
X215575823Y-105860268D01*
X215561680Y-105846125D01*
X214362792Y-107045013D01*
X214499677Y-107344307D01*
X215222578Y-107623004D01*
X215997105Y-107603844D01*
X216623683Y-107344307D01*
X216760567Y-107045015D01*
X216874186Y-107158634D01*
X216952001Y-107080819D01*
X216952001Y-108252221D01*
X216874186Y-108174406D01*
X216760567Y-108288025D01*
X216623683Y-107988733D01*
X215900782Y-107710036D01*
X215126255Y-107729196D01*
X214499677Y-107988733D01*
X214362792Y-108288027D01*
X215561680Y-109486915D01*
X215575823Y-109472773D01*
X215755428Y-109652378D01*
X215741285Y-109666520D01*
X215755428Y-109680663D01*
X215575823Y-109860268D01*
X215561680Y-109846125D01*
X214362792Y-111045013D01*
X214499677Y-111344307D01*
X215222578Y-111623004D01*
X215997105Y-111603844D01*
X216623683Y-111344307D01*
X216760567Y-111045015D01*
X216874186Y-111158634D01*
X216952001Y-111080819D01*
X216952001Y-111557778D01*
X216349829Y-112159951D01*
X215898538Y-111973020D01*
X215224822Y-111973020D01*
X214602389Y-112230840D01*
X214126000Y-112707229D01*
X213868180Y-113329662D01*
X213868180Y-114003378D01*
X214126000Y-114625811D01*
X214602389Y-115102200D01*
X215053681Y-115289131D01*
X215053680Y-117637899D01*
X212186166Y-120505414D01*
X212143754Y-120533753D01*
X212115415Y-120576165D01*
X212115412Y-120576168D01*
X212031475Y-120701789D01*
X211992049Y-120900000D01*
X212002001Y-120950033D01*
X212002000Y-132387347D01*
X211885314Y-132465314D01*
X211801106Y-132591341D01*
X211771536Y-132740000D01*
X211771536Y-133710044D01*
X211748464Y-133733116D01*
X211748464Y-132760000D01*
X211718894Y-132611341D01*
X211670682Y-132539186D01*
X211821393Y-132388475D01*
X211925800Y-132136414D01*
X211925800Y-131863586D01*
X211821393Y-131611525D01*
X211628475Y-131418607D01*
X211376414Y-131314200D01*
X211103586Y-131314200D01*
X210851525Y-131418607D01*
X210658607Y-131611525D01*
X210554200Y-131863586D01*
X210554200Y-132039222D01*
X210468552Y-132124870D01*
X210430378Y-132150377D01*
X210404871Y-132188551D01*
X210404870Y-132188552D01*
X210329327Y-132301610D01*
X210315418Y-132371536D01*
X210160000Y-132371536D01*
X210011341Y-132401106D01*
X209885314Y-132485314D01*
X209801106Y-132611341D01*
X209795000Y-132642038D01*
X209795000Y-132633690D01*
X209698327Y-132400301D01*
X209519698Y-132221673D01*
X209286309Y-132125000D01*
X208845750Y-132125000D01*
X208687000Y-132283750D01*
X208687000Y-133233000D01*
X208707000Y-133233000D01*
X208707000Y-133487000D01*
X208687000Y-133487000D01*
X208687000Y-133507000D01*
X208433000Y-133507000D01*
X208433000Y-133487000D01*
X207483750Y-133487000D01*
X207325000Y-133645750D01*
X207325000Y-134086310D01*
X207331499Y-134102000D01*
X204550123Y-134102000D01*
X204710872Y-133647934D01*
X204682509Y-133107636D01*
X204530313Y-132740202D01*
X204291958Y-132675287D01*
X203518165Y-133449080D01*
X203532308Y-133463223D01*
X203352703Y-133642828D01*
X203338560Y-133628685D01*
X203324418Y-133642828D01*
X203144813Y-133463223D01*
X203158955Y-133449080D01*
X203144813Y-133434938D01*
X203324418Y-133255333D01*
X203338560Y-133269475D01*
X203974345Y-132633690D01*
X207325000Y-132633690D01*
X207325000Y-133074250D01*
X207483750Y-133233000D01*
X208433000Y-133233000D01*
X208433000Y-132283750D01*
X208274250Y-132125000D01*
X207833691Y-132125000D01*
X207600302Y-132221673D01*
X207421673Y-132400301D01*
X207325000Y-132633690D01*
X203974345Y-132633690D01*
X204112353Y-132495682D01*
X204047438Y-132257327D01*
X203537414Y-132076768D01*
X202997116Y-132105131D01*
X202629682Y-132257327D01*
X202595760Y-132381882D01*
X202595760Y-121273024D01*
X202604717Y-121227994D01*
X202576301Y-121085136D01*
X202778475Y-121001393D01*
X202971393Y-120808475D01*
X203075800Y-120556414D01*
X203075800Y-120542422D01*
X203146220Y-120472002D01*
X203198607Y-120598475D01*
X203391525Y-120791393D01*
X203643586Y-120895800D01*
X203819222Y-120895800D01*
X204812800Y-121889379D01*
X204812801Y-127251536D01*
X204670000Y-127251536D01*
X204521341Y-127281106D01*
X204395314Y-127365314D01*
X204311106Y-127491341D01*
X204281536Y-127640000D01*
X204281536Y-128840000D01*
X204311106Y-128988659D01*
X204395314Y-129114686D01*
X204521341Y-129198894D01*
X204670000Y-129228464D01*
X205854958Y-129228464D01*
X205631886Y-129451536D01*
X204670000Y-129451536D01*
X204521341Y-129481106D01*
X204395314Y-129565314D01*
X204311106Y-129691341D01*
X204281536Y-129840000D01*
X204281536Y-131040000D01*
X204311106Y-131188659D01*
X204395314Y-131314686D01*
X204521341Y-131398894D01*
X204670000Y-131428464D01*
X205870000Y-131428464D01*
X206018659Y-131398894D01*
X206055332Y-131374390D01*
X206061673Y-131389698D01*
X206240301Y-131568327D01*
X206473690Y-131665000D01*
X206964250Y-131665000D01*
X207123000Y-131506250D01*
X207123000Y-130807000D01*
X207377000Y-130807000D01*
X207377000Y-131506250D01*
X207535750Y-131665000D01*
X208026310Y-131665000D01*
X208259699Y-131568327D01*
X208438327Y-131389698D01*
X208535000Y-131156309D01*
X208535000Y-130965750D01*
X208376250Y-130807000D01*
X207377000Y-130807000D01*
X207123000Y-130807000D01*
X207103000Y-130807000D01*
X207103000Y-130553000D01*
X207123000Y-130553000D01*
X207123000Y-129853750D01*
X207377000Y-129853750D01*
X207377000Y-130553000D01*
X208376250Y-130553000D01*
X208535000Y-130394250D01*
X208535000Y-130203691D01*
X208438327Y-129970302D01*
X208259699Y-129791673D01*
X208026310Y-129695000D01*
X207535750Y-129695000D01*
X207377000Y-129853750D01*
X207123000Y-129853750D01*
X206964250Y-129695000D01*
X206681578Y-129695000D01*
X206858114Y-129518464D01*
X207900000Y-129518464D01*
X208048659Y-129488894D01*
X208174686Y-129404686D01*
X208258894Y-129278659D01*
X208288464Y-129130000D01*
X208288464Y-128430000D01*
X208258894Y-128281341D01*
X208174686Y-128155314D01*
X208048659Y-128071106D01*
X207900000Y-128041536D01*
X206600000Y-128041536D01*
X206451341Y-128071106D01*
X206325314Y-128155314D01*
X206258464Y-128255363D01*
X206258464Y-127640000D01*
X206228894Y-127491341D01*
X206144686Y-127365314D01*
X206018659Y-127281106D01*
X205870000Y-127251536D01*
X205727200Y-127251536D01*
X205727200Y-121745029D01*
X205736157Y-121699999D01*
X205700673Y-121521609D01*
X205659507Y-121460000D01*
X205599623Y-121370377D01*
X205561449Y-121344870D01*
X204465800Y-120249222D01*
X204465800Y-120073586D01*
X204361393Y-119821525D01*
X204168475Y-119628607D01*
X204042002Y-119576220D01*
X207665952Y-115952270D01*
X209614180Y-115952270D01*
X209614180Y-117105329D01*
X209710853Y-117338718D01*
X209889481Y-117517347D01*
X210122870Y-117614020D01*
X211275930Y-117614020D01*
X211434680Y-117455270D01*
X211434680Y-115793520D01*
X211688680Y-115793520D01*
X211688680Y-117455270D01*
X211847430Y-117614020D01*
X213000490Y-117614020D01*
X213233879Y-117517347D01*
X213412507Y-117338718D01*
X213509180Y-117105329D01*
X213509180Y-115952270D01*
X213350430Y-115793520D01*
X211688680Y-115793520D01*
X211434680Y-115793520D01*
X209772930Y-115793520D01*
X209614180Y-115952270D01*
X207665952Y-115952270D01*
X207964812Y-115653411D01*
X208012528Y-115621528D01*
X208116842Y-115465412D01*
X208138841Y-115432489D01*
X208168877Y-115281485D01*
X208172000Y-115265786D01*
X208172000Y-115265783D01*
X208183195Y-115209500D01*
X208172000Y-115153218D01*
X208172000Y-114227711D01*
X209614180Y-114227711D01*
X209614180Y-115380770D01*
X209772930Y-115539520D01*
X211434680Y-115539520D01*
X211434680Y-113877770D01*
X211688680Y-113877770D01*
X211688680Y-115539520D01*
X213350430Y-115539520D01*
X213509180Y-115380770D01*
X213509180Y-114227711D01*
X213412507Y-113994322D01*
X213233879Y-113815693D01*
X213000490Y-113719020D01*
X211847430Y-113719020D01*
X211688680Y-113877770D01*
X211434680Y-113877770D01*
X211275930Y-113719020D01*
X210122870Y-113719020D01*
X209889481Y-113815693D01*
X209710853Y-113994322D01*
X209614180Y-114227711D01*
X208172000Y-114227711D01*
X208172000Y-112776524D01*
X208438411Y-112510113D01*
X208647005Y-112301520D01*
X209991674Y-112301520D01*
X210126000Y-112625811D01*
X210602389Y-113102200D01*
X211224822Y-113360020D01*
X211898538Y-113360020D01*
X212520971Y-113102200D01*
X212997360Y-112625811D01*
X213255180Y-112003378D01*
X213255180Y-111329662D01*
X212997360Y-110707229D01*
X212520971Y-110230840D01*
X211898538Y-109973020D01*
X211224822Y-109973020D01*
X210799211Y-110149314D01*
X211588505Y-109360020D01*
X211898538Y-109360020D01*
X211977246Y-109327418D01*
X213605196Y-109327418D01*
X213624356Y-110101945D01*
X213883893Y-110728523D01*
X214183187Y-110865408D01*
X215382075Y-109666520D01*
X214183187Y-108467632D01*
X213883893Y-108604517D01*
X213605196Y-109327418D01*
X211977246Y-109327418D01*
X212520971Y-109102200D01*
X212997360Y-108625811D01*
X213255180Y-108003378D01*
X213255180Y-107329662D01*
X212997360Y-106707229D01*
X212520971Y-106230840D01*
X211898538Y-105973020D01*
X211224822Y-105973020D01*
X210602389Y-106230840D01*
X210126000Y-106707229D01*
X209868180Y-107329662D01*
X209868180Y-108003378D01*
X210126000Y-108625811D01*
X210326332Y-108826143D01*
X207979194Y-111173282D01*
X207926171Y-111208711D01*
X207890743Y-111261732D01*
X207107265Y-112045211D01*
X207002343Y-112202236D01*
X206953061Y-112450000D01*
X207002343Y-112697764D01*
X207029000Y-112737659D01*
X207029001Y-114972776D01*
X203177211Y-118824567D01*
X203101393Y-118641525D01*
X202908475Y-118448607D01*
X202656414Y-118344200D01*
X202480779Y-118344200D01*
X197437200Y-113300622D01*
X197437200Y-108808290D01*
X198930400Y-108808290D01*
X198930400Y-108948850D01*
X199089150Y-109107600D01*
X200213400Y-109107600D01*
X200213400Y-108458350D01*
X200467400Y-108458350D01*
X200467400Y-109107600D01*
X201591650Y-109107600D01*
X201750400Y-108948850D01*
X201750400Y-108808290D01*
X201653727Y-108574901D01*
X201475098Y-108396273D01*
X201241709Y-108299600D01*
X200626150Y-108299600D01*
X200467400Y-108458350D01*
X200213400Y-108458350D01*
X200054650Y-108299600D01*
X199439091Y-108299600D01*
X199205702Y-108396273D01*
X199027073Y-108574901D01*
X198930400Y-108808290D01*
X197437200Y-108808290D01*
X197437200Y-106997068D01*
X197491525Y-107051393D01*
X197743586Y-107155800D01*
X198016414Y-107155800D01*
X198268475Y-107051393D01*
X198337098Y-106982770D01*
X198361080Y-106978000D01*
X198361084Y-106978000D01*
X198509264Y-106948525D01*
X198539982Y-106928000D01*
X202402158Y-106928000D01*
X202452186Y-106937951D01*
X202502214Y-106928000D01*
X202502218Y-106928000D01*
X202650398Y-106898525D01*
X202818433Y-106786247D01*
X202846774Y-106743832D01*
X209868180Y-99722427D01*
X209868180Y-100003378D01*
X209868180Y-100003378D01*
G37*
X209868180Y-100003378D02*
X210076153Y-100505469D01*
X209178552Y-101403070D01*
X209140378Y-101428577D01*
X209114871Y-101466751D01*
X209114870Y-101466752D01*
X209039327Y-101579810D01*
X209003843Y-101758200D01*
X209012801Y-101803235D01*
X209012800Y-103870141D01*
X203385937Y-109497005D01*
X203346339Y-109470546D01*
X203197680Y-109440976D01*
X201897680Y-109440976D01*
X201749021Y-109470546D01*
X201719992Y-109489942D01*
X201591650Y-109361600D01*
X200467400Y-109361600D01*
X200467400Y-109381600D01*
X200213400Y-109381600D01*
X200213400Y-109361600D01*
X199089150Y-109361600D01*
X198930400Y-109520350D01*
X198930400Y-109660910D01*
X199027073Y-109894299D01*
X199203554Y-110070779D01*
X199176936Y-110204600D01*
X199176936Y-110804600D01*
X199206506Y-110953259D01*
X199290714Y-111079286D01*
X199380981Y-111139600D01*
X199290714Y-111199914D01*
X199206506Y-111325941D01*
X199176936Y-111474600D01*
X199176936Y-112074600D01*
X199206506Y-112223259D01*
X199290714Y-112349286D01*
X199380981Y-112409600D01*
X199290714Y-112469914D01*
X199206506Y-112595941D01*
X199176936Y-112744600D01*
X199176936Y-113344600D01*
X199206506Y-113493259D01*
X199290714Y-113619286D01*
X199416741Y-113703494D01*
X199565400Y-113733064D01*
X201115400Y-113733064D01*
X201264059Y-113703494D01*
X201390086Y-113619286D01*
X201474294Y-113493259D01*
X201503864Y-113344600D01*
X201503864Y-112744600D01*
X201474294Y-112595941D01*
X201390086Y-112469914D01*
X201299819Y-112409600D01*
X201390086Y-112349286D01*
X201468587Y-112231800D01*
X201509216Y-112231800D01*
X201509216Y-112429440D01*
X201538786Y-112578099D01*
X201622994Y-112704126D01*
X201749021Y-112788334D01*
X201897680Y-112817904D01*
X203197680Y-112817904D01*
X203346339Y-112788334D01*
X203472366Y-112704126D01*
X203556574Y-112578099D01*
X203586144Y-112429440D01*
X203586144Y-111729440D01*
X203556574Y-111580781D01*
X203472366Y-111454754D01*
X203378957Y-111392341D01*
X210135744Y-104635555D01*
X210602389Y-105102200D01*
X211224822Y-105360020D01*
X211898538Y-105360020D01*
X211977246Y-105327418D01*
X213605196Y-105327418D01*
X213624356Y-106101945D01*
X213883893Y-106728523D01*
X214183187Y-106865408D01*
X215382075Y-105666520D01*
X214183187Y-104467632D01*
X213883893Y-104604517D01*
X213605196Y-105327418D01*
X211977246Y-105327418D01*
X212520971Y-105102200D01*
X212997360Y-104625811D01*
X213255180Y-104003378D01*
X213255180Y-103329662D01*
X213089339Y-102929285D01*
X213894904Y-102123720D01*
X213918027Y-102123720D01*
X214126000Y-102625811D01*
X214602389Y-103102200D01*
X215224822Y-103360020D01*
X215898538Y-103360020D01*
X216520971Y-103102200D01*
X216952000Y-102671171D01*
X216952001Y-104252221D01*
X216874186Y-104174406D01*
X216760567Y-104288025D01*
X216623683Y-103988733D01*
X215900782Y-103710036D01*
X215126255Y-103729196D01*
X214499677Y-103988733D01*
X214362792Y-104288027D01*
X215561680Y-105486915D01*
X215575823Y-105472773D01*
X215755428Y-105652378D01*
X215741285Y-105666520D01*
X215755428Y-105680663D01*
X215575823Y-105860268D01*
X215561680Y-105846125D01*
X214362792Y-107045013D01*
X214499677Y-107344307D01*
X215222578Y-107623004D01*
X215997105Y-107603844D01*
X216623683Y-107344307D01*
X216760567Y-107045015D01*
X216874186Y-107158634D01*
X216952001Y-107080819D01*
X216952001Y-108252221D01*
X216874186Y-108174406D01*
X216760567Y-108288025D01*
X216623683Y-107988733D01*
X215900782Y-107710036D01*
X215126255Y-107729196D01*
X214499677Y-107988733D01*
X214362792Y-108288027D01*
X215561680Y-109486915D01*
X215575823Y-109472773D01*
X215755428Y-109652378D01*
X215741285Y-109666520D01*
X215755428Y-109680663D01*
X215575823Y-109860268D01*
X215561680Y-109846125D01*
X214362792Y-111045013D01*
X214499677Y-111344307D01*
X215222578Y-111623004D01*
X215997105Y-111603844D01*
X216623683Y-111344307D01*
X216760567Y-111045015D01*
X216874186Y-111158634D01*
X216952001Y-111080819D01*
X216952001Y-111557778D01*
X216349829Y-112159951D01*
X215898538Y-111973020D01*
X215224822Y-111973020D01*
X214602389Y-112230840D01*
X214126000Y-112707229D01*
X213868180Y-113329662D01*
X213868180Y-114003378D01*
X214126000Y-114625811D01*
X214602389Y-115102200D01*
X215053681Y-115289131D01*
X215053680Y-117637899D01*
X212186166Y-120505414D01*
X212143754Y-120533753D01*
X212115415Y-120576165D01*
X212115412Y-120576168D01*
X212031475Y-120701789D01*
X211992049Y-120900000D01*
X212002001Y-120950033D01*
X212002000Y-132387347D01*
X211885314Y-132465314D01*
X211801106Y-132591341D01*
X211771536Y-132740000D01*
X211771536Y-133710044D01*
X211748464Y-133733116D01*
X211748464Y-132760000D01*
X211718894Y-132611341D01*
X211670682Y-132539186D01*
X211821393Y-132388475D01*
X211925800Y-132136414D01*
X211925800Y-131863586D01*
X211821393Y-131611525D01*
X211628475Y-131418607D01*
X211376414Y-131314200D01*
X211103586Y-131314200D01*
X210851525Y-131418607D01*
X210658607Y-131611525D01*
X210554200Y-131863586D01*
X210554200Y-132039222D01*
X210468552Y-132124870D01*
X210430378Y-132150377D01*
X210404871Y-132188551D01*
X210404870Y-132188552D01*
X210329327Y-132301610D01*
X210315418Y-132371536D01*
X210160000Y-132371536D01*
X210011341Y-132401106D01*
X209885314Y-132485314D01*
X209801106Y-132611341D01*
X209795000Y-132642038D01*
X209795000Y-132633690D01*
X209698327Y-132400301D01*
X209519698Y-132221673D01*
X209286309Y-132125000D01*
X208845750Y-132125000D01*
X208687000Y-132283750D01*
X208687000Y-133233000D01*
X208707000Y-133233000D01*
X208707000Y-133487000D01*
X208687000Y-133487000D01*
X208687000Y-133507000D01*
X208433000Y-133507000D01*
X208433000Y-133487000D01*
X207483750Y-133487000D01*
X207325000Y-133645750D01*
X207325000Y-134086310D01*
X207331499Y-134102000D01*
X204550123Y-134102000D01*
X204710872Y-133647934D01*
X204682509Y-133107636D01*
X204530313Y-132740202D01*
X204291958Y-132675287D01*
X203518165Y-133449080D01*
X203532308Y-133463223D01*
X203352703Y-133642828D01*
X203338560Y-133628685D01*
X203324418Y-133642828D01*
X203144813Y-133463223D01*
X203158955Y-133449080D01*
X203144813Y-133434938D01*
X203324418Y-133255333D01*
X203338560Y-133269475D01*
X203974345Y-132633690D01*
X207325000Y-132633690D01*
X207325000Y-133074250D01*
X207483750Y-133233000D01*
X208433000Y-133233000D01*
X208433000Y-132283750D01*
X208274250Y-132125000D01*
X207833691Y-132125000D01*
X207600302Y-132221673D01*
X207421673Y-132400301D01*
X207325000Y-132633690D01*
X203974345Y-132633690D01*
X204112353Y-132495682D01*
X204047438Y-132257327D01*
X203537414Y-132076768D01*
X202997116Y-132105131D01*
X202629682Y-132257327D01*
X202595760Y-132381882D01*
X202595760Y-121273024D01*
X202604717Y-121227994D01*
X202576301Y-121085136D01*
X202778475Y-121001393D01*
X202971393Y-120808475D01*
X203075800Y-120556414D01*
X203075800Y-120542422D01*
X203146220Y-120472002D01*
X203198607Y-120598475D01*
X203391525Y-120791393D01*
X203643586Y-120895800D01*
X203819222Y-120895800D01*
X204812800Y-121889379D01*
X204812801Y-127251536D01*
X204670000Y-127251536D01*
X204521341Y-127281106D01*
X204395314Y-127365314D01*
X204311106Y-127491341D01*
X204281536Y-127640000D01*
X204281536Y-128840000D01*
X204311106Y-128988659D01*
X204395314Y-129114686D01*
X204521341Y-129198894D01*
X204670000Y-129228464D01*
X205854958Y-129228464D01*
X205631886Y-129451536D01*
X204670000Y-129451536D01*
X204521341Y-129481106D01*
X204395314Y-129565314D01*
X204311106Y-129691341D01*
X204281536Y-129840000D01*
X204281536Y-131040000D01*
X204311106Y-131188659D01*
X204395314Y-131314686D01*
X204521341Y-131398894D01*
X204670000Y-131428464D01*
X205870000Y-131428464D01*
X206018659Y-131398894D01*
X206055332Y-131374390D01*
X206061673Y-131389698D01*
X206240301Y-131568327D01*
X206473690Y-131665000D01*
X206964250Y-131665000D01*
X207123000Y-131506250D01*
X207123000Y-130807000D01*
X207377000Y-130807000D01*
X207377000Y-131506250D01*
X207535750Y-131665000D01*
X208026310Y-131665000D01*
X208259699Y-131568327D01*
X208438327Y-131389698D01*
X208535000Y-131156309D01*
X208535000Y-130965750D01*
X208376250Y-130807000D01*
X207377000Y-130807000D01*
X207123000Y-130807000D01*
X207103000Y-130807000D01*
X207103000Y-130553000D01*
X207123000Y-130553000D01*
X207123000Y-129853750D01*
X207377000Y-129853750D01*
X207377000Y-130553000D01*
X208376250Y-130553000D01*
X208535000Y-130394250D01*
X208535000Y-130203691D01*
X208438327Y-129970302D01*
X208259699Y-129791673D01*
X208026310Y-129695000D01*
X207535750Y-129695000D01*
X207377000Y-129853750D01*
X207123000Y-129853750D01*
X206964250Y-129695000D01*
X206681578Y-129695000D01*
X206858114Y-129518464D01*
X207900000Y-129518464D01*
X208048659Y-129488894D01*
X208174686Y-129404686D01*
X208258894Y-129278659D01*
X208288464Y-129130000D01*
X208288464Y-128430000D01*
X208258894Y-128281341D01*
X208174686Y-128155314D01*
X208048659Y-128071106D01*
X207900000Y-128041536D01*
X206600000Y-128041536D01*
X206451341Y-128071106D01*
X206325314Y-128155314D01*
X206258464Y-128255363D01*
X206258464Y-127640000D01*
X206228894Y-127491341D01*
X206144686Y-127365314D01*
X206018659Y-127281106D01*
X205870000Y-127251536D01*
X205727200Y-127251536D01*
X205727200Y-121745029D01*
X205736157Y-121699999D01*
X205700673Y-121521609D01*
X205659507Y-121460000D01*
X205599623Y-121370377D01*
X205561449Y-121344870D01*
X204465800Y-120249222D01*
X204465800Y-120073586D01*
X204361393Y-119821525D01*
X204168475Y-119628607D01*
X204042002Y-119576220D01*
X207665952Y-115952270D01*
X209614180Y-115952270D01*
X209614180Y-117105329D01*
X209710853Y-117338718D01*
X209889481Y-117517347D01*
X210122870Y-117614020D01*
X211275930Y-117614020D01*
X211434680Y-117455270D01*
X211434680Y-115793520D01*
X211688680Y-115793520D01*
X211688680Y-117455270D01*
X211847430Y-117614020D01*
X213000490Y-117614020D01*
X213233879Y-117517347D01*
X213412507Y-117338718D01*
X213509180Y-117105329D01*
X213509180Y-115952270D01*
X213350430Y-115793520D01*
X211688680Y-115793520D01*
X211434680Y-115793520D01*
X209772930Y-115793520D01*
X209614180Y-115952270D01*
X207665952Y-115952270D01*
X207964812Y-115653411D01*
X208012528Y-115621528D01*
X208116842Y-115465412D01*
X208138841Y-115432489D01*
X208168877Y-115281485D01*
X208172000Y-115265786D01*
X208172000Y-115265783D01*
X208183195Y-115209500D01*
X208172000Y-115153218D01*
X208172000Y-114227711D01*
X209614180Y-114227711D01*
X209614180Y-115380770D01*
X209772930Y-115539520D01*
X211434680Y-115539520D01*
X211434680Y-113877770D01*
X211688680Y-113877770D01*
X211688680Y-115539520D01*
X213350430Y-115539520D01*
X213509180Y-115380770D01*
X213509180Y-114227711D01*
X213412507Y-113994322D01*
X213233879Y-113815693D01*
X213000490Y-113719020D01*
X211847430Y-113719020D01*
X211688680Y-113877770D01*
X211434680Y-113877770D01*
X211275930Y-113719020D01*
X210122870Y-113719020D01*
X209889481Y-113815693D01*
X209710853Y-113994322D01*
X209614180Y-114227711D01*
X208172000Y-114227711D01*
X208172000Y-112776524D01*
X208438411Y-112510113D01*
X208647005Y-112301520D01*
X209991674Y-112301520D01*
X210126000Y-112625811D01*
X210602389Y-113102200D01*
X211224822Y-113360020D01*
X211898538Y-113360020D01*
X212520971Y-113102200D01*
X212997360Y-112625811D01*
X213255180Y-112003378D01*
X213255180Y-111329662D01*
X212997360Y-110707229D01*
X212520971Y-110230840D01*
X211898538Y-109973020D01*
X211224822Y-109973020D01*
X210799211Y-110149314D01*
X211588505Y-109360020D01*
X211898538Y-109360020D01*
X211977246Y-109327418D01*
X213605196Y-109327418D01*
X213624356Y-110101945D01*
X213883893Y-110728523D01*
X214183187Y-110865408D01*
X215382075Y-109666520D01*
X214183187Y-108467632D01*
X213883893Y-108604517D01*
X213605196Y-109327418D01*
X211977246Y-109327418D01*
X212520971Y-109102200D01*
X212997360Y-108625811D01*
X213255180Y-108003378D01*
X213255180Y-107329662D01*
X212997360Y-106707229D01*
X212520971Y-106230840D01*
X211898538Y-105973020D01*
X211224822Y-105973020D01*
X210602389Y-106230840D01*
X210126000Y-106707229D01*
X209868180Y-107329662D01*
X209868180Y-108003378D01*
X210126000Y-108625811D01*
X210326332Y-108826143D01*
X207979194Y-111173282D01*
X207926171Y-111208711D01*
X207890743Y-111261732D01*
X207107265Y-112045211D01*
X207002343Y-112202236D01*
X206953061Y-112450000D01*
X207002343Y-112697764D01*
X207029000Y-112737659D01*
X207029001Y-114972776D01*
X203177211Y-118824567D01*
X203101393Y-118641525D01*
X202908475Y-118448607D01*
X202656414Y-118344200D01*
X202480779Y-118344200D01*
X197437200Y-113300622D01*
X197437200Y-108808290D01*
X198930400Y-108808290D01*
X198930400Y-108948850D01*
X199089150Y-109107600D01*
X200213400Y-109107600D01*
X200213400Y-108458350D01*
X200467400Y-108458350D01*
X200467400Y-109107600D01*
X201591650Y-109107600D01*
X201750400Y-108948850D01*
X201750400Y-108808290D01*
X201653727Y-108574901D01*
X201475098Y-108396273D01*
X201241709Y-108299600D01*
X200626150Y-108299600D01*
X200467400Y-108458350D01*
X200213400Y-108458350D01*
X200054650Y-108299600D01*
X199439091Y-108299600D01*
X199205702Y-108396273D01*
X199027073Y-108574901D01*
X198930400Y-108808290D01*
X197437200Y-108808290D01*
X197437200Y-106997068D01*
X197491525Y-107051393D01*
X197743586Y-107155800D01*
X198016414Y-107155800D01*
X198268475Y-107051393D01*
X198337098Y-106982770D01*
X198361080Y-106978000D01*
X198361084Y-106978000D01*
X198509264Y-106948525D01*
X198539982Y-106928000D01*
X202402158Y-106928000D01*
X202452186Y-106937951D01*
X202502214Y-106928000D01*
X202502218Y-106928000D01*
X202650398Y-106898525D01*
X202818433Y-106786247D01*
X202846774Y-106743832D01*
X209868180Y-99722427D01*
X209868180Y-100003378D01*
G36*
X188812801Y-101321477D02*
X188812800Y-111952563D01*
X188803843Y-111997593D01*
X188822628Y-112092033D01*
X188839327Y-112175983D01*
X188924809Y-112303916D01*
X188871559Y-112303916D01*
X181976106Y-105408464D01*
X183260000Y-105408464D01*
X183408659Y-105378894D01*
X183534686Y-105294686D01*
X183566647Y-105246853D01*
X183621673Y-105379698D01*
X183800301Y-105558327D01*
X184033690Y-105655000D01*
X184524250Y-105655000D01*
X184683000Y-105496250D01*
X184683000Y-104797000D01*
X184937000Y-104797000D01*
X184937000Y-105496250D01*
X185095750Y-105655000D01*
X185586310Y-105655000D01*
X185819699Y-105558327D01*
X185998327Y-105379698D01*
X186095000Y-105146309D01*
X186095000Y-104955750D01*
X185936250Y-104797000D01*
X184937000Y-104797000D01*
X184683000Y-104797000D01*
X184663000Y-104797000D01*
X184663000Y-104543000D01*
X184683000Y-104543000D01*
X184683000Y-103843750D01*
X184937000Y-103843750D01*
X184937000Y-104543000D01*
X185936250Y-104543000D01*
X186095000Y-104384250D01*
X186095000Y-104193691D01*
X185998327Y-103960302D01*
X185819699Y-103781673D01*
X185586310Y-103685000D01*
X185095750Y-103685000D01*
X184937000Y-103843750D01*
X184683000Y-103843750D01*
X184524250Y-103685000D01*
X184033690Y-103685000D01*
X183800301Y-103781673D01*
X183621673Y-103960302D01*
X183566647Y-104093147D01*
X183534686Y-104045314D01*
X183441278Y-103982901D01*
X183971743Y-103452436D01*
X184011341Y-103478894D01*
X184160000Y-103508464D01*
X185460000Y-103508464D01*
X185608659Y-103478894D01*
X185734686Y-103394686D01*
X185818894Y-103268659D01*
X185827141Y-103227200D01*
X186672330Y-103227200D01*
X186717360Y-103236157D01*
X186762390Y-103227200D01*
X186895751Y-103200673D01*
X187046983Y-103099623D01*
X187072492Y-103061446D01*
X188812745Y-101321193D01*
X188812801Y-101321477D01*
X188812801Y-101321477D01*
G37*
X188812801Y-101321477D02*
X188812800Y-111952563D01*
X188803843Y-111997593D01*
X188822628Y-112092033D01*
X188839327Y-112175983D01*
X188924809Y-112303916D01*
X188871559Y-112303916D01*
X181976106Y-105408464D01*
X183260000Y-105408464D01*
X183408659Y-105378894D01*
X183534686Y-105294686D01*
X183566647Y-105246853D01*
X183621673Y-105379698D01*
X183800301Y-105558327D01*
X184033690Y-105655000D01*
X184524250Y-105655000D01*
X184683000Y-105496250D01*
X184683000Y-104797000D01*
X184937000Y-104797000D01*
X184937000Y-105496250D01*
X185095750Y-105655000D01*
X185586310Y-105655000D01*
X185819699Y-105558327D01*
X185998327Y-105379698D01*
X186095000Y-105146309D01*
X186095000Y-104955750D01*
X185936250Y-104797000D01*
X184937000Y-104797000D01*
X184683000Y-104797000D01*
X184663000Y-104797000D01*
X184663000Y-104543000D01*
X184683000Y-104543000D01*
X184683000Y-103843750D01*
X184937000Y-103843750D01*
X184937000Y-104543000D01*
X185936250Y-104543000D01*
X186095000Y-104384250D01*
X186095000Y-104193691D01*
X185998327Y-103960302D01*
X185819699Y-103781673D01*
X185586310Y-103685000D01*
X185095750Y-103685000D01*
X184937000Y-103843750D01*
X184683000Y-103843750D01*
X184524250Y-103685000D01*
X184033690Y-103685000D01*
X183800301Y-103781673D01*
X183621673Y-103960302D01*
X183566647Y-104093147D01*
X183534686Y-104045314D01*
X183441278Y-103982901D01*
X183971743Y-103452436D01*
X184011341Y-103478894D01*
X184160000Y-103508464D01*
X185460000Y-103508464D01*
X185608659Y-103478894D01*
X185734686Y-103394686D01*
X185818894Y-103268659D01*
X185827141Y-103227200D01*
X186672330Y-103227200D01*
X186717360Y-103236157D01*
X186762390Y-103227200D01*
X186895751Y-103200673D01*
X187046983Y-103099623D01*
X187072492Y-103061446D01*
X188812745Y-101321193D01*
X188812801Y-101321477D01*
G36*
X195067400Y-110377600D02*
X195087400Y-110377600D01*
X195087400Y-110631600D01*
X195067400Y-110631600D01*
X195067400Y-110651600D01*
X194813400Y-110651600D01*
X194813400Y-110631600D01*
X194793400Y-110631600D01*
X194793400Y-110377600D01*
X194813400Y-110377600D01*
X194813400Y-110357600D01*
X195067400Y-110357600D01*
X195067400Y-110377600D01*
X195067400Y-110377600D01*
G37*
X195067400Y-110377600D02*
X195087400Y-110377600D01*
X195087400Y-110631600D01*
X195067400Y-110631600D01*
X195067400Y-110651600D01*
X194813400Y-110651600D01*
X194813400Y-110631600D01*
X194793400Y-110631600D01*
X194793400Y-110377600D01*
X194813400Y-110377600D01*
X194813400Y-110357600D01*
X195067400Y-110357600D01*
X195067400Y-110377600D01*
G36*
X194483200Y-108546136D02*
X194165400Y-108546136D01*
X194016741Y-108575706D01*
X193890714Y-108659914D01*
X193806506Y-108785941D01*
X193776936Y-108934600D01*
X193776936Y-109157747D01*
X193601310Y-109085000D01*
X193135750Y-109085000D01*
X192977000Y-109243750D01*
X192977000Y-110093000D01*
X192997000Y-110093000D01*
X192997000Y-110347000D01*
X192977000Y-110347000D01*
X192977000Y-110367000D01*
X192723000Y-110367000D01*
X192723000Y-110347000D01*
X192703000Y-110347000D01*
X192703000Y-110093000D01*
X192723000Y-110093000D01*
X192723000Y-109243750D01*
X192564250Y-109085000D01*
X192343420Y-109085000D01*
X194282621Y-107145800D01*
X194386414Y-107145800D01*
X194483200Y-107105710D01*
X194483200Y-108546136D01*
X194483200Y-108546136D01*
G37*
X194483200Y-108546136D02*
X194165400Y-108546136D01*
X194016741Y-108575706D01*
X193890714Y-108659914D01*
X193806506Y-108785941D01*
X193776936Y-108934600D01*
X193776936Y-109157747D01*
X193601310Y-109085000D01*
X193135750Y-109085000D01*
X192977000Y-109243750D01*
X192977000Y-110093000D01*
X192997000Y-110093000D01*
X192997000Y-110347000D01*
X192977000Y-110347000D01*
X192977000Y-110367000D01*
X192723000Y-110367000D01*
X192723000Y-110347000D01*
X192703000Y-110347000D01*
X192703000Y-110093000D01*
X192723000Y-110093000D01*
X192723000Y-109243750D01*
X192564250Y-109085000D01*
X192343420Y-109085000D01*
X194282621Y-107145800D01*
X194386414Y-107145800D01*
X194483200Y-107105710D01*
X194483200Y-108546136D01*
G36*
X193938760Y-104032200D02*
X193958760Y-104032200D01*
X193958760Y-104286200D01*
X193938760Y-104286200D01*
X193938760Y-105260450D01*
X194097510Y-105419200D01*
X194438069Y-105419200D01*
X194483201Y-105400506D01*
X194483201Y-105814290D01*
X194386414Y-105774200D01*
X194113586Y-105774200D01*
X193861525Y-105878607D01*
X193668607Y-106071525D01*
X193564200Y-106323586D01*
X193564200Y-106427379D01*
X192319760Y-107671820D01*
X192319760Y-105171073D01*
X192460419Y-105143094D01*
X192586446Y-105058886D01*
X192670654Y-104932859D01*
X192676760Y-104902162D01*
X192676760Y-104910510D01*
X192773433Y-105143899D01*
X192952062Y-105322527D01*
X193185451Y-105419200D01*
X193526010Y-105419200D01*
X193684760Y-105260450D01*
X193684760Y-104286200D01*
X193664760Y-104286200D01*
X193664760Y-104032200D01*
X193684760Y-104032200D01*
X193684760Y-104012200D01*
X193938760Y-104012200D01*
X193938760Y-104032200D01*
X193938760Y-104032200D01*
G37*
X193938760Y-104032200D02*
X193958760Y-104032200D01*
X193958760Y-104286200D01*
X193938760Y-104286200D01*
X193938760Y-105260450D01*
X194097510Y-105419200D01*
X194438069Y-105419200D01*
X194483201Y-105400506D01*
X194483201Y-105814290D01*
X194386414Y-105774200D01*
X194113586Y-105774200D01*
X193861525Y-105878607D01*
X193668607Y-106071525D01*
X193564200Y-106323586D01*
X193564200Y-106427379D01*
X192319760Y-107671820D01*
X192319760Y-105171073D01*
X192460419Y-105143094D01*
X192586446Y-105058886D01*
X192670654Y-104932859D01*
X192676760Y-104902162D01*
X192676760Y-104910510D01*
X192773433Y-105143899D01*
X192952062Y-105322527D01*
X193185451Y-105419200D01*
X193526010Y-105419200D01*
X193684760Y-105260450D01*
X193684760Y-104286200D01*
X193664760Y-104286200D01*
X193664760Y-104032200D01*
X193684760Y-104032200D01*
X193684760Y-104012200D01*
X193938760Y-104012200D01*
X193938760Y-104032200D01*
G36*
X206590000Y-96273691D02*
X206590000Y-96614250D01*
X206748750Y-96773000D01*
X207723000Y-96773000D01*
X207723000Y-96753000D01*
X207977000Y-96753000D01*
X207977000Y-96773000D01*
X208951250Y-96773000D01*
X209110000Y-96614250D01*
X209110000Y-96273691D01*
X209047880Y-96123720D01*
X209918027Y-96123720D01*
X210126000Y-96625811D01*
X210602389Y-97102200D01*
X210920005Y-97233761D01*
X209998356Y-98155410D01*
X209998353Y-98155412D01*
X209710965Y-98442800D01*
X208863464Y-98442800D01*
X208863464Y-98400000D01*
X208833894Y-98251341D01*
X208749686Y-98125314D01*
X208623659Y-98041106D01*
X208592962Y-98035000D01*
X208601310Y-98035000D01*
X208834699Y-97938327D01*
X209013327Y-97759698D01*
X209110000Y-97526309D01*
X209110000Y-97185750D01*
X208951250Y-97027000D01*
X207977000Y-97027000D01*
X207977000Y-97047000D01*
X207723000Y-97047000D01*
X207723000Y-97027000D01*
X206748750Y-97027000D01*
X206590000Y-97185750D01*
X206590000Y-97526309D01*
X206686673Y-97759698D01*
X206865301Y-97938327D01*
X207098690Y-98035000D01*
X207107038Y-98035000D01*
X207076341Y-98041106D01*
X206950314Y-98125314D01*
X206866106Y-98251341D01*
X206836536Y-98400000D01*
X206836536Y-99400000D01*
X206866106Y-99548659D01*
X206950314Y-99674686D01*
X207076341Y-99758894D01*
X207225000Y-99788464D01*
X208365301Y-99788464D01*
X202241766Y-105912000D01*
X198411080Y-105912000D01*
X198361052Y-105902049D01*
X198311024Y-105912000D01*
X198311020Y-105912000D01*
X198295046Y-105915178D01*
X198268475Y-105888607D01*
X198016414Y-105784200D01*
X197743586Y-105784200D01*
X197491525Y-105888607D01*
X197437200Y-105942932D01*
X197437200Y-103325750D01*
X197915000Y-103325750D01*
X197915000Y-103791310D01*
X198011673Y-104024699D01*
X198190302Y-104203327D01*
X198423691Y-104300000D01*
X198764250Y-104300000D01*
X198923000Y-104141250D01*
X198923000Y-103167000D01*
X198073750Y-103167000D01*
X197915000Y-103325750D01*
X197437200Y-103325750D01*
X197437200Y-102392668D01*
X197561393Y-102268475D01*
X197665800Y-102016414D01*
X197665800Y-101743586D01*
X197561393Y-101491525D01*
X197368475Y-101298607D01*
X197116414Y-101194200D01*
X196843586Y-101194200D01*
X196839022Y-101196091D01*
X196835483Y-101178301D01*
X196834042Y-101176144D01*
X197847280Y-101176144D01*
X197995939Y-101146574D01*
X198121966Y-101062366D01*
X198134988Y-101042878D01*
X198182990Y-101090880D01*
X199132240Y-101090880D01*
X199132240Y-101070880D01*
X199386240Y-101070880D01*
X199386240Y-101090880D01*
X199406240Y-101090880D01*
X199406240Y-101344880D01*
X199386240Y-101344880D01*
X199386240Y-101364880D01*
X199132240Y-101364880D01*
X199132240Y-101344880D01*
X198182990Y-101344880D01*
X198024240Y-101503630D01*
X198024240Y-102042734D01*
X198011673Y-102055301D01*
X197915000Y-102288690D01*
X197915000Y-102754250D01*
X198073750Y-102913000D01*
X198923000Y-102913000D01*
X198923000Y-102893000D01*
X199177000Y-102893000D01*
X199177000Y-102913000D01*
X199197000Y-102913000D01*
X199197000Y-103167000D01*
X199177000Y-103167000D01*
X199177000Y-104141250D01*
X199335750Y-104300000D01*
X199676309Y-104300000D01*
X199909698Y-104203327D01*
X200088327Y-104024699D01*
X200185000Y-103791310D01*
X200185000Y-103782962D01*
X200191106Y-103813659D01*
X200275314Y-103939686D01*
X200401341Y-104023894D01*
X200550000Y-104053464D01*
X201550000Y-104053464D01*
X201698659Y-104023894D01*
X201824686Y-103939686D01*
X201908894Y-103813659D01*
X201938464Y-103665000D01*
X201938464Y-102415000D01*
X201908894Y-102266341D01*
X201824686Y-102140314D01*
X201786077Y-102114516D01*
X201818134Y-102066539D01*
X201847704Y-101917880D01*
X201847704Y-100517880D01*
X201818134Y-100369221D01*
X201759165Y-100280966D01*
X201818939Y-100256207D01*
X201997567Y-100077578D01*
X202094240Y-99844189D01*
X202094240Y-99303630D01*
X201935490Y-99144880D01*
X200986240Y-99144880D01*
X200986240Y-99164880D01*
X200732240Y-99164880D01*
X200732240Y-99144880D01*
X200712240Y-99144880D01*
X200712240Y-98890880D01*
X200732240Y-98890880D01*
X200732240Y-98870880D01*
X200986240Y-98870880D01*
X200986240Y-98890880D01*
X201935490Y-98890880D01*
X202094240Y-98732130D01*
X202094240Y-98191571D01*
X202093424Y-98189601D01*
X202188327Y-98094699D01*
X202285000Y-97861310D01*
X202285000Y-97395750D01*
X202126250Y-97237000D01*
X201277000Y-97237000D01*
X201277000Y-97257000D01*
X201023000Y-97257000D01*
X201023000Y-97237000D01*
X201003000Y-97237000D01*
X201003000Y-96983000D01*
X201023000Y-96983000D01*
X201023000Y-96963000D01*
X201277000Y-96963000D01*
X201277000Y-96983000D01*
X202126250Y-96983000D01*
X202285000Y-96824250D01*
X202285000Y-96358690D01*
X202188327Y-96125301D01*
X202186746Y-96123720D01*
X206652120Y-96123720D01*
X206590000Y-96273691D01*
X206590000Y-96273691D01*
G37*
X206590000Y-96273691D02*
X206590000Y-96614250D01*
X206748750Y-96773000D01*
X207723000Y-96773000D01*
X207723000Y-96753000D01*
X207977000Y-96753000D01*
X207977000Y-96773000D01*
X208951250Y-96773000D01*
X209110000Y-96614250D01*
X209110000Y-96273691D01*
X209047880Y-96123720D01*
X209918027Y-96123720D01*
X210126000Y-96625811D01*
X210602389Y-97102200D01*
X210920005Y-97233761D01*
X209998356Y-98155410D01*
X209998353Y-98155412D01*
X209710965Y-98442800D01*
X208863464Y-98442800D01*
X208863464Y-98400000D01*
X208833894Y-98251341D01*
X208749686Y-98125314D01*
X208623659Y-98041106D01*
X208592962Y-98035000D01*
X208601310Y-98035000D01*
X208834699Y-97938327D01*
X209013327Y-97759698D01*
X209110000Y-97526309D01*
X209110000Y-97185750D01*
X208951250Y-97027000D01*
X207977000Y-97027000D01*
X207977000Y-97047000D01*
X207723000Y-97047000D01*
X207723000Y-97027000D01*
X206748750Y-97027000D01*
X206590000Y-97185750D01*
X206590000Y-97526309D01*
X206686673Y-97759698D01*
X206865301Y-97938327D01*
X207098690Y-98035000D01*
X207107038Y-98035000D01*
X207076341Y-98041106D01*
X206950314Y-98125314D01*
X206866106Y-98251341D01*
X206836536Y-98400000D01*
X206836536Y-99400000D01*
X206866106Y-99548659D01*
X206950314Y-99674686D01*
X207076341Y-99758894D01*
X207225000Y-99788464D01*
X208365301Y-99788464D01*
X202241766Y-105912000D01*
X198411080Y-105912000D01*
X198361052Y-105902049D01*
X198311024Y-105912000D01*
X198311020Y-105912000D01*
X198295046Y-105915178D01*
X198268475Y-105888607D01*
X198016414Y-105784200D01*
X197743586Y-105784200D01*
X197491525Y-105888607D01*
X197437200Y-105942932D01*
X197437200Y-103325750D01*
X197915000Y-103325750D01*
X197915000Y-103791310D01*
X198011673Y-104024699D01*
X198190302Y-104203327D01*
X198423691Y-104300000D01*
X198764250Y-104300000D01*
X198923000Y-104141250D01*
X198923000Y-103167000D01*
X198073750Y-103167000D01*
X197915000Y-103325750D01*
X197437200Y-103325750D01*
X197437200Y-102392668D01*
X197561393Y-102268475D01*
X197665800Y-102016414D01*
X197665800Y-101743586D01*
X197561393Y-101491525D01*
X197368475Y-101298607D01*
X197116414Y-101194200D01*
X196843586Y-101194200D01*
X196839022Y-101196091D01*
X196835483Y-101178301D01*
X196834042Y-101176144D01*
X197847280Y-101176144D01*
X197995939Y-101146574D01*
X198121966Y-101062366D01*
X198134988Y-101042878D01*
X198182990Y-101090880D01*
X199132240Y-101090880D01*
X199132240Y-101070880D01*
X199386240Y-101070880D01*
X199386240Y-101090880D01*
X199406240Y-101090880D01*
X199406240Y-101344880D01*
X199386240Y-101344880D01*
X199386240Y-101364880D01*
X199132240Y-101364880D01*
X199132240Y-101344880D01*
X198182990Y-101344880D01*
X198024240Y-101503630D01*
X198024240Y-102042734D01*
X198011673Y-102055301D01*
X197915000Y-102288690D01*
X197915000Y-102754250D01*
X198073750Y-102913000D01*
X198923000Y-102913000D01*
X198923000Y-102893000D01*
X199177000Y-102893000D01*
X199177000Y-102913000D01*
X199197000Y-102913000D01*
X199197000Y-103167000D01*
X199177000Y-103167000D01*
X199177000Y-104141250D01*
X199335750Y-104300000D01*
X199676309Y-104300000D01*
X199909698Y-104203327D01*
X200088327Y-104024699D01*
X200185000Y-103791310D01*
X200185000Y-103782962D01*
X200191106Y-103813659D01*
X200275314Y-103939686D01*
X200401341Y-104023894D01*
X200550000Y-104053464D01*
X201550000Y-104053464D01*
X201698659Y-104023894D01*
X201824686Y-103939686D01*
X201908894Y-103813659D01*
X201938464Y-103665000D01*
X201938464Y-102415000D01*
X201908894Y-102266341D01*
X201824686Y-102140314D01*
X201786077Y-102114516D01*
X201818134Y-102066539D01*
X201847704Y-101917880D01*
X201847704Y-100517880D01*
X201818134Y-100369221D01*
X201759165Y-100280966D01*
X201818939Y-100256207D01*
X201997567Y-100077578D01*
X202094240Y-99844189D01*
X202094240Y-99303630D01*
X201935490Y-99144880D01*
X200986240Y-99144880D01*
X200986240Y-99164880D01*
X200732240Y-99164880D01*
X200732240Y-99144880D01*
X200712240Y-99144880D01*
X200712240Y-98890880D01*
X200732240Y-98890880D01*
X200732240Y-98870880D01*
X200986240Y-98870880D01*
X200986240Y-98890880D01*
X201935490Y-98890880D01*
X202094240Y-98732130D01*
X202094240Y-98191571D01*
X202093424Y-98189601D01*
X202188327Y-98094699D01*
X202285000Y-97861310D01*
X202285000Y-97395750D01*
X202126250Y-97237000D01*
X201277000Y-97237000D01*
X201277000Y-97257000D01*
X201023000Y-97257000D01*
X201023000Y-97237000D01*
X201003000Y-97237000D01*
X201003000Y-96983000D01*
X201023000Y-96983000D01*
X201023000Y-96963000D01*
X201277000Y-96963000D01*
X201277000Y-96983000D01*
X202126250Y-96983000D01*
X202285000Y-96824250D01*
X202285000Y-96358690D01*
X202188327Y-96125301D01*
X202186746Y-96123720D01*
X206652120Y-96123720D01*
X206590000Y-96273691D01*
G36*
X195062801Y-98067115D02*
X194898554Y-98231362D01*
X194860377Y-98256871D01*
X194772974Y-98387680D01*
X194759327Y-98408104D01*
X194723843Y-98586494D01*
X194732800Y-98631524D01*
X194732801Y-99617331D01*
X194608607Y-99741525D01*
X194504200Y-99993586D01*
X194504200Y-100266414D01*
X194608607Y-100518475D01*
X194801525Y-100711393D01*
X194953193Y-100774216D01*
X194522280Y-100774216D01*
X194397280Y-100799080D01*
X194272280Y-100774216D01*
X193981841Y-100774216D01*
X193831979Y-100624353D01*
X193598590Y-100527680D01*
X193483030Y-100527680D01*
X193324280Y-100686430D01*
X193324280Y-101835680D01*
X193333816Y-101835680D01*
X193333816Y-102089680D01*
X193324280Y-102089680D01*
X193324280Y-102109680D01*
X193070280Y-102109680D01*
X193070280Y-102089680D01*
X193060744Y-102089680D01*
X193060744Y-101835680D01*
X193070280Y-101835680D01*
X193070280Y-100686430D01*
X192911530Y-100527680D01*
X192905280Y-100527680D01*
X192905280Y-98363140D01*
X195062800Y-96205620D01*
X195062801Y-98067115D01*
X195062801Y-98067115D01*
G37*
X195062801Y-98067115D02*
X194898554Y-98231362D01*
X194860377Y-98256871D01*
X194772974Y-98387680D01*
X194759327Y-98408104D01*
X194723843Y-98586494D01*
X194732800Y-98631524D01*
X194732801Y-99617331D01*
X194608607Y-99741525D01*
X194504200Y-99993586D01*
X194504200Y-100266414D01*
X194608607Y-100518475D01*
X194801525Y-100711393D01*
X194953193Y-100774216D01*
X194522280Y-100774216D01*
X194397280Y-100799080D01*
X194272280Y-100774216D01*
X193981841Y-100774216D01*
X193831979Y-100624353D01*
X193598590Y-100527680D01*
X193483030Y-100527680D01*
X193324280Y-100686430D01*
X193324280Y-101835680D01*
X193333816Y-101835680D01*
X193333816Y-102089680D01*
X193324280Y-102089680D01*
X193324280Y-102109680D01*
X193070280Y-102109680D01*
X193070280Y-102089680D01*
X193060744Y-102089680D01*
X193060744Y-101835680D01*
X193070280Y-101835680D01*
X193070280Y-100686430D01*
X192911530Y-100527680D01*
X192905280Y-100527680D01*
X192905280Y-98363140D01*
X195062800Y-96205620D01*
X195062801Y-98067115D01*
G36*
X193341475Y-87497789D02*
X193322978Y-87590780D01*
X193321341Y-87591106D01*
X193195314Y-87675314D01*
X193111106Y-87801341D01*
X193081536Y-87950000D01*
X193081536Y-89250000D01*
X193088866Y-89286851D01*
X192920302Y-89356673D01*
X192741673Y-89535301D01*
X192645000Y-89768690D01*
X192645000Y-90234250D01*
X192803750Y-90393000D01*
X193653000Y-90393000D01*
X193653000Y-90373000D01*
X193907000Y-90373000D01*
X193907000Y-90393000D01*
X193927000Y-90393000D01*
X193927000Y-90647000D01*
X193907000Y-90647000D01*
X193907000Y-91621250D01*
X193986645Y-91700895D01*
X193673448Y-92014092D01*
X193632248Y-92041621D01*
X193598590Y-92027680D01*
X193483030Y-92027680D01*
X193324280Y-92186430D01*
X193324280Y-93335680D01*
X193333816Y-93335680D01*
X193333816Y-93589680D01*
X193324280Y-93589680D01*
X193324280Y-94738930D01*
X193483030Y-94897680D01*
X193598590Y-94897680D01*
X193831979Y-94801007D01*
X193981841Y-94651144D01*
X194272280Y-94651144D01*
X194397280Y-94626280D01*
X194522280Y-94651144D01*
X194786338Y-94651144D01*
X194694200Y-94873586D01*
X194694200Y-95137380D01*
X192073446Y-97758134D01*
X192031034Y-97786473D01*
X192002695Y-97828885D01*
X192002692Y-97828888D01*
X191918755Y-97954509D01*
X191879329Y-98152720D01*
X191889281Y-98202753D01*
X191889280Y-100777598D01*
X191872280Y-100774216D01*
X191322280Y-100774216D01*
X191197280Y-100799080D01*
X191072280Y-100774216D01*
X190522280Y-100774216D01*
X190397280Y-100799080D01*
X190272280Y-100774216D01*
X190268643Y-100774216D01*
X190276157Y-100736443D01*
X190267200Y-100691413D01*
X190267200Y-100068030D01*
X190276157Y-100023000D01*
X190240673Y-99844609D01*
X190165130Y-99731551D01*
X190139623Y-99693377D01*
X190101448Y-99667869D01*
X189854812Y-99421234D01*
X189829303Y-99383057D01*
X189712416Y-99304956D01*
X189735744Y-99187680D01*
X189735744Y-98637680D01*
X189710880Y-98512680D01*
X189735744Y-98387680D01*
X189735744Y-97837680D01*
X189710880Y-97712680D01*
X189735744Y-97587680D01*
X189735744Y-97037680D01*
X189710880Y-96912680D01*
X189735744Y-96787680D01*
X189735744Y-96237680D01*
X189710880Y-96112680D01*
X189735744Y-95987680D01*
X189735744Y-95437680D01*
X189710880Y-95312680D01*
X189735744Y-95187680D01*
X189735744Y-94651144D01*
X190272280Y-94651144D01*
X190397280Y-94626280D01*
X190522280Y-94651144D01*
X191072280Y-94651144D01*
X191197280Y-94626280D01*
X191322280Y-94651144D01*
X191872280Y-94651144D01*
X191997280Y-94626280D01*
X192122280Y-94651144D01*
X192412719Y-94651144D01*
X192562581Y-94801007D01*
X192795970Y-94897680D01*
X192911530Y-94897680D01*
X193070280Y-94738930D01*
X193070280Y-93589680D01*
X193060744Y-93589680D01*
X193060744Y-93335680D01*
X193070280Y-93335680D01*
X193070280Y-92186430D01*
X192911530Y-92027680D01*
X192795970Y-92027680D01*
X192562581Y-92124353D01*
X192412719Y-92274216D01*
X192122280Y-92274216D01*
X192054480Y-92287702D01*
X192054480Y-90805750D01*
X192645000Y-90805750D01*
X192645000Y-91271310D01*
X192741673Y-91504699D01*
X192920302Y-91683327D01*
X193153691Y-91780000D01*
X193494250Y-91780000D01*
X193653000Y-91621250D01*
X193653000Y-90647000D01*
X192803750Y-90647000D01*
X192645000Y-90805750D01*
X192054480Y-90805750D01*
X192054480Y-89467222D01*
X192057200Y-89453548D01*
X192057200Y-89453547D01*
X192066157Y-89408518D01*
X192057200Y-89363488D01*
X192057200Y-88769378D01*
X193367019Y-87459560D01*
X193341475Y-87497789D01*
X193341475Y-87497789D01*
G37*
X193341475Y-87497789D02*
X193322978Y-87590780D01*
X193321341Y-87591106D01*
X193195314Y-87675314D01*
X193111106Y-87801341D01*
X193081536Y-87950000D01*
X193081536Y-89250000D01*
X193088866Y-89286851D01*
X192920302Y-89356673D01*
X192741673Y-89535301D01*
X192645000Y-89768690D01*
X192645000Y-90234250D01*
X192803750Y-90393000D01*
X193653000Y-90393000D01*
X193653000Y-90373000D01*
X193907000Y-90373000D01*
X193907000Y-90393000D01*
X193927000Y-90393000D01*
X193927000Y-90647000D01*
X193907000Y-90647000D01*
X193907000Y-91621250D01*
X193986645Y-91700895D01*
X193673448Y-92014092D01*
X193632248Y-92041621D01*
X193598590Y-92027680D01*
X193483030Y-92027680D01*
X193324280Y-92186430D01*
X193324280Y-93335680D01*
X193333816Y-93335680D01*
X193333816Y-93589680D01*
X193324280Y-93589680D01*
X193324280Y-94738930D01*
X193483030Y-94897680D01*
X193598590Y-94897680D01*
X193831979Y-94801007D01*
X193981841Y-94651144D01*
X194272280Y-94651144D01*
X194397280Y-94626280D01*
X194522280Y-94651144D01*
X194786338Y-94651144D01*
X194694200Y-94873586D01*
X194694200Y-95137380D01*
X192073446Y-97758134D01*
X192031034Y-97786473D01*
X192002695Y-97828885D01*
X192002692Y-97828888D01*
X191918755Y-97954509D01*
X191879329Y-98152720D01*
X191889281Y-98202753D01*
X191889280Y-100777598D01*
X191872280Y-100774216D01*
X191322280Y-100774216D01*
X191197280Y-100799080D01*
X191072280Y-100774216D01*
X190522280Y-100774216D01*
X190397280Y-100799080D01*
X190272280Y-100774216D01*
X190268643Y-100774216D01*
X190276157Y-100736443D01*
X190267200Y-100691413D01*
X190267200Y-100068030D01*
X190276157Y-100023000D01*
X190240673Y-99844609D01*
X190165130Y-99731551D01*
X190139623Y-99693377D01*
X190101448Y-99667869D01*
X189854812Y-99421234D01*
X189829303Y-99383057D01*
X189712416Y-99304956D01*
X189735744Y-99187680D01*
X189735744Y-98637680D01*
X189710880Y-98512680D01*
X189735744Y-98387680D01*
X189735744Y-97837680D01*
X189710880Y-97712680D01*
X189735744Y-97587680D01*
X189735744Y-97037680D01*
X189710880Y-96912680D01*
X189735744Y-96787680D01*
X189735744Y-96237680D01*
X189710880Y-96112680D01*
X189735744Y-95987680D01*
X189735744Y-95437680D01*
X189710880Y-95312680D01*
X189735744Y-95187680D01*
X189735744Y-94651144D01*
X190272280Y-94651144D01*
X190397280Y-94626280D01*
X190522280Y-94651144D01*
X191072280Y-94651144D01*
X191197280Y-94626280D01*
X191322280Y-94651144D01*
X191872280Y-94651144D01*
X191997280Y-94626280D01*
X192122280Y-94651144D01*
X192412719Y-94651144D01*
X192562581Y-94801007D01*
X192795970Y-94897680D01*
X192911530Y-94897680D01*
X193070280Y-94738930D01*
X193070280Y-93589680D01*
X193060744Y-93589680D01*
X193060744Y-93335680D01*
X193070280Y-93335680D01*
X193070280Y-92186430D01*
X192911530Y-92027680D01*
X192795970Y-92027680D01*
X192562581Y-92124353D01*
X192412719Y-92274216D01*
X192122280Y-92274216D01*
X192054480Y-92287702D01*
X192054480Y-90805750D01*
X192645000Y-90805750D01*
X192645000Y-91271310D01*
X192741673Y-91504699D01*
X192920302Y-91683327D01*
X193153691Y-91780000D01*
X193494250Y-91780000D01*
X193653000Y-91621250D01*
X193653000Y-90647000D01*
X192803750Y-90647000D01*
X192645000Y-90805750D01*
X192054480Y-90805750D01*
X192054480Y-89467222D01*
X192057200Y-89453548D01*
X192057200Y-89453547D01*
X192066157Y-89408518D01*
X192057200Y-89363488D01*
X192057200Y-88769378D01*
X193367019Y-87459560D01*
X193341475Y-87497789D01*
G04 #@! TD*
M02*
