G04 #@! TF.GenerationSoftware,KiCad,Pcbnew,5.0.2-bee76a0~70~ubuntu18.04.1*
G04 #@! TF.CreationDate,2019-05-01T23:50:06-04:00*
G04 #@! TF.ProjectId,external_board,65787465-726e-4616-9c5f-626f6172642e,rev?*
G04 #@! TF.SameCoordinates,Original*
G04 #@! TF.FileFunction,Legend,Bot*
G04 #@! TF.FilePolarity,Positive*
%FSLAX46Y46*%
G04 Gerber Fmt 4.6, Leading zero omitted, Abs format (unit mm)*
G04 Created by KiCad (PCBNEW 5.0.2-bee76a0~70~ubuntu18.04.1) date Wed 01 May 2019 11:50:06 PM EDT*
%MOMM*%
%LPD*%
G01*
G04 APERTURE LIST*
%ADD10C,0.300000*%
%ADD11C,0.150000*%
%ADD12C,0.010000*%
G04 APERTURE END LIST*
D10*
X133215742Y-69570523D02*
X133941457Y-69570523D01*
X133578600Y-69570523D02*
X133578600Y-68300523D01*
X133699552Y-68481952D01*
X133820504Y-68602904D01*
X133941457Y-68663380D01*
X133820504Y-73980523D02*
X133578600Y-73980523D01*
X133457647Y-73920047D01*
X133397171Y-73859571D01*
X133276219Y-73678142D01*
X133215742Y-73436238D01*
X133215742Y-72952428D01*
X133276219Y-72831476D01*
X133336695Y-72771000D01*
X133457647Y-72710523D01*
X133699552Y-72710523D01*
X133820504Y-72771000D01*
X133880980Y-72831476D01*
X133941457Y-72952428D01*
X133941457Y-73254809D01*
X133880980Y-73375761D01*
X133820504Y-73436238D01*
X133699552Y-73496714D01*
X133457647Y-73496714D01*
X133336695Y-73436238D01*
X133276219Y-73375761D01*
X133215742Y-73254809D01*
X133820504Y-78390523D02*
X134546219Y-78390523D01*
X134183361Y-78390523D02*
X134183361Y-77120523D01*
X134304314Y-77301952D01*
X134425266Y-77422904D01*
X134546219Y-77483380D01*
X132731933Y-77120523D02*
X132973838Y-77120523D01*
X133094790Y-77181000D01*
X133155266Y-77241476D01*
X133276219Y-77422904D01*
X133336695Y-77664809D01*
X133336695Y-78148619D01*
X133276219Y-78269571D01*
X133215742Y-78330047D01*
X133094790Y-78390523D01*
X132852885Y-78390523D01*
X132731933Y-78330047D01*
X132671457Y-78269571D01*
X132610980Y-78148619D01*
X132610980Y-77846238D01*
X132671457Y-77725285D01*
X132731933Y-77664809D01*
X132852885Y-77604333D01*
X133094790Y-77604333D01*
X133215742Y-77664809D01*
X133276219Y-77725285D01*
X133336695Y-77846238D01*
X168903952Y-68590809D02*
X169024904Y-68530333D01*
X169085380Y-68469857D01*
X169145857Y-68348904D01*
X169145857Y-68288428D01*
X169085380Y-68167476D01*
X169024904Y-68107000D01*
X168903952Y-68046523D01*
X168662047Y-68046523D01*
X168541095Y-68107000D01*
X168480619Y-68167476D01*
X168420142Y-68288428D01*
X168420142Y-68348904D01*
X168480619Y-68469857D01*
X168541095Y-68530333D01*
X168662047Y-68590809D01*
X168903952Y-68590809D01*
X169024904Y-68651285D01*
X169085380Y-68711761D01*
X169145857Y-68832714D01*
X169145857Y-69074619D01*
X169085380Y-69195571D01*
X169024904Y-69256047D01*
X168903952Y-69316523D01*
X168662047Y-69316523D01*
X168541095Y-69256047D01*
X168480619Y-69195571D01*
X168420142Y-69074619D01*
X168420142Y-68832714D01*
X168480619Y-68711761D01*
X168541095Y-68651285D01*
X168662047Y-68590809D01*
X169024904Y-73726523D02*
X169750619Y-73726523D01*
X169387761Y-73726523D02*
X169387761Y-72456523D01*
X169508714Y-72637952D01*
X169629666Y-72758904D01*
X169750619Y-72819380D01*
X167875857Y-72456523D02*
X168480619Y-72456523D01*
X168541095Y-73061285D01*
X168480619Y-73000809D01*
X168359666Y-72940333D01*
X168057285Y-72940333D01*
X167936333Y-73000809D01*
X167875857Y-73061285D01*
X167815380Y-73182238D01*
X167815380Y-73484619D01*
X167875857Y-73605571D01*
X167936333Y-73666047D01*
X168057285Y-73726523D01*
X168359666Y-73726523D01*
X168480619Y-73666047D01*
X168541095Y-73605571D01*
X169750619Y-76987476D02*
X169690142Y-76927000D01*
X169569190Y-76866523D01*
X169266809Y-76866523D01*
X169145857Y-76927000D01*
X169085380Y-76987476D01*
X169024904Y-77108428D01*
X169024904Y-77229380D01*
X169085380Y-77410809D01*
X169811095Y-78136523D01*
X169024904Y-78136523D01*
X168601571Y-76866523D02*
X167815380Y-76866523D01*
X168238714Y-77350333D01*
X168057285Y-77350333D01*
X167936333Y-77410809D01*
X167875857Y-77471285D01*
X167815380Y-77592238D01*
X167815380Y-77894619D01*
X167875857Y-78015571D01*
X167936333Y-78076047D01*
X168057285Y-78136523D01*
X168420142Y-78136523D01*
X168541095Y-78076047D01*
X168601571Y-78015571D01*
D11*
G04 #@! TO.C,J9*
X184404000Y-98552000D02*
X184404000Y-94488000D01*
X184404000Y-98552000D02*
X117856000Y-98552000D01*
X117856000Y-94488000D02*
X184404000Y-94488000D01*
X117856000Y-98552000D02*
X117856000Y-94488000D01*
G04 #@! TO.C,J10*
X184404000Y-55118000D02*
X184404000Y-59182000D01*
X184404000Y-59182000D02*
X117856000Y-59182000D01*
X117856000Y-55118000D02*
X184404000Y-55118000D01*
X117856000Y-55118000D02*
X117856000Y-59182000D01*
D12*
G04 #@! TO.C,G\002A\002A\002A*
G36*
X135409070Y-91833726D02*
X134917169Y-91503291D01*
X134370346Y-91069905D01*
X133809000Y-90570573D01*
X133273529Y-90042300D01*
X132804333Y-89522091D01*
X132583963Y-89245931D01*
X132126696Y-88579336D01*
X131753857Y-87913455D01*
X131471473Y-87267948D01*
X131285570Y-86662477D01*
X131202175Y-86116703D01*
X131227313Y-85650289D01*
X131367011Y-85282896D01*
X131368549Y-85280500D01*
X131450728Y-85142806D01*
X131468119Y-85094163D01*
X131381643Y-85115915D01*
X131168768Y-85170831D01*
X130866916Y-85249234D01*
X130683000Y-85297173D01*
X129690197Y-85598716D01*
X128857883Y-85944146D01*
X128182425Y-86335661D01*
X127660192Y-86775457D01*
X127287551Y-87265734D01*
X127219140Y-87392824D01*
X127037408Y-87923567D01*
X127015747Y-88448968D01*
X127144897Y-88963274D01*
X127415597Y-89460731D01*
X127818584Y-89935585D01*
X128344599Y-90382082D01*
X128984380Y-90794469D01*
X129728666Y-91166991D01*
X130568195Y-91493894D01*
X131493707Y-91769426D01*
X132495940Y-91987831D01*
X133565633Y-92143355D01*
X134693526Y-92230246D01*
X135023482Y-92241618D01*
X136146631Y-92269785D01*
X135409070Y-91833726D01*
X135409070Y-91833726D01*
G37*
X135409070Y-91833726D02*
X134917169Y-91503291D01*
X134370346Y-91069905D01*
X133809000Y-90570573D01*
X133273529Y-90042300D01*
X132804333Y-89522091D01*
X132583963Y-89245931D01*
X132126696Y-88579336D01*
X131753857Y-87913455D01*
X131471473Y-87267948D01*
X131285570Y-86662477D01*
X131202175Y-86116703D01*
X131227313Y-85650289D01*
X131367011Y-85282896D01*
X131368549Y-85280500D01*
X131450728Y-85142806D01*
X131468119Y-85094163D01*
X131381643Y-85115915D01*
X131168768Y-85170831D01*
X130866916Y-85249234D01*
X130683000Y-85297173D01*
X129690197Y-85598716D01*
X128857883Y-85944146D01*
X128182425Y-86335661D01*
X127660192Y-86775457D01*
X127287551Y-87265734D01*
X127219140Y-87392824D01*
X127037408Y-87923567D01*
X127015747Y-88448968D01*
X127144897Y-88963274D01*
X127415597Y-89460731D01*
X127818584Y-89935585D01*
X128344599Y-90382082D01*
X128984380Y-90794469D01*
X129728666Y-91166991D01*
X130568195Y-91493894D01*
X131493707Y-91769426D01*
X132495940Y-91987831D01*
X133565633Y-92143355D01*
X134693526Y-92230246D01*
X135023482Y-92241618D01*
X136146631Y-92269785D01*
X135409070Y-91833726D01*
G36*
X138062983Y-92089143D02*
X138213457Y-92049129D01*
X138479628Y-91980824D01*
X138812829Y-91896675D01*
X138938000Y-91865353D01*
X139570523Y-91671412D01*
X140209166Y-91411366D01*
X140807709Y-91108074D01*
X141319928Y-90784399D01*
X141626464Y-90535631D01*
X142047728Y-90052550D01*
X142307210Y-89555705D01*
X142411208Y-89051883D01*
X142366021Y-88547872D01*
X142177949Y-88050459D01*
X141853290Y-87566431D01*
X141398343Y-87102574D01*
X140819408Y-86665676D01*
X140122783Y-86262524D01*
X139314767Y-85899904D01*
X138401660Y-85584605D01*
X137389759Y-85323412D01*
X136657525Y-85181702D01*
X136199989Y-85108127D01*
X135883227Y-85067748D01*
X135682288Y-85058974D01*
X135572225Y-85080217D01*
X135536988Y-85110312D01*
X135478074Y-85164072D01*
X135467963Y-85120267D01*
X135386319Y-85060596D01*
X135157525Y-85021027D01*
X134937500Y-85008162D01*
X134570619Y-84996946D01*
X134199467Y-84984734D01*
X134006142Y-84977894D01*
X133771824Y-84980686D01*
X133626863Y-85004502D01*
X133603975Y-85023843D01*
X133538294Y-85053621D01*
X133455834Y-85038003D01*
X133448337Y-85051138D01*
X133565123Y-85128847D01*
X133781598Y-85255015D01*
X133818718Y-85275773D01*
X134611052Y-85785860D01*
X135393964Y-86432424D01*
X135976472Y-87005234D01*
X136653545Y-87770737D01*
X137198075Y-88516337D01*
X137636751Y-89279744D01*
X137746149Y-89505915D01*
X138034204Y-90211966D01*
X138192957Y-90817350D01*
X138223305Y-91329665D01*
X138126150Y-91756508D01*
X138033505Y-91934819D01*
X137954494Y-92073405D01*
X137978577Y-92108225D01*
X138062983Y-92089143D01*
X138062983Y-92089143D01*
G37*
X138062983Y-92089143D02*
X138213457Y-92049129D01*
X138479628Y-91980824D01*
X138812829Y-91896675D01*
X138938000Y-91865353D01*
X139570523Y-91671412D01*
X140209166Y-91411366D01*
X140807709Y-91108074D01*
X141319928Y-90784399D01*
X141626464Y-90535631D01*
X142047728Y-90052550D01*
X142307210Y-89555705D01*
X142411208Y-89051883D01*
X142366021Y-88547872D01*
X142177949Y-88050459D01*
X141853290Y-87566431D01*
X141398343Y-87102574D01*
X140819408Y-86665676D01*
X140122783Y-86262524D01*
X139314767Y-85899904D01*
X138401660Y-85584605D01*
X137389759Y-85323412D01*
X136657525Y-85181702D01*
X136199989Y-85108127D01*
X135883227Y-85067748D01*
X135682288Y-85058974D01*
X135572225Y-85080217D01*
X135536988Y-85110312D01*
X135478074Y-85164072D01*
X135467963Y-85120267D01*
X135386319Y-85060596D01*
X135157525Y-85021027D01*
X134937500Y-85008162D01*
X134570619Y-84996946D01*
X134199467Y-84984734D01*
X134006142Y-84977894D01*
X133771824Y-84980686D01*
X133626863Y-85004502D01*
X133603975Y-85023843D01*
X133538294Y-85053621D01*
X133455834Y-85038003D01*
X133448337Y-85051138D01*
X133565123Y-85128847D01*
X133781598Y-85255015D01*
X133818718Y-85275773D01*
X134611052Y-85785860D01*
X135393964Y-86432424D01*
X135976472Y-87005234D01*
X136653545Y-87770737D01*
X137198075Y-88516337D01*
X137636751Y-89279744D01*
X137746149Y-89505915D01*
X138034204Y-90211966D01*
X138192957Y-90817350D01*
X138223305Y-91329665D01*
X138126150Y-91756508D01*
X138033505Y-91934819D01*
X137954494Y-92073405D01*
X137978577Y-92108225D01*
X138062983Y-92089143D01*
G04 #@! TO.C,J9*
D11*
X138001333Y-99020380D02*
X138001333Y-99734666D01*
X138048952Y-99877523D01*
X138144190Y-99972761D01*
X138287047Y-100020380D01*
X138382285Y-100020380D01*
X137477523Y-100020380D02*
X137287047Y-100020380D01*
X137191809Y-99972761D01*
X137144190Y-99925142D01*
X137048952Y-99782285D01*
X137001333Y-99591809D01*
X137001333Y-99210857D01*
X137048952Y-99115619D01*
X137096571Y-99068000D01*
X137191809Y-99020380D01*
X137382285Y-99020380D01*
X137477523Y-99068000D01*
X137525142Y-99115619D01*
X137572761Y-99210857D01*
X137572761Y-99448952D01*
X137525142Y-99544190D01*
X137477523Y-99591809D01*
X137382285Y-99639428D01*
X137191809Y-99639428D01*
X137096571Y-99591809D01*
X137048952Y-99544190D01*
X137001333Y-99448952D01*
G04 #@! TO.C,J10*
X165401523Y-53554380D02*
X165401523Y-54268666D01*
X165449142Y-54411523D01*
X165544380Y-54506761D01*
X165687238Y-54554380D01*
X165782476Y-54554380D01*
X164401523Y-54554380D02*
X164972952Y-54554380D01*
X164687238Y-54554380D02*
X164687238Y-53554380D01*
X164782476Y-53697238D01*
X164877714Y-53792476D01*
X164972952Y-53840095D01*
X163782476Y-53554380D02*
X163687238Y-53554380D01*
X163592000Y-53602000D01*
X163544380Y-53649619D01*
X163496761Y-53744857D01*
X163449142Y-53935333D01*
X163449142Y-54173428D01*
X163496761Y-54363904D01*
X163544380Y-54459142D01*
X163592000Y-54506761D01*
X163687238Y-54554380D01*
X163782476Y-54554380D01*
X163877714Y-54506761D01*
X163925333Y-54459142D01*
X163972952Y-54363904D01*
X164020571Y-54173428D01*
X164020571Y-53935333D01*
X163972952Y-53744857D01*
X163925333Y-53649619D01*
X163877714Y-53602000D01*
X163782476Y-53554380D01*
G04 #@! TD*
M02*
