G04 #@! TF.GenerationSoftware,KiCad,Pcbnew,5.0.2-bee76a0~70~ubuntu18.04.1*
G04 #@! TF.CreationDate,2019-05-01T23:50:06-04:00*
G04 #@! TF.ProjectId,external_board,65787465-726e-4616-9c5f-626f6172642e,rev?*
G04 #@! TF.SameCoordinates,Original*
G04 #@! TF.FileFunction,Copper,L2,Inr*
G04 #@! TF.FilePolarity,Positive*
%FSLAX46Y46*%
G04 Gerber Fmt 4.6, Leading zero omitted, Abs format (unit mm)*
G04 Created by KiCad (PCBNEW 5.0.2-bee76a0~70~ubuntu18.04.1) date Wed 01 May 2019 11:50:06 PM EDT*
%MOMM*%
%LPD*%
G01*
G04 APERTURE LIST*
G04 #@! TA.AperFunction,ViaPad*
%ADD10C,3.000000*%
G04 #@! TD*
G04 #@! TA.AperFunction,ViaPad*
%ADD11C,1.500000*%
G04 #@! TD*
G04 #@! TA.AperFunction,ViaPad*
%ADD12C,2.750000*%
G04 #@! TD*
G04 #@! TA.AperFunction,ViaPad*
%ADD13C,1.524000*%
G04 #@! TD*
G04 #@! TA.AperFunction,ViaPad*
%ADD14C,0.609600*%
G04 #@! TD*
G04 #@! TA.AperFunction,Conductor*
%ADD15C,0.254000*%
G04 #@! TD*
G04 APERTURE END LIST*
D10*
G04 #@! TO.N,/BSPD_Current_sense*
G04 #@! TO.C,J1*
X165310000Y-77160000D03*
G04 #@! TO.N,/Cooling_pressure_sense*
X141310000Y-77160000D03*
G04 #@! TO.N,GND*
X145310000Y-77160000D03*
G04 #@! TO.N,/Shutdown_IMD*
X149310000Y-77160000D03*
G04 #@! TO.N,/Shutdown_Final*
X153310000Y-77160000D03*
G04 #@! TO.N,/FAN_PWM*
X157310000Y-77160000D03*
G04 #@! TO.N,/Shutdown_E-STOP*
X161310000Y-77160000D03*
G04 #@! TO.N,/CAN_LOW*
X143310000Y-73160000D03*
G04 #@! TO.N,/CAN_HIGH*
X147310000Y-73160000D03*
G04 #@! TO.N,/emeter_CAN_LOW*
X155310000Y-73160000D03*
G04 #@! TO.N,/emeter_CAN_HIGH*
X151310000Y-73160000D03*
G04 #@! TO.N,/CAN_LOW*
X159310000Y-73160000D03*
G04 #@! TO.N,/CAN_HIGH*
X163310000Y-73160000D03*
G04 #@! TO.N,/12V*
X165310000Y-69160000D03*
G04 #@! TO.N,GND*
X161310000Y-69160000D03*
G04 #@! TO.N,/TSAL-_G*
X157310000Y-69160000D03*
G04 #@! TO.N,/TSAL-_R*
X149310000Y-69160000D03*
G04 #@! TO.N,/TSAL+_G*
X153310000Y-69160000D03*
G04 #@! TO.N,/TSAL+_R*
X145310000Y-69160000D03*
G04 #@! TO.N,/12V*
X141310000Y-69160000D03*
G04 #@! TO.N,/5V_AIR*
X137310000Y-77160000D03*
G04 #@! TO.N,GND*
X139310000Y-73160000D03*
X137310000Y-69160000D03*
G04 #@! TD*
D11*
G04 #@! TO.N,/LED2_BMS*
G04 #@! TO.C,U1*
X128270000Y-52070000D03*
G04 #@! TO.N,GND*
X130810000Y-52070000D03*
X141370000Y-52070000D03*
G04 #@! TO.N,/LED1_BMS*
X138830000Y-52070000D03*
G04 #@! TO.N,/CAN_LOW*
X130370000Y-45440000D03*
G04 #@! TO.N,/RESET_BMS*
X132910000Y-45440000D03*
G04 #@! TO.N,/MISO_BMS*
X135450000Y-45440000D03*
G04 #@! TO.N,/5V_BMS*
X137990000Y-45440000D03*
G04 #@! TO.N,/CAN_HIGH*
X131640000Y-42900000D03*
G04 #@! TO.N,/SCK_BMS*
X134180000Y-42900000D03*
G04 #@! TO.N,/MOSI_BMS*
X136720000Y-42900000D03*
G04 #@! TO.N,GND*
X139260000Y-42900000D03*
D12*
X127870000Y-47320000D03*
X141770000Y-47320000D03*
G04 #@! TD*
G04 #@! TO.N,GND*
G04 #@! TO.C,U2*
X174790000Y-47320000D03*
X160890000Y-47320000D03*
D11*
X172280000Y-42900000D03*
G04 #@! TO.N,/MOSI_AIR*
X169740000Y-42900000D03*
G04 #@! TO.N,/SCK_AIR*
X167200000Y-42900000D03*
G04 #@! TO.N,/CAN_HIGH*
X164660000Y-42900000D03*
G04 #@! TO.N,/5V_AIR*
X171010000Y-45440000D03*
G04 #@! TO.N,/MISO_AIR*
X168470000Y-45440000D03*
G04 #@! TO.N,/RESET_AIR*
X165930000Y-45440000D03*
G04 #@! TO.N,/CAN_LOW*
X163390000Y-45440000D03*
G04 #@! TO.N,/LED1_AIR*
X171850000Y-52070000D03*
G04 #@! TO.N,GND*
X174390000Y-52070000D03*
X163830000Y-52070000D03*
G04 #@! TO.N,/LED2_AIR*
X161290000Y-52070000D03*
G04 #@! TD*
D13*
G04 #@! TO.N,Net-(J9-Pad21)*
G04 #@! TO.C,J9*
X170180000Y-96520000D03*
G04 #@! TO.N,/Cooling_pressure_sense*
X182880000Y-96520000D03*
G04 #@! TO.N,Net-(J9-Pad25)*
X180340000Y-96520000D03*
G04 #@! TO.N,Net-(J9-Pad23)*
X175260000Y-96520000D03*
G04 #@! TO.N,/Shutdown_E-STOP*
X172720000Y-96520000D03*
G04 #@! TO.N,/Shutdown_IMD*
X177800000Y-96520000D03*
G04 #@! TO.N,GND*
X147320000Y-96520000D03*
G04 #@! TO.N,Net-(J9-Pad14)*
X152400000Y-96520000D03*
G04 #@! TO.N,GND*
X162560000Y-96520000D03*
G04 #@! TO.N,/emeter_CAN_HIGH*
X160020000Y-96520000D03*
G04 #@! TO.N,/5V_AIR*
X157480000Y-96520000D03*
G04 #@! TO.N,/CAN_LOW*
X144780000Y-96520000D03*
G04 #@! TO.N,Net-(J9-Pad15)*
X154940000Y-96520000D03*
G04 #@! TO.N,/Shutdown_Final*
X167640000Y-96520000D03*
G04 #@! TO.N,/12V*
X149860000Y-96520000D03*
G04 #@! TO.N,/emeter_CAN_LOW*
X165100000Y-96520000D03*
G04 #@! TO.N,GND*
X134620000Y-96520000D03*
X139700000Y-96520000D03*
G04 #@! TO.N,Net-(J9-Pad6)*
X132080000Y-96520000D03*
G04 #@! TO.N,/CAN_HIGH*
X142240000Y-96520000D03*
G04 #@! TO.N,/12V*
X137160000Y-96520000D03*
G04 #@! TO.N,Net-(J9-Pad5)*
X129540000Y-96520000D03*
G04 #@! TO.N,/BSPD_Current_sense*
X127000000Y-96520000D03*
G04 #@! TO.N,/FAN_PWM*
X124460000Y-96520000D03*
G04 #@! TO.N,/12V*
X121920000Y-96520000D03*
G04 #@! TO.N,GND*
X119380000Y-96520000D03*
G04 #@! TD*
G04 #@! TO.N,/SCK_AIR*
G04 #@! TO.C,J10*
X182880000Y-57150000D03*
G04 #@! TO.N,/RESET_AIR*
X180340000Y-57150000D03*
G04 #@! TO.N,/MOSI_AIR*
X177800000Y-57150000D03*
G04 #@! TO.N,/MISO_AIR*
X175260000Y-57150000D03*
G04 #@! TO.N,/5V_AIR*
X172720000Y-57150000D03*
G04 #@! TO.N,/CAN_HIGH*
X165100000Y-57150000D03*
G04 #@! TO.N,/TSAL-_G*
X160020000Y-57150000D03*
G04 #@! TO.N,/LED1_AIR*
X170180000Y-57150000D03*
G04 #@! TO.N,/CAN_LOW*
X162560000Y-57150000D03*
G04 #@! TO.N,/LED2_AIR*
X167640000Y-57150000D03*
G04 #@! TO.N,Net-(J10-Pad19)*
X137160000Y-57150000D03*
G04 #@! TO.N,/TSAL+_R*
X152400000Y-57150000D03*
G04 #@! TO.N,/LED1_BMS*
X134620000Y-57150000D03*
G04 #@! TO.N,Net-(J10-Pad15)*
X147320000Y-57150000D03*
G04 #@! TO.N,/TSAL+_G*
X157480000Y-57150000D03*
G04 #@! TO.N,Net-(J10-Pad16)*
X144780000Y-57150000D03*
G04 #@! TO.N,Net-(J10-Pad17)*
X142240000Y-57150000D03*
G04 #@! TO.N,Net-(J10-Pad18)*
X139700000Y-57150000D03*
G04 #@! TO.N,Net-(J10-Pad14)*
X149860000Y-57150000D03*
G04 #@! TO.N,/TSAL-_R*
X154940000Y-57150000D03*
G04 #@! TO.N,/RESET_BMS*
X124460000Y-57150000D03*
G04 #@! TO.N,/SCK_BMS*
X129540000Y-57150000D03*
G04 #@! TO.N,/LED2_BMS*
X127000000Y-57150000D03*
G04 #@! TO.N,/MISO_BMS*
X121920000Y-57150000D03*
G04 #@! TO.N,/5V_BMS*
X119380000Y-57150000D03*
G04 #@! TO.N,/MOSI_BMS*
X132080000Y-57150000D03*
G04 #@! TD*
D14*
G04 #@! TO.N,/emeter_CAN_LOW*
X156080000Y-81190000D03*
G04 #@! TO.N,/emeter_CAN_HIGH*
X155090000Y-81040000D03*
G04 #@! TD*
D15*
G04 #@! TO.N,GND*
G36*
X188494022Y-40684374D02*
X189350431Y-40889980D01*
X190164123Y-41227023D01*
X190915081Y-41687210D01*
X191584801Y-42259206D01*
X192156789Y-42928919D01*
X192616976Y-43679875D01*
X192954021Y-44493571D01*
X193159626Y-45349978D01*
X193231000Y-46256876D01*
X193231001Y-103499112D01*
X193159626Y-104406022D01*
X192954021Y-105262429D01*
X192616976Y-106076125D01*
X192156789Y-106827081D01*
X191584801Y-107496794D01*
X190915081Y-108068790D01*
X190164123Y-108528977D01*
X189350431Y-108866020D01*
X188494022Y-109071626D01*
X187587125Y-109143000D01*
X115344876Y-109143000D01*
X114437978Y-109071626D01*
X113581571Y-108866021D01*
X112767875Y-108528976D01*
X112016919Y-108068789D01*
X111347206Y-107496801D01*
X110775210Y-106827081D01*
X110315023Y-106076123D01*
X109977980Y-105262431D01*
X109772374Y-104406022D01*
X109701000Y-103499125D01*
X109701000Y-103169146D01*
X112475377Y-103169146D01*
X112483515Y-103946265D01*
X112700337Y-104692568D01*
X113109866Y-105353072D01*
X113681933Y-105879114D01*
X114374389Y-106231938D01*
X115136218Y-106385550D01*
X115911293Y-106328632D01*
X116642509Y-106065378D01*
X117275995Y-105615183D01*
X117765079Y-105011215D01*
X118073727Y-104297971D01*
X118179200Y-103528000D01*
X118178572Y-103468038D01*
X118131233Y-103169146D01*
X184775377Y-103169146D01*
X184783515Y-103946265D01*
X185000337Y-104692568D01*
X185409866Y-105353072D01*
X185981933Y-105879114D01*
X186674389Y-106231938D01*
X187436218Y-106385550D01*
X188211293Y-106328632D01*
X188942509Y-106065378D01*
X189575995Y-105615183D01*
X190065079Y-105011215D01*
X190373727Y-104297971D01*
X190479200Y-103528000D01*
X190478572Y-103468038D01*
X190356997Y-102700444D01*
X190033480Y-101993821D01*
X189531855Y-101400228D01*
X188889079Y-100963398D01*
X188152510Y-100715515D01*
X187376414Y-100674842D01*
X186617969Y-100844374D01*
X185933053Y-101211623D01*
X185372129Y-101749530D01*
X184976521Y-102418465D01*
X184775377Y-103169146D01*
X118131233Y-103169146D01*
X118056997Y-102700444D01*
X117733480Y-101993821D01*
X117231855Y-101400228D01*
X116589079Y-100963398D01*
X115852510Y-100715515D01*
X115076414Y-100674842D01*
X114317969Y-100844374D01*
X113633053Y-101211623D01*
X113072129Y-101749530D01*
X112676521Y-102418465D01*
X112475377Y-103169146D01*
X109701000Y-103169146D01*
X109701000Y-97500213D01*
X118579392Y-97500213D01*
X118648857Y-97742397D01*
X119172302Y-97929144D01*
X119727368Y-97901362D01*
X120111143Y-97742397D01*
X120180608Y-97500213D01*
X119380000Y-96699605D01*
X118579392Y-97500213D01*
X109701000Y-97500213D01*
X109701000Y-96312302D01*
X117970856Y-96312302D01*
X117998638Y-96867368D01*
X118157603Y-97251143D01*
X118399787Y-97320608D01*
X119200395Y-96520000D01*
X119559605Y-96520000D01*
X120360213Y-97320608D01*
X120602397Y-97251143D01*
X120652535Y-97110607D01*
X120735680Y-97311337D01*
X121128663Y-97704320D01*
X121642119Y-97917000D01*
X122197881Y-97917000D01*
X122711337Y-97704320D01*
X123104320Y-97311337D01*
X123190000Y-97104487D01*
X123275680Y-97311337D01*
X123668663Y-97704320D01*
X124182119Y-97917000D01*
X124737881Y-97917000D01*
X125251337Y-97704320D01*
X125644320Y-97311337D01*
X125730000Y-97104487D01*
X125815680Y-97311337D01*
X126208663Y-97704320D01*
X126722119Y-97917000D01*
X127277881Y-97917000D01*
X127791337Y-97704320D01*
X128184320Y-97311337D01*
X128270000Y-97104487D01*
X128355680Y-97311337D01*
X128748663Y-97704320D01*
X129262119Y-97917000D01*
X129817881Y-97917000D01*
X130331337Y-97704320D01*
X130724320Y-97311337D01*
X130810000Y-97104487D01*
X130895680Y-97311337D01*
X131288663Y-97704320D01*
X131802119Y-97917000D01*
X132357881Y-97917000D01*
X132871337Y-97704320D01*
X133075444Y-97500213D01*
X133819392Y-97500213D01*
X133888857Y-97742397D01*
X134412302Y-97929144D01*
X134967368Y-97901362D01*
X135351143Y-97742397D01*
X135420608Y-97500213D01*
X134620000Y-96699605D01*
X133819392Y-97500213D01*
X133075444Y-97500213D01*
X133264320Y-97311337D01*
X133343428Y-97120353D01*
X133397603Y-97251143D01*
X133639787Y-97320608D01*
X134440395Y-96520000D01*
X134799605Y-96520000D01*
X135600213Y-97320608D01*
X135842397Y-97251143D01*
X135892535Y-97110607D01*
X135975680Y-97311337D01*
X136368663Y-97704320D01*
X136882119Y-97917000D01*
X137437881Y-97917000D01*
X137951337Y-97704320D01*
X138155444Y-97500213D01*
X138899392Y-97500213D01*
X138968857Y-97742397D01*
X139492302Y-97929144D01*
X140047368Y-97901362D01*
X140431143Y-97742397D01*
X140500608Y-97500213D01*
X139700000Y-96699605D01*
X138899392Y-97500213D01*
X138155444Y-97500213D01*
X138344320Y-97311337D01*
X138423428Y-97120353D01*
X138477603Y-97251143D01*
X138719787Y-97320608D01*
X139520395Y-96520000D01*
X139879605Y-96520000D01*
X140680213Y-97320608D01*
X140922397Y-97251143D01*
X140972535Y-97110607D01*
X141055680Y-97311337D01*
X141448663Y-97704320D01*
X141962119Y-97917000D01*
X142517881Y-97917000D01*
X143031337Y-97704320D01*
X143424320Y-97311337D01*
X143510000Y-97104487D01*
X143595680Y-97311337D01*
X143988663Y-97704320D01*
X144502119Y-97917000D01*
X145057881Y-97917000D01*
X145571337Y-97704320D01*
X145775444Y-97500213D01*
X146519392Y-97500213D01*
X146588857Y-97742397D01*
X147112302Y-97929144D01*
X147667368Y-97901362D01*
X148051143Y-97742397D01*
X148120608Y-97500213D01*
X147320000Y-96699605D01*
X146519392Y-97500213D01*
X145775444Y-97500213D01*
X145964320Y-97311337D01*
X146043428Y-97120353D01*
X146097603Y-97251143D01*
X146339787Y-97320608D01*
X147140395Y-96520000D01*
X147499605Y-96520000D01*
X148300213Y-97320608D01*
X148542397Y-97251143D01*
X148592535Y-97110607D01*
X148675680Y-97311337D01*
X149068663Y-97704320D01*
X149582119Y-97917000D01*
X150137881Y-97917000D01*
X150651337Y-97704320D01*
X151044320Y-97311337D01*
X151130000Y-97104487D01*
X151215680Y-97311337D01*
X151608663Y-97704320D01*
X152122119Y-97917000D01*
X152677881Y-97917000D01*
X153191337Y-97704320D01*
X153584320Y-97311337D01*
X153670000Y-97104487D01*
X153755680Y-97311337D01*
X154148663Y-97704320D01*
X154662119Y-97917000D01*
X155217881Y-97917000D01*
X155731337Y-97704320D01*
X156124320Y-97311337D01*
X156210000Y-97104487D01*
X156295680Y-97311337D01*
X156688663Y-97704320D01*
X157202119Y-97917000D01*
X157757881Y-97917000D01*
X158271337Y-97704320D01*
X158664320Y-97311337D01*
X158750000Y-97104487D01*
X158835680Y-97311337D01*
X159228663Y-97704320D01*
X159742119Y-97917000D01*
X160297881Y-97917000D01*
X160811337Y-97704320D01*
X161015444Y-97500213D01*
X161759392Y-97500213D01*
X161828857Y-97742397D01*
X162352302Y-97929144D01*
X162907368Y-97901362D01*
X163291143Y-97742397D01*
X163360608Y-97500213D01*
X162560000Y-96699605D01*
X161759392Y-97500213D01*
X161015444Y-97500213D01*
X161204320Y-97311337D01*
X161283428Y-97120353D01*
X161337603Y-97251143D01*
X161579787Y-97320608D01*
X162380395Y-96520000D01*
X162739605Y-96520000D01*
X163540213Y-97320608D01*
X163782397Y-97251143D01*
X163832535Y-97110607D01*
X163915680Y-97311337D01*
X164308663Y-97704320D01*
X164822119Y-97917000D01*
X165377881Y-97917000D01*
X165891337Y-97704320D01*
X166284320Y-97311337D01*
X166370000Y-97104487D01*
X166455680Y-97311337D01*
X166848663Y-97704320D01*
X167362119Y-97917000D01*
X167917881Y-97917000D01*
X168431337Y-97704320D01*
X168824320Y-97311337D01*
X168910000Y-97104487D01*
X168995680Y-97311337D01*
X169388663Y-97704320D01*
X169902119Y-97917000D01*
X170457881Y-97917000D01*
X170971337Y-97704320D01*
X171364320Y-97311337D01*
X171450000Y-97104487D01*
X171535680Y-97311337D01*
X171928663Y-97704320D01*
X172442119Y-97917000D01*
X172997881Y-97917000D01*
X173511337Y-97704320D01*
X173904320Y-97311337D01*
X173990000Y-97104487D01*
X174075680Y-97311337D01*
X174468663Y-97704320D01*
X174982119Y-97917000D01*
X175537881Y-97917000D01*
X176051337Y-97704320D01*
X176444320Y-97311337D01*
X176530000Y-97104487D01*
X176615680Y-97311337D01*
X177008663Y-97704320D01*
X177522119Y-97917000D01*
X178077881Y-97917000D01*
X178591337Y-97704320D01*
X178984320Y-97311337D01*
X179070000Y-97104487D01*
X179155680Y-97311337D01*
X179548663Y-97704320D01*
X180062119Y-97917000D01*
X180617881Y-97917000D01*
X181131337Y-97704320D01*
X181524320Y-97311337D01*
X181610000Y-97104487D01*
X181695680Y-97311337D01*
X182088663Y-97704320D01*
X182602119Y-97917000D01*
X183157881Y-97917000D01*
X183671337Y-97704320D01*
X184064320Y-97311337D01*
X184277000Y-96797881D01*
X184277000Y-96242119D01*
X184064320Y-95728663D01*
X183671337Y-95335680D01*
X183157881Y-95123000D01*
X182602119Y-95123000D01*
X182088663Y-95335680D01*
X181695680Y-95728663D01*
X181610000Y-95935513D01*
X181524320Y-95728663D01*
X181131337Y-95335680D01*
X180617881Y-95123000D01*
X180062119Y-95123000D01*
X179548663Y-95335680D01*
X179155680Y-95728663D01*
X179070000Y-95935513D01*
X178984320Y-95728663D01*
X178591337Y-95335680D01*
X178077881Y-95123000D01*
X177522119Y-95123000D01*
X177008663Y-95335680D01*
X176615680Y-95728663D01*
X176530000Y-95935513D01*
X176444320Y-95728663D01*
X176051337Y-95335680D01*
X175537881Y-95123000D01*
X174982119Y-95123000D01*
X174468663Y-95335680D01*
X174075680Y-95728663D01*
X173990000Y-95935513D01*
X173904320Y-95728663D01*
X173511337Y-95335680D01*
X172997881Y-95123000D01*
X172442119Y-95123000D01*
X171928663Y-95335680D01*
X171535680Y-95728663D01*
X171450000Y-95935513D01*
X171364320Y-95728663D01*
X170971337Y-95335680D01*
X170457881Y-95123000D01*
X169902119Y-95123000D01*
X169388663Y-95335680D01*
X168995680Y-95728663D01*
X168910000Y-95935513D01*
X168824320Y-95728663D01*
X168431337Y-95335680D01*
X167917881Y-95123000D01*
X167362119Y-95123000D01*
X166848663Y-95335680D01*
X166455680Y-95728663D01*
X166370000Y-95935513D01*
X166284320Y-95728663D01*
X165891337Y-95335680D01*
X165377881Y-95123000D01*
X164822119Y-95123000D01*
X164308663Y-95335680D01*
X163915680Y-95728663D01*
X163836572Y-95919647D01*
X163782397Y-95788857D01*
X163540213Y-95719392D01*
X162739605Y-96520000D01*
X162380395Y-96520000D01*
X161579787Y-95719392D01*
X161337603Y-95788857D01*
X161287465Y-95929393D01*
X161204320Y-95728663D01*
X161015444Y-95539787D01*
X161759392Y-95539787D01*
X162560000Y-96340395D01*
X163360608Y-95539787D01*
X163291143Y-95297603D01*
X162767698Y-95110856D01*
X162212632Y-95138638D01*
X161828857Y-95297603D01*
X161759392Y-95539787D01*
X161015444Y-95539787D01*
X160811337Y-95335680D01*
X160297881Y-95123000D01*
X159742119Y-95123000D01*
X159228663Y-95335680D01*
X158835680Y-95728663D01*
X158750000Y-95935513D01*
X158664320Y-95728663D01*
X158271337Y-95335680D01*
X157757881Y-95123000D01*
X157202119Y-95123000D01*
X156688663Y-95335680D01*
X156295680Y-95728663D01*
X156210000Y-95935513D01*
X156124320Y-95728663D01*
X155731337Y-95335680D01*
X155217881Y-95123000D01*
X154662119Y-95123000D01*
X154148663Y-95335680D01*
X153755680Y-95728663D01*
X153670000Y-95935513D01*
X153584320Y-95728663D01*
X153191337Y-95335680D01*
X152677881Y-95123000D01*
X152122119Y-95123000D01*
X151608663Y-95335680D01*
X151215680Y-95728663D01*
X151130000Y-95935513D01*
X151044320Y-95728663D01*
X150651337Y-95335680D01*
X150137881Y-95123000D01*
X149582119Y-95123000D01*
X149068663Y-95335680D01*
X148675680Y-95728663D01*
X148596572Y-95919647D01*
X148542397Y-95788857D01*
X148300213Y-95719392D01*
X147499605Y-96520000D01*
X147140395Y-96520000D01*
X146339787Y-95719392D01*
X146097603Y-95788857D01*
X146047465Y-95929393D01*
X145964320Y-95728663D01*
X145775444Y-95539787D01*
X146519392Y-95539787D01*
X147320000Y-96340395D01*
X148120608Y-95539787D01*
X148051143Y-95297603D01*
X147527698Y-95110856D01*
X146972632Y-95138638D01*
X146588857Y-95297603D01*
X146519392Y-95539787D01*
X145775444Y-95539787D01*
X145571337Y-95335680D01*
X145057881Y-95123000D01*
X144502119Y-95123000D01*
X143988663Y-95335680D01*
X143595680Y-95728663D01*
X143510000Y-95935513D01*
X143424320Y-95728663D01*
X143031337Y-95335680D01*
X142517881Y-95123000D01*
X141962119Y-95123000D01*
X141448663Y-95335680D01*
X141055680Y-95728663D01*
X140976572Y-95919647D01*
X140922397Y-95788857D01*
X140680213Y-95719392D01*
X139879605Y-96520000D01*
X139520395Y-96520000D01*
X138719787Y-95719392D01*
X138477603Y-95788857D01*
X138427465Y-95929393D01*
X138344320Y-95728663D01*
X138155444Y-95539787D01*
X138899392Y-95539787D01*
X139700000Y-96340395D01*
X140500608Y-95539787D01*
X140431143Y-95297603D01*
X139907698Y-95110856D01*
X139352632Y-95138638D01*
X138968857Y-95297603D01*
X138899392Y-95539787D01*
X138155444Y-95539787D01*
X137951337Y-95335680D01*
X137437881Y-95123000D01*
X136882119Y-95123000D01*
X136368663Y-95335680D01*
X135975680Y-95728663D01*
X135896572Y-95919647D01*
X135842397Y-95788857D01*
X135600213Y-95719392D01*
X134799605Y-96520000D01*
X134440395Y-96520000D01*
X133639787Y-95719392D01*
X133397603Y-95788857D01*
X133347465Y-95929393D01*
X133264320Y-95728663D01*
X133075444Y-95539787D01*
X133819392Y-95539787D01*
X134620000Y-96340395D01*
X135420608Y-95539787D01*
X135351143Y-95297603D01*
X134827698Y-95110856D01*
X134272632Y-95138638D01*
X133888857Y-95297603D01*
X133819392Y-95539787D01*
X133075444Y-95539787D01*
X132871337Y-95335680D01*
X132357881Y-95123000D01*
X131802119Y-95123000D01*
X131288663Y-95335680D01*
X130895680Y-95728663D01*
X130810000Y-95935513D01*
X130724320Y-95728663D01*
X130331337Y-95335680D01*
X129817881Y-95123000D01*
X129262119Y-95123000D01*
X128748663Y-95335680D01*
X128355680Y-95728663D01*
X128270000Y-95935513D01*
X128184320Y-95728663D01*
X127791337Y-95335680D01*
X127277881Y-95123000D01*
X126722119Y-95123000D01*
X126208663Y-95335680D01*
X125815680Y-95728663D01*
X125730000Y-95935513D01*
X125644320Y-95728663D01*
X125251337Y-95335680D01*
X124737881Y-95123000D01*
X124182119Y-95123000D01*
X123668663Y-95335680D01*
X123275680Y-95728663D01*
X123190000Y-95935513D01*
X123104320Y-95728663D01*
X122711337Y-95335680D01*
X122197881Y-95123000D01*
X121642119Y-95123000D01*
X121128663Y-95335680D01*
X120735680Y-95728663D01*
X120656572Y-95919647D01*
X120602397Y-95788857D01*
X120360213Y-95719392D01*
X119559605Y-96520000D01*
X119200395Y-96520000D01*
X118399787Y-95719392D01*
X118157603Y-95788857D01*
X117970856Y-96312302D01*
X109701000Y-96312302D01*
X109701000Y-95539787D01*
X118579392Y-95539787D01*
X119380000Y-96340395D01*
X120180608Y-95539787D01*
X120111143Y-95297603D01*
X119587698Y-95110856D01*
X119032632Y-95138638D01*
X118648857Y-95297603D01*
X118579392Y-95539787D01*
X109701000Y-95539787D01*
X109701000Y-80134778D01*
X124475000Y-80134778D01*
X124475000Y-80785222D01*
X124723914Y-81386153D01*
X125183847Y-81846086D01*
X125784778Y-82095000D01*
X126435222Y-82095000D01*
X127036153Y-81846086D01*
X127496086Y-81386153D01*
X127716899Y-80853062D01*
X154150200Y-80853062D01*
X154150200Y-81226938D01*
X154293276Y-81572354D01*
X154557646Y-81836724D01*
X154903062Y-81979800D01*
X155276938Y-81979800D01*
X155463461Y-81902539D01*
X155547646Y-81986724D01*
X155893062Y-82129800D01*
X156266938Y-82129800D01*
X156612354Y-81986724D01*
X156876724Y-81722354D01*
X157019800Y-81376938D01*
X157019800Y-81003062D01*
X156876724Y-80657646D01*
X156612354Y-80393276D01*
X156266938Y-80250200D01*
X155893062Y-80250200D01*
X155706539Y-80327461D01*
X155622354Y-80243276D01*
X155360417Y-80134778D01*
X174875000Y-80134778D01*
X174875000Y-80785222D01*
X175123914Y-81386153D01*
X175583847Y-81846086D01*
X176184778Y-82095000D01*
X176835222Y-82095000D01*
X177436153Y-81846086D01*
X177896086Y-81386153D01*
X178145000Y-80785222D01*
X178145000Y-80134778D01*
X177896086Y-79533847D01*
X177436153Y-79073914D01*
X176835222Y-78825000D01*
X176184778Y-78825000D01*
X175583847Y-79073914D01*
X175123914Y-79533847D01*
X174875000Y-80134778D01*
X155360417Y-80134778D01*
X155276938Y-80100200D01*
X154903062Y-80100200D01*
X154557646Y-80243276D01*
X154293276Y-80507646D01*
X154150200Y-80853062D01*
X127716899Y-80853062D01*
X127745000Y-80785222D01*
X127745000Y-80134778D01*
X127496086Y-79533847D01*
X127036153Y-79073914D01*
X126435222Y-78825000D01*
X125784778Y-78825000D01*
X125183847Y-79073914D01*
X124723914Y-79533847D01*
X124475000Y-80134778D01*
X109701000Y-80134778D01*
X109701000Y-76735322D01*
X135175000Y-76735322D01*
X135175000Y-77584678D01*
X135500034Y-78369380D01*
X136100620Y-78969966D01*
X136885322Y-79295000D01*
X137734678Y-79295000D01*
X138519380Y-78969966D01*
X139119966Y-78369380D01*
X139310000Y-77910597D01*
X139500034Y-78369380D01*
X140100620Y-78969966D01*
X140885322Y-79295000D01*
X141734678Y-79295000D01*
X142519380Y-78969966D01*
X142815376Y-78673970D01*
X143975635Y-78673970D01*
X144135418Y-78992739D01*
X144926187Y-79302723D01*
X145775387Y-79286497D01*
X146484582Y-78992739D01*
X146644365Y-78673970D01*
X145310000Y-77339605D01*
X143975635Y-78673970D01*
X142815376Y-78673970D01*
X143119966Y-78369380D01*
X143305820Y-77920688D01*
X143477261Y-78334582D01*
X143796030Y-78494365D01*
X145130395Y-77160000D01*
X145489605Y-77160000D01*
X146823970Y-78494365D01*
X147142739Y-78334582D01*
X147309457Y-77909285D01*
X147500034Y-78369380D01*
X148100620Y-78969966D01*
X148885322Y-79295000D01*
X149734678Y-79295000D01*
X150519380Y-78969966D01*
X151119966Y-78369380D01*
X151310000Y-77910597D01*
X151500034Y-78369380D01*
X152100620Y-78969966D01*
X152885322Y-79295000D01*
X153734678Y-79295000D01*
X154519380Y-78969966D01*
X155119966Y-78369380D01*
X155310000Y-77910597D01*
X155500034Y-78369380D01*
X156100620Y-78969966D01*
X156885322Y-79295000D01*
X157734678Y-79295000D01*
X158519380Y-78969966D01*
X159119966Y-78369380D01*
X159310000Y-77910597D01*
X159500034Y-78369380D01*
X160100620Y-78969966D01*
X160885322Y-79295000D01*
X161734678Y-79295000D01*
X162519380Y-78969966D01*
X163119966Y-78369380D01*
X163310000Y-77910597D01*
X163500034Y-78369380D01*
X164100620Y-78969966D01*
X164885322Y-79295000D01*
X165734678Y-79295000D01*
X166519380Y-78969966D01*
X167119966Y-78369380D01*
X167445000Y-77584678D01*
X167445000Y-76735322D01*
X167119966Y-75950620D01*
X166519380Y-75350034D01*
X165734678Y-75025000D01*
X164885322Y-75025000D01*
X164100620Y-75350034D01*
X163500034Y-75950620D01*
X163310000Y-76409403D01*
X163119966Y-75950620D01*
X162519380Y-75350034D01*
X161734678Y-75025000D01*
X160885322Y-75025000D01*
X160100620Y-75350034D01*
X159500034Y-75950620D01*
X159310000Y-76409403D01*
X159119966Y-75950620D01*
X158519380Y-75350034D01*
X157734678Y-75025000D01*
X156885322Y-75025000D01*
X156100620Y-75350034D01*
X155500034Y-75950620D01*
X155310000Y-76409403D01*
X155119966Y-75950620D01*
X154519380Y-75350034D01*
X153734678Y-75025000D01*
X152885322Y-75025000D01*
X152100620Y-75350034D01*
X151500034Y-75950620D01*
X151310000Y-76409403D01*
X151119966Y-75950620D01*
X150519380Y-75350034D01*
X149734678Y-75025000D01*
X148885322Y-75025000D01*
X148100620Y-75350034D01*
X147500034Y-75950620D01*
X147314180Y-76399312D01*
X147142739Y-75985418D01*
X146823970Y-75825635D01*
X145489605Y-77160000D01*
X145130395Y-77160000D01*
X143796030Y-75825635D01*
X143477261Y-75985418D01*
X143310543Y-76410715D01*
X143119966Y-75950620D01*
X142815376Y-75646030D01*
X143975635Y-75646030D01*
X145310000Y-76980395D01*
X146644365Y-75646030D01*
X146484582Y-75327261D01*
X145693813Y-75017277D01*
X144844613Y-75033503D01*
X144135418Y-75327261D01*
X143975635Y-75646030D01*
X142815376Y-75646030D01*
X142519380Y-75350034D01*
X141734678Y-75025000D01*
X140885322Y-75025000D01*
X140100620Y-75350034D01*
X139500034Y-75950620D01*
X139310000Y-76409403D01*
X139119966Y-75950620D01*
X138519380Y-75350034D01*
X137734678Y-75025000D01*
X136885322Y-75025000D01*
X136100620Y-75350034D01*
X135500034Y-75950620D01*
X135175000Y-76735322D01*
X109701000Y-76735322D01*
X109701000Y-73250240D01*
X128750000Y-73250240D01*
X128750000Y-74069760D01*
X129063616Y-74826896D01*
X129643104Y-75406384D01*
X130400240Y-75720000D01*
X131219760Y-75720000D01*
X131976896Y-75406384D01*
X132556384Y-74826896D01*
X132619728Y-74673970D01*
X137975635Y-74673970D01*
X138135418Y-74992739D01*
X138926187Y-75302723D01*
X139775387Y-75286497D01*
X140484582Y-74992739D01*
X140644365Y-74673970D01*
X139310000Y-73339605D01*
X137975635Y-74673970D01*
X132619728Y-74673970D01*
X132870000Y-74069760D01*
X132870000Y-73250240D01*
X132673641Y-72776187D01*
X137167277Y-72776187D01*
X137183503Y-73625387D01*
X137477261Y-74334582D01*
X137796030Y-74494365D01*
X139130395Y-73160000D01*
X139489605Y-73160000D01*
X140823970Y-74494365D01*
X141142739Y-74334582D01*
X141309457Y-73909285D01*
X141500034Y-74369380D01*
X142100620Y-74969966D01*
X142885322Y-75295000D01*
X143734678Y-75295000D01*
X144519380Y-74969966D01*
X145119966Y-74369380D01*
X145310000Y-73910597D01*
X145500034Y-74369380D01*
X146100620Y-74969966D01*
X146885322Y-75295000D01*
X147734678Y-75295000D01*
X148519380Y-74969966D01*
X149119966Y-74369380D01*
X149310000Y-73910597D01*
X149500034Y-74369380D01*
X150100620Y-74969966D01*
X150885322Y-75295000D01*
X151734678Y-75295000D01*
X152519380Y-74969966D01*
X153119966Y-74369380D01*
X153310000Y-73910597D01*
X153500034Y-74369380D01*
X154100620Y-74969966D01*
X154885322Y-75295000D01*
X155734678Y-75295000D01*
X156519380Y-74969966D01*
X157119966Y-74369380D01*
X157310000Y-73910597D01*
X157500034Y-74369380D01*
X158100620Y-74969966D01*
X158885322Y-75295000D01*
X159734678Y-75295000D01*
X160519380Y-74969966D01*
X161119966Y-74369380D01*
X161310000Y-73910597D01*
X161500034Y-74369380D01*
X162100620Y-74969966D01*
X162885322Y-75295000D01*
X163734678Y-75295000D01*
X164519380Y-74969966D01*
X165119966Y-74369380D01*
X165445000Y-73584678D01*
X165445000Y-73250240D01*
X169750000Y-73250240D01*
X169750000Y-74069760D01*
X170063616Y-74826896D01*
X170643104Y-75406384D01*
X171400240Y-75720000D01*
X172219760Y-75720000D01*
X172976896Y-75406384D01*
X173556384Y-74826896D01*
X173870000Y-74069760D01*
X173870000Y-73250240D01*
X173556384Y-72493104D01*
X172976896Y-71913616D01*
X172219760Y-71600000D01*
X171400240Y-71600000D01*
X170643104Y-71913616D01*
X170063616Y-72493104D01*
X169750000Y-73250240D01*
X165445000Y-73250240D01*
X165445000Y-72735322D01*
X165119966Y-71950620D01*
X164519380Y-71350034D01*
X163734678Y-71025000D01*
X162885322Y-71025000D01*
X162100620Y-71350034D01*
X161500034Y-71950620D01*
X161310000Y-72409403D01*
X161119966Y-71950620D01*
X160519380Y-71350034D01*
X159734678Y-71025000D01*
X158885322Y-71025000D01*
X158100620Y-71350034D01*
X157500034Y-71950620D01*
X157310000Y-72409403D01*
X157119966Y-71950620D01*
X156519380Y-71350034D01*
X155734678Y-71025000D01*
X154885322Y-71025000D01*
X154100620Y-71350034D01*
X153500034Y-71950620D01*
X153310000Y-72409403D01*
X153119966Y-71950620D01*
X152519380Y-71350034D01*
X151734678Y-71025000D01*
X150885322Y-71025000D01*
X150100620Y-71350034D01*
X149500034Y-71950620D01*
X149310000Y-72409403D01*
X149119966Y-71950620D01*
X148519380Y-71350034D01*
X147734678Y-71025000D01*
X146885322Y-71025000D01*
X146100620Y-71350034D01*
X145500034Y-71950620D01*
X145310000Y-72409403D01*
X145119966Y-71950620D01*
X144519380Y-71350034D01*
X143734678Y-71025000D01*
X142885322Y-71025000D01*
X142100620Y-71350034D01*
X141500034Y-71950620D01*
X141314180Y-72399312D01*
X141142739Y-71985418D01*
X140823970Y-71825635D01*
X139489605Y-73160000D01*
X139130395Y-73160000D01*
X137796030Y-71825635D01*
X137477261Y-71985418D01*
X137167277Y-72776187D01*
X132673641Y-72776187D01*
X132556384Y-72493104D01*
X131976896Y-71913616D01*
X131330887Y-71646030D01*
X137975635Y-71646030D01*
X139310000Y-72980395D01*
X140644365Y-71646030D01*
X140484582Y-71327261D01*
X139693813Y-71017277D01*
X138844613Y-71033503D01*
X138135418Y-71327261D01*
X137975635Y-71646030D01*
X131330887Y-71646030D01*
X131219760Y-71600000D01*
X130400240Y-71600000D01*
X129643104Y-71913616D01*
X129063616Y-72493104D01*
X128750000Y-73250240D01*
X109701000Y-73250240D01*
X109701000Y-70673970D01*
X135975635Y-70673970D01*
X136135418Y-70992739D01*
X136926187Y-71302723D01*
X137775387Y-71286497D01*
X138484582Y-70992739D01*
X138644365Y-70673970D01*
X137310000Y-69339605D01*
X135975635Y-70673970D01*
X109701000Y-70673970D01*
X109701000Y-68776187D01*
X135167277Y-68776187D01*
X135183503Y-69625387D01*
X135477261Y-70334582D01*
X135796030Y-70494365D01*
X137130395Y-69160000D01*
X137489605Y-69160000D01*
X138823970Y-70494365D01*
X139142739Y-70334582D01*
X139309457Y-69909285D01*
X139500034Y-70369380D01*
X140100620Y-70969966D01*
X140885322Y-71295000D01*
X141734678Y-71295000D01*
X142519380Y-70969966D01*
X143119966Y-70369380D01*
X143310000Y-69910597D01*
X143500034Y-70369380D01*
X144100620Y-70969966D01*
X144885322Y-71295000D01*
X145734678Y-71295000D01*
X146519380Y-70969966D01*
X147119966Y-70369380D01*
X147310000Y-69910597D01*
X147500034Y-70369380D01*
X148100620Y-70969966D01*
X148885322Y-71295000D01*
X149734678Y-71295000D01*
X150519380Y-70969966D01*
X151119966Y-70369380D01*
X151310000Y-69910597D01*
X151500034Y-70369380D01*
X152100620Y-70969966D01*
X152885322Y-71295000D01*
X153734678Y-71295000D01*
X154519380Y-70969966D01*
X155119966Y-70369380D01*
X155310000Y-69910597D01*
X155500034Y-70369380D01*
X156100620Y-70969966D01*
X156885322Y-71295000D01*
X157734678Y-71295000D01*
X158519380Y-70969966D01*
X158815376Y-70673970D01*
X159975635Y-70673970D01*
X160135418Y-70992739D01*
X160926187Y-71302723D01*
X161775387Y-71286497D01*
X162484582Y-70992739D01*
X162644365Y-70673970D01*
X161310000Y-69339605D01*
X159975635Y-70673970D01*
X158815376Y-70673970D01*
X159119966Y-70369380D01*
X159305820Y-69920688D01*
X159477261Y-70334582D01*
X159796030Y-70494365D01*
X161130395Y-69160000D01*
X161489605Y-69160000D01*
X162823970Y-70494365D01*
X163142739Y-70334582D01*
X163309457Y-69909285D01*
X163500034Y-70369380D01*
X164100620Y-70969966D01*
X164885322Y-71295000D01*
X165734678Y-71295000D01*
X166519380Y-70969966D01*
X167119966Y-70369380D01*
X167445000Y-69584678D01*
X167445000Y-68735322D01*
X167119966Y-67950620D01*
X166519380Y-67350034D01*
X165734678Y-67025000D01*
X164885322Y-67025000D01*
X164100620Y-67350034D01*
X163500034Y-67950620D01*
X163314180Y-68399312D01*
X163142739Y-67985418D01*
X162823970Y-67825635D01*
X161489605Y-69160000D01*
X161130395Y-69160000D01*
X159796030Y-67825635D01*
X159477261Y-67985418D01*
X159310543Y-68410715D01*
X159119966Y-67950620D01*
X158815376Y-67646030D01*
X159975635Y-67646030D01*
X161310000Y-68980395D01*
X162644365Y-67646030D01*
X162484582Y-67327261D01*
X161693813Y-67017277D01*
X160844613Y-67033503D01*
X160135418Y-67327261D01*
X159975635Y-67646030D01*
X158815376Y-67646030D01*
X158519380Y-67350034D01*
X157734678Y-67025000D01*
X156885322Y-67025000D01*
X156100620Y-67350034D01*
X155500034Y-67950620D01*
X155310000Y-68409403D01*
X155119966Y-67950620D01*
X154519380Y-67350034D01*
X153734678Y-67025000D01*
X152885322Y-67025000D01*
X152100620Y-67350034D01*
X151500034Y-67950620D01*
X151310000Y-68409403D01*
X151119966Y-67950620D01*
X150519380Y-67350034D01*
X149734678Y-67025000D01*
X148885322Y-67025000D01*
X148100620Y-67350034D01*
X147500034Y-67950620D01*
X147310000Y-68409403D01*
X147119966Y-67950620D01*
X146519380Y-67350034D01*
X145734678Y-67025000D01*
X144885322Y-67025000D01*
X144100620Y-67350034D01*
X143500034Y-67950620D01*
X143310000Y-68409403D01*
X143119966Y-67950620D01*
X142519380Y-67350034D01*
X141734678Y-67025000D01*
X140885322Y-67025000D01*
X140100620Y-67350034D01*
X139500034Y-67950620D01*
X139314180Y-68399312D01*
X139142739Y-67985418D01*
X138823970Y-67825635D01*
X137489605Y-69160000D01*
X137130395Y-69160000D01*
X135796030Y-67825635D01*
X135477261Y-67985418D01*
X135167277Y-68776187D01*
X109701000Y-68776187D01*
X109701000Y-67646030D01*
X135975635Y-67646030D01*
X137310000Y-68980395D01*
X138644365Y-67646030D01*
X138484582Y-67327261D01*
X137693813Y-67017277D01*
X136844613Y-67033503D01*
X136135418Y-67327261D01*
X135975635Y-67646030D01*
X109701000Y-67646030D01*
X109701000Y-62034778D01*
X125975000Y-62034778D01*
X125975000Y-62685222D01*
X126223914Y-63286153D01*
X126683847Y-63746086D01*
X127284778Y-63995000D01*
X127935222Y-63995000D01*
X128536153Y-63746086D01*
X128996086Y-63286153D01*
X129245000Y-62685222D01*
X129245000Y-62034778D01*
X173375000Y-62034778D01*
X173375000Y-62685222D01*
X173623914Y-63286153D01*
X174083847Y-63746086D01*
X174684778Y-63995000D01*
X175335222Y-63995000D01*
X175936153Y-63746086D01*
X176396086Y-63286153D01*
X176645000Y-62685222D01*
X176645000Y-62034778D01*
X176396086Y-61433847D01*
X175936153Y-60973914D01*
X175335222Y-60725000D01*
X174684778Y-60725000D01*
X174083847Y-60973914D01*
X173623914Y-61433847D01*
X173375000Y-62034778D01*
X129245000Y-62034778D01*
X128996086Y-61433847D01*
X128536153Y-60973914D01*
X127935222Y-60725000D01*
X127284778Y-60725000D01*
X126683847Y-60973914D01*
X126223914Y-61433847D01*
X125975000Y-62034778D01*
X109701000Y-62034778D01*
X109701000Y-56872119D01*
X117983000Y-56872119D01*
X117983000Y-57427881D01*
X118195680Y-57941337D01*
X118588663Y-58334320D01*
X119102119Y-58547000D01*
X119657881Y-58547000D01*
X120171337Y-58334320D01*
X120564320Y-57941337D01*
X120650000Y-57734487D01*
X120735680Y-57941337D01*
X121128663Y-58334320D01*
X121642119Y-58547000D01*
X122197881Y-58547000D01*
X122711337Y-58334320D01*
X123104320Y-57941337D01*
X123190000Y-57734487D01*
X123275680Y-57941337D01*
X123668663Y-58334320D01*
X124182119Y-58547000D01*
X124737881Y-58547000D01*
X125251337Y-58334320D01*
X125644320Y-57941337D01*
X125730000Y-57734487D01*
X125815680Y-57941337D01*
X126208663Y-58334320D01*
X126722119Y-58547000D01*
X127277881Y-58547000D01*
X127791337Y-58334320D01*
X128184320Y-57941337D01*
X128270000Y-57734487D01*
X128355680Y-57941337D01*
X128748663Y-58334320D01*
X129262119Y-58547000D01*
X129817881Y-58547000D01*
X130331337Y-58334320D01*
X130724320Y-57941337D01*
X130810000Y-57734487D01*
X130895680Y-57941337D01*
X131288663Y-58334320D01*
X131802119Y-58547000D01*
X132357881Y-58547000D01*
X132871337Y-58334320D01*
X133264320Y-57941337D01*
X133350000Y-57734487D01*
X133435680Y-57941337D01*
X133828663Y-58334320D01*
X134342119Y-58547000D01*
X134897881Y-58547000D01*
X135411337Y-58334320D01*
X135804320Y-57941337D01*
X135890000Y-57734487D01*
X135975680Y-57941337D01*
X136368663Y-58334320D01*
X136882119Y-58547000D01*
X137437881Y-58547000D01*
X137951337Y-58334320D01*
X138344320Y-57941337D01*
X138430000Y-57734487D01*
X138515680Y-57941337D01*
X138908663Y-58334320D01*
X139422119Y-58547000D01*
X139977881Y-58547000D01*
X140491337Y-58334320D01*
X140884320Y-57941337D01*
X140970000Y-57734487D01*
X141055680Y-57941337D01*
X141448663Y-58334320D01*
X141962119Y-58547000D01*
X142517881Y-58547000D01*
X143031337Y-58334320D01*
X143424320Y-57941337D01*
X143510000Y-57734487D01*
X143595680Y-57941337D01*
X143988663Y-58334320D01*
X144502119Y-58547000D01*
X145057881Y-58547000D01*
X145571337Y-58334320D01*
X145964320Y-57941337D01*
X146050000Y-57734487D01*
X146135680Y-57941337D01*
X146528663Y-58334320D01*
X147042119Y-58547000D01*
X147597881Y-58547000D01*
X148111337Y-58334320D01*
X148504320Y-57941337D01*
X148590000Y-57734487D01*
X148675680Y-57941337D01*
X149068663Y-58334320D01*
X149582119Y-58547000D01*
X150137881Y-58547000D01*
X150651337Y-58334320D01*
X151044320Y-57941337D01*
X151130000Y-57734487D01*
X151215680Y-57941337D01*
X151608663Y-58334320D01*
X152122119Y-58547000D01*
X152677881Y-58547000D01*
X153191337Y-58334320D01*
X153584320Y-57941337D01*
X153670000Y-57734487D01*
X153755680Y-57941337D01*
X154148663Y-58334320D01*
X154662119Y-58547000D01*
X155217881Y-58547000D01*
X155731337Y-58334320D01*
X156124320Y-57941337D01*
X156210000Y-57734487D01*
X156295680Y-57941337D01*
X156688663Y-58334320D01*
X157202119Y-58547000D01*
X157757881Y-58547000D01*
X158271337Y-58334320D01*
X158664320Y-57941337D01*
X158750000Y-57734487D01*
X158835680Y-57941337D01*
X159228663Y-58334320D01*
X159742119Y-58547000D01*
X160297881Y-58547000D01*
X160811337Y-58334320D01*
X161204320Y-57941337D01*
X161290000Y-57734487D01*
X161375680Y-57941337D01*
X161768663Y-58334320D01*
X162282119Y-58547000D01*
X162837881Y-58547000D01*
X163351337Y-58334320D01*
X163744320Y-57941337D01*
X163830000Y-57734487D01*
X163915680Y-57941337D01*
X164308663Y-58334320D01*
X164822119Y-58547000D01*
X165377881Y-58547000D01*
X165891337Y-58334320D01*
X166284320Y-57941337D01*
X166370000Y-57734487D01*
X166455680Y-57941337D01*
X166848663Y-58334320D01*
X167362119Y-58547000D01*
X167917881Y-58547000D01*
X168431337Y-58334320D01*
X168824320Y-57941337D01*
X168910000Y-57734487D01*
X168995680Y-57941337D01*
X169388663Y-58334320D01*
X169902119Y-58547000D01*
X170457881Y-58547000D01*
X170971337Y-58334320D01*
X171364320Y-57941337D01*
X171450000Y-57734487D01*
X171535680Y-57941337D01*
X171928663Y-58334320D01*
X172442119Y-58547000D01*
X172997881Y-58547000D01*
X173511337Y-58334320D01*
X173904320Y-57941337D01*
X173990000Y-57734487D01*
X174075680Y-57941337D01*
X174468663Y-58334320D01*
X174982119Y-58547000D01*
X175537881Y-58547000D01*
X176051337Y-58334320D01*
X176444320Y-57941337D01*
X176530000Y-57734487D01*
X176615680Y-57941337D01*
X177008663Y-58334320D01*
X177522119Y-58547000D01*
X178077881Y-58547000D01*
X178591337Y-58334320D01*
X178984320Y-57941337D01*
X179070000Y-57734487D01*
X179155680Y-57941337D01*
X179548663Y-58334320D01*
X180062119Y-58547000D01*
X180617881Y-58547000D01*
X181131337Y-58334320D01*
X181524320Y-57941337D01*
X181610000Y-57734487D01*
X181695680Y-57941337D01*
X182088663Y-58334320D01*
X182602119Y-58547000D01*
X183157881Y-58547000D01*
X183671337Y-58334320D01*
X184064320Y-57941337D01*
X184277000Y-57427881D01*
X184277000Y-56872119D01*
X184064320Y-56358663D01*
X183671337Y-55965680D01*
X183157881Y-55753000D01*
X182602119Y-55753000D01*
X182088663Y-55965680D01*
X181695680Y-56358663D01*
X181610000Y-56565513D01*
X181524320Y-56358663D01*
X181131337Y-55965680D01*
X180617881Y-55753000D01*
X180062119Y-55753000D01*
X179548663Y-55965680D01*
X179155680Y-56358663D01*
X179070000Y-56565513D01*
X178984320Y-56358663D01*
X178591337Y-55965680D01*
X178077881Y-55753000D01*
X177522119Y-55753000D01*
X177008663Y-55965680D01*
X176615680Y-56358663D01*
X176530000Y-56565513D01*
X176444320Y-56358663D01*
X176051337Y-55965680D01*
X175537881Y-55753000D01*
X174982119Y-55753000D01*
X174468663Y-55965680D01*
X174075680Y-56358663D01*
X173990000Y-56565513D01*
X173904320Y-56358663D01*
X173511337Y-55965680D01*
X172997881Y-55753000D01*
X172442119Y-55753000D01*
X171928663Y-55965680D01*
X171535680Y-56358663D01*
X171450000Y-56565513D01*
X171364320Y-56358663D01*
X170971337Y-55965680D01*
X170457881Y-55753000D01*
X169902119Y-55753000D01*
X169388663Y-55965680D01*
X168995680Y-56358663D01*
X168910000Y-56565513D01*
X168824320Y-56358663D01*
X168431337Y-55965680D01*
X167917881Y-55753000D01*
X167362119Y-55753000D01*
X166848663Y-55965680D01*
X166455680Y-56358663D01*
X166370000Y-56565513D01*
X166284320Y-56358663D01*
X165891337Y-55965680D01*
X165377881Y-55753000D01*
X164822119Y-55753000D01*
X164308663Y-55965680D01*
X163915680Y-56358663D01*
X163830000Y-56565513D01*
X163744320Y-56358663D01*
X163351337Y-55965680D01*
X162837881Y-55753000D01*
X162282119Y-55753000D01*
X161768663Y-55965680D01*
X161375680Y-56358663D01*
X161290000Y-56565513D01*
X161204320Y-56358663D01*
X160811337Y-55965680D01*
X160297881Y-55753000D01*
X159742119Y-55753000D01*
X159228663Y-55965680D01*
X158835680Y-56358663D01*
X158750000Y-56565513D01*
X158664320Y-56358663D01*
X158271337Y-55965680D01*
X157757881Y-55753000D01*
X157202119Y-55753000D01*
X156688663Y-55965680D01*
X156295680Y-56358663D01*
X156210000Y-56565513D01*
X156124320Y-56358663D01*
X155731337Y-55965680D01*
X155217881Y-55753000D01*
X154662119Y-55753000D01*
X154148663Y-55965680D01*
X153755680Y-56358663D01*
X153670000Y-56565513D01*
X153584320Y-56358663D01*
X153191337Y-55965680D01*
X152677881Y-55753000D01*
X152122119Y-55753000D01*
X151608663Y-55965680D01*
X151215680Y-56358663D01*
X151130000Y-56565513D01*
X151044320Y-56358663D01*
X150651337Y-55965680D01*
X150137881Y-55753000D01*
X149582119Y-55753000D01*
X149068663Y-55965680D01*
X148675680Y-56358663D01*
X148590000Y-56565513D01*
X148504320Y-56358663D01*
X148111337Y-55965680D01*
X147597881Y-55753000D01*
X147042119Y-55753000D01*
X146528663Y-55965680D01*
X146135680Y-56358663D01*
X146050000Y-56565513D01*
X145964320Y-56358663D01*
X145571337Y-55965680D01*
X145057881Y-55753000D01*
X144502119Y-55753000D01*
X143988663Y-55965680D01*
X143595680Y-56358663D01*
X143510000Y-56565513D01*
X143424320Y-56358663D01*
X143031337Y-55965680D01*
X142517881Y-55753000D01*
X141962119Y-55753000D01*
X141448663Y-55965680D01*
X141055680Y-56358663D01*
X140970000Y-56565513D01*
X140884320Y-56358663D01*
X140491337Y-55965680D01*
X139977881Y-55753000D01*
X139422119Y-55753000D01*
X138908663Y-55965680D01*
X138515680Y-56358663D01*
X138430000Y-56565513D01*
X138344320Y-56358663D01*
X137951337Y-55965680D01*
X137437881Y-55753000D01*
X136882119Y-55753000D01*
X136368663Y-55965680D01*
X135975680Y-56358663D01*
X135890000Y-56565513D01*
X135804320Y-56358663D01*
X135411337Y-55965680D01*
X134897881Y-55753000D01*
X134342119Y-55753000D01*
X133828663Y-55965680D01*
X133435680Y-56358663D01*
X133350000Y-56565513D01*
X133264320Y-56358663D01*
X132871337Y-55965680D01*
X132357881Y-55753000D01*
X131802119Y-55753000D01*
X131288663Y-55965680D01*
X130895680Y-56358663D01*
X130810000Y-56565513D01*
X130724320Y-56358663D01*
X130331337Y-55965680D01*
X129817881Y-55753000D01*
X129262119Y-55753000D01*
X128748663Y-55965680D01*
X128355680Y-56358663D01*
X128270000Y-56565513D01*
X128184320Y-56358663D01*
X127791337Y-55965680D01*
X127277881Y-55753000D01*
X126722119Y-55753000D01*
X126208663Y-55965680D01*
X125815680Y-56358663D01*
X125730000Y-56565513D01*
X125644320Y-56358663D01*
X125251337Y-55965680D01*
X124737881Y-55753000D01*
X124182119Y-55753000D01*
X123668663Y-55965680D01*
X123275680Y-56358663D01*
X123190000Y-56565513D01*
X123104320Y-56358663D01*
X122711337Y-55965680D01*
X122197881Y-55753000D01*
X121642119Y-55753000D01*
X121128663Y-55965680D01*
X120735680Y-56358663D01*
X120650000Y-56565513D01*
X120564320Y-56358663D01*
X120171337Y-55965680D01*
X119657881Y-55753000D01*
X119102119Y-55753000D01*
X118588663Y-55965680D01*
X118195680Y-56358663D01*
X117983000Y-56872119D01*
X109701000Y-56872119D01*
X109701000Y-51794506D01*
X126885000Y-51794506D01*
X126885000Y-52345494D01*
X127095853Y-52854540D01*
X127485460Y-53244147D01*
X127994506Y-53455000D01*
X128545494Y-53455000D01*
X129054540Y-53244147D01*
X129257170Y-53041517D01*
X130018088Y-53041517D01*
X130086077Y-53282460D01*
X130605171Y-53467201D01*
X131155448Y-53439230D01*
X131533923Y-53282460D01*
X131601912Y-53041517D01*
X130810000Y-52249605D01*
X130018088Y-53041517D01*
X129257170Y-53041517D01*
X129444147Y-52854540D01*
X129533397Y-52639070D01*
X129597540Y-52793923D01*
X129838483Y-52861912D01*
X130630395Y-52070000D01*
X130989605Y-52070000D01*
X131781517Y-52861912D01*
X132022460Y-52793923D01*
X132207201Y-52274829D01*
X132182786Y-51794506D01*
X137445000Y-51794506D01*
X137445000Y-52345494D01*
X137655853Y-52854540D01*
X138045460Y-53244147D01*
X138554506Y-53455000D01*
X139105494Y-53455000D01*
X139614540Y-53244147D01*
X139817170Y-53041517D01*
X140578088Y-53041517D01*
X140646077Y-53282460D01*
X141165171Y-53467201D01*
X141715448Y-53439230D01*
X142093923Y-53282460D01*
X142161912Y-53041517D01*
X141370000Y-52249605D01*
X140578088Y-53041517D01*
X139817170Y-53041517D01*
X140004147Y-52854540D01*
X140093397Y-52639070D01*
X140157540Y-52793923D01*
X140398483Y-52861912D01*
X141190395Y-52070000D01*
X141549605Y-52070000D01*
X142341517Y-52861912D01*
X142582460Y-52793923D01*
X142767201Y-52274829D01*
X142742786Y-51794506D01*
X159905000Y-51794506D01*
X159905000Y-52345494D01*
X160115853Y-52854540D01*
X160505460Y-53244147D01*
X161014506Y-53455000D01*
X161565494Y-53455000D01*
X162074540Y-53244147D01*
X162277170Y-53041517D01*
X163038088Y-53041517D01*
X163106077Y-53282460D01*
X163625171Y-53467201D01*
X164175448Y-53439230D01*
X164553923Y-53282460D01*
X164621912Y-53041517D01*
X163830000Y-52249605D01*
X163038088Y-53041517D01*
X162277170Y-53041517D01*
X162464147Y-52854540D01*
X162553397Y-52639070D01*
X162617540Y-52793923D01*
X162858483Y-52861912D01*
X163650395Y-52070000D01*
X164009605Y-52070000D01*
X164801517Y-52861912D01*
X165042460Y-52793923D01*
X165227201Y-52274829D01*
X165202786Y-51794506D01*
X170465000Y-51794506D01*
X170465000Y-52345494D01*
X170675853Y-52854540D01*
X171065460Y-53244147D01*
X171574506Y-53455000D01*
X172125494Y-53455000D01*
X172634540Y-53244147D01*
X172837170Y-53041517D01*
X173598088Y-53041517D01*
X173666077Y-53282460D01*
X174185171Y-53467201D01*
X174735448Y-53439230D01*
X175113923Y-53282460D01*
X175181912Y-53041517D01*
X174390000Y-52249605D01*
X173598088Y-53041517D01*
X172837170Y-53041517D01*
X173024147Y-52854540D01*
X173113397Y-52639070D01*
X173177540Y-52793923D01*
X173418483Y-52861912D01*
X174210395Y-52070000D01*
X174569605Y-52070000D01*
X175361517Y-52861912D01*
X175602460Y-52793923D01*
X175787201Y-52274829D01*
X175759230Y-51724552D01*
X175602460Y-51346077D01*
X175361517Y-51278088D01*
X174569605Y-52070000D01*
X174210395Y-52070000D01*
X173418483Y-51278088D01*
X173177540Y-51346077D01*
X173118255Y-51512658D01*
X173024147Y-51285460D01*
X172837170Y-51098483D01*
X173598088Y-51098483D01*
X174390000Y-51890395D01*
X175181912Y-51098483D01*
X175113923Y-50857540D01*
X174594829Y-50672799D01*
X174044552Y-50700770D01*
X173666077Y-50857540D01*
X173598088Y-51098483D01*
X172837170Y-51098483D01*
X172634540Y-50895853D01*
X172125494Y-50685000D01*
X171574506Y-50685000D01*
X171065460Y-50895853D01*
X170675853Y-51285460D01*
X170465000Y-51794506D01*
X165202786Y-51794506D01*
X165199230Y-51724552D01*
X165042460Y-51346077D01*
X164801517Y-51278088D01*
X164009605Y-52070000D01*
X163650395Y-52070000D01*
X162858483Y-51278088D01*
X162617540Y-51346077D01*
X162558255Y-51512658D01*
X162464147Y-51285460D01*
X162277170Y-51098483D01*
X163038088Y-51098483D01*
X163830000Y-51890395D01*
X164621912Y-51098483D01*
X164553923Y-50857540D01*
X164034829Y-50672799D01*
X163484552Y-50700770D01*
X163106077Y-50857540D01*
X163038088Y-51098483D01*
X162277170Y-51098483D01*
X162074540Y-50895853D01*
X161565494Y-50685000D01*
X161014506Y-50685000D01*
X160505460Y-50895853D01*
X160115853Y-51285460D01*
X159905000Y-51794506D01*
X142742786Y-51794506D01*
X142739230Y-51724552D01*
X142582460Y-51346077D01*
X142341517Y-51278088D01*
X141549605Y-52070000D01*
X141190395Y-52070000D01*
X140398483Y-51278088D01*
X140157540Y-51346077D01*
X140098255Y-51512658D01*
X140004147Y-51285460D01*
X139817170Y-51098483D01*
X140578088Y-51098483D01*
X141370000Y-51890395D01*
X142161912Y-51098483D01*
X142093923Y-50857540D01*
X141574829Y-50672799D01*
X141024552Y-50700770D01*
X140646077Y-50857540D01*
X140578088Y-51098483D01*
X139817170Y-51098483D01*
X139614540Y-50895853D01*
X139105494Y-50685000D01*
X138554506Y-50685000D01*
X138045460Y-50895853D01*
X137655853Y-51285460D01*
X137445000Y-51794506D01*
X132182786Y-51794506D01*
X132179230Y-51724552D01*
X132022460Y-51346077D01*
X131781517Y-51278088D01*
X130989605Y-52070000D01*
X130630395Y-52070000D01*
X129838483Y-51278088D01*
X129597540Y-51346077D01*
X129538255Y-51512658D01*
X129444147Y-51285460D01*
X129257170Y-51098483D01*
X130018088Y-51098483D01*
X130810000Y-51890395D01*
X131601912Y-51098483D01*
X131533923Y-50857540D01*
X131014829Y-50672799D01*
X130464552Y-50700770D01*
X130086077Y-50857540D01*
X130018088Y-51098483D01*
X129257170Y-51098483D01*
X129054540Y-50895853D01*
X128545494Y-50685000D01*
X127994506Y-50685000D01*
X127485460Y-50895853D01*
X127095853Y-51285460D01*
X126885000Y-51794506D01*
X109701000Y-51794506D01*
X109701000Y-46256875D01*
X109731514Y-45869146D01*
X112475377Y-45869146D01*
X112483515Y-46646265D01*
X112700337Y-47392568D01*
X113109866Y-48053072D01*
X113681933Y-48579114D01*
X114374389Y-48931938D01*
X115136218Y-49085550D01*
X115911293Y-49028632D01*
X116642509Y-48765378D01*
X116673070Y-48743659D01*
X126625946Y-48743659D01*
X126770467Y-49049444D01*
X127515993Y-49338571D01*
X128315414Y-49320389D01*
X128969533Y-49049444D01*
X129114054Y-48743659D01*
X140525946Y-48743659D01*
X140670467Y-49049444D01*
X141415993Y-49338571D01*
X142215414Y-49320389D01*
X142869533Y-49049444D01*
X143014054Y-48743659D01*
X159645946Y-48743659D01*
X159790467Y-49049444D01*
X160535993Y-49338571D01*
X161335414Y-49320389D01*
X161989533Y-49049444D01*
X162134054Y-48743659D01*
X173545946Y-48743659D01*
X173690467Y-49049444D01*
X174435993Y-49338571D01*
X175235414Y-49320389D01*
X175889533Y-49049444D01*
X176034054Y-48743659D01*
X174790000Y-47499605D01*
X173545946Y-48743659D01*
X162134054Y-48743659D01*
X160890000Y-47499605D01*
X159645946Y-48743659D01*
X143014054Y-48743659D01*
X141770000Y-47499605D01*
X140525946Y-48743659D01*
X129114054Y-48743659D01*
X127870000Y-47499605D01*
X126625946Y-48743659D01*
X116673070Y-48743659D01*
X117275995Y-48315183D01*
X117765079Y-47711215D01*
X118073727Y-46997971D01*
X118078107Y-46965993D01*
X125851429Y-46965993D01*
X125869611Y-47765414D01*
X126140556Y-48419533D01*
X126446341Y-48564054D01*
X127690395Y-47320000D01*
X126446341Y-46075946D01*
X126140556Y-46220467D01*
X125851429Y-46965993D01*
X118078107Y-46965993D01*
X118179200Y-46228000D01*
X118178572Y-46168038D01*
X118135540Y-45896341D01*
X126625946Y-45896341D01*
X127870000Y-47140395D01*
X127884143Y-47126253D01*
X128063748Y-47305858D01*
X128049605Y-47320000D01*
X129293659Y-48564054D01*
X129599444Y-48419533D01*
X129888571Y-47674007D01*
X129872468Y-46965993D01*
X139751429Y-46965993D01*
X139769611Y-47765414D01*
X140040556Y-48419533D01*
X140346341Y-48564054D01*
X141590395Y-47320000D01*
X141949605Y-47320000D01*
X143193659Y-48564054D01*
X143499444Y-48419533D01*
X143788571Y-47674007D01*
X143772468Y-46965993D01*
X158871429Y-46965993D01*
X158889611Y-47765414D01*
X159160556Y-48419533D01*
X159466341Y-48564054D01*
X160710395Y-47320000D01*
X159466341Y-46075946D01*
X159160556Y-46220467D01*
X158871429Y-46965993D01*
X143772468Y-46965993D01*
X143770389Y-46874586D01*
X143499444Y-46220467D01*
X143193659Y-46075946D01*
X141949605Y-47320000D01*
X141590395Y-47320000D01*
X140346341Y-46075946D01*
X140040556Y-46220467D01*
X139751429Y-46965993D01*
X129872468Y-46965993D01*
X129870389Y-46874586D01*
X129799180Y-46702672D01*
X130094506Y-46825000D01*
X130645494Y-46825000D01*
X131154540Y-46614147D01*
X131544147Y-46224540D01*
X131640000Y-45993130D01*
X131735853Y-46224540D01*
X132125460Y-46614147D01*
X132634506Y-46825000D01*
X133185494Y-46825000D01*
X133694540Y-46614147D01*
X134084147Y-46224540D01*
X134180000Y-45993130D01*
X134275853Y-46224540D01*
X134665460Y-46614147D01*
X135174506Y-46825000D01*
X135725494Y-46825000D01*
X136234540Y-46614147D01*
X136624147Y-46224540D01*
X136720000Y-45993130D01*
X136815853Y-46224540D01*
X137205460Y-46614147D01*
X137714506Y-46825000D01*
X138265494Y-46825000D01*
X138774540Y-46614147D01*
X139164147Y-46224540D01*
X139300090Y-45896341D01*
X140525946Y-45896341D01*
X141770000Y-47140395D01*
X143014054Y-45896341D01*
X159645946Y-45896341D01*
X160890000Y-47140395D01*
X160904143Y-47126253D01*
X161083748Y-47305858D01*
X161069605Y-47320000D01*
X162313659Y-48564054D01*
X162619444Y-48419533D01*
X162908571Y-47674007D01*
X162892468Y-46965993D01*
X172771429Y-46965993D01*
X172789611Y-47765414D01*
X173060556Y-48419533D01*
X173366341Y-48564054D01*
X174610395Y-47320000D01*
X174969605Y-47320000D01*
X176213659Y-48564054D01*
X176519444Y-48419533D01*
X176808571Y-47674007D01*
X176790389Y-46874586D01*
X176519444Y-46220467D01*
X176213659Y-46075946D01*
X174969605Y-47320000D01*
X174610395Y-47320000D01*
X173366341Y-46075946D01*
X173060556Y-46220467D01*
X172771429Y-46965993D01*
X162892468Y-46965993D01*
X162890389Y-46874586D01*
X162819180Y-46702672D01*
X163114506Y-46825000D01*
X163665494Y-46825000D01*
X164174540Y-46614147D01*
X164564147Y-46224540D01*
X164660000Y-45993130D01*
X164755853Y-46224540D01*
X165145460Y-46614147D01*
X165654506Y-46825000D01*
X166205494Y-46825000D01*
X166714540Y-46614147D01*
X167104147Y-46224540D01*
X167200000Y-45993130D01*
X167295853Y-46224540D01*
X167685460Y-46614147D01*
X168194506Y-46825000D01*
X168745494Y-46825000D01*
X169254540Y-46614147D01*
X169644147Y-46224540D01*
X169740000Y-45993130D01*
X169835853Y-46224540D01*
X170225460Y-46614147D01*
X170734506Y-46825000D01*
X171285494Y-46825000D01*
X171794540Y-46614147D01*
X172184147Y-46224540D01*
X172320090Y-45896341D01*
X173545946Y-45896341D01*
X174790000Y-47140395D01*
X176034054Y-45896341D01*
X176021202Y-45869146D01*
X184775377Y-45869146D01*
X184783515Y-46646265D01*
X185000337Y-47392568D01*
X185409866Y-48053072D01*
X185981933Y-48579114D01*
X186674389Y-48931938D01*
X187436218Y-49085550D01*
X188211293Y-49028632D01*
X188942509Y-48765378D01*
X189575995Y-48315183D01*
X190065079Y-47711215D01*
X190373727Y-46997971D01*
X190479200Y-46228000D01*
X190478572Y-46168038D01*
X190356997Y-45400444D01*
X190033480Y-44693821D01*
X189531855Y-44100228D01*
X188889079Y-43663398D01*
X188152510Y-43415515D01*
X187376414Y-43374842D01*
X186617969Y-43544374D01*
X185933053Y-43911623D01*
X185372129Y-44449530D01*
X184976521Y-45118465D01*
X184775377Y-45869146D01*
X176021202Y-45869146D01*
X175889533Y-45590556D01*
X175144007Y-45301429D01*
X174344586Y-45319611D01*
X173690467Y-45590556D01*
X173545946Y-45896341D01*
X172320090Y-45896341D01*
X172395000Y-45715494D01*
X172395000Y-45164506D01*
X172184147Y-44655460D01*
X171794540Y-44265853D01*
X171285494Y-44055000D01*
X170734506Y-44055000D01*
X170225460Y-44265853D01*
X169835853Y-44655460D01*
X169740000Y-44886870D01*
X169644147Y-44655460D01*
X169254540Y-44265853D01*
X168745494Y-44055000D01*
X168194506Y-44055000D01*
X167685460Y-44265853D01*
X167295853Y-44655460D01*
X167200000Y-44886870D01*
X167104147Y-44655460D01*
X166714540Y-44265853D01*
X166205494Y-44055000D01*
X165654506Y-44055000D01*
X165145460Y-44265853D01*
X164755853Y-44655460D01*
X164660000Y-44886870D01*
X164564147Y-44655460D01*
X164174540Y-44265853D01*
X163665494Y-44055000D01*
X163114506Y-44055000D01*
X162605460Y-44265853D01*
X162215853Y-44655460D01*
X162005000Y-45164506D01*
X162005000Y-45623282D01*
X161989533Y-45590556D01*
X161244007Y-45301429D01*
X160444586Y-45319611D01*
X159790467Y-45590556D01*
X159645946Y-45896341D01*
X143014054Y-45896341D01*
X142869533Y-45590556D01*
X142124007Y-45301429D01*
X141324586Y-45319611D01*
X140670467Y-45590556D01*
X140525946Y-45896341D01*
X139300090Y-45896341D01*
X139375000Y-45715494D01*
X139375000Y-45164506D01*
X139164147Y-44655460D01*
X138774540Y-44265853D01*
X138265494Y-44055000D01*
X137714506Y-44055000D01*
X137205460Y-44265853D01*
X136815853Y-44655460D01*
X136720000Y-44886870D01*
X136624147Y-44655460D01*
X136234540Y-44265853D01*
X135725494Y-44055000D01*
X135174506Y-44055000D01*
X134665460Y-44265853D01*
X134275853Y-44655460D01*
X134180000Y-44886870D01*
X134084147Y-44655460D01*
X133694540Y-44265853D01*
X133185494Y-44055000D01*
X132634506Y-44055000D01*
X132125460Y-44265853D01*
X131735853Y-44655460D01*
X131640000Y-44886870D01*
X131544147Y-44655460D01*
X131154540Y-44265853D01*
X130645494Y-44055000D01*
X130094506Y-44055000D01*
X129585460Y-44265853D01*
X129195853Y-44655460D01*
X128985000Y-45164506D01*
X128985000Y-45623282D01*
X128969533Y-45590556D01*
X128224007Y-45301429D01*
X127424586Y-45319611D01*
X126770467Y-45590556D01*
X126625946Y-45896341D01*
X118135540Y-45896341D01*
X118056997Y-45400444D01*
X117733480Y-44693821D01*
X117231855Y-44100228D01*
X116589079Y-43663398D01*
X115852510Y-43415515D01*
X115076414Y-43374842D01*
X114317969Y-43544374D01*
X113633053Y-43911623D01*
X113072129Y-44449530D01*
X112676521Y-45118465D01*
X112475377Y-45869146D01*
X109731514Y-45869146D01*
X109772374Y-45349978D01*
X109977980Y-44493569D01*
X110315023Y-43679877D01*
X110775210Y-42928919D01*
X111035203Y-42624506D01*
X130255000Y-42624506D01*
X130255000Y-43175494D01*
X130465853Y-43684540D01*
X130855460Y-44074147D01*
X131364506Y-44285000D01*
X131915494Y-44285000D01*
X132424540Y-44074147D01*
X132814147Y-43684540D01*
X132910000Y-43453130D01*
X133005853Y-43684540D01*
X133395460Y-44074147D01*
X133904506Y-44285000D01*
X134455494Y-44285000D01*
X134964540Y-44074147D01*
X135354147Y-43684540D01*
X135450000Y-43453130D01*
X135545853Y-43684540D01*
X135935460Y-44074147D01*
X136444506Y-44285000D01*
X136995494Y-44285000D01*
X137504540Y-44074147D01*
X137707170Y-43871517D01*
X138468088Y-43871517D01*
X138536077Y-44112460D01*
X139055171Y-44297201D01*
X139605448Y-44269230D01*
X139983923Y-44112460D01*
X140051912Y-43871517D01*
X139260000Y-43079605D01*
X138468088Y-43871517D01*
X137707170Y-43871517D01*
X137894147Y-43684540D01*
X137983397Y-43469070D01*
X138047540Y-43623923D01*
X138288483Y-43691912D01*
X139080395Y-42900000D01*
X139439605Y-42900000D01*
X140231517Y-43691912D01*
X140472460Y-43623923D01*
X140657201Y-43104829D01*
X140632786Y-42624506D01*
X163275000Y-42624506D01*
X163275000Y-43175494D01*
X163485853Y-43684540D01*
X163875460Y-44074147D01*
X164384506Y-44285000D01*
X164935494Y-44285000D01*
X165444540Y-44074147D01*
X165834147Y-43684540D01*
X165930000Y-43453130D01*
X166025853Y-43684540D01*
X166415460Y-44074147D01*
X166924506Y-44285000D01*
X167475494Y-44285000D01*
X167984540Y-44074147D01*
X168374147Y-43684540D01*
X168470000Y-43453130D01*
X168565853Y-43684540D01*
X168955460Y-44074147D01*
X169464506Y-44285000D01*
X170015494Y-44285000D01*
X170524540Y-44074147D01*
X170727170Y-43871517D01*
X171488088Y-43871517D01*
X171556077Y-44112460D01*
X172075171Y-44297201D01*
X172625448Y-44269230D01*
X173003923Y-44112460D01*
X173071912Y-43871517D01*
X172280000Y-43079605D01*
X171488088Y-43871517D01*
X170727170Y-43871517D01*
X170914147Y-43684540D01*
X171003397Y-43469070D01*
X171067540Y-43623923D01*
X171308483Y-43691912D01*
X172100395Y-42900000D01*
X172459605Y-42900000D01*
X173251517Y-43691912D01*
X173492460Y-43623923D01*
X173677201Y-43104829D01*
X173649230Y-42554552D01*
X173492460Y-42176077D01*
X173251517Y-42108088D01*
X172459605Y-42900000D01*
X172100395Y-42900000D01*
X171308483Y-42108088D01*
X171067540Y-42176077D01*
X171008255Y-42342658D01*
X170914147Y-42115460D01*
X170727170Y-41928483D01*
X171488088Y-41928483D01*
X172280000Y-42720395D01*
X173071912Y-41928483D01*
X173003923Y-41687540D01*
X172484829Y-41502799D01*
X171934552Y-41530770D01*
X171556077Y-41687540D01*
X171488088Y-41928483D01*
X170727170Y-41928483D01*
X170524540Y-41725853D01*
X170015494Y-41515000D01*
X169464506Y-41515000D01*
X168955460Y-41725853D01*
X168565853Y-42115460D01*
X168470000Y-42346870D01*
X168374147Y-42115460D01*
X167984540Y-41725853D01*
X167475494Y-41515000D01*
X166924506Y-41515000D01*
X166415460Y-41725853D01*
X166025853Y-42115460D01*
X165930000Y-42346870D01*
X165834147Y-42115460D01*
X165444540Y-41725853D01*
X164935494Y-41515000D01*
X164384506Y-41515000D01*
X163875460Y-41725853D01*
X163485853Y-42115460D01*
X163275000Y-42624506D01*
X140632786Y-42624506D01*
X140629230Y-42554552D01*
X140472460Y-42176077D01*
X140231517Y-42108088D01*
X139439605Y-42900000D01*
X139080395Y-42900000D01*
X138288483Y-42108088D01*
X138047540Y-42176077D01*
X137988255Y-42342658D01*
X137894147Y-42115460D01*
X137707170Y-41928483D01*
X138468088Y-41928483D01*
X139260000Y-42720395D01*
X140051912Y-41928483D01*
X139983923Y-41687540D01*
X139464829Y-41502799D01*
X138914552Y-41530770D01*
X138536077Y-41687540D01*
X138468088Y-41928483D01*
X137707170Y-41928483D01*
X137504540Y-41725853D01*
X136995494Y-41515000D01*
X136444506Y-41515000D01*
X135935460Y-41725853D01*
X135545853Y-42115460D01*
X135450000Y-42346870D01*
X135354147Y-42115460D01*
X134964540Y-41725853D01*
X134455494Y-41515000D01*
X133904506Y-41515000D01*
X133395460Y-41725853D01*
X133005853Y-42115460D01*
X132910000Y-42346870D01*
X132814147Y-42115460D01*
X132424540Y-41725853D01*
X131915494Y-41515000D01*
X131364506Y-41515000D01*
X130855460Y-41725853D01*
X130465853Y-42115460D01*
X130255000Y-42624506D01*
X111035203Y-42624506D01*
X111347206Y-42259199D01*
X112016919Y-41687211D01*
X112767875Y-41227024D01*
X113581571Y-40889979D01*
X114437978Y-40684374D01*
X115344876Y-40613000D01*
X187587125Y-40613000D01*
X188494022Y-40684374D01*
X188494022Y-40684374D01*
G37*
X188494022Y-40684374D02*
X189350431Y-40889980D01*
X190164123Y-41227023D01*
X190915081Y-41687210D01*
X191584801Y-42259206D01*
X192156789Y-42928919D01*
X192616976Y-43679875D01*
X192954021Y-44493571D01*
X193159626Y-45349978D01*
X193231000Y-46256876D01*
X193231001Y-103499112D01*
X193159626Y-104406022D01*
X192954021Y-105262429D01*
X192616976Y-106076125D01*
X192156789Y-106827081D01*
X191584801Y-107496794D01*
X190915081Y-108068790D01*
X190164123Y-108528977D01*
X189350431Y-108866020D01*
X188494022Y-109071626D01*
X187587125Y-109143000D01*
X115344876Y-109143000D01*
X114437978Y-109071626D01*
X113581571Y-108866021D01*
X112767875Y-108528976D01*
X112016919Y-108068789D01*
X111347206Y-107496801D01*
X110775210Y-106827081D01*
X110315023Y-106076123D01*
X109977980Y-105262431D01*
X109772374Y-104406022D01*
X109701000Y-103499125D01*
X109701000Y-103169146D01*
X112475377Y-103169146D01*
X112483515Y-103946265D01*
X112700337Y-104692568D01*
X113109866Y-105353072D01*
X113681933Y-105879114D01*
X114374389Y-106231938D01*
X115136218Y-106385550D01*
X115911293Y-106328632D01*
X116642509Y-106065378D01*
X117275995Y-105615183D01*
X117765079Y-105011215D01*
X118073727Y-104297971D01*
X118179200Y-103528000D01*
X118178572Y-103468038D01*
X118131233Y-103169146D01*
X184775377Y-103169146D01*
X184783515Y-103946265D01*
X185000337Y-104692568D01*
X185409866Y-105353072D01*
X185981933Y-105879114D01*
X186674389Y-106231938D01*
X187436218Y-106385550D01*
X188211293Y-106328632D01*
X188942509Y-106065378D01*
X189575995Y-105615183D01*
X190065079Y-105011215D01*
X190373727Y-104297971D01*
X190479200Y-103528000D01*
X190478572Y-103468038D01*
X190356997Y-102700444D01*
X190033480Y-101993821D01*
X189531855Y-101400228D01*
X188889079Y-100963398D01*
X188152510Y-100715515D01*
X187376414Y-100674842D01*
X186617969Y-100844374D01*
X185933053Y-101211623D01*
X185372129Y-101749530D01*
X184976521Y-102418465D01*
X184775377Y-103169146D01*
X118131233Y-103169146D01*
X118056997Y-102700444D01*
X117733480Y-101993821D01*
X117231855Y-101400228D01*
X116589079Y-100963398D01*
X115852510Y-100715515D01*
X115076414Y-100674842D01*
X114317969Y-100844374D01*
X113633053Y-101211623D01*
X113072129Y-101749530D01*
X112676521Y-102418465D01*
X112475377Y-103169146D01*
X109701000Y-103169146D01*
X109701000Y-97500213D01*
X118579392Y-97500213D01*
X118648857Y-97742397D01*
X119172302Y-97929144D01*
X119727368Y-97901362D01*
X120111143Y-97742397D01*
X120180608Y-97500213D01*
X119380000Y-96699605D01*
X118579392Y-97500213D01*
X109701000Y-97500213D01*
X109701000Y-96312302D01*
X117970856Y-96312302D01*
X117998638Y-96867368D01*
X118157603Y-97251143D01*
X118399787Y-97320608D01*
X119200395Y-96520000D01*
X119559605Y-96520000D01*
X120360213Y-97320608D01*
X120602397Y-97251143D01*
X120652535Y-97110607D01*
X120735680Y-97311337D01*
X121128663Y-97704320D01*
X121642119Y-97917000D01*
X122197881Y-97917000D01*
X122711337Y-97704320D01*
X123104320Y-97311337D01*
X123190000Y-97104487D01*
X123275680Y-97311337D01*
X123668663Y-97704320D01*
X124182119Y-97917000D01*
X124737881Y-97917000D01*
X125251337Y-97704320D01*
X125644320Y-97311337D01*
X125730000Y-97104487D01*
X125815680Y-97311337D01*
X126208663Y-97704320D01*
X126722119Y-97917000D01*
X127277881Y-97917000D01*
X127791337Y-97704320D01*
X128184320Y-97311337D01*
X128270000Y-97104487D01*
X128355680Y-97311337D01*
X128748663Y-97704320D01*
X129262119Y-97917000D01*
X129817881Y-97917000D01*
X130331337Y-97704320D01*
X130724320Y-97311337D01*
X130810000Y-97104487D01*
X130895680Y-97311337D01*
X131288663Y-97704320D01*
X131802119Y-97917000D01*
X132357881Y-97917000D01*
X132871337Y-97704320D01*
X133075444Y-97500213D01*
X133819392Y-97500213D01*
X133888857Y-97742397D01*
X134412302Y-97929144D01*
X134967368Y-97901362D01*
X135351143Y-97742397D01*
X135420608Y-97500213D01*
X134620000Y-96699605D01*
X133819392Y-97500213D01*
X133075444Y-97500213D01*
X133264320Y-97311337D01*
X133343428Y-97120353D01*
X133397603Y-97251143D01*
X133639787Y-97320608D01*
X134440395Y-96520000D01*
X134799605Y-96520000D01*
X135600213Y-97320608D01*
X135842397Y-97251143D01*
X135892535Y-97110607D01*
X135975680Y-97311337D01*
X136368663Y-97704320D01*
X136882119Y-97917000D01*
X137437881Y-97917000D01*
X137951337Y-97704320D01*
X138155444Y-97500213D01*
X138899392Y-97500213D01*
X138968857Y-97742397D01*
X139492302Y-97929144D01*
X140047368Y-97901362D01*
X140431143Y-97742397D01*
X140500608Y-97500213D01*
X139700000Y-96699605D01*
X138899392Y-97500213D01*
X138155444Y-97500213D01*
X138344320Y-97311337D01*
X138423428Y-97120353D01*
X138477603Y-97251143D01*
X138719787Y-97320608D01*
X139520395Y-96520000D01*
X139879605Y-96520000D01*
X140680213Y-97320608D01*
X140922397Y-97251143D01*
X140972535Y-97110607D01*
X141055680Y-97311337D01*
X141448663Y-97704320D01*
X141962119Y-97917000D01*
X142517881Y-97917000D01*
X143031337Y-97704320D01*
X143424320Y-97311337D01*
X143510000Y-97104487D01*
X143595680Y-97311337D01*
X143988663Y-97704320D01*
X144502119Y-97917000D01*
X145057881Y-97917000D01*
X145571337Y-97704320D01*
X145775444Y-97500213D01*
X146519392Y-97500213D01*
X146588857Y-97742397D01*
X147112302Y-97929144D01*
X147667368Y-97901362D01*
X148051143Y-97742397D01*
X148120608Y-97500213D01*
X147320000Y-96699605D01*
X146519392Y-97500213D01*
X145775444Y-97500213D01*
X145964320Y-97311337D01*
X146043428Y-97120353D01*
X146097603Y-97251143D01*
X146339787Y-97320608D01*
X147140395Y-96520000D01*
X147499605Y-96520000D01*
X148300213Y-97320608D01*
X148542397Y-97251143D01*
X148592535Y-97110607D01*
X148675680Y-97311337D01*
X149068663Y-97704320D01*
X149582119Y-97917000D01*
X150137881Y-97917000D01*
X150651337Y-97704320D01*
X151044320Y-97311337D01*
X151130000Y-97104487D01*
X151215680Y-97311337D01*
X151608663Y-97704320D01*
X152122119Y-97917000D01*
X152677881Y-97917000D01*
X153191337Y-97704320D01*
X153584320Y-97311337D01*
X153670000Y-97104487D01*
X153755680Y-97311337D01*
X154148663Y-97704320D01*
X154662119Y-97917000D01*
X155217881Y-97917000D01*
X155731337Y-97704320D01*
X156124320Y-97311337D01*
X156210000Y-97104487D01*
X156295680Y-97311337D01*
X156688663Y-97704320D01*
X157202119Y-97917000D01*
X157757881Y-97917000D01*
X158271337Y-97704320D01*
X158664320Y-97311337D01*
X158750000Y-97104487D01*
X158835680Y-97311337D01*
X159228663Y-97704320D01*
X159742119Y-97917000D01*
X160297881Y-97917000D01*
X160811337Y-97704320D01*
X161015444Y-97500213D01*
X161759392Y-97500213D01*
X161828857Y-97742397D01*
X162352302Y-97929144D01*
X162907368Y-97901362D01*
X163291143Y-97742397D01*
X163360608Y-97500213D01*
X162560000Y-96699605D01*
X161759392Y-97500213D01*
X161015444Y-97500213D01*
X161204320Y-97311337D01*
X161283428Y-97120353D01*
X161337603Y-97251143D01*
X161579787Y-97320608D01*
X162380395Y-96520000D01*
X162739605Y-96520000D01*
X163540213Y-97320608D01*
X163782397Y-97251143D01*
X163832535Y-97110607D01*
X163915680Y-97311337D01*
X164308663Y-97704320D01*
X164822119Y-97917000D01*
X165377881Y-97917000D01*
X165891337Y-97704320D01*
X166284320Y-97311337D01*
X166370000Y-97104487D01*
X166455680Y-97311337D01*
X166848663Y-97704320D01*
X167362119Y-97917000D01*
X167917881Y-97917000D01*
X168431337Y-97704320D01*
X168824320Y-97311337D01*
X168910000Y-97104487D01*
X168995680Y-97311337D01*
X169388663Y-97704320D01*
X169902119Y-97917000D01*
X170457881Y-97917000D01*
X170971337Y-97704320D01*
X171364320Y-97311337D01*
X171450000Y-97104487D01*
X171535680Y-97311337D01*
X171928663Y-97704320D01*
X172442119Y-97917000D01*
X172997881Y-97917000D01*
X173511337Y-97704320D01*
X173904320Y-97311337D01*
X173990000Y-97104487D01*
X174075680Y-97311337D01*
X174468663Y-97704320D01*
X174982119Y-97917000D01*
X175537881Y-97917000D01*
X176051337Y-97704320D01*
X176444320Y-97311337D01*
X176530000Y-97104487D01*
X176615680Y-97311337D01*
X177008663Y-97704320D01*
X177522119Y-97917000D01*
X178077881Y-97917000D01*
X178591337Y-97704320D01*
X178984320Y-97311337D01*
X179070000Y-97104487D01*
X179155680Y-97311337D01*
X179548663Y-97704320D01*
X180062119Y-97917000D01*
X180617881Y-97917000D01*
X181131337Y-97704320D01*
X181524320Y-97311337D01*
X181610000Y-97104487D01*
X181695680Y-97311337D01*
X182088663Y-97704320D01*
X182602119Y-97917000D01*
X183157881Y-97917000D01*
X183671337Y-97704320D01*
X184064320Y-97311337D01*
X184277000Y-96797881D01*
X184277000Y-96242119D01*
X184064320Y-95728663D01*
X183671337Y-95335680D01*
X183157881Y-95123000D01*
X182602119Y-95123000D01*
X182088663Y-95335680D01*
X181695680Y-95728663D01*
X181610000Y-95935513D01*
X181524320Y-95728663D01*
X181131337Y-95335680D01*
X180617881Y-95123000D01*
X180062119Y-95123000D01*
X179548663Y-95335680D01*
X179155680Y-95728663D01*
X179070000Y-95935513D01*
X178984320Y-95728663D01*
X178591337Y-95335680D01*
X178077881Y-95123000D01*
X177522119Y-95123000D01*
X177008663Y-95335680D01*
X176615680Y-95728663D01*
X176530000Y-95935513D01*
X176444320Y-95728663D01*
X176051337Y-95335680D01*
X175537881Y-95123000D01*
X174982119Y-95123000D01*
X174468663Y-95335680D01*
X174075680Y-95728663D01*
X173990000Y-95935513D01*
X173904320Y-95728663D01*
X173511337Y-95335680D01*
X172997881Y-95123000D01*
X172442119Y-95123000D01*
X171928663Y-95335680D01*
X171535680Y-95728663D01*
X171450000Y-95935513D01*
X171364320Y-95728663D01*
X170971337Y-95335680D01*
X170457881Y-95123000D01*
X169902119Y-95123000D01*
X169388663Y-95335680D01*
X168995680Y-95728663D01*
X168910000Y-95935513D01*
X168824320Y-95728663D01*
X168431337Y-95335680D01*
X167917881Y-95123000D01*
X167362119Y-95123000D01*
X166848663Y-95335680D01*
X166455680Y-95728663D01*
X166370000Y-95935513D01*
X166284320Y-95728663D01*
X165891337Y-95335680D01*
X165377881Y-95123000D01*
X164822119Y-95123000D01*
X164308663Y-95335680D01*
X163915680Y-95728663D01*
X163836572Y-95919647D01*
X163782397Y-95788857D01*
X163540213Y-95719392D01*
X162739605Y-96520000D01*
X162380395Y-96520000D01*
X161579787Y-95719392D01*
X161337603Y-95788857D01*
X161287465Y-95929393D01*
X161204320Y-95728663D01*
X161015444Y-95539787D01*
X161759392Y-95539787D01*
X162560000Y-96340395D01*
X163360608Y-95539787D01*
X163291143Y-95297603D01*
X162767698Y-95110856D01*
X162212632Y-95138638D01*
X161828857Y-95297603D01*
X161759392Y-95539787D01*
X161015444Y-95539787D01*
X160811337Y-95335680D01*
X160297881Y-95123000D01*
X159742119Y-95123000D01*
X159228663Y-95335680D01*
X158835680Y-95728663D01*
X158750000Y-95935513D01*
X158664320Y-95728663D01*
X158271337Y-95335680D01*
X157757881Y-95123000D01*
X157202119Y-95123000D01*
X156688663Y-95335680D01*
X156295680Y-95728663D01*
X156210000Y-95935513D01*
X156124320Y-95728663D01*
X155731337Y-95335680D01*
X155217881Y-95123000D01*
X154662119Y-95123000D01*
X154148663Y-95335680D01*
X153755680Y-95728663D01*
X153670000Y-95935513D01*
X153584320Y-95728663D01*
X153191337Y-95335680D01*
X152677881Y-95123000D01*
X152122119Y-95123000D01*
X151608663Y-95335680D01*
X151215680Y-95728663D01*
X151130000Y-95935513D01*
X151044320Y-95728663D01*
X150651337Y-95335680D01*
X150137881Y-95123000D01*
X149582119Y-95123000D01*
X149068663Y-95335680D01*
X148675680Y-95728663D01*
X148596572Y-95919647D01*
X148542397Y-95788857D01*
X148300213Y-95719392D01*
X147499605Y-96520000D01*
X147140395Y-96520000D01*
X146339787Y-95719392D01*
X146097603Y-95788857D01*
X146047465Y-95929393D01*
X145964320Y-95728663D01*
X145775444Y-95539787D01*
X146519392Y-95539787D01*
X147320000Y-96340395D01*
X148120608Y-95539787D01*
X148051143Y-95297603D01*
X147527698Y-95110856D01*
X146972632Y-95138638D01*
X146588857Y-95297603D01*
X146519392Y-95539787D01*
X145775444Y-95539787D01*
X145571337Y-95335680D01*
X145057881Y-95123000D01*
X144502119Y-95123000D01*
X143988663Y-95335680D01*
X143595680Y-95728663D01*
X143510000Y-95935513D01*
X143424320Y-95728663D01*
X143031337Y-95335680D01*
X142517881Y-95123000D01*
X141962119Y-95123000D01*
X141448663Y-95335680D01*
X141055680Y-95728663D01*
X140976572Y-95919647D01*
X140922397Y-95788857D01*
X140680213Y-95719392D01*
X139879605Y-96520000D01*
X139520395Y-96520000D01*
X138719787Y-95719392D01*
X138477603Y-95788857D01*
X138427465Y-95929393D01*
X138344320Y-95728663D01*
X138155444Y-95539787D01*
X138899392Y-95539787D01*
X139700000Y-96340395D01*
X140500608Y-95539787D01*
X140431143Y-95297603D01*
X139907698Y-95110856D01*
X139352632Y-95138638D01*
X138968857Y-95297603D01*
X138899392Y-95539787D01*
X138155444Y-95539787D01*
X137951337Y-95335680D01*
X137437881Y-95123000D01*
X136882119Y-95123000D01*
X136368663Y-95335680D01*
X135975680Y-95728663D01*
X135896572Y-95919647D01*
X135842397Y-95788857D01*
X135600213Y-95719392D01*
X134799605Y-96520000D01*
X134440395Y-96520000D01*
X133639787Y-95719392D01*
X133397603Y-95788857D01*
X133347465Y-95929393D01*
X133264320Y-95728663D01*
X133075444Y-95539787D01*
X133819392Y-95539787D01*
X134620000Y-96340395D01*
X135420608Y-95539787D01*
X135351143Y-95297603D01*
X134827698Y-95110856D01*
X134272632Y-95138638D01*
X133888857Y-95297603D01*
X133819392Y-95539787D01*
X133075444Y-95539787D01*
X132871337Y-95335680D01*
X132357881Y-95123000D01*
X131802119Y-95123000D01*
X131288663Y-95335680D01*
X130895680Y-95728663D01*
X130810000Y-95935513D01*
X130724320Y-95728663D01*
X130331337Y-95335680D01*
X129817881Y-95123000D01*
X129262119Y-95123000D01*
X128748663Y-95335680D01*
X128355680Y-95728663D01*
X128270000Y-95935513D01*
X128184320Y-95728663D01*
X127791337Y-95335680D01*
X127277881Y-95123000D01*
X126722119Y-95123000D01*
X126208663Y-95335680D01*
X125815680Y-95728663D01*
X125730000Y-95935513D01*
X125644320Y-95728663D01*
X125251337Y-95335680D01*
X124737881Y-95123000D01*
X124182119Y-95123000D01*
X123668663Y-95335680D01*
X123275680Y-95728663D01*
X123190000Y-95935513D01*
X123104320Y-95728663D01*
X122711337Y-95335680D01*
X122197881Y-95123000D01*
X121642119Y-95123000D01*
X121128663Y-95335680D01*
X120735680Y-95728663D01*
X120656572Y-95919647D01*
X120602397Y-95788857D01*
X120360213Y-95719392D01*
X119559605Y-96520000D01*
X119200395Y-96520000D01*
X118399787Y-95719392D01*
X118157603Y-95788857D01*
X117970856Y-96312302D01*
X109701000Y-96312302D01*
X109701000Y-95539787D01*
X118579392Y-95539787D01*
X119380000Y-96340395D01*
X120180608Y-95539787D01*
X120111143Y-95297603D01*
X119587698Y-95110856D01*
X119032632Y-95138638D01*
X118648857Y-95297603D01*
X118579392Y-95539787D01*
X109701000Y-95539787D01*
X109701000Y-80134778D01*
X124475000Y-80134778D01*
X124475000Y-80785222D01*
X124723914Y-81386153D01*
X125183847Y-81846086D01*
X125784778Y-82095000D01*
X126435222Y-82095000D01*
X127036153Y-81846086D01*
X127496086Y-81386153D01*
X127716899Y-80853062D01*
X154150200Y-80853062D01*
X154150200Y-81226938D01*
X154293276Y-81572354D01*
X154557646Y-81836724D01*
X154903062Y-81979800D01*
X155276938Y-81979800D01*
X155463461Y-81902539D01*
X155547646Y-81986724D01*
X155893062Y-82129800D01*
X156266938Y-82129800D01*
X156612354Y-81986724D01*
X156876724Y-81722354D01*
X157019800Y-81376938D01*
X157019800Y-81003062D01*
X156876724Y-80657646D01*
X156612354Y-80393276D01*
X156266938Y-80250200D01*
X155893062Y-80250200D01*
X155706539Y-80327461D01*
X155622354Y-80243276D01*
X155360417Y-80134778D01*
X174875000Y-80134778D01*
X174875000Y-80785222D01*
X175123914Y-81386153D01*
X175583847Y-81846086D01*
X176184778Y-82095000D01*
X176835222Y-82095000D01*
X177436153Y-81846086D01*
X177896086Y-81386153D01*
X178145000Y-80785222D01*
X178145000Y-80134778D01*
X177896086Y-79533847D01*
X177436153Y-79073914D01*
X176835222Y-78825000D01*
X176184778Y-78825000D01*
X175583847Y-79073914D01*
X175123914Y-79533847D01*
X174875000Y-80134778D01*
X155360417Y-80134778D01*
X155276938Y-80100200D01*
X154903062Y-80100200D01*
X154557646Y-80243276D01*
X154293276Y-80507646D01*
X154150200Y-80853062D01*
X127716899Y-80853062D01*
X127745000Y-80785222D01*
X127745000Y-80134778D01*
X127496086Y-79533847D01*
X127036153Y-79073914D01*
X126435222Y-78825000D01*
X125784778Y-78825000D01*
X125183847Y-79073914D01*
X124723914Y-79533847D01*
X124475000Y-80134778D01*
X109701000Y-80134778D01*
X109701000Y-76735322D01*
X135175000Y-76735322D01*
X135175000Y-77584678D01*
X135500034Y-78369380D01*
X136100620Y-78969966D01*
X136885322Y-79295000D01*
X137734678Y-79295000D01*
X138519380Y-78969966D01*
X139119966Y-78369380D01*
X139310000Y-77910597D01*
X139500034Y-78369380D01*
X140100620Y-78969966D01*
X140885322Y-79295000D01*
X141734678Y-79295000D01*
X142519380Y-78969966D01*
X142815376Y-78673970D01*
X143975635Y-78673970D01*
X144135418Y-78992739D01*
X144926187Y-79302723D01*
X145775387Y-79286497D01*
X146484582Y-78992739D01*
X146644365Y-78673970D01*
X145310000Y-77339605D01*
X143975635Y-78673970D01*
X142815376Y-78673970D01*
X143119966Y-78369380D01*
X143305820Y-77920688D01*
X143477261Y-78334582D01*
X143796030Y-78494365D01*
X145130395Y-77160000D01*
X145489605Y-77160000D01*
X146823970Y-78494365D01*
X147142739Y-78334582D01*
X147309457Y-77909285D01*
X147500034Y-78369380D01*
X148100620Y-78969966D01*
X148885322Y-79295000D01*
X149734678Y-79295000D01*
X150519380Y-78969966D01*
X151119966Y-78369380D01*
X151310000Y-77910597D01*
X151500034Y-78369380D01*
X152100620Y-78969966D01*
X152885322Y-79295000D01*
X153734678Y-79295000D01*
X154519380Y-78969966D01*
X155119966Y-78369380D01*
X155310000Y-77910597D01*
X155500034Y-78369380D01*
X156100620Y-78969966D01*
X156885322Y-79295000D01*
X157734678Y-79295000D01*
X158519380Y-78969966D01*
X159119966Y-78369380D01*
X159310000Y-77910597D01*
X159500034Y-78369380D01*
X160100620Y-78969966D01*
X160885322Y-79295000D01*
X161734678Y-79295000D01*
X162519380Y-78969966D01*
X163119966Y-78369380D01*
X163310000Y-77910597D01*
X163500034Y-78369380D01*
X164100620Y-78969966D01*
X164885322Y-79295000D01*
X165734678Y-79295000D01*
X166519380Y-78969966D01*
X167119966Y-78369380D01*
X167445000Y-77584678D01*
X167445000Y-76735322D01*
X167119966Y-75950620D01*
X166519380Y-75350034D01*
X165734678Y-75025000D01*
X164885322Y-75025000D01*
X164100620Y-75350034D01*
X163500034Y-75950620D01*
X163310000Y-76409403D01*
X163119966Y-75950620D01*
X162519380Y-75350034D01*
X161734678Y-75025000D01*
X160885322Y-75025000D01*
X160100620Y-75350034D01*
X159500034Y-75950620D01*
X159310000Y-76409403D01*
X159119966Y-75950620D01*
X158519380Y-75350034D01*
X157734678Y-75025000D01*
X156885322Y-75025000D01*
X156100620Y-75350034D01*
X155500034Y-75950620D01*
X155310000Y-76409403D01*
X155119966Y-75950620D01*
X154519380Y-75350034D01*
X153734678Y-75025000D01*
X152885322Y-75025000D01*
X152100620Y-75350034D01*
X151500034Y-75950620D01*
X151310000Y-76409403D01*
X151119966Y-75950620D01*
X150519380Y-75350034D01*
X149734678Y-75025000D01*
X148885322Y-75025000D01*
X148100620Y-75350034D01*
X147500034Y-75950620D01*
X147314180Y-76399312D01*
X147142739Y-75985418D01*
X146823970Y-75825635D01*
X145489605Y-77160000D01*
X145130395Y-77160000D01*
X143796030Y-75825635D01*
X143477261Y-75985418D01*
X143310543Y-76410715D01*
X143119966Y-75950620D01*
X142815376Y-75646030D01*
X143975635Y-75646030D01*
X145310000Y-76980395D01*
X146644365Y-75646030D01*
X146484582Y-75327261D01*
X145693813Y-75017277D01*
X144844613Y-75033503D01*
X144135418Y-75327261D01*
X143975635Y-75646030D01*
X142815376Y-75646030D01*
X142519380Y-75350034D01*
X141734678Y-75025000D01*
X140885322Y-75025000D01*
X140100620Y-75350034D01*
X139500034Y-75950620D01*
X139310000Y-76409403D01*
X139119966Y-75950620D01*
X138519380Y-75350034D01*
X137734678Y-75025000D01*
X136885322Y-75025000D01*
X136100620Y-75350034D01*
X135500034Y-75950620D01*
X135175000Y-76735322D01*
X109701000Y-76735322D01*
X109701000Y-73250240D01*
X128750000Y-73250240D01*
X128750000Y-74069760D01*
X129063616Y-74826896D01*
X129643104Y-75406384D01*
X130400240Y-75720000D01*
X131219760Y-75720000D01*
X131976896Y-75406384D01*
X132556384Y-74826896D01*
X132619728Y-74673970D01*
X137975635Y-74673970D01*
X138135418Y-74992739D01*
X138926187Y-75302723D01*
X139775387Y-75286497D01*
X140484582Y-74992739D01*
X140644365Y-74673970D01*
X139310000Y-73339605D01*
X137975635Y-74673970D01*
X132619728Y-74673970D01*
X132870000Y-74069760D01*
X132870000Y-73250240D01*
X132673641Y-72776187D01*
X137167277Y-72776187D01*
X137183503Y-73625387D01*
X137477261Y-74334582D01*
X137796030Y-74494365D01*
X139130395Y-73160000D01*
X139489605Y-73160000D01*
X140823970Y-74494365D01*
X141142739Y-74334582D01*
X141309457Y-73909285D01*
X141500034Y-74369380D01*
X142100620Y-74969966D01*
X142885322Y-75295000D01*
X143734678Y-75295000D01*
X144519380Y-74969966D01*
X145119966Y-74369380D01*
X145310000Y-73910597D01*
X145500034Y-74369380D01*
X146100620Y-74969966D01*
X146885322Y-75295000D01*
X147734678Y-75295000D01*
X148519380Y-74969966D01*
X149119966Y-74369380D01*
X149310000Y-73910597D01*
X149500034Y-74369380D01*
X150100620Y-74969966D01*
X150885322Y-75295000D01*
X151734678Y-75295000D01*
X152519380Y-74969966D01*
X153119966Y-74369380D01*
X153310000Y-73910597D01*
X153500034Y-74369380D01*
X154100620Y-74969966D01*
X154885322Y-75295000D01*
X155734678Y-75295000D01*
X156519380Y-74969966D01*
X157119966Y-74369380D01*
X157310000Y-73910597D01*
X157500034Y-74369380D01*
X158100620Y-74969966D01*
X158885322Y-75295000D01*
X159734678Y-75295000D01*
X160519380Y-74969966D01*
X161119966Y-74369380D01*
X161310000Y-73910597D01*
X161500034Y-74369380D01*
X162100620Y-74969966D01*
X162885322Y-75295000D01*
X163734678Y-75295000D01*
X164519380Y-74969966D01*
X165119966Y-74369380D01*
X165445000Y-73584678D01*
X165445000Y-73250240D01*
X169750000Y-73250240D01*
X169750000Y-74069760D01*
X170063616Y-74826896D01*
X170643104Y-75406384D01*
X171400240Y-75720000D01*
X172219760Y-75720000D01*
X172976896Y-75406384D01*
X173556384Y-74826896D01*
X173870000Y-74069760D01*
X173870000Y-73250240D01*
X173556384Y-72493104D01*
X172976896Y-71913616D01*
X172219760Y-71600000D01*
X171400240Y-71600000D01*
X170643104Y-71913616D01*
X170063616Y-72493104D01*
X169750000Y-73250240D01*
X165445000Y-73250240D01*
X165445000Y-72735322D01*
X165119966Y-71950620D01*
X164519380Y-71350034D01*
X163734678Y-71025000D01*
X162885322Y-71025000D01*
X162100620Y-71350034D01*
X161500034Y-71950620D01*
X161310000Y-72409403D01*
X161119966Y-71950620D01*
X160519380Y-71350034D01*
X159734678Y-71025000D01*
X158885322Y-71025000D01*
X158100620Y-71350034D01*
X157500034Y-71950620D01*
X157310000Y-72409403D01*
X157119966Y-71950620D01*
X156519380Y-71350034D01*
X155734678Y-71025000D01*
X154885322Y-71025000D01*
X154100620Y-71350034D01*
X153500034Y-71950620D01*
X153310000Y-72409403D01*
X153119966Y-71950620D01*
X152519380Y-71350034D01*
X151734678Y-71025000D01*
X150885322Y-71025000D01*
X150100620Y-71350034D01*
X149500034Y-71950620D01*
X149310000Y-72409403D01*
X149119966Y-71950620D01*
X148519380Y-71350034D01*
X147734678Y-71025000D01*
X146885322Y-71025000D01*
X146100620Y-71350034D01*
X145500034Y-71950620D01*
X145310000Y-72409403D01*
X145119966Y-71950620D01*
X144519380Y-71350034D01*
X143734678Y-71025000D01*
X142885322Y-71025000D01*
X142100620Y-71350034D01*
X141500034Y-71950620D01*
X141314180Y-72399312D01*
X141142739Y-71985418D01*
X140823970Y-71825635D01*
X139489605Y-73160000D01*
X139130395Y-73160000D01*
X137796030Y-71825635D01*
X137477261Y-71985418D01*
X137167277Y-72776187D01*
X132673641Y-72776187D01*
X132556384Y-72493104D01*
X131976896Y-71913616D01*
X131330887Y-71646030D01*
X137975635Y-71646030D01*
X139310000Y-72980395D01*
X140644365Y-71646030D01*
X140484582Y-71327261D01*
X139693813Y-71017277D01*
X138844613Y-71033503D01*
X138135418Y-71327261D01*
X137975635Y-71646030D01*
X131330887Y-71646030D01*
X131219760Y-71600000D01*
X130400240Y-71600000D01*
X129643104Y-71913616D01*
X129063616Y-72493104D01*
X128750000Y-73250240D01*
X109701000Y-73250240D01*
X109701000Y-70673970D01*
X135975635Y-70673970D01*
X136135418Y-70992739D01*
X136926187Y-71302723D01*
X137775387Y-71286497D01*
X138484582Y-70992739D01*
X138644365Y-70673970D01*
X137310000Y-69339605D01*
X135975635Y-70673970D01*
X109701000Y-70673970D01*
X109701000Y-68776187D01*
X135167277Y-68776187D01*
X135183503Y-69625387D01*
X135477261Y-70334582D01*
X135796030Y-70494365D01*
X137130395Y-69160000D01*
X137489605Y-69160000D01*
X138823970Y-70494365D01*
X139142739Y-70334582D01*
X139309457Y-69909285D01*
X139500034Y-70369380D01*
X140100620Y-70969966D01*
X140885322Y-71295000D01*
X141734678Y-71295000D01*
X142519380Y-70969966D01*
X143119966Y-70369380D01*
X143310000Y-69910597D01*
X143500034Y-70369380D01*
X144100620Y-70969966D01*
X144885322Y-71295000D01*
X145734678Y-71295000D01*
X146519380Y-70969966D01*
X147119966Y-70369380D01*
X147310000Y-69910597D01*
X147500034Y-70369380D01*
X148100620Y-70969966D01*
X148885322Y-71295000D01*
X149734678Y-71295000D01*
X150519380Y-70969966D01*
X151119966Y-70369380D01*
X151310000Y-69910597D01*
X151500034Y-70369380D01*
X152100620Y-70969966D01*
X152885322Y-71295000D01*
X153734678Y-71295000D01*
X154519380Y-70969966D01*
X155119966Y-70369380D01*
X155310000Y-69910597D01*
X155500034Y-70369380D01*
X156100620Y-70969966D01*
X156885322Y-71295000D01*
X157734678Y-71295000D01*
X158519380Y-70969966D01*
X158815376Y-70673970D01*
X159975635Y-70673970D01*
X160135418Y-70992739D01*
X160926187Y-71302723D01*
X161775387Y-71286497D01*
X162484582Y-70992739D01*
X162644365Y-70673970D01*
X161310000Y-69339605D01*
X159975635Y-70673970D01*
X158815376Y-70673970D01*
X159119966Y-70369380D01*
X159305820Y-69920688D01*
X159477261Y-70334582D01*
X159796030Y-70494365D01*
X161130395Y-69160000D01*
X161489605Y-69160000D01*
X162823970Y-70494365D01*
X163142739Y-70334582D01*
X163309457Y-69909285D01*
X163500034Y-70369380D01*
X164100620Y-70969966D01*
X164885322Y-71295000D01*
X165734678Y-71295000D01*
X166519380Y-70969966D01*
X167119966Y-70369380D01*
X167445000Y-69584678D01*
X167445000Y-68735322D01*
X167119966Y-67950620D01*
X166519380Y-67350034D01*
X165734678Y-67025000D01*
X164885322Y-67025000D01*
X164100620Y-67350034D01*
X163500034Y-67950620D01*
X163314180Y-68399312D01*
X163142739Y-67985418D01*
X162823970Y-67825635D01*
X161489605Y-69160000D01*
X161130395Y-69160000D01*
X159796030Y-67825635D01*
X159477261Y-67985418D01*
X159310543Y-68410715D01*
X159119966Y-67950620D01*
X158815376Y-67646030D01*
X159975635Y-67646030D01*
X161310000Y-68980395D01*
X162644365Y-67646030D01*
X162484582Y-67327261D01*
X161693813Y-67017277D01*
X160844613Y-67033503D01*
X160135418Y-67327261D01*
X159975635Y-67646030D01*
X158815376Y-67646030D01*
X158519380Y-67350034D01*
X157734678Y-67025000D01*
X156885322Y-67025000D01*
X156100620Y-67350034D01*
X155500034Y-67950620D01*
X155310000Y-68409403D01*
X155119966Y-67950620D01*
X154519380Y-67350034D01*
X153734678Y-67025000D01*
X152885322Y-67025000D01*
X152100620Y-67350034D01*
X151500034Y-67950620D01*
X151310000Y-68409403D01*
X151119966Y-67950620D01*
X150519380Y-67350034D01*
X149734678Y-67025000D01*
X148885322Y-67025000D01*
X148100620Y-67350034D01*
X147500034Y-67950620D01*
X147310000Y-68409403D01*
X147119966Y-67950620D01*
X146519380Y-67350034D01*
X145734678Y-67025000D01*
X144885322Y-67025000D01*
X144100620Y-67350034D01*
X143500034Y-67950620D01*
X143310000Y-68409403D01*
X143119966Y-67950620D01*
X142519380Y-67350034D01*
X141734678Y-67025000D01*
X140885322Y-67025000D01*
X140100620Y-67350034D01*
X139500034Y-67950620D01*
X139314180Y-68399312D01*
X139142739Y-67985418D01*
X138823970Y-67825635D01*
X137489605Y-69160000D01*
X137130395Y-69160000D01*
X135796030Y-67825635D01*
X135477261Y-67985418D01*
X135167277Y-68776187D01*
X109701000Y-68776187D01*
X109701000Y-67646030D01*
X135975635Y-67646030D01*
X137310000Y-68980395D01*
X138644365Y-67646030D01*
X138484582Y-67327261D01*
X137693813Y-67017277D01*
X136844613Y-67033503D01*
X136135418Y-67327261D01*
X135975635Y-67646030D01*
X109701000Y-67646030D01*
X109701000Y-62034778D01*
X125975000Y-62034778D01*
X125975000Y-62685222D01*
X126223914Y-63286153D01*
X126683847Y-63746086D01*
X127284778Y-63995000D01*
X127935222Y-63995000D01*
X128536153Y-63746086D01*
X128996086Y-63286153D01*
X129245000Y-62685222D01*
X129245000Y-62034778D01*
X173375000Y-62034778D01*
X173375000Y-62685222D01*
X173623914Y-63286153D01*
X174083847Y-63746086D01*
X174684778Y-63995000D01*
X175335222Y-63995000D01*
X175936153Y-63746086D01*
X176396086Y-63286153D01*
X176645000Y-62685222D01*
X176645000Y-62034778D01*
X176396086Y-61433847D01*
X175936153Y-60973914D01*
X175335222Y-60725000D01*
X174684778Y-60725000D01*
X174083847Y-60973914D01*
X173623914Y-61433847D01*
X173375000Y-62034778D01*
X129245000Y-62034778D01*
X128996086Y-61433847D01*
X128536153Y-60973914D01*
X127935222Y-60725000D01*
X127284778Y-60725000D01*
X126683847Y-60973914D01*
X126223914Y-61433847D01*
X125975000Y-62034778D01*
X109701000Y-62034778D01*
X109701000Y-56872119D01*
X117983000Y-56872119D01*
X117983000Y-57427881D01*
X118195680Y-57941337D01*
X118588663Y-58334320D01*
X119102119Y-58547000D01*
X119657881Y-58547000D01*
X120171337Y-58334320D01*
X120564320Y-57941337D01*
X120650000Y-57734487D01*
X120735680Y-57941337D01*
X121128663Y-58334320D01*
X121642119Y-58547000D01*
X122197881Y-58547000D01*
X122711337Y-58334320D01*
X123104320Y-57941337D01*
X123190000Y-57734487D01*
X123275680Y-57941337D01*
X123668663Y-58334320D01*
X124182119Y-58547000D01*
X124737881Y-58547000D01*
X125251337Y-58334320D01*
X125644320Y-57941337D01*
X125730000Y-57734487D01*
X125815680Y-57941337D01*
X126208663Y-58334320D01*
X126722119Y-58547000D01*
X127277881Y-58547000D01*
X127791337Y-58334320D01*
X128184320Y-57941337D01*
X128270000Y-57734487D01*
X128355680Y-57941337D01*
X128748663Y-58334320D01*
X129262119Y-58547000D01*
X129817881Y-58547000D01*
X130331337Y-58334320D01*
X130724320Y-57941337D01*
X130810000Y-57734487D01*
X130895680Y-57941337D01*
X131288663Y-58334320D01*
X131802119Y-58547000D01*
X132357881Y-58547000D01*
X132871337Y-58334320D01*
X133264320Y-57941337D01*
X133350000Y-57734487D01*
X133435680Y-57941337D01*
X133828663Y-58334320D01*
X134342119Y-58547000D01*
X134897881Y-58547000D01*
X135411337Y-58334320D01*
X135804320Y-57941337D01*
X135890000Y-57734487D01*
X135975680Y-57941337D01*
X136368663Y-58334320D01*
X136882119Y-58547000D01*
X137437881Y-58547000D01*
X137951337Y-58334320D01*
X138344320Y-57941337D01*
X138430000Y-57734487D01*
X138515680Y-57941337D01*
X138908663Y-58334320D01*
X139422119Y-58547000D01*
X139977881Y-58547000D01*
X140491337Y-58334320D01*
X140884320Y-57941337D01*
X140970000Y-57734487D01*
X141055680Y-57941337D01*
X141448663Y-58334320D01*
X141962119Y-58547000D01*
X142517881Y-58547000D01*
X143031337Y-58334320D01*
X143424320Y-57941337D01*
X143510000Y-57734487D01*
X143595680Y-57941337D01*
X143988663Y-58334320D01*
X144502119Y-58547000D01*
X145057881Y-58547000D01*
X145571337Y-58334320D01*
X145964320Y-57941337D01*
X146050000Y-57734487D01*
X146135680Y-57941337D01*
X146528663Y-58334320D01*
X147042119Y-58547000D01*
X147597881Y-58547000D01*
X148111337Y-58334320D01*
X148504320Y-57941337D01*
X148590000Y-57734487D01*
X148675680Y-57941337D01*
X149068663Y-58334320D01*
X149582119Y-58547000D01*
X150137881Y-58547000D01*
X150651337Y-58334320D01*
X151044320Y-57941337D01*
X151130000Y-57734487D01*
X151215680Y-57941337D01*
X151608663Y-58334320D01*
X152122119Y-58547000D01*
X152677881Y-58547000D01*
X153191337Y-58334320D01*
X153584320Y-57941337D01*
X153670000Y-57734487D01*
X153755680Y-57941337D01*
X154148663Y-58334320D01*
X154662119Y-58547000D01*
X155217881Y-58547000D01*
X155731337Y-58334320D01*
X156124320Y-57941337D01*
X156210000Y-57734487D01*
X156295680Y-57941337D01*
X156688663Y-58334320D01*
X157202119Y-58547000D01*
X157757881Y-58547000D01*
X158271337Y-58334320D01*
X158664320Y-57941337D01*
X158750000Y-57734487D01*
X158835680Y-57941337D01*
X159228663Y-58334320D01*
X159742119Y-58547000D01*
X160297881Y-58547000D01*
X160811337Y-58334320D01*
X161204320Y-57941337D01*
X161290000Y-57734487D01*
X161375680Y-57941337D01*
X161768663Y-58334320D01*
X162282119Y-58547000D01*
X162837881Y-58547000D01*
X163351337Y-58334320D01*
X163744320Y-57941337D01*
X163830000Y-57734487D01*
X163915680Y-57941337D01*
X164308663Y-58334320D01*
X164822119Y-58547000D01*
X165377881Y-58547000D01*
X165891337Y-58334320D01*
X166284320Y-57941337D01*
X166370000Y-57734487D01*
X166455680Y-57941337D01*
X166848663Y-58334320D01*
X167362119Y-58547000D01*
X167917881Y-58547000D01*
X168431337Y-58334320D01*
X168824320Y-57941337D01*
X168910000Y-57734487D01*
X168995680Y-57941337D01*
X169388663Y-58334320D01*
X169902119Y-58547000D01*
X170457881Y-58547000D01*
X170971337Y-58334320D01*
X171364320Y-57941337D01*
X171450000Y-57734487D01*
X171535680Y-57941337D01*
X171928663Y-58334320D01*
X172442119Y-58547000D01*
X172997881Y-58547000D01*
X173511337Y-58334320D01*
X173904320Y-57941337D01*
X173990000Y-57734487D01*
X174075680Y-57941337D01*
X174468663Y-58334320D01*
X174982119Y-58547000D01*
X175537881Y-58547000D01*
X176051337Y-58334320D01*
X176444320Y-57941337D01*
X176530000Y-57734487D01*
X176615680Y-57941337D01*
X177008663Y-58334320D01*
X177522119Y-58547000D01*
X178077881Y-58547000D01*
X178591337Y-58334320D01*
X178984320Y-57941337D01*
X179070000Y-57734487D01*
X179155680Y-57941337D01*
X179548663Y-58334320D01*
X180062119Y-58547000D01*
X180617881Y-58547000D01*
X181131337Y-58334320D01*
X181524320Y-57941337D01*
X181610000Y-57734487D01*
X181695680Y-57941337D01*
X182088663Y-58334320D01*
X182602119Y-58547000D01*
X183157881Y-58547000D01*
X183671337Y-58334320D01*
X184064320Y-57941337D01*
X184277000Y-57427881D01*
X184277000Y-56872119D01*
X184064320Y-56358663D01*
X183671337Y-55965680D01*
X183157881Y-55753000D01*
X182602119Y-55753000D01*
X182088663Y-55965680D01*
X181695680Y-56358663D01*
X181610000Y-56565513D01*
X181524320Y-56358663D01*
X181131337Y-55965680D01*
X180617881Y-55753000D01*
X180062119Y-55753000D01*
X179548663Y-55965680D01*
X179155680Y-56358663D01*
X179070000Y-56565513D01*
X178984320Y-56358663D01*
X178591337Y-55965680D01*
X178077881Y-55753000D01*
X177522119Y-55753000D01*
X177008663Y-55965680D01*
X176615680Y-56358663D01*
X176530000Y-56565513D01*
X176444320Y-56358663D01*
X176051337Y-55965680D01*
X175537881Y-55753000D01*
X174982119Y-55753000D01*
X174468663Y-55965680D01*
X174075680Y-56358663D01*
X173990000Y-56565513D01*
X173904320Y-56358663D01*
X173511337Y-55965680D01*
X172997881Y-55753000D01*
X172442119Y-55753000D01*
X171928663Y-55965680D01*
X171535680Y-56358663D01*
X171450000Y-56565513D01*
X171364320Y-56358663D01*
X170971337Y-55965680D01*
X170457881Y-55753000D01*
X169902119Y-55753000D01*
X169388663Y-55965680D01*
X168995680Y-56358663D01*
X168910000Y-56565513D01*
X168824320Y-56358663D01*
X168431337Y-55965680D01*
X167917881Y-55753000D01*
X167362119Y-55753000D01*
X166848663Y-55965680D01*
X166455680Y-56358663D01*
X166370000Y-56565513D01*
X166284320Y-56358663D01*
X165891337Y-55965680D01*
X165377881Y-55753000D01*
X164822119Y-55753000D01*
X164308663Y-55965680D01*
X163915680Y-56358663D01*
X163830000Y-56565513D01*
X163744320Y-56358663D01*
X163351337Y-55965680D01*
X162837881Y-55753000D01*
X162282119Y-55753000D01*
X161768663Y-55965680D01*
X161375680Y-56358663D01*
X161290000Y-56565513D01*
X161204320Y-56358663D01*
X160811337Y-55965680D01*
X160297881Y-55753000D01*
X159742119Y-55753000D01*
X159228663Y-55965680D01*
X158835680Y-56358663D01*
X158750000Y-56565513D01*
X158664320Y-56358663D01*
X158271337Y-55965680D01*
X157757881Y-55753000D01*
X157202119Y-55753000D01*
X156688663Y-55965680D01*
X156295680Y-56358663D01*
X156210000Y-56565513D01*
X156124320Y-56358663D01*
X155731337Y-55965680D01*
X155217881Y-55753000D01*
X154662119Y-55753000D01*
X154148663Y-55965680D01*
X153755680Y-56358663D01*
X153670000Y-56565513D01*
X153584320Y-56358663D01*
X153191337Y-55965680D01*
X152677881Y-55753000D01*
X152122119Y-55753000D01*
X151608663Y-55965680D01*
X151215680Y-56358663D01*
X151130000Y-56565513D01*
X151044320Y-56358663D01*
X150651337Y-55965680D01*
X150137881Y-55753000D01*
X149582119Y-55753000D01*
X149068663Y-55965680D01*
X148675680Y-56358663D01*
X148590000Y-56565513D01*
X148504320Y-56358663D01*
X148111337Y-55965680D01*
X147597881Y-55753000D01*
X147042119Y-55753000D01*
X146528663Y-55965680D01*
X146135680Y-56358663D01*
X146050000Y-56565513D01*
X145964320Y-56358663D01*
X145571337Y-55965680D01*
X145057881Y-55753000D01*
X144502119Y-55753000D01*
X143988663Y-55965680D01*
X143595680Y-56358663D01*
X143510000Y-56565513D01*
X143424320Y-56358663D01*
X143031337Y-55965680D01*
X142517881Y-55753000D01*
X141962119Y-55753000D01*
X141448663Y-55965680D01*
X141055680Y-56358663D01*
X140970000Y-56565513D01*
X140884320Y-56358663D01*
X140491337Y-55965680D01*
X139977881Y-55753000D01*
X139422119Y-55753000D01*
X138908663Y-55965680D01*
X138515680Y-56358663D01*
X138430000Y-56565513D01*
X138344320Y-56358663D01*
X137951337Y-55965680D01*
X137437881Y-55753000D01*
X136882119Y-55753000D01*
X136368663Y-55965680D01*
X135975680Y-56358663D01*
X135890000Y-56565513D01*
X135804320Y-56358663D01*
X135411337Y-55965680D01*
X134897881Y-55753000D01*
X134342119Y-55753000D01*
X133828663Y-55965680D01*
X133435680Y-56358663D01*
X133350000Y-56565513D01*
X133264320Y-56358663D01*
X132871337Y-55965680D01*
X132357881Y-55753000D01*
X131802119Y-55753000D01*
X131288663Y-55965680D01*
X130895680Y-56358663D01*
X130810000Y-56565513D01*
X130724320Y-56358663D01*
X130331337Y-55965680D01*
X129817881Y-55753000D01*
X129262119Y-55753000D01*
X128748663Y-55965680D01*
X128355680Y-56358663D01*
X128270000Y-56565513D01*
X128184320Y-56358663D01*
X127791337Y-55965680D01*
X127277881Y-55753000D01*
X126722119Y-55753000D01*
X126208663Y-55965680D01*
X125815680Y-56358663D01*
X125730000Y-56565513D01*
X125644320Y-56358663D01*
X125251337Y-55965680D01*
X124737881Y-55753000D01*
X124182119Y-55753000D01*
X123668663Y-55965680D01*
X123275680Y-56358663D01*
X123190000Y-56565513D01*
X123104320Y-56358663D01*
X122711337Y-55965680D01*
X122197881Y-55753000D01*
X121642119Y-55753000D01*
X121128663Y-55965680D01*
X120735680Y-56358663D01*
X120650000Y-56565513D01*
X120564320Y-56358663D01*
X120171337Y-55965680D01*
X119657881Y-55753000D01*
X119102119Y-55753000D01*
X118588663Y-55965680D01*
X118195680Y-56358663D01*
X117983000Y-56872119D01*
X109701000Y-56872119D01*
X109701000Y-51794506D01*
X126885000Y-51794506D01*
X126885000Y-52345494D01*
X127095853Y-52854540D01*
X127485460Y-53244147D01*
X127994506Y-53455000D01*
X128545494Y-53455000D01*
X129054540Y-53244147D01*
X129257170Y-53041517D01*
X130018088Y-53041517D01*
X130086077Y-53282460D01*
X130605171Y-53467201D01*
X131155448Y-53439230D01*
X131533923Y-53282460D01*
X131601912Y-53041517D01*
X130810000Y-52249605D01*
X130018088Y-53041517D01*
X129257170Y-53041517D01*
X129444147Y-52854540D01*
X129533397Y-52639070D01*
X129597540Y-52793923D01*
X129838483Y-52861912D01*
X130630395Y-52070000D01*
X130989605Y-52070000D01*
X131781517Y-52861912D01*
X132022460Y-52793923D01*
X132207201Y-52274829D01*
X132182786Y-51794506D01*
X137445000Y-51794506D01*
X137445000Y-52345494D01*
X137655853Y-52854540D01*
X138045460Y-53244147D01*
X138554506Y-53455000D01*
X139105494Y-53455000D01*
X139614540Y-53244147D01*
X139817170Y-53041517D01*
X140578088Y-53041517D01*
X140646077Y-53282460D01*
X141165171Y-53467201D01*
X141715448Y-53439230D01*
X142093923Y-53282460D01*
X142161912Y-53041517D01*
X141370000Y-52249605D01*
X140578088Y-53041517D01*
X139817170Y-53041517D01*
X140004147Y-52854540D01*
X140093397Y-52639070D01*
X140157540Y-52793923D01*
X140398483Y-52861912D01*
X141190395Y-52070000D01*
X141549605Y-52070000D01*
X142341517Y-52861912D01*
X142582460Y-52793923D01*
X142767201Y-52274829D01*
X142742786Y-51794506D01*
X159905000Y-51794506D01*
X159905000Y-52345494D01*
X160115853Y-52854540D01*
X160505460Y-53244147D01*
X161014506Y-53455000D01*
X161565494Y-53455000D01*
X162074540Y-53244147D01*
X162277170Y-53041517D01*
X163038088Y-53041517D01*
X163106077Y-53282460D01*
X163625171Y-53467201D01*
X164175448Y-53439230D01*
X164553923Y-53282460D01*
X164621912Y-53041517D01*
X163830000Y-52249605D01*
X163038088Y-53041517D01*
X162277170Y-53041517D01*
X162464147Y-52854540D01*
X162553397Y-52639070D01*
X162617540Y-52793923D01*
X162858483Y-52861912D01*
X163650395Y-52070000D01*
X164009605Y-52070000D01*
X164801517Y-52861912D01*
X165042460Y-52793923D01*
X165227201Y-52274829D01*
X165202786Y-51794506D01*
X170465000Y-51794506D01*
X170465000Y-52345494D01*
X170675853Y-52854540D01*
X171065460Y-53244147D01*
X171574506Y-53455000D01*
X172125494Y-53455000D01*
X172634540Y-53244147D01*
X172837170Y-53041517D01*
X173598088Y-53041517D01*
X173666077Y-53282460D01*
X174185171Y-53467201D01*
X174735448Y-53439230D01*
X175113923Y-53282460D01*
X175181912Y-53041517D01*
X174390000Y-52249605D01*
X173598088Y-53041517D01*
X172837170Y-53041517D01*
X173024147Y-52854540D01*
X173113397Y-52639070D01*
X173177540Y-52793923D01*
X173418483Y-52861912D01*
X174210395Y-52070000D01*
X174569605Y-52070000D01*
X175361517Y-52861912D01*
X175602460Y-52793923D01*
X175787201Y-52274829D01*
X175759230Y-51724552D01*
X175602460Y-51346077D01*
X175361517Y-51278088D01*
X174569605Y-52070000D01*
X174210395Y-52070000D01*
X173418483Y-51278088D01*
X173177540Y-51346077D01*
X173118255Y-51512658D01*
X173024147Y-51285460D01*
X172837170Y-51098483D01*
X173598088Y-51098483D01*
X174390000Y-51890395D01*
X175181912Y-51098483D01*
X175113923Y-50857540D01*
X174594829Y-50672799D01*
X174044552Y-50700770D01*
X173666077Y-50857540D01*
X173598088Y-51098483D01*
X172837170Y-51098483D01*
X172634540Y-50895853D01*
X172125494Y-50685000D01*
X171574506Y-50685000D01*
X171065460Y-50895853D01*
X170675853Y-51285460D01*
X170465000Y-51794506D01*
X165202786Y-51794506D01*
X165199230Y-51724552D01*
X165042460Y-51346077D01*
X164801517Y-51278088D01*
X164009605Y-52070000D01*
X163650395Y-52070000D01*
X162858483Y-51278088D01*
X162617540Y-51346077D01*
X162558255Y-51512658D01*
X162464147Y-51285460D01*
X162277170Y-51098483D01*
X163038088Y-51098483D01*
X163830000Y-51890395D01*
X164621912Y-51098483D01*
X164553923Y-50857540D01*
X164034829Y-50672799D01*
X163484552Y-50700770D01*
X163106077Y-50857540D01*
X163038088Y-51098483D01*
X162277170Y-51098483D01*
X162074540Y-50895853D01*
X161565494Y-50685000D01*
X161014506Y-50685000D01*
X160505460Y-50895853D01*
X160115853Y-51285460D01*
X159905000Y-51794506D01*
X142742786Y-51794506D01*
X142739230Y-51724552D01*
X142582460Y-51346077D01*
X142341517Y-51278088D01*
X141549605Y-52070000D01*
X141190395Y-52070000D01*
X140398483Y-51278088D01*
X140157540Y-51346077D01*
X140098255Y-51512658D01*
X140004147Y-51285460D01*
X139817170Y-51098483D01*
X140578088Y-51098483D01*
X141370000Y-51890395D01*
X142161912Y-51098483D01*
X142093923Y-50857540D01*
X141574829Y-50672799D01*
X141024552Y-50700770D01*
X140646077Y-50857540D01*
X140578088Y-51098483D01*
X139817170Y-51098483D01*
X139614540Y-50895853D01*
X139105494Y-50685000D01*
X138554506Y-50685000D01*
X138045460Y-50895853D01*
X137655853Y-51285460D01*
X137445000Y-51794506D01*
X132182786Y-51794506D01*
X132179230Y-51724552D01*
X132022460Y-51346077D01*
X131781517Y-51278088D01*
X130989605Y-52070000D01*
X130630395Y-52070000D01*
X129838483Y-51278088D01*
X129597540Y-51346077D01*
X129538255Y-51512658D01*
X129444147Y-51285460D01*
X129257170Y-51098483D01*
X130018088Y-51098483D01*
X130810000Y-51890395D01*
X131601912Y-51098483D01*
X131533923Y-50857540D01*
X131014829Y-50672799D01*
X130464552Y-50700770D01*
X130086077Y-50857540D01*
X130018088Y-51098483D01*
X129257170Y-51098483D01*
X129054540Y-50895853D01*
X128545494Y-50685000D01*
X127994506Y-50685000D01*
X127485460Y-50895853D01*
X127095853Y-51285460D01*
X126885000Y-51794506D01*
X109701000Y-51794506D01*
X109701000Y-46256875D01*
X109731514Y-45869146D01*
X112475377Y-45869146D01*
X112483515Y-46646265D01*
X112700337Y-47392568D01*
X113109866Y-48053072D01*
X113681933Y-48579114D01*
X114374389Y-48931938D01*
X115136218Y-49085550D01*
X115911293Y-49028632D01*
X116642509Y-48765378D01*
X116673070Y-48743659D01*
X126625946Y-48743659D01*
X126770467Y-49049444D01*
X127515993Y-49338571D01*
X128315414Y-49320389D01*
X128969533Y-49049444D01*
X129114054Y-48743659D01*
X140525946Y-48743659D01*
X140670467Y-49049444D01*
X141415993Y-49338571D01*
X142215414Y-49320389D01*
X142869533Y-49049444D01*
X143014054Y-48743659D01*
X159645946Y-48743659D01*
X159790467Y-49049444D01*
X160535993Y-49338571D01*
X161335414Y-49320389D01*
X161989533Y-49049444D01*
X162134054Y-48743659D01*
X173545946Y-48743659D01*
X173690467Y-49049444D01*
X174435993Y-49338571D01*
X175235414Y-49320389D01*
X175889533Y-49049444D01*
X176034054Y-48743659D01*
X174790000Y-47499605D01*
X173545946Y-48743659D01*
X162134054Y-48743659D01*
X160890000Y-47499605D01*
X159645946Y-48743659D01*
X143014054Y-48743659D01*
X141770000Y-47499605D01*
X140525946Y-48743659D01*
X129114054Y-48743659D01*
X127870000Y-47499605D01*
X126625946Y-48743659D01*
X116673070Y-48743659D01*
X117275995Y-48315183D01*
X117765079Y-47711215D01*
X118073727Y-46997971D01*
X118078107Y-46965993D01*
X125851429Y-46965993D01*
X125869611Y-47765414D01*
X126140556Y-48419533D01*
X126446341Y-48564054D01*
X127690395Y-47320000D01*
X126446341Y-46075946D01*
X126140556Y-46220467D01*
X125851429Y-46965993D01*
X118078107Y-46965993D01*
X118179200Y-46228000D01*
X118178572Y-46168038D01*
X118135540Y-45896341D01*
X126625946Y-45896341D01*
X127870000Y-47140395D01*
X127884143Y-47126253D01*
X128063748Y-47305858D01*
X128049605Y-47320000D01*
X129293659Y-48564054D01*
X129599444Y-48419533D01*
X129888571Y-47674007D01*
X129872468Y-46965993D01*
X139751429Y-46965993D01*
X139769611Y-47765414D01*
X140040556Y-48419533D01*
X140346341Y-48564054D01*
X141590395Y-47320000D01*
X141949605Y-47320000D01*
X143193659Y-48564054D01*
X143499444Y-48419533D01*
X143788571Y-47674007D01*
X143772468Y-46965993D01*
X158871429Y-46965993D01*
X158889611Y-47765414D01*
X159160556Y-48419533D01*
X159466341Y-48564054D01*
X160710395Y-47320000D01*
X159466341Y-46075946D01*
X159160556Y-46220467D01*
X158871429Y-46965993D01*
X143772468Y-46965993D01*
X143770389Y-46874586D01*
X143499444Y-46220467D01*
X143193659Y-46075946D01*
X141949605Y-47320000D01*
X141590395Y-47320000D01*
X140346341Y-46075946D01*
X140040556Y-46220467D01*
X139751429Y-46965993D01*
X129872468Y-46965993D01*
X129870389Y-46874586D01*
X129799180Y-46702672D01*
X130094506Y-46825000D01*
X130645494Y-46825000D01*
X131154540Y-46614147D01*
X131544147Y-46224540D01*
X131640000Y-45993130D01*
X131735853Y-46224540D01*
X132125460Y-46614147D01*
X132634506Y-46825000D01*
X133185494Y-46825000D01*
X133694540Y-46614147D01*
X134084147Y-46224540D01*
X134180000Y-45993130D01*
X134275853Y-46224540D01*
X134665460Y-46614147D01*
X135174506Y-46825000D01*
X135725494Y-46825000D01*
X136234540Y-46614147D01*
X136624147Y-46224540D01*
X136720000Y-45993130D01*
X136815853Y-46224540D01*
X137205460Y-46614147D01*
X137714506Y-46825000D01*
X138265494Y-46825000D01*
X138774540Y-46614147D01*
X139164147Y-46224540D01*
X139300090Y-45896341D01*
X140525946Y-45896341D01*
X141770000Y-47140395D01*
X143014054Y-45896341D01*
X159645946Y-45896341D01*
X160890000Y-47140395D01*
X160904143Y-47126253D01*
X161083748Y-47305858D01*
X161069605Y-47320000D01*
X162313659Y-48564054D01*
X162619444Y-48419533D01*
X162908571Y-47674007D01*
X162892468Y-46965993D01*
X172771429Y-46965993D01*
X172789611Y-47765414D01*
X173060556Y-48419533D01*
X173366341Y-48564054D01*
X174610395Y-47320000D01*
X174969605Y-47320000D01*
X176213659Y-48564054D01*
X176519444Y-48419533D01*
X176808571Y-47674007D01*
X176790389Y-46874586D01*
X176519444Y-46220467D01*
X176213659Y-46075946D01*
X174969605Y-47320000D01*
X174610395Y-47320000D01*
X173366341Y-46075946D01*
X173060556Y-46220467D01*
X172771429Y-46965993D01*
X162892468Y-46965993D01*
X162890389Y-46874586D01*
X162819180Y-46702672D01*
X163114506Y-46825000D01*
X163665494Y-46825000D01*
X164174540Y-46614147D01*
X164564147Y-46224540D01*
X164660000Y-45993130D01*
X164755853Y-46224540D01*
X165145460Y-46614147D01*
X165654506Y-46825000D01*
X166205494Y-46825000D01*
X166714540Y-46614147D01*
X167104147Y-46224540D01*
X167200000Y-45993130D01*
X167295853Y-46224540D01*
X167685460Y-46614147D01*
X168194506Y-46825000D01*
X168745494Y-46825000D01*
X169254540Y-46614147D01*
X169644147Y-46224540D01*
X169740000Y-45993130D01*
X169835853Y-46224540D01*
X170225460Y-46614147D01*
X170734506Y-46825000D01*
X171285494Y-46825000D01*
X171794540Y-46614147D01*
X172184147Y-46224540D01*
X172320090Y-45896341D01*
X173545946Y-45896341D01*
X174790000Y-47140395D01*
X176034054Y-45896341D01*
X176021202Y-45869146D01*
X184775377Y-45869146D01*
X184783515Y-46646265D01*
X185000337Y-47392568D01*
X185409866Y-48053072D01*
X185981933Y-48579114D01*
X186674389Y-48931938D01*
X187436218Y-49085550D01*
X188211293Y-49028632D01*
X188942509Y-48765378D01*
X189575995Y-48315183D01*
X190065079Y-47711215D01*
X190373727Y-46997971D01*
X190479200Y-46228000D01*
X190478572Y-46168038D01*
X190356997Y-45400444D01*
X190033480Y-44693821D01*
X189531855Y-44100228D01*
X188889079Y-43663398D01*
X188152510Y-43415515D01*
X187376414Y-43374842D01*
X186617969Y-43544374D01*
X185933053Y-43911623D01*
X185372129Y-44449530D01*
X184976521Y-45118465D01*
X184775377Y-45869146D01*
X176021202Y-45869146D01*
X175889533Y-45590556D01*
X175144007Y-45301429D01*
X174344586Y-45319611D01*
X173690467Y-45590556D01*
X173545946Y-45896341D01*
X172320090Y-45896341D01*
X172395000Y-45715494D01*
X172395000Y-45164506D01*
X172184147Y-44655460D01*
X171794540Y-44265853D01*
X171285494Y-44055000D01*
X170734506Y-44055000D01*
X170225460Y-44265853D01*
X169835853Y-44655460D01*
X169740000Y-44886870D01*
X169644147Y-44655460D01*
X169254540Y-44265853D01*
X168745494Y-44055000D01*
X168194506Y-44055000D01*
X167685460Y-44265853D01*
X167295853Y-44655460D01*
X167200000Y-44886870D01*
X167104147Y-44655460D01*
X166714540Y-44265853D01*
X166205494Y-44055000D01*
X165654506Y-44055000D01*
X165145460Y-44265853D01*
X164755853Y-44655460D01*
X164660000Y-44886870D01*
X164564147Y-44655460D01*
X164174540Y-44265853D01*
X163665494Y-44055000D01*
X163114506Y-44055000D01*
X162605460Y-44265853D01*
X162215853Y-44655460D01*
X162005000Y-45164506D01*
X162005000Y-45623282D01*
X161989533Y-45590556D01*
X161244007Y-45301429D01*
X160444586Y-45319611D01*
X159790467Y-45590556D01*
X159645946Y-45896341D01*
X143014054Y-45896341D01*
X142869533Y-45590556D01*
X142124007Y-45301429D01*
X141324586Y-45319611D01*
X140670467Y-45590556D01*
X140525946Y-45896341D01*
X139300090Y-45896341D01*
X139375000Y-45715494D01*
X139375000Y-45164506D01*
X139164147Y-44655460D01*
X138774540Y-44265853D01*
X138265494Y-44055000D01*
X137714506Y-44055000D01*
X137205460Y-44265853D01*
X136815853Y-44655460D01*
X136720000Y-44886870D01*
X136624147Y-44655460D01*
X136234540Y-44265853D01*
X135725494Y-44055000D01*
X135174506Y-44055000D01*
X134665460Y-44265853D01*
X134275853Y-44655460D01*
X134180000Y-44886870D01*
X134084147Y-44655460D01*
X133694540Y-44265853D01*
X133185494Y-44055000D01*
X132634506Y-44055000D01*
X132125460Y-44265853D01*
X131735853Y-44655460D01*
X131640000Y-44886870D01*
X131544147Y-44655460D01*
X131154540Y-44265853D01*
X130645494Y-44055000D01*
X130094506Y-44055000D01*
X129585460Y-44265853D01*
X129195853Y-44655460D01*
X128985000Y-45164506D01*
X128985000Y-45623282D01*
X128969533Y-45590556D01*
X128224007Y-45301429D01*
X127424586Y-45319611D01*
X126770467Y-45590556D01*
X126625946Y-45896341D01*
X118135540Y-45896341D01*
X118056997Y-45400444D01*
X117733480Y-44693821D01*
X117231855Y-44100228D01*
X116589079Y-43663398D01*
X115852510Y-43415515D01*
X115076414Y-43374842D01*
X114317969Y-43544374D01*
X113633053Y-43911623D01*
X113072129Y-44449530D01*
X112676521Y-45118465D01*
X112475377Y-45869146D01*
X109731514Y-45869146D01*
X109772374Y-45349978D01*
X109977980Y-44493569D01*
X110315023Y-43679877D01*
X110775210Y-42928919D01*
X111035203Y-42624506D01*
X130255000Y-42624506D01*
X130255000Y-43175494D01*
X130465853Y-43684540D01*
X130855460Y-44074147D01*
X131364506Y-44285000D01*
X131915494Y-44285000D01*
X132424540Y-44074147D01*
X132814147Y-43684540D01*
X132910000Y-43453130D01*
X133005853Y-43684540D01*
X133395460Y-44074147D01*
X133904506Y-44285000D01*
X134455494Y-44285000D01*
X134964540Y-44074147D01*
X135354147Y-43684540D01*
X135450000Y-43453130D01*
X135545853Y-43684540D01*
X135935460Y-44074147D01*
X136444506Y-44285000D01*
X136995494Y-44285000D01*
X137504540Y-44074147D01*
X137707170Y-43871517D01*
X138468088Y-43871517D01*
X138536077Y-44112460D01*
X139055171Y-44297201D01*
X139605448Y-44269230D01*
X139983923Y-44112460D01*
X140051912Y-43871517D01*
X139260000Y-43079605D01*
X138468088Y-43871517D01*
X137707170Y-43871517D01*
X137894147Y-43684540D01*
X137983397Y-43469070D01*
X138047540Y-43623923D01*
X138288483Y-43691912D01*
X139080395Y-42900000D01*
X139439605Y-42900000D01*
X140231517Y-43691912D01*
X140472460Y-43623923D01*
X140657201Y-43104829D01*
X140632786Y-42624506D01*
X163275000Y-42624506D01*
X163275000Y-43175494D01*
X163485853Y-43684540D01*
X163875460Y-44074147D01*
X164384506Y-44285000D01*
X164935494Y-44285000D01*
X165444540Y-44074147D01*
X165834147Y-43684540D01*
X165930000Y-43453130D01*
X166025853Y-43684540D01*
X166415460Y-44074147D01*
X166924506Y-44285000D01*
X167475494Y-44285000D01*
X167984540Y-44074147D01*
X168374147Y-43684540D01*
X168470000Y-43453130D01*
X168565853Y-43684540D01*
X168955460Y-44074147D01*
X169464506Y-44285000D01*
X170015494Y-44285000D01*
X170524540Y-44074147D01*
X170727170Y-43871517D01*
X171488088Y-43871517D01*
X171556077Y-44112460D01*
X172075171Y-44297201D01*
X172625448Y-44269230D01*
X173003923Y-44112460D01*
X173071912Y-43871517D01*
X172280000Y-43079605D01*
X171488088Y-43871517D01*
X170727170Y-43871517D01*
X170914147Y-43684540D01*
X171003397Y-43469070D01*
X171067540Y-43623923D01*
X171308483Y-43691912D01*
X172100395Y-42900000D01*
X172459605Y-42900000D01*
X173251517Y-43691912D01*
X173492460Y-43623923D01*
X173677201Y-43104829D01*
X173649230Y-42554552D01*
X173492460Y-42176077D01*
X173251517Y-42108088D01*
X172459605Y-42900000D01*
X172100395Y-42900000D01*
X171308483Y-42108088D01*
X171067540Y-42176077D01*
X171008255Y-42342658D01*
X170914147Y-42115460D01*
X170727170Y-41928483D01*
X171488088Y-41928483D01*
X172280000Y-42720395D01*
X173071912Y-41928483D01*
X173003923Y-41687540D01*
X172484829Y-41502799D01*
X171934552Y-41530770D01*
X171556077Y-41687540D01*
X171488088Y-41928483D01*
X170727170Y-41928483D01*
X170524540Y-41725853D01*
X170015494Y-41515000D01*
X169464506Y-41515000D01*
X168955460Y-41725853D01*
X168565853Y-42115460D01*
X168470000Y-42346870D01*
X168374147Y-42115460D01*
X167984540Y-41725853D01*
X167475494Y-41515000D01*
X166924506Y-41515000D01*
X166415460Y-41725853D01*
X166025853Y-42115460D01*
X165930000Y-42346870D01*
X165834147Y-42115460D01*
X165444540Y-41725853D01*
X164935494Y-41515000D01*
X164384506Y-41515000D01*
X163875460Y-41725853D01*
X163485853Y-42115460D01*
X163275000Y-42624506D01*
X140632786Y-42624506D01*
X140629230Y-42554552D01*
X140472460Y-42176077D01*
X140231517Y-42108088D01*
X139439605Y-42900000D01*
X139080395Y-42900000D01*
X138288483Y-42108088D01*
X138047540Y-42176077D01*
X137988255Y-42342658D01*
X137894147Y-42115460D01*
X137707170Y-41928483D01*
X138468088Y-41928483D01*
X139260000Y-42720395D01*
X140051912Y-41928483D01*
X139983923Y-41687540D01*
X139464829Y-41502799D01*
X138914552Y-41530770D01*
X138536077Y-41687540D01*
X138468088Y-41928483D01*
X137707170Y-41928483D01*
X137504540Y-41725853D01*
X136995494Y-41515000D01*
X136444506Y-41515000D01*
X135935460Y-41725853D01*
X135545853Y-42115460D01*
X135450000Y-42346870D01*
X135354147Y-42115460D01*
X134964540Y-41725853D01*
X134455494Y-41515000D01*
X133904506Y-41515000D01*
X133395460Y-41725853D01*
X133005853Y-42115460D01*
X132910000Y-42346870D01*
X132814147Y-42115460D01*
X132424540Y-41725853D01*
X131915494Y-41515000D01*
X131364506Y-41515000D01*
X130855460Y-41725853D01*
X130465853Y-42115460D01*
X130255000Y-42624506D01*
X111035203Y-42624506D01*
X111347206Y-42259199D01*
X112016919Y-41687211D01*
X112767875Y-41227024D01*
X113581571Y-40889979D01*
X114437978Y-40684374D01*
X115344876Y-40613000D01*
X187587125Y-40613000D01*
X188494022Y-40684374D01*
G04 #@! TD*
M02*
