G04 #@! TF.GenerationSoftware,KiCad,Pcbnew,5.0.2-bee76a0~70~ubuntu18.04.1*
G04 #@! TF.CreationDate,2019-05-01T23:50:06-04:00*
G04 #@! TF.ProjectId,external_board,65787465-726e-4616-9c5f-626f6172642e,rev?*
G04 #@! TF.SameCoordinates,Original*
G04 #@! TF.FileFunction,Legend,Top*
G04 #@! TF.FilePolarity,Positive*
%FSLAX46Y46*%
G04 Gerber Fmt 4.6, Leading zero omitted, Abs format (unit mm)*
G04 Created by KiCad (PCBNEW 5.0.2-bee76a0~70~ubuntu18.04.1) date Wed 01 May 2019 11:50:06 PM EDT*
%MOMM*%
%LPD*%
G01*
G04 APERTURE LIST*
%ADD10C,0.300000*%
%ADD11C,0.150000*%
G04 APERTURE END LIST*
D10*
X134093857Y-69468923D02*
X133368142Y-69468923D01*
X133731000Y-69468923D02*
X133731000Y-68198923D01*
X133610047Y-68380352D01*
X133489095Y-68501304D01*
X133368142Y-68561780D01*
X133489095Y-73878923D02*
X133731000Y-73878923D01*
X133851952Y-73818447D01*
X133912428Y-73757971D01*
X134033380Y-73576542D01*
X134093857Y-73334638D01*
X134093857Y-72850828D01*
X134033380Y-72729876D01*
X133972904Y-72669400D01*
X133851952Y-72608923D01*
X133610047Y-72608923D01*
X133489095Y-72669400D01*
X133428619Y-72729876D01*
X133368142Y-72850828D01*
X133368142Y-73153209D01*
X133428619Y-73274161D01*
X133489095Y-73334638D01*
X133610047Y-73395114D01*
X133851952Y-73395114D01*
X133972904Y-73334638D01*
X134033380Y-73274161D01*
X134093857Y-73153209D01*
X133489095Y-78288923D02*
X132763380Y-78288923D01*
X133126238Y-78288923D02*
X133126238Y-77018923D01*
X133005285Y-77200352D01*
X132884333Y-77321304D01*
X132763380Y-77381780D01*
X134577666Y-77018923D02*
X134335761Y-77018923D01*
X134214809Y-77079400D01*
X134154333Y-77139876D01*
X134033380Y-77321304D01*
X133972904Y-77563209D01*
X133972904Y-78047019D01*
X134033380Y-78167971D01*
X134093857Y-78228447D01*
X134214809Y-78288923D01*
X134456714Y-78288923D01*
X134577666Y-78228447D01*
X134638142Y-78167971D01*
X134698619Y-78047019D01*
X134698619Y-77744638D01*
X134638142Y-77623685D01*
X134577666Y-77563209D01*
X134456714Y-77502733D01*
X134214809Y-77502733D01*
X134093857Y-77563209D01*
X134033380Y-77623685D01*
X133972904Y-77744638D01*
X168662047Y-68641609D02*
X168541095Y-68581133D01*
X168480619Y-68520657D01*
X168420142Y-68399704D01*
X168420142Y-68339228D01*
X168480619Y-68218276D01*
X168541095Y-68157800D01*
X168662047Y-68097323D01*
X168903952Y-68097323D01*
X169024904Y-68157800D01*
X169085380Y-68218276D01*
X169145857Y-68339228D01*
X169145857Y-68399704D01*
X169085380Y-68520657D01*
X169024904Y-68581133D01*
X168903952Y-68641609D01*
X168662047Y-68641609D01*
X168541095Y-68702085D01*
X168480619Y-68762561D01*
X168420142Y-68883514D01*
X168420142Y-69125419D01*
X168480619Y-69246371D01*
X168541095Y-69306847D01*
X168662047Y-69367323D01*
X168903952Y-69367323D01*
X169024904Y-69306847D01*
X169085380Y-69246371D01*
X169145857Y-69125419D01*
X169145857Y-68883514D01*
X169085380Y-68762561D01*
X169024904Y-68702085D01*
X168903952Y-68641609D01*
X168541095Y-73777323D02*
X167815380Y-73777323D01*
X168178238Y-73777323D02*
X168178238Y-72507323D01*
X168057285Y-72688752D01*
X167936333Y-72809704D01*
X167815380Y-72870180D01*
X169690142Y-72507323D02*
X169085380Y-72507323D01*
X169024904Y-73112085D01*
X169085380Y-73051609D01*
X169206333Y-72991133D01*
X169508714Y-72991133D01*
X169629666Y-73051609D01*
X169690142Y-73112085D01*
X169750619Y-73233038D01*
X169750619Y-73535419D01*
X169690142Y-73656371D01*
X169629666Y-73716847D01*
X169508714Y-73777323D01*
X169206333Y-73777323D01*
X169085380Y-73716847D01*
X169024904Y-73656371D01*
X167815380Y-77038276D02*
X167875857Y-76977800D01*
X167996809Y-76917323D01*
X168299190Y-76917323D01*
X168420142Y-76977800D01*
X168480619Y-77038276D01*
X168541095Y-77159228D01*
X168541095Y-77280180D01*
X168480619Y-77461609D01*
X167754904Y-78187323D01*
X168541095Y-78187323D01*
X168964428Y-76917323D02*
X169750619Y-76917323D01*
X169327285Y-77401133D01*
X169508714Y-77401133D01*
X169629666Y-77461609D01*
X169690142Y-77522085D01*
X169750619Y-77643038D01*
X169750619Y-77945419D01*
X169690142Y-78066371D01*
X169629666Y-78126847D01*
X169508714Y-78187323D01*
X169145857Y-78187323D01*
X169024904Y-78126847D01*
X168964428Y-78066371D01*
X132658571Y-85295000D02*
X133372857Y-85295000D01*
X132515714Y-85723571D02*
X133015714Y-84223571D01*
X133515714Y-85723571D01*
X134658571Y-85652142D02*
X134515714Y-85723571D01*
X134230000Y-85723571D01*
X134087142Y-85652142D01*
X134015714Y-85580714D01*
X133944285Y-85437857D01*
X133944285Y-85009285D01*
X134015714Y-84866428D01*
X134087142Y-84795000D01*
X134230000Y-84723571D01*
X134515714Y-84723571D01*
X134658571Y-84795000D01*
X135944285Y-85652142D02*
X135801428Y-85723571D01*
X135515714Y-85723571D01*
X135372857Y-85652142D01*
X135301428Y-85580714D01*
X135230000Y-85437857D01*
X135230000Y-85009285D01*
X135301428Y-84866428D01*
X135372857Y-84795000D01*
X135515714Y-84723571D01*
X135801428Y-84723571D01*
X135944285Y-84795000D01*
X137230000Y-84723571D02*
X137230000Y-85723571D01*
X136587142Y-84723571D02*
X136587142Y-85509285D01*
X136658571Y-85652142D01*
X136801428Y-85723571D01*
X137015714Y-85723571D01*
X137158571Y-85652142D01*
X137230000Y-85580714D01*
X137944285Y-85723571D02*
X137944285Y-84723571D01*
X137944285Y-84866428D02*
X138015714Y-84795000D01*
X138158571Y-84723571D01*
X138372857Y-84723571D01*
X138515714Y-84795000D01*
X138587142Y-84937857D01*
X138587142Y-85723571D01*
X138587142Y-84937857D02*
X138658571Y-84795000D01*
X138801428Y-84723571D01*
X139015714Y-84723571D01*
X139158571Y-84795000D01*
X139230000Y-84937857D01*
X139230000Y-85723571D01*
X140587142Y-84723571D02*
X140587142Y-85723571D01*
X139944285Y-84723571D02*
X139944285Y-85509285D01*
X140015714Y-85652142D01*
X140158571Y-85723571D01*
X140372857Y-85723571D01*
X140515714Y-85652142D01*
X140587142Y-85580714D01*
X141515714Y-85723571D02*
X141372857Y-85652142D01*
X141301428Y-85509285D01*
X141301428Y-84223571D01*
X142730000Y-85723571D02*
X142730000Y-84937857D01*
X142658571Y-84795000D01*
X142515714Y-84723571D01*
X142230000Y-84723571D01*
X142087142Y-84795000D01*
X142730000Y-85652142D02*
X142587142Y-85723571D01*
X142230000Y-85723571D01*
X142087142Y-85652142D01*
X142015714Y-85509285D01*
X142015714Y-85366428D01*
X142087142Y-85223571D01*
X142230000Y-85152142D01*
X142587142Y-85152142D01*
X142730000Y-85080714D01*
X143230000Y-84723571D02*
X143801428Y-84723571D01*
X143444285Y-84223571D02*
X143444285Y-85509285D01*
X143515714Y-85652142D01*
X143658571Y-85723571D01*
X143801428Y-85723571D01*
X144515714Y-85723571D02*
X144372857Y-85652142D01*
X144301428Y-85580714D01*
X144230000Y-85437857D01*
X144230000Y-85009285D01*
X144301428Y-84866428D01*
X144372857Y-84795000D01*
X144515714Y-84723571D01*
X144730000Y-84723571D01*
X144872857Y-84795000D01*
X144944285Y-84866428D01*
X145015714Y-85009285D01*
X145015714Y-85437857D01*
X144944285Y-85580714D01*
X144872857Y-85652142D01*
X144730000Y-85723571D01*
X144515714Y-85723571D01*
X145658571Y-85723571D02*
X145658571Y-84723571D01*
X145658571Y-85009285D02*
X145730000Y-84866428D01*
X145801428Y-84795000D01*
X145944285Y-84723571D01*
X146087142Y-84723571D01*
X147730000Y-85723571D02*
X147730000Y-84223571D01*
X148444285Y-84723571D02*
X148444285Y-85723571D01*
X148444285Y-84866428D02*
X148515714Y-84795000D01*
X148658571Y-84723571D01*
X148872857Y-84723571D01*
X149015714Y-84795000D01*
X149087142Y-84937857D01*
X149087142Y-85723571D01*
X149587142Y-84723571D02*
X150158571Y-84723571D01*
X149801428Y-84223571D02*
X149801428Y-85509285D01*
X149872857Y-85652142D01*
X150015714Y-85723571D01*
X150158571Y-85723571D01*
X151230000Y-85652142D02*
X151087142Y-85723571D01*
X150801428Y-85723571D01*
X150658571Y-85652142D01*
X150587142Y-85509285D01*
X150587142Y-84937857D01*
X150658571Y-84795000D01*
X150801428Y-84723571D01*
X151087142Y-84723571D01*
X151230000Y-84795000D01*
X151301428Y-84937857D01*
X151301428Y-85080714D01*
X150587142Y-85223571D01*
X151944285Y-85723571D02*
X151944285Y-84723571D01*
X151944285Y-85009285D02*
X152015714Y-84866428D01*
X152087142Y-84795000D01*
X152230000Y-84723571D01*
X152372857Y-84723571D01*
X152658571Y-84723571D02*
X153230000Y-84723571D01*
X152872857Y-85723571D02*
X152872857Y-84437857D01*
X152944285Y-84295000D01*
X153087142Y-84223571D01*
X153230000Y-84223571D01*
X154372857Y-85723571D02*
X154372857Y-84937857D01*
X154301428Y-84795000D01*
X154158571Y-84723571D01*
X153872857Y-84723571D01*
X153730000Y-84795000D01*
X154372857Y-85652142D02*
X154230000Y-85723571D01*
X153872857Y-85723571D01*
X153730000Y-85652142D01*
X153658571Y-85509285D01*
X153658571Y-85366428D01*
X153730000Y-85223571D01*
X153872857Y-85152142D01*
X154230000Y-85152142D01*
X154372857Y-85080714D01*
X155730000Y-85652142D02*
X155587142Y-85723571D01*
X155301428Y-85723571D01*
X155158571Y-85652142D01*
X155087142Y-85580714D01*
X155015714Y-85437857D01*
X155015714Y-85009285D01*
X155087142Y-84866428D01*
X155158571Y-84795000D01*
X155301428Y-84723571D01*
X155587142Y-84723571D01*
X155730000Y-84795000D01*
X156944285Y-85652142D02*
X156801428Y-85723571D01*
X156515714Y-85723571D01*
X156372857Y-85652142D01*
X156301428Y-85509285D01*
X156301428Y-84937857D01*
X156372857Y-84795000D01*
X156515714Y-84723571D01*
X156801428Y-84723571D01*
X156944285Y-84795000D01*
X157015714Y-84937857D01*
X157015714Y-85080714D01*
X156301428Y-85223571D01*
X159230000Y-86295000D02*
X159158571Y-86223571D01*
X159015714Y-86009285D01*
X158944285Y-85866428D01*
X158872857Y-85652142D01*
X158801428Y-85295000D01*
X158801428Y-85009285D01*
X158872857Y-84652142D01*
X158944285Y-84437857D01*
X159015714Y-84295000D01*
X159158571Y-84080714D01*
X159230000Y-84009285D01*
X159801428Y-84937857D02*
X160301428Y-84937857D01*
X160515714Y-85723571D02*
X159801428Y-85723571D01*
X159801428Y-84223571D01*
X160515714Y-84223571D01*
X161015714Y-85723571D02*
X161801428Y-84723571D01*
X161015714Y-84723571D02*
X161801428Y-85723571D01*
X162158571Y-84723571D02*
X162730000Y-84723571D01*
X162372857Y-84223571D02*
X162372857Y-85509285D01*
X162444285Y-85652142D01*
X162587142Y-85723571D01*
X162730000Y-85723571D01*
X163801428Y-85652142D02*
X163658571Y-85723571D01*
X163372857Y-85723571D01*
X163230000Y-85652142D01*
X163158571Y-85509285D01*
X163158571Y-84937857D01*
X163230000Y-84795000D01*
X163372857Y-84723571D01*
X163658571Y-84723571D01*
X163801428Y-84795000D01*
X163872857Y-84937857D01*
X163872857Y-85080714D01*
X163158571Y-85223571D01*
X164515714Y-85723571D02*
X164515714Y-84723571D01*
X164515714Y-85009285D02*
X164587142Y-84866428D01*
X164658571Y-84795000D01*
X164801428Y-84723571D01*
X164944285Y-84723571D01*
X165444285Y-84723571D02*
X165444285Y-85723571D01*
X165444285Y-84866428D02*
X165515714Y-84795000D01*
X165658571Y-84723571D01*
X165872857Y-84723571D01*
X166015714Y-84795000D01*
X166087142Y-84937857D01*
X166087142Y-85723571D01*
X167444285Y-85723571D02*
X167444285Y-84937857D01*
X167372857Y-84795000D01*
X167230000Y-84723571D01*
X166944285Y-84723571D01*
X166801428Y-84795000D01*
X167444285Y-85652142D02*
X167301428Y-85723571D01*
X166944285Y-85723571D01*
X166801428Y-85652142D01*
X166730000Y-85509285D01*
X166730000Y-85366428D01*
X166801428Y-85223571D01*
X166944285Y-85152142D01*
X167301428Y-85152142D01*
X167444285Y-85080714D01*
X168372857Y-85723571D02*
X168230000Y-85652142D01*
X168158571Y-85509285D01*
X168158571Y-84223571D01*
X168801428Y-86295000D02*
X168872857Y-86223571D01*
X169015714Y-86009285D01*
X169087142Y-85866428D01*
X169158571Y-85652142D01*
X169230000Y-85295000D01*
X169230000Y-85009285D01*
X169158571Y-84652142D01*
X169087142Y-84437857D01*
X169015714Y-84295000D01*
X168872857Y-84080714D01*
X168801428Y-84009285D01*
X148944285Y-88273571D02*
X148444285Y-87559285D01*
X148087142Y-88273571D02*
X148087142Y-86773571D01*
X148658571Y-86773571D01*
X148801428Y-86845000D01*
X148872857Y-86916428D01*
X148944285Y-87059285D01*
X148944285Y-87273571D01*
X148872857Y-87416428D01*
X148801428Y-87487857D01*
X148658571Y-87559285D01*
X148087142Y-87559285D01*
X150158571Y-88202142D02*
X150015714Y-88273571D01*
X149730000Y-88273571D01*
X149587142Y-88202142D01*
X149515714Y-88059285D01*
X149515714Y-87487857D01*
X149587142Y-87345000D01*
X149730000Y-87273571D01*
X150015714Y-87273571D01*
X150158571Y-87345000D01*
X150230000Y-87487857D01*
X150230000Y-87630714D01*
X149515714Y-87773571D01*
X150730000Y-87273571D02*
X151087142Y-88273571D01*
X151444285Y-87273571D01*
X153087142Y-86916428D02*
X153158571Y-86845000D01*
X153301428Y-86773571D01*
X153658571Y-86773571D01*
X153801428Y-86845000D01*
X153872857Y-86916428D01*
X153944285Y-87059285D01*
X153944285Y-87202142D01*
X153872857Y-87416428D01*
X153015714Y-88273571D01*
X153944285Y-88273571D01*
X145301428Y-90037857D02*
X145515714Y-90109285D01*
X145587142Y-90180714D01*
X145658571Y-90323571D01*
X145658571Y-90537857D01*
X145587142Y-90680714D01*
X145515714Y-90752142D01*
X145372857Y-90823571D01*
X144801428Y-90823571D01*
X144801428Y-89323571D01*
X145301428Y-89323571D01*
X145444285Y-89395000D01*
X145515714Y-89466428D01*
X145587142Y-89609285D01*
X145587142Y-89752142D01*
X145515714Y-89895000D01*
X145444285Y-89966428D01*
X145301428Y-90037857D01*
X144801428Y-90037857D01*
X146301428Y-90823571D02*
X146301428Y-89823571D01*
X146301428Y-90109285D02*
X146372857Y-89966428D01*
X146444285Y-89895000D01*
X146587142Y-89823571D01*
X146730000Y-89823571D01*
X147087142Y-89823571D02*
X147444285Y-90823571D01*
X147801428Y-89823571D02*
X147444285Y-90823571D01*
X147301428Y-91180714D01*
X147230000Y-91252142D01*
X147087142Y-91323571D01*
X149015714Y-90752142D02*
X148872857Y-90823571D01*
X148587142Y-90823571D01*
X148444285Y-90752142D01*
X148372857Y-90680714D01*
X148301428Y-90537857D01*
X148301428Y-90109285D01*
X148372857Y-89966428D01*
X148444285Y-89895000D01*
X148587142Y-89823571D01*
X148872857Y-89823571D01*
X149015714Y-89895000D01*
X150230000Y-90752142D02*
X150087142Y-90823571D01*
X149801428Y-90823571D01*
X149658571Y-90752142D01*
X149587142Y-90609285D01*
X149587142Y-90037857D01*
X149658571Y-89895000D01*
X149801428Y-89823571D01*
X150087142Y-89823571D01*
X150230000Y-89895000D01*
X150301428Y-90037857D01*
X150301428Y-90180714D01*
X149587142Y-90323571D01*
X152087142Y-90823571D02*
X152087142Y-89323571D01*
X152587142Y-90395000D01*
X153087142Y-89323571D01*
X153087142Y-90823571D01*
X154444285Y-90823571D02*
X154444285Y-90037857D01*
X154372857Y-89895000D01*
X154230000Y-89823571D01*
X153944285Y-89823571D01*
X153801428Y-89895000D01*
X154444285Y-90752142D02*
X154301428Y-90823571D01*
X153944285Y-90823571D01*
X153801428Y-90752142D01*
X153730000Y-90609285D01*
X153730000Y-90466428D01*
X153801428Y-90323571D01*
X153944285Y-90252142D01*
X154301428Y-90252142D01*
X154444285Y-90180714D01*
X155158571Y-89823571D02*
X155158571Y-90823571D01*
X155158571Y-89966428D02*
X155230000Y-89895000D01*
X155372857Y-89823571D01*
X155587142Y-89823571D01*
X155730000Y-89895000D01*
X155801428Y-90037857D01*
X155801428Y-90823571D01*
X156515714Y-89823571D02*
X156515714Y-90823571D01*
X156515714Y-89966428D02*
X156587142Y-89895000D01*
X156729999Y-89823571D01*
X156944285Y-89823571D01*
X157087142Y-89895000D01*
X157158571Y-90037857D01*
X157158571Y-90823571D01*
X140122857Y-93230714D02*
X140051428Y-93302142D01*
X139837142Y-93373571D01*
X139694285Y-93373571D01*
X139480000Y-93302142D01*
X139337142Y-93159285D01*
X139265714Y-93016428D01*
X139194285Y-92730714D01*
X139194285Y-92516428D01*
X139265714Y-92230714D01*
X139337142Y-92087857D01*
X139480000Y-91945000D01*
X139694285Y-91873571D01*
X139837142Y-91873571D01*
X140051428Y-91945000D01*
X140122857Y-92016428D01*
X140980000Y-93373571D02*
X140837142Y-93302142D01*
X140765714Y-93230714D01*
X140694285Y-93087857D01*
X140694285Y-92659285D01*
X140765714Y-92516428D01*
X140837142Y-92445000D01*
X140980000Y-92373571D01*
X141194285Y-92373571D01*
X141337142Y-92445000D01*
X141408571Y-92516428D01*
X141480000Y-92659285D01*
X141480000Y-93087857D01*
X141408571Y-93230714D01*
X141337142Y-93302142D01*
X141194285Y-93373571D01*
X140980000Y-93373571D01*
X142122857Y-93373571D02*
X142122857Y-92373571D01*
X142122857Y-92659285D02*
X142194285Y-92516428D01*
X142265714Y-92445000D01*
X142408571Y-92373571D01*
X142551428Y-92373571D01*
X143622857Y-93302142D02*
X143480000Y-93373571D01*
X143194285Y-93373571D01*
X143051428Y-93302142D01*
X142980000Y-93159285D01*
X142980000Y-92587857D01*
X143051428Y-92445000D01*
X143194285Y-92373571D01*
X143480000Y-92373571D01*
X143622857Y-92445000D01*
X143694285Y-92587857D01*
X143694285Y-92730714D01*
X142980000Y-92873571D01*
X144194285Y-92373571D02*
X144551428Y-93373571D01*
X144908571Y-92373571D02*
X144551428Y-93373571D01*
X144408571Y-93730714D01*
X144337142Y-93802142D01*
X144194285Y-93873571D01*
X147480000Y-93230714D02*
X147408571Y-93302142D01*
X147194285Y-93373571D01*
X147051428Y-93373571D01*
X146837142Y-93302142D01*
X146694285Y-93159285D01*
X146622857Y-93016428D01*
X146551428Y-92730714D01*
X146551428Y-92516428D01*
X146622857Y-92230714D01*
X146694285Y-92087857D01*
X146837142Y-91945000D01*
X147051428Y-91873571D01*
X147194285Y-91873571D01*
X147408571Y-91945000D01*
X147480000Y-92016428D01*
X148337142Y-93373571D02*
X148194285Y-93302142D01*
X148122857Y-93230714D01*
X148051428Y-93087857D01*
X148051428Y-92659285D01*
X148122857Y-92516428D01*
X148194285Y-92445000D01*
X148337142Y-92373571D01*
X148551428Y-92373571D01*
X148694285Y-92445000D01*
X148765714Y-92516428D01*
X148837142Y-92659285D01*
X148837142Y-93087857D01*
X148765714Y-93230714D01*
X148694285Y-93302142D01*
X148551428Y-93373571D01*
X148337142Y-93373571D01*
X150122857Y-93302142D02*
X149980000Y-93373571D01*
X149694285Y-93373571D01*
X149551428Y-93302142D01*
X149480000Y-93230714D01*
X149408571Y-93087857D01*
X149408571Y-92659285D01*
X149480000Y-92516428D01*
X149551428Y-92445000D01*
X149694285Y-92373571D01*
X149980000Y-92373571D01*
X150122857Y-92445000D01*
X150765714Y-93373571D02*
X150765714Y-91873571D01*
X151408571Y-93373571D02*
X151408571Y-92587857D01*
X151337142Y-92445000D01*
X151194285Y-92373571D01*
X150980000Y-92373571D01*
X150837142Y-92445000D01*
X150765714Y-92516428D01*
X152122857Y-93373571D02*
X152122857Y-92373571D01*
X152122857Y-92659285D02*
X152194285Y-92516428D01*
X152265714Y-92445000D01*
X152408571Y-92373571D01*
X152551428Y-92373571D01*
X153694285Y-93373571D02*
X153694285Y-92587857D01*
X153622857Y-92445000D01*
X153480000Y-92373571D01*
X153194285Y-92373571D01*
X153051428Y-92445000D01*
X153694285Y-93302142D02*
X153551428Y-93373571D01*
X153194285Y-93373571D01*
X153051428Y-93302142D01*
X152980000Y-93159285D01*
X152980000Y-93016428D01*
X153051428Y-92873571D01*
X153194285Y-92802142D01*
X153551428Y-92802142D01*
X153694285Y-92730714D01*
X154408571Y-92373571D02*
X154408571Y-93373571D01*
X154408571Y-92516428D02*
X154480000Y-92445000D01*
X154622857Y-92373571D01*
X154837142Y-92373571D01*
X154980000Y-92445000D01*
X155051428Y-92587857D01*
X155051428Y-93373571D01*
X155765714Y-92802142D02*
X156908571Y-92802142D01*
X158337142Y-93373571D02*
X157622857Y-93373571D01*
X157622857Y-91873571D01*
X159408571Y-93302142D02*
X159265714Y-93373571D01*
X158980000Y-93373571D01*
X158837142Y-93302142D01*
X158765714Y-93159285D01*
X158765714Y-92587857D01*
X158837142Y-92445000D01*
X158980000Y-92373571D01*
X159265714Y-92373571D01*
X159408571Y-92445000D01*
X159480000Y-92587857D01*
X159480000Y-92730714D01*
X158765714Y-92873571D01*
X160122857Y-92373571D02*
X160122857Y-93873571D01*
X160122857Y-92445000D02*
X160265714Y-92373571D01*
X160551428Y-92373571D01*
X160694285Y-92445000D01*
X160765714Y-92516428D01*
X160837142Y-92659285D01*
X160837142Y-93087857D01*
X160765714Y-93230714D01*
X160694285Y-93302142D01*
X160551428Y-93373571D01*
X160265714Y-93373571D01*
X160122857Y-93302142D01*
X161480000Y-93373571D02*
X161480000Y-92373571D01*
X161480000Y-91873571D02*
X161408571Y-91945000D01*
X161480000Y-92016428D01*
X161551428Y-91945000D01*
X161480000Y-91873571D01*
X161480000Y-92016428D01*
X162051428Y-92373571D02*
X162837142Y-92373571D01*
X162051428Y-93373571D01*
X162837142Y-93373571D01*
X178875714Y-45970000D02*
X179590000Y-45970000D01*
X178732857Y-46398571D02*
X179232857Y-44898571D01*
X179732857Y-46398571D01*
X180232857Y-46398571D02*
X180232857Y-44898571D01*
X181804285Y-46398571D02*
X181304285Y-45684285D01*
X180947142Y-46398571D02*
X180947142Y-44898571D01*
X181518571Y-44898571D01*
X181661428Y-44970000D01*
X181732857Y-45041428D01*
X181804285Y-45184285D01*
X181804285Y-45398571D01*
X181732857Y-45541428D01*
X181661428Y-45612857D01*
X181518571Y-45684285D01*
X180947142Y-45684285D01*
X120455714Y-45612857D02*
X120670000Y-45684285D01*
X120741428Y-45755714D01*
X120812857Y-45898571D01*
X120812857Y-46112857D01*
X120741428Y-46255714D01*
X120670000Y-46327142D01*
X120527142Y-46398571D01*
X119955714Y-46398571D01*
X119955714Y-44898571D01*
X120455714Y-44898571D01*
X120598571Y-44970000D01*
X120670000Y-45041428D01*
X120741428Y-45184285D01*
X120741428Y-45327142D01*
X120670000Y-45470000D01*
X120598571Y-45541428D01*
X120455714Y-45612857D01*
X119955714Y-45612857D01*
X121455714Y-46398571D02*
X121455714Y-44898571D01*
X121955714Y-45970000D01*
X122455714Y-44898571D01*
X122455714Y-46398571D01*
X123098571Y-46327142D02*
X123312857Y-46398571D01*
X123670000Y-46398571D01*
X123812857Y-46327142D01*
X123884285Y-46255714D01*
X123955714Y-46112857D01*
X123955714Y-45970000D01*
X123884285Y-45827142D01*
X123812857Y-45755714D01*
X123670000Y-45684285D01*
X123384285Y-45612857D01*
X123241428Y-45541428D01*
X123170000Y-45470000D01*
X123098571Y-45327142D01*
X123098571Y-45184285D01*
X123170000Y-45041428D01*
X123241428Y-44970000D01*
X123384285Y-44898571D01*
X123741428Y-44898571D01*
X123955714Y-44970000D01*
D11*
G04 #@! TO.C,J1*
X124810000Y-60660000D02*
X177810000Y-60660000D01*
X177810000Y-60660000D02*
X177810000Y-82660000D01*
X177810000Y-82660000D02*
X124810000Y-82660000D01*
X124810000Y-82660000D02*
X124810000Y-60660000D01*
G04 #@! TO.C,U1*
X144270000Y-54070000D02*
X144270000Y-52070000D01*
X125270000Y-54070000D02*
X144270000Y-54070000D01*
X125270000Y-41070000D02*
X125270000Y-54070000D01*
X144270000Y-41070000D02*
X125270000Y-41070000D01*
X144270000Y-52070000D02*
X144270000Y-41070000D01*
G04 #@! TO.C,U2*
X177290000Y-52070000D02*
X177290000Y-41070000D01*
X177290000Y-41070000D02*
X158290000Y-41070000D01*
X158290000Y-41070000D02*
X158290000Y-54070000D01*
X158290000Y-54070000D02*
X177290000Y-54070000D01*
X177290000Y-54070000D02*
X177290000Y-52070000D01*
G04 #@! TO.C,J1*
X126666666Y-83272380D02*
X126666666Y-83986666D01*
X126619047Y-84129523D01*
X126523809Y-84224761D01*
X126380952Y-84272380D01*
X126285714Y-84272380D01*
X127666666Y-84272380D02*
X127095238Y-84272380D01*
X127380952Y-84272380D02*
X127380952Y-83272380D01*
X127285714Y-83415238D01*
X127190476Y-83510476D01*
X127095238Y-83558095D01*
G04 #@! TO.C,U1*
X134874095Y-55332380D02*
X134874095Y-56141904D01*
X134921714Y-56237142D01*
X134969333Y-56284761D01*
X135064571Y-56332380D01*
X135255047Y-56332380D01*
X135350285Y-56284761D01*
X135397904Y-56237142D01*
X135445523Y-56141904D01*
X135445523Y-55332380D01*
X136445523Y-56332380D02*
X135874095Y-56332380D01*
X136159809Y-56332380D02*
X136159809Y-55332380D01*
X136064571Y-55475238D01*
X135969333Y-55570476D01*
X135874095Y-55618095D01*
G04 #@! TO.C,U2*
X167894095Y-55332380D02*
X167894095Y-56141904D01*
X167941714Y-56237142D01*
X167989333Y-56284761D01*
X168084571Y-56332380D01*
X168275047Y-56332380D01*
X168370285Y-56284761D01*
X168417904Y-56237142D01*
X168465523Y-56141904D01*
X168465523Y-55332380D01*
X168894095Y-55427619D02*
X168941714Y-55380000D01*
X169036952Y-55332380D01*
X169275047Y-55332380D01*
X169370285Y-55380000D01*
X169417904Y-55427619D01*
X169465523Y-55522857D01*
X169465523Y-55618095D01*
X169417904Y-55760952D01*
X168846476Y-56332380D01*
X169465523Y-56332380D01*
G04 #@! TD*
M02*
