G04 #@! TF.GenerationSoftware,KiCad,Pcbnew,5.0.2-bee76a0~70~ubuntu18.04.1*
G04 #@! TF.CreationDate,2019-02-09T12:58:29-05:00*
G04 #@! TF.ProjectId,interface,696e7465-7266-4616-9365-2e6b69636164,rev?*
G04 #@! TF.SameCoordinates,Original*
G04 #@! TF.FileFunction,Legend,Bot*
G04 #@! TF.FilePolarity,Positive*
%FSLAX46Y46*%
G04 Gerber Fmt 4.6, Leading zero omitted, Abs format (unit mm)*
G04 Created by KiCad (PCBNEW 5.0.2-bee76a0~70~ubuntu18.04.1) date Sat 09 Feb 2019 12:58:29 PM EST*
%MOMM*%
%LPD*%
G01*
G04 APERTURE LIST*
%ADD10C,0.150000*%
G04 APERTURE END LIST*
D10*
G04 #@! TO.C,U1*
X35666000Y-108204000D02*
X35666000Y-119204000D01*
X35666000Y-119204000D02*
X16666000Y-119204000D01*
X16666000Y-119204000D02*
X16666000Y-106204000D01*
X16666000Y-106204000D02*
X35666000Y-106204000D01*
X35666000Y-106204000D02*
X35666000Y-108204000D01*
G04 #@! TO.C,J3*
X75363500Y-96876500D02*
X75363500Y-74876500D01*
X22363500Y-96876500D02*
X75363500Y-96876500D01*
X22363500Y-74876500D02*
X22363500Y-96876500D01*
X75363500Y-74876500D02*
X22363500Y-74876500D01*
G04 #@! TO.C,U1*
X27793904Y-103846380D02*
X27793904Y-104655904D01*
X27746285Y-104751142D01*
X27698666Y-104798761D01*
X27603428Y-104846380D01*
X27412952Y-104846380D01*
X27317714Y-104798761D01*
X27270095Y-104751142D01*
X27222476Y-104655904D01*
X27222476Y-103846380D01*
X26222476Y-104846380D02*
X26793904Y-104846380D01*
X26508190Y-104846380D02*
X26508190Y-103846380D01*
X26603428Y-103989238D01*
X26698666Y-104084476D01*
X26793904Y-104132095D01*
G04 #@! TO.C,J3*
X73506833Y-97488880D02*
X73506833Y-98203166D01*
X73554452Y-98346023D01*
X73649690Y-98441261D01*
X73792547Y-98488880D01*
X73887785Y-98488880D01*
X73125880Y-97488880D02*
X72506833Y-97488880D01*
X72840166Y-97869833D01*
X72697309Y-97869833D01*
X72602071Y-97917452D01*
X72554452Y-97965071D01*
X72506833Y-98060309D01*
X72506833Y-98298404D01*
X72554452Y-98393642D01*
X72602071Y-98441261D01*
X72697309Y-98488880D01*
X72983023Y-98488880D01*
X73078261Y-98441261D01*
X73125880Y-98393642D01*
G04 #@! TD*
M02*
