G04 #@! TF.GenerationSoftware,KiCad,Pcbnew,5.0.1-33cea8e~68~ubuntu18.04.1*
G04 #@! TF.CreationDate,2018-12-01T11:29:07-05:00*
G04 #@! TF.ProjectId,throttle,7468726F74746C652E6B696361645F70,rev?*
G04 #@! TF.SameCoordinates,Original*
G04 #@! TF.FileFunction,Legend,Top*
G04 #@! TF.FilePolarity,Positive*
%FSLAX46Y46*%
G04 Gerber Fmt 4.6, Leading zero omitted, Abs format (unit mm)*
G04 Created by KiCad (PCBNEW 5.0.1-33cea8e~68~ubuntu18.04.1) date Sat 01 Dec 2018 11:29:07 AM EST*
%MOMM*%
%LPD*%
G01*
G04 APERTURE LIST*
%ADD10C,0.190500*%
%ADD11C,0.203200*%
%ADD12C,0.152400*%
%ADD13C,0.120000*%
%ADD14C,0.150000*%
%ADD15C,0.500000*%
%ADD16C,0.100000*%
%ADD17C,0.200000*%
G04 APERTURE END LIST*
D10*
X103061809Y-93856523D02*
X102657047Y-93856523D01*
X102657047Y-93006523D01*
X103345142Y-93411285D02*
X103628476Y-93411285D01*
X103749904Y-93856523D02*
X103345142Y-93856523D01*
X103345142Y-93006523D01*
X103749904Y-93006523D01*
X104114190Y-93856523D02*
X104114190Y-93006523D01*
X104316571Y-93006523D01*
X104438000Y-93047000D01*
X104518952Y-93127952D01*
X104559428Y-93208904D01*
X104599904Y-93370809D01*
X104599904Y-93492238D01*
X104559428Y-93654142D01*
X104518952Y-93735095D01*
X104438000Y-93816047D01*
X104316571Y-93856523D01*
X104114190Y-93856523D01*
X105409428Y-93856523D02*
X104923714Y-93856523D01*
X105166571Y-93856523D02*
X105166571Y-93006523D01*
X105085619Y-93127952D01*
X105004666Y-93208904D01*
X104923714Y-93249380D01*
X101537809Y-88141523D02*
X101133047Y-88141523D01*
X101133047Y-87291523D01*
X101821142Y-87696285D02*
X102104476Y-87696285D01*
X102225904Y-88141523D02*
X101821142Y-88141523D01*
X101821142Y-87291523D01*
X102225904Y-87291523D01*
X102590190Y-88141523D02*
X102590190Y-87291523D01*
X102792571Y-87291523D01*
X102914000Y-87332000D01*
X102994952Y-87412952D01*
X103035428Y-87493904D01*
X103075904Y-87655809D01*
X103075904Y-87777238D01*
X103035428Y-87939142D01*
X102994952Y-88020095D01*
X102914000Y-88101047D01*
X102792571Y-88141523D01*
X102590190Y-88141523D01*
X103399714Y-87372476D02*
X103440190Y-87332000D01*
X103521142Y-87291523D01*
X103723523Y-87291523D01*
X103804476Y-87332000D01*
X103844952Y-87372476D01*
X103885428Y-87453428D01*
X103885428Y-87534380D01*
X103844952Y-87655809D01*
X103359238Y-88141523D01*
X103885428Y-88141523D01*
X121782428Y-88395523D02*
X121782428Y-87545523D01*
X121984809Y-87545523D01*
X122106238Y-87586000D01*
X122187190Y-87666952D01*
X122227666Y-87747904D01*
X122268142Y-87909809D01*
X122268142Y-88031238D01*
X122227666Y-88193142D01*
X122187190Y-88274095D01*
X122106238Y-88355047D01*
X121984809Y-88395523D01*
X121782428Y-88395523D01*
X122632428Y-88395523D02*
X122632428Y-87545523D01*
X122915761Y-88152666D01*
X123199095Y-87545523D01*
X123199095Y-88395523D01*
X123765761Y-87545523D02*
X123927666Y-87545523D01*
X124008619Y-87586000D01*
X124089571Y-87666952D01*
X124130047Y-87828857D01*
X124130047Y-88112190D01*
X124089571Y-88274095D01*
X124008619Y-88355047D01*
X123927666Y-88395523D01*
X123765761Y-88395523D01*
X123684809Y-88355047D01*
X123603857Y-88274095D01*
X123563380Y-88112190D01*
X123563380Y-87828857D01*
X123603857Y-87666952D01*
X123684809Y-87586000D01*
X123765761Y-87545523D01*
X147300333Y-59595773D02*
X147017000Y-59191011D01*
X146814619Y-59595773D02*
X146814619Y-58745773D01*
X147138428Y-58745773D01*
X147219380Y-58786250D01*
X147259857Y-58826726D01*
X147300333Y-58907678D01*
X147300333Y-59029107D01*
X147259857Y-59110059D01*
X147219380Y-59150535D01*
X147138428Y-59191011D01*
X146814619Y-59191011D01*
X147543190Y-58745773D02*
X148028904Y-58745773D01*
X147786047Y-59595773D02*
X147786047Y-58745773D01*
X148312238Y-59595773D02*
X148312238Y-58745773D01*
X148514619Y-58745773D01*
X148636047Y-58786250D01*
X148717000Y-58867202D01*
X148757476Y-58948154D01*
X148797952Y-59110059D01*
X148797952Y-59231488D01*
X148757476Y-59393392D01*
X148717000Y-59474345D01*
X148636047Y-59555297D01*
X148514619Y-59595773D01*
X148312238Y-59595773D01*
X149809857Y-59595773D02*
X149809857Y-58745773D01*
X150174142Y-59555297D02*
X150295571Y-59595773D01*
X150497952Y-59595773D01*
X150578904Y-59555297D01*
X150619380Y-59514821D01*
X150659857Y-59433869D01*
X150659857Y-59352916D01*
X150619380Y-59271964D01*
X150578904Y-59231488D01*
X150497952Y-59191011D01*
X150336047Y-59150535D01*
X150255095Y-59110059D01*
X150214619Y-59069583D01*
X150174142Y-58988630D01*
X150174142Y-58907678D01*
X150214619Y-58826726D01*
X150255095Y-58786250D01*
X150336047Y-58745773D01*
X150538428Y-58745773D01*
X150659857Y-58786250D01*
X145013428Y-60616035D02*
X145296761Y-60616035D01*
X145418190Y-61061273D02*
X145013428Y-61061273D01*
X145013428Y-60211273D01*
X145418190Y-60211273D01*
X145742000Y-61020797D02*
X145863428Y-61061273D01*
X146065809Y-61061273D01*
X146146761Y-61020797D01*
X146187238Y-60980321D01*
X146227714Y-60899369D01*
X146227714Y-60818416D01*
X146187238Y-60737464D01*
X146146761Y-60696988D01*
X146065809Y-60656511D01*
X145903904Y-60616035D01*
X145822952Y-60575559D01*
X145782476Y-60535083D01*
X145742000Y-60454130D01*
X145742000Y-60373178D01*
X145782476Y-60292226D01*
X145822952Y-60251750D01*
X145903904Y-60211273D01*
X146106285Y-60211273D01*
X146227714Y-60251750D01*
X146470571Y-60211273D02*
X146956285Y-60211273D01*
X146713428Y-61061273D02*
X146713428Y-60211273D01*
X147401523Y-60211273D02*
X147563428Y-60211273D01*
X147644380Y-60251750D01*
X147725333Y-60332702D01*
X147765809Y-60494607D01*
X147765809Y-60777940D01*
X147725333Y-60939845D01*
X147644380Y-61020797D01*
X147563428Y-61061273D01*
X147401523Y-61061273D01*
X147320571Y-61020797D01*
X147239619Y-60939845D01*
X147199142Y-60777940D01*
X147199142Y-60494607D01*
X147239619Y-60332702D01*
X147320571Y-60251750D01*
X147401523Y-60211273D01*
X148130095Y-61061273D02*
X148130095Y-60211273D01*
X148453904Y-60211273D01*
X148534857Y-60251750D01*
X148575333Y-60292226D01*
X148615809Y-60373178D01*
X148615809Y-60494607D01*
X148575333Y-60575559D01*
X148534857Y-60616035D01*
X148453904Y-60656511D01*
X148130095Y-60656511D01*
X149911047Y-60616035D02*
X150032476Y-60656511D01*
X150072952Y-60696988D01*
X150113428Y-60777940D01*
X150113428Y-60899369D01*
X150072952Y-60980321D01*
X150032476Y-61020797D01*
X149951523Y-61061273D01*
X149627714Y-61061273D01*
X149627714Y-60211273D01*
X149911047Y-60211273D01*
X149992000Y-60251750D01*
X150032476Y-60292226D01*
X150072952Y-60373178D01*
X150072952Y-60454130D01*
X150032476Y-60535083D01*
X149992000Y-60575559D01*
X149911047Y-60616035D01*
X149627714Y-60616035D01*
X150639619Y-60211273D02*
X150801523Y-60211273D01*
X150882476Y-60251750D01*
X150963428Y-60332702D01*
X151003904Y-60494607D01*
X151003904Y-60777940D01*
X150963428Y-60939845D01*
X150882476Y-61020797D01*
X150801523Y-61061273D01*
X150639619Y-61061273D01*
X150558666Y-61020797D01*
X150477714Y-60939845D01*
X150437238Y-60777940D01*
X150437238Y-60494607D01*
X150477714Y-60332702D01*
X150558666Y-60251750D01*
X150639619Y-60211273D01*
X151246761Y-60211273D02*
X151732476Y-60211273D01*
X151489619Y-61061273D02*
X151489619Y-60211273D01*
X151975333Y-61020797D02*
X152096761Y-61061273D01*
X152299142Y-61061273D01*
X152380095Y-61020797D01*
X152420571Y-60980321D01*
X152461047Y-60899369D01*
X152461047Y-60818416D01*
X152420571Y-60737464D01*
X152380095Y-60696988D01*
X152299142Y-60656511D01*
X152137238Y-60616035D01*
X152056285Y-60575559D01*
X152015809Y-60535083D01*
X151975333Y-60454130D01*
X151975333Y-60373178D01*
X152015809Y-60292226D01*
X152056285Y-60251750D01*
X152137238Y-60211273D01*
X152339619Y-60211273D01*
X152461047Y-60251750D01*
X112800333Y-93775571D02*
X112759857Y-93816047D01*
X112638428Y-93856523D01*
X112557476Y-93856523D01*
X112436047Y-93816047D01*
X112355095Y-93735095D01*
X112314619Y-93654142D01*
X112274142Y-93492238D01*
X112274142Y-93370809D01*
X112314619Y-93208904D01*
X112355095Y-93127952D01*
X112436047Y-93047000D01*
X112557476Y-93006523D01*
X112638428Y-93006523D01*
X112759857Y-93047000D01*
X112800333Y-93087476D01*
X113124142Y-93613666D02*
X113528904Y-93613666D01*
X113043190Y-93856523D02*
X113326523Y-93006523D01*
X113609857Y-93856523D01*
X113893190Y-93856523D02*
X113893190Y-93006523D01*
X114378904Y-93856523D01*
X114378904Y-93006523D01*
X114783666Y-93856523D02*
X114783666Y-93006523D01*
X114783666Y-93411285D02*
X115269380Y-93411285D01*
X115269380Y-93856523D02*
X115269380Y-93006523D01*
X112012523Y-88314571D02*
X111972047Y-88355047D01*
X111850619Y-88395523D01*
X111769666Y-88395523D01*
X111648238Y-88355047D01*
X111567285Y-88274095D01*
X111526809Y-88193142D01*
X111486333Y-88031238D01*
X111486333Y-87909809D01*
X111526809Y-87747904D01*
X111567285Y-87666952D01*
X111648238Y-87586000D01*
X111769666Y-87545523D01*
X111850619Y-87545523D01*
X111972047Y-87586000D01*
X112012523Y-87626476D01*
X112336333Y-88152666D02*
X112741095Y-88152666D01*
X112255380Y-88395523D02*
X112538714Y-87545523D01*
X112822047Y-88395523D01*
X113105380Y-88395523D02*
X113105380Y-87545523D01*
X113591095Y-88395523D01*
X113591095Y-87545523D01*
X114400619Y-88395523D02*
X113995857Y-88395523D01*
X113995857Y-87545523D01*
X108002190Y-87545523D02*
X108487904Y-87545523D01*
X108245047Y-88395523D02*
X108245047Y-87545523D01*
X108771238Y-88071714D02*
X109418857Y-88071714D01*
X110309333Y-88395523D02*
X110026000Y-87990761D01*
X109823619Y-88395523D02*
X109823619Y-87545523D01*
X110147428Y-87545523D01*
X110228380Y-87586000D01*
X110268857Y-87626476D01*
X110309333Y-87707428D01*
X110309333Y-87828857D01*
X110268857Y-87909809D01*
X110228380Y-87950285D01*
X110147428Y-87990761D01*
X109823619Y-87990761D01*
X110633142Y-88355047D02*
X110754571Y-88395523D01*
X110956952Y-88395523D01*
X111037904Y-88355047D01*
X111078380Y-88314571D01*
X111118857Y-88233619D01*
X111118857Y-88152666D01*
X111078380Y-88071714D01*
X111037904Y-88031238D01*
X110956952Y-87990761D01*
X110795047Y-87950285D01*
X110714095Y-87909809D01*
X110673619Y-87869333D01*
X110633142Y-87788380D01*
X110633142Y-87707428D01*
X110673619Y-87626476D01*
X110714095Y-87586000D01*
X110795047Y-87545523D01*
X110997428Y-87545523D01*
X111118857Y-87586000D01*
X105670142Y-93133523D02*
X106155857Y-93133523D01*
X105913000Y-93983523D02*
X105913000Y-93133523D01*
X106439190Y-93659714D02*
X107086809Y-93659714D01*
X107896333Y-93983523D02*
X107491571Y-93983523D01*
X107491571Y-93133523D01*
X108139190Y-93943047D02*
X108260619Y-93983523D01*
X108463000Y-93983523D01*
X108543952Y-93943047D01*
X108584428Y-93902571D01*
X108624904Y-93821619D01*
X108624904Y-93740666D01*
X108584428Y-93659714D01*
X108543952Y-93619238D01*
X108463000Y-93578761D01*
X108301095Y-93538285D01*
X108220142Y-93497809D01*
X108179666Y-93457333D01*
X108139190Y-93376380D01*
X108139190Y-93295428D01*
X108179666Y-93214476D01*
X108220142Y-93174000D01*
X108301095Y-93133523D01*
X108503476Y-93133523D01*
X108624904Y-93174000D01*
X131848285Y-51184523D02*
X131564952Y-50779761D01*
X131362571Y-51184523D02*
X131362571Y-50334523D01*
X131686380Y-50334523D01*
X131767333Y-50375000D01*
X131807809Y-50415476D01*
X131848285Y-50496428D01*
X131848285Y-50617857D01*
X131807809Y-50698809D01*
X131767333Y-50739285D01*
X131686380Y-50779761D01*
X131362571Y-50779761D01*
X132091142Y-50334523D02*
X132576857Y-50334523D01*
X132334000Y-51184523D02*
X132334000Y-50334523D01*
X132860190Y-51184523D02*
X132860190Y-50334523D01*
X133062571Y-50334523D01*
X133184000Y-50375000D01*
X133264952Y-50455952D01*
X133305428Y-50536904D01*
X133345904Y-50698809D01*
X133345904Y-50820238D01*
X133305428Y-50982142D01*
X133264952Y-51063095D01*
X133184000Y-51144047D01*
X133062571Y-51184523D01*
X132860190Y-51184523D01*
X113504238Y-48604047D02*
X113625666Y-48644523D01*
X113828047Y-48644523D01*
X113909000Y-48604047D01*
X113949476Y-48563571D01*
X113989952Y-48482619D01*
X113989952Y-48401666D01*
X113949476Y-48320714D01*
X113909000Y-48280238D01*
X113828047Y-48239761D01*
X113666142Y-48199285D01*
X113585190Y-48158809D01*
X113544714Y-48118333D01*
X113504238Y-48037380D01*
X113504238Y-47956428D01*
X113544714Y-47875476D01*
X113585190Y-47835000D01*
X113666142Y-47794523D01*
X113868523Y-47794523D01*
X113989952Y-47835000D01*
X114313761Y-48604047D02*
X114435190Y-48644523D01*
X114637571Y-48644523D01*
X114718523Y-48604047D01*
X114759000Y-48563571D01*
X114799476Y-48482619D01*
X114799476Y-48401666D01*
X114759000Y-48320714D01*
X114718523Y-48280238D01*
X114637571Y-48239761D01*
X114475666Y-48199285D01*
X114394714Y-48158809D01*
X114354238Y-48118333D01*
X114313761Y-48037380D01*
X114313761Y-47956428D01*
X114354238Y-47875476D01*
X114394714Y-47835000D01*
X114475666Y-47794523D01*
X114678047Y-47794523D01*
X114799476Y-47835000D01*
X114961380Y-48725476D02*
X115609000Y-48725476D01*
X115811380Y-48199285D02*
X116094714Y-48199285D01*
X116216142Y-48644523D02*
X115811380Y-48644523D01*
X115811380Y-47794523D01*
X116216142Y-47794523D01*
X116539952Y-48604047D02*
X116661380Y-48644523D01*
X116863761Y-48644523D01*
X116944714Y-48604047D01*
X116985190Y-48563571D01*
X117025666Y-48482619D01*
X117025666Y-48401666D01*
X116985190Y-48320714D01*
X116944714Y-48280238D01*
X116863761Y-48239761D01*
X116701857Y-48199285D01*
X116620904Y-48158809D01*
X116580428Y-48118333D01*
X116539952Y-48037380D01*
X116539952Y-47956428D01*
X116580428Y-47875476D01*
X116620904Y-47835000D01*
X116701857Y-47794523D01*
X116904238Y-47794523D01*
X117025666Y-47835000D01*
X117268523Y-47794523D02*
X117754238Y-47794523D01*
X117511380Y-48644523D02*
X117511380Y-47794523D01*
X118199476Y-47794523D02*
X118361380Y-47794523D01*
X118442333Y-47835000D01*
X118523285Y-47915952D01*
X118563761Y-48077857D01*
X118563761Y-48361190D01*
X118523285Y-48523095D01*
X118442333Y-48604047D01*
X118361380Y-48644523D01*
X118199476Y-48644523D01*
X118118523Y-48604047D01*
X118037571Y-48523095D01*
X117997095Y-48361190D01*
X117997095Y-48077857D01*
X118037571Y-47915952D01*
X118118523Y-47835000D01*
X118199476Y-47794523D01*
X118928047Y-48644523D02*
X118928047Y-47794523D01*
X119251857Y-47794523D01*
X119332809Y-47835000D01*
X119373285Y-47875476D01*
X119413761Y-47956428D01*
X119413761Y-48077857D01*
X119373285Y-48158809D01*
X119332809Y-48199285D01*
X119251857Y-48239761D01*
X118928047Y-48239761D01*
X105609428Y-47461047D02*
X105730857Y-47501523D01*
X105933238Y-47501523D01*
X106014190Y-47461047D01*
X106054666Y-47420571D01*
X106095142Y-47339619D01*
X106095142Y-47258666D01*
X106054666Y-47177714D01*
X106014190Y-47137238D01*
X105933238Y-47096761D01*
X105771333Y-47056285D01*
X105690380Y-47015809D01*
X105649904Y-46975333D01*
X105609428Y-46894380D01*
X105609428Y-46813428D01*
X105649904Y-46732476D01*
X105690380Y-46692000D01*
X105771333Y-46651523D01*
X105973714Y-46651523D01*
X106095142Y-46692000D01*
X106418952Y-47461047D02*
X106540380Y-47501523D01*
X106742761Y-47501523D01*
X106823714Y-47461047D01*
X106864190Y-47420571D01*
X106904666Y-47339619D01*
X106904666Y-47258666D01*
X106864190Y-47177714D01*
X106823714Y-47137238D01*
X106742761Y-47096761D01*
X106580857Y-47056285D01*
X106499904Y-47015809D01*
X106459428Y-46975333D01*
X106418952Y-46894380D01*
X106418952Y-46813428D01*
X106459428Y-46732476D01*
X106499904Y-46692000D01*
X106580857Y-46651523D01*
X106783238Y-46651523D01*
X106904666Y-46692000D01*
X107066571Y-47582476D02*
X107714190Y-47582476D01*
X107916571Y-47501523D02*
X107916571Y-46651523D01*
X108280857Y-47461047D02*
X108402285Y-47501523D01*
X108604666Y-47501523D01*
X108685619Y-47461047D01*
X108726095Y-47420571D01*
X108766571Y-47339619D01*
X108766571Y-47258666D01*
X108726095Y-47177714D01*
X108685619Y-47137238D01*
X108604666Y-47096761D01*
X108442761Y-47056285D01*
X108361809Y-47015809D01*
X108321333Y-46975333D01*
X108280857Y-46894380D01*
X108280857Y-46813428D01*
X108321333Y-46732476D01*
X108361809Y-46692000D01*
X108442761Y-46651523D01*
X108645142Y-46651523D01*
X108766571Y-46692000D01*
X96616761Y-51144047D02*
X96738190Y-51184523D01*
X96940571Y-51184523D01*
X97021523Y-51144047D01*
X97062000Y-51103571D01*
X97102476Y-51022619D01*
X97102476Y-50941666D01*
X97062000Y-50860714D01*
X97021523Y-50820238D01*
X96940571Y-50779761D01*
X96778666Y-50739285D01*
X96697714Y-50698809D01*
X96657238Y-50658333D01*
X96616761Y-50577380D01*
X96616761Y-50496428D01*
X96657238Y-50415476D01*
X96697714Y-50375000D01*
X96778666Y-50334523D01*
X96981047Y-50334523D01*
X97102476Y-50375000D01*
X97426285Y-51144047D02*
X97547714Y-51184523D01*
X97750095Y-51184523D01*
X97831047Y-51144047D01*
X97871523Y-51103571D01*
X97912000Y-51022619D01*
X97912000Y-50941666D01*
X97871523Y-50860714D01*
X97831047Y-50820238D01*
X97750095Y-50779761D01*
X97588190Y-50739285D01*
X97507238Y-50698809D01*
X97466761Y-50658333D01*
X97426285Y-50577380D01*
X97426285Y-50496428D01*
X97466761Y-50415476D01*
X97507238Y-50375000D01*
X97588190Y-50334523D01*
X97790571Y-50334523D01*
X97912000Y-50375000D01*
X98073904Y-51265476D02*
X98721523Y-51265476D01*
X99207238Y-50739285D02*
X99328666Y-50779761D01*
X99369142Y-50820238D01*
X99409619Y-50901190D01*
X99409619Y-51022619D01*
X99369142Y-51103571D01*
X99328666Y-51144047D01*
X99247714Y-51184523D01*
X98923904Y-51184523D01*
X98923904Y-50334523D01*
X99207238Y-50334523D01*
X99288190Y-50375000D01*
X99328666Y-50415476D01*
X99369142Y-50496428D01*
X99369142Y-50577380D01*
X99328666Y-50658333D01*
X99288190Y-50698809D01*
X99207238Y-50739285D01*
X98923904Y-50739285D01*
X99935809Y-50334523D02*
X100097714Y-50334523D01*
X100178666Y-50375000D01*
X100259619Y-50455952D01*
X100300095Y-50617857D01*
X100300095Y-50901190D01*
X100259619Y-51063095D01*
X100178666Y-51144047D01*
X100097714Y-51184523D01*
X99935809Y-51184523D01*
X99854857Y-51144047D01*
X99773904Y-51063095D01*
X99733428Y-50901190D01*
X99733428Y-50617857D01*
X99773904Y-50455952D01*
X99854857Y-50375000D01*
X99935809Y-50334523D01*
X100542952Y-50334523D02*
X101028666Y-50334523D01*
X100785809Y-51184523D02*
X100785809Y-50334523D01*
X101271523Y-51144047D02*
X101392952Y-51184523D01*
X101595333Y-51184523D01*
X101676285Y-51144047D01*
X101716761Y-51103571D01*
X101757238Y-51022619D01*
X101757238Y-50941666D01*
X101716761Y-50860714D01*
X101676285Y-50820238D01*
X101595333Y-50779761D01*
X101433428Y-50739285D01*
X101352476Y-50698809D01*
X101312000Y-50658333D01*
X101271523Y-50577380D01*
X101271523Y-50496428D01*
X101312000Y-50415476D01*
X101352476Y-50375000D01*
X101433428Y-50334523D01*
X101635809Y-50334523D01*
X101757238Y-50375000D01*
X149982571Y-64011273D02*
X150468285Y-64011273D01*
X150225428Y-64861273D02*
X150225428Y-64011273D01*
X150751619Y-64861273D02*
X150751619Y-64011273D01*
X151115904Y-64861273D02*
X151115904Y-64416035D01*
X151075428Y-64335083D01*
X150994476Y-64294607D01*
X150873047Y-64294607D01*
X150792095Y-64335083D01*
X150751619Y-64375559D01*
X151520666Y-64861273D02*
X151520666Y-64294607D01*
X151520666Y-64456511D02*
X151561142Y-64375559D01*
X151601619Y-64335083D01*
X151682571Y-64294607D01*
X151763523Y-64294607D01*
X152168285Y-64861273D02*
X152087333Y-64820797D01*
X152046857Y-64780321D01*
X152006380Y-64699369D01*
X152006380Y-64456511D01*
X152046857Y-64375559D01*
X152087333Y-64335083D01*
X152168285Y-64294607D01*
X152289714Y-64294607D01*
X152370666Y-64335083D01*
X152411142Y-64375559D01*
X152451619Y-64456511D01*
X152451619Y-64699369D01*
X152411142Y-64780321D01*
X152370666Y-64820797D01*
X152289714Y-64861273D01*
X152168285Y-64861273D01*
X152694476Y-64294607D02*
X153018285Y-64294607D01*
X152815904Y-64011273D02*
X152815904Y-64739845D01*
X152856380Y-64820797D01*
X152937333Y-64861273D01*
X153018285Y-64861273D01*
X153180190Y-64294607D02*
X153504000Y-64294607D01*
X153301619Y-64011273D02*
X153301619Y-64739845D01*
X153342095Y-64820797D01*
X153423047Y-64861273D01*
X153504000Y-64861273D01*
X153908761Y-64861273D02*
X153827809Y-64820797D01*
X153787333Y-64739845D01*
X153787333Y-64011273D01*
X154556380Y-64820797D02*
X154475428Y-64861273D01*
X154313523Y-64861273D01*
X154232571Y-64820797D01*
X154192095Y-64739845D01*
X154192095Y-64416035D01*
X154232571Y-64335083D01*
X154313523Y-64294607D01*
X154475428Y-64294607D01*
X154556380Y-64335083D01*
X154596857Y-64416035D01*
X154596857Y-64496988D01*
X154192095Y-64577940D01*
X150630190Y-66286297D02*
X150751619Y-66326773D01*
X150954000Y-66326773D01*
X151034952Y-66286297D01*
X151075428Y-66245821D01*
X151115904Y-66164869D01*
X151115904Y-66083916D01*
X151075428Y-66002964D01*
X151034952Y-65962488D01*
X150954000Y-65922011D01*
X150792095Y-65881535D01*
X150711142Y-65841059D01*
X150670666Y-65800583D01*
X150630190Y-65719630D01*
X150630190Y-65638678D01*
X150670666Y-65557726D01*
X150711142Y-65517250D01*
X150792095Y-65476773D01*
X150994476Y-65476773D01*
X151115904Y-65517250D01*
X151804000Y-66286297D02*
X151723047Y-66326773D01*
X151561142Y-66326773D01*
X151480190Y-66286297D01*
X151439714Y-66205345D01*
X151439714Y-65881535D01*
X151480190Y-65800583D01*
X151561142Y-65760107D01*
X151723047Y-65760107D01*
X151804000Y-65800583D01*
X151844476Y-65881535D01*
X151844476Y-65962488D01*
X151439714Y-66043440D01*
X152208761Y-65760107D02*
X152208761Y-66326773D01*
X152208761Y-65841059D02*
X152249238Y-65800583D01*
X152330190Y-65760107D01*
X152451619Y-65760107D01*
X152532571Y-65800583D01*
X152573047Y-65881535D01*
X152573047Y-66326773D01*
X152937333Y-66286297D02*
X153018285Y-66326773D01*
X153180190Y-66326773D01*
X153261142Y-66286297D01*
X153301619Y-66205345D01*
X153301619Y-66164869D01*
X153261142Y-66083916D01*
X153180190Y-66043440D01*
X153058761Y-66043440D01*
X152977809Y-66002964D01*
X152937333Y-65922011D01*
X152937333Y-65881535D01*
X152977809Y-65800583D01*
X153058761Y-65760107D01*
X153180190Y-65760107D01*
X153261142Y-65800583D01*
X153989714Y-66286297D02*
X153908761Y-66326773D01*
X153746857Y-66326773D01*
X153665904Y-66286297D01*
X153625428Y-66205345D01*
X153625428Y-65881535D01*
X153665904Y-65800583D01*
X153746857Y-65760107D01*
X153908761Y-65760107D01*
X153989714Y-65800583D01*
X154030190Y-65881535D01*
X154030190Y-65962488D01*
X153625428Y-66043440D01*
X152067095Y-67792273D02*
X151662333Y-67792273D01*
X151662333Y-66942273D01*
X152674238Y-67751797D02*
X152593285Y-67792273D01*
X152431380Y-67792273D01*
X152350428Y-67751797D01*
X152309952Y-67670845D01*
X152309952Y-67347035D01*
X152350428Y-67266083D01*
X152431380Y-67225607D01*
X152593285Y-67225607D01*
X152674238Y-67266083D01*
X152714714Y-67347035D01*
X152714714Y-67427988D01*
X152309952Y-67508940D01*
X152957571Y-67225607D02*
X153281380Y-67225607D01*
X153079000Y-67792273D02*
X153079000Y-67063702D01*
X153119476Y-66982750D01*
X153200428Y-66942273D01*
X153281380Y-66942273D01*
X153443285Y-67225607D02*
X153767095Y-67225607D01*
X153564714Y-66942273D02*
X153564714Y-67670845D01*
X153605190Y-67751797D01*
X153686142Y-67792273D01*
X153767095Y-67792273D01*
X129408571Y-59283023D02*
X129894285Y-59283023D01*
X129651428Y-60133023D02*
X129651428Y-59283023D01*
X130177619Y-60133023D02*
X130177619Y-59283023D01*
X130541904Y-60133023D02*
X130541904Y-59687785D01*
X130501428Y-59606833D01*
X130420476Y-59566357D01*
X130299047Y-59566357D01*
X130218095Y-59606833D01*
X130177619Y-59647309D01*
X130946666Y-60133023D02*
X130946666Y-59566357D01*
X130946666Y-59728261D02*
X130987142Y-59647309D01*
X131027619Y-59606833D01*
X131108571Y-59566357D01*
X131189523Y-59566357D01*
X131594285Y-60133023D02*
X131513333Y-60092547D01*
X131472857Y-60052071D01*
X131432380Y-59971119D01*
X131432380Y-59728261D01*
X131472857Y-59647309D01*
X131513333Y-59606833D01*
X131594285Y-59566357D01*
X131715714Y-59566357D01*
X131796666Y-59606833D01*
X131837142Y-59647309D01*
X131877619Y-59728261D01*
X131877619Y-59971119D01*
X131837142Y-60052071D01*
X131796666Y-60092547D01*
X131715714Y-60133023D01*
X131594285Y-60133023D01*
X132120476Y-59566357D02*
X132444285Y-59566357D01*
X132241904Y-59283023D02*
X132241904Y-60011595D01*
X132282380Y-60092547D01*
X132363333Y-60133023D01*
X132444285Y-60133023D01*
X132606190Y-59566357D02*
X132930000Y-59566357D01*
X132727619Y-59283023D02*
X132727619Y-60011595D01*
X132768095Y-60092547D01*
X132849047Y-60133023D01*
X132930000Y-60133023D01*
X133334761Y-60133023D02*
X133253809Y-60092547D01*
X133213333Y-60011595D01*
X133213333Y-59283023D01*
X133982380Y-60092547D02*
X133901428Y-60133023D01*
X133739523Y-60133023D01*
X133658571Y-60092547D01*
X133618095Y-60011595D01*
X133618095Y-59687785D01*
X133658571Y-59606833D01*
X133739523Y-59566357D01*
X133901428Y-59566357D01*
X133982380Y-59606833D01*
X134022857Y-59687785D01*
X134022857Y-59768738D01*
X133618095Y-59849690D01*
X130056190Y-61558047D02*
X130177619Y-61598523D01*
X130380000Y-61598523D01*
X130460952Y-61558047D01*
X130501428Y-61517571D01*
X130541904Y-61436619D01*
X130541904Y-61355666D01*
X130501428Y-61274714D01*
X130460952Y-61234238D01*
X130380000Y-61193761D01*
X130218095Y-61153285D01*
X130137142Y-61112809D01*
X130096666Y-61072333D01*
X130056190Y-60991380D01*
X130056190Y-60910428D01*
X130096666Y-60829476D01*
X130137142Y-60789000D01*
X130218095Y-60748523D01*
X130420476Y-60748523D01*
X130541904Y-60789000D01*
X131230000Y-61558047D02*
X131149047Y-61598523D01*
X130987142Y-61598523D01*
X130906190Y-61558047D01*
X130865714Y-61477095D01*
X130865714Y-61153285D01*
X130906190Y-61072333D01*
X130987142Y-61031857D01*
X131149047Y-61031857D01*
X131230000Y-61072333D01*
X131270476Y-61153285D01*
X131270476Y-61234238D01*
X130865714Y-61315190D01*
X131634761Y-61031857D02*
X131634761Y-61598523D01*
X131634761Y-61112809D02*
X131675238Y-61072333D01*
X131756190Y-61031857D01*
X131877619Y-61031857D01*
X131958571Y-61072333D01*
X131999047Y-61153285D01*
X131999047Y-61598523D01*
X132363333Y-61558047D02*
X132444285Y-61598523D01*
X132606190Y-61598523D01*
X132687142Y-61558047D01*
X132727619Y-61477095D01*
X132727619Y-61436619D01*
X132687142Y-61355666D01*
X132606190Y-61315190D01*
X132484761Y-61315190D01*
X132403809Y-61274714D01*
X132363333Y-61193761D01*
X132363333Y-61153285D01*
X132403809Y-61072333D01*
X132484761Y-61031857D01*
X132606190Y-61031857D01*
X132687142Y-61072333D01*
X133415714Y-61558047D02*
X133334761Y-61598523D01*
X133172857Y-61598523D01*
X133091904Y-61558047D01*
X133051428Y-61477095D01*
X133051428Y-61153285D01*
X133091904Y-61072333D01*
X133172857Y-61031857D01*
X133334761Y-61031857D01*
X133415714Y-61072333D01*
X133456190Y-61153285D01*
X133456190Y-61234238D01*
X133051428Y-61315190D01*
X131128809Y-63064023D02*
X130845476Y-62659261D01*
X130643095Y-63064023D02*
X130643095Y-62214023D01*
X130966904Y-62214023D01*
X131047857Y-62254500D01*
X131088333Y-62294976D01*
X131128809Y-62375928D01*
X131128809Y-62497357D01*
X131088333Y-62578309D01*
X131047857Y-62618785D01*
X130966904Y-62659261D01*
X130643095Y-62659261D01*
X131493095Y-63064023D02*
X131493095Y-62497357D01*
X131493095Y-62214023D02*
X131452619Y-62254500D01*
X131493095Y-62294976D01*
X131533571Y-62254500D01*
X131493095Y-62214023D01*
X131493095Y-62294976D01*
X132262142Y-62497357D02*
X132262142Y-63185452D01*
X132221666Y-63266404D01*
X132181190Y-63306880D01*
X132100238Y-63347357D01*
X131978809Y-63347357D01*
X131897857Y-63306880D01*
X132262142Y-63023547D02*
X132181190Y-63064023D01*
X132019285Y-63064023D01*
X131938333Y-63023547D01*
X131897857Y-62983071D01*
X131857380Y-62902119D01*
X131857380Y-62659261D01*
X131897857Y-62578309D01*
X131938333Y-62537833D01*
X132019285Y-62497357D01*
X132181190Y-62497357D01*
X132262142Y-62537833D01*
X132666904Y-63064023D02*
X132666904Y-62214023D01*
X133031190Y-63064023D02*
X133031190Y-62618785D01*
X132990714Y-62537833D01*
X132909761Y-62497357D01*
X132788333Y-62497357D01*
X132707380Y-62537833D01*
X132666904Y-62578309D01*
X133314523Y-62497357D02*
X133638333Y-62497357D01*
X133435952Y-62214023D02*
X133435952Y-62942595D01*
X133476428Y-63023547D01*
X133557380Y-63064023D01*
X133638333Y-63064023D01*
X96961476Y-65959869D02*
X97542047Y-65959869D01*
X97251761Y-66975869D02*
X97251761Y-65959869D01*
X97880714Y-66975869D02*
X97880714Y-65959869D01*
X98316142Y-66975869D02*
X98316142Y-66443678D01*
X98267761Y-66346916D01*
X98171000Y-66298535D01*
X98025857Y-66298535D01*
X97929095Y-66346916D01*
X97880714Y-66395297D01*
X98799952Y-66975869D02*
X98799952Y-66298535D01*
X98799952Y-66492059D02*
X98848333Y-66395297D01*
X98896714Y-66346916D01*
X98993476Y-66298535D01*
X99090238Y-66298535D01*
X99574047Y-66975869D02*
X99477285Y-66927488D01*
X99428904Y-66879107D01*
X99380523Y-66782345D01*
X99380523Y-66492059D01*
X99428904Y-66395297D01*
X99477285Y-66346916D01*
X99574047Y-66298535D01*
X99719190Y-66298535D01*
X99815952Y-66346916D01*
X99864333Y-66395297D01*
X99912714Y-66492059D01*
X99912714Y-66782345D01*
X99864333Y-66879107D01*
X99815952Y-66927488D01*
X99719190Y-66975869D01*
X99574047Y-66975869D01*
X100203000Y-66298535D02*
X100590047Y-66298535D01*
X100348142Y-65959869D02*
X100348142Y-66830726D01*
X100396523Y-66927488D01*
X100493285Y-66975869D01*
X100590047Y-66975869D01*
X100783571Y-66298535D02*
X101170619Y-66298535D01*
X100928714Y-65959869D02*
X100928714Y-66830726D01*
X100977095Y-66927488D01*
X101073857Y-66975869D01*
X101170619Y-66975869D01*
X101654428Y-66975869D02*
X101557666Y-66927488D01*
X101509285Y-66830726D01*
X101509285Y-65959869D01*
X102428523Y-66927488D02*
X102331761Y-66975869D01*
X102138238Y-66975869D01*
X102041476Y-66927488D01*
X101993095Y-66830726D01*
X101993095Y-66443678D01*
X102041476Y-66346916D01*
X102138238Y-66298535D01*
X102331761Y-66298535D01*
X102428523Y-66346916D01*
X102476904Y-66443678D01*
X102476904Y-66540440D01*
X101993095Y-66637202D01*
X104025095Y-66443678D02*
X104170238Y-66492059D01*
X104218619Y-66540440D01*
X104267000Y-66637202D01*
X104267000Y-66782345D01*
X104218619Y-66879107D01*
X104170238Y-66927488D01*
X104073476Y-66975869D01*
X103686428Y-66975869D01*
X103686428Y-65959869D01*
X104025095Y-65959869D01*
X104121857Y-66008250D01*
X104170238Y-66056630D01*
X104218619Y-66153392D01*
X104218619Y-66250154D01*
X104170238Y-66346916D01*
X104121857Y-66395297D01*
X104025095Y-66443678D01*
X103686428Y-66443678D01*
X104847571Y-66975869D02*
X104750809Y-66927488D01*
X104702428Y-66879107D01*
X104654047Y-66782345D01*
X104654047Y-66492059D01*
X104702428Y-66395297D01*
X104750809Y-66346916D01*
X104847571Y-66298535D01*
X104992714Y-66298535D01*
X105089476Y-66346916D01*
X105137857Y-66395297D01*
X105186238Y-66492059D01*
X105186238Y-66782345D01*
X105137857Y-66879107D01*
X105089476Y-66927488D01*
X104992714Y-66975869D01*
X104847571Y-66975869D01*
X106057095Y-66975869D02*
X106057095Y-66443678D01*
X106008714Y-66346916D01*
X105911952Y-66298535D01*
X105718428Y-66298535D01*
X105621666Y-66346916D01*
X106057095Y-66927488D02*
X105960333Y-66975869D01*
X105718428Y-66975869D01*
X105621666Y-66927488D01*
X105573285Y-66830726D01*
X105573285Y-66733964D01*
X105621666Y-66637202D01*
X105718428Y-66588821D01*
X105960333Y-66588821D01*
X106057095Y-66540440D01*
X106540904Y-66975869D02*
X106540904Y-66298535D01*
X106540904Y-66492059D02*
X106589285Y-66395297D01*
X106637666Y-66346916D01*
X106734428Y-66298535D01*
X106831190Y-66298535D01*
X107605285Y-66975869D02*
X107605285Y-65959869D01*
X107605285Y-66927488D02*
X107508523Y-66975869D01*
X107315000Y-66975869D01*
X107218238Y-66927488D01*
X107169857Y-66879107D01*
X107121476Y-66782345D01*
X107121476Y-66492059D01*
X107169857Y-66395297D01*
X107218238Y-66346916D01*
X107315000Y-66298535D01*
X107508523Y-66298535D01*
X107605285Y-66346916D01*
X100952904Y-68690369D02*
X100614238Y-68206559D01*
X100372333Y-68690369D02*
X100372333Y-67674369D01*
X100759380Y-67674369D01*
X100856142Y-67722750D01*
X100904523Y-67771130D01*
X100952904Y-67867892D01*
X100952904Y-68013035D01*
X100904523Y-68109797D01*
X100856142Y-68158178D01*
X100759380Y-68206559D01*
X100372333Y-68206559D01*
X101388333Y-68158178D02*
X101727000Y-68158178D01*
X101872142Y-68690369D02*
X101388333Y-68690369D01*
X101388333Y-67674369D01*
X101872142Y-67674369D01*
X102162428Y-67674369D02*
X102501095Y-68690369D01*
X102839761Y-67674369D01*
X103081666Y-67674369D02*
X103710619Y-67674369D01*
X103371952Y-68061416D01*
X103517095Y-68061416D01*
X103613857Y-68109797D01*
X103662238Y-68158178D01*
X103710619Y-68254940D01*
X103710619Y-68496845D01*
X103662238Y-68593607D01*
X103613857Y-68641988D01*
X103517095Y-68690369D01*
X103226809Y-68690369D01*
X103130047Y-68641988D01*
X103081666Y-68593607D01*
X104146047Y-68593607D02*
X104194428Y-68641988D01*
X104146047Y-68690369D01*
X104097666Y-68641988D01*
X104146047Y-68593607D01*
X104146047Y-68690369D01*
X105162047Y-68690369D02*
X104581476Y-68690369D01*
X104871761Y-68690369D02*
X104871761Y-67674369D01*
X104775000Y-67819511D01*
X104678238Y-67916273D01*
X104581476Y-67964654D01*
X97590428Y-70114583D02*
X98074238Y-70114583D01*
X97493666Y-70404869D02*
X97832333Y-69388869D01*
X98171000Y-70404869D01*
X98654809Y-70404869D02*
X98558047Y-70356488D01*
X98509666Y-70259726D01*
X98509666Y-69388869D01*
X99428904Y-70356488D02*
X99332142Y-70404869D01*
X99138619Y-70404869D01*
X99041857Y-70356488D01*
X98993476Y-70259726D01*
X98993476Y-69872678D01*
X99041857Y-69775916D01*
X99138619Y-69727535D01*
X99332142Y-69727535D01*
X99428904Y-69775916D01*
X99477285Y-69872678D01*
X99477285Y-69969440D01*
X98993476Y-70066202D01*
X99815952Y-70404869D02*
X100348142Y-69727535D01*
X99815952Y-69727535D02*
X100348142Y-70404869D01*
X101412523Y-69388869D02*
X101654428Y-70404869D01*
X101847952Y-69679154D01*
X102041476Y-70404869D01*
X102283380Y-69388869D01*
X103057476Y-70356488D02*
X102960714Y-70404869D01*
X102767190Y-70404869D01*
X102670428Y-70356488D01*
X102622047Y-70259726D01*
X102622047Y-69872678D01*
X102670428Y-69775916D01*
X102767190Y-69727535D01*
X102960714Y-69727535D01*
X103057476Y-69775916D01*
X103105857Y-69872678D01*
X103105857Y-69969440D01*
X102622047Y-70066202D01*
X103541285Y-69727535D02*
X103541285Y-70404869D01*
X103541285Y-69824297D02*
X103589666Y-69775916D01*
X103686428Y-69727535D01*
X103831571Y-69727535D01*
X103928333Y-69775916D01*
X103976714Y-69872678D01*
X103976714Y-70404869D01*
X104412142Y-70356488D02*
X104508904Y-70404869D01*
X104702428Y-70404869D01*
X104799190Y-70356488D01*
X104847571Y-70259726D01*
X104847571Y-70211345D01*
X104799190Y-70114583D01*
X104702428Y-70066202D01*
X104557285Y-70066202D01*
X104460523Y-70017821D01*
X104412142Y-69921059D01*
X104412142Y-69872678D01*
X104460523Y-69775916D01*
X104557285Y-69727535D01*
X104702428Y-69727535D01*
X104799190Y-69775916D01*
X105137857Y-69727535D02*
X105524904Y-69727535D01*
X105283000Y-69388869D02*
X105283000Y-70259726D01*
X105331380Y-70356488D01*
X105428142Y-70404869D01*
X105524904Y-70404869D01*
X105863571Y-70404869D02*
X105863571Y-69727535D01*
X105863571Y-69921059D02*
X105911952Y-69824297D01*
X105960333Y-69775916D01*
X106057095Y-69727535D01*
X106153857Y-69727535D01*
X106927952Y-69727535D02*
X106927952Y-70404869D01*
X106492523Y-69727535D02*
X106492523Y-70259726D01*
X106540904Y-70356488D01*
X106637666Y-70404869D01*
X106782809Y-70404869D01*
X106879571Y-70356488D01*
X106927952Y-70308107D01*
X107411761Y-69727535D02*
X107411761Y-70743535D01*
X107411761Y-69775916D02*
X107508523Y-69727535D01*
X107702047Y-69727535D01*
X107798809Y-69775916D01*
X107847190Y-69824297D01*
X107895571Y-69921059D01*
X107895571Y-70211345D01*
X107847190Y-70308107D01*
X107798809Y-70356488D01*
X107702047Y-70404869D01*
X107508523Y-70404869D01*
X107411761Y-70356488D01*
X98025857Y-71103369D02*
X98219380Y-71103369D01*
X98316142Y-71151750D01*
X98412904Y-71248511D01*
X98461285Y-71442035D01*
X98461285Y-71780702D01*
X98412904Y-71974226D01*
X98316142Y-72070988D01*
X98219380Y-72119369D01*
X98025857Y-72119369D01*
X97929095Y-72070988D01*
X97832333Y-71974226D01*
X97783952Y-71780702D01*
X97783952Y-71442035D01*
X97832333Y-71248511D01*
X97929095Y-71151750D01*
X98025857Y-71103369D01*
X99041857Y-72119369D02*
X98945095Y-72070988D01*
X98896714Y-71974226D01*
X98896714Y-71103369D01*
X99428904Y-72119369D02*
X99428904Y-71442035D01*
X99428904Y-71103369D02*
X99380523Y-71151750D01*
X99428904Y-71200130D01*
X99477285Y-71151750D01*
X99428904Y-71103369D01*
X99428904Y-71200130D01*
X99912714Y-71442035D02*
X99912714Y-72119369D01*
X99912714Y-71538797D02*
X99961095Y-71490416D01*
X100057857Y-71442035D01*
X100203000Y-71442035D01*
X100299761Y-71490416D01*
X100348142Y-71587178D01*
X100348142Y-72119369D01*
X101606047Y-71587178D02*
X101944714Y-71587178D01*
X102089857Y-72119369D02*
X101606047Y-72119369D01*
X101606047Y-71103369D01*
X102089857Y-71103369D01*
X102670428Y-72119369D02*
X102573666Y-72070988D01*
X102525285Y-71974226D01*
X102525285Y-71103369D01*
X103444523Y-72070988D02*
X103347761Y-72119369D01*
X103154238Y-72119369D01*
X103057476Y-72070988D01*
X103009095Y-71974226D01*
X103009095Y-71587178D01*
X103057476Y-71490416D01*
X103154238Y-71442035D01*
X103347761Y-71442035D01*
X103444523Y-71490416D01*
X103492904Y-71587178D01*
X103492904Y-71683940D01*
X103009095Y-71780702D01*
X104363761Y-72070988D02*
X104267000Y-72119369D01*
X104073476Y-72119369D01*
X103976714Y-72070988D01*
X103928333Y-72022607D01*
X103879952Y-71925845D01*
X103879952Y-71635559D01*
X103928333Y-71538797D01*
X103976714Y-71490416D01*
X104073476Y-71442035D01*
X104267000Y-71442035D01*
X104363761Y-71490416D01*
X104654047Y-71442035D02*
X105041095Y-71442035D01*
X104799190Y-71103369D02*
X104799190Y-71974226D01*
X104847571Y-72070988D01*
X104944333Y-72119369D01*
X105041095Y-72119369D01*
X105379761Y-72119369D02*
X105379761Y-71442035D01*
X105379761Y-71635559D02*
X105428142Y-71538797D01*
X105476523Y-71490416D01*
X105573285Y-71442035D01*
X105670047Y-71442035D01*
X106008714Y-72119369D02*
X106008714Y-71442035D01*
X106008714Y-71103369D02*
X105960333Y-71151750D01*
X106008714Y-71200130D01*
X106057095Y-71151750D01*
X106008714Y-71103369D01*
X106008714Y-71200130D01*
X106927952Y-72070988D02*
X106831190Y-72119369D01*
X106637666Y-72119369D01*
X106540904Y-72070988D01*
X106492523Y-72022607D01*
X106444142Y-71925845D01*
X106444142Y-71635559D01*
X106492523Y-71538797D01*
X106540904Y-71490416D01*
X106637666Y-71442035D01*
X106831190Y-71442035D01*
X106927952Y-71490416D01*
X98533857Y-73833869D02*
X98533857Y-72817869D01*
X98872523Y-73543583D01*
X99211190Y-72817869D01*
X99211190Y-73833869D01*
X99840142Y-73833869D02*
X99743380Y-73785488D01*
X99695000Y-73737107D01*
X99646619Y-73640345D01*
X99646619Y-73350059D01*
X99695000Y-73253297D01*
X99743380Y-73204916D01*
X99840142Y-73156535D01*
X99985285Y-73156535D01*
X100082047Y-73204916D01*
X100130428Y-73253297D01*
X100178809Y-73350059D01*
X100178809Y-73640345D01*
X100130428Y-73737107D01*
X100082047Y-73785488D01*
X99985285Y-73833869D01*
X99840142Y-73833869D01*
X100469095Y-73156535D02*
X100856142Y-73156535D01*
X100614238Y-72817869D02*
X100614238Y-73688726D01*
X100662619Y-73785488D01*
X100759380Y-73833869D01*
X100856142Y-73833869D01*
X101339952Y-73833869D02*
X101243190Y-73785488D01*
X101194809Y-73737107D01*
X101146428Y-73640345D01*
X101146428Y-73350059D01*
X101194809Y-73253297D01*
X101243190Y-73204916D01*
X101339952Y-73156535D01*
X101485095Y-73156535D01*
X101581857Y-73204916D01*
X101630238Y-73253297D01*
X101678619Y-73350059D01*
X101678619Y-73640345D01*
X101630238Y-73737107D01*
X101581857Y-73785488D01*
X101485095Y-73833869D01*
X101339952Y-73833869D01*
X102114047Y-73833869D02*
X102114047Y-73156535D01*
X102114047Y-73350059D02*
X102162428Y-73253297D01*
X102210809Y-73204916D01*
X102307571Y-73156535D01*
X102404333Y-73156535D01*
X102694619Y-73785488D02*
X102791380Y-73833869D01*
X102984904Y-73833869D01*
X103081666Y-73785488D01*
X103130047Y-73688726D01*
X103130047Y-73640345D01*
X103081666Y-73543583D01*
X102984904Y-73495202D01*
X102839761Y-73495202D01*
X102743000Y-73446821D01*
X102694619Y-73350059D01*
X102694619Y-73301678D01*
X102743000Y-73204916D01*
X102839761Y-73156535D01*
X102984904Y-73156535D01*
X103081666Y-73204916D01*
X103565476Y-73156535D02*
X103565476Y-74172535D01*
X103565476Y-73204916D02*
X103662238Y-73156535D01*
X103855761Y-73156535D01*
X103952523Y-73204916D01*
X104000904Y-73253297D01*
X104049285Y-73350059D01*
X104049285Y-73640345D01*
X104000904Y-73737107D01*
X103952523Y-73785488D01*
X103855761Y-73833869D01*
X103662238Y-73833869D01*
X103565476Y-73785488D01*
X104629857Y-73833869D02*
X104533095Y-73785488D01*
X104484714Y-73737107D01*
X104436333Y-73640345D01*
X104436333Y-73350059D01*
X104484714Y-73253297D01*
X104533095Y-73204916D01*
X104629857Y-73156535D01*
X104775000Y-73156535D01*
X104871761Y-73204916D01*
X104920142Y-73253297D01*
X104968523Y-73350059D01*
X104968523Y-73640345D01*
X104920142Y-73737107D01*
X104871761Y-73785488D01*
X104775000Y-73833869D01*
X104629857Y-73833869D01*
X105403952Y-73833869D02*
X105403952Y-73156535D01*
X105403952Y-73350059D02*
X105452333Y-73253297D01*
X105500714Y-73204916D01*
X105597476Y-73156535D01*
X105694238Y-73156535D01*
X105887761Y-73156535D02*
X106274809Y-73156535D01*
X106032904Y-72817869D02*
X106032904Y-73688726D01*
X106081285Y-73785488D01*
X106178047Y-73833869D01*
X106274809Y-73833869D01*
X106565095Y-73785488D02*
X106661857Y-73833869D01*
X106855380Y-73833869D01*
X106952142Y-73785488D01*
X107000523Y-73688726D01*
X107000523Y-73640345D01*
X106952142Y-73543583D01*
X106855380Y-73495202D01*
X106710238Y-73495202D01*
X106613476Y-73446821D01*
X106565095Y-73350059D01*
X106565095Y-73301678D01*
X106613476Y-73204916D01*
X106710238Y-73156535D01*
X106855380Y-73156535D01*
X106952142Y-73204916D01*
X101219000Y-75548369D02*
X101219000Y-74532369D01*
X101557666Y-75258083D01*
X101896333Y-74532369D01*
X101896333Y-75548369D01*
X102380142Y-75548369D02*
X102380142Y-74532369D01*
X102960714Y-75548369D02*
X102525285Y-74967797D01*
X102960714Y-74532369D02*
X102380142Y-75112940D01*
X103396142Y-75548369D02*
X103396142Y-74532369D01*
X103734809Y-74532369D02*
X104073476Y-75548369D01*
X104412142Y-74532369D01*
D11*
X131141651Y-93043828D02*
X131286794Y-93092209D01*
X131335175Y-93140590D01*
X131383556Y-93237352D01*
X131383556Y-93382495D01*
X131335175Y-93479257D01*
X131286794Y-93527638D01*
X131190032Y-93576019D01*
X130802984Y-93576019D01*
X130802984Y-92560019D01*
X131141651Y-92560019D01*
X131238413Y-92608400D01*
X131286794Y-92656780D01*
X131335175Y-92753542D01*
X131335175Y-92850304D01*
X131286794Y-92947066D01*
X131238413Y-92995447D01*
X131141651Y-93043828D01*
X130802984Y-93043828D01*
X132254413Y-92898685D02*
X132254413Y-93576019D01*
X131818984Y-92898685D02*
X131818984Y-93430876D01*
X131867365Y-93527638D01*
X131964127Y-93576019D01*
X132109270Y-93576019D01*
X132206032Y-93527638D01*
X132254413Y-93479257D01*
X133173651Y-93527638D02*
X133076889Y-93576019D01*
X132883365Y-93576019D01*
X132786603Y-93527638D01*
X132738222Y-93479257D01*
X132689841Y-93382495D01*
X132689841Y-93092209D01*
X132738222Y-92995447D01*
X132786603Y-92947066D01*
X132883365Y-92898685D01*
X133076889Y-92898685D01*
X133173651Y-92947066D01*
X133609080Y-93576019D02*
X133609080Y-92560019D01*
X133705841Y-93188971D02*
X133996127Y-93576019D01*
X133996127Y-92898685D02*
X133609080Y-93285733D01*
X131383556Y-95206457D02*
X131335175Y-95254838D01*
X131190032Y-95303219D01*
X131093270Y-95303219D01*
X130948127Y-95254838D01*
X130851365Y-95158076D01*
X130802984Y-95061314D01*
X130754603Y-94867790D01*
X130754603Y-94722647D01*
X130802984Y-94529123D01*
X130851365Y-94432361D01*
X130948127Y-94335600D01*
X131093270Y-94287219D01*
X131190032Y-94287219D01*
X131335175Y-94335600D01*
X131383556Y-94383980D01*
X131964127Y-95303219D02*
X131867365Y-95254838D01*
X131818984Y-95206457D01*
X131770603Y-95109695D01*
X131770603Y-94819409D01*
X131818984Y-94722647D01*
X131867365Y-94674266D01*
X131964127Y-94625885D01*
X132109270Y-94625885D01*
X132206032Y-94674266D01*
X132254413Y-94722647D01*
X132302794Y-94819409D01*
X132302794Y-95109695D01*
X132254413Y-95206457D01*
X132206032Y-95254838D01*
X132109270Y-95303219D01*
X131964127Y-95303219D01*
X132738222Y-94625885D02*
X132738222Y-95303219D01*
X132738222Y-94722647D02*
X132786603Y-94674266D01*
X132883365Y-94625885D01*
X133028508Y-94625885D01*
X133125270Y-94674266D01*
X133173651Y-94771028D01*
X133173651Y-95303219D01*
X133560699Y-94625885D02*
X133802603Y-95303219D01*
X134044508Y-94625885D01*
X134818603Y-95254838D02*
X134721841Y-95303219D01*
X134528318Y-95303219D01*
X134431556Y-95254838D01*
X134383175Y-95158076D01*
X134383175Y-94771028D01*
X134431556Y-94674266D01*
X134528318Y-94625885D01*
X134721841Y-94625885D01*
X134818603Y-94674266D01*
X134866984Y-94771028D01*
X134866984Y-94867790D01*
X134383175Y-94964552D01*
X135302413Y-95303219D02*
X135302413Y-94625885D01*
X135302413Y-94819409D02*
X135350794Y-94722647D01*
X135399175Y-94674266D01*
X135495937Y-94625885D01*
X135592699Y-94625885D01*
X135786222Y-94625885D02*
X136173270Y-94625885D01*
X135931365Y-94287219D02*
X135931365Y-95158076D01*
X135979746Y-95254838D01*
X136076508Y-95303219D01*
X136173270Y-95303219D01*
X136898984Y-95254838D02*
X136802222Y-95303219D01*
X136608699Y-95303219D01*
X136511937Y-95254838D01*
X136463556Y-95158076D01*
X136463556Y-94771028D01*
X136511937Y-94674266D01*
X136608699Y-94625885D01*
X136802222Y-94625885D01*
X136898984Y-94674266D01*
X136947365Y-94771028D01*
X136947365Y-94867790D01*
X136463556Y-94964552D01*
X137382794Y-95303219D02*
X137382794Y-94625885D01*
X137382794Y-94819409D02*
X137431175Y-94722647D01*
X137479556Y-94674266D01*
X137576318Y-94625885D01*
X137673080Y-94625885D01*
D12*
X149911974Y-72843756D02*
X149507212Y-72843756D01*
X149466736Y-73248518D01*
X149507212Y-73208042D01*
X149588164Y-73167566D01*
X149790545Y-73167566D01*
X149871498Y-73208042D01*
X149911974Y-73248518D01*
X149952450Y-73329471D01*
X149952450Y-73531852D01*
X149911974Y-73612804D01*
X149871498Y-73653280D01*
X149790545Y-73693756D01*
X149588164Y-73693756D01*
X149507212Y-73653280D01*
X149466736Y-73612804D01*
X150195307Y-72843756D02*
X150478640Y-73693756D01*
X150761974Y-72843756D01*
X149527450Y-75121156D02*
X149122688Y-75121156D01*
X149122688Y-74271156D01*
X149810783Y-74675918D02*
X150094117Y-74675918D01*
X150215545Y-75121156D02*
X149810783Y-75121156D01*
X149810783Y-74271156D01*
X150215545Y-74271156D01*
X150579831Y-75121156D02*
X150579831Y-74271156D01*
X150782212Y-74271156D01*
X150903640Y-74311633D01*
X150984593Y-74392585D01*
X151025069Y-74473537D01*
X151065545Y-74635442D01*
X151065545Y-74756871D01*
X151025069Y-74918775D01*
X150984593Y-74999728D01*
X150903640Y-75080680D01*
X150782212Y-75121156D01*
X150579831Y-75121156D01*
X131956523Y-82902571D02*
X131956523Y-83388285D01*
X131956523Y-83145428D02*
X131106523Y-83145428D01*
X131227952Y-83226380D01*
X131308904Y-83307333D01*
X131349380Y-83388285D01*
X131187476Y-82578761D02*
X131147000Y-82538285D01*
X131106523Y-82457333D01*
X131106523Y-82254952D01*
X131147000Y-82174000D01*
X131187476Y-82133523D01*
X131268428Y-82093047D01*
X131349380Y-82093047D01*
X131470809Y-82133523D01*
X131956523Y-82619238D01*
X131956523Y-82093047D01*
X131106523Y-81850190D02*
X131956523Y-81566857D01*
X131106523Y-81283523D01*
X131956523Y-79947809D02*
X131956523Y-80352571D01*
X131106523Y-80352571D01*
X131511285Y-79664476D02*
X131511285Y-79381142D01*
X131956523Y-79259714D02*
X131956523Y-79664476D01*
X131106523Y-79664476D01*
X131106523Y-79259714D01*
X131956523Y-78895428D02*
X131106523Y-78895428D01*
X131106523Y-78693047D01*
X131147000Y-78571619D01*
X131227952Y-78490666D01*
X131308904Y-78450190D01*
X131470809Y-78409714D01*
X131592238Y-78409714D01*
X131754142Y-78450190D01*
X131835095Y-78490666D01*
X131916047Y-78571619D01*
X131956523Y-78693047D01*
X131956523Y-78895428D01*
D13*
G04 #@! TO.C,U1*
X132810000Y-64364000D02*
X130360000Y-64364000D01*
X131010000Y-67584000D02*
X132810000Y-67584000D01*
D14*
G04 #@! TO.C,U4*
X114645075Y-78757509D02*
X114595075Y-78757509D01*
X114645075Y-82907509D02*
X114500075Y-82907509D01*
X109495075Y-82907509D02*
X109640075Y-82907509D01*
X109495075Y-78757509D02*
X109640075Y-78757509D01*
X114645075Y-78757509D02*
X114645075Y-82907509D01*
X109495075Y-78757509D02*
X109495075Y-82907509D01*
X114595075Y-78757509D02*
X114595075Y-77357509D01*
D15*
G04 #@! TO.C,IC1*
X113118837Y-69053451D02*
G75*
G03X113118837Y-69053451I-50801J0D01*
G01*
X110783969Y-68909766D02*
G75*
G03X110783969Y-68909766I-50800J0D01*
G01*
D14*
X111695259Y-69035490D02*
X111854358Y-69194589D01*
X116821783Y-63908966D02*
X117051593Y-64138776D01*
X121948307Y-69035490D02*
X121718497Y-68805680D01*
X116821783Y-74162014D02*
X116591973Y-73932204D01*
X111695259Y-69035490D02*
X111925069Y-68805680D01*
X116821783Y-74162014D02*
X117051593Y-73932204D01*
X121948307Y-69035490D02*
X121718497Y-69265300D01*
X116821783Y-63908966D02*
X116591973Y-64138776D01*
X111854358Y-69194589D02*
X110846731Y-70202216D01*
G04 #@! TO.C,J3*
X118364000Y-87376000D02*
X123444000Y-87376000D01*
X115544000Y-87656000D02*
X115544000Y-86106000D01*
X115824000Y-84836000D02*
X118364000Y-84836000D01*
X118364000Y-84836000D02*
X118364000Y-87376000D01*
X123444000Y-87376000D02*
X123444000Y-82296000D01*
X123444000Y-82296000D02*
X118364000Y-82296000D01*
X115544000Y-87656000D02*
X117094000Y-87656000D01*
X115824000Y-82296000D02*
X115824000Y-84836000D01*
X118364000Y-82296000D02*
X115824000Y-82296000D01*
D13*
G04 #@! TO.C,C5*
X147240879Y-92048933D02*
X147240879Y-91048933D01*
X145540879Y-91048933D02*
X145540879Y-92048933D01*
G04 #@! TO.C,C11*
X149700879Y-83762933D02*
X150700879Y-83762933D01*
X150700879Y-82062933D02*
X149700879Y-82062933D01*
G04 #@! TO.C,C12*
X149700879Y-86048933D02*
X150700879Y-86048933D01*
X150700879Y-84348933D02*
X149700879Y-84348933D01*
G04 #@! TO.C,D2*
X147682879Y-74722933D02*
X144882879Y-74722933D01*
X147682879Y-73322933D02*
X144882879Y-73322933D01*
X147682879Y-74722933D02*
X147682879Y-73322933D01*
D16*
X146082879Y-74022933D02*
X145782879Y-74322933D01*
X145782879Y-74322933D02*
X145732879Y-74372933D01*
X145732879Y-74372933D02*
X145732879Y-73722933D01*
X145732879Y-73672933D02*
X145732879Y-73722933D01*
X145732879Y-73722933D02*
X145732879Y-73672933D01*
X145732879Y-73672933D02*
X146082879Y-74022933D01*
X146082879Y-74022933D02*
X146082879Y-74372933D01*
X146082879Y-73672933D02*
X146082879Y-74022933D01*
D13*
G04 #@! TO.C,F1*
X138580379Y-83315433D02*
X138580379Y-85315433D01*
X135620379Y-85315433D02*
X135620379Y-83315433D01*
G04 #@! TO.C,R2*
X134544879Y-87602933D02*
X133344879Y-87602933D01*
X133344879Y-85842933D02*
X134544879Y-85842933D01*
G04 #@! TO.C,R3*
X134544879Y-89634933D02*
X133344879Y-89634933D01*
X133344879Y-87874933D02*
X134544879Y-87874933D01*
G04 #@! TO.C,R12*
X141218879Y-73142933D02*
X142418879Y-73142933D01*
X142418879Y-74902933D02*
X141218879Y-74902933D01*
G04 #@! TO.C,U2*
X144990979Y-91115433D02*
X144990979Y-88665433D01*
X141770979Y-89315433D02*
X141770979Y-91115433D01*
G04 #@! TO.C,C3*
X139020879Y-89532933D02*
X139020879Y-91532933D01*
X141060879Y-91532933D02*
X141060879Y-89532933D01*
G04 #@! TO.C,C7*
X149700879Y-81730933D02*
X150700879Y-81730933D01*
X150700879Y-80030933D02*
X149700879Y-80030933D01*
G04 #@! TO.C,D1*
X133882879Y-81366933D02*
X133882879Y-84166933D01*
X132482879Y-81366933D02*
X132482879Y-84166933D01*
X133882879Y-81366933D02*
X132482879Y-81366933D01*
D16*
X133182879Y-82966933D02*
X133482879Y-83266933D01*
X133482879Y-83266933D02*
X133532879Y-83316933D01*
X133532879Y-83316933D02*
X132882879Y-83316933D01*
X132832879Y-83316933D02*
X132882879Y-83316933D01*
X132882879Y-83316933D02*
X132832879Y-83316933D01*
X132832879Y-83316933D02*
X133182879Y-82966933D01*
X133182879Y-82966933D02*
X133532879Y-82966933D01*
X132832879Y-82966933D02*
X133182879Y-82966933D01*
D13*
G04 #@! TO.C,D7*
X134389379Y-79737933D02*
X134389379Y-76562933D01*
X137056379Y-79737933D02*
X137056379Y-76562933D01*
X134389379Y-79737933D02*
X137056379Y-79737933D01*
D17*
X135022879Y-77062933D02*
X136722879Y-77062933D01*
X135822879Y-77062933D02*
X135022879Y-75962933D01*
X135022879Y-75962933D02*
X136722879Y-75962933D01*
X136722879Y-75962933D02*
X135822879Y-77062933D01*
D13*
G04 #@! TO.C,R9*
X140615879Y-75377933D02*
X145815879Y-75377933D01*
X145815879Y-79017933D02*
X140615879Y-79017933D01*
G04 #@! TO.C,R4*
X142164879Y-94714933D02*
X140964879Y-94714933D01*
X140964879Y-92954933D02*
X142164879Y-92954933D01*
G04 #@! TO.C,R5*
X148812879Y-92402933D02*
X148812879Y-91202933D01*
X150572879Y-91202933D02*
X150572879Y-92402933D01*
G04 #@! TO.C,C1*
X136120000Y-64174000D02*
X135120000Y-64174000D01*
X135120000Y-65874000D02*
X136120000Y-65874000D01*
G04 #@! TO.C,C2*
X147074000Y-66128000D02*
X148074000Y-66128000D01*
X148074000Y-64428000D02*
X147074000Y-64428000D01*
G04 #@! TO.C,C4*
X106180000Y-78574000D02*
X107180000Y-78574000D01*
X107180000Y-76874000D02*
X106180000Y-76874000D01*
G04 #@! TO.C,C6*
X111340000Y-75541000D02*
X111340000Y-74541000D01*
X109640000Y-74541000D02*
X109640000Y-75541000D01*
G04 #@! TO.C,C8*
X122808855Y-64526270D02*
X123515962Y-63819163D01*
X122313881Y-62617082D02*
X121606774Y-63324189D01*
G04 #@! TO.C,C9*
X124470701Y-73865620D02*
X123763594Y-73158513D01*
X122561513Y-74360594D02*
X123268620Y-75067701D01*
G04 #@! TO.C,C10*
X119441406Y-79622487D02*
X120148513Y-80329594D01*
X121350594Y-79127513D02*
X120643487Y-78420406D01*
D16*
G04 #@! TO.C,PC6*
X137022000Y-61372000D02*
X137022000Y-61722000D01*
X137022000Y-61722000D02*
X137022000Y-62072000D01*
X136672000Y-61372000D02*
X137022000Y-61722000D01*
X136672000Y-61422000D02*
X136672000Y-61372000D01*
X136672000Y-61372000D02*
X136672000Y-61422000D01*
X136672000Y-62072000D02*
X136672000Y-61422000D01*
X136722000Y-62022000D02*
X136672000Y-62072000D01*
X137022000Y-61722000D02*
X136722000Y-62022000D01*
D13*
X138622000Y-62422000D02*
X138622000Y-61022000D01*
X138622000Y-61022000D02*
X135822000Y-61022000D01*
X138622000Y-62422000D02*
X135822000Y-62422000D01*
G04 #@! TO.C,PB3*
X138706000Y-59120000D02*
X135906000Y-59120000D01*
X138706000Y-57720000D02*
X135906000Y-57720000D01*
X138706000Y-59120000D02*
X138706000Y-57720000D01*
D16*
X137106000Y-58420000D02*
X136806000Y-58720000D01*
X136806000Y-58720000D02*
X136756000Y-58770000D01*
X136756000Y-58770000D02*
X136756000Y-58120000D01*
X136756000Y-58070000D02*
X136756000Y-58120000D01*
X136756000Y-58120000D02*
X136756000Y-58070000D01*
X136756000Y-58070000D02*
X137106000Y-58420000D01*
X137106000Y-58420000D02*
X137106000Y-58770000D01*
X137106000Y-58070000D02*
X137106000Y-58420000D01*
G04 #@! TO.C,PB4*
X137149000Y-54768000D02*
X137149000Y-55118000D01*
X137149000Y-55118000D02*
X137149000Y-55468000D01*
X136799000Y-54768000D02*
X137149000Y-55118000D01*
X136799000Y-54818000D02*
X136799000Y-54768000D01*
X136799000Y-54768000D02*
X136799000Y-54818000D01*
X136799000Y-55468000D02*
X136799000Y-54818000D01*
X136849000Y-55418000D02*
X136799000Y-55468000D01*
X137149000Y-55118000D02*
X136849000Y-55418000D01*
D13*
X138749000Y-55818000D02*
X138749000Y-54418000D01*
X138749000Y-54418000D02*
X135949000Y-54418000D01*
X138749000Y-55818000D02*
X135949000Y-55818000D01*
G04 #@! TO.C,D6*
X132162711Y-54683147D02*
X132162711Y-57483147D01*
X130762711Y-54683147D02*
X130762711Y-57483147D01*
X132162711Y-54683147D02*
X130762711Y-54683147D01*
D16*
X131462711Y-56283147D02*
X131762711Y-56583147D01*
X131762711Y-56583147D02*
X131812711Y-56633147D01*
X131812711Y-56633147D02*
X131162711Y-56633147D01*
X131112711Y-56633147D02*
X131162711Y-56633147D01*
X131162711Y-56633147D02*
X131112711Y-56633147D01*
X131112711Y-56633147D02*
X131462711Y-56283147D01*
X131462711Y-56283147D02*
X131812711Y-56283147D01*
X131112711Y-56283147D02*
X131462711Y-56283147D01*
D13*
G04 #@! TO.C,D8*
X108203581Y-52695369D02*
X108203581Y-49895369D01*
X109603581Y-52695369D02*
X109603581Y-49895369D01*
X108203581Y-52695369D02*
X109603581Y-52695369D01*
D16*
X108903581Y-51095369D02*
X108603581Y-50795369D01*
X108603581Y-50795369D02*
X108553581Y-50745369D01*
X108553581Y-50745369D02*
X109203581Y-50745369D01*
X109253581Y-50745369D02*
X109203581Y-50745369D01*
X109203581Y-50745369D02*
X109253581Y-50745369D01*
X109253581Y-50745369D02*
X108903581Y-51095369D01*
X108903581Y-51095369D02*
X108553581Y-51095369D01*
X109253581Y-51095369D02*
X108903581Y-51095369D01*
G04 #@! TO.C,D9*
X118143581Y-52111369D02*
X117793581Y-52111369D01*
X117793581Y-52111369D02*
X117443581Y-52111369D01*
X118143581Y-51761369D02*
X117793581Y-52111369D01*
X118093581Y-51761369D02*
X118143581Y-51761369D01*
X118143581Y-51761369D02*
X118093581Y-51761369D01*
X117443581Y-51761369D02*
X118093581Y-51761369D01*
X117493581Y-51811369D02*
X117443581Y-51761369D01*
X117793581Y-52111369D02*
X117493581Y-51811369D01*
D13*
X117093581Y-53711369D02*
X118493581Y-53711369D01*
X118493581Y-53711369D02*
X118493581Y-50911369D01*
X117093581Y-53711369D02*
X117093581Y-50911369D01*
D16*
G04 #@! TO.C,D10*
X100871581Y-54143369D02*
X100521581Y-54143369D01*
X100521581Y-54143369D02*
X100171581Y-54143369D01*
X100871581Y-53793369D02*
X100521581Y-54143369D01*
X100821581Y-53793369D02*
X100871581Y-53793369D01*
X100871581Y-53793369D02*
X100821581Y-53793369D01*
X100171581Y-53793369D02*
X100821581Y-53793369D01*
X100221581Y-53843369D02*
X100171581Y-53793369D01*
X100521581Y-54143369D02*
X100221581Y-53843369D01*
D13*
X99821581Y-55743369D02*
X101221581Y-55743369D01*
X101221581Y-55743369D02*
X101221581Y-52943369D01*
X99821581Y-55743369D02*
X99821581Y-52943369D01*
G04 #@! TO.C,Q1*
X130502711Y-51997147D02*
X129572711Y-51997147D01*
X127342711Y-51997147D02*
X128272711Y-51997147D01*
X127342711Y-51997147D02*
X127342711Y-54157147D01*
X130502711Y-51997147D02*
X130502711Y-53457147D01*
G04 #@! TO.C,Q2*
X110117581Y-54669369D02*
X111047581Y-54669369D01*
X113277581Y-54669369D02*
X112347581Y-54669369D01*
X113277581Y-54669369D02*
X113277581Y-52509369D01*
X110117581Y-54669369D02*
X110117581Y-53209369D01*
G04 #@! TO.C,Q3*
X119007581Y-55465369D02*
X119007581Y-54005369D01*
X122167581Y-55465369D02*
X122167581Y-53305369D01*
X122167581Y-55465369D02*
X121237581Y-55465369D01*
X119007581Y-55465369D02*
X119937581Y-55465369D01*
G04 #@! TO.C,Q4*
X101735581Y-57971369D02*
X101735581Y-56511369D01*
X104895581Y-57971369D02*
X104895581Y-55811369D01*
X104895581Y-57971369D02*
X103965581Y-57971369D01*
X101735581Y-57971369D02*
X102665581Y-57971369D01*
G04 #@! TO.C,R1*
X128936000Y-68444000D02*
X127736000Y-68444000D01*
X127736000Y-66684000D02*
X128936000Y-66684000D01*
G04 #@! TO.C,R6*
X131800000Y-67954000D02*
X133000000Y-67954000D01*
X133000000Y-69714000D02*
X131800000Y-69714000D01*
G04 #@! TO.C,R7*
X135754000Y-66964000D02*
X135754000Y-68164000D01*
X133994000Y-68164000D02*
X133994000Y-66964000D01*
G04 #@! TO.C,R8*
X139989000Y-60842000D02*
X141189000Y-60842000D01*
X141189000Y-62602000D02*
X139989000Y-62602000D01*
G04 #@! TO.C,R10*
X139989000Y-57540000D02*
X141189000Y-57540000D01*
X141189000Y-59300000D02*
X139989000Y-59300000D01*
G04 #@! TO.C,R11*
X140055000Y-54238000D02*
X141255000Y-54238000D01*
X141255000Y-55998000D02*
X140055000Y-55998000D01*
G04 #@! TO.C,R13*
X139674000Y-66684000D02*
X140874000Y-66684000D01*
X140874000Y-68444000D02*
X139674000Y-68444000D01*
G04 #@! TO.C,R14*
X129456711Y-58463147D02*
X128256711Y-58463147D01*
X128256711Y-56703147D02*
X129456711Y-56703147D01*
G04 #@! TO.C,R15*
X118776000Y-95114000D02*
X117576000Y-95114000D01*
X117576000Y-93354000D02*
X118776000Y-93354000D01*
G04 #@! TO.C,R16*
X144684000Y-69968000D02*
X143484000Y-69968000D01*
X143484000Y-68208000D02*
X144684000Y-68208000D01*
G04 #@! TO.C,R17*
X145678000Y-68352000D02*
X145678000Y-67152000D01*
X147438000Y-67152000D02*
X147438000Y-68352000D01*
G04 #@! TO.C,R18*
X129456711Y-56431147D02*
X128256711Y-56431147D01*
X128256711Y-54671147D02*
X129456711Y-54671147D01*
G04 #@! TO.C,R19*
X124053000Y-93354000D02*
X125253000Y-93354000D01*
X125253000Y-95114000D02*
X124053000Y-95114000D01*
G04 #@! TO.C,R20*
X112043581Y-49997369D02*
X110843581Y-49997369D01*
X110843581Y-48237369D02*
X112043581Y-48237369D01*
G04 #@! TO.C,R21*
X110843581Y-50269369D02*
X112043581Y-50269369D01*
X112043581Y-52029369D02*
X110843581Y-52029369D01*
G04 #@! TO.C,R22*
X112577581Y-56645369D02*
X112577581Y-57845369D01*
X110817581Y-57845369D02*
X110817581Y-56645369D01*
G04 #@! TO.C,R23*
X119987581Y-48999369D02*
X121187581Y-48999369D01*
X121187581Y-50759369D02*
X119987581Y-50759369D01*
G04 #@! TO.C,R24*
X121187581Y-52791369D02*
X119987581Y-52791369D01*
X119987581Y-51031369D02*
X121187581Y-51031369D01*
G04 #@! TO.C,R25*
X121467581Y-57407369D02*
X121467581Y-58607369D01*
X119707581Y-58607369D02*
X119707581Y-57407369D01*
G04 #@! TO.C,R26 (DNP)*
X112670075Y-86538510D02*
X111470075Y-86538510D01*
X111470075Y-84778510D02*
X112670075Y-84778510D01*
G04 #@! TO.C,R27*
X103849581Y-53299369D02*
X102649581Y-53299369D01*
X102649581Y-51539369D02*
X103849581Y-51539369D01*
G04 #@! TO.C,R28*
X103849581Y-55331369D02*
X102649581Y-55331369D01*
X102649581Y-53571369D02*
X103849581Y-53571369D01*
G04 #@! TO.C,R29*
X104195581Y-59947369D02*
X104195581Y-61147369D01*
X102435581Y-61147369D02*
X102435581Y-59947369D01*
G04 #@! TO.C,R30*
X123928206Y-60960330D02*
X124776734Y-60111802D01*
X126021242Y-61356310D02*
X125172714Y-62204838D01*
G04 #@! TO.C,R31*
X110179990Y-64231482D02*
X111028518Y-65080010D01*
X109784010Y-66324518D02*
X108935482Y-65475990D01*
G04 #@! TO.C,U3*
X142864000Y-67904000D02*
X144664000Y-67904000D01*
X144664000Y-64684000D02*
X142214000Y-64684000D01*
D16*
G04 #@! TO.C,Y1*
X123745452Y-75736660D02*
X122331239Y-77150874D01*
X123745452Y-75736660D02*
X122614082Y-74605289D01*
D13*
G04 #@! TO.C,R_1*
X101504000Y-92955000D02*
X100304000Y-92955000D01*
X100304000Y-91195000D02*
X101504000Y-91195000D01*
G04 #@! TO.C,R_2*
X98526000Y-88528000D02*
X99726000Y-88528000D01*
X99726000Y-90288000D02*
X98526000Y-90288000D01*
G04 #@! TO.C,U1*
D14*
X131148095Y-63206380D02*
X131148095Y-64015904D01*
X131195714Y-64111142D01*
X131243333Y-64158761D01*
X131338571Y-64206380D01*
X131529047Y-64206380D01*
X131624285Y-64158761D01*
X131671904Y-64111142D01*
X131719523Y-64015904D01*
X131719523Y-63206380D01*
X132719523Y-64206380D02*
X132148095Y-64206380D01*
X132433809Y-64206380D02*
X132433809Y-63206380D01*
X132338571Y-63349238D01*
X132243333Y-63444476D01*
X132148095Y-63492095D01*
G04 #@! TO.C,U4*
X107696095Y-80351380D02*
X107696095Y-81160904D01*
X107743714Y-81256142D01*
X107791333Y-81303761D01*
X107886571Y-81351380D01*
X108077047Y-81351380D01*
X108172285Y-81303761D01*
X108219904Y-81256142D01*
X108267523Y-81160904D01*
X108267523Y-80351380D01*
X109172285Y-80684714D02*
X109172285Y-81351380D01*
X108934190Y-80303761D02*
X108696095Y-81018047D01*
X109315142Y-81018047D01*
G04 #@! TO.C,IC1*
X112173397Y-65767646D02*
X111466290Y-65060539D01*
X112846832Y-64959524D02*
X112846832Y-65026868D01*
X112779489Y-65161555D01*
X112712145Y-65228898D01*
X112577458Y-65296242D01*
X112442771Y-65296242D01*
X112341756Y-65262570D01*
X112173397Y-65161555D01*
X112072382Y-65060539D01*
X111971367Y-64892181D01*
X111937695Y-64791165D01*
X111937695Y-64656478D01*
X112005038Y-64521791D01*
X112072382Y-64454448D01*
X112207069Y-64387104D01*
X112274412Y-64387104D01*
X113587611Y-64353432D02*
X113183550Y-64757494D01*
X113385580Y-64555463D02*
X112678474Y-63848356D01*
X112712145Y-64016715D01*
X112712145Y-64151402D01*
X112678474Y-64252417D01*
G04 #@! TO.C,J3*
X114387380Y-86566333D02*
X115101666Y-86566333D01*
X115244523Y-86613952D01*
X115339761Y-86709190D01*
X115387380Y-86852047D01*
X115387380Y-86947285D01*
X114387380Y-86185380D02*
X114387380Y-85566333D01*
X114768333Y-85899666D01*
X114768333Y-85756809D01*
X114815952Y-85661571D01*
X114863571Y-85613952D01*
X114958809Y-85566333D01*
X115196904Y-85566333D01*
X115292142Y-85613952D01*
X115339761Y-85661571D01*
X115387380Y-85756809D01*
X115387380Y-86042523D01*
X115339761Y-86137761D01*
X115292142Y-86185380D01*
G04 #@! TO.C,C5*
X146137333Y-94464142D02*
X146089714Y-94511761D01*
X145946857Y-94559380D01*
X145851619Y-94559380D01*
X145708761Y-94511761D01*
X145613523Y-94416523D01*
X145565904Y-94321285D01*
X145518285Y-94130809D01*
X145518285Y-93987952D01*
X145565904Y-93797476D01*
X145613523Y-93702238D01*
X145708761Y-93607000D01*
X145851619Y-93559380D01*
X145946857Y-93559380D01*
X146089714Y-93607000D01*
X146137333Y-93654619D01*
X147042095Y-93559380D02*
X146565904Y-93559380D01*
X146518285Y-94035571D01*
X146565904Y-93987952D01*
X146661142Y-93940333D01*
X146899238Y-93940333D01*
X146994476Y-93987952D01*
X147042095Y-94035571D01*
X147089714Y-94130809D01*
X147089714Y-94368904D01*
X147042095Y-94464142D01*
X146994476Y-94511761D01*
X146899238Y-94559380D01*
X146661142Y-94559380D01*
X146565904Y-94511761D01*
X146518285Y-94464142D01*
G04 #@! TO.C,C11*
X153114021Y-83270075D02*
X153066402Y-83317694D01*
X152923545Y-83365313D01*
X152828307Y-83365313D01*
X152685450Y-83317694D01*
X152590212Y-83222456D01*
X152542593Y-83127218D01*
X152494974Y-82936742D01*
X152494974Y-82793885D01*
X152542593Y-82603409D01*
X152590212Y-82508171D01*
X152685450Y-82412933D01*
X152828307Y-82365313D01*
X152923545Y-82365313D01*
X153066402Y-82412933D01*
X153114021Y-82460552D01*
X154066402Y-83365313D02*
X153494974Y-83365313D01*
X153780688Y-83365313D02*
X153780688Y-82365313D01*
X153685450Y-82508171D01*
X153590212Y-82603409D01*
X153494974Y-82651028D01*
X155018783Y-83365313D02*
X154447355Y-83365313D01*
X154733069Y-83365313D02*
X154733069Y-82365313D01*
X154637831Y-82508171D01*
X154542593Y-82603409D01*
X154447355Y-82651028D01*
G04 #@! TO.C,C12*
X152860021Y-85302075D02*
X152812402Y-85349694D01*
X152669545Y-85397313D01*
X152574307Y-85397313D01*
X152431450Y-85349694D01*
X152336212Y-85254456D01*
X152288593Y-85159218D01*
X152240974Y-84968742D01*
X152240974Y-84825885D01*
X152288593Y-84635409D01*
X152336212Y-84540171D01*
X152431450Y-84444933D01*
X152574307Y-84397313D01*
X152669545Y-84397313D01*
X152812402Y-84444933D01*
X152860021Y-84492552D01*
X153812402Y-85397313D02*
X153240974Y-85397313D01*
X153526688Y-85397313D02*
X153526688Y-84397313D01*
X153431450Y-84540171D01*
X153336212Y-84635409D01*
X153240974Y-84683028D01*
X154193355Y-84492552D02*
X154240974Y-84444933D01*
X154336212Y-84397313D01*
X154574307Y-84397313D01*
X154669545Y-84444933D01*
X154717164Y-84492552D01*
X154764783Y-84587790D01*
X154764783Y-84683028D01*
X154717164Y-84825885D01*
X154145736Y-85397313D01*
X154764783Y-85397313D01*
G04 #@! TO.C,D2*
X145398783Y-72697313D02*
X145398783Y-71697313D01*
X145636879Y-71697313D01*
X145779736Y-71744933D01*
X145874974Y-71840171D01*
X145922593Y-71935409D01*
X145970212Y-72125885D01*
X145970212Y-72268742D01*
X145922593Y-72459218D01*
X145874974Y-72554456D01*
X145779736Y-72649694D01*
X145636879Y-72697313D01*
X145398783Y-72697313D01*
X146351164Y-71792552D02*
X146398783Y-71744933D01*
X146494021Y-71697313D01*
X146732117Y-71697313D01*
X146827355Y-71744933D01*
X146874974Y-71792552D01*
X146922593Y-71887790D01*
X146922593Y-71983028D01*
X146874974Y-72125885D01*
X146303545Y-72697313D01*
X146922593Y-72697313D01*
G04 #@! TO.C,F1*
X134889450Y-84262266D02*
X134889450Y-84595599D01*
X135413259Y-84595599D02*
X134413259Y-84595599D01*
X134413259Y-84119409D01*
X135413259Y-83214647D02*
X135413259Y-83786075D01*
X135413259Y-83500361D02*
X134413259Y-83500361D01*
X134556117Y-83595599D01*
X134651355Y-83690837D01*
X134698974Y-83786075D01*
G04 #@! TO.C,L1*
X139136380Y-80539599D02*
X139136380Y-81015790D01*
X138136380Y-81015790D01*
X139136380Y-79682456D02*
X139136380Y-80253885D01*
X139136380Y-79968171D02*
X138136380Y-79968171D01*
X138279238Y-80063409D01*
X138374476Y-80158647D01*
X138422095Y-80253885D01*
G04 #@! TO.C,R2*
X131238212Y-86921313D02*
X130904879Y-86445123D01*
X130666783Y-86921313D02*
X130666783Y-85921313D01*
X131047736Y-85921313D01*
X131142974Y-85968933D01*
X131190593Y-86016552D01*
X131238212Y-86111790D01*
X131238212Y-86254647D01*
X131190593Y-86349885D01*
X131142974Y-86397504D01*
X131047736Y-86445123D01*
X130666783Y-86445123D01*
X131619164Y-86016552D02*
X131666783Y-85968933D01*
X131762021Y-85921313D01*
X132000117Y-85921313D01*
X132095355Y-85968933D01*
X132142974Y-86016552D01*
X132190593Y-86111790D01*
X132190593Y-86207028D01*
X132142974Y-86349885D01*
X131571545Y-86921313D01*
X132190593Y-86921313D01*
G04 #@! TO.C,R3*
X131492212Y-89207313D02*
X131158879Y-88731123D01*
X130920783Y-89207313D02*
X130920783Y-88207313D01*
X131301736Y-88207313D01*
X131396974Y-88254933D01*
X131444593Y-88302552D01*
X131492212Y-88397790D01*
X131492212Y-88540647D01*
X131444593Y-88635885D01*
X131396974Y-88683504D01*
X131301736Y-88731123D01*
X130920783Y-88731123D01*
X131825545Y-88207313D02*
X132444593Y-88207313D01*
X132111259Y-88588266D01*
X132254117Y-88588266D01*
X132349355Y-88635885D01*
X132396974Y-88683504D01*
X132444593Y-88778742D01*
X132444593Y-89016837D01*
X132396974Y-89112075D01*
X132349355Y-89159694D01*
X132254117Y-89207313D01*
X131968402Y-89207313D01*
X131873164Y-89159694D01*
X131825545Y-89112075D01*
G04 #@! TO.C,R12*
X141176021Y-72825313D02*
X140842688Y-72349123D01*
X140604593Y-72825313D02*
X140604593Y-71825313D01*
X140985545Y-71825313D01*
X141080783Y-71872933D01*
X141128402Y-71920552D01*
X141176021Y-72015790D01*
X141176021Y-72158647D01*
X141128402Y-72253885D01*
X141080783Y-72301504D01*
X140985545Y-72349123D01*
X140604593Y-72349123D01*
X142128402Y-72825313D02*
X141556974Y-72825313D01*
X141842688Y-72825313D02*
X141842688Y-71825313D01*
X141747450Y-71968171D01*
X141652212Y-72063409D01*
X141556974Y-72111028D01*
X142509355Y-71920552D02*
X142556974Y-71872933D01*
X142652212Y-71825313D01*
X142890307Y-71825313D01*
X142985545Y-71872933D01*
X143033164Y-71920552D01*
X143080783Y-72015790D01*
X143080783Y-72111028D01*
X143033164Y-72253885D01*
X142461736Y-72825313D01*
X143080783Y-72825313D01*
G04 #@! TO.C,U2*
X143342974Y-92525313D02*
X143342974Y-93334837D01*
X143390593Y-93430075D01*
X143438212Y-93477694D01*
X143533450Y-93525313D01*
X143723926Y-93525313D01*
X143819164Y-93477694D01*
X143866783Y-93430075D01*
X143914402Y-93334837D01*
X143914402Y-92525313D01*
X144342974Y-92620552D02*
X144390593Y-92572933D01*
X144485831Y-92525313D01*
X144723926Y-92525313D01*
X144819164Y-92572933D01*
X144866783Y-92620552D01*
X144914402Y-92715790D01*
X144914402Y-92811028D01*
X144866783Y-92953885D01*
X144295355Y-93525313D01*
X144914402Y-93525313D01*
G04 #@! TO.C,C3*
X138620021Y-90699599D02*
X138667640Y-90747218D01*
X138715259Y-90890075D01*
X138715259Y-90985313D01*
X138667640Y-91128171D01*
X138572402Y-91223409D01*
X138477164Y-91271028D01*
X138286688Y-91318647D01*
X138143831Y-91318647D01*
X137953355Y-91271028D01*
X137858117Y-91223409D01*
X137762879Y-91128171D01*
X137715259Y-90985313D01*
X137715259Y-90890075D01*
X137762879Y-90747218D01*
X137810498Y-90699599D01*
X137715259Y-90366266D02*
X137715259Y-89747218D01*
X138096212Y-90080552D01*
X138096212Y-89937694D01*
X138143831Y-89842456D01*
X138191450Y-89794837D01*
X138286688Y-89747218D01*
X138524783Y-89747218D01*
X138620021Y-89794837D01*
X138667640Y-89842456D01*
X138715259Y-89937694D01*
X138715259Y-90223409D01*
X138667640Y-90318647D01*
X138620021Y-90366266D01*
G04 #@! TO.C,C7*
X153086212Y-81421075D02*
X153038593Y-81468694D01*
X152895736Y-81516313D01*
X152800498Y-81516313D01*
X152657640Y-81468694D01*
X152562402Y-81373456D01*
X152514783Y-81278218D01*
X152467164Y-81087742D01*
X152467164Y-80944885D01*
X152514783Y-80754409D01*
X152562402Y-80659171D01*
X152657640Y-80563933D01*
X152800498Y-80516313D01*
X152895736Y-80516313D01*
X153038593Y-80563933D01*
X153086212Y-80611552D01*
X153419545Y-80516313D02*
X154086212Y-80516313D01*
X153657640Y-81516313D01*
G04 #@! TO.C,D1*
X132024380Y-85193095D02*
X131024380Y-85193095D01*
X131024380Y-84955000D01*
X131072000Y-84812142D01*
X131167238Y-84716904D01*
X131262476Y-84669285D01*
X131452952Y-84621666D01*
X131595809Y-84621666D01*
X131786285Y-84669285D01*
X131881523Y-84716904D01*
X131976761Y-84812142D01*
X132024380Y-84955000D01*
X132024380Y-85193095D01*
X132024380Y-83669285D02*
X132024380Y-84240714D01*
X132024380Y-83955000D02*
X131024380Y-83955000D01*
X131167238Y-84050238D01*
X131262476Y-84145476D01*
X131310095Y-84240714D01*
G04 #@! TO.C,D7*
X133925259Y-77001028D02*
X132925259Y-77001028D01*
X132925259Y-76762933D01*
X132972879Y-76620075D01*
X133068117Y-76524837D01*
X133163355Y-76477218D01*
X133353831Y-76429599D01*
X133496688Y-76429599D01*
X133687164Y-76477218D01*
X133782402Y-76524837D01*
X133877640Y-76620075D01*
X133925259Y-76762933D01*
X133925259Y-77001028D01*
X132925259Y-76096266D02*
X132925259Y-75429599D01*
X133925259Y-75858171D01*
G04 #@! TO.C,R9*
X148621259Y-77491599D02*
X148145069Y-77824933D01*
X148621259Y-78063028D02*
X147621259Y-78063028D01*
X147621259Y-77682075D01*
X147668879Y-77586837D01*
X147716498Y-77539218D01*
X147811736Y-77491599D01*
X147954593Y-77491599D01*
X148049831Y-77539218D01*
X148097450Y-77586837D01*
X148145069Y-77682075D01*
X148145069Y-78063028D01*
X148621259Y-77015409D02*
X148621259Y-76824933D01*
X148573640Y-76729694D01*
X148526021Y-76682075D01*
X148383164Y-76586837D01*
X148192688Y-76539218D01*
X147811736Y-76539218D01*
X147716498Y-76586837D01*
X147668879Y-76634456D01*
X147621259Y-76729694D01*
X147621259Y-76920171D01*
X147668879Y-77015409D01*
X147716498Y-77063028D01*
X147811736Y-77110647D01*
X148049831Y-77110647D01*
X148145069Y-77063028D01*
X148192688Y-77015409D01*
X148240307Y-76920171D01*
X148240307Y-76729694D01*
X148192688Y-76634456D01*
X148145069Y-76586837D01*
X148049831Y-76539218D01*
G04 #@! TO.C,R4*
X141398212Y-95937313D02*
X141064879Y-95461123D01*
X140826783Y-95937313D02*
X140826783Y-94937313D01*
X141207736Y-94937313D01*
X141302974Y-94984933D01*
X141350593Y-95032552D01*
X141398212Y-95127790D01*
X141398212Y-95270647D01*
X141350593Y-95365885D01*
X141302974Y-95413504D01*
X141207736Y-95461123D01*
X140826783Y-95461123D01*
X142255355Y-95270647D02*
X142255355Y-95937313D01*
X142017259Y-94889694D02*
X141779164Y-95603980D01*
X142398212Y-95603980D01*
G04 #@! TO.C,R5*
X151471333Y-92908380D02*
X151138000Y-92432190D01*
X150899904Y-92908380D02*
X150899904Y-91908380D01*
X151280857Y-91908380D01*
X151376095Y-91956000D01*
X151423714Y-92003619D01*
X151471333Y-92098857D01*
X151471333Y-92241714D01*
X151423714Y-92336952D01*
X151376095Y-92384571D01*
X151280857Y-92432190D01*
X150899904Y-92432190D01*
X152376095Y-91908380D02*
X151899904Y-91908380D01*
X151852285Y-92384571D01*
X151899904Y-92336952D01*
X151995142Y-92289333D01*
X152233238Y-92289333D01*
X152328476Y-92336952D01*
X152376095Y-92384571D01*
X152423714Y-92479809D01*
X152423714Y-92717904D01*
X152376095Y-92813142D01*
X152328476Y-92860761D01*
X152233238Y-92908380D01*
X151995142Y-92908380D01*
X151899904Y-92860761D01*
X151852285Y-92813142D01*
G04 #@! TO.C,C1*
X134453333Y-64111142D02*
X134405714Y-64158761D01*
X134262857Y-64206380D01*
X134167619Y-64206380D01*
X134024761Y-64158761D01*
X133929523Y-64063523D01*
X133881904Y-63968285D01*
X133834285Y-63777809D01*
X133834285Y-63634952D01*
X133881904Y-63444476D01*
X133929523Y-63349238D01*
X134024761Y-63254000D01*
X134167619Y-63206380D01*
X134262857Y-63206380D01*
X134405714Y-63254000D01*
X134453333Y-63301619D01*
X135405714Y-64206380D02*
X134834285Y-64206380D01*
X135120000Y-64206380D02*
X135120000Y-63206380D01*
X135024761Y-63349238D01*
X134929523Y-63444476D01*
X134834285Y-63492095D01*
G04 #@! TO.C,C2*
X146645333Y-64111142D02*
X146597714Y-64158761D01*
X146454857Y-64206380D01*
X146359619Y-64206380D01*
X146216761Y-64158761D01*
X146121523Y-64063523D01*
X146073904Y-63968285D01*
X146026285Y-63777809D01*
X146026285Y-63634952D01*
X146073904Y-63444476D01*
X146121523Y-63349238D01*
X146216761Y-63254000D01*
X146359619Y-63206380D01*
X146454857Y-63206380D01*
X146597714Y-63254000D01*
X146645333Y-63301619D01*
X147026285Y-63301619D02*
X147073904Y-63254000D01*
X147169142Y-63206380D01*
X147407238Y-63206380D01*
X147502476Y-63254000D01*
X147550095Y-63301619D01*
X147597714Y-63396857D01*
X147597714Y-63492095D01*
X147550095Y-63634952D01*
X146978666Y-64206380D01*
X147597714Y-64206380D01*
G04 #@! TO.C,C4*
X103973333Y-77192142D02*
X103925714Y-77239761D01*
X103782857Y-77287380D01*
X103687619Y-77287380D01*
X103544761Y-77239761D01*
X103449523Y-77144523D01*
X103401904Y-77049285D01*
X103354285Y-76858809D01*
X103354285Y-76715952D01*
X103401904Y-76525476D01*
X103449523Y-76430238D01*
X103544761Y-76335000D01*
X103687619Y-76287380D01*
X103782857Y-76287380D01*
X103925714Y-76335000D01*
X103973333Y-76382619D01*
X104830476Y-76620714D02*
X104830476Y-77287380D01*
X104592380Y-76239761D02*
X104354285Y-76954047D01*
X104973333Y-76954047D01*
G04 #@! TO.C,C6*
X109396571Y-75269494D02*
X109437047Y-75309970D01*
X109477523Y-75431399D01*
X109477523Y-75512351D01*
X109437047Y-75633780D01*
X109356095Y-75714732D01*
X109275142Y-75755208D01*
X109113238Y-75795685D01*
X108991809Y-75795685D01*
X108829904Y-75755208D01*
X108748952Y-75714732D01*
X108668000Y-75633780D01*
X108627523Y-75512351D01*
X108627523Y-75431399D01*
X108668000Y-75309970D01*
X108708476Y-75269494D01*
X108627523Y-74540923D02*
X108627523Y-74702828D01*
X108668000Y-74783780D01*
X108708476Y-74824256D01*
X108829904Y-74905208D01*
X108991809Y-74945685D01*
X109315619Y-74945685D01*
X109396571Y-74905208D01*
X109437047Y-74864732D01*
X109477523Y-74783780D01*
X109477523Y-74621875D01*
X109437047Y-74540923D01*
X109396571Y-74500447D01*
X109315619Y-74459970D01*
X109113238Y-74459970D01*
X109032285Y-74500447D01*
X108991809Y-74540923D01*
X108951333Y-74621875D01*
X108951333Y-74783780D01*
X108991809Y-74864732D01*
X109032285Y-74905208D01*
X109113238Y-74945685D01*
G04 #@! TO.C,C8*
X123756715Y-65002725D02*
X123756715Y-65070068D01*
X123689371Y-65204755D01*
X123622028Y-65272099D01*
X123487340Y-65339442D01*
X123352653Y-65339442D01*
X123251638Y-65305771D01*
X123083279Y-65204755D01*
X122982264Y-65103740D01*
X122881249Y-64935381D01*
X122847577Y-64834366D01*
X122847577Y-64699679D01*
X122914921Y-64564992D01*
X122982264Y-64497648D01*
X123116951Y-64430305D01*
X123184295Y-64430305D01*
X123824058Y-64261946D02*
X123723043Y-64295618D01*
X123655699Y-64295618D01*
X123554684Y-64261946D01*
X123521012Y-64228274D01*
X123487340Y-64127259D01*
X123487340Y-64059916D01*
X123521012Y-63958900D01*
X123655699Y-63824213D01*
X123756715Y-63790542D01*
X123824058Y-63790542D01*
X123925073Y-63824213D01*
X123958745Y-63857885D01*
X123992417Y-63958900D01*
X123992417Y-64026244D01*
X123958745Y-64127259D01*
X123824058Y-64261946D01*
X123790386Y-64362961D01*
X123790386Y-64430305D01*
X123824058Y-64531320D01*
X123958745Y-64666007D01*
X124059760Y-64699679D01*
X124127104Y-64699679D01*
X124228119Y-64666007D01*
X124362806Y-64531320D01*
X124396478Y-64430305D01*
X124396478Y-64362961D01*
X124362806Y-64261946D01*
X124228119Y-64127259D01*
X124127104Y-64093587D01*
X124059760Y-64093587D01*
X123958745Y-64127259D01*
G04 #@! TO.C,C9*
X124801333Y-73382142D02*
X124753714Y-73429761D01*
X124610857Y-73477380D01*
X124515619Y-73477380D01*
X124372761Y-73429761D01*
X124277523Y-73334523D01*
X124229904Y-73239285D01*
X124182285Y-73048809D01*
X124182285Y-72905952D01*
X124229904Y-72715476D01*
X124277523Y-72620238D01*
X124372761Y-72525000D01*
X124515619Y-72477380D01*
X124610857Y-72477380D01*
X124753714Y-72525000D01*
X124801333Y-72572619D01*
X125277523Y-73477380D02*
X125468000Y-73477380D01*
X125563238Y-73429761D01*
X125610857Y-73382142D01*
X125706095Y-73239285D01*
X125753714Y-73048809D01*
X125753714Y-72667857D01*
X125706095Y-72572619D01*
X125658476Y-72525000D01*
X125563238Y-72477380D01*
X125372761Y-72477380D01*
X125277523Y-72525000D01*
X125229904Y-72572619D01*
X125182285Y-72667857D01*
X125182285Y-72905952D01*
X125229904Y-73001190D01*
X125277523Y-73048809D01*
X125372761Y-73096428D01*
X125563238Y-73096428D01*
X125658476Y-73048809D01*
X125706095Y-73001190D01*
X125753714Y-72905952D01*
G04 #@! TO.C,C10*
X123055142Y-80367142D02*
X123007523Y-80414761D01*
X122864666Y-80462380D01*
X122769428Y-80462380D01*
X122626571Y-80414761D01*
X122531333Y-80319523D01*
X122483714Y-80224285D01*
X122436095Y-80033809D01*
X122436095Y-79890952D01*
X122483714Y-79700476D01*
X122531333Y-79605238D01*
X122626571Y-79510000D01*
X122769428Y-79462380D01*
X122864666Y-79462380D01*
X123007523Y-79510000D01*
X123055142Y-79557619D01*
X124007523Y-80462380D02*
X123436095Y-80462380D01*
X123721809Y-80462380D02*
X123721809Y-79462380D01*
X123626571Y-79605238D01*
X123531333Y-79700476D01*
X123436095Y-79748095D01*
X124626571Y-79462380D02*
X124721809Y-79462380D01*
X124817047Y-79510000D01*
X124864666Y-79557619D01*
X124912285Y-79652857D01*
X124959904Y-79843333D01*
X124959904Y-80081428D01*
X124912285Y-80271904D01*
X124864666Y-80367142D01*
X124817047Y-80414761D01*
X124721809Y-80462380D01*
X124626571Y-80462380D01*
X124531333Y-80414761D01*
X124483714Y-80367142D01*
X124436095Y-80271904D01*
X124388476Y-80081428D01*
X124388476Y-79843333D01*
X124436095Y-79652857D01*
X124483714Y-79557619D01*
X124531333Y-79510000D01*
X124626571Y-79462380D01*
G04 #@! TO.C,PC6*
X135583904Y-60650380D02*
X135583904Y-59650380D01*
X135964857Y-59650380D01*
X136060095Y-59698000D01*
X136107714Y-59745619D01*
X136155333Y-59840857D01*
X136155333Y-59983714D01*
X136107714Y-60078952D01*
X136060095Y-60126571D01*
X135964857Y-60174190D01*
X135583904Y-60174190D01*
X137155333Y-60555142D02*
X137107714Y-60602761D01*
X136964857Y-60650380D01*
X136869619Y-60650380D01*
X136726761Y-60602761D01*
X136631523Y-60507523D01*
X136583904Y-60412285D01*
X136536285Y-60221809D01*
X136536285Y-60078952D01*
X136583904Y-59888476D01*
X136631523Y-59793238D01*
X136726761Y-59698000D01*
X136869619Y-59650380D01*
X136964857Y-59650380D01*
X137107714Y-59698000D01*
X137155333Y-59745619D01*
X138012476Y-59650380D02*
X137822000Y-59650380D01*
X137726761Y-59698000D01*
X137679142Y-59745619D01*
X137583904Y-59888476D01*
X137536285Y-60078952D01*
X137536285Y-60459904D01*
X137583904Y-60555142D01*
X137631523Y-60602761D01*
X137726761Y-60650380D01*
X137917238Y-60650380D01*
X138012476Y-60602761D01*
X138060095Y-60555142D01*
X138107714Y-60459904D01*
X138107714Y-60221809D01*
X138060095Y-60126571D01*
X138012476Y-60078952D01*
X137917238Y-60031333D01*
X137726761Y-60031333D01*
X137631523Y-60078952D01*
X137583904Y-60126571D01*
X137536285Y-60221809D01*
G04 #@! TO.C,PB3*
X135794904Y-57348380D02*
X135794904Y-56348380D01*
X136175857Y-56348380D01*
X136271095Y-56396000D01*
X136318714Y-56443619D01*
X136366333Y-56538857D01*
X136366333Y-56681714D01*
X136318714Y-56776952D01*
X136271095Y-56824571D01*
X136175857Y-56872190D01*
X135794904Y-56872190D01*
X137128238Y-56824571D02*
X137271095Y-56872190D01*
X137318714Y-56919809D01*
X137366333Y-57015047D01*
X137366333Y-57157904D01*
X137318714Y-57253142D01*
X137271095Y-57300761D01*
X137175857Y-57348380D01*
X136794904Y-57348380D01*
X136794904Y-56348380D01*
X137128238Y-56348380D01*
X137223476Y-56396000D01*
X137271095Y-56443619D01*
X137318714Y-56538857D01*
X137318714Y-56634095D01*
X137271095Y-56729333D01*
X137223476Y-56776952D01*
X137128238Y-56824571D01*
X136794904Y-56824571D01*
X137699666Y-56348380D02*
X138318714Y-56348380D01*
X137985380Y-56729333D01*
X138128238Y-56729333D01*
X138223476Y-56776952D01*
X138271095Y-56824571D01*
X138318714Y-56919809D01*
X138318714Y-57157904D01*
X138271095Y-57253142D01*
X138223476Y-57300761D01*
X138128238Y-57348380D01*
X137842523Y-57348380D01*
X137747285Y-57300761D01*
X137699666Y-57253142D01*
G04 #@! TO.C,PB4*
X135794904Y-54046380D02*
X135794904Y-53046380D01*
X136175857Y-53046380D01*
X136271095Y-53094000D01*
X136318714Y-53141619D01*
X136366333Y-53236857D01*
X136366333Y-53379714D01*
X136318714Y-53474952D01*
X136271095Y-53522571D01*
X136175857Y-53570190D01*
X135794904Y-53570190D01*
X137128238Y-53522571D02*
X137271095Y-53570190D01*
X137318714Y-53617809D01*
X137366333Y-53713047D01*
X137366333Y-53855904D01*
X137318714Y-53951142D01*
X137271095Y-53998761D01*
X137175857Y-54046380D01*
X136794904Y-54046380D01*
X136794904Y-53046380D01*
X137128238Y-53046380D01*
X137223476Y-53094000D01*
X137271095Y-53141619D01*
X137318714Y-53236857D01*
X137318714Y-53332095D01*
X137271095Y-53427333D01*
X137223476Y-53474952D01*
X137128238Y-53522571D01*
X136794904Y-53522571D01*
X138223476Y-53379714D02*
X138223476Y-54046380D01*
X137985380Y-52998761D02*
X137747285Y-53713047D01*
X138366333Y-53713047D01*
G04 #@! TO.C,D6*
X133365091Y-57221242D02*
X132365091Y-57221242D01*
X132365091Y-56983147D01*
X132412711Y-56840289D01*
X132507949Y-56745051D01*
X132603187Y-56697432D01*
X132793663Y-56649813D01*
X132936520Y-56649813D01*
X133126996Y-56697432D01*
X133222234Y-56745051D01*
X133317472Y-56840289D01*
X133365091Y-56983147D01*
X133365091Y-57221242D01*
X132365091Y-55792670D02*
X132365091Y-55983147D01*
X132412711Y-56078385D01*
X132460330Y-56126004D01*
X132603187Y-56221242D01*
X132793663Y-56268861D01*
X133174615Y-56268861D01*
X133269853Y-56221242D01*
X133317472Y-56173623D01*
X133365091Y-56078385D01*
X133365091Y-55887908D01*
X133317472Y-55792670D01*
X133269853Y-55745051D01*
X133174615Y-55697432D01*
X132936520Y-55697432D01*
X132841282Y-55745051D01*
X132793663Y-55792670D01*
X132746044Y-55887908D01*
X132746044Y-56078385D01*
X132793663Y-56173623D01*
X132841282Y-56221242D01*
X132936520Y-56268861D01*
G04 #@! TO.C,D8*
X106449904Y-51379380D02*
X106449904Y-50379380D01*
X106688000Y-50379380D01*
X106830857Y-50427000D01*
X106926095Y-50522238D01*
X106973714Y-50617476D01*
X107021333Y-50807952D01*
X107021333Y-50950809D01*
X106973714Y-51141285D01*
X106926095Y-51236523D01*
X106830857Y-51331761D01*
X106688000Y-51379380D01*
X106449904Y-51379380D01*
X107592761Y-50807952D02*
X107497523Y-50760333D01*
X107449904Y-50712714D01*
X107402285Y-50617476D01*
X107402285Y-50569857D01*
X107449904Y-50474619D01*
X107497523Y-50427000D01*
X107592761Y-50379380D01*
X107783238Y-50379380D01*
X107878476Y-50427000D01*
X107926095Y-50474619D01*
X107973714Y-50569857D01*
X107973714Y-50617476D01*
X107926095Y-50712714D01*
X107878476Y-50760333D01*
X107783238Y-50807952D01*
X107592761Y-50807952D01*
X107497523Y-50855571D01*
X107449904Y-50903190D01*
X107402285Y-50998428D01*
X107402285Y-51188904D01*
X107449904Y-51284142D01*
X107497523Y-51331761D01*
X107592761Y-51379380D01*
X107783238Y-51379380D01*
X107878476Y-51331761D01*
X107926095Y-51284142D01*
X107973714Y-51188904D01*
X107973714Y-50998428D01*
X107926095Y-50903190D01*
X107878476Y-50855571D01*
X107783238Y-50807952D01*
G04 #@! TO.C,D9*
X115212904Y-52522380D02*
X115212904Y-51522380D01*
X115451000Y-51522380D01*
X115593857Y-51570000D01*
X115689095Y-51665238D01*
X115736714Y-51760476D01*
X115784333Y-51950952D01*
X115784333Y-52093809D01*
X115736714Y-52284285D01*
X115689095Y-52379523D01*
X115593857Y-52474761D01*
X115451000Y-52522380D01*
X115212904Y-52522380D01*
X116260523Y-52522380D02*
X116451000Y-52522380D01*
X116546238Y-52474761D01*
X116593857Y-52427142D01*
X116689095Y-52284285D01*
X116736714Y-52093809D01*
X116736714Y-51712857D01*
X116689095Y-51617619D01*
X116641476Y-51570000D01*
X116546238Y-51522380D01*
X116355761Y-51522380D01*
X116260523Y-51570000D01*
X116212904Y-51617619D01*
X116165285Y-51712857D01*
X116165285Y-51950952D01*
X116212904Y-52046190D01*
X116260523Y-52093809D01*
X116355761Y-52141428D01*
X116546238Y-52141428D01*
X116641476Y-52093809D01*
X116689095Y-52046190D01*
X116736714Y-51950952D01*
G04 #@! TO.C,D10*
X96956714Y-54427380D02*
X96956714Y-53427380D01*
X97194809Y-53427380D01*
X97337666Y-53475000D01*
X97432904Y-53570238D01*
X97480523Y-53665476D01*
X97528142Y-53855952D01*
X97528142Y-53998809D01*
X97480523Y-54189285D01*
X97432904Y-54284523D01*
X97337666Y-54379761D01*
X97194809Y-54427380D01*
X96956714Y-54427380D01*
X98480523Y-54427380D02*
X97909095Y-54427380D01*
X98194809Y-54427380D02*
X98194809Y-53427380D01*
X98099571Y-53570238D01*
X98004333Y-53665476D01*
X97909095Y-53713095D01*
X99099571Y-53427380D02*
X99194809Y-53427380D01*
X99290047Y-53475000D01*
X99337666Y-53522619D01*
X99385285Y-53617857D01*
X99432904Y-53808333D01*
X99432904Y-54046428D01*
X99385285Y-54236904D01*
X99337666Y-54332142D01*
X99290047Y-54379761D01*
X99194809Y-54427380D01*
X99099571Y-54427380D01*
X99004333Y-54379761D01*
X98956714Y-54332142D01*
X98909095Y-54236904D01*
X98861476Y-54046428D01*
X98861476Y-53808333D01*
X98909095Y-53617857D01*
X98956714Y-53522619D01*
X99004333Y-53475000D01*
X99099571Y-53427380D01*
G04 #@! TO.C,Q1*
X126142761Y-53379619D02*
X126047523Y-53332000D01*
X125952285Y-53236761D01*
X125809428Y-53093904D01*
X125714190Y-53046285D01*
X125618952Y-53046285D01*
X125666571Y-53284380D02*
X125571333Y-53236761D01*
X125476095Y-53141523D01*
X125428476Y-52951047D01*
X125428476Y-52617714D01*
X125476095Y-52427238D01*
X125571333Y-52332000D01*
X125666571Y-52284380D01*
X125857047Y-52284380D01*
X125952285Y-52332000D01*
X126047523Y-52427238D01*
X126095142Y-52617714D01*
X126095142Y-52951047D01*
X126047523Y-53141523D01*
X125952285Y-53236761D01*
X125857047Y-53284380D01*
X125666571Y-53284380D01*
X127047523Y-53284380D02*
X126476095Y-53284380D01*
X126761809Y-53284380D02*
X126761809Y-52284380D01*
X126666571Y-52427238D01*
X126571333Y-52522476D01*
X126476095Y-52570095D01*
G04 #@! TO.C,Q2*
X114204761Y-54456988D02*
X114109523Y-54409369D01*
X114014285Y-54314130D01*
X113871428Y-54171273D01*
X113776190Y-54123654D01*
X113680952Y-54123654D01*
X113728571Y-54361749D02*
X113633333Y-54314130D01*
X113538095Y-54218892D01*
X113490476Y-54028416D01*
X113490476Y-53695083D01*
X113538095Y-53504607D01*
X113633333Y-53409369D01*
X113728571Y-53361749D01*
X113919047Y-53361749D01*
X114014285Y-53409369D01*
X114109523Y-53504607D01*
X114157142Y-53695083D01*
X114157142Y-54028416D01*
X114109523Y-54218892D01*
X114014285Y-54314130D01*
X113919047Y-54361749D01*
X113728571Y-54361749D01*
X114538095Y-53456988D02*
X114585714Y-53409369D01*
X114680952Y-53361749D01*
X114919047Y-53361749D01*
X115014285Y-53409369D01*
X115061904Y-53456988D01*
X115109523Y-53552226D01*
X115109523Y-53647464D01*
X115061904Y-53790321D01*
X114490476Y-54361749D01*
X115109523Y-54361749D01*
G04 #@! TO.C,Q3*
X123221761Y-55919619D02*
X123126523Y-55872000D01*
X123031285Y-55776761D01*
X122888428Y-55633904D01*
X122793190Y-55586285D01*
X122697952Y-55586285D01*
X122745571Y-55824380D02*
X122650333Y-55776761D01*
X122555095Y-55681523D01*
X122507476Y-55491047D01*
X122507476Y-55157714D01*
X122555095Y-54967238D01*
X122650333Y-54872000D01*
X122745571Y-54824380D01*
X122936047Y-54824380D01*
X123031285Y-54872000D01*
X123126523Y-54967238D01*
X123174142Y-55157714D01*
X123174142Y-55491047D01*
X123126523Y-55681523D01*
X123031285Y-55776761D01*
X122936047Y-55824380D01*
X122745571Y-55824380D01*
X123507476Y-54824380D02*
X124126523Y-54824380D01*
X123793190Y-55205333D01*
X123936047Y-55205333D01*
X124031285Y-55252952D01*
X124078904Y-55300571D01*
X124126523Y-55395809D01*
X124126523Y-55633904D01*
X124078904Y-55729142D01*
X124031285Y-55776761D01*
X123936047Y-55824380D01*
X123650333Y-55824380D01*
X123555095Y-55776761D01*
X123507476Y-55729142D01*
G04 #@! TO.C,Q4*
X105949761Y-57570619D02*
X105854523Y-57523000D01*
X105759285Y-57427761D01*
X105616428Y-57284904D01*
X105521190Y-57237285D01*
X105425952Y-57237285D01*
X105473571Y-57475380D02*
X105378333Y-57427761D01*
X105283095Y-57332523D01*
X105235476Y-57142047D01*
X105235476Y-56808714D01*
X105283095Y-56618238D01*
X105378333Y-56523000D01*
X105473571Y-56475380D01*
X105664047Y-56475380D01*
X105759285Y-56523000D01*
X105854523Y-56618238D01*
X105902142Y-56808714D01*
X105902142Y-57142047D01*
X105854523Y-57332523D01*
X105759285Y-57427761D01*
X105664047Y-57475380D01*
X105473571Y-57475380D01*
X106759285Y-56808714D02*
X106759285Y-57475380D01*
X106521190Y-56427761D02*
X106283095Y-57142047D01*
X106902142Y-57142047D01*
G04 #@! TO.C,R1*
X128194333Y-66424523D02*
X127911000Y-66019761D01*
X127708619Y-66424523D02*
X127708619Y-65574523D01*
X128032428Y-65574523D01*
X128113380Y-65615000D01*
X128153857Y-65655476D01*
X128194333Y-65736428D01*
X128194333Y-65857857D01*
X128153857Y-65938809D01*
X128113380Y-65979285D01*
X128032428Y-66019761D01*
X127708619Y-66019761D01*
X129003857Y-66424523D02*
X128518142Y-66424523D01*
X128761000Y-66424523D02*
X128761000Y-65574523D01*
X128680047Y-65695952D01*
X128599095Y-65776904D01*
X128518142Y-65817380D01*
G04 #@! TO.C,R6*
X131913333Y-70556380D02*
X131580000Y-70080190D01*
X131341904Y-70556380D02*
X131341904Y-69556380D01*
X131722857Y-69556380D01*
X131818095Y-69604000D01*
X131865714Y-69651619D01*
X131913333Y-69746857D01*
X131913333Y-69889714D01*
X131865714Y-69984952D01*
X131818095Y-70032571D01*
X131722857Y-70080190D01*
X131341904Y-70080190D01*
X132770476Y-69556380D02*
X132580000Y-69556380D01*
X132484761Y-69604000D01*
X132437142Y-69651619D01*
X132341904Y-69794476D01*
X132294285Y-69984952D01*
X132294285Y-70365904D01*
X132341904Y-70461142D01*
X132389523Y-70508761D01*
X132484761Y-70556380D01*
X132675238Y-70556380D01*
X132770476Y-70508761D01*
X132818095Y-70461142D01*
X132865714Y-70365904D01*
X132865714Y-70127809D01*
X132818095Y-70032571D01*
X132770476Y-69984952D01*
X132675238Y-69937333D01*
X132484761Y-69937333D01*
X132389523Y-69984952D01*
X132341904Y-70032571D01*
X132294285Y-70127809D01*
G04 #@! TO.C,R7*
X136596380Y-69000666D02*
X136120190Y-69334000D01*
X136596380Y-69572095D02*
X135596380Y-69572095D01*
X135596380Y-69191142D01*
X135644000Y-69095904D01*
X135691619Y-69048285D01*
X135786857Y-69000666D01*
X135929714Y-69000666D01*
X136024952Y-69048285D01*
X136072571Y-69095904D01*
X136120190Y-69191142D01*
X136120190Y-69572095D01*
X135596380Y-68667333D02*
X135596380Y-68000666D01*
X136596380Y-68429238D01*
G04 #@! TO.C,R8*
X140422333Y-60524380D02*
X140089000Y-60048190D01*
X139850904Y-60524380D02*
X139850904Y-59524380D01*
X140231857Y-59524380D01*
X140327095Y-59572000D01*
X140374714Y-59619619D01*
X140422333Y-59714857D01*
X140422333Y-59857714D01*
X140374714Y-59952952D01*
X140327095Y-60000571D01*
X140231857Y-60048190D01*
X139850904Y-60048190D01*
X140993761Y-59952952D02*
X140898523Y-59905333D01*
X140850904Y-59857714D01*
X140803285Y-59762476D01*
X140803285Y-59714857D01*
X140850904Y-59619619D01*
X140898523Y-59572000D01*
X140993761Y-59524380D01*
X141184238Y-59524380D01*
X141279476Y-59572000D01*
X141327095Y-59619619D01*
X141374714Y-59714857D01*
X141374714Y-59762476D01*
X141327095Y-59857714D01*
X141279476Y-59905333D01*
X141184238Y-59952952D01*
X140993761Y-59952952D01*
X140898523Y-60000571D01*
X140850904Y-60048190D01*
X140803285Y-60143428D01*
X140803285Y-60333904D01*
X140850904Y-60429142D01*
X140898523Y-60476761D01*
X140993761Y-60524380D01*
X141184238Y-60524380D01*
X141279476Y-60476761D01*
X141327095Y-60429142D01*
X141374714Y-60333904D01*
X141374714Y-60143428D01*
X141327095Y-60048190D01*
X141279476Y-60000571D01*
X141184238Y-59952952D01*
G04 #@! TO.C,R10*
X139946142Y-57222380D02*
X139612809Y-56746190D01*
X139374714Y-57222380D02*
X139374714Y-56222380D01*
X139755666Y-56222380D01*
X139850904Y-56270000D01*
X139898523Y-56317619D01*
X139946142Y-56412857D01*
X139946142Y-56555714D01*
X139898523Y-56650952D01*
X139850904Y-56698571D01*
X139755666Y-56746190D01*
X139374714Y-56746190D01*
X140898523Y-57222380D02*
X140327095Y-57222380D01*
X140612809Y-57222380D02*
X140612809Y-56222380D01*
X140517571Y-56365238D01*
X140422333Y-56460476D01*
X140327095Y-56508095D01*
X141517571Y-56222380D02*
X141612809Y-56222380D01*
X141708047Y-56270000D01*
X141755666Y-56317619D01*
X141803285Y-56412857D01*
X141850904Y-56603333D01*
X141850904Y-56841428D01*
X141803285Y-57031904D01*
X141755666Y-57127142D01*
X141708047Y-57174761D01*
X141612809Y-57222380D01*
X141517571Y-57222380D01*
X141422333Y-57174761D01*
X141374714Y-57127142D01*
X141327095Y-57031904D01*
X141279476Y-56841428D01*
X141279476Y-56603333D01*
X141327095Y-56412857D01*
X141374714Y-56317619D01*
X141422333Y-56270000D01*
X141517571Y-56222380D01*
G04 #@! TO.C,R11*
X140012142Y-53920380D02*
X139678809Y-53444190D01*
X139440714Y-53920380D02*
X139440714Y-52920380D01*
X139821666Y-52920380D01*
X139916904Y-52968000D01*
X139964523Y-53015619D01*
X140012142Y-53110857D01*
X140012142Y-53253714D01*
X139964523Y-53348952D01*
X139916904Y-53396571D01*
X139821666Y-53444190D01*
X139440714Y-53444190D01*
X140964523Y-53920380D02*
X140393095Y-53920380D01*
X140678809Y-53920380D02*
X140678809Y-52920380D01*
X140583571Y-53063238D01*
X140488333Y-53158476D01*
X140393095Y-53206095D01*
X141916904Y-53920380D02*
X141345476Y-53920380D01*
X141631190Y-53920380D02*
X141631190Y-52920380D01*
X141535952Y-53063238D01*
X141440714Y-53158476D01*
X141345476Y-53206095D01*
G04 #@! TO.C,R13*
X139631142Y-66366380D02*
X139297809Y-65890190D01*
X139059714Y-66366380D02*
X139059714Y-65366380D01*
X139440666Y-65366380D01*
X139535904Y-65414000D01*
X139583523Y-65461619D01*
X139631142Y-65556857D01*
X139631142Y-65699714D01*
X139583523Y-65794952D01*
X139535904Y-65842571D01*
X139440666Y-65890190D01*
X139059714Y-65890190D01*
X140583523Y-66366380D02*
X140012095Y-66366380D01*
X140297809Y-66366380D02*
X140297809Y-65366380D01*
X140202571Y-65509238D01*
X140107333Y-65604476D01*
X140012095Y-65652095D01*
X140916857Y-65366380D02*
X141535904Y-65366380D01*
X141202571Y-65747333D01*
X141345428Y-65747333D01*
X141440666Y-65794952D01*
X141488285Y-65842571D01*
X141535904Y-65937809D01*
X141535904Y-66175904D01*
X141488285Y-66271142D01*
X141440666Y-66318761D01*
X141345428Y-66366380D01*
X141059714Y-66366380D01*
X140964476Y-66318761D01*
X140916857Y-66271142D01*
G04 #@! TO.C,R14*
X128388695Y-59246299D02*
X128105362Y-58841537D01*
X127902981Y-59246299D02*
X127902981Y-58396299D01*
X128226790Y-58396299D01*
X128307743Y-58436776D01*
X128348219Y-58477252D01*
X128388695Y-58558204D01*
X128388695Y-58679633D01*
X128348219Y-58760585D01*
X128307743Y-58801061D01*
X128226790Y-58841537D01*
X127902981Y-58841537D01*
X129198219Y-59246299D02*
X128712504Y-59246299D01*
X128955362Y-59246299D02*
X128955362Y-58396299D01*
X128874409Y-58517728D01*
X128793457Y-58598680D01*
X128712504Y-58639156D01*
X129926790Y-58679633D02*
X129926790Y-59246299D01*
X129724409Y-58355823D02*
X129522028Y-58962966D01*
X130048219Y-58962966D01*
G04 #@! TO.C,R15*
X120515142Y-94686380D02*
X120181809Y-94210190D01*
X119943714Y-94686380D02*
X119943714Y-93686380D01*
X120324666Y-93686380D01*
X120419904Y-93734000D01*
X120467523Y-93781619D01*
X120515142Y-93876857D01*
X120515142Y-94019714D01*
X120467523Y-94114952D01*
X120419904Y-94162571D01*
X120324666Y-94210190D01*
X119943714Y-94210190D01*
X121467523Y-94686380D02*
X120896095Y-94686380D01*
X121181809Y-94686380D02*
X121181809Y-93686380D01*
X121086571Y-93829238D01*
X120991333Y-93924476D01*
X120896095Y-93972095D01*
X122372285Y-93686380D02*
X121896095Y-93686380D01*
X121848476Y-94162571D01*
X121896095Y-94114952D01*
X121991333Y-94067333D01*
X122229428Y-94067333D01*
X122324666Y-94114952D01*
X122372285Y-94162571D01*
X122419904Y-94257809D01*
X122419904Y-94495904D01*
X122372285Y-94591142D01*
X122324666Y-94638761D01*
X122229428Y-94686380D01*
X121991333Y-94686380D01*
X121896095Y-94638761D01*
X121848476Y-94591142D01*
G04 #@! TO.C,R16*
X143441142Y-71064380D02*
X143107809Y-70588190D01*
X142869714Y-71064380D02*
X142869714Y-70064380D01*
X143250666Y-70064380D01*
X143345904Y-70112000D01*
X143393523Y-70159619D01*
X143441142Y-70254857D01*
X143441142Y-70397714D01*
X143393523Y-70492952D01*
X143345904Y-70540571D01*
X143250666Y-70588190D01*
X142869714Y-70588190D01*
X144393523Y-71064380D02*
X143822095Y-71064380D01*
X144107809Y-71064380D02*
X144107809Y-70064380D01*
X144012571Y-70207238D01*
X143917333Y-70302476D01*
X143822095Y-70350095D01*
X145250666Y-70064380D02*
X145060190Y-70064380D01*
X144964952Y-70112000D01*
X144917333Y-70159619D01*
X144822095Y-70302476D01*
X144774476Y-70492952D01*
X144774476Y-70873904D01*
X144822095Y-70969142D01*
X144869714Y-71016761D01*
X144964952Y-71064380D01*
X145155428Y-71064380D01*
X145250666Y-71016761D01*
X145298285Y-70969142D01*
X145345904Y-70873904D01*
X145345904Y-70635809D01*
X145298285Y-70540571D01*
X145250666Y-70492952D01*
X145155428Y-70445333D01*
X144964952Y-70445333D01*
X144869714Y-70492952D01*
X144822095Y-70540571D01*
X144774476Y-70635809D01*
G04 #@! TO.C,R17*
X148534380Y-68394857D02*
X148058190Y-68728190D01*
X148534380Y-68966285D02*
X147534380Y-68966285D01*
X147534380Y-68585333D01*
X147582000Y-68490095D01*
X147629619Y-68442476D01*
X147724857Y-68394857D01*
X147867714Y-68394857D01*
X147962952Y-68442476D01*
X148010571Y-68490095D01*
X148058190Y-68585333D01*
X148058190Y-68966285D01*
X148534380Y-67442476D02*
X148534380Y-68013904D01*
X148534380Y-67728190D02*
X147534380Y-67728190D01*
X147677238Y-67823428D01*
X147772476Y-67918666D01*
X147820095Y-68013904D01*
X147534380Y-67109142D02*
X147534380Y-66442476D01*
X148534380Y-66871047D01*
G04 #@! TO.C,R18*
X125594695Y-55944299D02*
X125311362Y-55539537D01*
X125108981Y-55944299D02*
X125108981Y-55094299D01*
X125432790Y-55094299D01*
X125513743Y-55134776D01*
X125554219Y-55175252D01*
X125594695Y-55256204D01*
X125594695Y-55377633D01*
X125554219Y-55458585D01*
X125513743Y-55499061D01*
X125432790Y-55539537D01*
X125108981Y-55539537D01*
X126404219Y-55944299D02*
X125918504Y-55944299D01*
X126161362Y-55944299D02*
X126161362Y-55094299D01*
X126080409Y-55215728D01*
X125999457Y-55296680D01*
X125918504Y-55337156D01*
X126889933Y-55458585D02*
X126808981Y-55418109D01*
X126768504Y-55377633D01*
X126728028Y-55296680D01*
X126728028Y-55256204D01*
X126768504Y-55175252D01*
X126808981Y-55134776D01*
X126889933Y-55094299D01*
X127051838Y-55094299D01*
X127132790Y-55134776D01*
X127173266Y-55175252D01*
X127213743Y-55256204D01*
X127213743Y-55296680D01*
X127173266Y-55377633D01*
X127132790Y-55418109D01*
X127051838Y-55458585D01*
X126889933Y-55458585D01*
X126808981Y-55499061D01*
X126768504Y-55539537D01*
X126728028Y-55620490D01*
X126728028Y-55782395D01*
X126768504Y-55863347D01*
X126808981Y-55903823D01*
X126889933Y-55944299D01*
X127051838Y-55944299D01*
X127132790Y-55903823D01*
X127173266Y-55863347D01*
X127213743Y-55782395D01*
X127213743Y-55620490D01*
X127173266Y-55539537D01*
X127132790Y-55499061D01*
X127051838Y-55458585D01*
G04 #@! TO.C,R19*
X127500142Y-95067380D02*
X127166809Y-94591190D01*
X126928714Y-95067380D02*
X126928714Y-94067380D01*
X127309666Y-94067380D01*
X127404904Y-94115000D01*
X127452523Y-94162619D01*
X127500142Y-94257857D01*
X127500142Y-94400714D01*
X127452523Y-94495952D01*
X127404904Y-94543571D01*
X127309666Y-94591190D01*
X126928714Y-94591190D01*
X128452523Y-95067380D02*
X127881095Y-95067380D01*
X128166809Y-95067380D02*
X128166809Y-94067380D01*
X128071571Y-94210238D01*
X127976333Y-94305476D01*
X127881095Y-94353095D01*
X128928714Y-95067380D02*
X129119190Y-95067380D01*
X129214428Y-95019761D01*
X129262047Y-94972142D01*
X129357285Y-94829285D01*
X129404904Y-94638809D01*
X129404904Y-94257857D01*
X129357285Y-94162619D01*
X129309666Y-94115000D01*
X129214428Y-94067380D01*
X129023952Y-94067380D01*
X128928714Y-94115000D01*
X128881095Y-94162619D01*
X128833476Y-94257857D01*
X128833476Y-94495952D01*
X128881095Y-94591190D01*
X128928714Y-94638809D01*
X129023952Y-94686428D01*
X129214428Y-94686428D01*
X129309666Y-94638809D01*
X129357285Y-94591190D01*
X129404904Y-94495952D01*
G04 #@! TO.C,R20*
X110959571Y-48136523D02*
X110676238Y-47731761D01*
X110473857Y-48136523D02*
X110473857Y-47286523D01*
X110797666Y-47286523D01*
X110878619Y-47327000D01*
X110919095Y-47367476D01*
X110959571Y-47448428D01*
X110959571Y-47569857D01*
X110919095Y-47650809D01*
X110878619Y-47691285D01*
X110797666Y-47731761D01*
X110473857Y-47731761D01*
X111283380Y-47367476D02*
X111323857Y-47327000D01*
X111404809Y-47286523D01*
X111607190Y-47286523D01*
X111688142Y-47327000D01*
X111728619Y-47367476D01*
X111769095Y-47448428D01*
X111769095Y-47529380D01*
X111728619Y-47650809D01*
X111242904Y-48136523D01*
X111769095Y-48136523D01*
X112295285Y-47286523D02*
X112376238Y-47286523D01*
X112457190Y-47327000D01*
X112497666Y-47367476D01*
X112538142Y-47448428D01*
X112578619Y-47610333D01*
X112578619Y-47812714D01*
X112538142Y-47974619D01*
X112497666Y-48055571D01*
X112457190Y-48096047D01*
X112376238Y-48136523D01*
X112295285Y-48136523D01*
X112214333Y-48096047D01*
X112173857Y-48055571D01*
X112133380Y-47974619D01*
X112092904Y-47812714D01*
X112092904Y-47610333D01*
X112133380Y-47448428D01*
X112173857Y-47367476D01*
X112214333Y-47327000D01*
X112295285Y-47286523D01*
G04 #@! TO.C,R21*
X113499571Y-51184523D02*
X113216238Y-50779761D01*
X113013857Y-51184523D02*
X113013857Y-50334523D01*
X113337666Y-50334523D01*
X113418619Y-50375000D01*
X113459095Y-50415476D01*
X113499571Y-50496428D01*
X113499571Y-50617857D01*
X113459095Y-50698809D01*
X113418619Y-50739285D01*
X113337666Y-50779761D01*
X113013857Y-50779761D01*
X113823380Y-50415476D02*
X113863857Y-50375000D01*
X113944809Y-50334523D01*
X114147190Y-50334523D01*
X114228142Y-50375000D01*
X114268619Y-50415476D01*
X114309095Y-50496428D01*
X114309095Y-50577380D01*
X114268619Y-50698809D01*
X113782904Y-51184523D01*
X114309095Y-51184523D01*
X115118619Y-51184523D02*
X114632904Y-51184523D01*
X114875761Y-51184523D02*
X114875761Y-50334523D01*
X114794809Y-50455952D01*
X114713857Y-50536904D01*
X114632904Y-50577380D01*
G04 #@! TO.C,R22*
X108704142Y-58491380D02*
X108370809Y-58015190D01*
X108132714Y-58491380D02*
X108132714Y-57491380D01*
X108513666Y-57491380D01*
X108608904Y-57539000D01*
X108656523Y-57586619D01*
X108704142Y-57681857D01*
X108704142Y-57824714D01*
X108656523Y-57919952D01*
X108608904Y-57967571D01*
X108513666Y-58015190D01*
X108132714Y-58015190D01*
X109085095Y-57586619D02*
X109132714Y-57539000D01*
X109227952Y-57491380D01*
X109466047Y-57491380D01*
X109561285Y-57539000D01*
X109608904Y-57586619D01*
X109656523Y-57681857D01*
X109656523Y-57777095D01*
X109608904Y-57919952D01*
X109037476Y-58491380D01*
X109656523Y-58491380D01*
X110037476Y-57586619D02*
X110085095Y-57539000D01*
X110180333Y-57491380D01*
X110418428Y-57491380D01*
X110513666Y-57539000D01*
X110561285Y-57586619D01*
X110608904Y-57681857D01*
X110608904Y-57777095D01*
X110561285Y-57919952D01*
X109989857Y-58491380D01*
X110608904Y-58491380D01*
G04 #@! TO.C,R23*
X120103571Y-48898523D02*
X119820238Y-48493761D01*
X119617857Y-48898523D02*
X119617857Y-48048523D01*
X119941666Y-48048523D01*
X120022619Y-48089000D01*
X120063095Y-48129476D01*
X120103571Y-48210428D01*
X120103571Y-48331857D01*
X120063095Y-48412809D01*
X120022619Y-48453285D01*
X119941666Y-48493761D01*
X119617857Y-48493761D01*
X120427380Y-48129476D02*
X120467857Y-48089000D01*
X120548809Y-48048523D01*
X120751190Y-48048523D01*
X120832142Y-48089000D01*
X120872619Y-48129476D01*
X120913095Y-48210428D01*
X120913095Y-48291380D01*
X120872619Y-48412809D01*
X120386904Y-48898523D01*
X120913095Y-48898523D01*
X121196428Y-48048523D02*
X121722619Y-48048523D01*
X121439285Y-48372333D01*
X121560714Y-48372333D01*
X121641666Y-48412809D01*
X121682142Y-48453285D01*
X121722619Y-48534238D01*
X121722619Y-48736619D01*
X121682142Y-48817571D01*
X121641666Y-48858047D01*
X121560714Y-48898523D01*
X121317857Y-48898523D01*
X121236904Y-48858047D01*
X121196428Y-48817571D01*
G04 #@! TO.C,R24*
X122643571Y-51946523D02*
X122360238Y-51541761D01*
X122157857Y-51946523D02*
X122157857Y-51096523D01*
X122481666Y-51096523D01*
X122562619Y-51137000D01*
X122603095Y-51177476D01*
X122643571Y-51258428D01*
X122643571Y-51379857D01*
X122603095Y-51460809D01*
X122562619Y-51501285D01*
X122481666Y-51541761D01*
X122157857Y-51541761D01*
X122967380Y-51177476D02*
X123007857Y-51137000D01*
X123088809Y-51096523D01*
X123291190Y-51096523D01*
X123372142Y-51137000D01*
X123412619Y-51177476D01*
X123453095Y-51258428D01*
X123453095Y-51339380D01*
X123412619Y-51460809D01*
X122926904Y-51946523D01*
X123453095Y-51946523D01*
X124181666Y-51379857D02*
X124181666Y-51946523D01*
X123979285Y-51056047D02*
X123776904Y-51663190D01*
X124303095Y-51663190D01*
G04 #@! TO.C,R25*
X119389961Y-58650226D02*
X118913771Y-58983559D01*
X119389961Y-59221654D02*
X118389961Y-59221654D01*
X118389961Y-58840702D01*
X118437581Y-58745464D01*
X118485200Y-58697845D01*
X118580438Y-58650226D01*
X118723295Y-58650226D01*
X118818533Y-58697845D01*
X118866152Y-58745464D01*
X118913771Y-58840702D01*
X118913771Y-59221654D01*
X118485200Y-58269273D02*
X118437581Y-58221654D01*
X118389961Y-58126416D01*
X118389961Y-57888321D01*
X118437581Y-57793083D01*
X118485200Y-57745464D01*
X118580438Y-57697845D01*
X118675676Y-57697845D01*
X118818533Y-57745464D01*
X119389961Y-58316892D01*
X119389961Y-57697845D01*
X118389961Y-56793083D02*
X118389961Y-57269273D01*
X118866152Y-57316892D01*
X118818533Y-57269273D01*
X118770914Y-57174035D01*
X118770914Y-56935940D01*
X118818533Y-56840702D01*
X118866152Y-56793083D01*
X118961390Y-56745464D01*
X119199485Y-56745464D01*
X119294723Y-56793083D01*
X119342342Y-56840702D01*
X119389961Y-56935940D01*
X119389961Y-57174035D01*
X119342342Y-57269273D01*
X119294723Y-57316892D01*
G04 #@! TO.C,R26 (DNP)*
X103338714Y-86050380D02*
X103005380Y-85574190D01*
X102767285Y-86050380D02*
X102767285Y-85050380D01*
X103148238Y-85050380D01*
X103243476Y-85098000D01*
X103291095Y-85145619D01*
X103338714Y-85240857D01*
X103338714Y-85383714D01*
X103291095Y-85478952D01*
X103243476Y-85526571D01*
X103148238Y-85574190D01*
X102767285Y-85574190D01*
X103719666Y-85145619D02*
X103767285Y-85098000D01*
X103862523Y-85050380D01*
X104100619Y-85050380D01*
X104195857Y-85098000D01*
X104243476Y-85145619D01*
X104291095Y-85240857D01*
X104291095Y-85336095D01*
X104243476Y-85478952D01*
X103672047Y-86050380D01*
X104291095Y-86050380D01*
X105148238Y-85050380D02*
X104957761Y-85050380D01*
X104862523Y-85098000D01*
X104814904Y-85145619D01*
X104719666Y-85288476D01*
X104672047Y-85478952D01*
X104672047Y-85859904D01*
X104719666Y-85955142D01*
X104767285Y-86002761D01*
X104862523Y-86050380D01*
X105053000Y-86050380D01*
X105148238Y-86002761D01*
X105195857Y-85955142D01*
X105243476Y-85859904D01*
X105243476Y-85621809D01*
X105195857Y-85526571D01*
X105148238Y-85478952D01*
X105053000Y-85431333D01*
X104862523Y-85431333D01*
X104767285Y-85478952D01*
X104719666Y-85526571D01*
X104672047Y-85621809D01*
X106719666Y-86431333D02*
X106672047Y-86383714D01*
X106576809Y-86240857D01*
X106529190Y-86145619D01*
X106481571Y-86002761D01*
X106433952Y-85764666D01*
X106433952Y-85574190D01*
X106481571Y-85336095D01*
X106529190Y-85193238D01*
X106576809Y-85098000D01*
X106672047Y-84955142D01*
X106719666Y-84907523D01*
X107100619Y-86050380D02*
X107100619Y-85050380D01*
X107338714Y-85050380D01*
X107481571Y-85098000D01*
X107576809Y-85193238D01*
X107624428Y-85288476D01*
X107672047Y-85478952D01*
X107672047Y-85621809D01*
X107624428Y-85812285D01*
X107576809Y-85907523D01*
X107481571Y-86002761D01*
X107338714Y-86050380D01*
X107100619Y-86050380D01*
X108100619Y-86050380D02*
X108100619Y-85050380D01*
X108672047Y-86050380D01*
X108672047Y-85050380D01*
X109148238Y-86050380D02*
X109148238Y-85050380D01*
X109529190Y-85050380D01*
X109624428Y-85098000D01*
X109672047Y-85145619D01*
X109719666Y-85240857D01*
X109719666Y-85383714D01*
X109672047Y-85478952D01*
X109624428Y-85526571D01*
X109529190Y-85574190D01*
X109148238Y-85574190D01*
X110053000Y-86431333D02*
X110100619Y-86383714D01*
X110195857Y-86240857D01*
X110243476Y-86145619D01*
X110291095Y-86002761D01*
X110338714Y-85764666D01*
X110338714Y-85574190D01*
X110291095Y-85336095D01*
X110243476Y-85193238D01*
X110195857Y-85098000D01*
X110100619Y-84955142D01*
X110053000Y-84907523D01*
G04 #@! TO.C,R27*
X102831571Y-51438523D02*
X102548238Y-51033761D01*
X102345857Y-51438523D02*
X102345857Y-50588523D01*
X102669666Y-50588523D01*
X102750619Y-50629000D01*
X102791095Y-50669476D01*
X102831571Y-50750428D01*
X102831571Y-50871857D01*
X102791095Y-50952809D01*
X102750619Y-50993285D01*
X102669666Y-51033761D01*
X102345857Y-51033761D01*
X103155380Y-50669476D02*
X103195857Y-50629000D01*
X103276809Y-50588523D01*
X103479190Y-50588523D01*
X103560142Y-50629000D01*
X103600619Y-50669476D01*
X103641095Y-50750428D01*
X103641095Y-50831380D01*
X103600619Y-50952809D01*
X103114904Y-51438523D01*
X103641095Y-51438523D01*
X103924428Y-50588523D02*
X104491095Y-50588523D01*
X104126809Y-51438523D01*
G04 #@! TO.C,R28*
X105371571Y-54486523D02*
X105088238Y-54081761D01*
X104885857Y-54486523D02*
X104885857Y-53636523D01*
X105209666Y-53636523D01*
X105290619Y-53677000D01*
X105331095Y-53717476D01*
X105371571Y-53798428D01*
X105371571Y-53919857D01*
X105331095Y-54000809D01*
X105290619Y-54041285D01*
X105209666Y-54081761D01*
X104885857Y-54081761D01*
X105695380Y-53717476D02*
X105735857Y-53677000D01*
X105816809Y-53636523D01*
X106019190Y-53636523D01*
X106100142Y-53677000D01*
X106140619Y-53717476D01*
X106181095Y-53798428D01*
X106181095Y-53879380D01*
X106140619Y-54000809D01*
X105654904Y-54486523D01*
X106181095Y-54486523D01*
X106666809Y-54000809D02*
X106585857Y-53960333D01*
X106545380Y-53919857D01*
X106504904Y-53838904D01*
X106504904Y-53798428D01*
X106545380Y-53717476D01*
X106585857Y-53677000D01*
X106666809Y-53636523D01*
X106828714Y-53636523D01*
X106909666Y-53677000D01*
X106950142Y-53717476D01*
X106990619Y-53798428D01*
X106990619Y-53838904D01*
X106950142Y-53919857D01*
X106909666Y-53960333D01*
X106828714Y-54000809D01*
X106666809Y-54000809D01*
X106585857Y-54041285D01*
X106545380Y-54081761D01*
X106504904Y-54162714D01*
X106504904Y-54324619D01*
X106545380Y-54405571D01*
X106585857Y-54446047D01*
X106666809Y-54486523D01*
X106828714Y-54486523D01*
X106909666Y-54446047D01*
X106950142Y-54405571D01*
X106990619Y-54324619D01*
X106990619Y-54162714D01*
X106950142Y-54081761D01*
X106909666Y-54041285D01*
X106828714Y-54000809D01*
G04 #@! TO.C,R29*
X102117961Y-61190226D02*
X101641771Y-61523559D01*
X102117961Y-61761654D02*
X101117961Y-61761654D01*
X101117961Y-61380702D01*
X101165581Y-61285464D01*
X101213200Y-61237845D01*
X101308438Y-61190226D01*
X101451295Y-61190226D01*
X101546533Y-61237845D01*
X101594152Y-61285464D01*
X101641771Y-61380702D01*
X101641771Y-61761654D01*
X101213200Y-60809273D02*
X101165581Y-60761654D01*
X101117961Y-60666416D01*
X101117961Y-60428321D01*
X101165581Y-60333083D01*
X101213200Y-60285464D01*
X101308438Y-60237845D01*
X101403676Y-60237845D01*
X101546533Y-60285464D01*
X102117961Y-60856892D01*
X102117961Y-60237845D01*
X102117961Y-59761654D02*
X102117961Y-59571178D01*
X102070342Y-59475940D01*
X102022723Y-59428321D01*
X101879866Y-59333083D01*
X101689390Y-59285464D01*
X101308438Y-59285464D01*
X101213200Y-59333083D01*
X101165581Y-59380702D01*
X101117961Y-59475940D01*
X101117961Y-59666416D01*
X101165581Y-59761654D01*
X101213200Y-59809273D01*
X101308438Y-59856892D01*
X101546533Y-59856892D01*
X101641771Y-59809273D01*
X101689390Y-59761654D01*
X101737009Y-59666416D01*
X101737009Y-59475940D01*
X101689390Y-59380702D01*
X101641771Y-59333083D01*
X101546533Y-59285464D01*
G04 #@! TO.C,R30*
X126006762Y-63099496D02*
X125434343Y-62998481D01*
X125602701Y-63503557D02*
X124895595Y-62796450D01*
X125164969Y-62527076D01*
X125265984Y-62493404D01*
X125333327Y-62493404D01*
X125434343Y-62527076D01*
X125535358Y-62628091D01*
X125569030Y-62729107D01*
X125569030Y-62796450D01*
X125535358Y-62897465D01*
X125265984Y-63166839D01*
X125535358Y-62156687D02*
X125973091Y-61718954D01*
X126006762Y-62224030D01*
X126107778Y-62123015D01*
X126208793Y-62089343D01*
X126276137Y-62089343D01*
X126377152Y-62123015D01*
X126545511Y-62291374D01*
X126579182Y-62392389D01*
X126579182Y-62459733D01*
X126545511Y-62560748D01*
X126343480Y-62762778D01*
X126242465Y-62796450D01*
X126175121Y-62796450D01*
X126410824Y-61281221D02*
X126478167Y-61213878D01*
X126579182Y-61180206D01*
X126646526Y-61180206D01*
X126747541Y-61213878D01*
X126915900Y-61314893D01*
X127084259Y-61483252D01*
X127185274Y-61651610D01*
X127218946Y-61752626D01*
X127218946Y-61819969D01*
X127185274Y-61920984D01*
X127117930Y-61988328D01*
X127016915Y-62022000D01*
X126949572Y-62022000D01*
X126848556Y-61988328D01*
X126680198Y-61887313D01*
X126511839Y-61718954D01*
X126410824Y-61550595D01*
X126377152Y-61449580D01*
X126377152Y-61382236D01*
X126410824Y-61281221D01*
G04 #@! TO.C,R31*
X107048548Y-63111312D02*
X107149563Y-62538893D01*
X106644487Y-62707251D02*
X107351594Y-62000145D01*
X107620968Y-62269519D01*
X107654640Y-62370534D01*
X107654640Y-62437877D01*
X107620968Y-62538893D01*
X107519953Y-62639908D01*
X107418937Y-62673580D01*
X107351594Y-62673580D01*
X107250579Y-62639908D01*
X106981205Y-62370534D01*
X107991357Y-62639908D02*
X108429090Y-63077641D01*
X107924014Y-63111312D01*
X108025029Y-63212328D01*
X108058701Y-63313343D01*
X108058701Y-63380687D01*
X108025029Y-63481702D01*
X107856670Y-63650061D01*
X107755655Y-63683732D01*
X107688311Y-63683732D01*
X107587296Y-63650061D01*
X107385266Y-63448030D01*
X107351594Y-63347015D01*
X107351594Y-63279671D01*
X108395418Y-64458183D02*
X107991357Y-64054122D01*
X108193388Y-64256152D02*
X108900495Y-63549045D01*
X108732136Y-63582717D01*
X108597449Y-63582717D01*
X108496434Y-63549045D01*
G04 #@! TO.C,U3*
X142875095Y-63460380D02*
X142875095Y-64269904D01*
X142922714Y-64365142D01*
X142970333Y-64412761D01*
X143065571Y-64460380D01*
X143256047Y-64460380D01*
X143351285Y-64412761D01*
X143398904Y-64365142D01*
X143446523Y-64269904D01*
X143446523Y-63460380D01*
X143827476Y-63460380D02*
X144446523Y-63460380D01*
X144113190Y-63841333D01*
X144256047Y-63841333D01*
X144351285Y-63888952D01*
X144398904Y-63936571D01*
X144446523Y-64031809D01*
X144446523Y-64269904D01*
X144398904Y-64365142D01*
X144351285Y-64412761D01*
X144256047Y-64460380D01*
X143970333Y-64460380D01*
X143875095Y-64412761D01*
X143827476Y-64365142D01*
G04 #@! TO.C,Y1*
X122713809Y-77954190D02*
X122713809Y-78430380D01*
X122380476Y-77430380D02*
X122713809Y-77954190D01*
X123047142Y-77430380D01*
X123904285Y-78430380D02*
X123332857Y-78430380D01*
X123618571Y-78430380D02*
X123618571Y-77430380D01*
X123523333Y-77573238D01*
X123428095Y-77668476D01*
X123332857Y-77716095D01*
G04 #@! TO.C,R_1*
X100356380Y-94177380D02*
X100023047Y-93701190D01*
X99784952Y-94177380D02*
X99784952Y-93177380D01*
X100165904Y-93177380D01*
X100261142Y-93225000D01*
X100308761Y-93272619D01*
X100356380Y-93367857D01*
X100356380Y-93510714D01*
X100308761Y-93605952D01*
X100261142Y-93653571D01*
X100165904Y-93701190D01*
X99784952Y-93701190D01*
X100546857Y-94272619D02*
X101308761Y-94272619D01*
X102070666Y-94177380D02*
X101499238Y-94177380D01*
X101784952Y-94177380D02*
X101784952Y-93177380D01*
X101689714Y-93320238D01*
X101594476Y-93415476D01*
X101499238Y-93463095D01*
G04 #@! TO.C,R_2*
X98578380Y-88336380D02*
X98245047Y-87860190D01*
X98006952Y-88336380D02*
X98006952Y-87336380D01*
X98387904Y-87336380D01*
X98483142Y-87384000D01*
X98530761Y-87431619D01*
X98578380Y-87526857D01*
X98578380Y-87669714D01*
X98530761Y-87764952D01*
X98483142Y-87812571D01*
X98387904Y-87860190D01*
X98006952Y-87860190D01*
X98768857Y-88431619D02*
X99530761Y-88431619D01*
X99721238Y-87431619D02*
X99768857Y-87384000D01*
X99864095Y-87336380D01*
X100102190Y-87336380D01*
X100197428Y-87384000D01*
X100245047Y-87431619D01*
X100292666Y-87526857D01*
X100292666Y-87622095D01*
X100245047Y-87764952D01*
X99673619Y-88336380D01*
X100292666Y-88336380D01*
G04 #@! TD*
M02*
