G04 #@! TF.GenerationSoftware,KiCad,Pcbnew,5.0.0-fee4fd1~66~ubuntu16.04.1*
G04 #@! TF.CreationDate,2019-04-14T05:53:46-04:00*
G04 #@! TF.ProjectId,AIR_Control_Board,4149525F436F6E74726F6C5F426F6172,rev?*
G04 #@! TF.SameCoordinates,Original*
G04 #@! TF.FileFunction,Legend,Top*
G04 #@! TF.FilePolarity,Positive*
%FSLAX46Y46*%
G04 Gerber Fmt 4.6, Leading zero omitted, Abs format (unit mm)*
G04 Created by KiCad (PCBNEW 5.0.0-fee4fd1~66~ubuntu16.04.1) date Sun Apr 14 05:53:46 2019*
%MOMM*%
%LPD*%
G01*
G04 APERTURE LIST*
%ADD10C,0.150000*%
%ADD11C,0.180000*%
%ADD12C,0.200000*%
%ADD13C,0.125000*%
%ADD14C,0.120000*%
%ADD15C,0.152400*%
%ADD16C,0.100000*%
%ADD17C,0.500000*%
G04 APERTURE END LIST*
D10*
X159626965Y-120501706D02*
X160103156Y-120501706D01*
X159531727Y-120787420D02*
X159865060Y-119787420D01*
X160198394Y-120787420D01*
X160531727Y-120406468D02*
X161293632Y-120406468D01*
X161674584Y-119787420D02*
X161912680Y-120787420D01*
X162103156Y-120073135D01*
X162293632Y-120787420D01*
X162531727Y-119787420D01*
X162912680Y-120263611D02*
X163246013Y-120263611D01*
X163388870Y-120787420D02*
X162912680Y-120787420D01*
X162912680Y-119787420D01*
X163388870Y-119787420D01*
X164293632Y-120787420D02*
X163817441Y-120787420D01*
X163817441Y-119787420D01*
X164626965Y-120787420D02*
X164626965Y-119787420D01*
X164865060Y-119787420D01*
X165007918Y-119835040D01*
X165103156Y-119930278D01*
X165150775Y-120025516D01*
X165198394Y-120215992D01*
X165198394Y-120358849D01*
X165150775Y-120549325D01*
X165103156Y-120644563D01*
X165007918Y-120739801D01*
X164865060Y-120787420D01*
X164626965Y-120787420D01*
X155883005Y-123437946D02*
X156359196Y-123437946D01*
X155787767Y-123723660D02*
X156121100Y-122723660D01*
X156454434Y-123723660D01*
X156787767Y-123342708D02*
X157549672Y-123342708D01*
X157168720Y-123723660D02*
X157168720Y-122961756D01*
X157930624Y-122723660D02*
X158168720Y-123723660D01*
X158359196Y-123009375D01*
X158549672Y-123723660D01*
X158787767Y-122723660D01*
X159168720Y-123199851D02*
X159502053Y-123199851D01*
X159644910Y-123723660D02*
X159168720Y-123723660D01*
X159168720Y-122723660D01*
X159644910Y-122723660D01*
X160549672Y-123723660D02*
X160073481Y-123723660D01*
X160073481Y-122723660D01*
X160883005Y-123723660D02*
X160883005Y-122723660D01*
X161121100Y-122723660D01*
X161263958Y-122771280D01*
X161359196Y-122866518D01*
X161406815Y-122961756D01*
X161454434Y-123152232D01*
X161454434Y-123295089D01*
X161406815Y-123485565D01*
X161359196Y-123580803D01*
X161263958Y-123676041D01*
X161121100Y-123723660D01*
X160883005Y-123723660D01*
D11*
X146463531Y-90988525D02*
X146634960Y-91045668D01*
X146692102Y-91102811D01*
X146749245Y-91217097D01*
X146749245Y-91388525D01*
X146692102Y-91502811D01*
X146634960Y-91559954D01*
X146520674Y-91617097D01*
X146063531Y-91617097D01*
X146063531Y-90417097D01*
X146463531Y-90417097D01*
X146577817Y-90474240D01*
X146634960Y-90531382D01*
X146692102Y-90645668D01*
X146692102Y-90759954D01*
X146634960Y-90874240D01*
X146577817Y-90931382D01*
X146463531Y-90988525D01*
X146063531Y-90988525D01*
X147263531Y-91617097D02*
X147263531Y-90417097D01*
X147663531Y-91274240D01*
X148063531Y-90417097D01*
X148063531Y-91617097D01*
X148577817Y-91559954D02*
X148749245Y-91617097D01*
X149034960Y-91617097D01*
X149149245Y-91559954D01*
X149206388Y-91502811D01*
X149263531Y-91388525D01*
X149263531Y-91274240D01*
X149206388Y-91159954D01*
X149149245Y-91102811D01*
X149034960Y-91045668D01*
X148806388Y-90988525D01*
X148692102Y-90931382D01*
X148634960Y-90874240D01*
X148577817Y-90759954D01*
X148577817Y-90645668D01*
X148634960Y-90531382D01*
X148692102Y-90474240D01*
X148806388Y-90417097D01*
X149092102Y-90417097D01*
X149263531Y-90474240D01*
D12*
X162667131Y-99349820D02*
X162667131Y-98349820D01*
X163143321Y-99349820D02*
X163143321Y-98349820D01*
X163476655Y-99064106D01*
X163809988Y-98349820D01*
X163809988Y-99349820D01*
X164286179Y-99349820D02*
X164286179Y-98349820D01*
X164524274Y-98349820D01*
X164667131Y-98397440D01*
X164762369Y-98492678D01*
X164809988Y-98587916D01*
X164857607Y-98778392D01*
X164857607Y-98921249D01*
X164809988Y-99111725D01*
X164762369Y-99206963D01*
X164667131Y-99302201D01*
X164524274Y-99349820D01*
X164286179Y-99349820D01*
D10*
X167946154Y-97643700D02*
X168517582Y-97643700D01*
X168231868Y-98643700D02*
X168231868Y-97643700D01*
X168803297Y-98596081D02*
X168946154Y-98643700D01*
X169184249Y-98643700D01*
X169279487Y-98596081D01*
X169327106Y-98548462D01*
X169374725Y-98453224D01*
X169374725Y-98357986D01*
X169327106Y-98262748D01*
X169279487Y-98215129D01*
X169184249Y-98167510D01*
X168993773Y-98119891D01*
X168898535Y-98072272D01*
X168850916Y-98024653D01*
X168803297Y-97929415D01*
X168803297Y-97834177D01*
X168850916Y-97738939D01*
X168898535Y-97691320D01*
X168993773Y-97643700D01*
X169231868Y-97643700D01*
X169374725Y-97691320D01*
X169565201Y-98738939D02*
X170327106Y-98738939D01*
X171136630Y-98548462D02*
X171089011Y-98596081D01*
X170946154Y-98643700D01*
X170850916Y-98643700D01*
X170708059Y-98596081D01*
X170612820Y-98500843D01*
X170565201Y-98405605D01*
X170517582Y-98215129D01*
X170517582Y-98072272D01*
X170565201Y-97881796D01*
X170612820Y-97786558D01*
X170708059Y-97691320D01*
X170850916Y-97643700D01*
X170946154Y-97643700D01*
X171089011Y-97691320D01*
X171136630Y-97738939D01*
X171755678Y-97643700D02*
X171946154Y-97643700D01*
X172041392Y-97691320D01*
X172136630Y-97786558D01*
X172184249Y-97977034D01*
X172184249Y-98310367D01*
X172136630Y-98500843D01*
X172041392Y-98596081D01*
X171946154Y-98643700D01*
X171755678Y-98643700D01*
X171660440Y-98596081D01*
X171565201Y-98500843D01*
X171517582Y-98310367D01*
X171517582Y-97977034D01*
X171565201Y-97786558D01*
X171660440Y-97691320D01*
X171755678Y-97643700D01*
X172612820Y-98643700D02*
X172612820Y-97643700D01*
X173184249Y-98643700D01*
X173184249Y-97643700D01*
X173660440Y-98643700D02*
X173660440Y-97643700D01*
X174231868Y-98643700D01*
X174231868Y-97643700D01*
X178806933Y-100599500D02*
X178806933Y-99599500D01*
X178806933Y-100075691D02*
X179378361Y-100075691D01*
X179378361Y-100599500D02*
X179378361Y-99599500D01*
X179711695Y-99599500D02*
X180045028Y-100599500D01*
X180378361Y-99599500D01*
X180711695Y-100599500D02*
X180711695Y-99599500D01*
X180949790Y-99599500D01*
X181092647Y-99647120D01*
X181187885Y-99742358D01*
X181235504Y-99837596D01*
X181283123Y-100028072D01*
X181283123Y-100170929D01*
X181235504Y-100361405D01*
X181187885Y-100456643D01*
X181092647Y-100551881D01*
X180949790Y-100599500D01*
X180711695Y-100599500D01*
X181473600Y-100694739D02*
X182235504Y-100694739D01*
X183045028Y-100504262D02*
X182997409Y-100551881D01*
X182854552Y-100599500D01*
X182759314Y-100599500D01*
X182616457Y-100551881D01*
X182521219Y-100456643D01*
X182473600Y-100361405D01*
X182425980Y-100170929D01*
X182425980Y-100028072D01*
X182473600Y-99837596D01*
X182521219Y-99742358D01*
X182616457Y-99647120D01*
X182759314Y-99599500D01*
X182854552Y-99599500D01*
X182997409Y-99647120D01*
X183045028Y-99694739D01*
X183664076Y-99599500D02*
X183854552Y-99599500D01*
X183949790Y-99647120D01*
X184045028Y-99742358D01*
X184092647Y-99932834D01*
X184092647Y-100266167D01*
X184045028Y-100456643D01*
X183949790Y-100551881D01*
X183854552Y-100599500D01*
X183664076Y-100599500D01*
X183568838Y-100551881D01*
X183473600Y-100456643D01*
X183425980Y-100266167D01*
X183425980Y-99932834D01*
X183473600Y-99742358D01*
X183568838Y-99647120D01*
X183664076Y-99599500D01*
X184521219Y-100599500D02*
X184521219Y-99599500D01*
X185092647Y-100599500D01*
X185092647Y-99599500D01*
X185568838Y-100599500D02*
X185568838Y-99599500D01*
X186140266Y-100599500D01*
X186140266Y-99599500D01*
X164784066Y-108498710D02*
X164784066Y-108022520D01*
X165069780Y-108593948D02*
X164069780Y-108260615D01*
X165069780Y-107927281D01*
X165069780Y-107593948D02*
X164069780Y-107593948D01*
X165069780Y-106546329D02*
X164593590Y-106879662D01*
X165069780Y-107117758D02*
X164069780Y-107117758D01*
X164069780Y-106736805D01*
X164117400Y-106641567D01*
X164165019Y-106593948D01*
X164260257Y-106546329D01*
X164403114Y-106546329D01*
X164498352Y-106593948D01*
X164545971Y-106641567D01*
X164593590Y-106736805D01*
X164593590Y-107117758D01*
X165165019Y-106355853D02*
X165165019Y-105593948D01*
X164688828Y-105355853D02*
X164688828Y-104593948D01*
X165069780Y-104974900D02*
X164307876Y-104974900D01*
X164988500Y-117228832D02*
X163988500Y-117228832D01*
X163988500Y-116847880D01*
X164036120Y-116752641D01*
X164083739Y-116705022D01*
X164178977Y-116657403D01*
X164321834Y-116657403D01*
X164417072Y-116705022D01*
X164464691Y-116752641D01*
X164512310Y-116847880D01*
X164512310Y-117228832D01*
X164988500Y-115657403D02*
X164512310Y-115990737D01*
X164988500Y-116228832D02*
X163988500Y-116228832D01*
X163988500Y-115847880D01*
X164036120Y-115752641D01*
X164083739Y-115705022D01*
X164178977Y-115657403D01*
X164321834Y-115657403D01*
X164417072Y-115705022D01*
X164464691Y-115752641D01*
X164512310Y-115847880D01*
X164512310Y-116228832D01*
X164464691Y-115228832D02*
X164464691Y-114895499D01*
X164988500Y-114752641D02*
X164988500Y-115228832D01*
X163988500Y-115228832D01*
X163988500Y-114752641D01*
X165083739Y-114562165D02*
X165083739Y-113800260D01*
X164893262Y-112990737D02*
X164940881Y-113038356D01*
X164988500Y-113181213D01*
X164988500Y-113276451D01*
X164940881Y-113419308D01*
X164845643Y-113514546D01*
X164750405Y-113562165D01*
X164559929Y-113609784D01*
X164417072Y-113609784D01*
X164226596Y-113562165D01*
X164131358Y-113514546D01*
X164036120Y-113419308D01*
X163988500Y-113276451D01*
X163988500Y-113181213D01*
X164036120Y-113038356D01*
X164083739Y-112990737D01*
X163988500Y-112705022D02*
X163988500Y-112133594D01*
X164988500Y-112419308D02*
X163988500Y-112419308D01*
X164988500Y-111228832D02*
X164512310Y-111562165D01*
X164988500Y-111800260D02*
X163988500Y-111800260D01*
X163988500Y-111419308D01*
X164036120Y-111324070D01*
X164083739Y-111276451D01*
X164178977Y-111228832D01*
X164321834Y-111228832D01*
X164417072Y-111276451D01*
X164464691Y-111324070D01*
X164512310Y-111419308D01*
X164512310Y-111800260D01*
X164988500Y-110324070D02*
X164988500Y-110800260D01*
X163988500Y-110800260D01*
D12*
X140749449Y-128672146D02*
X141225640Y-128672146D01*
X140654211Y-128957860D02*
X140987544Y-127957860D01*
X141320878Y-128957860D01*
X141654211Y-128957860D02*
X141654211Y-127957860D01*
X142701830Y-128957860D02*
X142368497Y-128481670D01*
X142130401Y-128957860D02*
X142130401Y-127957860D01*
X142511354Y-127957860D01*
X142606592Y-128005480D01*
X142654211Y-128053099D01*
X142701830Y-128148337D01*
X142701830Y-128291194D01*
X142654211Y-128386432D01*
X142606592Y-128434051D01*
X142511354Y-128481670D01*
X142130401Y-128481670D01*
X144463735Y-128862622D02*
X144416116Y-128910241D01*
X144273259Y-128957860D01*
X144178020Y-128957860D01*
X144035163Y-128910241D01*
X143939925Y-128815003D01*
X143892306Y-128719765D01*
X143844687Y-128529289D01*
X143844687Y-128386432D01*
X143892306Y-128195956D01*
X143939925Y-128100718D01*
X144035163Y-128005480D01*
X144178020Y-127957860D01*
X144273259Y-127957860D01*
X144416116Y-128005480D01*
X144463735Y-128053099D01*
X144749449Y-127957860D02*
X145320878Y-127957860D01*
X145035163Y-128957860D02*
X145035163Y-127957860D01*
X146225640Y-128957860D02*
X145892306Y-128481670D01*
X145654211Y-128957860D02*
X145654211Y-127957860D01*
X146035163Y-127957860D01*
X146130401Y-128005480D01*
X146178020Y-128053099D01*
X146225640Y-128148337D01*
X146225640Y-128291194D01*
X146178020Y-128386432D01*
X146130401Y-128434051D01*
X146035163Y-128481670D01*
X145654211Y-128481670D01*
X147130401Y-128957860D02*
X146654211Y-128957860D01*
X146654211Y-127957860D01*
X148558973Y-128434051D02*
X148701830Y-128481670D01*
X148749449Y-128529289D01*
X148797068Y-128624527D01*
X148797068Y-128767384D01*
X148749449Y-128862622D01*
X148701830Y-128910241D01*
X148606592Y-128957860D01*
X148225640Y-128957860D01*
X148225640Y-127957860D01*
X148558973Y-127957860D01*
X148654211Y-128005480D01*
X148701830Y-128053099D01*
X148749449Y-128148337D01*
X148749449Y-128243575D01*
X148701830Y-128338813D01*
X148654211Y-128386432D01*
X148558973Y-128434051D01*
X148225640Y-128434051D01*
X149416116Y-127957860D02*
X149606592Y-127957860D01*
X149701830Y-128005480D01*
X149797068Y-128100718D01*
X149844687Y-128291194D01*
X149844687Y-128624527D01*
X149797068Y-128815003D01*
X149701830Y-128910241D01*
X149606592Y-128957860D01*
X149416116Y-128957860D01*
X149320878Y-128910241D01*
X149225640Y-128815003D01*
X149178020Y-128624527D01*
X149178020Y-128291194D01*
X149225640Y-128100718D01*
X149320878Y-128005480D01*
X149416116Y-127957860D01*
X150225640Y-128672146D02*
X150701830Y-128672146D01*
X150130401Y-128957860D02*
X150463735Y-127957860D01*
X150797068Y-128957860D01*
X151701830Y-128957860D02*
X151368497Y-128481670D01*
X151130401Y-128957860D02*
X151130401Y-127957860D01*
X151511354Y-127957860D01*
X151606592Y-128005480D01*
X151654211Y-128053099D01*
X151701830Y-128148337D01*
X151701830Y-128291194D01*
X151654211Y-128386432D01*
X151606592Y-128434051D01*
X151511354Y-128481670D01*
X151130401Y-128481670D01*
X152130401Y-128957860D02*
X152130401Y-127957860D01*
X152368497Y-127957860D01*
X152511354Y-128005480D01*
X152606592Y-128100718D01*
X152654211Y-128195956D01*
X152701830Y-128386432D01*
X152701830Y-128529289D01*
X152654211Y-128719765D01*
X152606592Y-128815003D01*
X152511354Y-128910241D01*
X152368497Y-128957860D01*
X152130401Y-128957860D01*
X141344687Y-129753099D02*
X141392306Y-129705480D01*
X141487544Y-129657860D01*
X141725640Y-129657860D01*
X141820878Y-129705480D01*
X141868497Y-129753099D01*
X141916116Y-129848337D01*
X141916116Y-129943575D01*
X141868497Y-130086432D01*
X141297068Y-130657860D01*
X141916116Y-130657860D01*
X142535163Y-129657860D02*
X142630401Y-129657860D01*
X142725640Y-129705480D01*
X142773259Y-129753099D01*
X142820878Y-129848337D01*
X142868497Y-130038813D01*
X142868497Y-130276908D01*
X142820878Y-130467384D01*
X142773259Y-130562622D01*
X142725640Y-130610241D01*
X142630401Y-130657860D01*
X142535163Y-130657860D01*
X142439925Y-130610241D01*
X142392306Y-130562622D01*
X142344687Y-130467384D01*
X142297068Y-130276908D01*
X142297068Y-130038813D01*
X142344687Y-129848337D01*
X142392306Y-129753099D01*
X142439925Y-129705480D01*
X142535163Y-129657860D01*
X143820878Y-130657860D02*
X143249449Y-130657860D01*
X143535163Y-130657860D02*
X143535163Y-129657860D01*
X143439925Y-129800718D01*
X143344687Y-129895956D01*
X143249449Y-129943575D01*
X144297068Y-130657860D02*
X144487544Y-130657860D01*
X144582782Y-130610241D01*
X144630401Y-130562622D01*
X144725640Y-130419765D01*
X144773259Y-130229289D01*
X144773259Y-129848337D01*
X144725640Y-129753099D01*
X144678020Y-129705480D01*
X144582782Y-129657860D01*
X144392306Y-129657860D01*
X144297068Y-129705480D01*
X144249449Y-129753099D01*
X144201830Y-129848337D01*
X144201830Y-130086432D01*
X144249449Y-130181670D01*
X144297068Y-130229289D01*
X144392306Y-130276908D01*
X144582782Y-130276908D01*
X144678020Y-130229289D01*
X144725640Y-130181670D01*
X144773259Y-130086432D01*
X145963735Y-130276908D02*
X146725640Y-130276908D01*
X147820878Y-129657860D02*
X148154211Y-130657860D01*
X148487544Y-129657860D01*
X149582782Y-130276908D02*
X150344687Y-130276908D01*
X151535163Y-129753099D02*
X151582782Y-129705480D01*
X151678020Y-129657860D01*
X151916116Y-129657860D01*
X152011354Y-129705480D01*
X152058973Y-129753099D01*
X152106592Y-129848337D01*
X152106592Y-129943575D01*
X152058973Y-130086432D01*
X151487544Y-130657860D01*
X152106592Y-130657860D01*
X140797068Y-131357860D02*
X141035163Y-132357860D01*
X141225640Y-131643575D01*
X141416116Y-132357860D01*
X141654211Y-131357860D01*
X142035163Y-132357860D02*
X142035163Y-131691194D01*
X142035163Y-131357860D02*
X141987544Y-131405480D01*
X142035163Y-131453099D01*
X142082782Y-131405480D01*
X142035163Y-131357860D01*
X142035163Y-131453099D01*
X142654211Y-132357860D02*
X142558973Y-132310241D01*
X142511354Y-132215003D01*
X142511354Y-131357860D01*
X143178020Y-132357860D02*
X143082782Y-132310241D01*
X143035163Y-132215003D01*
X143035163Y-131357860D01*
X143558973Y-132357860D02*
X143558973Y-131691194D01*
X143558973Y-131357860D02*
X143511354Y-131405480D01*
X143558973Y-131453099D01*
X143606592Y-131405480D01*
X143558973Y-131357860D01*
X143558973Y-131453099D01*
X144463735Y-132357860D02*
X144463735Y-131834051D01*
X144416116Y-131738813D01*
X144320878Y-131691194D01*
X144130401Y-131691194D01*
X144035163Y-131738813D01*
X144463735Y-132310241D02*
X144368497Y-132357860D01*
X144130401Y-132357860D01*
X144035163Y-132310241D01*
X143987544Y-132215003D01*
X143987544Y-132119765D01*
X144035163Y-132024527D01*
X144130401Y-131976908D01*
X144368497Y-131976908D01*
X144463735Y-131929289D01*
X144939925Y-132357860D02*
X144939925Y-131691194D01*
X144939925Y-131786432D02*
X144987544Y-131738813D01*
X145082782Y-131691194D01*
X145225640Y-131691194D01*
X145320878Y-131738813D01*
X145368497Y-131834051D01*
X145368497Y-132357860D01*
X145368497Y-131834051D02*
X145416116Y-131738813D01*
X145511354Y-131691194D01*
X145654211Y-131691194D01*
X145749449Y-131738813D01*
X145797068Y-131834051D01*
X145797068Y-132357860D01*
X147368497Y-131834051D02*
X147035163Y-131834051D01*
X147035163Y-132357860D02*
X147035163Y-131357860D01*
X147511354Y-131357860D01*
X148320878Y-132357860D02*
X148320878Y-131834051D01*
X148273259Y-131738813D01*
X148178020Y-131691194D01*
X147987544Y-131691194D01*
X147892306Y-131738813D01*
X148320878Y-132310241D02*
X148225640Y-132357860D01*
X147987544Y-132357860D01*
X147892306Y-132310241D01*
X147844687Y-132215003D01*
X147844687Y-132119765D01*
X147892306Y-132024527D01*
X147987544Y-131976908D01*
X148225640Y-131976908D01*
X148320878Y-131929289D01*
X148797068Y-132357860D02*
X148797068Y-131691194D01*
X148797068Y-131357860D02*
X148749449Y-131405480D01*
X148797068Y-131453099D01*
X148844687Y-131405480D01*
X148797068Y-131357860D01*
X148797068Y-131453099D01*
X149273259Y-132357860D02*
X149273259Y-131691194D01*
X149273259Y-131881670D02*
X149320878Y-131786432D01*
X149368497Y-131738813D01*
X149463735Y-131691194D01*
X149558973Y-131691194D01*
X149892306Y-132357860D02*
X149892306Y-131691194D01*
X149892306Y-131786432D02*
X149939925Y-131738813D01*
X150035163Y-131691194D01*
X150178020Y-131691194D01*
X150273259Y-131738813D01*
X150320878Y-131834051D01*
X150320878Y-132357860D01*
X150320878Y-131834051D02*
X150368497Y-131738813D01*
X150463735Y-131691194D01*
X150606592Y-131691194D01*
X150701830Y-131738813D01*
X150749449Y-131834051D01*
X150749449Y-132357860D01*
X151654211Y-132357860D02*
X151654211Y-131834051D01*
X151606592Y-131738813D01*
X151511354Y-131691194D01*
X151320878Y-131691194D01*
X151225640Y-131738813D01*
X151654211Y-132310241D02*
X151558973Y-132357860D01*
X151320878Y-132357860D01*
X151225640Y-132310241D01*
X151178020Y-132215003D01*
X151178020Y-132119765D01*
X151225640Y-132024527D01*
X151320878Y-131976908D01*
X151558973Y-131976908D01*
X151654211Y-131929289D01*
X152130401Y-131691194D02*
X152130401Y-132357860D01*
X152130401Y-131786432D02*
X152178020Y-131738813D01*
X152273259Y-131691194D01*
X152416116Y-131691194D01*
X152511354Y-131738813D01*
X152558973Y-131834051D01*
X152558973Y-132357860D01*
D13*
X125544666Y-95808380D02*
X125306571Y-95808380D01*
X125282761Y-96284571D01*
X125306571Y-96236952D01*
X125354190Y-96189333D01*
X125473238Y-96189333D01*
X125520857Y-96236952D01*
X125544666Y-96284571D01*
X125568476Y-96379809D01*
X125568476Y-96617904D01*
X125544666Y-96713142D01*
X125520857Y-96760761D01*
X125473238Y-96808380D01*
X125354190Y-96808380D01*
X125306571Y-96760761D01*
X125282761Y-96713142D01*
X125711333Y-95808380D02*
X125878000Y-96808380D01*
X126044666Y-95808380D01*
X126211333Y-96427428D02*
X126592285Y-96427428D01*
X127068476Y-96808380D02*
X126830380Y-96808380D01*
X126830380Y-95808380D01*
X127235142Y-96284571D02*
X127401809Y-96284571D01*
X127473238Y-96808380D02*
X127235142Y-96808380D01*
X127235142Y-95808380D01*
X127473238Y-95808380D01*
X127687523Y-96808380D02*
X127687523Y-95808380D01*
X127806571Y-95808380D01*
X127878000Y-95856000D01*
X127925619Y-95951238D01*
X127949428Y-96046476D01*
X127973238Y-96236952D01*
X127973238Y-96379809D01*
X127949428Y-96570285D01*
X127925619Y-96665523D01*
X127878000Y-96760761D01*
X127806571Y-96808380D01*
X127687523Y-96808380D01*
X125584380Y-93923904D02*
X125298666Y-93923904D01*
X125441523Y-93923904D02*
X125441523Y-93123904D01*
X125393904Y-93238190D01*
X125346285Y-93314380D01*
X125298666Y-93352476D01*
X125774857Y-93200095D02*
X125798666Y-93162000D01*
X125846285Y-93123904D01*
X125965333Y-93123904D01*
X126012952Y-93162000D01*
X126036761Y-93200095D01*
X126060571Y-93276285D01*
X126060571Y-93352476D01*
X126036761Y-93466761D01*
X125751047Y-93923904D01*
X126060571Y-93923904D01*
X126203428Y-93123904D02*
X126370095Y-93923904D01*
X126536761Y-93123904D01*
X126703428Y-93619142D02*
X127084380Y-93619142D01*
X127560571Y-93923904D02*
X127322476Y-93923904D01*
X127322476Y-93123904D01*
X127727238Y-93504857D02*
X127893904Y-93504857D01*
X127965333Y-93923904D02*
X127727238Y-93923904D01*
X127727238Y-93123904D01*
X127965333Y-93123904D01*
X128179619Y-93923904D02*
X128179619Y-93123904D01*
X128298666Y-93123904D01*
X128370095Y-93162000D01*
X128417714Y-93238190D01*
X128441523Y-93314380D01*
X128465333Y-93466761D01*
X128465333Y-93581047D01*
X128441523Y-93733428D01*
X128417714Y-93809619D01*
X128370095Y-93885809D01*
X128298666Y-93923904D01*
X128179619Y-93923904D01*
X142128335Y-92838542D02*
X142104525Y-92886161D01*
X142033097Y-92933780D01*
X141985478Y-92933780D01*
X141914049Y-92886161D01*
X141866430Y-92790923D01*
X141842620Y-92695685D01*
X141818811Y-92505209D01*
X141818811Y-92362352D01*
X141842620Y-92171876D01*
X141866430Y-92076638D01*
X141914049Y-91981400D01*
X141985478Y-91933780D01*
X142033097Y-91933780D01*
X142104525Y-91981400D01*
X142128335Y-92029019D01*
X142318811Y-92648066D02*
X142556906Y-92648066D01*
X142271192Y-92933780D02*
X142437859Y-91933780D01*
X142604525Y-92933780D01*
X142771192Y-92933780D02*
X142771192Y-91933780D01*
X143056906Y-92933780D01*
X143056906Y-91933780D01*
X143175954Y-93029019D02*
X143556906Y-93029019D01*
X143961668Y-92933780D02*
X143795001Y-92457590D01*
X143675954Y-92933780D02*
X143675954Y-91933780D01*
X143866430Y-91933780D01*
X143914049Y-91981400D01*
X143937859Y-92029019D01*
X143961668Y-92124257D01*
X143961668Y-92267114D01*
X143937859Y-92362352D01*
X143914049Y-92409971D01*
X143866430Y-92457590D01*
X143675954Y-92457590D01*
D10*
X135128260Y-136620095D02*
X134128260Y-136620095D01*
X134128260Y-136239142D01*
X134175880Y-136143904D01*
X134223499Y-136096285D01*
X134318737Y-136048666D01*
X134461594Y-136048666D01*
X134556832Y-136096285D01*
X134604451Y-136143904D01*
X134652070Y-136239142D01*
X134652070Y-136620095D01*
X135033022Y-135048666D02*
X135080641Y-135096285D01*
X135128260Y-135239142D01*
X135128260Y-135334380D01*
X135080641Y-135477238D01*
X134985403Y-135572476D01*
X134890165Y-135620095D01*
X134699689Y-135667714D01*
X134556832Y-135667714D01*
X134366356Y-135620095D01*
X134271118Y-135572476D01*
X134175880Y-135477238D01*
X134128260Y-135334380D01*
X134128260Y-135239142D01*
X134175880Y-135096285D01*
X134223499Y-135048666D01*
X134128260Y-134143904D02*
X134128260Y-134620095D01*
X134604451Y-134667714D01*
X134556832Y-134620095D01*
X134509213Y-134524857D01*
X134509213Y-134286761D01*
X134556832Y-134191523D01*
X134604451Y-134143904D01*
X134699689Y-134096285D01*
X134937784Y-134096285D01*
X135033022Y-134143904D01*
X135080641Y-134191523D01*
X135128260Y-134286761D01*
X135128260Y-134524857D01*
X135080641Y-134620095D01*
X135033022Y-134667714D01*
X137358380Y-136543895D02*
X136358380Y-136543895D01*
X136358380Y-136162942D01*
X136406000Y-136067704D01*
X136453619Y-136020085D01*
X136548857Y-135972466D01*
X136691714Y-135972466D01*
X136786952Y-136020085D01*
X136834571Y-136067704D01*
X136882190Y-136162942D01*
X136882190Y-136543895D01*
X137263142Y-134972466D02*
X137310761Y-135020085D01*
X137358380Y-135162942D01*
X137358380Y-135258180D01*
X137310761Y-135401038D01*
X137215523Y-135496276D01*
X137120285Y-135543895D01*
X136929809Y-135591514D01*
X136786952Y-135591514D01*
X136596476Y-135543895D01*
X136501238Y-135496276D01*
X136406000Y-135401038D01*
X136358380Y-135258180D01*
X136358380Y-135162942D01*
X136406000Y-135020085D01*
X136453619Y-134972466D01*
X136691714Y-134115323D02*
X137358380Y-134115323D01*
X136310761Y-134353419D02*
X137025047Y-134591514D01*
X137025047Y-133972466D01*
D14*
G04 #@! TO.C,R30*
X135580000Y-102730000D02*
X130380000Y-102730000D01*
X130380000Y-99090000D02*
X135580000Y-99090000D01*
G04 #@! TO.C,C8*
X128040000Y-109280000D02*
X130040000Y-109280000D01*
X130040000Y-107240000D02*
X128040000Y-107240000D01*
D15*
G04 #@! TO.C,C1*
X175818800Y-131864100D02*
G75*
G03X175818800Y-131864100I-5130800J0D01*
G01*
X171323000Y-125971300D02*
X170053000Y-125971300D01*
X170688000Y-125336300D02*
X170688000Y-126606300D01*
G04 #@! TO.C,C2*
X164820600Y-131813300D02*
G75*
G03X164820600Y-131813300I-5130800J0D01*
G01*
X160324800Y-125920500D02*
X159054800Y-125920500D01*
X159689800Y-125285500D02*
X159689800Y-126555500D01*
D14*
G04 #@! TO.C,R33*
X157387400Y-99992700D02*
X157387400Y-98792700D01*
X159147400Y-98792700D02*
X159147400Y-99992700D01*
D10*
G04 #@! TO.C,U1*
X145552465Y-100255642D02*
X146952465Y-100255642D01*
X145552465Y-95155642D02*
X141402465Y-95155642D01*
X145552465Y-100305642D02*
X141402465Y-100305642D01*
X145552465Y-95155642D02*
X145552465Y-95300642D01*
X141402465Y-95155642D02*
X141402465Y-95300642D01*
X141402465Y-100305642D02*
X141402465Y-100160642D01*
X145552465Y-100305642D02*
X145552465Y-100255642D01*
D14*
G04 #@! TO.C,D1*
X165606500Y-119607100D02*
X168406500Y-119607100D01*
X165606500Y-121007100D02*
X168406500Y-121007100D01*
X165606500Y-119607100D02*
X165606500Y-121007100D01*
D16*
X167206500Y-120307100D02*
X167506500Y-120007100D01*
X167506500Y-120007100D02*
X167556500Y-119957100D01*
X167556500Y-119957100D02*
X167556500Y-120607100D01*
X167556500Y-120657100D02*
X167556500Y-120607100D01*
X167556500Y-120607100D02*
X167556500Y-120657100D01*
X167556500Y-120657100D02*
X167206500Y-120307100D01*
X167206500Y-120307100D02*
X167206500Y-119957100D01*
X167206500Y-120657100D02*
X167206500Y-120307100D01*
D14*
G04 #@! TO.C,D14*
X125344600Y-97140800D02*
X128144600Y-97140800D01*
X125344600Y-98540800D02*
X128144600Y-98540800D01*
X125344600Y-97140800D02*
X125344600Y-98540800D01*
D16*
X126944600Y-97840800D02*
X127244600Y-97540800D01*
X127244600Y-97540800D02*
X127294600Y-97490800D01*
X127294600Y-97490800D02*
X127294600Y-98140800D01*
X127294600Y-98190800D02*
X127294600Y-98140800D01*
X127294600Y-98140800D02*
X127294600Y-98190800D01*
X127294600Y-98190800D02*
X126944600Y-97840800D01*
X126944600Y-97840800D02*
X126944600Y-97490800D01*
X126944600Y-98190800D02*
X126944600Y-97840800D01*
D14*
G04 #@! TO.C,R13*
X180839000Y-95158000D02*
X180839000Y-96358000D01*
X179079000Y-96358000D02*
X179079000Y-95158000D01*
D10*
G04 #@! TO.C,J4*
X147218400Y-121513600D02*
X149758400Y-121513600D01*
X149758400Y-121513600D02*
X149758400Y-118973600D01*
X150038400Y-116153600D02*
X148488400Y-116153600D01*
X142138400Y-121513600D02*
X147218400Y-121513600D01*
X142138400Y-116433600D02*
X142138400Y-121513600D01*
X147218400Y-118973600D02*
X147218400Y-116433600D01*
X149758400Y-118973600D02*
X147218400Y-118973600D01*
X150038400Y-116153600D02*
X150038400Y-117703600D01*
X147218400Y-116433600D02*
X142138400Y-116433600D01*
D14*
G04 #@! TO.C,C4*
X157056200Y-103999400D02*
X158056200Y-103999400D01*
X158056200Y-102299400D02*
X157056200Y-102299400D01*
G04 #@! TO.C,R10*
X183353000Y-93717000D02*
X182153000Y-93717000D01*
X182153000Y-91957000D02*
X183353000Y-91957000D01*
G04 #@! TO.C,R15*
X180375000Y-101482000D02*
X181575000Y-101482000D01*
X181575000Y-103242000D02*
X180375000Y-103242000D01*
G04 #@! TO.C,R16*
X151057500Y-92742500D02*
X151057500Y-93942500D01*
X149297500Y-93942500D02*
X149297500Y-92742500D01*
G04 #@! TO.C,R14*
X171441000Y-94838000D02*
X171441000Y-96038000D01*
X169681000Y-96038000D02*
X169681000Y-94838000D01*
G04 #@! TO.C,Q2*
X173289500Y-110355500D02*
X171829500Y-110355500D01*
X173289500Y-107195500D02*
X171129500Y-107195500D01*
X173289500Y-107195500D02*
X173289500Y-108125500D01*
X173289500Y-110355500D02*
X173289500Y-109425500D01*
G04 #@! TO.C,R22*
X134559600Y-91050000D02*
X133359600Y-91050000D01*
X133359600Y-89290000D02*
X134559600Y-89290000D01*
G04 #@! TO.C,R29*
X137989200Y-126257800D02*
X137989200Y-127457800D01*
X136229200Y-127457800D02*
X136229200Y-126257800D01*
G04 #@! TO.C,R31*
X162728800Y-101965200D02*
X162728800Y-103165200D01*
X160968800Y-103165200D02*
X160968800Y-101965200D01*
G04 #@! TO.C,D3*
X167280000Y-112330000D02*
X170080000Y-112330000D01*
X167280000Y-113730000D02*
X170080000Y-113730000D01*
X167280000Y-112330000D02*
X167280000Y-113730000D01*
D16*
X168880000Y-113030000D02*
X169180000Y-112730000D01*
X169180000Y-112730000D02*
X169230000Y-112680000D01*
X169230000Y-112680000D02*
X169230000Y-113330000D01*
X169230000Y-113380000D02*
X169230000Y-113330000D01*
X169230000Y-113330000D02*
X169230000Y-113380000D01*
X169230000Y-113380000D02*
X168880000Y-113030000D01*
X168880000Y-113030000D02*
X168880000Y-112680000D01*
X168880000Y-113380000D02*
X168880000Y-113030000D01*
D14*
G04 #@! TO.C,D9*
X160272500Y-98744000D02*
X160272500Y-95944000D01*
X161672500Y-98744000D02*
X161672500Y-95944000D01*
X160272500Y-98744000D02*
X161672500Y-98744000D01*
D16*
X160972500Y-97144000D02*
X160672500Y-96844000D01*
X160672500Y-96844000D02*
X160622500Y-96794000D01*
X160622500Y-96794000D02*
X161272500Y-96794000D01*
X161322500Y-96794000D02*
X161272500Y-96794000D01*
X161272500Y-96794000D02*
X161322500Y-96794000D01*
X161322500Y-96794000D02*
X160972500Y-97144000D01*
X160972500Y-97144000D02*
X160622500Y-97144000D01*
X161322500Y-97144000D02*
X160972500Y-97144000D01*
D14*
G04 #@! TO.C,R23*
X158130800Y-118799500D02*
X156930800Y-118799500D01*
X156930800Y-117039500D02*
X158130800Y-117039500D01*
G04 #@! TO.C,R19*
X163039500Y-95386000D02*
X164239500Y-95386000D01*
X164239500Y-97146000D02*
X163039500Y-97146000D01*
G04 #@! TO.C,Q5*
X154615000Y-92712000D02*
X154615000Y-94172000D01*
X151455000Y-92712000D02*
X151455000Y-94872000D01*
X151455000Y-92712000D02*
X152385000Y-92712000D01*
X154615000Y-92712000D02*
X153685000Y-92712000D01*
G04 #@! TO.C,R21*
X167377000Y-92745000D02*
X167377000Y-93945000D01*
X165617000Y-93945000D02*
X165617000Y-92745000D01*
G04 #@! TO.C,R24*
X145583200Y-95012400D02*
X144383200Y-95012400D01*
X144383200Y-93252400D02*
X145583200Y-93252400D01*
G04 #@! TO.C,D10*
X141338300Y-85064600D02*
X141338300Y-88239600D01*
X138671300Y-85064600D02*
X138671300Y-88239600D01*
X141338300Y-85064600D02*
X138671300Y-85064600D01*
D12*
X140704800Y-87739600D02*
X139004800Y-87739600D01*
X139904800Y-87739600D02*
X140704800Y-88839600D01*
X140704800Y-88839600D02*
X139004800Y-88839600D01*
X139004800Y-88839600D02*
X139904800Y-87739600D01*
D14*
G04 #@! TO.C,D11*
X125420000Y-91400400D02*
X128220000Y-91400400D01*
X125420000Y-92800400D02*
X128220000Y-92800400D01*
X125420000Y-91400400D02*
X125420000Y-92800400D01*
D16*
X127020000Y-92100400D02*
X127320000Y-91800400D01*
X127320000Y-91800400D02*
X127370000Y-91750400D01*
X127370000Y-91750400D02*
X127370000Y-92400400D01*
X127370000Y-92450400D02*
X127370000Y-92400400D01*
X127370000Y-92400400D02*
X127370000Y-92450400D01*
X127370000Y-92450400D02*
X127020000Y-92100400D01*
X127020000Y-92100400D02*
X127020000Y-91750400D01*
X127020000Y-92450400D02*
X127020000Y-92100400D01*
D14*
G04 #@! TO.C,Q1*
X173289500Y-117404000D02*
X171829500Y-117404000D01*
X173289500Y-114244000D02*
X171129500Y-114244000D01*
X173289500Y-114244000D02*
X173289500Y-115174000D01*
X173289500Y-117404000D02*
X173289500Y-116474000D01*
G04 #@! TO.C,D12*
X134072400Y-132381400D02*
X134072400Y-129581400D01*
X135472400Y-132381400D02*
X135472400Y-129581400D01*
X134072400Y-132381400D02*
X135472400Y-132381400D01*
D16*
X134772400Y-130781400D02*
X134472400Y-130481400D01*
X134472400Y-130481400D02*
X134422400Y-130431400D01*
X134422400Y-130431400D02*
X135072400Y-130431400D01*
X135122400Y-130431400D02*
X135072400Y-130431400D01*
X135072400Y-130431400D02*
X135122400Y-130431400D01*
X135122400Y-130431400D02*
X134772400Y-130781400D01*
X134772400Y-130781400D02*
X134422400Y-130781400D01*
X135122400Y-130781400D02*
X134772400Y-130781400D01*
D14*
G04 #@! TO.C,D8*
X149541000Y-98785000D02*
X149541000Y-95985000D01*
X150941000Y-98785000D02*
X150941000Y-95985000D01*
X149541000Y-98785000D02*
X150941000Y-98785000D01*
D16*
X150241000Y-97185000D02*
X149941000Y-96885000D01*
X149941000Y-96885000D02*
X149891000Y-96835000D01*
X149891000Y-96835000D02*
X150541000Y-96835000D01*
X150591000Y-96835000D02*
X150541000Y-96835000D01*
X150541000Y-96835000D02*
X150591000Y-96835000D01*
X150591000Y-96835000D02*
X150241000Y-97185000D01*
X150241000Y-97185000D02*
X149891000Y-97185000D01*
X150591000Y-97185000D02*
X150241000Y-97185000D01*
D14*
G04 #@! TO.C,R34*
X155457000Y-99977500D02*
X155457000Y-98777500D01*
X157217000Y-98777500D02*
X157217000Y-99977500D01*
G04 #@! TO.C,R11*
X174082000Y-93590000D02*
X172882000Y-93590000D01*
X172882000Y-91830000D02*
X174082000Y-91830000D01*
G04 #@! TO.C,R6*
X167491300Y-123186900D02*
X167491300Y-124386900D01*
X165731300Y-124386900D02*
X165731300Y-123186900D01*
G04 #@! TO.C,R1*
X171225100Y-120392900D02*
X171225100Y-121592900D01*
X169465100Y-121592900D02*
X169465100Y-120392900D01*
G04 #@! TO.C,R7*
X170679000Y-107987500D02*
X170679000Y-109187500D01*
X168919000Y-109187500D02*
X168919000Y-107987500D01*
G04 #@! TO.C,R27*
X135652400Y-126257800D02*
X135652400Y-127457800D01*
X133892400Y-127457800D02*
X133892400Y-126257800D01*
G04 #@! TO.C,D5*
X175449000Y-98785000D02*
X175449000Y-95985000D01*
X176849000Y-98785000D02*
X176849000Y-95985000D01*
X175449000Y-98785000D02*
X176849000Y-98785000D01*
D16*
X176149000Y-97185000D02*
X175849000Y-96885000D01*
X175849000Y-96885000D02*
X175799000Y-96835000D01*
X175799000Y-96835000D02*
X176449000Y-96835000D01*
X176499000Y-96835000D02*
X176449000Y-96835000D01*
X176449000Y-96835000D02*
X176499000Y-96835000D01*
X176499000Y-96835000D02*
X176149000Y-97185000D01*
X176149000Y-97185000D02*
X175799000Y-97185000D01*
X176499000Y-97185000D02*
X176149000Y-97185000D01*
D14*
G04 #@! TO.C,R17*
X161852500Y-92679000D02*
X161852500Y-93879000D01*
X160092500Y-93879000D02*
X160092500Y-92679000D01*
G04 #@! TO.C,R18*
X152244500Y-95322500D02*
X153444500Y-95322500D01*
X153444500Y-97082500D02*
X152244500Y-97082500D01*
D10*
G04 #@! TO.C,IC1*
X160816500Y-106039500D02*
X160816500Y-104614500D01*
X161041500Y-113289500D02*
X161041500Y-112964500D01*
X153791500Y-113289500D02*
X153791500Y-112964500D01*
X153791500Y-106039500D02*
X153791500Y-106364500D01*
X161041500Y-106039500D02*
X161041500Y-106364500D01*
X153791500Y-106039500D02*
X154116500Y-106039500D01*
X153791500Y-113289500D02*
X154116500Y-113289500D01*
X161041500Y-113289500D02*
X160716500Y-113289500D01*
X161041500Y-106039500D02*
X160816500Y-106039500D01*
D17*
X161861500Y-105448100D02*
G75*
G03X161861500Y-105448100I-50800J0D01*
G01*
X160108900Y-106997500D02*
G75*
G03X160108900Y-106997500I-50800J0D01*
G01*
D14*
G04 #@! TO.C,D13*
X136358400Y-132363800D02*
X136358400Y-129563800D01*
X137758400Y-132363800D02*
X137758400Y-129563800D01*
X136358400Y-132363800D02*
X137758400Y-132363800D01*
D16*
X137058400Y-130763800D02*
X136758400Y-130463800D01*
X136758400Y-130463800D02*
X136708400Y-130413800D01*
X136708400Y-130413800D02*
X137358400Y-130413800D01*
X137408400Y-130413800D02*
X137358400Y-130413800D01*
X137358400Y-130413800D02*
X137408400Y-130413800D01*
X137408400Y-130413800D02*
X137058400Y-130763800D01*
X137058400Y-130763800D02*
X136708400Y-130763800D01*
X137408400Y-130763800D02*
X137058400Y-130763800D01*
D14*
G04 #@! TO.C,D6*
X167216500Y-105345000D02*
X170016500Y-105345000D01*
X167216500Y-106745000D02*
X170016500Y-106745000D01*
X167216500Y-105345000D02*
X167216500Y-106745000D01*
D16*
X168816500Y-106045000D02*
X169116500Y-105745000D01*
X169116500Y-105745000D02*
X169166500Y-105695000D01*
X169166500Y-105695000D02*
X169166500Y-106345000D01*
X169166500Y-106395000D02*
X169166500Y-106345000D01*
X169166500Y-106345000D02*
X169166500Y-106395000D01*
X169166500Y-106395000D02*
X168816500Y-106045000D01*
X168816500Y-106045000D02*
X168816500Y-105695000D01*
X168816500Y-106395000D02*
X168816500Y-106045000D01*
D14*
G04 #@! TO.C,Q3*
X181173000Y-96391000D02*
X181173000Y-94931000D01*
X184333000Y-96391000D02*
X184333000Y-94231000D01*
X184333000Y-96391000D02*
X183403000Y-96391000D01*
X181173000Y-96391000D02*
X182103000Y-96391000D01*
D16*
G04 #@! TO.C,Y1*
X147612400Y-109662800D02*
X149212400Y-109662800D01*
X147612400Y-109662800D02*
X147612400Y-107662800D01*
D14*
G04 #@! TO.C,R32*
X131394800Y-98670000D02*
X130194800Y-98670000D01*
X130194800Y-96910000D02*
X131394800Y-96910000D01*
G04 #@! TO.C,R20*
X156709000Y-92745000D02*
X156709000Y-93945000D01*
X154949000Y-93945000D02*
X154949000Y-92745000D01*
G04 #@! TO.C,Q6*
X165346500Y-92712000D02*
X165346500Y-94172000D01*
X162186500Y-92712000D02*
X162186500Y-94872000D01*
X162186500Y-92712000D02*
X163116500Y-92712000D01*
X165346500Y-92712000D02*
X164416500Y-92712000D01*
G04 #@! TO.C,C6*
X157043500Y-116851800D02*
X158043500Y-116851800D01*
X158043500Y-115151800D02*
X157043500Y-115151800D01*
G04 #@! TO.C,D4*
X184847000Y-98871000D02*
X184847000Y-96071000D01*
X186247000Y-98871000D02*
X186247000Y-96071000D01*
X184847000Y-98871000D02*
X186247000Y-98871000D01*
D16*
X185547000Y-97271000D02*
X185247000Y-96971000D01*
X185247000Y-96971000D02*
X185197000Y-96921000D01*
X185197000Y-96921000D02*
X185847000Y-96921000D01*
X185897000Y-96921000D02*
X185847000Y-96921000D01*
X185847000Y-96921000D02*
X185897000Y-96921000D01*
X185897000Y-96921000D02*
X185547000Y-97271000D01*
X185547000Y-97271000D02*
X185197000Y-97271000D01*
X185897000Y-97271000D02*
X185547000Y-97271000D01*
D14*
G04 #@! TO.C,R8*
X186427000Y-92872000D02*
X186427000Y-94072000D01*
X184667000Y-94072000D02*
X184667000Y-92872000D01*
G04 #@! TO.C,Q4*
X171775000Y-96137000D02*
X171775000Y-94677000D01*
X174935000Y-96137000D02*
X174935000Y-93977000D01*
X174935000Y-96137000D02*
X174005000Y-96137000D01*
X171775000Y-96137000D02*
X172705000Y-96137000D01*
G04 #@! TO.C,C11*
X149512400Y-109792400D02*
X148512400Y-109792400D01*
X148512400Y-111492400D02*
X149512400Y-111492400D01*
G04 #@! TO.C,C12*
X145758800Y-107161200D02*
X145758800Y-108161200D01*
X147458800Y-108161200D02*
X147458800Y-107161200D01*
G04 #@! TO.C,D2*
X161860000Y-125185400D02*
X161860000Y-122385400D01*
X163260000Y-125185400D02*
X163260000Y-122385400D01*
X161860000Y-125185400D02*
X163260000Y-125185400D01*
D16*
X162560000Y-123585400D02*
X162260000Y-123285400D01*
X162260000Y-123285400D02*
X162210000Y-123235400D01*
X162210000Y-123235400D02*
X162860000Y-123235400D01*
X162910000Y-123235400D02*
X162860000Y-123235400D01*
X162860000Y-123235400D02*
X162910000Y-123235400D01*
X162910000Y-123235400D02*
X162560000Y-123585400D01*
X162560000Y-123585400D02*
X162210000Y-123585400D01*
X162910000Y-123585400D02*
X162560000Y-123585400D01*
D14*
G04 #@! TO.C,F1*
X137674800Y-86020400D02*
X137674800Y-88020400D01*
X134714800Y-88020400D02*
X134714800Y-86020400D01*
G04 #@! TO.C,R2*
X173244400Y-120380200D02*
X173244400Y-121580200D01*
X171484400Y-121580200D02*
X171484400Y-120380200D01*
G04 #@! TO.C,R3*
X165459300Y-123184400D02*
X165459300Y-124384400D01*
X163699300Y-124384400D02*
X163699300Y-123184400D01*
G04 #@! TO.C,R12*
X173254000Y-106861500D02*
X172054000Y-106861500D01*
X172054000Y-105101500D02*
X173254000Y-105101500D01*
G04 #@! TO.C,R4*
X173320000Y-113846500D02*
X172120000Y-113846500D01*
X172120000Y-112086500D02*
X173320000Y-112086500D01*
G04 #@! TO.C,R5*
X170615500Y-115033500D02*
X170615500Y-116233500D01*
X168855500Y-116233500D02*
X168855500Y-115033500D01*
D10*
G04 #@! TO.C,J1*
X175895000Y-110820200D02*
X175895000Y-129463800D01*
X188493400Y-110820200D02*
X188493400Y-129463800D01*
X188496000Y-110817000D02*
X175896000Y-110817000D01*
X188496000Y-129467000D02*
X175896000Y-129467000D01*
G04 #@! TO.C,J3*
X175869600Y-103606600D02*
X175869600Y-110261400D01*
X188493400Y-103606600D02*
X188493400Y-110261400D01*
X188496000Y-103609000D02*
X175896000Y-103609000D01*
X175896000Y-110259000D02*
X188496000Y-110259000D01*
D14*
G04 #@! TO.C,C3*
X147359000Y-96359600D02*
X147359000Y-97359600D01*
X149059000Y-97359600D02*
X149059000Y-96359600D01*
G04 #@! TO.C,D7*
X186501000Y-103062000D02*
X183701000Y-103062000D01*
X186501000Y-101662000D02*
X183701000Y-101662000D01*
X186501000Y-103062000D02*
X186501000Y-101662000D01*
D16*
X184901000Y-102362000D02*
X184601000Y-102662000D01*
X184601000Y-102662000D02*
X184551000Y-102712000D01*
X184551000Y-102712000D02*
X184551000Y-102062000D01*
X184551000Y-102012000D02*
X184551000Y-102062000D01*
X184551000Y-102062000D02*
X184551000Y-102012000D01*
X184551000Y-102012000D02*
X184901000Y-102362000D01*
X184901000Y-102362000D02*
X184901000Y-102712000D01*
X184901000Y-102012000D02*
X184901000Y-102362000D01*
D14*
G04 #@! TO.C,R9*
X177029000Y-92745000D02*
X177029000Y-93945000D01*
X175269000Y-93945000D02*
X175269000Y-92745000D01*
D10*
G04 #@! TO.C,J2*
X180486000Y-88756000D02*
X180486000Y-83456000D01*
X150476000Y-88756000D02*
X150476000Y-83456000D01*
X180486000Y-88756000D02*
X150476000Y-88756000D01*
X180486000Y-83456000D02*
X150476000Y-83456000D01*
D14*
G04 #@! TO.C,C13*
X137250000Y-113619721D02*
X137250000Y-113945279D01*
X136230000Y-113619721D02*
X136230000Y-113945279D01*
G04 #@! TO.C,C5*
X135860000Y-114398000D02*
X135860000Y-113398000D01*
X134160000Y-113398000D02*
X134160000Y-114398000D01*
G04 #@! TO.C,C7*
X127922000Y-115748000D02*
X128922000Y-115748000D01*
X128922000Y-114048000D02*
X127922000Y-114048000D01*
G04 #@! TO.C,C10*
X128040000Y-111190000D02*
X129040000Y-111190000D01*
X129040000Y-109490000D02*
X128040000Y-109490000D01*
G04 #@! TO.C,R26*
X129170000Y-118270000D02*
X127970000Y-118270000D01*
X127970000Y-116510000D02*
X129170000Y-116510000D01*
G04 #@! TO.C,R28*
X131310000Y-116480000D02*
X132510000Y-116480000D01*
X132510000Y-118240000D02*
X131310000Y-118240000D01*
D10*
G04 #@! TO.C,L1*
X126328000Y-111392000D02*
X126298000Y-111422000D01*
X126298000Y-113872000D02*
X126298000Y-111422000D01*
X129498000Y-113862000D02*
X129498000Y-111362000D01*
X129498000Y-111362000D02*
X126298000Y-111362000D01*
X129498000Y-113862000D02*
X126298000Y-113862000D01*
D14*
G04 #@! TO.C,U2*
X133826000Y-114952000D02*
X133826000Y-113152000D01*
X130606000Y-113152000D02*
X130606000Y-115602000D01*
D10*
G04 #@! TO.C,C9*
X127120000Y-103550000D02*
X131620000Y-103550000D01*
X127120000Y-106750000D02*
X131620000Y-106750000D01*
G04 #@! TO.C,R30*
D13*
X132518571Y-101186190D02*
X132351904Y-100948095D01*
X132232857Y-101186190D02*
X132232857Y-100686190D01*
X132423333Y-100686190D01*
X132470952Y-100710000D01*
X132494761Y-100733809D01*
X132518571Y-100781428D01*
X132518571Y-100852857D01*
X132494761Y-100900476D01*
X132470952Y-100924285D01*
X132423333Y-100948095D01*
X132232857Y-100948095D01*
X132685238Y-100686190D02*
X132994761Y-100686190D01*
X132828095Y-100876666D01*
X132899523Y-100876666D01*
X132947142Y-100900476D01*
X132970952Y-100924285D01*
X132994761Y-100971904D01*
X132994761Y-101090952D01*
X132970952Y-101138571D01*
X132947142Y-101162380D01*
X132899523Y-101186190D01*
X132756666Y-101186190D01*
X132709047Y-101162380D01*
X132685238Y-101138571D01*
X133304285Y-100686190D02*
X133351904Y-100686190D01*
X133399523Y-100710000D01*
X133423333Y-100733809D01*
X133447142Y-100781428D01*
X133470952Y-100876666D01*
X133470952Y-100995714D01*
X133447142Y-101090952D01*
X133423333Y-101138571D01*
X133399523Y-101162380D01*
X133351904Y-101186190D01*
X133304285Y-101186190D01*
X133256666Y-101162380D01*
X133232857Y-101138571D01*
X133209047Y-101090952D01*
X133185238Y-100995714D01*
X133185238Y-100876666D01*
X133209047Y-100781428D01*
X133232857Y-100733809D01*
X133256666Y-100710000D01*
X133304285Y-100686190D01*
G04 #@! TO.C,C8*
X124726666Y-108268571D02*
X124702857Y-108292380D01*
X124631428Y-108316190D01*
X124583809Y-108316190D01*
X124512380Y-108292380D01*
X124464761Y-108244761D01*
X124440952Y-108197142D01*
X124417142Y-108101904D01*
X124417142Y-108030476D01*
X124440952Y-107935238D01*
X124464761Y-107887619D01*
X124512380Y-107840000D01*
X124583809Y-107816190D01*
X124631428Y-107816190D01*
X124702857Y-107840000D01*
X124726666Y-107863809D01*
X125012380Y-108030476D02*
X124964761Y-108006666D01*
X124940952Y-107982857D01*
X124917142Y-107935238D01*
X124917142Y-107911428D01*
X124940952Y-107863809D01*
X124964761Y-107840000D01*
X125012380Y-107816190D01*
X125107619Y-107816190D01*
X125155238Y-107840000D01*
X125179047Y-107863809D01*
X125202857Y-107911428D01*
X125202857Y-107935238D01*
X125179047Y-107982857D01*
X125155238Y-108006666D01*
X125107619Y-108030476D01*
X125012380Y-108030476D01*
X124964761Y-108054285D01*
X124940952Y-108078095D01*
X124917142Y-108125714D01*
X124917142Y-108220952D01*
X124940952Y-108268571D01*
X124964761Y-108292380D01*
X125012380Y-108316190D01*
X125107619Y-108316190D01*
X125155238Y-108292380D01*
X125179047Y-108268571D01*
X125202857Y-108220952D01*
X125202857Y-108125714D01*
X125179047Y-108078095D01*
X125155238Y-108054285D01*
X125107619Y-108030476D01*
G04 #@! TO.C,C1*
X165346866Y-136398771D02*
X165323057Y-136422580D01*
X165251628Y-136446390D01*
X165204009Y-136446390D01*
X165132580Y-136422580D01*
X165084961Y-136374961D01*
X165061152Y-136327342D01*
X165037342Y-136232104D01*
X165037342Y-136160676D01*
X165061152Y-136065438D01*
X165084961Y-136017819D01*
X165132580Y-135970200D01*
X165204009Y-135946390D01*
X165251628Y-135946390D01*
X165323057Y-135970200D01*
X165346866Y-135994009D01*
X165823057Y-136446390D02*
X165537342Y-136446390D01*
X165680200Y-136446390D02*
X165680200Y-135946390D01*
X165632580Y-136017819D01*
X165584961Y-136065438D01*
X165537342Y-136089247D01*
G04 #@! TO.C,C2*
X154335966Y-135966971D02*
X154312157Y-135990780D01*
X154240728Y-136014590D01*
X154193109Y-136014590D01*
X154121680Y-135990780D01*
X154074061Y-135943161D01*
X154050252Y-135895542D01*
X154026442Y-135800304D01*
X154026442Y-135728876D01*
X154050252Y-135633638D01*
X154074061Y-135586019D01*
X154121680Y-135538400D01*
X154193109Y-135514590D01*
X154240728Y-135514590D01*
X154312157Y-135538400D01*
X154335966Y-135562209D01*
X154526442Y-135562209D02*
X154550252Y-135538400D01*
X154597871Y-135514590D01*
X154716919Y-135514590D01*
X154764538Y-135538400D01*
X154788347Y-135562209D01*
X154812157Y-135609828D01*
X154812157Y-135657447D01*
X154788347Y-135728876D01*
X154502633Y-136014590D01*
X154812157Y-136014590D01*
G04 #@! TO.C,R33*
X157341451Y-97442150D02*
X157174784Y-97204055D01*
X157055737Y-97442150D02*
X157055737Y-96942150D01*
X157246213Y-96942150D01*
X157293832Y-96965960D01*
X157317641Y-96989769D01*
X157341451Y-97037388D01*
X157341451Y-97108817D01*
X157317641Y-97156436D01*
X157293832Y-97180245D01*
X157246213Y-97204055D01*
X157055737Y-97204055D01*
X157508118Y-96942150D02*
X157817641Y-96942150D01*
X157650975Y-97132626D01*
X157722403Y-97132626D01*
X157770022Y-97156436D01*
X157793832Y-97180245D01*
X157817641Y-97227864D01*
X157817641Y-97346912D01*
X157793832Y-97394531D01*
X157770022Y-97418340D01*
X157722403Y-97442150D01*
X157579546Y-97442150D01*
X157531927Y-97418340D01*
X157508118Y-97394531D01*
X157984308Y-96942150D02*
X158293832Y-96942150D01*
X158127165Y-97132626D01*
X158198594Y-97132626D01*
X158246213Y-97156436D01*
X158270022Y-97180245D01*
X158293832Y-97227864D01*
X158293832Y-97346912D01*
X158270022Y-97394531D01*
X158246213Y-97418340D01*
X158198594Y-97442150D01*
X158055737Y-97442150D01*
X158008118Y-97418340D01*
X157984308Y-97394531D01*
G04 #@! TO.C,U1*
X142494047Y-98374710D02*
X142494047Y-98779472D01*
X142517857Y-98827091D01*
X142541666Y-98850900D01*
X142589285Y-98874710D01*
X142684523Y-98874710D01*
X142732142Y-98850900D01*
X142755952Y-98827091D01*
X142779761Y-98779472D01*
X142779761Y-98374710D01*
X143279761Y-98874710D02*
X142994047Y-98874710D01*
X143136904Y-98874710D02*
X143136904Y-98374710D01*
X143089285Y-98446139D01*
X143041666Y-98493758D01*
X142994047Y-98517567D01*
G04 #@! TO.C,D1*
X166798512Y-119103270D02*
X166798512Y-118603270D01*
X166917560Y-118603270D01*
X166988988Y-118627080D01*
X167036607Y-118674699D01*
X167060417Y-118722318D01*
X167084226Y-118817556D01*
X167084226Y-118888984D01*
X167060417Y-118984222D01*
X167036607Y-119031841D01*
X166988988Y-119079460D01*
X166917560Y-119103270D01*
X166798512Y-119103270D01*
X167560417Y-119103270D02*
X167274702Y-119103270D01*
X167417560Y-119103270D02*
X167417560Y-118603270D01*
X167369940Y-118674699D01*
X167322321Y-118722318D01*
X167274702Y-118746127D01*
G04 #@! TO.C,D14*
X126642857Y-99306190D02*
X126642857Y-98806190D01*
X126761904Y-98806190D01*
X126833333Y-98830000D01*
X126880952Y-98877619D01*
X126904761Y-98925238D01*
X126928571Y-99020476D01*
X126928571Y-99091904D01*
X126904761Y-99187142D01*
X126880952Y-99234761D01*
X126833333Y-99282380D01*
X126761904Y-99306190D01*
X126642857Y-99306190D01*
X127404761Y-99306190D02*
X127119047Y-99306190D01*
X127261904Y-99306190D02*
X127261904Y-98806190D01*
X127214285Y-98877619D01*
X127166666Y-98925238D01*
X127119047Y-98949047D01*
X127833333Y-98972857D02*
X127833333Y-99306190D01*
X127714285Y-98782380D02*
X127595238Y-99139523D01*
X127904761Y-99139523D01*
G04 #@! TO.C,R13*
X178504731Y-93881070D02*
X178338064Y-93642975D01*
X178219017Y-93881070D02*
X178219017Y-93381070D01*
X178409493Y-93381070D01*
X178457112Y-93404880D01*
X178480921Y-93428689D01*
X178504731Y-93476308D01*
X178504731Y-93547737D01*
X178480921Y-93595356D01*
X178457112Y-93619165D01*
X178409493Y-93642975D01*
X178219017Y-93642975D01*
X178980921Y-93881070D02*
X178695207Y-93881070D01*
X178838064Y-93881070D02*
X178838064Y-93381070D01*
X178790445Y-93452499D01*
X178742826Y-93500118D01*
X178695207Y-93523927D01*
X179147588Y-93381070D02*
X179457112Y-93381070D01*
X179290445Y-93571546D01*
X179361874Y-93571546D01*
X179409493Y-93595356D01*
X179433302Y-93619165D01*
X179457112Y-93666784D01*
X179457112Y-93785832D01*
X179433302Y-93833451D01*
X179409493Y-93857260D01*
X179361874Y-93881070D01*
X179219017Y-93881070D01*
X179171398Y-93857260D01*
X179147588Y-93833451D01*
G04 #@! TO.C,J4*
X150754590Y-119648266D02*
X151111733Y-119648266D01*
X151183161Y-119672076D01*
X151230780Y-119719695D01*
X151254590Y-119791123D01*
X151254590Y-119838742D01*
X150921257Y-119195885D02*
X151254590Y-119195885D01*
X150730780Y-119314933D02*
X151087923Y-119433980D01*
X151087923Y-119124457D01*
G04 #@! TO.C,C4*
X155044626Y-101748091D02*
X155020817Y-101771900D01*
X154949388Y-101795710D01*
X154901769Y-101795710D01*
X154830340Y-101771900D01*
X154782721Y-101724281D01*
X154758912Y-101676662D01*
X154735102Y-101581424D01*
X154735102Y-101509996D01*
X154758912Y-101414758D01*
X154782721Y-101367139D01*
X154830340Y-101319520D01*
X154901769Y-101295710D01*
X154949388Y-101295710D01*
X155020817Y-101319520D01*
X155044626Y-101343329D01*
X155473198Y-101462377D02*
X155473198Y-101795710D01*
X155354150Y-101271900D02*
X155235102Y-101629043D01*
X155544626Y-101629043D01*
G04 #@! TO.C,R10*
X182431571Y-91488390D02*
X182264904Y-91250295D01*
X182145857Y-91488390D02*
X182145857Y-90988390D01*
X182336333Y-90988390D01*
X182383952Y-91012200D01*
X182407761Y-91036009D01*
X182431571Y-91083628D01*
X182431571Y-91155057D01*
X182407761Y-91202676D01*
X182383952Y-91226485D01*
X182336333Y-91250295D01*
X182145857Y-91250295D01*
X182907761Y-91488390D02*
X182622047Y-91488390D01*
X182764904Y-91488390D02*
X182764904Y-90988390D01*
X182717285Y-91059819D01*
X182669666Y-91107438D01*
X182622047Y-91131247D01*
X183217285Y-90988390D02*
X183264904Y-90988390D01*
X183312523Y-91012200D01*
X183336333Y-91036009D01*
X183360142Y-91083628D01*
X183383952Y-91178866D01*
X183383952Y-91297914D01*
X183360142Y-91393152D01*
X183336333Y-91440771D01*
X183312523Y-91464580D01*
X183264904Y-91488390D01*
X183217285Y-91488390D01*
X183169666Y-91464580D01*
X183145857Y-91440771D01*
X183122047Y-91393152D01*
X183098238Y-91297914D01*
X183098238Y-91178866D01*
X183122047Y-91083628D01*
X183145857Y-91036009D01*
X183169666Y-91012200D01*
X183217285Y-90988390D01*
G04 #@! TO.C,R15*
X178103411Y-102598350D02*
X177936744Y-102360255D01*
X177817697Y-102598350D02*
X177817697Y-102098350D01*
X178008173Y-102098350D01*
X178055792Y-102122160D01*
X178079601Y-102145969D01*
X178103411Y-102193588D01*
X178103411Y-102265017D01*
X178079601Y-102312636D01*
X178055792Y-102336445D01*
X178008173Y-102360255D01*
X177817697Y-102360255D01*
X178579601Y-102598350D02*
X178293887Y-102598350D01*
X178436744Y-102598350D02*
X178436744Y-102098350D01*
X178389125Y-102169779D01*
X178341506Y-102217398D01*
X178293887Y-102241207D01*
X179031982Y-102098350D02*
X178793887Y-102098350D01*
X178770078Y-102336445D01*
X178793887Y-102312636D01*
X178841506Y-102288826D01*
X178960554Y-102288826D01*
X179008173Y-102312636D01*
X179031982Y-102336445D01*
X179055792Y-102384064D01*
X179055792Y-102503112D01*
X179031982Y-102550731D01*
X179008173Y-102574540D01*
X178960554Y-102598350D01*
X178841506Y-102598350D01*
X178793887Y-102574540D01*
X178770078Y-102550731D01*
G04 #@! TO.C,R16*
X149054950Y-93646108D02*
X148816855Y-93812775D01*
X149054950Y-93931822D02*
X148554950Y-93931822D01*
X148554950Y-93741346D01*
X148578760Y-93693727D01*
X148602569Y-93669918D01*
X148650188Y-93646108D01*
X148721617Y-93646108D01*
X148769236Y-93669918D01*
X148793045Y-93693727D01*
X148816855Y-93741346D01*
X148816855Y-93931822D01*
X149054950Y-93169918D02*
X149054950Y-93455632D01*
X149054950Y-93312775D02*
X148554950Y-93312775D01*
X148626379Y-93360394D01*
X148673998Y-93408013D01*
X148697807Y-93455632D01*
X148554950Y-92741346D02*
X148554950Y-92836584D01*
X148578760Y-92884203D01*
X148602569Y-92908013D01*
X148673998Y-92955632D01*
X148769236Y-92979441D01*
X148959712Y-92979441D01*
X149007331Y-92955632D01*
X149031140Y-92931822D01*
X149054950Y-92884203D01*
X149054950Y-92788965D01*
X149031140Y-92741346D01*
X149007331Y-92717537D01*
X148959712Y-92693727D01*
X148840664Y-92693727D01*
X148793045Y-92717537D01*
X148769236Y-92741346D01*
X148745426Y-92788965D01*
X148745426Y-92884203D01*
X148769236Y-92931822D01*
X148793045Y-92955632D01*
X148840664Y-92979441D01*
G04 #@! TO.C,R14*
X171340910Y-92762188D02*
X171102815Y-92928855D01*
X171340910Y-93047902D02*
X170840910Y-93047902D01*
X170840910Y-92857426D01*
X170864720Y-92809807D01*
X170888529Y-92785998D01*
X170936148Y-92762188D01*
X171007577Y-92762188D01*
X171055196Y-92785998D01*
X171079005Y-92809807D01*
X171102815Y-92857426D01*
X171102815Y-93047902D01*
X171340910Y-92285998D02*
X171340910Y-92571712D01*
X171340910Y-92428855D02*
X170840910Y-92428855D01*
X170912339Y-92476474D01*
X170959958Y-92524093D01*
X170983767Y-92571712D01*
X171007577Y-91857426D02*
X171340910Y-91857426D01*
X170817100Y-91976474D02*
X171174243Y-92095521D01*
X171174243Y-91785998D01*
G04 #@! TO.C,Q2*
X172169460Y-108980729D02*
X172121841Y-108956920D01*
X172074222Y-108909300D01*
X172002794Y-108837872D01*
X171955175Y-108814062D01*
X171907556Y-108814062D01*
X171931365Y-108933110D02*
X171883746Y-108909300D01*
X171836127Y-108861681D01*
X171812318Y-108766443D01*
X171812318Y-108599777D01*
X171836127Y-108504539D01*
X171883746Y-108456920D01*
X171931365Y-108433110D01*
X172026603Y-108433110D01*
X172074222Y-108456920D01*
X172121841Y-108504539D01*
X172145651Y-108599777D01*
X172145651Y-108766443D01*
X172121841Y-108861681D01*
X172074222Y-108909300D01*
X172026603Y-108933110D01*
X171931365Y-108933110D01*
X172336127Y-108480729D02*
X172359937Y-108456920D01*
X172407556Y-108433110D01*
X172526603Y-108433110D01*
X172574222Y-108456920D01*
X172598032Y-108480729D01*
X172621841Y-108528348D01*
X172621841Y-108575967D01*
X172598032Y-108647396D01*
X172312318Y-108933110D01*
X172621841Y-108933110D01*
G04 #@! TO.C,R22*
X131378571Y-90486190D02*
X131211904Y-90248095D01*
X131092857Y-90486190D02*
X131092857Y-89986190D01*
X131283333Y-89986190D01*
X131330952Y-90010000D01*
X131354761Y-90033809D01*
X131378571Y-90081428D01*
X131378571Y-90152857D01*
X131354761Y-90200476D01*
X131330952Y-90224285D01*
X131283333Y-90248095D01*
X131092857Y-90248095D01*
X131569047Y-90033809D02*
X131592857Y-90010000D01*
X131640476Y-89986190D01*
X131759523Y-89986190D01*
X131807142Y-90010000D01*
X131830952Y-90033809D01*
X131854761Y-90081428D01*
X131854761Y-90129047D01*
X131830952Y-90200476D01*
X131545238Y-90486190D01*
X131854761Y-90486190D01*
X132045238Y-90033809D02*
X132069047Y-90010000D01*
X132116666Y-89986190D01*
X132235714Y-89986190D01*
X132283333Y-90010000D01*
X132307142Y-90033809D01*
X132330952Y-90081428D01*
X132330952Y-90129047D01*
X132307142Y-90200476D01*
X132021428Y-90486190D01*
X132330952Y-90486190D01*
G04 #@! TO.C,R29*
X138985390Y-127179228D02*
X138747295Y-127345895D01*
X138985390Y-127464942D02*
X138485390Y-127464942D01*
X138485390Y-127274466D01*
X138509200Y-127226847D01*
X138533009Y-127203038D01*
X138580628Y-127179228D01*
X138652057Y-127179228D01*
X138699676Y-127203038D01*
X138723485Y-127226847D01*
X138747295Y-127274466D01*
X138747295Y-127464942D01*
X138533009Y-126988752D02*
X138509200Y-126964942D01*
X138485390Y-126917323D01*
X138485390Y-126798276D01*
X138509200Y-126750657D01*
X138533009Y-126726847D01*
X138580628Y-126703038D01*
X138628247Y-126703038D01*
X138699676Y-126726847D01*
X138985390Y-127012561D01*
X138985390Y-126703038D01*
X138985390Y-126464942D02*
X138985390Y-126369704D01*
X138961580Y-126322085D01*
X138937771Y-126298276D01*
X138866342Y-126250657D01*
X138771104Y-126226847D01*
X138580628Y-126226847D01*
X138533009Y-126250657D01*
X138509200Y-126274466D01*
X138485390Y-126322085D01*
X138485390Y-126417323D01*
X138509200Y-126464942D01*
X138533009Y-126488752D01*
X138580628Y-126512561D01*
X138699676Y-126512561D01*
X138747295Y-126488752D01*
X138771104Y-126464942D01*
X138794914Y-126417323D01*
X138794914Y-126322085D01*
X138771104Y-126274466D01*
X138747295Y-126250657D01*
X138699676Y-126226847D01*
G04 #@! TO.C,R31*
X161649291Y-100673030D02*
X161482624Y-100434935D01*
X161363577Y-100673030D02*
X161363577Y-100173030D01*
X161554053Y-100173030D01*
X161601672Y-100196840D01*
X161625481Y-100220649D01*
X161649291Y-100268268D01*
X161649291Y-100339697D01*
X161625481Y-100387316D01*
X161601672Y-100411125D01*
X161554053Y-100434935D01*
X161363577Y-100434935D01*
X161815958Y-100173030D02*
X162125481Y-100173030D01*
X161958815Y-100363506D01*
X162030243Y-100363506D01*
X162077862Y-100387316D01*
X162101672Y-100411125D01*
X162125481Y-100458744D01*
X162125481Y-100577792D01*
X162101672Y-100625411D01*
X162077862Y-100649220D01*
X162030243Y-100673030D01*
X161887386Y-100673030D01*
X161839767Y-100649220D01*
X161815958Y-100625411D01*
X162601672Y-100673030D02*
X162315958Y-100673030D01*
X162458815Y-100673030D02*
X162458815Y-100173030D01*
X162411196Y-100244459D01*
X162363577Y-100292078D01*
X162315958Y-100315887D01*
G04 #@! TO.C,D3*
X168449512Y-111808390D02*
X168449512Y-111308390D01*
X168568560Y-111308390D01*
X168639988Y-111332200D01*
X168687607Y-111379819D01*
X168711417Y-111427438D01*
X168735226Y-111522676D01*
X168735226Y-111594104D01*
X168711417Y-111689342D01*
X168687607Y-111736961D01*
X168639988Y-111784580D01*
X168568560Y-111808390D01*
X168449512Y-111808390D01*
X168901893Y-111308390D02*
X169211417Y-111308390D01*
X169044750Y-111498866D01*
X169116179Y-111498866D01*
X169163798Y-111522676D01*
X169187607Y-111546485D01*
X169211417Y-111594104D01*
X169211417Y-111713152D01*
X169187607Y-111760771D01*
X169163798Y-111784580D01*
X169116179Y-111808390D01*
X168973321Y-111808390D01*
X168925702Y-111784580D01*
X168901893Y-111760771D01*
G04 #@! TO.C,D9*
X159413070Y-96406447D02*
X158913070Y-96406447D01*
X158913070Y-96287400D01*
X158936880Y-96215971D01*
X158984499Y-96168352D01*
X159032118Y-96144542D01*
X159127356Y-96120733D01*
X159198784Y-96120733D01*
X159294022Y-96144542D01*
X159341641Y-96168352D01*
X159389260Y-96215971D01*
X159413070Y-96287400D01*
X159413070Y-96406447D01*
X159413070Y-95882638D02*
X159413070Y-95787400D01*
X159389260Y-95739780D01*
X159365451Y-95715971D01*
X159294022Y-95668352D01*
X159198784Y-95644542D01*
X159008308Y-95644542D01*
X158960689Y-95668352D01*
X158936880Y-95692161D01*
X158913070Y-95739780D01*
X158913070Y-95835019D01*
X158936880Y-95882638D01*
X158960689Y-95906447D01*
X159008308Y-95930257D01*
X159127356Y-95930257D01*
X159174975Y-95906447D01*
X159198784Y-95882638D01*
X159222594Y-95835019D01*
X159222594Y-95739780D01*
X159198784Y-95692161D01*
X159174975Y-95668352D01*
X159127356Y-95644542D01*
G04 #@! TO.C,R23*
X156228931Y-120037990D02*
X156062264Y-119799895D01*
X155943217Y-120037990D02*
X155943217Y-119537990D01*
X156133693Y-119537990D01*
X156181312Y-119561800D01*
X156205121Y-119585609D01*
X156228931Y-119633228D01*
X156228931Y-119704657D01*
X156205121Y-119752276D01*
X156181312Y-119776085D01*
X156133693Y-119799895D01*
X155943217Y-119799895D01*
X156419407Y-119585609D02*
X156443217Y-119561800D01*
X156490836Y-119537990D01*
X156609883Y-119537990D01*
X156657502Y-119561800D01*
X156681312Y-119585609D01*
X156705121Y-119633228D01*
X156705121Y-119680847D01*
X156681312Y-119752276D01*
X156395598Y-120037990D01*
X156705121Y-120037990D01*
X156871788Y-119537990D02*
X157181312Y-119537990D01*
X157014645Y-119728466D01*
X157086074Y-119728466D01*
X157133693Y-119752276D01*
X157157502Y-119776085D01*
X157181312Y-119823704D01*
X157181312Y-119942752D01*
X157157502Y-119990371D01*
X157133693Y-120014180D01*
X157086074Y-120037990D01*
X156943217Y-120037990D01*
X156895598Y-120014180D01*
X156871788Y-119990371D01*
G04 #@! TO.C,R19*
X165357691Y-97818070D02*
X165191024Y-97579975D01*
X165071977Y-97818070D02*
X165071977Y-97318070D01*
X165262453Y-97318070D01*
X165310072Y-97341880D01*
X165333881Y-97365689D01*
X165357691Y-97413308D01*
X165357691Y-97484737D01*
X165333881Y-97532356D01*
X165310072Y-97556165D01*
X165262453Y-97579975D01*
X165071977Y-97579975D01*
X165833881Y-97818070D02*
X165548167Y-97818070D01*
X165691024Y-97818070D02*
X165691024Y-97318070D01*
X165643405Y-97389499D01*
X165595786Y-97437118D01*
X165548167Y-97460927D01*
X166071977Y-97818070D02*
X166167215Y-97818070D01*
X166214834Y-97794260D01*
X166238643Y-97770451D01*
X166286262Y-97699022D01*
X166310072Y-97603784D01*
X166310072Y-97413308D01*
X166286262Y-97365689D01*
X166262453Y-97341880D01*
X166214834Y-97318070D01*
X166119596Y-97318070D01*
X166071977Y-97341880D01*
X166048167Y-97365689D01*
X166024358Y-97413308D01*
X166024358Y-97532356D01*
X166048167Y-97579975D01*
X166071977Y-97603784D01*
X166119596Y-97627594D01*
X166214834Y-97627594D01*
X166262453Y-97603784D01*
X166286262Y-97579975D01*
X166310072Y-97532356D01*
G04 #@! TO.C,Q5*
X152895940Y-93837249D02*
X152848321Y-93813440D01*
X152800702Y-93765820D01*
X152729274Y-93694392D01*
X152681655Y-93670582D01*
X152634036Y-93670582D01*
X152657845Y-93789630D02*
X152610226Y-93765820D01*
X152562607Y-93718201D01*
X152538798Y-93622963D01*
X152538798Y-93456297D01*
X152562607Y-93361059D01*
X152610226Y-93313440D01*
X152657845Y-93289630D01*
X152753083Y-93289630D01*
X152800702Y-93313440D01*
X152848321Y-93361059D01*
X152872131Y-93456297D01*
X152872131Y-93622963D01*
X152848321Y-93718201D01*
X152800702Y-93765820D01*
X152753083Y-93789630D01*
X152657845Y-93789630D01*
X153324512Y-93289630D02*
X153086417Y-93289630D01*
X153062607Y-93527725D01*
X153086417Y-93503916D01*
X153134036Y-93480106D01*
X153253083Y-93480106D01*
X153300702Y-93503916D01*
X153324512Y-93527725D01*
X153348321Y-93575344D01*
X153348321Y-93694392D01*
X153324512Y-93742011D01*
X153300702Y-93765820D01*
X153253083Y-93789630D01*
X153134036Y-93789630D01*
X153086417Y-93765820D01*
X153062607Y-93742011D01*
G04 #@! TO.C,R21*
X167236270Y-95860988D02*
X166998175Y-96027655D01*
X167236270Y-96146702D02*
X166736270Y-96146702D01*
X166736270Y-95956226D01*
X166760080Y-95908607D01*
X166783889Y-95884798D01*
X166831508Y-95860988D01*
X166902937Y-95860988D01*
X166950556Y-95884798D01*
X166974365Y-95908607D01*
X166998175Y-95956226D01*
X166998175Y-96146702D01*
X166783889Y-95670512D02*
X166760080Y-95646702D01*
X166736270Y-95599083D01*
X166736270Y-95480036D01*
X166760080Y-95432417D01*
X166783889Y-95408607D01*
X166831508Y-95384798D01*
X166879127Y-95384798D01*
X166950556Y-95408607D01*
X167236270Y-95694321D01*
X167236270Y-95384798D01*
X167236270Y-94908607D02*
X167236270Y-95194321D01*
X167236270Y-95051464D02*
X166736270Y-95051464D01*
X166807699Y-95099083D01*
X166855318Y-95146702D01*
X166879127Y-95194321D01*
G04 #@! TO.C,R24*
X141644251Y-94348430D02*
X141477584Y-94110335D01*
X141358537Y-94348430D02*
X141358537Y-93848430D01*
X141549013Y-93848430D01*
X141596632Y-93872240D01*
X141620441Y-93896049D01*
X141644251Y-93943668D01*
X141644251Y-94015097D01*
X141620441Y-94062716D01*
X141596632Y-94086525D01*
X141549013Y-94110335D01*
X141358537Y-94110335D01*
X141834727Y-93896049D02*
X141858537Y-93872240D01*
X141906156Y-93848430D01*
X142025203Y-93848430D01*
X142072822Y-93872240D01*
X142096632Y-93896049D01*
X142120441Y-93943668D01*
X142120441Y-93991287D01*
X142096632Y-94062716D01*
X141810918Y-94348430D01*
X142120441Y-94348430D01*
X142549013Y-94015097D02*
X142549013Y-94348430D01*
X142429965Y-93824620D02*
X142310918Y-94181763D01*
X142620441Y-94181763D01*
G04 #@! TO.C,D10*
X141768857Y-87946190D02*
X141768857Y-87446190D01*
X141887904Y-87446190D01*
X141959333Y-87470000D01*
X142006952Y-87517619D01*
X142030761Y-87565238D01*
X142054571Y-87660476D01*
X142054571Y-87731904D01*
X142030761Y-87827142D01*
X142006952Y-87874761D01*
X141959333Y-87922380D01*
X141887904Y-87946190D01*
X141768857Y-87946190D01*
X142530761Y-87946190D02*
X142245047Y-87946190D01*
X142387904Y-87946190D02*
X142387904Y-87446190D01*
X142340285Y-87517619D01*
X142292666Y-87565238D01*
X142245047Y-87589047D01*
X142840285Y-87446190D02*
X142887904Y-87446190D01*
X142935523Y-87470000D01*
X142959333Y-87493809D01*
X142983142Y-87541428D01*
X143006952Y-87636666D01*
X143006952Y-87755714D01*
X142983142Y-87850952D01*
X142959333Y-87898571D01*
X142935523Y-87922380D01*
X142887904Y-87946190D01*
X142840285Y-87946190D01*
X142792666Y-87922380D01*
X142768857Y-87898571D01*
X142745047Y-87850952D01*
X142721238Y-87755714D01*
X142721238Y-87636666D01*
X142745047Y-87541428D01*
X142768857Y-87493809D01*
X142792666Y-87470000D01*
X142840285Y-87446190D01*
G04 #@! TO.C,D11*
X126502857Y-91096190D02*
X126502857Y-90596190D01*
X126621904Y-90596190D01*
X126693333Y-90620000D01*
X126740952Y-90667619D01*
X126764761Y-90715238D01*
X126788571Y-90810476D01*
X126788571Y-90881904D01*
X126764761Y-90977142D01*
X126740952Y-91024761D01*
X126693333Y-91072380D01*
X126621904Y-91096190D01*
X126502857Y-91096190D01*
X127264761Y-91096190D02*
X126979047Y-91096190D01*
X127121904Y-91096190D02*
X127121904Y-90596190D01*
X127074285Y-90667619D01*
X127026666Y-90715238D01*
X126979047Y-90739047D01*
X127740952Y-91096190D02*
X127455238Y-91096190D01*
X127598095Y-91096190D02*
X127598095Y-90596190D01*
X127550476Y-90667619D01*
X127502857Y-90715238D01*
X127455238Y-90739047D01*
G04 #@! TO.C,Q1*
X172001820Y-116041929D02*
X171954201Y-116018120D01*
X171906582Y-115970500D01*
X171835154Y-115899072D01*
X171787535Y-115875262D01*
X171739916Y-115875262D01*
X171763725Y-115994310D02*
X171716106Y-115970500D01*
X171668487Y-115922881D01*
X171644678Y-115827643D01*
X171644678Y-115660977D01*
X171668487Y-115565739D01*
X171716106Y-115518120D01*
X171763725Y-115494310D01*
X171858963Y-115494310D01*
X171906582Y-115518120D01*
X171954201Y-115565739D01*
X171978011Y-115660977D01*
X171978011Y-115827643D01*
X171954201Y-115922881D01*
X171906582Y-115970500D01*
X171858963Y-115994310D01*
X171763725Y-115994310D01*
X172454201Y-115994310D02*
X172168487Y-115994310D01*
X172311344Y-115994310D02*
X172311344Y-115494310D01*
X172263725Y-115565739D01*
X172216106Y-115613358D01*
X172168487Y-115637167D01*
G04 #@! TO.C,D12*
X133548590Y-131188542D02*
X133048590Y-131188542D01*
X133048590Y-131069495D01*
X133072400Y-130998066D01*
X133120019Y-130950447D01*
X133167638Y-130926638D01*
X133262876Y-130902828D01*
X133334304Y-130902828D01*
X133429542Y-130926638D01*
X133477161Y-130950447D01*
X133524780Y-130998066D01*
X133548590Y-131069495D01*
X133548590Y-131188542D01*
X133548590Y-130426638D02*
X133548590Y-130712352D01*
X133548590Y-130569495D02*
X133048590Y-130569495D01*
X133120019Y-130617114D01*
X133167638Y-130664733D01*
X133191447Y-130712352D01*
X133096209Y-130236161D02*
X133072400Y-130212352D01*
X133048590Y-130164733D01*
X133048590Y-130045685D01*
X133072400Y-129998066D01*
X133096209Y-129974257D01*
X133143828Y-129950447D01*
X133191447Y-129950447D01*
X133262876Y-129974257D01*
X133548590Y-130259971D01*
X133548590Y-129950447D01*
G04 #@! TO.C,D8*
X149856712Y-99860230D02*
X149856712Y-99360230D01*
X149975760Y-99360230D01*
X150047188Y-99384040D01*
X150094807Y-99431659D01*
X150118617Y-99479278D01*
X150142426Y-99574516D01*
X150142426Y-99645944D01*
X150118617Y-99741182D01*
X150094807Y-99788801D01*
X150047188Y-99836420D01*
X149975760Y-99860230D01*
X149856712Y-99860230D01*
X150428140Y-99574516D02*
X150380521Y-99550706D01*
X150356712Y-99526897D01*
X150332902Y-99479278D01*
X150332902Y-99455468D01*
X150356712Y-99407849D01*
X150380521Y-99384040D01*
X150428140Y-99360230D01*
X150523379Y-99360230D01*
X150570998Y-99384040D01*
X150594807Y-99407849D01*
X150618617Y-99455468D01*
X150618617Y-99479278D01*
X150594807Y-99526897D01*
X150570998Y-99550706D01*
X150523379Y-99574516D01*
X150428140Y-99574516D01*
X150380521Y-99598325D01*
X150356712Y-99622135D01*
X150332902Y-99669754D01*
X150332902Y-99764992D01*
X150356712Y-99812611D01*
X150380521Y-99836420D01*
X150428140Y-99860230D01*
X150523379Y-99860230D01*
X150570998Y-99836420D01*
X150594807Y-99812611D01*
X150618617Y-99764992D01*
X150618617Y-99669754D01*
X150594807Y-99622135D01*
X150570998Y-99598325D01*
X150523379Y-99574516D01*
G04 #@! TO.C,R34*
X154557611Y-99098230D02*
X154390944Y-98860135D01*
X154271897Y-99098230D02*
X154271897Y-98598230D01*
X154462373Y-98598230D01*
X154509992Y-98622040D01*
X154533801Y-98645849D01*
X154557611Y-98693468D01*
X154557611Y-98764897D01*
X154533801Y-98812516D01*
X154509992Y-98836325D01*
X154462373Y-98860135D01*
X154271897Y-98860135D01*
X154724278Y-98598230D02*
X155033801Y-98598230D01*
X154867135Y-98788706D01*
X154938563Y-98788706D01*
X154986182Y-98812516D01*
X155009992Y-98836325D01*
X155033801Y-98883944D01*
X155033801Y-99002992D01*
X155009992Y-99050611D01*
X154986182Y-99074420D01*
X154938563Y-99098230D01*
X154795706Y-99098230D01*
X154748087Y-99074420D01*
X154724278Y-99050611D01*
X155462373Y-98764897D02*
X155462373Y-99098230D01*
X155343325Y-98574420D02*
X155224278Y-98931563D01*
X155533801Y-98931563D01*
G04 #@! TO.C,R11*
X172911651Y-91290270D02*
X172744984Y-91052175D01*
X172625937Y-91290270D02*
X172625937Y-90790270D01*
X172816413Y-90790270D01*
X172864032Y-90814080D01*
X172887841Y-90837889D01*
X172911651Y-90885508D01*
X172911651Y-90956937D01*
X172887841Y-91004556D01*
X172864032Y-91028365D01*
X172816413Y-91052175D01*
X172625937Y-91052175D01*
X173387841Y-91290270D02*
X173102127Y-91290270D01*
X173244984Y-91290270D02*
X173244984Y-90790270D01*
X173197365Y-90861699D01*
X173149746Y-90909318D01*
X173102127Y-90933127D01*
X173864032Y-91290270D02*
X173578318Y-91290270D01*
X173721175Y-91290270D02*
X173721175Y-90790270D01*
X173673556Y-90861699D01*
X173625937Y-90909318D01*
X173578318Y-90933127D01*
G04 #@! TO.C,R6*
X166527966Y-126273690D02*
X166361300Y-126035595D01*
X166242252Y-126273690D02*
X166242252Y-125773690D01*
X166432728Y-125773690D01*
X166480347Y-125797500D01*
X166504157Y-125821309D01*
X166527966Y-125868928D01*
X166527966Y-125940357D01*
X166504157Y-125987976D01*
X166480347Y-126011785D01*
X166432728Y-126035595D01*
X166242252Y-126035595D01*
X166956538Y-125773690D02*
X166861300Y-125773690D01*
X166813680Y-125797500D01*
X166789871Y-125821309D01*
X166742252Y-125892738D01*
X166718442Y-125987976D01*
X166718442Y-126178452D01*
X166742252Y-126226071D01*
X166766061Y-126249880D01*
X166813680Y-126273690D01*
X166908919Y-126273690D01*
X166956538Y-126249880D01*
X166980347Y-126226071D01*
X167004157Y-126178452D01*
X167004157Y-126059404D01*
X166980347Y-126011785D01*
X166956538Y-125987976D01*
X166908919Y-125964166D01*
X166813680Y-125964166D01*
X166766061Y-125987976D01*
X166742252Y-126011785D01*
X166718442Y-126059404D01*
G04 #@! TO.C,R1*
X170388766Y-123835290D02*
X170222100Y-123597195D01*
X170103052Y-123835290D02*
X170103052Y-123335290D01*
X170293528Y-123335290D01*
X170341147Y-123359100D01*
X170364957Y-123382909D01*
X170388766Y-123430528D01*
X170388766Y-123501957D01*
X170364957Y-123549576D01*
X170341147Y-123573385D01*
X170293528Y-123597195D01*
X170103052Y-123597195D01*
X170864957Y-123835290D02*
X170579242Y-123835290D01*
X170722100Y-123835290D02*
X170722100Y-123335290D01*
X170674480Y-123406719D01*
X170626861Y-123454338D01*
X170579242Y-123478147D01*
G04 #@! TO.C,R7*
X167785266Y-109044870D02*
X167618600Y-108806775D01*
X167499552Y-109044870D02*
X167499552Y-108544870D01*
X167690028Y-108544870D01*
X167737647Y-108568680D01*
X167761457Y-108592489D01*
X167785266Y-108640108D01*
X167785266Y-108711537D01*
X167761457Y-108759156D01*
X167737647Y-108782965D01*
X167690028Y-108806775D01*
X167499552Y-108806775D01*
X167951933Y-108544870D02*
X168285266Y-108544870D01*
X168070980Y-109044870D01*
G04 #@! TO.C,R27*
X133423790Y-127042028D02*
X133185695Y-127208695D01*
X133423790Y-127327742D02*
X132923790Y-127327742D01*
X132923790Y-127137266D01*
X132947600Y-127089647D01*
X132971409Y-127065838D01*
X133019028Y-127042028D01*
X133090457Y-127042028D01*
X133138076Y-127065838D01*
X133161885Y-127089647D01*
X133185695Y-127137266D01*
X133185695Y-127327742D01*
X132971409Y-126851552D02*
X132947600Y-126827742D01*
X132923790Y-126780123D01*
X132923790Y-126661076D01*
X132947600Y-126613457D01*
X132971409Y-126589647D01*
X133019028Y-126565838D01*
X133066647Y-126565838D01*
X133138076Y-126589647D01*
X133423790Y-126875361D01*
X133423790Y-126565838D01*
X132923790Y-126399171D02*
X132923790Y-126065838D01*
X133423790Y-126280123D01*
G04 #@! TO.C,D5*
X177171872Y-95750510D02*
X177171872Y-95250510D01*
X177290920Y-95250510D01*
X177362348Y-95274320D01*
X177409967Y-95321939D01*
X177433777Y-95369558D01*
X177457586Y-95464796D01*
X177457586Y-95536224D01*
X177433777Y-95631462D01*
X177409967Y-95679081D01*
X177362348Y-95726700D01*
X177290920Y-95750510D01*
X177171872Y-95750510D01*
X177909967Y-95250510D02*
X177671872Y-95250510D01*
X177648062Y-95488605D01*
X177671872Y-95464796D01*
X177719491Y-95440986D01*
X177838539Y-95440986D01*
X177886158Y-95464796D01*
X177909967Y-95488605D01*
X177933777Y-95536224D01*
X177933777Y-95655272D01*
X177909967Y-95702891D01*
X177886158Y-95726700D01*
X177838539Y-95750510D01*
X177719491Y-95750510D01*
X177671872Y-95726700D01*
X177648062Y-95702891D01*
G04 #@! TO.C,R17*
X161771211Y-90665430D02*
X161604544Y-90427335D01*
X161485497Y-90665430D02*
X161485497Y-90165430D01*
X161675973Y-90165430D01*
X161723592Y-90189240D01*
X161747401Y-90213049D01*
X161771211Y-90260668D01*
X161771211Y-90332097D01*
X161747401Y-90379716D01*
X161723592Y-90403525D01*
X161675973Y-90427335D01*
X161485497Y-90427335D01*
X162247401Y-90665430D02*
X161961687Y-90665430D01*
X162104544Y-90665430D02*
X162104544Y-90165430D01*
X162056925Y-90236859D01*
X162009306Y-90284478D01*
X161961687Y-90308287D01*
X162414068Y-90165430D02*
X162747401Y-90165430D01*
X162533116Y-90665430D01*
G04 #@! TO.C,R18*
X152650071Y-97952690D02*
X152483404Y-97714595D01*
X152364357Y-97952690D02*
X152364357Y-97452690D01*
X152554833Y-97452690D01*
X152602452Y-97476500D01*
X152626261Y-97500309D01*
X152650071Y-97547928D01*
X152650071Y-97619357D01*
X152626261Y-97666976D01*
X152602452Y-97690785D01*
X152554833Y-97714595D01*
X152364357Y-97714595D01*
X153126261Y-97952690D02*
X152840547Y-97952690D01*
X152983404Y-97952690D02*
X152983404Y-97452690D01*
X152935785Y-97524119D01*
X152888166Y-97571738D01*
X152840547Y-97595547D01*
X153411976Y-97666976D02*
X153364357Y-97643166D01*
X153340547Y-97619357D01*
X153316738Y-97571738D01*
X153316738Y-97547928D01*
X153340547Y-97500309D01*
X153364357Y-97476500D01*
X153411976Y-97452690D01*
X153507214Y-97452690D01*
X153554833Y-97476500D01*
X153578642Y-97500309D01*
X153602452Y-97547928D01*
X153602452Y-97571738D01*
X153578642Y-97619357D01*
X153554833Y-97643166D01*
X153507214Y-97666976D01*
X153411976Y-97666976D01*
X153364357Y-97690785D01*
X153340547Y-97714595D01*
X153316738Y-97762214D01*
X153316738Y-97857452D01*
X153340547Y-97905071D01*
X153364357Y-97928880D01*
X153411976Y-97952690D01*
X153507214Y-97952690D01*
X153554833Y-97928880D01*
X153578642Y-97905071D01*
X153602452Y-97857452D01*
X153602452Y-97762214D01*
X153578642Y-97714595D01*
X153554833Y-97690785D01*
X153507214Y-97666976D01*
G04 #@! TO.C,IC1*
X158160304Y-112103030D02*
X158160304Y-111603030D01*
X158684114Y-112055411D02*
X158660304Y-112079220D01*
X158588876Y-112103030D01*
X158541257Y-112103030D01*
X158469828Y-112079220D01*
X158422209Y-112031601D01*
X158398400Y-111983982D01*
X158374590Y-111888744D01*
X158374590Y-111817316D01*
X158398400Y-111722078D01*
X158422209Y-111674459D01*
X158469828Y-111626840D01*
X158541257Y-111603030D01*
X158588876Y-111603030D01*
X158660304Y-111626840D01*
X158684114Y-111650649D01*
X159160304Y-112103030D02*
X158874590Y-112103030D01*
X159017447Y-112103030D02*
X159017447Y-111603030D01*
X158969828Y-111674459D01*
X158922209Y-111722078D01*
X158874590Y-111745887D01*
G04 #@! TO.C,D13*
X138859390Y-130985342D02*
X138359390Y-130985342D01*
X138359390Y-130866295D01*
X138383200Y-130794866D01*
X138430819Y-130747247D01*
X138478438Y-130723438D01*
X138573676Y-130699628D01*
X138645104Y-130699628D01*
X138740342Y-130723438D01*
X138787961Y-130747247D01*
X138835580Y-130794866D01*
X138859390Y-130866295D01*
X138859390Y-130985342D01*
X138859390Y-130223438D02*
X138859390Y-130509152D01*
X138859390Y-130366295D02*
X138359390Y-130366295D01*
X138430819Y-130413914D01*
X138478438Y-130461533D01*
X138502247Y-130509152D01*
X138359390Y-130056771D02*
X138359390Y-129747247D01*
X138549866Y-129913914D01*
X138549866Y-129842485D01*
X138573676Y-129794866D01*
X138597485Y-129771057D01*
X138645104Y-129747247D01*
X138764152Y-129747247D01*
X138811771Y-129771057D01*
X138835580Y-129794866D01*
X138859390Y-129842485D01*
X138859390Y-129985342D01*
X138835580Y-130032961D01*
X138811771Y-130056771D01*
G04 #@! TO.C,D6*
X168647452Y-104821190D02*
X168647452Y-104321190D01*
X168766500Y-104321190D01*
X168837928Y-104345000D01*
X168885547Y-104392619D01*
X168909357Y-104440238D01*
X168933166Y-104535476D01*
X168933166Y-104606904D01*
X168909357Y-104702142D01*
X168885547Y-104749761D01*
X168837928Y-104797380D01*
X168766500Y-104821190D01*
X168647452Y-104821190D01*
X169361738Y-104321190D02*
X169266500Y-104321190D01*
X169218880Y-104345000D01*
X169195071Y-104368809D01*
X169147452Y-104440238D01*
X169123642Y-104535476D01*
X169123642Y-104725952D01*
X169147452Y-104773571D01*
X169171261Y-104797380D01*
X169218880Y-104821190D01*
X169314119Y-104821190D01*
X169361738Y-104797380D01*
X169385547Y-104773571D01*
X169409357Y-104725952D01*
X169409357Y-104606904D01*
X169385547Y-104559285D01*
X169361738Y-104535476D01*
X169314119Y-104511666D01*
X169218880Y-104511666D01*
X169171261Y-104535476D01*
X169147452Y-104559285D01*
X169123642Y-104606904D01*
G04 #@! TO.C,Q3*
X182405660Y-95914969D02*
X182358041Y-95891160D01*
X182310422Y-95843540D01*
X182238994Y-95772112D01*
X182191375Y-95748302D01*
X182143756Y-95748302D01*
X182167565Y-95867350D02*
X182119946Y-95843540D01*
X182072327Y-95795921D01*
X182048518Y-95700683D01*
X182048518Y-95534017D01*
X182072327Y-95438779D01*
X182119946Y-95391160D01*
X182167565Y-95367350D01*
X182262803Y-95367350D01*
X182310422Y-95391160D01*
X182358041Y-95438779D01*
X182381851Y-95534017D01*
X182381851Y-95700683D01*
X182358041Y-95795921D01*
X182310422Y-95843540D01*
X182262803Y-95867350D01*
X182167565Y-95867350D01*
X182548518Y-95367350D02*
X182858041Y-95367350D01*
X182691375Y-95557826D01*
X182762803Y-95557826D01*
X182810422Y-95581636D01*
X182834232Y-95605445D01*
X182858041Y-95653064D01*
X182858041Y-95772112D01*
X182834232Y-95819731D01*
X182810422Y-95843540D01*
X182762803Y-95867350D01*
X182619946Y-95867350D01*
X182572327Y-95843540D01*
X182548518Y-95819731D01*
G04 #@! TO.C,Y1*
X150150224Y-104986615D02*
X150150224Y-105224710D01*
X149983558Y-104724710D02*
X150150224Y-104986615D01*
X150316891Y-104724710D01*
X150745462Y-105224710D02*
X150459748Y-105224710D01*
X150602605Y-105224710D02*
X150602605Y-104724710D01*
X150554986Y-104796139D01*
X150507367Y-104843758D01*
X150459748Y-104867567D01*
G04 #@! TO.C,R32*
X130298571Y-96596190D02*
X130131904Y-96358095D01*
X130012857Y-96596190D02*
X130012857Y-96096190D01*
X130203333Y-96096190D01*
X130250952Y-96120000D01*
X130274761Y-96143809D01*
X130298571Y-96191428D01*
X130298571Y-96262857D01*
X130274761Y-96310476D01*
X130250952Y-96334285D01*
X130203333Y-96358095D01*
X130012857Y-96358095D01*
X130465238Y-96096190D02*
X130774761Y-96096190D01*
X130608095Y-96286666D01*
X130679523Y-96286666D01*
X130727142Y-96310476D01*
X130750952Y-96334285D01*
X130774761Y-96381904D01*
X130774761Y-96500952D01*
X130750952Y-96548571D01*
X130727142Y-96572380D01*
X130679523Y-96596190D01*
X130536666Y-96596190D01*
X130489047Y-96572380D01*
X130465238Y-96548571D01*
X130965238Y-96143809D02*
X130989047Y-96120000D01*
X131036666Y-96096190D01*
X131155714Y-96096190D01*
X131203333Y-96120000D01*
X131227142Y-96143809D01*
X131250952Y-96191428D01*
X131250952Y-96239047D01*
X131227142Y-96310476D01*
X130941428Y-96596190D01*
X131250952Y-96596190D01*
G04 #@! TO.C,R20*
X155558371Y-91422350D02*
X155391704Y-91184255D01*
X155272657Y-91422350D02*
X155272657Y-90922350D01*
X155463133Y-90922350D01*
X155510752Y-90946160D01*
X155534561Y-90969969D01*
X155558371Y-91017588D01*
X155558371Y-91089017D01*
X155534561Y-91136636D01*
X155510752Y-91160445D01*
X155463133Y-91184255D01*
X155272657Y-91184255D01*
X155748847Y-90969969D02*
X155772657Y-90946160D01*
X155820276Y-90922350D01*
X155939323Y-90922350D01*
X155986942Y-90946160D01*
X156010752Y-90969969D01*
X156034561Y-91017588D01*
X156034561Y-91065207D01*
X156010752Y-91136636D01*
X155725038Y-91422350D01*
X156034561Y-91422350D01*
X156344085Y-90922350D02*
X156391704Y-90922350D01*
X156439323Y-90946160D01*
X156463133Y-90969969D01*
X156486942Y-91017588D01*
X156510752Y-91112826D01*
X156510752Y-91231874D01*
X156486942Y-91327112D01*
X156463133Y-91374731D01*
X156439323Y-91398540D01*
X156391704Y-91422350D01*
X156344085Y-91422350D01*
X156296466Y-91398540D01*
X156272657Y-91374731D01*
X156248847Y-91327112D01*
X156225038Y-91231874D01*
X156225038Y-91112826D01*
X156248847Y-91017588D01*
X156272657Y-90969969D01*
X156296466Y-90946160D01*
X156344085Y-90922350D01*
G04 #@! TO.C,Q6*
X163635060Y-93811849D02*
X163587441Y-93788040D01*
X163539822Y-93740420D01*
X163468394Y-93668992D01*
X163420775Y-93645182D01*
X163373156Y-93645182D01*
X163396965Y-93764230D02*
X163349346Y-93740420D01*
X163301727Y-93692801D01*
X163277918Y-93597563D01*
X163277918Y-93430897D01*
X163301727Y-93335659D01*
X163349346Y-93288040D01*
X163396965Y-93264230D01*
X163492203Y-93264230D01*
X163539822Y-93288040D01*
X163587441Y-93335659D01*
X163611251Y-93430897D01*
X163611251Y-93597563D01*
X163587441Y-93692801D01*
X163539822Y-93740420D01*
X163492203Y-93764230D01*
X163396965Y-93764230D01*
X164039822Y-93264230D02*
X163944584Y-93264230D01*
X163896965Y-93288040D01*
X163873156Y-93311849D01*
X163825537Y-93383278D01*
X163801727Y-93478516D01*
X163801727Y-93668992D01*
X163825537Y-93716611D01*
X163849346Y-93740420D01*
X163896965Y-93764230D01*
X163992203Y-93764230D01*
X164039822Y-93740420D01*
X164063632Y-93716611D01*
X164087441Y-93668992D01*
X164087441Y-93549944D01*
X164063632Y-93502325D01*
X164039822Y-93478516D01*
X163992203Y-93454706D01*
X163896965Y-93454706D01*
X163849346Y-93478516D01*
X163825537Y-93502325D01*
X163801727Y-93549944D01*
G04 #@! TO.C,C6*
X160216066Y-117262411D02*
X160192257Y-117286220D01*
X160120828Y-117310030D01*
X160073209Y-117310030D01*
X160001780Y-117286220D01*
X159954161Y-117238601D01*
X159930352Y-117190982D01*
X159906542Y-117095744D01*
X159906542Y-117024316D01*
X159930352Y-116929078D01*
X159954161Y-116881459D01*
X160001780Y-116833840D01*
X160073209Y-116810030D01*
X160120828Y-116810030D01*
X160192257Y-116833840D01*
X160216066Y-116857649D01*
X160644638Y-116810030D02*
X160549400Y-116810030D01*
X160501780Y-116833840D01*
X160477971Y-116857649D01*
X160430352Y-116929078D01*
X160406542Y-117024316D01*
X160406542Y-117214792D01*
X160430352Y-117262411D01*
X160454161Y-117286220D01*
X160501780Y-117310030D01*
X160597019Y-117310030D01*
X160644638Y-117286220D01*
X160668447Y-117262411D01*
X160692257Y-117214792D01*
X160692257Y-117095744D01*
X160668447Y-117048125D01*
X160644638Y-117024316D01*
X160597019Y-117000506D01*
X160501780Y-117000506D01*
X160454161Y-117024316D01*
X160430352Y-117048125D01*
X160406542Y-117095744D01*
G04 #@! TO.C,D4*
X186701952Y-95857190D02*
X186701952Y-95357190D01*
X186821000Y-95357190D01*
X186892428Y-95381000D01*
X186940047Y-95428619D01*
X186963857Y-95476238D01*
X186987666Y-95571476D01*
X186987666Y-95642904D01*
X186963857Y-95738142D01*
X186940047Y-95785761D01*
X186892428Y-95833380D01*
X186821000Y-95857190D01*
X186701952Y-95857190D01*
X187416238Y-95523857D02*
X187416238Y-95857190D01*
X187297190Y-95333380D02*
X187178142Y-95690523D01*
X187487666Y-95690523D01*
G04 #@! TO.C,R8*
X187460106Y-93637230D02*
X187293440Y-93399135D01*
X187174392Y-93637230D02*
X187174392Y-93137230D01*
X187364868Y-93137230D01*
X187412487Y-93161040D01*
X187436297Y-93184849D01*
X187460106Y-93232468D01*
X187460106Y-93303897D01*
X187436297Y-93351516D01*
X187412487Y-93375325D01*
X187364868Y-93399135D01*
X187174392Y-93399135D01*
X187745820Y-93351516D02*
X187698201Y-93327706D01*
X187674392Y-93303897D01*
X187650582Y-93256278D01*
X187650582Y-93232468D01*
X187674392Y-93184849D01*
X187698201Y-93161040D01*
X187745820Y-93137230D01*
X187841059Y-93137230D01*
X187888678Y-93161040D01*
X187912487Y-93184849D01*
X187936297Y-93232468D01*
X187936297Y-93256278D01*
X187912487Y-93303897D01*
X187888678Y-93327706D01*
X187841059Y-93351516D01*
X187745820Y-93351516D01*
X187698201Y-93375325D01*
X187674392Y-93399135D01*
X187650582Y-93446754D01*
X187650582Y-93541992D01*
X187674392Y-93589611D01*
X187698201Y-93613420D01*
X187745820Y-93637230D01*
X187841059Y-93637230D01*
X187888678Y-93613420D01*
X187912487Y-93589611D01*
X187936297Y-93541992D01*
X187936297Y-93446754D01*
X187912487Y-93399135D01*
X187888678Y-93375325D01*
X187841059Y-93351516D01*
G04 #@! TO.C,Q4*
X173251500Y-95666049D02*
X173203881Y-95642240D01*
X173156262Y-95594620D01*
X173084834Y-95523192D01*
X173037215Y-95499382D01*
X172989596Y-95499382D01*
X173013405Y-95618430D02*
X172965786Y-95594620D01*
X172918167Y-95547001D01*
X172894358Y-95451763D01*
X172894358Y-95285097D01*
X172918167Y-95189859D01*
X172965786Y-95142240D01*
X173013405Y-95118430D01*
X173108643Y-95118430D01*
X173156262Y-95142240D01*
X173203881Y-95189859D01*
X173227691Y-95285097D01*
X173227691Y-95451763D01*
X173203881Y-95547001D01*
X173156262Y-95594620D01*
X173108643Y-95618430D01*
X173013405Y-95618430D01*
X173656262Y-95285097D02*
X173656262Y-95618430D01*
X173537215Y-95094620D02*
X173418167Y-95451763D01*
X173727691Y-95451763D01*
G04 #@! TO.C,C11*
X148578451Y-112477051D02*
X148554641Y-112500860D01*
X148483213Y-112524670D01*
X148435594Y-112524670D01*
X148364165Y-112500860D01*
X148316546Y-112453241D01*
X148292737Y-112405622D01*
X148268927Y-112310384D01*
X148268927Y-112238956D01*
X148292737Y-112143718D01*
X148316546Y-112096099D01*
X148364165Y-112048480D01*
X148435594Y-112024670D01*
X148483213Y-112024670D01*
X148554641Y-112048480D01*
X148578451Y-112072289D01*
X149054641Y-112524670D02*
X148768927Y-112524670D01*
X148911784Y-112524670D02*
X148911784Y-112024670D01*
X148864165Y-112096099D01*
X148816546Y-112143718D01*
X148768927Y-112167527D01*
X149530832Y-112524670D02*
X149245118Y-112524670D01*
X149387975Y-112524670D02*
X149387975Y-112024670D01*
X149340356Y-112096099D01*
X149292737Y-112143718D01*
X149245118Y-112167527D01*
G04 #@! TO.C,C12*
X145273531Y-107981868D02*
X145297340Y-108005678D01*
X145321150Y-108077106D01*
X145321150Y-108124725D01*
X145297340Y-108196154D01*
X145249721Y-108243773D01*
X145202102Y-108267582D01*
X145106864Y-108291392D01*
X145035436Y-108291392D01*
X144940198Y-108267582D01*
X144892579Y-108243773D01*
X144844960Y-108196154D01*
X144821150Y-108124725D01*
X144821150Y-108077106D01*
X144844960Y-108005678D01*
X144868769Y-107981868D01*
X145321150Y-107505678D02*
X145321150Y-107791392D01*
X145321150Y-107648535D02*
X144821150Y-107648535D01*
X144892579Y-107696154D01*
X144940198Y-107743773D01*
X144964007Y-107791392D01*
X144868769Y-107315201D02*
X144844960Y-107291392D01*
X144821150Y-107243773D01*
X144821150Y-107124725D01*
X144844960Y-107077106D01*
X144868769Y-107053297D01*
X144916388Y-107029487D01*
X144964007Y-107029487D01*
X145035436Y-107053297D01*
X145321150Y-107339011D01*
X145321150Y-107029487D01*
G04 #@! TO.C,D2*
X162201112Y-126321950D02*
X162201112Y-125821950D01*
X162320160Y-125821950D01*
X162391588Y-125845760D01*
X162439207Y-125893379D01*
X162463017Y-125940998D01*
X162486826Y-126036236D01*
X162486826Y-126107664D01*
X162463017Y-126202902D01*
X162439207Y-126250521D01*
X162391588Y-126298140D01*
X162320160Y-126321950D01*
X162201112Y-126321950D01*
X162677302Y-125869569D02*
X162701112Y-125845760D01*
X162748731Y-125821950D01*
X162867779Y-125821950D01*
X162915398Y-125845760D01*
X162939207Y-125869569D01*
X162963017Y-125917188D01*
X162963017Y-125964807D01*
X162939207Y-126036236D01*
X162653493Y-126321950D01*
X162963017Y-126321950D01*
G04 #@! TO.C,F1*
X133660853Y-87132005D02*
X133494186Y-87132005D01*
X133494186Y-87393910D02*
X133494186Y-86893910D01*
X133732281Y-86893910D01*
X134184662Y-87393910D02*
X133898948Y-87393910D01*
X134041805Y-87393910D02*
X134041805Y-86893910D01*
X133994186Y-86965339D01*
X133946567Y-87012958D01*
X133898948Y-87036767D01*
G04 #@! TO.C,R2*
X172331866Y-123784490D02*
X172165200Y-123546395D01*
X172046152Y-123784490D02*
X172046152Y-123284490D01*
X172236628Y-123284490D01*
X172284247Y-123308300D01*
X172308057Y-123332109D01*
X172331866Y-123379728D01*
X172331866Y-123451157D01*
X172308057Y-123498776D01*
X172284247Y-123522585D01*
X172236628Y-123546395D01*
X172046152Y-123546395D01*
X172522342Y-123332109D02*
X172546152Y-123308300D01*
X172593771Y-123284490D01*
X172712819Y-123284490D01*
X172760438Y-123308300D01*
X172784247Y-123332109D01*
X172808057Y-123379728D01*
X172808057Y-123427347D01*
X172784247Y-123498776D01*
X172498533Y-123784490D01*
X172808057Y-123784490D01*
G04 #@! TO.C,R3*
X164495966Y-126286390D02*
X164329300Y-126048295D01*
X164210252Y-126286390D02*
X164210252Y-125786390D01*
X164400728Y-125786390D01*
X164448347Y-125810200D01*
X164472157Y-125834009D01*
X164495966Y-125881628D01*
X164495966Y-125953057D01*
X164472157Y-126000676D01*
X164448347Y-126024485D01*
X164400728Y-126048295D01*
X164210252Y-126048295D01*
X164662633Y-125786390D02*
X164972157Y-125786390D01*
X164805490Y-125976866D01*
X164876919Y-125976866D01*
X164924538Y-126000676D01*
X164948347Y-126024485D01*
X164972157Y-126072104D01*
X164972157Y-126191152D01*
X164948347Y-126238771D01*
X164924538Y-126262580D01*
X164876919Y-126286390D01*
X164734061Y-126286390D01*
X164686442Y-126262580D01*
X164662633Y-126238771D01*
G04 #@! TO.C,R12*
X172368091Y-104604950D02*
X172201424Y-104366855D01*
X172082377Y-104604950D02*
X172082377Y-104104950D01*
X172272853Y-104104950D01*
X172320472Y-104128760D01*
X172344281Y-104152569D01*
X172368091Y-104200188D01*
X172368091Y-104271617D01*
X172344281Y-104319236D01*
X172320472Y-104343045D01*
X172272853Y-104366855D01*
X172082377Y-104366855D01*
X172844281Y-104604950D02*
X172558567Y-104604950D01*
X172701424Y-104604950D02*
X172701424Y-104104950D01*
X172653805Y-104176379D01*
X172606186Y-104223998D01*
X172558567Y-104247807D01*
X173034758Y-104152569D02*
X173058567Y-104128760D01*
X173106186Y-104104950D01*
X173225234Y-104104950D01*
X173272853Y-104128760D01*
X173296662Y-104152569D01*
X173320472Y-104200188D01*
X173320472Y-104247807D01*
X173296662Y-104319236D01*
X173010948Y-104604950D01*
X173320472Y-104604950D01*
G04 #@! TO.C,R4*
X171493666Y-111732190D02*
X171327000Y-111494095D01*
X171207952Y-111732190D02*
X171207952Y-111232190D01*
X171398428Y-111232190D01*
X171446047Y-111256000D01*
X171469857Y-111279809D01*
X171493666Y-111327428D01*
X171493666Y-111398857D01*
X171469857Y-111446476D01*
X171446047Y-111470285D01*
X171398428Y-111494095D01*
X171207952Y-111494095D01*
X171922238Y-111398857D02*
X171922238Y-111732190D01*
X171803190Y-111208380D02*
X171684142Y-111565523D01*
X171993666Y-111565523D01*
G04 #@! TO.C,R5*
X168069746Y-116746150D02*
X167903080Y-116508055D01*
X167784032Y-116746150D02*
X167784032Y-116246150D01*
X167974508Y-116246150D01*
X168022127Y-116269960D01*
X168045937Y-116293769D01*
X168069746Y-116341388D01*
X168069746Y-116412817D01*
X168045937Y-116460436D01*
X168022127Y-116484245D01*
X167974508Y-116508055D01*
X167784032Y-116508055D01*
X168522127Y-116246150D02*
X168284032Y-116246150D01*
X168260222Y-116484245D01*
X168284032Y-116460436D01*
X168331651Y-116436626D01*
X168450699Y-116436626D01*
X168498318Y-116460436D01*
X168522127Y-116484245D01*
X168545937Y-116531864D01*
X168545937Y-116650912D01*
X168522127Y-116698531D01*
X168498318Y-116722340D01*
X168450699Y-116746150D01*
X168331651Y-116746150D01*
X168284032Y-116722340D01*
X168260222Y-116698531D01*
G04 #@! TO.C,J1*
X180300333Y-130218690D02*
X180300333Y-130575833D01*
X180276523Y-130647261D01*
X180228904Y-130694880D01*
X180157476Y-130718690D01*
X180109857Y-130718690D01*
X180800333Y-130718690D02*
X180514619Y-130718690D01*
X180657476Y-130718690D02*
X180657476Y-130218690D01*
X180609857Y-130290119D01*
X180562238Y-130337738D01*
X180514619Y-130361547D01*
G04 #@! TO.C,J3*
X174803773Y-110292390D02*
X174803773Y-110649533D01*
X174779963Y-110720961D01*
X174732344Y-110768580D01*
X174660916Y-110792390D01*
X174613297Y-110792390D01*
X174994249Y-110292390D02*
X175303773Y-110292390D01*
X175137106Y-110482866D01*
X175208535Y-110482866D01*
X175256154Y-110506676D01*
X175279963Y-110530485D01*
X175303773Y-110578104D01*
X175303773Y-110697152D01*
X175279963Y-110744771D01*
X175256154Y-110768580D01*
X175208535Y-110792390D01*
X175065678Y-110792390D01*
X175018059Y-110768580D01*
X174994249Y-110744771D01*
G04 #@! TO.C,C3*
X148039306Y-99523051D02*
X148015497Y-99546860D01*
X147944068Y-99570670D01*
X147896449Y-99570670D01*
X147825020Y-99546860D01*
X147777401Y-99499241D01*
X147753592Y-99451622D01*
X147729782Y-99356384D01*
X147729782Y-99284956D01*
X147753592Y-99189718D01*
X147777401Y-99142099D01*
X147825020Y-99094480D01*
X147896449Y-99070670D01*
X147944068Y-99070670D01*
X148015497Y-99094480D01*
X148039306Y-99118289D01*
X148205973Y-99070670D02*
X148515497Y-99070670D01*
X148348830Y-99261146D01*
X148420259Y-99261146D01*
X148467878Y-99284956D01*
X148491687Y-99308765D01*
X148515497Y-99356384D01*
X148515497Y-99475432D01*
X148491687Y-99523051D01*
X148467878Y-99546860D01*
X148420259Y-99570670D01*
X148277401Y-99570670D01*
X148229782Y-99546860D01*
X148205973Y-99523051D01*
G04 #@! TO.C,D7*
X186925472Y-102542470D02*
X186925472Y-102042470D01*
X187044520Y-102042470D01*
X187115948Y-102066280D01*
X187163567Y-102113899D01*
X187187377Y-102161518D01*
X187211186Y-102256756D01*
X187211186Y-102328184D01*
X187187377Y-102423422D01*
X187163567Y-102471041D01*
X187115948Y-102518660D01*
X187044520Y-102542470D01*
X186925472Y-102542470D01*
X187377853Y-102042470D02*
X187711186Y-102042470D01*
X187496900Y-102542470D01*
G04 #@! TO.C,R9*
X176030106Y-91341070D02*
X175863440Y-91102975D01*
X175744392Y-91341070D02*
X175744392Y-90841070D01*
X175934868Y-90841070D01*
X175982487Y-90864880D01*
X176006297Y-90888689D01*
X176030106Y-90936308D01*
X176030106Y-91007737D01*
X176006297Y-91055356D01*
X175982487Y-91079165D01*
X175934868Y-91102975D01*
X175744392Y-91102975D01*
X176268201Y-91341070D02*
X176363440Y-91341070D01*
X176411059Y-91317260D01*
X176434868Y-91293451D01*
X176482487Y-91222022D01*
X176506297Y-91126784D01*
X176506297Y-90936308D01*
X176482487Y-90888689D01*
X176458678Y-90864880D01*
X176411059Y-90841070D01*
X176315820Y-90841070D01*
X176268201Y-90864880D01*
X176244392Y-90888689D01*
X176220582Y-90936308D01*
X176220582Y-91055356D01*
X176244392Y-91102975D01*
X176268201Y-91126784D01*
X176315820Y-91150594D01*
X176411059Y-91150594D01*
X176458678Y-91126784D01*
X176482487Y-91102975D01*
X176506297Y-91055356D01*
G04 #@! TO.C,J2*
X149401233Y-85679790D02*
X149401233Y-86036933D01*
X149377423Y-86108361D01*
X149329804Y-86155980D01*
X149258376Y-86179790D01*
X149210757Y-86179790D01*
X149615519Y-85727409D02*
X149639328Y-85703600D01*
X149686947Y-85679790D01*
X149805995Y-85679790D01*
X149853614Y-85703600D01*
X149877423Y-85727409D01*
X149901233Y-85775028D01*
X149901233Y-85822647D01*
X149877423Y-85894076D01*
X149591709Y-86179790D01*
X149901233Y-86179790D01*
D10*
X178689095Y-83875619D02*
X178736714Y-83828000D01*
X178831952Y-83780380D01*
X179070047Y-83780380D01*
X179165285Y-83828000D01*
X179212904Y-83875619D01*
X179260523Y-83970857D01*
X179260523Y-84066095D01*
X179212904Y-84208952D01*
X178641476Y-84780380D01*
X179260523Y-84780380D01*
X179879571Y-83780380D02*
X179974809Y-83780380D01*
X180070047Y-83828000D01*
X180117666Y-83875619D01*
X180165285Y-83970857D01*
X180212904Y-84161333D01*
X180212904Y-84399428D01*
X180165285Y-84589904D01*
X180117666Y-84685142D01*
X180070047Y-84732761D01*
X179974809Y-84780380D01*
X179879571Y-84780380D01*
X179784333Y-84732761D01*
X179736714Y-84685142D01*
X179689095Y-84589904D01*
X179641476Y-84399428D01*
X179641476Y-84161333D01*
X179689095Y-83970857D01*
X179736714Y-83875619D01*
X179784333Y-83828000D01*
X179879571Y-83780380D01*
X150221914Y-87879180D02*
X149650485Y-87879180D01*
X149936200Y-87879180D02*
X149936200Y-86879180D01*
X149840961Y-87022038D01*
X149745723Y-87117276D01*
X149650485Y-87164895D01*
G04 #@! TO.C,C13*
D13*
X136648571Y-111498571D02*
X136624761Y-111522380D01*
X136553333Y-111546190D01*
X136505714Y-111546190D01*
X136434285Y-111522380D01*
X136386666Y-111474761D01*
X136362857Y-111427142D01*
X136339047Y-111331904D01*
X136339047Y-111260476D01*
X136362857Y-111165238D01*
X136386666Y-111117619D01*
X136434285Y-111070000D01*
X136505714Y-111046190D01*
X136553333Y-111046190D01*
X136624761Y-111070000D01*
X136648571Y-111093809D01*
X137124761Y-111546190D02*
X136839047Y-111546190D01*
X136981904Y-111546190D02*
X136981904Y-111046190D01*
X136934285Y-111117619D01*
X136886666Y-111165238D01*
X136839047Y-111189047D01*
X137291428Y-111046190D02*
X137600952Y-111046190D01*
X137434285Y-111236666D01*
X137505714Y-111236666D01*
X137553333Y-111260476D01*
X137577142Y-111284285D01*
X137600952Y-111331904D01*
X137600952Y-111450952D01*
X137577142Y-111498571D01*
X137553333Y-111522380D01*
X137505714Y-111546190D01*
X137362857Y-111546190D01*
X137315238Y-111522380D01*
X137291428Y-111498571D01*
G04 #@! TO.C,C5*
X134896666Y-111518571D02*
X134872857Y-111542380D01*
X134801428Y-111566190D01*
X134753809Y-111566190D01*
X134682380Y-111542380D01*
X134634761Y-111494761D01*
X134610952Y-111447142D01*
X134587142Y-111351904D01*
X134587142Y-111280476D01*
X134610952Y-111185238D01*
X134634761Y-111137619D01*
X134682380Y-111090000D01*
X134753809Y-111066190D01*
X134801428Y-111066190D01*
X134872857Y-111090000D01*
X134896666Y-111113809D01*
X135349047Y-111066190D02*
X135110952Y-111066190D01*
X135087142Y-111304285D01*
X135110952Y-111280476D01*
X135158571Y-111256666D01*
X135277619Y-111256666D01*
X135325238Y-111280476D01*
X135349047Y-111304285D01*
X135372857Y-111351904D01*
X135372857Y-111470952D01*
X135349047Y-111518571D01*
X135325238Y-111542380D01*
X135277619Y-111566190D01*
X135158571Y-111566190D01*
X135110952Y-111542380D01*
X135087142Y-111518571D01*
G04 #@! TO.C,C7*
X125406666Y-114968571D02*
X125382857Y-114992380D01*
X125311428Y-115016190D01*
X125263809Y-115016190D01*
X125192380Y-114992380D01*
X125144761Y-114944761D01*
X125120952Y-114897142D01*
X125097142Y-114801904D01*
X125097142Y-114730476D01*
X125120952Y-114635238D01*
X125144761Y-114587619D01*
X125192380Y-114540000D01*
X125263809Y-114516190D01*
X125311428Y-114516190D01*
X125382857Y-114540000D01*
X125406666Y-114563809D01*
X125573333Y-114516190D02*
X125906666Y-114516190D01*
X125692380Y-115016190D01*
G04 #@! TO.C,C10*
X124678571Y-110428571D02*
X124654761Y-110452380D01*
X124583333Y-110476190D01*
X124535714Y-110476190D01*
X124464285Y-110452380D01*
X124416666Y-110404761D01*
X124392857Y-110357142D01*
X124369047Y-110261904D01*
X124369047Y-110190476D01*
X124392857Y-110095238D01*
X124416666Y-110047619D01*
X124464285Y-110000000D01*
X124535714Y-109976190D01*
X124583333Y-109976190D01*
X124654761Y-110000000D01*
X124678571Y-110023809D01*
X125154761Y-110476190D02*
X124869047Y-110476190D01*
X125011904Y-110476190D02*
X125011904Y-109976190D01*
X124964285Y-110047619D01*
X124916666Y-110095238D01*
X124869047Y-110119047D01*
X125464285Y-109976190D02*
X125511904Y-109976190D01*
X125559523Y-110000000D01*
X125583333Y-110023809D01*
X125607142Y-110071428D01*
X125630952Y-110166666D01*
X125630952Y-110285714D01*
X125607142Y-110380952D01*
X125583333Y-110428571D01*
X125559523Y-110452380D01*
X125511904Y-110476190D01*
X125464285Y-110476190D01*
X125416666Y-110452380D01*
X125392857Y-110428571D01*
X125369047Y-110380952D01*
X125345238Y-110285714D01*
X125345238Y-110166666D01*
X125369047Y-110071428D01*
X125392857Y-110023809D01*
X125416666Y-110000000D01*
X125464285Y-109976190D01*
G04 #@! TO.C,R26*
X128348571Y-119466190D02*
X128181904Y-119228095D01*
X128062857Y-119466190D02*
X128062857Y-118966190D01*
X128253333Y-118966190D01*
X128300952Y-118990000D01*
X128324761Y-119013809D01*
X128348571Y-119061428D01*
X128348571Y-119132857D01*
X128324761Y-119180476D01*
X128300952Y-119204285D01*
X128253333Y-119228095D01*
X128062857Y-119228095D01*
X128539047Y-119013809D02*
X128562857Y-118990000D01*
X128610476Y-118966190D01*
X128729523Y-118966190D01*
X128777142Y-118990000D01*
X128800952Y-119013809D01*
X128824761Y-119061428D01*
X128824761Y-119109047D01*
X128800952Y-119180476D01*
X128515238Y-119466190D01*
X128824761Y-119466190D01*
X129253333Y-118966190D02*
X129158095Y-118966190D01*
X129110476Y-118990000D01*
X129086666Y-119013809D01*
X129039047Y-119085238D01*
X129015238Y-119180476D01*
X129015238Y-119370952D01*
X129039047Y-119418571D01*
X129062857Y-119442380D01*
X129110476Y-119466190D01*
X129205714Y-119466190D01*
X129253333Y-119442380D01*
X129277142Y-119418571D01*
X129300952Y-119370952D01*
X129300952Y-119251904D01*
X129277142Y-119204285D01*
X129253333Y-119180476D01*
X129205714Y-119156666D01*
X129110476Y-119156666D01*
X129062857Y-119180476D01*
X129039047Y-119204285D01*
X129015238Y-119251904D01*
G04 #@! TO.C,R28*
X131548571Y-119426190D02*
X131381904Y-119188095D01*
X131262857Y-119426190D02*
X131262857Y-118926190D01*
X131453333Y-118926190D01*
X131500952Y-118950000D01*
X131524761Y-118973809D01*
X131548571Y-119021428D01*
X131548571Y-119092857D01*
X131524761Y-119140476D01*
X131500952Y-119164285D01*
X131453333Y-119188095D01*
X131262857Y-119188095D01*
X131739047Y-118973809D02*
X131762857Y-118950000D01*
X131810476Y-118926190D01*
X131929523Y-118926190D01*
X131977142Y-118950000D01*
X132000952Y-118973809D01*
X132024761Y-119021428D01*
X132024761Y-119069047D01*
X132000952Y-119140476D01*
X131715238Y-119426190D01*
X132024761Y-119426190D01*
X132310476Y-119140476D02*
X132262857Y-119116666D01*
X132239047Y-119092857D01*
X132215238Y-119045238D01*
X132215238Y-119021428D01*
X132239047Y-118973809D01*
X132262857Y-118950000D01*
X132310476Y-118926190D01*
X132405714Y-118926190D01*
X132453333Y-118950000D01*
X132477142Y-118973809D01*
X132500952Y-119021428D01*
X132500952Y-119045238D01*
X132477142Y-119092857D01*
X132453333Y-119116666D01*
X132405714Y-119140476D01*
X132310476Y-119140476D01*
X132262857Y-119164285D01*
X132239047Y-119188095D01*
X132215238Y-119235714D01*
X132215238Y-119330952D01*
X132239047Y-119378571D01*
X132262857Y-119402380D01*
X132310476Y-119426190D01*
X132405714Y-119426190D01*
X132453333Y-119402380D01*
X132477142Y-119378571D01*
X132500952Y-119330952D01*
X132500952Y-119235714D01*
X132477142Y-119188095D01*
X132453333Y-119164285D01*
X132405714Y-119140476D01*
G04 #@! TO.C,L1*
X124746666Y-112706190D02*
X124508571Y-112706190D01*
X124508571Y-112206190D01*
X125175238Y-112706190D02*
X124889523Y-112706190D01*
X125032380Y-112706190D02*
X125032380Y-112206190D01*
X124984761Y-112277619D01*
X124937142Y-112325238D01*
X124889523Y-112349047D01*
G04 #@! TO.C,U2*
X131835047Y-113862190D02*
X131835047Y-114266952D01*
X131858857Y-114314571D01*
X131882666Y-114338380D01*
X131930285Y-114362190D01*
X132025523Y-114362190D01*
X132073142Y-114338380D01*
X132096952Y-114314571D01*
X132120761Y-114266952D01*
X132120761Y-113862190D01*
X132335047Y-113909809D02*
X132358857Y-113886000D01*
X132406476Y-113862190D01*
X132525523Y-113862190D01*
X132573142Y-113886000D01*
X132596952Y-113909809D01*
X132620761Y-113957428D01*
X132620761Y-114005047D01*
X132596952Y-114076476D01*
X132311238Y-114362190D01*
X132620761Y-114362190D01*
G04 #@! TO.C,C9*
X124766666Y-105418571D02*
X124742857Y-105442380D01*
X124671428Y-105466190D01*
X124623809Y-105466190D01*
X124552380Y-105442380D01*
X124504761Y-105394761D01*
X124480952Y-105347142D01*
X124457142Y-105251904D01*
X124457142Y-105180476D01*
X124480952Y-105085238D01*
X124504761Y-105037619D01*
X124552380Y-104990000D01*
X124623809Y-104966190D01*
X124671428Y-104966190D01*
X124742857Y-104990000D01*
X124766666Y-105013809D01*
X125004761Y-105466190D02*
X125100000Y-105466190D01*
X125147619Y-105442380D01*
X125171428Y-105418571D01*
X125219047Y-105347142D01*
X125242857Y-105251904D01*
X125242857Y-105061428D01*
X125219047Y-105013809D01*
X125195238Y-104990000D01*
X125147619Y-104966190D01*
X125052380Y-104966190D01*
X125004761Y-104990000D01*
X124980952Y-105013809D01*
X124957142Y-105061428D01*
X124957142Y-105180476D01*
X124980952Y-105228095D01*
X125004761Y-105251904D01*
X125052380Y-105275714D01*
X125147619Y-105275714D01*
X125195238Y-105251904D01*
X125219047Y-105228095D01*
X125242857Y-105180476D01*
G04 #@! TD*
M02*
