G04 #@! TF.GenerationSoftware,KiCad,Pcbnew,5.0.0-fee4fd1~66~ubuntu16.04.1*
G04 #@! TF.CreationDate,2019-04-14T05:53:46-04:00*
G04 #@! TF.ProjectId,AIR_Control_Board,4149525F436F6E74726F6C5F426F6172,rev?*
G04 #@! TF.SameCoordinates,Original*
G04 #@! TF.FileFunction,Soldermask,Top*
G04 #@! TF.FilePolarity,Negative*
%FSLAX46Y46*%
G04 Gerber Fmt 4.6, Leading zero omitted, Abs format (unit mm)*
G04 Created by KiCad (PCBNEW 5.0.0-fee4fd1~66~ubuntu16.04.1) date Sun Apr 14 05:53:46 2019*
%MOMM*%
%LPD*%
G01*
G04 APERTURE LIST*
%ADD10R,1.400000X3.600000*%
%ADD11R,1.400000X2.000000*%
%ADD12C,1.771600*%
%ADD13R,1.771600X1.771600*%
%ADD14R,1.700000X1.100000*%
%ADD15R,1.950000X1.000000*%
%ADD16R,1.600000X1.600000*%
%ADD17C,1.800000*%
%ADD18R,1.800000X1.800000*%
%ADD19R,1.400000X1.650000*%
%ADD20R,1.100000X1.700000*%
%ADD21R,1.300000X1.200000*%
%ADD22R,1.200000X1.300000*%
%ADD23R,2.559000X2.178000*%
%ADD24R,2.000000X0.950000*%
%ADD25R,0.950000X2.000000*%
%ADD26R,1.600000X1.800000*%
%ADD27R,1.650000X1.400000*%
%ADD28R,2.900000X1.300000*%
%ADD29C,3.500000*%
%ADD30C,1.820000*%
%ADD31C,3.600000*%
%ADD32C,1.700000*%
%ADD33C,2.400000*%
%ADD34C,0.100000*%
%ADD35C,1.275000*%
%ADD36R,1.600000X2.400000*%
%ADD37R,1.050000X1.460000*%
%ADD38R,2.300000X3.800000*%
G04 APERTURE END LIST*
D10*
G04 #@! TO.C,R30*
X129880000Y-100910000D03*
X136080000Y-100910000D03*
G04 #@! TD*
D11*
G04 #@! TO.C,C8*
X130540000Y-108260000D03*
X127540000Y-108260000D03*
G04 #@! TD*
D12*
G04 #@! TO.C,C1*
X170688000Y-134366000D03*
D13*
X170688000Y-129362200D03*
G04 #@! TD*
D12*
G04 #@! TO.C,C2*
X159689800Y-134315200D03*
D13*
X159689800Y-129311400D03*
G04 #@! TD*
D14*
G04 #@! TO.C,R33*
X158267400Y-98442700D03*
X158267400Y-100342700D03*
G04 #@! TD*
D15*
G04 #@! TO.C,U1*
X140777465Y-99635642D03*
X140777465Y-98365642D03*
X140777465Y-97095642D03*
X140777465Y-95825642D03*
X146177465Y-95825642D03*
X146177465Y-97095642D03*
X146177465Y-98365642D03*
X146177465Y-99635642D03*
G04 #@! TD*
D16*
G04 #@! TO.C,D1*
X166306500Y-120307100D03*
X168506500Y-120307100D03*
G04 #@! TD*
G04 #@! TO.C,D14*
X126044600Y-97840800D03*
X128244600Y-97840800D03*
G04 #@! TD*
D14*
G04 #@! TO.C,R13*
X179959000Y-96708000D03*
X179959000Y-94808000D03*
G04 #@! TD*
D17*
G04 #@! TO.C,J4*
X143408400Y-120243600D03*
X143408400Y-117703600D03*
X145948400Y-120243600D03*
X145948400Y-117703600D03*
X148488400Y-120243600D03*
D18*
X148488400Y-117703600D03*
G04 #@! TD*
D19*
G04 #@! TO.C,C4*
X158556200Y-103149400D03*
X156556200Y-103149400D03*
G04 #@! TD*
D20*
G04 #@! TO.C,R10*
X181803000Y-92837000D03*
X183703000Y-92837000D03*
G04 #@! TD*
G04 #@! TO.C,R15*
X181925000Y-102362000D03*
X180025000Y-102362000D03*
G04 #@! TD*
D14*
G04 #@! TO.C,R16*
X150177500Y-94292500D03*
X150177500Y-92392500D03*
G04 #@! TD*
G04 #@! TO.C,R14*
X170561000Y-96388000D03*
X170561000Y-94488000D03*
G04 #@! TD*
D21*
G04 #@! TO.C,Q2*
X173579500Y-108775500D03*
X171479500Y-109725500D03*
X171479500Y-107825500D03*
G04 #@! TD*
D20*
G04 #@! TO.C,R22*
X133009600Y-90170000D03*
X134909600Y-90170000D03*
G04 #@! TD*
D14*
G04 #@! TO.C,R29*
X137109200Y-127807800D03*
X137109200Y-125907800D03*
G04 #@! TD*
G04 #@! TO.C,R31*
X161848800Y-103515200D03*
X161848800Y-101615200D03*
G04 #@! TD*
D16*
G04 #@! TO.C,D3*
X167980000Y-113030000D03*
X170180000Y-113030000D03*
G04 #@! TD*
G04 #@! TO.C,D9*
X160972500Y-98044000D03*
X160972500Y-95844000D03*
G04 #@! TD*
D20*
G04 #@! TO.C,R23*
X156580800Y-117919500D03*
X158480800Y-117919500D03*
G04 #@! TD*
G04 #@! TO.C,R19*
X164589500Y-96266000D03*
X162689500Y-96266000D03*
G04 #@! TD*
D22*
G04 #@! TO.C,Q5*
X153035000Y-92422000D03*
X153985000Y-94522000D03*
X152085000Y-94522000D03*
G04 #@! TD*
D14*
G04 #@! TO.C,R21*
X166497000Y-94295000D03*
X166497000Y-92395000D03*
G04 #@! TD*
D20*
G04 #@! TO.C,R24*
X144033200Y-94132400D03*
X145933200Y-94132400D03*
G04 #@! TD*
D23*
G04 #@! TO.C,D10*
X140004800Y-86207600D03*
X140004800Y-90271600D03*
G04 #@! TD*
D16*
G04 #@! TO.C,D11*
X126120000Y-92100400D03*
X128320000Y-92100400D03*
G04 #@! TD*
D21*
G04 #@! TO.C,Q1*
X173579500Y-115824000D03*
X171479500Y-116774000D03*
X171479500Y-114874000D03*
G04 #@! TD*
D16*
G04 #@! TO.C,D12*
X134772400Y-131681400D03*
X134772400Y-129481400D03*
G04 #@! TD*
G04 #@! TO.C,D8*
X150241000Y-98085000D03*
X150241000Y-95885000D03*
G04 #@! TD*
D14*
G04 #@! TO.C,R34*
X156337000Y-98427500D03*
X156337000Y-100327500D03*
G04 #@! TD*
D20*
G04 #@! TO.C,R11*
X172532000Y-92710000D03*
X174432000Y-92710000D03*
G04 #@! TD*
D14*
G04 #@! TO.C,R6*
X166611300Y-124736900D03*
X166611300Y-122836900D03*
G04 #@! TD*
G04 #@! TO.C,R1*
X170345100Y-121942900D03*
X170345100Y-120042900D03*
G04 #@! TD*
G04 #@! TO.C,R7*
X169799000Y-109537500D03*
X169799000Y-107637500D03*
G04 #@! TD*
G04 #@! TO.C,R27*
X134772400Y-127807800D03*
X134772400Y-125907800D03*
G04 #@! TD*
D16*
G04 #@! TO.C,D5*
X176149000Y-98085000D03*
X176149000Y-95885000D03*
G04 #@! TD*
D14*
G04 #@! TO.C,R17*
X160972500Y-94229000D03*
X160972500Y-92329000D03*
G04 #@! TD*
D20*
G04 #@! TO.C,R18*
X153794500Y-96202500D03*
X151894500Y-96202500D03*
G04 #@! TD*
D24*
G04 #@! TO.C,IC1*
X161666500Y-106864500D03*
X161666500Y-107664500D03*
X161666500Y-108464500D03*
X161666500Y-109264500D03*
X161666500Y-110064500D03*
X161666500Y-110864500D03*
X161666500Y-111664500D03*
X161666500Y-112464500D03*
D25*
X160216500Y-113914500D03*
X159416500Y-113914500D03*
X158616500Y-113914500D03*
X157816500Y-113914500D03*
X157016500Y-113914500D03*
X156216500Y-113914500D03*
X155416500Y-113914500D03*
X154616500Y-113914500D03*
D24*
X153166500Y-112464500D03*
X153166500Y-111664500D03*
X153166500Y-110864500D03*
X153166500Y-110064500D03*
X153166500Y-109264500D03*
X153166500Y-108464500D03*
X153166500Y-107664500D03*
X153166500Y-106864500D03*
D25*
X154616500Y-105414500D03*
X155416500Y-105414500D03*
X156216500Y-105414500D03*
X157016500Y-105414500D03*
X157816500Y-105414500D03*
X158616500Y-105414500D03*
X159416500Y-105414500D03*
X160216500Y-105414500D03*
G04 #@! TD*
D16*
G04 #@! TO.C,D13*
X137058400Y-131663800D03*
X137058400Y-129463800D03*
G04 #@! TD*
G04 #@! TO.C,D6*
X167916500Y-106045000D03*
X170116500Y-106045000D03*
G04 #@! TD*
D22*
G04 #@! TO.C,Q3*
X182753000Y-96681000D03*
X181803000Y-94581000D03*
X183703000Y-94581000D03*
G04 #@! TD*
D26*
G04 #@! TO.C,Y1*
X148412400Y-108762800D03*
X148412400Y-106562800D03*
X150012400Y-106562800D03*
X150012400Y-108762800D03*
G04 #@! TD*
D20*
G04 #@! TO.C,R32*
X129844800Y-97790000D03*
X131744800Y-97790000D03*
G04 #@! TD*
D14*
G04 #@! TO.C,R20*
X155829000Y-94295000D03*
X155829000Y-92395000D03*
G04 #@! TD*
D22*
G04 #@! TO.C,Q6*
X163766500Y-92422000D03*
X164716500Y-94522000D03*
X162816500Y-94522000D03*
G04 #@! TD*
D19*
G04 #@! TO.C,C6*
X158543500Y-116001800D03*
X156543500Y-116001800D03*
G04 #@! TD*
D16*
G04 #@! TO.C,D4*
X185547000Y-98171000D03*
X185547000Y-95971000D03*
G04 #@! TD*
D14*
G04 #@! TO.C,R8*
X185547000Y-94422000D03*
X185547000Y-92522000D03*
G04 #@! TD*
D22*
G04 #@! TO.C,Q4*
X173355000Y-96427000D03*
X172405000Y-94327000D03*
X174305000Y-94327000D03*
G04 #@! TD*
D19*
G04 #@! TO.C,C11*
X148012400Y-110642400D03*
X150012400Y-110642400D03*
G04 #@! TD*
D27*
G04 #@! TO.C,C12*
X146608800Y-108661200D03*
X146608800Y-106661200D03*
G04 #@! TD*
D16*
G04 #@! TO.C,D2*
X162560000Y-124485400D03*
X162560000Y-122285400D03*
G04 #@! TD*
D28*
G04 #@! TO.C,F1*
X136194800Y-88470400D03*
X136194800Y-85570400D03*
G04 #@! TD*
D14*
G04 #@! TO.C,R2*
X172364400Y-121930200D03*
X172364400Y-120030200D03*
G04 #@! TD*
G04 #@! TO.C,R3*
X164579300Y-124734400D03*
X164579300Y-122834400D03*
G04 #@! TD*
D20*
G04 #@! TO.C,R12*
X171704000Y-105981500D03*
X173604000Y-105981500D03*
G04 #@! TD*
G04 #@! TO.C,R4*
X171770000Y-112966500D03*
X173670000Y-112966500D03*
G04 #@! TD*
D14*
G04 #@! TO.C,R5*
X169735500Y-116583500D03*
X169735500Y-114683500D03*
G04 #@! TD*
D29*
G04 #@! TO.C,J1*
X183896000Y-116292000D03*
D30*
X179576000Y-114132000D03*
X179576000Y-117132000D03*
D29*
X183896000Y-123992000D03*
D30*
X179576000Y-120132000D03*
X179576000Y-123152000D03*
X179576000Y-126152000D03*
X176576000Y-114132000D03*
X176576000Y-117132000D03*
X176576000Y-120132000D03*
X176576000Y-123152000D03*
X176576000Y-126152000D03*
G04 #@! TD*
G04 #@! TO.C,J3*
X176576000Y-106934000D03*
X179576000Y-106934000D03*
D31*
X183896000Y-106934000D03*
G04 #@! TD*
D27*
G04 #@! TO.C,C3*
X148209000Y-97859600D03*
X148209000Y-95859600D03*
G04 #@! TD*
D16*
G04 #@! TO.C,D7*
X185801000Y-102362000D03*
X183601000Y-102362000D03*
G04 #@! TD*
D14*
G04 #@! TO.C,R9*
X176149000Y-94295000D03*
X176149000Y-92395000D03*
G04 #@! TD*
D32*
G04 #@! TO.C,J2*
X158496000Y-87376000D03*
X155956000Y-87376000D03*
X153416000Y-87376000D03*
X161036000Y-87376000D03*
X154686000Y-84836000D03*
X157226000Y-84836000D03*
X159766000Y-84836000D03*
X162306000Y-84836000D03*
X163576000Y-87376000D03*
X164846000Y-84836000D03*
X166116000Y-87376000D03*
X167386000Y-84836000D03*
X168656000Y-87376000D03*
X169926000Y-84836000D03*
X171196000Y-87376000D03*
X172466000Y-84836000D03*
X173736000Y-87376000D03*
X175006000Y-84836000D03*
X176276000Y-87376000D03*
X177546000Y-84836000D03*
D33*
X152016000Y-85576000D03*
G04 #@! TD*
D34*
G04 #@! TO.C,C13*
G36*
X137127493Y-112359035D02*
X137158435Y-112363625D01*
X137188778Y-112371225D01*
X137218230Y-112381763D01*
X137246508Y-112395138D01*
X137273338Y-112411219D01*
X137298463Y-112429853D01*
X137321640Y-112450860D01*
X137342647Y-112474037D01*
X137361281Y-112499162D01*
X137377362Y-112525992D01*
X137390737Y-112554270D01*
X137401275Y-112583722D01*
X137408875Y-112614065D01*
X137413465Y-112645007D01*
X137415000Y-112676250D01*
X137415000Y-113313750D01*
X137413465Y-113344993D01*
X137408875Y-113375935D01*
X137401275Y-113406278D01*
X137390737Y-113435730D01*
X137377362Y-113464008D01*
X137361281Y-113490838D01*
X137342647Y-113515963D01*
X137321640Y-113539140D01*
X137298463Y-113560147D01*
X137273338Y-113578781D01*
X137246508Y-113594862D01*
X137218230Y-113608237D01*
X137188778Y-113618775D01*
X137158435Y-113626375D01*
X137127493Y-113630965D01*
X137096250Y-113632500D01*
X136383750Y-113632500D01*
X136352507Y-113630965D01*
X136321565Y-113626375D01*
X136291222Y-113618775D01*
X136261770Y-113608237D01*
X136233492Y-113594862D01*
X136206662Y-113578781D01*
X136181537Y-113560147D01*
X136158360Y-113539140D01*
X136137353Y-113515963D01*
X136118719Y-113490838D01*
X136102638Y-113464008D01*
X136089263Y-113435730D01*
X136078725Y-113406278D01*
X136071125Y-113375935D01*
X136066535Y-113344993D01*
X136065000Y-113313750D01*
X136065000Y-112676250D01*
X136066535Y-112645007D01*
X136071125Y-112614065D01*
X136078725Y-112583722D01*
X136089263Y-112554270D01*
X136102638Y-112525992D01*
X136118719Y-112499162D01*
X136137353Y-112474037D01*
X136158360Y-112450860D01*
X136181537Y-112429853D01*
X136206662Y-112411219D01*
X136233492Y-112395138D01*
X136261770Y-112381763D01*
X136291222Y-112371225D01*
X136321565Y-112363625D01*
X136352507Y-112359035D01*
X136383750Y-112357500D01*
X137096250Y-112357500D01*
X137127493Y-112359035D01*
X137127493Y-112359035D01*
G37*
D35*
X136740000Y-112995000D03*
D34*
G36*
X137127493Y-113934035D02*
X137158435Y-113938625D01*
X137188778Y-113946225D01*
X137218230Y-113956763D01*
X137246508Y-113970138D01*
X137273338Y-113986219D01*
X137298463Y-114004853D01*
X137321640Y-114025860D01*
X137342647Y-114049037D01*
X137361281Y-114074162D01*
X137377362Y-114100992D01*
X137390737Y-114129270D01*
X137401275Y-114158722D01*
X137408875Y-114189065D01*
X137413465Y-114220007D01*
X137415000Y-114251250D01*
X137415000Y-114888750D01*
X137413465Y-114919993D01*
X137408875Y-114950935D01*
X137401275Y-114981278D01*
X137390737Y-115010730D01*
X137377362Y-115039008D01*
X137361281Y-115065838D01*
X137342647Y-115090963D01*
X137321640Y-115114140D01*
X137298463Y-115135147D01*
X137273338Y-115153781D01*
X137246508Y-115169862D01*
X137218230Y-115183237D01*
X137188778Y-115193775D01*
X137158435Y-115201375D01*
X137127493Y-115205965D01*
X137096250Y-115207500D01*
X136383750Y-115207500D01*
X136352507Y-115205965D01*
X136321565Y-115201375D01*
X136291222Y-115193775D01*
X136261770Y-115183237D01*
X136233492Y-115169862D01*
X136206662Y-115153781D01*
X136181537Y-115135147D01*
X136158360Y-115114140D01*
X136137353Y-115090963D01*
X136118719Y-115065838D01*
X136102638Y-115039008D01*
X136089263Y-115010730D01*
X136078725Y-114981278D01*
X136071125Y-114950935D01*
X136066535Y-114919993D01*
X136065000Y-114888750D01*
X136065000Y-114251250D01*
X136066535Y-114220007D01*
X136071125Y-114189065D01*
X136078725Y-114158722D01*
X136089263Y-114129270D01*
X136102638Y-114100992D01*
X136118719Y-114074162D01*
X136137353Y-114049037D01*
X136158360Y-114025860D01*
X136181537Y-114004853D01*
X136206662Y-113986219D01*
X136233492Y-113970138D01*
X136261770Y-113956763D01*
X136291222Y-113946225D01*
X136321565Y-113938625D01*
X136352507Y-113934035D01*
X136383750Y-113932500D01*
X137096250Y-113932500D01*
X137127493Y-113934035D01*
X137127493Y-113934035D01*
G37*
D35*
X136740000Y-114570000D03*
G04 #@! TD*
D27*
G04 #@! TO.C,C5*
X135010000Y-112898000D03*
X135010000Y-114898000D03*
G04 #@! TD*
D19*
G04 #@! TO.C,C7*
X129422000Y-114898000D03*
X127422000Y-114898000D03*
G04 #@! TD*
G04 #@! TO.C,C10*
X129540000Y-110340000D03*
X127540000Y-110340000D03*
G04 #@! TD*
D20*
G04 #@! TO.C,R26*
X127620000Y-117390000D03*
X129520000Y-117390000D03*
G04 #@! TD*
G04 #@! TO.C,R28*
X132860000Y-117360000D03*
X130960000Y-117360000D03*
G04 #@! TD*
D36*
G04 #@! TO.C,L1*
X126298000Y-112612000D03*
X129498000Y-112612000D03*
G04 #@! TD*
D37*
G04 #@! TO.C,U2*
X131266000Y-115152000D03*
X132216000Y-115152000D03*
X133166000Y-115152000D03*
X133166000Y-112952000D03*
X131266000Y-112952000D03*
X132216000Y-112952000D03*
G04 #@! TD*
D38*
G04 #@! TO.C,C9*
X131620000Y-105150000D03*
X127120000Y-105150000D03*
G04 #@! TD*
M02*
