G04 #@! TF.GenerationSoftware,KiCad,Pcbnew,5.0.2-bee76a0~70~ubuntu18.04.1*
G04 #@! TF.CreationDate,2019-03-14T11:27:35-04:00*
G04 #@! TF.ProjectId,Backpack,4261636b-7061-4636-9b2e-6b696361645f,rev?*
G04 #@! TF.SameCoordinates,Original*
G04 #@! TF.FileFunction,Copper,L2,Bot*
G04 #@! TF.FilePolarity,Positive*
%FSLAX46Y46*%
G04 Gerber Fmt 4.6, Leading zero omitted, Abs format (unit mm)*
G04 Created by KiCad (PCBNEW 5.0.2-bee76a0~70~ubuntu18.04.1) date Thu 14 Mar 2019 11:27:35 AM EDT*
%MOMM*%
%LPD*%
G01*
G04 APERTURE LIST*
G04 #@! TA.AperFunction,SMDPad,CuDef*
%ADD10R,1.000000X1.250000*%
G04 #@! TD*
G04 #@! TA.AperFunction,SMDPad,CuDef*
%ADD11R,1.200000X1.200000*%
G04 #@! TD*
G04 #@! TA.AperFunction,ComponentPad*
%ADD12R,1.600000X1.600000*%
G04 #@! TD*
G04 #@! TA.AperFunction,ComponentPad*
%ADD13O,1.600000X1.600000*%
G04 #@! TD*
G04 #@! TA.AperFunction,SMDPad,CuDef*
%ADD14R,1.300000X0.700000*%
G04 #@! TD*
G04 #@! TA.AperFunction,SMDPad,CuDef*
%ADD15R,0.700000X1.300000*%
G04 #@! TD*
G04 #@! TA.AperFunction,ComponentPad*
%ADD16C,1.397000*%
G04 #@! TD*
G04 #@! TA.AperFunction,ComponentPad*
%ADD17C,1.981000*%
G04 #@! TD*
G04 #@! TA.AperFunction,ComponentPad*
%ADD18C,1.676400*%
G04 #@! TD*
G04 #@! TA.AperFunction,SMDPad,CuDef*
%ADD19R,1.270000X0.508000*%
G04 #@! TD*
G04 #@! TA.AperFunction,ViaPad*
%ADD20C,0.800000*%
G04 #@! TD*
G04 #@! TA.AperFunction,Conductor*
%ADD21C,0.152400*%
G04 #@! TD*
G04 APERTURE END LIST*
D10*
G04 #@! TO.P,C1,1*
G04 #@! TO.N,+5V*
X106023498Y-24232875D03*
G04 #@! TO.P,C1,2*
G04 #@! TO.N,GND*
X108023498Y-24232875D03*
G04 #@! TD*
D11*
G04 #@! TO.P,D1,2*
G04 #@! TO.N,Net-(D1-Pad2)*
X105961000Y-26098500D03*
G04 #@! TO.P,D1,1*
G04 #@! TO.N,GND*
X108161000Y-26098500D03*
G04 #@! TD*
D12*
G04 #@! TO.P,D2,1*
G04 #@! TO.N,Net-(D2-Pad1)*
X78168500Y-27051000D03*
D13*
G04 #@! TO.P,D2,2*
G04 #@! TO.N,/COM0*
X85788500Y-27051000D03*
G04 #@! TD*
D14*
G04 #@! TO.P,R1,1*
G04 #@! TO.N,/SDA*
X103784997Y-23917875D03*
G04 #@! TO.P,R1,2*
G04 #@! TO.N,+5V*
X103784997Y-25817875D03*
G04 #@! TD*
G04 #@! TO.P,R2,2*
G04 #@! TO.N,+5V*
X101879998Y-25817875D03*
G04 #@! TO.P,R2,1*
G04 #@! TO.N,/SCL*
X101879998Y-23917875D03*
G04 #@! TD*
G04 #@! TO.P,R3,2*
G04 #@! TO.N,Net-(D2-Pad1)*
X82994435Y-25085238D03*
G04 #@! TO.P,R3,1*
G04 #@! TO.N,/ROW2*
X82994435Y-23185238D03*
G04 #@! TD*
G04 #@! TO.P,R4,1*
G04 #@! TO.N,/ROW1*
X84981374Y-23205265D03*
G04 #@! TO.P,R4,2*
G04 #@! TO.N,Net-(D2-Pad1)*
X84981374Y-25105265D03*
G04 #@! TD*
D15*
G04 #@! TO.P,R5,1*
G04 #@! TO.N,+5V*
X107782998Y-22264375D03*
G04 #@! TO.P,R5,2*
G04 #@! TO.N,Net-(D1-Pad2)*
X105882998Y-22264375D03*
G04 #@! TD*
D14*
G04 #@! TO.P,R6,2*
G04 #@! TO.N,Net-(D2-Pad1)*
X86949874Y-25105264D03*
G04 #@! TO.P,R6,1*
G04 #@! TO.N,/ROW0*
X86949874Y-23205264D03*
G04 #@! TD*
D16*
G04 #@! TO.P,J1,2*
G04 #@! TO.N,GND*
X115026500Y-23876000D03*
G04 #@! TO.P,J1,1*
G04 #@! TO.N,+5V*
X111526500Y-23876000D03*
D17*
G04 #@! TO.P,J1,*
G04 #@! TO.N,*
X113276500Y-26106000D03*
D16*
G04 #@! TO.P,J1,3*
G04 #@! TO.N,/SDA*
X118526500Y-23876000D03*
G04 #@! TO.P,J1,4*
G04 #@! TO.N,/SCL*
X122026500Y-23876000D03*
G04 #@! TD*
D18*
G04 #@! TO.P,LED1,1*
G04 #@! TO.N,/COM0*
X85801200Y-29928820D03*
G04 #@! TO.P,LED1,2*
G04 #@! TO.N,/ROW0*
X83261200Y-29928820D03*
G04 #@! TO.P,LED1,3*
G04 #@! TO.N,/ROW1*
X80721200Y-29928820D03*
G04 #@! TO.P,LED1,4*
G04 #@! TO.N,/ROW2*
X78183740Y-29928820D03*
G04 #@! TO.P,LED1,5*
G04 #@! TO.N,/ROW3*
X75643740Y-29928820D03*
G04 #@! TO.P,LED1,6*
G04 #@! TO.N,/COM1*
X73103740Y-29928820D03*
G04 #@! TO.P,LED1,7*
G04 #@! TO.N,/COM2*
X70563740Y-29928820D03*
G04 #@! TO.P,LED1,8*
X70662800Y-37127180D03*
G04 #@! TO.P,LED1,9*
G04 #@! TO.N,/COM1*
X73202800Y-37127180D03*
G04 #@! TO.P,LED1,10*
G04 #@! TO.N,/ROW11*
X75742800Y-37127180D03*
G04 #@! TO.P,LED1,11*
G04 #@! TO.N,/ROW10*
X78280260Y-37127180D03*
G04 #@! TO.P,LED1,12*
G04 #@! TO.N,/ROW9*
X80820260Y-37127180D03*
G04 #@! TO.P,LED1,13*
G04 #@! TO.N,/ROW8*
X83360260Y-37127180D03*
G04 #@! TO.P,LED1,14*
G04 #@! TO.N,/COM0*
X85900260Y-37127180D03*
G04 #@! TD*
G04 #@! TO.P,LED2,14*
G04 #@! TO.N,/COM0*
X116507260Y-37127180D03*
G04 #@! TO.P,LED2,13*
G04 #@! TO.N,/ROW12*
X113967260Y-37127180D03*
G04 #@! TO.P,LED2,12*
G04 #@! TO.N,/ROW13*
X111427260Y-37127180D03*
G04 #@! TO.P,LED2,11*
G04 #@! TO.N,/ROW14*
X108887260Y-37127180D03*
G04 #@! TO.P,LED2,10*
G04 #@! TO.N,/ROW15*
X106349800Y-37127180D03*
G04 #@! TO.P,LED2,9*
G04 #@! TO.N,/COM1*
X103809800Y-37127180D03*
G04 #@! TO.P,LED2,8*
G04 #@! TO.N,/COM2*
X101269800Y-37127180D03*
G04 #@! TO.P,LED2,7*
X101170740Y-29928820D03*
G04 #@! TO.P,LED2,6*
G04 #@! TO.N,/COM1*
X103710740Y-29928820D03*
G04 #@! TO.P,LED2,5*
G04 #@! TO.N,/ROW7*
X106250740Y-29928820D03*
G04 #@! TO.P,LED2,4*
G04 #@! TO.N,/ROW6*
X108790740Y-29928820D03*
G04 #@! TO.P,LED2,3*
G04 #@! TO.N,/ROW5*
X111328200Y-29928820D03*
G04 #@! TO.P,LED2,2*
G04 #@! TO.N,/ROW4*
X113868200Y-29928820D03*
G04 #@! TO.P,LED2,1*
G04 #@! TO.N,/COM0*
X116408200Y-29928820D03*
G04 #@! TD*
D19*
G04 #@! TO.P,U1,28*
G04 #@! TO.N,+5V*
X89382600Y-21717000D03*
G04 #@! TO.P,U1,27*
G04 #@! TO.N,/SDA*
X89382600Y-22987000D03*
G04 #@! TO.P,U1,26*
G04 #@! TO.N,/SCL*
X89382600Y-24257000D03*
G04 #@! TO.P,U1,25*
G04 #@! TO.N,/ROW0*
X89382600Y-25527000D03*
G04 #@! TO.P,U1,24*
G04 #@! TO.N,/ROW1*
X89382600Y-26797000D03*
G04 #@! TO.P,U1,23*
G04 #@! TO.N,/ROW2*
X89382600Y-28067000D03*
G04 #@! TO.P,U1,22*
G04 #@! TO.N,/ROW3*
X89382600Y-29337000D03*
G04 #@! TO.P,U1,21*
G04 #@! TO.N,/ROW4*
X89382600Y-30607000D03*
G04 #@! TO.P,U1,20*
G04 #@! TO.N,/ROW5*
X89382600Y-31877000D03*
G04 #@! TO.P,U1,19*
G04 #@! TO.N,/ROW6*
X89382600Y-33147000D03*
G04 #@! TO.P,U1,18*
G04 #@! TO.N,/ROW7*
X89382600Y-34417000D03*
G04 #@! TO.P,U1,17*
G04 #@! TO.N,/ROW8*
X89382600Y-35687000D03*
G04 #@! TO.P,U1,16*
G04 #@! TO.N,/ROW9*
X89382600Y-36957000D03*
G04 #@! TO.P,U1,15*
G04 #@! TO.N,/ROW10*
X89382600Y-38227000D03*
G04 #@! TO.P,U1,14*
G04 #@! TO.N,/ROW11*
X98425000Y-38227000D03*
G04 #@! TO.P,U1,13*
G04 #@! TO.N,/ROW12*
X98425000Y-36957000D03*
G04 #@! TO.P,U1,12*
G04 #@! TO.N,/ROW13*
X98425000Y-35687000D03*
G04 #@! TO.P,U1,11*
G04 #@! TO.N,/ROW14*
X98425000Y-34417000D03*
G04 #@! TO.P,U1,10*
G04 #@! TO.N,/ROW15*
X98425000Y-33147000D03*
G04 #@! TO.P,U1,9*
G04 #@! TO.N,Net-(U1-Pad9)*
X98425000Y-31877000D03*
G04 #@! TO.P,U1,8*
G04 #@! TO.N,Net-(U1-Pad8)*
X98425000Y-30607000D03*
G04 #@! TO.P,U1,7*
G04 #@! TO.N,Net-(U1-Pad7)*
X98425000Y-29337000D03*
G04 #@! TO.P,U1,6*
G04 #@! TO.N,Net-(U1-Pad6)*
X98425000Y-28067000D03*
G04 #@! TO.P,U1,5*
G04 #@! TO.N,Net-(U1-Pad5)*
X98425000Y-26797000D03*
G04 #@! TO.P,U1,4*
G04 #@! TO.N,/COM2*
X98425000Y-25527000D03*
G04 #@! TO.P,U1,3*
G04 #@! TO.N,/COM1*
X98425000Y-24257000D03*
G04 #@! TO.P,U1,2*
G04 #@! TO.N,/COM0*
X98425000Y-22987000D03*
G04 #@! TO.P,U1,1*
G04 #@! TO.N,GND*
X98425000Y-21717000D03*
G04 #@! TD*
D20*
G04 #@! TO.N,GND*
X99885500Y-21717000D03*
G04 #@! TO.N,/COM0*
X95250000Y-23114000D03*
G04 #@! TO.N,/ROW0*
X86995000Y-21780500D03*
G04 #@! TO.N,/ROW1*
X84963000Y-21844000D03*
G04 #@! TO.N,/ROW2*
X82994500Y-21780500D03*
G04 #@! TO.N,/COM1*
X84963000Y-32729000D03*
X86614000Y-32766000D03*
X95250000Y-24384000D03*
G04 #@! TO.N,/COM2*
X84836000Y-33909000D03*
X86526200Y-33909000D03*
X95123000Y-25527000D03*
G04 #@! TO.N,/ROW15*
X106426000Y-33655000D03*
G04 #@! TO.N,/ROW6*
X93599000Y-31750000D03*
X91059000Y-32004000D03*
G04 #@! TO.N,/ROW5*
X94742000Y-32131000D03*
X91567000Y-30988000D03*
G04 #@! TO.N,/ROW4*
X101092000Y-27940000D03*
X91694000Y-29845000D03*
G04 #@! TO.N,/SCL*
X100711000Y-22669500D03*
X110636847Y-20804500D03*
G04 #@! TD*
D21*
G04 #@! TO.N,+5V*
X96839000Y-21717000D02*
X97529999Y-22407999D01*
X89382600Y-21717000D02*
X96839000Y-21717000D01*
X109914875Y-22264375D02*
X111526500Y-23876000D01*
X107782998Y-22264375D02*
X109914875Y-22264375D01*
X101879998Y-25817875D02*
X103784997Y-25817875D01*
X105207997Y-21354374D02*
X105353371Y-21209000D01*
X105207997Y-23292374D02*
X105207997Y-21354374D01*
X106023498Y-24232875D02*
X106023498Y-24107875D01*
X106023498Y-24107875D02*
X105207997Y-23292374D01*
X108859500Y-21209000D02*
X111526500Y-23876000D01*
X105353371Y-21209000D02*
X108859500Y-21209000D01*
X99367409Y-22407999D02*
X97529999Y-22407999D01*
X99835010Y-22875600D02*
X99367409Y-22407999D01*
X99835011Y-23457890D02*
X99835010Y-22875600D01*
X100979998Y-25817875D02*
X100918030Y-25755907D01*
X100918030Y-24540909D02*
X99835011Y-23457890D01*
X100918030Y-25755907D02*
X100918030Y-24540909D01*
X101879998Y-25817875D02*
X100979998Y-25817875D01*
X105207997Y-23892475D02*
X105207997Y-23292374D01*
X103784997Y-25315475D02*
X105207997Y-23892475D01*
X103784997Y-25817875D02*
X103784997Y-25315475D01*
G04 #@! TO.N,GND*
X98425000Y-21717000D02*
X99310000Y-21717000D01*
X114038672Y-23876000D02*
X115026500Y-23876000D01*
X113041282Y-23876000D02*
X114038672Y-23876000D01*
X110818782Y-26098500D02*
X113041282Y-23876000D01*
X108161000Y-26098500D02*
X110818782Y-26098500D01*
X99310000Y-21717000D02*
X99885500Y-21717000D01*
X108023498Y-25960998D02*
X108161000Y-26098500D01*
X108023498Y-24232875D02*
X108023498Y-25960998D01*
G04 #@! TO.N,Net-(D1-Pad2)*
X106848499Y-26061001D02*
X106811000Y-26098500D01*
X106811000Y-26098500D02*
X105961000Y-26098500D01*
X106848499Y-23347874D02*
X106848499Y-26061001D01*
X105882998Y-22382373D02*
X106848499Y-23347874D01*
X105882998Y-22264375D02*
X105882998Y-22382373D01*
G04 #@! TO.N,Net-(D2-Pad1)*
X82094435Y-25085238D02*
X82994435Y-25085238D01*
X79084262Y-25085238D02*
X82094435Y-25085238D01*
X78168500Y-26001000D02*
X79084262Y-25085238D01*
X78168500Y-27051000D02*
X78168500Y-26001000D01*
X84961347Y-25085238D02*
X84981374Y-25105265D01*
X82994435Y-25085238D02*
X84961347Y-25085238D01*
X86949873Y-25105265D02*
X86949874Y-25105264D01*
X84981374Y-25105265D02*
X86949873Y-25105265D01*
G04 #@! TO.N,/COM0*
X116408200Y-37028120D02*
X116507260Y-37127180D01*
X116408200Y-29928820D02*
X116408200Y-37028120D01*
X114419380Y-27940000D02*
X115570001Y-29090621D01*
X113030000Y-27940000D02*
X114419380Y-27940000D01*
X98425000Y-22987000D02*
X99310000Y-22987000D01*
X115570001Y-29090621D02*
X116408200Y-29928820D01*
X101346000Y-27178000D02*
X112268000Y-27178000D01*
X112268000Y-27178000D02*
X113030000Y-27940000D01*
X98298000Y-23114000D02*
X98425000Y-22987000D01*
X95250000Y-23114000D02*
X98298000Y-23114000D01*
X99385001Y-24199591D02*
X100468020Y-25282610D01*
X99310000Y-22987000D02*
X99385001Y-23062001D01*
X99385001Y-23062001D02*
X99385001Y-24199591D01*
X100468020Y-26300020D02*
X101346000Y-27178000D01*
X100468020Y-25282610D02*
X100468020Y-26300020D01*
G04 #@! TO.N,/ROW0*
X83261200Y-29928820D02*
X84488020Y-28702000D01*
X84488020Y-28702000D02*
X86360000Y-28702000D01*
X89001600Y-25527000D02*
X89382600Y-25527000D01*
X86360000Y-28168600D02*
X89001600Y-25527000D01*
X86360000Y-28702000D02*
X86360000Y-28168600D01*
X86949874Y-23205264D02*
X86949874Y-21825626D01*
X86949874Y-21825626D02*
X86995000Y-21780500D01*
G04 #@! TO.N,/ROW1*
X86359537Y-31092021D02*
X87122000Y-30329558D01*
X80721200Y-29928820D02*
X81884401Y-31092021D01*
X81884401Y-31092021D02*
X86359537Y-31092021D01*
X89001600Y-26797000D02*
X89382600Y-26797000D01*
X87122000Y-28676600D02*
X89001600Y-26797000D01*
X87122000Y-30329558D02*
X87122000Y-28676600D01*
X84981374Y-23205265D02*
X84981374Y-21862374D01*
X84981374Y-21862374D02*
X84963000Y-21844000D01*
G04 #@! TO.N,/ROW2*
X86545938Y-31542030D02*
X87572010Y-30515958D01*
X78183740Y-29928820D02*
X79796951Y-31542031D01*
X79796951Y-31542031D02*
X86545938Y-31542030D01*
X87572010Y-30515958D02*
X87572010Y-28863000D01*
X88368010Y-28067000D02*
X89382600Y-28067000D01*
X87572010Y-28863000D02*
X88368010Y-28067000D01*
X82994435Y-23185238D02*
X82994435Y-21780565D01*
X82994435Y-21780565D02*
X82994500Y-21780500D01*
G04 #@! TO.N,/ROW3*
X88276020Y-29337000D02*
X89382600Y-29337000D01*
X88022020Y-29591000D02*
X88276020Y-29337000D01*
X88022020Y-30702358D02*
X88022020Y-29591000D01*
X86732339Y-31992039D02*
X88022020Y-30702358D01*
X75643740Y-29928820D02*
X76806941Y-31092021D01*
X78710531Y-31092021D02*
X79622510Y-32004000D01*
X76806941Y-31092021D02*
X78710531Y-31092021D01*
X79622510Y-32004000D02*
X86106000Y-32004000D01*
X86106000Y-32004000D02*
X86117961Y-31992039D01*
X86117961Y-31992039D02*
X86732339Y-31992039D01*
G04 #@! TO.N,/COM1*
X73103740Y-37028120D02*
X73202800Y-37127180D01*
X73103740Y-29928820D02*
X73103740Y-37028120D01*
X103710740Y-29928820D02*
X102483920Y-28702000D01*
X98806000Y-24257000D02*
X98425000Y-24257000D01*
X100018010Y-25469010D02*
X98806000Y-24257000D01*
X100457000Y-28702000D02*
X100018010Y-28263010D01*
X100018010Y-28263010D02*
X100018010Y-25469010D01*
X102483920Y-28702000D02*
X100457000Y-28702000D01*
X84963000Y-32729000D02*
X86577000Y-32729000D01*
X86577000Y-32729000D02*
X86614000Y-32766000D01*
X98298000Y-24384000D02*
X98425000Y-24257000D01*
X95250000Y-24384000D02*
X98298000Y-24384000D01*
G04 #@! TO.N,/COM2*
X70563740Y-37028120D02*
X70662800Y-37127180D01*
X70563740Y-29928820D02*
X70563740Y-37028120D01*
X99985347Y-29928820D02*
X99568000Y-29511473D01*
X101170740Y-29928820D02*
X99985347Y-29928820D01*
X98806000Y-25527000D02*
X98425000Y-25527000D01*
X99568000Y-26289000D02*
X98806000Y-25527000D01*
X99568000Y-29511473D02*
X99568000Y-26289000D01*
X84836000Y-33909000D02*
X86526200Y-33909000D01*
X95123000Y-25527000D02*
X98425000Y-25527000D01*
G04 #@! TO.N,/ROW11*
X90165603Y-34996001D02*
X91821000Y-36651398D01*
X75742800Y-37127180D02*
X77873979Y-34996001D01*
X77873979Y-34996001D02*
X90165603Y-34996001D01*
X91821000Y-36651398D02*
X91821000Y-38100000D01*
X91948000Y-38227000D02*
X98425000Y-38227000D01*
X91821000Y-38100000D02*
X91948000Y-38227000D01*
G04 #@! TO.N,/ROW10*
X88497600Y-38227000D02*
X89382600Y-38227000D01*
X87984209Y-38740391D02*
X88497600Y-38227000D01*
X79893471Y-38740391D02*
X87984209Y-38740391D01*
X78280260Y-37127180D02*
X79893471Y-38740391D01*
G04 #@! TO.N,/ROW9*
X87668219Y-38290381D02*
X89001600Y-36957000D01*
X89001600Y-36957000D02*
X89382600Y-36957000D01*
X81983461Y-38290381D02*
X87668219Y-38290381D01*
X80820260Y-37127180D02*
X81983461Y-38290381D01*
G04 #@! TO.N,/ROW8*
X84800440Y-35687000D02*
X89382600Y-35687000D01*
X83360260Y-37127180D02*
X84800440Y-35687000D01*
G04 #@! TO.N,/ROW12*
X98629002Y-36957000D02*
X98425000Y-36957000D01*
X100514992Y-38842990D02*
X98629002Y-36957000D01*
X112251450Y-38842990D02*
X100514992Y-38842990D01*
X113967260Y-37127180D02*
X112251450Y-38842990D01*
G04 #@! TO.N,/ROW13*
X110264059Y-38290381D02*
X100647381Y-38290381D01*
X111427260Y-37127180D02*
X110264059Y-38290381D01*
X98806000Y-35687000D02*
X98425000Y-35687000D01*
X99385001Y-36266001D02*
X98806000Y-35687000D01*
X99385001Y-37028001D02*
X99385001Y-36266001D01*
X100647381Y-38290381D02*
X99385001Y-37028001D01*
G04 #@! TO.N,/ROW14*
X99310000Y-34417000D02*
X98425000Y-34417000D01*
X107362473Y-34417000D02*
X99310000Y-34417000D01*
X108887260Y-35941787D02*
X107362473Y-34417000D01*
X108887260Y-37127180D02*
X108887260Y-35941787D01*
G04 #@! TO.N,/ROW15*
X105918000Y-33147000D02*
X98425000Y-33147000D01*
X106426000Y-33655000D02*
X105918000Y-33147000D01*
G04 #@! TO.N,/ROW7*
X94152601Y-30027999D02*
X89763600Y-34417000D01*
X99320001Y-30027999D02*
X94152601Y-30027999D01*
X100384023Y-31092021D02*
X99320001Y-30027999D01*
X89763600Y-34417000D02*
X89382600Y-34417000D01*
X105087539Y-31092021D02*
X100384023Y-31092021D01*
X106250740Y-29928820D02*
X105087539Y-31092021D01*
G04 #@! TO.N,/ROW6*
X94162999Y-31186001D02*
X93599000Y-31750000D01*
X99320001Y-31186001D02*
X94162999Y-31186001D01*
X108790740Y-29928820D02*
X107177530Y-31542030D01*
X99676030Y-31542030D02*
X99320001Y-31186001D01*
X107177530Y-31542030D02*
X99676030Y-31542030D01*
X89916000Y-33147000D02*
X89382600Y-33147000D01*
X91059000Y-32004000D02*
X89916000Y-33147000D01*
G04 #@! TO.N,/ROW5*
X95067001Y-32456001D02*
X94742000Y-32131000D01*
X111328200Y-29928820D02*
X108801019Y-32456001D01*
X108801019Y-32456001D02*
X95067001Y-32456001D01*
X89763600Y-31877000D02*
X89382600Y-31877000D01*
X90652600Y-30988000D02*
X89763600Y-31877000D01*
X91567000Y-30988000D02*
X90652600Y-30988000D01*
G04 #@! TO.N,/ROW4*
X113868200Y-29928820D02*
X111879380Y-27940000D01*
X111879380Y-27940000D02*
X101092000Y-27940000D01*
X90267600Y-30607000D02*
X89382600Y-30607000D01*
X90366315Y-30607000D02*
X90267600Y-30607000D01*
X91128315Y-29845000D02*
X90366315Y-30607000D01*
X91694000Y-29845000D02*
X91128315Y-29845000D01*
G04 #@! TO.N,/SDA*
X103784997Y-23317875D02*
X103784997Y-23917875D01*
X88447199Y-20541989D02*
X101009111Y-20541989D01*
X87941991Y-21047197D02*
X88447199Y-20541989D01*
X87941990Y-22431390D02*
X87941991Y-21047197D01*
X88497600Y-22987000D02*
X87941990Y-22431390D01*
X89382600Y-22987000D02*
X88497600Y-22987000D01*
X103251000Y-22783878D02*
X103784997Y-23317875D01*
X101009111Y-20541989D02*
X103251000Y-22783878D01*
X110754882Y-22606000D02*
X117256500Y-22606000D01*
X108976883Y-20828000D02*
X110754882Y-22606000D01*
X105235988Y-20828000D02*
X108976883Y-20828000D01*
X103280110Y-22783878D02*
X105235988Y-20828000D01*
X117256500Y-22606000D02*
X118526500Y-23876000D01*
X103251000Y-22783878D02*
X103280110Y-22783878D01*
G04 #@! TO.N,/SCL*
X88487599Y-22296001D02*
X88392000Y-22200402D01*
X90165603Y-22296001D02*
X88487599Y-22296001D01*
X90342601Y-22472999D02*
X90165603Y-22296001D01*
X90342601Y-23677999D02*
X90342601Y-22472999D01*
X89382600Y-24257000D02*
X89763600Y-24257000D01*
X89763600Y-24257000D02*
X90342601Y-23677999D01*
X88487599Y-21137999D02*
X90289499Y-21137999D01*
X88392000Y-22200402D02*
X88392000Y-21233598D01*
X88392000Y-21233598D02*
X88487599Y-21137999D01*
X101879998Y-23317875D02*
X101879998Y-23917875D01*
X101879998Y-22638496D02*
X101879998Y-23317875D01*
X90435499Y-20991999D02*
X100233501Y-20991999D01*
X90289499Y-21137999D02*
X90435499Y-20991999D01*
X101149002Y-22231498D02*
X100711000Y-22669500D01*
X101473000Y-22231498D02*
X101879998Y-22638496D01*
X101473000Y-22231498D02*
X101149002Y-22231498D01*
X100233501Y-20991999D02*
X101473000Y-22231498D01*
X122026500Y-23876000D02*
X119969058Y-23876000D01*
X119969058Y-23876000D02*
X118318058Y-22225000D01*
X110636847Y-21370185D02*
X111491662Y-22225000D01*
X110636847Y-20804500D02*
X110636847Y-21370185D01*
X118318058Y-22225000D02*
X111633000Y-22225000D01*
X111491662Y-22225000D02*
X111633000Y-22225000D01*
G04 #@! TD*
M02*
