G04 #@! TF.GenerationSoftware,KiCad,Pcbnew,5.0.2-bee76a0~70~ubuntu18.04.1*
G04 #@! TF.CreationDate,2019-03-14T11:27:35-04:00*
G04 #@! TF.ProjectId,Backpack,4261636b-7061-4636-9b2e-6b696361645f,rev?*
G04 #@! TF.SameCoordinates,Original*
G04 #@! TF.FileFunction,Copper,L1,Top*
G04 #@! TF.FilePolarity,Positive*
%FSLAX46Y46*%
G04 Gerber Fmt 4.6, Leading zero omitted, Abs format (unit mm)*
G04 Created by KiCad (PCBNEW 5.0.2-bee76a0~70~ubuntu18.04.1) date Thu 14 Mar 2019 11:27:35 AM EDT*
%MOMM*%
%LPD*%
G01*
G04 APERTURE LIST*
G04 #@! TA.AperFunction,ComponentPad*
%ADD10R,1.600000X1.600000*%
G04 #@! TD*
G04 #@! TA.AperFunction,ComponentPad*
%ADD11O,1.600000X1.600000*%
G04 #@! TD*
G04 #@! TA.AperFunction,ComponentPad*
%ADD12C,1.397000*%
G04 #@! TD*
G04 #@! TA.AperFunction,ComponentPad*
%ADD13C,1.981000*%
G04 #@! TD*
G04 #@! TA.AperFunction,ComponentPad*
%ADD14C,1.676400*%
G04 #@! TD*
G04 #@! TA.AperFunction,ViaPad*
%ADD15C,0.800000*%
G04 #@! TD*
G04 #@! TA.AperFunction,Conductor*
%ADD16C,0.152400*%
G04 #@! TD*
G04 #@! TA.AperFunction,Conductor*
%ADD17C,0.254000*%
G04 #@! TD*
G04 APERTURE END LIST*
D10*
G04 #@! TO.P,D2,1*
G04 #@! TO.N,Net-(D2-Pad1)*
X78168500Y-27051000D03*
D11*
G04 #@! TO.P,D2,2*
G04 #@! TO.N,/COM0*
X85788500Y-27051000D03*
G04 #@! TD*
D12*
G04 #@! TO.P,J1,2*
G04 #@! TO.N,GND*
X115026500Y-23876000D03*
G04 #@! TO.P,J1,1*
G04 #@! TO.N,+5V*
X111526500Y-23876000D03*
D13*
G04 #@! TO.P,J1,*
G04 #@! TO.N,*
X113276500Y-26106000D03*
D12*
G04 #@! TO.P,J1,3*
G04 #@! TO.N,/SDA*
X118526500Y-23876000D03*
G04 #@! TO.P,J1,4*
G04 #@! TO.N,/SCL*
X122026500Y-23876000D03*
G04 #@! TD*
D14*
G04 #@! TO.P,LED1,1*
G04 #@! TO.N,/COM0*
X85801200Y-29928820D03*
G04 #@! TO.P,LED1,2*
G04 #@! TO.N,/ROW0*
X83261200Y-29928820D03*
G04 #@! TO.P,LED1,3*
G04 #@! TO.N,/ROW1*
X80721200Y-29928820D03*
G04 #@! TO.P,LED1,4*
G04 #@! TO.N,/ROW2*
X78183740Y-29928820D03*
G04 #@! TO.P,LED1,5*
G04 #@! TO.N,/ROW3*
X75643740Y-29928820D03*
G04 #@! TO.P,LED1,6*
G04 #@! TO.N,/COM1*
X73103740Y-29928820D03*
G04 #@! TO.P,LED1,7*
G04 #@! TO.N,/COM2*
X70563740Y-29928820D03*
G04 #@! TO.P,LED1,8*
X70662800Y-37127180D03*
G04 #@! TO.P,LED1,9*
G04 #@! TO.N,/COM1*
X73202800Y-37127180D03*
G04 #@! TO.P,LED1,10*
G04 #@! TO.N,/ROW11*
X75742800Y-37127180D03*
G04 #@! TO.P,LED1,11*
G04 #@! TO.N,/ROW10*
X78280260Y-37127180D03*
G04 #@! TO.P,LED1,12*
G04 #@! TO.N,/ROW9*
X80820260Y-37127180D03*
G04 #@! TO.P,LED1,13*
G04 #@! TO.N,/ROW8*
X83360260Y-37127180D03*
G04 #@! TO.P,LED1,14*
G04 #@! TO.N,/COM0*
X85900260Y-37127180D03*
G04 #@! TD*
G04 #@! TO.P,LED2,14*
G04 #@! TO.N,/COM0*
X116507260Y-37127180D03*
G04 #@! TO.P,LED2,13*
G04 #@! TO.N,/ROW12*
X113967260Y-37127180D03*
G04 #@! TO.P,LED2,12*
G04 #@! TO.N,/ROW13*
X111427260Y-37127180D03*
G04 #@! TO.P,LED2,11*
G04 #@! TO.N,/ROW14*
X108887260Y-37127180D03*
G04 #@! TO.P,LED2,10*
G04 #@! TO.N,/ROW15*
X106349800Y-37127180D03*
G04 #@! TO.P,LED2,9*
G04 #@! TO.N,/COM1*
X103809800Y-37127180D03*
G04 #@! TO.P,LED2,8*
G04 #@! TO.N,/COM2*
X101269800Y-37127180D03*
G04 #@! TO.P,LED2,7*
X101170740Y-29928820D03*
G04 #@! TO.P,LED2,6*
G04 #@! TO.N,/COM1*
X103710740Y-29928820D03*
G04 #@! TO.P,LED2,5*
G04 #@! TO.N,/ROW7*
X106250740Y-29928820D03*
G04 #@! TO.P,LED2,4*
G04 #@! TO.N,/ROW6*
X108790740Y-29928820D03*
G04 #@! TO.P,LED2,3*
G04 #@! TO.N,/ROW5*
X111328200Y-29928820D03*
G04 #@! TO.P,LED2,2*
G04 #@! TO.N,/ROW4*
X113868200Y-29928820D03*
G04 #@! TO.P,LED2,1*
G04 #@! TO.N,/COM0*
X116408200Y-29928820D03*
G04 #@! TD*
D15*
G04 #@! TO.N,GND*
X99885500Y-21717000D03*
G04 #@! TO.N,/COM0*
X95250000Y-23114000D03*
G04 #@! TO.N,/ROW0*
X86995000Y-21780500D03*
G04 #@! TO.N,/ROW1*
X84963000Y-21844000D03*
G04 #@! TO.N,/ROW2*
X82994500Y-21780500D03*
G04 #@! TO.N,/COM1*
X84963000Y-32729000D03*
X86614000Y-32766000D03*
X95250000Y-24384000D03*
G04 #@! TO.N,/COM2*
X84836000Y-33909000D03*
X86526200Y-33909000D03*
X95123000Y-25527000D03*
G04 #@! TO.N,/ROW15*
X106426000Y-33655000D03*
G04 #@! TO.N,/ROW6*
X93599000Y-31750000D03*
X91059000Y-32004000D03*
G04 #@! TO.N,/ROW5*
X94742000Y-32131000D03*
X91567000Y-30988000D03*
G04 #@! TO.N,/ROW4*
X101092000Y-27940000D03*
X91694000Y-29845000D03*
G04 #@! TO.N,/SCL*
X100711000Y-22669500D03*
X110636847Y-20804500D03*
G04 #@! TD*
D16*
G04 #@! TO.N,/COM0*
X85801200Y-37028120D02*
X85900260Y-37127180D01*
X85801200Y-29928820D02*
X85801200Y-37028120D01*
X85801200Y-29928820D02*
X88435180Y-29928820D01*
X91313000Y-27051000D02*
X85788500Y-27051000D01*
X91503500Y-26860500D02*
X91313000Y-27051000D01*
X91503500Y-26860500D02*
X95250000Y-23114000D01*
X88435180Y-29928820D02*
X91503500Y-26860500D01*
G04 #@! TO.N,/ROW0*
X83261200Y-25514300D02*
X83261200Y-29928820D01*
X86995000Y-21780500D02*
X83261200Y-25514300D01*
G04 #@! TO.N,/ROW1*
X80721200Y-26085800D02*
X80721200Y-29928820D01*
X84963000Y-21844000D02*
X80721200Y-26085800D01*
G04 #@! TO.N,/ROW2*
X82994500Y-21780500D02*
X79375000Y-25400000D01*
X79375000Y-28737560D02*
X78183740Y-29928820D01*
X79375000Y-25400000D02*
X79375000Y-28737560D01*
G04 #@! TO.N,/COM1*
X103710740Y-36774120D02*
X103809800Y-36873180D01*
X103710740Y-37028120D02*
X103809800Y-37127180D01*
X103710740Y-29928820D02*
X103710740Y-37028120D01*
X73103740Y-29928820D02*
X75903920Y-32729000D01*
X75903920Y-32729000D02*
X84963000Y-32729000D01*
X86614000Y-32766000D02*
X94996000Y-24384000D01*
X94996000Y-24384000D02*
X95250000Y-24384000D01*
G04 #@! TO.N,/COM2*
X101170740Y-36774120D02*
X101269800Y-36873180D01*
X101170740Y-37028120D02*
X101269800Y-37127180D01*
X101170740Y-29928820D02*
X101170740Y-37028120D01*
X70563740Y-29928820D02*
X74543920Y-33909000D01*
X74543920Y-33909000D02*
X84836000Y-33909000D01*
X86526200Y-33909000D02*
X94908200Y-25527000D01*
X94908200Y-25527000D02*
X95123000Y-25527000D01*
G04 #@! TO.N,/ROW15*
X106349800Y-37127180D02*
X106349800Y-33731200D01*
X106349800Y-33731200D02*
X106426000Y-33655000D01*
G04 #@! TO.N,/ROW6*
X93599000Y-31750000D02*
X91313000Y-31750000D01*
X91313000Y-31750000D02*
X91059000Y-32004000D01*
G04 #@! TO.N,/ROW5*
X94164685Y-30988000D02*
X91567000Y-30988000D01*
X94742000Y-32131000D02*
X94742000Y-31565315D01*
X94742000Y-31565315D02*
X94164685Y-30988000D01*
G04 #@! TO.N,/ROW4*
X101092000Y-27940000D02*
X93599000Y-27940000D01*
X93599000Y-27940000D02*
X91694000Y-29845000D01*
G04 #@! TO.N,/SCL*
X100711000Y-22669500D02*
X101110999Y-22269501D01*
X100711000Y-22669500D02*
X102899790Y-20480710D01*
X102899790Y-20480710D02*
X110313057Y-20480710D01*
X110313057Y-20480710D02*
X110636847Y-20804500D01*
G04 #@! TD*
D17*
G04 #@! TO.N,GND*
G36*
X100740212Y-21634500D02*
X100505126Y-21634500D01*
X100124720Y-21792069D01*
X99833569Y-22083220D01*
X99676000Y-22463626D01*
X99676000Y-22875374D01*
X99833569Y-23255780D01*
X100124720Y-23546931D01*
X100505126Y-23704500D01*
X100916874Y-23704500D01*
X101297280Y-23546931D01*
X101588431Y-23255780D01*
X101746000Y-22875374D01*
X101746000Y-22640288D01*
X103194378Y-21191910D01*
X109677042Y-21191910D01*
X109759416Y-21390780D01*
X110050567Y-21681931D01*
X110430973Y-21839500D01*
X110842721Y-21839500D01*
X111223127Y-21681931D01*
X111514278Y-21390780D01*
X111671847Y-21010374D01*
X111671847Y-20839500D01*
X123251447Y-20839500D01*
X123468483Y-20879921D01*
X123599655Y-20960776D01*
X123692922Y-21083430D01*
X123749452Y-21278642D01*
X123750000Y-21289844D01*
X123750000Y-27794307D01*
X113782422Y-27655868D01*
X114197272Y-27484032D01*
X114654532Y-27026772D01*
X114902000Y-26429332D01*
X114902000Y-25782668D01*
X114654532Y-25185228D01*
X114613700Y-25144396D01*
X114833980Y-25221927D01*
X115363699Y-25193148D01*
X115719429Y-25045800D01*
X115781083Y-24810188D01*
X115026500Y-24055605D01*
X115012358Y-24069748D01*
X114832753Y-23890143D01*
X114846895Y-23876000D01*
X115206105Y-23876000D01*
X115960688Y-24630583D01*
X116196300Y-24568929D01*
X116372427Y-24068520D01*
X116347557Y-23610750D01*
X117193000Y-23610750D01*
X117193000Y-24141250D01*
X117396013Y-24631367D01*
X117771133Y-25006487D01*
X118261250Y-25209500D01*
X118791750Y-25209500D01*
X119281867Y-25006487D01*
X119656987Y-24631367D01*
X119860000Y-24141250D01*
X119860000Y-23610750D01*
X120693000Y-23610750D01*
X120693000Y-24141250D01*
X120896013Y-24631367D01*
X121271133Y-25006487D01*
X121761250Y-25209500D01*
X122291750Y-25209500D01*
X122781867Y-25006487D01*
X123156987Y-24631367D01*
X123360000Y-24141250D01*
X123360000Y-23610750D01*
X123156987Y-23120633D01*
X122781867Y-22745513D01*
X122291750Y-22542500D01*
X121761250Y-22542500D01*
X121271133Y-22745513D01*
X120896013Y-23120633D01*
X120693000Y-23610750D01*
X119860000Y-23610750D01*
X119656987Y-23120633D01*
X119281867Y-22745513D01*
X118791750Y-22542500D01*
X118261250Y-22542500D01*
X117771133Y-22745513D01*
X117396013Y-23120633D01*
X117193000Y-23610750D01*
X116347557Y-23610750D01*
X116343648Y-23538801D01*
X116196300Y-23183071D01*
X115960688Y-23121417D01*
X115206105Y-23876000D01*
X114846895Y-23876000D01*
X114092312Y-23121417D01*
X113856700Y-23183071D01*
X113680573Y-23683480D01*
X113709352Y-24213199D01*
X113856700Y-24568929D01*
X114092310Y-24630582D01*
X114054190Y-24668702D01*
X113599832Y-24480500D01*
X112953168Y-24480500D01*
X112671079Y-24597345D01*
X112860000Y-24141250D01*
X112860000Y-23610750D01*
X112656987Y-23120633D01*
X112478166Y-22941812D01*
X114271917Y-22941812D01*
X115026500Y-23696395D01*
X115781083Y-22941812D01*
X115719429Y-22706200D01*
X115219020Y-22530073D01*
X114689301Y-22558852D01*
X114333571Y-22706200D01*
X114271917Y-22941812D01*
X112478166Y-22941812D01*
X112281867Y-22745513D01*
X111791750Y-22542500D01*
X111261250Y-22542500D01*
X110771133Y-22745513D01*
X110396013Y-23120633D01*
X110193000Y-23610750D01*
X110193000Y-24141250D01*
X110396013Y-24631367D01*
X110771133Y-25006487D01*
X111261250Y-25209500D01*
X111791750Y-25209500D01*
X111932494Y-25151202D01*
X111898468Y-25185228D01*
X111651000Y-25782668D01*
X111651000Y-26429332D01*
X111898468Y-27026772D01*
X112355728Y-27484032D01*
X112735473Y-27641328D01*
X102026956Y-27492598D01*
X101969431Y-27353720D01*
X101678280Y-27062569D01*
X101297874Y-26905000D01*
X100886126Y-26905000D01*
X100505720Y-27062569D01*
X100339489Y-27228800D01*
X97806393Y-27228800D01*
X98120621Y-20839500D01*
X101535212Y-20839500D01*
X100740212Y-21634500D01*
X100740212Y-21634500D01*
G37*
X100740212Y-21634500D02*
X100505126Y-21634500D01*
X100124720Y-21792069D01*
X99833569Y-22083220D01*
X99676000Y-22463626D01*
X99676000Y-22875374D01*
X99833569Y-23255780D01*
X100124720Y-23546931D01*
X100505126Y-23704500D01*
X100916874Y-23704500D01*
X101297280Y-23546931D01*
X101588431Y-23255780D01*
X101746000Y-22875374D01*
X101746000Y-22640288D01*
X103194378Y-21191910D01*
X109677042Y-21191910D01*
X109759416Y-21390780D01*
X110050567Y-21681931D01*
X110430973Y-21839500D01*
X110842721Y-21839500D01*
X111223127Y-21681931D01*
X111514278Y-21390780D01*
X111671847Y-21010374D01*
X111671847Y-20839500D01*
X123251447Y-20839500D01*
X123468483Y-20879921D01*
X123599655Y-20960776D01*
X123692922Y-21083430D01*
X123749452Y-21278642D01*
X123750000Y-21289844D01*
X123750000Y-27794307D01*
X113782422Y-27655868D01*
X114197272Y-27484032D01*
X114654532Y-27026772D01*
X114902000Y-26429332D01*
X114902000Y-25782668D01*
X114654532Y-25185228D01*
X114613700Y-25144396D01*
X114833980Y-25221927D01*
X115363699Y-25193148D01*
X115719429Y-25045800D01*
X115781083Y-24810188D01*
X115026500Y-24055605D01*
X115012358Y-24069748D01*
X114832753Y-23890143D01*
X114846895Y-23876000D01*
X115206105Y-23876000D01*
X115960688Y-24630583D01*
X116196300Y-24568929D01*
X116372427Y-24068520D01*
X116347557Y-23610750D01*
X117193000Y-23610750D01*
X117193000Y-24141250D01*
X117396013Y-24631367D01*
X117771133Y-25006487D01*
X118261250Y-25209500D01*
X118791750Y-25209500D01*
X119281867Y-25006487D01*
X119656987Y-24631367D01*
X119860000Y-24141250D01*
X119860000Y-23610750D01*
X120693000Y-23610750D01*
X120693000Y-24141250D01*
X120896013Y-24631367D01*
X121271133Y-25006487D01*
X121761250Y-25209500D01*
X122291750Y-25209500D01*
X122781867Y-25006487D01*
X123156987Y-24631367D01*
X123360000Y-24141250D01*
X123360000Y-23610750D01*
X123156987Y-23120633D01*
X122781867Y-22745513D01*
X122291750Y-22542500D01*
X121761250Y-22542500D01*
X121271133Y-22745513D01*
X120896013Y-23120633D01*
X120693000Y-23610750D01*
X119860000Y-23610750D01*
X119656987Y-23120633D01*
X119281867Y-22745513D01*
X118791750Y-22542500D01*
X118261250Y-22542500D01*
X117771133Y-22745513D01*
X117396013Y-23120633D01*
X117193000Y-23610750D01*
X116347557Y-23610750D01*
X116343648Y-23538801D01*
X116196300Y-23183071D01*
X115960688Y-23121417D01*
X115206105Y-23876000D01*
X114846895Y-23876000D01*
X114092312Y-23121417D01*
X113856700Y-23183071D01*
X113680573Y-23683480D01*
X113709352Y-24213199D01*
X113856700Y-24568929D01*
X114092310Y-24630582D01*
X114054190Y-24668702D01*
X113599832Y-24480500D01*
X112953168Y-24480500D01*
X112671079Y-24597345D01*
X112860000Y-24141250D01*
X112860000Y-23610750D01*
X112656987Y-23120633D01*
X112478166Y-22941812D01*
X114271917Y-22941812D01*
X115026500Y-23696395D01*
X115781083Y-22941812D01*
X115719429Y-22706200D01*
X115219020Y-22530073D01*
X114689301Y-22558852D01*
X114333571Y-22706200D01*
X114271917Y-22941812D01*
X112478166Y-22941812D01*
X112281867Y-22745513D01*
X111791750Y-22542500D01*
X111261250Y-22542500D01*
X110771133Y-22745513D01*
X110396013Y-23120633D01*
X110193000Y-23610750D01*
X110193000Y-24141250D01*
X110396013Y-24631367D01*
X110771133Y-25006487D01*
X111261250Y-25209500D01*
X111791750Y-25209500D01*
X111932494Y-25151202D01*
X111898468Y-25185228D01*
X111651000Y-25782668D01*
X111651000Y-26429332D01*
X111898468Y-27026772D01*
X112355728Y-27484032D01*
X112735473Y-27641328D01*
X102026956Y-27492598D01*
X101969431Y-27353720D01*
X101678280Y-27062569D01*
X101297874Y-26905000D01*
X100886126Y-26905000D01*
X100505720Y-27062569D01*
X100339489Y-27228800D01*
X97806393Y-27228800D01*
X98120621Y-20839500D01*
X101535212Y-20839500D01*
X100740212Y-21634500D01*
G04 #@! TD*
M02*
