M48
;DRILL file {KiCad 5.0.2-bee76a0~70~ubuntu16.04.1} date Mon 25 Mar 2019 10:31:00 PM EDT
;FORMAT={3:3/ absolute / metric / suppress leading zeros}
FMAT,2
METRIC,TZ
T1C0.400
T2C0.800
T3C1.500
T4C3.251
%
G90
G05
T1
X200406Y-60427
X204724Y-59233
X209118Y-58014
X239065Y-63881
T2
X60960Y-43180
X60960Y-45720
X60960Y-48260
X60960Y-50800
X60960Y-53340
X60960Y-55880
X60960Y-58420
X60960Y-60960
X63500Y-44450
X63500Y-46990
X63500Y-49530
X63500Y-52070
X63500Y-54610
X63500Y-57150
X63500Y-59690
X63500Y-62230
X179070Y-40132
X179070Y-42672
X179070Y-45212
X179070Y-47752
X179070Y-50292
X179070Y-52832
X179070Y-55372
X179070Y-57912
X179070Y-60452
X179070Y-62992
X181610Y-41402
X181610Y-43942
X181610Y-46482
X181610Y-49022
X181610Y-51562
X181610Y-54102
X181610Y-56642
X181610Y-59182
X181610Y-61722
X181610Y-64262
X221844Y-43688
X223114Y-46228
X224384Y-43688
X225654Y-46228
X226924Y-43688
X228194Y-46228
X229464Y-43688
X230734Y-46228
X232004Y-43688
X233274Y-46228
X234544Y-43688
X235814Y-46228
X237084Y-43688
X238354Y-46228
X239624Y-43688
X240894Y-46228
X242164Y-43688
X243434Y-46228
X244704Y-43688
X245974Y-46228
X221945Y-56388
X223215Y-53848
X224485Y-56388
X225755Y-53848
X227025Y-56388
X228295Y-53848
X229565Y-56388
X230835Y-53848
X232105Y-56388
X233375Y-53848
X234645Y-56388
X235915Y-53848
X237185Y-56388
X238455Y-53848
X239725Y-56388
X240995Y-53848
X242265Y-56388
X243535Y-53848
X244805Y-56388
X246075Y-53848
T3
X62760Y-41780
X180870Y-38732
X220444Y-45488
X220545Y-54588
T4
X331062Y-27051
X177062Y-27051
X331062Y-76828
X254062Y-27051
X61062Y-27051
X100062Y-27051
X23062Y-76828
X23062Y-27051
X100062Y-76828
X254062Y-76828
X177062Y-76828
T0
M30
