G04 #@! TF.GenerationSoftware,KiCad,Pcbnew,5.0.2-bee76a0~70~ubuntu16.04.1*
G04 #@! TF.CreationDate,2019-03-25T22:30:45-04:00*
G04 #@! TF.ProjectId,BMS_Structural,424d535f-5374-4727-9563-747572616c2e,rev?*
G04 #@! TF.SameCoordinates,Original*
G04 #@! TF.FileFunction,Copper,L1,Top*
G04 #@! TF.FilePolarity,Positive*
%FSLAX46Y46*%
G04 Gerber Fmt 4.6, Leading zero omitted, Abs format (unit mm)*
G04 Created by KiCad (PCBNEW 5.0.2-bee76a0~70~ubuntu16.04.1) date Mon 25 Mar 2019 10:30:45 PM EDT*
%MOMM*%
%LPD*%
G01*
G04 APERTURE LIST*
G04 #@! TA.AperFunction,ComponentPad*
%ADD10C,1.300000*%
G04 #@! TD*
G04 #@! TA.AperFunction,ComponentPad*
%ADD11C,2.000000*%
G04 #@! TD*
G04 #@! TA.AperFunction,ComponentPad*
%ADD12C,4.648200*%
G04 #@! TD*
G04 #@! TA.AperFunction,SMDPad,CuDef*
%ADD13R,1.500000X4.000000*%
G04 #@! TD*
G04 #@! TA.AperFunction,SMDPad,CuDef*
%ADD14R,3.500000X1.780000*%
G04 #@! TD*
G04 #@! TA.AperFunction,SMDPad,CuDef*
%ADD15R,1.780000X3.500000*%
G04 #@! TD*
G04 #@! TA.AperFunction,ViaPad*
%ADD16C,0.800000*%
G04 #@! TD*
G04 #@! TA.AperFunction,Conductor*
%ADD17C,0.381000*%
G04 #@! TD*
G04 APERTURE END LIST*
D10*
G04 #@! TO.P,J1,5*
G04 #@! TO.N,/volt10_L*
X226923600Y-43688000D03*
G04 #@! TO.P,J1,3*
G04 #@! TO.N,/volt9_L*
X224383600Y-43688000D03*
G04 #@! TO.P,J1,1*
G04 #@! TO.N,/volt11_L*
X221843600Y-43688000D03*
G04 #@! TO.P,J1,7*
G04 #@! TO.N,/MODULE10_TEMP2_L*
X229463600Y-43688000D03*
G04 #@! TO.P,J1,2*
G04 #@! TO.N,/V+_L*
X223113600Y-46228000D03*
G04 #@! TO.P,J1,4*
G04 #@! TO.N,/MODULE9_TEMP2_L*
X225653600Y-46228000D03*
G04 #@! TO.P,J1,6*
G04 #@! TO.N,/MODULE9_TEMP1_L*
X228193600Y-46228000D03*
G04 #@! TO.P,J1,8*
G04 #@! TO.N,/volt7_L*
X230733600Y-46228000D03*
G04 #@! TO.P,J1,9*
G04 #@! TO.N,/MODULE10_TEMP1_L*
X232003600Y-43688000D03*
G04 #@! TO.P,J1,10*
G04 #@! TO.N,/volt8_L*
X233273600Y-46228000D03*
G04 #@! TO.P,J1,11*
G04 #@! TO.N,/MODULE8_TEMP2_L*
X234543600Y-43688000D03*
G04 #@! TO.P,J1,12*
G04 #@! TO.N,/MODULE8_TEMP1_L*
X235813600Y-46228000D03*
G04 #@! TO.P,J1,13*
G04 #@! TO.N,/volt6_L*
X237083600Y-43688000D03*
G04 #@! TO.P,J1,14*
G04 #@! TO.N,/MODULE7_TEMP2_L*
X238353600Y-46228000D03*
G04 #@! TO.P,J1,15*
G04 #@! TO.N,/GND_L*
X239623600Y-43688000D03*
G04 #@! TO.P,J1,16*
G04 #@! TO.N,/MODULE6_TEMP2_L*
X240893600Y-46228000D03*
G04 #@! TO.P,J1,17*
G04 #@! TO.N,/MODULE7_TEMP1_L*
X242163600Y-43688000D03*
G04 #@! TO.P,J1,18*
G04 #@! TO.N,/MODULE6_TEMP1_L*
X243433600Y-46228000D03*
G04 #@! TO.P,J1,19*
G04 #@! TO.N,Net-(J1-Pad19)*
X244703600Y-43688000D03*
G04 #@! TO.P,J1,20*
G04 #@! TO.N,Net-(J1-Pad20)*
X245973600Y-46228000D03*
D11*
G04 #@! TO.P,J1,21*
G04 #@! TO.N,N/C*
X220443600Y-45488000D03*
G04 #@! TD*
D10*
G04 #@! TO.P,J3,5*
G04 #@! TO.N,/volt10_R*
X227025200Y-56388000D03*
G04 #@! TO.P,J3,3*
G04 #@! TO.N,/volt9_R*
X224485200Y-56388000D03*
G04 #@! TO.P,J3,1*
G04 #@! TO.N,/volt11_R*
X221945200Y-56388000D03*
G04 #@! TO.P,J3,7*
G04 #@! TO.N,/MODULE10_TEMP2_R*
X229565200Y-56388000D03*
G04 #@! TO.P,J3,2*
G04 #@! TO.N,/V+_R*
X223215200Y-53848000D03*
G04 #@! TO.P,J3,4*
G04 #@! TO.N,/MODULE9_TEMP2_R*
X225755200Y-53848000D03*
G04 #@! TO.P,J3,6*
G04 #@! TO.N,/MODULE9_TEMP1_R*
X228295200Y-53848000D03*
G04 #@! TO.P,J3,8*
G04 #@! TO.N,/volt7_R*
X230835200Y-53848000D03*
G04 #@! TO.P,J3,9*
G04 #@! TO.N,/MODULE10_TEMP1_R*
X232105200Y-56388000D03*
G04 #@! TO.P,J3,10*
G04 #@! TO.N,/volt8_R*
X233375200Y-53848000D03*
G04 #@! TO.P,J3,11*
G04 #@! TO.N,/MODULE8_TEMP2_R*
X234645200Y-56388000D03*
G04 #@! TO.P,J3,12*
G04 #@! TO.N,/MODULE8_TEMP1_R*
X235915200Y-53848000D03*
G04 #@! TO.P,J3,13*
G04 #@! TO.N,/volt6_R*
X237185200Y-56388000D03*
G04 #@! TO.P,J3,14*
G04 #@! TO.N,/MODULE7_TEMP2_R*
X238455200Y-53848000D03*
G04 #@! TO.P,J3,15*
G04 #@! TO.N,/GND_R*
X239725200Y-56388000D03*
G04 #@! TO.P,J3,16*
G04 #@! TO.N,/MODULE6_TEMP2_R*
X240995200Y-53848000D03*
G04 #@! TO.P,J3,17*
G04 #@! TO.N,/MODULE7_TEMP1_R*
X242265200Y-56388000D03*
G04 #@! TO.P,J3,18*
G04 #@! TO.N,/MODULE6_TEMP1_R*
X243535200Y-53848000D03*
G04 #@! TO.P,J3,19*
G04 #@! TO.N,Net-(J3-Pad19)*
X244805200Y-56388000D03*
G04 #@! TO.P,J3,20*
G04 #@! TO.N,Net-(J3-Pad20)*
X246075200Y-53848000D03*
D11*
G04 #@! TO.P,J3,21*
G04 #@! TO.N,N/C*
X220545200Y-54588000D03*
G04 #@! TD*
D12*
G04 #@! TO.P,B1,1*
G04 #@! TO.N,Net-(B1-Pad1)*
X23061600Y-27051000D03*
G04 #@! TD*
G04 #@! TO.P,B2,1*
G04 #@! TO.N,Net-(B2-Pad1)*
X100061600Y-76827800D03*
G04 #@! TD*
G04 #@! TO.P,B3,1*
G04 #@! TO.N,Net-(B3-Pad1)*
X177061600Y-27051000D03*
G04 #@! TD*
G04 #@! TO.P,B4,1*
G04 #@! TO.N,Net-(B4-Pad1)*
X254061601Y-76827800D03*
G04 #@! TD*
G04 #@! TO.P,B5,1*
G04 #@! TO.N,Net-(B5-Pad1)*
X331061601Y-27051000D03*
G04 #@! TD*
G04 #@! TO.P,B6,1*
G04 #@! TO.N,Net-(B6-Pad1)*
X331061601Y-76827800D03*
G04 #@! TD*
G04 #@! TO.P,B7,1*
G04 #@! TO.N,Net-(B7-Pad1)*
X254061601Y-27051000D03*
G04 #@! TD*
G04 #@! TO.P,B8,1*
G04 #@! TO.N,Net-(B8-Pad1)*
X177061600Y-76827800D03*
G04 #@! TD*
G04 #@! TO.P,B10,1*
G04 #@! TO.N,Net-(B10-Pad1)*
X23061600Y-76827800D03*
G04 #@! TD*
G04 #@! TO.P,B12,1*
G04 #@! TO.N,Net-(B12-Pad1)*
X61061600Y-27051000D03*
G04 #@! TD*
D13*
G04 #@! TO.P,RT11,1*
G04 #@! TO.N,/MODULE1_TEMP1_R*
X26032200Y-21513800D03*
G04 #@! TO.P,RT11,2*
G04 #@! TO.N,/GND_R*
X29032200Y-21513800D03*
G04 #@! TD*
G04 #@! TO.P,RT12,2*
G04 #@! TO.N,/GND_R*
X66982600Y-21996400D03*
G04 #@! TO.P,RT12,1*
G04 #@! TO.N,/MODULE1_TEMP2_R*
X63982600Y-21996400D03*
G04 #@! TD*
G04 #@! TO.P,RT21,2*
G04 #@! TO.N,/GND_R*
X105994200Y-82575400D03*
G04 #@! TO.P,RT21,1*
G04 #@! TO.N,/MODULE2_TEMP1_R*
X102994200Y-82575400D03*
G04 #@! TD*
G04 #@! TO.P,RT22,1*
G04 #@! TO.N,/MODULE2_TEMP2_R*
X140155800Y-81635600D03*
G04 #@! TO.P,RT22,2*
G04 #@! TO.N,/GND_R*
X143155800Y-81635600D03*
G04 #@! TD*
G04 #@! TO.P,RT31,1*
G04 #@! TO.N,/MODULE3_TEMP1_R*
X180110000Y-21310600D03*
G04 #@! TO.P,RT31,2*
G04 #@! TO.N,/GND_R*
X183110000Y-21310600D03*
G04 #@! TD*
G04 #@! TO.P,RT32,2*
G04 #@! TO.N,/GND_R*
X220778200Y-21640800D03*
G04 #@! TO.P,RT32,1*
G04 #@! TO.N,/MODULE3_TEMP2_R*
X217778200Y-21640800D03*
G04 #@! TD*
G04 #@! TO.P,RT41,2*
G04 #@! TO.N,/GND_R*
X259969000Y-82042000D03*
G04 #@! TO.P,RT41,1*
G04 #@! TO.N,/MODULE4_TEMP1_R*
X256969000Y-82042000D03*
G04 #@! TD*
G04 #@! TO.P,RT42,1*
G04 #@! TO.N,/MODULE4_TEMP2_R*
X294944800Y-81711800D03*
G04 #@! TO.P,RT42,2*
G04 #@! TO.N,/GND_R*
X297944800Y-81711800D03*
G04 #@! TD*
G04 #@! TO.P,RT51,1*
G04 #@! TO.N,/MODULE5_TEMP1_R*
X334288000Y-21336000D03*
G04 #@! TO.P,RT51,2*
G04 #@! TO.N,/GND_R*
X337288000Y-21336000D03*
G04 #@! TD*
G04 #@! TO.P,RT52,1*
G04 #@! TO.N,/MODULE5_TEMP2_R*
X371702200Y-22098000D03*
G04 #@! TO.P,RT52,2*
G04 #@! TO.N,/GND_R*
X374702200Y-22098000D03*
G04 #@! TD*
D10*
G04 #@! TO.P,J2,5*
G04 #@! TO.N,/MODULE2_TEMP1_R*
X60960000Y-48260000D03*
G04 #@! TO.P,J2,3*
G04 #@! TO.N,/MODULE1_TEMP2_R*
X60960000Y-45720000D03*
G04 #@! TO.P,J2,1*
G04 #@! TO.N,/MODULE1_TEMP1_R*
X60960000Y-43180000D03*
G04 #@! TO.P,J2,7*
G04 #@! TO.N,/MODULE2_TEMP2_R*
X60960000Y-50800000D03*
G04 #@! TO.P,J2,2*
G04 #@! TO.N,/volt1_R*
X63500000Y-44450000D03*
G04 #@! TO.P,J2,4*
G04 #@! TO.N,/V-_R*
X63500000Y-46990000D03*
G04 #@! TO.P,J2,6*
G04 #@! TO.N,/volt2_R*
X63500000Y-49530000D03*
G04 #@! TO.P,J2,8*
G04 #@! TO.N,/MODULE3_TEMP1_R*
X63500000Y-52070000D03*
G04 #@! TO.P,J2,9*
G04 #@! TO.N,/volt3_R*
X60960000Y-53340000D03*
G04 #@! TO.P,J2,10*
G04 #@! TO.N,/MODULE3_TEMP2_R*
X63500000Y-54610000D03*
G04 #@! TO.P,J2,11*
G04 #@! TO.N,/MODULE4_TEMP1_R*
X60960000Y-55880000D03*
G04 #@! TO.P,J2,12*
G04 #@! TO.N,/volt4_R*
X63500000Y-57150000D03*
G04 #@! TO.P,J2,13*
G04 #@! TO.N,/MODULE4_TEMP2_R*
X60960000Y-58420000D03*
G04 #@! TO.P,J2,14*
G04 #@! TO.N,/MODULE5_TEMP1_R*
X63500000Y-59690000D03*
G04 #@! TO.P,J2,15*
G04 #@! TO.N,/volt5_R*
X60960000Y-60960000D03*
G04 #@! TO.P,J2,16*
G04 #@! TO.N,/MODULE5_TEMP2_R*
X63500000Y-62230000D03*
D11*
G04 #@! TO.P,J2,17*
G04 #@! TO.N,N/C*
X62760000Y-41780000D03*
G04 #@! TD*
D10*
G04 #@! TO.P,J4,5*
G04 #@! TO.N,/volt7_R*
X179070000Y-45212000D03*
G04 #@! TO.P,J4,3*
G04 #@! TO.N,/MODULE9_TEMP1_R*
X179070000Y-42672000D03*
G04 #@! TO.P,J4,1*
G04 #@! TO.N,/MODULE9_TEMP2_R*
X179070000Y-40132000D03*
G04 #@! TO.P,J4,7*
G04 #@! TO.N,/MODULE8_TEMP1_R*
X179070000Y-47752000D03*
G04 #@! TO.P,J4,2*
G04 #@! TO.N,/volt9_R*
X181610000Y-41402000D03*
G04 #@! TO.P,J4,4*
G04 #@! TO.N,/MODULE10_TEMP2_R*
X181610000Y-43942000D03*
G04 #@! TO.P,J4,6*
G04 #@! TO.N,/MODULE8_TEMP2_R*
X181610000Y-46482000D03*
G04 #@! TO.P,J4,8*
G04 #@! TO.N,/volt6_R*
X181610000Y-49022000D03*
G04 #@! TO.P,J4,9*
G04 #@! TO.N,/MODULE7_TEMP2_R*
X179070000Y-50292000D03*
G04 #@! TO.P,J4,10*
G04 #@! TO.N,/MODULE7_TEMP1_R*
X181610000Y-51562000D03*
G04 #@! TO.P,J4,11*
G04 #@! TO.N,/volt8_R*
X179070000Y-52832000D03*
G04 #@! TO.P,J4,12*
G04 #@! TO.N,/MODULE6_TEMP2_R*
X181610000Y-54102000D03*
G04 #@! TO.P,J4,13*
G04 #@! TO.N,/MODULE6_TEMP1_R*
X179070000Y-55372000D03*
G04 #@! TO.P,J4,14*
G04 #@! TO.N,/volt10_R*
X181610000Y-56642000D03*
G04 #@! TO.P,J4,15*
G04 #@! TO.N,/MODULE10_TEMP1_R*
X179070000Y-57912000D03*
G04 #@! TO.P,J4,16*
G04 #@! TO.N,/volt11_R*
X181610000Y-59182000D03*
G04 #@! TO.P,J4,17*
G04 #@! TO.N,/V+_R*
X179070000Y-60452000D03*
G04 #@! TO.P,J4,18*
G04 #@! TO.N,Net-(J4-Pad18)*
X181610000Y-61722000D03*
G04 #@! TO.P,J4,19*
G04 #@! TO.N,/GND_R*
X179070000Y-62992000D03*
G04 #@! TO.P,J4,20*
G04 #@! TO.N,Net-(J4-Pad20)*
X181610000Y-64262000D03*
D11*
G04 #@! TO.P,J4,21*
G04 #@! TO.N,N/C*
X180870000Y-38732000D03*
G04 #@! TD*
D12*
G04 #@! TO.P,B9,1*
G04 #@! TO.N,Net-(B9-Pad1)*
X100061600Y-27051000D03*
G04 #@! TD*
D14*
G04 #@! TO.P,F1,1*
G04 #@! TO.N,/volt1_R*
X21209000Y-39725600D03*
G04 #@! TO.P,F1,2*
G04 #@! TO.N,Net-(B1-Pad1)*
X21209000Y-34445600D03*
G04 #@! TD*
D15*
G04 #@! TO.P,F2,1*
G04 #@! TO.N,/volt2_R*
X86664800Y-71755000D03*
G04 #@! TO.P,F2,2*
G04 #@! TO.N,Net-(B2-Pad1)*
X91944800Y-71755000D03*
G04 #@! TD*
G04 #@! TO.P,F3,1*
G04 #@! TO.N,/volt3_R*
X159004000Y-29514800D03*
G04 #@! TO.P,F3,2*
G04 #@! TO.N,Net-(B3-Pad1)*
X164284000Y-29514800D03*
G04 #@! TD*
G04 #@! TO.P,F4,2*
G04 #@! TO.N,Net-(B4-Pad1)*
X245211600Y-73380600D03*
G04 #@! TO.P,F4,1*
G04 #@! TO.N,/volt4_R*
X239931600Y-73380600D03*
G04 #@! TD*
D14*
G04 #@! TO.P,F5,2*
G04 #@! TO.N,Net-(B5-Pad1)*
X331165200Y-34801200D03*
G04 #@! TO.P,F5,1*
G04 #@! TO.N,/volt5_R*
X331165200Y-40081200D03*
G04 #@! TD*
G04 #@! TO.P,F13,1*
G04 #@! TO.N,/V-_R*
X71043800Y-38658800D03*
G04 #@! TO.P,F13,2*
G04 #@! TO.N,Net-(B12-Pad1)*
X71043800Y-33378800D03*
G04 #@! TD*
D16*
G04 #@! TO.N,/MODULE10_TEMP1_R*
X209118200Y-58013600D03*
G04 #@! TO.N,/V+_R*
X200406000Y-60426600D03*
G04 #@! TO.N,/GND_R*
X239064800Y-63881000D03*
G04 #@! TO.N,/volt11_R*
X204724000Y-59232800D03*
G04 #@! TD*
D17*
G04 #@! TO.N,/MODULE5_TEMP2_R*
X324967600Y-67284600D02*
X370154200Y-22098000D01*
X208153000Y-67284600D02*
X324967600Y-67284600D01*
X198704200Y-76733400D02*
X208153000Y-67284600D01*
X370154200Y-22098000D02*
X371702200Y-22098000D01*
X186521072Y-76733400D02*
X198704200Y-76733400D01*
X172017672Y-62230000D02*
X186521072Y-76733400D01*
X63500000Y-62230000D02*
X172017672Y-62230000D01*
G04 #@! TO.N,/MODULE4_TEMP2_R*
X293344600Y-81711800D02*
X294944800Y-81711800D01*
X279527000Y-67894200D02*
X293344600Y-81711800D01*
X59258200Y-62026800D02*
X60501901Y-63270501D01*
X61112400Y-63855600D02*
X172821600Y-63855600D01*
X60960000Y-58420000D02*
X59258200Y-60121800D01*
X172821600Y-63855600D02*
X186385200Y-77419200D01*
X60501901Y-63270501D02*
X60527301Y-63270501D01*
X59258200Y-60121800D02*
X59258200Y-62026800D01*
X186385200Y-77419200D02*
X198958200Y-77419200D01*
X60527301Y-63270501D02*
X61112400Y-63855600D01*
X198958200Y-77419200D02*
X208483200Y-67894200D01*
X208483200Y-67894200D02*
X279527000Y-67894200D01*
G04 #@! TO.N,/volt4_R*
X58166000Y-58597800D02*
X58166000Y-62179200D01*
X179818663Y-71808991D02*
X186165472Y-78155800D01*
X59613800Y-57150000D02*
X58166000Y-58597800D01*
X172643800Y-64643000D02*
X179809791Y-71808991D01*
X58166000Y-62179200D02*
X60629800Y-64643000D01*
X63500000Y-57150000D02*
X59613800Y-57150000D01*
X60629800Y-64643000D02*
X172643800Y-64643000D01*
X179809791Y-71808991D02*
X179818663Y-71808991D01*
X186165472Y-78155800D02*
X199339200Y-78155800D01*
X238660600Y-73380600D02*
X238025600Y-72745600D01*
X239931600Y-73380600D02*
X238660600Y-73380600D01*
X199339200Y-78155800D02*
X204749400Y-72745600D01*
X238025600Y-72745600D02*
X204749400Y-72745600D01*
G04 #@! TO.N,/MODULE4_TEMP1_R*
X56743600Y-58496200D02*
X59359800Y-55880000D01*
X56743600Y-61899800D02*
X56743600Y-58496200D01*
X204571600Y-73964800D02*
X199796400Y-78740000D01*
X256969000Y-82042000D02*
X254762000Y-82042000D01*
X199796400Y-78740000D02*
X185928000Y-78740000D01*
X185928000Y-78740000D02*
X179578000Y-72390000D01*
X59359800Y-55880000D02*
X60960000Y-55880000D01*
X179569128Y-72390000D02*
X172457128Y-65278000D01*
X179578000Y-72390000D02*
X179569128Y-72390000D01*
X172457128Y-65278000D02*
X60121800Y-65278000D01*
X60121800Y-65278000D02*
X56743600Y-61899800D01*
X222224600Y-78333600D02*
X217855800Y-73964800D01*
X217855800Y-73964800D02*
X204571600Y-73964800D01*
X251053600Y-78333600D02*
X222224600Y-78333600D01*
X254762000Y-82042000D02*
X251053600Y-78333600D01*
G04 #@! TO.N,/MODULE2_TEMP2_R*
X57734200Y-50800000D02*
X60960000Y-50800000D01*
X55575200Y-63500000D02*
X55575200Y-52959000D01*
X124002800Y-66598800D02*
X58674000Y-66598800D01*
X55575200Y-52959000D02*
X57734200Y-50800000D01*
X140155800Y-81635600D02*
X139024800Y-81635600D01*
X135407400Y-78003400D02*
X124002800Y-66598800D01*
X58674000Y-66598800D02*
X55575200Y-63500000D01*
X139024800Y-81635600D02*
X135407400Y-78018200D01*
X135407400Y-78018200D02*
X135407400Y-78003400D01*
G04 #@! TO.N,/volt2_R*
X54686200Y-63855600D02*
X54686200Y-52298600D01*
X54686200Y-52298600D02*
X57454800Y-49530000D01*
X57454800Y-49530000D02*
X63500000Y-49530000D01*
X86664800Y-71755000D02*
X62585600Y-71755000D01*
X62585600Y-71755000D02*
X60883800Y-70053200D01*
X60883800Y-70053200D02*
X54686200Y-63855600D01*
G04 #@! TO.N,/MODULE2_TEMP1_R*
X95529400Y-77216000D02*
X100888800Y-82575400D01*
X66624200Y-77216000D02*
X95529400Y-77216000D01*
X53568600Y-64160400D02*
X66624200Y-77216000D01*
X100888800Y-82575400D02*
X102994200Y-82575400D01*
X53568600Y-51892200D02*
X53568600Y-64160400D01*
X57200800Y-48260000D02*
X53568600Y-51892200D01*
X60960000Y-48260000D02*
X57200800Y-48260000D01*
G04 #@! TO.N,/volt5_R*
X180340000Y-69570600D02*
X180721000Y-69951600D01*
X170302911Y-59533511D02*
X180721000Y-69951600D01*
X70793889Y-59533511D02*
X170302911Y-59533511D01*
X69367400Y-60960000D02*
X70793889Y-59533511D01*
X60960000Y-60960000D02*
X69367400Y-60960000D01*
X331165200Y-40081200D02*
X331165200Y-41352200D01*
X316868190Y-66595610D02*
X331165200Y-52298600D01*
X207851390Y-66595610D02*
X316868190Y-66595610D01*
X331165200Y-52298600D02*
X331165200Y-41352200D01*
X180721000Y-69951600D02*
X186817000Y-76047600D01*
X186817000Y-76047600D02*
X198399400Y-76047600D01*
X198399400Y-76047600D02*
X207851390Y-66595610D01*
G04 #@! TO.N,/MODULE5_TEMP1_R*
X332232000Y-21336000D02*
X334288000Y-21336000D01*
X65156737Y-58952501D02*
X170543573Y-58952501D01*
X207518000Y-66014600D02*
X287553400Y-66014600D01*
X64419238Y-59690000D02*
X65156737Y-58952501D01*
X170543573Y-58952501D02*
X187003672Y-75412600D01*
X63500000Y-59690000D02*
X64419238Y-59690000D01*
X187003672Y-75412600D02*
X198145400Y-75412600D01*
X198145400Y-75412600D02*
X202768200Y-70789800D01*
X202768200Y-70789800D02*
X202768200Y-70764400D01*
X202768200Y-70764400D02*
X207518000Y-66014600D01*
X287553400Y-66014600D02*
X332232000Y-21336000D01*
G04 #@! TO.N,/volt3_R*
X62839600Y-50800000D02*
X62052200Y-51587400D01*
X62052200Y-52247800D02*
X60960000Y-53340000D01*
X62052200Y-51587400D02*
X62052200Y-52247800D01*
X155016200Y-29514800D02*
X133731000Y-50800000D01*
X133731000Y-50800000D02*
X62839600Y-50800000D01*
X159004000Y-29514800D02*
X155016200Y-29514800D01*
G04 #@! TO.N,/MODULE3_TEMP2_R*
X149352000Y-54610000D02*
X63500000Y-54610000D01*
X173101000Y-30861000D02*
X149352000Y-54610000D01*
X179349400Y-30861000D02*
X173101000Y-30861000D01*
X211559790Y-26616010D02*
X183594390Y-26616010D01*
X183594390Y-26616010D02*
X179349400Y-30861000D01*
X216535000Y-21640800D02*
X211559790Y-26616010D01*
X217778200Y-21640800D02*
X216535000Y-21640800D01*
G04 #@! TO.N,/MODULE1_TEMP1_R*
X26032200Y-23894800D02*
X26032200Y-21513800D01*
X60960000Y-43180000D02*
X60040762Y-43180000D01*
X31169600Y-29032200D02*
X26032200Y-23894800D01*
X60040762Y-43180000D02*
X45892962Y-29032200D01*
X45892962Y-29032200D02*
X31169600Y-29032200D01*
G04 #@! TO.N,/MODULE1_TEMP2_R*
X64439800Y-45720000D02*
X60960000Y-45720000D01*
X61642750Y-21996400D02*
X57327800Y-26311350D01*
X63982600Y-21996400D02*
X61642750Y-21996400D01*
X57327800Y-26311350D02*
X57327800Y-32918400D01*
X57327800Y-32918400D02*
X65405000Y-40995600D01*
X65405000Y-40995600D02*
X65405000Y-44754800D01*
X65405000Y-44754800D02*
X64439800Y-45720000D01*
G04 #@! TO.N,/MODULE3_TEMP1_R*
X150749000Y-52070000D02*
X63500000Y-52070000D01*
X172542200Y-30276800D02*
X150749000Y-52070000D01*
X178968400Y-30276800D02*
X172542200Y-30276800D01*
X180873400Y-28371800D02*
X178968400Y-30276800D01*
X180873400Y-25374600D02*
X180873400Y-28371800D01*
X180110000Y-24611200D02*
X180873400Y-25374600D01*
X180110000Y-21310600D02*
X180110000Y-24611200D01*
G04 #@! TO.N,/volt8_R*
X234314101Y-52909099D02*
X233375200Y-53848000D01*
X180110501Y-47269400D02*
X179552600Y-46711499D01*
X231241600Y-36195000D02*
X233324400Y-38277800D01*
X179552600Y-46711499D02*
X179070899Y-46711499D01*
X180110501Y-48285400D02*
X180110501Y-47269400D01*
X178358800Y-45999400D02*
X178317458Y-45999400D01*
X179654200Y-48707742D02*
X180076542Y-48285400D01*
X179070000Y-52832000D02*
X179070000Y-51831942D01*
X180110501Y-50791441D02*
X180110501Y-49792559D01*
X180110501Y-49792559D02*
X179654200Y-49336258D01*
X180076542Y-48285400D02*
X180110501Y-48285400D01*
X179070899Y-46711499D02*
X178358800Y-45999400D01*
X190068200Y-36195000D02*
X231241600Y-36195000D01*
X179654200Y-49336258D02*
X179654200Y-48707742D01*
X233324400Y-44738858D02*
X234314101Y-45728559D01*
X178317458Y-45999400D02*
X175818800Y-43500742D01*
X175818800Y-43500742D02*
X175818800Y-38811200D01*
X179070000Y-51831942D02*
X180110501Y-50791441D01*
X175818800Y-38811200D02*
X179730400Y-34899600D01*
X179730400Y-34899600D02*
X188772800Y-34899600D01*
X188772800Y-34899600D02*
X190068200Y-36195000D01*
X233324400Y-38277800D02*
X233324400Y-44738858D01*
X234314101Y-45728559D02*
X234314101Y-52909099D01*
G04 #@! TO.N,/MODULE10_TEMP1_R*
X179989238Y-57912000D02*
X180014638Y-57937400D01*
X179070000Y-57912000D02*
X179989238Y-57912000D01*
X209016600Y-57912000D02*
X209118200Y-58013600D01*
X179989238Y-57912000D02*
X209016600Y-57912000D01*
G04 #@! TO.N,/MODULE10_TEMP2_R*
X181610000Y-43942000D02*
X203276200Y-43942000D01*
X203276200Y-43942000D02*
X220116400Y-60782200D01*
X220116400Y-60782200D02*
X227533200Y-60782200D01*
X229565200Y-58750200D02*
X229565200Y-56388000D01*
X227533200Y-60782200D02*
X229565200Y-58750200D01*
G04 #@! TO.N,/V+_R*
X200380600Y-60452000D02*
X200406000Y-60426600D01*
X179070000Y-60452000D02*
X200380600Y-60452000D01*
G04 #@! TO.N,/volt10_R*
X180695600Y-47032827D02*
X180695600Y-48082200D01*
X180569499Y-46906726D02*
X180695600Y-47032827D01*
X182109441Y-53061499D02*
X182650501Y-53602559D01*
X180569499Y-43204501D02*
X180569499Y-46906726D01*
X181102000Y-42672000D02*
X180569499Y-43204501D01*
X203631800Y-42672000D02*
X181102000Y-42672000D01*
X180695600Y-48082200D02*
X180691511Y-48086289D01*
X225277438Y-59055000D02*
X220014800Y-59055000D01*
X181110559Y-53061499D02*
X182109441Y-53061499D01*
X227025200Y-57307238D02*
X225277438Y-59055000D01*
X182259999Y-55992001D02*
X181610000Y-56642000D01*
X227025200Y-56388000D02*
X227025200Y-57307238D01*
X180517800Y-51205814D02*
X180517800Y-52468740D01*
X180691511Y-48086289D02*
X180691511Y-48526062D01*
X180691511Y-48526062D02*
X180373373Y-48844200D01*
X180373373Y-48844200D02*
X180373373Y-49233759D01*
X180373373Y-49233759D02*
X180691511Y-49551897D01*
X220014800Y-59055000D02*
X203631800Y-42672000D01*
X180517800Y-52468740D02*
X181110559Y-53061499D01*
X180691511Y-51032103D02*
X180517800Y-51205814D01*
X182650501Y-53602559D02*
X182650501Y-55601499D01*
X180691511Y-49551897D02*
X180691511Y-51032103D01*
X182650501Y-55601499D02*
X182259999Y-55992001D01*
G04 #@! TO.N,/MODULE8_TEMP2_R*
X181610000Y-46482000D02*
X204470000Y-46482000D01*
X204470000Y-46482000D02*
X219557600Y-61569600D01*
X219557600Y-61569600D02*
X231698800Y-61569600D01*
X234645200Y-58623200D02*
X234645200Y-56388000D01*
X231698800Y-61569600D02*
X234645200Y-58623200D01*
G04 #@! TO.N,/MODULE8_TEMP1_R*
X178150762Y-47752000D02*
X179070000Y-47752000D01*
X178337866Y-34496390D02*
X174701200Y-38133056D01*
X178338474Y-34496998D02*
X178337866Y-34496390D01*
X174701200Y-44302438D02*
X178150762Y-47752000D01*
X237134400Y-50495200D02*
X237134400Y-46008858D01*
X174701200Y-38133056D02*
X174701200Y-44302438D01*
X237134400Y-46008858D02*
X235839000Y-44713458D01*
X235915200Y-51714400D02*
X237134400Y-50495200D01*
X229819200Y-33680400D02*
X196367400Y-33680400D01*
X235915200Y-53848000D02*
X235915200Y-51714400D01*
X235839000Y-44713458D02*
X235839000Y-39700200D01*
X235839000Y-39700200D02*
X229819200Y-33680400D01*
X196367400Y-33680400D02*
X193548000Y-30861000D01*
X178338474Y-34496998D02*
X179104272Y-33731200D01*
X187629800Y-33731200D02*
X190500000Y-30861000D01*
X179104272Y-33731200D02*
X187629800Y-33731200D01*
X193548000Y-30861000D02*
X190500000Y-30861000D01*
G04 #@! TO.N,/MODULE9_TEMP2_R*
X220903800Y-40132000D02*
X179070000Y-40132000D01*
X223164400Y-42392600D02*
X220903800Y-40132000D01*
X223164400Y-44272200D02*
X223164400Y-42392600D01*
X225755200Y-53848000D02*
X225755200Y-48742600D01*
X224409000Y-45516800D02*
X223164400Y-44272200D01*
X225755200Y-48742600D02*
X224409000Y-47396400D01*
X224409000Y-47396400D02*
X224409000Y-45516800D01*
G04 #@! TO.N,/volt9_R*
X224485200Y-56388000D02*
X224485200Y-52374800D01*
X182529238Y-41402000D02*
X181610000Y-41402000D01*
X182554638Y-41376600D02*
X182529238Y-41402000D01*
X224485200Y-52374800D02*
X213487000Y-41376600D01*
X213487000Y-41376600D02*
X182554638Y-41376600D01*
G04 #@! TO.N,/MODULE9_TEMP1_R*
X228295200Y-49606200D02*
X228295200Y-53848000D01*
X229489000Y-48412400D02*
X228295200Y-49606200D01*
X179070000Y-42672000D02*
X178150762Y-42672000D01*
X187248800Y-38506400D02*
X224637600Y-38506400D01*
X229489000Y-45491400D02*
X229489000Y-48412400D01*
X228117400Y-44119800D02*
X229489000Y-45491400D01*
X224637600Y-38506400D02*
X228117400Y-41986200D01*
X228117400Y-41986200D02*
X228117400Y-44119800D01*
X177439562Y-41960800D02*
X177439562Y-39349438D01*
X178150762Y-42672000D02*
X177439562Y-41960800D01*
X179832000Y-36957000D02*
X185699400Y-36957000D01*
X177439562Y-39349438D02*
X179832000Y-36957000D01*
X185699400Y-36957000D02*
X187248800Y-38506400D01*
G04 #@! TO.N,/volt7_R*
X231774101Y-49988099D02*
X230835200Y-50927000D01*
X176858553Y-39108775D02*
X179924728Y-36042600D01*
X230835200Y-50927000D02*
X230835200Y-53848000D01*
X176858552Y-43000552D02*
X176858553Y-39108775D01*
X186588400Y-36042600D02*
X188239400Y-37693600D01*
X179070000Y-45212000D02*
X176858552Y-43000552D01*
X188239400Y-37693600D02*
X225120200Y-37693600D01*
X225120200Y-37693600D02*
X230963099Y-43536499D01*
X231774101Y-45728559D02*
X231774101Y-49988099D01*
X230963099Y-43536499D02*
X230963099Y-44917557D01*
X179924728Y-36042600D02*
X186588400Y-36042600D01*
X230963099Y-44917557D02*
X231774101Y-45728559D01*
G04 #@! TO.N,/MODULE7_TEMP2_R*
X173964600Y-45186600D02*
X179070000Y-50292000D01*
X173964600Y-38047984D02*
X173964600Y-45186600D01*
X177977800Y-34034784D02*
X173964600Y-38047984D01*
X177979016Y-34034784D02*
X177977800Y-34034784D01*
X239394101Y-45693701D02*
X238353600Y-44653200D01*
X238455200Y-48768000D02*
X239394101Y-47829099D01*
X230784400Y-32943800D02*
X197408800Y-32943800D01*
X239394101Y-47829099D02*
X239394101Y-45693701D01*
X197408800Y-32943800D02*
X194462400Y-29997400D01*
X238353600Y-44653200D02*
X238353600Y-40513000D01*
X238455200Y-53848000D02*
X238455200Y-48768000D01*
X238353600Y-40513000D02*
X230784400Y-32943800D01*
X187274200Y-32969200D02*
X190246000Y-29997400D01*
X179044600Y-32969200D02*
X187274200Y-32969200D01*
X179044600Y-32969200D02*
X177979016Y-34034784D01*
X194462400Y-29997400D02*
X190246000Y-29997400D01*
G04 #@! TO.N,/MODULE7_TEMP1_R*
X182259999Y-52211999D02*
X206669399Y-52211999D01*
X181610000Y-51562000D02*
X182259999Y-52211999D01*
X206669399Y-52211999D02*
X218389200Y-63931800D01*
X218389200Y-63931800D02*
X237210600Y-63931800D01*
X242265200Y-58877200D02*
X242265200Y-56388000D01*
X237210600Y-63931800D02*
X242265200Y-58877200D01*
G04 #@! TO.N,/MODULE6_TEMP1_R*
X176987200Y-55372000D02*
X179070000Y-55372000D01*
X178416498Y-31463702D02*
X172212000Y-37668200D01*
X244474101Y-45287301D02*
X243611400Y-44424600D01*
X244474101Y-51989861D02*
X244474101Y-45287301D01*
X172212000Y-50596800D02*
X176987200Y-55372000D01*
X243535200Y-53848000D02*
X243535200Y-52928762D01*
X243535200Y-52928762D02*
X244474101Y-51989861D01*
X172212000Y-37668200D02*
X172212000Y-50596800D01*
X243611400Y-40259000D02*
X234902390Y-31549990D01*
X186646098Y-31463702D02*
X178416498Y-31463702D01*
X234902390Y-31549990D02*
X198487662Y-31549990D01*
X189557010Y-28552790D02*
X186646098Y-31463702D01*
X243611400Y-44424600D02*
X243611400Y-40259000D01*
X198487662Y-31549990D02*
X195490462Y-28552790D01*
X195490462Y-28552790D02*
X189557010Y-28552790D01*
G04 #@! TO.N,/volt6_R*
X182529238Y-49022000D02*
X182554638Y-49047400D01*
X181610000Y-49022000D02*
X182529238Y-49022000D01*
X182554638Y-49047400D02*
X205181200Y-49047400D01*
X205181200Y-49047400D02*
X218948000Y-62814200D01*
X218948000Y-62814200D02*
X234238800Y-62814200D01*
X237185200Y-59867800D02*
X237185200Y-56388000D01*
X234238800Y-62814200D02*
X237185200Y-59867800D01*
G04 #@! TO.N,/MODULE6_TEMP2_R*
X240664101Y-43728443D02*
X240664101Y-39216701D01*
X241934101Y-44998443D02*
X240664101Y-43728443D01*
X241934101Y-52909099D02*
X241934101Y-44998443D01*
X240995200Y-53848000D02*
X241934101Y-52909099D01*
X233578400Y-32131000D02*
X225298000Y-32131000D01*
X240664101Y-39216701D02*
X233578400Y-32131000D01*
X225298000Y-32131000D02*
X225602800Y-32131000D01*
X195249800Y-29133800D02*
X198247000Y-32131000D01*
X189915800Y-29133800D02*
X195249800Y-29133800D01*
X187004888Y-32044712D02*
X189915800Y-29133800D01*
X181610000Y-54102000D02*
X178800058Y-54102000D01*
X173177200Y-38013712D02*
X179146200Y-32044712D01*
X179146200Y-32044712D02*
X187004888Y-32044712D01*
X178800058Y-54102000D02*
X173177200Y-48479142D01*
X198247000Y-32131000D02*
X225298000Y-32131000D01*
X173177200Y-48479142D02*
X173177200Y-38013712D01*
G04 #@! TO.N,/GND_R*
X29032200Y-24180800D02*
X29032200Y-21513800D01*
X62052200Y-18745200D02*
X60858400Y-19939000D01*
X57792885Y-24934915D02*
X56210200Y-26517600D01*
X66370200Y-18745200D02*
X62052200Y-18745200D01*
X56210200Y-26517600D02*
X31369000Y-26517600D01*
X31369000Y-26517600D02*
X29032200Y-24180800D01*
X66982600Y-19357600D02*
X66370200Y-18745200D01*
X66982600Y-21996400D02*
X66982600Y-19357600D01*
X60858400Y-19939000D02*
X60858400Y-21851885D01*
X60858400Y-21851885D02*
X57792885Y-24917400D01*
X57792885Y-24917400D02*
X57792885Y-24934915D01*
X213461600Y-20980400D02*
X215823800Y-18618200D01*
X213461600Y-23545800D02*
X213461600Y-20980400D01*
X183110000Y-21310600D02*
X183110000Y-23691600D01*
X220522800Y-18618200D02*
X220778200Y-18873600D01*
X215823800Y-18618200D02*
X220522800Y-18618200D01*
X183110000Y-23691600D02*
X185453400Y-26035000D01*
X220778200Y-18873600D02*
X220778200Y-21640800D01*
X210972400Y-26035000D02*
X213461600Y-23545800D01*
X185453400Y-26035000D02*
X210972400Y-26035000D01*
X220778200Y-24021800D02*
X220778200Y-21640800D01*
X330225400Y-22484886D02*
X321849286Y-30861000D01*
X330225400Y-20142200D02*
X330225400Y-22484886D01*
X331774800Y-18592800D02*
X330225400Y-20142200D01*
X336925800Y-18592800D02*
X331774800Y-18592800D01*
X337288000Y-18955000D02*
X336925800Y-18592800D01*
X337288000Y-21336000D02*
X337288000Y-18955000D01*
X374142000Y-18643600D02*
X374702200Y-19203800D01*
X369874800Y-18643600D02*
X374142000Y-18643600D01*
X337288000Y-21336000D02*
X337288000Y-23717000D01*
X337288000Y-23717000D02*
X339275800Y-25704800D01*
X374702200Y-19203800D02*
X374702200Y-22098000D01*
X368173000Y-20345400D02*
X369874800Y-18643600D01*
X368173000Y-22936200D02*
X368173000Y-20345400D01*
X365404400Y-25704800D02*
X368173000Y-22936200D01*
X339275800Y-25704800D02*
X365404400Y-25704800D01*
X374702200Y-24479000D02*
X374751600Y-24528400D01*
X374702200Y-22098000D02*
X374702200Y-24479000D01*
X374751600Y-24966270D02*
X323949670Y-75768200D01*
X374751600Y-24528400D02*
X374751600Y-24966270D01*
X323949670Y-75768200D02*
X299872400Y-75768200D01*
X297944800Y-79330800D02*
X297916600Y-79302600D01*
X297944800Y-81711800D02*
X297944800Y-79330800D01*
X297916600Y-77724000D02*
X298119800Y-77520800D01*
X297916600Y-79302600D02*
X297916600Y-77724000D01*
X299872400Y-75768200D02*
X298119800Y-77520800D01*
X287985200Y-77851000D02*
X261442200Y-77851000D01*
X292430200Y-84048600D02*
X292430200Y-82296000D01*
X293497000Y-85115400D02*
X292430200Y-84048600D01*
X292430200Y-82296000D02*
X287985200Y-77851000D01*
X296922200Y-85115400D02*
X293497000Y-85115400D01*
X297944800Y-84092800D02*
X296922200Y-85115400D01*
X297944800Y-81711800D02*
X297944800Y-84092800D01*
X259969000Y-79324200D02*
X259969000Y-82042000D01*
X261442200Y-77851000D02*
X259969000Y-79324200D01*
X179222400Y-73177400D02*
X148158200Y-73177400D01*
X148158200Y-73177400D02*
X143155800Y-78179800D01*
X143155800Y-78179800D02*
X143155800Y-81635600D01*
X143155800Y-84016600D02*
X142184000Y-84988400D01*
X143155800Y-81635600D02*
X143155800Y-84016600D01*
X142184000Y-84988400D02*
X138353800Y-84988400D01*
X138353800Y-84988400D02*
X136474200Y-83108800D01*
X136474200Y-83108800D02*
X136474200Y-80416400D01*
X136474200Y-80416400D02*
X134772400Y-78714600D01*
X134772400Y-78714600D02*
X106730800Y-78714600D01*
X105994200Y-79451200D02*
X105994200Y-82575400D01*
X106730800Y-78714600D02*
X105994200Y-79451200D01*
X225229800Y-28473400D02*
X247548400Y-28473400D01*
X247548400Y-28473400D02*
X249936000Y-30861000D01*
X225229800Y-28473400D02*
X220778200Y-24021800D01*
X321849286Y-30861000D02*
X249936000Y-30861000D01*
X223164400Y-28624400D02*
X220778200Y-26238200D01*
X223164400Y-28625800D02*
X223164400Y-28624400D01*
X234823000Y-29616400D02*
X224155000Y-29616400D01*
X248615200Y-43408600D02*
X234823000Y-29616400D01*
X246115643Y-55347499D02*
X248615200Y-52847942D01*
X224155000Y-29616400D02*
X223164400Y-28625800D01*
X239725200Y-56388000D02*
X240765701Y-55347499D01*
X240765701Y-55347499D02*
X246115643Y-55347499D01*
X220778200Y-26238200D02*
X220778200Y-21640800D01*
X248615200Y-52847942D02*
X248615200Y-43408600D01*
X179070000Y-62992000D02*
X181879942Y-62992000D01*
X181879942Y-62992000D02*
X215823800Y-62992000D01*
X215823800Y-62992000D02*
X217982800Y-65151000D01*
X237794800Y-65151000D02*
X239064800Y-63881000D01*
X217982800Y-65151000D02*
X237794800Y-65151000D01*
X179400200Y-73355200D02*
X179400200Y-73329800D01*
X179400200Y-73355200D02*
X179222400Y-73177400D01*
X66982600Y-24377400D02*
X66982600Y-21996400D01*
X183110000Y-21310600D02*
X183110000Y-18848200D01*
X146735800Y-24968200D02*
X141147800Y-30556200D01*
X183110000Y-18848200D02*
X182803800Y-18542000D01*
X176276000Y-20828000D02*
X176276000Y-23164800D01*
X176276000Y-23164800D02*
X174472600Y-24968200D01*
X182803800Y-18542000D02*
X178562000Y-18542000D01*
X141147800Y-30556200D02*
X73161400Y-30556200D01*
X178562000Y-18542000D02*
X176276000Y-20828000D01*
X174472600Y-24968200D02*
X146735800Y-24968200D01*
X73161400Y-30556200D02*
X66982600Y-24377400D01*
X259200400Y-85191600D02*
X259969000Y-84423000D01*
X200037062Y-79321010D02*
X200287872Y-79070200D01*
X259969000Y-84423000D02*
X259969000Y-82042000D01*
X179400200Y-73355200D02*
X185366010Y-79321010D01*
X200287872Y-79070200D02*
X212750400Y-79070200D01*
X185366010Y-79321010D02*
X200037062Y-79321010D01*
X213039770Y-79359570D02*
X251191056Y-79359570D01*
X254965200Y-85191600D02*
X259200400Y-85191600D01*
X251191056Y-79359570D02*
X251993400Y-80161914D01*
X212750400Y-79070200D02*
X213039770Y-79359570D01*
X251993400Y-80161914D02*
X251993400Y-82219800D01*
X251993400Y-82219800D02*
X254965200Y-85191600D01*
G04 #@! TO.N,/volt11_R*
X204673200Y-59182000D02*
X204724000Y-59232800D01*
X181610000Y-59182000D02*
X204673200Y-59182000D01*
G04 #@! TO.N,Net-(J3-Pad19)*
X244805200Y-56388000D02*
X245034699Y-56158501D01*
G04 #@! TO.N,Net-(B1-Pad1)*
X23061600Y-27051000D02*
X23061600Y-30811800D01*
X21209000Y-32664400D02*
X21209000Y-34445600D01*
X23061600Y-30811800D02*
X21209000Y-32664400D01*
G04 #@! TO.N,Net-(B2-Pad1)*
X98275573Y-71755000D02*
X93215800Y-71755000D01*
X93215800Y-71755000D02*
X91944800Y-71755000D01*
X100061600Y-73541027D02*
X98275573Y-71755000D01*
X100061600Y-76827800D02*
X100061600Y-73541027D01*
G04 #@! TO.N,Net-(B3-Pad1)*
X174597800Y-29514800D02*
X177061600Y-27051000D01*
X164284000Y-29514800D02*
X174597800Y-29514800D01*
G04 #@! TO.N,Net-(B4-Pad1)*
X250614401Y-73380600D02*
X250766801Y-73533000D01*
X245211600Y-73380600D02*
X250614401Y-73380600D01*
X250766801Y-73533000D02*
X254061601Y-76827800D01*
X250617591Y-73383790D02*
X250766801Y-73533000D01*
G04 #@! TO.N,Net-(B5-Pad1)*
X331165200Y-27154599D02*
X331061601Y-27051000D01*
X331165200Y-34801200D02*
X331165200Y-27154599D01*
G04 #@! TO.N,Net-(B12-Pad1)*
X67389400Y-33378800D02*
X61061600Y-27051000D01*
X71043800Y-33378800D02*
X67389400Y-33378800D01*
G04 #@! TO.N,/volt1_R*
X62580762Y-44450000D02*
X63500000Y-44450000D01*
X24662400Y-44450000D02*
X37515800Y-44450000D01*
X21209000Y-40996600D02*
X24662400Y-44450000D01*
X37515800Y-44450000D02*
X62580762Y-44450000D01*
X21209000Y-39725600D02*
X21209000Y-40996600D01*
X37173827Y-44450000D02*
X37515800Y-44450000D01*
G04 #@! TO.N,/V-_R*
X63500000Y-46990000D02*
X64419238Y-46990000D01*
X71043800Y-38658800D02*
X71043800Y-40365438D01*
X65460638Y-45948600D02*
X67132200Y-44277038D01*
X71043800Y-40365438D02*
X65460638Y-45948600D01*
X64419238Y-46990000D02*
X65460638Y-45948600D01*
G04 #@! TD*
M02*
