G04 #@! TF.GenerationSoftware,KiCad,Pcbnew,5.0.2-bee76a0~70~ubuntu16.04.1*
G04 #@! TF.CreationDate,2019-03-25T22:30:45-04:00*
G04 #@! TF.ProjectId,BMS_Structural,424d535f-5374-4727-9563-747572616c2e,rev?*
G04 #@! TF.SameCoordinates,Original*
G04 #@! TF.FileFunction,Copper,L2,Bot*
G04 #@! TF.FilePolarity,Positive*
%FSLAX46Y46*%
G04 Gerber Fmt 4.6, Leading zero omitted, Abs format (unit mm)*
G04 Created by KiCad (PCBNEW 5.0.2-bee76a0~70~ubuntu16.04.1) date Mon 25 Mar 2019 10:30:45 PM EDT*
%MOMM*%
%LPD*%
G01*
G04 APERTURE LIST*
G04 #@! TA.AperFunction,ComponentPad*
%ADD10C,1.300000*%
G04 #@! TD*
G04 #@! TA.AperFunction,ComponentPad*
%ADD11C,2.000000*%
G04 #@! TD*
G04 #@! TA.AperFunction,ComponentPad*
%ADD12C,4.648200*%
G04 #@! TD*
G04 #@! TA.AperFunction,SMDPad,CuDef*
%ADD13R,1.500000X4.000000*%
G04 #@! TD*
G04 #@! TA.AperFunction,SMDPad,CuDef*
%ADD14R,3.500000X1.780000*%
G04 #@! TD*
G04 #@! TA.AperFunction,SMDPad,CuDef*
%ADD15R,1.780000X3.500000*%
G04 #@! TD*
G04 #@! TA.AperFunction,ViaPad*
%ADD16C,0.800000*%
G04 #@! TD*
G04 #@! TA.AperFunction,Conductor*
%ADD17C,0.381000*%
G04 #@! TD*
G04 APERTURE END LIST*
D10*
G04 #@! TO.P,J1,5*
G04 #@! TO.N,/volt10_L*
X226923600Y-43688000D03*
G04 #@! TO.P,J1,3*
G04 #@! TO.N,/volt9_L*
X224383600Y-43688000D03*
G04 #@! TO.P,J1,1*
G04 #@! TO.N,/volt11_L*
X221843600Y-43688000D03*
G04 #@! TO.P,J1,7*
G04 #@! TO.N,/MODULE10_TEMP2_L*
X229463600Y-43688000D03*
G04 #@! TO.P,J1,2*
G04 #@! TO.N,/V+_L*
X223113600Y-46228000D03*
G04 #@! TO.P,J1,4*
G04 #@! TO.N,/MODULE9_TEMP2_L*
X225653600Y-46228000D03*
G04 #@! TO.P,J1,6*
G04 #@! TO.N,/MODULE9_TEMP1_L*
X228193600Y-46228000D03*
G04 #@! TO.P,J1,8*
G04 #@! TO.N,/volt7_L*
X230733600Y-46228000D03*
G04 #@! TO.P,J1,9*
G04 #@! TO.N,/MODULE10_TEMP1_L*
X232003600Y-43688000D03*
G04 #@! TO.P,J1,10*
G04 #@! TO.N,/volt8_L*
X233273600Y-46228000D03*
G04 #@! TO.P,J1,11*
G04 #@! TO.N,/MODULE8_TEMP2_L*
X234543600Y-43688000D03*
G04 #@! TO.P,J1,12*
G04 #@! TO.N,/MODULE8_TEMP1_L*
X235813600Y-46228000D03*
G04 #@! TO.P,J1,13*
G04 #@! TO.N,/volt6_L*
X237083600Y-43688000D03*
G04 #@! TO.P,J1,14*
G04 #@! TO.N,/MODULE7_TEMP2_L*
X238353600Y-46228000D03*
G04 #@! TO.P,J1,15*
G04 #@! TO.N,/GND_L*
X239623600Y-43688000D03*
G04 #@! TO.P,J1,16*
G04 #@! TO.N,/MODULE6_TEMP2_L*
X240893600Y-46228000D03*
G04 #@! TO.P,J1,17*
G04 #@! TO.N,/MODULE7_TEMP1_L*
X242163600Y-43688000D03*
G04 #@! TO.P,J1,18*
G04 #@! TO.N,/MODULE6_TEMP1_L*
X243433600Y-46228000D03*
G04 #@! TO.P,J1,19*
G04 #@! TO.N,Net-(J1-Pad19)*
X244703600Y-43688000D03*
G04 #@! TO.P,J1,20*
G04 #@! TO.N,Net-(J1-Pad20)*
X245973600Y-46228000D03*
D11*
G04 #@! TO.P,J1,21*
G04 #@! TO.N,N/C*
X220443600Y-45488000D03*
G04 #@! TD*
D10*
G04 #@! TO.P,J3,5*
G04 #@! TO.N,/volt10_R*
X227025200Y-56388000D03*
G04 #@! TO.P,J3,3*
G04 #@! TO.N,/volt9_R*
X224485200Y-56388000D03*
G04 #@! TO.P,J3,1*
G04 #@! TO.N,/volt11_R*
X221945200Y-56388000D03*
G04 #@! TO.P,J3,7*
G04 #@! TO.N,/MODULE10_TEMP2_R*
X229565200Y-56388000D03*
G04 #@! TO.P,J3,2*
G04 #@! TO.N,/V+_R*
X223215200Y-53848000D03*
G04 #@! TO.P,J3,4*
G04 #@! TO.N,/MODULE9_TEMP2_R*
X225755200Y-53848000D03*
G04 #@! TO.P,J3,6*
G04 #@! TO.N,/MODULE9_TEMP1_R*
X228295200Y-53848000D03*
G04 #@! TO.P,J3,8*
G04 #@! TO.N,/volt7_R*
X230835200Y-53848000D03*
G04 #@! TO.P,J3,9*
G04 #@! TO.N,/MODULE10_TEMP1_R*
X232105200Y-56388000D03*
G04 #@! TO.P,J3,10*
G04 #@! TO.N,/volt8_R*
X233375200Y-53848000D03*
G04 #@! TO.P,J3,11*
G04 #@! TO.N,/MODULE8_TEMP2_R*
X234645200Y-56388000D03*
G04 #@! TO.P,J3,12*
G04 #@! TO.N,/MODULE8_TEMP1_R*
X235915200Y-53848000D03*
G04 #@! TO.P,J3,13*
G04 #@! TO.N,/volt6_R*
X237185200Y-56388000D03*
G04 #@! TO.P,J3,14*
G04 #@! TO.N,/MODULE7_TEMP2_R*
X238455200Y-53848000D03*
G04 #@! TO.P,J3,15*
G04 #@! TO.N,/GND_R*
X239725200Y-56388000D03*
G04 #@! TO.P,J3,16*
G04 #@! TO.N,/MODULE6_TEMP2_R*
X240995200Y-53848000D03*
G04 #@! TO.P,J3,17*
G04 #@! TO.N,/MODULE7_TEMP1_R*
X242265200Y-56388000D03*
G04 #@! TO.P,J3,18*
G04 #@! TO.N,/MODULE6_TEMP1_R*
X243535200Y-53848000D03*
G04 #@! TO.P,J3,19*
G04 #@! TO.N,Net-(J3-Pad19)*
X244805200Y-56388000D03*
G04 #@! TO.P,J3,20*
G04 #@! TO.N,Net-(J3-Pad20)*
X246075200Y-53848000D03*
D11*
G04 #@! TO.P,J3,21*
G04 #@! TO.N,N/C*
X220545200Y-54588000D03*
G04 #@! TD*
D12*
G04 #@! TO.P,B1,1*
G04 #@! TO.N,Net-(B1-Pad1)*
X23061600Y-27051000D03*
G04 #@! TD*
G04 #@! TO.P,B2,1*
G04 #@! TO.N,Net-(B2-Pad1)*
X100061600Y-76827800D03*
G04 #@! TD*
G04 #@! TO.P,B3,1*
G04 #@! TO.N,Net-(B3-Pad1)*
X177061600Y-27051000D03*
G04 #@! TD*
G04 #@! TO.P,B4,1*
G04 #@! TO.N,Net-(B4-Pad1)*
X254061601Y-76827800D03*
G04 #@! TD*
G04 #@! TO.P,B5,1*
G04 #@! TO.N,Net-(B5-Pad1)*
X331061601Y-27051000D03*
G04 #@! TD*
G04 #@! TO.P,B6,1*
G04 #@! TO.N,Net-(B6-Pad1)*
X331061601Y-76827800D03*
G04 #@! TD*
G04 #@! TO.P,B7,1*
G04 #@! TO.N,Net-(B7-Pad1)*
X254061601Y-27051000D03*
G04 #@! TD*
G04 #@! TO.P,B8,1*
G04 #@! TO.N,Net-(B8-Pad1)*
X177061600Y-76827800D03*
G04 #@! TD*
G04 #@! TO.P,B10,1*
G04 #@! TO.N,Net-(B10-Pad1)*
X23061600Y-76827800D03*
G04 #@! TD*
G04 #@! TO.P,B12,1*
G04 #@! TO.N,Net-(B12-Pad1)*
X61061600Y-27051000D03*
G04 #@! TD*
D13*
G04 #@! TO.P,RT61,1*
G04 #@! TO.N,/MODULE6_TEMP1_L*
X371803800Y-81915000D03*
G04 #@! TO.P,RT61,2*
G04 #@! TO.N,/GND_L*
X374803800Y-81915000D03*
G04 #@! TD*
G04 #@! TO.P,RT62,2*
G04 #@! TO.N,/GND_L*
X336829400Y-82194400D03*
G04 #@! TO.P,RT62,1*
G04 #@! TO.N,/MODULE6_TEMP2_L*
X333829400Y-82194400D03*
G04 #@! TD*
G04 #@! TO.P,RT71,2*
G04 #@! TO.N,/GND_L*
X297562400Y-21666200D03*
G04 #@! TO.P,RT71,1*
G04 #@! TO.N,/MODULE7_TEMP1_L*
X294562400Y-21666200D03*
G04 #@! TD*
G04 #@! TO.P,RT72,2*
G04 #@! TO.N,/GND_L*
X259741800Y-21818600D03*
G04 #@! TO.P,RT72,1*
G04 #@! TO.N,/MODULE7_TEMP2_L*
X256741800Y-21818600D03*
G04 #@! TD*
G04 #@! TO.P,RT81,1*
G04 #@! TO.N,/MODULE8_TEMP1_L*
X217525600Y-81584800D03*
G04 #@! TO.P,RT81,2*
G04 #@! TO.N,/GND_L*
X220525600Y-81584800D03*
G04 #@! TD*
G04 #@! TO.P,RT82,2*
G04 #@! TO.N,/GND_L*
X182424200Y-82042000D03*
G04 #@! TO.P,RT82,1*
G04 #@! TO.N,/MODULE8_TEMP2_L*
X179424200Y-82042000D03*
G04 #@! TD*
G04 #@! TO.P,RT91,1*
G04 #@! TO.N,/MODULE9_TEMP1_L*
X140740000Y-21844000D03*
G04 #@! TO.P,RT91,2*
G04 #@! TO.N,/GND_L*
X143740000Y-21844000D03*
G04 #@! TD*
G04 #@! TO.P,RT92,2*
G04 #@! TO.N,/GND_L*
X106149400Y-21234400D03*
G04 #@! TO.P,RT92,1*
G04 #@! TO.N,/MODULE9_TEMP2_L*
X103149400Y-21234400D03*
G04 #@! TD*
G04 #@! TO.P,RT101,1*
G04 #@! TO.N,/MODULE10_TEMP1_L*
X63854200Y-82092800D03*
G04 #@! TO.P,RT101,2*
G04 #@! TO.N,/GND_L*
X66854200Y-82092800D03*
G04 #@! TD*
G04 #@! TO.P,RT102,2*
G04 #@! TO.N,/GND_L*
X28678000Y-82296000D03*
G04 #@! TO.P,RT102,1*
G04 #@! TO.N,/MODULE10_TEMP2_L*
X25678000Y-82296000D03*
G04 #@! TD*
D10*
G04 #@! TO.P,J2,5*
G04 #@! TO.N,/MODULE2_TEMP1_R*
X60960000Y-48260000D03*
G04 #@! TO.P,J2,3*
G04 #@! TO.N,/MODULE1_TEMP2_R*
X60960000Y-45720000D03*
G04 #@! TO.P,J2,1*
G04 #@! TO.N,/MODULE1_TEMP1_R*
X60960000Y-43180000D03*
G04 #@! TO.P,J2,7*
G04 #@! TO.N,/MODULE2_TEMP2_R*
X60960000Y-50800000D03*
G04 #@! TO.P,J2,2*
G04 #@! TO.N,/volt1_R*
X63500000Y-44450000D03*
G04 #@! TO.P,J2,4*
G04 #@! TO.N,/V-_R*
X63500000Y-46990000D03*
G04 #@! TO.P,J2,6*
G04 #@! TO.N,/volt2_R*
X63500000Y-49530000D03*
G04 #@! TO.P,J2,8*
G04 #@! TO.N,/MODULE3_TEMP1_R*
X63500000Y-52070000D03*
G04 #@! TO.P,J2,9*
G04 #@! TO.N,/volt3_R*
X60960000Y-53340000D03*
G04 #@! TO.P,J2,10*
G04 #@! TO.N,/MODULE3_TEMP2_R*
X63500000Y-54610000D03*
G04 #@! TO.P,J2,11*
G04 #@! TO.N,/MODULE4_TEMP1_R*
X60960000Y-55880000D03*
G04 #@! TO.P,J2,12*
G04 #@! TO.N,/volt4_R*
X63500000Y-57150000D03*
G04 #@! TO.P,J2,13*
G04 #@! TO.N,/MODULE4_TEMP2_R*
X60960000Y-58420000D03*
G04 #@! TO.P,J2,14*
G04 #@! TO.N,/MODULE5_TEMP1_R*
X63500000Y-59690000D03*
G04 #@! TO.P,J2,15*
G04 #@! TO.N,/volt5_R*
X60960000Y-60960000D03*
G04 #@! TO.P,J2,16*
G04 #@! TO.N,/MODULE5_TEMP2_R*
X63500000Y-62230000D03*
D11*
G04 #@! TO.P,J2,17*
G04 #@! TO.N,N/C*
X62760000Y-41780000D03*
G04 #@! TD*
D10*
G04 #@! TO.P,J4,5*
G04 #@! TO.N,/volt7_R*
X179070000Y-45212000D03*
G04 #@! TO.P,J4,3*
G04 #@! TO.N,/MODULE9_TEMP1_R*
X179070000Y-42672000D03*
G04 #@! TO.P,J4,1*
G04 #@! TO.N,/MODULE9_TEMP2_R*
X179070000Y-40132000D03*
G04 #@! TO.P,J4,7*
G04 #@! TO.N,/MODULE8_TEMP1_R*
X179070000Y-47752000D03*
G04 #@! TO.P,J4,2*
G04 #@! TO.N,/volt9_R*
X181610000Y-41402000D03*
G04 #@! TO.P,J4,4*
G04 #@! TO.N,/MODULE10_TEMP2_R*
X181610000Y-43942000D03*
G04 #@! TO.P,J4,6*
G04 #@! TO.N,/MODULE8_TEMP2_R*
X181610000Y-46482000D03*
G04 #@! TO.P,J4,8*
G04 #@! TO.N,/volt6_R*
X181610000Y-49022000D03*
G04 #@! TO.P,J4,9*
G04 #@! TO.N,/MODULE7_TEMP2_R*
X179070000Y-50292000D03*
G04 #@! TO.P,J4,10*
G04 #@! TO.N,/MODULE7_TEMP1_R*
X181610000Y-51562000D03*
G04 #@! TO.P,J4,11*
G04 #@! TO.N,/volt8_R*
X179070000Y-52832000D03*
G04 #@! TO.P,J4,12*
G04 #@! TO.N,/MODULE6_TEMP2_R*
X181610000Y-54102000D03*
G04 #@! TO.P,J4,13*
G04 #@! TO.N,/MODULE6_TEMP1_R*
X179070000Y-55372000D03*
G04 #@! TO.P,J4,14*
G04 #@! TO.N,/volt10_R*
X181610000Y-56642000D03*
G04 #@! TO.P,J4,15*
G04 #@! TO.N,/MODULE10_TEMP1_R*
X179070000Y-57912000D03*
G04 #@! TO.P,J4,16*
G04 #@! TO.N,/volt11_R*
X181610000Y-59182000D03*
G04 #@! TO.P,J4,17*
G04 #@! TO.N,/V+_R*
X179070000Y-60452000D03*
G04 #@! TO.P,J4,18*
G04 #@! TO.N,Net-(J4-Pad18)*
X181610000Y-61722000D03*
G04 #@! TO.P,J4,19*
G04 #@! TO.N,/GND_R*
X179070000Y-62992000D03*
G04 #@! TO.P,J4,20*
G04 #@! TO.N,Net-(J4-Pad20)*
X181610000Y-64262000D03*
D11*
G04 #@! TO.P,J4,21*
G04 #@! TO.N,N/C*
X180870000Y-38732000D03*
G04 #@! TD*
D12*
G04 #@! TO.P,B9,1*
G04 #@! TO.N,Net-(B9-Pad1)*
X100061600Y-27051000D03*
G04 #@! TD*
D14*
G04 #@! TO.P,F6,1*
G04 #@! TO.N,/volt6_L*
X331063600Y-64084200D03*
G04 #@! TO.P,F6,2*
G04 #@! TO.N,Net-(B6-Pad1)*
X331063600Y-69364200D03*
G04 #@! TD*
D15*
G04 #@! TO.P,F7,2*
G04 #@! TO.N,Net-(B7-Pad1)*
X245262400Y-33096200D03*
G04 #@! TO.P,F7,1*
G04 #@! TO.N,/volt7_L*
X239982400Y-33096200D03*
G04 #@! TD*
G04 #@! TO.P,F8,1*
G04 #@! TO.N,/volt8_L*
X186715400Y-71170800D03*
G04 #@! TO.P,F8,2*
G04 #@! TO.N,Net-(B8-Pad1)*
X181435400Y-71170800D03*
G04 #@! TD*
G04 #@! TO.P,F9,2*
G04 #@! TO.N,Net-(B9-Pad1)*
X104473400Y-36017200D03*
G04 #@! TO.P,F9,1*
G04 #@! TO.N,/volt9_L*
X109753400Y-36017200D03*
G04 #@! TD*
G04 #@! TO.P,F10,2*
G04 #@! TO.N,Net-(B10-Pad1)*
X30127600Y-63779400D03*
G04 #@! TO.P,F10,1*
G04 #@! TO.N,/volt10_L*
X35407600Y-63779400D03*
G04 #@! TD*
D14*
G04 #@! TO.P,F12,2*
G04 #@! TO.N,Net-(B12-Pad1)*
X79705200Y-33353400D03*
G04 #@! TO.P,F12,1*
G04 #@! TO.N,/V+_L*
X79705200Y-38633400D03*
G04 #@! TD*
G04 #@! TO.P,F11,2*
G04 #@! TO.N,Net-(B1-Pad1)*
X30657800Y-34521800D03*
G04 #@! TO.P,F11,1*
G04 #@! TO.N,/volt11_L*
X30657800Y-39801800D03*
G04 #@! TD*
D16*
G04 #@! TO.N,/MODULE10_TEMP1_R*
X209118200Y-58013600D03*
G04 #@! TO.N,/V+_R*
X200406000Y-60426600D03*
G04 #@! TO.N,/GND_R*
X239064800Y-63881000D03*
G04 #@! TO.N,/volt11_R*
X204724000Y-59232800D03*
G04 #@! TD*
D17*
G04 #@! TO.N,/volt8_L*
X233273600Y-46228000D02*
X233273600Y-47955200D01*
X233273600Y-47955200D02*
X229209600Y-52019200D01*
X187986400Y-71170800D02*
X207138000Y-52019200D01*
X207138000Y-52019200D02*
X207695800Y-52019200D01*
X186715400Y-71170800D02*
X187986400Y-71170800D01*
X229209600Y-52019200D02*
X207695800Y-52019200D01*
G04 #@! TO.N,/MODULE10_TEMP1_L*
X63854200Y-82092800D02*
X63854200Y-78258800D01*
X63854200Y-78258800D02*
X75184000Y-66929000D01*
X75184000Y-66929000D02*
X183718200Y-66929000D01*
X183718200Y-66929000D02*
X199745600Y-50901600D01*
X199745600Y-50901600D02*
X226415600Y-50901600D01*
X226415600Y-50901600D02*
X228473000Y-50901600D01*
X226415600Y-50901600D02*
X226618800Y-50901600D01*
X232003600Y-47371000D02*
X232003600Y-43688000D01*
X228473000Y-50901600D02*
X232003600Y-47371000D01*
G04 #@! TO.N,/MODULE10_TEMP2_L*
X229463600Y-43688000D02*
X229463600Y-47802800D01*
X181752942Y-65659000D02*
X197932742Y-49479200D01*
X39934000Y-65659000D02*
X181752942Y-65659000D01*
X228447600Y-48818800D02*
X228346000Y-48920400D01*
X197932742Y-49479200D02*
X227787200Y-49479200D01*
X229463600Y-47802800D02*
X228447600Y-48818800D01*
X25678000Y-82296000D02*
X25678000Y-79915000D01*
X227787200Y-49479200D02*
X228447600Y-48818800D01*
X25678000Y-79915000D02*
X39934000Y-65659000D01*
G04 #@! TO.N,/V+_L*
X180380443Y-40361499D02*
X179569441Y-41172501D01*
X220777699Y-40361499D02*
X180380443Y-40361499D01*
X223113600Y-42697400D02*
X220777699Y-40361499D01*
X223113600Y-46228000D02*
X223113600Y-42697400D01*
X80973301Y-41172501D02*
X81661000Y-41172501D01*
X79705200Y-39904400D02*
X80973301Y-41172501D01*
X79705200Y-38633400D02*
X79705200Y-39904400D01*
X179569441Y-41172501D02*
X81661000Y-41172501D01*
G04 #@! TO.N,/volt10_L*
X225729800Y-48387000D02*
X226923600Y-47193200D01*
X179569441Y-46711499D02*
X180609942Y-47752000D01*
X226923600Y-47193200D02*
X226923600Y-43688000D01*
X180609942Y-47752000D02*
X184810400Y-47752000D01*
X185445400Y-48387000D02*
X225729800Y-48387000D01*
X85241501Y-46711499D02*
X179569441Y-46711499D01*
X184810400Y-47752000D02*
X185445400Y-48387000D01*
X35407600Y-63779400D02*
X68173600Y-63779400D01*
X68630800Y-63322200D02*
X85241501Y-46711499D01*
X68173600Y-63779400D02*
X68630800Y-63322200D01*
X68300600Y-63652400D02*
X68630800Y-63322200D01*
G04 #@! TO.N,/MODULE8_TEMP2_L*
X232079800Y-54787800D02*
X233222800Y-55930800D01*
X232079800Y-51282600D02*
X232079800Y-54787800D01*
X234543600Y-43688000D02*
X234543600Y-48818800D01*
X233222800Y-60198000D02*
X221538800Y-71882000D01*
X214807800Y-71882000D02*
X210140150Y-76549650D01*
X234543600Y-48818800D02*
X232079800Y-51282600D01*
X233222800Y-55930800D02*
X233222800Y-60198000D01*
X179424200Y-78938650D02*
X179424200Y-82042000D01*
X221538800Y-71882000D02*
X214807800Y-71882000D01*
X210140150Y-76549650D02*
X181813200Y-76549650D01*
X181813200Y-76549650D02*
X179424200Y-78938650D01*
G04 #@! TO.N,/MODULE8_TEMP1_L*
X217752800Y-82296000D02*
X217752800Y-79915000D01*
X217525600Y-78587600D02*
X217525600Y-81584800D01*
X235813600Y-49834800D02*
X235813600Y-46228000D01*
X235813600Y-49834800D02*
X234619800Y-51028600D01*
X234619800Y-51028600D02*
X234619800Y-54508400D01*
X234619800Y-54508400D02*
X235839000Y-55727600D01*
X230632000Y-65481200D02*
X230428800Y-65684400D01*
X230428800Y-65684400D02*
X217525600Y-78587600D01*
X235839000Y-60274200D02*
X235839000Y-59791600D01*
X230428800Y-65684400D02*
X235839000Y-60274200D01*
X235839000Y-59791600D02*
X235839000Y-59994800D01*
X235839000Y-55727600D02*
X235839000Y-59791600D01*
G04 #@! TO.N,/MODULE9_TEMP2_L*
X115004400Y-35966400D02*
X103149400Y-24111400D01*
X185572400Y-35966400D02*
X115004400Y-35966400D01*
X103149400Y-23615400D02*
X103149400Y-21234400D01*
X188188600Y-38582600D02*
X185572400Y-35966400D01*
X225653600Y-46228000D02*
X225653600Y-40817800D01*
X225653600Y-40817800D02*
X223418400Y-38582600D01*
X103149400Y-24111400D02*
X103149400Y-23615400D01*
X223418400Y-38582600D02*
X188188600Y-38582600D01*
G04 #@! TO.N,/volt9_L*
X222272210Y-39163610D02*
X224383600Y-41275000D01*
X184861200Y-36804600D02*
X187220210Y-39163610D01*
X177723800Y-36804600D02*
X184861200Y-36804600D01*
X109753400Y-36017200D02*
X111024400Y-36017200D01*
X111024400Y-36017200D02*
X111735600Y-36728400D01*
X224383600Y-41275000D02*
X224383600Y-43688000D01*
X177647600Y-36728400D02*
X177723800Y-36804600D01*
X187220210Y-39163610D02*
X222272210Y-39163610D01*
X111735600Y-36728400D02*
X177647600Y-36728400D01*
G04 #@! TO.N,/MODULE9_TEMP1_L*
X140740000Y-24225000D02*
X140740000Y-21844000D01*
X151897200Y-35382200D02*
X140740000Y-24225000D01*
X186410600Y-35382200D02*
X151897200Y-35382200D01*
X228193600Y-46228000D02*
X228193600Y-41427400D01*
X228193600Y-41427400D02*
X224485200Y-37719000D01*
X224485200Y-37719000D02*
X188747400Y-37719000D01*
X188747400Y-37719000D02*
X186410600Y-35382200D01*
G04 #@! TO.N,/volt7_L*
X235610400Y-33096200D02*
X230733600Y-37973000D01*
X230733600Y-37973000D02*
X230733600Y-46228000D01*
X239982400Y-33096200D02*
X235610400Y-33096200D01*
G04 #@! TO.N,/MODULE7_TEMP2_L*
X242417600Y-37490400D02*
X238353600Y-41554400D01*
X255625600Y-37490400D02*
X242417600Y-37490400D01*
X238353600Y-41554400D02*
X238353600Y-46228000D01*
X256741800Y-21818600D02*
X256741800Y-24611200D01*
X257657600Y-25527000D02*
X257657600Y-35458400D01*
X256741800Y-24611200D02*
X257657600Y-25527000D01*
X257657600Y-35458400D02*
X255625600Y-37490400D01*
G04 #@! TO.N,/MODULE7_TEMP1_L*
X294562400Y-24047200D02*
X294562400Y-21666200D01*
X294608033Y-28083343D02*
X294608033Y-24092833D01*
X282432376Y-40259000D02*
X294608033Y-28083343D01*
X245592600Y-40259000D02*
X282432376Y-40259000D01*
X294608033Y-24092833D02*
X294562400Y-24047200D01*
X242163600Y-43688000D02*
X245592600Y-40259000D01*
G04 #@! TO.N,/MODULE6_TEMP1_L*
X370408200Y-81915000D02*
X371803800Y-81915000D01*
X243433600Y-46228000D02*
X243433600Y-47147238D01*
X243433600Y-47147238D02*
X245914772Y-49628410D01*
X245914772Y-49628410D02*
X338121610Y-49628410D01*
X338121610Y-49628410D02*
X370408200Y-81915000D01*
G04 #@! TO.N,/volt6_L*
X237083600Y-48996600D02*
X237083600Y-43688000D01*
X331063600Y-64084200D02*
X331063600Y-62813200D01*
X331063600Y-62813200D02*
X320625200Y-52374800D01*
X320625200Y-52374800D02*
X240461800Y-52374800D01*
X240461800Y-52374800D02*
X237083600Y-48996600D01*
G04 #@! TO.N,/MODULE6_TEMP2_L*
X240893600Y-47147238D02*
X240893600Y-46228000D01*
X244393962Y-50647600D02*
X240893600Y-47147238D01*
X333829400Y-82194400D02*
X333829400Y-79813400D01*
X323646800Y-50647600D02*
X244393962Y-50647600D01*
X333829400Y-79813400D02*
X335280000Y-78362800D01*
X335280000Y-78362800D02*
X335280000Y-62280800D01*
X335280000Y-62280800D02*
X323646800Y-50647600D01*
G04 #@! TO.N,/MODULE10_TEMP1_R*
X230479600Y-58013600D02*
X232105200Y-56388000D01*
X209118200Y-58013600D02*
X230479600Y-58013600D01*
G04 #@! TO.N,/V+_R*
X200805999Y-60026601D02*
X200406000Y-60426600D01*
X200831399Y-60026601D02*
X200805999Y-60026601D01*
X208000600Y-52857400D02*
X200831399Y-60026601D01*
X222224600Y-52857400D02*
X208000600Y-52857400D01*
X223215200Y-53848000D02*
X222224600Y-52857400D01*
G04 #@! TO.N,/GND_R*
X239725200Y-63220600D02*
X239725200Y-56388000D01*
X239064800Y-63881000D02*
X239725200Y-63220600D01*
G04 #@! TO.N,/GND_L*
X374803800Y-84296000D02*
X374035200Y-85064600D01*
X374803800Y-81915000D02*
X374803800Y-84296000D01*
X374035200Y-85064600D02*
X370560600Y-85064600D01*
X370560600Y-85064600D02*
X367588800Y-82092800D01*
X367588800Y-82092800D02*
X367588800Y-80441800D01*
X367588800Y-80441800D02*
X364820200Y-77673200D01*
X364820200Y-77673200D02*
X338124800Y-77673200D01*
X336829400Y-78968600D02*
X336829400Y-82194400D01*
X338124800Y-77673200D02*
X336829400Y-78968600D01*
X336829400Y-84575400D02*
X336289400Y-85115400D01*
X336829400Y-82194400D02*
X336829400Y-84575400D01*
X336289400Y-85115400D02*
X332435200Y-85115400D01*
X332435200Y-85115400D02*
X330022200Y-82702400D01*
X330022200Y-82702400D02*
X330022200Y-80670400D01*
X330022200Y-80670400D02*
X321741800Y-72390000D01*
X321741800Y-72390000D02*
X226923600Y-72390000D01*
X220525600Y-78788000D02*
X220525600Y-81584800D01*
X226923600Y-72390000D02*
X220525600Y-78788000D01*
X220525600Y-83965800D02*
X219452200Y-85039200D01*
X220525600Y-81584800D02*
X220525600Y-83965800D01*
X219452200Y-85039200D02*
X216941400Y-85039200D01*
X216941400Y-85039200D02*
X213791800Y-81889600D01*
X213791800Y-81889600D02*
X213791800Y-80264000D01*
X213791800Y-80264000D02*
X211607400Y-78079600D01*
X211607400Y-78079600D02*
X183464200Y-78079600D01*
X182424200Y-79119600D02*
X182424200Y-82042000D01*
X183464200Y-78079600D02*
X182424200Y-79119600D01*
X182424200Y-84423000D02*
X181604800Y-85242400D01*
X182424200Y-82042000D02*
X182424200Y-84423000D01*
X181604800Y-85242400D02*
X178689000Y-85242400D01*
X178689000Y-85242400D02*
X175387000Y-81940400D01*
X175387000Y-81940400D02*
X175387000Y-80187800D01*
X175387000Y-80187800D02*
X165633400Y-70434200D01*
X165633400Y-70434200D02*
X74472800Y-70434200D01*
X66854200Y-78052800D02*
X66854200Y-82092800D01*
X74472800Y-70434200D02*
X66854200Y-78052800D01*
X66854200Y-84473800D02*
X66141600Y-85186400D01*
X66854200Y-82092800D02*
X66854200Y-84473800D01*
X66141600Y-85186400D02*
X62682000Y-85186400D01*
X62682000Y-85186400D02*
X59918600Y-82423000D01*
X59918600Y-82423000D02*
X59918600Y-79857600D01*
X59918600Y-79857600D02*
X57099200Y-77038200D01*
X57099200Y-77038200D02*
X30835600Y-77038200D01*
X28678000Y-79195800D02*
X28678000Y-82296000D01*
X30835600Y-77038200D02*
X28678000Y-79195800D01*
X297562400Y-24047200D02*
X312301000Y-38785800D01*
X297562400Y-21666200D02*
X297562400Y-24047200D01*
X312301000Y-38785800D02*
X347599000Y-38785800D01*
X374803800Y-65990600D02*
X374803800Y-81915000D01*
X347599000Y-38785800D02*
X374803800Y-65990600D01*
X297562400Y-19285200D02*
X297562400Y-21666200D01*
X296895400Y-18618200D02*
X297562400Y-19285200D01*
X293243000Y-18618200D02*
X296895400Y-18618200D01*
X291084000Y-20777200D02*
X293243000Y-18618200D01*
X259741800Y-21818600D02*
X259741800Y-23068600D01*
X291084000Y-23368000D02*
X291084000Y-20777200D01*
X259741800Y-23068600D02*
X262581200Y-25908000D01*
X262581200Y-25908000D02*
X288544000Y-25908000D01*
X288544000Y-25908000D02*
X291084000Y-23368000D01*
X143740000Y-25325200D02*
X143740000Y-21844000D01*
X254660400Y-18643600D02*
X252806200Y-20497800D01*
X226034600Y-28016200D02*
X223215200Y-30835600D01*
X259741800Y-19437600D02*
X258947800Y-18643600D01*
X252806200Y-20497800D02*
X252806200Y-23291800D01*
X252806200Y-23291800D02*
X248081800Y-28016200D01*
X248081800Y-28016200D02*
X226034600Y-28016200D01*
X223215200Y-30835600D02*
X149250400Y-30835600D01*
X258947800Y-18643600D02*
X254660400Y-18643600D01*
X259741800Y-21818600D02*
X259741800Y-19437600D01*
X149250400Y-30835600D02*
X143740000Y-25325200D01*
X143740000Y-19463000D02*
X142996800Y-18719800D01*
X143740000Y-21844000D02*
X143740000Y-19463000D01*
X142996800Y-18719800D02*
X138861800Y-18719800D01*
X138861800Y-18719800D02*
X136753600Y-20828000D01*
X136753600Y-20828000D02*
X136753600Y-23749000D01*
X136753600Y-23749000D02*
X132334000Y-28168600D01*
X132334000Y-28168600D02*
X108839000Y-28168600D01*
X106149400Y-25479000D02*
X106149400Y-21234400D01*
X108839000Y-28168600D02*
X106149400Y-25479000D01*
X239623600Y-43688000D02*
X239623600Y-41859200D01*
X242951000Y-38531800D02*
X257378200Y-38531800D01*
X239623600Y-41859200D02*
X242951000Y-38531800D01*
X259741800Y-36168200D02*
X259741800Y-29768800D01*
X257378200Y-38531800D02*
X259741800Y-36168200D01*
X259741800Y-29768800D02*
X259741800Y-21818600D01*
G04 #@! TO.N,/volt11_L*
X63459557Y-48030501D02*
X80239499Y-48030501D01*
X62189557Y-49300501D02*
X63459557Y-48030501D01*
X221193601Y-43038001D02*
X221843600Y-43688000D01*
X221057099Y-42901499D02*
X221193601Y-43038001D01*
X181110559Y-42901499D02*
X221057099Y-42901499D01*
X84557499Y-43712501D02*
X180299557Y-43712501D01*
X180299557Y-43712501D02*
X181110559Y-42901499D01*
X80239499Y-48030501D02*
X84557499Y-43712501D01*
X38885501Y-49300501D02*
X45516800Y-49300501D01*
X30657800Y-41072800D02*
X38885501Y-49300501D01*
X30657800Y-39801800D02*
X30657800Y-41072800D01*
X45287301Y-49300501D02*
X45516800Y-49300501D01*
X45516800Y-49300501D02*
X62189557Y-49300501D01*
G04 #@! TO.N,/volt11_R*
X207568800Y-56388000D02*
X221945200Y-56388000D01*
X204724000Y-59232800D02*
X207568800Y-56388000D01*
G04 #@! TO.N,Net-(B1-Pad1)*
X30657800Y-31623000D02*
X30657800Y-34521800D01*
X26085800Y-27051000D02*
X30657800Y-31623000D01*
X23061600Y-27051000D02*
X26085800Y-27051000D01*
G04 #@! TO.N,Net-(B6-Pad1)*
X331061601Y-69366199D02*
X331063600Y-69364200D01*
X331061601Y-76827800D02*
X331061601Y-69366199D01*
G04 #@! TO.N,Net-(B7-Pad1)*
X251815600Y-33096200D02*
X254061601Y-30850199D01*
X254061601Y-30850199D02*
X254061601Y-27051000D01*
X245262400Y-33096200D02*
X251815600Y-33096200D01*
G04 #@! TO.N,Net-(B8-Pad1)*
X177061600Y-72315600D02*
X178206400Y-71170800D01*
X178206400Y-71170800D02*
X181435400Y-71170800D01*
X177061600Y-76827800D02*
X177061600Y-72315600D01*
G04 #@! TO.N,Net-(B9-Pad1)*
X100061600Y-30337773D02*
X100050600Y-30348773D01*
X100061600Y-27051000D02*
X100061600Y-30337773D01*
X100050600Y-30348773D02*
X100050600Y-33985200D01*
X102082600Y-36017200D02*
X104473400Y-36017200D01*
X100050600Y-33985200D02*
X102082600Y-36017200D01*
G04 #@! TO.N,Net-(B10-Pad1)*
X23061600Y-73541027D02*
X23063200Y-73539427D01*
X23061600Y-76827800D02*
X23061600Y-73541027D01*
X23063200Y-73539427D02*
X23063200Y-67233800D01*
X26517600Y-63779400D02*
X30127600Y-63779400D01*
X23063200Y-67233800D02*
X26517600Y-63779400D01*
G04 #@! TO.N,Net-(B12-Pad1)*
X61061600Y-27051000D02*
X76708000Y-27051000D01*
X79705200Y-30048200D02*
X79705200Y-33353400D01*
X76708000Y-27051000D02*
X79705200Y-30048200D01*
G04 #@! TD*
M02*
