G04 #@! TF.GenerationSoftware,KiCad,Pcbnew,5.0.2-bee76a0~70~ubuntu18.04.1*
G04 #@! TF.CreationDate,2019-02-11T21:37:26-05:00*
G04 #@! TF.ProjectId,DR_InterfaceBoard,44525f49-6e74-4657-9266-616365426f61,rev?*
G04 #@! TF.SameCoordinates,Original*
G04 #@! TF.FileFunction,Legend,Bot*
G04 #@! TF.FilePolarity,Positive*
%FSLAX46Y46*%
G04 Gerber Fmt 4.6, Leading zero omitted, Abs format (unit mm)*
G04 Created by KiCad (PCBNEW 5.0.2-bee76a0~70~ubuntu18.04.1) date Mon 11 Feb 2019 09:37:26 PM EST*
%MOMM*%
%LPD*%
G01*
G04 APERTURE LIST*
%ADD10C,0.150000*%
G04 APERTURE END LIST*
D10*
G04 #@! TO.C,J4*
X93630000Y-47706000D02*
X40630000Y-47706000D01*
X40630000Y-47706000D02*
X40630000Y-69706000D01*
X40630000Y-69706000D02*
X93630000Y-69706000D01*
X93630000Y-69706000D02*
X93630000Y-47706000D01*
G04 #@! TO.C,U1*
X39622000Y-30258000D02*
X39622000Y-32258000D01*
X20622000Y-30258000D02*
X39622000Y-30258000D01*
X20622000Y-43258000D02*
X20622000Y-30258000D01*
X39622000Y-43258000D02*
X20622000Y-43258000D01*
X39622000Y-32258000D02*
X39622000Y-43258000D01*
G04 #@! TO.C,J4*
X91773333Y-70318380D02*
X91773333Y-71032666D01*
X91820952Y-71175523D01*
X91916190Y-71270761D01*
X92059047Y-71318380D01*
X92154285Y-71318380D01*
X90868571Y-70651714D02*
X90868571Y-71318380D01*
X91106666Y-70270761D02*
X91344761Y-70985047D01*
X90725714Y-70985047D01*
G04 #@! TO.C,U1*
X31749904Y-28662380D02*
X31749904Y-29471904D01*
X31702285Y-29567142D01*
X31654666Y-29614761D01*
X31559428Y-29662380D01*
X31368952Y-29662380D01*
X31273714Y-29614761D01*
X31226095Y-29567142D01*
X31178476Y-29471904D01*
X31178476Y-28662380D01*
X30178476Y-29662380D02*
X30749904Y-29662380D01*
X30464190Y-29662380D02*
X30464190Y-28662380D01*
X30559428Y-28805238D01*
X30654666Y-28900476D01*
X30749904Y-28948095D01*
G04 #@! TD*
M02*
