G04 #@! TF.GenerationSoftware,KiCad,Pcbnew,5.0.2-bee76a0~70~ubuntu18.04.1*
G04 #@! TF.CreationDate,2019-02-11T21:37:26-05:00*
G04 #@! TF.ProjectId,DR_InterfaceBoard,44525f49-6e74-4657-9266-616365426f61,rev?*
G04 #@! TF.SameCoordinates,Original*
G04 #@! TF.FileFunction,Copper,L2,Bot*
G04 #@! TF.FilePolarity,Positive*
%FSLAX46Y46*%
G04 Gerber Fmt 4.6, Leading zero omitted, Abs format (unit mm)*
G04 Created by KiCad (PCBNEW 5.0.2-bee76a0~70~ubuntu18.04.1) date Mon 11 Feb 2019 09:37:26 PM EST*
%MOMM*%
%LPD*%
G01*
G04 APERTURE LIST*
G04 #@! TA.AperFunction,ComponentPad*
%ADD10C,3.000000*%
G04 #@! TD*
G04 #@! TA.AperFunction,ComponentPad*
%ADD11C,2.000000*%
G04 #@! TD*
G04 #@! TA.AperFunction,ComponentPad*
%ADD12C,1.300000*%
G04 #@! TD*
G04 #@! TA.AperFunction,ComponentPad*
%ADD13C,1.500000*%
G04 #@! TD*
G04 #@! TA.AperFunction,ComponentPad*
%ADD14C,2.750000*%
G04 #@! TD*
G04 #@! TA.AperFunction,Conductor*
%ADD15C,0.100000*%
G04 #@! TD*
G04 #@! TA.AperFunction,ComponentPad*
%ADD16C,1.700000*%
G04 #@! TD*
G04 #@! TA.AperFunction,ViaPad*
%ADD17C,0.609600*%
G04 #@! TD*
G04 #@! TA.AperFunction,Conductor*
%ADD18C,0.152400*%
G04 #@! TD*
G04 #@! TA.AperFunction,Conductor*
%ADD19C,0.254000*%
G04 #@! TD*
G04 APERTURE END LIST*
D10*
G04 #@! TO.P,J4,23*
G04 #@! TO.N,/CANL*
X53130000Y-64206000D03*
G04 #@! TO.P,J4,17*
G04 #@! TO.N,/RTD_LSD*
X77130000Y-64206000D03*
G04 #@! TO.P,J4,18*
G04 #@! TO.N,/STR_POT+*
X73130000Y-64206000D03*
G04 #@! TO.P,J4,19*
G04 #@! TO.N,/STR_POT_SENSE*
X69130000Y-64206000D03*
G04 #@! TO.P,J4,20*
G04 #@! TO.N,/STR_POT-*
X65130000Y-64206000D03*
G04 #@! TO.P,J4,21*
G04 #@! TO.N,/SCL*
X61130000Y-64206000D03*
G04 #@! TO.P,J4,22*
G04 #@! TO.N,/SDA*
X57130000Y-64206000D03*
G04 #@! TO.P,J4,10*
G04 #@! TO.N,/CANL*
X75130000Y-60206000D03*
G04 #@! TO.P,J4,11*
G04 #@! TO.N,/CANH*
X71130000Y-60206000D03*
G04 #@! TO.P,J4,13*
X63130000Y-60206000D03*
G04 #@! TO.P,J4,12*
G04 #@! TO.N,/CANL*
X67130000Y-60206000D03*
G04 #@! TO.P,J4,14*
X59130000Y-60206000D03*
G04 #@! TO.P,J4,15*
G04 #@! TO.N,/CANH*
X55130000Y-60206000D03*
G04 #@! TO.P,J4,8*
G04 #@! TO.N,+12V*
X53130000Y-56206000D03*
G04 #@! TO.P,J4,7*
G04 #@! TO.N,GND*
X57130000Y-56206000D03*
G04 #@! TO.P,J4,6*
G04 #@! TO.N,+12V*
X61130000Y-56206000D03*
G04 #@! TO.P,J4,4*
X69130000Y-56206000D03*
G04 #@! TO.P,J4,5*
G04 #@! TO.N,GND*
X65130000Y-56206000D03*
G04 #@! TO.P,J4,3*
X73130000Y-56206000D03*
G04 #@! TO.P,J4,2*
G04 #@! TO.N,+12V*
X77130000Y-56206000D03*
G04 #@! TO.P,J4,16*
X81130000Y-64206000D03*
G04 #@! TO.P,J4,9*
G04 #@! TO.N,/CANH*
X79130000Y-60206000D03*
G04 #@! TO.P,J4,1*
G04 #@! TO.N,GND*
X81130000Y-56206000D03*
G04 #@! TD*
D11*
G04 #@! TO.P,J1,11*
G04 #@! TO.N,N/C*
X38072060Y-73916540D03*
D12*
G04 #@! TO.P,J1,10*
G04 #@! TO.N,Net-(J1-Pad10)*
X25242060Y-74656540D03*
G04 #@! TO.P,J1,9*
G04 #@! TO.N,Net-(J1-Pad9)*
X26512060Y-72116540D03*
G04 #@! TO.P,J1,8*
G04 #@! TO.N,Net-(J1-Pad8)*
X27782060Y-74656540D03*
G04 #@! TO.P,J1,6*
G04 #@! TO.N,Net-(J1-Pad6)*
X30322060Y-74656540D03*
G04 #@! TO.P,J1,4*
G04 #@! TO.N,Net-(J1-Pad4)*
X32862060Y-74656540D03*
G04 #@! TO.P,J1,2*
G04 #@! TO.N,Net-(J1-Pad2)*
X35402060Y-74656540D03*
G04 #@! TO.P,J1,7*
G04 #@! TO.N,Net-(J1-Pad7)*
X29052060Y-72116540D03*
G04 #@! TO.P,J1,1*
G04 #@! TO.N,Net-(J1-Pad1)*
X36672060Y-72116540D03*
G04 #@! TO.P,J1,3*
G04 #@! TO.N,Net-(J1-Pad3)*
X34132060Y-72116540D03*
G04 #@! TO.P,J1,5*
G04 #@! TO.N,Net-(J1-Pad5)*
X31592060Y-72116540D03*
G04 #@! TD*
D11*
G04 #@! TO.P,J2,21*
G04 #@! TO.N,N/C*
X47461530Y-68489740D03*
D12*
G04 #@! TO.P,J2,20*
G04 #@! TO.N,Net-(J2-Pad20)*
X72991530Y-67749740D03*
G04 #@! TO.P,J2,19*
G04 #@! TO.N,/RTD_LSD*
X71721530Y-70289740D03*
G04 #@! TO.P,J2,18*
G04 #@! TO.N,/IMD_LED*
X70451530Y-67749740D03*
G04 #@! TO.P,J2,17*
G04 #@! TO.N,/BMS_LED*
X69181530Y-70289740D03*
G04 #@! TO.P,J2,16*
G04 #@! TO.N,/START_BTN*
X67911530Y-67749740D03*
G04 #@! TO.P,J2,15*
G04 #@! TO.N,/START_LED*
X66641530Y-70289740D03*
G04 #@! TO.P,J2,14*
G04 #@! TO.N,/RJ45_LED2*
X65371530Y-67749740D03*
G04 #@! TO.P,J2,13*
G04 #@! TO.N,/RJ45_LED1*
X64101530Y-70289740D03*
G04 #@! TO.P,J2,12*
G04 #@! TO.N,/RESET*
X62831530Y-67749740D03*
G04 #@! TO.P,J2,11*
G04 #@! TO.N,/SCK*
X61561530Y-70289740D03*
G04 #@! TO.P,J2,10*
G04 #@! TO.N,/MISO*
X60291530Y-67749740D03*
G04 #@! TO.P,J2,9*
G04 #@! TO.N,/MOSI*
X59021530Y-70289740D03*
G04 #@! TO.P,J2,8*
G04 #@! TO.N,+5V*
X57751530Y-67749740D03*
G04 #@! TO.P,J2,6*
G04 #@! TO.N,/CANH*
X55211530Y-67749740D03*
G04 #@! TO.P,J2,4*
G04 #@! TO.N,/STR_POT_SENSE*
X52671530Y-67749740D03*
G04 #@! TO.P,J2,2*
G04 #@! TO.N,+12V*
X50131530Y-67749740D03*
G04 #@! TO.P,J2,7*
G04 #@! TO.N,/CANL*
X56481530Y-70289740D03*
G04 #@! TO.P,J2,1*
G04 #@! TO.N,GND*
X48861530Y-70289740D03*
G04 #@! TO.P,J2,3*
G04 #@! TO.N,/STR_POT+*
X51401530Y-70289740D03*
G04 #@! TO.P,J2,5*
G04 #@! TO.N,/STR_POT-*
X53941530Y-70289740D03*
G04 #@! TD*
D11*
G04 #@! TO.P,J3,5*
G04 #@! TO.N,N/C*
X57949649Y-44856719D03*
D12*
G04 #@! TO.P,J3,4*
G04 #@! TO.N,GND*
X63159649Y-43816719D03*
G04 #@! TO.P,J3,2*
G04 #@! TO.N,/SDA*
X60619649Y-43816719D03*
G04 #@! TO.P,J3,1*
G04 #@! TO.N,/SCL*
X59349649Y-46356719D03*
G04 #@! TO.P,J3,3*
G04 #@! TO.N,+5V*
X61889649Y-46356719D03*
G04 #@! TD*
D13*
G04 #@! TO.P,U1,12*
G04 #@! TO.N,/RJ45_LED2*
X23622000Y-32258000D03*
G04 #@! TO.P,U1,11*
G04 #@! TO.N,GND*
X26162000Y-32258000D03*
G04 #@! TO.P,U1,9*
X36722000Y-32258000D03*
G04 #@! TO.P,U1,10*
G04 #@! TO.N,/RJ45_LED1*
X34182000Y-32258000D03*
G04 #@! TO.P,U1,1*
G04 #@! TO.N,/CANH*
X25722000Y-38888000D03*
G04 #@! TO.P,U1,3*
G04 #@! TO.N,/RESET*
X28262000Y-38888000D03*
G04 #@! TO.P,U1,5*
G04 #@! TO.N,/MISO*
X30802000Y-38888000D03*
G04 #@! TO.P,U1,7*
G04 #@! TO.N,+5V*
X33342000Y-38888000D03*
G04 #@! TO.P,U1,2*
G04 #@! TO.N,/CANL*
X26992000Y-41428000D03*
G04 #@! TO.P,U1,4*
G04 #@! TO.N,/SCK*
X29532000Y-41428000D03*
G04 #@! TO.P,U1,6*
G04 #@! TO.N,/MOSI*
X32072000Y-41428000D03*
G04 #@! TO.P,U1,8*
G04 #@! TO.N,GND*
X34612000Y-41428000D03*
D14*
G04 #@! TO.P,U1,13*
X23222000Y-37008000D03*
G04 #@! TO.P,U1,14*
X37122000Y-37008000D03*
G04 #@! TD*
D15*
G04 #@! TO.N,/SCL*
G04 #@! TO.C,J5*
G36*
X55361504Y-35219204D02*
X55385773Y-35222804D01*
X55409571Y-35228765D01*
X55432671Y-35237030D01*
X55454849Y-35247520D01*
X55475893Y-35260133D01*
X55495598Y-35274747D01*
X55513777Y-35291223D01*
X55530253Y-35309402D01*
X55544867Y-35329107D01*
X55557480Y-35350151D01*
X55567970Y-35372329D01*
X55576235Y-35395429D01*
X55582196Y-35419227D01*
X55585796Y-35443496D01*
X55587000Y-35468000D01*
X55587000Y-36668000D01*
X55585796Y-36692504D01*
X55582196Y-36716773D01*
X55576235Y-36740571D01*
X55567970Y-36763671D01*
X55557480Y-36785849D01*
X55544867Y-36806893D01*
X55530253Y-36826598D01*
X55513777Y-36844777D01*
X55495598Y-36861253D01*
X55475893Y-36875867D01*
X55454849Y-36888480D01*
X55432671Y-36898970D01*
X55409571Y-36907235D01*
X55385773Y-36913196D01*
X55361504Y-36916796D01*
X55337000Y-36918000D01*
X54137000Y-36918000D01*
X54112496Y-36916796D01*
X54088227Y-36913196D01*
X54064429Y-36907235D01*
X54041329Y-36898970D01*
X54019151Y-36888480D01*
X53998107Y-36875867D01*
X53978402Y-36861253D01*
X53960223Y-36844777D01*
X53943747Y-36826598D01*
X53929133Y-36806893D01*
X53916520Y-36785849D01*
X53906030Y-36763671D01*
X53897765Y-36740571D01*
X53891804Y-36716773D01*
X53888204Y-36692504D01*
X53887000Y-36668000D01*
X53887000Y-35468000D01*
X53888204Y-35443496D01*
X53891804Y-35419227D01*
X53897765Y-35395429D01*
X53906030Y-35372329D01*
X53916520Y-35350151D01*
X53929133Y-35329107D01*
X53943747Y-35309402D01*
X53960223Y-35291223D01*
X53978402Y-35274747D01*
X53998107Y-35260133D01*
X54019151Y-35247520D01*
X54041329Y-35237030D01*
X54064429Y-35228765D01*
X54088227Y-35222804D01*
X54112496Y-35219204D01*
X54137000Y-35218000D01*
X55337000Y-35218000D01*
X55361504Y-35219204D01*
X55361504Y-35219204D01*
G37*
D16*
G04 #@! TD*
G04 #@! TO.P,J5,1*
G04 #@! TO.N,/SCL*
X54737000Y-36068000D03*
G04 #@! TO.P,J5,2*
G04 #@! TO.N,/SDA*
X52237000Y-36068000D03*
G04 #@! TO.P,J5,3*
G04 #@! TO.N,+5V*
X49737000Y-36068000D03*
G04 #@! TO.P,J5,4*
G04 #@! TO.N,GND*
X47237000Y-36068000D03*
G04 #@! TO.P,J5,5*
G04 #@! TO.N,/BMS_LED*
X44737000Y-36068000D03*
G04 #@! TO.P,J5,6*
G04 #@! TO.N,GND*
X42237000Y-36068000D03*
G04 #@! TO.P,J5,7*
G04 #@! TO.N,/IMD_LED*
X54737000Y-38568000D03*
G04 #@! TO.P,J5,8*
G04 #@! TO.N,GND*
X52237000Y-38568000D03*
G04 #@! TO.P,J5,9*
G04 #@! TO.N,/START_BTN*
X49737000Y-38568000D03*
G04 #@! TO.P,J5,10*
G04 #@! TO.N,GND*
X47237000Y-38568000D03*
G04 #@! TO.P,J5,11*
G04 #@! TO.N,/START_LED*
X44737000Y-38568000D03*
G04 #@! TO.P,J5,12*
G04 #@! TO.N,GND*
X42237000Y-38568000D03*
G04 #@! TD*
D17*
G04 #@! TO.N,/IMD_LED*
X63373000Y-39116000D03*
G04 #@! TO.N,/START_BTN*
X58166000Y-40640000D03*
X68707000Y-40944799D03*
G04 #@! TO.N,/START_LED*
X52324000Y-32258000D03*
G04 #@! TO.N,/STR_POT-*
X58674000Y-66772811D03*
G04 #@! TO.N,/SDA*
X50647600Y-52705000D03*
G04 #@! TO.N,/SCL*
X51181000Y-50165000D03*
G04 #@! TD*
D18*
G04 #@! TO.N,/IMD_LED*
X63373000Y-39116000D02*
X55285000Y-39116000D01*
X55285000Y-39116000D02*
X54737000Y-38568000D01*
G04 #@! TO.N,/START_BTN*
X58166000Y-40640000D02*
X58470799Y-40944799D01*
X68453000Y-40944799D02*
X68707000Y-40944799D01*
X58470799Y-40944799D02*
X68453000Y-40944799D01*
G04 #@! TO.N,/START_LED*
X45815601Y-37489399D02*
X45586999Y-37718001D01*
X45815601Y-35550271D02*
X45815601Y-37489399D01*
X45586999Y-37718001D02*
X44737000Y-38568000D01*
X52324000Y-32258000D02*
X52019201Y-32562799D01*
X52019201Y-32562799D02*
X48803073Y-32562799D01*
X48803073Y-32562799D02*
X45815601Y-35550271D01*
G04 #@! TO.N,/CANH*
X26782660Y-38888000D02*
X25722000Y-38888000D01*
X40513000Y-54356000D02*
X27970601Y-41813601D01*
X27970601Y-41813601D02*
X27970601Y-40075941D01*
X27970601Y-40075941D02*
X26782660Y-38888000D01*
X44196000Y-54356000D02*
X44196000Y-54610000D01*
X44196000Y-54356000D02*
X40513000Y-54356000D01*
X49792000Y-60206000D02*
X55130000Y-60206000D01*
X44196000Y-54610000D02*
X49792000Y-60206000D01*
G04 #@! TO.N,/CANL*
X53130000Y-66938210D02*
X53130000Y-64206000D01*
X56481530Y-70289740D02*
X53130000Y-66938210D01*
X27741999Y-42177999D02*
X26992000Y-41428000D01*
X40555000Y-54991000D02*
X27741999Y-42177999D01*
X43915000Y-54991000D02*
X40555000Y-54991000D01*
X53130000Y-64206000D02*
X43915000Y-54991000D01*
G04 #@! TO.N,/STR_POT-*
X65130000Y-64380811D02*
X65130000Y-64206000D01*
X62738000Y-66772811D02*
X65130000Y-64380811D01*
X62738000Y-66772811D02*
X58674000Y-66772811D01*
G04 #@! TO.N,/SDA*
X57130000Y-62084680D02*
X57130000Y-64206000D01*
X56894320Y-61849000D02*
X57130000Y-62084680D01*
X56642000Y-61849000D02*
X56894320Y-61849000D01*
X56858601Y-61632399D02*
X56642000Y-61849000D01*
X56858601Y-59600399D02*
X56858601Y-61632399D01*
X56896000Y-59563000D02*
X56858601Y-59600399D01*
X54858601Y-57734941D02*
X55013330Y-57889670D01*
X55013330Y-57889670D02*
X55372000Y-57889670D01*
X55372000Y-57889670D02*
X56896000Y-59413670D01*
X56896000Y-59413670D02*
X56896000Y-59563000D01*
X50794601Y-52953601D02*
X50794601Y-52852001D01*
X50794601Y-52852001D02*
X50647600Y-52705000D01*
X50952399Y-53009799D02*
X53893400Y-53009799D01*
X50647600Y-52705000D02*
X50952399Y-53009799D01*
X53893400Y-53009799D02*
X54858601Y-53975000D01*
X54858601Y-53975000D02*
X54858601Y-57734941D01*
G04 #@! TO.N,/SCL*
X59630001Y-62706001D02*
X59071671Y-62706001D01*
X61130000Y-64206000D02*
X59630001Y-62706001D01*
X59071671Y-62706001D02*
X57401399Y-61035729D01*
X57401399Y-61035729D02*
X57401399Y-59035729D01*
X57401399Y-59035729D02*
X55245000Y-56879330D01*
X55245000Y-52908934D02*
X55245000Y-52959000D01*
X52805865Y-50469799D02*
X55245000Y-52908934D01*
X51485799Y-50469799D02*
X52805865Y-50469799D01*
X55245000Y-56879330D02*
X55245000Y-52959000D01*
X51181000Y-50165000D02*
X51485799Y-50469799D01*
G04 #@! TD*
D19*
G04 #@! TO.N,GND*
G36*
X23186816Y-28900543D02*
X51652099Y-31600823D01*
X51527276Y-31725646D01*
X51475105Y-31851599D01*
X48873114Y-31851599D01*
X48803072Y-31837667D01*
X48733030Y-31851599D01*
X48733027Y-31851599D01*
X48525577Y-31892863D01*
X48525576Y-31892864D01*
X48525575Y-31892864D01*
X48349708Y-32010375D01*
X48349706Y-32010377D01*
X48290327Y-32050053D01*
X48250651Y-32109432D01*
X45558966Y-34801117D01*
X45032385Y-34583000D01*
X44441615Y-34583000D01*
X43895815Y-34809078D01*
X43478078Y-35226815D01*
X43463519Y-35261963D01*
X43280958Y-35203647D01*
X42416605Y-36068000D01*
X43280958Y-36932353D01*
X43463519Y-36874037D01*
X43478078Y-36909185D01*
X43886893Y-37318000D01*
X43478078Y-37726815D01*
X43463519Y-37761963D01*
X43280958Y-37703647D01*
X42416605Y-38568000D01*
X43280958Y-39432353D01*
X43463519Y-39374037D01*
X43478078Y-39409185D01*
X43895815Y-39826922D01*
X44441615Y-40053000D01*
X45032385Y-40053000D01*
X45578185Y-39826922D01*
X45793149Y-39611958D01*
X46372647Y-39611958D01*
X46452920Y-39863259D01*
X47008279Y-40064718D01*
X47598458Y-40038315D01*
X48021080Y-39863259D01*
X48101353Y-39611958D01*
X47237000Y-38747605D01*
X46372647Y-39611958D01*
X45793149Y-39611958D01*
X45995922Y-39409185D01*
X46010481Y-39374037D01*
X46193042Y-39432353D01*
X47057395Y-38568000D01*
X47043253Y-38553858D01*
X47222858Y-38374253D01*
X47237000Y-38388395D01*
X48101353Y-37524042D01*
X48035537Y-37318000D01*
X48101353Y-37111958D01*
X47237000Y-36247605D01*
X47222858Y-36261748D01*
X47043253Y-36082143D01*
X47057395Y-36068000D01*
X47043253Y-36053858D01*
X47222858Y-35874253D01*
X47237000Y-35888395D01*
X47251143Y-35874253D01*
X47430748Y-36053858D01*
X47416605Y-36068000D01*
X48280958Y-36932353D01*
X48463519Y-36874037D01*
X48478078Y-36909185D01*
X48886893Y-37318000D01*
X48478078Y-37726815D01*
X48463519Y-37761963D01*
X48280958Y-37703647D01*
X47416605Y-38568000D01*
X48280958Y-39432353D01*
X48463519Y-39374037D01*
X48478078Y-39409185D01*
X48895815Y-39826922D01*
X49441615Y-40053000D01*
X50032385Y-40053000D01*
X50578185Y-39826922D01*
X50793149Y-39611958D01*
X51372647Y-39611958D01*
X51452920Y-39863259D01*
X52008279Y-40064718D01*
X52598458Y-40038315D01*
X53021080Y-39863259D01*
X53101353Y-39611958D01*
X52237000Y-38747605D01*
X51372647Y-39611958D01*
X50793149Y-39611958D01*
X50995922Y-39409185D01*
X51010481Y-39374037D01*
X51193042Y-39432353D01*
X52057395Y-38568000D01*
X51193042Y-37703647D01*
X51010481Y-37761963D01*
X50995922Y-37726815D01*
X50587107Y-37318000D01*
X50987000Y-36918107D01*
X51395815Y-37326922D01*
X51430963Y-37341481D01*
X51372647Y-37524042D01*
X52237000Y-38388395D01*
X53101353Y-37524042D01*
X53043037Y-37341481D01*
X53078185Y-37326922D01*
X53342240Y-37062867D01*
X53502414Y-37302586D01*
X53742133Y-37462760D01*
X53478078Y-37726815D01*
X53463519Y-37761963D01*
X53280958Y-37703647D01*
X52416605Y-38568000D01*
X53280958Y-39432353D01*
X53463519Y-39374037D01*
X53478078Y-39409185D01*
X53895815Y-39826922D01*
X54441615Y-40053000D01*
X55032385Y-40053000D01*
X55577514Y-39827200D01*
X57672457Y-39827200D01*
X57633646Y-39843276D01*
X57369276Y-40107646D01*
X57226200Y-40453062D01*
X57226200Y-40826938D01*
X57369276Y-41172354D01*
X57633646Y-41436724D01*
X57979062Y-41579800D01*
X58141019Y-41579800D01*
X58193303Y-41614735D01*
X58400753Y-41655999D01*
X58400757Y-41655999D01*
X58470799Y-41669931D01*
X58540841Y-41655999D01*
X68089122Y-41655999D01*
X68174646Y-41741523D01*
X68520062Y-41884599D01*
X68893938Y-41884599D01*
X69239354Y-41741523D01*
X69503724Y-41477153D01*
X69646800Y-41131737D01*
X69646800Y-40757861D01*
X69503724Y-40412445D01*
X69239354Y-40148075D01*
X68893938Y-40004999D01*
X68520062Y-40004999D01*
X68174646Y-40148075D01*
X68089122Y-40233599D01*
X59014895Y-40233599D01*
X58962724Y-40107646D01*
X58698354Y-39843276D01*
X58659543Y-39827200D01*
X62755122Y-39827200D01*
X62840646Y-39912724D01*
X63186062Y-40055800D01*
X63559938Y-40055800D01*
X63905354Y-39912724D01*
X64169724Y-39648354D01*
X64312800Y-39302938D01*
X64312800Y-38929062D01*
X64169724Y-38583646D01*
X63905354Y-38319276D01*
X63559938Y-38176200D01*
X63186062Y-38176200D01*
X62840646Y-38319276D01*
X62755122Y-38404800D01*
X56222000Y-38404800D01*
X56222000Y-38272615D01*
X55995922Y-37726815D01*
X55731867Y-37462760D01*
X55971586Y-37302586D01*
X56166126Y-37011435D01*
X56234440Y-36668000D01*
X56234440Y-35468000D01*
X56166126Y-35124565D01*
X55971586Y-34833414D01*
X55680435Y-34638874D01*
X55337000Y-34570560D01*
X54137000Y-34570560D01*
X53793565Y-34638874D01*
X53502414Y-34833414D01*
X53342240Y-35073133D01*
X53078185Y-34809078D01*
X52532385Y-34583000D01*
X51941615Y-34583000D01*
X51395815Y-34809078D01*
X50987000Y-35217893D01*
X50578185Y-34809078D01*
X50032385Y-34583000D01*
X49772000Y-34583000D01*
X49772000Y-34472398D01*
X49576371Y-34000106D01*
X49214894Y-33638629D01*
X48874166Y-33497495D01*
X49097662Y-33273999D01*
X51949160Y-33273999D01*
X52019201Y-33287931D01*
X52089242Y-33273999D01*
X52089247Y-33273999D01*
X52296697Y-33232735D01*
X52348981Y-33197800D01*
X52510938Y-33197800D01*
X52856354Y-33054724D01*
X53120724Y-32790354D01*
X53263800Y-32444938D01*
X53263800Y-32071062D01*
X53126973Y-31740733D01*
X82088372Y-34488077D01*
X82573956Y-34596786D01*
X82975723Y-34801665D01*
X83313915Y-35100021D01*
X83589125Y-35505268D01*
X83608597Y-35545583D01*
X89499674Y-48424087D01*
X89443914Y-48479847D01*
X89195000Y-49080778D01*
X89195000Y-49731222D01*
X89443914Y-50332153D01*
X89903847Y-50792086D01*
X90504778Y-51041000D01*
X90696741Y-51041000D01*
X101929220Y-75596361D01*
X102077865Y-76071239D01*
X102101318Y-76521615D01*
X102012031Y-76963675D01*
X101815609Y-77369650D01*
X101524404Y-77714013D01*
X101156704Y-77975140D01*
X100734227Y-78137154D01*
X100257137Y-78194120D01*
X23028661Y-77974721D01*
X22535155Y-77910952D01*
X22116311Y-77743742D01*
X21752211Y-77477623D01*
X21465726Y-77129312D01*
X21274864Y-76720703D01*
X21185058Y-76242544D01*
X21182539Y-76158586D01*
X21182539Y-74400938D01*
X23957060Y-74400938D01*
X23957060Y-74912142D01*
X24152689Y-75384434D01*
X24514166Y-75745911D01*
X24986458Y-75941540D01*
X25497662Y-75941540D01*
X25969954Y-75745911D01*
X26331431Y-75384434D01*
X26512060Y-74948355D01*
X26692689Y-75384434D01*
X27054166Y-75745911D01*
X27526458Y-75941540D01*
X28037662Y-75941540D01*
X28509954Y-75745911D01*
X28871431Y-75384434D01*
X29052060Y-74948355D01*
X29232689Y-75384434D01*
X29594166Y-75745911D01*
X30066458Y-75941540D01*
X30577662Y-75941540D01*
X31049954Y-75745911D01*
X31411431Y-75384434D01*
X31592060Y-74948355D01*
X31772689Y-75384434D01*
X32134166Y-75745911D01*
X32606458Y-75941540D01*
X33117662Y-75941540D01*
X33589954Y-75745911D01*
X33951431Y-75384434D01*
X34132060Y-74948355D01*
X34312689Y-75384434D01*
X34674166Y-75745911D01*
X35146458Y-75941540D01*
X35657662Y-75941540D01*
X36129954Y-75745911D01*
X36491431Y-75384434D01*
X36687060Y-74912142D01*
X36687060Y-74843779D01*
X37145907Y-75302626D01*
X37746838Y-75551540D01*
X38397282Y-75551540D01*
X38998213Y-75302626D01*
X39458146Y-74842693D01*
X39707060Y-74241762D01*
X39707060Y-73591318D01*
X39458146Y-72990387D01*
X38998213Y-72530454D01*
X38397282Y-72281540D01*
X37957060Y-72281540D01*
X37957060Y-71860938D01*
X37761431Y-71388646D01*
X37561541Y-71188756D01*
X48142120Y-71188756D01*
X48197801Y-71419351D01*
X48680608Y-71587362D01*
X49190958Y-71557823D01*
X49525259Y-71419351D01*
X49580940Y-71188756D01*
X48861530Y-70469345D01*
X48142120Y-71188756D01*
X37561541Y-71188756D01*
X37399954Y-71027169D01*
X36927662Y-70831540D01*
X36416458Y-70831540D01*
X35944166Y-71027169D01*
X35582689Y-71388646D01*
X35402060Y-71824725D01*
X35221431Y-71388646D01*
X34859954Y-71027169D01*
X34387662Y-70831540D01*
X33876458Y-70831540D01*
X33404166Y-71027169D01*
X33042689Y-71388646D01*
X32862060Y-71824725D01*
X32681431Y-71388646D01*
X32319954Y-71027169D01*
X31847662Y-70831540D01*
X31336458Y-70831540D01*
X30864166Y-71027169D01*
X30502689Y-71388646D01*
X30322060Y-71824725D01*
X30141431Y-71388646D01*
X29779954Y-71027169D01*
X29307662Y-70831540D01*
X28796458Y-70831540D01*
X28324166Y-71027169D01*
X27962689Y-71388646D01*
X27782060Y-71824725D01*
X27601431Y-71388646D01*
X27239954Y-71027169D01*
X26767662Y-70831540D01*
X26256458Y-70831540D01*
X25784166Y-71027169D01*
X25422689Y-71388646D01*
X25227060Y-71860938D01*
X25227060Y-72372142D01*
X25422689Y-72844434D01*
X25784166Y-73205911D01*
X26256458Y-73401540D01*
X26767662Y-73401540D01*
X27239954Y-73205911D01*
X27601431Y-72844434D01*
X27782060Y-72408355D01*
X27962689Y-72844434D01*
X28324166Y-73205911D01*
X28796458Y-73401540D01*
X29307662Y-73401540D01*
X29779954Y-73205911D01*
X30141431Y-72844434D01*
X30322060Y-72408355D01*
X30502689Y-72844434D01*
X30864166Y-73205911D01*
X31336458Y-73401540D01*
X31847662Y-73401540D01*
X32319954Y-73205911D01*
X32681431Y-72844434D01*
X32862060Y-72408355D01*
X33042689Y-72844434D01*
X33404166Y-73205911D01*
X33876458Y-73401540D01*
X34387662Y-73401540D01*
X34859954Y-73205911D01*
X35221431Y-72844434D01*
X35402060Y-72408355D01*
X35582689Y-72844434D01*
X35944166Y-73205911D01*
X36416458Y-73401540D01*
X36515669Y-73401540D01*
X36437060Y-73591318D01*
X36437060Y-73874275D01*
X36129954Y-73567169D01*
X35657662Y-73371540D01*
X35146458Y-73371540D01*
X34674166Y-73567169D01*
X34312689Y-73928646D01*
X34132060Y-74364725D01*
X33951431Y-73928646D01*
X33589954Y-73567169D01*
X33117662Y-73371540D01*
X32606458Y-73371540D01*
X32134166Y-73567169D01*
X31772689Y-73928646D01*
X31592060Y-74364725D01*
X31411431Y-73928646D01*
X31049954Y-73567169D01*
X30577662Y-73371540D01*
X30066458Y-73371540D01*
X29594166Y-73567169D01*
X29232689Y-73928646D01*
X29052060Y-74364725D01*
X28871431Y-73928646D01*
X28509954Y-73567169D01*
X28037662Y-73371540D01*
X27526458Y-73371540D01*
X27054166Y-73567169D01*
X26692689Y-73928646D01*
X26512060Y-74364725D01*
X26331431Y-73928646D01*
X25969954Y-73567169D01*
X25497662Y-73371540D01*
X24986458Y-73371540D01*
X24514166Y-73567169D01*
X24152689Y-73928646D01*
X23957060Y-74400938D01*
X21182539Y-74400938D01*
X21182539Y-67180778D01*
X40295000Y-67180778D01*
X40295000Y-67831222D01*
X40543914Y-68432153D01*
X41003847Y-68892086D01*
X41604778Y-69141000D01*
X42255222Y-69141000D01*
X42856153Y-68892086D01*
X43316086Y-68432153D01*
X43565000Y-67831222D01*
X43565000Y-67180778D01*
X43316086Y-66579847D01*
X42856153Y-66119914D01*
X42255222Y-65871000D01*
X41604778Y-65871000D01*
X41003847Y-66119914D01*
X40543914Y-66579847D01*
X40295000Y-67180778D01*
X21182539Y-67180778D01*
X21182539Y-38431659D01*
X21977946Y-38431659D01*
X22122467Y-38737444D01*
X22867993Y-39026571D01*
X23667414Y-39008389D01*
X24321533Y-38737444D01*
X24337000Y-38704718D01*
X24337000Y-39163494D01*
X24547853Y-39672540D01*
X24937460Y-40062147D01*
X25446506Y-40273000D01*
X25997494Y-40273000D01*
X26506540Y-40062147D01*
X26728779Y-39839908D01*
X26931871Y-40043000D01*
X26716506Y-40043000D01*
X26207460Y-40253853D01*
X25817853Y-40643460D01*
X25607000Y-41152506D01*
X25607000Y-41703494D01*
X25817853Y-42212540D01*
X26207460Y-42602147D01*
X26716506Y-42813000D01*
X27267494Y-42813000D01*
X27340834Y-42782622D01*
X40002578Y-55444367D01*
X40042254Y-55503746D01*
X40101633Y-55543422D01*
X40101635Y-55543424D01*
X40217336Y-55620733D01*
X40277504Y-55660936D01*
X40484954Y-55702200D01*
X40484958Y-55702200D01*
X40555000Y-55716132D01*
X40625042Y-55702200D01*
X43620412Y-55702200D01*
X46564212Y-58646000D01*
X46220240Y-58646000D01*
X45463104Y-58959616D01*
X44883616Y-59539104D01*
X44570000Y-60296240D01*
X44570000Y-61115760D01*
X44883616Y-61872896D01*
X45463104Y-62452384D01*
X46220240Y-62766000D01*
X47039760Y-62766000D01*
X47796896Y-62452384D01*
X48376384Y-61872896D01*
X48690000Y-61115760D01*
X48690000Y-60771789D01*
X51201353Y-63283142D01*
X50995000Y-63781322D01*
X50995000Y-64630678D01*
X51320034Y-65415380D01*
X51920620Y-66015966D01*
X52418800Y-66222319D01*
X52418800Y-66464740D01*
X52415928Y-66464740D01*
X51943636Y-66660369D01*
X51582159Y-67021846D01*
X51401530Y-67457925D01*
X51220901Y-67021846D01*
X50859424Y-66660369D01*
X50387132Y-66464740D01*
X49875928Y-66464740D01*
X49403636Y-66660369D01*
X49042159Y-67021846D01*
X48846530Y-67494138D01*
X48846530Y-67562501D01*
X48387683Y-67103654D01*
X47786752Y-66854740D01*
X47136308Y-66854740D01*
X46535377Y-67103654D01*
X46075444Y-67563587D01*
X45826530Y-68164518D01*
X45826530Y-68814962D01*
X46075444Y-69415893D01*
X46535377Y-69875826D01*
X47136308Y-70124740D01*
X47564830Y-70124740D01*
X47593447Y-70619168D01*
X47731919Y-70953469D01*
X47962514Y-71009150D01*
X48681925Y-70289740D01*
X48667783Y-70275598D01*
X48847388Y-70095993D01*
X48861530Y-70110135D01*
X49580940Y-69390724D01*
X49525259Y-69160129D01*
X49042452Y-68992118D01*
X49022675Y-68993263D01*
X49096530Y-68814962D01*
X49096530Y-68532005D01*
X49403636Y-68839111D01*
X49875928Y-69034740D01*
X50387132Y-69034740D01*
X50859424Y-68839111D01*
X51220901Y-68477634D01*
X51401530Y-68041555D01*
X51582159Y-68477634D01*
X51943636Y-68839111D01*
X52415928Y-69034740D01*
X52927132Y-69034740D01*
X53399424Y-68839111D01*
X53712268Y-68526267D01*
X54190742Y-69004740D01*
X53685928Y-69004740D01*
X53213636Y-69200369D01*
X52852159Y-69561846D01*
X52671530Y-69997925D01*
X52490901Y-69561846D01*
X52129424Y-69200369D01*
X51657132Y-69004740D01*
X51145928Y-69004740D01*
X50673636Y-69200369D01*
X50312159Y-69561846D01*
X50131758Y-69997374D01*
X50129613Y-69960312D01*
X49991141Y-69626011D01*
X49760546Y-69570330D01*
X49041135Y-70289740D01*
X49760546Y-71009150D01*
X49991141Y-70953469D01*
X50125570Y-70567166D01*
X50312159Y-71017634D01*
X50673636Y-71379111D01*
X51145928Y-71574740D01*
X51657132Y-71574740D01*
X52129424Y-71379111D01*
X52490901Y-71017634D01*
X52671530Y-70581555D01*
X52852159Y-71017634D01*
X53213636Y-71379111D01*
X53685928Y-71574740D01*
X54197132Y-71574740D01*
X54669424Y-71379111D01*
X55030901Y-71017634D01*
X55211530Y-70581555D01*
X55392159Y-71017634D01*
X55753636Y-71379111D01*
X56225928Y-71574740D01*
X56737132Y-71574740D01*
X57209424Y-71379111D01*
X57570901Y-71017634D01*
X57751530Y-70581555D01*
X57932159Y-71017634D01*
X58293636Y-71379111D01*
X58765928Y-71574740D01*
X59277132Y-71574740D01*
X59749424Y-71379111D01*
X60110901Y-71017634D01*
X60291530Y-70581555D01*
X60472159Y-71017634D01*
X60833636Y-71379111D01*
X61305928Y-71574740D01*
X61817132Y-71574740D01*
X62289424Y-71379111D01*
X62650901Y-71017634D01*
X62831530Y-70581555D01*
X63012159Y-71017634D01*
X63373636Y-71379111D01*
X63845928Y-71574740D01*
X64357132Y-71574740D01*
X64829424Y-71379111D01*
X65190901Y-71017634D01*
X65371530Y-70581555D01*
X65552159Y-71017634D01*
X65913636Y-71379111D01*
X66385928Y-71574740D01*
X66897132Y-71574740D01*
X67369424Y-71379111D01*
X67730901Y-71017634D01*
X67911530Y-70581555D01*
X68092159Y-71017634D01*
X68453636Y-71379111D01*
X68925928Y-71574740D01*
X69437132Y-71574740D01*
X69909424Y-71379111D01*
X70270901Y-71017634D01*
X70451530Y-70581555D01*
X70632159Y-71017634D01*
X70993636Y-71379111D01*
X71465928Y-71574740D01*
X71977132Y-71574740D01*
X72449424Y-71379111D01*
X72810901Y-71017634D01*
X73006530Y-70545342D01*
X73006530Y-70034138D01*
X72810901Y-69561846D01*
X72449424Y-69200369D01*
X71977132Y-69004740D01*
X71465928Y-69004740D01*
X70993636Y-69200369D01*
X70632159Y-69561846D01*
X70451530Y-69997925D01*
X70270901Y-69561846D01*
X69909424Y-69200369D01*
X69437132Y-69004740D01*
X68925928Y-69004740D01*
X68453636Y-69200369D01*
X68092159Y-69561846D01*
X67911530Y-69997925D01*
X67730901Y-69561846D01*
X67369424Y-69200369D01*
X66897132Y-69004740D01*
X66385928Y-69004740D01*
X65913636Y-69200369D01*
X65552159Y-69561846D01*
X65371530Y-69997925D01*
X65190901Y-69561846D01*
X64829424Y-69200369D01*
X64357132Y-69004740D01*
X63845928Y-69004740D01*
X63373636Y-69200369D01*
X63012159Y-69561846D01*
X62831530Y-69997925D01*
X62650901Y-69561846D01*
X62289424Y-69200369D01*
X61817132Y-69004740D01*
X61305928Y-69004740D01*
X60833636Y-69200369D01*
X60472159Y-69561846D01*
X60291530Y-69997925D01*
X60110901Y-69561846D01*
X59749424Y-69200369D01*
X59277132Y-69004740D01*
X58765928Y-69004740D01*
X58293636Y-69200369D01*
X57932159Y-69561846D01*
X57751530Y-69997925D01*
X57570901Y-69561846D01*
X57209424Y-69200369D01*
X56737132Y-69004740D01*
X56225928Y-69004740D01*
X56209234Y-69011655D01*
X55988057Y-68790478D01*
X56300901Y-68477634D01*
X56481530Y-68041555D01*
X56662159Y-68477634D01*
X57023636Y-68839111D01*
X57495928Y-69034740D01*
X58007132Y-69034740D01*
X58479424Y-68839111D01*
X58840901Y-68477634D01*
X59021530Y-68041555D01*
X59202159Y-68477634D01*
X59563636Y-68839111D01*
X60035928Y-69034740D01*
X60547132Y-69034740D01*
X61019424Y-68839111D01*
X61380901Y-68477634D01*
X61561530Y-68041555D01*
X61742159Y-68477634D01*
X62103636Y-68839111D01*
X62575928Y-69034740D01*
X63087132Y-69034740D01*
X63559424Y-68839111D01*
X63920901Y-68477634D01*
X64101530Y-68041555D01*
X64282159Y-68477634D01*
X64643636Y-68839111D01*
X65115928Y-69034740D01*
X65627132Y-69034740D01*
X66099424Y-68839111D01*
X66460901Y-68477634D01*
X66641530Y-68041555D01*
X66822159Y-68477634D01*
X67183636Y-68839111D01*
X67655928Y-69034740D01*
X68167132Y-69034740D01*
X68639424Y-68839111D01*
X69000901Y-68477634D01*
X69181530Y-68041555D01*
X69362159Y-68477634D01*
X69723636Y-68839111D01*
X70195928Y-69034740D01*
X70707132Y-69034740D01*
X71179424Y-68839111D01*
X71540901Y-68477634D01*
X71721530Y-68041555D01*
X71902159Y-68477634D01*
X72263636Y-68839111D01*
X72735928Y-69034740D01*
X73247132Y-69034740D01*
X73719424Y-68839111D01*
X74080901Y-68477634D01*
X74276530Y-68005342D01*
X74276530Y-67494138D01*
X74146733Y-67180778D01*
X90695000Y-67180778D01*
X90695000Y-67831222D01*
X90943914Y-68432153D01*
X91403847Y-68892086D01*
X92004778Y-69141000D01*
X92655222Y-69141000D01*
X93256153Y-68892086D01*
X93716086Y-68432153D01*
X93965000Y-67831222D01*
X93965000Y-67180778D01*
X93716086Y-66579847D01*
X93256153Y-66119914D01*
X92655222Y-65871000D01*
X92004778Y-65871000D01*
X91403847Y-66119914D01*
X90943914Y-66579847D01*
X90695000Y-67180778D01*
X74146733Y-67180778D01*
X74080901Y-67021846D01*
X73719424Y-66660369D01*
X73247132Y-66464740D01*
X72735928Y-66464740D01*
X72263636Y-66660369D01*
X71902159Y-67021846D01*
X71721530Y-67457925D01*
X71540901Y-67021846D01*
X71179424Y-66660369D01*
X70707132Y-66464740D01*
X70195928Y-66464740D01*
X69723636Y-66660369D01*
X69362159Y-67021846D01*
X69181530Y-67457925D01*
X69000901Y-67021846D01*
X68639424Y-66660369D01*
X68167132Y-66464740D01*
X67655928Y-66464740D01*
X67183636Y-66660369D01*
X66822159Y-67021846D01*
X66641530Y-67457925D01*
X66460901Y-67021846D01*
X66099424Y-66660369D01*
X65627132Y-66464740D01*
X65115928Y-66464740D01*
X64643636Y-66660369D01*
X64282159Y-67021846D01*
X64101530Y-67457925D01*
X63920901Y-67021846D01*
X63707827Y-66808772D01*
X64330752Y-66185848D01*
X64705322Y-66341000D01*
X65554678Y-66341000D01*
X66339380Y-66015966D01*
X66939966Y-65415380D01*
X67130000Y-64956597D01*
X67320034Y-65415380D01*
X67920620Y-66015966D01*
X68705322Y-66341000D01*
X69554678Y-66341000D01*
X70339380Y-66015966D01*
X70939966Y-65415380D01*
X71130000Y-64956597D01*
X71320034Y-65415380D01*
X71920620Y-66015966D01*
X72705322Y-66341000D01*
X73554678Y-66341000D01*
X74339380Y-66015966D01*
X74939966Y-65415380D01*
X75130000Y-64956597D01*
X75320034Y-65415380D01*
X75920620Y-66015966D01*
X76705322Y-66341000D01*
X77554678Y-66341000D01*
X78339380Y-66015966D01*
X78939966Y-65415380D01*
X79130000Y-64956597D01*
X79320034Y-65415380D01*
X79920620Y-66015966D01*
X80705322Y-66341000D01*
X81554678Y-66341000D01*
X82339380Y-66015966D01*
X82939966Y-65415380D01*
X83265000Y-64630678D01*
X83265000Y-63781322D01*
X82939966Y-62996620D01*
X82339380Y-62396034D01*
X81554678Y-62071000D01*
X80705322Y-62071000D01*
X79920620Y-62396034D01*
X79320034Y-62996620D01*
X79130000Y-63455403D01*
X78939966Y-62996620D01*
X78339380Y-62396034D01*
X77554678Y-62071000D01*
X76705322Y-62071000D01*
X75920620Y-62396034D01*
X75320034Y-62996620D01*
X75130000Y-63455403D01*
X74939966Y-62996620D01*
X74339380Y-62396034D01*
X73554678Y-62071000D01*
X72705322Y-62071000D01*
X71920620Y-62396034D01*
X71320034Y-62996620D01*
X71130000Y-63455403D01*
X70939966Y-62996620D01*
X70339380Y-62396034D01*
X69554678Y-62071000D01*
X68705322Y-62071000D01*
X67920620Y-62396034D01*
X67320034Y-62996620D01*
X67130000Y-63455403D01*
X66939966Y-62996620D01*
X66339380Y-62396034D01*
X65554678Y-62071000D01*
X64705322Y-62071000D01*
X63920620Y-62396034D01*
X63320034Y-62996620D01*
X63130000Y-63455403D01*
X62939966Y-62996620D01*
X62339380Y-62396034D01*
X61554678Y-62071000D01*
X60705322Y-62071000D01*
X60207141Y-62277353D01*
X60182424Y-62252636D01*
X60142747Y-62193255D01*
X60054202Y-62134091D01*
X60339380Y-62015966D01*
X60939966Y-61415380D01*
X61130000Y-60956597D01*
X61320034Y-61415380D01*
X61920620Y-62015966D01*
X62705322Y-62341000D01*
X63554678Y-62341000D01*
X64339380Y-62015966D01*
X64939966Y-61415380D01*
X65130000Y-60956597D01*
X65320034Y-61415380D01*
X65920620Y-62015966D01*
X66705322Y-62341000D01*
X67554678Y-62341000D01*
X68339380Y-62015966D01*
X68939966Y-61415380D01*
X69130000Y-60956597D01*
X69320034Y-61415380D01*
X69920620Y-62015966D01*
X70705322Y-62341000D01*
X71554678Y-62341000D01*
X72339380Y-62015966D01*
X72939966Y-61415380D01*
X73130000Y-60956597D01*
X73320034Y-61415380D01*
X73920620Y-62015966D01*
X74705322Y-62341000D01*
X75554678Y-62341000D01*
X76339380Y-62015966D01*
X76939966Y-61415380D01*
X77130000Y-60956597D01*
X77320034Y-61415380D01*
X77920620Y-62015966D01*
X78705322Y-62341000D01*
X79554678Y-62341000D01*
X80339380Y-62015966D01*
X80939966Y-61415380D01*
X81265000Y-60630678D01*
X81265000Y-60296240D01*
X85570000Y-60296240D01*
X85570000Y-61115760D01*
X85883616Y-61872896D01*
X86463104Y-62452384D01*
X87220240Y-62766000D01*
X88039760Y-62766000D01*
X88796896Y-62452384D01*
X89376384Y-61872896D01*
X89690000Y-61115760D01*
X89690000Y-60296240D01*
X89376384Y-59539104D01*
X88796896Y-58959616D01*
X88039760Y-58646000D01*
X87220240Y-58646000D01*
X86463104Y-58959616D01*
X85883616Y-59539104D01*
X85570000Y-60296240D01*
X81265000Y-60296240D01*
X81265000Y-59781322D01*
X80939966Y-58996620D01*
X80339380Y-58396034D01*
X79554678Y-58071000D01*
X78705322Y-58071000D01*
X77920620Y-58396034D01*
X77320034Y-58996620D01*
X77130000Y-59455403D01*
X76939966Y-58996620D01*
X76339380Y-58396034D01*
X75554678Y-58071000D01*
X74705322Y-58071000D01*
X73920620Y-58396034D01*
X73320034Y-58996620D01*
X73130000Y-59455403D01*
X72939966Y-58996620D01*
X72339380Y-58396034D01*
X71554678Y-58071000D01*
X70705322Y-58071000D01*
X69920620Y-58396034D01*
X69320034Y-58996620D01*
X69130000Y-59455403D01*
X68939966Y-58996620D01*
X68339380Y-58396034D01*
X67554678Y-58071000D01*
X66705322Y-58071000D01*
X65920620Y-58396034D01*
X65320034Y-58996620D01*
X65130000Y-59455403D01*
X64939966Y-58996620D01*
X64339380Y-58396034D01*
X63554678Y-58071000D01*
X62705322Y-58071000D01*
X61920620Y-58396034D01*
X61320034Y-58996620D01*
X61130000Y-59455403D01*
X60939966Y-58996620D01*
X60339380Y-58396034D01*
X59554678Y-58071000D01*
X58705322Y-58071000D01*
X57920620Y-58396034D01*
X57844056Y-58472598D01*
X57672157Y-58300698D01*
X58304582Y-58038739D01*
X58464365Y-57719970D01*
X57130000Y-56385605D01*
X57115858Y-56399748D01*
X56936253Y-56220143D01*
X56950395Y-56206000D01*
X57309605Y-56206000D01*
X58643970Y-57540365D01*
X58962739Y-57380582D01*
X59129457Y-56955285D01*
X59320034Y-57415380D01*
X59920620Y-58015966D01*
X60705322Y-58341000D01*
X61554678Y-58341000D01*
X62339380Y-58015966D01*
X62635376Y-57719970D01*
X63795635Y-57719970D01*
X63955418Y-58038739D01*
X64746187Y-58348723D01*
X65595387Y-58332497D01*
X66304582Y-58038739D01*
X66464365Y-57719970D01*
X65130000Y-56385605D01*
X63795635Y-57719970D01*
X62635376Y-57719970D01*
X62939966Y-57415380D01*
X63125820Y-56966688D01*
X63297261Y-57380582D01*
X63616030Y-57540365D01*
X64950395Y-56206000D01*
X65309605Y-56206000D01*
X66643970Y-57540365D01*
X66962739Y-57380582D01*
X67129457Y-56955285D01*
X67320034Y-57415380D01*
X67920620Y-58015966D01*
X68705322Y-58341000D01*
X69554678Y-58341000D01*
X70339380Y-58015966D01*
X70635376Y-57719970D01*
X71795635Y-57719970D01*
X71955418Y-58038739D01*
X72746187Y-58348723D01*
X73595387Y-58332497D01*
X74304582Y-58038739D01*
X74464365Y-57719970D01*
X73130000Y-56385605D01*
X71795635Y-57719970D01*
X70635376Y-57719970D01*
X70939966Y-57415380D01*
X71125820Y-56966688D01*
X71297261Y-57380582D01*
X71616030Y-57540365D01*
X72950395Y-56206000D01*
X73309605Y-56206000D01*
X74643970Y-57540365D01*
X74962739Y-57380582D01*
X75129457Y-56955285D01*
X75320034Y-57415380D01*
X75920620Y-58015966D01*
X76705322Y-58341000D01*
X77554678Y-58341000D01*
X78339380Y-58015966D01*
X78635376Y-57719970D01*
X79795635Y-57719970D01*
X79955418Y-58038739D01*
X80746187Y-58348723D01*
X81595387Y-58332497D01*
X82304582Y-58038739D01*
X82464365Y-57719970D01*
X81130000Y-56385605D01*
X79795635Y-57719970D01*
X78635376Y-57719970D01*
X78939966Y-57415380D01*
X79125820Y-56966688D01*
X79297261Y-57380582D01*
X79616030Y-57540365D01*
X80950395Y-56206000D01*
X81309605Y-56206000D01*
X82643970Y-57540365D01*
X82962739Y-57380582D01*
X83272723Y-56589813D01*
X83256497Y-55740613D01*
X82962739Y-55031418D01*
X82643970Y-54871635D01*
X81309605Y-56206000D01*
X80950395Y-56206000D01*
X79616030Y-54871635D01*
X79297261Y-55031418D01*
X79130543Y-55456715D01*
X78939966Y-54996620D01*
X78635376Y-54692030D01*
X79795635Y-54692030D01*
X81130000Y-56026395D01*
X82464365Y-54692030D01*
X82304582Y-54373261D01*
X81513813Y-54063277D01*
X80664613Y-54079503D01*
X79955418Y-54373261D01*
X79795635Y-54692030D01*
X78635376Y-54692030D01*
X78339380Y-54396034D01*
X77554678Y-54071000D01*
X76705322Y-54071000D01*
X75920620Y-54396034D01*
X75320034Y-54996620D01*
X75134180Y-55445312D01*
X74962739Y-55031418D01*
X74643970Y-54871635D01*
X73309605Y-56206000D01*
X72950395Y-56206000D01*
X71616030Y-54871635D01*
X71297261Y-55031418D01*
X71130543Y-55456715D01*
X70939966Y-54996620D01*
X70635376Y-54692030D01*
X71795635Y-54692030D01*
X73130000Y-56026395D01*
X74464365Y-54692030D01*
X74304582Y-54373261D01*
X73513813Y-54063277D01*
X72664613Y-54079503D01*
X71955418Y-54373261D01*
X71795635Y-54692030D01*
X70635376Y-54692030D01*
X70339380Y-54396034D01*
X69554678Y-54071000D01*
X68705322Y-54071000D01*
X67920620Y-54396034D01*
X67320034Y-54996620D01*
X67134180Y-55445312D01*
X66962739Y-55031418D01*
X66643970Y-54871635D01*
X65309605Y-56206000D01*
X64950395Y-56206000D01*
X63616030Y-54871635D01*
X63297261Y-55031418D01*
X63130543Y-55456715D01*
X62939966Y-54996620D01*
X62635376Y-54692030D01*
X63795635Y-54692030D01*
X65130000Y-56026395D01*
X66464365Y-54692030D01*
X66304582Y-54373261D01*
X65513813Y-54063277D01*
X64664613Y-54079503D01*
X63955418Y-54373261D01*
X63795635Y-54692030D01*
X62635376Y-54692030D01*
X62339380Y-54396034D01*
X61554678Y-54071000D01*
X60705322Y-54071000D01*
X59920620Y-54396034D01*
X59320034Y-54996620D01*
X59134180Y-55445312D01*
X58962739Y-55031418D01*
X58643970Y-54871635D01*
X57309605Y-56206000D01*
X56950395Y-56206000D01*
X56936253Y-56191858D01*
X57115858Y-56012253D01*
X57130000Y-56026395D01*
X58464365Y-54692030D01*
X58304582Y-54373261D01*
X57513813Y-54063277D01*
X56664613Y-54079503D01*
X55956200Y-54372937D01*
X55956200Y-52978976D01*
X55970132Y-52908934D01*
X55956200Y-52838892D01*
X55956200Y-52838888D01*
X55914936Y-52631438D01*
X55839180Y-52518062D01*
X55797424Y-52455569D01*
X55797420Y-52455565D01*
X55757745Y-52396188D01*
X55698369Y-52356514D01*
X53358289Y-50016435D01*
X53318611Y-49957053D01*
X53083361Y-49799863D01*
X52875911Y-49758599D01*
X52875906Y-49758599D01*
X52805865Y-49744667D01*
X52735824Y-49758599D01*
X52029895Y-49758599D01*
X51977724Y-49632646D01*
X51713354Y-49368276D01*
X51367938Y-49225200D01*
X50994062Y-49225200D01*
X50648646Y-49368276D01*
X50384276Y-49632646D01*
X50241200Y-49978062D01*
X50241200Y-50351938D01*
X50384276Y-50697354D01*
X50648646Y-50961724D01*
X50994062Y-51104800D01*
X51156019Y-51104800D01*
X51208303Y-51139735D01*
X51415753Y-51180999D01*
X51415757Y-51180999D01*
X51485799Y-51194931D01*
X51555841Y-51180999D01*
X52511277Y-51180999D01*
X53628876Y-52298599D01*
X51496495Y-52298599D01*
X51444324Y-52172646D01*
X51179954Y-51908276D01*
X50834538Y-51765200D01*
X50460662Y-51765200D01*
X50115246Y-51908276D01*
X49850876Y-52172646D01*
X49707800Y-52518062D01*
X49707800Y-52891938D01*
X49850876Y-53237354D01*
X50115246Y-53501724D01*
X50460662Y-53644800D01*
X50622619Y-53644800D01*
X50674903Y-53679735D01*
X50882353Y-53720999D01*
X50882357Y-53720999D01*
X50952399Y-53734931D01*
X51022441Y-53720999D01*
X53598812Y-53720999D01*
X54147401Y-54269589D01*
X54147401Y-54316514D01*
X53554678Y-54071000D01*
X52705322Y-54071000D01*
X51920620Y-54396034D01*
X51320034Y-54996620D01*
X50995000Y-55781322D01*
X50995000Y-56630678D01*
X51320034Y-57415380D01*
X51920620Y-58015966D01*
X52705322Y-58341000D01*
X53554678Y-58341000D01*
X54223183Y-58064096D01*
X54306177Y-58188305D01*
X54306180Y-58188308D01*
X54331312Y-58225920D01*
X53920620Y-58396034D01*
X53320034Y-58996620D01*
X53113681Y-59494800D01*
X50086589Y-59494800D01*
X44914515Y-54322726D01*
X44865936Y-54078504D01*
X44708746Y-53843254D01*
X44473496Y-53686064D01*
X44266046Y-53644800D01*
X44196000Y-53630867D01*
X44125954Y-53644800D01*
X40807589Y-53644800D01*
X36243567Y-49080778D01*
X41795000Y-49080778D01*
X41795000Y-49731222D01*
X42043914Y-50332153D01*
X42503847Y-50792086D01*
X43104778Y-51041000D01*
X43755222Y-51041000D01*
X44356153Y-50792086D01*
X44816086Y-50332153D01*
X45065000Y-49731222D01*
X45065000Y-49080778D01*
X44816086Y-48479847D01*
X44356153Y-48019914D01*
X43755222Y-47771000D01*
X43104778Y-47771000D01*
X42503847Y-48019914D01*
X42043914Y-48479847D01*
X41795000Y-49080778D01*
X36243567Y-49080778D01*
X31694286Y-44531497D01*
X56314649Y-44531497D01*
X56314649Y-45181941D01*
X56563563Y-45782872D01*
X57023496Y-46242805D01*
X57624427Y-46491719D01*
X58064649Y-46491719D01*
X58064649Y-46612321D01*
X58260278Y-47084613D01*
X58621755Y-47446090D01*
X59094047Y-47641719D01*
X59605251Y-47641719D01*
X60077543Y-47446090D01*
X60439020Y-47084613D01*
X60619649Y-46648534D01*
X60800278Y-47084613D01*
X61161755Y-47446090D01*
X61634047Y-47641719D01*
X62145251Y-47641719D01*
X62617543Y-47446090D01*
X62979020Y-47084613D01*
X63174649Y-46612321D01*
X63174649Y-46101117D01*
X62979020Y-45628825D01*
X62617543Y-45267348D01*
X62145251Y-45071719D01*
X61634047Y-45071719D01*
X61161755Y-45267348D01*
X60800278Y-45628825D01*
X60619649Y-46064904D01*
X60439020Y-45628825D01*
X60077543Y-45267348D01*
X59605251Y-45071719D01*
X59584649Y-45071719D01*
X59584649Y-44598984D01*
X59891755Y-44906090D01*
X60364047Y-45101719D01*
X60875251Y-45101719D01*
X61347543Y-44906090D01*
X61537898Y-44715735D01*
X62440239Y-44715735D01*
X62495920Y-44946330D01*
X62978727Y-45114341D01*
X63489077Y-45084802D01*
X63823378Y-44946330D01*
X63879059Y-44715735D01*
X63159649Y-43996324D01*
X62440239Y-44715735D01*
X61537898Y-44715735D01*
X61709020Y-44544613D01*
X61889421Y-44109085D01*
X61891566Y-44146147D01*
X62030038Y-44480448D01*
X62260633Y-44536129D01*
X62980044Y-43816719D01*
X63339254Y-43816719D01*
X64058665Y-44536129D01*
X64289260Y-44480448D01*
X64457271Y-43997641D01*
X64427732Y-43487291D01*
X64289260Y-43152990D01*
X64058665Y-43097309D01*
X63339254Y-43816719D01*
X62980044Y-43816719D01*
X62260633Y-43097309D01*
X62030038Y-43152990D01*
X61895609Y-43539293D01*
X61709020Y-43088825D01*
X61537898Y-42917703D01*
X62440239Y-42917703D01*
X63159649Y-43637114D01*
X63879059Y-42917703D01*
X63823378Y-42687108D01*
X63340571Y-42519097D01*
X62830221Y-42548636D01*
X62495920Y-42687108D01*
X62440239Y-42917703D01*
X61537898Y-42917703D01*
X61347543Y-42727348D01*
X60875251Y-42531719D01*
X60364047Y-42531719D01*
X59891755Y-42727348D01*
X59530278Y-43088825D01*
X59334649Y-43561117D01*
X59334649Y-43929480D01*
X58875802Y-43470633D01*
X58274871Y-43221719D01*
X57624427Y-43221719D01*
X57023496Y-43470633D01*
X56563563Y-43930566D01*
X56314649Y-44531497D01*
X31694286Y-44531497D01*
X29926496Y-42763708D01*
X30316540Y-42602147D01*
X30706147Y-42212540D01*
X30802000Y-41981130D01*
X30897853Y-42212540D01*
X31287460Y-42602147D01*
X31796506Y-42813000D01*
X32347494Y-42813000D01*
X32856540Y-42602147D01*
X33059170Y-42399517D01*
X33820088Y-42399517D01*
X33888077Y-42640460D01*
X34407171Y-42825201D01*
X34957448Y-42797230D01*
X35335923Y-42640460D01*
X35403912Y-42399517D01*
X34612000Y-41607605D01*
X33820088Y-42399517D01*
X33059170Y-42399517D01*
X33246147Y-42212540D01*
X33335397Y-41997070D01*
X33399540Y-42151923D01*
X33640483Y-42219912D01*
X34432395Y-41428000D01*
X34791605Y-41428000D01*
X35583517Y-42219912D01*
X35824460Y-42151923D01*
X36009201Y-41632829D01*
X35981230Y-41082552D01*
X35824460Y-40704077D01*
X35583517Y-40636088D01*
X34791605Y-41428000D01*
X34432395Y-41428000D01*
X33640483Y-40636088D01*
X33399540Y-40704077D01*
X33340255Y-40870658D01*
X33246147Y-40643460D01*
X33059170Y-40456483D01*
X33820088Y-40456483D01*
X34612000Y-41248395D01*
X35403912Y-40456483D01*
X35335923Y-40215540D01*
X34816829Y-40030799D01*
X34266552Y-40058770D01*
X33888077Y-40215540D01*
X33820088Y-40456483D01*
X33059170Y-40456483D01*
X32856540Y-40253853D01*
X32347494Y-40043000D01*
X31796506Y-40043000D01*
X31287460Y-40253853D01*
X30897853Y-40643460D01*
X30802000Y-40874870D01*
X30706147Y-40643460D01*
X30316540Y-40253853D01*
X29807494Y-40043000D01*
X29256506Y-40043000D01*
X28747460Y-40253853D01*
X28681801Y-40319512D01*
X28681801Y-40213226D01*
X29046540Y-40062147D01*
X29436147Y-39672540D01*
X29532000Y-39441130D01*
X29627853Y-39672540D01*
X30017460Y-40062147D01*
X30526506Y-40273000D01*
X31077494Y-40273000D01*
X31586540Y-40062147D01*
X31976147Y-39672540D01*
X32072000Y-39441130D01*
X32167853Y-39672540D01*
X32557460Y-40062147D01*
X33066506Y-40273000D01*
X33617494Y-40273000D01*
X34126540Y-40062147D01*
X34516147Y-39672540D01*
X34541240Y-39611958D01*
X41372647Y-39611958D01*
X41452920Y-39863259D01*
X42008279Y-40064718D01*
X42598458Y-40038315D01*
X43021080Y-39863259D01*
X43101353Y-39611958D01*
X42237000Y-38747605D01*
X41372647Y-39611958D01*
X34541240Y-39611958D01*
X34727000Y-39163494D01*
X34727000Y-38612506D01*
X34652091Y-38431659D01*
X35877946Y-38431659D01*
X36022467Y-38737444D01*
X36767993Y-39026571D01*
X37567414Y-39008389D01*
X38221533Y-38737444D01*
X38366054Y-38431659D01*
X38273674Y-38339279D01*
X40740282Y-38339279D01*
X40766685Y-38929458D01*
X40941741Y-39352080D01*
X41193042Y-39432353D01*
X42057395Y-38568000D01*
X41193042Y-37703647D01*
X40941741Y-37783920D01*
X40740282Y-38339279D01*
X38273674Y-38339279D01*
X37122000Y-37187605D01*
X35877946Y-38431659D01*
X34652091Y-38431659D01*
X34516147Y-38103460D01*
X34126540Y-37713853D01*
X33617494Y-37503000D01*
X33066506Y-37503000D01*
X32557460Y-37713853D01*
X32167853Y-38103460D01*
X32072000Y-38334870D01*
X31976147Y-38103460D01*
X31586540Y-37713853D01*
X31077494Y-37503000D01*
X30526506Y-37503000D01*
X30017460Y-37713853D01*
X29627853Y-38103460D01*
X29532000Y-38334870D01*
X29436147Y-38103460D01*
X29046540Y-37713853D01*
X28537494Y-37503000D01*
X27986506Y-37503000D01*
X27477460Y-37713853D01*
X27087853Y-38103460D01*
X27041888Y-38214430D01*
X26933153Y-38192802D01*
X26896147Y-38103460D01*
X26506540Y-37713853D01*
X25997494Y-37503000D01*
X25446506Y-37503000D01*
X25136015Y-37631609D01*
X25240571Y-37362007D01*
X25224468Y-36653993D01*
X35103429Y-36653993D01*
X35121611Y-37453414D01*
X35392556Y-38107533D01*
X35698341Y-38252054D01*
X36942395Y-37008000D01*
X37301605Y-37008000D01*
X38545659Y-38252054D01*
X38851444Y-38107533D01*
X39140571Y-37362007D01*
X39134884Y-37111958D01*
X41372647Y-37111958D01*
X41438463Y-37318000D01*
X41372647Y-37524042D01*
X42237000Y-38388395D01*
X43101353Y-37524042D01*
X43035537Y-37318000D01*
X43101353Y-37111958D01*
X42237000Y-36247605D01*
X41372647Y-37111958D01*
X39134884Y-37111958D01*
X39122389Y-36562586D01*
X38851444Y-35908467D01*
X38705053Y-35839279D01*
X40740282Y-35839279D01*
X40766685Y-36429458D01*
X40941741Y-36852080D01*
X41193042Y-36932353D01*
X42057395Y-36068000D01*
X41193042Y-35203647D01*
X40941741Y-35283920D01*
X40740282Y-35839279D01*
X38705053Y-35839279D01*
X38545659Y-35763946D01*
X37301605Y-37008000D01*
X36942395Y-37008000D01*
X35698341Y-35763946D01*
X35392556Y-35908467D01*
X35103429Y-36653993D01*
X25224468Y-36653993D01*
X25222389Y-36562586D01*
X24951444Y-35908467D01*
X24645659Y-35763946D01*
X23401605Y-37008000D01*
X23415748Y-37022143D01*
X23236143Y-37201748D01*
X23222000Y-37187605D01*
X21977946Y-38431659D01*
X21182539Y-38431659D01*
X21182539Y-36653993D01*
X21203429Y-36653993D01*
X21221611Y-37453414D01*
X21492556Y-38107533D01*
X21798341Y-38252054D01*
X23042395Y-37008000D01*
X21798341Y-35763946D01*
X21492556Y-35908467D01*
X21203429Y-36653993D01*
X21182539Y-36653993D01*
X21182539Y-35584341D01*
X21977946Y-35584341D01*
X23222000Y-36828395D01*
X24466054Y-35584341D01*
X35877946Y-35584341D01*
X37122000Y-36828395D01*
X38366054Y-35584341D01*
X38221533Y-35278556D01*
X37565259Y-35024042D01*
X41372647Y-35024042D01*
X42237000Y-35888395D01*
X43101353Y-35024042D01*
X43021080Y-34772741D01*
X42465721Y-34571282D01*
X41875542Y-34597685D01*
X41452920Y-34772741D01*
X41372647Y-35024042D01*
X37565259Y-35024042D01*
X37476007Y-34989429D01*
X36676586Y-35007611D01*
X36022467Y-35278556D01*
X35877946Y-35584341D01*
X24466054Y-35584341D01*
X24321533Y-35278556D01*
X23576007Y-34989429D01*
X22776586Y-35007611D01*
X22122467Y-35278556D01*
X21977946Y-35584341D01*
X21182539Y-35584341D01*
X21182539Y-31982506D01*
X22237000Y-31982506D01*
X22237000Y-32533494D01*
X22447853Y-33042540D01*
X22837460Y-33432147D01*
X23346506Y-33643000D01*
X23897494Y-33643000D01*
X24406540Y-33432147D01*
X24609170Y-33229517D01*
X25370088Y-33229517D01*
X25438077Y-33470460D01*
X25957171Y-33655201D01*
X26507448Y-33627230D01*
X26885923Y-33470460D01*
X26953912Y-33229517D01*
X26162000Y-32437605D01*
X25370088Y-33229517D01*
X24609170Y-33229517D01*
X24796147Y-33042540D01*
X24885397Y-32827070D01*
X24949540Y-32981923D01*
X25190483Y-33049912D01*
X25982395Y-32258000D01*
X26341605Y-32258000D01*
X27133517Y-33049912D01*
X27374460Y-32981923D01*
X27559201Y-32462829D01*
X27534786Y-31982506D01*
X32797000Y-31982506D01*
X32797000Y-32533494D01*
X33007853Y-33042540D01*
X33397460Y-33432147D01*
X33906506Y-33643000D01*
X34457494Y-33643000D01*
X34966540Y-33432147D01*
X35169170Y-33229517D01*
X35930088Y-33229517D01*
X35998077Y-33470460D01*
X36517171Y-33655201D01*
X37067448Y-33627230D01*
X37445923Y-33470460D01*
X37513912Y-33229517D01*
X36722000Y-32437605D01*
X35930088Y-33229517D01*
X35169170Y-33229517D01*
X35356147Y-33042540D01*
X35445397Y-32827070D01*
X35509540Y-32981923D01*
X35750483Y-33049912D01*
X36542395Y-32258000D01*
X36901605Y-32258000D01*
X37693517Y-33049912D01*
X37934460Y-32981923D01*
X38119201Y-32462829D01*
X38091230Y-31912552D01*
X37934460Y-31534077D01*
X37693517Y-31466088D01*
X36901605Y-32258000D01*
X36542395Y-32258000D01*
X35750483Y-31466088D01*
X35509540Y-31534077D01*
X35450255Y-31700658D01*
X35356147Y-31473460D01*
X35169170Y-31286483D01*
X35930088Y-31286483D01*
X36722000Y-32078395D01*
X37513912Y-31286483D01*
X37445923Y-31045540D01*
X36926829Y-30860799D01*
X36376552Y-30888770D01*
X35998077Y-31045540D01*
X35930088Y-31286483D01*
X35169170Y-31286483D01*
X34966540Y-31083853D01*
X34457494Y-30873000D01*
X33906506Y-30873000D01*
X33397460Y-31083853D01*
X33007853Y-31473460D01*
X32797000Y-31982506D01*
X27534786Y-31982506D01*
X27531230Y-31912552D01*
X27374460Y-31534077D01*
X27133517Y-31466088D01*
X26341605Y-32258000D01*
X25982395Y-32258000D01*
X25190483Y-31466088D01*
X24949540Y-31534077D01*
X24890255Y-31700658D01*
X24796147Y-31473460D01*
X24609170Y-31286483D01*
X25370088Y-31286483D01*
X26162000Y-32078395D01*
X26953912Y-31286483D01*
X26885923Y-31045540D01*
X26366829Y-30860799D01*
X25816552Y-30888770D01*
X25438077Y-31045540D01*
X25370088Y-31286483D01*
X24609170Y-31286483D01*
X24406540Y-31083853D01*
X23897494Y-30873000D01*
X23346506Y-30873000D01*
X22837460Y-31083853D01*
X22447853Y-31473460D01*
X22237000Y-31982506D01*
X21182539Y-31982506D01*
X21182539Y-30740982D01*
X21244905Y-30247310D01*
X21410924Y-29827994D01*
X21676010Y-29463134D01*
X22023503Y-29175664D01*
X22431571Y-28983641D01*
X22891745Y-28895858D01*
X23186816Y-28900543D01*
X23186816Y-28900543D01*
G37*
X23186816Y-28900543D02*
X51652099Y-31600823D01*
X51527276Y-31725646D01*
X51475105Y-31851599D01*
X48873114Y-31851599D01*
X48803072Y-31837667D01*
X48733030Y-31851599D01*
X48733027Y-31851599D01*
X48525577Y-31892863D01*
X48525576Y-31892864D01*
X48525575Y-31892864D01*
X48349708Y-32010375D01*
X48349706Y-32010377D01*
X48290327Y-32050053D01*
X48250651Y-32109432D01*
X45558966Y-34801117D01*
X45032385Y-34583000D01*
X44441615Y-34583000D01*
X43895815Y-34809078D01*
X43478078Y-35226815D01*
X43463519Y-35261963D01*
X43280958Y-35203647D01*
X42416605Y-36068000D01*
X43280958Y-36932353D01*
X43463519Y-36874037D01*
X43478078Y-36909185D01*
X43886893Y-37318000D01*
X43478078Y-37726815D01*
X43463519Y-37761963D01*
X43280958Y-37703647D01*
X42416605Y-38568000D01*
X43280958Y-39432353D01*
X43463519Y-39374037D01*
X43478078Y-39409185D01*
X43895815Y-39826922D01*
X44441615Y-40053000D01*
X45032385Y-40053000D01*
X45578185Y-39826922D01*
X45793149Y-39611958D01*
X46372647Y-39611958D01*
X46452920Y-39863259D01*
X47008279Y-40064718D01*
X47598458Y-40038315D01*
X48021080Y-39863259D01*
X48101353Y-39611958D01*
X47237000Y-38747605D01*
X46372647Y-39611958D01*
X45793149Y-39611958D01*
X45995922Y-39409185D01*
X46010481Y-39374037D01*
X46193042Y-39432353D01*
X47057395Y-38568000D01*
X47043253Y-38553858D01*
X47222858Y-38374253D01*
X47237000Y-38388395D01*
X48101353Y-37524042D01*
X48035537Y-37318000D01*
X48101353Y-37111958D01*
X47237000Y-36247605D01*
X47222858Y-36261748D01*
X47043253Y-36082143D01*
X47057395Y-36068000D01*
X47043253Y-36053858D01*
X47222858Y-35874253D01*
X47237000Y-35888395D01*
X47251143Y-35874253D01*
X47430748Y-36053858D01*
X47416605Y-36068000D01*
X48280958Y-36932353D01*
X48463519Y-36874037D01*
X48478078Y-36909185D01*
X48886893Y-37318000D01*
X48478078Y-37726815D01*
X48463519Y-37761963D01*
X48280958Y-37703647D01*
X47416605Y-38568000D01*
X48280958Y-39432353D01*
X48463519Y-39374037D01*
X48478078Y-39409185D01*
X48895815Y-39826922D01*
X49441615Y-40053000D01*
X50032385Y-40053000D01*
X50578185Y-39826922D01*
X50793149Y-39611958D01*
X51372647Y-39611958D01*
X51452920Y-39863259D01*
X52008279Y-40064718D01*
X52598458Y-40038315D01*
X53021080Y-39863259D01*
X53101353Y-39611958D01*
X52237000Y-38747605D01*
X51372647Y-39611958D01*
X50793149Y-39611958D01*
X50995922Y-39409185D01*
X51010481Y-39374037D01*
X51193042Y-39432353D01*
X52057395Y-38568000D01*
X51193042Y-37703647D01*
X51010481Y-37761963D01*
X50995922Y-37726815D01*
X50587107Y-37318000D01*
X50987000Y-36918107D01*
X51395815Y-37326922D01*
X51430963Y-37341481D01*
X51372647Y-37524042D01*
X52237000Y-38388395D01*
X53101353Y-37524042D01*
X53043037Y-37341481D01*
X53078185Y-37326922D01*
X53342240Y-37062867D01*
X53502414Y-37302586D01*
X53742133Y-37462760D01*
X53478078Y-37726815D01*
X53463519Y-37761963D01*
X53280958Y-37703647D01*
X52416605Y-38568000D01*
X53280958Y-39432353D01*
X53463519Y-39374037D01*
X53478078Y-39409185D01*
X53895815Y-39826922D01*
X54441615Y-40053000D01*
X55032385Y-40053000D01*
X55577514Y-39827200D01*
X57672457Y-39827200D01*
X57633646Y-39843276D01*
X57369276Y-40107646D01*
X57226200Y-40453062D01*
X57226200Y-40826938D01*
X57369276Y-41172354D01*
X57633646Y-41436724D01*
X57979062Y-41579800D01*
X58141019Y-41579800D01*
X58193303Y-41614735D01*
X58400753Y-41655999D01*
X58400757Y-41655999D01*
X58470799Y-41669931D01*
X58540841Y-41655999D01*
X68089122Y-41655999D01*
X68174646Y-41741523D01*
X68520062Y-41884599D01*
X68893938Y-41884599D01*
X69239354Y-41741523D01*
X69503724Y-41477153D01*
X69646800Y-41131737D01*
X69646800Y-40757861D01*
X69503724Y-40412445D01*
X69239354Y-40148075D01*
X68893938Y-40004999D01*
X68520062Y-40004999D01*
X68174646Y-40148075D01*
X68089122Y-40233599D01*
X59014895Y-40233599D01*
X58962724Y-40107646D01*
X58698354Y-39843276D01*
X58659543Y-39827200D01*
X62755122Y-39827200D01*
X62840646Y-39912724D01*
X63186062Y-40055800D01*
X63559938Y-40055800D01*
X63905354Y-39912724D01*
X64169724Y-39648354D01*
X64312800Y-39302938D01*
X64312800Y-38929062D01*
X64169724Y-38583646D01*
X63905354Y-38319276D01*
X63559938Y-38176200D01*
X63186062Y-38176200D01*
X62840646Y-38319276D01*
X62755122Y-38404800D01*
X56222000Y-38404800D01*
X56222000Y-38272615D01*
X55995922Y-37726815D01*
X55731867Y-37462760D01*
X55971586Y-37302586D01*
X56166126Y-37011435D01*
X56234440Y-36668000D01*
X56234440Y-35468000D01*
X56166126Y-35124565D01*
X55971586Y-34833414D01*
X55680435Y-34638874D01*
X55337000Y-34570560D01*
X54137000Y-34570560D01*
X53793565Y-34638874D01*
X53502414Y-34833414D01*
X53342240Y-35073133D01*
X53078185Y-34809078D01*
X52532385Y-34583000D01*
X51941615Y-34583000D01*
X51395815Y-34809078D01*
X50987000Y-35217893D01*
X50578185Y-34809078D01*
X50032385Y-34583000D01*
X49772000Y-34583000D01*
X49772000Y-34472398D01*
X49576371Y-34000106D01*
X49214894Y-33638629D01*
X48874166Y-33497495D01*
X49097662Y-33273999D01*
X51949160Y-33273999D01*
X52019201Y-33287931D01*
X52089242Y-33273999D01*
X52089247Y-33273999D01*
X52296697Y-33232735D01*
X52348981Y-33197800D01*
X52510938Y-33197800D01*
X52856354Y-33054724D01*
X53120724Y-32790354D01*
X53263800Y-32444938D01*
X53263800Y-32071062D01*
X53126973Y-31740733D01*
X82088372Y-34488077D01*
X82573956Y-34596786D01*
X82975723Y-34801665D01*
X83313915Y-35100021D01*
X83589125Y-35505268D01*
X83608597Y-35545583D01*
X89499674Y-48424087D01*
X89443914Y-48479847D01*
X89195000Y-49080778D01*
X89195000Y-49731222D01*
X89443914Y-50332153D01*
X89903847Y-50792086D01*
X90504778Y-51041000D01*
X90696741Y-51041000D01*
X101929220Y-75596361D01*
X102077865Y-76071239D01*
X102101318Y-76521615D01*
X102012031Y-76963675D01*
X101815609Y-77369650D01*
X101524404Y-77714013D01*
X101156704Y-77975140D01*
X100734227Y-78137154D01*
X100257137Y-78194120D01*
X23028661Y-77974721D01*
X22535155Y-77910952D01*
X22116311Y-77743742D01*
X21752211Y-77477623D01*
X21465726Y-77129312D01*
X21274864Y-76720703D01*
X21185058Y-76242544D01*
X21182539Y-76158586D01*
X21182539Y-74400938D01*
X23957060Y-74400938D01*
X23957060Y-74912142D01*
X24152689Y-75384434D01*
X24514166Y-75745911D01*
X24986458Y-75941540D01*
X25497662Y-75941540D01*
X25969954Y-75745911D01*
X26331431Y-75384434D01*
X26512060Y-74948355D01*
X26692689Y-75384434D01*
X27054166Y-75745911D01*
X27526458Y-75941540D01*
X28037662Y-75941540D01*
X28509954Y-75745911D01*
X28871431Y-75384434D01*
X29052060Y-74948355D01*
X29232689Y-75384434D01*
X29594166Y-75745911D01*
X30066458Y-75941540D01*
X30577662Y-75941540D01*
X31049954Y-75745911D01*
X31411431Y-75384434D01*
X31592060Y-74948355D01*
X31772689Y-75384434D01*
X32134166Y-75745911D01*
X32606458Y-75941540D01*
X33117662Y-75941540D01*
X33589954Y-75745911D01*
X33951431Y-75384434D01*
X34132060Y-74948355D01*
X34312689Y-75384434D01*
X34674166Y-75745911D01*
X35146458Y-75941540D01*
X35657662Y-75941540D01*
X36129954Y-75745911D01*
X36491431Y-75384434D01*
X36687060Y-74912142D01*
X36687060Y-74843779D01*
X37145907Y-75302626D01*
X37746838Y-75551540D01*
X38397282Y-75551540D01*
X38998213Y-75302626D01*
X39458146Y-74842693D01*
X39707060Y-74241762D01*
X39707060Y-73591318D01*
X39458146Y-72990387D01*
X38998213Y-72530454D01*
X38397282Y-72281540D01*
X37957060Y-72281540D01*
X37957060Y-71860938D01*
X37761431Y-71388646D01*
X37561541Y-71188756D01*
X48142120Y-71188756D01*
X48197801Y-71419351D01*
X48680608Y-71587362D01*
X49190958Y-71557823D01*
X49525259Y-71419351D01*
X49580940Y-71188756D01*
X48861530Y-70469345D01*
X48142120Y-71188756D01*
X37561541Y-71188756D01*
X37399954Y-71027169D01*
X36927662Y-70831540D01*
X36416458Y-70831540D01*
X35944166Y-71027169D01*
X35582689Y-71388646D01*
X35402060Y-71824725D01*
X35221431Y-71388646D01*
X34859954Y-71027169D01*
X34387662Y-70831540D01*
X33876458Y-70831540D01*
X33404166Y-71027169D01*
X33042689Y-71388646D01*
X32862060Y-71824725D01*
X32681431Y-71388646D01*
X32319954Y-71027169D01*
X31847662Y-70831540D01*
X31336458Y-70831540D01*
X30864166Y-71027169D01*
X30502689Y-71388646D01*
X30322060Y-71824725D01*
X30141431Y-71388646D01*
X29779954Y-71027169D01*
X29307662Y-70831540D01*
X28796458Y-70831540D01*
X28324166Y-71027169D01*
X27962689Y-71388646D01*
X27782060Y-71824725D01*
X27601431Y-71388646D01*
X27239954Y-71027169D01*
X26767662Y-70831540D01*
X26256458Y-70831540D01*
X25784166Y-71027169D01*
X25422689Y-71388646D01*
X25227060Y-71860938D01*
X25227060Y-72372142D01*
X25422689Y-72844434D01*
X25784166Y-73205911D01*
X26256458Y-73401540D01*
X26767662Y-73401540D01*
X27239954Y-73205911D01*
X27601431Y-72844434D01*
X27782060Y-72408355D01*
X27962689Y-72844434D01*
X28324166Y-73205911D01*
X28796458Y-73401540D01*
X29307662Y-73401540D01*
X29779954Y-73205911D01*
X30141431Y-72844434D01*
X30322060Y-72408355D01*
X30502689Y-72844434D01*
X30864166Y-73205911D01*
X31336458Y-73401540D01*
X31847662Y-73401540D01*
X32319954Y-73205911D01*
X32681431Y-72844434D01*
X32862060Y-72408355D01*
X33042689Y-72844434D01*
X33404166Y-73205911D01*
X33876458Y-73401540D01*
X34387662Y-73401540D01*
X34859954Y-73205911D01*
X35221431Y-72844434D01*
X35402060Y-72408355D01*
X35582689Y-72844434D01*
X35944166Y-73205911D01*
X36416458Y-73401540D01*
X36515669Y-73401540D01*
X36437060Y-73591318D01*
X36437060Y-73874275D01*
X36129954Y-73567169D01*
X35657662Y-73371540D01*
X35146458Y-73371540D01*
X34674166Y-73567169D01*
X34312689Y-73928646D01*
X34132060Y-74364725D01*
X33951431Y-73928646D01*
X33589954Y-73567169D01*
X33117662Y-73371540D01*
X32606458Y-73371540D01*
X32134166Y-73567169D01*
X31772689Y-73928646D01*
X31592060Y-74364725D01*
X31411431Y-73928646D01*
X31049954Y-73567169D01*
X30577662Y-73371540D01*
X30066458Y-73371540D01*
X29594166Y-73567169D01*
X29232689Y-73928646D01*
X29052060Y-74364725D01*
X28871431Y-73928646D01*
X28509954Y-73567169D01*
X28037662Y-73371540D01*
X27526458Y-73371540D01*
X27054166Y-73567169D01*
X26692689Y-73928646D01*
X26512060Y-74364725D01*
X26331431Y-73928646D01*
X25969954Y-73567169D01*
X25497662Y-73371540D01*
X24986458Y-73371540D01*
X24514166Y-73567169D01*
X24152689Y-73928646D01*
X23957060Y-74400938D01*
X21182539Y-74400938D01*
X21182539Y-67180778D01*
X40295000Y-67180778D01*
X40295000Y-67831222D01*
X40543914Y-68432153D01*
X41003847Y-68892086D01*
X41604778Y-69141000D01*
X42255222Y-69141000D01*
X42856153Y-68892086D01*
X43316086Y-68432153D01*
X43565000Y-67831222D01*
X43565000Y-67180778D01*
X43316086Y-66579847D01*
X42856153Y-66119914D01*
X42255222Y-65871000D01*
X41604778Y-65871000D01*
X41003847Y-66119914D01*
X40543914Y-66579847D01*
X40295000Y-67180778D01*
X21182539Y-67180778D01*
X21182539Y-38431659D01*
X21977946Y-38431659D01*
X22122467Y-38737444D01*
X22867993Y-39026571D01*
X23667414Y-39008389D01*
X24321533Y-38737444D01*
X24337000Y-38704718D01*
X24337000Y-39163494D01*
X24547853Y-39672540D01*
X24937460Y-40062147D01*
X25446506Y-40273000D01*
X25997494Y-40273000D01*
X26506540Y-40062147D01*
X26728779Y-39839908D01*
X26931871Y-40043000D01*
X26716506Y-40043000D01*
X26207460Y-40253853D01*
X25817853Y-40643460D01*
X25607000Y-41152506D01*
X25607000Y-41703494D01*
X25817853Y-42212540D01*
X26207460Y-42602147D01*
X26716506Y-42813000D01*
X27267494Y-42813000D01*
X27340834Y-42782622D01*
X40002578Y-55444367D01*
X40042254Y-55503746D01*
X40101633Y-55543422D01*
X40101635Y-55543424D01*
X40217336Y-55620733D01*
X40277504Y-55660936D01*
X40484954Y-55702200D01*
X40484958Y-55702200D01*
X40555000Y-55716132D01*
X40625042Y-55702200D01*
X43620412Y-55702200D01*
X46564212Y-58646000D01*
X46220240Y-58646000D01*
X45463104Y-58959616D01*
X44883616Y-59539104D01*
X44570000Y-60296240D01*
X44570000Y-61115760D01*
X44883616Y-61872896D01*
X45463104Y-62452384D01*
X46220240Y-62766000D01*
X47039760Y-62766000D01*
X47796896Y-62452384D01*
X48376384Y-61872896D01*
X48690000Y-61115760D01*
X48690000Y-60771789D01*
X51201353Y-63283142D01*
X50995000Y-63781322D01*
X50995000Y-64630678D01*
X51320034Y-65415380D01*
X51920620Y-66015966D01*
X52418800Y-66222319D01*
X52418800Y-66464740D01*
X52415928Y-66464740D01*
X51943636Y-66660369D01*
X51582159Y-67021846D01*
X51401530Y-67457925D01*
X51220901Y-67021846D01*
X50859424Y-66660369D01*
X50387132Y-66464740D01*
X49875928Y-66464740D01*
X49403636Y-66660369D01*
X49042159Y-67021846D01*
X48846530Y-67494138D01*
X48846530Y-67562501D01*
X48387683Y-67103654D01*
X47786752Y-66854740D01*
X47136308Y-66854740D01*
X46535377Y-67103654D01*
X46075444Y-67563587D01*
X45826530Y-68164518D01*
X45826530Y-68814962D01*
X46075444Y-69415893D01*
X46535377Y-69875826D01*
X47136308Y-70124740D01*
X47564830Y-70124740D01*
X47593447Y-70619168D01*
X47731919Y-70953469D01*
X47962514Y-71009150D01*
X48681925Y-70289740D01*
X48667783Y-70275598D01*
X48847388Y-70095993D01*
X48861530Y-70110135D01*
X49580940Y-69390724D01*
X49525259Y-69160129D01*
X49042452Y-68992118D01*
X49022675Y-68993263D01*
X49096530Y-68814962D01*
X49096530Y-68532005D01*
X49403636Y-68839111D01*
X49875928Y-69034740D01*
X50387132Y-69034740D01*
X50859424Y-68839111D01*
X51220901Y-68477634D01*
X51401530Y-68041555D01*
X51582159Y-68477634D01*
X51943636Y-68839111D01*
X52415928Y-69034740D01*
X52927132Y-69034740D01*
X53399424Y-68839111D01*
X53712268Y-68526267D01*
X54190742Y-69004740D01*
X53685928Y-69004740D01*
X53213636Y-69200369D01*
X52852159Y-69561846D01*
X52671530Y-69997925D01*
X52490901Y-69561846D01*
X52129424Y-69200369D01*
X51657132Y-69004740D01*
X51145928Y-69004740D01*
X50673636Y-69200369D01*
X50312159Y-69561846D01*
X50131758Y-69997374D01*
X50129613Y-69960312D01*
X49991141Y-69626011D01*
X49760546Y-69570330D01*
X49041135Y-70289740D01*
X49760546Y-71009150D01*
X49991141Y-70953469D01*
X50125570Y-70567166D01*
X50312159Y-71017634D01*
X50673636Y-71379111D01*
X51145928Y-71574740D01*
X51657132Y-71574740D01*
X52129424Y-71379111D01*
X52490901Y-71017634D01*
X52671530Y-70581555D01*
X52852159Y-71017634D01*
X53213636Y-71379111D01*
X53685928Y-71574740D01*
X54197132Y-71574740D01*
X54669424Y-71379111D01*
X55030901Y-71017634D01*
X55211530Y-70581555D01*
X55392159Y-71017634D01*
X55753636Y-71379111D01*
X56225928Y-71574740D01*
X56737132Y-71574740D01*
X57209424Y-71379111D01*
X57570901Y-71017634D01*
X57751530Y-70581555D01*
X57932159Y-71017634D01*
X58293636Y-71379111D01*
X58765928Y-71574740D01*
X59277132Y-71574740D01*
X59749424Y-71379111D01*
X60110901Y-71017634D01*
X60291530Y-70581555D01*
X60472159Y-71017634D01*
X60833636Y-71379111D01*
X61305928Y-71574740D01*
X61817132Y-71574740D01*
X62289424Y-71379111D01*
X62650901Y-71017634D01*
X62831530Y-70581555D01*
X63012159Y-71017634D01*
X63373636Y-71379111D01*
X63845928Y-71574740D01*
X64357132Y-71574740D01*
X64829424Y-71379111D01*
X65190901Y-71017634D01*
X65371530Y-70581555D01*
X65552159Y-71017634D01*
X65913636Y-71379111D01*
X66385928Y-71574740D01*
X66897132Y-71574740D01*
X67369424Y-71379111D01*
X67730901Y-71017634D01*
X67911530Y-70581555D01*
X68092159Y-71017634D01*
X68453636Y-71379111D01*
X68925928Y-71574740D01*
X69437132Y-71574740D01*
X69909424Y-71379111D01*
X70270901Y-71017634D01*
X70451530Y-70581555D01*
X70632159Y-71017634D01*
X70993636Y-71379111D01*
X71465928Y-71574740D01*
X71977132Y-71574740D01*
X72449424Y-71379111D01*
X72810901Y-71017634D01*
X73006530Y-70545342D01*
X73006530Y-70034138D01*
X72810901Y-69561846D01*
X72449424Y-69200369D01*
X71977132Y-69004740D01*
X71465928Y-69004740D01*
X70993636Y-69200369D01*
X70632159Y-69561846D01*
X70451530Y-69997925D01*
X70270901Y-69561846D01*
X69909424Y-69200369D01*
X69437132Y-69004740D01*
X68925928Y-69004740D01*
X68453636Y-69200369D01*
X68092159Y-69561846D01*
X67911530Y-69997925D01*
X67730901Y-69561846D01*
X67369424Y-69200369D01*
X66897132Y-69004740D01*
X66385928Y-69004740D01*
X65913636Y-69200369D01*
X65552159Y-69561846D01*
X65371530Y-69997925D01*
X65190901Y-69561846D01*
X64829424Y-69200369D01*
X64357132Y-69004740D01*
X63845928Y-69004740D01*
X63373636Y-69200369D01*
X63012159Y-69561846D01*
X62831530Y-69997925D01*
X62650901Y-69561846D01*
X62289424Y-69200369D01*
X61817132Y-69004740D01*
X61305928Y-69004740D01*
X60833636Y-69200369D01*
X60472159Y-69561846D01*
X60291530Y-69997925D01*
X60110901Y-69561846D01*
X59749424Y-69200369D01*
X59277132Y-69004740D01*
X58765928Y-69004740D01*
X58293636Y-69200369D01*
X57932159Y-69561846D01*
X57751530Y-69997925D01*
X57570901Y-69561846D01*
X57209424Y-69200369D01*
X56737132Y-69004740D01*
X56225928Y-69004740D01*
X56209234Y-69011655D01*
X55988057Y-68790478D01*
X56300901Y-68477634D01*
X56481530Y-68041555D01*
X56662159Y-68477634D01*
X57023636Y-68839111D01*
X57495928Y-69034740D01*
X58007132Y-69034740D01*
X58479424Y-68839111D01*
X58840901Y-68477634D01*
X59021530Y-68041555D01*
X59202159Y-68477634D01*
X59563636Y-68839111D01*
X60035928Y-69034740D01*
X60547132Y-69034740D01*
X61019424Y-68839111D01*
X61380901Y-68477634D01*
X61561530Y-68041555D01*
X61742159Y-68477634D01*
X62103636Y-68839111D01*
X62575928Y-69034740D01*
X63087132Y-69034740D01*
X63559424Y-68839111D01*
X63920901Y-68477634D01*
X64101530Y-68041555D01*
X64282159Y-68477634D01*
X64643636Y-68839111D01*
X65115928Y-69034740D01*
X65627132Y-69034740D01*
X66099424Y-68839111D01*
X66460901Y-68477634D01*
X66641530Y-68041555D01*
X66822159Y-68477634D01*
X67183636Y-68839111D01*
X67655928Y-69034740D01*
X68167132Y-69034740D01*
X68639424Y-68839111D01*
X69000901Y-68477634D01*
X69181530Y-68041555D01*
X69362159Y-68477634D01*
X69723636Y-68839111D01*
X70195928Y-69034740D01*
X70707132Y-69034740D01*
X71179424Y-68839111D01*
X71540901Y-68477634D01*
X71721530Y-68041555D01*
X71902159Y-68477634D01*
X72263636Y-68839111D01*
X72735928Y-69034740D01*
X73247132Y-69034740D01*
X73719424Y-68839111D01*
X74080901Y-68477634D01*
X74276530Y-68005342D01*
X74276530Y-67494138D01*
X74146733Y-67180778D01*
X90695000Y-67180778D01*
X90695000Y-67831222D01*
X90943914Y-68432153D01*
X91403847Y-68892086D01*
X92004778Y-69141000D01*
X92655222Y-69141000D01*
X93256153Y-68892086D01*
X93716086Y-68432153D01*
X93965000Y-67831222D01*
X93965000Y-67180778D01*
X93716086Y-66579847D01*
X93256153Y-66119914D01*
X92655222Y-65871000D01*
X92004778Y-65871000D01*
X91403847Y-66119914D01*
X90943914Y-66579847D01*
X90695000Y-67180778D01*
X74146733Y-67180778D01*
X74080901Y-67021846D01*
X73719424Y-66660369D01*
X73247132Y-66464740D01*
X72735928Y-66464740D01*
X72263636Y-66660369D01*
X71902159Y-67021846D01*
X71721530Y-67457925D01*
X71540901Y-67021846D01*
X71179424Y-66660369D01*
X70707132Y-66464740D01*
X70195928Y-66464740D01*
X69723636Y-66660369D01*
X69362159Y-67021846D01*
X69181530Y-67457925D01*
X69000901Y-67021846D01*
X68639424Y-66660369D01*
X68167132Y-66464740D01*
X67655928Y-66464740D01*
X67183636Y-66660369D01*
X66822159Y-67021846D01*
X66641530Y-67457925D01*
X66460901Y-67021846D01*
X66099424Y-66660369D01*
X65627132Y-66464740D01*
X65115928Y-66464740D01*
X64643636Y-66660369D01*
X64282159Y-67021846D01*
X64101530Y-67457925D01*
X63920901Y-67021846D01*
X63707827Y-66808772D01*
X64330752Y-66185848D01*
X64705322Y-66341000D01*
X65554678Y-66341000D01*
X66339380Y-66015966D01*
X66939966Y-65415380D01*
X67130000Y-64956597D01*
X67320034Y-65415380D01*
X67920620Y-66015966D01*
X68705322Y-66341000D01*
X69554678Y-66341000D01*
X70339380Y-66015966D01*
X70939966Y-65415380D01*
X71130000Y-64956597D01*
X71320034Y-65415380D01*
X71920620Y-66015966D01*
X72705322Y-66341000D01*
X73554678Y-66341000D01*
X74339380Y-66015966D01*
X74939966Y-65415380D01*
X75130000Y-64956597D01*
X75320034Y-65415380D01*
X75920620Y-66015966D01*
X76705322Y-66341000D01*
X77554678Y-66341000D01*
X78339380Y-66015966D01*
X78939966Y-65415380D01*
X79130000Y-64956597D01*
X79320034Y-65415380D01*
X79920620Y-66015966D01*
X80705322Y-66341000D01*
X81554678Y-66341000D01*
X82339380Y-66015966D01*
X82939966Y-65415380D01*
X83265000Y-64630678D01*
X83265000Y-63781322D01*
X82939966Y-62996620D01*
X82339380Y-62396034D01*
X81554678Y-62071000D01*
X80705322Y-62071000D01*
X79920620Y-62396034D01*
X79320034Y-62996620D01*
X79130000Y-63455403D01*
X78939966Y-62996620D01*
X78339380Y-62396034D01*
X77554678Y-62071000D01*
X76705322Y-62071000D01*
X75920620Y-62396034D01*
X75320034Y-62996620D01*
X75130000Y-63455403D01*
X74939966Y-62996620D01*
X74339380Y-62396034D01*
X73554678Y-62071000D01*
X72705322Y-62071000D01*
X71920620Y-62396034D01*
X71320034Y-62996620D01*
X71130000Y-63455403D01*
X70939966Y-62996620D01*
X70339380Y-62396034D01*
X69554678Y-62071000D01*
X68705322Y-62071000D01*
X67920620Y-62396034D01*
X67320034Y-62996620D01*
X67130000Y-63455403D01*
X66939966Y-62996620D01*
X66339380Y-62396034D01*
X65554678Y-62071000D01*
X64705322Y-62071000D01*
X63920620Y-62396034D01*
X63320034Y-62996620D01*
X63130000Y-63455403D01*
X62939966Y-62996620D01*
X62339380Y-62396034D01*
X61554678Y-62071000D01*
X60705322Y-62071000D01*
X60207141Y-62277353D01*
X60182424Y-62252636D01*
X60142747Y-62193255D01*
X60054202Y-62134091D01*
X60339380Y-62015966D01*
X60939966Y-61415380D01*
X61130000Y-60956597D01*
X61320034Y-61415380D01*
X61920620Y-62015966D01*
X62705322Y-62341000D01*
X63554678Y-62341000D01*
X64339380Y-62015966D01*
X64939966Y-61415380D01*
X65130000Y-60956597D01*
X65320034Y-61415380D01*
X65920620Y-62015966D01*
X66705322Y-62341000D01*
X67554678Y-62341000D01*
X68339380Y-62015966D01*
X68939966Y-61415380D01*
X69130000Y-60956597D01*
X69320034Y-61415380D01*
X69920620Y-62015966D01*
X70705322Y-62341000D01*
X71554678Y-62341000D01*
X72339380Y-62015966D01*
X72939966Y-61415380D01*
X73130000Y-60956597D01*
X73320034Y-61415380D01*
X73920620Y-62015966D01*
X74705322Y-62341000D01*
X75554678Y-62341000D01*
X76339380Y-62015966D01*
X76939966Y-61415380D01*
X77130000Y-60956597D01*
X77320034Y-61415380D01*
X77920620Y-62015966D01*
X78705322Y-62341000D01*
X79554678Y-62341000D01*
X80339380Y-62015966D01*
X80939966Y-61415380D01*
X81265000Y-60630678D01*
X81265000Y-60296240D01*
X85570000Y-60296240D01*
X85570000Y-61115760D01*
X85883616Y-61872896D01*
X86463104Y-62452384D01*
X87220240Y-62766000D01*
X88039760Y-62766000D01*
X88796896Y-62452384D01*
X89376384Y-61872896D01*
X89690000Y-61115760D01*
X89690000Y-60296240D01*
X89376384Y-59539104D01*
X88796896Y-58959616D01*
X88039760Y-58646000D01*
X87220240Y-58646000D01*
X86463104Y-58959616D01*
X85883616Y-59539104D01*
X85570000Y-60296240D01*
X81265000Y-60296240D01*
X81265000Y-59781322D01*
X80939966Y-58996620D01*
X80339380Y-58396034D01*
X79554678Y-58071000D01*
X78705322Y-58071000D01*
X77920620Y-58396034D01*
X77320034Y-58996620D01*
X77130000Y-59455403D01*
X76939966Y-58996620D01*
X76339380Y-58396034D01*
X75554678Y-58071000D01*
X74705322Y-58071000D01*
X73920620Y-58396034D01*
X73320034Y-58996620D01*
X73130000Y-59455403D01*
X72939966Y-58996620D01*
X72339380Y-58396034D01*
X71554678Y-58071000D01*
X70705322Y-58071000D01*
X69920620Y-58396034D01*
X69320034Y-58996620D01*
X69130000Y-59455403D01*
X68939966Y-58996620D01*
X68339380Y-58396034D01*
X67554678Y-58071000D01*
X66705322Y-58071000D01*
X65920620Y-58396034D01*
X65320034Y-58996620D01*
X65130000Y-59455403D01*
X64939966Y-58996620D01*
X64339380Y-58396034D01*
X63554678Y-58071000D01*
X62705322Y-58071000D01*
X61920620Y-58396034D01*
X61320034Y-58996620D01*
X61130000Y-59455403D01*
X60939966Y-58996620D01*
X60339380Y-58396034D01*
X59554678Y-58071000D01*
X58705322Y-58071000D01*
X57920620Y-58396034D01*
X57844056Y-58472598D01*
X57672157Y-58300698D01*
X58304582Y-58038739D01*
X58464365Y-57719970D01*
X57130000Y-56385605D01*
X57115858Y-56399748D01*
X56936253Y-56220143D01*
X56950395Y-56206000D01*
X57309605Y-56206000D01*
X58643970Y-57540365D01*
X58962739Y-57380582D01*
X59129457Y-56955285D01*
X59320034Y-57415380D01*
X59920620Y-58015966D01*
X60705322Y-58341000D01*
X61554678Y-58341000D01*
X62339380Y-58015966D01*
X62635376Y-57719970D01*
X63795635Y-57719970D01*
X63955418Y-58038739D01*
X64746187Y-58348723D01*
X65595387Y-58332497D01*
X66304582Y-58038739D01*
X66464365Y-57719970D01*
X65130000Y-56385605D01*
X63795635Y-57719970D01*
X62635376Y-57719970D01*
X62939966Y-57415380D01*
X63125820Y-56966688D01*
X63297261Y-57380582D01*
X63616030Y-57540365D01*
X64950395Y-56206000D01*
X65309605Y-56206000D01*
X66643970Y-57540365D01*
X66962739Y-57380582D01*
X67129457Y-56955285D01*
X67320034Y-57415380D01*
X67920620Y-58015966D01*
X68705322Y-58341000D01*
X69554678Y-58341000D01*
X70339380Y-58015966D01*
X70635376Y-57719970D01*
X71795635Y-57719970D01*
X71955418Y-58038739D01*
X72746187Y-58348723D01*
X73595387Y-58332497D01*
X74304582Y-58038739D01*
X74464365Y-57719970D01*
X73130000Y-56385605D01*
X71795635Y-57719970D01*
X70635376Y-57719970D01*
X70939966Y-57415380D01*
X71125820Y-56966688D01*
X71297261Y-57380582D01*
X71616030Y-57540365D01*
X72950395Y-56206000D01*
X73309605Y-56206000D01*
X74643970Y-57540365D01*
X74962739Y-57380582D01*
X75129457Y-56955285D01*
X75320034Y-57415380D01*
X75920620Y-58015966D01*
X76705322Y-58341000D01*
X77554678Y-58341000D01*
X78339380Y-58015966D01*
X78635376Y-57719970D01*
X79795635Y-57719970D01*
X79955418Y-58038739D01*
X80746187Y-58348723D01*
X81595387Y-58332497D01*
X82304582Y-58038739D01*
X82464365Y-57719970D01*
X81130000Y-56385605D01*
X79795635Y-57719970D01*
X78635376Y-57719970D01*
X78939966Y-57415380D01*
X79125820Y-56966688D01*
X79297261Y-57380582D01*
X79616030Y-57540365D01*
X80950395Y-56206000D01*
X81309605Y-56206000D01*
X82643970Y-57540365D01*
X82962739Y-57380582D01*
X83272723Y-56589813D01*
X83256497Y-55740613D01*
X82962739Y-55031418D01*
X82643970Y-54871635D01*
X81309605Y-56206000D01*
X80950395Y-56206000D01*
X79616030Y-54871635D01*
X79297261Y-55031418D01*
X79130543Y-55456715D01*
X78939966Y-54996620D01*
X78635376Y-54692030D01*
X79795635Y-54692030D01*
X81130000Y-56026395D01*
X82464365Y-54692030D01*
X82304582Y-54373261D01*
X81513813Y-54063277D01*
X80664613Y-54079503D01*
X79955418Y-54373261D01*
X79795635Y-54692030D01*
X78635376Y-54692030D01*
X78339380Y-54396034D01*
X77554678Y-54071000D01*
X76705322Y-54071000D01*
X75920620Y-54396034D01*
X75320034Y-54996620D01*
X75134180Y-55445312D01*
X74962739Y-55031418D01*
X74643970Y-54871635D01*
X73309605Y-56206000D01*
X72950395Y-56206000D01*
X71616030Y-54871635D01*
X71297261Y-55031418D01*
X71130543Y-55456715D01*
X70939966Y-54996620D01*
X70635376Y-54692030D01*
X71795635Y-54692030D01*
X73130000Y-56026395D01*
X74464365Y-54692030D01*
X74304582Y-54373261D01*
X73513813Y-54063277D01*
X72664613Y-54079503D01*
X71955418Y-54373261D01*
X71795635Y-54692030D01*
X70635376Y-54692030D01*
X70339380Y-54396034D01*
X69554678Y-54071000D01*
X68705322Y-54071000D01*
X67920620Y-54396034D01*
X67320034Y-54996620D01*
X67134180Y-55445312D01*
X66962739Y-55031418D01*
X66643970Y-54871635D01*
X65309605Y-56206000D01*
X64950395Y-56206000D01*
X63616030Y-54871635D01*
X63297261Y-55031418D01*
X63130543Y-55456715D01*
X62939966Y-54996620D01*
X62635376Y-54692030D01*
X63795635Y-54692030D01*
X65130000Y-56026395D01*
X66464365Y-54692030D01*
X66304582Y-54373261D01*
X65513813Y-54063277D01*
X64664613Y-54079503D01*
X63955418Y-54373261D01*
X63795635Y-54692030D01*
X62635376Y-54692030D01*
X62339380Y-54396034D01*
X61554678Y-54071000D01*
X60705322Y-54071000D01*
X59920620Y-54396034D01*
X59320034Y-54996620D01*
X59134180Y-55445312D01*
X58962739Y-55031418D01*
X58643970Y-54871635D01*
X57309605Y-56206000D01*
X56950395Y-56206000D01*
X56936253Y-56191858D01*
X57115858Y-56012253D01*
X57130000Y-56026395D01*
X58464365Y-54692030D01*
X58304582Y-54373261D01*
X57513813Y-54063277D01*
X56664613Y-54079503D01*
X55956200Y-54372937D01*
X55956200Y-52978976D01*
X55970132Y-52908934D01*
X55956200Y-52838892D01*
X55956200Y-52838888D01*
X55914936Y-52631438D01*
X55839180Y-52518062D01*
X55797424Y-52455569D01*
X55797420Y-52455565D01*
X55757745Y-52396188D01*
X55698369Y-52356514D01*
X53358289Y-50016435D01*
X53318611Y-49957053D01*
X53083361Y-49799863D01*
X52875911Y-49758599D01*
X52875906Y-49758599D01*
X52805865Y-49744667D01*
X52735824Y-49758599D01*
X52029895Y-49758599D01*
X51977724Y-49632646D01*
X51713354Y-49368276D01*
X51367938Y-49225200D01*
X50994062Y-49225200D01*
X50648646Y-49368276D01*
X50384276Y-49632646D01*
X50241200Y-49978062D01*
X50241200Y-50351938D01*
X50384276Y-50697354D01*
X50648646Y-50961724D01*
X50994062Y-51104800D01*
X51156019Y-51104800D01*
X51208303Y-51139735D01*
X51415753Y-51180999D01*
X51415757Y-51180999D01*
X51485799Y-51194931D01*
X51555841Y-51180999D01*
X52511277Y-51180999D01*
X53628876Y-52298599D01*
X51496495Y-52298599D01*
X51444324Y-52172646D01*
X51179954Y-51908276D01*
X50834538Y-51765200D01*
X50460662Y-51765200D01*
X50115246Y-51908276D01*
X49850876Y-52172646D01*
X49707800Y-52518062D01*
X49707800Y-52891938D01*
X49850876Y-53237354D01*
X50115246Y-53501724D01*
X50460662Y-53644800D01*
X50622619Y-53644800D01*
X50674903Y-53679735D01*
X50882353Y-53720999D01*
X50882357Y-53720999D01*
X50952399Y-53734931D01*
X51022441Y-53720999D01*
X53598812Y-53720999D01*
X54147401Y-54269589D01*
X54147401Y-54316514D01*
X53554678Y-54071000D01*
X52705322Y-54071000D01*
X51920620Y-54396034D01*
X51320034Y-54996620D01*
X50995000Y-55781322D01*
X50995000Y-56630678D01*
X51320034Y-57415380D01*
X51920620Y-58015966D01*
X52705322Y-58341000D01*
X53554678Y-58341000D01*
X54223183Y-58064096D01*
X54306177Y-58188305D01*
X54306180Y-58188308D01*
X54331312Y-58225920D01*
X53920620Y-58396034D01*
X53320034Y-58996620D01*
X53113681Y-59494800D01*
X50086589Y-59494800D01*
X44914515Y-54322726D01*
X44865936Y-54078504D01*
X44708746Y-53843254D01*
X44473496Y-53686064D01*
X44266046Y-53644800D01*
X44196000Y-53630867D01*
X44125954Y-53644800D01*
X40807589Y-53644800D01*
X36243567Y-49080778D01*
X41795000Y-49080778D01*
X41795000Y-49731222D01*
X42043914Y-50332153D01*
X42503847Y-50792086D01*
X43104778Y-51041000D01*
X43755222Y-51041000D01*
X44356153Y-50792086D01*
X44816086Y-50332153D01*
X45065000Y-49731222D01*
X45065000Y-49080778D01*
X44816086Y-48479847D01*
X44356153Y-48019914D01*
X43755222Y-47771000D01*
X43104778Y-47771000D01*
X42503847Y-48019914D01*
X42043914Y-48479847D01*
X41795000Y-49080778D01*
X36243567Y-49080778D01*
X31694286Y-44531497D01*
X56314649Y-44531497D01*
X56314649Y-45181941D01*
X56563563Y-45782872D01*
X57023496Y-46242805D01*
X57624427Y-46491719D01*
X58064649Y-46491719D01*
X58064649Y-46612321D01*
X58260278Y-47084613D01*
X58621755Y-47446090D01*
X59094047Y-47641719D01*
X59605251Y-47641719D01*
X60077543Y-47446090D01*
X60439020Y-47084613D01*
X60619649Y-46648534D01*
X60800278Y-47084613D01*
X61161755Y-47446090D01*
X61634047Y-47641719D01*
X62145251Y-47641719D01*
X62617543Y-47446090D01*
X62979020Y-47084613D01*
X63174649Y-46612321D01*
X63174649Y-46101117D01*
X62979020Y-45628825D01*
X62617543Y-45267348D01*
X62145251Y-45071719D01*
X61634047Y-45071719D01*
X61161755Y-45267348D01*
X60800278Y-45628825D01*
X60619649Y-46064904D01*
X60439020Y-45628825D01*
X60077543Y-45267348D01*
X59605251Y-45071719D01*
X59584649Y-45071719D01*
X59584649Y-44598984D01*
X59891755Y-44906090D01*
X60364047Y-45101719D01*
X60875251Y-45101719D01*
X61347543Y-44906090D01*
X61537898Y-44715735D01*
X62440239Y-44715735D01*
X62495920Y-44946330D01*
X62978727Y-45114341D01*
X63489077Y-45084802D01*
X63823378Y-44946330D01*
X63879059Y-44715735D01*
X63159649Y-43996324D01*
X62440239Y-44715735D01*
X61537898Y-44715735D01*
X61709020Y-44544613D01*
X61889421Y-44109085D01*
X61891566Y-44146147D01*
X62030038Y-44480448D01*
X62260633Y-44536129D01*
X62980044Y-43816719D01*
X63339254Y-43816719D01*
X64058665Y-44536129D01*
X64289260Y-44480448D01*
X64457271Y-43997641D01*
X64427732Y-43487291D01*
X64289260Y-43152990D01*
X64058665Y-43097309D01*
X63339254Y-43816719D01*
X62980044Y-43816719D01*
X62260633Y-43097309D01*
X62030038Y-43152990D01*
X61895609Y-43539293D01*
X61709020Y-43088825D01*
X61537898Y-42917703D01*
X62440239Y-42917703D01*
X63159649Y-43637114D01*
X63879059Y-42917703D01*
X63823378Y-42687108D01*
X63340571Y-42519097D01*
X62830221Y-42548636D01*
X62495920Y-42687108D01*
X62440239Y-42917703D01*
X61537898Y-42917703D01*
X61347543Y-42727348D01*
X60875251Y-42531719D01*
X60364047Y-42531719D01*
X59891755Y-42727348D01*
X59530278Y-43088825D01*
X59334649Y-43561117D01*
X59334649Y-43929480D01*
X58875802Y-43470633D01*
X58274871Y-43221719D01*
X57624427Y-43221719D01*
X57023496Y-43470633D01*
X56563563Y-43930566D01*
X56314649Y-44531497D01*
X31694286Y-44531497D01*
X29926496Y-42763708D01*
X30316540Y-42602147D01*
X30706147Y-42212540D01*
X30802000Y-41981130D01*
X30897853Y-42212540D01*
X31287460Y-42602147D01*
X31796506Y-42813000D01*
X32347494Y-42813000D01*
X32856540Y-42602147D01*
X33059170Y-42399517D01*
X33820088Y-42399517D01*
X33888077Y-42640460D01*
X34407171Y-42825201D01*
X34957448Y-42797230D01*
X35335923Y-42640460D01*
X35403912Y-42399517D01*
X34612000Y-41607605D01*
X33820088Y-42399517D01*
X33059170Y-42399517D01*
X33246147Y-42212540D01*
X33335397Y-41997070D01*
X33399540Y-42151923D01*
X33640483Y-42219912D01*
X34432395Y-41428000D01*
X34791605Y-41428000D01*
X35583517Y-42219912D01*
X35824460Y-42151923D01*
X36009201Y-41632829D01*
X35981230Y-41082552D01*
X35824460Y-40704077D01*
X35583517Y-40636088D01*
X34791605Y-41428000D01*
X34432395Y-41428000D01*
X33640483Y-40636088D01*
X33399540Y-40704077D01*
X33340255Y-40870658D01*
X33246147Y-40643460D01*
X33059170Y-40456483D01*
X33820088Y-40456483D01*
X34612000Y-41248395D01*
X35403912Y-40456483D01*
X35335923Y-40215540D01*
X34816829Y-40030799D01*
X34266552Y-40058770D01*
X33888077Y-40215540D01*
X33820088Y-40456483D01*
X33059170Y-40456483D01*
X32856540Y-40253853D01*
X32347494Y-40043000D01*
X31796506Y-40043000D01*
X31287460Y-40253853D01*
X30897853Y-40643460D01*
X30802000Y-40874870D01*
X30706147Y-40643460D01*
X30316540Y-40253853D01*
X29807494Y-40043000D01*
X29256506Y-40043000D01*
X28747460Y-40253853D01*
X28681801Y-40319512D01*
X28681801Y-40213226D01*
X29046540Y-40062147D01*
X29436147Y-39672540D01*
X29532000Y-39441130D01*
X29627853Y-39672540D01*
X30017460Y-40062147D01*
X30526506Y-40273000D01*
X31077494Y-40273000D01*
X31586540Y-40062147D01*
X31976147Y-39672540D01*
X32072000Y-39441130D01*
X32167853Y-39672540D01*
X32557460Y-40062147D01*
X33066506Y-40273000D01*
X33617494Y-40273000D01*
X34126540Y-40062147D01*
X34516147Y-39672540D01*
X34541240Y-39611958D01*
X41372647Y-39611958D01*
X41452920Y-39863259D01*
X42008279Y-40064718D01*
X42598458Y-40038315D01*
X43021080Y-39863259D01*
X43101353Y-39611958D01*
X42237000Y-38747605D01*
X41372647Y-39611958D01*
X34541240Y-39611958D01*
X34727000Y-39163494D01*
X34727000Y-38612506D01*
X34652091Y-38431659D01*
X35877946Y-38431659D01*
X36022467Y-38737444D01*
X36767993Y-39026571D01*
X37567414Y-39008389D01*
X38221533Y-38737444D01*
X38366054Y-38431659D01*
X38273674Y-38339279D01*
X40740282Y-38339279D01*
X40766685Y-38929458D01*
X40941741Y-39352080D01*
X41193042Y-39432353D01*
X42057395Y-38568000D01*
X41193042Y-37703647D01*
X40941741Y-37783920D01*
X40740282Y-38339279D01*
X38273674Y-38339279D01*
X37122000Y-37187605D01*
X35877946Y-38431659D01*
X34652091Y-38431659D01*
X34516147Y-38103460D01*
X34126540Y-37713853D01*
X33617494Y-37503000D01*
X33066506Y-37503000D01*
X32557460Y-37713853D01*
X32167853Y-38103460D01*
X32072000Y-38334870D01*
X31976147Y-38103460D01*
X31586540Y-37713853D01*
X31077494Y-37503000D01*
X30526506Y-37503000D01*
X30017460Y-37713853D01*
X29627853Y-38103460D01*
X29532000Y-38334870D01*
X29436147Y-38103460D01*
X29046540Y-37713853D01*
X28537494Y-37503000D01*
X27986506Y-37503000D01*
X27477460Y-37713853D01*
X27087853Y-38103460D01*
X27041888Y-38214430D01*
X26933153Y-38192802D01*
X26896147Y-38103460D01*
X26506540Y-37713853D01*
X25997494Y-37503000D01*
X25446506Y-37503000D01*
X25136015Y-37631609D01*
X25240571Y-37362007D01*
X25224468Y-36653993D01*
X35103429Y-36653993D01*
X35121611Y-37453414D01*
X35392556Y-38107533D01*
X35698341Y-38252054D01*
X36942395Y-37008000D01*
X37301605Y-37008000D01*
X38545659Y-38252054D01*
X38851444Y-38107533D01*
X39140571Y-37362007D01*
X39134884Y-37111958D01*
X41372647Y-37111958D01*
X41438463Y-37318000D01*
X41372647Y-37524042D01*
X42237000Y-38388395D01*
X43101353Y-37524042D01*
X43035537Y-37318000D01*
X43101353Y-37111958D01*
X42237000Y-36247605D01*
X41372647Y-37111958D01*
X39134884Y-37111958D01*
X39122389Y-36562586D01*
X38851444Y-35908467D01*
X38705053Y-35839279D01*
X40740282Y-35839279D01*
X40766685Y-36429458D01*
X40941741Y-36852080D01*
X41193042Y-36932353D01*
X42057395Y-36068000D01*
X41193042Y-35203647D01*
X40941741Y-35283920D01*
X40740282Y-35839279D01*
X38705053Y-35839279D01*
X38545659Y-35763946D01*
X37301605Y-37008000D01*
X36942395Y-37008000D01*
X35698341Y-35763946D01*
X35392556Y-35908467D01*
X35103429Y-36653993D01*
X25224468Y-36653993D01*
X25222389Y-36562586D01*
X24951444Y-35908467D01*
X24645659Y-35763946D01*
X23401605Y-37008000D01*
X23415748Y-37022143D01*
X23236143Y-37201748D01*
X23222000Y-37187605D01*
X21977946Y-38431659D01*
X21182539Y-38431659D01*
X21182539Y-36653993D01*
X21203429Y-36653993D01*
X21221611Y-37453414D01*
X21492556Y-38107533D01*
X21798341Y-38252054D01*
X23042395Y-37008000D01*
X21798341Y-35763946D01*
X21492556Y-35908467D01*
X21203429Y-36653993D01*
X21182539Y-36653993D01*
X21182539Y-35584341D01*
X21977946Y-35584341D01*
X23222000Y-36828395D01*
X24466054Y-35584341D01*
X35877946Y-35584341D01*
X37122000Y-36828395D01*
X38366054Y-35584341D01*
X38221533Y-35278556D01*
X37565259Y-35024042D01*
X41372647Y-35024042D01*
X42237000Y-35888395D01*
X43101353Y-35024042D01*
X43021080Y-34772741D01*
X42465721Y-34571282D01*
X41875542Y-34597685D01*
X41452920Y-34772741D01*
X41372647Y-35024042D01*
X37565259Y-35024042D01*
X37476007Y-34989429D01*
X36676586Y-35007611D01*
X36022467Y-35278556D01*
X35877946Y-35584341D01*
X24466054Y-35584341D01*
X24321533Y-35278556D01*
X23576007Y-34989429D01*
X22776586Y-35007611D01*
X22122467Y-35278556D01*
X21977946Y-35584341D01*
X21182539Y-35584341D01*
X21182539Y-31982506D01*
X22237000Y-31982506D01*
X22237000Y-32533494D01*
X22447853Y-33042540D01*
X22837460Y-33432147D01*
X23346506Y-33643000D01*
X23897494Y-33643000D01*
X24406540Y-33432147D01*
X24609170Y-33229517D01*
X25370088Y-33229517D01*
X25438077Y-33470460D01*
X25957171Y-33655201D01*
X26507448Y-33627230D01*
X26885923Y-33470460D01*
X26953912Y-33229517D01*
X26162000Y-32437605D01*
X25370088Y-33229517D01*
X24609170Y-33229517D01*
X24796147Y-33042540D01*
X24885397Y-32827070D01*
X24949540Y-32981923D01*
X25190483Y-33049912D01*
X25982395Y-32258000D01*
X26341605Y-32258000D01*
X27133517Y-33049912D01*
X27374460Y-32981923D01*
X27559201Y-32462829D01*
X27534786Y-31982506D01*
X32797000Y-31982506D01*
X32797000Y-32533494D01*
X33007853Y-33042540D01*
X33397460Y-33432147D01*
X33906506Y-33643000D01*
X34457494Y-33643000D01*
X34966540Y-33432147D01*
X35169170Y-33229517D01*
X35930088Y-33229517D01*
X35998077Y-33470460D01*
X36517171Y-33655201D01*
X37067448Y-33627230D01*
X37445923Y-33470460D01*
X37513912Y-33229517D01*
X36722000Y-32437605D01*
X35930088Y-33229517D01*
X35169170Y-33229517D01*
X35356147Y-33042540D01*
X35445397Y-32827070D01*
X35509540Y-32981923D01*
X35750483Y-33049912D01*
X36542395Y-32258000D01*
X36901605Y-32258000D01*
X37693517Y-33049912D01*
X37934460Y-32981923D01*
X38119201Y-32462829D01*
X38091230Y-31912552D01*
X37934460Y-31534077D01*
X37693517Y-31466088D01*
X36901605Y-32258000D01*
X36542395Y-32258000D01*
X35750483Y-31466088D01*
X35509540Y-31534077D01*
X35450255Y-31700658D01*
X35356147Y-31473460D01*
X35169170Y-31286483D01*
X35930088Y-31286483D01*
X36722000Y-32078395D01*
X37513912Y-31286483D01*
X37445923Y-31045540D01*
X36926829Y-30860799D01*
X36376552Y-30888770D01*
X35998077Y-31045540D01*
X35930088Y-31286483D01*
X35169170Y-31286483D01*
X34966540Y-31083853D01*
X34457494Y-30873000D01*
X33906506Y-30873000D01*
X33397460Y-31083853D01*
X33007853Y-31473460D01*
X32797000Y-31982506D01*
X27534786Y-31982506D01*
X27531230Y-31912552D01*
X27374460Y-31534077D01*
X27133517Y-31466088D01*
X26341605Y-32258000D01*
X25982395Y-32258000D01*
X25190483Y-31466088D01*
X24949540Y-31534077D01*
X24890255Y-31700658D01*
X24796147Y-31473460D01*
X24609170Y-31286483D01*
X25370088Y-31286483D01*
X26162000Y-32078395D01*
X26953912Y-31286483D01*
X26885923Y-31045540D01*
X26366829Y-30860799D01*
X25816552Y-30888770D01*
X25438077Y-31045540D01*
X25370088Y-31286483D01*
X24609170Y-31286483D01*
X24406540Y-31083853D01*
X23897494Y-30873000D01*
X23346506Y-30873000D01*
X22837460Y-31083853D01*
X22447853Y-31473460D01*
X22237000Y-31982506D01*
X21182539Y-31982506D01*
X21182539Y-30740982D01*
X21244905Y-30247310D01*
X21410924Y-29827994D01*
X21676010Y-29463134D01*
X22023503Y-29175664D01*
X22431571Y-28983641D01*
X22891745Y-28895858D01*
X23186816Y-28900543D01*
G04 #@! TD*
M02*
