G04 #@! TF.GenerationSoftware,KiCad,Pcbnew,5.0.2-bee76a0~70~ubuntu18.04.1*
G04 #@! TF.CreationDate,2019-04-15T21:31:38-04:00*
G04 #@! TF.ProjectId,DR_InterfaceBoard,44525f49-6e74-4657-9266-616365426f61,rev?*
G04 #@! TF.SameCoordinates,Original*
G04 #@! TF.FileFunction,Copper,L2,Bot*
G04 #@! TF.FilePolarity,Positive*
%FSLAX46Y46*%
G04 Gerber Fmt 4.6, Leading zero omitted, Abs format (unit mm)*
G04 Created by KiCad (PCBNEW 5.0.2-bee76a0~70~ubuntu18.04.1) date Mon 15 Apr 2019 09:31:38 PM EDT*
%MOMM*%
%LPD*%
G01*
G04 APERTURE LIST*
G04 #@! TA.AperFunction,ComponentPad*
%ADD10C,3.000000*%
G04 #@! TD*
G04 #@! TA.AperFunction,ComponentPad*
%ADD11C,2.000000*%
G04 #@! TD*
G04 #@! TA.AperFunction,ComponentPad*
%ADD12C,1.300000*%
G04 #@! TD*
G04 #@! TA.AperFunction,ComponentPad*
%ADD13C,1.500000*%
G04 #@! TD*
G04 #@! TA.AperFunction,ComponentPad*
%ADD14C,2.750000*%
G04 #@! TD*
G04 #@! TA.AperFunction,Conductor*
%ADD15C,0.100000*%
G04 #@! TD*
G04 #@! TA.AperFunction,ComponentPad*
%ADD16C,1.700000*%
G04 #@! TD*
G04 #@! TA.AperFunction,ViaPad*
%ADD17C,0.609600*%
G04 #@! TD*
G04 #@! TA.AperFunction,Conductor*
%ADD18C,0.152400*%
G04 #@! TD*
G04 #@! TA.AperFunction,Conductor*
%ADD19C,0.254000*%
G04 #@! TD*
G04 APERTURE END LIST*
D10*
G04 #@! TO.P,J4,23*
G04 #@! TO.N,/CANL*
X67481000Y-68270000D03*
G04 #@! TO.P,J4,17*
G04 #@! TO.N,/RTD_LSD*
X91481000Y-68270000D03*
G04 #@! TO.P,J4,18*
G04 #@! TO.N,/STR_POT+*
X87481000Y-68270000D03*
G04 #@! TO.P,J4,19*
G04 #@! TO.N,/STR_POT_SENSE*
X83481000Y-68270000D03*
G04 #@! TO.P,J4,20*
G04 #@! TO.N,/STR_POT-*
X79481000Y-68270000D03*
G04 #@! TO.P,J4,21*
G04 #@! TO.N,/SCL*
X75481000Y-68270000D03*
G04 #@! TO.P,J4,22*
G04 #@! TO.N,/SDA*
X71481000Y-68270000D03*
G04 #@! TO.P,J4,10*
G04 #@! TO.N,/CANL*
X89481000Y-64270000D03*
G04 #@! TO.P,J4,11*
G04 #@! TO.N,/CANH*
X85481000Y-64270000D03*
G04 #@! TO.P,J4,13*
X77481000Y-64270000D03*
G04 #@! TO.P,J4,12*
G04 #@! TO.N,/CANL*
X81481000Y-64270000D03*
G04 #@! TO.P,J4,14*
X73481000Y-64270000D03*
G04 #@! TO.P,J4,15*
G04 #@! TO.N,/CANH*
X69481000Y-64270000D03*
G04 #@! TO.P,J4,8*
G04 #@! TO.N,+12V*
X67481000Y-60270000D03*
G04 #@! TO.P,J4,7*
G04 #@! TO.N,GND*
X71481000Y-60270000D03*
G04 #@! TO.P,J4,6*
G04 #@! TO.N,+12V*
X75481000Y-60270000D03*
G04 #@! TO.P,J4,4*
X83481000Y-60270000D03*
G04 #@! TO.P,J4,5*
G04 #@! TO.N,GND*
X79481000Y-60270000D03*
G04 #@! TO.P,J4,3*
X87481000Y-60270000D03*
G04 #@! TO.P,J4,2*
G04 #@! TO.N,+12V*
X91481000Y-60270000D03*
G04 #@! TO.P,J4,16*
X95481000Y-68270000D03*
G04 #@! TO.P,J4,9*
G04 #@! TO.N,/CANH*
X93481000Y-64270000D03*
G04 #@! TO.P,J4,1*
G04 #@! TO.N,GND*
X95481000Y-60270000D03*
G04 #@! TD*
D11*
G04 #@! TO.P,J1,11*
G04 #@! TO.N,N/C*
X117580000Y-79124000D03*
D12*
G04 #@! TO.P,J1,10*
G04 #@! TO.N,Net-(J1-Pad10)*
X116840000Y-66294000D03*
G04 #@! TO.P,J1,9*
G04 #@! TO.N,Net-(J1-Pad9)*
X119380000Y-67564000D03*
G04 #@! TO.P,J1,8*
G04 #@! TO.N,Net-(J1-Pad8)*
X116840000Y-68834000D03*
G04 #@! TO.P,J1,6*
G04 #@! TO.N,Net-(J1-Pad6)*
X116840000Y-71374000D03*
G04 #@! TO.P,J1,4*
G04 #@! TO.N,Net-(J1-Pad4)*
X116840000Y-73914000D03*
G04 #@! TO.P,J1,2*
G04 #@! TO.N,Net-(J1-Pad2)*
X116840000Y-76454000D03*
G04 #@! TO.P,J1,7*
G04 #@! TO.N,Net-(J1-Pad7)*
X119380000Y-70104000D03*
G04 #@! TO.P,J1,1*
G04 #@! TO.N,Net-(J1-Pad1)*
X119380000Y-77724000D03*
G04 #@! TO.P,J1,3*
G04 #@! TO.N,Net-(J1-Pad3)*
X119380000Y-75184000D03*
G04 #@! TO.P,J1,5*
G04 #@! TO.N,Net-(J1-Pad5)*
X119380000Y-72644000D03*
G04 #@! TD*
D11*
G04 #@! TO.P,J2,21*
G04 #@! TO.N,N/C*
X61812530Y-72553740D03*
D12*
G04 #@! TO.P,J2,20*
G04 #@! TO.N,Net-(J2-Pad20)*
X87342530Y-71813740D03*
G04 #@! TO.P,J2,19*
G04 #@! TO.N,/RTD_LSD*
X86072530Y-74353740D03*
G04 #@! TO.P,J2,18*
G04 #@! TO.N,/IMD_LED*
X84802530Y-71813740D03*
G04 #@! TO.P,J2,17*
G04 #@! TO.N,/BMS_LED*
X83532530Y-74353740D03*
G04 #@! TO.P,J2,16*
G04 #@! TO.N,/START_BTN*
X82262530Y-71813740D03*
G04 #@! TO.P,J2,15*
G04 #@! TO.N,/START_LED*
X80992530Y-74353740D03*
G04 #@! TO.P,J2,14*
G04 #@! TO.N,/RJ45_LED2*
X79722530Y-71813740D03*
G04 #@! TO.P,J2,13*
G04 #@! TO.N,/RJ45_LED1*
X78452530Y-74353740D03*
G04 #@! TO.P,J2,12*
G04 #@! TO.N,/RESET*
X77182530Y-71813740D03*
G04 #@! TO.P,J2,11*
G04 #@! TO.N,/SCK*
X75912530Y-74353740D03*
G04 #@! TO.P,J2,10*
G04 #@! TO.N,/MISO*
X74642530Y-71813740D03*
G04 #@! TO.P,J2,9*
G04 #@! TO.N,/MOSI*
X73372530Y-74353740D03*
G04 #@! TO.P,J2,8*
G04 #@! TO.N,+5V*
X72102530Y-71813740D03*
G04 #@! TO.P,J2,6*
G04 #@! TO.N,/CANH*
X69562530Y-71813740D03*
G04 #@! TO.P,J2,4*
G04 #@! TO.N,/STR_POT_SENSE*
X67022530Y-71813740D03*
G04 #@! TO.P,J2,2*
G04 #@! TO.N,+12V*
X64482530Y-71813740D03*
G04 #@! TO.P,J2,7*
G04 #@! TO.N,/CANL*
X70832530Y-74353740D03*
G04 #@! TO.P,J2,1*
G04 #@! TO.N,GND*
X63212530Y-74353740D03*
G04 #@! TO.P,J2,3*
G04 #@! TO.N,/STR_POT+*
X65752530Y-74353740D03*
G04 #@! TO.P,J2,5*
G04 #@! TO.N,/STR_POT-*
X68292530Y-74353740D03*
G04 #@! TD*
D11*
G04 #@! TO.P,J3,5*
G04 #@! TO.N,N/C*
X81764000Y-49019000D03*
D12*
G04 #@! TO.P,J3,4*
G04 #@! TO.N,GND*
X82804000Y-54229000D03*
G04 #@! TO.P,J3,2*
G04 #@! TO.N,/SDA*
X82804000Y-51689000D03*
G04 #@! TO.P,J3,1*
G04 #@! TO.N,/SCL*
X80264000Y-50419000D03*
G04 #@! TO.P,J3,3*
G04 #@! TO.N,+5V*
X80264000Y-52959000D03*
G04 #@! TD*
D13*
G04 #@! TO.P,U1,12*
G04 #@! TO.N,/RJ45_LED2*
X37973000Y-36322000D03*
G04 #@! TO.P,U1,11*
G04 #@! TO.N,GND*
X40513000Y-36322000D03*
G04 #@! TO.P,U1,9*
X51073000Y-36322000D03*
G04 #@! TO.P,U1,10*
G04 #@! TO.N,/RJ45_LED1*
X48533000Y-36322000D03*
G04 #@! TO.P,U1,1*
G04 #@! TO.N,/CANL*
X40073000Y-42952000D03*
G04 #@! TO.P,U1,3*
G04 #@! TO.N,/RESET*
X42613000Y-42952000D03*
G04 #@! TO.P,U1,5*
G04 #@! TO.N,/MISO*
X45153000Y-42952000D03*
G04 #@! TO.P,U1,7*
G04 #@! TO.N,+5V*
X47693000Y-42952000D03*
G04 #@! TO.P,U1,2*
G04 #@! TO.N,/CANH*
X41343000Y-45492000D03*
G04 #@! TO.P,U1,4*
G04 #@! TO.N,/SCK*
X43883000Y-45492000D03*
G04 #@! TO.P,U1,6*
G04 #@! TO.N,/MOSI*
X46423000Y-45492000D03*
G04 #@! TO.P,U1,8*
G04 #@! TO.N,GND*
X48963000Y-45492000D03*
D14*
G04 #@! TO.P,U1,13*
X37573000Y-41072000D03*
G04 #@! TO.P,U1,14*
X51473000Y-41072000D03*
G04 #@! TD*
D15*
G04 #@! TO.N,/SCL*
G04 #@! TO.C,J5*
G36*
X69712504Y-39283204D02*
X69736773Y-39286804D01*
X69760571Y-39292765D01*
X69783671Y-39301030D01*
X69805849Y-39311520D01*
X69826893Y-39324133D01*
X69846598Y-39338747D01*
X69864777Y-39355223D01*
X69881253Y-39373402D01*
X69895867Y-39393107D01*
X69908480Y-39414151D01*
X69918970Y-39436329D01*
X69927235Y-39459429D01*
X69933196Y-39483227D01*
X69936796Y-39507496D01*
X69938000Y-39532000D01*
X69938000Y-40732000D01*
X69936796Y-40756504D01*
X69933196Y-40780773D01*
X69927235Y-40804571D01*
X69918970Y-40827671D01*
X69908480Y-40849849D01*
X69895867Y-40870893D01*
X69881253Y-40890598D01*
X69864777Y-40908777D01*
X69846598Y-40925253D01*
X69826893Y-40939867D01*
X69805849Y-40952480D01*
X69783671Y-40962970D01*
X69760571Y-40971235D01*
X69736773Y-40977196D01*
X69712504Y-40980796D01*
X69688000Y-40982000D01*
X68488000Y-40982000D01*
X68463496Y-40980796D01*
X68439227Y-40977196D01*
X68415429Y-40971235D01*
X68392329Y-40962970D01*
X68370151Y-40952480D01*
X68349107Y-40939867D01*
X68329402Y-40925253D01*
X68311223Y-40908777D01*
X68294747Y-40890598D01*
X68280133Y-40870893D01*
X68267520Y-40849849D01*
X68257030Y-40827671D01*
X68248765Y-40804571D01*
X68242804Y-40780773D01*
X68239204Y-40756504D01*
X68238000Y-40732000D01*
X68238000Y-39532000D01*
X68239204Y-39507496D01*
X68242804Y-39483227D01*
X68248765Y-39459429D01*
X68257030Y-39436329D01*
X68267520Y-39414151D01*
X68280133Y-39393107D01*
X68294747Y-39373402D01*
X68311223Y-39355223D01*
X68329402Y-39338747D01*
X68349107Y-39324133D01*
X68370151Y-39311520D01*
X68392329Y-39301030D01*
X68415429Y-39292765D01*
X68439227Y-39286804D01*
X68463496Y-39283204D01*
X68488000Y-39282000D01*
X69688000Y-39282000D01*
X69712504Y-39283204D01*
X69712504Y-39283204D01*
G37*
D16*
G04 #@! TD*
G04 #@! TO.P,J5,1*
G04 #@! TO.N,/SCL*
X69088000Y-40132000D03*
G04 #@! TO.P,J5,2*
G04 #@! TO.N,/SDA*
X66588000Y-40132000D03*
G04 #@! TO.P,J5,3*
G04 #@! TO.N,+5V*
X64088000Y-40132000D03*
G04 #@! TO.P,J5,4*
G04 #@! TO.N,GND*
X61588000Y-40132000D03*
G04 #@! TO.P,J5,5*
G04 #@! TO.N,/BMS_LED*
X59088000Y-40132000D03*
G04 #@! TO.P,J5,6*
G04 #@! TO.N,GND*
X56588000Y-40132000D03*
G04 #@! TO.P,J5,7*
G04 #@! TO.N,/IMD_LED*
X69088000Y-42632000D03*
G04 #@! TO.P,J5,8*
G04 #@! TO.N,GND*
X66588000Y-42632000D03*
G04 #@! TO.P,J5,9*
G04 #@! TO.N,/START_BTN*
X64088000Y-42632000D03*
G04 #@! TO.P,J5,10*
G04 #@! TO.N,GND*
X61588000Y-42632000D03*
G04 #@! TO.P,J5,11*
G04 #@! TO.N,/START_LED*
X59088000Y-42632000D03*
G04 #@! TO.P,J5,12*
G04 #@! TO.N,GND*
X56588000Y-42632000D03*
G04 #@! TD*
D17*
G04 #@! TO.N,/IMD_LED*
X77724000Y-43180000D03*
G04 #@! TO.N,/START_BTN*
X72517000Y-44704000D03*
X83058000Y-45008799D03*
G04 #@! TO.N,/START_LED*
X66675000Y-36322000D03*
G04 #@! TO.N,/STR_POT-*
X73025000Y-70836811D03*
G04 #@! TO.N,/SDA*
X64998600Y-56769000D03*
X77724000Y-52451000D03*
G04 #@! TO.N,/SCL*
X65532000Y-54229000D03*
G04 #@! TD*
D18*
G04 #@! TO.N,/IMD_LED*
X77724000Y-43180000D02*
X69636000Y-43180000D01*
X69636000Y-43180000D02*
X69088000Y-42632000D01*
G04 #@! TO.N,/START_BTN*
X72517000Y-44704000D02*
X72821799Y-45008799D01*
X82804000Y-45008799D02*
X83058000Y-45008799D01*
X72821799Y-45008799D02*
X82804000Y-45008799D01*
G04 #@! TO.N,/START_LED*
X60166601Y-41553399D02*
X59937999Y-41782001D01*
X60166601Y-39614271D02*
X60166601Y-41553399D01*
X59937999Y-41782001D02*
X59088000Y-42632000D01*
X66675000Y-36322000D02*
X66370201Y-36626799D01*
X66370201Y-36626799D02*
X63154073Y-36626799D01*
X63154073Y-36626799D02*
X60166601Y-39614271D01*
G04 #@! TO.N,/CANH*
X54864000Y-58420000D02*
X42321601Y-45877601D01*
X58547000Y-58420000D02*
X58547000Y-58674000D01*
X58547000Y-58420000D02*
X54864000Y-58420000D01*
X64143000Y-64270000D02*
X69481000Y-64270000D01*
X58547000Y-58674000D02*
X64143000Y-64270000D01*
X41728601Y-45877601D02*
X41343000Y-45492000D01*
X42321601Y-45877601D02*
X41728601Y-45877601D01*
G04 #@! TO.N,/CANL*
X67481000Y-71002210D02*
X67481000Y-68270000D01*
X70832530Y-74353740D02*
X67481000Y-71002210D01*
X58266000Y-59055000D02*
X54906000Y-59055000D01*
X67481000Y-68270000D02*
X58266000Y-59055000D01*
X40073000Y-44012660D02*
X40073000Y-42952000D01*
X40073000Y-45670330D02*
X40073000Y-44012660D01*
X40884670Y-46482000D02*
X40073000Y-45670330D01*
X42333000Y-46482000D02*
X40884670Y-46482000D01*
X54906000Y-59055000D02*
X42333000Y-46482000D01*
G04 #@! TO.N,/STR_POT-*
X79481000Y-68444811D02*
X79481000Y-68270000D01*
X77089000Y-70836811D02*
X79481000Y-68444811D01*
X77089000Y-70836811D02*
X73025000Y-70836811D01*
G04 #@! TO.N,/SDA*
X71481000Y-66148680D02*
X71481000Y-68270000D01*
X71245320Y-65913000D02*
X71481000Y-66148680D01*
X70993000Y-65913000D02*
X71245320Y-65913000D01*
X71209601Y-65696399D02*
X70993000Y-65913000D01*
X71209601Y-63664399D02*
X71209601Y-65696399D01*
X71247000Y-63627000D02*
X71209601Y-63664399D01*
X69209601Y-61798941D02*
X69364330Y-61953670D01*
X69364330Y-61953670D02*
X69723000Y-61953670D01*
X69723000Y-61953670D02*
X71247000Y-63477670D01*
X71247000Y-63477670D02*
X71247000Y-63627000D01*
X65145601Y-57017601D02*
X65145601Y-56916001D01*
X65145601Y-56916001D02*
X64998600Y-56769000D01*
X65303399Y-57073799D02*
X68244400Y-57073799D01*
X64998600Y-56769000D02*
X65303399Y-57073799D01*
X68244400Y-57073799D02*
X69209601Y-58039000D01*
X69209601Y-58039000D02*
X69209601Y-61798941D01*
X78486000Y-51689000D02*
X82804000Y-51689000D01*
X77724000Y-52451000D02*
X78486000Y-51689000D01*
G04 #@! TO.N,/SCL*
X73981001Y-66770001D02*
X73422671Y-66770001D01*
X75481000Y-68270000D02*
X73981001Y-66770001D01*
X73422671Y-66770001D02*
X71752399Y-65099729D01*
X71752399Y-65099729D02*
X71752399Y-63099729D01*
X71752399Y-63099729D02*
X69596000Y-60943330D01*
X69596000Y-56972934D02*
X69596000Y-57023000D01*
X67156865Y-54533799D02*
X69596000Y-56972934D01*
X69596000Y-60943330D02*
X69596000Y-57023000D01*
X65532000Y-54229000D02*
X65836799Y-54533799D01*
X66675000Y-54533799D02*
X70789799Y-50419000D01*
X70789799Y-50419000D02*
X80264000Y-50419000D01*
X66675000Y-54533799D02*
X67156865Y-54533799D01*
X65836799Y-54533799D02*
X66675000Y-54533799D01*
G04 #@! TD*
D19*
G04 #@! TO.N,GND*
G36*
X40132904Y-30900094D02*
X104645833Y-36860605D01*
X105131673Y-36968124D01*
X105533944Y-37172020D01*
X105872864Y-37469546D01*
X106144160Y-37866934D01*
X106212009Y-38015309D01*
X106212720Y-38016456D01*
X106214024Y-38019677D01*
X106700204Y-39064760D01*
X106701645Y-39067436D01*
X106702785Y-39070248D01*
X106738067Y-39135717D01*
X107422786Y-40265393D01*
X107426069Y-40270157D01*
X107428848Y-40275218D01*
X107471528Y-40336124D01*
X108283370Y-41378198D01*
X108287183Y-41382542D01*
X108290537Y-41387250D01*
X108340031Y-41442760D01*
X109267909Y-42382999D01*
X109272201Y-42386867D01*
X109276083Y-42391153D01*
X109331716Y-42440510D01*
X110362955Y-43266071D01*
X110367671Y-43269413D01*
X110372024Y-43273215D01*
X110433035Y-43315744D01*
X111553550Y-44015352D01*
X111558631Y-44018125D01*
X111563392Y-44021389D01*
X111628948Y-44056510D01*
X112823435Y-44620609D01*
X112828800Y-44622769D01*
X112833914Y-44625457D01*
X112903120Y-44652689D01*
X114155264Y-45073573D01*
X114160840Y-45075091D01*
X114166235Y-45077165D01*
X114238146Y-45096137D01*
X115530842Y-45368059D01*
X115536557Y-45368916D01*
X115542159Y-45370347D01*
X115615792Y-45380799D01*
X116906786Y-45497814D01*
X117419485Y-45579285D01*
X117833294Y-45758606D01*
X118189503Y-46035200D01*
X118482728Y-46413620D01*
X118564099Y-46568966D01*
X132398400Y-76617486D01*
X132548208Y-77091999D01*
X132572764Y-77542323D01*
X132484560Y-77984596D01*
X132275458Y-78419489D01*
X132191507Y-78538441D01*
X132190027Y-78541223D01*
X132178972Y-78555863D01*
X131451162Y-79628543D01*
X131131501Y-80037591D01*
X130774153Y-80312717D01*
X130359612Y-80490332D01*
X129875114Y-80565277D01*
X129835076Y-80565595D01*
X118584738Y-80431501D01*
X118966086Y-80050153D01*
X119215000Y-79449222D01*
X119215000Y-79009000D01*
X119635602Y-79009000D01*
X120107894Y-78813371D01*
X120469371Y-78451894D01*
X120665000Y-77979602D01*
X120665000Y-77468398D01*
X120469371Y-76996106D01*
X120107894Y-76634629D01*
X119671815Y-76454000D01*
X120107894Y-76273371D01*
X120469371Y-75911894D01*
X120665000Y-75439602D01*
X120665000Y-74928398D01*
X120469371Y-74456106D01*
X120107894Y-74094629D01*
X119671815Y-73914000D01*
X120107894Y-73733371D01*
X120469371Y-73371894D01*
X120665000Y-72899602D01*
X120665000Y-72388398D01*
X120469371Y-71916106D01*
X120107894Y-71554629D01*
X119671815Y-71374000D01*
X120107894Y-71193371D01*
X120469371Y-70831894D01*
X120665000Y-70359602D01*
X120665000Y-69848398D01*
X120469371Y-69376106D01*
X120107894Y-69014629D01*
X119671815Y-68834000D01*
X120107894Y-68653371D01*
X120469371Y-68291894D01*
X120665000Y-67819602D01*
X120665000Y-67308398D01*
X120469371Y-66836106D01*
X120107894Y-66474629D01*
X119635602Y-66279000D01*
X119124398Y-66279000D01*
X118652106Y-66474629D01*
X118290629Y-66836106D01*
X118095000Y-67308398D01*
X118095000Y-67819602D01*
X118290629Y-68291894D01*
X118652106Y-68653371D01*
X119088185Y-68834000D01*
X118652106Y-69014629D01*
X118290629Y-69376106D01*
X118095000Y-69848398D01*
X118095000Y-70359602D01*
X118290629Y-70831894D01*
X118652106Y-71193371D01*
X119088185Y-71374000D01*
X118652106Y-71554629D01*
X118290629Y-71916106D01*
X118095000Y-72388398D01*
X118095000Y-72899602D01*
X118290629Y-73371894D01*
X118652106Y-73733371D01*
X119088185Y-73914000D01*
X118652106Y-74094629D01*
X118290629Y-74456106D01*
X118095000Y-74928398D01*
X118095000Y-75439602D01*
X118290629Y-75911894D01*
X118652106Y-76273371D01*
X119088185Y-76454000D01*
X118652106Y-76634629D01*
X118290629Y-76996106D01*
X118095000Y-77468398D01*
X118095000Y-77567609D01*
X117905222Y-77489000D01*
X117622265Y-77489000D01*
X117929371Y-77181894D01*
X118125000Y-76709602D01*
X118125000Y-76198398D01*
X117929371Y-75726106D01*
X117567894Y-75364629D01*
X117131815Y-75184000D01*
X117567894Y-75003371D01*
X117929371Y-74641894D01*
X118125000Y-74169602D01*
X118125000Y-73658398D01*
X117929371Y-73186106D01*
X117567894Y-72824629D01*
X117131815Y-72644000D01*
X117567894Y-72463371D01*
X117929371Y-72101894D01*
X118125000Y-71629602D01*
X118125000Y-71118398D01*
X117929371Y-70646106D01*
X117567894Y-70284629D01*
X117131815Y-70104000D01*
X117567894Y-69923371D01*
X117929371Y-69561894D01*
X118125000Y-69089602D01*
X118125000Y-68578398D01*
X117929371Y-68106106D01*
X117567894Y-67744629D01*
X117131815Y-67564000D01*
X117567894Y-67383371D01*
X117929371Y-67021894D01*
X118125000Y-66549602D01*
X118125000Y-66038398D01*
X117929371Y-65566106D01*
X117567894Y-65204629D01*
X117095602Y-65009000D01*
X116584398Y-65009000D01*
X116112106Y-65204629D01*
X115750629Y-65566106D01*
X115555000Y-66038398D01*
X115555000Y-66549602D01*
X115750629Y-67021894D01*
X116112106Y-67383371D01*
X116548185Y-67564000D01*
X116112106Y-67744629D01*
X115750629Y-68106106D01*
X115555000Y-68578398D01*
X115555000Y-69089602D01*
X115750629Y-69561894D01*
X116112106Y-69923371D01*
X116548185Y-70104000D01*
X116112106Y-70284629D01*
X115750629Y-70646106D01*
X115555000Y-71118398D01*
X115555000Y-71629602D01*
X115750629Y-72101894D01*
X116112106Y-72463371D01*
X116548185Y-72644000D01*
X116112106Y-72824629D01*
X115750629Y-73186106D01*
X115555000Y-73658398D01*
X115555000Y-74169602D01*
X115750629Y-74641894D01*
X116112106Y-75003371D01*
X116548185Y-75184000D01*
X116112106Y-75364629D01*
X115750629Y-75726106D01*
X115555000Y-76198398D01*
X115555000Y-76709602D01*
X115750629Y-77181894D01*
X116112106Y-77543371D01*
X116584398Y-77739000D01*
X116652761Y-77739000D01*
X116193914Y-78197847D01*
X115945000Y-78798778D01*
X115945000Y-79449222D01*
X116193914Y-80050153D01*
X116551022Y-80407261D01*
X46602413Y-79573536D01*
X46109511Y-79505291D01*
X45692199Y-79334284D01*
X45330528Y-79064870D01*
X45022549Y-78683423D01*
X44998459Y-78642654D01*
X44995128Y-78638356D01*
X44986818Y-78623619D01*
X44380060Y-77664490D01*
X44378457Y-77662256D01*
X44377109Y-77659864D01*
X44333768Y-77599427D01*
X43510610Y-76566269D01*
X43506746Y-76561962D01*
X43503344Y-76557296D01*
X43453248Y-76502329D01*
X42515172Y-75572264D01*
X42510833Y-75568438D01*
X42506909Y-75564200D01*
X42450742Y-75515453D01*
X42115161Y-75252756D01*
X62493120Y-75252756D01*
X62548801Y-75483351D01*
X63031608Y-75651362D01*
X63541958Y-75621823D01*
X63876259Y-75483351D01*
X63931940Y-75252756D01*
X63212530Y-74533345D01*
X62493120Y-75252756D01*
X42115161Y-75252756D01*
X41410560Y-74701187D01*
X41405807Y-74697895D01*
X41401413Y-74694142D01*
X41339942Y-74652280D01*
X40211863Y-73964934D01*
X40206751Y-73962216D01*
X40201956Y-73959005D01*
X40136021Y-73924601D01*
X38957908Y-73383869D01*
X38501694Y-73136120D01*
X38171351Y-72829102D01*
X37927739Y-72449573D01*
X37776689Y-71992730D01*
X37754863Y-71847518D01*
X37691513Y-71244778D01*
X54646000Y-71244778D01*
X54646000Y-71895222D01*
X54894914Y-72496153D01*
X55354847Y-72956086D01*
X55955778Y-73205000D01*
X56606222Y-73205000D01*
X57207153Y-72956086D01*
X57667086Y-72496153D01*
X57916000Y-71895222D01*
X57916000Y-71244778D01*
X57667086Y-70643847D01*
X57207153Y-70183914D01*
X56606222Y-69935000D01*
X55955778Y-69935000D01*
X55354847Y-70183914D01*
X54894914Y-70643847D01*
X54646000Y-71244778D01*
X37691513Y-71244778D01*
X34669860Y-42495659D01*
X36328946Y-42495659D01*
X36473467Y-42801444D01*
X37218993Y-43090571D01*
X38018414Y-43072389D01*
X38672533Y-42801444D01*
X38688000Y-42768718D01*
X38688000Y-43227494D01*
X38898853Y-43736540D01*
X39288460Y-44126147D01*
X39361801Y-44156526D01*
X39361800Y-45600288D01*
X39347868Y-45670330D01*
X39361800Y-45740371D01*
X39361800Y-45740375D01*
X39403064Y-45947825D01*
X39427756Y-45984779D01*
X39520576Y-46123694D01*
X39520578Y-46123696D01*
X39560254Y-46183075D01*
X39619634Y-46222752D01*
X40332248Y-46935367D01*
X40371924Y-46994746D01*
X40431303Y-47034422D01*
X40431305Y-47034424D01*
X40547006Y-47111733D01*
X40607174Y-47151936D01*
X40814624Y-47193200D01*
X40814628Y-47193200D01*
X40884670Y-47207132D01*
X40954712Y-47193200D01*
X42038412Y-47193200D01*
X54353578Y-59508367D01*
X54393254Y-59567746D01*
X54452633Y-59607422D01*
X54452635Y-59607424D01*
X54628502Y-59724935D01*
X54628503Y-59724935D01*
X54628504Y-59724936D01*
X54835954Y-59766200D01*
X54835957Y-59766200D01*
X54905999Y-59780132D01*
X54976041Y-59766200D01*
X57971412Y-59766200D01*
X60915212Y-62710000D01*
X60571240Y-62710000D01*
X59814104Y-63023616D01*
X59234616Y-63603104D01*
X58921000Y-64360240D01*
X58921000Y-65179760D01*
X59234616Y-65936896D01*
X59814104Y-66516384D01*
X60571240Y-66830000D01*
X61390760Y-66830000D01*
X62147896Y-66516384D01*
X62727384Y-65936896D01*
X63041000Y-65179760D01*
X63041000Y-64835789D01*
X65552353Y-67347142D01*
X65346000Y-67845322D01*
X65346000Y-68694678D01*
X65671034Y-69479380D01*
X66271620Y-70079966D01*
X66769800Y-70286319D01*
X66769800Y-70528740D01*
X66766928Y-70528740D01*
X66294636Y-70724369D01*
X65933159Y-71085846D01*
X65752530Y-71521925D01*
X65571901Y-71085846D01*
X65210424Y-70724369D01*
X64738132Y-70528740D01*
X64226928Y-70528740D01*
X63754636Y-70724369D01*
X63393159Y-71085846D01*
X63197530Y-71558138D01*
X63197530Y-71626501D01*
X62738683Y-71167654D01*
X62137752Y-70918740D01*
X61487308Y-70918740D01*
X60886377Y-71167654D01*
X60426444Y-71627587D01*
X60177530Y-72228518D01*
X60177530Y-72878962D01*
X60426444Y-73479893D01*
X60886377Y-73939826D01*
X61487308Y-74188740D01*
X61915830Y-74188740D01*
X61944447Y-74683168D01*
X62082919Y-75017469D01*
X62313514Y-75073150D01*
X63032925Y-74353740D01*
X63018783Y-74339598D01*
X63198388Y-74159993D01*
X63212530Y-74174135D01*
X63931940Y-73454724D01*
X63876259Y-73224129D01*
X63393452Y-73056118D01*
X63373675Y-73057263D01*
X63447530Y-72878962D01*
X63447530Y-72596005D01*
X63754636Y-72903111D01*
X64226928Y-73098740D01*
X64738132Y-73098740D01*
X65210424Y-72903111D01*
X65571901Y-72541634D01*
X65752530Y-72105555D01*
X65933159Y-72541634D01*
X66294636Y-72903111D01*
X66766928Y-73098740D01*
X67278132Y-73098740D01*
X67750424Y-72903111D01*
X68063268Y-72590267D01*
X68541742Y-73068740D01*
X68036928Y-73068740D01*
X67564636Y-73264369D01*
X67203159Y-73625846D01*
X67022530Y-74061925D01*
X66841901Y-73625846D01*
X66480424Y-73264369D01*
X66008132Y-73068740D01*
X65496928Y-73068740D01*
X65024636Y-73264369D01*
X64663159Y-73625846D01*
X64482758Y-74061374D01*
X64480613Y-74024312D01*
X64342141Y-73690011D01*
X64111546Y-73634330D01*
X63392135Y-74353740D01*
X64111546Y-75073150D01*
X64342141Y-75017469D01*
X64476570Y-74631166D01*
X64663159Y-75081634D01*
X65024636Y-75443111D01*
X65496928Y-75638740D01*
X66008132Y-75638740D01*
X66480424Y-75443111D01*
X66841901Y-75081634D01*
X67022530Y-74645555D01*
X67203159Y-75081634D01*
X67564636Y-75443111D01*
X68036928Y-75638740D01*
X68548132Y-75638740D01*
X69020424Y-75443111D01*
X69381901Y-75081634D01*
X69562530Y-74645555D01*
X69743159Y-75081634D01*
X70104636Y-75443111D01*
X70576928Y-75638740D01*
X71088132Y-75638740D01*
X71560424Y-75443111D01*
X71921901Y-75081634D01*
X72102530Y-74645555D01*
X72283159Y-75081634D01*
X72644636Y-75443111D01*
X73116928Y-75638740D01*
X73628132Y-75638740D01*
X74100424Y-75443111D01*
X74461901Y-75081634D01*
X74642530Y-74645555D01*
X74823159Y-75081634D01*
X75184636Y-75443111D01*
X75656928Y-75638740D01*
X76168132Y-75638740D01*
X76640424Y-75443111D01*
X77001901Y-75081634D01*
X77182530Y-74645555D01*
X77363159Y-75081634D01*
X77724636Y-75443111D01*
X78196928Y-75638740D01*
X78708132Y-75638740D01*
X79180424Y-75443111D01*
X79541901Y-75081634D01*
X79722530Y-74645555D01*
X79903159Y-75081634D01*
X80264636Y-75443111D01*
X80736928Y-75638740D01*
X81248132Y-75638740D01*
X81720424Y-75443111D01*
X82081901Y-75081634D01*
X82262530Y-74645555D01*
X82443159Y-75081634D01*
X82804636Y-75443111D01*
X83276928Y-75638740D01*
X83788132Y-75638740D01*
X84260424Y-75443111D01*
X84621901Y-75081634D01*
X84802530Y-74645555D01*
X84983159Y-75081634D01*
X85344636Y-75443111D01*
X85816928Y-75638740D01*
X86328132Y-75638740D01*
X86800424Y-75443111D01*
X87161901Y-75081634D01*
X87357530Y-74609342D01*
X87357530Y-74098138D01*
X87161901Y-73625846D01*
X86800424Y-73264369D01*
X86328132Y-73068740D01*
X85816928Y-73068740D01*
X85344636Y-73264369D01*
X84983159Y-73625846D01*
X84802530Y-74061925D01*
X84621901Y-73625846D01*
X84260424Y-73264369D01*
X83788132Y-73068740D01*
X83276928Y-73068740D01*
X82804636Y-73264369D01*
X82443159Y-73625846D01*
X82262530Y-74061925D01*
X82081901Y-73625846D01*
X81720424Y-73264369D01*
X81248132Y-73068740D01*
X80736928Y-73068740D01*
X80264636Y-73264369D01*
X79903159Y-73625846D01*
X79722530Y-74061925D01*
X79541901Y-73625846D01*
X79180424Y-73264369D01*
X78708132Y-73068740D01*
X78196928Y-73068740D01*
X77724636Y-73264369D01*
X77363159Y-73625846D01*
X77182530Y-74061925D01*
X77001901Y-73625846D01*
X76640424Y-73264369D01*
X76168132Y-73068740D01*
X75656928Y-73068740D01*
X75184636Y-73264369D01*
X74823159Y-73625846D01*
X74642530Y-74061925D01*
X74461901Y-73625846D01*
X74100424Y-73264369D01*
X73628132Y-73068740D01*
X73116928Y-73068740D01*
X72644636Y-73264369D01*
X72283159Y-73625846D01*
X72102530Y-74061925D01*
X71921901Y-73625846D01*
X71560424Y-73264369D01*
X71088132Y-73068740D01*
X70576928Y-73068740D01*
X70560234Y-73075655D01*
X70339057Y-72854478D01*
X70651901Y-72541634D01*
X70832530Y-72105555D01*
X71013159Y-72541634D01*
X71374636Y-72903111D01*
X71846928Y-73098740D01*
X72358132Y-73098740D01*
X72830424Y-72903111D01*
X73191901Y-72541634D01*
X73372530Y-72105555D01*
X73553159Y-72541634D01*
X73914636Y-72903111D01*
X74386928Y-73098740D01*
X74898132Y-73098740D01*
X75370424Y-72903111D01*
X75731901Y-72541634D01*
X75912530Y-72105555D01*
X76093159Y-72541634D01*
X76454636Y-72903111D01*
X76926928Y-73098740D01*
X77438132Y-73098740D01*
X77910424Y-72903111D01*
X78271901Y-72541634D01*
X78452530Y-72105555D01*
X78633159Y-72541634D01*
X78994636Y-72903111D01*
X79466928Y-73098740D01*
X79978132Y-73098740D01*
X80450424Y-72903111D01*
X80811901Y-72541634D01*
X80992530Y-72105555D01*
X81173159Y-72541634D01*
X81534636Y-72903111D01*
X82006928Y-73098740D01*
X82518132Y-73098740D01*
X82990424Y-72903111D01*
X83351901Y-72541634D01*
X83532530Y-72105555D01*
X83713159Y-72541634D01*
X84074636Y-72903111D01*
X84546928Y-73098740D01*
X85058132Y-73098740D01*
X85530424Y-72903111D01*
X85891901Y-72541634D01*
X86072530Y-72105555D01*
X86253159Y-72541634D01*
X86614636Y-72903111D01*
X87086928Y-73098740D01*
X87598132Y-73098740D01*
X88070424Y-72903111D01*
X88431901Y-72541634D01*
X88627530Y-72069342D01*
X88627530Y-71558138D01*
X88497733Y-71244778D01*
X105046000Y-71244778D01*
X105046000Y-71895222D01*
X105294914Y-72496153D01*
X105754847Y-72956086D01*
X106355778Y-73205000D01*
X107006222Y-73205000D01*
X107607153Y-72956086D01*
X108067086Y-72496153D01*
X108316000Y-71895222D01*
X108316000Y-71244778D01*
X108067086Y-70643847D01*
X107607153Y-70183914D01*
X107006222Y-69935000D01*
X106355778Y-69935000D01*
X105754847Y-70183914D01*
X105294914Y-70643847D01*
X105046000Y-71244778D01*
X88497733Y-71244778D01*
X88431901Y-71085846D01*
X88070424Y-70724369D01*
X87598132Y-70528740D01*
X87086928Y-70528740D01*
X86614636Y-70724369D01*
X86253159Y-71085846D01*
X86072530Y-71521925D01*
X85891901Y-71085846D01*
X85530424Y-70724369D01*
X85058132Y-70528740D01*
X84546928Y-70528740D01*
X84074636Y-70724369D01*
X83713159Y-71085846D01*
X83532530Y-71521925D01*
X83351901Y-71085846D01*
X82990424Y-70724369D01*
X82518132Y-70528740D01*
X82006928Y-70528740D01*
X81534636Y-70724369D01*
X81173159Y-71085846D01*
X80992530Y-71521925D01*
X80811901Y-71085846D01*
X80450424Y-70724369D01*
X79978132Y-70528740D01*
X79466928Y-70528740D01*
X78994636Y-70724369D01*
X78633159Y-71085846D01*
X78452530Y-71521925D01*
X78271901Y-71085846D01*
X78058827Y-70872772D01*
X78681752Y-70249848D01*
X79056322Y-70405000D01*
X79905678Y-70405000D01*
X80690380Y-70079966D01*
X81290966Y-69479380D01*
X81481000Y-69020597D01*
X81671034Y-69479380D01*
X82271620Y-70079966D01*
X83056322Y-70405000D01*
X83905678Y-70405000D01*
X84690380Y-70079966D01*
X85290966Y-69479380D01*
X85481000Y-69020597D01*
X85671034Y-69479380D01*
X86271620Y-70079966D01*
X87056322Y-70405000D01*
X87905678Y-70405000D01*
X88690380Y-70079966D01*
X89290966Y-69479380D01*
X89481000Y-69020597D01*
X89671034Y-69479380D01*
X90271620Y-70079966D01*
X91056322Y-70405000D01*
X91905678Y-70405000D01*
X92690380Y-70079966D01*
X93290966Y-69479380D01*
X93481000Y-69020597D01*
X93671034Y-69479380D01*
X94271620Y-70079966D01*
X95056322Y-70405000D01*
X95905678Y-70405000D01*
X96690380Y-70079966D01*
X97290966Y-69479380D01*
X97616000Y-68694678D01*
X97616000Y-67845322D01*
X97290966Y-67060620D01*
X96690380Y-66460034D01*
X95905678Y-66135000D01*
X95056322Y-66135000D01*
X94271620Y-66460034D01*
X93671034Y-67060620D01*
X93481000Y-67519403D01*
X93290966Y-67060620D01*
X92690380Y-66460034D01*
X91905678Y-66135000D01*
X91056322Y-66135000D01*
X90271620Y-66460034D01*
X89671034Y-67060620D01*
X89481000Y-67519403D01*
X89290966Y-67060620D01*
X88690380Y-66460034D01*
X87905678Y-66135000D01*
X87056322Y-66135000D01*
X86271620Y-66460034D01*
X85671034Y-67060620D01*
X85481000Y-67519403D01*
X85290966Y-67060620D01*
X84690380Y-66460034D01*
X83905678Y-66135000D01*
X83056322Y-66135000D01*
X82271620Y-66460034D01*
X81671034Y-67060620D01*
X81481000Y-67519403D01*
X81290966Y-67060620D01*
X80690380Y-66460034D01*
X79905678Y-66135000D01*
X79056322Y-66135000D01*
X78271620Y-66460034D01*
X77671034Y-67060620D01*
X77481000Y-67519403D01*
X77290966Y-67060620D01*
X76690380Y-66460034D01*
X75905678Y-66135000D01*
X75056322Y-66135000D01*
X74558141Y-66341353D01*
X74533424Y-66316636D01*
X74493747Y-66257255D01*
X74405202Y-66198091D01*
X74690380Y-66079966D01*
X75290966Y-65479380D01*
X75481000Y-65020597D01*
X75671034Y-65479380D01*
X76271620Y-66079966D01*
X77056322Y-66405000D01*
X77905678Y-66405000D01*
X78690380Y-66079966D01*
X79290966Y-65479380D01*
X79481000Y-65020597D01*
X79671034Y-65479380D01*
X80271620Y-66079966D01*
X81056322Y-66405000D01*
X81905678Y-66405000D01*
X82690380Y-66079966D01*
X83290966Y-65479380D01*
X83481000Y-65020597D01*
X83671034Y-65479380D01*
X84271620Y-66079966D01*
X85056322Y-66405000D01*
X85905678Y-66405000D01*
X86690380Y-66079966D01*
X87290966Y-65479380D01*
X87481000Y-65020597D01*
X87671034Y-65479380D01*
X88271620Y-66079966D01*
X89056322Y-66405000D01*
X89905678Y-66405000D01*
X90690380Y-66079966D01*
X91290966Y-65479380D01*
X91481000Y-65020597D01*
X91671034Y-65479380D01*
X92271620Y-66079966D01*
X93056322Y-66405000D01*
X93905678Y-66405000D01*
X94690380Y-66079966D01*
X95290966Y-65479380D01*
X95616000Y-64694678D01*
X95616000Y-64360240D01*
X99921000Y-64360240D01*
X99921000Y-65179760D01*
X100234616Y-65936896D01*
X100814104Y-66516384D01*
X101571240Y-66830000D01*
X102390760Y-66830000D01*
X103147896Y-66516384D01*
X103727384Y-65936896D01*
X104041000Y-65179760D01*
X104041000Y-64360240D01*
X103727384Y-63603104D01*
X103147896Y-63023616D01*
X102390760Y-62710000D01*
X101571240Y-62710000D01*
X100814104Y-63023616D01*
X100234616Y-63603104D01*
X99921000Y-64360240D01*
X95616000Y-64360240D01*
X95616000Y-63845322D01*
X95290966Y-63060620D01*
X94690380Y-62460034D01*
X93905678Y-62135000D01*
X93056322Y-62135000D01*
X92271620Y-62460034D01*
X91671034Y-63060620D01*
X91481000Y-63519403D01*
X91290966Y-63060620D01*
X90690380Y-62460034D01*
X89905678Y-62135000D01*
X89056322Y-62135000D01*
X88271620Y-62460034D01*
X87671034Y-63060620D01*
X87481000Y-63519403D01*
X87290966Y-63060620D01*
X86690380Y-62460034D01*
X85905678Y-62135000D01*
X85056322Y-62135000D01*
X84271620Y-62460034D01*
X83671034Y-63060620D01*
X83481000Y-63519403D01*
X83290966Y-63060620D01*
X82690380Y-62460034D01*
X81905678Y-62135000D01*
X81056322Y-62135000D01*
X80271620Y-62460034D01*
X79671034Y-63060620D01*
X79481000Y-63519403D01*
X79290966Y-63060620D01*
X78690380Y-62460034D01*
X77905678Y-62135000D01*
X77056322Y-62135000D01*
X76271620Y-62460034D01*
X75671034Y-63060620D01*
X75481000Y-63519403D01*
X75290966Y-63060620D01*
X74690380Y-62460034D01*
X73905678Y-62135000D01*
X73056322Y-62135000D01*
X72271620Y-62460034D01*
X72195056Y-62536598D01*
X72023157Y-62364698D01*
X72655582Y-62102739D01*
X72815365Y-61783970D01*
X71481000Y-60449605D01*
X71466858Y-60463748D01*
X71287253Y-60284143D01*
X71301395Y-60270000D01*
X71660605Y-60270000D01*
X72994970Y-61604365D01*
X73313739Y-61444582D01*
X73480457Y-61019285D01*
X73671034Y-61479380D01*
X74271620Y-62079966D01*
X75056322Y-62405000D01*
X75905678Y-62405000D01*
X76690380Y-62079966D01*
X76986376Y-61783970D01*
X78146635Y-61783970D01*
X78306418Y-62102739D01*
X79097187Y-62412723D01*
X79946387Y-62396497D01*
X80655582Y-62102739D01*
X80815365Y-61783970D01*
X79481000Y-60449605D01*
X78146635Y-61783970D01*
X76986376Y-61783970D01*
X77290966Y-61479380D01*
X77476820Y-61030688D01*
X77648261Y-61444582D01*
X77967030Y-61604365D01*
X79301395Y-60270000D01*
X79660605Y-60270000D01*
X80994970Y-61604365D01*
X81313739Y-61444582D01*
X81480457Y-61019285D01*
X81671034Y-61479380D01*
X82271620Y-62079966D01*
X83056322Y-62405000D01*
X83905678Y-62405000D01*
X84690380Y-62079966D01*
X84986376Y-61783970D01*
X86146635Y-61783970D01*
X86306418Y-62102739D01*
X87097187Y-62412723D01*
X87946387Y-62396497D01*
X88655582Y-62102739D01*
X88815365Y-61783970D01*
X87481000Y-60449605D01*
X86146635Y-61783970D01*
X84986376Y-61783970D01*
X85290966Y-61479380D01*
X85476820Y-61030688D01*
X85648261Y-61444582D01*
X85967030Y-61604365D01*
X87301395Y-60270000D01*
X87660605Y-60270000D01*
X88994970Y-61604365D01*
X89313739Y-61444582D01*
X89480457Y-61019285D01*
X89671034Y-61479380D01*
X90271620Y-62079966D01*
X91056322Y-62405000D01*
X91905678Y-62405000D01*
X92690380Y-62079966D01*
X92986376Y-61783970D01*
X94146635Y-61783970D01*
X94306418Y-62102739D01*
X95097187Y-62412723D01*
X95946387Y-62396497D01*
X96655582Y-62102739D01*
X96815365Y-61783970D01*
X95481000Y-60449605D01*
X94146635Y-61783970D01*
X92986376Y-61783970D01*
X93290966Y-61479380D01*
X93476820Y-61030688D01*
X93648261Y-61444582D01*
X93967030Y-61604365D01*
X95301395Y-60270000D01*
X95660605Y-60270000D01*
X96994970Y-61604365D01*
X97313739Y-61444582D01*
X97623723Y-60653813D01*
X97607497Y-59804613D01*
X97313739Y-59095418D01*
X96994970Y-58935635D01*
X95660605Y-60270000D01*
X95301395Y-60270000D01*
X93967030Y-58935635D01*
X93648261Y-59095418D01*
X93481543Y-59520715D01*
X93290966Y-59060620D01*
X92986376Y-58756030D01*
X94146635Y-58756030D01*
X95481000Y-60090395D01*
X96815365Y-58756030D01*
X96655582Y-58437261D01*
X95864813Y-58127277D01*
X95015613Y-58143503D01*
X94306418Y-58437261D01*
X94146635Y-58756030D01*
X92986376Y-58756030D01*
X92690380Y-58460034D01*
X91905678Y-58135000D01*
X91056322Y-58135000D01*
X90271620Y-58460034D01*
X89671034Y-59060620D01*
X89485180Y-59509312D01*
X89313739Y-59095418D01*
X88994970Y-58935635D01*
X87660605Y-60270000D01*
X87301395Y-60270000D01*
X85967030Y-58935635D01*
X85648261Y-59095418D01*
X85481543Y-59520715D01*
X85290966Y-59060620D01*
X84986376Y-58756030D01*
X86146635Y-58756030D01*
X87481000Y-60090395D01*
X88815365Y-58756030D01*
X88655582Y-58437261D01*
X87864813Y-58127277D01*
X87015613Y-58143503D01*
X86306418Y-58437261D01*
X86146635Y-58756030D01*
X84986376Y-58756030D01*
X84690380Y-58460034D01*
X83905678Y-58135000D01*
X83056322Y-58135000D01*
X82271620Y-58460034D01*
X81671034Y-59060620D01*
X81485180Y-59509312D01*
X81313739Y-59095418D01*
X80994970Y-58935635D01*
X79660605Y-60270000D01*
X79301395Y-60270000D01*
X77967030Y-58935635D01*
X77648261Y-59095418D01*
X77481543Y-59520715D01*
X77290966Y-59060620D01*
X76986376Y-58756030D01*
X78146635Y-58756030D01*
X79481000Y-60090395D01*
X80815365Y-58756030D01*
X80655582Y-58437261D01*
X79864813Y-58127277D01*
X79015613Y-58143503D01*
X78306418Y-58437261D01*
X78146635Y-58756030D01*
X76986376Y-58756030D01*
X76690380Y-58460034D01*
X75905678Y-58135000D01*
X75056322Y-58135000D01*
X74271620Y-58460034D01*
X73671034Y-59060620D01*
X73485180Y-59509312D01*
X73313739Y-59095418D01*
X72994970Y-58935635D01*
X71660605Y-60270000D01*
X71301395Y-60270000D01*
X71287253Y-60255858D01*
X71466858Y-60076253D01*
X71481000Y-60090395D01*
X72815365Y-58756030D01*
X72655582Y-58437261D01*
X71864813Y-58127277D01*
X71015613Y-58143503D01*
X70307200Y-58436937D01*
X70307200Y-57042976D01*
X70321132Y-56972934D01*
X70307200Y-56902892D01*
X70307200Y-56902888D01*
X70265936Y-56695438D01*
X70190180Y-56582062D01*
X70148424Y-56519569D01*
X70148420Y-56519565D01*
X70108745Y-56460188D01*
X70049369Y-56420514D01*
X68756871Y-55128016D01*
X82084590Y-55128016D01*
X82140271Y-55358611D01*
X82623078Y-55526622D01*
X83133428Y-55497083D01*
X83467729Y-55358611D01*
X83523410Y-55128016D01*
X82804000Y-54408605D01*
X82084590Y-55128016D01*
X68756871Y-55128016D01*
X67921721Y-54292867D01*
X71084388Y-51130200D01*
X78042177Y-51130200D01*
X78032635Y-51136576D01*
X78032633Y-51136578D01*
X77973254Y-51176254D01*
X77933578Y-51235633D01*
X77658011Y-51511200D01*
X77537062Y-51511200D01*
X77191646Y-51654276D01*
X76927276Y-51918646D01*
X76784200Y-52264062D01*
X76784200Y-52637938D01*
X76927276Y-52983354D01*
X77191646Y-53247724D01*
X77537062Y-53390800D01*
X77910938Y-53390800D01*
X78256354Y-53247724D01*
X78520724Y-52983354D01*
X78663800Y-52637938D01*
X78663800Y-52516989D01*
X78780589Y-52400200D01*
X79104588Y-52400200D01*
X78979000Y-52703398D01*
X78979000Y-53214602D01*
X79174629Y-53686894D01*
X79536106Y-54048371D01*
X80008398Y-54244000D01*
X80519602Y-54244000D01*
X80991894Y-54048371D01*
X80992187Y-54048078D01*
X81506378Y-54048078D01*
X81535917Y-54558428D01*
X81674389Y-54892729D01*
X81904984Y-54948410D01*
X82624395Y-54229000D01*
X82983605Y-54229000D01*
X83703016Y-54948410D01*
X83933611Y-54892729D01*
X84101622Y-54409922D01*
X84072083Y-53899572D01*
X83933611Y-53565271D01*
X83703016Y-53509590D01*
X82983605Y-54229000D01*
X82624395Y-54229000D01*
X81904984Y-53509590D01*
X81674389Y-53565271D01*
X81506378Y-54048078D01*
X80992187Y-54048078D01*
X81353371Y-53686894D01*
X81549000Y-53214602D01*
X81549000Y-52703398D01*
X81423412Y-52400200D01*
X81707714Y-52400200D01*
X81714629Y-52416894D01*
X82076106Y-52778371D01*
X82511634Y-52958772D01*
X82474572Y-52960917D01*
X82140271Y-53099389D01*
X82084590Y-53329984D01*
X82804000Y-54049395D01*
X83523410Y-53329984D01*
X83478689Y-53144778D01*
X103546000Y-53144778D01*
X103546000Y-53795222D01*
X103794914Y-54396153D01*
X104254847Y-54856086D01*
X104855778Y-55105000D01*
X105506222Y-55105000D01*
X106107153Y-54856086D01*
X106567086Y-54396153D01*
X106816000Y-53795222D01*
X106816000Y-53144778D01*
X106567086Y-52543847D01*
X106107153Y-52083914D01*
X105506222Y-51835000D01*
X104855778Y-51835000D01*
X104254847Y-52083914D01*
X103794914Y-52543847D01*
X103546000Y-53144778D01*
X83478689Y-53144778D01*
X83467729Y-53099389D01*
X83081426Y-52964960D01*
X83531894Y-52778371D01*
X83893371Y-52416894D01*
X84089000Y-51944602D01*
X84089000Y-51433398D01*
X83893371Y-50961106D01*
X83531894Y-50599629D01*
X83059602Y-50404000D01*
X82691239Y-50404000D01*
X83150086Y-49945153D01*
X83399000Y-49344222D01*
X83399000Y-48693778D01*
X83150086Y-48092847D01*
X82690153Y-47632914D01*
X82089222Y-47384000D01*
X81438778Y-47384000D01*
X80837847Y-47632914D01*
X80377914Y-48092847D01*
X80129000Y-48693778D01*
X80129000Y-49134000D01*
X80008398Y-49134000D01*
X79536106Y-49329629D01*
X79174629Y-49691106D01*
X79167714Y-49707800D01*
X70859841Y-49707800D01*
X70789799Y-49693868D01*
X70719757Y-49707800D01*
X70719753Y-49707800D01*
X70512303Y-49749064D01*
X70512301Y-49749065D01*
X70512302Y-49749065D01*
X70336434Y-49866576D01*
X70336432Y-49866578D01*
X70277053Y-49906254D01*
X70237377Y-49965633D01*
X66380754Y-53822257D01*
X66328724Y-53696646D01*
X66064354Y-53432276D01*
X65718938Y-53289200D01*
X65345062Y-53289200D01*
X64999646Y-53432276D01*
X64735276Y-53696646D01*
X64592200Y-54042062D01*
X64592200Y-54415938D01*
X64735276Y-54761354D01*
X64999646Y-55025724D01*
X65345062Y-55168800D01*
X65507019Y-55168800D01*
X65559303Y-55203735D01*
X65766753Y-55244999D01*
X65766757Y-55244999D01*
X65836799Y-55258931D01*
X65906841Y-55244999D01*
X66604959Y-55244999D01*
X66675000Y-55258931D01*
X66745041Y-55244999D01*
X66862277Y-55244999D01*
X67979876Y-56362599D01*
X65847495Y-56362599D01*
X65795324Y-56236646D01*
X65530954Y-55972276D01*
X65185538Y-55829200D01*
X64811662Y-55829200D01*
X64466246Y-55972276D01*
X64201876Y-56236646D01*
X64058800Y-56582062D01*
X64058800Y-56955938D01*
X64201876Y-57301354D01*
X64466246Y-57565724D01*
X64811662Y-57708800D01*
X64973619Y-57708800D01*
X65025903Y-57743735D01*
X65233353Y-57784999D01*
X65233357Y-57784999D01*
X65303399Y-57798931D01*
X65373441Y-57784999D01*
X67949812Y-57784999D01*
X68498401Y-58333589D01*
X68498401Y-58380514D01*
X67905678Y-58135000D01*
X67056322Y-58135000D01*
X66271620Y-58460034D01*
X65671034Y-59060620D01*
X65346000Y-59845322D01*
X65346000Y-60694678D01*
X65671034Y-61479380D01*
X66271620Y-62079966D01*
X67056322Y-62405000D01*
X67905678Y-62405000D01*
X68574183Y-62128096D01*
X68657177Y-62252305D01*
X68657180Y-62252308D01*
X68682312Y-62289920D01*
X68271620Y-62460034D01*
X67671034Y-63060620D01*
X67464681Y-63558800D01*
X64437589Y-63558800D01*
X59265515Y-58386726D01*
X59216936Y-58142504D01*
X59059746Y-57907254D01*
X58824496Y-57750064D01*
X58617046Y-57708800D01*
X58547000Y-57694867D01*
X58476954Y-57708800D01*
X55158589Y-57708800D01*
X50594567Y-53144778D01*
X56146000Y-53144778D01*
X56146000Y-53795222D01*
X56394914Y-54396153D01*
X56854847Y-54856086D01*
X57455778Y-55105000D01*
X58106222Y-55105000D01*
X58707153Y-54856086D01*
X59167086Y-54396153D01*
X59416000Y-53795222D01*
X59416000Y-53144778D01*
X59167086Y-52543847D01*
X58707153Y-52083914D01*
X58106222Y-51835000D01*
X57455778Y-51835000D01*
X56854847Y-52083914D01*
X56394914Y-52543847D01*
X56146000Y-53144778D01*
X50594567Y-53144778D01*
X44277496Y-46827708D01*
X44667540Y-46666147D01*
X45057147Y-46276540D01*
X45153000Y-46045130D01*
X45248853Y-46276540D01*
X45638460Y-46666147D01*
X46147506Y-46877000D01*
X46698494Y-46877000D01*
X47207540Y-46666147D01*
X47410170Y-46463517D01*
X48171088Y-46463517D01*
X48239077Y-46704460D01*
X48758171Y-46889201D01*
X49308448Y-46861230D01*
X49686923Y-46704460D01*
X49754912Y-46463517D01*
X48963000Y-45671605D01*
X48171088Y-46463517D01*
X47410170Y-46463517D01*
X47597147Y-46276540D01*
X47686397Y-46061070D01*
X47750540Y-46215923D01*
X47991483Y-46283912D01*
X48783395Y-45492000D01*
X49142605Y-45492000D01*
X49934517Y-46283912D01*
X50175460Y-46215923D01*
X50360201Y-45696829D01*
X50332230Y-45146552D01*
X50175460Y-44768077D01*
X49934517Y-44700088D01*
X49142605Y-45492000D01*
X48783395Y-45492000D01*
X47991483Y-44700088D01*
X47750540Y-44768077D01*
X47691255Y-44934658D01*
X47597147Y-44707460D01*
X47410170Y-44520483D01*
X48171088Y-44520483D01*
X48963000Y-45312395D01*
X49754912Y-44520483D01*
X49686923Y-44279540D01*
X49167829Y-44094799D01*
X48617552Y-44122770D01*
X48239077Y-44279540D01*
X48171088Y-44520483D01*
X47410170Y-44520483D01*
X47207540Y-44317853D01*
X46698494Y-44107000D01*
X46147506Y-44107000D01*
X45638460Y-44317853D01*
X45248853Y-44707460D01*
X45153000Y-44938870D01*
X45057147Y-44707460D01*
X44667540Y-44317853D01*
X44158494Y-44107000D01*
X43607506Y-44107000D01*
X43098460Y-44317853D01*
X42708853Y-44707460D01*
X42613000Y-44938870D01*
X42517147Y-44707460D01*
X42127540Y-44317853D01*
X41618494Y-44107000D01*
X41067506Y-44107000D01*
X40784200Y-44224349D01*
X40784200Y-44156525D01*
X40857540Y-44126147D01*
X41247147Y-43736540D01*
X41343000Y-43505130D01*
X41438853Y-43736540D01*
X41828460Y-44126147D01*
X42337506Y-44337000D01*
X42888494Y-44337000D01*
X43397540Y-44126147D01*
X43787147Y-43736540D01*
X43883000Y-43505130D01*
X43978853Y-43736540D01*
X44368460Y-44126147D01*
X44877506Y-44337000D01*
X45428494Y-44337000D01*
X45937540Y-44126147D01*
X46327147Y-43736540D01*
X46423000Y-43505130D01*
X46518853Y-43736540D01*
X46908460Y-44126147D01*
X47417506Y-44337000D01*
X47968494Y-44337000D01*
X48477540Y-44126147D01*
X48867147Y-43736540D01*
X48892240Y-43675958D01*
X55723647Y-43675958D01*
X55803920Y-43927259D01*
X56359279Y-44128718D01*
X56949458Y-44102315D01*
X57372080Y-43927259D01*
X57452353Y-43675958D01*
X56588000Y-42811605D01*
X55723647Y-43675958D01*
X48892240Y-43675958D01*
X49078000Y-43227494D01*
X49078000Y-42676506D01*
X49003091Y-42495659D01*
X50228946Y-42495659D01*
X50373467Y-42801444D01*
X51118993Y-43090571D01*
X51918414Y-43072389D01*
X52572533Y-42801444D01*
X52717054Y-42495659D01*
X52624674Y-42403279D01*
X55091282Y-42403279D01*
X55117685Y-42993458D01*
X55292741Y-43416080D01*
X55544042Y-43496353D01*
X56408395Y-42632000D01*
X55544042Y-41767647D01*
X55292741Y-41847920D01*
X55091282Y-42403279D01*
X52624674Y-42403279D01*
X51473000Y-41251605D01*
X50228946Y-42495659D01*
X49003091Y-42495659D01*
X48867147Y-42167460D01*
X48477540Y-41777853D01*
X47968494Y-41567000D01*
X47417506Y-41567000D01*
X46908460Y-41777853D01*
X46518853Y-42167460D01*
X46423000Y-42398870D01*
X46327147Y-42167460D01*
X45937540Y-41777853D01*
X45428494Y-41567000D01*
X44877506Y-41567000D01*
X44368460Y-41777853D01*
X43978853Y-42167460D01*
X43883000Y-42398870D01*
X43787147Y-42167460D01*
X43397540Y-41777853D01*
X42888494Y-41567000D01*
X42337506Y-41567000D01*
X41828460Y-41777853D01*
X41438853Y-42167460D01*
X41343000Y-42398870D01*
X41247147Y-42167460D01*
X40857540Y-41777853D01*
X40348494Y-41567000D01*
X39797506Y-41567000D01*
X39487015Y-41695609D01*
X39591571Y-41426007D01*
X39575468Y-40717993D01*
X49454429Y-40717993D01*
X49472611Y-41517414D01*
X49743556Y-42171533D01*
X50049341Y-42316054D01*
X51293395Y-41072000D01*
X51652605Y-41072000D01*
X52896659Y-42316054D01*
X53202444Y-42171533D01*
X53491571Y-41426007D01*
X53485884Y-41175958D01*
X55723647Y-41175958D01*
X55789463Y-41382000D01*
X55723647Y-41588042D01*
X56588000Y-42452395D01*
X57452353Y-41588042D01*
X57386537Y-41382000D01*
X57452353Y-41175958D01*
X56588000Y-40311605D01*
X55723647Y-41175958D01*
X53485884Y-41175958D01*
X53473389Y-40626586D01*
X53202444Y-39972467D01*
X53056053Y-39903279D01*
X55091282Y-39903279D01*
X55117685Y-40493458D01*
X55292741Y-40916080D01*
X55544042Y-40996353D01*
X56408395Y-40132000D01*
X56767605Y-40132000D01*
X57631958Y-40996353D01*
X57814519Y-40938037D01*
X57829078Y-40973185D01*
X58237893Y-41382000D01*
X57829078Y-41790815D01*
X57814519Y-41825963D01*
X57631958Y-41767647D01*
X56767605Y-42632000D01*
X57631958Y-43496353D01*
X57814519Y-43438037D01*
X57829078Y-43473185D01*
X58246815Y-43890922D01*
X58792615Y-44117000D01*
X59383385Y-44117000D01*
X59929185Y-43890922D01*
X60144149Y-43675958D01*
X60723647Y-43675958D01*
X60803920Y-43927259D01*
X61359279Y-44128718D01*
X61949458Y-44102315D01*
X62372080Y-43927259D01*
X62452353Y-43675958D01*
X61588000Y-42811605D01*
X60723647Y-43675958D01*
X60144149Y-43675958D01*
X60346922Y-43473185D01*
X60361481Y-43438037D01*
X60544042Y-43496353D01*
X61408395Y-42632000D01*
X61394253Y-42617858D01*
X61573858Y-42438253D01*
X61588000Y-42452395D01*
X62452353Y-41588042D01*
X62386537Y-41382000D01*
X62452353Y-41175958D01*
X61588000Y-40311605D01*
X61573858Y-40325748D01*
X61394253Y-40146143D01*
X61408395Y-40132000D01*
X61394253Y-40117858D01*
X61573858Y-39938253D01*
X61588000Y-39952395D01*
X61602143Y-39938253D01*
X61781748Y-40117858D01*
X61767605Y-40132000D01*
X62631958Y-40996353D01*
X62814519Y-40938037D01*
X62829078Y-40973185D01*
X63237893Y-41382000D01*
X62829078Y-41790815D01*
X62814519Y-41825963D01*
X62631958Y-41767647D01*
X61767605Y-42632000D01*
X62631958Y-43496353D01*
X62814519Y-43438037D01*
X62829078Y-43473185D01*
X63246815Y-43890922D01*
X63792615Y-44117000D01*
X64383385Y-44117000D01*
X64929185Y-43890922D01*
X65144149Y-43675958D01*
X65723647Y-43675958D01*
X65803920Y-43927259D01*
X66359279Y-44128718D01*
X66949458Y-44102315D01*
X67372080Y-43927259D01*
X67452353Y-43675958D01*
X66588000Y-42811605D01*
X65723647Y-43675958D01*
X65144149Y-43675958D01*
X65346922Y-43473185D01*
X65361481Y-43438037D01*
X65544042Y-43496353D01*
X66408395Y-42632000D01*
X65544042Y-41767647D01*
X65361481Y-41825963D01*
X65346922Y-41790815D01*
X64938107Y-41382000D01*
X65338000Y-40982107D01*
X65746815Y-41390922D01*
X65781963Y-41405481D01*
X65723647Y-41588042D01*
X66588000Y-42452395D01*
X67452353Y-41588042D01*
X67394037Y-41405481D01*
X67429185Y-41390922D01*
X67693240Y-41126867D01*
X67853414Y-41366586D01*
X68093133Y-41526760D01*
X67829078Y-41790815D01*
X67814519Y-41825963D01*
X67631958Y-41767647D01*
X66767605Y-42632000D01*
X67631958Y-43496353D01*
X67814519Y-43438037D01*
X67829078Y-43473185D01*
X68246815Y-43890922D01*
X68792615Y-44117000D01*
X69383385Y-44117000D01*
X69928514Y-43891200D01*
X72023457Y-43891200D01*
X71984646Y-43907276D01*
X71720276Y-44171646D01*
X71577200Y-44517062D01*
X71577200Y-44890938D01*
X71720276Y-45236354D01*
X71984646Y-45500724D01*
X72330062Y-45643800D01*
X72492019Y-45643800D01*
X72544303Y-45678735D01*
X72751753Y-45719999D01*
X72751757Y-45719999D01*
X72821799Y-45733931D01*
X72891841Y-45719999D01*
X82440122Y-45719999D01*
X82525646Y-45805523D01*
X82871062Y-45948599D01*
X83244938Y-45948599D01*
X83590354Y-45805523D01*
X83854724Y-45541153D01*
X83997800Y-45195737D01*
X83997800Y-44821861D01*
X83854724Y-44476445D01*
X83590354Y-44212075D01*
X83244938Y-44068999D01*
X82871062Y-44068999D01*
X82525646Y-44212075D01*
X82440122Y-44297599D01*
X73365895Y-44297599D01*
X73313724Y-44171646D01*
X73049354Y-43907276D01*
X73010543Y-43891200D01*
X77106122Y-43891200D01*
X77191646Y-43976724D01*
X77537062Y-44119800D01*
X77910938Y-44119800D01*
X78256354Y-43976724D01*
X78520724Y-43712354D01*
X78663800Y-43366938D01*
X78663800Y-42993062D01*
X78520724Y-42647646D01*
X78256354Y-42383276D01*
X77910938Y-42240200D01*
X77537062Y-42240200D01*
X77191646Y-42383276D01*
X77106122Y-42468800D01*
X70573000Y-42468800D01*
X70573000Y-42336615D01*
X70346922Y-41790815D01*
X70082867Y-41526760D01*
X70322586Y-41366586D01*
X70517126Y-41075435D01*
X70585440Y-40732000D01*
X70585440Y-39532000D01*
X70517126Y-39188565D01*
X70322586Y-38897414D01*
X70031435Y-38702874D01*
X69688000Y-38634560D01*
X68488000Y-38634560D01*
X68144565Y-38702874D01*
X67853414Y-38897414D01*
X67693240Y-39137133D01*
X67429185Y-38873078D01*
X66883385Y-38647000D01*
X66292615Y-38647000D01*
X65746815Y-38873078D01*
X65338000Y-39281893D01*
X64929185Y-38873078D01*
X64383385Y-38647000D01*
X64123000Y-38647000D01*
X64123000Y-38536398D01*
X63927371Y-38064106D01*
X63565894Y-37702629D01*
X63225166Y-37561495D01*
X63448662Y-37337999D01*
X66300160Y-37337999D01*
X66370201Y-37351931D01*
X66440242Y-37337999D01*
X66440247Y-37337999D01*
X66647697Y-37296735D01*
X66699981Y-37261800D01*
X66861938Y-37261800D01*
X67207354Y-37118724D01*
X67471724Y-36854354D01*
X67614800Y-36508938D01*
X67614800Y-36135062D01*
X67471724Y-35789646D01*
X67207354Y-35525276D01*
X66861938Y-35382200D01*
X66488062Y-35382200D01*
X66142646Y-35525276D01*
X65878276Y-35789646D01*
X65826105Y-35915599D01*
X63224114Y-35915599D01*
X63154072Y-35901667D01*
X63084030Y-35915599D01*
X63084027Y-35915599D01*
X62876577Y-35956863D01*
X62876576Y-35956864D01*
X62876575Y-35956864D01*
X62700708Y-36074375D01*
X62700706Y-36074377D01*
X62641327Y-36114053D01*
X62601651Y-36173432D01*
X59909966Y-38865117D01*
X59383385Y-38647000D01*
X58792615Y-38647000D01*
X58246815Y-38873078D01*
X57829078Y-39290815D01*
X57814519Y-39325963D01*
X57631958Y-39267647D01*
X56767605Y-40132000D01*
X56408395Y-40132000D01*
X55544042Y-39267647D01*
X55292741Y-39347920D01*
X55091282Y-39903279D01*
X53056053Y-39903279D01*
X52896659Y-39827946D01*
X51652605Y-41072000D01*
X51293395Y-41072000D01*
X50049341Y-39827946D01*
X49743556Y-39972467D01*
X49454429Y-40717993D01*
X39575468Y-40717993D01*
X39573389Y-40626586D01*
X39302444Y-39972467D01*
X38996659Y-39827946D01*
X37752605Y-41072000D01*
X37766748Y-41086143D01*
X37587143Y-41265748D01*
X37573000Y-41251605D01*
X36328946Y-42495659D01*
X34669860Y-42495659D01*
X34483019Y-40717993D01*
X35554429Y-40717993D01*
X35572611Y-41517414D01*
X35843556Y-42171533D01*
X36149341Y-42316054D01*
X37393395Y-41072000D01*
X36149341Y-39827946D01*
X35843556Y-39972467D01*
X35554429Y-40717993D01*
X34483019Y-40717993D01*
X34370594Y-39648341D01*
X36328946Y-39648341D01*
X37573000Y-40892395D01*
X38817054Y-39648341D01*
X50228946Y-39648341D01*
X51473000Y-40892395D01*
X52717054Y-39648341D01*
X52572533Y-39342556D01*
X51916259Y-39088042D01*
X55723647Y-39088042D01*
X56588000Y-39952395D01*
X57452353Y-39088042D01*
X57372080Y-38836741D01*
X56816721Y-38635282D01*
X56226542Y-38661685D01*
X55803920Y-38836741D01*
X55723647Y-39088042D01*
X51916259Y-39088042D01*
X51827007Y-39053429D01*
X51027586Y-39071611D01*
X50373467Y-39342556D01*
X50228946Y-39648341D01*
X38817054Y-39648341D01*
X38672533Y-39342556D01*
X37927007Y-39053429D01*
X37127586Y-39071611D01*
X36473467Y-39342556D01*
X36328946Y-39648341D01*
X34370594Y-39648341D01*
X34097012Y-37045390D01*
X34107433Y-36547891D01*
X34228714Y-36113514D01*
X34267400Y-36046506D01*
X36588000Y-36046506D01*
X36588000Y-36597494D01*
X36798853Y-37106540D01*
X37188460Y-37496147D01*
X37697506Y-37707000D01*
X38248494Y-37707000D01*
X38757540Y-37496147D01*
X38960170Y-37293517D01*
X39721088Y-37293517D01*
X39789077Y-37534460D01*
X40308171Y-37719201D01*
X40858448Y-37691230D01*
X41236923Y-37534460D01*
X41304912Y-37293517D01*
X40513000Y-36501605D01*
X39721088Y-37293517D01*
X38960170Y-37293517D01*
X39147147Y-37106540D01*
X39236397Y-36891070D01*
X39300540Y-37045923D01*
X39541483Y-37113912D01*
X40333395Y-36322000D01*
X40692605Y-36322000D01*
X41484517Y-37113912D01*
X41725460Y-37045923D01*
X41910201Y-36526829D01*
X41885786Y-36046506D01*
X47148000Y-36046506D01*
X47148000Y-36597494D01*
X47358853Y-37106540D01*
X47748460Y-37496147D01*
X48257506Y-37707000D01*
X48808494Y-37707000D01*
X49317540Y-37496147D01*
X49520170Y-37293517D01*
X50281088Y-37293517D01*
X50349077Y-37534460D01*
X50868171Y-37719201D01*
X51418448Y-37691230D01*
X51796923Y-37534460D01*
X51864912Y-37293517D01*
X51073000Y-36501605D01*
X50281088Y-37293517D01*
X49520170Y-37293517D01*
X49707147Y-37106540D01*
X49796397Y-36891070D01*
X49860540Y-37045923D01*
X50101483Y-37113912D01*
X50893395Y-36322000D01*
X51252605Y-36322000D01*
X52044517Y-37113912D01*
X52285460Y-37045923D01*
X52470201Y-36526829D01*
X52442230Y-35976552D01*
X52285460Y-35598077D01*
X52044517Y-35530088D01*
X51252605Y-36322000D01*
X50893395Y-36322000D01*
X50101483Y-35530088D01*
X49860540Y-35598077D01*
X49801255Y-35764658D01*
X49707147Y-35537460D01*
X49520170Y-35350483D01*
X50281088Y-35350483D01*
X51073000Y-36142395D01*
X51864912Y-35350483D01*
X51796923Y-35109540D01*
X51277829Y-34924799D01*
X50727552Y-34952770D01*
X50349077Y-35109540D01*
X50281088Y-35350483D01*
X49520170Y-35350483D01*
X49317540Y-35147853D01*
X48808494Y-34937000D01*
X48257506Y-34937000D01*
X47748460Y-35147853D01*
X47358853Y-35537460D01*
X47148000Y-36046506D01*
X41885786Y-36046506D01*
X41882230Y-35976552D01*
X41725460Y-35598077D01*
X41484517Y-35530088D01*
X40692605Y-36322000D01*
X40333395Y-36322000D01*
X39541483Y-35530088D01*
X39300540Y-35598077D01*
X39241255Y-35764658D01*
X39147147Y-35537460D01*
X38960170Y-35350483D01*
X39721088Y-35350483D01*
X40513000Y-36142395D01*
X41304912Y-35350483D01*
X41236923Y-35109540D01*
X40717829Y-34924799D01*
X40167552Y-34952770D01*
X39789077Y-35109540D01*
X39721088Y-35350483D01*
X38960170Y-35350483D01*
X38757540Y-35147853D01*
X38248494Y-34937000D01*
X37697506Y-34937000D01*
X37188460Y-35147853D01*
X36798853Y-35537460D01*
X36588000Y-36046506D01*
X34267400Y-36046506D01*
X34454208Y-35722946D01*
X34790861Y-35379167D01*
X34920419Y-35285548D01*
X35563301Y-34830184D01*
X35576632Y-34819519D01*
X35617437Y-34787905D01*
X36619418Y-33927068D01*
X36623573Y-33923054D01*
X36628116Y-33919476D01*
X36681191Y-33867379D01*
X37575894Y-32895519D01*
X37579555Y-32891043D01*
X37583646Y-32886964D01*
X37630281Y-32829030D01*
X38390993Y-31779422D01*
X38723177Y-31380481D01*
X39088880Y-31116563D01*
X39508725Y-30951883D01*
X39986292Y-30893101D01*
X40132904Y-30900094D01*
X40132904Y-30900094D01*
G37*
X40132904Y-30900094D02*
X104645833Y-36860605D01*
X105131673Y-36968124D01*
X105533944Y-37172020D01*
X105872864Y-37469546D01*
X106144160Y-37866934D01*
X106212009Y-38015309D01*
X106212720Y-38016456D01*
X106214024Y-38019677D01*
X106700204Y-39064760D01*
X106701645Y-39067436D01*
X106702785Y-39070248D01*
X106738067Y-39135717D01*
X107422786Y-40265393D01*
X107426069Y-40270157D01*
X107428848Y-40275218D01*
X107471528Y-40336124D01*
X108283370Y-41378198D01*
X108287183Y-41382542D01*
X108290537Y-41387250D01*
X108340031Y-41442760D01*
X109267909Y-42382999D01*
X109272201Y-42386867D01*
X109276083Y-42391153D01*
X109331716Y-42440510D01*
X110362955Y-43266071D01*
X110367671Y-43269413D01*
X110372024Y-43273215D01*
X110433035Y-43315744D01*
X111553550Y-44015352D01*
X111558631Y-44018125D01*
X111563392Y-44021389D01*
X111628948Y-44056510D01*
X112823435Y-44620609D01*
X112828800Y-44622769D01*
X112833914Y-44625457D01*
X112903120Y-44652689D01*
X114155264Y-45073573D01*
X114160840Y-45075091D01*
X114166235Y-45077165D01*
X114238146Y-45096137D01*
X115530842Y-45368059D01*
X115536557Y-45368916D01*
X115542159Y-45370347D01*
X115615792Y-45380799D01*
X116906786Y-45497814D01*
X117419485Y-45579285D01*
X117833294Y-45758606D01*
X118189503Y-46035200D01*
X118482728Y-46413620D01*
X118564099Y-46568966D01*
X132398400Y-76617486D01*
X132548208Y-77091999D01*
X132572764Y-77542323D01*
X132484560Y-77984596D01*
X132275458Y-78419489D01*
X132191507Y-78538441D01*
X132190027Y-78541223D01*
X132178972Y-78555863D01*
X131451162Y-79628543D01*
X131131501Y-80037591D01*
X130774153Y-80312717D01*
X130359612Y-80490332D01*
X129875114Y-80565277D01*
X129835076Y-80565595D01*
X118584738Y-80431501D01*
X118966086Y-80050153D01*
X119215000Y-79449222D01*
X119215000Y-79009000D01*
X119635602Y-79009000D01*
X120107894Y-78813371D01*
X120469371Y-78451894D01*
X120665000Y-77979602D01*
X120665000Y-77468398D01*
X120469371Y-76996106D01*
X120107894Y-76634629D01*
X119671815Y-76454000D01*
X120107894Y-76273371D01*
X120469371Y-75911894D01*
X120665000Y-75439602D01*
X120665000Y-74928398D01*
X120469371Y-74456106D01*
X120107894Y-74094629D01*
X119671815Y-73914000D01*
X120107894Y-73733371D01*
X120469371Y-73371894D01*
X120665000Y-72899602D01*
X120665000Y-72388398D01*
X120469371Y-71916106D01*
X120107894Y-71554629D01*
X119671815Y-71374000D01*
X120107894Y-71193371D01*
X120469371Y-70831894D01*
X120665000Y-70359602D01*
X120665000Y-69848398D01*
X120469371Y-69376106D01*
X120107894Y-69014629D01*
X119671815Y-68834000D01*
X120107894Y-68653371D01*
X120469371Y-68291894D01*
X120665000Y-67819602D01*
X120665000Y-67308398D01*
X120469371Y-66836106D01*
X120107894Y-66474629D01*
X119635602Y-66279000D01*
X119124398Y-66279000D01*
X118652106Y-66474629D01*
X118290629Y-66836106D01*
X118095000Y-67308398D01*
X118095000Y-67819602D01*
X118290629Y-68291894D01*
X118652106Y-68653371D01*
X119088185Y-68834000D01*
X118652106Y-69014629D01*
X118290629Y-69376106D01*
X118095000Y-69848398D01*
X118095000Y-70359602D01*
X118290629Y-70831894D01*
X118652106Y-71193371D01*
X119088185Y-71374000D01*
X118652106Y-71554629D01*
X118290629Y-71916106D01*
X118095000Y-72388398D01*
X118095000Y-72899602D01*
X118290629Y-73371894D01*
X118652106Y-73733371D01*
X119088185Y-73914000D01*
X118652106Y-74094629D01*
X118290629Y-74456106D01*
X118095000Y-74928398D01*
X118095000Y-75439602D01*
X118290629Y-75911894D01*
X118652106Y-76273371D01*
X119088185Y-76454000D01*
X118652106Y-76634629D01*
X118290629Y-76996106D01*
X118095000Y-77468398D01*
X118095000Y-77567609D01*
X117905222Y-77489000D01*
X117622265Y-77489000D01*
X117929371Y-77181894D01*
X118125000Y-76709602D01*
X118125000Y-76198398D01*
X117929371Y-75726106D01*
X117567894Y-75364629D01*
X117131815Y-75184000D01*
X117567894Y-75003371D01*
X117929371Y-74641894D01*
X118125000Y-74169602D01*
X118125000Y-73658398D01*
X117929371Y-73186106D01*
X117567894Y-72824629D01*
X117131815Y-72644000D01*
X117567894Y-72463371D01*
X117929371Y-72101894D01*
X118125000Y-71629602D01*
X118125000Y-71118398D01*
X117929371Y-70646106D01*
X117567894Y-70284629D01*
X117131815Y-70104000D01*
X117567894Y-69923371D01*
X117929371Y-69561894D01*
X118125000Y-69089602D01*
X118125000Y-68578398D01*
X117929371Y-68106106D01*
X117567894Y-67744629D01*
X117131815Y-67564000D01*
X117567894Y-67383371D01*
X117929371Y-67021894D01*
X118125000Y-66549602D01*
X118125000Y-66038398D01*
X117929371Y-65566106D01*
X117567894Y-65204629D01*
X117095602Y-65009000D01*
X116584398Y-65009000D01*
X116112106Y-65204629D01*
X115750629Y-65566106D01*
X115555000Y-66038398D01*
X115555000Y-66549602D01*
X115750629Y-67021894D01*
X116112106Y-67383371D01*
X116548185Y-67564000D01*
X116112106Y-67744629D01*
X115750629Y-68106106D01*
X115555000Y-68578398D01*
X115555000Y-69089602D01*
X115750629Y-69561894D01*
X116112106Y-69923371D01*
X116548185Y-70104000D01*
X116112106Y-70284629D01*
X115750629Y-70646106D01*
X115555000Y-71118398D01*
X115555000Y-71629602D01*
X115750629Y-72101894D01*
X116112106Y-72463371D01*
X116548185Y-72644000D01*
X116112106Y-72824629D01*
X115750629Y-73186106D01*
X115555000Y-73658398D01*
X115555000Y-74169602D01*
X115750629Y-74641894D01*
X116112106Y-75003371D01*
X116548185Y-75184000D01*
X116112106Y-75364629D01*
X115750629Y-75726106D01*
X115555000Y-76198398D01*
X115555000Y-76709602D01*
X115750629Y-77181894D01*
X116112106Y-77543371D01*
X116584398Y-77739000D01*
X116652761Y-77739000D01*
X116193914Y-78197847D01*
X115945000Y-78798778D01*
X115945000Y-79449222D01*
X116193914Y-80050153D01*
X116551022Y-80407261D01*
X46602413Y-79573536D01*
X46109511Y-79505291D01*
X45692199Y-79334284D01*
X45330528Y-79064870D01*
X45022549Y-78683423D01*
X44998459Y-78642654D01*
X44995128Y-78638356D01*
X44986818Y-78623619D01*
X44380060Y-77664490D01*
X44378457Y-77662256D01*
X44377109Y-77659864D01*
X44333768Y-77599427D01*
X43510610Y-76566269D01*
X43506746Y-76561962D01*
X43503344Y-76557296D01*
X43453248Y-76502329D01*
X42515172Y-75572264D01*
X42510833Y-75568438D01*
X42506909Y-75564200D01*
X42450742Y-75515453D01*
X42115161Y-75252756D01*
X62493120Y-75252756D01*
X62548801Y-75483351D01*
X63031608Y-75651362D01*
X63541958Y-75621823D01*
X63876259Y-75483351D01*
X63931940Y-75252756D01*
X63212530Y-74533345D01*
X62493120Y-75252756D01*
X42115161Y-75252756D01*
X41410560Y-74701187D01*
X41405807Y-74697895D01*
X41401413Y-74694142D01*
X41339942Y-74652280D01*
X40211863Y-73964934D01*
X40206751Y-73962216D01*
X40201956Y-73959005D01*
X40136021Y-73924601D01*
X38957908Y-73383869D01*
X38501694Y-73136120D01*
X38171351Y-72829102D01*
X37927739Y-72449573D01*
X37776689Y-71992730D01*
X37754863Y-71847518D01*
X37691513Y-71244778D01*
X54646000Y-71244778D01*
X54646000Y-71895222D01*
X54894914Y-72496153D01*
X55354847Y-72956086D01*
X55955778Y-73205000D01*
X56606222Y-73205000D01*
X57207153Y-72956086D01*
X57667086Y-72496153D01*
X57916000Y-71895222D01*
X57916000Y-71244778D01*
X57667086Y-70643847D01*
X57207153Y-70183914D01*
X56606222Y-69935000D01*
X55955778Y-69935000D01*
X55354847Y-70183914D01*
X54894914Y-70643847D01*
X54646000Y-71244778D01*
X37691513Y-71244778D01*
X34669860Y-42495659D01*
X36328946Y-42495659D01*
X36473467Y-42801444D01*
X37218993Y-43090571D01*
X38018414Y-43072389D01*
X38672533Y-42801444D01*
X38688000Y-42768718D01*
X38688000Y-43227494D01*
X38898853Y-43736540D01*
X39288460Y-44126147D01*
X39361801Y-44156526D01*
X39361800Y-45600288D01*
X39347868Y-45670330D01*
X39361800Y-45740371D01*
X39361800Y-45740375D01*
X39403064Y-45947825D01*
X39427756Y-45984779D01*
X39520576Y-46123694D01*
X39520578Y-46123696D01*
X39560254Y-46183075D01*
X39619634Y-46222752D01*
X40332248Y-46935367D01*
X40371924Y-46994746D01*
X40431303Y-47034422D01*
X40431305Y-47034424D01*
X40547006Y-47111733D01*
X40607174Y-47151936D01*
X40814624Y-47193200D01*
X40814628Y-47193200D01*
X40884670Y-47207132D01*
X40954712Y-47193200D01*
X42038412Y-47193200D01*
X54353578Y-59508367D01*
X54393254Y-59567746D01*
X54452633Y-59607422D01*
X54452635Y-59607424D01*
X54628502Y-59724935D01*
X54628503Y-59724935D01*
X54628504Y-59724936D01*
X54835954Y-59766200D01*
X54835957Y-59766200D01*
X54905999Y-59780132D01*
X54976041Y-59766200D01*
X57971412Y-59766200D01*
X60915212Y-62710000D01*
X60571240Y-62710000D01*
X59814104Y-63023616D01*
X59234616Y-63603104D01*
X58921000Y-64360240D01*
X58921000Y-65179760D01*
X59234616Y-65936896D01*
X59814104Y-66516384D01*
X60571240Y-66830000D01*
X61390760Y-66830000D01*
X62147896Y-66516384D01*
X62727384Y-65936896D01*
X63041000Y-65179760D01*
X63041000Y-64835789D01*
X65552353Y-67347142D01*
X65346000Y-67845322D01*
X65346000Y-68694678D01*
X65671034Y-69479380D01*
X66271620Y-70079966D01*
X66769800Y-70286319D01*
X66769800Y-70528740D01*
X66766928Y-70528740D01*
X66294636Y-70724369D01*
X65933159Y-71085846D01*
X65752530Y-71521925D01*
X65571901Y-71085846D01*
X65210424Y-70724369D01*
X64738132Y-70528740D01*
X64226928Y-70528740D01*
X63754636Y-70724369D01*
X63393159Y-71085846D01*
X63197530Y-71558138D01*
X63197530Y-71626501D01*
X62738683Y-71167654D01*
X62137752Y-70918740D01*
X61487308Y-70918740D01*
X60886377Y-71167654D01*
X60426444Y-71627587D01*
X60177530Y-72228518D01*
X60177530Y-72878962D01*
X60426444Y-73479893D01*
X60886377Y-73939826D01*
X61487308Y-74188740D01*
X61915830Y-74188740D01*
X61944447Y-74683168D01*
X62082919Y-75017469D01*
X62313514Y-75073150D01*
X63032925Y-74353740D01*
X63018783Y-74339598D01*
X63198388Y-74159993D01*
X63212530Y-74174135D01*
X63931940Y-73454724D01*
X63876259Y-73224129D01*
X63393452Y-73056118D01*
X63373675Y-73057263D01*
X63447530Y-72878962D01*
X63447530Y-72596005D01*
X63754636Y-72903111D01*
X64226928Y-73098740D01*
X64738132Y-73098740D01*
X65210424Y-72903111D01*
X65571901Y-72541634D01*
X65752530Y-72105555D01*
X65933159Y-72541634D01*
X66294636Y-72903111D01*
X66766928Y-73098740D01*
X67278132Y-73098740D01*
X67750424Y-72903111D01*
X68063268Y-72590267D01*
X68541742Y-73068740D01*
X68036928Y-73068740D01*
X67564636Y-73264369D01*
X67203159Y-73625846D01*
X67022530Y-74061925D01*
X66841901Y-73625846D01*
X66480424Y-73264369D01*
X66008132Y-73068740D01*
X65496928Y-73068740D01*
X65024636Y-73264369D01*
X64663159Y-73625846D01*
X64482758Y-74061374D01*
X64480613Y-74024312D01*
X64342141Y-73690011D01*
X64111546Y-73634330D01*
X63392135Y-74353740D01*
X64111546Y-75073150D01*
X64342141Y-75017469D01*
X64476570Y-74631166D01*
X64663159Y-75081634D01*
X65024636Y-75443111D01*
X65496928Y-75638740D01*
X66008132Y-75638740D01*
X66480424Y-75443111D01*
X66841901Y-75081634D01*
X67022530Y-74645555D01*
X67203159Y-75081634D01*
X67564636Y-75443111D01*
X68036928Y-75638740D01*
X68548132Y-75638740D01*
X69020424Y-75443111D01*
X69381901Y-75081634D01*
X69562530Y-74645555D01*
X69743159Y-75081634D01*
X70104636Y-75443111D01*
X70576928Y-75638740D01*
X71088132Y-75638740D01*
X71560424Y-75443111D01*
X71921901Y-75081634D01*
X72102530Y-74645555D01*
X72283159Y-75081634D01*
X72644636Y-75443111D01*
X73116928Y-75638740D01*
X73628132Y-75638740D01*
X74100424Y-75443111D01*
X74461901Y-75081634D01*
X74642530Y-74645555D01*
X74823159Y-75081634D01*
X75184636Y-75443111D01*
X75656928Y-75638740D01*
X76168132Y-75638740D01*
X76640424Y-75443111D01*
X77001901Y-75081634D01*
X77182530Y-74645555D01*
X77363159Y-75081634D01*
X77724636Y-75443111D01*
X78196928Y-75638740D01*
X78708132Y-75638740D01*
X79180424Y-75443111D01*
X79541901Y-75081634D01*
X79722530Y-74645555D01*
X79903159Y-75081634D01*
X80264636Y-75443111D01*
X80736928Y-75638740D01*
X81248132Y-75638740D01*
X81720424Y-75443111D01*
X82081901Y-75081634D01*
X82262530Y-74645555D01*
X82443159Y-75081634D01*
X82804636Y-75443111D01*
X83276928Y-75638740D01*
X83788132Y-75638740D01*
X84260424Y-75443111D01*
X84621901Y-75081634D01*
X84802530Y-74645555D01*
X84983159Y-75081634D01*
X85344636Y-75443111D01*
X85816928Y-75638740D01*
X86328132Y-75638740D01*
X86800424Y-75443111D01*
X87161901Y-75081634D01*
X87357530Y-74609342D01*
X87357530Y-74098138D01*
X87161901Y-73625846D01*
X86800424Y-73264369D01*
X86328132Y-73068740D01*
X85816928Y-73068740D01*
X85344636Y-73264369D01*
X84983159Y-73625846D01*
X84802530Y-74061925D01*
X84621901Y-73625846D01*
X84260424Y-73264369D01*
X83788132Y-73068740D01*
X83276928Y-73068740D01*
X82804636Y-73264369D01*
X82443159Y-73625846D01*
X82262530Y-74061925D01*
X82081901Y-73625846D01*
X81720424Y-73264369D01*
X81248132Y-73068740D01*
X80736928Y-73068740D01*
X80264636Y-73264369D01*
X79903159Y-73625846D01*
X79722530Y-74061925D01*
X79541901Y-73625846D01*
X79180424Y-73264369D01*
X78708132Y-73068740D01*
X78196928Y-73068740D01*
X77724636Y-73264369D01*
X77363159Y-73625846D01*
X77182530Y-74061925D01*
X77001901Y-73625846D01*
X76640424Y-73264369D01*
X76168132Y-73068740D01*
X75656928Y-73068740D01*
X75184636Y-73264369D01*
X74823159Y-73625846D01*
X74642530Y-74061925D01*
X74461901Y-73625846D01*
X74100424Y-73264369D01*
X73628132Y-73068740D01*
X73116928Y-73068740D01*
X72644636Y-73264369D01*
X72283159Y-73625846D01*
X72102530Y-74061925D01*
X71921901Y-73625846D01*
X71560424Y-73264369D01*
X71088132Y-73068740D01*
X70576928Y-73068740D01*
X70560234Y-73075655D01*
X70339057Y-72854478D01*
X70651901Y-72541634D01*
X70832530Y-72105555D01*
X71013159Y-72541634D01*
X71374636Y-72903111D01*
X71846928Y-73098740D01*
X72358132Y-73098740D01*
X72830424Y-72903111D01*
X73191901Y-72541634D01*
X73372530Y-72105555D01*
X73553159Y-72541634D01*
X73914636Y-72903111D01*
X74386928Y-73098740D01*
X74898132Y-73098740D01*
X75370424Y-72903111D01*
X75731901Y-72541634D01*
X75912530Y-72105555D01*
X76093159Y-72541634D01*
X76454636Y-72903111D01*
X76926928Y-73098740D01*
X77438132Y-73098740D01*
X77910424Y-72903111D01*
X78271901Y-72541634D01*
X78452530Y-72105555D01*
X78633159Y-72541634D01*
X78994636Y-72903111D01*
X79466928Y-73098740D01*
X79978132Y-73098740D01*
X80450424Y-72903111D01*
X80811901Y-72541634D01*
X80992530Y-72105555D01*
X81173159Y-72541634D01*
X81534636Y-72903111D01*
X82006928Y-73098740D01*
X82518132Y-73098740D01*
X82990424Y-72903111D01*
X83351901Y-72541634D01*
X83532530Y-72105555D01*
X83713159Y-72541634D01*
X84074636Y-72903111D01*
X84546928Y-73098740D01*
X85058132Y-73098740D01*
X85530424Y-72903111D01*
X85891901Y-72541634D01*
X86072530Y-72105555D01*
X86253159Y-72541634D01*
X86614636Y-72903111D01*
X87086928Y-73098740D01*
X87598132Y-73098740D01*
X88070424Y-72903111D01*
X88431901Y-72541634D01*
X88627530Y-72069342D01*
X88627530Y-71558138D01*
X88497733Y-71244778D01*
X105046000Y-71244778D01*
X105046000Y-71895222D01*
X105294914Y-72496153D01*
X105754847Y-72956086D01*
X106355778Y-73205000D01*
X107006222Y-73205000D01*
X107607153Y-72956086D01*
X108067086Y-72496153D01*
X108316000Y-71895222D01*
X108316000Y-71244778D01*
X108067086Y-70643847D01*
X107607153Y-70183914D01*
X107006222Y-69935000D01*
X106355778Y-69935000D01*
X105754847Y-70183914D01*
X105294914Y-70643847D01*
X105046000Y-71244778D01*
X88497733Y-71244778D01*
X88431901Y-71085846D01*
X88070424Y-70724369D01*
X87598132Y-70528740D01*
X87086928Y-70528740D01*
X86614636Y-70724369D01*
X86253159Y-71085846D01*
X86072530Y-71521925D01*
X85891901Y-71085846D01*
X85530424Y-70724369D01*
X85058132Y-70528740D01*
X84546928Y-70528740D01*
X84074636Y-70724369D01*
X83713159Y-71085846D01*
X83532530Y-71521925D01*
X83351901Y-71085846D01*
X82990424Y-70724369D01*
X82518132Y-70528740D01*
X82006928Y-70528740D01*
X81534636Y-70724369D01*
X81173159Y-71085846D01*
X80992530Y-71521925D01*
X80811901Y-71085846D01*
X80450424Y-70724369D01*
X79978132Y-70528740D01*
X79466928Y-70528740D01*
X78994636Y-70724369D01*
X78633159Y-71085846D01*
X78452530Y-71521925D01*
X78271901Y-71085846D01*
X78058827Y-70872772D01*
X78681752Y-70249848D01*
X79056322Y-70405000D01*
X79905678Y-70405000D01*
X80690380Y-70079966D01*
X81290966Y-69479380D01*
X81481000Y-69020597D01*
X81671034Y-69479380D01*
X82271620Y-70079966D01*
X83056322Y-70405000D01*
X83905678Y-70405000D01*
X84690380Y-70079966D01*
X85290966Y-69479380D01*
X85481000Y-69020597D01*
X85671034Y-69479380D01*
X86271620Y-70079966D01*
X87056322Y-70405000D01*
X87905678Y-70405000D01*
X88690380Y-70079966D01*
X89290966Y-69479380D01*
X89481000Y-69020597D01*
X89671034Y-69479380D01*
X90271620Y-70079966D01*
X91056322Y-70405000D01*
X91905678Y-70405000D01*
X92690380Y-70079966D01*
X93290966Y-69479380D01*
X93481000Y-69020597D01*
X93671034Y-69479380D01*
X94271620Y-70079966D01*
X95056322Y-70405000D01*
X95905678Y-70405000D01*
X96690380Y-70079966D01*
X97290966Y-69479380D01*
X97616000Y-68694678D01*
X97616000Y-67845322D01*
X97290966Y-67060620D01*
X96690380Y-66460034D01*
X95905678Y-66135000D01*
X95056322Y-66135000D01*
X94271620Y-66460034D01*
X93671034Y-67060620D01*
X93481000Y-67519403D01*
X93290966Y-67060620D01*
X92690380Y-66460034D01*
X91905678Y-66135000D01*
X91056322Y-66135000D01*
X90271620Y-66460034D01*
X89671034Y-67060620D01*
X89481000Y-67519403D01*
X89290966Y-67060620D01*
X88690380Y-66460034D01*
X87905678Y-66135000D01*
X87056322Y-66135000D01*
X86271620Y-66460034D01*
X85671034Y-67060620D01*
X85481000Y-67519403D01*
X85290966Y-67060620D01*
X84690380Y-66460034D01*
X83905678Y-66135000D01*
X83056322Y-66135000D01*
X82271620Y-66460034D01*
X81671034Y-67060620D01*
X81481000Y-67519403D01*
X81290966Y-67060620D01*
X80690380Y-66460034D01*
X79905678Y-66135000D01*
X79056322Y-66135000D01*
X78271620Y-66460034D01*
X77671034Y-67060620D01*
X77481000Y-67519403D01*
X77290966Y-67060620D01*
X76690380Y-66460034D01*
X75905678Y-66135000D01*
X75056322Y-66135000D01*
X74558141Y-66341353D01*
X74533424Y-66316636D01*
X74493747Y-66257255D01*
X74405202Y-66198091D01*
X74690380Y-66079966D01*
X75290966Y-65479380D01*
X75481000Y-65020597D01*
X75671034Y-65479380D01*
X76271620Y-66079966D01*
X77056322Y-66405000D01*
X77905678Y-66405000D01*
X78690380Y-66079966D01*
X79290966Y-65479380D01*
X79481000Y-65020597D01*
X79671034Y-65479380D01*
X80271620Y-66079966D01*
X81056322Y-66405000D01*
X81905678Y-66405000D01*
X82690380Y-66079966D01*
X83290966Y-65479380D01*
X83481000Y-65020597D01*
X83671034Y-65479380D01*
X84271620Y-66079966D01*
X85056322Y-66405000D01*
X85905678Y-66405000D01*
X86690380Y-66079966D01*
X87290966Y-65479380D01*
X87481000Y-65020597D01*
X87671034Y-65479380D01*
X88271620Y-66079966D01*
X89056322Y-66405000D01*
X89905678Y-66405000D01*
X90690380Y-66079966D01*
X91290966Y-65479380D01*
X91481000Y-65020597D01*
X91671034Y-65479380D01*
X92271620Y-66079966D01*
X93056322Y-66405000D01*
X93905678Y-66405000D01*
X94690380Y-66079966D01*
X95290966Y-65479380D01*
X95616000Y-64694678D01*
X95616000Y-64360240D01*
X99921000Y-64360240D01*
X99921000Y-65179760D01*
X100234616Y-65936896D01*
X100814104Y-66516384D01*
X101571240Y-66830000D01*
X102390760Y-66830000D01*
X103147896Y-66516384D01*
X103727384Y-65936896D01*
X104041000Y-65179760D01*
X104041000Y-64360240D01*
X103727384Y-63603104D01*
X103147896Y-63023616D01*
X102390760Y-62710000D01*
X101571240Y-62710000D01*
X100814104Y-63023616D01*
X100234616Y-63603104D01*
X99921000Y-64360240D01*
X95616000Y-64360240D01*
X95616000Y-63845322D01*
X95290966Y-63060620D01*
X94690380Y-62460034D01*
X93905678Y-62135000D01*
X93056322Y-62135000D01*
X92271620Y-62460034D01*
X91671034Y-63060620D01*
X91481000Y-63519403D01*
X91290966Y-63060620D01*
X90690380Y-62460034D01*
X89905678Y-62135000D01*
X89056322Y-62135000D01*
X88271620Y-62460034D01*
X87671034Y-63060620D01*
X87481000Y-63519403D01*
X87290966Y-63060620D01*
X86690380Y-62460034D01*
X85905678Y-62135000D01*
X85056322Y-62135000D01*
X84271620Y-62460034D01*
X83671034Y-63060620D01*
X83481000Y-63519403D01*
X83290966Y-63060620D01*
X82690380Y-62460034D01*
X81905678Y-62135000D01*
X81056322Y-62135000D01*
X80271620Y-62460034D01*
X79671034Y-63060620D01*
X79481000Y-63519403D01*
X79290966Y-63060620D01*
X78690380Y-62460034D01*
X77905678Y-62135000D01*
X77056322Y-62135000D01*
X76271620Y-62460034D01*
X75671034Y-63060620D01*
X75481000Y-63519403D01*
X75290966Y-63060620D01*
X74690380Y-62460034D01*
X73905678Y-62135000D01*
X73056322Y-62135000D01*
X72271620Y-62460034D01*
X72195056Y-62536598D01*
X72023157Y-62364698D01*
X72655582Y-62102739D01*
X72815365Y-61783970D01*
X71481000Y-60449605D01*
X71466858Y-60463748D01*
X71287253Y-60284143D01*
X71301395Y-60270000D01*
X71660605Y-60270000D01*
X72994970Y-61604365D01*
X73313739Y-61444582D01*
X73480457Y-61019285D01*
X73671034Y-61479380D01*
X74271620Y-62079966D01*
X75056322Y-62405000D01*
X75905678Y-62405000D01*
X76690380Y-62079966D01*
X76986376Y-61783970D01*
X78146635Y-61783970D01*
X78306418Y-62102739D01*
X79097187Y-62412723D01*
X79946387Y-62396497D01*
X80655582Y-62102739D01*
X80815365Y-61783970D01*
X79481000Y-60449605D01*
X78146635Y-61783970D01*
X76986376Y-61783970D01*
X77290966Y-61479380D01*
X77476820Y-61030688D01*
X77648261Y-61444582D01*
X77967030Y-61604365D01*
X79301395Y-60270000D01*
X79660605Y-60270000D01*
X80994970Y-61604365D01*
X81313739Y-61444582D01*
X81480457Y-61019285D01*
X81671034Y-61479380D01*
X82271620Y-62079966D01*
X83056322Y-62405000D01*
X83905678Y-62405000D01*
X84690380Y-62079966D01*
X84986376Y-61783970D01*
X86146635Y-61783970D01*
X86306418Y-62102739D01*
X87097187Y-62412723D01*
X87946387Y-62396497D01*
X88655582Y-62102739D01*
X88815365Y-61783970D01*
X87481000Y-60449605D01*
X86146635Y-61783970D01*
X84986376Y-61783970D01*
X85290966Y-61479380D01*
X85476820Y-61030688D01*
X85648261Y-61444582D01*
X85967030Y-61604365D01*
X87301395Y-60270000D01*
X87660605Y-60270000D01*
X88994970Y-61604365D01*
X89313739Y-61444582D01*
X89480457Y-61019285D01*
X89671034Y-61479380D01*
X90271620Y-62079966D01*
X91056322Y-62405000D01*
X91905678Y-62405000D01*
X92690380Y-62079966D01*
X92986376Y-61783970D01*
X94146635Y-61783970D01*
X94306418Y-62102739D01*
X95097187Y-62412723D01*
X95946387Y-62396497D01*
X96655582Y-62102739D01*
X96815365Y-61783970D01*
X95481000Y-60449605D01*
X94146635Y-61783970D01*
X92986376Y-61783970D01*
X93290966Y-61479380D01*
X93476820Y-61030688D01*
X93648261Y-61444582D01*
X93967030Y-61604365D01*
X95301395Y-60270000D01*
X95660605Y-60270000D01*
X96994970Y-61604365D01*
X97313739Y-61444582D01*
X97623723Y-60653813D01*
X97607497Y-59804613D01*
X97313739Y-59095418D01*
X96994970Y-58935635D01*
X95660605Y-60270000D01*
X95301395Y-60270000D01*
X93967030Y-58935635D01*
X93648261Y-59095418D01*
X93481543Y-59520715D01*
X93290966Y-59060620D01*
X92986376Y-58756030D01*
X94146635Y-58756030D01*
X95481000Y-60090395D01*
X96815365Y-58756030D01*
X96655582Y-58437261D01*
X95864813Y-58127277D01*
X95015613Y-58143503D01*
X94306418Y-58437261D01*
X94146635Y-58756030D01*
X92986376Y-58756030D01*
X92690380Y-58460034D01*
X91905678Y-58135000D01*
X91056322Y-58135000D01*
X90271620Y-58460034D01*
X89671034Y-59060620D01*
X89485180Y-59509312D01*
X89313739Y-59095418D01*
X88994970Y-58935635D01*
X87660605Y-60270000D01*
X87301395Y-60270000D01*
X85967030Y-58935635D01*
X85648261Y-59095418D01*
X85481543Y-59520715D01*
X85290966Y-59060620D01*
X84986376Y-58756030D01*
X86146635Y-58756030D01*
X87481000Y-60090395D01*
X88815365Y-58756030D01*
X88655582Y-58437261D01*
X87864813Y-58127277D01*
X87015613Y-58143503D01*
X86306418Y-58437261D01*
X86146635Y-58756030D01*
X84986376Y-58756030D01*
X84690380Y-58460034D01*
X83905678Y-58135000D01*
X83056322Y-58135000D01*
X82271620Y-58460034D01*
X81671034Y-59060620D01*
X81485180Y-59509312D01*
X81313739Y-59095418D01*
X80994970Y-58935635D01*
X79660605Y-60270000D01*
X79301395Y-60270000D01*
X77967030Y-58935635D01*
X77648261Y-59095418D01*
X77481543Y-59520715D01*
X77290966Y-59060620D01*
X76986376Y-58756030D01*
X78146635Y-58756030D01*
X79481000Y-60090395D01*
X80815365Y-58756030D01*
X80655582Y-58437261D01*
X79864813Y-58127277D01*
X79015613Y-58143503D01*
X78306418Y-58437261D01*
X78146635Y-58756030D01*
X76986376Y-58756030D01*
X76690380Y-58460034D01*
X75905678Y-58135000D01*
X75056322Y-58135000D01*
X74271620Y-58460034D01*
X73671034Y-59060620D01*
X73485180Y-59509312D01*
X73313739Y-59095418D01*
X72994970Y-58935635D01*
X71660605Y-60270000D01*
X71301395Y-60270000D01*
X71287253Y-60255858D01*
X71466858Y-60076253D01*
X71481000Y-60090395D01*
X72815365Y-58756030D01*
X72655582Y-58437261D01*
X71864813Y-58127277D01*
X71015613Y-58143503D01*
X70307200Y-58436937D01*
X70307200Y-57042976D01*
X70321132Y-56972934D01*
X70307200Y-56902892D01*
X70307200Y-56902888D01*
X70265936Y-56695438D01*
X70190180Y-56582062D01*
X70148424Y-56519569D01*
X70148420Y-56519565D01*
X70108745Y-56460188D01*
X70049369Y-56420514D01*
X68756871Y-55128016D01*
X82084590Y-55128016D01*
X82140271Y-55358611D01*
X82623078Y-55526622D01*
X83133428Y-55497083D01*
X83467729Y-55358611D01*
X83523410Y-55128016D01*
X82804000Y-54408605D01*
X82084590Y-55128016D01*
X68756871Y-55128016D01*
X67921721Y-54292867D01*
X71084388Y-51130200D01*
X78042177Y-51130200D01*
X78032635Y-51136576D01*
X78032633Y-51136578D01*
X77973254Y-51176254D01*
X77933578Y-51235633D01*
X77658011Y-51511200D01*
X77537062Y-51511200D01*
X77191646Y-51654276D01*
X76927276Y-51918646D01*
X76784200Y-52264062D01*
X76784200Y-52637938D01*
X76927276Y-52983354D01*
X77191646Y-53247724D01*
X77537062Y-53390800D01*
X77910938Y-53390800D01*
X78256354Y-53247724D01*
X78520724Y-52983354D01*
X78663800Y-52637938D01*
X78663800Y-52516989D01*
X78780589Y-52400200D01*
X79104588Y-52400200D01*
X78979000Y-52703398D01*
X78979000Y-53214602D01*
X79174629Y-53686894D01*
X79536106Y-54048371D01*
X80008398Y-54244000D01*
X80519602Y-54244000D01*
X80991894Y-54048371D01*
X80992187Y-54048078D01*
X81506378Y-54048078D01*
X81535917Y-54558428D01*
X81674389Y-54892729D01*
X81904984Y-54948410D01*
X82624395Y-54229000D01*
X82983605Y-54229000D01*
X83703016Y-54948410D01*
X83933611Y-54892729D01*
X84101622Y-54409922D01*
X84072083Y-53899572D01*
X83933611Y-53565271D01*
X83703016Y-53509590D01*
X82983605Y-54229000D01*
X82624395Y-54229000D01*
X81904984Y-53509590D01*
X81674389Y-53565271D01*
X81506378Y-54048078D01*
X80992187Y-54048078D01*
X81353371Y-53686894D01*
X81549000Y-53214602D01*
X81549000Y-52703398D01*
X81423412Y-52400200D01*
X81707714Y-52400200D01*
X81714629Y-52416894D01*
X82076106Y-52778371D01*
X82511634Y-52958772D01*
X82474572Y-52960917D01*
X82140271Y-53099389D01*
X82084590Y-53329984D01*
X82804000Y-54049395D01*
X83523410Y-53329984D01*
X83478689Y-53144778D01*
X103546000Y-53144778D01*
X103546000Y-53795222D01*
X103794914Y-54396153D01*
X104254847Y-54856086D01*
X104855778Y-55105000D01*
X105506222Y-55105000D01*
X106107153Y-54856086D01*
X106567086Y-54396153D01*
X106816000Y-53795222D01*
X106816000Y-53144778D01*
X106567086Y-52543847D01*
X106107153Y-52083914D01*
X105506222Y-51835000D01*
X104855778Y-51835000D01*
X104254847Y-52083914D01*
X103794914Y-52543847D01*
X103546000Y-53144778D01*
X83478689Y-53144778D01*
X83467729Y-53099389D01*
X83081426Y-52964960D01*
X83531894Y-52778371D01*
X83893371Y-52416894D01*
X84089000Y-51944602D01*
X84089000Y-51433398D01*
X83893371Y-50961106D01*
X83531894Y-50599629D01*
X83059602Y-50404000D01*
X82691239Y-50404000D01*
X83150086Y-49945153D01*
X83399000Y-49344222D01*
X83399000Y-48693778D01*
X83150086Y-48092847D01*
X82690153Y-47632914D01*
X82089222Y-47384000D01*
X81438778Y-47384000D01*
X80837847Y-47632914D01*
X80377914Y-48092847D01*
X80129000Y-48693778D01*
X80129000Y-49134000D01*
X80008398Y-49134000D01*
X79536106Y-49329629D01*
X79174629Y-49691106D01*
X79167714Y-49707800D01*
X70859841Y-49707800D01*
X70789799Y-49693868D01*
X70719757Y-49707800D01*
X70719753Y-49707800D01*
X70512303Y-49749064D01*
X70512301Y-49749065D01*
X70512302Y-49749065D01*
X70336434Y-49866576D01*
X70336432Y-49866578D01*
X70277053Y-49906254D01*
X70237377Y-49965633D01*
X66380754Y-53822257D01*
X66328724Y-53696646D01*
X66064354Y-53432276D01*
X65718938Y-53289200D01*
X65345062Y-53289200D01*
X64999646Y-53432276D01*
X64735276Y-53696646D01*
X64592200Y-54042062D01*
X64592200Y-54415938D01*
X64735276Y-54761354D01*
X64999646Y-55025724D01*
X65345062Y-55168800D01*
X65507019Y-55168800D01*
X65559303Y-55203735D01*
X65766753Y-55244999D01*
X65766757Y-55244999D01*
X65836799Y-55258931D01*
X65906841Y-55244999D01*
X66604959Y-55244999D01*
X66675000Y-55258931D01*
X66745041Y-55244999D01*
X66862277Y-55244999D01*
X67979876Y-56362599D01*
X65847495Y-56362599D01*
X65795324Y-56236646D01*
X65530954Y-55972276D01*
X65185538Y-55829200D01*
X64811662Y-55829200D01*
X64466246Y-55972276D01*
X64201876Y-56236646D01*
X64058800Y-56582062D01*
X64058800Y-56955938D01*
X64201876Y-57301354D01*
X64466246Y-57565724D01*
X64811662Y-57708800D01*
X64973619Y-57708800D01*
X65025903Y-57743735D01*
X65233353Y-57784999D01*
X65233357Y-57784999D01*
X65303399Y-57798931D01*
X65373441Y-57784999D01*
X67949812Y-57784999D01*
X68498401Y-58333589D01*
X68498401Y-58380514D01*
X67905678Y-58135000D01*
X67056322Y-58135000D01*
X66271620Y-58460034D01*
X65671034Y-59060620D01*
X65346000Y-59845322D01*
X65346000Y-60694678D01*
X65671034Y-61479380D01*
X66271620Y-62079966D01*
X67056322Y-62405000D01*
X67905678Y-62405000D01*
X68574183Y-62128096D01*
X68657177Y-62252305D01*
X68657180Y-62252308D01*
X68682312Y-62289920D01*
X68271620Y-62460034D01*
X67671034Y-63060620D01*
X67464681Y-63558800D01*
X64437589Y-63558800D01*
X59265515Y-58386726D01*
X59216936Y-58142504D01*
X59059746Y-57907254D01*
X58824496Y-57750064D01*
X58617046Y-57708800D01*
X58547000Y-57694867D01*
X58476954Y-57708800D01*
X55158589Y-57708800D01*
X50594567Y-53144778D01*
X56146000Y-53144778D01*
X56146000Y-53795222D01*
X56394914Y-54396153D01*
X56854847Y-54856086D01*
X57455778Y-55105000D01*
X58106222Y-55105000D01*
X58707153Y-54856086D01*
X59167086Y-54396153D01*
X59416000Y-53795222D01*
X59416000Y-53144778D01*
X59167086Y-52543847D01*
X58707153Y-52083914D01*
X58106222Y-51835000D01*
X57455778Y-51835000D01*
X56854847Y-52083914D01*
X56394914Y-52543847D01*
X56146000Y-53144778D01*
X50594567Y-53144778D01*
X44277496Y-46827708D01*
X44667540Y-46666147D01*
X45057147Y-46276540D01*
X45153000Y-46045130D01*
X45248853Y-46276540D01*
X45638460Y-46666147D01*
X46147506Y-46877000D01*
X46698494Y-46877000D01*
X47207540Y-46666147D01*
X47410170Y-46463517D01*
X48171088Y-46463517D01*
X48239077Y-46704460D01*
X48758171Y-46889201D01*
X49308448Y-46861230D01*
X49686923Y-46704460D01*
X49754912Y-46463517D01*
X48963000Y-45671605D01*
X48171088Y-46463517D01*
X47410170Y-46463517D01*
X47597147Y-46276540D01*
X47686397Y-46061070D01*
X47750540Y-46215923D01*
X47991483Y-46283912D01*
X48783395Y-45492000D01*
X49142605Y-45492000D01*
X49934517Y-46283912D01*
X50175460Y-46215923D01*
X50360201Y-45696829D01*
X50332230Y-45146552D01*
X50175460Y-44768077D01*
X49934517Y-44700088D01*
X49142605Y-45492000D01*
X48783395Y-45492000D01*
X47991483Y-44700088D01*
X47750540Y-44768077D01*
X47691255Y-44934658D01*
X47597147Y-44707460D01*
X47410170Y-44520483D01*
X48171088Y-44520483D01*
X48963000Y-45312395D01*
X49754912Y-44520483D01*
X49686923Y-44279540D01*
X49167829Y-44094799D01*
X48617552Y-44122770D01*
X48239077Y-44279540D01*
X48171088Y-44520483D01*
X47410170Y-44520483D01*
X47207540Y-44317853D01*
X46698494Y-44107000D01*
X46147506Y-44107000D01*
X45638460Y-44317853D01*
X45248853Y-44707460D01*
X45153000Y-44938870D01*
X45057147Y-44707460D01*
X44667540Y-44317853D01*
X44158494Y-44107000D01*
X43607506Y-44107000D01*
X43098460Y-44317853D01*
X42708853Y-44707460D01*
X42613000Y-44938870D01*
X42517147Y-44707460D01*
X42127540Y-44317853D01*
X41618494Y-44107000D01*
X41067506Y-44107000D01*
X40784200Y-44224349D01*
X40784200Y-44156525D01*
X40857540Y-44126147D01*
X41247147Y-43736540D01*
X41343000Y-43505130D01*
X41438853Y-43736540D01*
X41828460Y-44126147D01*
X42337506Y-44337000D01*
X42888494Y-44337000D01*
X43397540Y-44126147D01*
X43787147Y-43736540D01*
X43883000Y-43505130D01*
X43978853Y-43736540D01*
X44368460Y-44126147D01*
X44877506Y-44337000D01*
X45428494Y-44337000D01*
X45937540Y-44126147D01*
X46327147Y-43736540D01*
X46423000Y-43505130D01*
X46518853Y-43736540D01*
X46908460Y-44126147D01*
X47417506Y-44337000D01*
X47968494Y-44337000D01*
X48477540Y-44126147D01*
X48867147Y-43736540D01*
X48892240Y-43675958D01*
X55723647Y-43675958D01*
X55803920Y-43927259D01*
X56359279Y-44128718D01*
X56949458Y-44102315D01*
X57372080Y-43927259D01*
X57452353Y-43675958D01*
X56588000Y-42811605D01*
X55723647Y-43675958D01*
X48892240Y-43675958D01*
X49078000Y-43227494D01*
X49078000Y-42676506D01*
X49003091Y-42495659D01*
X50228946Y-42495659D01*
X50373467Y-42801444D01*
X51118993Y-43090571D01*
X51918414Y-43072389D01*
X52572533Y-42801444D01*
X52717054Y-42495659D01*
X52624674Y-42403279D01*
X55091282Y-42403279D01*
X55117685Y-42993458D01*
X55292741Y-43416080D01*
X55544042Y-43496353D01*
X56408395Y-42632000D01*
X55544042Y-41767647D01*
X55292741Y-41847920D01*
X55091282Y-42403279D01*
X52624674Y-42403279D01*
X51473000Y-41251605D01*
X50228946Y-42495659D01*
X49003091Y-42495659D01*
X48867147Y-42167460D01*
X48477540Y-41777853D01*
X47968494Y-41567000D01*
X47417506Y-41567000D01*
X46908460Y-41777853D01*
X46518853Y-42167460D01*
X46423000Y-42398870D01*
X46327147Y-42167460D01*
X45937540Y-41777853D01*
X45428494Y-41567000D01*
X44877506Y-41567000D01*
X44368460Y-41777853D01*
X43978853Y-42167460D01*
X43883000Y-42398870D01*
X43787147Y-42167460D01*
X43397540Y-41777853D01*
X42888494Y-41567000D01*
X42337506Y-41567000D01*
X41828460Y-41777853D01*
X41438853Y-42167460D01*
X41343000Y-42398870D01*
X41247147Y-42167460D01*
X40857540Y-41777853D01*
X40348494Y-41567000D01*
X39797506Y-41567000D01*
X39487015Y-41695609D01*
X39591571Y-41426007D01*
X39575468Y-40717993D01*
X49454429Y-40717993D01*
X49472611Y-41517414D01*
X49743556Y-42171533D01*
X50049341Y-42316054D01*
X51293395Y-41072000D01*
X51652605Y-41072000D01*
X52896659Y-42316054D01*
X53202444Y-42171533D01*
X53491571Y-41426007D01*
X53485884Y-41175958D01*
X55723647Y-41175958D01*
X55789463Y-41382000D01*
X55723647Y-41588042D01*
X56588000Y-42452395D01*
X57452353Y-41588042D01*
X57386537Y-41382000D01*
X57452353Y-41175958D01*
X56588000Y-40311605D01*
X55723647Y-41175958D01*
X53485884Y-41175958D01*
X53473389Y-40626586D01*
X53202444Y-39972467D01*
X53056053Y-39903279D01*
X55091282Y-39903279D01*
X55117685Y-40493458D01*
X55292741Y-40916080D01*
X55544042Y-40996353D01*
X56408395Y-40132000D01*
X56767605Y-40132000D01*
X57631958Y-40996353D01*
X57814519Y-40938037D01*
X57829078Y-40973185D01*
X58237893Y-41382000D01*
X57829078Y-41790815D01*
X57814519Y-41825963D01*
X57631958Y-41767647D01*
X56767605Y-42632000D01*
X57631958Y-43496353D01*
X57814519Y-43438037D01*
X57829078Y-43473185D01*
X58246815Y-43890922D01*
X58792615Y-44117000D01*
X59383385Y-44117000D01*
X59929185Y-43890922D01*
X60144149Y-43675958D01*
X60723647Y-43675958D01*
X60803920Y-43927259D01*
X61359279Y-44128718D01*
X61949458Y-44102315D01*
X62372080Y-43927259D01*
X62452353Y-43675958D01*
X61588000Y-42811605D01*
X60723647Y-43675958D01*
X60144149Y-43675958D01*
X60346922Y-43473185D01*
X60361481Y-43438037D01*
X60544042Y-43496353D01*
X61408395Y-42632000D01*
X61394253Y-42617858D01*
X61573858Y-42438253D01*
X61588000Y-42452395D01*
X62452353Y-41588042D01*
X62386537Y-41382000D01*
X62452353Y-41175958D01*
X61588000Y-40311605D01*
X61573858Y-40325748D01*
X61394253Y-40146143D01*
X61408395Y-40132000D01*
X61394253Y-40117858D01*
X61573858Y-39938253D01*
X61588000Y-39952395D01*
X61602143Y-39938253D01*
X61781748Y-40117858D01*
X61767605Y-40132000D01*
X62631958Y-40996353D01*
X62814519Y-40938037D01*
X62829078Y-40973185D01*
X63237893Y-41382000D01*
X62829078Y-41790815D01*
X62814519Y-41825963D01*
X62631958Y-41767647D01*
X61767605Y-42632000D01*
X62631958Y-43496353D01*
X62814519Y-43438037D01*
X62829078Y-43473185D01*
X63246815Y-43890922D01*
X63792615Y-44117000D01*
X64383385Y-44117000D01*
X64929185Y-43890922D01*
X65144149Y-43675958D01*
X65723647Y-43675958D01*
X65803920Y-43927259D01*
X66359279Y-44128718D01*
X66949458Y-44102315D01*
X67372080Y-43927259D01*
X67452353Y-43675958D01*
X66588000Y-42811605D01*
X65723647Y-43675958D01*
X65144149Y-43675958D01*
X65346922Y-43473185D01*
X65361481Y-43438037D01*
X65544042Y-43496353D01*
X66408395Y-42632000D01*
X65544042Y-41767647D01*
X65361481Y-41825963D01*
X65346922Y-41790815D01*
X64938107Y-41382000D01*
X65338000Y-40982107D01*
X65746815Y-41390922D01*
X65781963Y-41405481D01*
X65723647Y-41588042D01*
X66588000Y-42452395D01*
X67452353Y-41588042D01*
X67394037Y-41405481D01*
X67429185Y-41390922D01*
X67693240Y-41126867D01*
X67853414Y-41366586D01*
X68093133Y-41526760D01*
X67829078Y-41790815D01*
X67814519Y-41825963D01*
X67631958Y-41767647D01*
X66767605Y-42632000D01*
X67631958Y-43496353D01*
X67814519Y-43438037D01*
X67829078Y-43473185D01*
X68246815Y-43890922D01*
X68792615Y-44117000D01*
X69383385Y-44117000D01*
X69928514Y-43891200D01*
X72023457Y-43891200D01*
X71984646Y-43907276D01*
X71720276Y-44171646D01*
X71577200Y-44517062D01*
X71577200Y-44890938D01*
X71720276Y-45236354D01*
X71984646Y-45500724D01*
X72330062Y-45643800D01*
X72492019Y-45643800D01*
X72544303Y-45678735D01*
X72751753Y-45719999D01*
X72751757Y-45719999D01*
X72821799Y-45733931D01*
X72891841Y-45719999D01*
X82440122Y-45719999D01*
X82525646Y-45805523D01*
X82871062Y-45948599D01*
X83244938Y-45948599D01*
X83590354Y-45805523D01*
X83854724Y-45541153D01*
X83997800Y-45195737D01*
X83997800Y-44821861D01*
X83854724Y-44476445D01*
X83590354Y-44212075D01*
X83244938Y-44068999D01*
X82871062Y-44068999D01*
X82525646Y-44212075D01*
X82440122Y-44297599D01*
X73365895Y-44297599D01*
X73313724Y-44171646D01*
X73049354Y-43907276D01*
X73010543Y-43891200D01*
X77106122Y-43891200D01*
X77191646Y-43976724D01*
X77537062Y-44119800D01*
X77910938Y-44119800D01*
X78256354Y-43976724D01*
X78520724Y-43712354D01*
X78663800Y-43366938D01*
X78663800Y-42993062D01*
X78520724Y-42647646D01*
X78256354Y-42383276D01*
X77910938Y-42240200D01*
X77537062Y-42240200D01*
X77191646Y-42383276D01*
X77106122Y-42468800D01*
X70573000Y-42468800D01*
X70573000Y-42336615D01*
X70346922Y-41790815D01*
X70082867Y-41526760D01*
X70322586Y-41366586D01*
X70517126Y-41075435D01*
X70585440Y-40732000D01*
X70585440Y-39532000D01*
X70517126Y-39188565D01*
X70322586Y-38897414D01*
X70031435Y-38702874D01*
X69688000Y-38634560D01*
X68488000Y-38634560D01*
X68144565Y-38702874D01*
X67853414Y-38897414D01*
X67693240Y-39137133D01*
X67429185Y-38873078D01*
X66883385Y-38647000D01*
X66292615Y-38647000D01*
X65746815Y-38873078D01*
X65338000Y-39281893D01*
X64929185Y-38873078D01*
X64383385Y-38647000D01*
X64123000Y-38647000D01*
X64123000Y-38536398D01*
X63927371Y-38064106D01*
X63565894Y-37702629D01*
X63225166Y-37561495D01*
X63448662Y-37337999D01*
X66300160Y-37337999D01*
X66370201Y-37351931D01*
X66440242Y-37337999D01*
X66440247Y-37337999D01*
X66647697Y-37296735D01*
X66699981Y-37261800D01*
X66861938Y-37261800D01*
X67207354Y-37118724D01*
X67471724Y-36854354D01*
X67614800Y-36508938D01*
X67614800Y-36135062D01*
X67471724Y-35789646D01*
X67207354Y-35525276D01*
X66861938Y-35382200D01*
X66488062Y-35382200D01*
X66142646Y-35525276D01*
X65878276Y-35789646D01*
X65826105Y-35915599D01*
X63224114Y-35915599D01*
X63154072Y-35901667D01*
X63084030Y-35915599D01*
X63084027Y-35915599D01*
X62876577Y-35956863D01*
X62876576Y-35956864D01*
X62876575Y-35956864D01*
X62700708Y-36074375D01*
X62700706Y-36074377D01*
X62641327Y-36114053D01*
X62601651Y-36173432D01*
X59909966Y-38865117D01*
X59383385Y-38647000D01*
X58792615Y-38647000D01*
X58246815Y-38873078D01*
X57829078Y-39290815D01*
X57814519Y-39325963D01*
X57631958Y-39267647D01*
X56767605Y-40132000D01*
X56408395Y-40132000D01*
X55544042Y-39267647D01*
X55292741Y-39347920D01*
X55091282Y-39903279D01*
X53056053Y-39903279D01*
X52896659Y-39827946D01*
X51652605Y-41072000D01*
X51293395Y-41072000D01*
X50049341Y-39827946D01*
X49743556Y-39972467D01*
X49454429Y-40717993D01*
X39575468Y-40717993D01*
X39573389Y-40626586D01*
X39302444Y-39972467D01*
X38996659Y-39827946D01*
X37752605Y-41072000D01*
X37766748Y-41086143D01*
X37587143Y-41265748D01*
X37573000Y-41251605D01*
X36328946Y-42495659D01*
X34669860Y-42495659D01*
X34483019Y-40717993D01*
X35554429Y-40717993D01*
X35572611Y-41517414D01*
X35843556Y-42171533D01*
X36149341Y-42316054D01*
X37393395Y-41072000D01*
X36149341Y-39827946D01*
X35843556Y-39972467D01*
X35554429Y-40717993D01*
X34483019Y-40717993D01*
X34370594Y-39648341D01*
X36328946Y-39648341D01*
X37573000Y-40892395D01*
X38817054Y-39648341D01*
X50228946Y-39648341D01*
X51473000Y-40892395D01*
X52717054Y-39648341D01*
X52572533Y-39342556D01*
X51916259Y-39088042D01*
X55723647Y-39088042D01*
X56588000Y-39952395D01*
X57452353Y-39088042D01*
X57372080Y-38836741D01*
X56816721Y-38635282D01*
X56226542Y-38661685D01*
X55803920Y-38836741D01*
X55723647Y-39088042D01*
X51916259Y-39088042D01*
X51827007Y-39053429D01*
X51027586Y-39071611D01*
X50373467Y-39342556D01*
X50228946Y-39648341D01*
X38817054Y-39648341D01*
X38672533Y-39342556D01*
X37927007Y-39053429D01*
X37127586Y-39071611D01*
X36473467Y-39342556D01*
X36328946Y-39648341D01*
X34370594Y-39648341D01*
X34097012Y-37045390D01*
X34107433Y-36547891D01*
X34228714Y-36113514D01*
X34267400Y-36046506D01*
X36588000Y-36046506D01*
X36588000Y-36597494D01*
X36798853Y-37106540D01*
X37188460Y-37496147D01*
X37697506Y-37707000D01*
X38248494Y-37707000D01*
X38757540Y-37496147D01*
X38960170Y-37293517D01*
X39721088Y-37293517D01*
X39789077Y-37534460D01*
X40308171Y-37719201D01*
X40858448Y-37691230D01*
X41236923Y-37534460D01*
X41304912Y-37293517D01*
X40513000Y-36501605D01*
X39721088Y-37293517D01*
X38960170Y-37293517D01*
X39147147Y-37106540D01*
X39236397Y-36891070D01*
X39300540Y-37045923D01*
X39541483Y-37113912D01*
X40333395Y-36322000D01*
X40692605Y-36322000D01*
X41484517Y-37113912D01*
X41725460Y-37045923D01*
X41910201Y-36526829D01*
X41885786Y-36046506D01*
X47148000Y-36046506D01*
X47148000Y-36597494D01*
X47358853Y-37106540D01*
X47748460Y-37496147D01*
X48257506Y-37707000D01*
X48808494Y-37707000D01*
X49317540Y-37496147D01*
X49520170Y-37293517D01*
X50281088Y-37293517D01*
X50349077Y-37534460D01*
X50868171Y-37719201D01*
X51418448Y-37691230D01*
X51796923Y-37534460D01*
X51864912Y-37293517D01*
X51073000Y-36501605D01*
X50281088Y-37293517D01*
X49520170Y-37293517D01*
X49707147Y-37106540D01*
X49796397Y-36891070D01*
X49860540Y-37045923D01*
X50101483Y-37113912D01*
X50893395Y-36322000D01*
X51252605Y-36322000D01*
X52044517Y-37113912D01*
X52285460Y-37045923D01*
X52470201Y-36526829D01*
X52442230Y-35976552D01*
X52285460Y-35598077D01*
X52044517Y-35530088D01*
X51252605Y-36322000D01*
X50893395Y-36322000D01*
X50101483Y-35530088D01*
X49860540Y-35598077D01*
X49801255Y-35764658D01*
X49707147Y-35537460D01*
X49520170Y-35350483D01*
X50281088Y-35350483D01*
X51073000Y-36142395D01*
X51864912Y-35350483D01*
X51796923Y-35109540D01*
X51277829Y-34924799D01*
X50727552Y-34952770D01*
X50349077Y-35109540D01*
X50281088Y-35350483D01*
X49520170Y-35350483D01*
X49317540Y-35147853D01*
X48808494Y-34937000D01*
X48257506Y-34937000D01*
X47748460Y-35147853D01*
X47358853Y-35537460D01*
X47148000Y-36046506D01*
X41885786Y-36046506D01*
X41882230Y-35976552D01*
X41725460Y-35598077D01*
X41484517Y-35530088D01*
X40692605Y-36322000D01*
X40333395Y-36322000D01*
X39541483Y-35530088D01*
X39300540Y-35598077D01*
X39241255Y-35764658D01*
X39147147Y-35537460D01*
X38960170Y-35350483D01*
X39721088Y-35350483D01*
X40513000Y-36142395D01*
X41304912Y-35350483D01*
X41236923Y-35109540D01*
X40717829Y-34924799D01*
X40167552Y-34952770D01*
X39789077Y-35109540D01*
X39721088Y-35350483D01*
X38960170Y-35350483D01*
X38757540Y-35147853D01*
X38248494Y-34937000D01*
X37697506Y-34937000D01*
X37188460Y-35147853D01*
X36798853Y-35537460D01*
X36588000Y-36046506D01*
X34267400Y-36046506D01*
X34454208Y-35722946D01*
X34790861Y-35379167D01*
X34920419Y-35285548D01*
X35563301Y-34830184D01*
X35576632Y-34819519D01*
X35617437Y-34787905D01*
X36619418Y-33927068D01*
X36623573Y-33923054D01*
X36628116Y-33919476D01*
X36681191Y-33867379D01*
X37575894Y-32895519D01*
X37579555Y-32891043D01*
X37583646Y-32886964D01*
X37630281Y-32829030D01*
X38390993Y-31779422D01*
X38723177Y-31380481D01*
X39088880Y-31116563D01*
X39508725Y-30951883D01*
X39986292Y-30893101D01*
X40132904Y-30900094D01*
G04 #@! TD*
M02*
