M48
INCH,TZ
T1C0.0120
T2C0.0315
T3C0.0374
T4C0.0472
T5C0.0591
T6C0.0689
T7C0.0858
T8C0.0512
T9C0.0787
T10C0.1122
%
G90
G05
T1
X25590Y-22350
X25800Y-21350
X26250Y-14300
X28550Y-17600
X28750Y-27889
X30600Y-17000
X30600Y-20650
X32700Y-17720
T2
X46000Y-26100
X46000Y-27100
X46000Y-28100
X46000Y-29100
X46000Y-30100
X47000Y-26600
X47000Y-27600
X47000Y-28600
X47000Y-29600
X47000Y-30600
X24887Y-29273
X25387Y-28273
X25887Y-29273
X26387Y-28273
X26887Y-29273
X27387Y-28273
X27887Y-29273
X28387Y-28273
X28887Y-29273
X29387Y-28273
X29887Y-29273
X30387Y-28273
X30887Y-29273
X31387Y-28273
X31887Y-29273
X32387Y-28273
X32887Y-29273
X33387Y-28273
X33887Y-29273
X34387Y-28273
X31600Y-19850
X31600Y-20850
X32600Y-20350
X32600Y-21350
T3
X14950Y-14300
X15777Y-16910
X15950Y-14300
X16277Y-17910
X16777Y-16910
X17277Y-17910
X17777Y-16910
X18277Y-17910
X18777Y-16910
X19107Y-14300
X19277Y-17910
X20107Y-14300
T4
X22279Y-15800
X22279Y-16784
X23263Y-15800
X23263Y-16784
X24247Y-15800
X24247Y-16784
X25231Y-15800
X25231Y-16784
X26216Y-15800
X26216Y-16784
X27200Y-15800
X27200Y-16784
T5
X32191Y-19299
X46291Y-31151
X24336Y-28564
T6
X26567Y-23728
X26567Y-26878
X27355Y-25303
X28142Y-23728
X28142Y-26878
X28930Y-25303
X29717Y-23728
X29717Y-26878
X30504Y-25303
X31292Y-23728
X31292Y-26878
X32079Y-25303
X32867Y-23728
X32867Y-26878
X33654Y-25303
X34441Y-23728
X34441Y-26878
X35229Y-25303
X36016Y-23728
X36016Y-26878
X36804Y-25303
X37591Y-23728
X37591Y-26878
T7
X14793Y-16170
X20265Y-16170
T8
X24739Y-15272
T9
X22158Y-28177
X22748Y-21051
X41410Y-21051
X42000Y-28177
T10
X24008Y-25500
X40150Y-25500
T0
M30
