M48
INCH,TZ
T1C0.0280
T2C0.0315
T3C0.0400
T4C0.0402
T5C0.0400
T6C0.0950
%
G90
G05
T1
X47000Y-38000
X48000Y-38000
X49000Y-38000
X50000Y-38000
X51000Y-38000
X52000Y-38000
X53000Y-38000
X54000Y-38000
X55000Y-38000
X56000Y-38000
X57000Y-38000
X58000Y-38000
X59000Y-38000
X60000Y-38000
X61000Y-38000
X62000Y-38000
X63000Y-38000
X64000Y-38000
X65000Y-38000
X66000Y-38000
X67000Y-38000
X68000Y-38000
X69000Y-38000
X70000Y-38000
X71000Y-38000
X72000Y-38000
X47000Y-22500
X48000Y-22500
X49000Y-22500
X50000Y-22500
X51000Y-22500
X52000Y-22500
X53000Y-22500
X54000Y-22500
X55000Y-22500
X56000Y-22500
X57000Y-22500
X58000Y-22500
X59000Y-22500
X60000Y-22500
X61000Y-22500
X62000Y-22500
X63000Y-22500
X64000Y-22500
X65000Y-22500
X66000Y-22500
X67000Y-22500
X68000Y-22500
X69000Y-22500
X70000Y-22500
X71000Y-22500
X72000Y-22500
T2
X47500Y-28500
X47500Y-29500
X47500Y-30500
X47500Y-31500
X47500Y-32500
X47500Y-33500
X47500Y-34500
X48500Y-28000
X48500Y-29000
X48500Y-30000
X48500Y-31000
X48500Y-32000
X48500Y-33000
X48500Y-34000
X60000Y-19000
X60500Y-20000
X61000Y-19000
X61500Y-20000
X62000Y-19000
X62500Y-20000
X54000Y-26000
X54500Y-27000
X55000Y-26000
X55500Y-27000
X56000Y-26000
X56500Y-27000
X57000Y-26000
X57500Y-27000
X58000Y-26000
X58500Y-27000
X59000Y-26000
X59500Y-27000
X60000Y-26000
X60500Y-27000
X61000Y-26000
X61500Y-27000
X62000Y-26000
X62500Y-27000
X63000Y-26000
X63500Y-27000
X53000Y-34500
X53000Y-35500
X54000Y-34000
X54000Y-35000
T3
X70229Y-27646
X70229Y-28826
X74276Y-27646
X74276Y-28826
T4
X57953Y-33552
X59134Y-32001
X59134Y-33182
X60315Y-32001
X60315Y-33182
X61504Y-32001
X61504Y-33182
X62685Y-32001
X62685Y-33182
X63866Y-32001
X63866Y-33182
X65047Y-33552
T5
X69049Y-27276
X71409Y-27276
X73096Y-27276
X75456Y-27276
T6
X69379Y-28236
X71079Y-28236
X73426Y-28236
X75126Y-28236
T0
M30
