G04 #@! TF.GenerationSoftware,KiCad,Pcbnew,5.0.2-bee76a0~70~ubuntu18.04.1*
G04 #@! TF.CreationDate,2019-05-01T23:48:17-04:00*
G04 #@! TF.ProjectId,internal_board,696e7465-726e-4616-9c5f-626f6172642e,rev?*
G04 #@! TF.SameCoordinates,Original*
G04 #@! TF.FileFunction,Legend,Top*
G04 #@! TF.FilePolarity,Positive*
%FSLAX46Y46*%
G04 Gerber Fmt 4.6, Leading zero omitted, Abs format (unit mm)*
G04 Created by KiCad (PCBNEW 5.0.2-bee76a0~70~ubuntu18.04.1) date Wed 01 May 2019 11:48:17 PM EDT*
%MOMM*%
%LPD*%
G01*
G04 APERTURE LIST*
%ADD10C,0.150000*%
G04 APERTURE END LIST*
D10*
G04 #@! TO.C,J7*
X184404000Y-59182000D02*
X184404000Y-55118000D01*
X184404000Y-55118000D02*
X117856000Y-55118000D01*
X117856000Y-59182000D02*
X184404000Y-59182000D01*
X117856000Y-59182000D02*
X117856000Y-55118000D01*
G04 #@! TO.C,J8*
X184404000Y-94488000D02*
X184404000Y-98552000D01*
X184404000Y-94488000D02*
X117856000Y-94488000D01*
X117856000Y-98552000D02*
X184404000Y-98552000D01*
X117856000Y-94488000D02*
X117856000Y-98552000D01*
G04 #@! TO.C,J7*
X164258666Y-59650380D02*
X164258666Y-60364666D01*
X164211047Y-60507523D01*
X164115809Y-60602761D01*
X163972952Y-60650380D01*
X163877714Y-60650380D01*
X164639619Y-59650380D02*
X165306285Y-59650380D01*
X164877714Y-60650380D01*
G04 #@! TO.C,J8*
X137334666Y-92924380D02*
X137334666Y-93638666D01*
X137287047Y-93781523D01*
X137191809Y-93876761D01*
X137048952Y-93924380D01*
X136953714Y-93924380D01*
X137953714Y-93352952D02*
X137858476Y-93305333D01*
X137810857Y-93257714D01*
X137763238Y-93162476D01*
X137763238Y-93114857D01*
X137810857Y-93019619D01*
X137858476Y-92972000D01*
X137953714Y-92924380D01*
X138144190Y-92924380D01*
X138239428Y-92972000D01*
X138287047Y-93019619D01*
X138334666Y-93114857D01*
X138334666Y-93162476D01*
X138287047Y-93257714D01*
X138239428Y-93305333D01*
X138144190Y-93352952D01*
X137953714Y-93352952D01*
X137858476Y-93400571D01*
X137810857Y-93448190D01*
X137763238Y-93543428D01*
X137763238Y-93733904D01*
X137810857Y-93829142D01*
X137858476Y-93876761D01*
X137953714Y-93924380D01*
X138144190Y-93924380D01*
X138239428Y-93876761D01*
X138287047Y-93829142D01*
X138334666Y-93733904D01*
X138334666Y-93543428D01*
X138287047Y-93448190D01*
X138239428Y-93400571D01*
X138144190Y-93352952D01*
G04 #@! TO.C,J6*
X187676714Y-74178980D02*
X187105285Y-74178980D01*
X187391000Y-74178980D02*
X187391000Y-73178980D01*
X187295761Y-73321838D01*
X187200523Y-73417076D01*
X187105285Y-73464695D01*
X187105285Y-69210219D02*
X187152904Y-69162600D01*
X187248142Y-69114980D01*
X187486238Y-69114980D01*
X187581476Y-69162600D01*
X187629095Y-69210219D01*
X187676714Y-69305457D01*
X187676714Y-69400695D01*
X187629095Y-69543552D01*
X187057666Y-70114980D01*
X187676714Y-70114980D01*
G04 #@! TO.C,J9*
X176825285Y-69210219D02*
X176872904Y-69162600D01*
X176968142Y-69114980D01*
X177206238Y-69114980D01*
X177301476Y-69162600D01*
X177349095Y-69210219D01*
X177396714Y-69305457D01*
X177396714Y-69400695D01*
X177349095Y-69543552D01*
X176777666Y-70114980D01*
X177396714Y-70114980D01*
X177396714Y-74178980D02*
X176825285Y-74178980D01*
X177111000Y-74178980D02*
X177111000Y-73178980D01*
X177015761Y-73321838D01*
X176920523Y-73417076D01*
X176825285Y-73464695D01*
G04 #@! TD*
M02*
